<svg width="169" height="26" viewBox="0 0 169 26" fill="none" xmlns="http://www.w3.org/2000/svg">
<path d="M1 12C1 6.34315 1 3.51472 2.75736 1.75736C4.51472 0 7.34315 0 13 0H60V26H13C7.34315 26 4.51472 26 2.75736 24.2426C1 22.4853 1 19.6569 1 14V12Z" fill="#3F3F3F"/>
<path d="M8.52983 8.54545L10.815 15.7287H10.9027L13.1925 8.54545H15.4084L12.1491 18H9.57315L6.3093 8.54545H8.52983ZM18.9411 18.1385C18.2117 18.1385 17.5839 17.9908 17.0576 17.6953C16.5344 17.3968 16.1312 16.9751 15.8481 16.4304C15.565 15.8826 15.4234 15.2347 15.4234 14.4869C15.4234 13.7575 15.565 13.1173 15.8481 12.5664C16.1312 12.0155 16.5298 11.5862 17.0438 11.2784C17.5608 10.9706 18.1671 10.8168 18.8627 10.8168C19.3305 10.8168 19.766 10.8922 20.1691 11.043C20.5754 11.1907 20.9293 11.4138 21.2309 11.7124C21.5356 12.0109 21.7726 12.3864 21.9419 12.8388C22.1111 13.2881 22.1958 13.8144 22.1958 14.4176V14.9577H16.2082V13.739H20.3445C20.3445 13.4558 20.283 13.205 20.1599 12.9865C20.0368 12.768 19.866 12.5972 19.6475 12.4741C19.432 12.3479 19.1812 12.2848 18.895 12.2848C18.5964 12.2848 18.3318 12.354 18.1009 12.4925C17.8732 12.628 17.6947 12.8111 17.5654 13.0419C17.4362 13.2696 17.37 13.5236 17.3669 13.8036V14.9624C17.3669 15.3132 17.4316 15.6164 17.5608 15.8718C17.6932 16.1272 17.8794 16.3242 18.1194 16.4627C18.3595 16.6012 18.6441 16.6705 18.9735 16.6705C19.192 16.6705 19.392 16.6397 19.5736 16.5781C19.7552 16.5166 19.9106 16.4242 20.0399 16.3011C20.1691 16.178 20.2676 16.0272 20.3353 15.8487L22.1542 15.9688C22.0619 16.4058 21.8726 16.7874 21.5864 17.1136C21.3032 17.4368 20.937 17.6892 20.4877 17.8707C20.0414 18.0492 19.5259 18.1385 18.9411 18.1385ZM23.4791 18V10.9091H25.3857V12.1463H25.4596C25.5889 11.7062 25.8058 11.3738 26.1105 11.1491C26.4152 10.9214 26.7661 10.8075 27.1631 10.8075C27.2616 10.8075 27.3677 10.8137 27.4816 10.826C27.5955 10.8383 27.6955 10.8552 27.7817 10.8768V12.6218C27.6894 12.5941 27.5616 12.5695 27.3985 12.5479C27.2354 12.5264 27.0861 12.5156 26.9507 12.5156C26.6614 12.5156 26.4029 12.5787 26.1752 12.7049C25.9505 12.828 25.772 13.0004 25.6396 13.2219C25.5104 13.4435 25.4458 13.699 25.4458 13.9883V18H23.4791ZM34.6983 12.9311L32.8979 13.0419C32.8671 12.888 32.801 12.7495 32.6994 12.6264C32.5978 12.5002 32.464 12.4002 32.2978 12.3263C32.1346 12.2494 31.9392 12.2109 31.7115 12.2109C31.4068 12.2109 31.1498 12.2756 30.9405 12.4048C30.7312 12.531 30.6266 12.7003 30.6266 12.9126C30.6266 13.0819 30.6943 13.225 30.8297 13.342C30.9651 13.4589 31.1975 13.5528 31.5268 13.6236L32.8102 13.8821C33.4996 14.0237 34.0136 14.2514 34.3521 14.5653C34.6906 14.8793 34.8599 15.2917 34.8599 15.8026C34.8599 16.2673 34.723 16.6751 34.449 17.0259C34.1782 17.3768 33.8058 17.6507 33.3319 17.8477C32.861 18.0415 32.3178 18.1385 31.7022 18.1385C30.7636 18.1385 30.0157 17.9431 29.4586 17.5522C28.9047 17.1583 28.58 16.6228 28.4846 15.9457L30.4189 15.8441C30.4773 16.1303 30.6189 16.3488 30.8436 16.4996C31.0682 16.6474 31.356 16.7212 31.7069 16.7212C32.0516 16.7212 32.3285 16.6551 32.5378 16.5227C32.7502 16.3873 32.8579 16.2134 32.861 16.0011C32.8579 15.8226 32.7825 15.6764 32.6348 15.5625C32.487 15.4455 32.2593 15.3563 31.9515 15.2947L30.7235 15.0501C30.0311 14.9116 29.5156 14.6715 29.177 14.3299C28.8416 13.9883 28.6738 13.5528 28.6738 13.0234C28.6738 12.5679 28.7969 12.1755 29.0431 11.8462C29.2924 11.5169 29.6417 11.263 30.0911 11.0845C30.5435 10.906 31.0729 10.8168 31.6792 10.8168C32.5748 10.8168 33.2795 11.006 33.7935 11.3846C34.3105 11.7631 34.6122 12.2786 34.6983 12.9311ZM36.0983 18V10.9091H38.0649V18H36.0983ZM37.0862 9.99503C36.7938 9.99503 36.543 9.89808 36.3337 9.70419C36.1275 9.50722 36.0244 9.27178 36.0244 8.99787C36.0244 8.72704 36.1275 8.49467 36.3337 8.30078C36.543 8.10381 36.7938 8.00533 37.0862 8.00533C37.3786 8.00533 37.6279 8.10381 37.8341 8.30078C38.0434 8.49467 38.148 8.72704 38.148 8.99787C38.148 9.27178 38.0434 9.50722 37.8341 9.70419C37.6279 9.89808 37.3786 9.99503 37.0862 9.99503ZM42.8441 18.1385C42.127 18.1385 41.5069 17.9862 40.9837 17.6815C40.4635 17.3737 40.0619 16.9459 39.7788 16.3981C39.4956 15.8472 39.354 15.2086 39.354 14.4822C39.354 13.7498 39.4956 13.1096 39.7788 12.5618C40.0619 12.0109 40.4635 11.5831 40.9837 11.2784C41.5069 10.9706 42.127 10.8168 42.8441 10.8168C43.5612 10.8168 44.1798 10.9706 44.6999 11.2784C45.2231 11.5831 45.6263 12.0109 45.9094 12.5618C46.1926 13.1096 46.3342 13.7498 46.3342 14.4822C46.3342 15.2086 46.1926 15.8472 45.9094 16.3981C45.6263 16.9459 45.2231 17.3737 44.6999 17.6815C44.1798 17.9862 43.5612 18.1385 42.8441 18.1385ZM42.8533 16.6151C43.1796 16.6151 43.4519 16.5227 43.6705 16.3381C43.889 16.1503 44.0536 15.8949 44.1644 15.5717C44.2783 15.2486 44.3352 14.8808 44.3352 14.4684C44.3352 14.056 44.2783 13.6882 44.1644 13.3651C44.0536 13.0419 43.889 12.7865 43.6705 12.5987C43.4519 12.411 43.1796 12.3171 42.8533 12.3171C42.524 12.3171 42.247 12.411 42.0224 12.5987C41.8008 12.7865 41.633 13.0419 41.5192 13.3651C41.4084 13.6882 41.353 14.056 41.353 14.4684C41.353 14.8808 41.4084 15.2486 41.5192 15.5717C41.633 15.8949 41.8008 16.1503 42.0224 16.3381C42.247 16.5227 42.524 16.6151 42.8533 16.6151ZM49.5795 13.9006V18H47.6129V10.9091H49.4872V12.1602H49.5703C49.7273 11.7478 49.9904 11.4215 50.3597 11.1815C50.729 10.9383 51.1768 10.8168 51.7031 10.8168C52.1955 10.8168 52.6249 10.9245 52.9911 11.1399C53.3574 11.3554 53.642 11.6631 53.8452 12.0632C54.0483 12.4602 54.1499 12.9342 54.1499 13.4851V18H52.1832V13.8359C52.1863 13.402 52.0755 13.0634 51.8509 12.8203C51.6262 12.5741 51.3169 12.451 50.9229 12.451C50.6583 12.451 50.4244 12.5079 50.2212 12.6218C50.0212 12.7357 49.8642 12.9019 49.7504 13.1204C49.6396 13.3358 49.5826 13.5959 49.5795 13.9006Z" fill="white"/>
<rect width="34" height="26" transform="translate(60)" fill="#533DA3"/>
<path d="M69.8796 8.54545V18H67.8807V10.4428H67.8253L65.6602 11.8001V10.0273L68.0007 8.54545H69.8796ZM72.7868 18.12C72.4822 18.12 72.2206 18.0123 72.002 17.7969C71.7866 17.5784 71.6789 17.3168 71.6789 17.0121C71.6789 16.7105 71.7866 16.4519 72.002 16.2365C72.2206 16.0211 72.4822 15.9134 72.7868 15.9134C73.0823 15.9134 73.3408 16.0211 73.5624 16.2365C73.784 16.4519 73.8948 16.7105 73.8948 17.0121C73.8948 17.2152 73.8425 17.4014 73.7378 17.5707C73.6363 17.7369 73.5024 17.8707 73.3362 17.9723C73.17 18.0708 72.9869 18.12 72.7868 18.12ZM78.4236 8.54545V18H76.4246V10.4428H76.3692L74.2041 11.8001V10.0273L76.5447 8.54545H78.4236ZM81.3308 18.12C81.0261 18.12 80.7645 18.0123 80.546 17.7969C80.3306 17.5784 80.2228 17.3168 80.2228 17.0121C80.2228 16.7105 80.3306 16.4519 80.546 16.2365C80.7645 16.0211 81.0261 15.9134 81.3308 15.9134C81.6262 15.9134 81.8848 16.0211 82.1064 16.2365C82.3279 16.4519 82.4387 16.7105 82.4387 17.0121C82.4387 17.2152 82.3864 17.4014 82.2818 17.5707C82.1802 17.7369 82.0463 17.8707 81.8801 17.9723C81.714 18.0708 81.5308 18.12 81.3308 18.12ZM86.9675 8.54545V18H84.9686V10.4428H84.9132L82.748 11.8001V10.0273L85.0886 8.54545H86.9675Z" fill="white"/>
<path d="M94 0H156C161.657 0 164.485 0 166.243 1.75736C168 3.51472 168 6.34315 168 12V14C168 19.6569 168 22.4853 166.243 24.2426C164.485 26 161.657 26 156 26H94V0Z" fill="#6C4FD4"/>
<path d="M103.607 8.54545H105.583V15.1378C105.583 15.7472 105.446 16.2765 105.172 16.7259C104.901 17.1752 104.524 17.5214 104.041 17.7646C103.558 18.0077 102.996 18.1293 102.356 18.1293C101.787 18.1293 101.27 18.0292 100.805 17.8292C100.343 17.6261 99.9772 17.3183 99.7063 16.9059C99.4355 16.4904 99.3016 15.9687 99.3047 15.3409H101.294C101.301 15.5902 101.351 15.8041 101.447 15.9826C101.545 16.158 101.679 16.2934 101.848 16.3888C102.021 16.4812 102.224 16.5273 102.458 16.5273C102.704 16.5273 102.912 16.475 103.081 16.3704C103.253 16.2627 103.384 16.1057 103.473 15.8995C103.563 15.6933 103.607 15.4394 103.607 15.1378V8.54545ZM111.746 14.9808V10.9091H113.713V18H111.825V16.712H111.751C111.591 17.1275 111.324 17.4614 110.952 17.7138C110.583 17.9661 110.132 18.0923 109.599 18.0923C109.125 18.0923 108.708 17.9846 108.348 17.7692C107.988 17.5537 107.707 17.2475 107.504 16.8505C107.304 16.4535 107.202 15.978 107.199 15.424V10.9091H109.165V15.0732C109.169 15.4917 109.281 15.8226 109.502 16.0657C109.724 16.3088 110.021 16.4304 110.393 16.4304C110.63 16.4304 110.852 16.3765 111.058 16.2688C111.264 16.158 111.431 15.9949 111.557 15.7795C111.686 15.564 111.749 15.2978 111.746 14.9808ZM117.252 8.54545V18H115.286V8.54545H117.252ZM120.042 20.6591C119.793 20.6591 119.559 20.6391 119.34 20.5991C119.125 20.5621 118.946 20.5144 118.805 20.456L119.248 18.9879C119.479 19.0587 119.686 19.0972 119.871 19.1033C120.059 19.1095 120.22 19.0664 120.356 18.9741C120.494 18.8817 120.607 18.7248 120.693 18.5032L120.808 18.2031L118.265 10.9091H120.333L121.801 16.1165H121.875L123.357 10.9091H125.439L122.683 18.7663C122.55 19.148 122.37 19.4804 122.142 19.7635C121.918 20.0497 121.633 20.2698 121.288 20.4237C120.944 20.5806 120.528 20.6591 120.042 20.6591ZM129.435 18V16.5597L132.801 13.4435C133.087 13.1665 133.327 12.9173 133.521 12.6957C133.718 12.4741 133.867 12.2571 133.969 12.0447C134.07 11.8293 134.121 11.5969 134.121 11.3477C134.121 11.0707 134.058 10.8321 133.932 10.6321C133.806 10.429 133.633 10.2736 133.415 10.1658C133.196 10.055 132.948 9.99964 132.671 9.99964C132.382 9.99964 132.13 10.0581 131.914 10.1751C131.699 10.292 131.533 10.4598 131.416 10.6783C131.299 10.8968 131.24 11.1568 131.24 11.4585H129.343C129.343 10.8398 129.483 10.3028 129.763 9.8473C130.043 9.39181 130.436 9.03942 130.94 8.79013C131.445 8.54084 132.027 8.41619 132.685 8.41619C133.362 8.41619 133.952 8.53622 134.453 8.77628C134.958 9.01326 135.351 9.34257 135.631 9.7642C135.911 10.1858 136.051 10.669 136.051 11.2138C136.051 11.5708 135.98 11.9232 135.838 12.271C135.7 12.6187 135.452 13.005 135.095 13.4297C134.738 13.8513 134.235 14.3576 133.585 14.9485L132.205 16.3011V16.3658H136.175V18H129.435ZM141.331 18.2077C140.537 18.2047 139.854 18.0092 139.281 17.6214C138.712 17.2337 138.273 16.672 137.965 15.9364C137.661 15.2009 137.51 14.3161 137.513 13.282C137.513 12.2509 137.665 11.3723 137.97 10.646C138.278 9.91963 138.716 9.36719 139.286 8.98864C139.858 8.60701 140.54 8.41619 141.331 8.41619C142.122 8.41619 142.802 8.60701 143.371 8.98864C143.944 9.37026 144.384 9.92424 144.692 10.6506C144.999 11.3738 145.152 12.2509 145.149 13.282C145.149 14.3191 144.995 15.2055 144.687 15.9411C144.382 16.6766 143.945 17.2383 143.376 17.6261C142.807 18.0138 142.125 18.2077 141.331 18.2077ZM141.331 16.5504C141.872 16.5504 142.305 16.2781 142.628 15.7333C142.951 15.1886 143.111 14.3714 143.108 13.282C143.108 12.5649 143.034 11.9678 142.887 11.4908C142.742 11.0137 142.536 10.6552 142.268 10.4151C142.003 10.1751 141.691 10.055 141.331 10.055C140.792 10.055 140.361 10.3243 140.038 10.8629C139.715 11.4015 139.552 12.2079 139.549 13.282C139.549 14.0083 139.621 14.6146 139.766 15.1009C139.914 15.584 140.121 15.9472 140.389 16.1903C140.657 16.4304 140.971 16.5504 141.331 16.5504ZM146.574 18V16.5597L149.939 13.4435C150.226 13.1665 150.466 12.9173 150.66 12.6957C150.857 12.4741 151.006 12.2571 151.107 12.0447C151.209 11.8293 151.26 11.5969 151.26 11.3477C151.26 11.0707 151.197 10.8321 151.07 10.6321C150.944 10.429 150.772 10.2736 150.553 10.1658C150.335 10.055 150.087 9.99964 149.81 9.99964C149.521 9.99964 149.268 10.0581 149.053 10.1751C148.838 10.292 148.671 10.4598 148.554 10.6783C148.437 10.8968 148.379 11.1568 148.379 11.4585H146.482C146.482 10.8398 146.622 10.3028 146.902 9.8473C147.182 9.39181 147.574 9.03942 148.079 8.79013C148.584 8.54084 149.165 8.41619 149.824 8.41619C150.501 8.41619 151.09 8.53622 151.592 8.77628C152.097 9.01326 152.489 9.34257 152.769 9.7642C153.049 10.1858 153.189 10.669 153.189 11.2138C153.189 11.5708 153.119 11.9232 152.977 12.271C152.839 12.6187 152.591 13.005 152.234 13.4297C151.877 13.8513 151.374 14.3576 150.724 14.9485L149.344 16.3011V16.3658H153.314V18H146.574ZM154.416 16.3381V14.7638L158.363 8.54545H159.721V10.7244H158.917L156.429 14.6623V14.7362H162.038V16.3381H154.416ZM158.954 18V15.858L158.991 15.1609V8.54545H160.865V18H158.954Z" fill="white"/>
</svg>
