<svg width="172" height="26" viewBox="0 0 172 26" fill="none" xmlns="http://www.w3.org/2000/svg">
<path d="M1 12C1 6.34315 1 3.51472 2.75736 1.75736C4.51472 0 7.34315 0 13 0H60V26H13C7.34315 26 4.51472 26 2.75736 24.2426C1 22.4853 1 19.6569 1 14V12Z" fill="#3F3F3F"/>
<path d="M8.52983 8.54545L10.815 15.7287H10.9027L13.1925 8.54545H15.4084L12.1491 18H9.57315L6.3093 8.54545H8.52983ZM18.9411 18.1385C18.2117 18.1385 17.5839 17.9908 17.0576 17.6953C16.5344 17.3968 16.1312 16.9751 15.8481 16.4304C15.565 15.8826 15.4234 15.2347 15.4234 14.4869C15.4234 13.7575 15.565 13.1173 15.8481 12.5664C16.1312 12.0155 16.5298 11.5862 17.0438 11.2784C17.5608 10.9706 18.1671 10.8168 18.8627 10.8168C19.3305 10.8168 19.766 10.8922 20.1691 11.043C20.5754 11.1907 20.9293 11.4138 21.2309 11.7124C21.5356 12.0109 21.7726 12.3864 21.9419 12.8388C22.1111 13.2881 22.1958 13.8144 22.1958 14.4176V14.9577H16.2082V13.739H20.3445C20.3445 13.4558 20.283 13.205 20.1599 12.9865C20.0368 12.768 19.866 12.5972 19.6475 12.4741C19.432 12.3479 19.1812 12.2848 18.895 12.2848C18.5964 12.2848 18.3318 12.354 18.1009 12.4925C17.8732 12.628 17.6947 12.8111 17.5654 13.0419C17.4362 13.2696 17.37 13.5236 17.3669 13.8036V14.9624C17.3669 15.3132 17.4316 15.6164 17.5608 15.8718C17.6932 16.1272 17.8794 16.3242 18.1194 16.4627C18.3595 16.6012 18.6441 16.6705 18.9735 16.6705C19.192 16.6705 19.392 16.6397 19.5736 16.5781C19.7552 16.5166 19.9106 16.4242 20.0399 16.3011C20.1691 16.178 20.2676 16.0272 20.3353 15.8487L22.1542 15.9688C22.0619 16.4058 21.8726 16.7874 21.5864 17.1136C21.3032 17.4368 20.937 17.6892 20.4877 17.8707C20.0414 18.0492 19.5259 18.1385 18.9411 18.1385ZM23.4791 18V10.9091H25.3857V12.1463H25.4596C25.5889 11.7062 25.8058 11.3738 26.1105 11.1491C26.4152 10.9214 26.7661 10.8075 27.1631 10.8075C27.2616 10.8075 27.3677 10.8137 27.4816 10.826C27.5955 10.8383 27.6955 10.8552 27.7817 10.8768V12.6218C27.6894 12.5941 27.5616 12.5695 27.3985 12.5479C27.2354 12.5264 27.0861 12.5156 26.9507 12.5156C26.6614 12.5156 26.4029 12.5787 26.1752 12.7049C25.9505 12.828 25.772 13.0004 25.6396 13.2219C25.5104 13.4435 25.4458 13.699 25.4458 13.9883V18H23.4791ZM34.6983 12.9311L32.8979 13.0419C32.8671 12.888 32.801 12.7495 32.6994 12.6264C32.5978 12.5002 32.464 12.4002 32.2978 12.3263C32.1346 12.2494 31.9392 12.2109 31.7115 12.2109C31.4068 12.2109 31.1498 12.2756 30.9405 12.4048C30.7312 12.531 30.6266 12.7003 30.6266 12.9126C30.6266 13.0819 30.6943 13.225 30.8297 13.342C30.9651 13.4589 31.1975 13.5528 31.5268 13.6236L32.8102 13.8821C33.4996 14.0237 34.0136 14.2514 34.3521 14.5653C34.6906 14.8793 34.8599 15.2917 34.8599 15.8026C34.8599 16.2673 34.723 16.6751 34.449 17.0259C34.1782 17.3768 33.8058 17.6507 33.3319 17.8477C32.861 18.0415 32.3178 18.1385 31.7022 18.1385C30.7636 18.1385 30.0157 17.9431 29.4586 17.5522C28.9047 17.1583 28.58 16.6228 28.4846 15.9457L30.4189 15.8441C30.4773 16.1303 30.6189 16.3488 30.8436 16.4996C31.0682 16.6474 31.356 16.7212 31.7069 16.7212C32.0516 16.7212 32.3285 16.6551 32.5378 16.5227C32.7502 16.3873 32.8579 16.2134 32.861 16.0011C32.8579 15.8226 32.7825 15.6764 32.6348 15.5625C32.487 15.4455 32.2593 15.3563 31.9515 15.2947L30.7235 15.0501C30.0311 14.9116 29.5156 14.6715 29.177 14.3299C28.8416 13.9883 28.6738 13.5528 28.6738 13.0234C28.6738 12.5679 28.7969 12.1755 29.0431 11.8462C29.2924 11.5169 29.6417 11.263 30.0911 11.0845C30.5435 10.906 31.0729 10.8168 31.6792 10.8168C32.5748 10.8168 33.2795 11.006 33.7935 11.3846C34.3105 11.7631 34.6122 12.2786 34.6983 12.9311ZM36.0983 18V10.9091H38.0649V18H36.0983ZM37.0862 9.99503C36.7938 9.99503 36.543 9.89808 36.3337 9.70419C36.1275 9.50722 36.0244 9.27178 36.0244 8.99787C36.0244 8.72704 36.1275 8.49467 36.3337 8.30078C36.543 8.10381 36.7938 8.00533 37.0862 8.00533C37.3786 8.00533 37.6279 8.10381 37.8341 8.30078C38.0434 8.49467 38.148 8.72704 38.148 8.99787C38.148 9.27178 38.0434 9.50722 37.8341 9.70419C37.6279 9.89808 37.3786 9.99503 37.0862 9.99503ZM42.8441 18.1385C42.127 18.1385 41.5069 17.9862 40.9837 17.6815C40.4635 17.3737 40.0619 16.9459 39.7788 16.3981C39.4956 15.8472 39.354 15.2086 39.354 14.4822C39.354 13.7498 39.4956 13.1096 39.7788 12.5618C40.0619 12.0109 40.4635 11.5831 40.9837 11.2784C41.5069 10.9706 42.127 10.8168 42.8441 10.8168C43.5612 10.8168 44.1798 10.9706 44.6999 11.2784C45.2231 11.5831 45.6263 12.0109 45.9094 12.5618C46.1926 13.1096 46.3342 13.7498 46.3342 14.4822C46.3342 15.2086 46.1926 15.8472 45.9094 16.3981C45.6263 16.9459 45.2231 17.3737 44.6999 17.6815C44.1798 17.9862 43.5612 18.1385 42.8441 18.1385ZM42.8533 16.6151C43.1796 16.6151 43.4519 16.5227 43.6705 16.3381C43.889 16.1503 44.0536 15.8949 44.1644 15.5717C44.2783 15.2486 44.3352 14.8808 44.3352 14.4684C44.3352 14.056 44.2783 13.6882 44.1644 13.3651C44.0536 13.0419 43.889 12.7865 43.6705 12.5987C43.4519 12.411 43.1796 12.3171 42.8533 12.3171C42.524 12.3171 42.247 12.411 42.0224 12.5987C41.8008 12.7865 41.633 13.0419 41.5192 13.3651C41.4084 13.6882 41.353 14.056 41.353 14.4684C41.353 14.8808 41.4084 15.2486 41.5192 15.5717C41.633 15.8949 41.8008 16.1503 42.0224 16.3381C42.247 16.5227 42.524 16.6151 42.8533 16.6151ZM49.5795 13.9006V18H47.6129V10.9091H49.4872V12.1602H49.5703C49.7273 11.7478 49.9904 11.4215 50.3597 11.1815C50.729 10.9383 51.1768 10.8168 51.7031 10.8168C52.1955 10.8168 52.6249 10.9245 52.9911 11.1399C53.3574 11.3554 53.642 11.6631 53.8452 12.0632C54.0483 12.4602 54.1499 12.9342 54.1499 13.4851V18H52.1832V13.8359C52.1863 13.402 52.0755 13.0634 51.8509 12.8203C51.6262 12.5741 51.3169 12.451 50.9229 12.451C50.6583 12.451 50.4244 12.5079 50.2212 12.6218C50.0212 12.7357 49.8642 12.9019 49.7504 13.1204C49.6396 13.3358 49.5826 13.5959 49.5795 13.9006Z" fill="white"/>
<rect width="37" height="26" transform="translate(60)" fill="#533DA3"/>
<path d="M69.8796 8.54545V18H67.8807V10.4428H67.8253L65.6602 11.8001V10.0273L68.0007 8.54545H69.8796ZM72.7868 18.12C72.4822 18.12 72.2206 18.0123 72.002 17.7969C71.7866 17.5784 71.6789 17.3168 71.6789 17.0121C71.6789 16.7105 71.7866 16.4519 72.002 16.2365C72.2206 16.0211 72.4822 15.9134 72.7868 15.9134C73.0823 15.9134 73.3408 16.0211 73.5624 16.2365C73.784 16.4519 73.8948 16.7105 73.8948 17.0121C73.8948 17.2152 73.8425 17.4014 73.7378 17.5707C73.6363 17.7369 73.5024 17.8707 73.3362 17.9723C73.17 18.0708 72.9869 18.12 72.7868 18.12ZM78.4236 8.54545V18H76.4246V10.4428H76.3692L74.2041 11.8001V10.0273L76.5447 8.54545H78.4236ZM81.3308 18.12C81.0261 18.12 80.7645 18.0123 80.546 17.7969C80.3306 17.5784 80.2228 17.3168 80.2228 17.0121C80.2228 16.7105 80.3306 16.4519 80.546 16.2365C80.7645 16.0211 81.0261 15.9134 81.3308 15.9134C81.6262 15.9134 81.8848 16.0211 82.1064 16.2365C82.3279 16.4519 82.4387 16.7105 82.4387 17.0121C82.4387 17.2152 82.3864 17.4014 82.2818 17.5707C82.1802 17.7369 82.0463 17.8707 81.8801 17.9723C81.714 18.0708 81.5308 18.12 81.3308 18.12ZM87.2249 18.1293C86.5355 18.1293 85.9215 18.0108 85.3829 17.7738C84.8474 17.5337 84.4242 17.2044 84.1134 16.7859C83.8056 16.3642 83.6471 15.878 83.6379 15.3271H85.6507C85.663 15.5579 85.7384 15.761 85.8769 15.9364C86.0184 16.1088 86.2062 16.2427 86.4401 16.3381C86.674 16.4335 86.9371 16.4812 87.2295 16.4812C87.5342 16.4812 87.8035 16.4273 88.0374 16.3196C88.2713 16.2119 88.4544 16.0626 88.5867 15.8718C88.7191 15.681 88.7852 15.4609 88.7852 15.2116C88.7852 14.9593 88.7145 14.7362 88.5729 14.5423C88.4344 14.3453 88.2343 14.1914 87.9727 14.0806C87.7142 13.9698 87.4065 13.9144 87.0494 13.9144H86.1677V12.4464H87.0494C87.3511 12.4464 87.6173 12.3941 87.8481 12.2894C88.082 12.1848 88.2636 12.0401 88.3928 11.8555C88.5221 11.6677 88.5867 11.4492 88.5867 11.1999C88.5867 10.9629 88.5298 10.7552 88.4159 10.5767C88.3051 10.3951 88.1482 10.2536 87.945 10.152C87.745 10.0504 87.5111 9.99964 87.2433 9.99964C86.9725 9.99964 86.7248 10.0489 86.5001 10.1474C86.2754 10.2428 86.0954 10.3797 85.96 10.5582C85.8245 10.7367 85.7522 10.946 85.743 11.1861H83.8271C83.8364 10.6413 83.9918 10.1612 84.2934 9.74574C84.595 9.33026 85.0013 9.00556 85.5122 8.77166C86.0261 8.53468 86.6063 8.41619 87.2526 8.41619C87.905 8.41619 88.4759 8.53468 88.9653 8.77166C89.4546 9.00864 89.8347 9.32872 90.1056 9.73189C90.3795 10.132 90.5149 10.5813 90.5118 11.0799C90.5149 11.6093 90.3502 12.0509 90.0178 12.4048C89.6885 12.7588 89.2592 12.9834 88.7298 13.0788V13.1527C89.4254 13.242 89.9548 13.4835 90.3179 13.8775C90.6842 14.2683 90.8657 14.7577 90.8627 15.3455C90.8657 15.8841 90.7103 16.3627 90.3964 16.7812C90.0856 17.1998 89.6562 17.5291 89.1084 17.7692C88.5606 18.0092 87.9327 18.1293 87.2249 18.1293Z" fill="white"/>
<path d="M97 0H159C164.657 0 167.485 0 169.243 1.75736C171 3.51472 171 6.34315 171 12V14C171 19.6569 171 22.4853 169.243 24.2426C167.485 26 164.657 26 159 26H97V0Z" fill="#6C4FD4"/>
<path d="M106.607 8.54545H108.583V15.1378C108.583 15.7472 108.446 16.2765 108.172 16.7259C107.901 17.1752 107.524 17.5214 107.041 17.7646C106.558 18.0077 105.996 18.1293 105.356 18.1293C104.787 18.1293 104.27 18.0292 103.805 17.8292C103.343 17.6261 102.977 17.3183 102.706 16.9059C102.435 16.4904 102.302 15.9687 102.305 15.3409H104.294C104.301 15.5902 104.351 15.8041 104.447 15.9826C104.545 16.158 104.679 16.2934 104.848 16.3888C105.021 16.4812 105.224 16.5273 105.458 16.5273C105.704 16.5273 105.912 16.475 106.081 16.3704C106.253 16.2627 106.384 16.1057 106.473 15.8995C106.563 15.6933 106.607 15.4394 106.607 15.1378V8.54545ZM114.746 14.9808V10.9091H116.713V18H114.825V16.712H114.751C114.591 17.1275 114.324 17.4614 113.952 17.7138C113.583 17.9661 113.132 18.0923 112.599 18.0923C112.125 18.0923 111.708 17.9846 111.348 17.7692C110.988 17.5537 110.707 17.2475 110.504 16.8505C110.304 16.4535 110.202 15.978 110.199 15.424V10.9091H112.165V15.0732C112.169 15.4917 112.281 15.8226 112.502 16.0657C112.724 16.3088 113.021 16.4304 113.393 16.4304C113.63 16.4304 113.852 16.3765 114.058 16.2688C114.264 16.158 114.431 15.9949 114.557 15.7795C114.686 15.564 114.749 15.2978 114.746 14.9808ZM120.252 8.54545V18H118.286V8.54545H120.252ZM123.042 20.6591C122.793 20.6591 122.559 20.6391 122.34 20.5991C122.125 20.5621 121.946 20.5144 121.805 20.456L122.248 18.9879C122.479 19.0587 122.686 19.0972 122.871 19.1033C123.059 19.1095 123.22 19.0664 123.356 18.9741C123.494 18.8817 123.607 18.7248 123.693 18.5032L123.808 18.2031L121.265 10.9091H123.333L124.801 16.1165H124.875L126.357 10.9091H128.439L125.683 18.7663C125.55 19.148 125.37 19.4804 125.142 19.7635C124.918 20.0497 124.633 20.2698 124.288 20.4237C123.944 20.5806 123.528 20.6591 123.042 20.6591ZM132.435 18V16.5597L135.801 13.4435C136.087 13.1665 136.327 12.9173 136.521 12.6957C136.718 12.4741 136.867 12.2571 136.969 12.0447C137.07 11.8293 137.121 11.5969 137.121 11.3477C137.121 11.0707 137.058 10.8321 136.932 10.6321C136.806 10.429 136.633 10.2736 136.415 10.1658C136.196 10.055 135.948 9.99964 135.671 9.99964C135.382 9.99964 135.13 10.0581 134.914 10.1751C134.699 10.292 134.533 10.4598 134.416 10.6783C134.299 10.8968 134.24 11.1568 134.24 11.4585H132.343C132.343 10.8398 132.483 10.3028 132.763 9.8473C133.043 9.39181 133.436 9.03942 133.94 8.79013C134.445 8.54084 135.027 8.41619 135.685 8.41619C136.362 8.41619 136.952 8.53622 137.453 8.77628C137.958 9.01326 138.351 9.34257 138.631 9.7642C138.911 10.1858 139.051 10.669 139.051 11.2138C139.051 11.5708 138.98 11.9232 138.838 12.271C138.7 12.6187 138.452 13.005 138.095 13.4297C137.738 13.8513 137.235 14.3576 136.585 14.9485L135.205 16.3011V16.3658H139.175V18H132.435ZM144.331 18.2077C143.537 18.2047 142.854 18.0092 142.281 17.6214C141.712 17.2337 141.273 16.672 140.965 15.9364C140.661 15.2009 140.51 14.3161 140.513 13.282C140.513 12.2509 140.665 11.3723 140.97 10.646C141.278 9.91963 141.716 9.36719 142.286 8.98864C142.858 8.60701 143.54 8.41619 144.331 8.41619C145.122 8.41619 145.802 8.60701 146.371 8.98864C146.944 9.37026 147.384 9.92424 147.692 10.6506C147.999 11.3738 148.152 12.2509 148.149 13.282C148.149 14.3191 147.995 15.2055 147.687 15.9411C147.382 16.6766 146.945 17.2383 146.376 17.6261C145.807 18.0138 145.125 18.2077 144.331 18.2077ZM144.331 16.5504C144.872 16.5504 145.305 16.2781 145.628 15.7333C145.951 15.1886 146.111 14.3714 146.108 13.282C146.108 12.5649 146.034 11.9678 145.887 11.4908C145.742 11.0137 145.536 10.6552 145.268 10.4151C145.003 10.1751 144.691 10.055 144.331 10.055C143.792 10.055 143.361 10.3243 143.038 10.8629C142.715 11.4015 142.552 12.2079 142.549 13.282C142.549 14.0083 142.621 14.6146 142.766 15.1009C142.914 15.584 143.121 15.9472 143.389 16.1903C143.657 16.4304 143.971 16.5504 144.331 16.5504ZM149.574 18V16.5597L152.939 13.4435C153.226 13.1665 153.466 12.9173 153.66 12.6957C153.857 12.4741 154.006 12.2571 154.107 12.0447C154.209 11.8293 154.26 11.5969 154.26 11.3477C154.26 11.0707 154.197 10.8321 154.07 10.6321C153.944 10.429 153.772 10.2736 153.553 10.1658C153.335 10.055 153.087 9.99964 152.81 9.99964C152.521 9.99964 152.268 10.0581 152.053 10.1751C151.838 10.292 151.671 10.4598 151.554 10.6783C151.437 10.8968 151.379 11.1568 151.379 11.4585H149.482C149.482 10.8398 149.622 10.3028 149.902 9.8473C150.182 9.39181 150.574 9.03942 151.079 8.79013C151.584 8.54084 152.165 8.41619 152.824 8.41619C153.501 8.41619 154.09 8.53622 154.592 8.77628C155.097 9.01326 155.489 9.34257 155.769 9.7642C156.049 10.1858 156.189 10.669 156.189 11.2138C156.189 11.5708 156.119 11.9232 155.977 12.271C155.839 12.6187 155.591 13.005 155.234 13.4297C154.877 13.8513 154.374 14.3576 153.724 14.9485L152.344 16.3011V16.3658H156.314V18H149.574ZM157.416 16.3381V14.7638L161.363 8.54545H162.721V10.7244H161.917L159.429 14.6623V14.7362H165.038V16.3381H157.416ZM161.954 18V15.858L161.991 15.1609V8.54545H163.865V18H161.954Z" fill="white"/>
</svg>
