<svg width="175" height="26" viewBox="0 0 175 26" fill="none" xmlns="http://www.w3.org/2000/svg">
<path d="M1 12C1 6.34315 1 3.51472 2.75736 1.75736C4.51472 0 7.34315 0 13 0H60V26H13C7.34315 26 4.51472 26 2.75736 24.2426C1 22.4853 1 19.6569 1 14V12Z" fill="#3F3F3F"/>
<path d="M8.52983 8.54545L10.815 15.7287H10.9027L13.1925 8.54545H15.4084L12.1491 18H9.57315L6.3093 8.54545H8.52983ZM18.9411 18.1385C18.2117 18.1385 17.5839 17.9908 17.0576 17.6953C16.5344 17.3968 16.1312 16.9751 15.8481 16.4304C15.565 15.8826 15.4234 15.2347 15.4234 14.4869C15.4234 13.7575 15.565 13.1173 15.8481 12.5664C16.1312 12.0155 16.5298 11.5862 17.0438 11.2784C17.5608 10.9706 18.1671 10.8168 18.8627 10.8168C19.3305 10.8168 19.766 10.8922 20.1691 11.043C20.5754 11.1907 20.9293 11.4138 21.2309 11.7124C21.5356 12.0109 21.7726 12.3864 21.9419 12.8388C22.1111 13.2881 22.1958 13.8144 22.1958 14.4176V14.9577H16.2082V13.739H20.3445C20.3445 13.4558 20.283 13.205 20.1599 12.9865C20.0368 12.768 19.866 12.5972 19.6475 12.4741C19.432 12.3479 19.1812 12.2848 18.895 12.2848C18.5964 12.2848 18.3318 12.354 18.1009 12.4925C17.8732 12.628 17.6947 12.8111 17.5654 13.0419C17.4362 13.2696 17.37 13.5236 17.3669 13.8036V14.9624C17.3669 15.3132 17.4316 15.6164 17.5608 15.8718C17.6932 16.1272 17.8794 16.3242 18.1194 16.4627C18.3595 16.6012 18.6441 16.6705 18.9735 16.6705C19.192 16.6705 19.392 16.6397 19.5736 16.5781C19.7552 16.5166 19.9106 16.4242 20.0399 16.3011C20.1691 16.178 20.2676 16.0272 20.3353 15.8487L22.1542 15.9688C22.0619 16.4058 21.8726 16.7874 21.5864 17.1136C21.3032 17.4368 20.937 17.6892 20.4877 17.8707C20.0414 18.0492 19.5259 18.1385 18.9411 18.1385ZM23.4791 18V10.9091H25.3857V12.1463H25.4596C25.5889 11.7062 25.8058 11.3738 26.1105 11.1491C26.4152 10.9214 26.7661 10.8075 27.1631 10.8075C27.2616 10.8075 27.3677 10.8137 27.4816 10.826C27.5955 10.8383 27.6955 10.8552 27.7817 10.8768V12.6218C27.6894 12.5941 27.5616 12.5695 27.3985 12.5479C27.2354 12.5264 27.0861 12.5156 26.9507 12.5156C26.6614 12.5156 26.4029 12.5787 26.1752 12.7049C25.9505 12.828 25.772 13.0004 25.6396 13.2219C25.5104 13.4435 25.4458 13.699 25.4458 13.9883V18H23.4791ZM34.6983 12.9311L32.8979 13.0419C32.8671 12.888 32.801 12.7495 32.6994 12.6264C32.5978 12.5002 32.464 12.4002 32.2978 12.3263C32.1346 12.2494 31.9392 12.2109 31.7115 12.2109C31.4068 12.2109 31.1498 12.2756 30.9405 12.4048C30.7312 12.531 30.6266 12.7003 30.6266 12.9126C30.6266 13.0819 30.6943 13.225 30.8297 13.342C30.9651 13.4589 31.1975 13.5528 31.5268 13.6236L32.8102 13.8821C33.4996 14.0237 34.0136 14.2514 34.3521 14.5653C34.6906 14.8793 34.8599 15.2917 34.8599 15.8026C34.8599 16.2673 34.723 16.6751 34.449 17.0259C34.1782 17.3768 33.8058 17.6507 33.3319 17.8477C32.861 18.0415 32.3178 18.1385 31.7022 18.1385C30.7636 18.1385 30.0157 17.9431 29.4586 17.5522C28.9047 17.1583 28.58 16.6228 28.4846 15.9457L30.4189 15.8441C30.4773 16.1303 30.6189 16.3488 30.8436 16.4996C31.0682 16.6474 31.356 16.7212 31.7069 16.7212C32.0516 16.7212 32.3285 16.6551 32.5378 16.5227C32.7502 16.3873 32.8579 16.2134 32.861 16.0011C32.8579 15.8226 32.7825 15.6764 32.6348 15.5625C32.487 15.4455 32.2593 15.3563 31.9515 15.2947L30.7235 15.0501C30.0311 14.9116 29.5156 14.6715 29.177 14.3299C28.8416 13.9883 28.6738 13.5528 28.6738 13.0234C28.6738 12.5679 28.7969 12.1755 29.0431 11.8462C29.2924 11.5169 29.6417 11.263 30.0911 11.0845C30.5435 10.906 31.0729 10.8168 31.6792 10.8168C32.5748 10.8168 33.2795 11.006 33.7935 11.3846C34.3105 11.7631 34.6122 12.2786 34.6983 12.9311ZM36.0983 18V10.9091H38.0649V18H36.0983ZM37.0862 9.99503C36.7938 9.99503 36.543 9.89808 36.3337 9.70419C36.1275 9.50722 36.0244 9.27178 36.0244 8.99787C36.0244 8.72704 36.1275 8.49467 36.3337 8.30078C36.543 8.10381 36.7938 8.00533 37.0862 8.00533C37.3786 8.00533 37.6279 8.10381 37.8341 8.30078C38.0434 8.49467 38.148 8.72704 38.148 8.99787C38.148 9.27178 38.0434 9.50722 37.8341 9.70419C37.6279 9.89808 37.3786 9.99503 37.0862 9.99503ZM42.8441 18.1385C42.127 18.1385 41.5069 17.9862 40.9837 17.6815C40.4635 17.3737 40.0619 16.9459 39.7788 16.3981C39.4956 15.8472 39.354 15.2086 39.354 14.4822C39.354 13.7498 39.4956 13.1096 39.7788 12.5618C40.0619 12.0109 40.4635 11.5831 40.9837 11.2784C41.5069 10.9706 42.127 10.8168 42.8441 10.8168C43.5612 10.8168 44.1798 10.9706 44.6999 11.2784C45.2231 11.5831 45.6263 12.0109 45.9094 12.5618C46.1926 13.1096 46.3342 13.7498 46.3342 14.4822C46.3342 15.2086 46.1926 15.8472 45.9094 16.3981C45.6263 16.9459 45.2231 17.3737 44.6999 17.6815C44.1798 17.9862 43.5612 18.1385 42.8441 18.1385ZM42.8533 16.6151C43.1796 16.6151 43.4519 16.5227 43.6705 16.3381C43.889 16.1503 44.0536 15.8949 44.1644 15.5717C44.2783 15.2486 44.3352 14.8808 44.3352 14.4684C44.3352 14.056 44.2783 13.6882 44.1644 13.3651C44.0536 13.0419 43.889 12.7865 43.6705 12.5987C43.4519 12.411 43.1796 12.3171 42.8533 12.3171C42.524 12.3171 42.247 12.411 42.0224 12.5987C41.8008 12.7865 41.633 13.0419 41.5192 13.3651C41.4084 13.6882 41.353 14.056 41.353 14.4684C41.353 14.8808 41.4084 15.2486 41.5192 15.5717C41.633 15.8949 41.8008 16.1503 42.0224 16.3381C42.247 16.5227 42.524 16.6151 42.8533 16.6151ZM49.5795 13.9006V18H47.6129V10.9091H49.4872V12.1602H49.5703C49.7273 11.7478 49.9904 11.4215 50.3597 11.1815C50.729 10.9383 51.1768 10.8168 51.7031 10.8168C52.1955 10.8168 52.6249 10.9245 52.9911 11.1399C53.3574 11.3554 53.642 11.6631 53.8452 12.0632C54.0483 12.4602 54.1499 12.9342 54.1499 13.4851V18H52.1832V13.8359C52.1863 13.402 52.0755 13.0634 51.8509 12.8203C51.6262 12.5741 51.3169 12.451 50.9229 12.451C50.6583 12.451 50.4244 12.5079 50.2212 12.6218C50.0212 12.7357 49.8642 12.9019 49.7504 13.1204C49.6396 13.3358 49.5826 13.5959 49.5795 13.9006Z" fill="white"/>
<rect width="40" height="26" transform="translate(60)" fill="#533DA3"/>
<path d="M69.4734 18.2077C68.6793 18.2047 67.9961 18.0092 67.4237 17.6214C66.8543 17.2337 66.4157 16.672 66.108 15.9364C65.8033 15.2009 65.6525 14.3161 65.6555 13.282C65.6555 12.2509 65.8079 11.3723 66.1126 10.646C66.4203 9.91963 66.8589 9.36719 67.4283 8.98864C68.0007 8.60701 68.6824 8.41619 69.4734 8.41619C70.2643 8.41619 70.9445 8.60701 71.5138 8.98864C72.0863 9.37026 72.5264 9.92424 72.8342 10.6506C73.1419 11.3738 73.2943 12.2509 73.2912 13.282C73.2912 14.3191 73.1373 15.2055 72.8295 15.9411C72.5249 16.6766 72.0878 17.2383 71.5185 17.6261C70.9491 18.0138 70.2674 18.2077 69.4734 18.2077ZM69.4734 16.5504C70.015 16.5504 70.4474 16.2781 70.7706 15.7333C71.0938 15.1886 71.2538 14.3714 71.2507 13.282C71.2507 12.5649 71.1768 11.9678 71.0291 11.4908C70.8845 11.0137 70.6783 10.6552 70.4105 10.4151C70.1458 10.1751 69.8335 10.055 69.4734 10.055C68.9348 10.055 68.5039 10.3243 68.1808 10.8629C67.8576 11.4015 67.6945 12.2079 67.6914 13.282C67.6914 14.0083 67.7637 14.6146 67.9084 15.1009C68.0561 15.584 68.2638 15.9472 68.5316 16.1903C68.7994 16.4304 69.1133 16.5504 69.4734 16.5504ZM75.5036 18.12C75.199 18.12 74.9374 18.0123 74.7188 17.7969C74.5034 17.5784 74.3957 17.3168 74.3957 17.0121C74.3957 16.7105 74.5034 16.4519 74.7188 16.2365C74.9374 16.0211 75.199 15.9134 75.5036 15.9134C75.7991 15.9134 76.0576 16.0211 76.2792 16.2365C76.5008 16.4519 76.6116 16.7105 76.6116 17.0121C76.6116 17.2152 76.5593 17.4014 76.4546 17.5707C76.3531 17.7369 76.2192 17.8707 76.053 17.9723C75.8868 18.0708 75.7037 18.12 75.5036 18.12ZM81.4554 18.1293C80.9692 18.1262 80.4998 18.0446 80.0474 17.8846C79.5981 17.7246 79.1949 17.4645 78.8379 17.1044C78.4809 16.7443 78.1977 16.2673 77.9885 15.6733C77.7823 15.0793 77.6792 14.3499 77.6792 13.4851C77.6822 12.6911 77.773 11.9817 77.9515 11.3569C78.1331 10.729 78.3916 10.1966 78.7271 9.75959C79.0656 9.32256 79.4703 8.99017 79.9412 8.76243C80.4121 8.5316 80.9399 8.41619 81.5247 8.41619C82.1556 8.41619 82.7127 8.5393 83.1958 8.78551C83.679 9.02865 84.0668 9.35949 84.3592 9.77805C84.6547 10.1966 84.8332 10.666 84.8947 11.1861H82.9235C82.8465 10.8568 82.685 10.5982 82.4387 10.4105C82.1925 10.2228 81.8878 10.1289 81.5247 10.1289C80.9092 10.1289 80.4413 10.3967 80.1213 10.9322C79.8043 11.4677 79.6427 12.1955 79.6365 13.1158H79.7012C79.8427 12.8357 80.0336 12.5972 80.2736 12.4002C80.5167 12.2002 80.7922 12.0478 81.1 11.9432C81.4108 11.8355 81.7386 11.7816 82.0833 11.7816C82.6434 11.7816 83.142 11.9139 83.579 12.1786C84.016 12.4402 84.3607 12.8003 84.6131 13.2589C84.8655 13.7174 84.9917 14.2422 84.9917 14.8331C84.9917 15.4732 84.8424 16.0426 84.5439 16.5412C84.2484 17.0398 83.8345 17.4306 83.302 17.7138C82.7727 17.9938 82.1571 18.1323 81.4554 18.1293ZM81.4462 16.5597C81.754 16.5597 82.0294 16.4858 82.2725 16.3381C82.5157 16.1903 82.7065 15.9903 82.845 15.7379C82.9835 15.4856 83.0527 15.2024 83.0527 14.8885C83.0527 14.5746 82.9835 14.293 82.845 14.0437C82.7096 13.7944 82.5218 13.5959 82.2818 13.4482C82.0417 13.3004 81.7678 13.2266 81.46 13.2266C81.2292 13.2266 81.0153 13.2696 80.8184 13.3558C80.6245 13.442 80.4537 13.562 80.3059 13.7159C80.1613 13.8698 80.0474 14.0483 79.9643 14.2514C79.8812 14.4515 79.8397 14.6654 79.8397 14.8931C79.8397 15.1978 79.9089 15.4763 80.0474 15.7287C80.189 15.9811 80.3798 16.1826 80.6199 16.3335C80.863 16.4843 81.1384 16.5597 81.4462 16.5597ZM87.1833 18.12C86.8786 18.12 86.617 18.0123 86.3985 17.7969C86.1831 17.5784 86.0754 17.3168 86.0754 17.0121C86.0754 16.7105 86.1831 16.4519 86.3985 16.2365C86.617 16.0211 86.8786 15.9134 87.1833 15.9134C87.4788 15.9134 87.7373 16.0211 87.9589 16.2365C88.1805 16.4519 88.2913 16.7105 88.2913 17.0121C88.2913 17.2152 88.239 17.4014 88.1343 17.5707C88.0328 17.7369 87.8989 17.8707 87.7327 17.9723C87.5665 18.0708 87.3834 18.12 87.1833 18.12ZM92.82 8.54545V18H90.8211V10.4428H90.7657L88.6006 11.8001V10.0273L90.9411 8.54545H92.82Z" fill="white"/>
<path d="M100 0H162C167.657 0 170.485 0 172.243 1.75736C174 3.51472 174 6.34315 174 12V14C174 19.6569 174 22.4853 172.243 24.2426C170.485 26 167.657 26 162 26H100V0Z" fill="#6C4FD4"/>
<path d="M105.822 8.54545H108.287L110.891 14.8977H111.001L113.605 8.54545H116.07V18H114.131V11.8462H114.053L111.606 17.9538H110.286L107.839 11.8232H107.761V18H105.822V8.54545ZM119.702 18.1339C119.25 18.1339 118.847 18.0554 118.493 17.8984C118.139 17.7384 117.859 17.503 117.653 17.1921C117.449 16.8782 117.348 16.4873 117.348 16.0195C117.348 15.6256 117.42 15.2947 117.565 15.027C117.71 14.7592 117.907 14.5438 118.156 14.3807C118.405 14.2176 118.688 14.0945 119.005 14.0114C119.325 13.9283 119.661 13.8698 120.012 13.8359C120.424 13.7929 120.756 13.7528 121.009 13.7159C121.261 13.6759 121.444 13.6174 121.558 13.5405C121.672 13.4635 121.729 13.3497 121.729 13.1989V13.1712C121.729 12.8788 121.637 12.6526 121.452 12.4925C121.27 12.3325 121.012 12.2525 120.676 12.2525C120.322 12.2525 120.041 12.331 119.832 12.4879C119.622 12.6418 119.484 12.8357 119.416 13.0696L117.597 12.9219C117.69 12.491 117.871 12.1186 118.142 11.8047C118.413 11.4877 118.762 11.2446 119.19 11.0753C119.621 10.9029 120.119 10.8168 120.686 10.8168C121.08 10.8168 121.457 10.8629 121.817 10.9553C122.18 11.0476 122.501 11.1907 122.782 11.3846C123.065 11.5785 123.288 11.8278 123.451 12.1325C123.614 12.4341 123.696 12.7957 123.696 13.2173V18H121.831V17.0167H121.775C121.661 17.2383 121.509 17.4337 121.318 17.603C121.127 17.7692 120.898 17.9 120.63 17.9954C120.362 18.0877 120.053 18.1339 119.702 18.1339ZM120.266 16.7766C120.555 16.7766 120.81 16.7197 121.032 16.6058C121.253 16.4889 121.427 16.3319 121.554 16.1349C121.68 15.938 121.743 15.7148 121.743 15.4656V14.7131C121.681 14.7531 121.597 14.79 121.489 14.8239C121.384 14.8546 121.266 14.8839 121.133 14.9116C121.001 14.9362 120.869 14.9593 120.736 14.9808C120.604 14.9993 120.484 15.0162 120.376 15.0316C120.146 15.0655 119.944 15.1193 119.772 15.1932C119.599 15.267 119.465 15.3671 119.37 15.4933C119.275 15.6164 119.227 15.7702 119.227 15.9549C119.227 16.2227 119.324 16.4273 119.518 16.5689C119.715 16.7074 119.964 16.7766 120.266 16.7766ZM126.182 20.6591C125.932 20.6591 125.698 20.6391 125.48 20.5991C125.264 20.5621 125.086 20.5144 124.944 20.456L125.388 18.9879C125.618 19.0587 125.826 19.0972 126.011 19.1033C126.198 19.1095 126.36 19.0664 126.495 18.9741C126.634 18.8817 126.746 18.7248 126.832 18.5032L126.948 18.2031L124.404 10.9091H126.472L127.94 16.1165H128.014L129.496 10.9091H131.578L128.822 18.7663C128.69 19.148 128.51 19.4804 128.282 19.7635C128.057 20.0497 127.773 20.2698 127.428 20.4237C127.083 20.5806 126.668 20.6591 126.182 20.6591ZM135.575 18V16.5597L138.94 13.4435C139.227 13.1665 139.467 12.9173 139.661 12.6957C139.857 12.4741 140.007 12.2571 140.108 12.0447C140.21 11.8293 140.261 11.5969 140.261 11.3477C140.261 11.0707 140.198 10.8321 140.071 10.6321C139.945 10.429 139.773 10.2736 139.554 10.1658C139.336 10.055 139.088 9.99964 138.811 9.99964C138.522 9.99964 138.269 10.0581 138.054 10.1751C137.839 10.292 137.672 10.4598 137.555 10.6783C137.438 10.8968 137.38 11.1568 137.38 11.4585H135.483C135.483 10.8398 135.623 10.3028 135.903 9.8473C136.183 9.39181 136.575 9.03942 137.08 8.79013C137.585 8.54084 138.166 8.41619 138.825 8.41619C139.502 8.41619 140.091 8.53622 140.593 8.77628C141.098 9.01326 141.49 9.34257 141.77 9.7642C142.05 10.1858 142.19 10.669 142.19 11.2138C142.19 11.5708 142.12 11.9232 141.978 12.271C141.839 12.6187 141.592 13.005 141.235 13.4297C140.878 13.8513 140.375 14.3576 139.725 14.9485L138.345 16.3011V16.3658H142.315V18H135.575ZM147.47 18.2077C146.676 18.2047 145.993 18.0092 145.421 17.6214C144.851 17.2337 144.413 16.672 144.105 15.9364C143.8 15.2009 143.65 14.3161 143.653 13.282C143.653 12.2509 143.805 11.3723 144.11 10.646C144.417 9.91963 144.856 9.36719 145.425 8.98864C145.998 8.60701 146.679 8.41619 147.47 8.41619C148.261 8.41619 148.942 8.60701 149.511 8.98864C150.083 9.37026 150.523 9.92424 150.831 10.6506C151.139 11.3738 151.291 12.2509 151.288 13.282C151.288 14.3191 151.134 15.2055 150.827 15.9411C150.522 16.6766 150.085 17.2383 149.516 17.6261C148.946 18.0138 148.264 18.2077 147.47 18.2077ZM147.47 16.5504C148.012 16.5504 148.445 16.2781 148.768 15.7333C149.091 15.1886 149.251 14.3714 149.248 13.282C149.248 12.5649 149.174 11.9678 149.026 11.4908C148.882 11.0137 148.675 10.6552 148.408 10.4151C148.143 10.1751 147.831 10.055 147.47 10.055C146.932 10.055 146.501 10.3243 146.178 10.8629C145.855 11.4015 145.692 12.2079 145.688 13.282C145.688 14.0083 145.761 14.6146 145.905 15.1009C146.053 15.584 146.261 15.9472 146.529 16.1903C146.796 16.4304 147.11 16.5504 147.47 16.5504ZM152.714 18V16.5597L156.079 13.4435C156.365 13.1665 156.605 12.9173 156.799 12.6957C156.996 12.4741 157.145 12.2571 157.247 12.0447C157.349 11.8293 157.399 11.5969 157.399 11.3477C157.399 11.0707 157.336 10.8321 157.21 10.6321C157.084 10.429 156.912 10.2736 156.693 10.1658C156.474 10.055 156.227 9.99964 155.95 9.99964C155.66 9.99964 155.408 10.0581 155.193 10.1751C154.977 10.292 154.811 10.4598 154.694 10.6783C154.577 10.8968 154.519 11.1568 154.519 11.4585H152.621C152.621 10.8398 152.761 10.3028 153.041 9.8473C153.321 9.39181 153.714 9.03942 154.219 8.79013C154.723 8.54084 155.305 8.41619 155.964 8.41619C156.641 8.41619 157.23 8.53622 157.732 8.77628C158.236 9.01326 158.629 9.34257 158.909 9.7642C159.189 10.1858 159.329 10.669 159.329 11.2138C159.329 11.5708 159.258 11.9232 159.117 12.271C158.978 12.6187 158.73 13.005 158.373 13.4297C158.016 13.8513 157.513 14.3576 156.864 14.9485L155.483 16.3011V16.3658H159.454V18H152.714ZM160.556 16.3381V14.7638L164.503 8.54545H165.86V10.7244H165.057L162.569 14.6623V14.7362H168.178V16.3381H160.556ZM165.094 18V15.858L165.131 15.1609V8.54545H167.005V18H165.094Z" fill="white"/>
</svg>
