<svg width="317" height="50" viewBox="0 0 317 50" fill="none" xmlns="http://www.w3.org/2000/svg">
<rect y="4.5" width="41" height="41" rx="9" fill="#F0C808"/>
<path d="M30.75 16.4583H27.1984L25.452 13.8395C25.3585 13.6992 25.2318 13.5842 25.0831 13.5047C24.9345 13.4251 24.7686 13.3834 24.6 13.3833H16.4C16.2314 13.3834 16.0655 13.4251 15.9169 13.5047C15.7682 13.5842 15.6415 13.6992 15.548 13.8395L13.8003 16.4583H10.25C9.43446 16.4583 8.65232 16.7823 8.07565 17.359C7.49897 17.9357 7.175 18.7178 7.175 19.5333V33.8833C7.175 34.6989 7.49897 35.481 8.07565 36.0577C8.65232 36.6344 9.43446 36.9583 10.25 36.9583H30.75C31.5655 36.9583 32.3477 36.6344 32.9244 36.0577C33.501 35.481 33.825 34.6989 33.825 33.8833V19.5333C33.825 18.7178 33.501 17.9357 32.9244 17.359C32.3477 16.7823 31.5655 16.4583 30.75 16.4583ZM25.1125 26.1958C25.1125 27.1081 24.842 27.9999 24.3352 28.7584C23.8283 29.5169 23.108 30.1081 22.2651 30.4572C21.4223 30.8063 20.4949 30.8977 19.6001 30.7197C18.7054 30.5417 17.8835 30.1024 17.2385 29.4574C16.5934 28.8123 16.1541 27.9904 15.9761 27.0957C15.7982 26.2009 15.8895 25.2735 16.2386 24.4307C16.5877 23.5879 17.1789 22.8675 17.9374 22.3607C18.696 21.8538 19.5877 21.5833 20.5 21.5833C21.7233 21.5833 22.8965 22.0693 23.7615 22.9343C24.6265 23.7993 25.1125 24.9725 25.1125 26.1958Z" fill="#24292F"/>
<path d="M79.7205 19.7305H72.7212C72.5934 18.8249 72.3324 18.0206 71.9382 17.3175C71.544 16.6037 71.038 15.9964 70.4201 15.4957C69.8022 14.995 69.0884 14.6115 68.2788 14.3452C67.4798 14.0788 66.6115 13.9457 65.674 13.9457C63.9801 13.9457 62.5046 14.3665 61.2475 15.2081C59.9904 16.0391 59.0156 17.2536 58.3232 18.8516C57.6307 20.4389 57.2844 22.3672 57.2844 24.6364C57.2844 26.9695 57.6307 28.9297 58.3232 30.517C59.0263 32.1044 60.0064 33.3029 61.2635 34.1126C62.5206 34.9222 63.9748 35.3271 65.6261 35.3271C66.5529 35.3271 67.4105 35.2045 68.1989 34.9595C68.9979 34.7145 69.7063 34.3576 70.3242 33.8888C70.9421 33.4094 71.4535 32.8288 71.8583 32.147C72.2738 31.4652 72.5614 30.6875 72.7212 29.8139L79.7205 29.8459C79.5394 31.348 79.0866 32.7969 78.3622 34.1925C77.6484 35.5774 76.6843 36.8185 75.4698 37.9158C74.266 39.0025 72.8278 39.8654 71.1552 40.5046C69.4933 41.1332 67.6129 41.4474 65.5142 41.4474C62.5952 41.4474 59.9851 40.7869 57.6839 39.4659C55.3935 38.1449 53.5824 36.2326 52.2507 33.729C50.9297 31.2255 50.2692 28.1946 50.2692 24.6364C50.2692 21.0675 50.9403 18.0312 52.2827 15.5277C53.625 13.0241 55.4467 11.1172 57.7479 9.80682C60.049 8.48579 62.6378 7.82528 65.5142 7.82528C67.4105 7.82528 69.1683 8.09162 70.7876 8.62429C72.4176 9.15696 73.8612 9.93466 75.1183 10.9574C76.3754 11.9695 77.3981 13.2106 78.1864 14.6808C78.9854 16.1509 79.4968 17.8342 79.7205 19.7305ZM90.2038 41.4634C88.6378 41.4634 87.2422 41.1918 86.017 40.6484C84.7919 40.0945 83.8224 39.2795 83.1086 38.2035C82.4055 37.1168 82.0539 35.7638 82.0539 34.1445C82.0539 32.7809 82.3043 31.6357 82.805 30.7088C83.3057 29.782 83.9875 29.0362 84.8505 28.4716C85.7134 27.907 86.6935 27.4808 87.7908 27.1932C88.8988 26.9055 90.06 26.7031 91.2745 26.5859C92.702 26.4368 93.8526 26.2983 94.7262 26.1705C95.5998 26.032 96.2336 25.8295 96.6278 25.5632C97.022 25.2969 97.2191 24.9027 97.2191 24.3807V24.2848C97.2191 23.2727 96.8995 22.4897 96.2603 21.9357C95.6317 21.3817 94.7368 21.1048 93.5756 21.1048C92.3505 21.1048 91.3757 21.3764 90.6512 21.9197C89.9268 22.4524 89.4474 23.1236 89.213 23.9332L82.9169 23.4219C83.2365 21.9304 83.865 20.6413 84.8025 19.5547C85.74 18.4574 86.9492 17.6158 88.43 17.0298C89.9215 16.4332 91.6473 16.1349 93.6076 16.1349C94.9712 16.1349 96.2762 16.2947 97.5227 16.6143C98.7798 16.9339 99.8931 17.4293 100.863 18.1005C101.843 18.7717 102.615 19.6346 103.18 20.6893C103.744 21.7333 104.027 22.9851 104.027 24.4446V41H97.5706V37.5962H97.3789C96.9847 38.3633 96.4574 39.0398 95.7968 39.6257C95.1363 40.201 94.3427 40.6538 93.4158 40.984C92.489 41.3036 91.4183 41.4634 90.2038 41.4634ZM92.1534 36.7653C93.1548 36.7653 94.039 36.5682 94.8061 36.174C95.5731 35.7692 96.175 35.2259 96.6118 34.544C97.0486 33.8622 97.267 33.0898 97.267 32.2269V29.6222C97.0539 29.7607 96.761 29.8885 96.3881 30.0057C96.0259 30.1122 95.6157 30.2134 95.1576 30.3093C94.6995 30.3945 94.2414 30.4744 93.7833 30.549C93.3253 30.6129 92.9098 30.6715 92.5369 30.7248C91.7379 30.842 91.0401 31.0284 90.4435 31.2841C89.8469 31.5398 89.3835 31.886 89.0532 32.3228C88.723 32.7489 88.5578 33.2816 88.5578 33.9208C88.5578 34.8477 88.8934 35.5561 89.5646 36.0462C90.2464 36.5256 91.1093 36.7653 92.1534 36.7653ZM107.958 41V16.4545H114.446V20.7852H114.734C115.245 19.3469 116.097 18.2124 117.29 17.3814C118.484 16.5504 119.911 16.1349 121.573 16.1349C123.256 16.1349 124.689 16.5558 125.872 17.3974C127.054 18.2283 127.843 19.3576 128.237 20.7852H128.492C128.993 19.3789 129.899 18.255 131.209 17.4134C132.53 16.5611 134.091 16.1349 135.891 16.1349C138.182 16.1349 140.041 16.8647 141.468 18.3242C142.907 19.7731 143.626 21.8292 143.626 24.4925V41H136.834V25.8349C136.834 24.4712 136.472 23.4485 135.747 22.7667C135.023 22.0849 134.117 21.744 133.031 21.744C131.795 21.744 130.831 22.1381 130.138 22.9265C129.446 23.7042 129.1 24.7322 129.1 26.0107V41H122.5V25.6911C122.5 24.4872 122.154 23.5284 121.461 22.8146C120.779 22.1009 119.879 21.744 118.761 21.744C118.004 21.744 117.322 21.9357 116.715 22.3192C116.119 22.6921 115.644 23.2195 115.293 23.9013C114.941 24.5724 114.766 25.3608 114.766 26.2663V41H107.958ZM158.839 41.4794C156.314 41.4794 154.141 40.968 152.319 39.9453C150.508 38.9119 149.112 37.4524 148.132 35.5668C147.152 33.6705 146.662 31.4279 146.662 28.8391C146.662 26.3143 147.152 24.0984 148.132 22.1914C149.112 20.2844 150.492 18.7983 152.271 17.733C154.061 16.6676 156.16 16.1349 158.567 16.1349C160.187 16.1349 161.694 16.396 163.09 16.918C164.496 17.4293 165.721 18.2017 166.765 19.2351C167.82 20.2685 168.64 21.5682 169.226 23.1342C169.812 24.6896 170.105 26.5114 170.105 28.5994V30.4691H149.379V26.2504H163.697C163.697 25.2702 163.484 24.402 163.058 23.6456C162.632 22.8892 162.04 22.2979 161.284 21.8718C160.538 21.435 159.67 21.2166 158.679 21.2166C157.646 21.2166 156.73 21.4563 155.931 21.9357C155.142 22.4045 154.524 23.0384 154.077 23.8374C153.63 24.6257 153.4 25.5046 153.39 26.4741V30.4851C153.39 31.6996 153.614 32.7489 154.061 33.6332C154.519 34.5174 155.164 35.1992 155.995 35.6786C156.826 36.158 157.811 36.3977 158.951 36.3977C159.707 36.3977 160.4 36.2912 161.028 36.0781C161.657 35.8651 162.195 35.5455 162.642 35.1193C163.09 34.6932 163.431 34.1712 163.665 33.5533L169.961 33.9688C169.642 35.4815 168.986 36.8026 167.996 37.9318C167.016 39.0504 165.748 39.924 164.192 40.5526C162.648 41.1705 160.863 41.4794 158.839 41.4794ZM173.197 41V16.4545H179.797V20.7372H180.053C180.5 19.2138 181.251 18.0632 182.306 17.2855C183.361 16.4972 184.575 16.103 185.95 16.103C186.291 16.103 186.658 16.1243 187.052 16.1669C187.446 16.2095 187.793 16.2681 188.091 16.3427V22.3832C187.771 22.2873 187.329 22.2021 186.765 22.1275C186.2 22.0529 185.683 22.0156 185.215 22.0156C184.213 22.0156 183.318 22.234 182.53 22.6708C181.752 23.0969 181.134 23.6935 180.676 24.4606C180.229 25.2276 180.005 26.1119 180.005 27.1133V41H173.197ZM196.557 41.4634C194.991 41.4634 193.595 41.1918 192.37 40.6484C191.145 40.0945 190.175 39.2795 189.462 38.2035C188.758 37.1168 188.407 35.7638 188.407 34.1445C188.407 32.7809 188.657 31.6357 189.158 30.7088C189.659 29.782 190.34 29.0362 191.203 28.4716C192.066 27.907 193.046 27.4808 194.144 27.1932C195.252 26.9055 196.413 26.7031 197.627 26.5859C199.055 26.4368 200.206 26.2983 201.079 26.1705C201.953 26.032 202.587 25.8295 202.981 25.5632C203.375 25.2969 203.572 24.9027 203.572 24.3807V24.2848C203.572 23.2727 203.252 22.4897 202.613 21.9357C201.985 21.3817 201.09 21.1048 199.929 21.1048C198.703 21.1048 197.729 21.3764 197.004 21.9197C196.28 22.4524 195.8 23.1236 195.566 23.9332L189.27 23.4219C189.589 21.9304 190.218 20.6413 191.155 19.5547C192.093 18.4574 193.302 17.6158 194.783 17.0298C196.274 16.4332 198 16.1349 199.96 16.1349C201.324 16.1349 202.629 16.2947 203.876 16.6143C205.133 16.9339 206.246 17.4293 207.215 18.1005C208.196 18.7717 208.968 19.6346 209.533 20.6893C210.097 21.7333 210.38 22.9851 210.38 24.4446V41H203.924V37.5962H203.732C203.338 38.3633 202.81 39.0398 202.15 39.6257C201.489 40.201 200.696 40.6538 199.769 40.984C198.842 41.3036 197.771 41.4634 196.557 41.4634ZM198.506 36.7653C199.508 36.7653 200.392 36.5682 201.159 36.174C201.926 35.7692 202.528 35.2259 202.965 34.544C203.402 33.8622 203.62 33.0898 203.62 32.2269V29.6222C203.407 29.7607 203.114 29.8885 202.741 30.0057C202.379 30.1122 201.969 30.2134 201.511 30.3093C201.052 30.3945 200.594 30.4744 200.136 30.549C199.678 30.6129 199.263 30.6715 198.89 30.7248C198.091 30.842 197.393 31.0284 196.796 31.2841C196.2 31.5398 195.736 31.886 195.406 32.3228C195.076 32.7489 194.911 33.2816 194.911 33.9208C194.911 34.8477 195.246 35.5561 195.918 36.0462C196.599 36.5256 197.462 36.7653 198.506 36.7653ZM218.066 8.27273L225.976 33.1378H226.28L234.206 8.27273H241.877L230.595 41H221.678L210.38 8.27273H218.066ZM244.338 41V16.4545H251.145V41H244.338ZM247.758 13.2905C246.746 13.2905 245.877 12.9549 245.153 12.2837C244.439 11.6019 244.082 10.7869 244.082 9.83878C244.082 8.90128 244.439 8.09695 245.153 7.42578C245.877 6.74396 246.746 6.40305 247.758 6.40305C248.77 6.40305 249.633 6.74396 250.346 7.42578C251.071 8.09695 251.433 8.90128 251.433 9.83878C251.433 10.7869 251.071 11.6019 250.346 12.2837C249.633 12.9549 248.77 13.2905 247.758 13.2905ZM266.435 41.4794C263.91 41.4794 261.737 40.968 259.915 39.9453C258.104 38.9119 256.708 37.4524 255.728 35.5668C254.748 33.6705 254.258 31.4279 254.258 28.8391C254.258 26.3143 254.748 24.0984 255.728 22.1914C256.708 20.2844 258.088 18.7983 259.867 17.733C261.657 16.6676 263.755 16.1349 266.163 16.1349C267.782 16.1349 269.29 16.396 270.685 16.918C272.092 17.4293 273.317 18.2017 274.361 19.2351C275.416 20.2685 276.236 21.5682 276.822 23.1342C277.408 24.6896 277.701 26.5114 277.701 28.5994V30.4691H256.974V26.2504H271.293C271.293 25.2702 271.08 24.402 270.653 23.6456C270.227 22.8892 269.636 22.2979 268.88 21.8718C268.134 21.435 267.266 21.2166 266.275 21.2166C265.242 21.2166 264.325 21.4563 263.526 21.9357C262.738 22.4045 262.12 23.0384 261.673 23.8374C261.225 24.6257 260.996 25.5046 260.986 26.4741V30.4851C260.986 31.6996 261.209 32.7489 261.657 33.6332C262.115 34.5174 262.759 35.1992 263.59 35.6786C264.421 36.158 265.407 36.3977 266.547 36.3977C267.303 36.3977 267.995 36.2912 268.624 36.0781C269.253 35.8651 269.791 35.5455 270.238 35.1193C270.685 34.6932 271.026 34.1712 271.261 33.5533L277.557 33.9688C277.237 35.4815 276.582 36.8026 275.591 37.9318C274.611 39.0504 273.343 39.924 271.788 40.5526C270.243 41.1705 268.459 41.4794 266.435 41.4794ZM285.459 41L278.78 16.4545H285.667L289.47 32.946H289.694L293.657 16.4545H300.417L304.444 32.8501H304.651L308.391 16.4545H315.262L308.599 41H301.392L297.173 25.5632H296.869L292.65 41H285.459Z" fill="url(#paint0_linear_469_670)"/>
<defs>
<linearGradient id="paint0_linear_469_670" x1="182.5" y1="-2" x2="182.5" y2="52" gradientUnits="userSpaceOnUse">
<stop stop-color="#24292F"/>
<stop offset="1" stop-color="#37414D"/>
</linearGradient>
</defs>
</svg>
