<svg width="136" height="26" viewBox="0 0 136 26" fill="none" xmlns="http://www.w3.org/2000/svg">
<rect x="1" width="134" height="26" rx="6" fill="#5964F2"/>
<path fill-rule="evenodd" clip-rule="evenodd" d="M12.6012 9.17728C12.6012 9.17728 13.2502 9.04148 14 9.04148C14.7498 9.04148 15.3988 9.17728 15.3988 9.17728L15.6584 8.64186C15.7131 8.5288 15.8338 8.46281 15.9569 8.48268C17.2088 8.68458 18.3755 9.35417 18.3755 9.35417C18.3755 9.35417 19.8329 10.8125 19.8329 15.9559C19.8335 16.0486 19.7903 16.1384 19.7157 16.1923C18.7588 16.8834 17.5967 17.3373 17.1278 17.5047C17.0035 17.5491 16.8674 17.4991 16.7966 17.387L16.4685 16.8676C16.3787 16.7254 16.4253 16.5363 16.5707 16.4532L17.2564 16.0615L16.979 15.8426C16.979 15.8426 15.8695 16.5144 14 16.5144C12.1305 16.5144 11.021 15.8426 11.021 15.8426L10.7436 16.0615L11.4293 16.4532C11.5747 16.5363 11.6213 16.7254 11.5315 16.8676L11.2034 17.387C11.1325 17.4991 10.9964 17.5491 10.8722 17.5047C10.4033 17.3373 9.24114 16.8834 8.28426 16.1923C8.20963 16.1384 8.16655 16.0486 8.16713 15.9559C8.16713 10.8125 9.62546 9.35417 9.62546 9.35417C9.62546 9.35417 10.7921 8.68442 12.0431 8.48268C12.1663 8.46281 12.2868 8.5288 12.3416 8.64186L12.6012 9.17728ZM17.063 13.4375C17.063 14.0819 16.6059 14.6042 16.0421 14.6042C15.4783 14.6042 15.0213 14.0819 15.0213 13.4375C15.0213 12.7932 15.4783 12.2708 16.0421 12.2708C16.6059 12.2708 17.063 12.7932 17.063 13.4375ZM11.9588 14.6042C12.5226 14.6042 12.9796 14.0819 12.9796 13.4375C12.9796 12.7932 12.5226 12.2708 11.9588 12.2708C11.395 12.2708 10.938 12.7932 10.938 13.4375C10.938 14.0819 11.395 14.6042 11.9588 14.6042Z" fill="white"/>
<path d="M29.6072 8.54545H31.5831V15.1378C31.5831 15.7472 31.4461 16.2765 31.1722 16.7259C30.9014 17.1752 30.5244 17.5214 30.0412 17.7646C29.558 18.0077 28.9963 18.1293 28.3562 18.1293C27.7868 18.1293 27.2698 18.0292 26.805 17.8292C26.3434 17.6261 25.9772 17.3183 25.7063 16.9059C25.4355 16.4904 25.3016 15.9687 25.3047 15.3409H27.2944C27.3005 15.5902 27.3513 15.8041 27.4467 15.9826C27.5452 16.158 27.6791 16.2934 27.8484 16.3888C28.0207 16.4812 28.2238 16.5273 28.4577 16.5273C28.704 16.5273 28.9117 16.475 29.081 16.3704C29.2533 16.2627 29.3841 16.1057 29.4734 15.8995C29.5626 15.6933 29.6072 15.4394 29.6072 15.1378V8.54545ZM36.4027 18.1385C35.6856 18.1385 35.0655 17.9862 34.5423 17.6815C34.0221 17.3737 33.6205 16.9459 33.3374 16.3981C33.0542 15.8472 32.9126 15.2086 32.9126 14.4822C32.9126 13.7498 33.0542 13.1096 33.3374 12.5618C33.6205 12.0109 34.0221 11.5831 34.5423 11.2784C35.0655 10.9706 35.6856 10.8168 36.4027 10.8168C37.1198 10.8168 37.7384 10.9706 38.2585 11.2784C38.7817 11.5831 39.1849 12.0109 39.468 12.5618C39.7512 13.1096 39.8928 13.7498 39.8928 14.4822C39.8928 15.2086 39.7512 15.8472 39.468 16.3981C39.1849 16.9459 38.7817 17.3737 38.2585 17.6815C37.7384 17.9862 37.1198 18.1385 36.4027 18.1385ZM36.4119 16.6151C36.7382 16.6151 37.0105 16.5227 37.229 16.3381C37.4476 16.1503 37.6122 15.8949 37.723 15.5717C37.8369 15.2486 37.8938 14.8808 37.8938 14.4684C37.8938 14.056 37.8369 13.6882 37.723 13.3651C37.6122 13.0419 37.4476 12.7865 37.229 12.5987C37.0105 12.411 36.7382 12.3171 36.4119 12.3171C36.0826 12.3171 35.8056 12.411 35.581 12.5987C35.3594 12.7865 35.1916 13.0419 35.0778 13.3651C34.967 13.6882 34.9116 14.056 34.9116 14.4684C34.9116 14.8808 34.967 15.2486 35.0778 15.5717C35.1916 15.8949 35.3594 16.1503 35.581 16.3381C35.8056 16.5227 36.0826 16.6151 36.4119 16.6151ZM41.1715 18V10.9091H43.1381V18H41.1715ZM42.1594 9.99503C41.8671 9.99503 41.6162 9.89808 41.407 9.70419C41.2008 9.50722 41.0977 9.27178 41.0977 8.99787C41.0977 8.72704 41.2008 8.49467 41.407 8.30078C41.6162 8.10381 41.8671 8.00533 42.1594 8.00533C42.4518 8.00533 42.7011 8.10381 42.9073 8.30078C43.1166 8.49467 43.2212 8.72704 43.2212 8.99787C43.2212 9.27178 43.1166 9.50722 42.9073 9.70419C42.7011 9.89808 42.4518 9.99503 42.1594 9.99503ZM46.6801 13.9006V18H44.7135V10.9091H46.5878V12.1602H46.6709C46.8279 11.7478 47.091 11.4215 47.4603 11.1815C47.8296 10.9383 48.2774 10.8168 48.8037 10.8168C49.2961 10.8168 49.7255 10.9245 50.0917 11.1399C50.4579 11.3554 50.7426 11.6631 50.9458 12.0632C51.1489 12.4602 51.2504 12.9342 51.2504 13.4851V18H49.2838V13.8359C49.2869 13.402 49.1761 13.0634 48.9514 12.8203C48.7268 12.5741 48.4175 12.451 48.0235 12.451C47.7588 12.451 47.5249 12.5079 47.3218 12.6218C47.1218 12.7357 46.9648 12.9019 46.8509 13.1204C46.7401 13.3358 46.6832 13.5959 46.6801 13.9006ZM59.0131 18.1385C58.296 18.1385 57.6758 17.9862 57.1526 17.6815C56.6325 17.3737 56.2309 16.9459 55.9477 16.3981C55.6646 15.8472 55.523 15.2086 55.523 14.4822C55.523 13.7498 55.6646 13.1096 55.9477 12.5618C56.2309 12.0109 56.6325 11.5831 57.1526 11.2784C57.6758 10.9706 58.296 10.8168 59.0131 10.8168C59.7301 10.8168 60.3488 10.9706 60.8689 11.2784C61.3921 11.5831 61.7952 12.0109 62.0784 12.5618C62.3615 13.1096 62.5031 13.7498 62.5031 14.4822C62.5031 15.2086 62.3615 15.8472 62.0784 16.3981C61.7952 16.9459 61.3921 17.3737 60.8689 17.6815C60.3488 17.9862 59.7301 18.1385 59.0131 18.1385ZM59.0223 16.6151C59.3485 16.6151 59.6209 16.5227 59.8394 16.3381C60.0579 16.1503 60.2226 15.8949 60.3334 15.5717C60.4472 15.2486 60.5042 14.8808 60.5042 14.4684C60.5042 14.056 60.4472 13.6882 60.3334 13.3651C60.2226 13.0419 60.0579 12.7865 59.8394 12.5987C59.6209 12.411 59.3485 12.3171 59.0223 12.3171C58.693 12.3171 58.416 12.411 58.1913 12.5987C57.9697 12.7865 57.802 13.0419 57.6881 13.3651C57.5773 13.6882 57.5219 14.056 57.5219 14.4684C57.5219 14.8808 57.5773 15.2486 57.6881 15.5717C57.802 15.8949 57.9697 16.1503 58.1913 16.3381C58.416 16.5227 58.693 16.6151 59.0223 16.6151ZM68.3291 14.9808V10.9091H70.2957V18H68.4076V16.712H68.3337C68.1737 17.1275 67.9075 17.4614 67.5351 17.7138C67.1657 17.9661 66.7149 18.0923 66.1824 18.0923C65.7085 18.0923 65.2915 17.9846 64.9314 17.7692C64.5713 17.5537 64.2897 17.2475 64.0866 16.8505C63.8865 16.4535 63.7849 15.978 63.7819 15.424V10.9091H65.7485V15.0732C65.7516 15.4917 65.8639 15.8226 66.0855 16.0657C66.3071 16.3088 66.6041 16.4304 66.9765 16.4304C67.2135 16.4304 67.435 16.3765 67.6412 16.2688C67.8474 16.158 68.0136 15.9949 68.1398 15.7795C68.2691 15.564 68.3322 15.2978 68.3291 14.9808ZM71.8688 18V10.9091H73.7754V12.1463H73.8493C73.9785 11.7062 74.1955 11.3738 74.5002 11.1491C74.8049 10.9214 75.1557 10.8075 75.5527 10.8075C75.6512 10.8075 75.7574 10.8137 75.8713 10.826C75.9851 10.8383 76.0852 10.8552 76.1713 10.8768V12.6218C76.079 12.5941 75.9513 12.5695 75.7882 12.5479C75.6251 12.5264 75.4758 12.5156 75.3404 12.5156C75.0511 12.5156 74.7926 12.5787 74.5648 12.7049C74.3401 12.828 74.1616 13.0004 74.0293 13.2219C73.9 13.4435 73.8354 13.699 73.8354 13.9883V18H71.8688ZM83.5854 18H80.2338V8.54545H83.6131C84.5641 8.54545 85.3828 8.73473 86.0691 9.11328C86.7554 9.48875 87.2832 10.0289 87.6525 10.7337C88.0249 11.4384 88.2111 12.2817 88.2111 13.2635C88.2111 14.2483 88.0249 15.0947 87.6525 15.8026C87.2832 16.5104 86.7523 17.0536 86.0598 17.4322C85.3704 17.8107 84.5456 18 83.5854 18ZM82.2328 16.2873H83.5023C84.0932 16.2873 84.5903 16.1826 84.9934 15.9734C85.3997 15.761 85.7044 15.4332 85.9075 14.9901C86.1137 14.5438 86.2168 13.9683 86.2168 13.2635C86.2168 12.5649 86.1137 11.994 85.9075 11.5508C85.7044 11.1076 85.4012 10.7814 84.998 10.5721C84.5949 10.3628 84.0978 10.2582 83.5069 10.2582H82.2328V16.2873ZM89.6549 18V10.9091H91.6215V18H89.6549ZM90.6428 9.99503C90.3505 9.99503 90.0996 9.89808 89.8904 9.70419C89.6842 9.50722 89.5811 9.27178 89.5811 8.99787C89.5811 8.72704 89.6842 8.49467 89.8904 8.30078C90.0996 8.10381 90.3505 8.00533 90.6428 8.00533C90.9352 8.00533 91.1845 8.10381 91.3907 8.30078C91.6 8.49467 91.7046 8.72704 91.7046 8.99787C91.7046 9.27178 91.6 9.50722 91.3907 9.70419C91.1845 9.89808 90.9352 9.99503 90.6428 9.99503ZM99.0968 12.9311L97.2963 13.0419C97.2656 12.888 97.1994 12.7495 97.0978 12.6264C96.9963 12.5002 96.8624 12.4002 96.6962 12.3263C96.5331 12.2494 96.3377 12.2109 96.1099 12.2109C95.8052 12.2109 95.5482 12.2756 95.339 12.4048C95.1297 12.531 95.025 12.7003 95.025 12.9126C95.025 13.0819 95.0927 13.225 95.2282 13.342C95.3636 13.4589 95.5959 13.5528 95.9252 13.6236L97.2086 13.8821C97.898 14.0237 98.412 14.2514 98.7505 14.5653C99.0891 14.8793 99.2583 15.2917 99.2583 15.8026C99.2583 16.2673 99.1214 16.6751 98.8475 17.0259C98.5766 17.3768 98.2042 17.6507 97.7303 17.8477C97.2594 18.0415 96.7162 18.1385 96.1007 18.1385C95.162 18.1385 94.4141 17.9431 93.8571 17.5522C93.3031 17.1583 92.9784 16.6228 92.883 15.9457L94.8173 15.8441C94.8758 16.1303 95.0173 16.3488 95.242 16.4996C95.4667 16.6474 95.7544 16.7212 96.1053 16.7212C96.45 16.7212 96.727 16.6551 96.9363 16.5227C97.1486 16.3873 97.2563 16.2134 97.2594 16.0011C97.2563 15.8226 97.1809 15.6764 97.0332 15.5625C96.8855 15.4455 96.6577 15.3563 96.35 15.2947L95.122 15.0501C94.4295 14.9116 93.914 14.6715 93.5755 14.3299C93.24 13.9883 93.0723 13.5528 93.0723 13.0234C93.0723 12.5679 93.1954 12.1755 93.4416 11.8462C93.6909 11.5169 94.0402 11.263 94.4895 11.0845C94.9419 10.906 95.4713 10.8168 96.0776 10.8168C96.9732 10.8168 97.678 11.006 98.1919 11.3846C98.709 11.7631 99.0106 12.2786 99.0968 12.9311ZM103.701 18.1385C102.974 18.1385 102.349 17.9846 101.826 17.6768C101.306 17.366 100.906 16.9351 100.626 16.3842C100.349 15.8333 100.21 15.1993 100.21 14.4822C100.21 13.7559 100.351 13.1188 100.631 12.571C100.914 12.0201 101.315 11.5908 101.835 11.283C102.356 10.9722 102.974 10.8168 103.691 10.8168C104.31 10.8168 104.852 10.9291 105.316 11.1538C105.781 11.3784 106.149 11.6939 106.42 12.1001C106.69 12.5064 106.84 12.9834 106.867 13.5312H105.012C104.959 13.1773 104.821 12.8926 104.596 12.6772C104.375 12.4587 104.084 12.3494 103.724 12.3494C103.419 12.3494 103.153 12.4325 102.925 12.5987C102.7 12.7618 102.525 13.0004 102.399 13.3143C102.273 13.6282 102.209 14.0083 102.209 14.4545C102.209 14.907 102.271 15.2917 102.394 15.6087C102.52 15.9257 102.697 16.1673 102.925 16.3335C103.153 16.4996 103.419 16.5827 103.724 16.5827C103.948 16.5827 104.15 16.5366 104.328 16.4442C104.51 16.3519 104.659 16.218 104.776 16.0426C104.896 15.8641 104.975 15.6502 105.012 15.4009H106.867C106.837 15.9426 106.689 16.4196 106.424 16.832C106.163 17.2414 105.801 17.5614 105.339 17.7923C104.878 18.0231 104.331 18.1385 103.701 18.1385ZM111.33 18.1385C110.613 18.1385 109.993 17.9862 109.47 17.6815C108.95 17.3737 108.548 16.9459 108.265 16.3981C107.982 15.8472 107.84 15.2086 107.84 14.4822C107.84 13.7498 107.982 13.1096 108.265 12.5618C108.548 12.0109 108.95 11.5831 109.47 11.2784C109.993 10.9706 110.613 10.8168 111.33 10.8168C112.048 10.8168 112.666 10.9706 113.186 11.2784C113.709 11.5831 114.113 12.0109 114.396 12.5618C114.679 13.1096 114.82 13.7498 114.82 14.4822C114.82 15.2086 114.679 15.8472 114.396 16.3981C114.113 16.9459 113.709 17.3737 113.186 17.6815C112.666 17.9862 112.048 18.1385 111.33 18.1385ZM111.34 16.6151C111.666 16.6151 111.938 16.5227 112.157 16.3381C112.375 16.1503 112.54 15.8949 112.651 15.5717C112.765 15.2486 112.822 14.8808 112.822 14.4684C112.822 14.056 112.765 13.6882 112.651 13.3651C112.54 13.0419 112.375 12.7865 112.157 12.5987C111.938 12.411 111.666 12.3171 111.34 12.3171C111.01 12.3171 110.733 12.411 110.509 12.5987C110.287 12.7865 110.119 13.0419 110.006 13.3651C109.895 13.6882 109.839 14.056 109.839 14.4684C109.839 14.8808 109.895 15.2486 110.006 15.5717C110.119 15.8949 110.287 16.1503 110.509 16.3381C110.733 16.5227 111.01 16.6151 111.34 16.6151ZM116.099 18V10.9091H118.006V12.1463H118.08C118.209 11.7062 118.426 11.3738 118.731 11.1491C119.035 10.9214 119.386 10.8075 119.783 10.8075C119.882 10.8075 119.988 10.8137 120.102 10.826C120.216 10.8383 120.316 10.8552 120.402 10.8768V12.6218C120.309 12.5941 120.182 12.5695 120.019 12.5479C119.856 12.5264 119.706 12.5156 119.571 12.5156C119.282 12.5156 119.023 12.5787 118.795 12.7049C118.571 12.828 118.392 13.0004 118.26 13.2219C118.131 13.4435 118.066 13.699 118.066 13.9883V18H116.099ZM123.701 18.1154C123.163 18.1154 122.675 17.9769 122.238 17.6999C121.804 17.4199 121.459 17.009 121.204 16.4673C120.952 15.9226 120.825 15.2547 120.825 14.4638C120.825 13.6513 120.956 12.9757 121.218 12.4371C121.479 11.8955 121.827 11.4908 122.261 11.223C122.698 10.9522 123.177 10.8168 123.697 10.8168C124.094 10.8168 124.425 10.8845 124.689 11.0199C124.957 11.1522 125.173 11.3184 125.336 11.5185C125.502 11.7154 125.628 11.9093 125.714 12.1001H125.774V8.54545H127.736V18H125.797V16.8643H125.714C125.622 17.0613 125.491 17.2567 125.322 17.4506C125.156 17.6415 124.939 17.8 124.671 17.9261C124.406 18.0523 124.083 18.1154 123.701 18.1154ZM124.325 16.5504C124.642 16.5504 124.909 16.4643 125.128 16.2919C125.35 16.1165 125.519 15.8718 125.636 15.5579C125.756 15.244 125.816 14.8762 125.816 14.4545C125.816 14.0329 125.757 13.6667 125.64 13.3558C125.523 13.045 125.354 12.8049 125.133 12.6357C124.911 12.4664 124.642 12.3817 124.325 12.3817C124.002 12.3817 123.729 12.4695 123.508 12.6449C123.286 12.8203 123.118 13.0634 123.004 13.3743C122.89 13.6851 122.834 14.0452 122.834 14.4545C122.834 14.867 122.89 15.2317 123.004 15.5487C123.121 15.8626 123.289 16.1088 123.508 16.2873C123.729 16.4627 124.002 16.5504 124.325 16.5504Z" fill="white"/>
</svg>
