<svg width="145" height="26" viewBox="0 0 145 26" fill="none" xmlns="http://www.w3.org/2000/svg">
<path d="M1 12C1 6.34315 1 3.51472 2.75736 1.75736C4.51472 0 7.34315 0 13 0H61V26H13C7.34315 26 4.51472 26 2.75736 24.2426C1 22.4853 1 19.6569 1 14V12Z" fill="#3F3F3F"/>
<path d="M6.82173 18V8.54545H8.82067V16.3519H12.8739V18H6.82173ZM14.1608 18V10.9091H16.1274V18H14.1608ZM15.1487 9.99503C14.8563 9.99503 14.6055 9.89808 14.3962 9.70419C14.19 9.50722 14.0869 9.27178 14.0869 8.99787C14.0869 8.72704 14.19 8.49467 14.3962 8.30078C14.6055 8.10381 14.8563 8.00533 15.1487 8.00533C15.4411 8.00533 15.6904 8.10381 15.8966 8.30078C16.1059 8.49467 16.2105 8.72704 16.2105 8.99787C16.2105 9.27178 16.1059 9.50722 15.8966 9.70419C15.6904 9.89808 15.4411 9.99503 15.1487 9.99503ZM20.9066 18.1385C20.1803 18.1385 19.5555 17.9846 19.0323 17.6768C18.5122 17.366 18.1121 16.9351 17.832 16.3842C17.555 15.8333 17.4165 15.1993 17.4165 14.4822C17.4165 13.7559 17.5566 13.1188 17.8366 12.571C18.1198 12.0201 18.5214 11.5908 19.0415 11.283C19.5617 10.9722 20.1803 10.8168 20.8974 10.8168C21.516 10.8168 22.0576 10.9291 22.5224 11.1538C22.9871 11.3784 23.3549 11.6939 23.6257 12.1001C23.8965 12.5064 24.0458 12.9834 24.0735 13.5312H22.2177C22.1654 13.1773 22.0269 12.8926 21.8022 12.6772C21.5806 12.4587 21.2898 12.3494 20.9297 12.3494C20.625 12.3494 20.3588 12.4325 20.131 12.5987C19.9064 12.7618 19.7309 13.0004 19.6048 13.3143C19.4786 13.6282 19.4155 14.0083 19.4155 14.4545C19.4155 14.907 19.477 15.2917 19.6001 15.6087C19.7263 15.9257 19.9033 16.1673 20.131 16.3335C20.3588 16.4996 20.625 16.5827 20.9297 16.5827C21.1544 16.5827 21.3559 16.5366 21.5344 16.4442C21.716 16.3519 21.8653 16.218 21.9822 16.0426C22.1023 15.8641 22.1808 15.6502 22.2177 15.4009H24.0735C24.0427 15.9426 23.895 16.4196 23.6303 16.832C23.3687 17.2414 23.0071 17.5614 22.5455 17.7923C22.0838 18.0231 21.5375 18.1385 20.9066 18.1385ZM28.5642 18.1385C27.8348 18.1385 27.2069 17.9908 26.6807 17.6953C26.1575 17.3968 25.7543 16.9751 25.4711 16.4304C25.188 15.8826 25.0464 15.2347 25.0464 14.4869C25.0464 13.7575 25.188 13.1173 25.4711 12.5664C25.7543 12.0155 26.1528 11.5862 26.6668 11.2784C27.1839 10.9706 27.7902 10.8168 28.4857 10.8168C28.9535 10.8168 29.389 10.8922 29.7922 11.043C30.1984 11.1907 30.5523 11.4138 30.854 11.7124C31.1586 12.0109 31.3956 12.3864 31.5649 12.8388C31.7342 13.2881 31.8188 13.8144 31.8188 14.4176V14.9577H25.8312V13.739H29.9676C29.9676 13.4558 29.906 13.205 29.7829 12.9865C29.6598 12.768 29.489 12.5972 29.2705 12.4741C29.0551 12.3479 28.8042 12.2848 28.518 12.2848C28.2195 12.2848 27.9548 12.354 27.724 12.4925C27.4962 12.628 27.3177 12.8111 27.1885 13.0419C27.0592 13.2696 26.993 13.5236 26.99 13.8036V14.9624C26.99 15.3132 27.0546 15.6164 27.1839 15.8718C27.3162 16.1272 27.5024 16.3242 27.7425 16.4627C27.9825 16.6012 28.2672 16.6705 28.5965 16.6705C28.815 16.6705 29.0151 16.6397 29.1966 16.5781C29.3782 16.5166 29.5336 16.4242 29.6629 16.3011C29.7922 16.178 29.8907 16.0272 29.9584 15.8487L31.7773 15.9688C31.6849 16.4058 31.4957 16.7874 31.2094 17.1136C30.9263 17.4368 30.56 17.6892 30.1107 17.8707C29.6644 18.0492 29.1489 18.1385 28.5642 18.1385ZM35.0688 13.9006V18H33.1022V10.9091H34.9765V12.1602H35.0596C35.2165 11.7478 35.4797 11.4215 35.849 11.1815C36.2183 10.9383 36.6661 10.8168 37.1924 10.8168C37.6848 10.8168 38.1141 10.9245 38.4804 11.1399C38.8466 11.3554 39.1313 11.6631 39.3344 12.0632C39.5376 12.4602 39.6391 12.9342 39.6391 13.4851V18H37.6725V13.8359C37.6756 13.402 37.5648 13.0634 37.3401 12.8203C37.1154 12.5741 36.8061 12.451 36.4122 12.451C36.1475 12.451 35.9136 12.5079 35.7105 12.6218C35.5104 12.7357 35.3535 12.9019 35.2396 13.1204C35.1288 13.3358 35.0719 13.5959 35.0688 13.9006ZM47.089 12.9311L45.2885 13.0419C45.2578 12.888 45.1916 12.7495 45.09 12.6264C44.9885 12.5002 44.8546 12.4002 44.6884 12.3263C44.5253 12.2494 44.3298 12.2109 44.1021 12.2109C43.7974 12.2109 43.5404 12.2756 43.3311 12.4048C43.1219 12.531 43.0172 12.7003 43.0172 12.9126C43.0172 13.0819 43.0849 13.225 43.2203 13.342C43.3558 13.4589 43.5881 13.5528 43.9174 13.6236L45.2008 13.8821C45.8902 14.0237 46.4042 14.2514 46.7427 14.5653C47.0813 14.8793 47.2505 15.2917 47.2505 15.8026C47.2505 16.2673 47.1136 16.6751 46.8397 17.0259C46.5688 17.3768 46.1964 17.6507 45.7225 17.8477C45.2516 18.0415 44.7084 18.1385 44.0929 18.1385C43.1542 18.1385 42.4063 17.9431 41.8493 17.5522C41.2953 17.1583 40.9706 16.6228 40.8752 15.9457L42.8095 15.8441C42.868 16.1303 43.0095 16.3488 43.2342 16.4996C43.4589 16.6474 43.7466 16.7212 44.0975 16.7212C44.4422 16.7212 44.7192 16.6551 44.9284 16.5227C45.1408 16.3873 45.2485 16.2134 45.2516 16.0011C45.2485 15.8226 45.1731 15.6764 45.0254 15.5625C44.8777 15.4455 44.6499 15.3563 44.3422 15.2947L43.1142 15.0501C42.4217 14.9116 41.9062 14.6715 41.5676 14.3299C41.2322 13.9883 41.0645 13.5528 41.0645 13.0234C41.0645 12.5679 41.1876 12.1755 41.4338 11.8462C41.6831 11.5169 42.0324 11.263 42.4817 11.0845C42.9341 10.906 43.4635 10.8168 44.0698 10.8168C44.9654 10.8168 45.6702 11.006 46.1841 11.3846C46.7012 11.7631 47.0028 12.2786 47.089 12.9311ZM51.7204 18.1385C50.991 18.1385 50.3632 17.9908 49.8369 17.6953C49.3137 17.3968 48.9105 16.9751 48.6274 16.4304C48.3443 15.8826 48.2027 15.2347 48.2027 14.4869C48.2027 13.7575 48.3443 13.1173 48.6274 12.5664C48.9105 12.0155 49.3091 11.5862 49.8231 11.2784C50.3401 10.9706 50.9464 10.8168 51.642 10.8168C52.1098 10.8168 52.5452 10.8922 52.9484 11.043C53.3547 11.1907 53.7086 11.4138 54.0102 11.7124C54.3149 12.0109 54.5519 12.3864 54.7211 12.8388C54.8904 13.2881 54.9751 13.8144 54.9751 14.4176V14.9577H48.9875V13.739H53.1238C53.1238 13.4558 53.0623 13.205 52.9392 12.9865C52.8161 12.768 52.6453 12.5972 52.4268 12.4741C52.2113 12.3479 51.9605 12.2848 51.6743 12.2848C51.3757 12.2848 51.1111 12.354 50.8802 12.4925C50.6525 12.628 50.474 12.8111 50.3447 13.0419C50.2155 13.2696 50.1493 13.5236 50.1462 13.8036V14.9624C50.1462 15.3132 50.2108 15.6164 50.3401 15.8718C50.4724 16.1272 50.6586 16.3242 50.8987 16.4627C51.1388 16.6012 51.4234 16.6705 51.7528 16.6705C51.9713 16.6705 52.1713 16.6397 52.3529 16.5781C52.5345 16.5166 52.6899 16.4242 52.8192 16.3011C52.9484 16.178 53.0469 16.0272 53.1146 15.8487L54.9335 15.9688C54.8412 16.4058 54.6519 16.7874 54.3657 17.1136C54.0825 17.4368 53.7163 17.6892 53.267 17.8707C52.8207 18.0492 52.3052 18.1385 51.7204 18.1385Z" fill="white"/>
<path d="M61 0H132C137.657 0 140.485 0 142.243 1.75736C144 3.51472 144 6.34315 144 12V14C144 19.6569 144 22.4853 142.243 24.2426C140.485 26 137.657 26 132 26H61V0Z" fill="#533DA3"/>
<path d="M68.4513 18H66.3093L69.5732 8.54545H72.1491L75.4084 18H73.2663L70.8981 10.706H70.8242L68.4513 18ZM68.3175 14.2837H73.3771V15.8441H68.3175V14.2837ZM76.5094 20.6591V10.9091H78.4483V12.1001H78.536C78.6222 11.9093 78.7469 11.7154 78.91 11.5185C79.0762 11.3184 79.2916 11.1522 79.5563 11.0199C79.824 10.8845 80.1564 10.8168 80.5534 10.8168C81.0705 10.8168 81.5475 10.9522 81.9846 11.223C82.4216 11.4908 82.7709 11.8955 83.0325 12.4371C83.2941 12.9757 83.4249 13.6513 83.4249 14.4638C83.4249 15.2547 83.2972 15.9226 83.0417 16.4673C82.7894 17.009 82.4447 17.4199 82.0076 17.6999C81.5737 17.9769 81.0874 18.1154 80.5488 18.1154C80.1672 18.1154 79.8425 18.0523 79.5748 17.9261C79.3101 17.8 79.0931 17.6415 78.9238 17.4506C78.7546 17.2567 78.6253 17.0613 78.536 16.8643H78.476V20.6591H76.5094ZM78.4345 14.4545C78.4345 14.8762 78.493 15.244 78.6099 15.5579C78.7269 15.8718 78.8961 16.1165 79.1177 16.2919C79.3393 16.4643 79.6086 16.5504 79.9256 16.5504C80.2457 16.5504 80.5165 16.4627 80.7381 16.2873C80.9597 16.1088 81.1274 15.8626 81.2413 15.5487C81.3583 15.2317 81.4167 14.867 81.4167 14.4545C81.4167 14.0452 81.3598 13.6851 81.2459 13.3743C81.132 13.0634 80.9643 12.8203 80.7427 12.6449C80.5211 12.4695 80.2488 12.3817 79.9256 12.3817C79.6055 12.3817 79.3347 12.4664 79.1131 12.6357C78.8946 12.8049 78.7269 13.045 78.6099 13.3558C78.493 13.6667 78.4345 14.0329 78.4345 14.4545ZM86.758 18.1339C86.3056 18.1339 85.9024 18.0554 85.5485 17.8984C85.1945 17.7384 84.9145 17.503 84.7083 17.1921C84.5051 16.8782 84.4036 16.4873 84.4036 16.0195C84.4036 15.6256 84.4759 15.2947 84.6206 15.027C84.7652 14.7592 84.9622 14.5438 85.2115 14.3807C85.4608 14.2176 85.7439 14.0945 86.0609 14.0114C86.381 13.9283 86.7164 13.8698 87.0673 13.8359C87.4797 13.7929 87.8121 13.7528 88.0645 13.7159C88.3168 13.6759 88.4999 13.6174 88.6138 13.5405C88.7277 13.4635 88.7846 13.3497 88.7846 13.1989V13.1712C88.7846 12.8788 88.6923 12.6526 88.5076 12.4925C88.3261 12.3325 88.0675 12.2525 87.7321 12.2525C87.3781 12.2525 87.0965 12.331 86.8873 12.4879C86.678 12.6418 86.5395 12.8357 86.4718 13.0696L84.6529 12.9219C84.7452 12.491 84.9268 12.1186 85.1976 11.8047C85.4685 11.4877 85.8178 11.2446 86.2456 11.0753C86.6764 10.9029 87.175 10.8168 87.7413 10.8168C88.1352 10.8168 88.5123 10.8629 88.8723 10.9553C89.2355 11.0476 89.5571 11.1907 89.8372 11.3846C90.1203 11.5785 90.3435 11.8278 90.5066 12.1325C90.6697 12.4341 90.7512 12.7957 90.7512 13.2173V18H88.8862V17.0167H88.8308C88.7169 17.2383 88.5646 17.4337 88.3738 17.603C88.1829 17.7692 87.9537 17.9 87.6859 17.9954C87.4181 18.0877 87.1088 18.1339 86.758 18.1339ZM87.3212 16.7766C87.6105 16.7766 87.8659 16.7197 88.0875 16.6058C88.3091 16.4889 88.483 16.3319 88.6092 16.1349C88.7354 15.938 88.7985 15.7148 88.7985 15.4656V14.7131C88.7369 14.7531 88.6523 14.79 88.5446 14.8239C88.4399 14.8546 88.3214 14.8839 88.1891 14.9116C88.0568 14.9362 87.9244 14.9593 87.7921 14.9808C87.6597 14.9993 87.5397 15.0162 87.432 15.0316C87.2012 15.0655 86.9996 15.1193 86.8272 15.1932C86.6549 15.267 86.521 15.3671 86.4256 15.4933C86.3302 15.6164 86.2825 15.7702 86.2825 15.9549C86.2825 16.2227 86.3794 16.4273 86.5733 16.5689C86.7703 16.7074 87.0196 16.7766 87.3212 16.7766ZM95.4808 18.1385C94.7545 18.1385 94.1297 17.9846 93.6065 17.6768C93.0864 17.366 92.6863 16.9351 92.4062 16.3842C92.1293 15.8333 91.9908 15.1993 91.9908 14.4822C91.9908 13.7559 92.1308 13.1188 92.4109 12.571C92.694 12.0201 93.0956 11.5908 93.6158 11.283C94.1359 10.9722 94.7545 10.8168 95.4716 10.8168C96.0902 10.8168 96.6319 10.9291 97.0966 11.1538C97.5613 11.3784 97.9291 11.6939 98.1999 12.1001C98.4708 12.5064 98.62 12.9834 98.6477 13.5312H96.7919C96.7396 13.1773 96.6011 12.8926 96.3764 12.6772C96.1548 12.4587 95.864 12.3494 95.5039 12.3494C95.1992 12.3494 94.933 12.4325 94.7053 12.5987C94.4806 12.7618 94.3052 13.0004 94.179 13.3143C94.0528 13.6282 93.9897 14.0083 93.9897 14.4545C93.9897 14.907 94.0513 15.2917 94.1744 15.6087C94.3005 15.9257 94.4775 16.1673 94.7053 16.3335C94.933 16.4996 95.1992 16.5827 95.5039 16.5827C95.7286 16.5827 95.9302 16.5366 96.1087 16.4442C96.2902 16.3519 96.4395 16.218 96.5565 16.0426C96.6765 15.8641 96.755 15.6502 96.7919 15.4009H98.6477C98.617 15.9426 98.4692 16.4196 98.2045 16.832C97.9429 17.2414 97.5813 17.5614 97.1197 17.7923C96.658 18.0231 96.1117 18.1385 95.4808 18.1385ZM101.873 13.9006V18H99.9069V8.54545H101.818V12.1602H101.901C102.061 11.7416 102.32 11.4138 102.677 11.1768C103.034 10.9368 103.482 10.8168 104.02 10.8168C104.513 10.8168 104.942 10.9245 105.308 11.1399C105.677 11.3523 105.964 11.6585 106.167 12.0586C106.373 12.4556 106.475 12.9311 106.472 13.4851V18H104.505V13.8359C104.508 13.3989 104.397 13.0588 104.172 12.8157C103.951 12.5726 103.64 12.451 103.24 12.451C102.972 12.451 102.735 12.5079 102.529 12.6218C102.326 12.7357 102.166 12.9019 102.049 13.1204C101.935 13.3358 101.877 13.5959 101.873 13.9006ZM111.251 18.1385C110.521 18.1385 109.893 17.9908 109.367 17.6953C108.844 17.3968 108.441 16.9751 108.158 16.4304C107.875 15.8826 107.733 15.2347 107.733 14.4869C107.733 13.7575 107.875 13.1173 108.158 12.5664C108.441 12.0155 108.839 11.5862 109.353 11.2784C109.87 10.9706 110.477 10.8168 111.172 10.8168C111.64 10.8168 112.076 10.8922 112.479 11.043C112.885 11.1907 113.239 11.4138 113.54 11.7124C113.845 12.0109 114.082 12.3864 114.251 12.8388C114.421 13.2881 114.505 13.8144 114.505 14.4176V14.9577H108.518V13.739H112.654C112.654 13.4558 112.593 13.205 112.469 12.9865C112.346 12.768 112.176 12.5972 111.957 12.4741C111.742 12.3479 111.491 12.2848 111.205 12.2848C110.906 12.2848 110.641 12.354 110.411 12.4925C110.183 12.628 110.004 12.8111 109.875 13.0419C109.746 13.2696 109.68 13.5236 109.676 13.8036V14.9624C109.676 15.3132 109.741 15.6164 109.87 15.8718C110.003 16.1272 110.189 16.3242 110.429 16.4627C110.669 16.6012 110.954 16.6705 111.283 16.6705C111.502 16.6705 111.702 16.6397 111.883 16.5781C112.065 16.5166 112.22 16.4242 112.349 16.3011C112.479 16.178 112.577 16.0272 112.645 15.8487L114.464 15.9688C114.371 16.4058 114.182 16.7874 113.896 17.1136C113.613 17.4368 113.247 17.6892 112.797 17.8707C112.351 18.0492 111.835 18.1385 111.251 18.1385ZM118.779 18V16.5597L122.144 13.4435C122.431 13.1665 122.671 12.9173 122.865 12.6957C123.062 12.4741 123.211 12.2571 123.312 12.0447C123.414 11.8293 123.465 11.5969 123.465 11.3477C123.465 11.0707 123.402 10.8321 123.275 10.6321C123.149 10.429 122.977 10.2736 122.758 10.1658C122.54 10.055 122.292 9.99964 122.015 9.99964C121.726 9.99964 121.474 10.0581 121.258 10.1751C121.043 10.292 120.876 10.4598 120.759 10.6783C120.643 10.8968 120.584 11.1568 120.584 11.4585H118.687C118.687 10.8398 118.827 10.3028 119.107 9.8473C119.387 9.39181 119.779 9.03942 120.284 8.79013C120.789 8.54084 121.37 8.41619 122.029 8.41619C122.706 8.41619 123.295 8.53622 123.797 8.77628C124.302 9.01326 124.694 9.34257 124.974 9.7642C125.254 10.1858 125.394 10.669 125.394 11.2138C125.394 11.5708 125.324 11.9232 125.182 12.271C125.044 12.6187 124.796 13.005 124.439 13.4297C124.082 13.8513 123.579 14.3576 122.929 14.9485L121.549 16.3011V16.3658H125.519V18H118.779ZM128.135 18.12C127.831 18.12 127.569 18.0123 127.351 17.7969C127.135 17.5784 127.028 17.3168 127.028 17.0121C127.028 16.7105 127.135 16.4519 127.351 16.2365C127.569 16.0211 127.831 15.9134 128.135 15.9134C128.431 15.9134 128.689 16.0211 128.911 16.2365C129.133 16.4519 129.243 16.7105 129.243 17.0121C129.243 17.2152 129.191 17.4014 129.086 17.5707C128.985 17.7369 128.851 17.8707 128.685 17.9723C128.519 18.0708 128.336 18.12 128.135 18.12ZM134.166 18.2077C133.372 18.2047 132.688 18.0092 132.116 17.6214C131.547 17.2337 131.108 16.672 130.8 15.9364C130.496 15.2009 130.345 14.3161 130.348 13.282C130.348 12.2509 130.5 11.3723 130.805 10.646C131.113 9.91963 131.551 9.36719 132.121 8.98864C132.693 8.60701 133.375 8.41619 134.166 8.41619C134.957 8.41619 135.637 8.60701 136.206 8.98864C136.779 9.37026 137.219 9.92424 137.527 10.6506C137.834 11.3738 137.987 12.2509 137.984 13.282C137.984 14.3191 137.83 15.2055 137.522 15.9411C137.217 16.6766 136.78 17.2383 136.211 17.6261C135.641 18.0138 134.96 18.2077 134.166 18.2077ZM134.166 16.5504C134.707 16.5504 135.14 16.2781 135.463 15.7333C135.786 15.1886 135.946 14.3714 135.943 13.282C135.943 12.5649 135.869 11.9678 135.722 11.4908C135.577 11.0137 135.371 10.6552 135.103 10.4151C134.838 10.1751 134.526 10.055 134.166 10.055C133.627 10.055 133.196 10.3243 132.873 10.8629C132.55 11.4015 132.387 12.2079 132.384 13.282C132.384 14.0083 132.456 14.6146 132.601 15.1009C132.748 15.584 132.956 15.9472 133.224 16.1903C133.492 16.4304 133.806 16.5504 134.166 16.5504Z" fill="white"/>
</svg>
