<svg width="134" height="26" viewBox="0 0 134 26" fill="none" xmlns="http://www.w3.org/2000/svg">
<rect x="1" width="132" height="26" rx="6" fill="#0069B1"/>
<path fill-rule="evenodd" clip-rule="evenodd" d="M22.3989 17.6734L22.3998 17.6744C21.8036 18.2361 21.0891 18.6922 20.2755 19.0007C20.0993 19.0675 19.922 19.1261 19.744 19.1766L19.7444 19.1778C19.5214 19.2407 19.2961 19.2911 19.0695 19.3292C18.6472 19.401 18.2241 19.4292 17.8058 19.4164L17.8249 18.795C17.5141 18.7858 17.2094 18.7521 16.9127 18.6958L17.2856 16.7309L17.6585 14.766C17.7503 14.7834 17.8466 14.7941 17.9475 14.7969L17.9591 14.4188C18.1324 14.4241 18.3143 14.397 18.5027 14.3256C18.691 14.2541 18.8451 14.1538 18.9714 14.0349L19.2308 14.3102C19.3344 14.2127 19.4266 14.1032 19.5049 13.9843L21.1754 15.084L22.8459 16.1838C22.643 16.492 22.4114 16.7798 22.1549 17.0434L22.5992 17.477C22.5342 17.5436 22.4674 17.6091 22.3989 17.6734ZM13.3266 17.3989C13.3909 17.4674 13.4564 17.5341 13.5231 17.5992L13.9567 17.1549C14.2202 17.4114 14.508 17.6429 14.8163 17.8459L15.916 16.1754L17.0157 14.5049C16.8968 14.4266 16.7873 14.3343 16.6898 14.2307L16.9651 13.9714C16.8462 13.8451 16.7459 13.691 16.6744 13.5026C16.603 13.3143 16.5759 13.1324 16.5812 12.959L16.2031 12.9474C16.2059 12.8466 16.2166 12.7503 16.234 12.6585L14.2691 12.2856L12.3042 11.9126C12.2479 12.2094 12.2142 12.5141 12.205 12.8248L11.5836 12.8058C11.5707 13.2271 11.5994 13.6532 11.6724 14.0786C11.7103 14.3021 11.7602 14.5244 11.8222 14.7444L11.8235 14.744C11.8739 14.922 11.9325 15.0993 11.9993 15.2755C12.3078 16.0891 12.7639 16.8035 13.3256 17.3998L13.3266 17.3989ZM13.6002 8.32562C14.1965 7.76392 14.9109 7.30779 15.7245 6.99926C15.9007 6.93245 16.078 6.8739 16.256 6.82343L16.2557 6.82219C16.4746 6.76047 16.6958 6.71075 16.9183 6.67291C17.3447 6.59954 17.7719 6.57062 18.1942 6.58357L18.1752 7.20498C18.4859 7.21417 18.7906 7.24785 19.0874 7.30417L18.7145 9.26909L18.3415 11.234C18.2497 11.2166 18.1534 11.2059 18.0526 11.2031L18.041 11.5812C17.8676 11.5759 17.6857 11.603 17.4974 11.6744C17.309 11.7458 17.1549 11.8462 17.0286 11.9651L16.7693 11.6898C16.6657 11.7872 16.5735 11.8967 16.4952 12.0157L14.8246 10.916L13.1541 9.81623C13.3571 9.50797 13.5887 9.22016 13.8451 8.95664L13.4008 8.52304C13.4659 8.45637 13.5326 8.39086 13.6011 8.32658L13.6002 8.32562ZM22.0434 8.8451L22.477 8.40079C22.5436 8.46585 22.6092 8.53261 22.6734 8.60106L22.6744 8.60017C23.2361 9.19645 23.6922 9.91087 24.0007 10.7245C24.0676 10.9007 24.1261 11.078 24.1766 11.256L24.1778 11.2556C24.2404 11.4777 24.2907 11.702 24.3287 11.9278C24.4009 12.351 24.4293 12.775 24.4164 13.1942L23.795 13.1751C23.7858 13.4859 23.7522 13.7906 23.6958 14.0873L21.7309 13.7144L19.766 13.3415C19.7834 13.2497 19.7942 13.1534 19.7969 13.0525L19.4188 13.041C19.4241 12.8676 19.397 12.6857 19.3256 12.4973C19.2542 12.309 19.1538 12.1549 19.0349 12.0286L19.3102 11.7692C19.2128 11.6657 19.1033 11.5734 18.9843 11.4951L20.0841 9.82462L21.1838 8.15411C21.4921 8.35704 21.7799 8.58863 22.0434 8.8451ZM16.7898 17.7668L16.4221 19.221C15.8821 19.0845 15.3581 18.8775 14.8651 18.6019L15.5971 17.2926L16.3292 15.9833C16.5902 16.1292 16.8689 16.2395 17.1576 16.3126L16.7898 17.7668ZM13.2332 11.7898L11.779 11.4221C11.9156 10.8821 12.1225 10.3581 12.3982 9.86513L13.7074 10.5971L15.0167 11.3291C14.8708 11.5901 14.7605 11.8688 14.6875 12.1575L13.2332 11.7898ZM19.2102 8.23323L19.578 6.779C20.1179 6.91555 20.6419 7.12252 21.1349 7.39815L20.4029 8.70742L19.6709 10.0167C19.4099 9.87076 19.1312 9.76046 18.8425 9.68745L19.2102 8.23323ZM22.7668 14.2102L24.221 14.5779C24.0845 15.1179 23.8775 15.6419 23.6019 16.1349L22.2926 15.4029L20.9833 14.6709C21.1293 14.4099 21.2396 14.1312 21.3126 13.8425L22.7668 14.2102Z" fill="#FFFCFF"/>
<path d="M27.9205 18V11.4545H28.892V12.4773H28.9773C29.1136 12.1278 29.3338 11.8565 29.6378 11.6634C29.9418 11.4673 30.3068 11.3693 30.733 11.3693C31.1648 11.3693 31.5241 11.4673 31.8111 11.6634C32.1009 11.8565 32.3267 12.1278 32.4886 12.4773H32.5568C32.7244 12.1392 32.9759 11.8707 33.3111 11.6719C33.6463 11.4702 34.0483 11.3693 34.517 11.3693C35.1023 11.3693 35.581 11.5526 35.9531 11.919C36.3253 12.2827 36.5114 12.8494 36.5114 13.6193V18H35.5057V13.6193C35.5057 13.1364 35.3736 12.7912 35.1094 12.5838C34.8452 12.3764 34.5341 12.2727 34.1761 12.2727C33.7159 12.2727 33.3594 12.4119 33.1065 12.6903C32.8537 12.9659 32.7273 13.3153 32.7273 13.7386V18H31.7045V13.517C31.7045 13.1449 31.5838 12.8452 31.3423 12.6179C31.1009 12.3878 30.7898 12.2727 30.4091 12.2727C30.1477 12.2727 29.9034 12.3423 29.6761 12.4815C29.4517 12.6207 29.2699 12.8139 29.1307 13.0611C28.9943 13.3054 28.9261 13.5881 28.9261 13.9091V18H27.9205ZM40.2763 18.1534C39.8615 18.1534 39.4851 18.0753 39.147 17.919C38.8089 17.7599 38.5405 17.5312 38.3416 17.233C38.1428 16.9318 38.0433 16.5682 38.0433 16.142C38.0433 15.767 38.1172 15.4631 38.2649 15.2301C38.4126 14.9943 38.6101 14.8097 38.8572 14.6761C39.1044 14.5426 39.3771 14.4432 39.6754 14.3778C39.9766 14.3097 40.2791 14.2557 40.5831 14.2159C40.9808 14.1648 41.3033 14.1264 41.5504 14.1009C41.8004 14.0724 41.9822 14.0256 42.0959 13.9602C42.2124 13.8949 42.2706 13.7812 42.2706 13.6193V13.5852C42.2706 13.1648 42.1555 12.8381 41.9254 12.6051C41.6982 12.3722 41.353 12.2557 40.8899 12.2557C40.4098 12.2557 40.0334 12.3608 39.7607 12.571C39.4879 12.7812 39.2962 13.0057 39.1854 13.2443L38.2308 12.9034C38.4013 12.5057 38.6286 12.196 38.9126 11.9744C39.1996 11.75 39.5121 11.5937 39.8501 11.5057C40.1911 11.4148 40.5263 11.3693 40.8558 11.3693C41.0661 11.3693 41.3075 11.3949 41.5803 11.446C41.8558 11.4943 42.1214 11.5952 42.3771 11.7486C42.6357 11.902 42.8501 12.1335 43.0206 12.4432C43.1911 12.7528 43.2763 13.1676 43.2763 13.6875V18H42.2706V17.1136H42.2195C42.1513 17.2557 42.0376 17.4077 41.8786 17.5696C41.7195 17.7315 41.5078 17.8693 41.2436 17.983C40.9794 18.0966 40.657 18.1534 40.2763 18.1534ZM40.4297 17.25C40.8274 17.25 41.1626 17.1719 41.4354 17.0156C41.7109 16.8594 41.9183 16.6577 42.0575 16.4105C42.1996 16.1634 42.2706 15.9034 42.2706 15.6307V14.7102C42.228 14.7614 42.1342 14.8082 41.9893 14.8509C41.8473 14.8906 41.6825 14.9261 41.495 14.9574C41.3104 14.9858 41.13 15.0114 40.9538 15.0341C40.7805 15.054 40.6399 15.071 40.532 15.0852C40.2706 15.1193 40.0263 15.1747 39.799 15.2514C39.5746 15.3253 39.3928 15.4375 39.2536 15.5881C39.1172 15.7358 39.049 15.9375 39.049 16.1932C39.049 16.5426 39.1783 16.8068 39.4368 16.9858C39.6982 17.1619 40.0291 17.25 40.4297 17.25ZM47.5835 18.1364C47.038 18.1364 46.5565 17.9986 46.1388 17.723C45.7212 17.4446 45.3945 17.0526 45.1587 16.5469C44.9229 16.0384 44.805 15.4375 44.805 14.7443C44.805 14.0568 44.9229 13.4602 45.1587 12.9545C45.3945 12.4489 45.7227 12.0582 46.1431 11.7827C46.5636 11.5071 47.0494 11.3693 47.6005 11.3693C48.0266 11.3693 48.3633 11.4403 48.6104 11.5824C48.8604 11.7216 49.0508 11.8807 49.1815 12.0597C49.315 12.2358 49.4187 12.3807 49.4925 12.4943H49.5778V9.27273H50.5835V18H49.6119V16.9943H49.4925C49.4187 17.1136 49.3136 17.2642 49.1772 17.446C49.0408 17.625 48.8462 17.7855 48.5934 17.9276C48.3406 18.0668 48.0039 18.1364 47.5835 18.1364ZM47.7198 17.233C48.1232 17.233 48.4641 17.1278 48.7425 16.9176C49.021 16.7045 49.2326 16.4105 49.3775 16.0355C49.5224 15.6577 49.5948 15.2216 49.5948 14.7273C49.5948 14.2386 49.5238 13.8111 49.3817 13.4446C49.2397 13.0753 49.0295 12.7884 48.7511 12.5838C48.4727 12.3764 48.1289 12.2727 47.7198 12.2727C47.2937 12.2727 46.9386 12.3821 46.6545 12.6009C46.3732 12.8168 46.1616 13.1108 46.0195 13.483C45.8803 13.8523 45.8107 14.267 45.8107 14.7273C45.8107 15.1932 45.8817 15.6165 46.0238 15.9972C46.1687 16.375 46.3817 16.6761 46.663 16.9006C46.9471 17.1222 47.2994 17.233 47.7198 17.233ZM55.3093 18.1364C54.6786 18.1364 54.1346 17.9972 53.6772 17.7188C53.2227 17.4375 52.8718 17.0455 52.6246 16.5426C52.3803 16.0369 52.2582 15.4489 52.2582 14.7784C52.2582 14.108 52.3803 13.517 52.6246 13.0057C52.8718 12.4915 53.2156 12.0909 53.6559 11.804C54.0991 11.5142 54.6161 11.3693 55.207 11.3693C55.5479 11.3693 55.8846 11.4261 56.217 11.5398C56.5494 11.6534 56.8519 11.8381 57.1246 12.0938C57.3974 12.3466 57.6147 12.6818 57.7766 13.0994C57.9386 13.517 58.0195 14.0312 58.0195 14.642V15.0682H52.9741V14.1989H56.9968C56.9968 13.8295 56.9229 13.5 56.7752 13.2102C56.6303 12.9205 56.4229 12.6918 56.1531 12.5241C55.886 12.3565 55.5707 12.2727 55.207 12.2727C54.8065 12.2727 54.4599 12.3722 54.1673 12.571C53.8775 12.767 53.6545 13.0227 53.4982 13.3381C53.342 13.6534 53.2638 13.9915 53.2638 14.3523V14.9318C53.2638 15.4261 53.3491 15.8452 53.5195 16.1889C53.6928 16.5298 53.9329 16.7898 54.2397 16.9688C54.5465 17.1449 54.9031 17.233 55.3093 17.233C55.5735 17.233 55.8121 17.196 56.0252 17.1222C56.2411 17.0455 56.4272 16.9318 56.5835 16.7812C56.7397 16.6278 56.8604 16.4375 56.9457 16.2102L57.9173 16.483C57.815 16.8125 57.6431 17.1023 57.4016 17.3523C57.1602 17.5994 56.8619 17.7926 56.5067 17.9318C56.1516 18.0682 55.7525 18.1364 55.3093 18.1364ZM62.9244 18V11.4545H63.93V18H62.9244ZM63.4357 10.3636C63.2397 10.3636 63.0707 10.2969 62.9286 10.1634C62.7894 10.0298 62.7198 9.86932 62.7198 9.68182C62.7198 9.49432 62.7894 9.33381 62.9286 9.20028C63.0707 9.06676 63.2397 9 63.4357 9C63.6317 9 63.7994 9.06676 63.9386 9.20028C64.0806 9.33381 64.1516 9.49432 64.1516 9.68182C64.1516 9.86932 64.0806 10.0298 63.9386 10.1634C63.7994 10.2969 63.6317 10.3636 63.4357 10.3636ZM66.7777 14.0625V18H65.772V11.4545H66.7436V12.4773H66.8288C66.9822 12.1449 67.2152 11.8778 67.5277 11.6761C67.8402 11.4716 68.2436 11.3693 68.7379 11.3693C69.1811 11.3693 69.5689 11.4602 69.9013 11.642C70.2337 11.821 70.4922 12.0938 70.6768 12.4602C70.8615 12.8239 70.9538 13.2841 70.9538 13.8409V18H69.9482V13.9091C69.9482 13.3949 69.8146 12.9943 69.5476 12.7074C69.2805 12.4176 68.9141 12.2727 68.4482 12.2727C68.1271 12.2727 67.8402 12.3423 67.5874 12.4815C67.3374 12.6207 67.1399 12.8239 66.995 13.0909C66.8501 13.358 66.7777 13.6818 66.7777 14.0625ZM75.7016 18V8.54545H77.7006V12.7141H77.8252L81.2275 8.54545H83.6235L80.115 12.7788L83.665 18H81.2737L78.6839 14.1129L77.7006 15.3132V18H75.7016ZM84.6276 18V10.9091H86.5342V12.1463H86.608C86.7373 11.7062 86.9543 11.3738 87.259 11.1491C87.5637 10.9214 87.9145 10.8075 88.3115 10.8075C88.41 10.8075 88.5162 10.8137 88.6301 10.826C88.7439 10.8383 88.844 10.8552 88.9301 10.8768V12.6218C88.8378 12.5941 88.7101 12.5695 88.547 12.5479C88.3838 12.5264 88.2346 12.5156 88.0992 12.5156C87.8099 12.5156 87.5513 12.5787 87.3236 12.7049C87.0989 12.828 86.9204 13.0004 86.7881 13.2219C86.6588 13.4435 86.5942 13.699 86.5942 13.9883V18H84.6276ZM91.7658 18.1339C91.3134 18.1339 90.9102 18.0554 90.5563 17.8984C90.2024 17.7384 89.9223 17.503 89.7161 17.1921C89.513 16.8782 89.4114 16.4873 89.4114 16.0195C89.4114 15.6256 89.4837 15.2947 89.6284 15.027C89.773 14.7592 89.97 14.5438 90.2193 14.3807C90.4686 14.2176 90.7517 14.0945 91.0687 14.0114C91.3888 13.9283 91.7243 13.8698 92.0751 13.8359C92.4875 13.7929 92.8199 13.7528 93.0723 13.7159C93.3246 13.6759 93.5078 13.6174 93.6216 13.5405C93.7355 13.4635 93.7924 13.3497 93.7924 13.1989V13.1712C93.7924 12.8788 93.7001 12.6526 93.5154 12.4925C93.3339 12.3325 93.0753 12.2525 92.7399 12.2525C92.3859 12.2525 92.1043 12.331 91.8951 12.4879C91.6858 12.6418 91.5473 12.8357 91.4796 13.0696L89.6607 12.9219C89.753 12.491 89.9346 12.1186 90.2054 11.8047C90.4763 11.4877 90.8256 11.2446 91.2534 11.0753C91.6842 10.9029 92.1828 10.8168 92.7491 10.8168C93.1431 10.8168 93.5201 10.8629 93.8801 10.9553C94.2433 11.0476 94.5649 11.1907 94.845 11.3846C95.1281 11.5785 95.3513 11.8278 95.5144 12.1325C95.6775 12.4341 95.7591 12.7957 95.7591 13.2173V18H93.894V17.0167H93.8386C93.7247 17.2383 93.5724 17.4337 93.3816 17.603C93.1908 17.7692 92.9615 17.9 92.6937 17.9954C92.426 18.0877 92.1167 18.1339 91.7658 18.1339ZM92.329 16.7766C92.6183 16.7766 92.8738 16.7197 93.0953 16.6058C93.3169 16.4889 93.4908 16.3319 93.617 16.1349C93.7432 15.938 93.8063 15.7148 93.8063 15.4656V14.7131C93.7447 14.7531 93.6601 14.79 93.5524 14.8239C93.4477 14.8546 93.3292 14.8839 93.1969 14.9116C93.0646 14.9362 92.9322 14.9593 92.7999 14.9808C92.6676 14.9993 92.5475 15.0162 92.4398 15.0316C92.209 15.0655 92.0074 15.1193 91.835 15.1932C91.6627 15.267 91.5288 15.3671 91.4334 15.4933C91.338 15.6164 91.2903 15.7702 91.2903 15.9549C91.2903 16.2227 91.3873 16.4273 91.5811 16.5689C91.7781 16.7074 92.0274 16.7766 92.329 16.7766ZM99.0668 15.9595L99.0714 13.6005H99.3576L101.629 10.9091H103.886L100.835 14.473H100.369L99.0668 15.9595ZM97.2848 18V8.54545H99.2514V18H97.2848ZM101.717 18L99.63 14.9116L100.941 13.522L104.02 18H101.717ZM107.763 18.1385C107.046 18.1385 106.426 17.9862 105.903 17.6815C105.382 17.3737 104.981 16.9459 104.698 16.3981C104.415 15.8472 104.273 15.2086 104.273 14.4822C104.273 13.7498 104.415 13.1096 104.698 12.5618C104.981 12.0109 105.382 11.5831 105.903 11.2784C106.426 10.9706 107.046 10.8168 107.763 10.8168C108.48 10.8168 109.099 10.9706 109.619 11.2784C110.142 11.5831 110.545 12.0109 110.828 12.5618C111.112 13.1096 111.253 13.7498 111.253 14.4822C111.253 15.2086 111.112 15.8472 110.828 16.3981C110.545 16.9459 110.142 17.3737 109.619 17.6815C109.099 17.9862 108.48 18.1385 107.763 18.1385ZM107.772 16.6151C108.099 16.6151 108.371 16.5227 108.589 16.3381C108.808 16.1503 108.973 15.8949 109.083 15.5717C109.197 15.2486 109.254 14.8808 109.254 14.4684C109.254 14.056 109.197 13.6882 109.083 13.3651C108.973 13.0419 108.808 12.7865 108.589 12.5987C108.371 12.411 108.099 12.3171 107.772 12.3171C107.443 12.3171 107.166 12.411 106.941 12.5987C106.72 12.7865 106.552 13.0419 106.438 13.3651C106.327 13.6882 106.272 14.056 106.272 14.4684C106.272 14.8808 106.327 15.2486 106.438 15.5717C106.552 15.8949 106.72 16.1503 106.941 16.3381C107.166 16.5227 107.443 16.6151 107.772 16.6151ZM107.057 9.99503L108.035 7.89453H109.854L108.446 9.99503H107.057ZM113.753 18L111.823 10.9091H113.813L114.912 15.6733H114.976L116.121 10.9091H118.074L119.237 15.6456H119.297L120.378 10.9091H122.363L120.438 18H118.356L117.137 13.5405H117.049L115.83 18H113.753Z" fill="#FFFCFF"/>
</svg>
