<svg width="264" height="26" viewBox="0 0 264 26" fill="none" xmlns="http://www.w3.org/2000/svg">
<path d="M2 12C2 6.34315 2 3.51472 3.75736 1.75736C5.51472 0 8.34315 0 14 0H74V26H14C8.34315 26 5.51472 26 3.75736 24.2426C2 22.4853 2 19.6569 2 14V12Z" fill="#3F3F3F"/>
<path d="M7.82173 18V8.54545H11.5518C12.2689 8.54545 12.8799 8.68241 13.3846 8.95632C13.8893 9.22715 14.274 9.60417 14.5387 10.0874C14.8065 10.5675 14.9403 11.1214 14.9403 11.7493C14.9403 12.3771 14.8049 12.9311 14.5341 13.4112C14.2633 13.8913 13.8709 14.2653 13.3569 14.533C12.846 14.8008 12.2274 14.9347 11.5011 14.9347H9.12358V13.3327H11.1779C11.5626 13.3327 11.8796 13.2666 12.1289 13.1342C12.3813 12.9988 12.569 12.8126 12.6921 12.5756C12.8183 12.3356 12.8814 12.0601 12.8814 11.7493C12.8814 11.4354 12.8183 11.1615 12.6921 10.9276C12.569 10.6906 12.3813 10.5075 12.1289 10.3782C11.8765 10.2459 11.5565 10.1797 11.1687 10.1797H9.82067V18H7.82173ZM18.1684 8.54545V18H16.2018V8.54545H18.1684ZM21.7658 18.1339C21.3134 18.1339 20.9102 18.0554 20.5563 17.8984C20.2024 17.7384 19.9223 17.503 19.7161 17.1921C19.513 16.8782 19.4114 16.4873 19.4114 16.0195C19.4114 15.6256 19.4837 15.2947 19.6284 15.027C19.773 14.7592 19.97 14.5438 20.2193 14.3807C20.4686 14.2176 20.7517 14.0945 21.0687 14.0114C21.3888 13.9283 21.7243 13.8698 22.0751 13.8359C22.4875 13.7929 22.8199 13.7528 23.0723 13.7159C23.3246 13.6759 23.5078 13.6174 23.6216 13.5405C23.7355 13.4635 23.7924 13.3497 23.7924 13.1989V13.1712C23.7924 12.8788 23.7001 12.6526 23.5154 12.4925C23.3339 12.3325 23.0753 12.2525 22.7399 12.2525C22.3859 12.2525 22.1043 12.331 21.8951 12.4879C21.6858 12.6418 21.5473 12.8357 21.4796 13.0696L19.6607 12.9219C19.753 12.491 19.9346 12.1186 20.2054 11.8047C20.4763 11.4877 20.8256 11.2446 21.2534 11.0753C21.6842 10.9029 22.1828 10.8168 22.7491 10.8168C23.1431 10.8168 23.5201 10.8629 23.8801 10.9553C24.2433 11.0476 24.5649 11.1907 24.845 11.3846C25.1281 11.5785 25.3513 11.8278 25.5144 12.1325C25.6775 12.4341 25.7591 12.7957 25.7591 13.2173V18H23.894V17.0167H23.8386C23.7247 17.2383 23.5724 17.4337 23.3816 17.603C23.1908 17.7692 22.9615 17.9 22.6937 17.9954C22.426 18.0877 22.1167 18.1339 21.7658 18.1339ZM22.329 16.7766C22.6183 16.7766 22.8738 16.7197 23.0953 16.6058C23.3169 16.4889 23.4908 16.3319 23.617 16.1349C23.7432 15.938 23.8063 15.7148 23.8063 15.4656V14.7131C23.7447 14.7531 23.6601 14.79 23.5524 14.8239C23.4477 14.8546 23.3292 14.8839 23.1969 14.9116C23.0646 14.9362 22.9322 14.9593 22.7999 14.9808C22.6676 14.9993 22.5475 15.0162 22.4398 15.0316C22.209 15.0655 22.0074 15.1193 21.835 15.1932C21.6627 15.267 21.5288 15.3671 21.4334 15.4933C21.338 15.6164 21.2903 15.7702 21.2903 15.9549C21.2903 16.2227 21.3873 16.4273 21.5811 16.5689C21.7781 16.7074 22.0274 16.7766 22.329 16.7766ZM31.0565 10.9091V12.3864H26.7862V10.9091H31.0565ZM27.7557 9.21023H29.7223V15.821C29.7223 16.0026 29.75 16.1442 29.8054 16.2457C29.8608 16.3442 29.9377 16.4135 30.0362 16.4535C30.1378 16.4935 30.2547 16.5135 30.3871 16.5135C30.4794 16.5135 30.5717 16.5058 30.6641 16.4904C30.7564 16.4719 30.8272 16.4581 30.8764 16.4489L31.1857 17.9123C31.0872 17.9431 30.9487 17.9785 30.7702 18.0185C30.5917 18.0616 30.3748 18.0877 30.1193 18.0969C29.6454 18.1154 29.2299 18.0523 28.8729 17.9077C28.5189 17.763 28.2435 17.5384 28.0465 17.2337C27.8496 16.929 27.7526 16.5443 27.7557 16.0795V9.21023ZM36.1507 10.9091V12.3864H31.7743V10.9091H36.1507ZM32.7761 18V10.3967C32.7761 9.88269 32.8761 9.45644 33.0762 9.1179C33.2793 8.77936 33.5563 8.52545 33.9071 8.35618C34.258 8.18691 34.6565 8.10227 35.1028 8.10227C35.4044 8.10227 35.6799 8.12535 35.9292 8.17152C36.1815 8.21768 36.3693 8.25923 36.4924 8.29616L36.1415 9.77344C36.0646 9.74882 35.9692 9.72573 35.8553 9.70419C35.7445 9.68265 35.6306 9.67188 35.5137 9.67188C35.2244 9.67188 35.0228 9.73958 34.9089 9.875C34.795 10.0073 34.7381 10.1935 34.7381 10.4336V18H32.7761ZM40.3021 18.1385C39.585 18.1385 38.9649 17.9862 38.4417 17.6815C37.9215 17.3737 37.5199 16.9459 37.2368 16.3981C36.9536 15.8472 36.8121 15.2086 36.8121 14.4822C36.8121 13.7498 36.9536 13.1096 37.2368 12.5618C37.5199 12.0109 37.9215 11.5831 38.4417 11.2784C38.9649 10.9706 39.585 10.8168 40.3021 10.8168C41.0192 10.8168 41.6378 10.9706 42.1579 11.2784C42.6811 11.5831 43.0843 12.0109 43.3675 12.5618C43.6506 13.1096 43.7922 13.7498 43.7922 14.4822C43.7922 15.2086 43.6506 15.8472 43.3675 16.3981C43.0843 16.9459 42.6811 17.3737 42.1579 17.6815C41.6378 17.9862 41.0192 18.1385 40.3021 18.1385ZM40.3113 16.6151C40.6376 16.6151 40.9099 16.5227 41.1285 16.3381C41.347 16.1503 41.5116 15.8949 41.6224 15.5717C41.7363 15.2486 41.7932 14.8808 41.7932 14.4684C41.7932 14.056 41.7363 13.6882 41.6224 13.3651C41.5116 13.0419 41.347 12.7865 41.1285 12.5987C40.9099 12.411 40.6376 12.3171 40.3113 12.3171C39.982 12.3171 39.705 12.411 39.4804 12.5987C39.2588 12.7865 39.0911 13.0419 38.9772 13.3651C38.8664 13.6882 38.811 14.056 38.811 14.4684C38.811 14.8808 38.8664 15.2486 38.9772 15.5717C39.0911 15.8949 39.2588 16.1503 39.4804 16.3381C39.705 16.5227 39.982 16.6151 40.3113 16.6151ZM45.0709 18V10.9091H46.9775V12.1463H47.0514C47.1807 11.7062 47.3976 11.3738 47.7023 11.1491C48.007 10.9214 48.3579 10.8075 48.7549 10.8075C48.8534 10.8075 48.9595 10.8137 49.0734 10.826C49.1873 10.8383 49.2873 10.8552 49.3735 10.8768V12.6218C49.2812 12.5941 49.1534 12.5695 48.9903 12.5479C48.8272 12.5264 48.6779 12.5156 48.5425 12.5156C48.2532 12.5156 47.9947 12.5787 47.767 12.7049C47.5423 12.828 47.3638 13.0004 47.2314 13.2219C47.1022 13.4435 47.0376 13.699 47.0376 13.9883V18H45.0709ZM50.3903 18V10.9091H52.2646V12.1602H52.3477C52.4954 11.7447 52.7416 11.4169 53.0863 11.1768C53.431 10.9368 53.8434 10.8168 54.3235 10.8168C54.8098 10.8168 55.2237 10.9383 55.5653 11.1815C55.907 11.4215 56.1347 11.7478 56.2486 12.1602H56.3224C56.4671 11.7539 56.7287 11.4292 57.1072 11.1861C57.4889 10.9399 57.9397 10.8168 58.4599 10.8168C59.1216 10.8168 59.6586 11.0276 60.071 11.4492C60.4865 11.8678 60.6942 12.4618 60.6942 13.2312V18H58.7322V13.619C58.7322 13.225 58.6276 12.9296 58.4183 12.7326C58.209 12.5356 57.9474 12.4371 57.6335 12.4371C57.2765 12.4371 56.998 12.551 56.7979 12.7788C56.5979 13.0034 56.4979 13.3004 56.4979 13.6697V18H54.5913V13.5774C54.5913 13.2296 54.4912 12.9527 54.2912 12.7464C54.0942 12.5402 53.8342 12.4371 53.511 12.4371C53.2925 12.4371 53.0955 12.4925 52.9201 12.6033C52.7478 12.7111 52.6108 12.8634 52.5092 13.0604C52.4077 13.2543 52.3569 13.482 52.3569 13.7436V18H50.3903ZM68.1475 12.9311L66.3471 13.0419C66.3163 12.888 66.2502 12.7495 66.1486 12.6264C66.0471 12.5002 65.9132 12.4002 65.747 12.3263C65.5839 12.2494 65.3884 12.2109 65.1607 12.2109C64.856 12.2109 64.599 12.2756 64.3897 12.4048C64.1805 12.531 64.0758 12.7003 64.0758 12.9126C64.0758 13.0819 64.1435 13.225 64.2789 13.342C64.4144 13.4589 64.6467 13.5528 64.976 13.6236L66.2594 13.8821C66.9488 14.0237 67.4628 14.2514 67.8013 14.5653C68.1399 14.8793 68.3091 15.2917 68.3091 15.8026C68.3091 16.2673 68.1722 16.6751 67.8983 17.0259C67.6274 17.3768 67.255 17.6507 66.7811 17.8477C66.3102 18.0415 65.767 18.1385 65.1515 18.1385C64.2128 18.1385 63.4649 17.9431 62.9078 17.5522C62.3539 17.1583 62.0292 16.6228 61.9338 15.9457L63.8681 15.8441C63.9266 16.1303 64.0681 16.3488 64.2928 16.4996C64.5175 16.6474 64.8052 16.7212 65.1561 16.7212C65.5008 16.7212 65.7778 16.6551 65.987 16.5227C66.1994 16.3873 66.3071 16.2134 66.3102 16.0011C66.3071 15.8226 66.2317 15.6764 66.084 15.5625C65.9363 15.4455 65.7085 15.3563 65.4007 15.2947L64.1728 15.0501C63.4803 14.9116 62.9648 14.6715 62.6262 14.3299C62.2908 13.9883 62.123 13.5528 62.123 13.0234C62.123 12.5679 62.2462 12.1755 62.4924 11.8462C62.7417 11.5169 63.091 11.263 63.5403 11.0845C63.9927 10.906 64.5221 10.8168 65.1284 10.8168C66.024 10.8168 66.7288 11.006 67.2427 11.3846C67.7598 11.7631 68.0614 12.2786 68.1475 12.9311Z" fill="#FFFCFF"/>
<rect width="33" height="26" transform="translate(74)" fill="#533DA3"/>
<path d="M79.7848 18V10.9091H81.7514V18H79.7848ZM80.7727 9.99503C80.4804 9.99503 80.2295 9.89808 80.0202 9.70419C79.814 9.50722 79.7109 9.27178 79.7109 8.99787C79.7109 8.72704 79.814 8.49467 80.0202 8.30078C80.2295 8.10381 80.4804 8.00533 80.7727 8.00533C81.0651 8.00533 81.3144 8.10381 81.5206 8.30078C81.7299 8.49467 81.8345 8.72704 81.8345 8.99787C81.8345 9.27178 81.7299 9.50722 81.5206 9.70419C81.3144 9.89808 81.0651 9.99503 80.7727 9.99503ZM92.0519 13.2727C92.0519 14.3037 91.8565 15.1809 91.4656 15.9041C91.0779 16.6274 90.5485 17.1798 89.8776 17.5614C89.2097 17.94 88.4588 18.1293 87.6247 18.1293C86.7845 18.1293 86.0305 17.9384 85.3627 17.5568C84.6948 17.1752 84.167 16.6228 83.7792 15.8995C83.3914 15.1763 83.1975 14.3007 83.1975 13.2727C83.1975 12.2417 83.3914 11.3646 83.7792 10.6413C84.167 9.91809 84.6948 9.36719 85.3627 8.98864C86.0305 8.60701 86.7845 8.41619 87.6247 8.41619C88.4588 8.41619 89.2097 8.60701 89.8776 8.98864C90.5485 9.36719 91.0779 9.91809 91.4656 10.6413C91.8565 11.3646 92.0519 12.2417 92.0519 13.2727ZM90.0253 13.2727C90.0253 12.6049 89.9253 12.0417 89.7252 11.5831C89.5283 11.1245 89.2497 10.7768 88.8896 10.5398C88.5296 10.3028 88.1079 10.1843 87.6247 10.1843C87.1415 10.1843 86.7199 10.3028 86.3598 10.5398C85.9997 10.7768 85.7197 11.1245 85.5196 11.5831C85.3227 12.0417 85.2242 12.6049 85.2242 13.2727C85.2242 13.9406 85.3227 14.5038 85.5196 14.9624C85.7197 15.4209 85.9997 15.7687 86.3598 16.0057C86.7199 16.2427 87.1415 16.3612 87.6247 16.3612C88.1079 16.3612 88.5296 16.2427 88.8896 16.0057C89.2497 15.7687 89.5283 15.4209 89.7252 14.9624C89.9253 14.5038 90.0253 13.9406 90.0253 13.2727ZM98.6616 11.2646C98.6246 10.8922 98.4661 10.6029 98.1861 10.3967C97.906 10.1905 97.5259 10.0874 97.0458 10.0874C96.7196 10.0874 96.4441 10.1335 96.2195 10.2259C95.9948 10.3151 95.8224 10.4397 95.7024 10.5998C95.5855 10.7598 95.527 10.9414 95.527 11.1445C95.5208 11.3138 95.5562 11.4615 95.6332 11.5877C95.7132 11.7139 95.8224 11.8232 95.9609 11.9155C96.0994 12.0047 96.2595 12.0832 96.4411 12.1509C96.6226 12.2156 96.8165 12.271 97.0227 12.3171L97.8722 12.5202C98.2846 12.6126 98.6631 12.7357 99.0078 12.8896C99.3525 13.0434 99.651 13.2327 99.9034 13.4574C100.156 13.6821 100.351 13.9467 100.49 14.2514C100.631 14.5561 100.704 14.9054 100.707 15.2994C100.704 15.878 100.556 16.3796 100.263 16.8043C99.9742 17.226 99.5556 17.5537 99.0078 17.7876C98.4631 18.0185 97.806 18.1339 97.0366 18.1339C96.2733 18.1339 95.6085 18.0169 95.0423 17.783C94.479 17.5491 94.0389 17.2029 93.7219 16.7443C93.408 16.2827 93.2434 15.7118 93.228 15.0316H95.1623C95.1838 15.3486 95.2746 15.6133 95.4347 15.8256C95.5978 16.0349 95.8147 16.1934 96.0856 16.3011C96.3595 16.4058 96.6688 16.4581 97.0135 16.4581C97.352 16.4581 97.646 16.4089 97.8952 16.3104C98.1476 16.2119 98.343 16.0749 98.4815 15.8995C98.62 15.7241 98.6893 15.5225 98.6893 15.2947C98.6893 15.0824 98.6262 14.9039 98.5 14.7592C98.3769 14.6146 98.1953 14.4915 97.9553 14.3899C97.7183 14.2884 97.4274 14.196 97.0827 14.1129L96.0533 13.8544C95.2562 13.6605 94.6268 13.3574 94.1651 12.945C93.7035 12.5326 93.4742 11.977 93.4773 11.2784C93.4742 10.706 93.6265 10.2058 93.9343 9.77805C94.2451 9.35026 94.6714 9.01634 95.2131 8.77628C95.7547 8.53622 96.3703 8.41619 97.0597 8.41619C97.7614 8.41619 98.3738 8.53622 98.897 8.77628C99.4233 9.01634 99.8326 9.35026 100.125 9.77805C100.417 10.2058 100.568 10.7013 100.577 11.2646H98.6616Z" fill="#FFFCFF"/>
<rect width="57" height="26" transform="translate(107)" fill="#6C4FD4"/>
<path d="M112.785 18V10.9091H114.751V18H112.785ZM113.773 9.99503C113.48 9.99503 113.23 9.89808 113.02 9.70419C112.814 9.50722 112.711 9.27178 112.711 8.99787C112.711 8.72704 112.814 8.49467 113.02 8.30078C113.23 8.10381 113.48 8.00533 113.773 8.00533C114.065 8.00533 114.314 8.10381 114.521 8.30078C114.73 8.49467 114.835 8.72704 114.835 8.99787C114.835 9.27178 114.73 9.50722 114.521 9.70419C114.314 9.89808 114.065 9.99503 113.773 9.99503ZM116.364 18V8.54545H120.094C120.811 8.54545 121.422 8.68241 121.927 8.95632C122.431 9.22715 122.816 9.60417 123.081 10.0874C123.348 10.5675 123.482 11.1214 123.482 11.7493C123.482 12.3771 123.347 12.9311 123.076 13.4112C122.805 13.8913 122.413 14.2653 121.899 14.533C121.388 14.8008 120.769 14.9347 120.043 14.9347H117.666V13.3327H119.72C120.105 13.3327 120.422 13.2666 120.671 13.1342C120.923 12.9988 121.111 12.8126 121.234 12.5756C121.36 12.3356 121.423 12.0601 121.423 11.7493C121.423 11.4354 121.36 11.1615 121.234 10.9276C121.111 10.6906 120.923 10.5075 120.671 10.3782C120.419 10.2459 120.098 10.1797 119.711 10.1797H118.363V18H116.364ZM126.575 18.1339C126.123 18.1339 125.72 18.0554 125.366 17.8984C125.012 17.7384 124.732 17.503 124.526 17.1921C124.323 16.8782 124.221 16.4873 124.221 16.0195C124.221 15.6256 124.293 15.2947 124.438 15.027C124.583 14.7592 124.78 14.5438 125.029 14.3807C125.278 14.2176 125.561 14.0945 125.878 14.0114C126.198 13.9283 126.534 13.8698 126.885 13.8359C127.297 13.7929 127.629 13.7528 127.882 13.7159C128.134 13.6759 128.317 13.6174 128.431 13.5405C128.545 13.4635 128.602 13.3497 128.602 13.1989V13.1712C128.602 12.8788 128.51 12.6526 128.325 12.4925C128.143 12.3325 127.885 12.2525 127.549 12.2525C127.196 12.2525 126.914 12.331 126.705 12.4879C126.495 12.6418 126.357 12.8357 126.289 13.0696L124.47 12.9219C124.563 12.491 124.744 12.1186 125.015 11.8047C125.286 11.4877 125.635 11.2446 126.063 11.0753C126.494 10.9029 126.992 10.8168 127.559 10.8168C127.953 10.8168 128.33 10.8629 128.69 10.9553C129.053 11.0476 129.374 11.1907 129.655 11.3846C129.938 11.5785 130.161 11.8278 130.324 12.1325C130.487 12.4341 130.569 12.7957 130.569 13.2173V18H128.704V17.0167H128.648C128.534 17.2383 128.382 17.4337 128.191 17.603C128 17.7692 127.771 17.9 127.503 17.9954C127.236 18.0877 126.926 18.1339 126.575 18.1339ZM127.139 16.7766C127.428 16.7766 127.683 16.7197 127.905 16.6058C128.127 16.4889 128.3 16.3319 128.427 16.1349C128.553 15.938 128.616 15.7148 128.616 15.4656V14.7131C128.554 14.7531 128.47 14.79 128.362 14.8239C128.257 14.8546 128.139 14.8839 128.006 14.9116C127.874 14.9362 127.742 14.9593 127.609 14.9808C127.477 14.9993 127.357 15.0162 127.249 15.0316C127.019 15.0655 126.817 15.1193 126.645 15.1932C126.472 15.267 126.338 15.3671 126.243 15.4933C126.148 15.6164 126.1 15.7702 126.1 15.9549C126.1 16.2227 126.197 16.4273 126.391 16.5689C126.588 16.7074 126.837 16.7766 127.139 16.7766ZM134.707 18.1154C134.169 18.1154 133.681 17.9769 133.244 17.6999C132.81 17.4199 132.465 17.009 132.21 16.4673C131.957 15.9226 131.831 15.2547 131.831 14.4638C131.831 13.6513 131.962 12.9757 132.224 12.4371C132.485 11.8955 132.833 11.4908 133.267 11.223C133.704 10.9522 134.183 10.8168 134.703 10.8168C135.1 10.8168 135.431 10.8845 135.695 11.0199C135.963 11.1522 136.178 11.3184 136.342 11.5185C136.508 11.7154 136.634 11.9093 136.72 12.1001H136.78V8.54545H138.742V18H136.803V16.8643H136.72C136.628 17.0613 136.497 17.2567 136.328 17.4506C136.161 17.6415 135.945 17.8 135.677 17.9261C135.412 18.0523 135.089 18.1154 134.707 18.1154ZM135.331 16.5504C135.648 16.5504 135.915 16.4643 136.134 16.2919C136.355 16.1165 136.525 15.8718 136.642 15.5579C136.762 15.244 136.822 14.8762 136.822 14.4545C136.822 14.0329 136.763 13.6667 136.646 13.3558C136.529 13.045 136.36 12.8049 136.138 12.6357C135.917 12.4664 135.648 12.3817 135.331 12.3817C135.007 12.3817 134.735 12.4695 134.513 12.6449C134.292 12.8203 134.124 13.0634 134.01 13.3743C133.896 13.6851 133.839 14.0452 133.839 14.4545C133.839 14.867 133.896 15.2317 134.01 15.5487C134.127 15.8626 134.295 16.1088 134.513 16.2873C134.735 16.4627 135.007 16.5504 135.331 16.5504ZM149.084 13.2727C149.084 14.3037 148.889 15.1809 148.498 15.9041C148.11 16.6274 147.581 17.1798 146.91 17.5614C146.242 17.94 145.491 18.1293 144.657 18.1293C143.817 18.1293 143.063 17.9384 142.395 17.5568C141.727 17.1752 141.199 16.6228 140.811 15.8995C140.424 15.1763 140.23 14.3007 140.23 13.2727C140.23 12.2417 140.424 11.3646 140.811 10.6413C141.199 9.91809 141.727 9.36719 142.395 8.98864C143.063 8.60701 143.817 8.41619 144.657 8.41619C145.491 8.41619 146.242 8.60701 146.91 8.98864C147.581 9.36719 148.11 9.91809 148.498 10.6413C148.889 11.3646 149.084 12.2417 149.084 13.2727ZM147.058 13.2727C147.058 12.6049 146.958 12.0417 146.757 11.5831C146.56 11.1245 146.282 10.7768 145.922 10.5398C145.562 10.3028 145.14 10.1843 144.657 10.1843C144.174 10.1843 143.752 10.3028 143.392 10.5398C143.032 10.7768 142.752 11.1245 142.552 11.5831C142.355 12.0417 142.256 12.6049 142.256 13.2727C142.256 13.9406 142.355 14.5038 142.552 14.9624C142.752 15.4209 143.032 15.7687 143.392 16.0057C143.752 16.2427 144.174 16.3612 144.657 16.3612C145.14 16.3612 145.562 16.2427 145.922 16.0057C146.282 15.7687 146.56 15.4209 146.757 14.9624C146.958 14.5038 147.058 13.9406 147.058 13.2727ZM155.694 11.2646C155.657 10.8922 155.498 10.6029 155.218 10.3967C154.938 10.1905 154.558 10.0874 154.078 10.0874C153.752 10.0874 153.476 10.1335 153.252 10.2259C153.027 10.3151 152.855 10.4397 152.735 10.5998C152.618 10.7598 152.559 10.9414 152.559 11.1445C152.553 11.3138 152.588 11.4615 152.665 11.5877C152.745 11.7139 152.855 11.8232 152.993 11.9155C153.132 12.0047 153.292 12.0832 153.473 12.1509C153.655 12.2156 153.849 12.271 154.055 12.3171L154.904 12.5202C155.317 12.6126 155.695 12.7357 156.04 12.8896C156.385 13.0434 156.683 13.2327 156.936 13.4574C157.188 13.6821 157.383 13.9467 157.522 14.2514C157.664 14.5561 157.736 14.9054 157.739 15.2994C157.736 15.878 157.588 16.3796 157.296 16.8043C157.006 17.226 156.588 17.5537 156.04 17.7876C155.495 18.0185 154.838 18.1339 154.069 18.1339C153.306 18.1339 152.641 18.0169 152.074 17.783C151.511 17.5491 151.071 17.2029 150.754 16.7443C150.44 16.2827 150.276 15.7118 150.26 15.0316H152.195C152.216 15.3486 152.307 15.6133 152.467 15.8256C152.63 16.0349 152.847 16.1934 153.118 16.3011C153.392 16.4058 153.701 16.4581 154.046 16.4581C154.384 16.4581 154.678 16.4089 154.927 16.3104C155.18 16.2119 155.375 16.0749 155.514 15.8995C155.652 15.7241 155.722 15.5225 155.722 15.2947C155.722 15.0824 155.658 14.9039 155.532 14.7592C155.409 14.6146 155.228 14.4915 154.987 14.3899C154.751 14.2884 154.46 14.196 154.115 14.1129L153.085 13.8544C152.288 13.6605 151.659 13.3574 151.197 12.945C150.736 12.5326 150.506 11.977 150.509 11.2784C150.506 10.706 150.659 10.2058 150.967 9.77805C151.277 9.35026 151.704 9.01634 152.245 8.77628C152.787 8.53622 153.402 8.41619 154.092 8.41619C154.794 8.41619 155.406 8.53622 155.929 8.77628C156.456 9.01634 156.865 9.35026 157.157 9.77805C157.45 10.2058 157.6 10.7013 157.61 11.2646H155.694Z" fill="#FFFCFF"/>
<rect width="56" height="26" transform="translate(164)" fill="#8C67FF"/>
<path d="M169.785 18V10.9091H171.659V12.1602H171.742C171.89 11.7447 172.136 11.4169 172.481 11.1768C172.826 10.9368 173.238 10.8168 173.718 10.8168C174.204 10.8168 174.618 10.9383 174.96 11.1815C175.301 11.4215 175.529 11.7478 175.643 12.1602H175.717C175.862 11.7539 176.123 11.4292 176.502 11.1861C176.883 10.9399 177.334 10.8168 177.854 10.8168C178.516 10.8168 179.053 11.0276 179.466 11.4492C179.881 11.8678 180.089 12.4618 180.089 13.2312V18H178.127V13.619C178.127 13.225 178.022 12.9296 177.813 12.7326C177.604 12.5356 177.342 12.4371 177.028 12.4371C176.671 12.4371 176.393 12.551 176.192 12.7788C175.992 13.0034 175.892 13.3004 175.892 13.6697V18H173.986V13.5774C173.986 13.2296 173.886 12.9527 173.686 12.7464C173.489 12.5402 173.229 12.4371 172.906 12.4371C172.687 12.4371 172.49 12.4925 172.315 12.6033C172.142 12.7111 172.005 12.8634 171.904 13.0604C171.802 13.2543 171.751 13.482 171.751 13.7436V18H169.785ZM183.664 18.1339C183.212 18.1339 182.809 18.0554 182.455 17.8984C182.101 17.7384 181.821 17.503 181.615 17.1921C181.411 16.8782 181.31 16.4873 181.31 16.0195C181.31 15.6256 181.382 15.2947 181.527 15.027C181.671 14.7592 181.868 14.5438 182.118 14.3807C182.367 14.2176 182.65 14.0945 182.967 14.0114C183.287 13.9283 183.623 13.8698 183.974 13.8359C184.386 13.7929 184.718 13.7528 184.971 13.7159C185.223 13.6759 185.406 13.6174 185.52 13.5405C185.634 13.4635 185.691 13.3497 185.691 13.1989V13.1712C185.691 12.8788 185.599 12.6526 185.414 12.4925C185.232 12.3325 184.974 12.2525 184.638 12.2525C184.284 12.2525 184.003 12.331 183.794 12.4879C183.584 12.6418 183.446 12.8357 183.378 13.0696L181.559 12.9219C181.651 12.491 181.833 12.1186 182.104 11.8047C182.375 11.4877 182.724 11.2446 183.152 11.0753C183.583 10.9029 184.081 10.8168 184.648 10.8168C185.041 10.8168 185.419 10.8629 185.779 10.9553C186.142 11.0476 186.463 11.1907 186.743 11.3846C187.027 11.5785 187.25 11.8278 187.413 12.1325C187.576 12.4341 187.657 12.7957 187.657 13.2173V18H185.792V17.0167H185.737C185.623 17.2383 185.471 17.4337 185.28 17.603C185.089 17.7692 184.86 17.9 184.592 17.9954C184.324 18.0877 184.015 18.1339 183.664 18.1339ZM184.227 16.7766C184.517 16.7766 184.772 16.7197 184.994 16.6058C185.215 16.4889 185.389 16.3319 185.515 16.1349C185.642 15.938 185.705 15.7148 185.705 15.4656V14.7131C185.643 14.7531 185.559 14.79 185.451 14.8239C185.346 14.8546 185.228 14.8839 185.095 14.9116C184.963 14.9362 184.831 14.9593 184.698 14.9808C184.566 14.9993 184.446 15.0162 184.338 15.0316C184.107 15.0655 183.906 15.1193 183.733 15.1932C183.561 15.267 183.427 15.3671 183.332 15.4933C183.236 15.6164 183.189 15.7702 183.189 15.9549C183.189 16.2227 183.286 16.4273 183.48 16.5689C183.677 16.7074 183.926 16.7766 184.227 16.7766ZM192.387 18.1385C191.661 18.1385 191.036 17.9846 190.513 17.6768C189.993 17.366 189.593 16.9351 189.312 16.3842C189.036 15.8333 188.897 15.1993 188.897 14.4822C188.897 13.7559 189.037 13.1188 189.317 12.571C189.6 12.0201 190.002 11.5908 190.522 11.283C191.042 10.9722 191.661 10.8168 192.378 10.8168C192.996 10.8168 193.538 10.9291 194.003 11.1538C194.468 11.3784 194.835 11.6939 195.106 12.1001C195.377 12.5064 195.526 12.9834 195.554 13.5312H193.698C193.646 13.1773 193.507 12.8926 193.283 12.6772C193.061 12.4587 192.77 12.3494 192.41 12.3494C192.105 12.3494 191.839 12.4325 191.612 12.5987C191.387 12.7618 191.211 13.0004 191.085 13.3143C190.959 13.6282 190.896 14.0083 190.896 14.4545C190.896 14.907 190.958 15.2917 191.081 15.6087C191.207 15.9257 191.384 16.1673 191.612 16.3335C191.839 16.4996 192.105 16.5827 192.41 16.5827C192.635 16.5827 192.836 16.5366 193.015 16.4442C193.196 16.3519 193.346 16.218 193.463 16.0426C193.583 15.8641 193.661 15.6502 193.698 15.4009H195.554C195.523 15.9426 195.375 16.4196 195.111 16.832C194.849 17.2414 194.488 17.5614 194.026 17.7923C193.564 18.0231 193.018 18.1385 192.387 18.1385ZM205.538 13.2727C205.538 14.3037 205.343 15.1809 204.952 15.9041C204.564 16.6274 204.035 17.1798 203.364 17.5614C202.696 17.94 201.945 18.1293 201.111 18.1293C200.271 18.1293 199.517 17.9384 198.849 17.5568C198.181 17.1752 197.653 16.6228 197.266 15.8995C196.878 15.1763 196.684 14.3007 196.684 13.2727C196.684 12.2417 196.878 11.3646 197.266 10.6413C197.653 9.91809 198.181 9.36719 198.849 8.98864C199.517 8.60701 200.271 8.41619 201.111 8.41619C201.945 8.41619 202.696 8.60701 203.364 8.98864C204.035 9.36719 204.564 9.91809 204.952 10.6413C205.343 11.3646 205.538 12.2417 205.538 13.2727ZM203.512 13.2727C203.512 12.6049 203.412 12.0417 203.212 11.5831C203.015 11.1245 202.736 10.7768 202.376 10.5398C202.016 10.3028 201.594 10.1843 201.111 10.1843C200.628 10.1843 200.206 10.3028 199.846 10.5398C199.486 10.7768 199.206 11.1245 199.006 11.5831C198.809 12.0417 198.71 12.6049 198.71 13.2727C198.71 13.9406 198.809 14.5038 199.006 14.9624C199.206 15.4209 199.486 15.7687 199.846 16.0057C200.206 16.2427 200.628 16.3612 201.111 16.3612C201.594 16.3612 202.016 16.2427 202.376 16.0057C202.736 15.7687 203.015 15.4209 203.212 14.9624C203.412 14.5038 203.512 13.9406 203.512 13.2727ZM212.148 11.2646C212.111 10.8922 211.952 10.6029 211.672 10.3967C211.392 10.1905 211.012 10.0874 210.532 10.0874C210.206 10.0874 209.93 10.1335 209.706 10.2259C209.481 10.3151 209.309 10.4397 209.189 10.5998C209.072 10.7598 209.013 10.9414 209.013 11.1445C209.007 11.3138 209.043 11.4615 209.119 11.5877C209.2 11.7139 209.309 11.8232 209.447 11.9155C209.586 12.0047 209.746 12.0832 209.927 12.1509C210.109 12.2156 210.303 12.271 210.509 12.3171L211.358 12.5202C211.771 12.6126 212.149 12.7357 212.494 12.8896C212.839 13.0434 213.137 13.2327 213.39 13.4574C213.642 13.6821 213.838 13.9467 213.976 14.2514C214.118 14.5561 214.19 14.9054 214.193 15.2994C214.19 15.878 214.042 16.3796 213.75 16.8043C213.461 17.226 213.042 17.5537 212.494 17.7876C211.949 18.0185 211.292 18.1339 210.523 18.1339C209.76 18.1339 209.095 18.0169 208.529 17.783C207.965 17.5491 207.525 17.2029 207.208 16.7443C206.894 16.2827 206.73 15.7118 206.714 15.0316H208.649C208.67 15.3486 208.761 15.6133 208.921 15.8256C209.084 16.0349 209.301 16.1934 209.572 16.3011C209.846 16.4058 210.155 16.4581 210.5 16.4581C210.838 16.4581 211.132 16.4089 211.382 16.3104C211.634 16.2119 211.829 16.0749 211.968 15.8995C212.106 15.7241 212.176 15.5225 212.176 15.2947C212.176 15.0824 212.113 14.9039 211.986 14.7592C211.863 14.6146 211.682 14.4915 211.442 14.3899C211.205 14.2884 210.914 14.196 210.569 14.1129L209.54 13.8544C208.742 13.6605 208.113 13.3574 207.651 12.945C207.19 12.5326 206.961 11.977 206.964 11.2784C206.961 10.706 207.113 10.2058 207.421 9.77805C207.731 9.35026 208.158 9.01634 208.699 8.77628C209.241 8.53622 209.857 8.41619 210.546 8.41619C211.248 8.41619 211.86 8.53622 212.383 8.77628C212.91 9.01634 213.319 9.35026 213.611 9.77805C213.904 10.2058 214.055 10.7013 214.064 11.2646H212.148Z" fill="#FFFCFF"/>
<path d="M220 0H250C255.657 0 258.485 0 260.243 1.75736C262 3.51472 262 6.34315 262 12V14C262 19.6569 262 22.4853 260.243 24.2426C258.485 26 255.657 26 250 26H220V0Z" fill="#B686FF"/>
<path d="M229.556 10.9091V12.3864H225.286V10.9091H229.556ZM226.256 9.21023H228.222V15.821C228.222 16.0026 228.25 16.1442 228.305 16.2457C228.361 16.3442 228.438 16.4135 228.536 16.4535C228.638 16.4935 228.755 16.5135 228.887 16.5135C228.979 16.5135 229.072 16.5058 229.164 16.4904C229.256 16.4719 229.327 16.4581 229.376 16.4489L229.686 17.9123C229.587 17.9431 229.449 17.9785 229.27 18.0185C229.092 18.0616 228.875 18.0877 228.619 18.0969C228.145 18.1154 227.73 18.0523 227.373 17.9077C227.019 17.763 226.743 17.5384 226.547 17.2337C226.35 16.929 226.253 16.5443 226.256 16.0795V9.21023ZM237.448 10.9091L234.969 18H232.753L230.274 10.9091H232.352L233.824 15.9826H233.898L235.366 10.9091H237.448ZM247.18 13.2727C247.18 14.3037 246.984 15.1809 246.594 15.9041C246.206 16.6274 245.676 17.1798 245.006 17.5614C244.338 17.94 243.587 18.1293 242.753 18.1293C241.912 18.1293 241.158 17.9384 240.491 17.5568C239.823 17.1752 239.295 16.6228 238.907 15.8995C238.519 15.1763 238.325 14.3007 238.325 13.2727C238.325 12.2417 238.519 11.3646 238.907 10.6413C239.295 9.91809 239.823 9.36719 240.491 8.98864C241.158 8.60701 241.912 8.41619 242.753 8.41619C243.587 8.41619 244.338 8.60701 245.006 8.98864C245.676 9.36719 246.206 9.91809 246.594 10.6413C246.984 11.3646 247.18 12.2417 247.18 13.2727ZM245.153 13.2727C245.153 12.6049 245.053 12.0417 244.853 11.5831C244.656 11.1245 244.378 10.7768 244.018 10.5398C243.657 10.3028 243.236 10.1843 242.753 10.1843C242.269 10.1843 241.848 10.3028 241.488 10.5398C241.128 10.7768 240.848 11.1245 240.648 11.5831C240.451 12.0417 240.352 12.6049 240.352 13.2727C240.352 13.9406 240.451 14.5038 240.648 14.9624C240.848 15.4209 241.128 15.7687 241.488 16.0057C241.848 16.2427 242.269 16.3612 242.753 16.3612C243.236 16.3612 243.657 16.2427 244.018 16.0057C244.378 15.7687 244.656 15.4209 244.853 14.9624C245.053 14.5038 245.153 13.9406 245.153 13.2727ZM253.79 11.2646C253.753 10.8922 253.594 10.6029 253.314 10.3967C253.034 10.1905 252.654 10.0874 252.174 10.0874C251.848 10.0874 251.572 10.1335 251.347 10.2259C251.123 10.3151 250.95 10.4397 250.83 10.5998C250.713 10.7598 250.655 10.9414 250.655 11.1445C250.649 11.3138 250.684 11.4615 250.761 11.5877C250.841 11.7139 250.95 11.8232 251.089 11.9155C251.227 12.0047 251.387 12.0832 251.569 12.1509C251.751 12.2156 251.944 12.271 252.151 12.3171L253 12.5202C253.412 12.6126 253.791 12.7357 254.136 12.8896C254.48 13.0434 254.779 13.2327 255.031 13.4574C255.284 13.6821 255.479 13.9467 255.618 14.2514C255.759 14.5561 255.832 14.9054 255.835 15.2994C255.832 15.878 255.684 16.3796 255.391 16.8043C255.102 17.226 254.684 17.5537 254.136 17.7876C253.591 18.0185 252.934 18.1339 252.165 18.1339C251.401 18.1339 250.736 18.0169 250.17 17.783C249.607 17.5491 249.167 17.2029 248.85 16.7443C248.536 16.2827 248.371 15.7118 248.356 15.0316H250.29C250.312 15.3486 250.403 15.6133 250.563 15.8256C250.726 16.0349 250.943 16.1934 251.214 16.3011C251.487 16.4058 251.797 16.4581 252.141 16.4581C252.48 16.4581 252.774 16.4089 253.023 16.3104C253.276 16.2119 253.471 16.0749 253.609 15.8995C253.748 15.7241 253.817 15.5225 253.817 15.2947C253.817 15.0824 253.754 14.9039 253.628 14.7592C253.505 14.6146 253.323 14.4915 253.083 14.3899C252.846 14.2884 252.555 14.196 252.211 14.1129L251.181 13.8544C250.384 13.6605 249.755 13.3574 249.293 12.945C248.831 12.5326 248.602 11.977 248.605 11.2784C248.602 10.706 248.754 10.2058 249.062 9.77805C249.373 9.35026 249.799 9.01634 250.341 8.77628C250.883 8.53622 251.498 8.41619 252.188 8.41619C252.889 8.41619 253.502 8.53622 254.025 8.77628C254.551 9.01634 254.961 9.35026 255.253 9.77805C255.545 10.2058 255.696 10.7013 255.705 11.2646H253.79Z" fill="#FFFCFF"/>
</svg>
