<svg width="399" height="26" viewBox="0 0 399 26" fill="none" xmlns="http://www.w3.org/2000/svg">
<path d="M1.25 12C1.25 6.34315 1.25 3.51472 3.00736 1.75736C4.76472 0 7.59315 0 13.25 0H73.25V26H13.25C7.59315 26 4.76472 26 3.00736 24.2426C1.25 22.4853 1.25 19.6569 1.25 14V12Z" fill="#3F3F3F"/>
<path d="M7.07173 18V8.54545H10.8018C11.5189 8.54545 12.1299 8.68241 12.6346 8.95632C13.1393 9.22715 13.524 9.60417 13.7887 10.0874C14.0565 10.5675 14.1903 11.1214 14.1903 11.7493C14.1903 12.3771 14.0549 12.9311 13.7841 13.4112C13.5133 13.8913 13.1209 14.2653 12.6069 14.533C12.096 14.8008 11.4774 14.9347 10.7511 14.9347H8.37358V13.3327H10.4279C10.8126 13.3327 11.1296 13.2666 11.3789 13.1342C11.6313 12.9988 11.819 12.8126 11.9421 12.5756C12.0683 12.3356 12.1314 12.0601 12.1314 11.7493C12.1314 11.4354 12.0683 11.1615 11.9421 10.9276C11.819 10.6906 11.6313 10.5075 11.3789 10.3782C11.1265 10.2459 10.8065 10.1797 10.4187 10.1797H9.07067V18H7.07173ZM17.4184 8.54545V18H15.4518V8.54545H17.4184ZM21.0158 18.1339C20.5634 18.1339 20.1602 18.0554 19.8063 17.8984C19.4524 17.7384 19.1723 17.503 18.9661 17.1921C18.763 16.8782 18.6614 16.4873 18.6614 16.0195C18.6614 15.6256 18.7337 15.2947 18.8784 15.027C19.023 14.7592 19.22 14.5438 19.4693 14.3807C19.7186 14.2176 20.0017 14.0945 20.3187 14.0114C20.6388 13.9283 20.9743 13.8698 21.3251 13.8359C21.7375 13.7929 22.0699 13.7528 22.3223 13.7159C22.5746 13.6759 22.7578 13.6174 22.8716 13.5405C22.9855 13.4635 23.0424 13.3497 23.0424 13.1989V13.1712C23.0424 12.8788 22.9501 12.6526 22.7654 12.4925C22.5839 12.3325 22.3253 12.2525 21.9899 12.2525C21.6359 12.2525 21.3543 12.331 21.1451 12.4879C20.9358 12.6418 20.7973 12.8357 20.7296 13.0696L18.9107 12.9219C19.003 12.491 19.1846 12.1186 19.4554 11.8047C19.7263 11.4877 20.0756 11.2446 20.5034 11.0753C20.9342 10.9029 21.4328 10.8168 21.9991 10.8168C22.3931 10.8168 22.7701 10.8629 23.1301 10.9553C23.4933 11.0476 23.8149 11.1907 24.095 11.3846C24.3781 11.5785 24.6013 11.8278 24.7644 12.1325C24.9275 12.4341 25.0091 12.7957 25.0091 13.2173V18H23.144V17.0167H23.0886C22.9747 17.2383 22.8224 17.4337 22.6316 17.603C22.4408 17.7692 22.2115 17.9 21.9437 17.9954C21.676 18.0877 21.3667 18.1339 21.0158 18.1339ZM21.579 16.7766C21.8683 16.7766 22.1238 16.7197 22.3453 16.6058C22.5669 16.4889 22.7408 16.3319 22.867 16.1349C22.9932 15.938 23.0563 15.7148 23.0563 15.4656V14.7131C22.9947 14.7531 22.9101 14.79 22.8024 14.8239C22.6977 14.8546 22.5792 14.8839 22.4469 14.9116C22.3146 14.9362 22.1822 14.9593 22.0499 14.9808C21.9176 14.9993 21.7975 15.0162 21.6898 15.0316C21.459 15.0655 21.2574 15.1193 21.085 15.1932C20.9127 15.267 20.7788 15.3671 20.6834 15.4933C20.588 15.6164 20.5403 15.7702 20.5403 15.9549C20.5403 16.2227 20.6373 16.4273 20.8311 16.5689C21.0281 16.7074 21.2774 16.7766 21.579 16.7766ZM30.3065 10.9091V12.3864H26.0362V10.9091H30.3065ZM27.0057 9.21023H28.9723V15.821C28.9723 16.0026 29 16.1442 29.0554 16.2457C29.1108 16.3442 29.1877 16.4135 29.2862 16.4535C29.3878 16.4935 29.5047 16.5135 29.6371 16.5135C29.7294 16.5135 29.8217 16.5058 29.9141 16.4904C30.0064 16.4719 30.0772 16.4581 30.1264 16.4489L30.4357 17.9123C30.3372 17.9431 30.1987 17.9785 30.0202 18.0185C29.8417 18.0616 29.6248 18.0877 29.3693 18.0969C28.8954 18.1154 28.4799 18.0523 28.1229 17.9077C27.7689 17.763 27.4935 17.5384 27.2965 17.2337C27.0996 16.929 27.0026 16.5443 27.0057 16.0795V9.21023ZM35.4007 10.9091V12.3864H31.0243V10.9091H35.4007ZM32.0261 18V10.3967C32.0261 9.88269 32.1261 9.45644 32.3262 9.1179C32.5293 8.77936 32.8063 8.52545 33.1571 8.35618C33.508 8.18691 33.9065 8.10227 34.3528 8.10227C34.6544 8.10227 34.9299 8.12535 35.1792 8.17152C35.4315 8.21768 35.6193 8.25923 35.7424 8.29616L35.3915 9.77344C35.3146 9.74882 35.2192 9.72573 35.1053 9.70419C34.9945 9.68265 34.8806 9.67188 34.7637 9.67188C34.4744 9.67188 34.2728 9.73958 34.1589 9.875C34.045 10.0073 33.9881 10.1935 33.9881 10.4336V18H32.0261ZM39.5521 18.1385C38.835 18.1385 38.2149 17.9862 37.6917 17.6815C37.1715 17.3737 36.7699 16.9459 36.4868 16.3981C36.2036 15.8472 36.0621 15.2086 36.0621 14.4822C36.0621 13.7498 36.2036 13.1096 36.4868 12.5618C36.7699 12.0109 37.1715 11.5831 37.6917 11.2784C38.2149 10.9706 38.835 10.8168 39.5521 10.8168C40.2692 10.8168 40.8878 10.9706 41.4079 11.2784C41.9311 11.5831 42.3343 12.0109 42.6175 12.5618C42.9006 13.1096 43.0422 13.7498 43.0422 14.4822C43.0422 15.2086 42.9006 15.8472 42.6175 16.3981C42.3343 16.9459 41.9311 17.3737 41.4079 17.6815C40.8878 17.9862 40.2692 18.1385 39.5521 18.1385ZM39.5613 16.6151C39.8876 16.6151 40.1599 16.5227 40.3785 16.3381C40.597 16.1503 40.7616 15.8949 40.8724 15.5717C40.9863 15.2486 41.0432 14.8808 41.0432 14.4684C41.0432 14.056 40.9863 13.6882 40.8724 13.3651C40.7616 13.0419 40.597 12.7865 40.3785 12.5987C40.1599 12.411 39.8876 12.3171 39.5613 12.3171C39.232 12.3171 38.955 12.411 38.7304 12.5987C38.5088 12.7865 38.3411 13.0419 38.2272 13.3651C38.1164 13.6882 38.061 14.056 38.061 14.4684C38.061 14.8808 38.1164 15.2486 38.2272 15.5717C38.3411 15.8949 38.5088 16.1503 38.7304 16.3381C38.955 16.5227 39.232 16.6151 39.5613 16.6151ZM44.3209 18V10.9091H46.2275V12.1463H46.3014C46.4307 11.7062 46.6476 11.3738 46.9523 11.1491C47.257 10.9214 47.6079 10.8075 48.0049 10.8075C48.1034 10.8075 48.2095 10.8137 48.3234 10.826C48.4373 10.8383 48.5373 10.8552 48.6235 10.8768V12.6218C48.5312 12.5941 48.4034 12.5695 48.2403 12.5479C48.0772 12.5264 47.9279 12.5156 47.7925 12.5156C47.5032 12.5156 47.2447 12.5787 47.017 12.7049C46.7923 12.828 46.6138 13.0004 46.4814 13.2219C46.3522 13.4435 46.2876 13.699 46.2876 13.9883V18H44.3209ZM49.6403 18V10.9091H51.5146V12.1602H51.5977C51.7454 11.7447 51.9916 11.4169 52.3363 11.1768C52.681 10.9368 53.0934 10.8168 53.5735 10.8168C54.0598 10.8168 54.4737 10.9383 54.8153 11.1815C55.157 11.4215 55.3847 11.7478 55.4986 12.1602H55.5724C55.7171 11.7539 55.9787 11.4292 56.3572 11.1861C56.7389 10.9399 57.1897 10.8168 57.7099 10.8168C58.3716 10.8168 58.9086 11.0276 59.321 11.4492C59.7365 11.8678 59.9442 12.4618 59.9442 13.2312V18H57.9822V13.619C57.9822 13.225 57.8776 12.9296 57.6683 12.7326C57.459 12.5356 57.1974 12.4371 56.8835 12.4371C56.5265 12.4371 56.248 12.551 56.0479 12.7788C55.8479 13.0034 55.7479 13.3004 55.7479 13.6697V18H53.8413V13.5774C53.8413 13.2296 53.7412 12.9527 53.5412 12.7464C53.3442 12.5402 53.0842 12.4371 52.761 12.4371C52.5425 12.4371 52.3455 12.4925 52.1701 12.6033C51.9978 12.7111 51.8608 12.8634 51.7592 13.0604C51.6577 13.2543 51.6069 13.482 51.6069 13.7436V18H49.6403ZM67.3975 12.9311L65.5971 13.0419C65.5663 12.888 65.5002 12.7495 65.3986 12.6264C65.2971 12.5002 65.1632 12.4002 64.997 12.3263C64.8339 12.2494 64.6384 12.2109 64.4107 12.2109C64.106 12.2109 63.849 12.2756 63.6397 12.4048C63.4305 12.531 63.3258 12.7003 63.3258 12.9126C63.3258 13.0819 63.3935 13.225 63.5289 13.342C63.6644 13.4589 63.8967 13.5528 64.226 13.6236L65.5094 13.8821C66.1988 14.0237 66.7128 14.2514 67.0513 14.5653C67.3899 14.8793 67.5591 15.2917 67.5591 15.8026C67.5591 16.2673 67.4222 16.6751 67.1483 17.0259C66.8774 17.3768 66.505 17.6507 66.0311 17.8477C65.5602 18.0415 65.017 18.1385 64.4015 18.1385C63.4628 18.1385 62.7149 17.9431 62.1578 17.5522C61.6039 17.1583 61.2792 16.6228 61.1838 15.9457L63.1181 15.8441C63.1766 16.1303 63.3181 16.3488 63.5428 16.4996C63.7675 16.6474 64.0552 16.7212 64.4061 16.7212C64.7508 16.7212 65.0278 16.6551 65.237 16.5227C65.4494 16.3873 65.5571 16.2134 65.5602 16.0011C65.5571 15.8226 65.4817 15.6764 65.334 15.5625C65.1863 15.4455 64.9585 15.3563 64.6507 15.2947L63.4228 15.0501C62.7303 14.9116 62.2148 14.6715 61.8762 14.3299C61.5408 13.9883 61.373 13.5528 61.373 13.0234C61.373 12.5679 61.4962 12.1755 61.7424 11.8462C61.9917 11.5169 62.341 11.263 62.7903 11.0845C63.2427 10.906 63.7721 10.8168 64.3784 10.8168C65.274 10.8168 65.9788 11.006 66.4927 11.3846C67.0098 11.7631 67.3114 12.2786 67.3975 12.9311Z" fill="white"/>
<rect width="33" height="26" transform="translate(73.25)" fill="#533DA4"/>
<path d="M79.0348 18V10.9091H81.0014V18H79.0348ZM80.0227 9.99503C79.7304 9.99503 79.4795 9.89808 79.2702 9.70419C79.064 9.50722 78.9609 9.27178 78.9609 8.99787C78.9609 8.72704 79.064 8.49467 79.2702 8.30078C79.4795 8.10381 79.7304 8.00533 80.0227 8.00533C80.3151 8.00533 80.5644 8.10381 80.7706 8.30078C80.9799 8.49467 81.0845 8.72704 81.0845 8.99787C81.0845 9.27178 80.9799 9.50722 80.7706 9.70419C80.5644 9.89808 80.3151 9.99503 80.0227 9.99503ZM91.3019 13.2727C91.3019 14.3037 91.1065 15.1809 90.7156 15.9041C90.3279 16.6274 89.7985 17.1798 89.1276 17.5614C88.4597 17.94 87.7088 18.1293 86.8747 18.1293C86.0345 18.1293 85.2805 17.9384 84.6127 17.5568C83.9448 17.1752 83.417 16.6228 83.0292 15.8995C82.6414 15.1763 82.4475 14.3007 82.4475 13.2727C82.4475 12.2417 82.6414 11.3646 83.0292 10.6413C83.417 9.91809 83.9448 9.36719 84.6127 8.98864C85.2805 8.60701 86.0345 8.41619 86.8747 8.41619C87.7088 8.41619 88.4597 8.60701 89.1276 8.98864C89.7985 9.36719 90.3279 9.91809 90.7156 10.6413C91.1065 11.3646 91.3019 12.2417 91.3019 13.2727ZM89.2753 13.2727C89.2753 12.6049 89.1753 12.0417 88.9752 11.5831C88.7783 11.1245 88.4997 10.7768 88.1396 10.5398C87.7796 10.3028 87.3579 10.1843 86.8747 10.1843C86.3915 10.1843 85.9699 10.3028 85.6098 10.5398C85.2497 10.7768 84.9697 11.1245 84.7696 11.5831C84.5727 12.0417 84.4742 12.6049 84.4742 13.2727C84.4742 13.9406 84.5727 14.5038 84.7696 14.9624C84.9697 15.4209 85.2497 15.7687 85.6098 16.0057C85.9699 16.2427 86.3915 16.3612 86.8747 16.3612C87.3579 16.3612 87.7796 16.2427 88.1396 16.0057C88.4997 15.7687 88.7783 15.4209 88.9752 14.9624C89.1753 14.5038 89.2753 13.9406 89.2753 13.2727ZM97.9116 11.2646C97.8746 10.8922 97.7161 10.6029 97.4361 10.3967C97.156 10.1905 96.7759 10.0874 96.2958 10.0874C95.9696 10.0874 95.6941 10.1335 95.4695 10.2259C95.2448 10.3151 95.0724 10.4397 94.9524 10.5998C94.8355 10.7598 94.777 10.9414 94.777 11.1445C94.7708 11.3138 94.8062 11.4615 94.8832 11.5877C94.9632 11.7139 95.0724 11.8232 95.2109 11.9155C95.3494 12.0047 95.5095 12.0832 95.6911 12.1509C95.8726 12.2156 96.0665 12.271 96.2727 12.3171L97.1222 12.5202C97.5346 12.6126 97.9131 12.7357 98.2578 12.8896C98.6025 13.0434 98.901 13.2327 99.1534 13.4574C99.4058 13.6821 99.6012 13.9467 99.7397 14.2514C99.8813 14.5561 99.9536 14.9054 99.9567 15.2994C99.9536 15.878 99.8059 16.3796 99.5135 16.8043C99.2242 17.226 98.8056 17.5537 98.2578 17.7876C97.7131 18.0185 97.056 18.1339 96.2866 18.1339C95.5233 18.1339 94.8585 18.0169 94.2923 17.783C93.729 17.5491 93.2889 17.2029 92.9719 16.7443C92.658 16.2827 92.4934 15.7118 92.478 15.0316H94.4123C94.4338 15.3486 94.5246 15.6133 94.6847 15.8256C94.8478 16.0349 95.0647 16.1934 95.3356 16.3011C95.6095 16.4058 95.9188 16.4581 96.2635 16.4581C96.602 16.4581 96.896 16.4089 97.1452 16.3104C97.3976 16.2119 97.593 16.0749 97.7315 15.8995C97.87 15.7241 97.9393 15.5225 97.9393 15.2947C97.9393 15.0824 97.8762 14.9039 97.75 14.7592C97.6269 14.6146 97.4453 14.4915 97.2053 14.3899C96.9683 14.2884 96.6774 14.196 96.3327 14.1129L95.3033 13.8544C94.5062 13.6605 93.8768 13.3574 93.4151 12.945C92.9535 12.5326 92.7242 11.977 92.7273 11.2784C92.7242 10.706 92.8765 10.2058 93.1843 9.77805C93.4951 9.35026 93.9214 9.01634 94.4631 8.77628C95.0047 8.53622 95.6203 8.41619 96.3097 8.41619C97.0114 8.41619 97.6238 8.53622 98.147 8.77628C98.6733 9.01634 99.0826 9.35026 99.375 9.77805C99.6674 10.2058 99.8182 10.7013 99.8274 11.2646H97.9116Z" fill="white"/>
<rect width="57" height="26" transform="translate(106.25)" fill="#664BB6"/>
<path d="M112.035 18V10.9091H114.001V18H112.035ZM113.023 9.99503C112.73 9.99503 112.48 9.89808 112.27 9.70419C112.064 9.50722 111.961 9.27178 111.961 8.99787C111.961 8.72704 112.064 8.49467 112.27 8.30078C112.48 8.10381 112.73 8.00533 113.023 8.00533C113.315 8.00533 113.564 8.10381 113.771 8.30078C113.98 8.49467 114.085 8.72704 114.085 8.99787C114.085 9.27178 113.98 9.50722 113.771 9.70419C113.564 9.89808 113.315 9.99503 113.023 9.99503ZM115.614 18V8.54545H119.344C120.061 8.54545 120.672 8.68241 121.177 8.95632C121.681 9.22715 122.066 9.60417 122.331 10.0874C122.598 10.5675 122.732 11.1214 122.732 11.7493C122.732 12.3771 122.597 12.9311 122.326 13.4112C122.055 13.8913 121.663 14.2653 121.149 14.533C120.638 14.8008 120.019 14.9347 119.293 14.9347H116.916V13.3327H118.97C119.355 13.3327 119.672 13.2666 119.921 13.1342C120.173 12.9988 120.361 12.8126 120.484 12.5756C120.61 12.3356 120.673 12.0601 120.673 11.7493C120.673 11.4354 120.61 11.1615 120.484 10.9276C120.361 10.6906 120.173 10.5075 119.921 10.3782C119.669 10.2459 119.348 10.1797 118.961 10.1797H117.613V18H115.614ZM125.825 18.1339C125.373 18.1339 124.97 18.0554 124.616 17.8984C124.262 17.7384 123.982 17.503 123.776 17.1921C123.573 16.8782 123.471 16.4873 123.471 16.0195C123.471 15.6256 123.543 15.2947 123.688 15.027C123.833 14.7592 124.03 14.5438 124.279 14.3807C124.528 14.2176 124.811 14.0945 125.128 14.0114C125.448 13.9283 125.784 13.8698 126.135 13.8359C126.547 13.7929 126.879 13.7528 127.132 13.7159C127.384 13.6759 127.567 13.6174 127.681 13.5405C127.795 13.4635 127.852 13.3497 127.852 13.1989V13.1712C127.852 12.8788 127.76 12.6526 127.575 12.4925C127.393 12.3325 127.135 12.2525 126.799 12.2525C126.446 12.2525 126.164 12.331 125.955 12.4879C125.745 12.6418 125.607 12.8357 125.539 13.0696L123.72 12.9219C123.813 12.491 123.994 12.1186 124.265 11.8047C124.536 11.4877 124.885 11.2446 125.313 11.0753C125.744 10.9029 126.242 10.8168 126.809 10.8168C127.203 10.8168 127.58 10.8629 127.94 10.9553C128.303 11.0476 128.624 11.1907 128.905 11.3846C129.188 11.5785 129.411 11.8278 129.574 12.1325C129.737 12.4341 129.819 12.7957 129.819 13.2173V18H127.954V17.0167H127.898C127.784 17.2383 127.632 17.4337 127.441 17.603C127.25 17.7692 127.021 17.9 126.753 17.9954C126.486 18.0877 126.176 18.1339 125.825 18.1339ZM126.389 16.7766C126.678 16.7766 126.933 16.7197 127.155 16.6058C127.377 16.4889 127.55 16.3319 127.677 16.1349C127.803 15.938 127.866 15.7148 127.866 15.4656V14.7131C127.804 14.7531 127.72 14.79 127.612 14.8239C127.507 14.8546 127.389 14.8839 127.256 14.9116C127.124 14.9362 126.992 14.9593 126.859 14.9808C126.727 14.9993 126.607 15.0162 126.499 15.0316C126.269 15.0655 126.067 15.1193 125.895 15.1932C125.722 15.267 125.588 15.3671 125.493 15.4933C125.398 15.6164 125.35 15.7702 125.35 15.9549C125.35 16.2227 125.447 16.4273 125.641 16.5689C125.838 16.7074 126.087 16.7766 126.389 16.7766ZM133.957 18.1154C133.419 18.1154 132.931 17.9769 132.494 17.6999C132.06 17.4199 131.715 17.009 131.46 16.4673C131.207 15.9226 131.081 15.2547 131.081 14.4638C131.081 13.6513 131.212 12.9757 131.474 12.4371C131.735 11.8955 132.083 11.4908 132.517 11.223C132.954 10.9522 133.433 10.8168 133.953 10.8168C134.35 10.8168 134.681 10.8845 134.945 11.0199C135.213 11.1522 135.428 11.3184 135.592 11.5185C135.758 11.7154 135.884 11.9093 135.97 12.1001H136.03V8.54545H137.992V18H136.053V16.8643H135.97C135.878 17.0613 135.747 17.2567 135.578 17.4506C135.411 17.6415 135.195 17.8 134.927 17.9261C134.662 18.0523 134.339 18.1154 133.957 18.1154ZM134.581 16.5504C134.898 16.5504 135.165 16.4643 135.384 16.2919C135.605 16.1165 135.775 15.8718 135.892 15.5579C136.012 15.244 136.072 14.8762 136.072 14.4545C136.072 14.0329 136.013 13.6667 135.896 13.3558C135.779 13.045 135.61 12.8049 135.388 12.6357C135.167 12.4664 134.898 12.3817 134.581 12.3817C134.257 12.3817 133.985 12.4695 133.763 12.6449C133.542 12.8203 133.374 13.0634 133.26 13.3743C133.146 13.6851 133.089 14.0452 133.089 14.4545C133.089 14.867 133.146 15.2317 133.26 15.5487C133.377 15.8626 133.545 16.1088 133.763 16.2873C133.985 16.4627 134.257 16.5504 134.581 16.5504ZM148.334 13.2727C148.334 14.3037 148.139 15.1809 147.748 15.9041C147.36 16.6274 146.831 17.1798 146.16 17.5614C145.492 17.94 144.741 18.1293 143.907 18.1293C143.067 18.1293 142.313 17.9384 141.645 17.5568C140.977 17.1752 140.449 16.6228 140.061 15.8995C139.674 15.1763 139.48 14.3007 139.48 13.2727C139.48 12.2417 139.674 11.3646 140.061 10.6413C140.449 9.91809 140.977 9.36719 141.645 8.98864C142.313 8.60701 143.067 8.41619 143.907 8.41619C144.741 8.41619 145.492 8.60701 146.16 8.98864C146.831 9.36719 147.36 9.91809 147.748 10.6413C148.139 11.3646 148.334 12.2417 148.334 13.2727ZM146.308 13.2727C146.308 12.6049 146.208 12.0417 146.007 11.5831C145.81 11.1245 145.532 10.7768 145.172 10.5398C144.812 10.3028 144.39 10.1843 143.907 10.1843C143.424 10.1843 143.002 10.3028 142.642 10.5398C142.282 10.7768 142.002 11.1245 141.802 11.5831C141.605 12.0417 141.506 12.6049 141.506 13.2727C141.506 13.9406 141.605 14.5038 141.802 14.9624C142.002 15.4209 142.282 15.7687 142.642 16.0057C143.002 16.2427 143.424 16.3612 143.907 16.3612C144.39 16.3612 144.812 16.2427 145.172 16.0057C145.532 15.7687 145.81 15.4209 146.007 14.9624C146.208 14.5038 146.308 13.9406 146.308 13.2727ZM154.944 11.2646C154.907 10.8922 154.748 10.6029 154.468 10.3967C154.188 10.1905 153.808 10.0874 153.328 10.0874C153.002 10.0874 152.726 10.1335 152.502 10.2259C152.277 10.3151 152.105 10.4397 151.985 10.5998C151.868 10.7598 151.809 10.9414 151.809 11.1445C151.803 11.3138 151.838 11.4615 151.915 11.5877C151.995 11.7139 152.105 11.8232 152.243 11.9155C152.382 12.0047 152.542 12.0832 152.723 12.1509C152.905 12.2156 153.099 12.271 153.305 12.3171L154.154 12.5202C154.567 12.6126 154.945 12.7357 155.29 12.8896C155.635 13.0434 155.933 13.2327 156.186 13.4574C156.438 13.6821 156.633 13.9467 156.772 14.2514C156.914 14.5561 156.986 14.9054 156.989 15.2994C156.986 15.878 156.838 16.3796 156.546 16.8043C156.256 17.226 155.838 17.5537 155.29 17.7876C154.745 18.0185 154.088 18.1339 153.319 18.1339C152.556 18.1339 151.891 18.0169 151.324 17.783C150.761 17.5491 150.321 17.2029 150.004 16.7443C149.69 16.2827 149.526 15.7118 149.51 15.0316H151.445C151.466 15.3486 151.557 15.6133 151.717 15.8256C151.88 16.0349 152.097 16.1934 152.368 16.3011C152.642 16.4058 152.951 16.4581 153.296 16.4581C153.634 16.4581 153.928 16.4089 154.177 16.3104C154.43 16.2119 154.625 16.0749 154.764 15.8995C154.902 15.7241 154.972 15.5225 154.972 15.2947C154.972 15.0824 154.908 14.9039 154.782 14.7592C154.659 14.6146 154.478 14.4915 154.237 14.3899C154.001 14.2884 153.71 14.196 153.365 14.1129L152.335 13.8544C151.538 13.6605 150.909 13.3574 150.447 12.945C149.986 12.5326 149.756 11.977 149.759 11.2784C149.756 10.706 149.909 10.2058 150.217 9.77805C150.527 9.35026 150.954 9.01634 151.495 8.77628C152.037 8.53622 152.652 8.41619 153.342 8.41619C154.044 8.41619 154.656 8.53622 155.179 8.77628C155.706 9.01634 156.115 9.35026 156.407 9.77805C156.7 10.2058 156.85 10.7013 156.86 11.2646H154.944Z" fill="white"/>
<rect width="56" height="26" transform="translate(163.25)" fill="#7A59C8"/>
<path d="M169.035 18V10.9091H170.909V12.1602H170.992C171.14 11.7447 171.386 11.4169 171.731 11.1768C172.076 10.9368 172.488 10.8168 172.968 10.8168C173.454 10.8168 173.868 10.9383 174.21 11.1815C174.551 11.4215 174.779 11.7478 174.893 12.1602H174.967C175.112 11.7539 175.373 11.4292 175.752 11.1861C176.133 10.9399 176.584 10.8168 177.104 10.8168C177.766 10.8168 178.303 11.0276 178.716 11.4492C179.131 11.8678 179.339 12.4618 179.339 13.2312V18H177.377V13.619C177.377 13.225 177.272 12.9296 177.063 12.7326C176.854 12.5356 176.592 12.4371 176.278 12.4371C175.921 12.4371 175.643 12.551 175.442 12.7788C175.242 13.0034 175.142 13.3004 175.142 13.6697V18H173.236V13.5774C173.236 13.2296 173.136 12.9527 172.936 12.7464C172.739 12.5402 172.479 12.4371 172.156 12.4371C171.937 12.4371 171.74 12.4925 171.565 12.6033C171.392 12.7111 171.255 12.8634 171.154 13.0604C171.052 13.2543 171.001 13.482 171.001 13.7436V18H169.035ZM182.914 18.1339C182.462 18.1339 182.059 18.0554 181.705 17.8984C181.351 17.7384 181.071 17.503 180.865 17.1921C180.661 16.8782 180.56 16.4873 180.56 16.0195C180.56 15.6256 180.632 15.2947 180.777 15.027C180.921 14.7592 181.118 14.5438 181.368 14.3807C181.617 14.2176 181.9 14.0945 182.217 14.0114C182.537 13.9283 182.873 13.8698 183.224 13.8359C183.636 13.7929 183.968 13.7528 184.221 13.7159C184.473 13.6759 184.656 13.6174 184.77 13.5405C184.884 13.4635 184.941 13.3497 184.941 13.1989V13.1712C184.941 12.8788 184.849 12.6526 184.664 12.4925C184.482 12.3325 184.224 12.2525 183.888 12.2525C183.534 12.2525 183.253 12.331 183.044 12.4879C182.834 12.6418 182.696 12.8357 182.628 13.0696L180.809 12.9219C180.901 12.491 181.083 12.1186 181.354 11.8047C181.625 11.4877 181.974 11.2446 182.402 11.0753C182.833 10.9029 183.331 10.8168 183.898 10.8168C184.291 10.8168 184.669 10.8629 185.029 10.9553C185.392 11.0476 185.713 11.1907 185.993 11.3846C186.277 11.5785 186.5 11.8278 186.663 12.1325C186.826 12.4341 186.907 12.7957 186.907 13.2173V18H185.042V17.0167H184.987C184.873 17.2383 184.721 17.4337 184.53 17.603C184.339 17.7692 184.11 17.9 183.842 17.9954C183.574 18.0877 183.265 18.1339 182.914 18.1339ZM183.477 16.7766C183.767 16.7766 184.022 16.7197 184.244 16.6058C184.465 16.4889 184.639 16.3319 184.765 16.1349C184.892 15.938 184.955 15.7148 184.955 15.4656V14.7131C184.893 14.7531 184.809 14.79 184.701 14.8239C184.596 14.8546 184.478 14.8839 184.345 14.9116C184.213 14.9362 184.081 14.9593 183.948 14.9808C183.816 14.9993 183.696 15.0162 183.588 15.0316C183.357 15.0655 183.156 15.1193 182.983 15.1932C182.811 15.267 182.677 15.3671 182.582 15.4933C182.486 15.6164 182.439 15.7702 182.439 15.9549C182.439 16.2227 182.536 16.4273 182.73 16.5689C182.927 16.7074 183.176 16.7766 183.477 16.7766ZM191.637 18.1385C190.911 18.1385 190.286 17.9846 189.763 17.6768C189.243 17.366 188.843 16.9351 188.562 16.3842C188.286 15.8333 188.147 15.1993 188.147 14.4822C188.147 13.7559 188.287 13.1188 188.567 12.571C188.85 12.0201 189.252 11.5908 189.772 11.283C190.292 10.9722 190.911 10.8168 191.628 10.8168C192.246 10.8168 192.788 10.9291 193.253 11.1538C193.718 11.3784 194.085 11.6939 194.356 12.1001C194.627 12.5064 194.776 12.9834 194.804 13.5312H192.948C192.896 13.1773 192.757 12.8926 192.533 12.6772C192.311 12.4587 192.02 12.3494 191.66 12.3494C191.355 12.3494 191.089 12.4325 190.862 12.5987C190.637 12.7618 190.461 13.0004 190.335 13.3143C190.209 13.6282 190.146 14.0083 190.146 14.4545C190.146 14.907 190.208 15.2917 190.331 15.6087C190.457 15.9257 190.634 16.1673 190.862 16.3335C191.089 16.4996 191.355 16.5827 191.66 16.5827C191.885 16.5827 192.086 16.5366 192.265 16.4442C192.446 16.3519 192.596 16.218 192.713 16.0426C192.833 15.8641 192.911 15.6502 192.948 15.4009H194.804C194.773 15.9426 194.625 16.4196 194.361 16.832C194.099 17.2414 193.738 17.5614 193.276 17.7923C192.814 18.0231 192.268 18.1385 191.637 18.1385ZM204.788 13.2727C204.788 14.3037 204.593 15.1809 204.202 15.9041C203.814 16.6274 203.285 17.1798 202.614 17.5614C201.946 17.94 201.195 18.1293 200.361 18.1293C199.521 18.1293 198.767 17.9384 198.099 17.5568C197.431 17.1752 196.903 16.6228 196.516 15.8995C196.128 15.1763 195.934 14.3007 195.934 13.2727C195.934 12.2417 196.128 11.3646 196.516 10.6413C196.903 9.91809 197.431 9.36719 198.099 8.98864C198.767 8.60701 199.521 8.41619 200.361 8.41619C201.195 8.41619 201.946 8.60701 202.614 8.98864C203.285 9.36719 203.814 9.91809 204.202 10.6413C204.593 11.3646 204.788 12.2417 204.788 13.2727ZM202.762 13.2727C202.762 12.6049 202.662 12.0417 202.462 11.5831C202.265 11.1245 201.986 10.7768 201.626 10.5398C201.266 10.3028 200.844 10.1843 200.361 10.1843C199.878 10.1843 199.456 10.3028 199.096 10.5398C198.736 10.7768 198.456 11.1245 198.256 11.5831C198.059 12.0417 197.96 12.6049 197.96 13.2727C197.96 13.9406 198.059 14.5038 198.256 14.9624C198.456 15.4209 198.736 15.7687 199.096 16.0057C199.456 16.2427 199.878 16.3612 200.361 16.3612C200.844 16.3612 201.266 16.2427 201.626 16.0057C201.986 15.7687 202.265 15.4209 202.462 14.9624C202.662 14.5038 202.762 13.9406 202.762 13.2727ZM211.398 11.2646C211.361 10.8922 211.202 10.6029 210.922 10.3967C210.642 10.1905 210.262 10.0874 209.782 10.0874C209.456 10.0874 209.18 10.1335 208.956 10.2259C208.731 10.3151 208.559 10.4397 208.439 10.5998C208.322 10.7598 208.263 10.9414 208.263 11.1445C208.257 11.3138 208.293 11.4615 208.369 11.5877C208.45 11.7139 208.559 11.8232 208.697 11.9155C208.836 12.0047 208.996 12.0832 209.177 12.1509C209.359 12.2156 209.553 12.271 209.759 12.3171L210.608 12.5202C211.021 12.6126 211.399 12.7357 211.744 12.8896C212.089 13.0434 212.387 13.2327 212.64 13.4574C212.892 13.6821 213.088 13.9467 213.226 14.2514C213.368 14.5561 213.44 14.9054 213.443 15.2994C213.44 15.878 213.292 16.3796 213 16.8043C212.711 17.226 212.292 17.5537 211.744 17.7876C211.199 18.0185 210.542 18.1339 209.773 18.1339C209.01 18.1339 208.345 18.0169 207.779 17.783C207.215 17.5491 206.775 17.2029 206.458 16.7443C206.144 16.2827 205.98 15.7118 205.964 15.0316H207.899C207.92 15.3486 208.011 15.6133 208.171 15.8256C208.334 16.0349 208.551 16.1934 208.822 16.3011C209.096 16.4058 209.405 16.4581 209.75 16.4581C210.088 16.4581 210.382 16.4089 210.632 16.3104C210.884 16.2119 211.079 16.0749 211.218 15.8995C211.356 15.7241 211.426 15.5225 211.426 15.2947C211.426 15.0824 211.363 14.9039 211.236 14.7592C211.113 14.6146 210.932 14.4915 210.692 14.3899C210.455 14.2884 210.164 14.196 209.819 14.1129L208.79 13.8544C207.992 13.6605 207.363 13.3574 206.901 12.945C206.44 12.5326 206.211 11.977 206.214 11.2784C206.211 10.706 206.363 10.2058 206.671 9.77805C206.981 9.35026 207.408 9.01634 207.949 8.77628C208.491 8.53622 209.107 8.41619 209.796 8.41619C210.498 8.41619 211.11 8.53622 211.633 8.77628C212.16 9.01634 212.569 9.35026 212.861 9.77805C213.154 10.2058 213.305 10.7013 213.314 11.2646H211.398Z" fill="white"/>
<rect width="42" height="26" transform="translate(219.25)" fill="#8E67DA"/>
<path d="M228.806 10.9091V12.3864H224.536V10.9091H228.806ZM225.506 9.21023H227.472V15.821C227.472 16.0026 227.5 16.1442 227.555 16.2457C227.611 16.3442 227.688 16.4135 227.786 16.4535C227.888 16.4935 228.005 16.5135 228.137 16.5135C228.229 16.5135 228.322 16.5058 228.414 16.4904C228.506 16.4719 228.577 16.4581 228.626 16.4489L228.936 17.9123C228.837 17.9431 228.699 17.9785 228.52 18.0185C228.342 18.0616 228.125 18.0877 227.869 18.0969C227.395 18.1154 226.98 18.0523 226.623 17.9077C226.269 17.763 225.993 17.5384 225.797 17.2337C225.6 16.929 225.503 16.5443 225.506 16.0795V9.21023ZM236.698 10.9091L234.219 18H232.003L229.524 10.9091H231.602L233.074 15.9826H233.148L234.616 10.9091H236.698ZM246.43 13.2727C246.43 14.3037 246.234 15.1809 245.844 15.9041C245.456 16.6274 244.926 17.1798 244.256 17.5614C243.588 17.94 242.837 18.1293 242.003 18.1293C241.162 18.1293 240.408 17.9384 239.741 17.5568C239.073 17.1752 238.545 16.6228 238.157 15.8995C237.769 15.1763 237.575 14.3007 237.575 13.2727C237.575 12.2417 237.769 11.3646 238.157 10.6413C238.545 9.91809 239.073 9.36719 239.741 8.98864C240.408 8.60701 241.162 8.41619 242.003 8.41619C242.837 8.41619 243.588 8.60701 244.256 8.98864C244.926 9.36719 245.456 9.91809 245.844 10.6413C246.234 11.3646 246.43 12.2417 246.43 13.2727ZM244.403 13.2727C244.403 12.6049 244.303 12.0417 244.103 11.5831C243.906 11.1245 243.628 10.7768 243.268 10.5398C242.907 10.3028 242.486 10.1843 242.003 10.1843C241.519 10.1843 241.098 10.3028 240.738 10.5398C240.378 10.7768 240.098 11.1245 239.898 11.5831C239.701 12.0417 239.602 12.6049 239.602 13.2727C239.602 13.9406 239.701 14.5038 239.898 14.9624C240.098 15.4209 240.378 15.7687 240.738 16.0057C241.098 16.2427 241.519 16.3612 242.003 16.3612C242.486 16.3612 242.907 16.2427 243.268 16.0057C243.628 15.7687 243.906 15.4209 244.103 14.9624C244.303 14.5038 244.403 13.9406 244.403 13.2727ZM253.04 11.2646C253.003 10.8922 252.844 10.6029 252.564 10.3967C252.284 10.1905 251.904 10.0874 251.424 10.0874C251.098 10.0874 250.822 10.1335 250.597 10.2259C250.373 10.3151 250.2 10.4397 250.08 10.5998C249.963 10.7598 249.905 10.9414 249.905 11.1445C249.899 11.3138 249.934 11.4615 250.011 11.5877C250.091 11.7139 250.2 11.8232 250.339 11.9155C250.477 12.0047 250.637 12.0832 250.819 12.1509C251.001 12.2156 251.194 12.271 251.401 12.3171L252.25 12.5202C252.662 12.6126 253.041 12.7357 253.386 12.8896C253.73 13.0434 254.029 13.2327 254.281 13.4574C254.534 13.6821 254.729 13.9467 254.868 14.2514C255.009 14.5561 255.082 14.9054 255.085 15.2994C255.082 15.878 254.934 16.3796 254.641 16.8043C254.352 17.226 253.934 17.5537 253.386 17.7876C252.841 18.0185 252.184 18.1339 251.415 18.1339C250.651 18.1339 249.986 18.0169 249.42 17.783C248.857 17.5491 248.417 17.2029 248.1 16.7443C247.786 16.2827 247.621 15.7118 247.606 15.0316H249.54C249.562 15.3486 249.653 15.6133 249.813 15.8256C249.976 16.0349 250.193 16.1934 250.464 16.3011C250.737 16.4058 251.047 16.4581 251.391 16.4581C251.73 16.4581 252.024 16.4089 252.273 16.3104C252.526 16.2119 252.721 16.0749 252.859 15.8995C252.998 15.7241 253.067 15.5225 253.067 15.2947C253.067 15.0824 253.004 14.9039 252.878 14.7592C252.755 14.6146 252.573 14.4915 252.333 14.3899C252.096 14.2884 251.805 14.196 251.461 14.1129L250.431 13.8544C249.634 13.6605 249.005 13.3574 248.543 12.945C248.081 12.5326 247.852 11.977 247.855 11.2784C247.852 10.706 248.004 10.2058 248.312 9.77805C248.623 9.35026 249.049 9.01634 249.591 8.77628C250.133 8.53622 250.748 8.41619 251.438 8.41619C252.139 8.41619 252.752 8.53622 253.275 8.77628C253.801 9.01634 254.211 9.35026 254.503 9.77805C254.795 10.2058 254.946 10.7013 254.955 11.2646H253.04Z" fill="white"/>
<rect width="69" height="26" transform="translate(261.25)" fill="#A276EC" fill-opacity="0.666667"/>
<path d="M268.434 18L266.504 10.9091H268.494L269.592 15.6733H269.657L270.802 10.9091H272.755L273.918 15.6456H273.978L275.058 10.9091H277.043L275.118 18H273.036L271.817 13.5405H271.73L270.511 18H268.434ZM280.114 18.1339C279.662 18.1339 279.259 18.0554 278.905 17.8984C278.551 17.7384 278.271 17.503 278.065 17.1921C277.862 16.8782 277.76 16.4873 277.76 16.0195C277.76 15.6256 277.832 15.2947 277.977 15.027C278.122 14.7592 278.319 14.5438 278.568 14.3807C278.817 14.2176 279.1 14.0945 279.417 14.0114C279.737 13.9283 280.073 13.8698 280.424 13.8359C280.836 13.7929 281.169 13.7528 281.421 13.7159C281.673 13.6759 281.856 13.6174 281.97 13.5405C282.084 13.4635 282.141 13.3497 282.141 13.1989V13.1712C282.141 12.8788 282.049 12.6526 281.864 12.4925C281.682 12.3325 281.424 12.2525 281.089 12.2525C280.735 12.2525 280.453 12.331 280.244 12.4879C280.034 12.6418 279.896 12.8357 279.828 13.0696L278.009 12.9219C278.102 12.491 278.283 12.1186 278.554 11.8047C278.825 11.4877 279.174 11.2446 279.602 11.0753C280.033 10.9029 280.531 10.8168 281.098 10.8168C281.492 10.8168 281.869 10.8629 282.229 10.9553C282.592 11.0476 282.914 11.1907 283.194 11.3846C283.477 11.5785 283.7 11.8278 283.863 12.1325C284.026 12.4341 284.108 12.7957 284.108 13.2173V18H282.243V17.0167H282.187C282.073 17.2383 281.921 17.4337 281.73 17.603C281.539 17.7692 281.31 17.9 281.042 17.9954C280.775 18.0877 280.465 18.1339 280.114 18.1339ZM280.678 16.7766C280.967 16.7766 281.222 16.7197 281.444 16.6058C281.666 16.4889 281.839 16.3319 281.966 16.1349C282.092 15.938 282.155 15.7148 282.155 15.4656V14.7131C282.093 14.7531 282.009 14.79 281.901 14.8239C281.796 14.8546 281.678 14.8839 281.546 14.9116C281.413 14.9362 281.281 14.9593 281.149 14.9808C281.016 14.9993 280.896 15.0162 280.788 15.0316C280.558 15.0655 280.356 15.1193 280.184 15.1932C280.011 15.267 279.877 15.3671 279.782 15.4933C279.687 15.6164 279.639 15.7702 279.639 15.9549C279.639 16.2227 279.736 16.4273 279.93 16.5689C280.127 16.7074 280.376 16.7766 280.678 16.7766ZM289.405 10.9091V12.3864H285.135V10.9091H289.405ZM286.104 9.21023H288.071V15.821C288.071 16.0026 288.099 16.1442 288.154 16.2457C288.209 16.3442 288.286 16.4135 288.385 16.4535C288.486 16.4935 288.603 16.5135 288.736 16.5135C288.828 16.5135 288.92 16.5058 289.013 16.4904C289.105 16.4719 289.176 16.4581 289.225 16.4489L289.534 17.9123C289.436 17.9431 289.297 17.9785 289.119 18.0185C288.94 18.0616 288.723 18.0877 288.468 18.0969C287.994 18.1154 287.579 18.0523 287.222 17.9077C286.868 17.763 286.592 17.5384 286.395 17.2337C286.198 16.929 286.101 16.5443 286.104 16.0795V9.21023ZM293.814 18.1385C293.088 18.1385 292.463 17.9846 291.94 17.6768C291.419 17.366 291.019 16.9351 290.739 16.3842C290.462 15.8333 290.324 15.1993 290.324 14.4822C290.324 13.7559 290.464 13.1188 290.744 12.571C291.027 12.0201 291.429 11.5908 291.949 11.283C292.469 10.9722 293.088 10.8168 293.805 10.8168C294.423 10.8168 294.965 10.9291 295.43 11.1538C295.894 11.3784 296.262 11.6939 296.533 12.1001C296.804 12.5064 296.953 12.9834 296.981 13.5312H295.125C295.073 13.1773 294.934 12.8926 294.709 12.6772C294.488 12.4587 294.197 12.3494 293.837 12.3494C293.532 12.3494 293.266 12.4325 293.038 12.5987C292.814 12.7618 292.638 13.0004 292.512 13.3143C292.386 13.6282 292.323 14.0083 292.323 14.4545C292.323 14.907 292.384 15.2917 292.507 15.6087C292.634 15.9257 292.811 16.1673 293.038 16.3335C293.266 16.4996 293.532 16.5827 293.837 16.5827C294.062 16.5827 294.263 16.5366 294.442 16.4442C294.623 16.3519 294.773 16.218 294.889 16.0426C295.009 15.8641 295.088 15.6502 295.125 15.4009H296.981C296.95 15.9426 296.802 16.4196 296.538 16.832C296.276 17.2414 295.914 17.5614 295.453 17.7923C294.991 18.0231 294.445 18.1385 293.814 18.1385ZM300.206 13.9006V18H298.24V8.54545H300.151V12.1602H300.234C300.394 11.7416 300.653 11.4138 301.01 11.1768C301.367 10.9368 301.815 10.8168 302.353 10.8168C302.846 10.8168 303.275 10.9245 303.641 11.1399C304.01 11.3523 304.297 11.6585 304.5 12.0586C304.706 12.4556 304.808 12.9311 304.805 13.4851V18H302.838V13.8359C302.841 13.3989 302.73 13.0588 302.506 12.8157C302.284 12.5726 301.973 12.451 301.573 12.451C301.305 12.451 301.068 12.5079 300.862 12.6218C300.659 12.7357 300.499 12.9019 300.382 13.1204C300.268 13.3358 300.21 13.5959 300.206 13.9006ZM315.077 13.2727C315.077 14.3037 314.882 15.1809 314.491 15.9041C314.103 16.6274 313.574 17.1798 312.903 17.5614C312.235 17.94 311.484 18.1293 310.65 18.1293C309.81 18.1293 309.056 17.9384 308.388 17.5568C307.72 17.1752 307.192 16.6228 306.805 15.8995C306.417 15.1763 306.223 14.3007 306.223 13.2727C306.223 12.2417 306.417 11.3646 306.805 10.6413C307.192 9.91809 307.72 9.36719 308.388 8.98864C309.056 8.60701 309.81 8.41619 310.65 8.41619C311.484 8.41619 312.235 8.60701 312.903 8.98864C313.574 9.36719 314.103 9.91809 314.491 10.6413C314.882 11.3646 315.077 12.2417 315.077 13.2727ZM313.051 13.2727C313.051 12.6049 312.951 12.0417 312.751 11.5831C312.554 11.1245 312.275 10.7768 311.915 10.5398C311.555 10.3028 311.133 10.1843 310.65 10.1843C310.167 10.1843 309.745 10.3028 309.385 10.5398C309.025 10.7768 308.745 11.1245 308.545 11.5831C308.348 12.0417 308.25 12.6049 308.25 13.2727C308.25 13.9406 308.348 14.5038 308.545 14.9624C308.745 15.4209 309.025 15.7687 309.385 16.0057C309.745 16.2427 310.167 16.3612 310.65 16.3612C311.133 16.3612 311.555 16.2427 311.915 16.0057C312.275 15.7687 312.554 15.4209 312.751 14.9624C312.951 14.5038 313.051 13.9406 313.051 13.2727ZM321.687 11.2646C321.65 10.8922 321.492 10.6029 321.211 10.3967C320.931 10.1905 320.551 10.0874 320.071 10.0874C319.745 10.0874 319.47 10.1335 319.245 10.2259C319.02 10.3151 318.848 10.4397 318.728 10.5998C318.611 10.7598 318.552 10.9414 318.552 11.1445C318.546 11.3138 318.582 11.4615 318.659 11.5877C318.739 11.7139 318.848 11.8232 318.986 11.9155C319.125 12.0047 319.285 12.0832 319.466 12.1509C319.648 12.2156 319.842 12.271 320.048 12.3171L320.898 12.5202C321.31 12.6126 321.689 12.7357 322.033 12.8896C322.378 13.0434 322.676 13.2327 322.929 13.4574C323.181 13.6821 323.377 13.9467 323.515 14.2514C323.657 14.5561 323.729 14.9054 323.732 15.2994C323.729 15.878 323.581 16.3796 323.289 16.8043C323 17.226 322.581 17.5537 322.033 17.7876C321.488 18.0185 320.831 18.1339 320.062 18.1339C319.299 18.1339 318.634 18.0169 318.068 17.783C317.504 17.5491 317.064 17.2029 316.747 16.7443C316.433 16.2827 316.269 15.7118 316.253 15.0316H318.188C318.209 15.3486 318.3 15.6133 318.46 15.8256C318.623 16.0349 318.84 16.1934 319.111 16.3011C319.385 16.4058 319.694 16.4581 320.039 16.4581C320.377 16.4581 320.671 16.4089 320.921 16.3104C321.173 16.2119 321.368 16.0749 321.507 15.8995C321.645 15.7241 321.715 15.5225 321.715 15.2947C321.715 15.0824 321.652 14.9039 321.525 14.7592C321.402 14.6146 321.221 14.4915 320.981 14.3899C320.744 14.2884 320.453 14.196 320.108 14.1129L319.079 13.8544C318.282 13.6605 317.652 13.3574 317.191 12.945C316.729 12.5326 316.5 11.977 316.503 11.2784C316.5 10.706 316.652 10.2058 316.96 9.77805C317.271 9.35026 317.697 9.01634 318.238 8.77628C318.78 8.53622 319.396 8.41619 320.085 8.41619C320.787 8.41619 321.399 8.53622 321.922 8.77628C322.449 9.01634 322.858 9.35026 323.15 9.77805C323.443 10.2058 323.594 10.7013 323.603 11.2646H321.687Z" fill="white"/>
<path d="M330.25 0H385.25C390.907 0 393.735 0 395.493 1.75736C397.25 3.51472 397.25 6.34315 397.25 12V14C397.25 19.6569 397.25 22.4853 395.493 24.2426C393.735 26 390.907 26 385.25 26H330.25V0Z" fill="#B685FF"/>
<path d="M342.646 10.9091L340.167 18H337.951L335.472 10.9091H337.549L339.022 15.9826H339.096L340.564 10.9091H342.646ZM343.652 18V10.9091H345.619V18H343.652ZM344.64 9.99503C344.348 9.99503 344.097 9.89808 343.887 9.70419C343.681 9.50722 343.578 9.27178 343.578 8.99787C343.578 8.72704 343.681 8.49467 343.887 8.30078C344.097 8.10381 344.348 8.00533 344.64 8.00533C344.932 8.00533 345.182 8.10381 345.388 8.30078C345.597 8.49467 345.702 8.72704 345.702 8.99787C345.702 9.27178 345.597 9.50722 345.388 9.70419C345.182 9.89808 344.932 9.99503 344.64 9.99503ZM353.094 12.9311L351.293 13.0419C351.263 12.888 351.196 12.7495 351.095 12.6264C350.993 12.5002 350.859 12.4002 350.693 12.3263C350.53 12.2494 350.335 12.2109 350.107 12.2109C349.802 12.2109 349.545 12.2756 349.336 12.4048C349.127 12.531 349.022 12.7003 349.022 12.9126C349.022 13.0819 349.09 13.225 349.225 13.342C349.361 13.4589 349.593 13.5528 349.922 13.6236L351.206 13.8821C351.895 14.0237 352.409 14.2514 352.748 14.5653C353.086 14.8793 353.255 15.2917 353.255 15.8026C353.255 16.2673 353.118 16.6751 352.845 17.0259C352.574 17.3768 352.201 17.6507 351.727 17.8477C351.256 18.0415 350.713 18.1385 350.098 18.1385C349.159 18.1385 348.411 17.9431 347.854 17.5522C347.3 17.1583 346.975 16.6228 346.88 15.9457L348.814 15.8441C348.873 16.1303 349.014 16.3488 349.239 16.4996C349.464 16.6474 349.752 16.7212 350.102 16.7212C350.447 16.7212 350.724 16.6551 350.933 16.5227C351.146 16.3873 351.253 16.2134 351.256 16.0011C351.253 15.8226 351.178 15.6764 351.03 15.5625C350.883 15.4455 350.655 15.3563 350.347 15.2947L349.119 15.0501C348.427 14.9116 347.911 14.6715 347.573 14.3299C347.237 13.9883 347.069 13.5528 347.069 13.0234C347.069 12.5679 347.192 12.1755 347.439 11.8462C347.688 11.5169 348.037 11.263 348.487 11.0845C348.939 10.906 349.468 10.8168 350.075 10.8168C350.97 10.8168 351.675 11.006 352.189 11.3846C352.706 11.7631 353.008 12.2786 353.094 12.9311ZM354.494 18V10.9091H356.46V18H354.494ZM355.482 9.99503C355.189 9.99503 354.939 9.89808 354.729 9.70419C354.523 9.50722 354.42 9.27178 354.42 8.99787C354.42 8.72704 354.523 8.49467 354.729 8.30078C354.939 8.10381 355.189 8.00533 355.482 8.00533C355.774 8.00533 356.023 8.10381 356.23 8.30078C356.439 8.49467 356.544 8.72704 356.544 8.99787C356.544 9.27178 356.439 9.50722 356.23 9.70419C356.023 9.89808 355.774 9.99503 355.482 9.99503ZM361.24 18.1385C360.523 18.1385 359.902 17.9862 359.379 17.6815C358.859 17.3737 358.457 16.9459 358.174 16.3981C357.891 15.8472 357.75 15.2086 357.75 14.4822C357.75 13.7498 357.891 13.1096 358.174 12.5618C358.457 12.0109 358.859 11.5831 359.379 11.2784C359.902 10.9706 360.523 10.8168 361.24 10.8168C361.957 10.8168 362.575 10.9706 363.095 11.2784C363.619 11.5831 364.022 12.0109 364.305 12.5618C364.588 13.1096 364.73 13.7498 364.73 14.4822C364.73 15.2086 364.588 15.8472 364.305 16.3981C364.022 16.9459 363.619 17.3737 363.095 17.6815C362.575 17.9862 361.957 18.1385 361.24 18.1385ZM361.249 16.6151C361.575 16.6151 361.847 16.5227 362.066 16.3381C362.284 16.1503 362.449 15.8949 362.56 15.5717C362.674 15.2486 362.731 14.8808 362.731 14.4684C362.731 14.056 362.674 13.6882 362.56 13.3651C362.449 13.0419 362.284 12.7865 362.066 12.5987C361.847 12.411 361.575 12.3171 361.249 12.3171C360.92 12.3171 360.643 12.411 360.418 12.5987C360.196 12.7865 360.029 13.0419 359.915 13.3651C359.804 13.6882 359.748 14.056 359.748 14.4684C359.748 14.8808 359.804 15.2486 359.915 15.5717C360.029 15.8949 360.196 16.1503 360.418 16.3381C360.643 16.5227 360.92 16.6151 361.249 16.6151ZM367.975 13.9006V18H366.008V10.9091H367.883V12.1602H367.966C368.123 11.7478 368.386 11.4215 368.755 11.1815C369.125 10.9383 369.572 10.8168 370.099 10.8168C370.591 10.8168 371.02 10.9245 371.387 11.1399C371.753 11.3554 372.038 11.6631 372.241 12.0632C372.444 12.4602 372.545 12.9342 372.545 13.4851V18H370.579V13.8359C370.582 13.402 370.471 13.0634 370.246 12.8203C370.022 12.5741 369.712 12.451 369.318 12.451C369.054 12.451 368.82 12.5079 368.617 12.6218C368.417 12.7357 368.26 12.9019 368.146 13.1204C368.035 13.3358 367.978 13.5959 367.975 13.9006ZM382.82 13.2727C382.82 14.3037 382.625 15.1809 382.234 15.9041C381.846 16.6274 381.317 17.1798 380.646 17.5614C379.978 17.94 379.227 18.1293 378.393 18.1293C377.553 18.1293 376.799 17.9384 376.131 17.5568C375.463 17.1752 374.936 16.6228 374.548 15.8995C374.16 15.1763 373.966 14.3007 373.966 13.2727C373.966 12.2417 374.16 11.3646 374.548 10.6413C374.936 9.91809 375.463 9.36719 376.131 8.98864C376.799 8.60701 377.553 8.41619 378.393 8.41619C379.227 8.41619 379.978 8.60701 380.646 8.98864C381.317 9.36719 381.846 9.91809 382.234 10.6413C382.625 11.3646 382.82 12.2417 382.82 13.2727ZM380.794 13.2727C380.794 12.6049 380.694 12.0417 380.494 11.5831C380.297 11.1245 380.018 10.7768 379.658 10.5398C379.298 10.3028 378.876 10.1843 378.393 10.1843C377.91 10.1843 377.488 10.3028 377.128 10.5398C376.768 10.7768 376.488 11.1245 376.288 11.5831C376.091 12.0417 375.993 12.6049 375.993 13.2727C375.993 13.9406 376.091 14.5038 376.288 14.9624C376.488 15.4209 376.768 15.7687 377.128 16.0057C377.488 16.2427 377.91 16.3612 378.393 16.3612C378.876 16.3612 379.298 16.2427 379.658 16.0057C380.018 15.7687 380.297 15.4209 380.494 14.9624C380.694 14.5038 380.794 13.9406 380.794 13.2727ZM389.43 11.2646C389.393 10.8922 389.235 10.6029 388.955 10.3967C388.675 10.1905 388.294 10.0874 387.814 10.0874C387.488 10.0874 387.213 10.1335 386.988 10.2259C386.763 10.3151 386.591 10.4397 386.471 10.5998C386.354 10.7598 386.296 10.9414 386.296 11.1445C386.289 11.3138 386.325 11.4615 386.402 11.5877C386.482 11.7139 386.591 11.8232 386.729 11.9155C386.868 12.0047 387.028 12.0832 387.21 12.1509C387.391 12.2156 387.585 12.271 387.791 12.3171L388.641 12.5202C389.053 12.6126 389.432 12.7357 389.776 12.8896C390.121 13.0434 390.42 13.2327 390.672 13.4574C390.924 13.6821 391.12 13.9467 391.258 14.2514C391.4 14.5561 391.472 14.9054 391.475 15.2994C391.472 15.878 391.324 16.3796 391.032 16.8043C390.743 17.226 390.324 17.5537 389.776 17.7876C389.232 18.0185 388.575 18.1339 387.805 18.1339C387.042 18.1339 386.377 18.0169 385.811 17.783C385.248 17.5491 384.807 17.2029 384.491 16.7443C384.177 16.2827 384.012 15.7118 383.997 15.0316H385.931C385.952 15.3486 386.043 15.6133 386.203 15.8256C386.366 16.0349 386.583 16.1934 386.854 16.3011C387.128 16.4058 387.437 16.4581 387.782 16.4581C388.121 16.4581 388.415 16.4089 388.664 16.3104C388.916 16.2119 389.112 16.0749 389.25 15.8995C389.389 15.7241 389.458 15.5225 389.458 15.2947C389.458 15.0824 389.395 14.9039 389.269 14.7592C389.145 14.6146 388.964 14.4915 388.724 14.3899C388.487 14.2884 388.196 14.196 387.851 14.1129L386.822 13.8544C386.025 13.6605 385.395 13.3574 384.934 12.945C384.472 12.5326 384.243 11.977 384.246 11.2784C384.243 10.706 384.395 10.2058 384.703 9.77805C385.014 9.35026 385.44 9.01634 385.982 8.77628C386.523 8.53622 387.139 8.41619 387.828 8.41619C388.53 8.41619 389.142 8.53622 389.666 8.77628C390.192 9.01634 390.601 9.35026 390.894 9.77805C391.186 10.2058 391.337 10.7013 391.346 11.2646H389.43Z" fill="white"/>
</svg>
