<svg width="262" height="26" viewBox="0 0 262 26" fill="none" xmlns="http://www.w3.org/2000/svg">
<path d="M1 12C1 6.34315 1 3.51472 2.75736 1.75736C4.51472 0 7.34315 0 13 0H73V26H13C7.34315 26 4.51472 26 2.75736 24.2426C1 22.4853 1 19.6569 1 14V12Z" fill="#3F3F3F"/>
<path d="M6.82173 18V8.54545H10.5518C11.2689 8.54545 11.8799 8.68241 12.3846 8.95632C12.8893 9.22715 13.274 9.60417 13.5387 10.0874C13.8065 10.5675 13.9403 11.1214 13.9403 11.7493C13.9403 12.3771 13.8049 12.9311 13.5341 13.4112C13.2633 13.8913 12.8709 14.2653 12.3569 14.533C11.846 14.8008 11.2274 14.9347 10.5011 14.9347H8.12358V13.3327H10.1779C10.5626 13.3327 10.8796 13.2666 11.1289 13.1342C11.3813 12.9988 11.569 12.8126 11.6921 12.5756C11.8183 12.3356 11.8814 12.0601 11.8814 11.7493C11.8814 11.4354 11.8183 11.1615 11.6921 10.9276C11.569 10.6906 11.3813 10.5075 11.1289 10.3782C10.8765 10.2459 10.5565 10.1797 10.1687 10.1797H8.82067V18H6.82173ZM17.1684 8.54545V18H15.2018V8.54545H17.1684ZM20.7658 18.1339C20.3134 18.1339 19.9102 18.0554 19.5563 17.8984C19.2024 17.7384 18.9223 17.503 18.7161 17.1921C18.513 16.8782 18.4114 16.4873 18.4114 16.0195C18.4114 15.6256 18.4837 15.2947 18.6284 15.027C18.773 14.7592 18.97 14.5438 19.2193 14.3807C19.4686 14.2176 19.7517 14.0945 20.0687 14.0114C20.3888 13.9283 20.7243 13.8698 21.0751 13.8359C21.4875 13.7929 21.8199 13.7528 22.0723 13.7159C22.3246 13.6759 22.5078 13.6174 22.6216 13.5405C22.7355 13.4635 22.7924 13.3497 22.7924 13.1989V13.1712C22.7924 12.8788 22.7001 12.6526 22.5154 12.4925C22.3339 12.3325 22.0753 12.2525 21.7399 12.2525C21.3859 12.2525 21.1043 12.331 20.8951 12.4879C20.6858 12.6418 20.5473 12.8357 20.4796 13.0696L18.6607 12.9219C18.753 12.491 18.9346 12.1186 19.2054 11.8047C19.4763 11.4877 19.8256 11.2446 20.2534 11.0753C20.6842 10.9029 21.1828 10.8168 21.7491 10.8168C22.1431 10.8168 22.5201 10.8629 22.8801 10.9553C23.2433 11.0476 23.5649 11.1907 23.845 11.3846C24.1281 11.5785 24.3513 11.8278 24.5144 12.1325C24.6775 12.4341 24.7591 12.7957 24.7591 13.2173V18H22.894V17.0167H22.8386C22.7247 17.2383 22.5724 17.4337 22.3816 17.603C22.1908 17.7692 21.9615 17.9 21.6937 17.9954C21.426 18.0877 21.1167 18.1339 20.7658 18.1339ZM21.329 16.7766C21.6183 16.7766 21.8738 16.7197 22.0953 16.6058C22.3169 16.4889 22.4908 16.3319 22.617 16.1349C22.7432 15.938 22.8063 15.7148 22.8063 15.4656V14.7131C22.7447 14.7531 22.6601 14.79 22.5524 14.8239C22.4477 14.8546 22.3292 14.8839 22.1969 14.9116C22.0646 14.9362 21.9322 14.9593 21.7999 14.9808C21.6676 14.9993 21.5475 15.0162 21.4398 15.0316C21.209 15.0655 21.0074 15.1193 20.835 15.1932C20.6627 15.267 20.5288 15.3671 20.4334 15.4933C20.338 15.6164 20.2903 15.7702 20.2903 15.9549C20.2903 16.2227 20.3873 16.4273 20.5811 16.5689C20.7781 16.7074 21.0274 16.7766 21.329 16.7766ZM30.0565 10.9091V12.3864H25.7862V10.9091H30.0565ZM26.7557 9.21023H28.7223V15.821C28.7223 16.0026 28.75 16.1442 28.8054 16.2457C28.8608 16.3442 28.9377 16.4135 29.0362 16.4535C29.1378 16.4935 29.2547 16.5135 29.3871 16.5135C29.4794 16.5135 29.5717 16.5058 29.6641 16.4904C29.7564 16.4719 29.8272 16.4581 29.8764 16.4489L30.1857 17.9123C30.0872 17.9431 29.9487 17.9785 29.7702 18.0185C29.5917 18.0616 29.3748 18.0877 29.1193 18.0969C28.6454 18.1154 28.2299 18.0523 27.8729 17.9077C27.5189 17.763 27.2435 17.5384 27.0465 17.2337C26.8496 16.929 26.7526 16.5443 26.7557 16.0795V9.21023ZM35.1507 10.9091V12.3864H30.7743V10.9091H35.1507ZM31.7761 18V10.3967C31.7761 9.88269 31.8761 9.45644 32.0762 9.1179C32.2793 8.77936 32.5563 8.52545 32.9071 8.35618C33.258 8.18691 33.6565 8.10227 34.1028 8.10227C34.4044 8.10227 34.6799 8.12535 34.9292 8.17152C35.1815 8.21768 35.3693 8.25923 35.4924 8.29616L35.1415 9.77344C35.0646 9.74882 34.9692 9.72573 34.8553 9.70419C34.7445 9.68265 34.6306 9.67188 34.5137 9.67188C34.2244 9.67188 34.0228 9.73958 33.9089 9.875C33.795 10.0073 33.7381 10.1935 33.7381 10.4336V18H31.7761ZM39.3021 18.1385C38.585 18.1385 37.9649 17.9862 37.4417 17.6815C36.9215 17.3737 36.5199 16.9459 36.2368 16.3981C35.9536 15.8472 35.8121 15.2086 35.8121 14.4822C35.8121 13.7498 35.9536 13.1096 36.2368 12.5618C36.5199 12.0109 36.9215 11.5831 37.4417 11.2784C37.9649 10.9706 38.585 10.8168 39.3021 10.8168C40.0192 10.8168 40.6378 10.9706 41.1579 11.2784C41.6811 11.5831 42.0843 12.0109 42.3675 12.5618C42.6506 13.1096 42.7922 13.7498 42.7922 14.4822C42.7922 15.2086 42.6506 15.8472 42.3675 16.3981C42.0843 16.9459 41.6811 17.3737 41.1579 17.6815C40.6378 17.9862 40.0192 18.1385 39.3021 18.1385ZM39.3113 16.6151C39.6376 16.6151 39.9099 16.5227 40.1285 16.3381C40.347 16.1503 40.5116 15.8949 40.6224 15.5717C40.7363 15.2486 40.7932 14.8808 40.7932 14.4684C40.7932 14.056 40.7363 13.6882 40.6224 13.3651C40.5116 13.0419 40.347 12.7865 40.1285 12.5987C39.9099 12.411 39.6376 12.3171 39.3113 12.3171C38.982 12.3171 38.705 12.411 38.4804 12.5987C38.2588 12.7865 38.0911 13.0419 37.9772 13.3651C37.8664 13.6882 37.811 14.056 37.811 14.4684C37.811 14.8808 37.8664 15.2486 37.9772 15.5717C38.0911 15.8949 38.2588 16.1503 38.4804 16.3381C38.705 16.5227 38.982 16.6151 39.3113 16.6151ZM44.0709 18V10.9091H45.9775V12.1463H46.0514C46.1807 11.7062 46.3976 11.3738 46.7023 11.1491C47.007 10.9214 47.3579 10.8075 47.7549 10.8075C47.8534 10.8075 47.9595 10.8137 48.0734 10.826C48.1873 10.8383 48.2873 10.8552 48.3735 10.8768V12.6218C48.2812 12.5941 48.1534 12.5695 47.9903 12.5479C47.8272 12.5264 47.6779 12.5156 47.5425 12.5156C47.2532 12.5156 46.9947 12.5787 46.767 12.7049C46.5423 12.828 46.3638 13.0004 46.2314 13.2219C46.1022 13.4435 46.0376 13.699 46.0376 13.9883V18H44.0709ZM49.3903 18V10.9091H51.2646V12.1602H51.3477C51.4954 11.7447 51.7416 11.4169 52.0863 11.1768C52.431 10.9368 52.8434 10.8168 53.3235 10.8168C53.8098 10.8168 54.2237 10.9383 54.5653 11.1815C54.907 11.4215 55.1347 11.7478 55.2486 12.1602H55.3224C55.4671 11.7539 55.7287 11.4292 56.1072 11.1861C56.4889 10.9399 56.9397 10.8168 57.4599 10.8168C58.1216 10.8168 58.6586 11.0276 59.071 11.4492C59.4865 11.8678 59.6942 12.4618 59.6942 13.2312V18H57.7322V13.619C57.7322 13.225 57.6276 12.9296 57.4183 12.7326C57.209 12.5356 56.9474 12.4371 56.6335 12.4371C56.2765 12.4371 55.998 12.551 55.7979 12.7788C55.5979 13.0034 55.4979 13.3004 55.4979 13.6697V18H53.5913V13.5774C53.5913 13.2296 53.4912 12.9527 53.2912 12.7464C53.0942 12.5402 52.8342 12.4371 52.511 12.4371C52.2925 12.4371 52.0955 12.4925 51.9201 12.6033C51.7478 12.7111 51.6108 12.8634 51.5092 13.0604C51.4077 13.2543 51.3569 13.482 51.3569 13.7436V18H49.3903ZM67.1475 12.9311L65.3471 13.0419C65.3163 12.888 65.2502 12.7495 65.1486 12.6264C65.0471 12.5002 64.9132 12.4002 64.747 12.3263C64.5839 12.2494 64.3884 12.2109 64.1607 12.2109C63.856 12.2109 63.599 12.2756 63.3897 12.4048C63.1805 12.531 63.0758 12.7003 63.0758 12.9126C63.0758 13.0819 63.1435 13.225 63.2789 13.342C63.4144 13.4589 63.6467 13.5528 63.976 13.6236L65.2594 13.8821C65.9488 14.0237 66.4628 14.2514 66.8013 14.5653C67.1399 14.8793 67.3091 15.2917 67.3091 15.8026C67.3091 16.2673 67.1722 16.6751 66.8983 17.0259C66.6274 17.3768 66.255 17.6507 65.7811 17.8477C65.3102 18.0415 64.767 18.1385 64.1515 18.1385C63.2128 18.1385 62.4649 17.9431 61.9078 17.5522C61.3539 17.1583 61.0292 16.6228 60.9338 15.9457L62.8681 15.8441C62.9266 16.1303 63.0681 16.3488 63.2928 16.4996C63.5175 16.6474 63.8052 16.7212 64.1561 16.7212C64.5008 16.7212 64.7778 16.6551 64.987 16.5227C65.1994 16.3873 65.3071 16.2134 65.3102 16.0011C65.3071 15.8226 65.2317 15.6764 65.084 15.5625C64.9363 15.4455 64.7085 15.3563 64.4007 15.2947L63.1728 15.0501C62.4803 14.9116 61.9648 14.6715 61.6262 14.3299C61.2908 13.9883 61.123 13.5528 61.123 13.0234C61.123 12.5679 61.2462 12.1755 61.4924 11.8462C61.7417 11.5169 62.091 11.263 62.5403 11.0845C62.9927 10.906 63.5221 10.8168 64.1284 10.8168C65.024 10.8168 65.7288 11.006 66.2427 11.3846C66.7598 11.7631 67.0614 12.2786 67.1475 12.9311Z" fill="#FFFCFF"/>
<rect width="33" height="26" transform="translate(73)" fill="#533DA3"/>
<path d="M78.7848 18V10.9091H80.7514V18H78.7848ZM79.7727 9.99503C79.4804 9.99503 79.2295 9.89808 79.0202 9.70419C78.814 9.50722 78.7109 9.27178 78.7109 8.99787C78.7109 8.72704 78.814 8.49467 79.0202 8.30078C79.2295 8.10381 79.4804 8.00533 79.7727 8.00533C80.0651 8.00533 80.3144 8.10381 80.5206 8.30078C80.7299 8.49467 80.8345 8.72704 80.8345 8.99787C80.8345 9.27178 80.7299 9.50722 80.5206 9.70419C80.3144 9.89808 80.0651 9.99503 79.7727 9.99503ZM91.0519 13.2727C91.0519 14.3037 90.8565 15.1809 90.4656 15.9041C90.0779 16.6274 89.5485 17.1798 88.8776 17.5614C88.2097 17.94 87.4588 18.1293 86.6247 18.1293C85.7845 18.1293 85.0305 17.9384 84.3627 17.5568C83.6948 17.1752 83.167 16.6228 82.7792 15.8995C82.3914 15.1763 82.1975 14.3007 82.1975 13.2727C82.1975 12.2417 82.3914 11.3646 82.7792 10.6413C83.167 9.91809 83.6948 9.36719 84.3627 8.98864C85.0305 8.60701 85.7845 8.41619 86.6247 8.41619C87.4588 8.41619 88.2097 8.60701 88.8776 8.98864C89.5485 9.36719 90.0779 9.91809 90.4656 10.6413C90.8565 11.3646 91.0519 12.2417 91.0519 13.2727ZM89.0253 13.2727C89.0253 12.6049 88.9253 12.0417 88.7252 11.5831C88.5283 11.1245 88.2497 10.7768 87.8896 10.5398C87.5296 10.3028 87.1079 10.1843 86.6247 10.1843C86.1415 10.1843 85.7199 10.3028 85.3598 10.5398C84.9997 10.7768 84.7197 11.1245 84.5196 11.5831C84.3227 12.0417 84.2242 12.6049 84.2242 13.2727C84.2242 13.9406 84.3227 14.5038 84.5196 14.9624C84.7197 15.4209 84.9997 15.7687 85.3598 16.0057C85.7199 16.2427 86.1415 16.3612 86.6247 16.3612C87.1079 16.3612 87.5296 16.2427 87.8896 16.0057C88.2497 15.7687 88.5283 15.4209 88.7252 14.9624C88.9253 14.5038 89.0253 13.9406 89.0253 13.2727ZM97.6616 11.2646C97.6246 10.8922 97.4661 10.6029 97.1861 10.3967C96.906 10.1905 96.5259 10.0874 96.0458 10.0874C95.7196 10.0874 95.4441 10.1335 95.2195 10.2259C94.9948 10.3151 94.8224 10.4397 94.7024 10.5998C94.5855 10.7598 94.527 10.9414 94.527 11.1445C94.5208 11.3138 94.5562 11.4615 94.6332 11.5877C94.7132 11.7139 94.8224 11.8232 94.9609 11.9155C95.0994 12.0047 95.2595 12.0832 95.4411 12.1509C95.6226 12.2156 95.8165 12.271 96.0227 12.3171L96.8722 12.5202C97.2846 12.6126 97.6631 12.7357 98.0078 12.8896C98.3525 13.0434 98.651 13.2327 98.9034 13.4574C99.1558 13.6821 99.3512 13.9467 99.4897 14.2514C99.6313 14.5561 99.7036 14.9054 99.7067 15.2994C99.7036 15.878 99.5559 16.3796 99.2635 16.8043C98.9742 17.226 98.5556 17.5537 98.0078 17.7876C97.4631 18.0185 96.806 18.1339 96.0366 18.1339C95.2733 18.1339 94.6085 18.0169 94.0423 17.783C93.479 17.5491 93.0389 17.2029 92.7219 16.7443C92.408 16.2827 92.2434 15.7118 92.228 15.0316H94.1623C94.1838 15.3486 94.2746 15.6133 94.4347 15.8256C94.5978 16.0349 94.8147 16.1934 95.0856 16.3011C95.3595 16.4058 95.6688 16.4581 96.0135 16.4581C96.352 16.4581 96.646 16.4089 96.8952 16.3104C97.1476 16.2119 97.343 16.0749 97.4815 15.8995C97.62 15.7241 97.6893 15.5225 97.6893 15.2947C97.6893 15.0824 97.6262 14.9039 97.5 14.7592C97.3769 14.6146 97.1953 14.4915 96.9553 14.3899C96.7183 14.2884 96.4274 14.196 96.0827 14.1129L95.0533 13.8544C94.2562 13.6605 93.6268 13.3574 93.1651 12.945C92.7035 12.5326 92.4742 11.977 92.4773 11.2784C92.4742 10.706 92.6265 10.2058 92.9343 9.77805C93.2451 9.35026 93.6714 9.01634 94.2131 8.77628C94.7547 8.53622 95.3703 8.41619 96.0597 8.41619C96.7614 8.41619 97.3738 8.53622 97.897 8.77628C98.4233 9.01634 98.8326 9.35026 99.125 9.77805C99.4174 10.2058 99.5682 10.7013 99.5774 11.2646H97.6616Z" fill="#FFFCFF"/>
<rect width="57" height="26" transform="translate(106)" fill="#6C4FD4"/>
<path d="M111.785 18V10.9091H113.751V18H111.785ZM112.773 9.99503C112.48 9.99503 112.23 9.89808 112.02 9.70419C111.814 9.50722 111.711 9.27178 111.711 8.99787C111.711 8.72704 111.814 8.49467 112.02 8.30078C112.23 8.10381 112.48 8.00533 112.773 8.00533C113.065 8.00533 113.314 8.10381 113.521 8.30078C113.73 8.49467 113.835 8.72704 113.835 8.99787C113.835 9.27178 113.73 9.50722 113.521 9.70419C113.314 9.89808 113.065 9.99503 112.773 9.99503ZM115.364 18V8.54545H119.094C119.811 8.54545 120.422 8.68241 120.927 8.95632C121.431 9.22715 121.816 9.60417 122.081 10.0874C122.348 10.5675 122.482 11.1214 122.482 11.7493C122.482 12.3771 122.347 12.9311 122.076 13.4112C121.805 13.8913 121.413 14.2653 120.899 14.533C120.388 14.8008 119.769 14.9347 119.043 14.9347H116.666V13.3327H118.72C119.105 13.3327 119.422 13.2666 119.671 13.1342C119.923 12.9988 120.111 12.8126 120.234 12.5756C120.36 12.3356 120.423 12.0601 120.423 11.7493C120.423 11.4354 120.36 11.1615 120.234 10.9276C120.111 10.6906 119.923 10.5075 119.671 10.3782C119.419 10.2459 119.098 10.1797 118.711 10.1797H117.363V18H115.364ZM125.575 18.1339C125.123 18.1339 124.72 18.0554 124.366 17.8984C124.012 17.7384 123.732 17.503 123.526 17.1921C123.323 16.8782 123.221 16.4873 123.221 16.0195C123.221 15.6256 123.293 15.2947 123.438 15.027C123.583 14.7592 123.78 14.5438 124.029 14.3807C124.278 14.2176 124.561 14.0945 124.878 14.0114C125.198 13.9283 125.534 13.8698 125.885 13.8359C126.297 13.7929 126.629 13.7528 126.882 13.7159C127.134 13.6759 127.317 13.6174 127.431 13.5405C127.545 13.4635 127.602 13.3497 127.602 13.1989V13.1712C127.602 12.8788 127.51 12.6526 127.325 12.4925C127.143 12.3325 126.885 12.2525 126.549 12.2525C126.196 12.2525 125.914 12.331 125.705 12.4879C125.495 12.6418 125.357 12.8357 125.289 13.0696L123.47 12.9219C123.563 12.491 123.744 12.1186 124.015 11.8047C124.286 11.4877 124.635 11.2446 125.063 11.0753C125.494 10.9029 125.992 10.8168 126.559 10.8168C126.953 10.8168 127.33 10.8629 127.69 10.9553C128.053 11.0476 128.374 11.1907 128.655 11.3846C128.938 11.5785 129.161 11.8278 129.324 12.1325C129.487 12.4341 129.569 12.7957 129.569 13.2173V18H127.704V17.0167H127.648C127.534 17.2383 127.382 17.4337 127.191 17.603C127 17.7692 126.771 17.9 126.503 17.9954C126.236 18.0877 125.926 18.1339 125.575 18.1339ZM126.139 16.7766C126.428 16.7766 126.683 16.7197 126.905 16.6058C127.127 16.4889 127.3 16.3319 127.427 16.1349C127.553 15.938 127.616 15.7148 127.616 15.4656V14.7131C127.554 14.7531 127.47 14.79 127.362 14.8239C127.257 14.8546 127.139 14.8839 127.006 14.9116C126.874 14.9362 126.742 14.9593 126.609 14.9808C126.477 14.9993 126.357 15.0162 126.249 15.0316C126.019 15.0655 125.817 15.1193 125.645 15.1932C125.472 15.267 125.338 15.3671 125.243 15.4933C125.148 15.6164 125.1 15.7702 125.1 15.9549C125.1 16.2227 125.197 16.4273 125.391 16.5689C125.588 16.7074 125.837 16.7766 126.139 16.7766ZM133.707 18.1154C133.169 18.1154 132.681 17.9769 132.244 17.6999C131.81 17.4199 131.465 17.009 131.21 16.4673C130.957 15.9226 130.831 15.2547 130.831 14.4638C130.831 13.6513 130.962 12.9757 131.224 12.4371C131.485 11.8955 131.833 11.4908 132.267 11.223C132.704 10.9522 133.183 10.8168 133.703 10.8168C134.1 10.8168 134.431 10.8845 134.695 11.0199C134.963 11.1522 135.178 11.3184 135.342 11.5185C135.508 11.7154 135.634 11.9093 135.72 12.1001H135.78V8.54545H137.742V18H135.803V16.8643H135.72C135.628 17.0613 135.497 17.2567 135.328 17.4506C135.161 17.6415 134.945 17.8 134.677 17.9261C134.412 18.0523 134.089 18.1154 133.707 18.1154ZM134.331 16.5504C134.648 16.5504 134.915 16.4643 135.134 16.2919C135.355 16.1165 135.525 15.8718 135.642 15.5579C135.762 15.244 135.822 14.8762 135.822 14.4545C135.822 14.0329 135.763 13.6667 135.646 13.3558C135.529 13.045 135.36 12.8049 135.138 12.6357C134.917 12.4664 134.648 12.3817 134.331 12.3817C134.007 12.3817 133.735 12.4695 133.513 12.6449C133.292 12.8203 133.124 13.0634 133.01 13.3743C132.896 13.6851 132.839 14.0452 132.839 14.4545C132.839 14.867 132.896 15.2317 133.01 15.5487C133.127 15.8626 133.295 16.1088 133.513 16.2873C133.735 16.4627 134.007 16.5504 134.331 16.5504ZM148.084 13.2727C148.084 14.3037 147.889 15.1809 147.498 15.9041C147.11 16.6274 146.581 17.1798 145.91 17.5614C145.242 17.94 144.491 18.1293 143.657 18.1293C142.817 18.1293 142.063 17.9384 141.395 17.5568C140.727 17.1752 140.199 16.6228 139.811 15.8995C139.424 15.1763 139.23 14.3007 139.23 13.2727C139.23 12.2417 139.424 11.3646 139.811 10.6413C140.199 9.91809 140.727 9.36719 141.395 8.98864C142.063 8.60701 142.817 8.41619 143.657 8.41619C144.491 8.41619 145.242 8.60701 145.91 8.98864C146.581 9.36719 147.11 9.91809 147.498 10.6413C147.889 11.3646 148.084 12.2417 148.084 13.2727ZM146.058 13.2727C146.058 12.6049 145.958 12.0417 145.757 11.5831C145.56 11.1245 145.282 10.7768 144.922 10.5398C144.562 10.3028 144.14 10.1843 143.657 10.1843C143.174 10.1843 142.752 10.3028 142.392 10.5398C142.032 10.7768 141.752 11.1245 141.552 11.5831C141.355 12.0417 141.256 12.6049 141.256 13.2727C141.256 13.9406 141.355 14.5038 141.552 14.9624C141.752 15.4209 142.032 15.7687 142.392 16.0057C142.752 16.2427 143.174 16.3612 143.657 16.3612C144.14 16.3612 144.562 16.2427 144.922 16.0057C145.282 15.7687 145.56 15.4209 145.757 14.9624C145.958 14.5038 146.058 13.9406 146.058 13.2727ZM154.694 11.2646C154.657 10.8922 154.498 10.6029 154.218 10.3967C153.938 10.1905 153.558 10.0874 153.078 10.0874C152.752 10.0874 152.476 10.1335 152.252 10.2259C152.027 10.3151 151.855 10.4397 151.735 10.5998C151.618 10.7598 151.559 10.9414 151.559 11.1445C151.553 11.3138 151.588 11.4615 151.665 11.5877C151.745 11.7139 151.855 11.8232 151.993 11.9155C152.132 12.0047 152.292 12.0832 152.473 12.1509C152.655 12.2156 152.849 12.271 153.055 12.3171L153.904 12.5202C154.317 12.6126 154.695 12.7357 155.04 12.8896C155.385 13.0434 155.683 13.2327 155.936 13.4574C156.188 13.6821 156.383 13.9467 156.522 14.2514C156.664 14.5561 156.736 14.9054 156.739 15.2994C156.736 15.878 156.588 16.3796 156.296 16.8043C156.006 17.226 155.588 17.5537 155.04 17.7876C154.495 18.0185 153.838 18.1339 153.069 18.1339C152.306 18.1339 151.641 18.0169 151.074 17.783C150.511 17.5491 150.071 17.2029 149.754 16.7443C149.44 16.2827 149.276 15.7118 149.26 15.0316H151.195C151.216 15.3486 151.307 15.6133 151.467 15.8256C151.63 16.0349 151.847 16.1934 152.118 16.3011C152.392 16.4058 152.701 16.4581 153.046 16.4581C153.384 16.4581 153.678 16.4089 153.927 16.3104C154.18 16.2119 154.375 16.0749 154.514 15.8995C154.652 15.7241 154.722 15.5225 154.722 15.2947C154.722 15.0824 154.658 14.9039 154.532 14.7592C154.409 14.6146 154.228 14.4915 153.987 14.3899C153.751 14.2884 153.46 14.196 153.115 14.1129L152.085 13.8544C151.288 13.6605 150.659 13.3574 150.197 12.945C149.736 12.5326 149.506 11.977 149.509 11.2784C149.506 10.706 149.659 10.2058 149.967 9.77805C150.277 9.35026 150.704 9.01634 151.245 8.77628C151.787 8.53622 152.402 8.41619 153.092 8.41619C153.794 8.41619 154.406 8.53622 154.929 8.77628C155.456 9.01634 155.865 9.35026 156.157 9.77805C156.45 10.2058 156.6 10.7013 156.61 11.2646H154.694Z" fill="#FFFCFF"/>
<rect width="56" height="26" transform="translate(163)" fill="#8C67FF"/>
<path d="M168.785 18V10.9091H170.659V12.1602H170.742C170.89 11.7447 171.136 11.4169 171.481 11.1768C171.826 10.9368 172.238 10.8168 172.718 10.8168C173.204 10.8168 173.618 10.9383 173.96 11.1815C174.301 11.4215 174.529 11.7478 174.643 12.1602H174.717C174.862 11.7539 175.123 11.4292 175.502 11.1861C175.883 10.9399 176.334 10.8168 176.854 10.8168C177.516 10.8168 178.053 11.0276 178.466 11.4492C178.881 11.8678 179.089 12.4618 179.089 13.2312V18H177.127V13.619C177.127 13.225 177.022 12.9296 176.813 12.7326C176.604 12.5356 176.342 12.4371 176.028 12.4371C175.671 12.4371 175.393 12.551 175.192 12.7788C174.992 13.0034 174.892 13.3004 174.892 13.6697V18H172.986V13.5774C172.986 13.2296 172.886 12.9527 172.686 12.7464C172.489 12.5402 172.229 12.4371 171.906 12.4371C171.687 12.4371 171.49 12.4925 171.315 12.6033C171.142 12.7111 171.005 12.8634 170.904 13.0604C170.802 13.2543 170.751 13.482 170.751 13.7436V18H168.785ZM182.664 18.1339C182.212 18.1339 181.809 18.0554 181.455 17.8984C181.101 17.7384 180.821 17.503 180.615 17.1921C180.411 16.8782 180.31 16.4873 180.31 16.0195C180.31 15.6256 180.382 15.2947 180.527 15.027C180.671 14.7592 180.868 14.5438 181.118 14.3807C181.367 14.2176 181.65 14.0945 181.967 14.0114C182.287 13.9283 182.623 13.8698 182.974 13.8359C183.386 13.7929 183.718 13.7528 183.971 13.7159C184.223 13.6759 184.406 13.6174 184.52 13.5405C184.634 13.4635 184.691 13.3497 184.691 13.1989V13.1712C184.691 12.8788 184.599 12.6526 184.414 12.4925C184.232 12.3325 183.974 12.2525 183.638 12.2525C183.284 12.2525 183.003 12.331 182.794 12.4879C182.584 12.6418 182.446 12.8357 182.378 13.0696L180.559 12.9219C180.651 12.491 180.833 12.1186 181.104 11.8047C181.375 11.4877 181.724 11.2446 182.152 11.0753C182.583 10.9029 183.081 10.8168 183.648 10.8168C184.041 10.8168 184.419 10.8629 184.779 10.9553C185.142 11.0476 185.463 11.1907 185.743 11.3846C186.027 11.5785 186.25 11.8278 186.413 12.1325C186.576 12.4341 186.657 12.7957 186.657 13.2173V18H184.792V17.0167H184.737C184.623 17.2383 184.471 17.4337 184.28 17.603C184.089 17.7692 183.86 17.9 183.592 17.9954C183.324 18.0877 183.015 18.1339 182.664 18.1339ZM183.227 16.7766C183.517 16.7766 183.772 16.7197 183.994 16.6058C184.215 16.4889 184.389 16.3319 184.515 16.1349C184.642 15.938 184.705 15.7148 184.705 15.4656V14.7131C184.643 14.7531 184.559 14.79 184.451 14.8239C184.346 14.8546 184.228 14.8839 184.095 14.9116C183.963 14.9362 183.831 14.9593 183.698 14.9808C183.566 14.9993 183.446 15.0162 183.338 15.0316C183.107 15.0655 182.906 15.1193 182.733 15.1932C182.561 15.267 182.427 15.3671 182.332 15.4933C182.236 15.6164 182.189 15.7702 182.189 15.9549C182.189 16.2227 182.286 16.4273 182.48 16.5689C182.677 16.7074 182.926 16.7766 183.227 16.7766ZM191.387 18.1385C190.661 18.1385 190.036 17.9846 189.513 17.6768C188.993 17.366 188.593 16.9351 188.312 16.3842C188.036 15.8333 187.897 15.1993 187.897 14.4822C187.897 13.7559 188.037 13.1188 188.317 12.571C188.6 12.0201 189.002 11.5908 189.522 11.283C190.042 10.9722 190.661 10.8168 191.378 10.8168C191.996 10.8168 192.538 10.9291 193.003 11.1538C193.468 11.3784 193.835 11.6939 194.106 12.1001C194.377 12.5064 194.526 12.9834 194.554 13.5312H192.698C192.646 13.1773 192.507 12.8926 192.283 12.6772C192.061 12.4587 191.77 12.3494 191.41 12.3494C191.105 12.3494 190.839 12.4325 190.612 12.5987C190.387 12.7618 190.211 13.0004 190.085 13.3143C189.959 13.6282 189.896 14.0083 189.896 14.4545C189.896 14.907 189.958 15.2917 190.081 15.6087C190.207 15.9257 190.384 16.1673 190.612 16.3335C190.839 16.4996 191.105 16.5827 191.41 16.5827C191.635 16.5827 191.836 16.5366 192.015 16.4442C192.196 16.3519 192.346 16.218 192.463 16.0426C192.583 15.8641 192.661 15.6502 192.698 15.4009H194.554C194.523 15.9426 194.375 16.4196 194.111 16.832C193.849 17.2414 193.488 17.5614 193.026 17.7923C192.564 18.0231 192.018 18.1385 191.387 18.1385ZM204.538 13.2727C204.538 14.3037 204.343 15.1809 203.952 15.9041C203.564 16.6274 203.035 17.1798 202.364 17.5614C201.696 17.94 200.945 18.1293 200.111 18.1293C199.271 18.1293 198.517 17.9384 197.849 17.5568C197.181 17.1752 196.653 16.6228 196.266 15.8995C195.878 15.1763 195.684 14.3007 195.684 13.2727C195.684 12.2417 195.878 11.3646 196.266 10.6413C196.653 9.91809 197.181 9.36719 197.849 8.98864C198.517 8.60701 199.271 8.41619 200.111 8.41619C200.945 8.41619 201.696 8.60701 202.364 8.98864C203.035 9.36719 203.564 9.91809 203.952 10.6413C204.343 11.3646 204.538 12.2417 204.538 13.2727ZM202.512 13.2727C202.512 12.6049 202.412 12.0417 202.212 11.5831C202.015 11.1245 201.736 10.7768 201.376 10.5398C201.016 10.3028 200.594 10.1843 200.111 10.1843C199.628 10.1843 199.206 10.3028 198.846 10.5398C198.486 10.7768 198.206 11.1245 198.006 11.5831C197.809 12.0417 197.71 12.6049 197.71 13.2727C197.71 13.9406 197.809 14.5038 198.006 14.9624C198.206 15.4209 198.486 15.7687 198.846 16.0057C199.206 16.2427 199.628 16.3612 200.111 16.3612C200.594 16.3612 201.016 16.2427 201.376 16.0057C201.736 15.7687 202.015 15.4209 202.212 14.9624C202.412 14.5038 202.512 13.9406 202.512 13.2727ZM211.148 11.2646C211.111 10.8922 210.952 10.6029 210.672 10.3967C210.392 10.1905 210.012 10.0874 209.532 10.0874C209.206 10.0874 208.93 10.1335 208.706 10.2259C208.481 10.3151 208.309 10.4397 208.189 10.5998C208.072 10.7598 208.013 10.9414 208.013 11.1445C208.007 11.3138 208.043 11.4615 208.119 11.5877C208.2 11.7139 208.309 11.8232 208.447 11.9155C208.586 12.0047 208.746 12.0832 208.927 12.1509C209.109 12.2156 209.303 12.271 209.509 12.3171L210.358 12.5202C210.771 12.6126 211.149 12.7357 211.494 12.8896C211.839 13.0434 212.137 13.2327 212.39 13.4574C212.642 13.6821 212.838 13.9467 212.976 14.2514C213.118 14.5561 213.19 14.9054 213.193 15.2994C213.19 15.878 213.042 16.3796 212.75 16.8043C212.461 17.226 212.042 17.5537 211.494 17.7876C210.949 18.0185 210.292 18.1339 209.523 18.1339C208.76 18.1339 208.095 18.0169 207.529 17.783C206.965 17.5491 206.525 17.2029 206.208 16.7443C205.894 16.2827 205.73 15.7118 205.714 15.0316H207.649C207.67 15.3486 207.761 15.6133 207.921 15.8256C208.084 16.0349 208.301 16.1934 208.572 16.3011C208.846 16.4058 209.155 16.4581 209.5 16.4581C209.838 16.4581 210.132 16.4089 210.382 16.3104C210.634 16.2119 210.829 16.0749 210.968 15.8995C211.106 15.7241 211.176 15.5225 211.176 15.2947C211.176 15.0824 211.113 14.9039 210.986 14.7592C210.863 14.6146 210.682 14.4915 210.442 14.3899C210.205 14.2884 209.914 14.196 209.569 14.1129L208.54 13.8544C207.742 13.6605 207.113 13.3574 206.651 12.945C206.19 12.5326 205.961 11.977 205.964 11.2784C205.961 10.706 206.113 10.2058 206.421 9.77805C206.731 9.35026 207.158 9.01634 207.699 8.77628C208.241 8.53622 208.857 8.41619 209.546 8.41619C210.248 8.41619 210.86 8.53622 211.383 8.77628C211.91 9.01634 212.319 9.35026 212.611 9.77805C212.904 10.2058 213.055 10.7013 213.064 11.2646H211.148Z" fill="#FFFCFF"/>
<path d="M219 0H249C254.657 0 257.485 0 259.243 1.75736C261 3.51472 261 6.34315 261 12V14C261 19.6569 261 22.4853 259.243 24.2426C257.485 26 254.657 26 249 26H219V0Z" fill="#B686FF"/>
<path d="M228.556 10.9091V12.3864H224.286V10.9091H228.556ZM225.256 9.21023H227.222V15.821C227.222 16.0026 227.25 16.1442 227.305 16.2457C227.361 16.3442 227.438 16.4135 227.536 16.4535C227.638 16.4935 227.755 16.5135 227.887 16.5135C227.979 16.5135 228.072 16.5058 228.164 16.4904C228.256 16.4719 228.327 16.4581 228.376 16.4489L228.686 17.9123C228.587 17.9431 228.449 17.9785 228.27 18.0185C228.092 18.0616 227.875 18.0877 227.619 18.0969C227.145 18.1154 226.73 18.0523 226.373 17.9077C226.019 17.763 225.743 17.5384 225.547 17.2337C225.35 16.929 225.253 16.5443 225.256 16.0795V9.21023ZM236.448 10.9091L233.969 18H231.753L229.274 10.9091H231.352L232.824 15.9826H232.898L234.366 10.9091H236.448ZM246.18 13.2727C246.18 14.3037 245.984 15.1809 245.594 15.9041C245.206 16.6274 244.676 17.1798 244.006 17.5614C243.338 17.94 242.587 18.1293 241.753 18.1293C240.912 18.1293 240.158 17.9384 239.491 17.5568C238.823 17.1752 238.295 16.6228 237.907 15.8995C237.519 15.1763 237.325 14.3007 237.325 13.2727C237.325 12.2417 237.519 11.3646 237.907 10.6413C238.295 9.91809 238.823 9.36719 239.491 8.98864C240.158 8.60701 240.912 8.41619 241.753 8.41619C242.587 8.41619 243.338 8.60701 244.006 8.98864C244.676 9.36719 245.206 9.91809 245.594 10.6413C245.984 11.3646 246.18 12.2417 246.18 13.2727ZM244.153 13.2727C244.153 12.6049 244.053 12.0417 243.853 11.5831C243.656 11.1245 243.378 10.7768 243.018 10.5398C242.657 10.3028 242.236 10.1843 241.753 10.1843C241.269 10.1843 240.848 10.3028 240.488 10.5398C240.128 10.7768 239.848 11.1245 239.648 11.5831C239.451 12.0417 239.352 12.6049 239.352 13.2727C239.352 13.9406 239.451 14.5038 239.648 14.9624C239.848 15.4209 240.128 15.7687 240.488 16.0057C240.848 16.2427 241.269 16.3612 241.753 16.3612C242.236 16.3612 242.657 16.2427 243.018 16.0057C243.378 15.7687 243.656 15.4209 243.853 14.9624C244.053 14.5038 244.153 13.9406 244.153 13.2727ZM252.79 11.2646C252.753 10.8922 252.594 10.6029 252.314 10.3967C252.034 10.1905 251.654 10.0874 251.174 10.0874C250.848 10.0874 250.572 10.1335 250.347 10.2259C250.123 10.3151 249.95 10.4397 249.83 10.5998C249.713 10.7598 249.655 10.9414 249.655 11.1445C249.649 11.3138 249.684 11.4615 249.761 11.5877C249.841 11.7139 249.95 11.8232 250.089 11.9155C250.227 12.0047 250.387 12.0832 250.569 12.1509C250.751 12.2156 250.944 12.271 251.151 12.3171L252 12.5202C252.412 12.6126 252.791 12.7357 253.136 12.8896C253.48 13.0434 253.779 13.2327 254.031 13.4574C254.284 13.6821 254.479 13.9467 254.618 14.2514C254.759 14.5561 254.832 14.9054 254.835 15.2994C254.832 15.878 254.684 16.3796 254.391 16.8043C254.102 17.226 253.684 17.5537 253.136 17.7876C252.591 18.0185 251.934 18.1339 251.165 18.1339C250.401 18.1339 249.736 18.0169 249.17 17.783C248.607 17.5491 248.167 17.2029 247.85 16.7443C247.536 16.2827 247.371 15.7118 247.356 15.0316H249.29C249.312 15.3486 249.403 15.6133 249.563 15.8256C249.726 16.0349 249.943 16.1934 250.214 16.3011C250.487 16.4058 250.797 16.4581 251.141 16.4581C251.48 16.4581 251.774 16.4089 252.023 16.3104C252.276 16.2119 252.471 16.0749 252.609 15.8995C252.748 15.7241 252.817 15.5225 252.817 15.2947C252.817 15.0824 252.754 14.9039 252.628 14.7592C252.505 14.6146 252.323 14.4915 252.083 14.3899C251.846 14.2884 251.555 14.196 251.211 14.1129L250.181 13.8544C249.384 13.6605 248.755 13.3574 248.293 12.945C247.831 12.5326 247.602 11.977 247.605 11.2784C247.602 10.706 247.754 10.2058 248.062 9.77805C248.373 9.35026 248.799 9.01634 249.341 8.77628C249.883 8.53622 250.498 8.41619 251.188 8.41619C251.889 8.41619 252.502 8.53622 253.025 8.77628C253.551 9.01634 253.961 9.35026 254.253 9.77805C254.545 10.2058 254.696 10.7013 254.705 11.2646H252.79Z" fill="#FFFCFF"/>
</svg>
