<svg width="121" height="26" viewBox="0 0 121 26" fill="none" xmlns="http://www.w3.org/2000/svg">
<rect x="2" width="68" height="26" rx="6" fill="#FFCF01"/>
<g clip-path="url(#clip0_1_682)">
<path fill-rule="evenodd" clip-rule="evenodd" d="M17.9791 6C14.1199 6 11 9.20833 11 13.1775C11 16.3502 12.999 19.0359 15.7721 19.9864C16.1189 20.0579 16.2459 19.832 16.2459 19.642C16.2459 19.4756 16.2344 18.9052 16.2344 18.311C14.293 18.7388 13.8887 17.4554 13.8887 17.4554C13.5767 16.6235 13.1144 16.4097 13.1144 16.4097C12.479 15.97 13.1607 15.97 13.1607 15.97C13.8656 16.0176 14.2354 16.7068 14.2354 16.7068C14.8593 17.8 15.8646 17.4911 16.269 17.3009C16.3267 16.8375 16.5117 16.5166 16.7081 16.3384C15.1597 16.172 13.5306 15.5541 13.5306 12.7971C13.5306 12.0129 13.8077 11.3712 14.2469 10.8721C14.1776 10.6939 13.9349 9.95704 14.3163 8.97077C14.3163 8.97077 14.9056 8.7806 16.2343 9.70752C16.8032 9.55041 17.3898 9.47049 17.9791 9.46981C18.5684 9.46981 19.1691 9.55308 19.7239 9.70752C21.0527 8.7806 21.642 8.97077 21.642 8.97077C22.0234 9.95704 21.7806 10.6939 21.7113 10.8721C22.162 11.3712 22.4277 12.0129 22.4277 12.7971C22.4277 15.5541 20.7986 16.1601 19.2386 16.3384C19.4929 16.5642 19.7123 16.9919 19.7123 17.6693C19.7123 18.6318 19.7009 19.4043 19.7009 19.6418C19.7009 19.832 19.828 20.0579 20.1746 19.9866C22.9477 19.0358 24.9467 16.3502 24.9467 13.1775C24.9581 9.20833 21.8269 6 17.9791 6Z" fill="#24292F"/>
</g>
<path d="M32.9506 11.2646C32.9137 10.8922 32.7552 10.6029 32.4751 10.3967C32.1951 10.1905 31.815 10.0874 31.3349 10.0874C31.0086 10.0874 30.7332 10.1335 30.5085 10.2259C30.2839 10.3151 30.1115 10.4397 29.9915 10.5998C29.8745 10.7598 29.8161 10.9414 29.8161 11.1445C29.8099 11.3138 29.8453 11.4615 29.9222 11.5877C30.0022 11.7139 30.1115 11.8232 30.25 11.9155C30.3885 12.0047 30.5485 12.0832 30.7301 12.1509C30.9117 12.2156 31.1056 12.271 31.3118 12.3171L32.1612 12.5202C32.5736 12.6126 32.9522 12.7357 33.2969 12.8896C33.6416 13.0434 33.9401 13.2327 34.1925 13.4574C34.4448 13.6821 34.6403 13.9467 34.7788 14.2514C34.9203 14.5561 34.9927 14.9054 34.9957 15.2994C34.9927 15.878 34.8449 16.3796 34.5526 16.8043C34.2633 17.226 33.8447 17.5537 33.2969 17.7876C32.7521 18.0185 32.0951 18.1339 31.3256 18.1339C30.5624 18.1339 29.8976 18.0169 29.3313 17.783C28.7681 17.5491 28.328 17.2029 28.011 16.7443C27.6971 16.2827 27.5324 15.7118 27.517 15.0316H29.4513C29.4729 15.3486 29.5637 15.6133 29.7237 15.8256C29.8868 16.0349 30.1038 16.1934 30.3746 16.3011C30.6486 16.4058 30.9579 16.4581 31.3026 16.4581C31.6411 16.4581 31.935 16.4089 32.1843 16.3104C32.4367 16.2119 32.6321 16.0749 32.7706 15.8995C32.9091 15.7241 32.9783 15.5225 32.9783 15.2947C32.9783 15.0824 32.9152 14.9039 32.7891 14.7592C32.666 14.6146 32.4844 14.4915 32.2443 14.3899C32.0073 14.2884 31.7165 14.196 31.3718 14.1129L30.3423 13.8544C29.5452 13.6605 28.9158 13.3574 28.4542 12.945C27.9925 12.5326 27.7633 11.977 27.7663 11.2784C27.7633 10.706 27.9156 10.2058 28.2234 9.77805C28.5342 9.35026 28.9605 9.01634 29.5021 8.77628C30.0438 8.53622 30.6593 8.41619 31.3487 8.41619C32.0504 8.41619 32.6629 8.53622 33.1861 8.77628C33.7124 9.01634 34.1217 9.35026 34.4141 9.77805C34.7064 10.2058 34.8572 10.7013 34.8665 11.2646H32.9506ZM40.075 10.9091V12.3864H35.8048V10.9091H40.075ZM36.7742 9.21023H38.7409V15.821C38.7409 16.0026 38.7686 16.1442 38.824 16.2457C38.8794 16.3442 38.9563 16.4135 39.0548 16.4535C39.1563 16.4935 39.2733 16.5135 39.4056 16.5135C39.498 16.5135 39.5903 16.5058 39.6826 16.4904C39.7749 16.4719 39.8457 16.4581 39.895 16.4489L40.2043 17.9123C40.1058 17.9431 39.9673 17.9785 39.7888 18.0185C39.6103 18.0616 39.3933 18.0877 39.1379 18.0969C38.6639 18.1154 38.2484 18.0523 37.8914 17.9077C37.5375 17.763 37.262 17.5384 37.0651 17.2337C36.8681 16.929 36.7712 16.5443 36.7742 16.0795V9.21023ZM43.3781 18.1339C42.9257 18.1339 42.5225 18.0554 42.1686 17.8984C41.8147 17.7384 41.5346 17.503 41.3284 17.1921C41.1253 16.8782 41.0237 16.4873 41.0237 16.0195C41.0237 15.6256 41.096 15.2947 41.2407 15.027C41.3853 14.7592 41.5823 14.5438 41.8316 14.3807C42.0809 14.2176 42.364 14.0945 42.681 14.0114C43.0011 13.9283 43.3366 13.8698 43.6874 13.8359C44.0998 13.7929 44.4322 13.7528 44.6846 13.7159C44.9369 13.6759 45.1201 13.6174 45.2339 13.5405C45.3478 13.4635 45.4047 13.3497 45.4047 13.1989V13.1712C45.4047 12.8788 45.3124 12.6526 45.1278 12.4925C44.9462 12.3325 44.6876 12.2525 44.3522 12.2525C43.9983 12.2525 43.7166 12.331 43.5074 12.4879C43.2981 12.6418 43.1596 12.8357 43.0919 13.0696L41.273 12.9219C41.3653 12.491 41.5469 12.1186 41.8177 11.8047C42.0886 11.4877 42.4379 11.2446 42.8657 11.0753C43.2965 10.9029 43.7951 10.8168 44.3614 10.8168C44.7554 10.8168 45.1324 10.8629 45.4925 10.9553C45.8556 11.0476 46.1772 11.1907 46.4573 11.3846C46.7404 11.5785 46.9636 11.8278 47.1267 12.1325C47.2898 12.4341 47.3714 12.7957 47.3714 13.2173V18H45.5063V17.0167H45.4509C45.337 17.2383 45.1847 17.4337 44.9939 17.603C44.8031 17.7692 44.5738 17.9 44.306 17.9954C44.0383 18.0877 43.729 18.1339 43.3781 18.1339ZM43.9413 16.7766C44.2306 16.7766 44.4861 16.7197 44.7077 16.6058C44.9292 16.4889 45.1031 16.3319 45.2293 16.1349C45.3555 15.938 45.4186 15.7148 45.4186 15.4656V14.7131C45.357 14.7531 45.2724 14.79 45.1647 14.8239C45.06 14.8546 44.9416 14.8839 44.8092 14.9116C44.6769 14.9362 44.5445 14.9593 44.4122 14.9808C44.2799 14.9993 44.1598 15.0162 44.0521 15.0316C43.8213 15.0655 43.6197 15.1193 43.4474 15.1932C43.275 15.267 43.1411 15.3671 43.0457 15.4933C42.9503 15.6164 42.9026 15.7702 42.9026 15.9549C42.9026 16.2227 42.9996 16.4273 43.1934 16.5689C43.3904 16.7074 43.6397 16.7766 43.9413 16.7766ZM48.8971 18V10.9091H50.8037V12.1463H50.8776C51.0068 11.7062 51.2238 11.3738 51.5285 11.1491C51.8332 10.9214 52.184 10.8075 52.5811 10.8075C52.6795 10.8075 52.7857 10.8137 52.8996 10.826C53.0135 10.8383 53.1135 10.8552 53.1997 10.8768V12.6218C53.1073 12.5941 52.9796 12.5695 52.8165 12.5479C52.6534 12.5264 52.5041 12.5156 52.3687 12.5156C52.0794 12.5156 51.8209 12.5787 51.5931 12.7049C51.3685 12.828 51.19 13.0004 51.0576 13.2219C50.9284 13.4435 50.8637 13.699 50.8637 13.9883V18H48.8971ZM60.1163 12.9311L58.3159 13.0419C58.2851 12.888 58.2189 12.7495 58.1174 12.6264C58.0158 12.5002 57.8819 12.4002 57.7157 12.3263C57.5526 12.2494 57.3572 12.2109 57.1294 12.2109C56.8248 12.2109 56.5678 12.2756 56.3585 12.4048C56.1492 12.531 56.0446 12.7003 56.0446 12.9126C56.0446 13.0819 56.1123 13.225 56.2477 13.342C56.3831 13.4589 56.6155 13.5528 56.9448 13.6236L58.2282 13.8821C58.9176 14.0237 59.4315 14.2514 59.7701 14.5653C60.1086 14.8793 60.2779 15.2917 60.2779 15.8026C60.2779 16.2673 60.1409 16.6751 59.867 17.0259C59.5962 17.3768 59.2238 17.6507 58.7498 17.8477C58.2789 18.0415 57.7357 18.1385 57.1202 18.1385C56.1815 18.1385 55.4337 17.9431 54.8766 17.5522C54.3226 17.1583 53.9979 16.6228 53.9025 15.9457L55.8368 15.8441C55.8953 16.1303 56.0369 16.3488 56.2615 16.4996C56.4862 16.6474 56.774 16.7212 57.1248 16.7212C57.4695 16.7212 57.7465 16.6551 57.9558 16.5227C58.1681 16.3873 58.2759 16.2134 58.2789 16.0011C58.2759 15.8226 58.2005 15.6764 58.0527 15.5625C57.905 15.4455 57.6773 15.3563 57.3695 15.2947L56.1415 15.0501C55.449 14.9116 54.9335 14.6715 54.595 14.3299C54.2595 13.9883 54.0918 13.5528 54.0918 13.0234C54.0918 12.5679 54.2149 12.1755 54.4611 11.8462C54.7104 11.5169 55.0597 11.263 55.5091 11.0845C55.9615 10.906 56.4908 10.8168 57.0971 10.8168C57.9927 10.8168 58.6975 11.006 59.2115 11.3846C59.7285 11.7631 60.0301 12.2786 60.1163 12.9311Z" fill="#24292F"/>
<rect x="74.58" width="44" height="26" rx="6" fill="#FFCF01"/>
<path d="M82.1716 16.5597V10.0227H83.8243V16.5597H82.1716ZM79.7295 14.1175V12.4648H86.2664V14.1175H79.7295ZM88.0392 16.3381V14.7638L91.9863 8.54545H93.3435V10.7244H92.5402L90.0519 14.6623V14.7362H95.661V16.3381H88.0392ZM92.5772 18V15.858L92.6141 15.1609V8.54545H94.4884V18H92.5772ZM100.7 18.2077C99.9058 18.2047 99.2226 18.0092 98.6501 17.6214C98.0808 17.2337 97.6422 16.672 97.3344 15.9364C97.0298 15.2009 96.8789 14.3161 96.882 13.282C96.882 12.2509 97.0344 11.3723 97.3391 10.646C97.6468 9.91963 98.0854 9.36719 98.6548 8.98864C99.2272 8.60701 99.9089 8.41619 100.7 8.41619C101.491 8.41619 102.171 8.60701 102.74 8.98864C103.313 9.37026 103.753 9.92424 104.061 10.6506C104.368 11.3738 104.521 12.2509 104.518 13.282C104.518 14.3191 104.364 15.2055 104.056 15.9411C103.751 16.6766 103.314 17.2383 102.745 17.6261C102.176 18.0138 101.494 18.2077 100.7 18.2077ZM100.7 16.5504C101.242 16.5504 101.674 16.2781 101.997 15.7333C102.32 15.1886 102.48 14.3714 102.477 13.282C102.477 12.5649 102.403 11.9678 102.256 11.4908C102.111 11.0137 101.905 10.6552 101.637 10.4151C101.372 10.1751 101.06 10.055 100.7 10.055C100.161 10.055 99.7304 10.3243 99.4072 10.8629C99.0841 11.4015 98.921 12.2079 98.9179 13.282C98.9179 14.0083 98.9902 14.6146 99.1349 15.1009C99.2826 15.584 99.4903 15.9472 99.7581 16.1903C100.026 16.4304 100.34 16.5504 100.7 16.5504ZM109.65 18.2077C108.856 18.2047 108.173 18.0092 107.6 17.6214C107.031 17.2337 106.592 16.672 106.285 15.9364C105.98 15.2009 105.829 14.3161 105.832 13.282C105.832 12.2509 105.985 11.3723 106.289 10.646C106.597 9.91963 107.036 9.36719 107.605 8.98864C108.177 8.60701 108.859 8.41619 109.65 8.41619C110.441 8.41619 111.121 8.60701 111.691 8.98864C112.263 9.37026 112.703 9.92424 113.011 10.6506C113.319 11.3738 113.471 12.2509 113.468 13.282C113.468 14.3191 113.314 15.2055 113.006 15.9411C112.702 16.6766 112.265 17.2383 111.695 17.6261C111.126 18.0138 110.444 18.2077 109.65 18.2077ZM109.65 16.5504C110.192 16.5504 110.624 16.2781 110.947 15.7333C111.27 15.1886 111.43 14.3714 111.427 13.282C111.427 12.5649 111.354 11.9678 111.206 11.4908C111.061 11.0137 110.855 10.6552 110.587 10.4151C110.323 10.1751 110.01 10.055 109.65 10.055C109.111 10.055 108.681 10.3243 108.357 10.8629C108.034 11.4015 107.871 12.2079 107.868 13.282C107.868 14.0083 107.94 14.6146 108.085 15.1009C108.233 15.584 108.441 15.9472 108.708 16.1903C108.976 16.4304 109.29 16.5504 109.65 16.5504Z" fill="#24292F"/>
<path d="M72 13L76.5 8.66987L76.5 17.3301L72 13Z" fill="#FFCF01"/>
<defs>
<clipPath id="clip0_1_682">
<rect width="14" height="14" fill="white" transform="translate(11 6)"/>
</clipPath>
</defs>
</svg>
