<svg width="116" height="26" viewBox="0 0 116 26" fill="none" xmlns="http://www.w3.org/2000/svg">
<rect x="1" width="64" height="26" rx="6" fill="#F0C808"/>
<g clip-path="url(#clip0_1_682)">
<path fill-rule="evenodd" clip-rule="evenodd" d="M13.9791 6C10.1199 6 7 9.20833 7 13.1775C7 16.3502 8.999 19.0359 11.7721 19.9864C12.1189 20.0579 12.2459 19.832 12.2459 19.642C12.2459 19.4756 12.2344 18.9052 12.2344 18.311C10.293 18.7388 9.88871 17.4554 9.88871 17.4554C9.57671 16.6235 9.11443 16.4097 9.11443 16.4097C8.479 15.97 9.16071 15.97 9.16071 15.97C9.86557 16.0176 10.2354 16.7068 10.2354 16.7068C10.8593 17.8 11.8646 17.4911 12.269 17.3009C12.3267 16.8375 12.5117 16.5166 12.7081 16.3384C11.1597 16.172 9.53057 15.5541 9.53057 12.7971C9.53057 12.0129 9.80771 11.3712 10.2469 10.8721C10.1776 10.6939 9.93486 9.95704 10.3163 8.97077C10.3163 8.97077 10.9056 8.7806 12.2343 9.70752C12.8032 9.55041 13.3898 9.47049 13.9791 9.46981C14.5684 9.46981 15.1691 9.55308 15.7239 9.70752C17.0527 8.7806 17.642 8.97077 17.642 8.97077C18.0234 9.95704 17.7806 10.6939 17.7113 10.8721C18.162 11.3712 18.4277 12.0129 18.4277 12.7971C18.4277 15.5541 16.7986 16.1601 15.2386 16.3384C15.4929 16.5642 15.7123 16.9919 15.7123 17.6693C15.7123 18.6318 15.7009 19.4043 15.7009 19.6418C15.7009 19.832 15.828 20.0579 16.1746 19.9866C18.9477 19.0358 20.9467 16.3502 20.9467 13.1775C20.9581 9.20833 17.8269 6 13.9791 6Z" fill="#0D1117"/>
</g>
<path d="M30.9506 11.2646C30.9137 10.8922 30.7552 10.6029 30.4751 10.3967C30.1951 10.1905 29.815 10.0874 29.3349 10.0874C29.0086 10.0874 28.7332 10.1335 28.5085 10.2259C28.2839 10.3151 28.1115 10.4397 27.9915 10.5998C27.8745 10.7598 27.8161 10.9414 27.8161 11.1445C27.8099 11.3138 27.8453 11.4615 27.9222 11.5877C28.0022 11.7139 28.1115 11.8232 28.25 11.9155C28.3885 12.0047 28.5485 12.0832 28.7301 12.1509C28.9117 12.2156 29.1056 12.271 29.3118 12.3171L30.1612 12.5202C30.5736 12.6126 30.9522 12.7357 31.2969 12.8896C31.6416 13.0434 31.9401 13.2327 32.1925 13.4574C32.4448 13.6821 32.6403 13.9467 32.7788 14.2514C32.9203 14.5561 32.9927 14.9054 32.9957 15.2994C32.9927 15.878 32.8449 16.3796 32.5526 16.8043C32.2633 17.226 31.8447 17.5537 31.2969 17.7876C30.7521 18.0185 30.0951 18.1339 29.3256 18.1339C28.5624 18.1339 27.8976 18.0169 27.3313 17.783C26.7681 17.5491 26.328 17.2029 26.011 16.7443C25.6971 16.2827 25.5324 15.7118 25.517 15.0316H27.4513C27.4729 15.3486 27.5637 15.6133 27.7237 15.8256C27.8868 16.0349 28.1038 16.1934 28.3746 16.3011C28.6486 16.4058 28.9579 16.4581 29.3026 16.4581C29.6411 16.4581 29.935 16.4089 30.1843 16.3104C30.4367 16.2119 30.6321 16.0749 30.7706 15.8995C30.9091 15.7241 30.9783 15.5225 30.9783 15.2947C30.9783 15.0824 30.9152 14.9039 30.7891 14.7592C30.666 14.6146 30.4844 14.4915 30.2443 14.3899C30.0073 14.2884 29.7165 14.196 29.3718 14.1129L28.3423 13.8544C27.5452 13.6605 26.9158 13.3574 26.4542 12.945C25.9925 12.5326 25.7633 11.977 25.7663 11.2784C25.7633 10.706 25.9156 10.2058 26.2234 9.77805C26.5342 9.35026 26.9605 9.01634 27.5021 8.77628C28.0438 8.53622 28.6593 8.41619 29.3487 8.41619C30.0504 8.41619 30.6629 8.53622 31.1861 8.77628C31.7124 9.01634 32.1217 9.35026 32.4141 9.77805C32.7064 10.2058 32.8572 10.7013 32.8665 11.2646H30.9506ZM38.075 10.9091V12.3864H33.8048V10.9091H38.075ZM34.7742 9.21023H36.7409V15.821C36.7409 16.0026 36.7686 16.1442 36.824 16.2457C36.8794 16.3442 36.9563 16.4135 37.0548 16.4535C37.1563 16.4935 37.2733 16.5135 37.4056 16.5135C37.498 16.5135 37.5903 16.5058 37.6826 16.4904C37.7749 16.4719 37.8457 16.4581 37.895 16.4489L38.2043 17.9123C38.1058 17.9431 37.9673 17.9785 37.7888 18.0185C37.6103 18.0616 37.3933 18.0877 37.1379 18.0969C36.6639 18.1154 36.2484 18.0523 35.8914 17.9077C35.5375 17.763 35.262 17.5384 35.0651 17.2337C34.8681 16.929 34.7712 16.5443 34.7742 16.0795V9.21023ZM41.3781 18.1339C40.9257 18.1339 40.5225 18.0554 40.1686 17.8984C39.8147 17.7384 39.5346 17.503 39.3284 17.1921C39.1253 16.8782 39.0237 16.4873 39.0237 16.0195C39.0237 15.6256 39.096 15.2947 39.2407 15.027C39.3853 14.7592 39.5823 14.5438 39.8316 14.3807C40.0809 14.2176 40.364 14.0945 40.681 14.0114C41.0011 13.9283 41.3366 13.8698 41.6874 13.8359C42.0998 13.7929 42.4322 13.7528 42.6846 13.7159C42.9369 13.6759 43.1201 13.6174 43.2339 13.5405C43.3478 13.4635 43.4047 13.3497 43.4047 13.1989V13.1712C43.4047 12.8788 43.3124 12.6526 43.1278 12.4925C42.9462 12.3325 42.6876 12.2525 42.3522 12.2525C41.9983 12.2525 41.7166 12.331 41.5074 12.4879C41.2981 12.6418 41.1596 12.8357 41.0919 13.0696L39.273 12.9219C39.3653 12.491 39.5469 12.1186 39.8177 11.8047C40.0886 11.4877 40.4379 11.2446 40.8657 11.0753C41.2965 10.9029 41.7951 10.8168 42.3614 10.8168C42.7554 10.8168 43.1324 10.8629 43.4925 10.9553C43.8556 11.0476 44.1772 11.1907 44.4573 11.3846C44.7404 11.5785 44.9636 11.8278 45.1267 12.1325C45.2898 12.4341 45.3714 12.7957 45.3714 13.2173V18H43.5063V17.0167H43.4509C43.337 17.2383 43.1847 17.4337 42.9939 17.603C42.8031 17.7692 42.5738 17.9 42.306 17.9954C42.0383 18.0877 41.729 18.1339 41.3781 18.1339ZM41.9413 16.7766C42.2306 16.7766 42.4861 16.7197 42.7077 16.6058C42.9292 16.4889 43.1031 16.3319 43.2293 16.1349C43.3555 15.938 43.4186 15.7148 43.4186 15.4656V14.7131C43.357 14.7531 43.2724 14.79 43.1647 14.8239C43.06 14.8546 42.9416 14.8839 42.8092 14.9116C42.6769 14.9362 42.5445 14.9593 42.4122 14.9808C42.2799 14.9993 42.1598 15.0162 42.0521 15.0316C41.8213 15.0655 41.6197 15.1193 41.4474 15.1932C41.275 15.267 41.1411 15.3671 41.0457 15.4933C40.9503 15.6164 40.9026 15.7702 40.9026 15.9549C40.9026 16.2227 40.9996 16.4273 41.1934 16.5689C41.3904 16.7074 41.6397 16.7766 41.9413 16.7766ZM46.8971 18V10.9091H48.8037V12.1463H48.8776C49.0068 11.7062 49.2238 11.3738 49.5285 11.1491C49.8332 10.9214 50.184 10.8075 50.5811 10.8075C50.6795 10.8075 50.7857 10.8137 50.8996 10.826C51.0135 10.8383 51.1135 10.8552 51.1997 10.8768V12.6218C51.1073 12.5941 50.9796 12.5695 50.8165 12.5479C50.6534 12.5264 50.5041 12.5156 50.3687 12.5156C50.0794 12.5156 49.8209 12.5787 49.5931 12.7049C49.3685 12.828 49.19 13.0004 49.0576 13.2219C48.9284 13.4435 48.8637 13.699 48.8637 13.9883V18H46.8971ZM58.1163 12.9311L56.3159 13.0419C56.2851 12.888 56.2189 12.7495 56.1174 12.6264C56.0158 12.5002 55.8819 12.4002 55.7157 12.3263C55.5526 12.2494 55.3572 12.2109 55.1294 12.2109C54.8248 12.2109 54.5678 12.2756 54.3585 12.4048C54.1492 12.531 54.0446 12.7003 54.0446 12.9126C54.0446 13.0819 54.1123 13.225 54.2477 13.342C54.3831 13.4589 54.6155 13.5528 54.9448 13.6236L56.2282 13.8821C56.9176 14.0237 57.4315 14.2514 57.7701 14.5653C58.1086 14.8793 58.2779 15.2917 58.2779 15.8026C58.2779 16.2673 58.1409 16.6751 57.867 17.0259C57.5962 17.3768 57.2238 17.6507 56.7498 17.8477C56.2789 18.0415 55.7357 18.1385 55.1202 18.1385C54.1815 18.1385 53.4337 17.9431 52.8766 17.5522C52.3226 17.1583 51.9979 16.6228 51.9025 15.9457L53.8368 15.8441C53.8953 16.1303 54.0369 16.3488 54.2615 16.4996C54.4862 16.6474 54.774 16.7212 55.1248 16.7212C55.4695 16.7212 55.7465 16.6551 55.9558 16.5227C56.1681 16.3873 56.2759 16.2134 56.2789 16.0011C56.2759 15.8226 56.2005 15.6764 56.0527 15.5625C55.905 15.4455 55.6773 15.3563 55.3695 15.2947L54.1415 15.0501C53.449 14.9116 52.9335 14.6715 52.595 14.3299C52.2595 13.9883 52.0918 13.5528 52.0918 13.0234C52.0918 12.5679 52.2149 12.1755 52.4611 11.8462C52.7104 11.5169 53.0597 11.263 53.5091 11.0845C53.9615 10.906 54.4908 10.8168 55.0971 10.8168C55.9927 10.8168 56.6975 11.006 57.2115 11.3846C57.7285 11.7631 58.0301 12.2786 58.1163 12.9311Z" fill="#0D1117"/>
<rect x="69.58" width="45" height="26" rx="6" fill="#F0C808"/>
<path d="M78.8733 18.1293C78.1624 18.1293 77.5299 18.0138 76.976 17.783C76.4251 17.5491 75.9926 17.2306 75.6787 16.8274C75.3648 16.4242 75.2078 15.9672 75.2078 15.4563C75.2078 15.0624 75.2971 14.7008 75.4756 14.3714C75.6572 14.0391 75.9034 13.7636 76.2142 13.5451C76.5251 13.3235 76.8729 13.1819 77.2576 13.1204V13.0558C76.7528 12.9542 76.3435 12.7095 76.0296 12.3217C75.7157 11.9309 75.5587 11.4769 75.5587 10.9599C75.5587 10.4705 75.7018 10.035 75.988 9.65341C76.2742 9.2687 76.6666 8.96709 77.1652 8.74858C77.6669 8.52699 78.2363 8.41619 78.8733 8.41619C79.5104 8.41619 80.0782 8.52699 80.5768 8.74858C81.0785 8.97017 81.4724 9.27332 81.7586 9.65803C82.0448 10.0397 82.1895 10.4736 82.1926 10.9599C82.1895 11.48 82.0295 11.9339 81.7125 12.3217C81.3955 12.7095 80.9892 12.9542 80.4937 13.0558V13.1204C80.8723 13.1819 81.2154 13.3235 81.5232 13.5451C81.834 13.7636 82.0802 14.0391 82.2618 14.3714C82.4465 14.7008 82.5403 15.0624 82.5434 15.4563C82.5403 15.9672 82.3818 16.4242 82.0679 16.8274C81.754 17.2306 81.3201 17.5491 80.7661 17.783C80.2152 18.0138 79.5843 18.1293 78.8733 18.1293ZM78.8733 16.6612C79.1903 16.6612 79.4673 16.6043 79.7043 16.4904C79.9413 16.3735 80.1259 16.2134 80.2583 16.0103C80.3937 15.8041 80.4614 15.5671 80.4614 15.2994C80.4614 15.0254 80.3921 14.7839 80.2537 14.5746C80.1152 14.3622 79.9274 14.196 79.6904 14.076C79.4535 13.9529 79.1811 13.8913 78.8733 13.8913C78.5686 13.8913 78.2963 13.9529 78.0562 14.076C77.8162 14.196 77.6269 14.3622 77.4884 14.5746C77.353 14.7839 77.2853 15.0254 77.2853 15.2994C77.2853 15.5671 77.3514 15.8041 77.4838 16.0103C77.6161 16.2134 77.8023 16.3735 78.0424 16.4904C78.2824 16.6043 78.5594 16.6612 78.8733 16.6612ZM78.8733 12.4371C79.138 12.4371 79.3734 12.3833 79.5796 12.2756C79.7858 12.1679 79.9474 12.0186 80.0644 11.8278C80.1813 11.637 80.2398 11.4169 80.2398 11.1676C80.2398 10.9214 80.1813 10.706 80.0644 10.5213C79.9474 10.3336 79.7874 10.1874 79.5843 10.0827C79.3811 9.97502 79.1442 9.92116 78.8733 9.92116C78.6056 9.92116 78.3686 9.97502 78.1624 10.0827C77.9562 10.1874 77.7946 10.3336 77.6777 10.5213C77.5638 10.706 77.5068 10.9214 77.5068 11.1676C77.5068 11.4169 77.5653 11.637 77.6823 11.8278C77.7992 12.0186 77.9608 12.1679 78.167 12.2756C78.3732 12.3833 78.6086 12.4371 78.8733 12.4371ZM87.3619 8.41619C87.8481 8.41619 88.3159 8.49775 88.7653 8.66087C89.2177 8.82398 89.6209 9.08404 89.9748 9.44105C90.3318 9.79806 90.6134 10.272 90.8196 10.8629C91.0289 11.4508 91.1351 12.1725 91.1382 13.0281C91.1382 13.8313 91.0474 14.5484 90.8658 15.1793C90.6873 15.8072 90.4303 16.3411 90.0948 16.7812C89.7594 17.2214 89.3547 17.5568 88.8807 17.7876C88.4067 18.0154 87.8774 18.1293 87.2926 18.1293C86.6617 18.1293 86.1047 18.0077 85.6215 17.7646C85.1383 17.5183 84.7489 17.1844 84.4535 16.7628C84.1611 16.3381 83.9842 15.861 83.9226 15.3317H85.8938C85.9708 15.6764 86.1324 15.9441 86.3786 16.1349C86.6248 16.3227 86.9295 16.4165 87.2926 16.4165C87.9082 16.4165 88.376 16.1488 88.696 15.6133C89.0161 15.0747 89.1777 14.3376 89.1808 13.402H89.1161C88.9746 13.679 88.7837 13.9175 88.5437 14.1175C88.3036 14.3145 88.0282 14.4669 87.7173 14.5746C87.4096 14.6823 87.0818 14.7362 86.734 14.7362C86.177 14.7362 85.6799 14.6054 85.2429 14.3438C84.8059 14.0821 84.4612 13.7221 84.2088 13.2635C83.9565 12.8049 83.8303 12.2817 83.8303 11.6939C83.8272 11.0599 83.9734 10.4951 84.2688 9.99964C84.5643 9.50414 84.9767 9.11636 85.506 8.83629C86.0385 8.55315 86.6571 8.41312 87.3619 8.41619ZM87.3757 9.98579C87.0649 9.98579 86.7879 10.0597 86.5448 10.2074C86.3047 10.3551 86.1139 10.5536 85.9723 10.8029C85.8338 11.0522 85.7661 11.3307 85.7692 11.6385C85.7692 11.9493 85.8369 12.2294 85.9723 12.4787C86.1108 12.7249 86.2985 12.9219 86.5355 13.0696C86.7756 13.2143 87.0495 13.2866 87.3573 13.2866C87.5881 13.2866 87.802 13.2435 87.9989 13.1573C88.1959 13.0711 88.3667 12.9527 88.5114 12.8018C88.6591 12.648 88.7745 12.471 88.8576 12.271C88.9407 12.0709 88.9823 11.8585 88.9823 11.6339C88.9792 11.3353 88.9084 11.0614 88.7699 10.8121C88.6314 10.5629 88.4406 10.3628 88.1975 10.212C87.9543 10.0612 87.6804 9.98579 87.3757 9.98579ZM96.2301 18.2077C95.4361 18.2047 94.7529 18.0092 94.1804 17.6214C93.611 17.2337 93.1725 16.672 92.8647 15.9364C92.56 15.2009 92.4092 14.3161 92.4123 13.282C92.4123 12.2509 92.5646 11.3723 92.8693 10.646C93.1771 9.91963 93.6157 9.36719 94.185 8.98864C94.7575 8.60701 95.4392 8.41619 96.2301 8.41619C97.0211 8.41619 97.7012 8.60701 98.2706 8.98864C98.8431 9.37026 99.2832 9.92424 99.5909 10.6506C99.8987 11.3738 100.051 12.2509 100.048 13.282C100.048 14.3191 99.8941 15.2055 99.5863 15.9411C99.2816 16.6766 98.8446 17.2383 98.2752 17.6261C97.7059 18.0138 97.0242 18.2077 96.2301 18.2077ZM96.2301 16.5504C96.7718 16.5504 97.2042 16.2781 97.5274 15.7333C97.8505 15.1886 98.0105 14.3714 98.0075 13.282C98.0075 12.5649 97.9336 11.9678 97.7859 11.4908C97.6412 11.0137 97.435 10.6552 97.1673 10.4151C96.9026 10.1751 96.5902 10.055 96.2301 10.055C95.6915 10.055 95.2607 10.3243 94.9375 10.8629C94.6144 11.4015 94.4512 12.2079 94.4482 13.282C94.4482 14.0083 94.5205 14.6146 94.6651 15.1009C94.8129 15.584 95.0206 15.9472 95.2884 16.1903C95.5561 16.4304 95.87 16.5504 96.2301 16.5504Z" fill="#0D1117"/>
<path d="M104.421 16.729V10.8846H105.21V16.729H104.421ZM101.891 14.1992V13.4144H107.74V14.1992H101.891Z" fill="#0D1117"/>
<path d="M67.6541 14.0904C67.0276 13.4984 67.0276 12.5016 67.6541 11.9096L72.2199 7.59611C73.1764 6.69242 74.75 7.37055 74.75 8.68646L74.75 17.3135C74.75 18.6295 73.1764 19.3076 72.2199 18.4039L67.6541 14.0904Z" fill="#F0C808"/>
<defs>
<clipPath id="clip0_1_682">
<rect width="14" height="14" fill="white" transform="translate(7 6)"/>
</clipPath>
</defs>
</svg>
