<svg width="179" height="26" viewBox="0 0 179 26" fill="none" xmlns="http://www.w3.org/2000/svg">
<path d="M1 12C1 6.34315 1 3.51472 2.75736 1.75736C4.51472 0 7.34315 0 13 0H60V26H13C7.34315 26 4.51472 26 2.75736 24.2426C1 22.4853 1 19.6569 1 14V12Z" fill="#3F3F3F"/>
<path d="M8.52983 8.54545L10.815 15.7287H10.9027L13.1925 8.54545H15.4084L12.1491 18H9.57315L6.3093 8.54545H8.52983ZM18.9411 18.1385C18.2117 18.1385 17.5839 17.9908 17.0576 17.6953C16.5344 17.3968 16.1312 16.9751 15.8481 16.4304C15.565 15.8826 15.4234 15.2347 15.4234 14.4869C15.4234 13.7575 15.565 13.1173 15.8481 12.5664C16.1312 12.0155 16.5298 11.5862 17.0438 11.2784C17.5608 10.9706 18.1671 10.8168 18.8627 10.8168C19.3305 10.8168 19.766 10.8922 20.1691 11.043C20.5754 11.1907 20.9293 11.4138 21.2309 11.7124C21.5356 12.0109 21.7726 12.3864 21.9419 12.8388C22.1111 13.2881 22.1958 13.8144 22.1958 14.4176V14.9577H16.2082V13.739H20.3445C20.3445 13.4558 20.283 13.205 20.1599 12.9865C20.0368 12.768 19.866 12.5972 19.6475 12.4741C19.432 12.3479 19.1812 12.2848 18.895 12.2848C18.5964 12.2848 18.3318 12.354 18.1009 12.4925C17.8732 12.628 17.6947 12.8111 17.5654 13.0419C17.4362 13.2696 17.37 13.5236 17.3669 13.8036V14.9624C17.3669 15.3132 17.4316 15.6164 17.5608 15.8718C17.6932 16.1272 17.8794 16.3242 18.1194 16.4627C18.3595 16.6012 18.6441 16.6705 18.9735 16.6705C19.192 16.6705 19.392 16.6397 19.5736 16.5781C19.7552 16.5166 19.9106 16.4242 20.0399 16.3011C20.1691 16.178 20.2676 16.0272 20.3353 15.8487L22.1542 15.9688C22.0619 16.4058 21.8726 16.7874 21.5864 17.1136C21.3032 17.4368 20.937 17.6892 20.4877 17.8707C20.0414 18.0492 19.5259 18.1385 18.9411 18.1385ZM23.4791 18V10.9091H25.3857V12.1463H25.4596C25.5889 11.7062 25.8058 11.3738 26.1105 11.1491C26.4152 10.9214 26.7661 10.8075 27.1631 10.8075C27.2616 10.8075 27.3677 10.8137 27.4816 10.826C27.5955 10.8383 27.6955 10.8552 27.7817 10.8768V12.6218C27.6894 12.5941 27.5616 12.5695 27.3985 12.5479C27.2354 12.5264 27.0861 12.5156 26.9507 12.5156C26.6614 12.5156 26.4029 12.5787 26.1752 12.7049C25.9505 12.828 25.772 13.0004 25.6396 13.2219C25.5104 13.4435 25.4458 13.699 25.4458 13.9883V18H23.4791ZM34.6983 12.9311L32.8979 13.0419C32.8671 12.888 32.801 12.7495 32.6994 12.6264C32.5978 12.5002 32.464 12.4002 32.2978 12.3263C32.1346 12.2494 31.9392 12.2109 31.7115 12.2109C31.4068 12.2109 31.1498 12.2756 30.9405 12.4048C30.7312 12.531 30.6266 12.7003 30.6266 12.9126C30.6266 13.0819 30.6943 13.225 30.8297 13.342C30.9651 13.4589 31.1975 13.5528 31.5268 13.6236L32.8102 13.8821C33.4996 14.0237 34.0136 14.2514 34.3521 14.5653C34.6906 14.8793 34.8599 15.2917 34.8599 15.8026C34.8599 16.2673 34.723 16.6751 34.449 17.0259C34.1782 17.3768 33.8058 17.6507 33.3319 17.8477C32.861 18.0415 32.3178 18.1385 31.7022 18.1385C30.7636 18.1385 30.0157 17.9431 29.4586 17.5522C28.9047 17.1583 28.58 16.6228 28.4846 15.9457L30.4189 15.8441C30.4773 16.1303 30.6189 16.3488 30.8436 16.4996C31.0682 16.6474 31.356 16.7212 31.7069 16.7212C32.0516 16.7212 32.3285 16.6551 32.5378 16.5227C32.7502 16.3873 32.8579 16.2134 32.861 16.0011C32.8579 15.8226 32.7825 15.6764 32.6348 15.5625C32.487 15.4455 32.2593 15.3563 31.9515 15.2947L30.7235 15.0501C30.0311 14.9116 29.5156 14.6715 29.177 14.3299C28.8416 13.9883 28.6738 13.5528 28.6738 13.0234C28.6738 12.5679 28.7969 12.1755 29.0431 11.8462C29.2924 11.5169 29.6417 11.263 30.0911 11.0845C30.5435 10.906 31.0729 10.8168 31.6792 10.8168C32.5748 10.8168 33.2795 11.006 33.7935 11.3846C34.3105 11.7631 34.6122 12.2786 34.6983 12.9311ZM36.0983 18V10.9091H38.0649V18H36.0983ZM37.0862 9.99503C36.7938 9.99503 36.543 9.89808 36.3337 9.70419C36.1275 9.50722 36.0244 9.27178 36.0244 8.99787C36.0244 8.72704 36.1275 8.49467 36.3337 8.30078C36.543 8.10381 36.7938 8.00533 37.0862 8.00533C37.3786 8.00533 37.6279 8.10381 37.8341 8.30078C38.0434 8.49467 38.148 8.72704 38.148 8.99787C38.148 9.27178 38.0434 9.50722 37.8341 9.70419C37.6279 9.89808 37.3786 9.99503 37.0862 9.99503ZM42.8441 18.1385C42.127 18.1385 41.5069 17.9862 40.9837 17.6815C40.4635 17.3737 40.0619 16.9459 39.7788 16.3981C39.4956 15.8472 39.354 15.2086 39.354 14.4822C39.354 13.7498 39.4956 13.1096 39.7788 12.5618C40.0619 12.0109 40.4635 11.5831 40.9837 11.2784C41.5069 10.9706 42.127 10.8168 42.8441 10.8168C43.5612 10.8168 44.1798 10.9706 44.6999 11.2784C45.2231 11.5831 45.6263 12.0109 45.9094 12.5618C46.1926 13.1096 46.3342 13.7498 46.3342 14.4822C46.3342 15.2086 46.1926 15.8472 45.9094 16.3981C45.6263 16.9459 45.2231 17.3737 44.6999 17.6815C44.1798 17.9862 43.5612 18.1385 42.8441 18.1385ZM42.8533 16.6151C43.1796 16.6151 43.4519 16.5227 43.6705 16.3381C43.889 16.1503 44.0536 15.8949 44.1644 15.5717C44.2783 15.2486 44.3352 14.8808 44.3352 14.4684C44.3352 14.056 44.2783 13.6882 44.1644 13.3651C44.0536 13.0419 43.889 12.7865 43.6705 12.5987C43.4519 12.411 43.1796 12.3171 42.8533 12.3171C42.524 12.3171 42.247 12.411 42.0224 12.5987C41.8008 12.7865 41.633 13.0419 41.5192 13.3651C41.4084 13.6882 41.353 14.056 41.353 14.4684C41.353 14.8808 41.4084 15.2486 41.5192 15.5717C41.633 15.8949 41.8008 16.1503 42.0224 16.3381C42.247 16.5227 42.524 16.6151 42.8533 16.6151ZM49.5795 13.9006V18H47.6129V10.9091H49.4872V12.1602H49.5703C49.7273 11.7478 49.9904 11.4215 50.3597 11.1815C50.729 10.9383 51.1768 10.8168 51.7031 10.8168C52.1955 10.8168 52.6249 10.9245 52.9911 11.1399C53.3574 11.3554 53.642 11.6631 53.8452 12.0632C54.0483 12.4602 54.1499 12.9342 54.1499 13.4851V18H52.1832V13.8359C52.1863 13.402 52.0755 13.0634 51.8509 12.8203C51.6262 12.5741 51.3169 12.451 50.9229 12.451C50.6583 12.451 50.4244 12.5079 50.2212 12.6218C50.0212 12.7357 49.8642 12.9019 49.7504 13.1204C49.6396 13.3358 49.5826 13.5959 49.5795 13.9006Z" fill="white"/>
<rect width="40" height="26" transform="translate(60)" fill="#533DA3"/>
<path d="M65.7663 18V16.5597L69.1317 13.4435C69.418 13.1665 69.658 12.9173 69.8519 12.6957C70.0489 12.4741 70.1982 12.2571 70.2997 12.0447C70.4013 11.8293 70.4521 11.5969 70.4521 11.3477C70.4521 11.0707 70.389 10.8321 70.2628 10.6321C70.1366 10.429 69.9643 10.2736 69.7457 10.1658C69.5272 10.055 69.2795 9.99964 69.0025 9.99964C68.7132 9.99964 68.4608 10.0581 68.2454 10.1751C68.0299 10.292 67.8638 10.4598 67.7468 10.6783C67.6299 10.8968 67.5714 11.1568 67.5714 11.4585H65.674C65.674 10.8398 65.814 10.3028 66.0941 9.8473C66.3742 9.39181 66.7666 9.03942 67.2713 8.79013C67.776 8.54084 68.3577 8.41619 69.0163 8.41619C69.6934 8.41619 70.2828 8.53622 70.7844 8.77628C71.2892 9.01326 71.6816 9.34257 71.9616 9.7642C72.2417 10.1858 72.3817 10.669 72.3817 11.2138C72.3817 11.5708 72.311 11.9232 72.1694 12.271C72.0309 12.6187 71.7831 13.005 71.4261 13.4297C71.0691 13.8513 70.5659 14.3576 69.9165 14.9485L68.5362 16.3011V16.3658H72.5064V18H65.7663ZM75.1228 18.12C74.8181 18.12 74.5565 18.0123 74.338 17.7969C74.1225 17.5784 74.0148 17.3168 74.0148 17.0121C74.0148 16.7105 74.1225 16.4519 74.338 16.2365C74.5565 16.0211 74.8181 15.9134 75.1228 15.9134C75.4182 15.9134 75.6768 16.0211 75.8983 16.2365C76.1199 16.4519 76.2307 16.7105 76.2307 17.0121C76.2307 17.2152 76.1784 17.4014 76.0738 17.5707C75.9722 17.7369 75.8383 17.8707 75.6721 17.9723C75.5059 18.0708 75.3228 18.12 75.1228 18.12ZM81.0169 18.1293C80.3275 18.1293 79.7135 18.0108 79.1749 17.7738C78.6394 17.5337 78.2162 17.2044 77.9054 16.7859C77.5976 16.3642 77.4391 15.878 77.4299 15.3271H79.4426C79.455 15.5579 79.5304 15.761 79.6689 15.9364C79.8104 16.1088 79.9982 16.2427 80.2321 16.3381C80.466 16.4335 80.7291 16.4812 81.0215 16.4812C81.3262 16.4812 81.5955 16.4273 81.8294 16.3196C82.0633 16.2119 82.2464 16.0626 82.3787 15.8718C82.5111 15.681 82.5772 15.4609 82.5772 15.2116C82.5772 14.9593 82.5065 14.7362 82.3649 14.5423C82.2264 14.3453 82.0263 14.1914 81.7647 14.0806C81.5062 13.9698 81.1984 13.9144 80.8414 13.9144H79.9597V12.4464H80.8414C81.1431 12.4464 81.4093 12.3941 81.6401 12.2894C81.874 12.1848 82.0556 12.0401 82.1848 11.8555C82.3141 11.6677 82.3787 11.4492 82.3787 11.1999C82.3787 10.9629 82.3218 10.7552 82.2079 10.5767C82.0971 10.3951 81.9402 10.2536 81.737 10.152C81.537 10.0504 81.3031 9.99964 81.0353 9.99964C80.7645 9.99964 80.5167 10.0489 80.2921 10.1474C80.0674 10.2428 79.8874 10.3797 79.752 10.5582C79.6165 10.7367 79.5442 10.946 79.535 11.1861H77.6191C77.6284 10.6413 77.7838 10.1612 78.0854 9.74574C78.387 9.33026 78.7933 9.00556 79.3042 8.77166C79.8181 8.53468 80.3983 8.41619 81.0446 8.41619C81.697 8.41619 82.2679 8.53468 82.7573 8.77166C83.2466 9.00864 83.6267 9.32872 83.8975 9.73189C84.1715 10.132 84.3069 10.5813 84.3038 11.0799C84.3069 11.6093 84.1422 12.0509 83.8098 12.4048C83.4805 12.7588 83.0512 12.9834 82.5218 13.0788V13.1527C83.2174 13.242 83.7467 13.4835 84.1099 13.8775C84.4761 14.2683 84.6577 14.7577 84.6547 15.3455C84.6577 15.8841 84.5023 16.3627 84.1884 16.7812C83.8775 17.1998 83.4482 17.5291 82.9004 17.7692C82.3526 18.0092 81.7247 18.1293 81.0169 18.1293ZM86.9929 18.12C86.6882 18.12 86.4266 18.0123 86.2081 17.7969C85.9927 17.5784 85.8849 17.3168 85.8849 17.0121C85.8849 16.7105 85.9927 16.4519 86.2081 16.2365C86.4266 16.0211 86.6882 15.9134 86.9929 15.9134C87.2884 15.9134 87.5469 16.0211 87.7685 16.2365C87.9901 16.4519 88.1009 16.7105 88.1009 17.0121C88.1009 17.2152 88.0485 17.4014 87.9439 17.5707C87.8423 17.7369 87.7085 17.8707 87.5423 17.9723C87.3761 18.0708 87.1929 18.12 86.9929 18.12ZM92.6296 8.54545V18H90.6307V10.4428H90.5753L88.4102 11.8001V10.0273L90.7507 8.54545H92.6296Z" fill="white"/>
<path d="M100 0H166C171.657 0 174.485 0 176.243 1.75736C178 3.51472 178 6.34315 178 12V14C178 19.6569 178 22.4853 176.243 24.2426C174.485 26 171.657 26 166 26H100V0Z" fill="#6C4FD4"/>
<path d="M107.451 18H105.309L108.573 8.54545H111.149L114.408 18H112.266L109.898 10.706H109.824L107.451 18ZM107.317 14.2837H112.377V15.8441H107.317V14.2837ZM115.509 20.6591V10.9091H117.448V12.1001H117.536C117.622 11.9093 117.747 11.7154 117.91 11.5185C118.076 11.3184 118.292 11.1522 118.556 11.0199C118.824 10.8845 119.156 10.8168 119.553 10.8168C120.07 10.8168 120.548 10.9522 120.985 11.223C121.422 11.4908 121.771 11.8955 122.032 12.4371C122.294 12.9757 122.425 13.6513 122.425 14.4638C122.425 15.2547 122.297 15.9226 122.042 16.4673C121.789 17.009 121.445 17.4199 121.008 17.6999C120.574 17.9769 120.087 18.1154 119.549 18.1154C119.167 18.1154 118.843 18.0523 118.575 17.9261C118.31 17.8 118.093 17.6415 117.924 17.4506C117.755 17.2567 117.625 17.0613 117.536 16.8643H117.476V20.6591H115.509ZM117.434 14.4545C117.434 14.8762 117.493 15.244 117.61 15.5579C117.727 15.8718 117.896 16.1165 118.118 16.2919C118.339 16.4643 118.609 16.5504 118.926 16.5504C119.246 16.5504 119.517 16.4627 119.738 16.2873C119.96 16.1088 120.127 15.8626 120.241 15.5487C120.358 15.2317 120.417 14.867 120.417 14.4545C120.417 14.0452 120.36 13.6851 120.246 13.3743C120.132 13.0634 119.964 12.8203 119.743 12.6449C119.521 12.4695 119.249 12.3817 118.926 12.3817C118.606 12.3817 118.335 12.4664 118.113 12.6357C117.895 12.8049 117.727 13.045 117.61 13.3558C117.493 13.6667 117.434 14.0329 117.434 14.4545ZM123.736 18V10.9091H125.643V12.1463H125.716C125.846 11.7062 126.063 11.3738 126.367 11.1491C126.672 10.9214 127.023 10.8075 127.42 10.8075C127.518 10.8075 127.625 10.8137 127.738 10.826C127.852 10.8383 127.952 10.8552 128.039 10.8768V12.6218C127.946 12.5941 127.818 12.5695 127.655 12.5479C127.492 12.5264 127.343 12.5156 127.208 12.5156C126.918 12.5156 126.66 12.5787 126.432 12.7049C126.207 12.828 126.029 13.0004 125.896 13.2219C125.767 13.4435 125.703 13.699 125.703 13.9883V18H123.736ZM129.055 18V10.9091H131.022V18H129.055ZM130.043 9.99503C129.751 9.99503 129.5 9.89808 129.291 9.70419C129.085 9.50722 128.981 9.27178 128.981 8.99787C128.981 8.72704 129.085 8.49467 129.291 8.30078C129.5 8.10381 129.751 8.00533 130.043 8.00533C130.336 8.00533 130.585 8.10381 130.791 8.30078C131 8.49467 131.105 8.72704 131.105 8.99787C131.105 9.27178 131 9.50722 130.791 9.70419C130.585 9.89808 130.336 9.99503 130.043 9.99503ZM134.564 8.54545V18H132.597V8.54545H134.564ZM139.13 18V16.5597L142.495 13.4435C142.781 13.1665 143.021 12.9173 143.215 12.6957C143.412 12.4741 143.561 12.2571 143.663 12.0447C143.765 11.8293 143.815 11.5969 143.815 11.3477C143.815 11.0707 143.752 10.8321 143.626 10.6321C143.5 10.429 143.328 10.2736 143.109 10.1658C142.891 10.055 142.643 9.99964 142.366 9.99964C142.076 9.99964 141.824 10.0581 141.609 10.1751C141.393 10.292 141.227 10.4598 141.11 10.6783C140.993 10.8968 140.935 11.1568 140.935 11.4585H139.037C139.037 10.8398 139.177 10.3028 139.457 9.8473C139.737 9.39181 140.13 9.03942 140.635 8.79013C141.139 8.54084 141.721 8.41619 142.38 8.41619C143.057 8.41619 143.646 8.53622 144.148 8.77628C144.652 9.01326 145.045 9.34257 145.325 9.7642C145.605 10.1858 145.745 10.669 145.745 11.2138C145.745 11.5708 145.674 11.9232 145.533 12.271C145.394 12.6187 145.146 13.005 144.789 13.4297C144.432 13.8513 143.929 14.3576 143.28 14.9485L141.9 16.3011V16.3658H145.87V18H139.13ZM151.025 18.2077C150.231 18.2047 149.548 18.0092 148.975 17.6214C148.406 17.2337 147.967 16.672 147.66 15.9364C147.355 15.2009 147.204 14.3161 147.207 13.282C147.207 12.2509 147.36 11.3723 147.664 10.646C147.972 9.91963 148.411 9.36719 148.98 8.98864C149.552 8.60701 150.234 8.41619 151.025 8.41619C151.816 8.41619 152.496 8.60701 153.066 8.98864C153.638 9.37026 154.078 9.92424 154.386 10.6506C154.694 11.3738 154.846 12.2509 154.843 13.282C154.843 14.3191 154.689 15.2055 154.381 15.9411C154.077 16.6766 153.64 17.2383 153.07 17.6261C152.501 18.0138 151.819 18.2077 151.025 18.2077ZM151.025 16.5504C151.567 16.5504 151.999 16.2781 152.322 15.7333C152.646 15.1886 152.806 14.3714 152.802 13.282C152.802 12.5649 152.729 11.9678 152.581 11.4908C152.436 11.0137 152.23 10.6552 151.962 10.4151C151.698 10.1751 151.385 10.055 151.025 10.055C150.487 10.055 150.056 10.3243 149.733 10.8629C149.409 11.4015 149.246 12.2079 149.243 13.282C149.243 14.0083 149.315 14.6146 149.46 15.1009C149.608 15.584 149.816 15.9472 150.083 16.1903C150.351 16.4304 150.665 16.5504 151.025 16.5504ZM156.268 18V16.5597L159.634 13.4435C159.92 13.1665 160.16 12.9173 160.354 12.6957C160.551 12.4741 160.7 12.2571 160.802 12.0447C160.903 11.8293 160.954 11.5969 160.954 11.3477C160.954 11.0707 160.891 10.8321 160.765 10.6321C160.639 10.429 160.466 10.2736 160.248 10.1658C160.029 10.055 159.781 9.99964 159.504 9.99964C159.215 9.99964 158.963 10.0581 158.747 10.1751C158.532 10.292 158.366 10.4598 158.249 10.6783C158.132 10.8968 158.073 11.1568 158.073 11.4585H156.176C156.176 10.8398 156.316 10.3028 156.596 9.8473C156.876 9.39181 157.269 9.03942 157.773 8.79013C158.278 8.54084 158.86 8.41619 159.518 8.41619C160.195 8.41619 160.785 8.53622 161.286 8.77628C161.791 9.01326 162.184 9.34257 162.464 9.7642C162.744 10.1858 162.884 10.669 162.884 11.2138C162.884 11.5708 162.813 11.9232 162.671 12.271C162.533 12.6187 162.285 13.005 161.928 13.4297C161.571 13.8513 161.068 14.3576 160.419 14.9485L159.038 16.3011V16.3658H163.008V18H156.268ZM164.111 16.3381V14.7638L168.058 8.54545H169.415V10.7244H168.612L166.123 14.6623V14.7362H171.732V16.3381H164.111ZM168.649 18V15.858L168.685 15.1609V8.54545H170.56V18H168.649Z" fill="white"/>
</svg>
