<svg width="198" height="26" viewBox="0 0 198 26" fill="none" xmlns="http://www.w3.org/2000/svg">
<path d="M1 12C1 6.34315 1 3.51472 2.75736 1.75736C4.51472 0 7.34315 0 13 0H60V26H13C7.34315 26 4.51472 26 2.75736 24.2426C1 22.4853 1 19.6569 1 14V12Z" fill="#3F3F3F"/>
<path d="M8.52983 8.54545L10.815 15.7287H10.9027L13.1925 8.54545H15.4084L12.1491 18H9.57315L6.3093 8.54545H8.52983ZM18.9411 18.1385C18.2117 18.1385 17.5839 17.9908 17.0576 17.6953C16.5344 17.3968 16.1312 16.9751 15.8481 16.4304C15.565 15.8826 15.4234 15.2347 15.4234 14.4869C15.4234 13.7575 15.565 13.1173 15.8481 12.5664C16.1312 12.0155 16.5298 11.5862 17.0438 11.2784C17.5608 10.9706 18.1671 10.8168 18.8627 10.8168C19.3305 10.8168 19.766 10.8922 20.1691 11.043C20.5754 11.1907 20.9293 11.4138 21.2309 11.7124C21.5356 12.0109 21.7726 12.3864 21.9419 12.8388C22.1111 13.2881 22.1958 13.8144 22.1958 14.4176V14.9577H16.2082V13.739H20.3445C20.3445 13.4558 20.283 13.205 20.1599 12.9865C20.0368 12.768 19.866 12.5972 19.6475 12.4741C19.432 12.3479 19.1812 12.2848 18.895 12.2848C18.5964 12.2848 18.3318 12.354 18.1009 12.4925C17.8732 12.628 17.6947 12.8111 17.5654 13.0419C17.4362 13.2696 17.37 13.5236 17.3669 13.8036V14.9624C17.3669 15.3132 17.4316 15.6164 17.5608 15.8718C17.6932 16.1272 17.8794 16.3242 18.1194 16.4627C18.3595 16.6012 18.6441 16.6705 18.9735 16.6705C19.192 16.6705 19.392 16.6397 19.5736 16.5781C19.7552 16.5166 19.9106 16.4242 20.0399 16.3011C20.1691 16.178 20.2676 16.0272 20.3353 15.8487L22.1542 15.9688C22.0619 16.4058 21.8726 16.7874 21.5864 17.1136C21.3032 17.4368 20.937 17.6892 20.4877 17.8707C20.0414 18.0492 19.5259 18.1385 18.9411 18.1385ZM23.4791 18V10.9091H25.3857V12.1463H25.4596C25.5889 11.7062 25.8058 11.3738 26.1105 11.1491C26.4152 10.9214 26.7661 10.8075 27.1631 10.8075C27.2616 10.8075 27.3677 10.8137 27.4816 10.826C27.5955 10.8383 27.6955 10.8552 27.7817 10.8768V12.6218C27.6894 12.5941 27.5616 12.5695 27.3985 12.5479C27.2354 12.5264 27.0861 12.5156 26.9507 12.5156C26.6614 12.5156 26.4029 12.5787 26.1752 12.7049C25.9505 12.828 25.772 13.0004 25.6396 13.2219C25.5104 13.4435 25.4458 13.699 25.4458 13.9883V18H23.4791ZM34.6983 12.9311L32.8979 13.0419C32.8671 12.888 32.801 12.7495 32.6994 12.6264C32.5978 12.5002 32.464 12.4002 32.2978 12.3263C32.1346 12.2494 31.9392 12.2109 31.7115 12.2109C31.4068 12.2109 31.1498 12.2756 30.9405 12.4048C30.7312 12.531 30.6266 12.7003 30.6266 12.9126C30.6266 13.0819 30.6943 13.225 30.8297 13.342C30.9651 13.4589 31.1975 13.5528 31.5268 13.6236L32.8102 13.8821C33.4996 14.0237 34.0136 14.2514 34.3521 14.5653C34.6906 14.8793 34.8599 15.2917 34.8599 15.8026C34.8599 16.2673 34.723 16.6751 34.449 17.0259C34.1782 17.3768 33.8058 17.6507 33.3319 17.8477C32.861 18.0415 32.3178 18.1385 31.7022 18.1385C30.7636 18.1385 30.0157 17.9431 29.4586 17.5522C28.9047 17.1583 28.58 16.6228 28.4846 15.9457L30.4189 15.8441C30.4773 16.1303 30.6189 16.3488 30.8436 16.4996C31.0682 16.6474 31.356 16.7212 31.7069 16.7212C32.0516 16.7212 32.3285 16.6551 32.5378 16.5227C32.7502 16.3873 32.8579 16.2134 32.861 16.0011C32.8579 15.8226 32.7825 15.6764 32.6348 15.5625C32.487 15.4455 32.2593 15.3563 31.9515 15.2947L30.7235 15.0501C30.0311 14.9116 29.5156 14.6715 29.177 14.3299C28.8416 13.9883 28.6738 13.5528 28.6738 13.0234C28.6738 12.5679 28.7969 12.1755 29.0431 11.8462C29.2924 11.5169 29.6417 11.263 30.0911 11.0845C30.5435 10.906 31.0729 10.8168 31.6792 10.8168C32.5748 10.8168 33.2795 11.006 33.7935 11.3846C34.3105 11.7631 34.6122 12.2786 34.6983 12.9311ZM36.0983 18V10.9091H38.0649V18H36.0983ZM37.0862 9.99503C36.7938 9.99503 36.543 9.89808 36.3337 9.70419C36.1275 9.50722 36.0244 9.27178 36.0244 8.99787C36.0244 8.72704 36.1275 8.49467 36.3337 8.30078C36.543 8.10381 36.7938 8.00533 37.0862 8.00533C37.3786 8.00533 37.6279 8.10381 37.8341 8.30078C38.0434 8.49467 38.148 8.72704 38.148 8.99787C38.148 9.27178 38.0434 9.50722 37.8341 9.70419C37.6279 9.89808 37.3786 9.99503 37.0862 9.99503ZM42.8441 18.1385C42.127 18.1385 41.5069 17.9862 40.9837 17.6815C40.4635 17.3737 40.0619 16.9459 39.7788 16.3981C39.4956 15.8472 39.354 15.2086 39.354 14.4822C39.354 13.7498 39.4956 13.1096 39.7788 12.5618C40.0619 12.0109 40.4635 11.5831 40.9837 11.2784C41.5069 10.9706 42.127 10.8168 42.8441 10.8168C43.5612 10.8168 44.1798 10.9706 44.6999 11.2784C45.2231 11.5831 45.6263 12.0109 45.9094 12.5618C46.1926 13.1096 46.3342 13.7498 46.3342 14.4822C46.3342 15.2086 46.1926 15.8472 45.9094 16.3981C45.6263 16.9459 45.2231 17.3737 44.6999 17.6815C44.1798 17.9862 43.5612 18.1385 42.8441 18.1385ZM42.8533 16.6151C43.1796 16.6151 43.4519 16.5227 43.6705 16.3381C43.889 16.1503 44.0536 15.8949 44.1644 15.5717C44.2783 15.2486 44.3352 14.8808 44.3352 14.4684C44.3352 14.056 44.2783 13.6882 44.1644 13.3651C44.0536 13.0419 43.889 12.7865 43.6705 12.5987C43.4519 12.411 43.1796 12.3171 42.8533 12.3171C42.524 12.3171 42.247 12.411 42.0224 12.5987C41.8008 12.7865 41.633 13.0419 41.5192 13.3651C41.4084 13.6882 41.353 14.056 41.353 14.4684C41.353 14.8808 41.4084 15.2486 41.5192 15.5717C41.633 15.8949 41.8008 16.1503 42.0224 16.3381C42.247 16.5227 42.524 16.6151 42.8533 16.6151ZM49.5795 13.9006V18H47.6129V10.9091H49.4872V12.1602H49.5703C49.7273 11.7478 49.9904 11.4215 50.3597 11.1815C50.729 10.9383 51.1768 10.8168 51.7031 10.8168C52.1955 10.8168 52.6249 10.9245 52.9911 11.1399C53.3574 11.3554 53.642 11.6631 53.8452 12.0632C54.0483 12.4602 54.1499 12.9342 54.1499 13.4851V18H52.1832V13.8359C52.1863 13.402 52.0755 13.0634 51.8509 12.8203C51.6262 12.5741 51.3169 12.451 50.9229 12.451C50.6583 12.451 50.4244 12.5079 50.2212 12.6218C50.0212 12.7357 49.8642 12.9019 49.7504 13.1204C49.6396 13.3358 49.5826 13.5959 49.5795 13.9006Z" fill="white"/>
<rect width="43" height="26" transform="translate(60)" fill="#533DA3"/>
<path d="M65.7663 18V16.5597L69.1317 13.4435C69.418 13.1665 69.658 12.9173 69.8519 12.6957C70.0489 12.4741 70.1982 12.2571 70.2997 12.0447C70.4013 11.8293 70.4521 11.5969 70.4521 11.3477C70.4521 11.0707 70.389 10.8321 70.2628 10.6321C70.1366 10.429 69.9643 10.2736 69.7457 10.1658C69.5272 10.055 69.2795 9.99964 69.0025 9.99964C68.7132 9.99964 68.4608 10.0581 68.2454 10.1751C68.0299 10.292 67.8638 10.4598 67.7468 10.6783C67.6299 10.8968 67.5714 11.1568 67.5714 11.4585H65.674C65.674 10.8398 65.814 10.3028 66.0941 9.8473C66.3742 9.39181 66.7666 9.03942 67.2713 8.79013C67.776 8.54084 68.3577 8.41619 69.0163 8.41619C69.6934 8.41619 70.2828 8.53622 70.7844 8.77628C71.2892 9.01326 71.6816 9.34257 71.9616 9.7642C72.2417 10.1858 72.3817 10.669 72.3817 11.2138C72.3817 11.5708 72.311 11.9232 72.1694 12.271C72.0309 12.6187 71.7831 13.005 71.4261 13.4297C71.0691 13.8513 70.5659 14.3576 69.9165 14.9485L68.5362 16.3011V16.3658H72.5064V18H65.7663ZM75.1228 18.12C74.8181 18.12 74.5565 18.0123 74.338 17.7969C74.1225 17.5784 74.0148 17.3168 74.0148 17.0121C74.0148 16.7105 74.1225 16.4519 74.338 16.2365C74.5565 16.0211 74.8181 15.9134 75.1228 15.9134C75.4182 15.9134 75.6768 16.0211 75.8983 16.2365C76.1199 16.4519 76.2307 16.7105 76.2307 17.0121C76.2307 17.2152 76.1784 17.4014 76.0738 17.5707C75.9722 17.7369 75.8383 17.8707 75.6721 17.9723C75.5059 18.0708 75.3228 18.12 75.1228 18.12ZM81.0746 18.1293C80.5883 18.1262 80.119 18.0446 79.6665 17.8846C79.2172 17.7246 78.814 17.4645 78.457 17.1044C78.1 16.7443 77.8169 16.2673 77.6076 15.6733C77.4014 15.0793 77.2983 14.3499 77.2983 13.4851C77.3014 12.6911 77.3922 11.9817 77.5707 11.3569C77.7522 10.729 78.0108 10.1966 78.3462 9.75959C78.6848 9.32256 79.0895 8.99017 79.5604 8.76243C80.0313 8.5316 80.5591 8.41619 81.1438 8.41619C81.7747 8.41619 82.3318 8.5393 82.815 8.78551C83.2982 9.02865 83.686 9.35949 83.9783 9.77805C84.2738 10.1966 84.4523 10.666 84.5138 11.1861H82.5426C82.4657 10.8568 82.3041 10.5982 82.0579 10.4105C81.8117 10.2228 81.507 10.1289 81.1438 10.1289C80.5283 10.1289 80.0605 10.3967 79.7404 10.9322C79.4234 11.4677 79.2618 12.1955 79.2557 13.1158H79.3203C79.4619 12.8357 79.6527 12.5972 79.8928 12.4002C80.1359 12.2002 80.4113 12.0478 80.7191 11.9432C81.0299 11.8355 81.3577 11.7816 81.7024 11.7816C82.2625 11.7816 82.7611 11.9139 83.1982 12.1786C83.6352 12.4402 83.9799 12.8003 84.2322 13.2589C84.4846 13.7174 84.6108 14.2422 84.6108 14.8331C84.6108 15.4732 84.4615 16.0426 84.163 16.5412C83.8675 17.0398 83.4536 17.4306 82.9212 17.7138C82.3918 17.9938 81.7763 18.1323 81.0746 18.1293ZM81.0653 16.5597C81.3731 16.5597 81.6486 16.4858 81.8917 16.3381C82.1348 16.1903 82.3256 15.9903 82.4641 15.7379C82.6026 15.4856 82.6719 15.2024 82.6719 14.8885C82.6719 14.5746 82.6026 14.293 82.4641 14.0437C82.3287 13.7944 82.141 13.5959 81.9009 13.4482C81.6609 13.3004 81.387 13.2266 81.0792 13.2266C80.8484 13.2266 80.6345 13.2696 80.4375 13.3558C80.2436 13.442 80.0728 13.562 79.9251 13.7159C79.7804 13.8698 79.6665 14.0483 79.5835 14.2514C79.5004 14.4515 79.4588 14.6654 79.4588 14.8931C79.4588 15.1978 79.5281 15.4763 79.6665 15.7287C79.8081 15.9811 79.9989 16.1826 80.239 16.3335C80.4821 16.4843 80.7576 16.5597 81.0653 16.5597ZM86.8025 18.12C86.4978 18.12 86.2362 18.0123 86.0177 17.7969C85.8022 17.5784 85.6945 17.3168 85.6945 17.0121C85.6945 16.7105 85.8022 16.4519 86.0177 16.2365C86.2362 16.0211 86.4978 15.9134 86.8025 15.9134C87.0979 15.9134 87.3564 16.0211 87.578 16.2365C87.7996 16.4519 87.9104 16.7105 87.9104 17.0121C87.9104 17.2152 87.8581 17.4014 87.7535 17.5707C87.6519 17.7369 87.518 17.8707 87.3518 17.9723C87.1856 18.0708 87.0025 18.12 86.8025 18.12ZM92.8327 18.2077C92.0387 18.2047 91.3555 18.0092 90.783 17.6214C90.2137 17.2337 89.7751 16.672 89.4673 15.9364C89.1626 15.2009 89.0118 14.3161 89.0149 13.282C89.0149 12.2509 89.1673 11.3723 89.4719 10.646C89.7797 9.91963 90.2183 9.36719 90.7876 8.98864C91.3601 8.60701 92.0418 8.41619 92.8327 8.41619C93.6237 8.41619 94.3039 8.60701 94.8732 8.98864C95.4457 9.37026 95.8858 9.92424 96.1935 10.6506C96.5013 11.3738 96.6536 12.2509 96.6506 13.282C96.6506 14.3191 96.4967 15.2055 96.1889 15.9411C95.8842 16.6766 95.4472 17.2383 94.8778 17.6261C94.3085 18.0138 93.6268 18.2077 92.8327 18.2077ZM92.8327 16.5504C93.3744 16.5504 93.8068 16.2781 94.13 15.7333C94.4531 15.1886 94.6132 14.3714 94.6101 13.282C94.6101 12.5649 94.5362 11.9678 94.3885 11.4908C94.2438 11.0137 94.0376 10.6552 93.7699 10.4151C93.5052 10.1751 93.1928 10.055 92.8327 10.055C92.2942 10.055 91.8633 10.3243 91.5401 10.8629C91.217 11.4015 91.0539 12.2079 91.0508 13.282C91.0508 14.0083 91.1231 14.6146 91.2678 15.1009C91.4155 15.584 91.6232 15.9472 91.891 16.1903C92.1587 16.4304 92.4727 16.5504 92.8327 16.5504Z" fill="white"/>
<path d="M103 0H185C190.657 0 193.485 0 195.243 1.75736C197 3.51472 197 6.34315 197 12V14C197 19.6569 197 22.4853 195.243 24.2426C193.485 26 190.657 26 185 26H103V0Z" fill="#6C4FD4"/>
<path d="M110.451 18H108.309L111.573 8.54545H114.149L117.408 18H115.266L112.898 10.706H112.824L110.451 18ZM110.317 14.2837H115.377V15.8441H110.317V14.2837ZM123.057 14.9808V10.9091H125.023V18H123.135V16.712H123.061C122.901 17.1275 122.635 17.4614 122.263 17.7138C121.893 17.9661 121.442 18.0923 120.91 18.0923C120.436 18.0923 120.019 17.9846 119.659 17.7692C119.299 17.5537 119.017 17.2475 118.814 16.8505C118.614 16.4535 118.512 15.978 118.509 15.424V10.9091H120.476V15.0732C120.479 15.4917 120.591 15.8226 120.813 16.0657C121.035 16.3088 121.332 16.4304 121.704 16.4304C121.941 16.4304 122.163 16.3765 122.369 16.2688C122.575 16.158 122.741 15.9949 122.867 15.7795C122.997 15.564 123.06 15.2978 123.057 14.9808ZM129.791 20.8068C129.154 20.8068 128.608 20.7191 128.152 20.5437C127.7 20.3713 127.34 20.1359 127.072 19.8374C126.804 19.5388 126.63 19.2034 126.55 18.831L128.369 18.5863C128.424 18.7279 128.512 18.8602 128.632 18.9833C128.752 19.1064 128.911 19.2049 129.108 19.2788C129.308 19.3557 129.551 19.3942 129.837 19.3942C130.265 19.3942 130.617 19.2895 130.894 19.0803C131.174 18.8741 131.314 18.5278 131.314 18.0415V16.7443H131.231C131.145 16.9413 131.016 17.1275 130.843 17.3029C130.671 17.4783 130.45 17.6214 130.179 17.7322C129.908 17.843 129.585 17.8984 129.209 17.8984C128.677 17.8984 128.192 17.7753 127.755 17.5291C127.321 17.2798 126.975 16.8997 126.716 16.3888C126.461 15.8749 126.333 15.2255 126.333 14.4407C126.333 13.6374 126.464 12.9665 126.726 12.4279C126.987 11.8893 127.335 11.4862 127.769 11.2184C128.206 10.9506 128.685 10.8168 129.205 10.8168C129.602 10.8168 129.934 10.8845 130.202 11.0199C130.47 11.1522 130.685 11.3184 130.848 11.5185C131.014 11.7154 131.142 11.9093 131.231 12.1001H131.305V10.9091H133.258V18.0692C133.258 18.6725 133.11 19.1772 132.815 19.5835C132.519 19.9897 132.11 20.2944 131.587 20.4975C131.067 20.7037 130.468 20.8068 129.791 20.8068ZM129.832 16.4212C130.149 16.4212 130.417 16.3427 130.636 16.1857C130.857 16.0257 131.027 15.7979 131.144 15.5025C131.264 15.204 131.324 14.8469 131.324 14.4315C131.324 14.016 131.265 13.6559 131.148 13.3512C131.031 13.0434 130.862 12.8049 130.64 12.6357C130.419 12.4664 130.149 12.3817 129.832 12.3817C129.509 12.3817 129.237 12.4695 129.015 12.6449C128.794 12.8172 128.626 13.0573 128.512 13.3651C128.398 13.6728 128.341 14.0283 128.341 14.4315C128.341 14.8408 128.398 15.1947 128.512 15.4933C128.629 15.7887 128.797 16.018 129.015 16.1811C129.237 16.3411 129.509 16.4212 129.832 16.4212ZM139.37 14.9808V10.9091H141.337V18H139.449V16.712H139.375C139.215 17.1275 138.948 17.4614 138.576 17.7138C138.207 17.9661 137.756 18.0923 137.223 18.0923C136.749 18.0923 136.332 17.9846 135.972 17.7692C135.612 17.5537 135.331 17.2475 135.128 16.8505C134.928 16.4535 134.826 15.978 134.823 15.424V10.9091H136.79V15.0732C136.793 15.4917 136.905 15.8226 137.127 16.0657C137.348 16.3088 137.645 16.4304 138.017 16.4304C138.254 16.4304 138.476 16.3765 138.682 16.2688C138.888 16.158 139.055 15.9949 139.181 15.7795C139.31 15.564 139.373 15.2978 139.37 14.9808ZM148.81 12.9311L147.009 13.0419C146.978 12.888 146.912 12.7495 146.811 12.6264C146.709 12.5002 146.575 12.4002 146.409 12.3263C146.246 12.2494 146.051 12.2109 145.823 12.2109C145.518 12.2109 145.261 12.2756 145.052 12.4048C144.843 12.531 144.738 12.7003 144.738 12.9126C144.738 13.0819 144.806 13.225 144.941 13.342C145.076 13.4589 145.309 13.5528 145.638 13.6236L146.922 13.8821C147.611 14.0237 148.125 14.2514 148.463 14.5653C148.802 14.8793 148.971 15.2917 148.971 15.8026C148.971 16.2673 148.834 16.6751 148.56 17.0259C148.29 17.3768 147.917 17.6507 147.443 17.8477C146.972 18.0415 146.429 18.1385 145.814 18.1385C144.875 18.1385 144.127 17.9431 143.57 17.5522C143.016 17.1583 142.691 16.6228 142.596 15.9457L144.53 15.8441C144.589 16.1303 144.73 16.3488 144.955 16.4996C145.18 16.6474 145.467 16.7212 145.818 16.7212C146.163 16.7212 146.44 16.6551 146.649 16.5227C146.862 16.3873 146.969 16.2134 146.972 16.0011C146.969 15.8226 146.894 15.6764 146.746 15.5625C146.598 15.4455 146.371 15.3563 146.063 15.2947L144.835 15.0501C144.142 14.9116 143.627 14.6715 143.288 14.3299C142.953 13.9883 142.785 13.5528 142.785 13.0234C142.785 12.5679 142.908 12.1755 143.154 11.8462C143.404 11.5169 143.753 11.263 144.202 11.0845C144.655 10.906 145.184 10.8168 145.79 10.8168C146.686 10.8168 147.391 11.006 147.905 11.3846C148.422 11.7631 148.723 12.2786 148.81 12.9311ZM153.981 10.9091V12.3864H149.711V10.9091H153.981ZM150.68 9.21023H152.647V15.821C152.647 16.0026 152.675 16.1442 152.73 16.2457C152.786 16.3442 152.863 16.4135 152.961 16.4535C153.063 16.4935 153.18 16.5135 153.312 16.5135C153.404 16.5135 153.497 16.5058 153.589 16.4904C153.681 16.4719 153.752 16.4581 153.801 16.4489L154.111 17.9123C154.012 17.9431 153.874 17.9785 153.695 18.0185C153.517 18.0616 153.3 18.0877 153.044 18.0969C152.57 18.1154 152.155 18.0523 151.798 17.9077C151.444 17.763 151.168 17.5384 150.971 17.2337C150.774 16.929 150.677 16.5443 150.68 16.0795V9.21023ZM158.253 18V16.5597L161.618 13.4435C161.904 13.1665 162.144 12.9173 162.338 12.6957C162.535 12.4741 162.684 12.2571 162.786 12.0447C162.888 11.8293 162.938 11.5969 162.938 11.3477C162.938 11.0707 162.875 10.8321 162.749 10.6321C162.623 10.429 162.451 10.2736 162.232 10.1658C162.014 10.055 161.766 9.99964 161.489 9.99964C161.2 9.99964 160.947 10.0581 160.732 10.1751C160.516 10.292 160.35 10.4598 160.233 10.6783C160.116 10.8968 160.058 11.1568 160.058 11.4585H158.16C158.16 10.8398 158.3 10.3028 158.58 9.8473C158.86 9.39181 159.253 9.03942 159.758 8.79013C160.262 8.54084 160.844 8.41619 161.503 8.41619C162.18 8.41619 162.769 8.53622 163.271 8.77628C163.776 9.01326 164.168 9.34257 164.448 9.7642C164.728 10.1858 164.868 10.669 164.868 11.2138C164.868 11.5708 164.797 11.9232 164.656 12.271C164.517 12.6187 164.269 13.005 163.912 13.4297C163.555 13.8513 163.052 14.3576 162.403 14.9485L161.023 16.3011V16.3658H164.993V18H158.253ZM170.148 18.2077C169.354 18.2047 168.671 18.0092 168.098 17.6214C167.529 17.2337 167.091 16.672 166.783 15.9364C166.478 15.2009 166.327 14.3161 166.33 13.282C166.33 12.2509 166.483 11.3723 166.787 10.646C167.095 9.91963 167.534 9.36719 168.103 8.98864C168.676 8.60701 169.357 8.41619 170.148 8.41619C170.939 8.41619 171.619 8.60701 172.189 8.98864C172.761 9.37026 173.201 9.92424 173.509 10.6506C173.817 11.3738 173.969 12.2509 173.966 13.282C173.966 14.3191 173.812 15.2055 173.504 15.9411C173.2 16.6766 172.763 17.2383 172.193 17.6261C171.624 18.0138 170.942 18.2077 170.148 18.2077ZM170.148 16.5504C170.69 16.5504 171.122 16.2781 171.445 15.7333C171.769 15.1886 171.929 14.3714 171.926 13.282C171.926 12.5649 171.852 11.9678 171.704 11.4908C171.559 11.0137 171.353 10.6552 171.085 10.4151C170.821 10.1751 170.508 10.055 170.148 10.055C169.61 10.055 169.179 10.3243 168.856 10.8629C168.532 11.4015 168.369 12.2079 168.366 13.282C168.366 14.0083 168.439 14.6146 168.583 15.1009C168.731 15.584 168.939 15.9472 169.206 16.1903C169.474 16.4304 169.788 16.5504 170.148 16.5504ZM175.391 18V16.5597L178.757 13.4435C179.043 13.1665 179.283 12.9173 179.477 12.6957C179.674 12.4741 179.823 12.2571 179.925 12.0447C180.026 11.8293 180.077 11.5969 180.077 11.3477C180.077 11.0707 180.014 10.8321 179.888 10.6321C179.762 10.429 179.589 10.2736 179.371 10.1658C179.152 10.055 178.904 9.99964 178.627 9.99964C178.338 9.99964 178.086 10.0581 177.87 10.1751C177.655 10.292 177.489 10.4598 177.372 10.6783C177.255 10.8968 177.196 11.1568 177.196 11.4585H175.299C175.299 10.8398 175.439 10.3028 175.719 9.8473C175.999 9.39181 176.392 9.03942 176.896 8.79013C177.401 8.54084 177.983 8.41619 178.641 8.41619C179.318 8.41619 179.908 8.53622 180.409 8.77628C180.914 9.01326 181.307 9.34257 181.587 9.7642C181.867 10.1858 182.007 10.669 182.007 11.2138C182.007 11.5708 181.936 11.9232 181.794 12.271C181.656 12.6187 181.408 13.005 181.051 13.4297C180.694 13.8513 180.191 14.3576 179.542 14.9485L178.161 16.3011V16.3658H182.131V18H175.391ZM183.234 16.3381V14.7638L187.181 8.54545H188.538V10.7244H187.735L185.246 14.6623V14.7362H190.855V16.3381H183.234ZM187.772 18V15.858L187.809 15.1609V8.54545H189.683V18H187.772Z" fill="white"/>
</svg>
