<svg width="196" height="26" viewBox="0 0 196 26" fill="none" xmlns="http://www.w3.org/2000/svg">
<path d="M1 12C1 6.34315 1 3.51472 2.75736 1.75736C4.51472 0 7.34315 0 13 0H60V26H13C7.34315 26 4.51472 26 2.75736 24.2426C1 22.4853 1 19.6569 1 14V12Z" fill="#3F3F3F"/>
<path d="M8.52983 8.54545L10.815 15.7287H10.9027L13.1925 8.54545H15.4084L12.1491 18H9.57315L6.3093 8.54545H8.52983ZM18.9411 18.1385C18.2117 18.1385 17.5839 17.9908 17.0576 17.6953C16.5344 17.3968 16.1312 16.9751 15.8481 16.4304C15.565 15.8826 15.4234 15.2347 15.4234 14.4869C15.4234 13.7575 15.565 13.1173 15.8481 12.5664C16.1312 12.0155 16.5298 11.5862 17.0438 11.2784C17.5608 10.9706 18.1671 10.8168 18.8627 10.8168C19.3305 10.8168 19.766 10.8922 20.1691 11.043C20.5754 11.1907 20.9293 11.4138 21.2309 11.7124C21.5356 12.0109 21.7726 12.3864 21.9419 12.8388C22.1111 13.2881 22.1958 13.8144 22.1958 14.4176V14.9577H16.2082V13.739H20.3445C20.3445 13.4558 20.283 13.205 20.1599 12.9865C20.0368 12.768 19.866 12.5972 19.6475 12.4741C19.432 12.3479 19.1812 12.2848 18.895 12.2848C18.5964 12.2848 18.3318 12.354 18.1009 12.4925C17.8732 12.628 17.6947 12.8111 17.5654 13.0419C17.4362 13.2696 17.37 13.5236 17.3669 13.8036V14.9624C17.3669 15.3132 17.4316 15.6164 17.5608 15.8718C17.6932 16.1272 17.8794 16.3242 18.1194 16.4627C18.3595 16.6012 18.6441 16.6705 18.9735 16.6705C19.192 16.6705 19.392 16.6397 19.5736 16.5781C19.7552 16.5166 19.9106 16.4242 20.0399 16.3011C20.1691 16.178 20.2676 16.0272 20.3353 15.8487L22.1542 15.9688C22.0619 16.4058 21.8726 16.7874 21.5864 17.1136C21.3032 17.4368 20.937 17.6892 20.4877 17.8707C20.0414 18.0492 19.5259 18.1385 18.9411 18.1385ZM23.4791 18V10.9091H25.3857V12.1463H25.4596C25.5889 11.7062 25.8058 11.3738 26.1105 11.1491C26.4152 10.9214 26.7661 10.8075 27.1631 10.8075C27.2616 10.8075 27.3677 10.8137 27.4816 10.826C27.5955 10.8383 27.6955 10.8552 27.7817 10.8768V12.6218C27.6894 12.5941 27.5616 12.5695 27.3985 12.5479C27.2354 12.5264 27.0861 12.5156 26.9507 12.5156C26.6614 12.5156 26.4029 12.5787 26.1752 12.7049C25.9505 12.828 25.772 13.0004 25.6396 13.2219C25.5104 13.4435 25.4458 13.699 25.4458 13.9883V18H23.4791ZM34.6983 12.9311L32.8979 13.0419C32.8671 12.888 32.801 12.7495 32.6994 12.6264C32.5978 12.5002 32.464 12.4002 32.2978 12.3263C32.1346 12.2494 31.9392 12.2109 31.7115 12.2109C31.4068 12.2109 31.1498 12.2756 30.9405 12.4048C30.7312 12.531 30.6266 12.7003 30.6266 12.9126C30.6266 13.0819 30.6943 13.225 30.8297 13.342C30.9651 13.4589 31.1975 13.5528 31.5268 13.6236L32.8102 13.8821C33.4996 14.0237 34.0136 14.2514 34.3521 14.5653C34.6906 14.8793 34.8599 15.2917 34.8599 15.8026C34.8599 16.2673 34.723 16.6751 34.449 17.0259C34.1782 17.3768 33.8058 17.6507 33.3319 17.8477C32.861 18.0415 32.3178 18.1385 31.7022 18.1385C30.7636 18.1385 30.0157 17.9431 29.4586 17.5522C28.9047 17.1583 28.58 16.6228 28.4846 15.9457L30.4189 15.8441C30.4773 16.1303 30.6189 16.3488 30.8436 16.4996C31.0682 16.6474 31.356 16.7212 31.7069 16.7212C32.0516 16.7212 32.3285 16.6551 32.5378 16.5227C32.7502 16.3873 32.8579 16.2134 32.861 16.0011C32.8579 15.8226 32.7825 15.6764 32.6348 15.5625C32.487 15.4455 32.2593 15.3563 31.9515 15.2947L30.7235 15.0501C30.0311 14.9116 29.5156 14.6715 29.177 14.3299C28.8416 13.9883 28.6738 13.5528 28.6738 13.0234C28.6738 12.5679 28.7969 12.1755 29.0431 11.8462C29.2924 11.5169 29.6417 11.263 30.0911 11.0845C30.5435 10.906 31.0729 10.8168 31.6792 10.8168C32.5748 10.8168 33.2795 11.006 33.7935 11.3846C34.3105 11.7631 34.6122 12.2786 34.6983 12.9311ZM36.0983 18V10.9091H38.0649V18H36.0983ZM37.0862 9.99503C36.7938 9.99503 36.543 9.89808 36.3337 9.70419C36.1275 9.50722 36.0244 9.27178 36.0244 8.99787C36.0244 8.72704 36.1275 8.49467 36.3337 8.30078C36.543 8.10381 36.7938 8.00533 37.0862 8.00533C37.3786 8.00533 37.6279 8.10381 37.8341 8.30078C38.0434 8.49467 38.148 8.72704 38.148 8.99787C38.148 9.27178 38.0434 9.50722 37.8341 9.70419C37.6279 9.89808 37.3786 9.99503 37.0862 9.99503ZM42.8441 18.1385C42.127 18.1385 41.5069 17.9862 40.9837 17.6815C40.4635 17.3737 40.0619 16.9459 39.7788 16.3981C39.4956 15.8472 39.354 15.2086 39.354 14.4822C39.354 13.7498 39.4956 13.1096 39.7788 12.5618C40.0619 12.0109 40.4635 11.5831 40.9837 11.2784C41.5069 10.9706 42.127 10.8168 42.8441 10.8168C43.5612 10.8168 44.1798 10.9706 44.6999 11.2784C45.2231 11.5831 45.6263 12.0109 45.9094 12.5618C46.1926 13.1096 46.3342 13.7498 46.3342 14.4822C46.3342 15.2086 46.1926 15.8472 45.9094 16.3981C45.6263 16.9459 45.2231 17.3737 44.6999 17.6815C44.1798 17.9862 43.5612 18.1385 42.8441 18.1385ZM42.8533 16.6151C43.1796 16.6151 43.4519 16.5227 43.6705 16.3381C43.889 16.1503 44.0536 15.8949 44.1644 15.5717C44.2783 15.2486 44.3352 14.8808 44.3352 14.4684C44.3352 14.056 44.2783 13.6882 44.1644 13.3651C44.0536 13.0419 43.889 12.7865 43.6705 12.5987C43.4519 12.411 43.1796 12.3171 42.8533 12.3171C42.524 12.3171 42.247 12.411 42.0224 12.5987C41.8008 12.7865 41.633 13.0419 41.5192 13.3651C41.4084 13.6882 41.353 14.056 41.353 14.4684C41.353 14.8808 41.4084 15.2486 41.5192 15.5717C41.633 15.8949 41.8008 16.1503 42.0224 16.3381C42.247 16.5227 42.524 16.6151 42.8533 16.6151ZM49.5795 13.9006V18H47.6129V10.9091H49.4872V12.1602H49.5703C49.7273 11.7478 49.9904 11.4215 50.3597 11.1815C50.729 10.9383 51.1768 10.8168 51.7031 10.8168C52.1955 10.8168 52.6249 10.9245 52.9911 11.1399C53.3574 11.3554 53.642 11.6631 53.8452 12.0632C54.0483 12.4602 54.1499 12.9342 54.1499 13.4851V18H52.1832V13.8359C52.1863 13.402 52.0755 13.0634 51.8509 12.8203C51.6262 12.5741 51.3169 12.451 50.9229 12.451C50.6583 12.451 50.4244 12.5079 50.2212 12.6218C50.0212 12.7357 49.8642 12.9019 49.7504 13.1204C49.6396 13.3358 49.5826 13.5959 49.5795 13.9006Z" fill="white"/>
<rect width="41" height="26" transform="translate(60)" fill="#533DA3"/>
<path d="M65.7663 18V16.5597L69.1317 13.4435C69.418 13.1665 69.658 12.9173 69.8519 12.6957C70.0489 12.4741 70.1982 12.2571 70.2997 12.0447C70.4013 11.8293 70.4521 11.5969 70.4521 11.3477C70.4521 11.0707 70.389 10.8321 70.2628 10.6321C70.1366 10.429 69.9643 10.2736 69.7457 10.1658C69.5272 10.055 69.2795 9.99964 69.0025 9.99964C68.7132 9.99964 68.4608 10.0581 68.2454 10.1751C68.0299 10.292 67.8638 10.4598 67.7468 10.6783C67.6299 10.8968 67.5714 11.1568 67.5714 11.4585H65.674C65.674 10.8398 65.814 10.3028 66.0941 9.8473C66.3742 9.39181 66.7666 9.03942 67.2713 8.79013C67.776 8.54084 68.3577 8.41619 69.0163 8.41619C69.6934 8.41619 70.2828 8.53622 70.7844 8.77628C71.2892 9.01326 71.6816 9.34257 71.9616 9.7642C72.2417 10.1858 72.3817 10.669 72.3817 11.2138C72.3817 11.5708 72.311 11.9232 72.1694 12.271C72.0309 12.6187 71.7831 13.005 71.4261 13.4297C71.0691 13.8513 70.5659 14.3576 69.9165 14.9485L68.5362 16.3011V16.3658H72.5064V18H65.7663ZM75.1228 18.12C74.8181 18.12 74.5565 18.0123 74.338 17.7969C74.1225 17.5784 74.0148 17.3168 74.0148 17.0121C74.0148 16.7105 74.1225 16.4519 74.338 16.2365C74.5565 16.0211 74.8181 15.9134 75.1228 15.9134C75.4182 15.9134 75.6768 16.0211 75.8983 16.2365C76.1199 16.4519 76.2307 16.7105 76.2307 17.0121C76.2307 17.2152 76.1784 17.4014 76.0738 17.5707C75.9722 17.7369 75.8383 17.8707 75.6721 17.9723C75.5059 18.0708 75.3228 18.12 75.1228 18.12ZM77.8453 18L81.7647 10.2443V10.1797H77.199V8.54545H83.8329V10.2028L79.9089 18H77.8453ZM84.7458 18.12C84.4411 18.12 84.1795 18.0123 83.961 17.7969C83.7456 17.5784 83.6379 17.3168 83.6379 17.0121C83.6379 16.7105 83.7456 16.4519 83.961 16.2365C84.1795 16.0211 84.4411 15.9134 84.7458 15.9134C85.0413 15.9134 85.2998 16.0211 85.5214 16.2365C85.743 16.4519 85.8538 16.7105 85.8538 17.0121C85.8538 17.2152 85.8015 17.4014 85.6968 17.5707C85.5953 17.7369 85.4614 17.8707 85.2952 17.9723C85.129 18.0708 84.9459 18.12 84.7458 18.12ZM90.7761 18.2077C89.9821 18.2047 89.2988 18.0092 88.7264 17.6214C88.157 17.2337 87.7185 16.672 87.4107 15.9364C87.106 15.2009 86.9552 14.3161 86.9583 13.282C86.9583 12.2509 87.1106 11.3723 87.4153 10.646C87.7231 9.91963 88.1616 9.36719 88.731 8.98864C89.3034 8.60701 89.9851 8.41619 90.7761 8.41619C91.5671 8.41619 92.2472 8.60701 92.8166 8.98864C93.389 9.37026 93.8291 9.92424 94.1369 10.6506C94.4447 11.3738 94.597 12.2509 94.5939 13.282C94.5939 14.3191 94.44 15.2055 94.1323 15.9411C93.8276 16.6766 93.3906 17.2383 92.8212 17.6261C92.2518 18.0138 91.5701 18.2077 90.7761 18.2077ZM90.7761 16.5504C91.3178 16.5504 91.7502 16.2781 92.0733 15.7333C92.3965 15.1886 92.5565 14.3714 92.5534 13.282C92.5534 12.5649 92.4796 11.9678 92.3319 11.4908C92.1872 11.0137 91.981 10.6552 91.7132 10.4151C91.4486 10.1751 91.1362 10.055 90.7761 10.055C90.2375 10.055 89.8066 10.3243 89.4835 10.8629C89.1603 11.4015 88.9972 12.2079 88.9941 13.282C88.9941 14.0083 89.0665 14.6146 89.2111 15.1009C89.3588 15.584 89.5666 15.9472 89.8343 16.1903C90.1021 16.4304 90.416 16.5504 90.7761 16.5504Z" fill="white"/>
<path d="M101 0H183C188.657 0 191.485 0 193.243 1.75736C195 3.51472 195 6.34315 195 12V14C195 19.6569 195 22.4853 193.243 24.2426C191.485 26 188.657 26 183 26H101V0Z" fill="#6C4FD4"/>
<path d="M108.451 18H106.309L109.573 8.54545H112.149L115.408 18H113.266L110.898 10.706H110.824L108.451 18ZM108.317 14.2837H113.377V15.8441H108.317V14.2837ZM121.057 14.9808V10.9091H123.023V18H121.135V16.712H121.061C120.901 17.1275 120.635 17.4614 120.263 17.7138C119.893 17.9661 119.442 18.0923 118.91 18.0923C118.436 18.0923 118.019 17.9846 117.659 17.7692C117.299 17.5537 117.017 17.2475 116.814 16.8505C116.614 16.4535 116.512 15.978 116.509 15.424V10.9091H118.476V15.0732C118.479 15.4917 118.591 15.8226 118.813 16.0657C119.035 16.3088 119.332 16.4304 119.704 16.4304C119.941 16.4304 120.163 16.3765 120.369 16.2688C120.575 16.158 120.741 15.9949 120.867 15.7795C120.997 15.564 121.06 15.2978 121.057 14.9808ZM127.791 20.8068C127.154 20.8068 126.608 20.7191 126.152 20.5437C125.7 20.3713 125.34 20.1359 125.072 19.8374C124.804 19.5388 124.63 19.2034 124.55 18.831L126.369 18.5863C126.424 18.7279 126.512 18.8602 126.632 18.9833C126.752 19.1064 126.911 19.2049 127.108 19.2788C127.308 19.3557 127.551 19.3942 127.837 19.3942C128.265 19.3942 128.617 19.2895 128.894 19.0803C129.174 18.8741 129.314 18.5278 129.314 18.0415V16.7443H129.231C129.145 16.9413 129.016 17.1275 128.843 17.3029C128.671 17.4783 128.45 17.6214 128.179 17.7322C127.908 17.843 127.585 17.8984 127.209 17.8984C126.677 17.8984 126.192 17.7753 125.755 17.5291C125.321 17.2798 124.975 16.8997 124.716 16.3888C124.461 15.8749 124.333 15.2255 124.333 14.4407C124.333 13.6374 124.464 12.9665 124.726 12.4279C124.987 11.8893 125.335 11.4862 125.769 11.2184C126.206 10.9506 126.685 10.8168 127.205 10.8168C127.602 10.8168 127.934 10.8845 128.202 11.0199C128.47 11.1522 128.685 11.3184 128.848 11.5185C129.014 11.7154 129.142 11.9093 129.231 12.1001H129.305V10.9091H131.258V18.0692C131.258 18.6725 131.11 19.1772 130.815 19.5835C130.519 19.9897 130.11 20.2944 129.587 20.4975C129.067 20.7037 128.468 20.8068 127.791 20.8068ZM127.832 16.4212C128.149 16.4212 128.417 16.3427 128.636 16.1857C128.857 16.0257 129.027 15.7979 129.144 15.5025C129.264 15.204 129.324 14.8469 129.324 14.4315C129.324 14.016 129.265 13.6559 129.148 13.3512C129.031 13.0434 128.862 12.8049 128.64 12.6357C128.419 12.4664 128.149 12.3817 127.832 12.3817C127.509 12.3817 127.237 12.4695 127.015 12.6449C126.794 12.8172 126.626 13.0573 126.512 13.3651C126.398 13.6728 126.341 14.0283 126.341 14.4315C126.341 14.8408 126.398 15.1947 126.512 15.4933C126.629 15.7887 126.797 16.018 127.015 16.1811C127.237 16.3411 127.509 16.4212 127.832 16.4212ZM137.37 14.9808V10.9091H139.337V18H137.449V16.712H137.375C137.215 17.1275 136.948 17.4614 136.576 17.7138C136.207 17.9661 135.756 18.0923 135.223 18.0923C134.749 18.0923 134.332 17.9846 133.972 17.7692C133.612 17.5537 133.331 17.2475 133.128 16.8505C132.928 16.4535 132.826 15.978 132.823 15.424V10.9091H134.79V15.0732C134.793 15.4917 134.905 15.8226 135.127 16.0657C135.348 16.3088 135.645 16.4304 136.017 16.4304C136.254 16.4304 136.476 16.3765 136.682 16.2688C136.888 16.158 137.055 15.9949 137.181 15.7795C137.31 15.564 137.373 15.2978 137.37 14.9808ZM146.81 12.9311L145.009 13.0419C144.978 12.888 144.912 12.7495 144.811 12.6264C144.709 12.5002 144.575 12.4002 144.409 12.3263C144.246 12.2494 144.051 12.2109 143.823 12.2109C143.518 12.2109 143.261 12.2756 143.052 12.4048C142.843 12.531 142.738 12.7003 142.738 12.9126C142.738 13.0819 142.806 13.225 142.941 13.342C143.076 13.4589 143.309 13.5528 143.638 13.6236L144.922 13.8821C145.611 14.0237 146.125 14.2514 146.463 14.5653C146.802 14.8793 146.971 15.2917 146.971 15.8026C146.971 16.2673 146.834 16.6751 146.56 17.0259C146.29 17.3768 145.917 17.6507 145.443 17.8477C144.972 18.0415 144.429 18.1385 143.814 18.1385C142.875 18.1385 142.127 17.9431 141.57 17.5522C141.016 17.1583 140.691 16.6228 140.596 15.9457L142.53 15.8441C142.589 16.1303 142.73 16.3488 142.955 16.4996C143.18 16.6474 143.467 16.7212 143.818 16.7212C144.163 16.7212 144.44 16.6551 144.649 16.5227C144.862 16.3873 144.969 16.2134 144.972 16.0011C144.969 15.8226 144.894 15.6764 144.746 15.5625C144.598 15.4455 144.371 15.3563 144.063 15.2947L142.835 15.0501C142.142 14.9116 141.627 14.6715 141.288 14.3299C140.953 13.9883 140.785 13.5528 140.785 13.0234C140.785 12.5679 140.908 12.1755 141.154 11.8462C141.404 11.5169 141.753 11.263 142.202 11.0845C142.655 10.906 143.184 10.8168 143.79 10.8168C144.686 10.8168 145.391 11.006 145.905 11.3846C146.422 11.7631 146.723 12.2786 146.81 12.9311ZM151.981 10.9091V12.3864H147.711V10.9091H151.981ZM148.68 9.21023H150.647V15.821C150.647 16.0026 150.675 16.1442 150.73 16.2457C150.786 16.3442 150.863 16.4135 150.961 16.4535C151.063 16.4935 151.18 16.5135 151.312 16.5135C151.404 16.5135 151.497 16.5058 151.589 16.4904C151.681 16.4719 151.752 16.4581 151.801 16.4489L152.111 17.9123C152.012 17.9431 151.874 17.9785 151.695 18.0185C151.517 18.0616 151.3 18.0877 151.044 18.0969C150.57 18.1154 150.155 18.0523 149.798 17.9077C149.444 17.763 149.168 17.5384 148.971 17.2337C148.774 16.929 148.677 16.5443 148.68 16.0795V9.21023ZM156.253 18V16.5597L159.618 13.4435C159.904 13.1665 160.144 12.9173 160.338 12.6957C160.535 12.4741 160.684 12.2571 160.786 12.0447C160.888 11.8293 160.938 11.5969 160.938 11.3477C160.938 11.0707 160.875 10.8321 160.749 10.6321C160.623 10.429 160.451 10.2736 160.232 10.1658C160.014 10.055 159.766 9.99964 159.489 9.99964C159.2 9.99964 158.947 10.0581 158.732 10.1751C158.516 10.292 158.35 10.4598 158.233 10.6783C158.116 10.8968 158.058 11.1568 158.058 11.4585H156.16C156.16 10.8398 156.3 10.3028 156.58 9.8473C156.86 9.39181 157.253 9.03942 157.758 8.79013C158.262 8.54084 158.844 8.41619 159.503 8.41619C160.18 8.41619 160.769 8.53622 161.271 8.77628C161.776 9.01326 162.168 9.34257 162.448 9.7642C162.728 10.1858 162.868 10.669 162.868 11.2138C162.868 11.5708 162.797 11.9232 162.656 12.271C162.517 12.6187 162.269 13.005 161.912 13.4297C161.555 13.8513 161.052 14.3576 160.403 14.9485L159.023 16.3011V16.3658H162.993V18H156.253ZM168.148 18.2077C167.354 18.2047 166.671 18.0092 166.098 17.6214C165.529 17.2337 165.091 16.672 164.783 15.9364C164.478 15.2009 164.327 14.3161 164.33 13.282C164.33 12.2509 164.483 11.3723 164.787 10.646C165.095 9.91963 165.534 9.36719 166.103 8.98864C166.676 8.60701 167.357 8.41619 168.148 8.41619C168.939 8.41619 169.619 8.60701 170.189 8.98864C170.761 9.37026 171.201 9.92424 171.509 10.6506C171.817 11.3738 171.969 12.2509 171.966 13.282C171.966 14.3191 171.812 15.2055 171.504 15.9411C171.2 16.6766 170.763 17.2383 170.193 17.6261C169.624 18.0138 168.942 18.2077 168.148 18.2077ZM168.148 16.5504C168.69 16.5504 169.122 16.2781 169.445 15.7333C169.769 15.1886 169.929 14.3714 169.926 13.282C169.926 12.5649 169.852 11.9678 169.704 11.4908C169.559 11.0137 169.353 10.6552 169.085 10.4151C168.821 10.1751 168.508 10.055 168.148 10.055C167.61 10.055 167.179 10.3243 166.856 10.8629C166.532 11.4015 166.369 12.2079 166.366 13.282C166.366 14.0083 166.439 14.6146 166.583 15.1009C166.731 15.584 166.939 15.9472 167.206 16.1903C167.474 16.4304 167.788 16.5504 168.148 16.5504ZM173.391 18V16.5597L176.757 13.4435C177.043 13.1665 177.283 12.9173 177.477 12.6957C177.674 12.4741 177.823 12.2571 177.925 12.0447C178.026 11.8293 178.077 11.5969 178.077 11.3477C178.077 11.0707 178.014 10.8321 177.888 10.6321C177.762 10.429 177.589 10.2736 177.371 10.1658C177.152 10.055 176.904 9.99964 176.627 9.99964C176.338 9.99964 176.086 10.0581 175.87 10.1751C175.655 10.292 175.489 10.4598 175.372 10.6783C175.255 10.8968 175.196 11.1568 175.196 11.4585H173.299C173.299 10.8398 173.439 10.3028 173.719 9.8473C173.999 9.39181 174.392 9.03942 174.896 8.79013C175.401 8.54084 175.983 8.41619 176.641 8.41619C177.318 8.41619 177.908 8.53622 178.409 8.77628C178.914 9.01326 179.307 9.34257 179.587 9.7642C179.867 10.1858 180.007 10.669 180.007 11.2138C180.007 11.5708 179.936 11.9232 179.794 12.271C179.656 12.6187 179.408 13.005 179.051 13.4297C178.694 13.8513 178.191 14.3576 177.542 14.9485L176.161 16.3011V16.3658H180.131V18H173.391ZM181.234 16.3381V14.7638L185.181 8.54545H186.538V10.7244H185.735L183.246 14.6623V14.7362H188.855V16.3381H181.234ZM185.772 18V15.858L185.809 15.1609V8.54545H187.683V18H185.772Z" fill="white"/>
</svg>
