<svg width="219" height="26" viewBox="0 0 219 26" fill="none" xmlns="http://www.w3.org/2000/svg">
<path d="M1 12C1 6.34315 1 3.51472 2.75736 1.75736C4.51472 0 7.34315 0 13 0H60V26H13C7.34315 26 4.51472 26 2.75736 24.2426C1 22.4853 1 19.6569 1 14V12Z" fill="#3F3F3F"/>
<path d="M8.52983 8.54545L10.815 15.7287H10.9027L13.1925 8.54545H15.4084L12.1491 18H9.57315L6.3093 8.54545H8.52983ZM18.9411 18.1385C18.2117 18.1385 17.5839 17.9908 17.0576 17.6953C16.5344 17.3968 16.1312 16.9751 15.8481 16.4304C15.565 15.8826 15.4234 15.2347 15.4234 14.4869C15.4234 13.7575 15.565 13.1173 15.8481 12.5664C16.1312 12.0155 16.5298 11.5862 17.0438 11.2784C17.5608 10.9706 18.1671 10.8168 18.8627 10.8168C19.3305 10.8168 19.766 10.8922 20.1691 11.043C20.5754 11.1907 20.9293 11.4138 21.2309 11.7124C21.5356 12.0109 21.7726 12.3864 21.9419 12.8388C22.1111 13.2881 22.1958 13.8144 22.1958 14.4176V14.9577H16.2082V13.739H20.3445C20.3445 13.4558 20.283 13.205 20.1599 12.9865C20.0368 12.768 19.866 12.5972 19.6475 12.4741C19.432 12.3479 19.1812 12.2848 18.895 12.2848C18.5964 12.2848 18.3318 12.354 18.1009 12.4925C17.8732 12.628 17.6947 12.8111 17.5654 13.0419C17.4362 13.2696 17.37 13.5236 17.3669 13.8036V14.9624C17.3669 15.3132 17.4316 15.6164 17.5608 15.8718C17.6932 16.1272 17.8794 16.3242 18.1194 16.4627C18.3595 16.6012 18.6441 16.6705 18.9735 16.6705C19.192 16.6705 19.392 16.6397 19.5736 16.5781C19.7552 16.5166 19.9106 16.4242 20.0399 16.3011C20.1691 16.178 20.2676 16.0272 20.3353 15.8487L22.1542 15.9688C22.0619 16.4058 21.8726 16.7874 21.5864 17.1136C21.3032 17.4368 20.937 17.6892 20.4877 17.8707C20.0414 18.0492 19.5259 18.1385 18.9411 18.1385ZM23.4791 18V10.9091H25.3857V12.1463H25.4596C25.5889 11.7062 25.8058 11.3738 26.1105 11.1491C26.4152 10.9214 26.7661 10.8075 27.1631 10.8075C27.2616 10.8075 27.3677 10.8137 27.4816 10.826C27.5955 10.8383 27.6955 10.8552 27.7817 10.8768V12.6218C27.6894 12.5941 27.5616 12.5695 27.3985 12.5479C27.2354 12.5264 27.0861 12.5156 26.9507 12.5156C26.6614 12.5156 26.4029 12.5787 26.1752 12.7049C25.9505 12.828 25.772 13.0004 25.6396 13.2219C25.5104 13.4435 25.4458 13.699 25.4458 13.9883V18H23.4791ZM34.6983 12.9311L32.8979 13.0419C32.8671 12.888 32.801 12.7495 32.6994 12.6264C32.5978 12.5002 32.464 12.4002 32.2978 12.3263C32.1346 12.2494 31.9392 12.2109 31.7115 12.2109C31.4068 12.2109 31.1498 12.2756 30.9405 12.4048C30.7312 12.531 30.6266 12.7003 30.6266 12.9126C30.6266 13.0819 30.6943 13.225 30.8297 13.342C30.9651 13.4589 31.1975 13.5528 31.5268 13.6236L32.8102 13.8821C33.4996 14.0237 34.0136 14.2514 34.3521 14.5653C34.6906 14.8793 34.8599 15.2917 34.8599 15.8026C34.8599 16.2673 34.723 16.6751 34.449 17.0259C34.1782 17.3768 33.8058 17.6507 33.3319 17.8477C32.861 18.0415 32.3178 18.1385 31.7022 18.1385C30.7636 18.1385 30.0157 17.9431 29.4586 17.5522C28.9047 17.1583 28.58 16.6228 28.4846 15.9457L30.4189 15.8441C30.4773 16.1303 30.6189 16.3488 30.8436 16.4996C31.0682 16.6474 31.356 16.7212 31.7069 16.7212C32.0516 16.7212 32.3285 16.6551 32.5378 16.5227C32.7502 16.3873 32.8579 16.2134 32.861 16.0011C32.8579 15.8226 32.7825 15.6764 32.6348 15.5625C32.487 15.4455 32.2593 15.3563 31.9515 15.2947L30.7235 15.0501C30.0311 14.9116 29.5156 14.6715 29.177 14.3299C28.8416 13.9883 28.6738 13.5528 28.6738 13.0234C28.6738 12.5679 28.7969 12.1755 29.0431 11.8462C29.2924 11.5169 29.6417 11.263 30.0911 11.0845C30.5435 10.906 31.0729 10.8168 31.6792 10.8168C32.5748 10.8168 33.2795 11.006 33.7935 11.3846C34.3105 11.7631 34.6122 12.2786 34.6983 12.9311ZM36.0983 18V10.9091H38.0649V18H36.0983ZM37.0862 9.99503C36.7938 9.99503 36.543 9.89808 36.3337 9.70419C36.1275 9.50722 36.0244 9.27178 36.0244 8.99787C36.0244 8.72704 36.1275 8.49467 36.3337 8.30078C36.543 8.10381 36.7938 8.00533 37.0862 8.00533C37.3786 8.00533 37.6279 8.10381 37.8341 8.30078C38.0434 8.49467 38.148 8.72704 38.148 8.99787C38.148 9.27178 38.0434 9.50722 37.8341 9.70419C37.6279 9.89808 37.3786 9.99503 37.0862 9.99503ZM42.8441 18.1385C42.127 18.1385 41.5069 17.9862 40.9837 17.6815C40.4635 17.3737 40.0619 16.9459 39.7788 16.3981C39.4956 15.8472 39.354 15.2086 39.354 14.4822C39.354 13.7498 39.4956 13.1096 39.7788 12.5618C40.0619 12.0109 40.4635 11.5831 40.9837 11.2784C41.5069 10.9706 42.127 10.8168 42.8441 10.8168C43.5612 10.8168 44.1798 10.9706 44.6999 11.2784C45.2231 11.5831 45.6263 12.0109 45.9094 12.5618C46.1926 13.1096 46.3342 13.7498 46.3342 14.4822C46.3342 15.2086 46.1926 15.8472 45.9094 16.3981C45.6263 16.9459 45.2231 17.3737 44.6999 17.6815C44.1798 17.9862 43.5612 18.1385 42.8441 18.1385ZM42.8533 16.6151C43.1796 16.6151 43.4519 16.5227 43.6705 16.3381C43.889 16.1503 44.0536 15.8949 44.1644 15.5717C44.2783 15.2486 44.3352 14.8808 44.3352 14.4684C44.3352 14.056 44.2783 13.6882 44.1644 13.3651C44.0536 13.0419 43.889 12.7865 43.6705 12.5987C43.4519 12.411 43.1796 12.3171 42.8533 12.3171C42.524 12.3171 42.247 12.411 42.0224 12.5987C41.8008 12.7865 41.633 13.0419 41.5192 13.3651C41.4084 13.6882 41.353 14.056 41.353 14.4684C41.353 14.8808 41.4084 15.2486 41.5192 15.5717C41.633 15.8949 41.8008 16.1503 42.0224 16.3381C42.247 16.5227 42.524 16.6151 42.8533 16.6151ZM49.5795 13.9006V18H47.6129V10.9091H49.4872V12.1602H49.5703C49.7273 11.7478 49.9904 11.4215 50.3597 11.1815C50.729 10.9383 51.1768 10.8168 51.7031 10.8168C52.1955 10.8168 52.6249 10.9245 52.9911 11.1399C53.3574 11.3554 53.642 11.6631 53.8452 12.0632C54.0483 12.4602 54.1499 12.9342 54.1499 13.4851V18H52.1832V13.8359C52.1863 13.402 52.0755 13.0634 51.8509 12.8203C51.6262 12.5741 51.3169 12.451 50.9229 12.451C50.6583 12.451 50.4244 12.5079 50.2212 12.6218C50.0212 12.7357 49.8642 12.9019 49.7504 13.1204C49.6396 13.3358 49.5826 13.5959 49.5795 13.9006Z" fill="#FFFCFF"/>
<rect width="40" height="26" transform="translate(60)" fill="#533DA3"/>
<path d="M65.7663 18V16.5597L69.1317 13.4435C69.418 13.1665 69.658 12.9173 69.8519 12.6957C70.0489 12.4741 70.1982 12.2571 70.2997 12.0447C70.4013 11.8293 70.4521 11.5969 70.4521 11.3477C70.4521 11.0707 70.389 10.8321 70.2628 10.6321C70.1366 10.429 69.9643 10.2736 69.7457 10.1658C69.5272 10.055 69.2795 9.99964 69.0025 9.99964C68.7132 9.99964 68.4608 10.0581 68.2454 10.1751C68.0299 10.292 67.8638 10.4598 67.7468 10.6783C67.6299 10.8968 67.5714 11.1568 67.5714 11.4585H65.674C65.674 10.8398 65.814 10.3028 66.0941 9.8473C66.3742 9.39181 66.7666 9.03942 67.2713 8.79013C67.776 8.54084 68.3577 8.41619 69.0163 8.41619C69.6934 8.41619 70.2828 8.53622 70.7844 8.77628C71.2892 9.01326 71.6816 9.34257 71.9616 9.7642C72.2417 10.1858 72.3817 10.669 72.3817 11.2138C72.3817 11.5708 72.311 11.9232 72.1694 12.271C72.0309 12.6187 71.7831 13.005 71.4261 13.4297C71.0691 13.8513 70.5659 14.3576 69.9165 14.9485L68.5362 16.3011V16.3658H72.5064V18H65.7663ZM75.1228 18.12C74.8181 18.12 74.5565 18.0123 74.338 17.7969C74.1225 17.5784 74.0148 17.3168 74.0148 17.0121C74.0148 16.7105 74.1225 16.4519 74.338 16.2365C74.5565 16.0211 74.8181 15.9134 75.1228 15.9134C75.4182 15.9134 75.6768 16.0211 75.8983 16.2365C76.1199 16.4519 76.2307 16.7105 76.2307 17.0121C76.2307 17.2152 76.1784 17.4014 76.0738 17.5707C75.9722 17.7369 75.8383 17.8707 75.6721 17.9723C75.5059 18.0708 75.3228 18.12 75.1228 18.12ZM80.7595 8.54545V18H78.7606V10.4428H78.7052L76.54 11.8001V10.0273L78.8806 8.54545H80.7595ZM83.6667 18.12C83.362 18.12 83.1004 18.0123 82.8819 17.7969C82.6665 17.5784 82.5588 17.3168 82.5588 17.0121C82.5588 16.7105 82.6665 16.4519 82.8819 16.2365C83.1004 16.0211 83.362 15.9134 83.6667 15.9134C83.9622 15.9134 84.2207 16.0211 84.4423 16.2365C84.6639 16.4519 84.7747 16.7105 84.7747 17.0121C84.7747 17.2152 84.7224 17.4014 84.6177 17.5707C84.5162 17.7369 84.3823 17.8707 84.2161 17.9723C84.0499 18.0708 83.8668 18.12 83.6667 18.12ZM89.697 18.2077C88.903 18.2047 88.2197 18.0092 87.6473 17.6214C87.0779 17.2337 86.6394 16.672 86.3316 15.9364C86.0269 15.2009 85.8761 14.3161 85.8792 13.282C85.8792 12.2509 86.0315 11.3723 86.3362 10.646C86.644 9.91963 87.0825 9.36719 87.6519 8.98864C88.2243 8.60701 88.906 8.41619 89.697 8.41619C90.488 8.41619 91.1681 8.60701 91.7375 8.98864C92.3099 9.37026 92.75 9.92424 93.0578 10.6506C93.3656 11.3738 93.5179 12.2509 93.5148 13.282C93.5148 14.3191 93.3609 15.2055 93.0532 15.9411C92.7485 16.6766 92.3115 17.2383 91.7421 17.6261C91.1727 18.0138 90.491 18.2077 89.697 18.2077ZM89.697 16.5504C90.2387 16.5504 90.6711 16.2781 90.9942 15.7333C91.3174 15.1886 91.4774 14.3714 91.4743 13.282C91.4743 12.5649 91.4005 11.9678 91.2528 11.4908C91.1081 11.0137 90.9019 10.6552 90.6341 10.4151C90.3695 10.1751 90.0571 10.055 89.697 10.055C89.1584 10.055 88.7275 10.3243 88.4044 10.8629C88.0812 11.4015 87.9181 12.2079 87.915 13.282C87.915 14.0083 87.9874 14.6146 88.132 15.1009C88.2797 15.584 88.4875 15.9472 88.7552 16.1903C89.023 16.4304 89.3369 16.5504 89.697 16.5504Z" fill="#FFFCFF"/>
<path d="M100 0H206C211.657 0 214.485 0 216.243 1.75736C218 3.51472 218 6.34315 218 12V14C218 19.6569 218 22.4853 216.243 24.2426C214.485 26 211.657 26 206 26H100V0Z" fill="#6C4FD4"/>
<path d="M110.951 11.2646C110.914 10.8922 110.755 10.6029 110.475 10.3967C110.195 10.1905 109.815 10.0874 109.335 10.0874C109.009 10.0874 108.733 10.1335 108.509 10.2259C108.284 10.3151 108.112 10.4397 107.991 10.5998C107.875 10.7598 107.816 10.9414 107.816 11.1445C107.81 11.3138 107.845 11.4615 107.922 11.5877C108.002 11.7139 108.112 11.8232 108.25 11.9155C108.388 12.0047 108.549 12.0832 108.73 12.1509C108.912 12.2156 109.106 12.271 109.312 12.3171L110.161 12.5202C110.574 12.6126 110.952 12.7357 111.297 12.8896C111.642 13.0434 111.94 13.2327 112.192 13.4574C112.445 13.6821 112.64 13.9467 112.779 14.2514C112.92 14.5561 112.993 14.9054 112.996 15.2994C112.993 15.878 112.845 16.3796 112.553 16.8043C112.263 17.226 111.845 17.5537 111.297 17.7876C110.752 18.0185 110.095 18.1339 109.326 18.1339C108.562 18.1339 107.898 18.0169 107.331 17.783C106.768 17.5491 106.328 17.2029 106.011 16.7443C105.697 16.2827 105.532 15.7118 105.517 15.0316H107.451C107.473 15.3486 107.564 15.6133 107.724 15.8256C107.887 16.0349 108.104 16.1934 108.375 16.3011C108.649 16.4058 108.958 16.4581 109.303 16.4581C109.641 16.4581 109.935 16.4089 110.184 16.3104C110.437 16.2119 110.632 16.0749 110.771 15.8995C110.909 15.7241 110.978 15.5225 110.978 15.2947C110.978 15.0824 110.915 14.9039 110.789 14.7592C110.666 14.6146 110.484 14.4915 110.244 14.3899C110.007 14.2884 109.717 14.196 109.372 14.1129L108.342 13.8544C107.545 13.6605 106.916 13.3574 106.454 12.945C105.993 12.5326 105.763 11.977 105.766 11.2784C105.763 10.706 105.916 10.2058 106.223 9.77805C106.534 9.35026 106.96 9.01634 107.502 8.77628C108.044 8.53622 108.659 8.41619 109.349 8.41619C110.05 8.41619 110.663 8.53622 111.186 8.77628C111.712 9.01634 112.122 9.35026 112.414 9.77805C112.706 10.2058 112.857 10.7013 112.866 11.2646H110.951ZM117.535 18.1385C116.805 18.1385 116.178 17.9908 115.651 17.6953C115.128 17.3968 114.725 16.9751 114.442 16.4304C114.159 15.8826 114.017 15.2347 114.017 14.4869C114.017 13.7575 114.159 13.1173 114.442 12.5664C114.725 12.0155 115.124 11.5862 115.638 11.2784C116.155 10.9706 116.761 10.8168 117.456 10.8168C117.924 10.8168 118.36 10.8922 118.763 11.043C119.169 11.1907 119.523 11.4138 119.825 11.7124C120.129 12.0109 120.366 12.3864 120.536 12.8388C120.705 13.2881 120.79 13.8144 120.79 14.4176V14.9577H114.802V13.739H118.938C118.938 13.4558 118.877 13.205 118.754 12.9865C118.631 12.768 118.46 12.5972 118.241 12.4741C118.026 12.3479 117.775 12.2848 117.489 12.2848C117.19 12.2848 116.926 12.354 116.695 12.4925C116.467 12.628 116.288 12.8111 116.159 13.0419C116.03 13.2696 115.964 13.5236 115.961 13.8036V14.9624C115.961 15.3132 116.025 15.6164 116.155 15.8718C116.287 16.1272 116.473 16.3242 116.713 16.4627C116.953 16.6012 117.238 16.6705 117.567 16.6705C117.786 16.6705 117.986 16.6397 118.167 16.5781C118.349 16.5166 118.504 16.4242 118.634 16.3011C118.763 16.178 118.861 16.0272 118.929 15.8487L120.748 15.9688C120.656 16.4058 120.466 16.7874 120.18 17.1136C119.897 17.4368 119.531 17.6892 119.081 17.8707C118.635 18.0492 118.12 18.1385 117.535 18.1385ZM122.073 20.6591V10.9091H124.012V12.1001H124.1C124.186 11.9093 124.31 11.7154 124.473 11.5185C124.64 11.3184 124.855 11.1522 125.12 11.0199C125.388 10.8845 125.72 10.8168 126.117 10.8168C126.634 10.8168 127.111 10.9522 127.548 11.223C127.985 11.4908 128.334 11.8955 128.596 12.4371C128.858 12.9757 128.988 13.6513 128.988 14.4638C128.988 15.2547 128.861 15.9226 128.605 16.4673C128.353 17.009 128.008 17.4199 127.571 17.6999C127.137 17.9769 126.651 18.1154 126.112 18.1154C125.731 18.1154 125.406 18.0523 125.138 17.9261C124.874 17.8 124.657 17.6415 124.487 17.4506C124.318 17.2567 124.189 17.0613 124.1 16.8643H124.04V20.6591H122.073ZM123.998 14.4545C123.998 14.8762 124.056 15.244 124.173 15.5579C124.29 15.8718 124.46 16.1165 124.681 16.2919C124.903 16.4643 125.172 16.5504 125.489 16.5504C125.809 16.5504 126.08 16.4627 126.302 16.2873C126.523 16.1088 126.691 15.8626 126.805 15.5487C126.922 15.2317 126.98 14.867 126.98 14.4545C126.98 14.0452 126.923 13.6851 126.809 13.3743C126.696 13.0634 126.528 12.8203 126.306 12.6449C126.085 12.4695 125.812 12.3817 125.489 12.3817C125.169 12.3817 124.898 12.4664 124.677 12.6357C124.458 12.8049 124.29 13.045 124.173 13.3558C124.056 13.6667 123.998 14.0329 123.998 14.4545ZM134.071 10.9091V12.3864H129.801V10.9091H134.071ZM130.77 9.21023H132.737V15.821C132.737 16.0026 132.765 16.1442 132.82 16.2457C132.875 16.3442 132.952 16.4135 133.051 16.4535C133.152 16.4935 133.269 16.5135 133.402 16.5135C133.494 16.5135 133.586 16.5058 133.679 16.4904C133.771 16.4719 133.842 16.4581 133.891 16.4489L134.2 17.9123C134.102 17.9431 133.963 17.9785 133.785 18.0185C133.606 18.0616 133.389 18.0877 133.134 18.0969C132.66 18.1154 132.245 18.0523 131.888 17.9077C131.534 17.763 131.258 17.5384 131.061 17.2337C130.864 16.929 130.767 16.5443 130.77 16.0795V9.21023ZM138.508 18.1385C137.778 18.1385 137.15 17.9908 136.624 17.6953C136.101 17.3968 135.698 16.9751 135.415 16.4304C135.131 15.8826 134.99 15.2347 134.99 14.4869C134.99 13.7575 135.131 13.1173 135.415 12.5664C135.698 12.0155 136.096 11.5862 136.61 11.2784C137.127 10.9706 137.734 10.8168 138.429 10.8168C138.897 10.8168 139.332 10.8922 139.736 11.043C140.142 11.1907 140.496 11.4138 140.797 11.7124C141.102 12.0109 141.339 12.3864 141.508 12.8388C141.678 13.2881 141.762 13.8144 141.762 14.4176V14.9577H135.775V13.739H139.911C139.911 13.4558 139.849 13.205 139.726 12.9865C139.603 12.768 139.432 12.5972 139.214 12.4741C138.998 12.3479 138.748 12.2848 138.461 12.2848C138.163 12.2848 137.898 12.354 137.667 12.4925C137.44 12.628 137.261 12.8111 137.132 13.0419C137.003 13.2696 136.936 13.5236 136.933 13.8036V14.9624C136.933 15.3132 136.998 15.6164 137.127 15.8718C137.26 16.1272 137.446 16.3242 137.686 16.4627C137.926 16.6012 138.211 16.6705 138.54 16.6705C138.758 16.6705 138.958 16.6397 139.14 16.5781C139.322 16.5166 139.477 16.4242 139.606 16.3011C139.736 16.178 139.834 16.0272 139.902 15.8487L141.721 15.9688C141.628 16.4058 141.439 16.7874 141.153 17.1136C140.87 17.4368 140.503 17.6892 140.054 17.8707C139.608 18.0492 139.092 18.1385 138.508 18.1385ZM143.046 18V10.9091H144.92V12.1602H145.003C145.151 11.7447 145.397 11.4169 145.742 11.1768C146.086 10.9368 146.499 10.8168 146.979 10.8168C147.465 10.8168 147.879 10.9383 148.221 11.1815C148.562 11.4215 148.79 11.7478 148.904 12.1602H148.978C149.122 11.7539 149.384 11.4292 149.763 11.1861C150.144 10.9399 150.595 10.8168 151.115 10.8168C151.777 10.8168 152.314 11.0276 152.726 11.4492C153.142 11.8678 153.35 12.4618 153.35 13.2312V18H151.388V13.619C151.388 13.225 151.283 12.9296 151.074 12.7326C150.864 12.5356 150.603 12.4371 150.289 12.4371C149.932 12.4371 149.653 12.551 149.453 12.7788C149.253 13.0034 149.153 13.3004 149.153 13.6697V18H147.247V13.5774C147.247 13.2296 147.147 12.9527 146.946 12.7464C146.749 12.5402 146.489 12.4371 146.166 12.4371C145.948 12.4371 145.751 12.4925 145.575 12.6033C145.403 12.7111 145.266 12.8634 145.165 13.0604C145.063 13.2543 145.012 13.482 145.012 13.7436V18H143.046ZM154.94 18V8.54545H156.907V12.1001H156.967C157.053 11.9093 157.177 11.7154 157.34 11.5185C157.507 11.3184 157.722 11.1522 157.987 11.0199C158.255 10.8845 158.587 10.8168 158.984 10.8168C159.501 10.8168 159.978 10.9522 160.415 11.223C160.852 11.4908 161.201 11.8955 161.463 12.4371C161.725 12.9757 161.855 13.6513 161.855 14.4638C161.855 15.2547 161.728 15.9226 161.472 16.4673C161.22 17.009 160.875 17.4199 160.438 17.6999C160.004 17.9769 159.518 18.1154 158.979 18.1154C158.598 18.1154 158.273 18.0523 158.005 17.9261C157.741 17.8 157.524 17.6415 157.354 17.4506C157.185 17.2567 157.056 17.0613 156.967 16.8643H156.879V18H154.94ZM156.865 14.4545C156.865 14.8762 156.923 15.244 157.04 15.5579C157.157 15.8718 157.327 16.1165 157.548 16.2919C157.77 16.4643 158.039 16.5504 158.356 16.5504C158.676 16.5504 158.947 16.4627 159.169 16.2873C159.39 16.1088 159.558 15.8626 159.672 15.5487C159.789 15.2317 159.847 14.867 159.847 14.4545C159.847 14.0452 159.79 13.6851 159.676 13.3743C159.563 13.0634 159.395 12.8203 159.173 12.6449C158.952 12.4695 158.679 12.3817 158.356 12.3817C158.036 12.3817 157.765 12.4664 157.544 12.6357C157.325 12.8049 157.157 13.045 157.04 13.3558C156.923 13.6667 156.865 14.0329 156.865 14.4545ZM166.399 18.1385C165.67 18.1385 165.042 17.9908 164.516 17.6953C163.992 17.3968 163.589 16.9751 163.306 16.4304C163.023 15.8826 162.881 15.2347 162.881 14.4869C162.881 13.7575 163.023 13.1173 163.306 12.5664C163.589 12.0155 163.988 11.5862 164.502 11.2784C165.019 10.9706 165.625 10.8168 166.321 10.8168C166.788 10.8168 167.224 10.8922 167.627 11.043C168.033 11.1907 168.387 11.4138 168.689 11.7124C168.994 12.0109 169.231 12.3864 169.4 12.8388C169.569 13.2881 169.654 13.8144 169.654 14.4176V14.9577H163.666V13.739H167.803C167.803 13.4558 167.741 13.205 167.618 12.9865C167.495 12.768 167.324 12.5972 167.105 12.4741C166.89 12.3479 166.639 12.2848 166.353 12.2848C166.054 12.2848 165.79 12.354 165.559 12.4925C165.331 12.628 165.153 12.8111 165.023 13.0419C164.894 13.2696 164.828 13.5236 164.825 13.8036V14.9624C164.825 15.3132 164.89 15.6164 165.019 15.8718C165.151 16.1272 165.337 16.3242 165.577 16.4627C165.817 16.6012 166.102 16.6705 166.431 16.6705C166.65 16.6705 166.85 16.6397 167.032 16.5781C167.213 16.5166 167.369 16.4242 167.498 16.3011C167.627 16.178 167.726 16.0272 167.793 15.8487L169.612 15.9688C169.52 16.4058 169.331 16.7874 169.044 17.1136C168.761 17.4368 168.395 17.6892 167.946 17.8707C167.499 18.0492 166.984 18.1385 166.399 18.1385ZM170.937 18V10.9091H172.844V12.1463H172.918C173.047 11.7062 173.264 11.3738 173.569 11.1491C173.873 10.9214 174.224 10.8075 174.621 10.8075C174.72 10.8075 174.826 10.8137 174.94 10.826C175.054 10.8383 175.154 10.8552 175.24 10.8768V12.6218C175.147 12.5941 175.02 12.5695 174.857 12.5479C174.693 12.5264 174.544 12.5156 174.409 12.5156C174.119 12.5156 173.861 12.5787 173.633 12.7049C173.408 12.828 173.23 13.0004 173.098 13.2219C172.968 13.4435 172.904 13.699 172.904 13.9883V18H170.937ZM179.247 18V16.5597L182.612 13.4435C182.898 13.1665 183.138 12.9173 183.332 12.6957C183.529 12.4741 183.679 12.2571 183.78 12.0447C183.882 11.8293 183.933 11.5969 183.933 11.3477C183.933 11.0707 183.869 10.8321 183.743 10.6321C183.617 10.429 183.445 10.2736 183.226 10.1658C183.008 10.055 182.76 9.99964 182.483 9.99964C182.194 9.99964 181.941 10.0581 181.726 10.1751C181.51 10.292 181.344 10.4598 181.227 10.6783C181.11 10.8968 181.052 11.1568 181.052 11.4585H179.154C179.154 10.8398 179.295 10.3028 179.575 9.8473C179.855 9.39181 180.247 9.03942 180.752 8.79013C181.257 8.54084 181.838 8.41619 182.497 8.41619C183.174 8.41619 183.763 8.53622 184.265 8.77628C184.77 9.01326 185.162 9.34257 185.442 9.7642C185.722 10.1858 185.862 10.669 185.862 11.2138C185.862 11.5708 185.791 11.9232 185.65 12.271C185.511 12.6187 185.264 13.005 184.907 13.4297C184.55 13.8513 184.046 14.3576 183.397 14.9485L182.017 16.3011V16.3658H185.987V18H179.247ZM191.142 18.2077C190.348 18.2047 189.665 18.0092 189.093 17.6214C188.523 17.2337 188.085 16.672 187.777 15.9364C187.472 15.2009 187.321 14.3161 187.324 13.282C187.324 12.2509 187.477 11.3723 187.782 10.646C188.089 9.91963 188.528 9.36719 189.097 8.98864C189.67 8.60701 190.351 8.41619 191.142 8.41619C191.933 8.41619 192.613 8.60701 193.183 8.98864C193.755 9.37026 194.195 9.92424 194.503 10.6506C194.811 11.3738 194.963 12.2509 194.96 13.282C194.96 14.3191 194.806 15.2055 194.498 15.9411C194.194 16.6766 193.757 17.2383 193.187 17.6261C192.618 18.0138 191.936 18.2077 191.142 18.2077ZM191.142 16.5504C191.684 16.5504 192.116 16.2781 192.44 15.7333C192.763 15.1886 192.923 14.3714 192.92 13.282C192.92 12.5649 192.846 11.9678 192.698 11.4908C192.553 11.0137 192.347 10.6552 192.079 10.4151C191.815 10.1751 191.502 10.055 191.142 10.055C190.604 10.055 190.173 10.3243 189.85 10.8629C189.527 11.4015 189.363 12.2079 189.36 13.282C189.36 14.0083 189.433 14.6146 189.577 15.1009C189.725 15.584 189.933 15.9472 190.201 16.1903C190.468 16.4304 190.782 16.5504 191.142 16.5504ZM196.385 18V16.5597L199.751 13.4435C200.037 13.1665 200.277 12.9173 200.471 12.6957C200.668 12.4741 200.817 12.2571 200.919 12.0447C201.02 11.8293 201.071 11.5969 201.071 11.3477C201.071 11.0707 201.008 10.8321 200.882 10.6321C200.756 10.429 200.583 10.2736 200.365 10.1658C200.146 10.055 199.899 9.99964 199.622 9.99964C199.332 9.99964 199.08 10.0581 198.865 10.1751C198.649 10.292 198.483 10.4598 198.366 10.6783C198.249 10.8968 198.191 11.1568 198.191 11.4585H196.293C196.293 10.8398 196.433 10.3028 196.713 9.8473C196.993 9.39181 197.386 9.03942 197.89 8.79013C198.395 8.54084 198.977 8.41619 199.635 8.41619C200.313 8.41619 200.902 8.53622 201.404 8.77628C201.908 9.01326 202.301 9.34257 202.581 9.7642C202.861 10.1858 203.001 10.669 203.001 11.2138C203.001 11.5708 202.93 11.9232 202.789 12.271C202.65 12.6187 202.402 13.005 202.045 13.4297C201.688 13.8513 201.185 14.3576 200.536 14.9485L199.155 16.3011V16.3658H203.126V18H196.385ZM208.069 18.1293C207.379 18.1293 206.765 18.0108 206.227 17.7738C205.691 17.5337 205.268 17.2044 204.957 16.7859C204.649 16.3642 204.491 15.878 204.482 15.3271H206.494C206.507 15.5579 206.582 15.761 206.721 15.9364C206.862 16.1088 207.05 16.2427 207.284 16.3381C207.518 16.4335 207.781 16.4812 208.073 16.4812C208.378 16.4812 208.647 16.4273 208.881 16.3196C209.115 16.2119 209.298 16.0626 209.43 15.8718C209.563 15.681 209.629 15.4609 209.629 15.2116C209.629 14.9593 209.558 14.7362 209.417 14.5423C209.278 14.3453 209.078 14.1914 208.816 14.0806C208.558 13.9698 208.25 13.9144 207.893 13.9144H207.011V12.4464H207.893C208.195 12.4464 208.461 12.3941 208.692 12.2894C208.926 12.1848 209.107 12.0401 209.237 11.8555C209.366 11.6677 209.43 11.4492 209.43 11.1999C209.43 10.9629 209.374 10.7552 209.26 10.5767C209.149 10.3951 208.992 10.2536 208.789 10.152C208.589 10.0504 208.355 9.99964 208.087 9.99964C207.816 9.99964 207.569 10.0489 207.344 10.1474C207.119 10.2428 206.939 10.3797 206.804 10.5582C206.668 10.7367 206.596 10.946 206.587 11.1861H204.671C204.68 10.6413 204.836 10.1612 205.137 9.74574C205.439 9.33026 205.845 9.00556 206.356 8.77166C206.87 8.53468 207.45 8.41619 208.096 8.41619C208.749 8.41619 209.32 8.53468 209.809 8.77166C210.298 9.00864 210.678 9.32872 210.949 9.73189C211.223 10.132 211.359 10.5813 211.356 11.0799C211.359 11.6093 211.194 12.0509 210.862 12.4048C210.532 12.7588 210.103 12.9834 209.574 13.0788V13.1527C210.269 13.242 210.799 13.4835 211.162 13.8775C211.528 14.2683 211.709 14.7577 211.706 15.3455C211.709 15.8841 211.554 16.3627 211.24 16.7812C210.929 17.1998 210.5 17.5291 209.952 17.7692C209.404 18.0092 208.776 18.1293 208.069 18.1293Z" fill="#FFFCFF"/>
</svg>
