<svg width="204" height="26" viewBox="0 0 204 26" fill="none" xmlns="http://www.w3.org/2000/svg">
<path d="M1 12C1 6.34315 1 3.51472 2.75736 1.75736C4.51472 0 7.34315 0 13 0H60V26H13C7.34315 26 4.51472 26 2.75736 24.2426C1 22.4853 1 19.6569 1 14V12Z" fill="#3F3F3F"/>
<path d="M8.52983 8.54545L10.815 15.7287H10.9027L13.1925 8.54545H15.4084L12.1491 18H9.57315L6.3093 8.54545H8.52983ZM18.9411 18.1385C18.2117 18.1385 17.5839 17.9908 17.0576 17.6953C16.5344 17.3968 16.1312 16.9751 15.8481 16.4304C15.565 15.8826 15.4234 15.2347 15.4234 14.4869C15.4234 13.7575 15.565 13.1173 15.8481 12.5664C16.1312 12.0155 16.5298 11.5862 17.0438 11.2784C17.5608 10.9706 18.1671 10.8168 18.8627 10.8168C19.3305 10.8168 19.766 10.8922 20.1691 11.043C20.5754 11.1907 20.9293 11.4138 21.2309 11.7124C21.5356 12.0109 21.7726 12.3864 21.9419 12.8388C22.1111 13.2881 22.1958 13.8144 22.1958 14.4176V14.9577H16.2082V13.739H20.3445C20.3445 13.4558 20.283 13.205 20.1599 12.9865C20.0368 12.768 19.866 12.5972 19.6475 12.4741C19.432 12.3479 19.1812 12.2848 18.895 12.2848C18.5964 12.2848 18.3318 12.354 18.1009 12.4925C17.8732 12.628 17.6947 12.8111 17.5654 13.0419C17.4362 13.2696 17.37 13.5236 17.3669 13.8036V14.9624C17.3669 15.3132 17.4316 15.6164 17.5608 15.8718C17.6932 16.1272 17.8794 16.3242 18.1194 16.4627C18.3595 16.6012 18.6441 16.6705 18.9735 16.6705C19.192 16.6705 19.392 16.6397 19.5736 16.5781C19.7552 16.5166 19.9106 16.4242 20.0399 16.3011C20.1691 16.178 20.2676 16.0272 20.3353 15.8487L22.1542 15.9688C22.0619 16.4058 21.8726 16.7874 21.5864 17.1136C21.3032 17.4368 20.937 17.6892 20.4877 17.8707C20.0414 18.0492 19.5259 18.1385 18.9411 18.1385ZM23.4791 18V10.9091H25.3857V12.1463H25.4596C25.5889 11.7062 25.8058 11.3738 26.1105 11.1491C26.4152 10.9214 26.7661 10.8075 27.1631 10.8075C27.2616 10.8075 27.3677 10.8137 27.4816 10.826C27.5955 10.8383 27.6955 10.8552 27.7817 10.8768V12.6218C27.6894 12.5941 27.5616 12.5695 27.3985 12.5479C27.2354 12.5264 27.0861 12.5156 26.9507 12.5156C26.6614 12.5156 26.4029 12.5787 26.1752 12.7049C25.9505 12.828 25.772 13.0004 25.6396 13.2219C25.5104 13.4435 25.4458 13.699 25.4458 13.9883V18H23.4791ZM34.6983 12.9311L32.8979 13.0419C32.8671 12.888 32.801 12.7495 32.6994 12.6264C32.5978 12.5002 32.464 12.4002 32.2978 12.3263C32.1346 12.2494 31.9392 12.2109 31.7115 12.2109C31.4068 12.2109 31.1498 12.2756 30.9405 12.4048C30.7312 12.531 30.6266 12.7003 30.6266 12.9126C30.6266 13.0819 30.6943 13.225 30.8297 13.342C30.9651 13.4589 31.1975 13.5528 31.5268 13.6236L32.8102 13.8821C33.4996 14.0237 34.0136 14.2514 34.3521 14.5653C34.6906 14.8793 34.8599 15.2917 34.8599 15.8026C34.8599 16.2673 34.723 16.6751 34.449 17.0259C34.1782 17.3768 33.8058 17.6507 33.3319 17.8477C32.861 18.0415 32.3178 18.1385 31.7022 18.1385C30.7636 18.1385 30.0157 17.9431 29.4586 17.5522C28.9047 17.1583 28.58 16.6228 28.4846 15.9457L30.4189 15.8441C30.4773 16.1303 30.6189 16.3488 30.8436 16.4996C31.0682 16.6474 31.356 16.7212 31.7069 16.7212C32.0516 16.7212 32.3285 16.6551 32.5378 16.5227C32.7502 16.3873 32.8579 16.2134 32.861 16.0011C32.8579 15.8226 32.7825 15.6764 32.6348 15.5625C32.487 15.4455 32.2593 15.3563 31.9515 15.2947L30.7235 15.0501C30.0311 14.9116 29.5156 14.6715 29.177 14.3299C28.8416 13.9883 28.6738 13.5528 28.6738 13.0234C28.6738 12.5679 28.7969 12.1755 29.0431 11.8462C29.2924 11.5169 29.6417 11.263 30.0911 11.0845C30.5435 10.906 31.0729 10.8168 31.6792 10.8168C32.5748 10.8168 33.2795 11.006 33.7935 11.3846C34.3105 11.7631 34.6122 12.2786 34.6983 12.9311ZM36.0983 18V10.9091H38.0649V18H36.0983ZM37.0862 9.99503C36.7938 9.99503 36.543 9.89808 36.3337 9.70419C36.1275 9.50722 36.0244 9.27178 36.0244 8.99787C36.0244 8.72704 36.1275 8.49467 36.3337 8.30078C36.543 8.10381 36.7938 8.00533 37.0862 8.00533C37.3786 8.00533 37.6279 8.10381 37.8341 8.30078C38.0434 8.49467 38.148 8.72704 38.148 8.99787C38.148 9.27178 38.0434 9.50722 37.8341 9.70419C37.6279 9.89808 37.3786 9.99503 37.0862 9.99503ZM42.8441 18.1385C42.127 18.1385 41.5069 17.9862 40.9837 17.6815C40.4635 17.3737 40.0619 16.9459 39.7788 16.3981C39.4956 15.8472 39.354 15.2086 39.354 14.4822C39.354 13.7498 39.4956 13.1096 39.7788 12.5618C40.0619 12.0109 40.4635 11.5831 40.9837 11.2784C41.5069 10.9706 42.127 10.8168 42.8441 10.8168C43.5612 10.8168 44.1798 10.9706 44.6999 11.2784C45.2231 11.5831 45.6263 12.0109 45.9094 12.5618C46.1926 13.1096 46.3342 13.7498 46.3342 14.4822C46.3342 15.2086 46.1926 15.8472 45.9094 16.3981C45.6263 16.9459 45.2231 17.3737 44.6999 17.6815C44.1798 17.9862 43.5612 18.1385 42.8441 18.1385ZM42.8533 16.6151C43.1796 16.6151 43.4519 16.5227 43.6705 16.3381C43.889 16.1503 44.0536 15.8949 44.1644 15.5717C44.2783 15.2486 44.3352 14.8808 44.3352 14.4684C44.3352 14.056 44.2783 13.6882 44.1644 13.3651C44.0536 13.0419 43.889 12.7865 43.6705 12.5987C43.4519 12.411 43.1796 12.3171 42.8533 12.3171C42.524 12.3171 42.247 12.411 42.0224 12.5987C41.8008 12.7865 41.633 13.0419 41.5192 13.3651C41.4084 13.6882 41.353 14.056 41.353 14.4684C41.353 14.8808 41.4084 15.2486 41.5192 15.5717C41.633 15.8949 41.8008 16.1503 42.0224 16.3381C42.247 16.5227 42.524 16.6151 42.8533 16.6151ZM49.5795 13.9006V18H47.6129V10.9091H49.4872V12.1602H49.5703C49.7273 11.7478 49.9904 11.4215 50.3597 11.1815C50.729 10.9383 51.1768 10.8168 51.7031 10.8168C52.1955 10.8168 52.6249 10.9245 52.9911 11.1399C53.3574 11.3554 53.642 11.6631 53.8452 12.0632C54.0483 12.4602 54.1499 12.9342 54.1499 13.4851V18H52.1832V13.8359C52.1863 13.402 52.0755 13.0634 51.8509 12.8203C51.6262 12.5741 51.3169 12.451 50.9229 12.451C50.6583 12.451 50.4244 12.5079 50.2212 12.6218C50.0212 12.7357 49.8642 12.9019 49.7504 13.1204C49.6396 13.3358 49.5826 13.5959 49.5795 13.9006Z" fill="white"/>
<rect width="43" height="26" transform="translate(60)" fill="#533DA3"/>
<path d="M69.261 18.1293C68.5716 18.1293 67.9576 18.0108 67.419 17.7738C66.8835 17.5337 66.4603 17.2044 66.1495 16.7859C65.8417 16.3642 65.6832 15.878 65.674 15.3271H67.6868C67.6991 15.5579 67.7745 15.761 67.913 15.9364C68.0546 16.1088 68.2423 16.2427 68.4762 16.3381C68.7101 16.4335 68.9732 16.4812 69.2656 16.4812C69.5703 16.4812 69.8396 16.4273 70.0735 16.3196C70.3074 16.2119 70.4905 16.0626 70.6229 15.8718C70.7552 15.681 70.8214 15.4609 70.8214 15.2116C70.8214 14.9593 70.7506 14.7362 70.609 14.5423C70.4705 14.3453 70.2705 14.1914 70.0089 14.0806C69.7504 13.9698 69.4426 13.9144 69.0856 13.9144H68.2038V12.4464H69.0856C69.3872 12.4464 69.6534 12.3941 69.8842 12.2894C70.1181 12.1848 70.2997 12.0401 70.429 11.8555C70.5582 11.6677 70.6229 11.4492 70.6229 11.1999C70.6229 10.9629 70.5659 10.7552 70.4521 10.5767C70.3413 10.3951 70.1843 10.2536 69.9812 10.152C69.7811 10.0504 69.5472 9.99964 69.2795 9.99964C69.0086 9.99964 68.7609 10.0489 68.5362 10.1474C68.3116 10.2428 68.1315 10.3797 67.9961 10.5582C67.8607 10.7367 67.7884 10.946 67.7791 11.1861H65.8633C65.8725 10.6413 66.0279 10.1612 66.3295 9.74574C66.6312 9.33026 67.0374 9.00556 67.5483 8.77166C68.0623 8.53468 68.6424 8.41619 69.2887 8.41619C69.9412 8.41619 70.5121 8.53468 71.0014 8.77166C71.4908 9.00864 71.8709 9.32872 72.1417 9.73189C72.4156 10.132 72.551 10.5813 72.5479 11.0799C72.551 11.6093 72.3864 12.0509 72.054 12.4048C71.7247 12.7588 71.2953 12.9834 70.766 13.0788V13.1527C71.4615 13.242 71.9909 13.4835 72.354 13.8775C72.7203 14.2683 72.9019 14.7577 72.8988 15.3455C72.9019 15.8841 72.7464 16.3627 72.4325 16.7812C72.1217 17.1998 71.6924 17.5291 71.1445 17.7692C70.5967 18.0092 69.9689 18.1293 69.261 18.1293ZM75.237 18.12C74.9324 18.12 74.6708 18.0123 74.4522 17.7969C74.2368 17.5784 74.1291 17.3168 74.1291 17.0121C74.1291 16.7105 74.2368 16.4519 74.4522 16.2365C74.6708 16.0211 74.9324 15.9134 75.237 15.9134C75.5325 15.9134 75.791 16.0211 76.0126 16.2365C76.2342 16.4519 76.345 16.7105 76.345 17.0121C76.345 17.2152 76.2927 17.4014 76.188 17.5707C76.0865 17.7369 75.9526 17.8707 75.7864 17.9723C75.6202 18.0708 75.4371 18.12 75.237 18.12ZM81.2673 18.2077C80.4733 18.2047 79.79 18.0092 79.2176 17.6214C78.6482 17.2337 78.2097 16.672 77.9019 15.9364C77.5972 15.2009 77.4464 14.3161 77.4495 13.282C77.4495 12.2509 77.6018 11.3723 77.9065 10.646C78.2143 9.91963 78.6528 9.36719 79.2222 8.98864C79.7947 8.60701 80.4764 8.41619 81.2673 8.41619C82.0583 8.41619 82.7384 8.60701 83.3078 8.98864C83.8802 9.37026 84.3203 9.92424 84.6281 10.6506C84.9359 11.3738 85.0882 12.2509 85.0851 13.282C85.0851 14.3191 84.9313 15.2055 84.6235 15.9411C84.3188 16.6766 83.8818 17.2383 83.3124 17.6261C82.743 18.0138 82.0613 18.2077 81.2673 18.2077ZM81.2673 16.5504C81.809 16.5504 82.2414 16.2781 82.5645 15.7333C82.8877 15.1886 83.0477 14.3714 83.0447 13.282C83.0447 12.5649 82.9708 11.9678 82.8231 11.4908C82.6784 11.0137 82.4722 10.6552 82.2045 10.4151C81.9398 10.1751 81.6274 10.055 81.2673 10.055C80.7287 10.055 80.2979 10.3243 79.9747 10.8629C79.6515 11.4015 79.4884 12.2079 79.4854 13.282C79.4854 14.0083 79.5577 14.6146 79.7023 15.1009C79.8501 15.584 80.0578 15.9472 80.3256 16.1903C80.5933 16.4304 80.9072 16.5504 81.2673 16.5504ZM87.2976 18.12C86.9929 18.12 86.7313 18.0123 86.5128 17.7969C86.2973 17.5784 86.1896 17.3168 86.1896 17.0121C86.1896 16.7105 86.2973 16.4519 86.5128 16.2365C86.7313 16.0211 86.9929 15.9134 87.2976 15.9134C87.593 15.9134 87.8516 16.0211 88.0732 16.2365C88.2947 16.4519 88.4055 16.7105 88.4055 17.0121C88.4055 17.2152 88.3532 17.4014 88.2486 17.5707C88.147 17.7369 88.0131 17.8707 87.8469 17.9723C87.6808 18.0708 87.4976 18.12 87.2976 18.12ZM93.3279 18.2077C92.5338 18.2047 91.8506 18.0092 91.2781 17.6214C90.7088 17.2337 90.2702 16.672 89.9624 15.9364C89.6578 15.2009 89.507 14.3161 89.51 13.282C89.51 12.2509 89.6624 11.3723 89.9671 10.646C90.2748 9.91963 90.7134 9.36719 91.2828 8.98864C91.8552 8.60701 92.5369 8.41619 93.3279 8.41619C94.1188 8.41619 94.799 8.60701 95.3683 8.98864C95.9408 9.37026 96.3809 9.92424 96.6887 10.6506C96.9964 11.3738 97.1488 12.2509 97.1457 13.282C97.1457 14.3191 96.9918 15.2055 96.684 15.9411C96.3794 16.6766 95.9423 17.2383 95.373 17.6261C94.8036 18.0138 94.1219 18.2077 93.3279 18.2077ZM93.3279 16.5504C93.8695 16.5504 94.3019 16.2781 94.6251 15.7333C94.9482 15.1886 95.1083 14.3714 95.1052 13.282C95.1052 12.5649 95.0313 11.9678 94.8836 11.4908C94.739 11.0137 94.5328 10.6552 94.265 10.4151C94.0003 10.1751 93.6879 10.055 93.3279 10.055C92.7893 10.055 92.3584 10.3243 92.0352 10.8629C91.7121 11.4015 91.549 12.2079 91.5459 13.282C91.5459 14.0083 91.6182 14.6146 91.7629 15.1009C91.9106 15.584 92.1183 15.9472 92.3861 16.1903C92.6539 16.4304 92.9678 16.5504 93.3279 16.5504Z" fill="white"/>
<path d="M103 0H191C196.657 0 199.485 0 201.243 1.75736C203 3.51472 203 6.34315 203 12V14C203 19.6569 203 22.4853 201.243 24.2426C199.485 26 196.657 26 191 26H103V0Z" fill="#6C4FD4"/>
<path d="M117.51 13.2727C117.51 14.3037 117.315 15.1809 116.924 15.9041C116.536 16.6274 116.007 17.1798 115.336 17.5614C114.668 17.94 113.917 18.1293 113.083 18.1293C112.243 18.1293 111.489 17.9384 110.821 17.5568C110.153 17.1752 109.625 16.6228 109.237 15.8995C108.849 15.1763 108.656 14.3007 108.656 13.2727C108.656 12.2417 108.849 11.3646 109.237 10.6413C109.625 9.91809 110.153 9.36719 110.821 8.98864C111.489 8.60701 112.243 8.41619 113.083 8.41619C113.917 8.41619 114.668 8.60701 115.336 8.98864C116.007 9.36719 116.536 9.91809 116.924 10.6413C117.315 11.3646 117.51 12.2417 117.51 13.2727ZM115.483 13.2727C115.483 12.6049 115.383 12.0417 115.183 11.5831C114.986 11.1245 114.708 10.7768 114.348 10.5398C113.988 10.3028 113.566 10.1843 113.083 10.1843C112.6 10.1843 112.178 10.3028 111.818 10.5398C111.458 10.7768 111.178 11.1245 110.978 11.5831C110.781 12.0417 110.682 12.6049 110.682 13.2727C110.682 13.9406 110.781 14.5038 110.978 14.9624C111.178 15.4209 111.458 15.7687 111.818 16.0057C112.178 16.2427 112.6 16.3612 113.083 16.3612C113.566 16.3612 113.988 16.2427 114.348 16.0057C114.708 15.7687 114.986 15.4209 115.183 14.9624C115.383 14.5038 115.483 13.9406 115.483 13.2727ZM122.158 18.1385C121.431 18.1385 120.806 17.9846 120.283 17.6768C119.763 17.366 119.363 16.9351 119.083 16.3842C118.806 15.8333 118.668 15.1993 118.668 14.4822C118.668 13.7559 118.808 13.1188 119.088 12.571C119.371 12.0201 119.772 11.5908 120.293 11.283C120.813 10.9722 121.431 10.8168 122.148 10.8168C122.767 10.8168 123.309 10.9291 123.773 11.1538C124.238 11.3784 124.606 11.6939 124.877 12.1001C125.148 12.5064 125.297 12.9834 125.324 13.5312H123.469C123.416 13.1773 123.278 12.8926 123.053 12.6772C122.832 12.4587 122.541 12.3494 122.181 12.3494C121.876 12.3494 121.61 12.4325 121.382 12.5987C121.157 12.7618 120.982 13.0004 120.856 13.3143C120.73 13.6282 120.666 14.0083 120.666 14.4545C120.666 14.907 120.728 15.2917 120.851 15.6087C120.977 15.9257 121.154 16.1673 121.382 16.3335C121.61 16.4996 121.876 16.5827 122.181 16.5827C122.405 16.5827 122.607 16.5366 122.785 16.4442C122.967 16.3519 123.116 16.218 123.233 16.0426C123.353 15.8641 123.432 15.6502 123.469 15.4009H125.324C125.294 15.9426 125.146 16.4196 124.881 16.832C124.62 17.2414 124.258 17.5614 123.796 17.7923C123.335 18.0231 122.789 18.1385 122.158 18.1385ZM130.355 10.9091V12.3864H126.085V10.9091H130.355ZM127.055 9.21023H129.021V15.821C129.021 16.0026 129.049 16.1442 129.104 16.2457C129.16 16.3442 129.237 16.4135 129.335 16.4535C129.437 16.4935 129.554 16.5135 129.686 16.5135C129.778 16.5135 129.871 16.5058 129.963 16.4904C130.055 16.4719 130.126 16.4581 130.175 16.4489L130.485 17.9123C130.386 17.9431 130.248 17.9785 130.069 18.0185C129.891 18.0616 129.674 18.0877 129.418 18.0969C128.944 18.1154 128.529 18.0523 128.172 17.9077C127.818 17.763 127.542 17.5384 127.345 17.2337C127.148 16.929 127.051 16.5443 127.055 16.0795V9.21023ZM134.764 18.1385C134.047 18.1385 133.427 17.9862 132.904 17.6815C132.383 17.3737 131.982 16.9459 131.699 16.3981C131.416 15.8472 131.274 15.2086 131.274 14.4822C131.274 13.7498 131.416 13.1096 131.699 12.5618C131.982 12.0109 132.383 11.5831 132.904 11.2784C133.427 10.9706 134.047 10.8168 134.764 10.8168C135.481 10.8168 136.1 10.9706 136.62 11.2784C137.143 11.5831 137.546 12.0109 137.829 12.5618C138.113 13.1096 138.254 13.7498 138.254 14.4822C138.254 15.2086 138.113 15.8472 137.829 16.3981C137.546 16.9459 137.143 17.3737 136.62 17.6815C136.1 17.9862 135.481 18.1385 134.764 18.1385ZM134.773 16.6151C135.099 16.6151 135.372 16.5227 135.59 16.3381C135.809 16.1503 135.974 15.8949 136.084 15.5717C136.198 15.2486 136.255 14.8808 136.255 14.4684C136.255 14.056 136.198 13.6882 136.084 13.3651C135.974 13.0419 135.809 12.7865 135.59 12.5987C135.372 12.411 135.099 12.3171 134.773 12.3171C134.444 12.3171 134.167 12.411 133.942 12.5987C133.721 12.7865 133.553 13.0419 133.439 13.3651C133.328 13.6882 133.273 14.056 133.273 14.4684C133.273 14.8808 133.328 15.2486 133.439 15.5717C133.553 15.8949 133.721 16.1503 133.942 16.3381C134.167 16.5227 134.444 16.6151 134.773 16.6151ZM139.57 18V8.54545H141.536V12.1001H141.596C141.683 11.9093 141.807 11.7154 141.97 11.5185C142.137 11.3184 142.352 11.1522 142.617 11.0199C142.884 10.8845 143.217 10.8168 143.614 10.8168C144.131 10.8168 144.608 10.9522 145.045 11.223C145.482 11.4908 145.831 11.8955 146.093 12.4371C146.354 12.9757 146.485 13.6513 146.485 14.4638C146.485 15.2547 146.358 15.9226 146.102 16.4673C145.85 17.009 145.505 17.4199 145.068 17.6999C144.634 17.9769 144.148 18.1154 143.609 18.1154C143.228 18.1154 142.903 18.0523 142.635 17.9261C142.37 17.8 142.153 17.6415 141.984 17.4506C141.815 17.2567 141.686 17.0613 141.596 16.8643H141.509V18H139.57ZM141.495 14.4545C141.495 14.8762 141.553 15.244 141.67 15.5579C141.787 15.8718 141.956 16.1165 142.178 16.2919C142.4 16.4643 142.669 16.5504 142.986 16.5504C143.306 16.5504 143.577 16.4627 143.798 16.2873C144.02 16.1088 144.188 15.8626 144.302 15.5487C144.419 15.2317 144.477 14.867 144.477 14.4545C144.477 14.0452 144.42 13.6851 144.306 13.3743C144.192 13.0634 144.025 12.8203 143.803 12.6449C143.581 12.4695 143.309 12.3817 142.986 12.3817C142.666 12.3817 142.395 12.4664 142.173 12.6357C141.955 12.8049 141.787 13.045 141.67 13.3558C141.553 13.6667 141.495 14.0329 141.495 14.4545ZM151.029 18.1385C150.3 18.1385 149.672 17.9908 149.146 17.6953C148.622 17.3968 148.219 16.9751 147.936 16.4304C147.653 15.8826 147.511 15.2347 147.511 14.4869C147.511 13.7575 147.653 13.1173 147.936 12.5664C148.219 12.0155 148.618 11.5862 149.132 11.2784C149.649 10.9706 150.255 10.8168 150.951 10.8168C151.418 10.8168 151.854 10.8922 152.257 11.043C152.663 11.1907 153.017 11.4138 153.319 11.7124C153.623 12.0109 153.86 12.3864 154.03 12.8388C154.199 13.2881 154.284 13.8144 154.284 14.4176V14.9577H148.296V13.739H152.432C152.432 13.4558 152.371 13.205 152.248 12.9865C152.125 12.768 151.954 12.5972 151.735 12.4741C151.52 12.3479 151.269 12.2848 150.983 12.2848C150.684 12.2848 150.42 12.354 150.189 12.4925C149.961 12.628 149.783 12.8111 149.653 13.0419C149.524 13.2696 149.458 13.5236 149.455 13.8036V14.9624C149.455 15.3132 149.519 15.6164 149.649 15.8718C149.781 16.1272 149.967 16.3242 150.207 16.4627C150.447 16.6012 150.732 16.6705 151.061 16.6705C151.28 16.6705 151.48 16.6397 151.661 16.5781C151.843 16.5166 151.998 16.4242 152.128 16.3011C152.257 16.178 152.355 16.0272 152.423 15.8487L154.242 15.9688C154.15 16.4058 153.96 16.7874 153.674 17.1136C153.391 17.4368 153.025 17.6892 152.576 17.8707C152.129 18.0492 151.614 18.1385 151.029 18.1385ZM155.567 18V10.9091H157.474V12.1463H157.547C157.677 11.7062 157.894 11.3738 158.198 11.1491C158.503 10.9214 158.854 10.8075 159.251 10.8075C159.349 10.8075 159.456 10.8137 159.57 10.826C159.683 10.8383 159.783 10.8552 159.87 10.8768V12.6218C159.777 12.5941 159.65 12.5695 159.486 12.5479C159.323 12.5264 159.174 12.5156 159.039 12.5156C158.749 12.5156 158.491 12.5787 158.263 12.7049C158.038 12.828 157.86 13.0004 157.728 13.2219C157.598 13.4435 157.534 13.699 157.534 13.9883V18H155.567ZM163.877 18V16.5597L167.242 13.4435C167.528 13.1665 167.768 12.9173 167.962 12.6957C168.159 12.4741 168.309 12.2571 168.41 12.0447C168.512 11.8293 168.562 11.5969 168.562 11.3477C168.562 11.0707 168.499 10.8321 168.373 10.6321C168.247 10.429 168.075 10.2736 167.856 10.1658C167.638 10.055 167.39 9.99964 167.113 9.99964C166.824 9.99964 166.571 10.0581 166.356 10.1751C166.14 10.292 165.974 10.4598 165.857 10.6783C165.74 10.8968 165.682 11.1568 165.682 11.4585H163.784C163.784 10.8398 163.924 10.3028 164.204 9.8473C164.485 9.39181 164.877 9.03942 165.382 8.79013C165.886 8.54084 166.468 8.41619 167.127 8.41619C167.804 8.41619 168.393 8.53622 168.895 8.77628C169.4 9.01326 169.792 9.34257 170.072 9.7642C170.352 10.1858 170.492 10.669 170.492 11.2138C170.492 11.5708 170.421 11.9232 170.28 12.271C170.141 12.6187 169.893 13.005 169.536 13.4297C169.179 13.8513 168.676 14.3576 168.027 14.9485L166.647 16.3011V16.3658H170.617V18H163.877ZM175.772 18.2077C174.978 18.2047 174.295 18.0092 173.722 17.6214C173.153 17.2337 172.715 16.672 172.407 15.9364C172.102 15.2009 171.951 14.3161 171.954 13.282C171.954 12.2509 172.107 11.3723 172.411 10.646C172.719 9.91963 173.158 9.36719 173.727 8.98864C174.3 8.60701 174.981 8.41619 175.772 8.41619C176.563 8.41619 177.243 8.60701 177.813 8.98864C178.385 9.37026 178.825 9.92424 179.133 10.6506C179.441 11.3738 179.593 12.2509 179.59 13.282C179.59 14.3191 179.436 15.2055 179.128 15.9411C178.824 16.6766 178.387 17.2383 177.817 17.6261C177.248 18.0138 176.566 18.2077 175.772 18.2077ZM175.772 16.5504C176.314 16.5504 176.746 16.2781 177.069 15.7333C177.393 15.1886 177.553 14.3714 177.55 13.282C177.55 12.5649 177.476 11.9678 177.328 11.4908C177.183 11.0137 176.977 10.6552 176.709 10.4151C176.445 10.1751 176.132 10.055 175.772 10.055C175.234 10.055 174.803 10.3243 174.48 10.8629C174.156 11.4015 173.993 12.2079 173.99 13.282C173.99 14.0083 174.063 14.6146 174.207 15.1009C174.355 15.584 174.563 15.9472 174.83 16.1903C175.098 16.4304 175.412 16.5504 175.772 16.5504ZM181.015 18V16.5597L184.381 13.4435C184.667 13.1665 184.907 12.9173 185.101 12.6957C185.298 12.4741 185.447 12.2571 185.549 12.0447C185.65 11.8293 185.701 11.5969 185.701 11.3477C185.701 11.0707 185.638 10.8321 185.512 10.6321C185.386 10.429 185.213 10.2736 184.995 10.1658C184.776 10.055 184.528 9.99964 184.252 9.99964C183.962 9.99964 183.71 10.0581 183.494 10.1751C183.279 10.292 183.113 10.4598 182.996 10.6783C182.879 10.8968 182.82 11.1568 182.82 11.4585H180.923C180.923 10.8398 181.063 10.3028 181.343 9.8473C181.623 9.39181 182.016 9.03942 182.52 8.79013C183.025 8.54084 183.607 8.41619 184.265 8.41619C184.942 8.41619 185.532 8.53622 186.033 8.77628C186.538 9.01326 186.931 9.34257 187.211 9.7642C187.491 10.1858 187.631 10.669 187.631 11.2138C187.631 11.5708 187.56 11.9232 187.418 12.271C187.28 12.6187 187.032 13.005 186.675 13.4297C186.318 13.8513 185.815 14.3576 185.166 14.9485L183.785 16.3011V16.3658H187.755V18H181.015ZM188.858 16.3381V14.7638L192.805 8.54545H194.162V10.7244H193.359L190.87 14.6623V14.7362H196.479V16.3381H188.858ZM193.396 18V15.858L193.433 15.1609V8.54545H195.307V18H193.396Z" fill="white"/>
</svg>
