<svg width="184" height="26" viewBox="0 0 184 26" fill="none" xmlns="http://www.w3.org/2000/svg">
<path d="M1.5 12C1.5 6.34315 1.5 3.51472 3.25736 1.75736C5.01472 0 7.84315 0 13.5 0H60.5V26H13.5C7.84315 26 5.01472 26 3.25736 24.2426C1.5 22.4853 1.5 19.6569 1.5 14V12Z" fill="#3F3F3F"/>
<path d="M9.02983 8.54545L11.315 15.7287H11.4027L13.6925 8.54545H15.9084L12.6491 18H10.0732L6.8093 8.54545H9.02983ZM19.4411 18.1385C18.7117 18.1385 18.0839 17.9908 17.5576 17.6953C17.0344 17.3968 16.6312 16.9751 16.3481 16.4304C16.065 15.8826 15.9234 15.2347 15.9234 14.4869C15.9234 13.7575 16.065 13.1173 16.3481 12.5664C16.6312 12.0155 17.0298 11.5862 17.5438 11.2784C18.0608 10.9706 18.6671 10.8168 19.3627 10.8168C19.8305 10.8168 20.266 10.8922 20.6691 11.043C21.0754 11.1907 21.4293 11.4138 21.7309 11.7124C22.0356 12.0109 22.2726 12.3864 22.4419 12.8388C22.6111 13.2881 22.6958 13.8144 22.6958 14.4176V14.9577H16.7082V13.739H20.8445C20.8445 13.4558 20.783 13.205 20.6599 12.9865C20.5368 12.768 20.366 12.5972 20.1475 12.4741C19.932 12.3479 19.6812 12.2848 19.395 12.2848C19.0964 12.2848 18.8318 12.354 18.6009 12.4925C18.3732 12.628 18.1947 12.8111 18.0654 13.0419C17.9362 13.2696 17.87 13.5236 17.8669 13.8036V14.9624C17.8669 15.3132 17.9316 15.6164 18.0608 15.8718C18.1932 16.1272 18.3794 16.3242 18.6194 16.4627C18.8595 16.6012 19.1441 16.6705 19.4735 16.6705C19.692 16.6705 19.892 16.6397 20.0736 16.5781C20.2552 16.5166 20.4106 16.4242 20.5399 16.3011C20.6691 16.178 20.7676 16.0272 20.8353 15.8487L22.6542 15.9688C22.5619 16.4058 22.3726 16.7874 22.0864 17.1136C21.8032 17.4368 21.437 17.6892 20.9877 17.8707C20.5414 18.0492 20.0259 18.1385 19.4411 18.1385ZM23.9791 18V10.9091H25.8857V12.1463H25.9596C26.0889 11.7062 26.3058 11.3738 26.6105 11.1491C26.9152 10.9214 27.2661 10.8075 27.6631 10.8075C27.7616 10.8075 27.8677 10.8137 27.9816 10.826C28.0955 10.8383 28.1955 10.8552 28.2817 10.8768V12.6218C28.1894 12.5941 28.0616 12.5695 27.8985 12.5479C27.7354 12.5264 27.5861 12.5156 27.4507 12.5156C27.1614 12.5156 26.9029 12.5787 26.6752 12.7049C26.4505 12.828 26.272 13.0004 26.1396 13.2219C26.0104 13.4435 25.9458 13.699 25.9458 13.9883V18H23.9791ZM35.1983 12.9311L33.3979 13.0419C33.3671 12.888 33.301 12.7495 33.1994 12.6264C33.0978 12.5002 32.964 12.4002 32.7978 12.3263C32.6346 12.2494 32.4392 12.2109 32.2115 12.2109C31.9068 12.2109 31.6498 12.2756 31.4405 12.4048C31.2312 12.531 31.1266 12.7003 31.1266 12.9126C31.1266 13.0819 31.1943 13.225 31.3297 13.342C31.4651 13.4589 31.6975 13.5528 32.0268 13.6236L33.3102 13.8821C33.9996 14.0237 34.5136 14.2514 34.8521 14.5653C35.1906 14.8793 35.3599 15.2917 35.3599 15.8026C35.3599 16.2673 35.223 16.6751 34.949 17.0259C34.6782 17.3768 34.3058 17.6507 33.8319 17.8477C33.361 18.0415 32.8178 18.1385 32.2022 18.1385C31.2636 18.1385 30.5157 17.9431 29.9586 17.5522C29.4047 17.1583 29.08 16.6228 28.9846 15.9457L30.9189 15.8441C30.9773 16.1303 31.1189 16.3488 31.3436 16.4996C31.5682 16.6474 31.856 16.7212 32.2069 16.7212C32.5516 16.7212 32.8285 16.6551 33.0378 16.5227C33.2502 16.3873 33.3579 16.2134 33.361 16.0011C33.3579 15.8226 33.2825 15.6764 33.1348 15.5625C32.987 15.4455 32.7593 15.3563 32.4515 15.2947L31.2235 15.0501C30.5311 14.9116 30.0156 14.6715 29.677 14.3299C29.3416 13.9883 29.1738 13.5528 29.1738 13.0234C29.1738 12.5679 29.2969 12.1755 29.5431 11.8462C29.7924 11.5169 30.1417 11.263 30.5911 11.0845C31.0435 10.906 31.5729 10.8168 32.1792 10.8168C33.0748 10.8168 33.7795 11.006 34.2935 11.3846C34.8105 11.7631 35.1122 12.2786 35.1983 12.9311ZM36.5983 18V10.9091H38.5649V18H36.5983ZM37.5862 9.99503C37.2938 9.99503 37.043 9.89808 36.8337 9.70419C36.6275 9.50722 36.5244 9.27178 36.5244 8.99787C36.5244 8.72704 36.6275 8.49467 36.8337 8.30078C37.043 8.10381 37.2938 8.00533 37.5862 8.00533C37.8786 8.00533 38.1279 8.10381 38.3341 8.30078C38.5434 8.49467 38.648 8.72704 38.648 8.99787C38.648 9.27178 38.5434 9.50722 38.3341 9.70419C38.1279 9.89808 37.8786 9.99503 37.5862 9.99503ZM43.3441 18.1385C42.627 18.1385 42.0069 17.9862 41.4837 17.6815C40.9635 17.3737 40.5619 16.9459 40.2788 16.3981C39.9956 15.8472 39.854 15.2086 39.854 14.4822C39.854 13.7498 39.9956 13.1096 40.2788 12.5618C40.5619 12.0109 40.9635 11.5831 41.4837 11.2784C42.0069 10.9706 42.627 10.8168 43.3441 10.8168C44.0612 10.8168 44.6798 10.9706 45.1999 11.2784C45.7231 11.5831 46.1263 12.0109 46.4094 12.5618C46.6926 13.1096 46.8342 13.7498 46.8342 14.4822C46.8342 15.2086 46.6926 15.8472 46.4094 16.3981C46.1263 16.9459 45.7231 17.3737 45.1999 17.6815C44.6798 17.9862 44.0612 18.1385 43.3441 18.1385ZM43.3533 16.6151C43.6796 16.6151 43.9519 16.5227 44.1705 16.3381C44.389 16.1503 44.5536 15.8949 44.6644 15.5717C44.7783 15.2486 44.8352 14.8808 44.8352 14.4684C44.8352 14.056 44.7783 13.6882 44.6644 13.3651C44.5536 13.0419 44.389 12.7865 44.1705 12.5987C43.9519 12.411 43.6796 12.3171 43.3533 12.3171C43.024 12.3171 42.747 12.411 42.5224 12.5987C42.3008 12.7865 42.133 13.0419 42.0192 13.3651C41.9084 13.6882 41.853 14.056 41.853 14.4684C41.853 14.8808 41.9084 15.2486 42.0192 15.5717C42.133 15.8949 42.3008 16.1503 42.5224 16.3381C42.747 16.5227 43.024 16.6151 43.3533 16.6151ZM50.0795 13.9006V18H48.1129V10.9091H49.9872V12.1602H50.0703C50.2273 11.7478 50.4904 11.4215 50.8597 11.1815C51.229 10.9383 51.6768 10.8168 52.2031 10.8168C52.6955 10.8168 53.1249 10.9245 53.4911 11.1399C53.8574 11.3554 54.142 11.6631 54.3452 12.0632C54.5483 12.4602 54.6499 12.9342 54.6499 13.4851V18H52.6832V13.8359C52.6863 13.402 52.5755 13.0634 52.3509 12.8203C52.1262 12.5741 51.8169 12.451 51.4229 12.451C51.1583 12.451 50.9244 12.5079 50.7212 12.6218C50.5212 12.7357 50.3642 12.9019 50.2504 13.1204C50.1396 13.3358 50.0826 13.5959 50.0795 13.9006Z" fill="white"/>
<rect width="43" height="26" transform="translate(60.5)" fill="#533DA3"/>
<path d="M66.2663 18V16.5597L69.6317 13.4435C69.918 13.1665 70.158 12.9173 70.3519 12.6957C70.5489 12.4741 70.6982 12.2571 70.7997 12.0447C70.9013 11.8293 70.9521 11.5969 70.9521 11.3477C70.9521 11.0707 70.889 10.8321 70.7628 10.6321C70.6366 10.429 70.4643 10.2736 70.2457 10.1658C70.0272 10.055 69.7795 9.99964 69.5025 9.99964C69.2132 9.99964 68.9608 10.0581 68.7454 10.1751C68.5299 10.292 68.3638 10.4598 68.2468 10.6783C68.1299 10.8968 68.0714 11.1568 68.0714 11.4585H66.174C66.174 10.8398 66.314 10.3028 66.5941 9.8473C66.8742 9.39181 67.2666 9.03942 67.7713 8.79013C68.276 8.54084 68.8577 8.41619 69.5163 8.41619C70.1934 8.41619 70.7828 8.53622 71.2844 8.77628C71.7892 9.01326 72.1816 9.34257 72.4616 9.7642C72.7417 10.1858 72.8817 10.669 72.8817 11.2138C72.8817 11.5708 72.811 11.9232 72.6694 12.271C72.5309 12.6187 72.2831 13.005 71.9261 13.4297C71.5691 13.8513 71.0659 14.3576 70.4165 14.9485L69.0362 16.3011V16.3658H73.0064V18H66.2663ZM75.6228 18.12C75.3181 18.12 75.0565 18.0123 74.838 17.7969C74.6225 17.5784 74.5148 17.3168 74.5148 17.0121C74.5148 16.7105 74.6225 16.4519 74.838 16.2365C75.0565 16.0211 75.3181 15.9134 75.6228 15.9134C75.9182 15.9134 76.1768 16.0211 76.3983 16.2365C76.6199 16.4519 76.7307 16.7105 76.7307 17.0121C76.7307 17.2152 76.6784 17.4014 76.5738 17.5707C76.4722 17.7369 76.3383 17.8707 76.1721 17.9723C76.0059 18.0708 75.8228 18.12 75.6228 18.12ZM81.7038 18.1293C81.0514 18.1293 80.4697 18.0092 79.9588 17.7692C79.451 17.5291 79.0478 17.1983 78.7493 16.7766C78.4508 16.355 78.2953 15.8718 78.283 15.3271H80.2219C80.2435 15.6933 80.3974 15.9903 80.6836 16.218C80.9698 16.4458 81.3099 16.5597 81.7038 16.5597C82.0178 16.5597 82.2947 16.4904 82.5348 16.3519C82.7779 16.2103 82.9672 16.0149 83.1026 15.7656C83.2411 15.5133 83.3104 15.224 83.3104 14.8977C83.3104 14.5653 83.2396 14.273 83.098 14.0206C82.9595 13.7682 82.7672 13.5713 82.521 13.4297C82.2747 13.2881 81.9931 13.2158 81.6761 13.2127C81.3991 13.2127 81.1299 13.2696 80.8683 13.3835C80.6097 13.4974 80.4081 13.6528 80.2635 13.8498L78.4862 13.5312L78.9339 8.54545H84.7138V10.1797H80.582L80.3374 12.5479H80.3928C80.5589 12.314 80.8098 12.1201 81.1452 11.9663C81.4807 11.8124 81.8562 11.7354 82.2717 11.7354C82.841 11.7354 83.3488 11.8693 83.7951 12.1371C84.2414 12.4048 84.5938 12.7726 84.8523 13.2404C85.1108 13.7051 85.2385 14.2406 85.2354 14.8469C85.2385 15.484 85.0908 16.0503 84.7923 16.5458C84.4968 17.0382 84.0829 17.426 83.5504 17.7092C83.0211 17.9892 82.4055 18.1293 81.7038 18.1293ZM87.4929 18.12C87.1882 18.12 86.9266 18.0123 86.7081 17.7969C86.4927 17.5784 86.3849 17.3168 86.3849 17.0121C86.3849 16.7105 86.4927 16.4519 86.7081 16.2365C86.9266 16.0211 87.1882 15.9134 87.4929 15.9134C87.7884 15.9134 88.0469 16.0211 88.2685 16.2365C88.4901 16.4519 88.6009 16.7105 88.6009 17.0121C88.6009 17.2152 88.5485 17.4014 88.4439 17.5707C88.3423 17.7369 88.2085 17.8707 88.0423 17.9723C87.8761 18.0708 87.6929 18.12 87.4929 18.12ZM93.5232 18.2077C92.7291 18.2047 92.0459 18.0092 91.4735 17.6214C90.9041 17.2337 90.4655 16.672 90.1578 15.9364C89.8531 15.2009 89.7023 14.3161 89.7053 13.282C89.7053 12.2509 89.8577 11.3723 90.1624 10.646C90.4701 9.91963 90.9087 9.36719 91.4781 8.98864C92.0505 8.60701 92.7322 8.41619 93.5232 8.41619C94.3141 8.41619 94.9943 8.60701 95.5637 8.98864C96.1361 9.37026 96.5762 9.92424 96.884 10.6506C97.1917 11.3738 97.3441 12.2509 97.341 13.282C97.341 14.3191 97.1871 15.2055 96.8794 15.9411C96.5747 16.6766 96.1376 17.2383 95.5683 17.6261C94.9989 18.0138 94.3172 18.2077 93.5232 18.2077ZM93.5232 16.5504C94.0648 16.5504 94.4972 16.2781 94.8204 15.7333C95.1436 15.1886 95.3036 14.3714 95.3005 13.282C95.3005 12.5649 95.2267 11.9678 95.0789 11.4908C94.9343 11.0137 94.7281 10.6552 94.4603 10.4151C94.1956 10.1751 93.8833 10.055 93.5232 10.055C92.9846 10.055 92.5537 10.3243 92.2306 10.8629C91.9074 11.4015 91.7443 12.2079 91.7412 13.282C91.7412 14.0083 91.8135 14.6146 91.9582 15.1009C92.1059 15.584 92.3137 15.9472 92.5814 16.1903C92.8492 16.4304 93.1631 16.5504 93.5232 16.5504Z" fill="white"/>
<path d="M103.5 0H170.5C176.157 0 178.985 0 180.743 1.75736C182.5 3.51472 182.5 6.34315 182.5 12V14C182.5 19.6569 182.5 22.4853 180.743 24.2426C178.985 26 176.157 26 170.5 26H103.5V0Z" fill="#6C4FD4"/>
<path d="M113.107 8.54545H115.083V15.1378C115.083 15.7472 114.946 16.2765 114.672 16.7259C114.401 17.1752 114.024 17.5214 113.541 17.7646C113.058 18.0077 112.496 18.1293 111.856 18.1293C111.287 18.1293 110.77 18.0292 110.305 17.8292C109.843 17.6261 109.477 17.3183 109.206 16.9059C108.935 16.4904 108.802 15.9687 108.805 15.3409H110.794C110.801 15.5902 110.851 15.8041 110.947 15.9826C111.045 16.158 111.179 16.2934 111.348 16.3888C111.521 16.4812 111.724 16.5273 111.958 16.5273C112.204 16.5273 112.412 16.475 112.581 16.3704C112.753 16.2627 112.884 16.1057 112.973 15.8995C113.063 15.6933 113.107 15.4394 113.107 15.1378V8.54545ZM121.246 14.9808V10.9091H123.213V18H121.325V16.712H121.251C121.091 17.1275 120.824 17.4614 120.452 17.7138C120.083 17.9661 119.632 18.0923 119.099 18.0923C118.625 18.0923 118.208 17.9846 117.848 17.7692C117.488 17.5537 117.207 17.2475 117.004 16.8505C116.804 16.4535 116.702 15.978 116.699 15.424V10.9091H118.665V15.0732C118.669 15.4917 118.781 15.8226 119.002 16.0657C119.224 16.3088 119.521 16.4304 119.893 16.4304C120.13 16.4304 120.352 16.3765 120.558 16.2688C120.764 16.158 120.931 15.9949 121.057 15.7795C121.186 15.564 121.249 15.2978 121.246 14.9808ZM126.752 13.9006V18H124.786V10.9091H126.66V12.1602H126.743C126.9 11.7478 127.163 11.4215 127.533 11.1815C127.902 10.9383 128.35 10.8168 128.876 10.8168C129.368 10.8168 129.798 10.9245 130.164 11.1399C130.53 11.3554 130.815 11.6631 131.018 12.0632C131.221 12.4602 131.323 12.9342 131.323 13.4851V18H129.356V13.8359C129.359 13.402 129.248 13.0634 129.024 12.8203C128.799 12.5741 128.49 12.451 128.096 12.451C127.831 12.451 127.597 12.5079 127.394 12.6218C127.194 12.7357 127.037 12.9019 126.923 13.1204C126.812 13.3358 126.755 13.5959 126.752 13.9006ZM136.104 18.1385C135.375 18.1385 134.747 17.9908 134.221 17.6953C133.698 17.3968 133.294 16.9751 133.011 16.4304C132.728 15.8826 132.586 15.2347 132.586 14.4869C132.586 13.7575 132.728 13.1173 133.011 12.5664C133.294 12.0155 133.693 11.5862 134.207 11.2784C134.724 10.9706 135.33 10.8168 136.026 10.8168C136.494 10.8168 136.929 10.8922 137.332 11.043C137.738 11.1907 138.092 11.4138 138.394 11.7124C138.699 12.0109 138.936 12.3864 139.105 12.8388C139.274 13.2881 139.359 13.8144 139.359 14.4176V14.9577H133.371V13.739H137.508C137.508 13.4558 137.446 13.205 137.323 12.9865C137.2 12.768 137.029 12.5972 136.811 12.4741C136.595 12.3479 136.344 12.2848 136.058 12.2848C135.76 12.2848 135.495 12.354 135.264 12.4925C135.036 12.628 134.858 12.8111 134.729 13.0419C134.599 13.2696 134.533 13.5236 134.53 13.8036V14.9624C134.53 15.3132 134.595 15.6164 134.724 15.8718C134.856 16.1272 135.042 16.3242 135.282 16.4627C135.523 16.6012 135.807 16.6705 136.137 16.6705C136.355 16.6705 136.555 16.6397 136.737 16.5781C136.918 16.5166 137.074 16.4242 137.203 16.3011C137.332 16.178 137.431 16.0272 137.498 15.8487L139.317 15.9688C139.225 16.4058 139.036 16.7874 138.749 17.1136C138.466 17.4368 138.1 17.6892 137.651 17.8707C137.204 18.0492 136.689 18.1385 136.104 18.1385ZM143.633 18V16.5597L146.998 13.4435C147.284 13.1665 147.524 12.9173 147.718 12.6957C147.915 12.4741 148.064 12.2571 148.166 12.0447C148.267 11.8293 148.318 11.5969 148.318 11.3477C148.318 11.0707 148.255 10.8321 148.129 10.6321C148.003 10.429 147.83 10.2736 147.612 10.1658C147.393 10.055 147.146 9.99964 146.869 9.99964C146.579 9.99964 146.327 10.0581 146.112 10.1751C145.896 10.292 145.73 10.4598 145.613 10.6783C145.496 10.8968 145.438 11.1568 145.438 11.4585H143.54C143.54 10.8398 143.68 10.3028 143.96 9.8473C144.24 9.39181 144.633 9.03942 145.138 8.79013C145.642 8.54084 146.224 8.41619 146.883 8.41619C147.56 8.41619 148.149 8.53622 148.651 8.77628C149.155 9.01326 149.548 9.34257 149.828 9.7642C150.108 10.1858 150.248 10.669 150.248 11.2138C150.248 11.5708 150.177 11.9232 150.036 12.271C149.897 12.6187 149.649 13.005 149.292 13.4297C148.935 13.8513 148.432 14.3576 147.783 14.9485L146.402 16.3011V16.3658H150.373V18H143.633ZM155.528 18.2077C154.734 18.2047 154.051 18.0092 153.478 17.6214C152.909 17.2337 152.47 16.672 152.163 15.9364C151.858 15.2009 151.707 14.3161 151.71 13.282C151.71 12.2509 151.863 11.3723 152.167 10.646C152.475 9.91963 152.914 9.36719 153.483 8.98864C154.055 8.60701 154.737 8.41619 155.528 8.41619C156.319 8.41619 156.999 8.60701 157.569 8.98864C158.141 9.37026 158.581 9.92424 158.889 10.6506C159.197 11.3738 159.349 12.2509 159.346 13.282C159.346 14.3191 159.192 15.2055 158.884 15.9411C158.58 16.6766 158.143 17.2383 157.573 17.6261C157.004 18.0138 156.322 18.2077 155.528 18.2077ZM155.528 16.5504C156.07 16.5504 156.502 16.2781 156.825 15.7333C157.148 15.1886 157.308 14.3714 157.305 13.282C157.305 12.5649 157.232 11.9678 157.084 11.4908C156.939 11.0137 156.733 10.6552 156.465 10.4151C156.201 10.1751 155.888 10.055 155.528 10.055C154.989 10.055 154.559 10.3243 154.235 10.8629C153.912 11.4015 153.749 12.2079 153.746 13.282C153.746 14.0083 153.818 14.6146 153.963 15.1009C154.111 15.584 154.319 15.9472 154.586 16.1903C154.854 16.4304 155.168 16.5504 155.528 16.5504ZM160.771 18V16.5597L164.137 13.4435C164.423 13.1665 164.663 12.9173 164.857 12.6957C165.054 12.4741 165.203 12.2571 165.305 12.0447C165.406 11.8293 165.457 11.5969 165.457 11.3477C165.457 11.0707 165.394 10.8321 165.268 10.6321C165.141 10.429 164.969 10.2736 164.751 10.1658C164.532 10.055 164.284 9.99964 164.007 9.99964C163.718 9.99964 163.466 10.0581 163.25 10.1751C163.035 10.292 162.869 10.4598 162.752 10.6783C162.635 10.8968 162.576 11.1568 162.576 11.4585H160.679C160.679 10.8398 160.819 10.3028 161.099 9.8473C161.379 9.39181 161.771 9.03942 162.276 8.79013C162.781 8.54084 163.363 8.41619 164.021 8.41619C164.698 8.41619 165.288 8.53622 165.789 8.77628C166.294 9.01326 166.686 9.34257 166.967 9.7642C167.247 10.1858 167.387 10.669 167.387 11.2138C167.387 11.5708 167.316 11.9232 167.174 12.271C167.036 12.6187 166.788 13.005 166.431 13.4297C166.074 13.8513 165.571 14.3576 164.921 14.9485L163.541 16.3011V16.3658H167.511V18H160.771ZM168.613 16.3381V14.7638L172.561 8.54545H173.918V10.7244H173.115L170.626 14.6623V14.7362H176.235V16.3381H168.613ZM173.151 18V15.858L173.188 15.1609V8.54545H175.063V18H173.151Z" fill="white"/>
</svg>
