<svg width="217" height="26" viewBox="0 0 217 26" fill="none" xmlns="http://www.w3.org/2000/svg">
<path d="M1 12C1 6.34315 1 3.51472 2.75736 1.75736C4.51472 0 7.34315 0 13 0H60V26H13C7.34315 26 4.51472 26 2.75736 24.2426C1 22.4853 1 19.6569 1 14V12Z" fill="#3F3F3F"/>
<path d="M8.52983 8.54545L10.815 15.7287H10.9027L13.1925 8.54545H15.4084L12.1491 18H9.57315L6.3093 8.54545H8.52983ZM18.9411 18.1385C18.2117 18.1385 17.5839 17.9908 17.0576 17.6953C16.5344 17.3968 16.1312 16.9751 15.8481 16.4304C15.565 15.8826 15.4234 15.2347 15.4234 14.4869C15.4234 13.7575 15.565 13.1173 15.8481 12.5664C16.1312 12.0155 16.5298 11.5862 17.0438 11.2784C17.5608 10.9706 18.1671 10.8168 18.8627 10.8168C19.3305 10.8168 19.766 10.8922 20.1691 11.043C20.5754 11.1907 20.9293 11.4138 21.2309 11.7124C21.5356 12.0109 21.7726 12.3864 21.9419 12.8388C22.1111 13.2881 22.1958 13.8144 22.1958 14.4176V14.9577H16.2082V13.739H20.3445C20.3445 13.4558 20.283 13.205 20.1599 12.9865C20.0368 12.768 19.866 12.5972 19.6475 12.4741C19.432 12.3479 19.1812 12.2848 18.895 12.2848C18.5964 12.2848 18.3318 12.354 18.1009 12.4925C17.8732 12.628 17.6947 12.8111 17.5654 13.0419C17.4362 13.2696 17.37 13.5236 17.3669 13.8036V14.9624C17.3669 15.3132 17.4316 15.6164 17.5608 15.8718C17.6932 16.1272 17.8794 16.3242 18.1194 16.4627C18.3595 16.6012 18.6441 16.6705 18.9735 16.6705C19.192 16.6705 19.392 16.6397 19.5736 16.5781C19.7552 16.5166 19.9106 16.4242 20.0399 16.3011C20.1691 16.178 20.2676 16.0272 20.3353 15.8487L22.1542 15.9688C22.0619 16.4058 21.8726 16.7874 21.5864 17.1136C21.3032 17.4368 20.937 17.6892 20.4877 17.8707C20.0414 18.0492 19.5259 18.1385 18.9411 18.1385ZM23.4791 18V10.9091H25.3857V12.1463H25.4596C25.5889 11.7062 25.8058 11.3738 26.1105 11.1491C26.4152 10.9214 26.7661 10.8075 27.1631 10.8075C27.2616 10.8075 27.3677 10.8137 27.4816 10.826C27.5955 10.8383 27.6955 10.8552 27.7817 10.8768V12.6218C27.6894 12.5941 27.5616 12.5695 27.3985 12.5479C27.2354 12.5264 27.0861 12.5156 26.9507 12.5156C26.6614 12.5156 26.4029 12.5787 26.1752 12.7049C25.9505 12.828 25.772 13.0004 25.6396 13.2219C25.5104 13.4435 25.4458 13.699 25.4458 13.9883V18H23.4791ZM34.6983 12.9311L32.8979 13.0419C32.8671 12.888 32.801 12.7495 32.6994 12.6264C32.5978 12.5002 32.464 12.4002 32.2978 12.3263C32.1346 12.2494 31.9392 12.2109 31.7115 12.2109C31.4068 12.2109 31.1498 12.2756 30.9405 12.4048C30.7312 12.531 30.6266 12.7003 30.6266 12.9126C30.6266 13.0819 30.6943 13.225 30.8297 13.342C30.9651 13.4589 31.1975 13.5528 31.5268 13.6236L32.8102 13.8821C33.4996 14.0237 34.0136 14.2514 34.3521 14.5653C34.6906 14.8793 34.8599 15.2917 34.8599 15.8026C34.8599 16.2673 34.723 16.6751 34.449 17.0259C34.1782 17.3768 33.8058 17.6507 33.3319 17.8477C32.861 18.0415 32.3178 18.1385 31.7022 18.1385C30.7636 18.1385 30.0157 17.9431 29.4586 17.5522C28.9047 17.1583 28.58 16.6228 28.4846 15.9457L30.4189 15.8441C30.4773 16.1303 30.6189 16.3488 30.8436 16.4996C31.0682 16.6474 31.356 16.7212 31.7069 16.7212C32.0516 16.7212 32.3285 16.6551 32.5378 16.5227C32.7502 16.3873 32.8579 16.2134 32.861 16.0011C32.8579 15.8226 32.7825 15.6764 32.6348 15.5625C32.487 15.4455 32.2593 15.3563 31.9515 15.2947L30.7235 15.0501C30.0311 14.9116 29.5156 14.6715 29.177 14.3299C28.8416 13.9883 28.6738 13.5528 28.6738 13.0234C28.6738 12.5679 28.7969 12.1755 29.0431 11.8462C29.2924 11.5169 29.6417 11.263 30.0911 11.0845C30.5435 10.906 31.0729 10.8168 31.6792 10.8168C32.5748 10.8168 33.2795 11.006 33.7935 11.3846C34.3105 11.7631 34.6122 12.2786 34.6983 12.9311ZM36.0983 18V10.9091H38.0649V18H36.0983ZM37.0862 9.99503C36.7938 9.99503 36.543 9.89808 36.3337 9.70419C36.1275 9.50722 36.0244 9.27178 36.0244 8.99787C36.0244 8.72704 36.1275 8.49467 36.3337 8.30078C36.543 8.10381 36.7938 8.00533 37.0862 8.00533C37.3786 8.00533 37.6279 8.10381 37.8341 8.30078C38.0434 8.49467 38.148 8.72704 38.148 8.99787C38.148 9.27178 38.0434 9.50722 37.8341 9.70419C37.6279 9.89808 37.3786 9.99503 37.0862 9.99503ZM42.8441 18.1385C42.127 18.1385 41.5069 17.9862 40.9837 17.6815C40.4635 17.3737 40.0619 16.9459 39.7788 16.3981C39.4956 15.8472 39.354 15.2086 39.354 14.4822C39.354 13.7498 39.4956 13.1096 39.7788 12.5618C40.0619 12.0109 40.4635 11.5831 40.9837 11.2784C41.5069 10.9706 42.127 10.8168 42.8441 10.8168C43.5612 10.8168 44.1798 10.9706 44.6999 11.2784C45.2231 11.5831 45.6263 12.0109 45.9094 12.5618C46.1926 13.1096 46.3342 13.7498 46.3342 14.4822C46.3342 15.2086 46.1926 15.8472 45.9094 16.3981C45.6263 16.9459 45.2231 17.3737 44.6999 17.6815C44.1798 17.9862 43.5612 18.1385 42.8441 18.1385ZM42.8533 16.6151C43.1796 16.6151 43.4519 16.5227 43.6705 16.3381C43.889 16.1503 44.0536 15.8949 44.1644 15.5717C44.2783 15.2486 44.3352 14.8808 44.3352 14.4684C44.3352 14.056 44.2783 13.6882 44.1644 13.3651C44.0536 13.0419 43.889 12.7865 43.6705 12.5987C43.4519 12.411 43.1796 12.3171 42.8533 12.3171C42.524 12.3171 42.247 12.411 42.0224 12.5987C41.8008 12.7865 41.633 13.0419 41.5192 13.3651C41.4084 13.6882 41.353 14.056 41.353 14.4684C41.353 14.8808 41.4084 15.2486 41.5192 15.5717C41.633 15.8949 41.8008 16.1503 42.0224 16.3381C42.247 16.5227 42.524 16.6151 42.8533 16.6151ZM49.5795 13.9006V18H47.6129V10.9091H49.4872V12.1602H49.5703C49.7273 11.7478 49.9904 11.4215 50.3597 11.1815C50.729 10.9383 51.1768 10.8168 51.7031 10.8168C52.1955 10.8168 52.6249 10.9245 52.9911 11.1399C53.3574 11.3554 53.642 11.6631 53.8452 12.0632C54.0483 12.4602 54.1499 12.9342 54.1499 13.4851V18H52.1832V13.8359C52.1863 13.402 52.0755 13.0634 51.8509 12.8203C51.6262 12.5741 51.3169 12.451 50.9229 12.451C50.6583 12.451 50.4244 12.5079 50.2212 12.6218C50.0212 12.7357 49.8642 12.9019 49.7504 13.1204C49.6396 13.3358 49.5826 13.5959 49.5795 13.9006Z" fill="#FFFCFF"/>
<rect width="43" height="26" transform="translate(60)" fill="#533DA3"/>
<path d="M65.7663 18V16.5597L69.1317 13.4435C69.418 13.1665 69.658 12.9173 69.8519 12.6957C70.0489 12.4741 70.1982 12.2571 70.2997 12.0447C70.4013 11.8293 70.4521 11.5969 70.4521 11.3477C70.4521 11.0707 70.389 10.8321 70.2628 10.6321C70.1366 10.429 69.9643 10.2736 69.7457 10.1658C69.5272 10.055 69.2795 9.99964 69.0025 9.99964C68.7132 9.99964 68.4608 10.0581 68.2454 10.1751C68.0299 10.292 67.8638 10.4598 67.7468 10.6783C67.6299 10.8968 67.5714 11.1568 67.5714 11.4585H65.674C65.674 10.8398 65.814 10.3028 66.0941 9.8473C66.3742 9.39181 66.7666 9.03942 67.2713 8.79013C67.776 8.54084 68.3577 8.41619 69.0163 8.41619C69.6934 8.41619 70.2828 8.53622 70.7844 8.77628C71.2892 9.01326 71.6816 9.34257 71.9616 9.7642C72.2417 10.1858 72.3817 10.669 72.3817 11.2138C72.3817 11.5708 72.311 11.9232 72.1694 12.271C72.0309 12.6187 71.7831 13.005 71.4261 13.4297C71.0691 13.8513 70.5659 14.3576 69.9165 14.9485L68.5362 16.3011V16.3658H72.5064V18H65.7663ZM75.1228 18.12C74.8181 18.12 74.5565 18.0123 74.338 17.7969C74.1225 17.5784 74.0148 17.3168 74.0148 17.0121C74.0148 16.7105 74.1225 16.4519 74.338 16.2365C74.5565 16.0211 74.8181 15.9134 75.1228 15.9134C75.4182 15.9134 75.6768 16.0211 75.8983 16.2365C76.1199 16.4519 76.2307 16.7105 76.2307 17.0121C76.2307 17.2152 76.1784 17.4014 76.0738 17.5707C75.9722 17.7369 75.8383 17.8707 75.6721 17.9723C75.5059 18.0708 75.3228 18.12 75.1228 18.12ZM77.8269 18V16.5597L81.1923 13.4435C81.4785 13.1665 81.7186 12.9173 81.9125 12.6957C82.1094 12.4741 82.2587 12.2571 82.3603 12.0447C82.4618 11.8293 82.5126 11.5969 82.5126 11.3477C82.5126 11.0707 82.4495 10.8321 82.3233 10.6321C82.1971 10.429 82.0248 10.2736 81.8063 10.1658C81.5878 10.055 81.34 9.99964 81.063 9.99964C80.7737 9.99964 80.5214 10.0581 80.3059 10.1751C80.0905 10.292 79.9243 10.4598 79.8074 10.6783C79.6904 10.8968 79.6319 11.1568 79.6319 11.4585H77.7346C77.7346 10.8398 77.8746 10.3028 78.1547 9.8473C78.4347 9.39181 78.8271 9.03942 79.3319 8.79013C79.8366 8.54084 80.4183 8.41619 81.0769 8.41619C81.754 8.41619 82.3433 8.53622 82.845 8.77628C83.3497 9.01326 83.7421 9.34257 84.0222 9.7642C84.3023 10.1858 84.4423 10.669 84.4423 11.2138C84.4423 11.5708 84.3715 11.9232 84.2299 12.271C84.0914 12.6187 83.8437 13.005 83.4867 13.4297C83.1297 13.8513 82.6265 14.3576 81.9771 14.9485L80.5968 16.3011V16.3658H84.5669V18H77.8269ZM87.1833 18.12C86.8786 18.12 86.617 18.0123 86.3985 17.7969C86.1831 17.5784 86.0754 17.3168 86.0754 17.0121C86.0754 16.7105 86.1831 16.4519 86.3985 16.2365C86.617 16.0211 86.8786 15.9134 87.1833 15.9134C87.4788 15.9134 87.7373 16.0211 87.9589 16.2365C88.1805 16.4519 88.2913 16.7105 88.2913 17.0121C88.2913 17.2152 88.239 17.4014 88.1343 17.5707C88.0328 17.7369 87.8989 17.8707 87.7327 17.9723C87.5665 18.0708 87.3834 18.12 87.1833 18.12ZM93.2136 18.2077C92.4196 18.2047 91.7363 18.0092 91.1639 17.6214C90.5945 17.2337 90.156 16.672 89.8482 15.9364C89.5435 15.2009 89.3927 14.3161 89.3958 13.282C89.3958 12.2509 89.5481 11.3723 89.8528 10.646C90.1606 9.91963 90.5991 9.36719 91.1685 8.98864C91.7409 8.60701 92.4226 8.41619 93.2136 8.41619C94.0046 8.41619 94.6847 8.60701 95.2541 8.98864C95.8265 9.37026 96.2666 9.92424 96.5744 10.6506C96.8822 11.3738 97.0345 12.2509 97.0314 13.282C97.0314 14.3191 96.8775 15.2055 96.5698 15.9411C96.2651 16.6766 95.8281 17.2383 95.2587 17.6261C94.6893 18.0138 94.0076 18.2077 93.2136 18.2077ZM93.2136 16.5504C93.7553 16.5504 94.1877 16.2781 94.5108 15.7333C94.834 15.1886 94.994 14.3714 94.9909 13.282C94.9909 12.5649 94.9171 11.9678 94.7694 11.4908C94.6247 11.0137 94.4185 10.6552 94.1507 10.4151C93.8861 10.1751 93.5737 10.055 93.2136 10.055C92.675 10.055 92.2441 10.3243 91.921 10.8629C91.5978 11.4015 91.4347 12.2079 91.4316 13.282C91.4316 14.0083 91.504 14.6146 91.6486 15.1009C91.7963 15.584 92.0041 15.9472 92.2718 16.1903C92.5396 16.4304 92.8535 16.5504 93.2136 16.5504Z" fill="#FFFCFF"/>
<path d="M103 0H204C209.657 0 212.485 0 214.243 1.75736C216 3.51472 216 6.34315 216 12V14C216 19.6569 216 22.4853 214.243 24.2426C212.485 26 209.657 26 204 26H103V0Z" fill="#6C4FD4"/>
<path d="M116.73 8.54545V18H115.003L110.89 12.0494H110.821V18H108.822V8.54545H110.576L114.657 14.4915H114.74V8.54545H116.73ZM121.548 18.1385C120.831 18.1385 120.211 17.9862 119.688 17.6815C119.168 17.3737 118.766 16.9459 118.483 16.3981C118.2 15.8472 118.058 15.2086 118.058 14.4822C118.058 13.7498 118.2 13.1096 118.483 12.5618C118.766 12.0109 119.168 11.5831 119.688 11.2784C120.211 10.9706 120.831 10.8168 121.548 10.8168C122.265 10.8168 122.884 10.9706 123.404 11.2784C123.927 11.5831 124.33 12.0109 124.614 12.5618C124.897 13.1096 125.038 13.7498 125.038 14.4822C125.038 15.2086 124.897 15.8472 124.614 16.3981C124.33 16.9459 123.927 17.3737 123.404 17.6815C122.884 17.9862 122.265 18.1385 121.548 18.1385ZM121.557 16.6151C121.884 16.6151 122.156 16.5227 122.375 16.3381C122.593 16.1503 122.758 15.8949 122.869 15.5717C122.982 15.2486 123.039 14.8808 123.039 14.4684C123.039 14.056 122.982 13.6882 122.869 13.3651C122.758 13.0419 122.593 12.7865 122.375 12.5987C122.156 12.411 121.884 12.3171 121.557 12.3171C121.228 12.3171 120.951 12.411 120.726 12.5987C120.505 12.7865 120.337 13.0419 120.223 13.3651C120.112 13.6882 120.057 14.056 120.057 14.4684C120.057 14.8808 120.112 15.2486 120.223 15.5717C120.337 15.8949 120.505 16.1503 120.726 16.3381C120.951 16.5227 121.228 16.6151 121.557 16.6151ZM132.699 10.9091L130.22 18H128.004L125.525 10.9091H127.603L129.075 15.9826H129.149L130.617 10.9091H132.699ZM136.709 18.1385C135.979 18.1385 135.351 17.9908 134.825 17.6953C134.302 17.3968 133.899 16.9751 133.616 16.4304C133.333 15.8826 133.191 15.2347 133.191 14.4869C133.191 13.7575 133.333 13.1173 133.616 12.5664C133.899 12.0155 134.297 11.5862 134.811 11.2784C135.328 10.9706 135.935 10.8168 136.63 10.8168C137.098 10.8168 137.534 10.8922 137.937 11.043C138.343 11.1907 138.697 11.4138 138.998 11.7124C139.303 12.0109 139.54 12.3864 139.709 12.8388C139.879 13.2881 139.963 13.8144 139.963 14.4176V14.9577H133.976V13.739H138.112C138.112 13.4558 138.051 13.205 137.927 12.9865C137.804 12.768 137.634 12.5972 137.415 12.4741C137.2 12.3479 136.949 12.2848 136.663 12.2848C136.364 12.2848 136.099 12.354 135.869 12.4925C135.641 12.628 135.462 12.8111 135.333 13.0419C135.204 13.2696 135.138 13.5236 135.134 13.8036V14.9624C135.134 15.3132 135.199 15.6164 135.328 15.8718C135.461 16.1272 135.647 16.3242 135.887 16.4627C136.127 16.6012 136.412 16.6705 136.741 16.6705C136.96 16.6705 137.16 16.6397 137.341 16.5781C137.523 16.5166 137.678 16.4242 137.807 16.3011C137.937 16.178 138.035 16.0272 138.103 15.8487L139.922 15.9688C139.829 16.4058 139.64 16.7874 139.354 17.1136C139.071 17.4368 138.705 17.6892 138.255 17.8707C137.809 18.0492 137.293 18.1385 136.709 18.1385ZM141.247 18V10.9091H143.121V12.1602H143.204C143.352 11.7447 143.598 11.4169 143.943 11.1768C144.287 10.9368 144.7 10.8168 145.18 10.8168C145.666 10.8168 146.08 10.9383 146.422 11.1815C146.763 11.4215 146.991 11.7478 147.105 12.1602H147.179C147.324 11.7539 147.585 11.4292 147.964 11.1861C148.345 10.9399 148.796 10.8168 149.316 10.8168C149.978 10.8168 150.515 11.0276 150.927 11.4492C151.343 11.8678 151.551 12.4618 151.551 13.2312V18H149.589V13.619C149.589 13.225 149.484 12.9296 149.275 12.7326C149.065 12.5356 148.804 12.4371 148.49 12.4371C148.133 12.4371 147.854 12.551 147.654 12.7788C147.454 13.0034 147.354 13.3004 147.354 13.6697V18H145.448V13.5774C145.448 13.2296 145.348 12.9527 145.148 12.7464C144.951 12.5402 144.691 12.4371 144.367 12.4371C144.149 12.4371 143.952 12.4925 143.777 12.6033C143.604 12.7111 143.467 12.8634 143.366 13.0604C143.264 13.2543 143.213 13.482 143.213 13.7436V18H141.247ZM153.141 18V8.54545H155.108V12.1001H155.168C155.254 11.9093 155.379 11.7154 155.542 11.5185C155.708 11.3184 155.923 11.1522 156.188 11.0199C156.456 10.8845 156.788 10.8168 157.185 10.8168C157.702 10.8168 158.179 10.9522 158.616 11.223C159.053 11.4908 159.403 11.8955 159.664 12.4371C159.926 12.9757 160.057 13.6513 160.057 14.4638C160.057 15.2547 159.929 15.9226 159.673 16.4673C159.421 17.009 159.076 17.4199 158.639 17.6999C158.205 17.9769 157.719 18.1154 157.18 18.1154C156.799 18.1154 156.474 18.0523 156.206 17.9261C155.942 17.8 155.725 17.6415 155.555 17.4506C155.386 17.2567 155.257 17.0613 155.168 16.8643H155.08V18H153.141ZM155.066 14.4545C155.066 14.8762 155.125 15.244 155.242 15.5579C155.359 15.8718 155.528 16.1165 155.749 16.2919C155.971 16.4643 156.24 16.5504 156.557 16.5504C156.877 16.5504 157.148 16.4627 157.37 16.2873C157.591 16.1088 157.759 15.8626 157.873 15.5487C157.99 15.2317 158.048 14.867 158.048 14.4545C158.048 14.0452 157.991 13.6851 157.878 13.3743C157.764 13.0634 157.596 12.8203 157.374 12.6449C157.153 12.4695 156.88 12.3817 156.557 12.3817C156.237 12.3817 155.966 12.4664 155.745 12.6357C155.526 12.8049 155.359 13.045 155.242 13.3558C155.125 13.6667 155.066 14.0329 155.066 14.4545ZM164.6 18.1385C163.871 18.1385 163.243 17.9908 162.717 17.6953C162.194 17.3968 161.79 16.9751 161.507 16.4304C161.224 15.8826 161.083 15.2347 161.083 14.4869C161.083 13.7575 161.224 13.1173 161.507 12.5664C161.79 12.0155 162.189 11.5862 162.703 11.2784C163.22 10.9706 163.826 10.8168 164.522 10.8168C164.99 10.8168 165.425 10.8922 165.828 11.043C166.235 11.1907 166.588 11.4138 166.89 11.7124C167.195 12.0109 167.432 12.3864 167.601 12.8388C167.77 13.2881 167.855 13.8144 167.855 14.4176V14.9577H161.867V13.739H166.004C166.004 13.4558 165.942 13.205 165.819 12.9865C165.696 12.768 165.525 12.5972 165.307 12.4741C165.091 12.3479 164.84 12.2848 164.554 12.2848C164.256 12.2848 163.991 12.354 163.76 12.4925C163.532 12.628 163.354 12.8111 163.225 13.0419C163.095 13.2696 163.029 13.5236 163.026 13.8036V14.9624C163.026 15.3132 163.091 15.6164 163.22 15.8718C163.352 16.1272 163.539 16.3242 163.779 16.4627C164.019 16.6012 164.303 16.6705 164.633 16.6705C164.851 16.6705 165.051 16.6397 165.233 16.5781C165.414 16.5166 165.57 16.4242 165.699 16.3011C165.828 16.178 165.927 16.0272 165.994 15.8487L167.813 15.9688C167.721 16.4058 167.532 16.7874 167.246 17.1136C166.962 17.4368 166.596 17.6892 166.147 17.8707C165.701 18.0492 165.185 18.1385 164.6 18.1385ZM169.138 18V10.9091H171.045V12.1463H171.119C171.248 11.7062 171.465 11.3738 171.77 11.1491C172.074 10.9214 172.425 10.8075 172.822 10.8075C172.921 10.8075 173.027 10.8137 173.141 10.826C173.255 10.8383 173.355 10.8552 173.441 10.8768V12.6218C173.349 12.5941 173.221 12.5695 173.058 12.5479C172.895 12.5264 172.745 12.5156 172.61 12.5156C172.321 12.5156 172.062 12.5787 171.834 12.7049C171.61 12.828 171.431 13.0004 171.299 13.2219C171.17 13.4435 171.105 13.699 171.105 13.9883V18H169.138ZM177.448 18V16.5597L180.813 13.4435C181.1 13.1665 181.34 12.9173 181.534 12.6957C181.731 12.4741 181.88 12.2571 181.981 12.0447C182.083 11.8293 182.134 11.5969 182.134 11.3477C182.134 11.0707 182.071 10.8321 181.944 10.6321C181.818 10.429 181.646 10.2736 181.427 10.1658C181.209 10.055 180.961 9.99964 180.684 9.99964C180.395 9.99964 180.142 10.0581 179.927 10.1751C179.712 10.292 179.545 10.4598 179.428 10.6783C179.311 10.8968 179.253 11.1568 179.253 11.4585H177.356C177.356 10.8398 177.496 10.3028 177.776 9.8473C178.056 9.39181 178.448 9.03942 178.953 8.79013C179.458 8.54084 180.039 8.41619 180.698 8.41619C181.375 8.41619 181.964 8.53622 182.466 8.77628C182.971 9.01326 183.363 9.34257 183.643 9.7642C183.923 10.1858 184.063 10.669 184.063 11.2138C184.063 11.5708 183.993 11.9232 183.851 12.271C183.713 12.6187 183.465 13.005 183.108 13.4297C182.751 13.8513 182.248 14.3576 181.598 14.9485L180.218 16.3011V16.3658H184.188V18H177.448ZM189.343 18.2077C188.549 18.2047 187.866 18.0092 187.294 17.6214C186.724 17.2337 186.286 16.672 185.978 15.9364C185.673 15.2009 185.523 14.3161 185.526 13.282C185.526 12.2509 185.678 11.3723 185.983 10.646C186.29 9.91963 186.729 9.36719 187.298 8.98864C187.871 8.60701 188.553 8.41619 189.343 8.41619C190.134 8.41619 190.815 8.60701 191.384 8.98864C191.956 9.37026 192.397 9.92424 192.704 10.6506C193.012 11.3738 193.164 12.2509 193.161 13.282C193.161 14.3191 193.007 15.2055 192.7 15.9411C192.395 16.6766 191.958 17.2383 191.389 17.6261C190.819 18.0138 190.138 18.2077 189.343 18.2077ZM189.343 16.5504C189.885 16.5504 190.318 16.2781 190.641 15.7333C190.964 15.1886 191.124 14.3714 191.121 13.282C191.121 12.5649 191.047 11.9678 190.899 11.4908C190.755 11.0137 190.548 10.6552 190.281 10.4151C190.016 10.1751 189.704 10.055 189.343 10.055C188.805 10.055 188.374 10.3243 188.051 10.8629C187.728 11.4015 187.565 12.2079 187.562 13.282C187.562 14.0083 187.634 14.6146 187.778 15.1009C187.926 15.584 188.134 15.9472 188.402 16.1903C188.669 16.4304 188.983 16.5504 189.343 16.5504ZM194.587 18V16.5597L197.952 13.4435C198.238 13.1665 198.478 12.9173 198.672 12.6957C198.869 12.4741 199.018 12.2571 199.12 12.0447C199.222 11.8293 199.272 11.5969 199.272 11.3477C199.272 11.0707 199.209 10.8321 199.083 10.6321C198.957 10.429 198.785 10.2736 198.566 10.1658C198.348 10.055 198.1 9.99964 197.823 9.99964C197.533 9.99964 197.281 10.0581 197.066 10.1751C196.85 10.292 196.684 10.4598 196.567 10.6783C196.45 10.8968 196.392 11.1568 196.392 11.4585H194.494C194.494 10.8398 194.634 10.3028 194.914 9.8473C195.194 9.39181 195.587 9.03942 196.092 8.79013C196.596 8.54084 197.178 8.41619 197.837 8.41619C198.514 8.41619 199.103 8.53622 199.605 8.77628C200.109 9.01326 200.502 9.34257 200.782 9.7642C201.062 10.1858 201.202 10.669 201.202 11.2138C201.202 11.5708 201.131 11.9232 200.99 12.271C200.851 12.6187 200.603 13.005 200.246 13.4297C199.889 13.8513 199.386 14.3576 198.737 14.9485L197.357 16.3011V16.3658H201.327V18H194.587ZM206.27 18.1293C205.58 18.1293 204.966 18.0108 204.428 17.7738C203.892 17.5337 203.469 17.2044 203.158 16.7859C202.851 16.3642 202.692 15.878 202.683 15.3271H204.696C204.708 15.5579 204.783 15.761 204.922 15.9364C205.063 16.1088 205.251 16.2427 205.485 16.3381C205.719 16.4335 205.982 16.4812 206.274 16.4812C206.579 16.4812 206.848 16.4273 207.082 16.3196C207.316 16.2119 207.499 16.0626 207.632 15.8718C207.764 15.681 207.83 15.4609 207.83 15.2116C207.83 14.9593 207.759 14.7362 207.618 14.5423C207.479 14.3453 207.279 14.1914 207.018 14.0806C206.759 13.9698 206.451 13.9144 206.094 13.9144H205.213V12.4464H206.094C206.396 12.4464 206.662 12.3941 206.893 12.2894C207.127 12.1848 207.309 12.0401 207.438 11.8555C207.567 11.6677 207.632 11.4492 207.632 11.1999C207.632 10.9629 207.575 10.7552 207.461 10.5767C207.35 10.3951 207.193 10.2536 206.99 10.152C206.79 10.0504 206.556 9.99964 206.288 9.99964C206.017 9.99964 205.77 10.0489 205.545 10.1474C205.32 10.2428 205.14 10.3797 205.005 10.5582C204.869 10.7367 204.797 10.946 204.788 11.1861H202.872C202.881 10.6413 203.037 10.1612 203.338 9.74574C203.64 9.33026 204.046 9.00556 204.557 8.77166C205.071 8.53468 205.651 8.41619 206.297 8.41619C206.95 8.41619 207.521 8.53468 208.01 8.77166C208.5 9.00864 208.88 9.32872 209.15 9.73189C209.424 10.132 209.56 10.5813 209.557 11.0799C209.56 11.6093 209.395 12.0509 209.063 12.4048C208.733 12.7588 208.304 12.9834 207.775 13.0788V13.1527C208.47 13.242 209 13.4835 209.363 13.8775C209.729 14.2683 209.911 14.7577 209.908 15.3455C209.911 15.8841 209.755 16.3627 209.441 16.7812C209.13 17.1998 208.701 17.5291 208.153 17.7692C207.605 18.0092 206.978 18.1293 206.27 18.1293Z" fill="#FFFCFF"/>
</svg>
