<svg width="179" height="26" viewBox="0 0 179 26" fill="none" xmlns="http://www.w3.org/2000/svg">
<path d="M1 12C1 6.34315 1 3.51472 2.75736 1.75736C4.51472 0 7.34315 0 13 0H60V26H13C7.34315 26 4.51472 26 2.75736 24.2426C1 22.4853 1 19.6569 1 14V12Z" fill="#3F3F3F"/>
<path d="M8.52983 8.54545L10.815 15.7287H10.9027L13.1925 8.54545H15.4084L12.1491 18H9.57315L6.3093 8.54545H8.52983ZM18.9411 18.1385C18.2117 18.1385 17.5839 17.9908 17.0576 17.6953C16.5344 17.3968 16.1312 16.9751 15.8481 16.4304C15.565 15.8826 15.4234 15.2347 15.4234 14.4869C15.4234 13.7575 15.565 13.1173 15.8481 12.5664C16.1312 12.0155 16.5298 11.5862 17.0438 11.2784C17.5608 10.9706 18.1671 10.8168 18.8627 10.8168C19.3305 10.8168 19.766 10.8922 20.1691 11.043C20.5754 11.1907 20.9293 11.4138 21.2309 11.7124C21.5356 12.0109 21.7726 12.3864 21.9419 12.8388C22.1111 13.2881 22.1958 13.8144 22.1958 14.4176V14.9577H16.2082V13.739H20.3445C20.3445 13.4558 20.283 13.205 20.1599 12.9865C20.0368 12.768 19.866 12.5972 19.6475 12.4741C19.432 12.3479 19.1812 12.2848 18.895 12.2848C18.5964 12.2848 18.3318 12.354 18.1009 12.4925C17.8732 12.628 17.6947 12.8111 17.5654 13.0419C17.4362 13.2696 17.37 13.5236 17.3669 13.8036V14.9624C17.3669 15.3132 17.4316 15.6164 17.5608 15.8718C17.6932 16.1272 17.8794 16.3242 18.1194 16.4627C18.3595 16.6012 18.6441 16.6705 18.9735 16.6705C19.192 16.6705 19.392 16.6397 19.5736 16.5781C19.7552 16.5166 19.9106 16.4242 20.0399 16.3011C20.1691 16.178 20.2676 16.0272 20.3353 15.8487L22.1542 15.9688C22.0619 16.4058 21.8726 16.7874 21.5864 17.1136C21.3032 17.4368 20.937 17.6892 20.4877 17.8707C20.0414 18.0492 19.5259 18.1385 18.9411 18.1385ZM23.4791 18V10.9091H25.3857V12.1463H25.4596C25.5889 11.7062 25.8058 11.3738 26.1105 11.1491C26.4152 10.9214 26.7661 10.8075 27.1631 10.8075C27.2616 10.8075 27.3677 10.8137 27.4816 10.826C27.5955 10.8383 27.6955 10.8552 27.7817 10.8768V12.6218C27.6894 12.5941 27.5616 12.5695 27.3985 12.5479C27.2354 12.5264 27.0861 12.5156 26.9507 12.5156C26.6614 12.5156 26.4029 12.5787 26.1752 12.7049C25.9505 12.828 25.772 13.0004 25.6396 13.2219C25.5104 13.4435 25.4458 13.699 25.4458 13.9883V18H23.4791ZM34.6983 12.9311L32.8979 13.0419C32.8671 12.888 32.801 12.7495 32.6994 12.6264C32.5978 12.5002 32.464 12.4002 32.2978 12.3263C32.1346 12.2494 31.9392 12.2109 31.7115 12.2109C31.4068 12.2109 31.1498 12.2756 30.9405 12.4048C30.7312 12.531 30.6266 12.7003 30.6266 12.9126C30.6266 13.0819 30.6943 13.225 30.8297 13.342C30.9651 13.4589 31.1975 13.5528 31.5268 13.6236L32.8102 13.8821C33.4996 14.0237 34.0136 14.2514 34.3521 14.5653C34.6906 14.8793 34.8599 15.2917 34.8599 15.8026C34.8599 16.2673 34.723 16.6751 34.449 17.0259C34.1782 17.3768 33.8058 17.6507 33.3319 17.8477C32.861 18.0415 32.3178 18.1385 31.7022 18.1385C30.7636 18.1385 30.0157 17.9431 29.4586 17.5522C28.9047 17.1583 28.58 16.6228 28.4846 15.9457L30.4189 15.8441C30.4773 16.1303 30.6189 16.3488 30.8436 16.4996C31.0682 16.6474 31.356 16.7212 31.7069 16.7212C32.0516 16.7212 32.3285 16.6551 32.5378 16.5227C32.7502 16.3873 32.8579 16.2134 32.861 16.0011C32.8579 15.8226 32.7825 15.6764 32.6348 15.5625C32.487 15.4455 32.2593 15.3563 31.9515 15.2947L30.7235 15.0501C30.0311 14.9116 29.5156 14.6715 29.177 14.3299C28.8416 13.9883 28.6738 13.5528 28.6738 13.0234C28.6738 12.5679 28.7969 12.1755 29.0431 11.8462C29.2924 11.5169 29.6417 11.263 30.0911 11.0845C30.5435 10.906 31.0729 10.8168 31.6792 10.8168C32.5748 10.8168 33.2795 11.006 33.7935 11.3846C34.3105 11.7631 34.6122 12.2786 34.6983 12.9311ZM36.0983 18V10.9091H38.0649V18H36.0983ZM37.0862 9.99503C36.7938 9.99503 36.543 9.89808 36.3337 9.70419C36.1275 9.50722 36.0244 9.27178 36.0244 8.99787C36.0244 8.72704 36.1275 8.49467 36.3337 8.30078C36.543 8.10381 36.7938 8.00533 37.0862 8.00533C37.3786 8.00533 37.6279 8.10381 37.8341 8.30078C38.0434 8.49467 38.148 8.72704 38.148 8.99787C38.148 9.27178 38.0434 9.50722 37.8341 9.70419C37.6279 9.89808 37.3786 9.99503 37.0862 9.99503ZM42.8441 18.1385C42.127 18.1385 41.5069 17.9862 40.9837 17.6815C40.4635 17.3737 40.0619 16.9459 39.7788 16.3981C39.4956 15.8472 39.354 15.2086 39.354 14.4822C39.354 13.7498 39.4956 13.1096 39.7788 12.5618C40.0619 12.0109 40.4635 11.5831 40.9837 11.2784C41.5069 10.9706 42.127 10.8168 42.8441 10.8168C43.5612 10.8168 44.1798 10.9706 44.6999 11.2784C45.2231 11.5831 45.6263 12.0109 45.9094 12.5618C46.1926 13.1096 46.3342 13.7498 46.3342 14.4822C46.3342 15.2086 46.1926 15.8472 45.9094 16.3981C45.6263 16.9459 45.2231 17.3737 44.6999 17.6815C44.1798 17.9862 43.5612 18.1385 42.8441 18.1385ZM42.8533 16.6151C43.1796 16.6151 43.4519 16.5227 43.6705 16.3381C43.889 16.1503 44.0536 15.8949 44.1644 15.5717C44.2783 15.2486 44.3352 14.8808 44.3352 14.4684C44.3352 14.056 44.2783 13.6882 44.1644 13.3651C44.0536 13.0419 43.889 12.7865 43.6705 12.5987C43.4519 12.411 43.1796 12.3171 42.8533 12.3171C42.524 12.3171 42.247 12.411 42.0224 12.5987C41.8008 12.7865 41.633 13.0419 41.5192 13.3651C41.4084 13.6882 41.353 14.056 41.353 14.4684C41.353 14.8808 41.4084 15.2486 41.5192 15.5717C41.633 15.8949 41.8008 16.1503 42.0224 16.3381C42.247 16.5227 42.524 16.6151 42.8533 16.6151ZM49.5795 13.9006V18H47.6129V10.9091H49.4872V12.1602H49.5703C49.7273 11.7478 49.9904 11.4215 50.3597 11.1815C50.729 10.9383 51.1768 10.8168 51.7031 10.8168C52.1955 10.8168 52.6249 10.9245 52.9911 11.1399C53.3574 11.3554 53.642 11.6631 53.8452 12.0632C54.0483 12.4602 54.1499 12.9342 54.1499 13.4851V18H52.1832V13.8359C52.1863 13.402 52.0755 13.0634 51.8509 12.8203C51.6262 12.5741 51.3169 12.451 50.9229 12.451C50.6583 12.451 50.4244 12.5079 50.2212 12.6218C50.0212 12.7357 49.8642 12.9019 49.7504 13.1204C49.6396 13.3358 49.5826 13.5959 49.5795 13.9006Z" fill="white"/>
<rect width="44" height="26" transform="translate(60)" fill="#533DA3"/>
<path d="M65.7663 18V16.5597L69.1317 13.4435C69.418 13.1665 69.658 12.9173 69.8519 12.6957C70.0489 12.4741 70.1982 12.2571 70.2997 12.0447C70.4013 11.8293 70.4521 11.5969 70.4521 11.3477C70.4521 11.0707 70.389 10.8321 70.2628 10.6321C70.1366 10.429 69.9643 10.2736 69.7457 10.1658C69.5272 10.055 69.2795 9.99964 69.0025 9.99964C68.7132 9.99964 68.4608 10.0581 68.2454 10.1751C68.0299 10.292 67.8638 10.4598 67.7468 10.6783C67.6299 10.8968 67.5714 11.1568 67.5714 11.4585H65.674C65.674 10.8398 65.814 10.3028 66.0941 9.8473C66.3742 9.39181 66.7666 9.03942 67.2713 8.79013C67.776 8.54084 68.3577 8.41619 69.0163 8.41619C69.6934 8.41619 70.2828 8.53622 70.7844 8.77628C71.2892 9.01326 71.6816 9.34257 71.9616 9.7642C72.2417 10.1858 72.3817 10.669 72.3817 11.2138C72.3817 11.5708 72.311 11.9232 72.1694 12.271C72.0309 12.6187 71.7831 13.005 71.4261 13.4297C71.0691 13.8513 70.5659 14.3576 69.9165 14.9485L68.5362 16.3011V16.3658H72.5064V18H65.7663ZM75.1228 18.12C74.8181 18.12 74.5565 18.0123 74.338 17.7969C74.1225 17.5784 74.0148 17.3168 74.0148 17.0121C74.0148 16.7105 74.1225 16.4519 74.338 16.2365C74.5565 16.0211 74.8181 15.9134 75.1228 15.9134C75.4182 15.9134 75.6768 16.0211 75.8983 16.2365C76.1199 16.4519 76.2307 16.7105 76.2307 17.0121C76.2307 17.2152 76.1784 17.4014 76.0738 17.5707C75.9722 17.7369 75.8383 17.8707 75.6721 17.9723C75.5059 18.0708 75.3228 18.12 75.1228 18.12ZM77.6838 16.3381V14.7638L81.6309 8.54545H82.9881V10.7244H82.1848L79.6966 14.6623V14.7362H85.3056V16.3381H77.6838ZM82.2218 18V15.858L82.2587 15.1609V8.54545H84.133V18H82.2218ZM87.6277 18.12C87.323 18.12 87.0614 18.0123 86.8429 17.7969C86.6274 17.5784 86.5197 17.3168 86.5197 17.0121C86.5197 16.7105 86.6274 16.4519 86.8429 16.2365C87.0614 16.0211 87.323 15.9134 87.6277 15.9134C87.9231 15.9134 88.1816 16.0211 88.4032 16.2365C88.6248 16.4519 88.7356 16.7105 88.7356 17.0121C88.7356 17.2152 88.6833 17.4014 88.5787 17.5707C88.4771 17.7369 88.3432 17.8707 88.177 17.9723C88.0108 18.0708 87.8277 18.12 87.6277 18.12ZM93.6579 18.2077C92.8639 18.2047 92.1807 18.0092 91.6082 17.6214C91.0389 17.2337 90.6003 16.672 90.2925 15.9364C89.9878 15.2009 89.837 14.3161 89.8401 13.282C89.8401 12.2509 89.9925 11.3723 90.2971 10.646C90.6049 9.91963 91.0435 9.36719 91.6128 8.98864C92.1853 8.60701 92.867 8.41619 93.6579 8.41619C94.4489 8.41619 95.1291 8.60701 95.6984 8.98864C96.2709 9.37026 96.711 9.92424 97.0187 10.6506C97.3265 11.3738 97.4788 12.2509 97.4758 13.282C97.4758 14.3191 97.3219 15.2055 97.0141 15.9411C96.7094 16.6766 96.2724 17.2383 95.703 17.6261C95.1337 18.0138 94.452 18.2077 93.6579 18.2077ZM93.6579 16.5504C94.1996 16.5504 94.632 16.2781 94.9552 15.7333C95.2783 15.1886 95.4384 14.3714 95.4353 13.282C95.4353 12.5649 95.3614 11.9678 95.2137 11.4908C95.069 11.0137 94.8628 10.6552 94.5951 10.4151C94.3304 10.1751 94.018 10.055 93.6579 10.055C93.1193 10.055 92.6885 10.3243 92.3653 10.8629C92.0422 11.4015 91.8791 12.2079 91.876 13.282C91.876 14.0083 91.9483 14.6146 92.093 15.1009C92.2407 15.584 92.4484 15.9472 92.7162 16.1903C92.9839 16.4304 93.2979 16.5504 93.6579 16.5504Z" fill="white"/>
<path d="M104 0H166C171.657 0 174.485 0 176.243 1.75736C178 3.51472 178 6.34315 178 12V14C178 19.6569 178 22.4853 176.243 24.2426C174.485 26 171.657 26 166 26H104V0Z" fill="#6C4FD4"/>
<path d="M109.822 8.54545H112.287L114.891 14.8977H115.001L117.605 8.54545H120.07V18H118.131V11.8462H118.053L115.606 17.9538H114.286L111.839 11.8232H111.761V18H109.822V8.54545ZM123.702 18.1339C123.25 18.1339 122.847 18.0554 122.493 17.8984C122.139 17.7384 121.859 17.503 121.653 17.1921C121.449 16.8782 121.348 16.4873 121.348 16.0195C121.348 15.6256 121.42 15.2947 121.565 15.027C121.71 14.7592 121.907 14.5438 122.156 14.3807C122.405 14.2176 122.688 14.0945 123.005 14.0114C123.325 13.9283 123.661 13.8698 124.012 13.8359C124.424 13.7929 124.756 13.7528 125.009 13.7159C125.261 13.6759 125.444 13.6174 125.558 13.5405C125.672 13.4635 125.729 13.3497 125.729 13.1989V13.1712C125.729 12.8788 125.637 12.6526 125.452 12.4925C125.27 12.3325 125.012 12.2525 124.676 12.2525C124.322 12.2525 124.041 12.331 123.832 12.4879C123.622 12.6418 123.484 12.8357 123.416 13.0696L121.597 12.9219C121.69 12.491 121.871 12.1186 122.142 11.8047C122.413 11.4877 122.762 11.2446 123.19 11.0753C123.621 10.9029 124.119 10.8168 124.686 10.8168C125.08 10.8168 125.457 10.8629 125.817 10.9553C126.18 11.0476 126.501 11.1907 126.782 11.3846C127.065 11.5785 127.288 11.8278 127.451 12.1325C127.614 12.4341 127.696 12.7957 127.696 13.2173V18H125.831V17.0167H125.775C125.661 17.2383 125.509 17.4337 125.318 17.603C125.127 17.7692 124.898 17.9 124.63 17.9954C124.362 18.0877 124.053 18.1339 123.702 18.1339ZM124.266 16.7766C124.555 16.7766 124.81 16.7197 125.032 16.6058C125.253 16.4889 125.427 16.3319 125.554 16.1349C125.68 15.938 125.743 15.7148 125.743 15.4656V14.7131C125.681 14.7531 125.597 14.79 125.489 14.8239C125.384 14.8546 125.266 14.8839 125.133 14.9116C125.001 14.9362 124.869 14.9593 124.736 14.9808C124.604 14.9993 124.484 15.0162 124.376 15.0316C124.146 15.0655 123.944 15.1193 123.772 15.1932C123.599 15.267 123.465 15.3671 123.37 15.4933C123.275 15.6164 123.227 15.7702 123.227 15.9549C123.227 16.2227 123.324 16.4273 123.518 16.5689C123.715 16.7074 123.964 16.7766 124.266 16.7766ZM130.182 20.6591C129.932 20.6591 129.698 20.6391 129.48 20.5991C129.264 20.5621 129.086 20.5144 128.944 20.456L129.388 18.9879C129.618 19.0587 129.826 19.0972 130.011 19.1033C130.198 19.1095 130.36 19.0664 130.495 18.9741C130.634 18.8817 130.746 18.7248 130.832 18.5032L130.948 18.2031L128.404 10.9091H130.472L131.94 16.1165H132.014L133.496 10.9091H135.578L132.822 18.7663C132.69 19.148 132.51 19.4804 132.282 19.7635C132.057 20.0497 131.773 20.2698 131.428 20.4237C131.083 20.5806 130.668 20.6591 130.182 20.6591ZM139.575 18V16.5597L142.94 13.4435C143.227 13.1665 143.467 12.9173 143.661 12.6957C143.857 12.4741 144.007 12.2571 144.108 12.0447C144.21 11.8293 144.261 11.5969 144.261 11.3477C144.261 11.0707 144.198 10.8321 144.071 10.6321C143.945 10.429 143.773 10.2736 143.554 10.1658C143.336 10.055 143.088 9.99964 142.811 9.99964C142.522 9.99964 142.269 10.0581 142.054 10.1751C141.839 10.292 141.672 10.4598 141.555 10.6783C141.438 10.8968 141.38 11.1568 141.38 11.4585H139.483C139.483 10.8398 139.623 10.3028 139.903 9.8473C140.183 9.39181 140.575 9.03942 141.08 8.79013C141.585 8.54084 142.166 8.41619 142.825 8.41619C143.502 8.41619 144.091 8.53622 144.593 8.77628C145.098 9.01326 145.49 9.34257 145.77 9.7642C146.05 10.1858 146.19 10.669 146.19 11.2138C146.19 11.5708 146.12 11.9232 145.978 12.271C145.839 12.6187 145.592 13.005 145.235 13.4297C144.878 13.8513 144.375 14.3576 143.725 14.9485L142.345 16.3011V16.3658H146.315V18H139.575ZM151.47 18.2077C150.676 18.2047 149.993 18.0092 149.421 17.6214C148.851 17.2337 148.413 16.672 148.105 15.9364C147.8 15.2009 147.65 14.3161 147.653 13.282C147.653 12.2509 147.805 11.3723 148.11 10.646C148.417 9.91963 148.856 9.36719 149.425 8.98864C149.998 8.60701 150.679 8.41619 151.47 8.41619C152.261 8.41619 152.942 8.60701 153.511 8.98864C154.083 9.37026 154.523 9.92424 154.831 10.6506C155.139 11.3738 155.291 12.2509 155.288 13.282C155.288 14.3191 155.134 15.2055 154.827 15.9411C154.522 16.6766 154.085 17.2383 153.516 17.6261C152.946 18.0138 152.264 18.2077 151.47 18.2077ZM151.47 16.5504C152.012 16.5504 152.445 16.2781 152.768 15.7333C153.091 15.1886 153.251 14.3714 153.248 13.282C153.248 12.5649 153.174 11.9678 153.026 11.4908C152.882 11.0137 152.675 10.6552 152.408 10.4151C152.143 10.1751 151.831 10.055 151.47 10.055C150.932 10.055 150.501 10.3243 150.178 10.8629C149.855 11.4015 149.692 12.2079 149.688 13.282C149.688 14.0083 149.761 14.6146 149.905 15.1009C150.053 15.584 150.261 15.9472 150.529 16.1903C150.796 16.4304 151.11 16.5504 151.47 16.5504ZM156.714 18V16.5597L160.079 13.4435C160.365 13.1665 160.605 12.9173 160.799 12.6957C160.996 12.4741 161.145 12.2571 161.247 12.0447C161.349 11.8293 161.399 11.5969 161.399 11.3477C161.399 11.0707 161.336 10.8321 161.21 10.6321C161.084 10.429 160.912 10.2736 160.693 10.1658C160.474 10.055 160.227 9.99964 159.95 9.99964C159.66 9.99964 159.408 10.0581 159.193 10.1751C158.977 10.292 158.811 10.4598 158.694 10.6783C158.577 10.8968 158.519 11.1568 158.519 11.4585H156.621C156.621 10.8398 156.761 10.3028 157.041 9.8473C157.321 9.39181 157.714 9.03942 158.219 8.79013C158.723 8.54084 159.305 8.41619 159.964 8.41619C160.641 8.41619 161.23 8.53622 161.732 8.77628C162.236 9.01326 162.629 9.34257 162.909 9.7642C163.189 10.1858 163.329 10.669 163.329 11.2138C163.329 11.5708 163.258 11.9232 163.117 12.271C162.978 12.6187 162.73 13.005 162.373 13.4297C162.016 13.8513 161.513 14.3576 160.864 14.9485L159.483 16.3011V16.3658H163.454V18H156.714ZM164.556 16.3381V14.7638L168.503 8.54545H169.86V10.7244H169.057L166.569 14.6623V14.7362H172.178V16.3381H164.556ZM169.094 18V15.858L169.131 15.1609V8.54545H171.005V18H169.094Z" fill="white"/>
</svg>
