<svg width="180" height="26" viewBox="0 0 180 26" fill="none" xmlns="http://www.w3.org/2000/svg">
<path d="M2 12C2 6.34315 2 3.51472 3.75736 1.75736C5.51472 0 8.34315 0 14 0H61V26H14C8.34315 26 5.51472 26 3.75736 24.2426C2 22.4853 2 19.6569 2 14V12Z" fill="#3F3F3F"/>
<path d="M9.52983 8.54545L11.815 15.7287H11.9027L14.1925 8.54545H16.4084L13.1491 18H10.5732L7.3093 8.54545H9.52983ZM19.9411 18.1385C19.2117 18.1385 18.5839 17.9908 18.0576 17.6953C17.5344 17.3968 17.1312 16.9751 16.8481 16.4304C16.565 15.8826 16.4234 15.2347 16.4234 14.4869C16.4234 13.7575 16.565 13.1173 16.8481 12.5664C17.1312 12.0155 17.5298 11.5862 18.0438 11.2784C18.5608 10.9706 19.1671 10.8168 19.8627 10.8168C20.3305 10.8168 20.766 10.8922 21.1691 11.043C21.5754 11.1907 21.9293 11.4138 22.2309 11.7124C22.5356 12.0109 22.7726 12.3864 22.9419 12.8388C23.1111 13.2881 23.1958 13.8144 23.1958 14.4176V14.9577H17.2082V13.739H21.3445C21.3445 13.4558 21.283 13.205 21.1599 12.9865C21.0368 12.768 20.866 12.5972 20.6475 12.4741C20.432 12.3479 20.1812 12.2848 19.895 12.2848C19.5964 12.2848 19.3318 12.354 19.1009 12.4925C18.8732 12.628 18.6947 12.8111 18.5654 13.0419C18.4362 13.2696 18.37 13.5236 18.3669 13.8036V14.9624C18.3669 15.3132 18.4316 15.6164 18.5608 15.8718C18.6932 16.1272 18.8794 16.3242 19.1194 16.4627C19.3595 16.6012 19.6441 16.6705 19.9735 16.6705C20.192 16.6705 20.392 16.6397 20.5736 16.5781C20.7552 16.5166 20.9106 16.4242 21.0399 16.3011C21.1691 16.178 21.2676 16.0272 21.3353 15.8487L23.1542 15.9688C23.0619 16.4058 22.8726 16.7874 22.5864 17.1136C22.3032 17.4368 21.937 17.6892 21.4877 17.8707C21.0414 18.0492 20.5259 18.1385 19.9411 18.1385ZM24.4791 18V10.9091H26.3857V12.1463H26.4596C26.5889 11.7062 26.8058 11.3738 27.1105 11.1491C27.4152 10.9214 27.7661 10.8075 28.1631 10.8075C28.2616 10.8075 28.3677 10.8137 28.4816 10.826C28.5955 10.8383 28.6955 10.8552 28.7817 10.8768V12.6218C28.6894 12.5941 28.5616 12.5695 28.3985 12.5479C28.2354 12.5264 28.0861 12.5156 27.9507 12.5156C27.6614 12.5156 27.4029 12.5787 27.1752 12.7049C26.9505 12.828 26.772 13.0004 26.6396 13.2219C26.5104 13.4435 26.4458 13.699 26.4458 13.9883V18H24.4791ZM35.6983 12.9311L33.8979 13.0419C33.8671 12.888 33.801 12.7495 33.6994 12.6264C33.5978 12.5002 33.464 12.4002 33.2978 12.3263C33.1346 12.2494 32.9392 12.2109 32.7115 12.2109C32.4068 12.2109 32.1498 12.2756 31.9405 12.4048C31.7312 12.531 31.6266 12.7003 31.6266 12.9126C31.6266 13.0819 31.6943 13.225 31.8297 13.342C31.9651 13.4589 32.1975 13.5528 32.5268 13.6236L33.8102 13.8821C34.4996 14.0237 35.0136 14.2514 35.3521 14.5653C35.6906 14.8793 35.8599 15.2917 35.8599 15.8026C35.8599 16.2673 35.723 16.6751 35.449 17.0259C35.1782 17.3768 34.8058 17.6507 34.3319 17.8477C33.861 18.0415 33.3178 18.1385 32.7022 18.1385C31.7636 18.1385 31.0157 17.9431 30.4586 17.5522C29.9047 17.1583 29.58 16.6228 29.4846 15.9457L31.4189 15.8441C31.4773 16.1303 31.6189 16.3488 31.8436 16.4996C32.0682 16.6474 32.356 16.7212 32.7069 16.7212C33.0516 16.7212 33.3285 16.6551 33.5378 16.5227C33.7502 16.3873 33.8579 16.2134 33.861 16.0011C33.8579 15.8226 33.7825 15.6764 33.6348 15.5625C33.487 15.4455 33.2593 15.3563 32.9515 15.2947L31.7235 15.0501C31.0311 14.9116 30.5156 14.6715 30.177 14.3299C29.8416 13.9883 29.6738 13.5528 29.6738 13.0234C29.6738 12.5679 29.7969 12.1755 30.0431 11.8462C30.2924 11.5169 30.6417 11.263 31.0911 11.0845C31.5435 10.906 32.0729 10.8168 32.6792 10.8168C33.5748 10.8168 34.2795 11.006 34.7935 11.3846C35.3105 11.7631 35.6122 12.2786 35.6983 12.9311ZM37.0983 18V10.9091H39.0649V18H37.0983ZM38.0862 9.99503C37.7938 9.99503 37.543 9.89808 37.3337 9.70419C37.1275 9.50722 37.0244 9.27178 37.0244 8.99787C37.0244 8.72704 37.1275 8.49467 37.3337 8.30078C37.543 8.10381 37.7938 8.00533 38.0862 8.00533C38.3786 8.00533 38.6279 8.10381 38.8341 8.30078C39.0434 8.49467 39.148 8.72704 39.148 8.99787C39.148 9.27178 39.0434 9.50722 38.8341 9.70419C38.6279 9.89808 38.3786 9.99503 38.0862 9.99503ZM43.8441 18.1385C43.127 18.1385 42.5069 17.9862 41.9837 17.6815C41.4635 17.3737 41.0619 16.9459 40.7788 16.3981C40.4956 15.8472 40.354 15.2086 40.354 14.4822C40.354 13.7498 40.4956 13.1096 40.7788 12.5618C41.0619 12.0109 41.4635 11.5831 41.9837 11.2784C42.5069 10.9706 43.127 10.8168 43.8441 10.8168C44.5612 10.8168 45.1798 10.9706 45.6999 11.2784C46.2231 11.5831 46.6263 12.0109 46.9094 12.5618C47.1926 13.1096 47.3342 13.7498 47.3342 14.4822C47.3342 15.2086 47.1926 15.8472 46.9094 16.3981C46.6263 16.9459 46.2231 17.3737 45.6999 17.6815C45.1798 17.9862 44.5612 18.1385 43.8441 18.1385ZM43.8533 16.6151C44.1796 16.6151 44.4519 16.5227 44.6705 16.3381C44.889 16.1503 45.0536 15.8949 45.1644 15.5717C45.2783 15.2486 45.3352 14.8808 45.3352 14.4684C45.3352 14.056 45.2783 13.6882 45.1644 13.3651C45.0536 13.0419 44.889 12.7865 44.6705 12.5987C44.4519 12.411 44.1796 12.3171 43.8533 12.3171C43.524 12.3171 43.247 12.411 43.0224 12.5987C42.8008 12.7865 42.633 13.0419 42.5192 13.3651C42.4084 13.6882 42.353 14.056 42.353 14.4684C42.353 14.8808 42.4084 15.2486 42.5192 15.5717C42.633 15.8949 42.8008 16.1503 43.0224 16.3381C43.247 16.5227 43.524 16.6151 43.8533 16.6151ZM50.5795 13.9006V18H48.6129V10.9091H50.4872V12.1602H50.5703C50.7273 11.7478 50.9904 11.4215 51.3597 11.1815C51.729 10.9383 52.1768 10.8168 52.7031 10.8168C53.1955 10.8168 53.6249 10.9245 53.9911 11.1399C54.3574 11.3554 54.642 11.6631 54.8452 12.0632C55.0483 12.4602 55.1499 12.9342 55.1499 13.4851V18H53.1832V13.8359C53.1863 13.402 53.0755 13.0634 52.8509 12.8203C52.6262 12.5741 52.3169 12.451 51.9229 12.451C51.6583 12.451 51.4244 12.5079 51.2212 12.6218C51.0212 12.7357 50.8642 12.9019 50.7504 13.1204C50.6396 13.3358 50.5826 13.5959 50.5795 13.9006Z" fill="#FFFCFF"/>
<rect width="43" height="26" transform="translate(61)" fill="#533DA3"/>
<path d="M66.7663 18V16.5597L70.1317 13.4435C70.418 13.1665 70.658 12.9173 70.8519 12.6957C71.0489 12.4741 71.1982 12.2571 71.2997 12.0447C71.4013 11.8293 71.4521 11.5969 71.4521 11.3477C71.4521 11.0707 71.389 10.8321 71.2628 10.6321C71.1366 10.429 70.9643 10.2736 70.7457 10.1658C70.5272 10.055 70.2795 9.99964 70.0025 9.99964C69.7132 9.99964 69.4608 10.0581 69.2454 10.1751C69.0299 10.292 68.8638 10.4598 68.7468 10.6783C68.6299 10.8968 68.5714 11.1568 68.5714 11.4585H66.674C66.674 10.8398 66.814 10.3028 67.0941 9.8473C67.3742 9.39181 67.7666 9.03942 68.2713 8.79013C68.776 8.54084 69.3577 8.41619 70.0163 8.41619C70.6934 8.41619 71.2828 8.53622 71.7844 8.77628C72.2892 9.01326 72.6816 9.34257 72.9616 9.7642C73.2417 10.1858 73.3817 10.669 73.3817 11.2138C73.3817 11.5708 73.311 11.9232 73.1694 12.271C73.0309 12.6187 72.7831 13.005 72.4261 13.4297C72.0691 13.8513 71.5659 14.3576 70.9165 14.9485L69.5362 16.3011V16.3658H73.5064V18H66.7663ZM76.1228 18.12C75.8181 18.12 75.5565 18.0123 75.338 17.7969C75.1225 17.5784 75.0148 17.3168 75.0148 17.0121C75.0148 16.7105 75.1225 16.4519 75.338 16.2365C75.5565 16.0211 75.8181 15.9134 76.1228 15.9134C76.4182 15.9134 76.6768 16.0211 76.8983 16.2365C77.1199 16.4519 77.2307 16.7105 77.2307 17.0121C77.2307 17.2152 77.1784 17.4014 77.0738 17.5707C76.9722 17.7369 76.8383 17.8707 76.6721 17.9723C76.5059 18.0708 76.3228 18.12 76.1228 18.12ZM82.1531 18.2077C81.359 18.2047 80.6758 18.0092 80.1033 17.6214C79.534 17.2337 79.0954 16.672 78.7876 15.9364C78.483 15.2009 78.3321 14.3161 78.3352 13.282C78.3352 12.2509 78.4876 11.3723 78.7923 10.646C79.1 9.91963 79.5386 9.36719 80.108 8.98864C80.6804 8.60701 81.3621 8.41619 82.1531 8.41619C82.944 8.41619 83.6242 8.60701 84.1935 8.98864C84.766 9.37026 85.2061 9.92424 85.5138 10.6506C85.8216 11.3738 85.974 12.2509 85.9709 13.282C85.9709 14.3191 85.817 15.2055 85.5092 15.9411C85.2045 16.6766 84.7675 17.2383 84.1982 17.6261C83.6288 18.0138 82.9471 18.2077 82.1531 18.2077ZM82.1531 16.5504C82.6947 16.5504 83.1271 16.2781 83.4503 15.7333C83.7734 15.1886 83.9335 14.3714 83.9304 13.282C83.9304 12.5649 83.8565 11.9678 83.7088 11.4908C83.5642 11.0137 83.358 10.6552 83.0902 10.4151C82.8255 10.1751 82.5131 10.055 82.1531 10.055C81.6145 10.055 81.1836 10.3243 80.8604 10.8629C80.5373 11.4015 80.3742 12.2079 80.3711 13.282C80.3711 14.0083 80.4434 14.6146 80.5881 15.1009C80.7358 15.584 80.9435 15.9472 81.2113 16.1903C81.479 16.4304 81.793 16.5504 82.1531 16.5504ZM88.1833 18.12C87.8786 18.12 87.617 18.0123 87.3985 17.7969C87.1831 17.5784 87.0754 17.3168 87.0754 17.0121C87.0754 16.7105 87.1831 16.4519 87.3985 16.2365C87.617 16.0211 87.8786 15.9134 88.1833 15.9134C88.4788 15.9134 88.7373 16.0211 88.9589 16.2365C89.1805 16.4519 89.2913 16.7105 89.2913 17.0121C89.2913 17.2152 89.239 17.4014 89.1343 17.5707C89.0328 17.7369 88.8989 17.8707 88.7327 17.9723C88.5665 18.0708 88.3834 18.12 88.1833 18.12ZM94.2136 18.2077C93.4196 18.2047 92.7363 18.0092 92.1639 17.6214C91.5945 17.2337 91.156 16.672 90.8482 15.9364C90.5435 15.2009 90.3927 14.3161 90.3958 13.282C90.3958 12.2509 90.5481 11.3723 90.8528 10.646C91.1606 9.91963 91.5991 9.36719 92.1685 8.98864C92.7409 8.60701 93.4226 8.41619 94.2136 8.41619C95.0046 8.41619 95.6847 8.60701 96.2541 8.98864C96.8265 9.37026 97.2666 9.92424 97.5744 10.6506C97.8822 11.3738 98.0345 12.2509 98.0314 13.282C98.0314 14.3191 97.8775 15.2055 97.5698 15.9411C97.2651 16.6766 96.8281 17.2383 96.2587 17.6261C95.6893 18.0138 95.0076 18.2077 94.2136 18.2077ZM94.2136 16.5504C94.7553 16.5504 95.1877 16.2781 95.5108 15.7333C95.834 15.1886 95.994 14.3714 95.9909 13.282C95.9909 12.5649 95.9171 11.9678 95.7694 11.4908C95.6247 11.0137 95.4185 10.6552 95.1507 10.4151C94.8861 10.1751 94.5737 10.055 94.2136 10.055C93.675 10.055 93.2441 10.3243 92.921 10.8629C92.5978 11.4015 92.4347 12.2079 92.4316 13.282C92.4316 14.0083 92.504 14.6146 92.6486 15.1009C92.7963 15.584 93.0041 15.9472 93.2718 16.1903C93.5396 16.4304 93.8535 16.5504 94.2136 16.5504Z" fill="#FFFCFF"/>
<path d="M104 0H166C171.657 0 174.485 0 176.243 1.75736C178 3.51472 178 6.34315 178 12V14C178 19.6569 178 22.4853 176.243 24.2426C174.485 26 171.657 26 166 26H104V0Z" fill="#6C4FD4"/>
<path d="M113.607 8.54545H115.583V15.1378C115.583 15.7472 115.446 16.2765 115.172 16.7259C114.901 17.1752 114.524 17.5214 114.041 17.7646C113.558 18.0077 112.996 18.1293 112.356 18.1293C111.787 18.1293 111.27 18.0292 110.805 17.8292C110.343 17.6261 109.977 17.3183 109.706 16.9059C109.435 16.4904 109.302 15.9687 109.305 15.3409H111.294C111.301 15.5902 111.351 15.8041 111.447 15.9826C111.545 16.158 111.679 16.2934 111.848 16.3888C112.021 16.4812 112.224 16.5273 112.458 16.5273C112.704 16.5273 112.912 16.475 113.081 16.3704C113.253 16.2627 113.384 16.1057 113.473 15.8995C113.563 15.6933 113.607 15.4394 113.607 15.1378V8.54545ZM121.746 14.9808V10.9091H123.713V18H121.825V16.712H121.751C121.591 17.1275 121.324 17.4614 120.952 17.7138C120.583 17.9661 120.132 18.0923 119.599 18.0923C119.125 18.0923 118.708 17.9846 118.348 17.7692C117.988 17.5537 117.707 17.2475 117.504 16.8505C117.304 16.4535 117.202 15.978 117.199 15.424V10.9091H119.165V15.0732C119.169 15.4917 119.281 15.8226 119.502 16.0657C119.724 16.3088 120.021 16.4304 120.393 16.4304C120.63 16.4304 120.852 16.3765 121.058 16.2688C121.264 16.158 121.431 15.9949 121.557 15.7795C121.686 15.564 121.749 15.2978 121.746 14.9808ZM127.252 8.54545V18H125.286V8.54545H127.252ZM130.042 20.6591C129.793 20.6591 129.559 20.6391 129.34 20.5991C129.125 20.5621 128.946 20.5144 128.805 20.456L129.248 18.9879C129.479 19.0587 129.686 19.0972 129.871 19.1033C130.059 19.1095 130.22 19.0664 130.356 18.9741C130.494 18.8817 130.607 18.7248 130.693 18.5032L130.808 18.2031L128.265 10.9091H130.333L131.801 16.1165H131.875L133.357 10.9091H135.439L132.683 18.7663C132.55 19.148 132.37 19.4804 132.142 19.7635C131.918 20.0497 131.633 20.2698 131.288 20.4237C130.944 20.5806 130.528 20.6591 130.042 20.6591ZM139.435 18V16.5597L142.801 13.4435C143.087 13.1665 143.327 12.9173 143.521 12.6957C143.718 12.4741 143.867 12.2571 143.969 12.0447C144.07 11.8293 144.121 11.5969 144.121 11.3477C144.121 11.0707 144.058 10.8321 143.932 10.6321C143.806 10.429 143.633 10.2736 143.415 10.1658C143.196 10.055 142.948 9.99964 142.671 9.99964C142.382 9.99964 142.13 10.0581 141.914 10.1751C141.699 10.292 141.533 10.4598 141.416 10.6783C141.299 10.8968 141.24 11.1568 141.24 11.4585H139.343C139.343 10.8398 139.483 10.3028 139.763 9.8473C140.043 9.39181 140.436 9.03942 140.94 8.79013C141.445 8.54084 142.027 8.41619 142.685 8.41619C143.362 8.41619 143.952 8.53622 144.453 8.77628C144.958 9.01326 145.351 9.34257 145.631 9.7642C145.911 10.1858 146.051 10.669 146.051 11.2138C146.051 11.5708 145.98 11.9232 145.838 12.271C145.7 12.6187 145.452 13.005 145.095 13.4297C144.738 13.8513 144.235 14.3576 143.585 14.9485L142.205 16.3011V16.3658H146.175V18H139.435ZM151.331 18.2077C150.537 18.2047 149.854 18.0092 149.281 17.6214C148.712 17.2337 148.273 16.672 147.965 15.9364C147.661 15.2009 147.51 14.3161 147.513 13.282C147.513 12.2509 147.665 11.3723 147.97 10.646C148.278 9.91963 148.716 9.36719 149.286 8.98864C149.858 8.60701 150.54 8.41619 151.331 8.41619C152.122 8.41619 152.802 8.60701 153.371 8.98864C153.944 9.37026 154.384 9.92424 154.692 10.6506C154.999 11.3738 155.152 12.2509 155.149 13.282C155.149 14.3191 154.995 15.2055 154.687 15.9411C154.382 16.6766 153.945 17.2383 153.376 17.6261C152.807 18.0138 152.125 18.2077 151.331 18.2077ZM151.331 16.5504C151.872 16.5504 152.305 16.2781 152.628 15.7333C152.951 15.1886 153.111 14.3714 153.108 13.282C153.108 12.5649 153.034 11.9678 152.887 11.4908C152.742 11.0137 152.536 10.6552 152.268 10.4151C152.003 10.1751 151.691 10.055 151.331 10.055C150.792 10.055 150.361 10.3243 150.038 10.8629C149.715 11.4015 149.552 12.2079 149.549 13.282C149.549 14.0083 149.621 14.6146 149.766 15.1009C149.914 15.584 150.121 15.9472 150.389 16.1903C150.657 16.4304 150.971 16.5504 151.331 16.5504ZM156.574 18V16.5597L159.939 13.4435C160.226 13.1665 160.466 12.9173 160.66 12.6957C160.857 12.4741 161.006 12.2571 161.107 12.0447C161.209 11.8293 161.26 11.5969 161.26 11.3477C161.26 11.0707 161.197 10.8321 161.07 10.6321C160.944 10.429 160.772 10.2736 160.553 10.1658C160.335 10.055 160.087 9.99964 159.81 9.99964C159.521 9.99964 159.268 10.0581 159.053 10.1751C158.838 10.292 158.671 10.4598 158.554 10.6783C158.437 10.8968 158.379 11.1568 158.379 11.4585H156.482C156.482 10.8398 156.622 10.3028 156.902 9.8473C157.182 9.39181 157.574 9.03942 158.079 8.79013C158.584 8.54084 159.165 8.41619 159.824 8.41619C160.501 8.41619 161.09 8.53622 161.592 8.77628C162.097 9.01326 162.489 9.34257 162.769 9.7642C163.049 10.1858 163.189 10.669 163.189 11.2138C163.189 11.5708 163.119 11.9232 162.977 12.271C162.839 12.6187 162.591 13.005 162.234 13.4297C161.877 13.8513 161.374 14.3576 160.724 14.9485L159.344 16.3011V16.3658H163.314V18H156.574ZM168.257 18.1293C167.568 18.1293 166.954 18.0108 166.415 17.7738C165.88 17.5337 165.456 17.2044 165.146 16.7859C164.838 16.3642 164.679 15.878 164.67 15.3271H166.683C166.695 15.5579 166.771 15.761 166.909 15.9364C167.051 16.1088 167.238 16.2427 167.472 16.3381C167.706 16.4335 167.969 16.4812 168.262 16.4812C168.566 16.4812 168.836 16.4273 169.07 16.3196C169.304 16.2119 169.487 16.0626 169.619 15.8718C169.751 15.681 169.817 15.4609 169.817 15.2116C169.817 14.9593 169.747 14.7362 169.605 14.5423C169.467 14.3453 169.267 14.1914 169.005 14.0806C168.746 13.9698 168.439 13.9144 168.082 13.9144H167.2V12.4464H168.082C168.383 12.4464 168.65 12.3941 168.88 12.2894C169.114 12.1848 169.296 12.0401 169.425 11.8555C169.554 11.6677 169.619 11.4492 169.619 11.1999C169.619 10.9629 169.562 10.7552 169.448 10.5767C169.337 10.3951 169.18 10.2536 168.977 10.152C168.777 10.0504 168.543 9.99964 168.276 9.99964C168.005 9.99964 167.757 10.0489 167.532 10.1474C167.308 10.2428 167.128 10.3797 166.992 10.5582C166.857 10.7367 166.784 10.946 166.775 11.1861H164.859C164.869 10.6413 165.024 10.1612 165.326 9.74574C165.627 9.33026 166.033 9.00556 166.544 8.77166C167.058 8.53468 167.638 8.41619 168.285 8.41619C168.937 8.41619 169.508 8.53468 169.998 8.77166C170.487 9.00864 170.867 9.32872 171.138 9.73189C171.412 10.132 171.547 10.5813 171.544 11.0799C171.547 11.6093 171.382 12.0509 171.05 12.4048C170.721 12.7588 170.291 12.9834 169.762 13.0788V13.1527C170.458 13.242 170.987 13.4835 171.35 13.8775C171.716 14.2683 171.898 14.7577 171.895 15.3455C171.898 15.8841 171.743 16.3627 171.429 16.7812C171.118 17.1998 170.688 17.5291 170.141 17.7692C169.593 18.0092 168.965 18.1293 168.257 18.1293Z" fill="#FFFCFF"/>
</svg>
