<svg width="192" height="26" viewBox="0 0 192 26" fill="none" xmlns="http://www.w3.org/2000/svg">
<path d="M1 12C1 6.34315 1 3.51472 2.75736 1.75736C4.51472 0 7.34315 0 13 0H60V26H13C7.34315 26 4.51472 26 2.75736 24.2426C1 22.4853 1 19.6569 1 14V12Z" fill="#3F3F3F"/>
<path d="M8.52983 8.54545L10.815 15.7287H10.9027L13.1925 8.54545H15.4084L12.1491 18H9.57315L6.3093 8.54545H8.52983ZM18.9411 18.1385C18.2117 18.1385 17.5839 17.9908 17.0576 17.6953C16.5344 17.3968 16.1312 16.9751 15.8481 16.4304C15.565 15.8826 15.4234 15.2347 15.4234 14.4869C15.4234 13.7575 15.565 13.1173 15.8481 12.5664C16.1312 12.0155 16.5298 11.5862 17.0438 11.2784C17.5608 10.9706 18.1671 10.8168 18.8627 10.8168C19.3305 10.8168 19.766 10.8922 20.1691 11.043C20.5754 11.1907 20.9293 11.4138 21.2309 11.7124C21.5356 12.0109 21.7726 12.3864 21.9419 12.8388C22.1111 13.2881 22.1958 13.8144 22.1958 14.4176V14.9577H16.2082V13.739H20.3445C20.3445 13.4558 20.283 13.205 20.1599 12.9865C20.0368 12.768 19.866 12.5972 19.6475 12.4741C19.432 12.3479 19.1812 12.2848 18.895 12.2848C18.5964 12.2848 18.3318 12.354 18.1009 12.4925C17.8732 12.628 17.6947 12.8111 17.5654 13.0419C17.4362 13.2696 17.37 13.5236 17.3669 13.8036V14.9624C17.3669 15.3132 17.4316 15.6164 17.5608 15.8718C17.6932 16.1272 17.8794 16.3242 18.1194 16.4627C18.3595 16.6012 18.6441 16.6705 18.9735 16.6705C19.192 16.6705 19.392 16.6397 19.5736 16.5781C19.7552 16.5166 19.9106 16.4242 20.0399 16.3011C20.1691 16.178 20.2676 16.0272 20.3353 15.8487L22.1542 15.9688C22.0619 16.4058 21.8726 16.7874 21.5864 17.1136C21.3032 17.4368 20.937 17.6892 20.4877 17.8707C20.0414 18.0492 19.5259 18.1385 18.9411 18.1385ZM23.4791 18V10.9091H25.3857V12.1463H25.4596C25.5889 11.7062 25.8058 11.3738 26.1105 11.1491C26.4152 10.9214 26.7661 10.8075 27.1631 10.8075C27.2616 10.8075 27.3677 10.8137 27.4816 10.826C27.5955 10.8383 27.6955 10.8552 27.7817 10.8768V12.6218C27.6894 12.5941 27.5616 12.5695 27.3985 12.5479C27.2354 12.5264 27.0861 12.5156 26.9507 12.5156C26.6614 12.5156 26.4029 12.5787 26.1752 12.7049C25.9505 12.828 25.772 13.0004 25.6396 13.2219C25.5104 13.4435 25.4458 13.699 25.4458 13.9883V18H23.4791ZM34.6983 12.9311L32.8979 13.0419C32.8671 12.888 32.801 12.7495 32.6994 12.6264C32.5978 12.5002 32.464 12.4002 32.2978 12.3263C32.1346 12.2494 31.9392 12.2109 31.7115 12.2109C31.4068 12.2109 31.1498 12.2756 30.9405 12.4048C30.7312 12.531 30.6266 12.7003 30.6266 12.9126C30.6266 13.0819 30.6943 13.225 30.8297 13.342C30.9651 13.4589 31.1975 13.5528 31.5268 13.6236L32.8102 13.8821C33.4996 14.0237 34.0136 14.2514 34.3521 14.5653C34.6906 14.8793 34.8599 15.2917 34.8599 15.8026C34.8599 16.2673 34.723 16.6751 34.449 17.0259C34.1782 17.3768 33.8058 17.6507 33.3319 17.8477C32.861 18.0415 32.3178 18.1385 31.7022 18.1385C30.7636 18.1385 30.0157 17.9431 29.4586 17.5522C28.9047 17.1583 28.58 16.6228 28.4846 15.9457L30.4189 15.8441C30.4773 16.1303 30.6189 16.3488 30.8436 16.4996C31.0682 16.6474 31.356 16.7212 31.7069 16.7212C32.0516 16.7212 32.3285 16.6551 32.5378 16.5227C32.7502 16.3873 32.8579 16.2134 32.861 16.0011C32.8579 15.8226 32.7825 15.6764 32.6348 15.5625C32.487 15.4455 32.2593 15.3563 31.9515 15.2947L30.7235 15.0501C30.0311 14.9116 29.5156 14.6715 29.177 14.3299C28.8416 13.9883 28.6738 13.5528 28.6738 13.0234C28.6738 12.5679 28.7969 12.1755 29.0431 11.8462C29.2924 11.5169 29.6417 11.263 30.0911 11.0845C30.5435 10.906 31.0729 10.8168 31.6792 10.8168C32.5748 10.8168 33.2795 11.006 33.7935 11.3846C34.3105 11.7631 34.6122 12.2786 34.6983 12.9311ZM36.0983 18V10.9091H38.0649V18H36.0983ZM37.0862 9.99503C36.7938 9.99503 36.543 9.89808 36.3337 9.70419C36.1275 9.50722 36.0244 9.27178 36.0244 8.99787C36.0244 8.72704 36.1275 8.49467 36.3337 8.30078C36.543 8.10381 36.7938 8.00533 37.0862 8.00533C37.3786 8.00533 37.6279 8.10381 37.8341 8.30078C38.0434 8.49467 38.148 8.72704 38.148 8.99787C38.148 9.27178 38.0434 9.50722 37.8341 9.70419C37.6279 9.89808 37.3786 9.99503 37.0862 9.99503ZM42.8441 18.1385C42.127 18.1385 41.5069 17.9862 40.9837 17.6815C40.4635 17.3737 40.0619 16.9459 39.7788 16.3981C39.4956 15.8472 39.354 15.2086 39.354 14.4822C39.354 13.7498 39.4956 13.1096 39.7788 12.5618C40.0619 12.0109 40.4635 11.5831 40.9837 11.2784C41.5069 10.9706 42.127 10.8168 42.8441 10.8168C43.5612 10.8168 44.1798 10.9706 44.6999 11.2784C45.2231 11.5831 45.6263 12.0109 45.9094 12.5618C46.1926 13.1096 46.3342 13.7498 46.3342 14.4822C46.3342 15.2086 46.1926 15.8472 45.9094 16.3981C45.6263 16.9459 45.2231 17.3737 44.6999 17.6815C44.1798 17.9862 43.5612 18.1385 42.8441 18.1385ZM42.8533 16.6151C43.1796 16.6151 43.4519 16.5227 43.6705 16.3381C43.889 16.1503 44.0536 15.8949 44.1644 15.5717C44.2783 15.2486 44.3352 14.8808 44.3352 14.4684C44.3352 14.056 44.2783 13.6882 44.1644 13.3651C44.0536 13.0419 43.889 12.7865 43.6705 12.5987C43.4519 12.411 43.1796 12.3171 42.8533 12.3171C42.524 12.3171 42.247 12.411 42.0224 12.5987C41.8008 12.7865 41.633 13.0419 41.5192 13.3651C41.4084 13.6882 41.353 14.056 41.353 14.4684C41.353 14.8808 41.4084 15.2486 41.5192 15.5717C41.633 15.8949 41.8008 16.1503 42.0224 16.3381C42.247 16.5227 42.524 16.6151 42.8533 16.6151ZM49.5795 13.9006V18H47.6129V10.9091H49.4872V12.1602H49.5703C49.7273 11.7478 49.9904 11.4215 50.3597 11.1815C50.729 10.9383 51.1768 10.8168 51.7031 10.8168C52.1955 10.8168 52.6249 10.9245 52.9911 11.1399C53.3574 11.3554 53.642 11.6631 53.8452 12.0632C54.0483 12.4602 54.1499 12.9342 54.1499 13.4851V18H52.1832V13.8359C52.1863 13.402 52.0755 13.0634 51.8509 12.8203C51.6262 12.5741 51.3169 12.451 50.9229 12.451C50.6583 12.451 50.4244 12.5079 50.2212 12.6218C50.0212 12.7357 49.8642 12.9019 49.7504 13.1204C49.6396 13.3358 49.5826 13.5959 49.5795 13.9006Z" fill="white"/>
<rect width="43" height="26" transform="translate(60)" fill="#533DA3"/>
<path d="M65.7663 18V16.5597L69.1317 13.4435C69.418 13.1665 69.658 12.9173 69.8519 12.6957C70.0489 12.4741 70.1982 12.2571 70.2997 12.0447C70.4013 11.8293 70.4521 11.5969 70.4521 11.3477C70.4521 11.0707 70.389 10.8321 70.2628 10.6321C70.1366 10.429 69.9643 10.2736 69.7457 10.1658C69.5272 10.055 69.2795 9.99964 69.0025 9.99964C68.7132 9.99964 68.4608 10.0581 68.2454 10.1751C68.0299 10.292 67.8638 10.4598 67.7468 10.6783C67.6299 10.8968 67.5714 11.1568 67.5714 11.4585H65.674C65.674 10.8398 65.814 10.3028 66.0941 9.8473C66.3742 9.39181 66.7666 9.03942 67.2713 8.79013C67.776 8.54084 68.3577 8.41619 69.0163 8.41619C69.6934 8.41619 70.2828 8.53622 70.7844 8.77628C71.2892 9.01326 71.6816 9.34257 71.9616 9.7642C72.2417 10.1858 72.3817 10.669 72.3817 11.2138C72.3817 11.5708 72.311 11.9232 72.1694 12.271C72.0309 12.6187 71.7831 13.005 71.4261 13.4297C71.0691 13.8513 70.5659 14.3576 69.9165 14.9485L68.5362 16.3011V16.3658H72.5064V18H65.7663ZM75.1228 18.12C74.8181 18.12 74.5565 18.0123 74.338 17.7969C74.1225 17.5784 74.0148 17.3168 74.0148 17.0121C74.0148 16.7105 74.1225 16.4519 74.338 16.2365C74.5565 16.0211 74.8181 15.9134 75.1228 15.9134C75.4182 15.9134 75.6768 16.0211 75.8983 16.2365C76.1199 16.4519 76.2307 16.7105 76.2307 17.0121C76.2307 17.2152 76.1784 17.4014 76.0738 17.5707C75.9722 17.7369 75.8383 17.8707 75.6721 17.9723C75.5059 18.0708 75.3228 18.12 75.1228 18.12ZM77.8269 18V16.5597L81.1923 13.4435C81.4785 13.1665 81.7186 12.9173 81.9125 12.6957C82.1094 12.4741 82.2587 12.2571 82.3603 12.0447C82.4618 11.8293 82.5126 11.5969 82.5126 11.3477C82.5126 11.0707 82.4495 10.8321 82.3233 10.6321C82.1971 10.429 82.0248 10.2736 81.8063 10.1658C81.5878 10.055 81.34 9.99964 81.063 9.99964C80.7737 9.99964 80.5214 10.0581 80.3059 10.1751C80.0905 10.292 79.9243 10.4598 79.8074 10.6783C79.6904 10.8968 79.6319 11.1568 79.6319 11.4585H77.7346C77.7346 10.8398 77.8746 10.3028 78.1547 9.8473C78.4347 9.39181 78.8271 9.03942 79.3319 8.79013C79.8366 8.54084 80.4183 8.41619 81.0769 8.41619C81.754 8.41619 82.3433 8.53622 82.845 8.77628C83.3497 9.01326 83.7421 9.34257 84.0222 9.7642C84.3023 10.1858 84.4423 10.669 84.4423 11.2138C84.4423 11.5708 84.3715 11.9232 84.2299 12.271C84.0914 12.6187 83.8437 13.005 83.4867 13.4297C83.1297 13.8513 82.6265 14.3576 81.9771 14.9485L80.5968 16.3011V16.3658H84.5669V18H77.8269ZM87.1833 18.12C86.8786 18.12 86.617 18.0123 86.3985 17.7969C86.1831 17.5784 86.0754 17.3168 86.0754 17.0121C86.0754 16.7105 86.1831 16.4519 86.3985 16.2365C86.617 16.0211 86.8786 15.9134 87.1833 15.9134C87.4788 15.9134 87.7373 16.0211 87.9589 16.2365C88.1805 16.4519 88.2913 16.7105 88.2913 17.0121C88.2913 17.2152 88.239 17.4014 88.1343 17.5707C88.0328 17.7369 87.8989 17.8707 87.7327 17.9723C87.5665 18.0708 87.3834 18.12 87.1833 18.12ZM93.0774 18.1293C92.388 18.1293 91.774 18.0108 91.2354 17.7738C90.6999 17.5337 90.2768 17.2044 89.9659 16.7859C89.6581 16.3642 89.4996 15.878 89.4904 15.3271H91.5032C91.5155 15.5579 91.5909 15.761 91.7294 15.9364C91.871 16.1088 92.0587 16.2427 92.2926 16.3381C92.5265 16.4335 92.7897 16.4812 93.082 16.4812C93.3867 16.4812 93.656 16.4273 93.8899 16.3196C94.1238 16.2119 94.3069 16.0626 94.4393 15.8718C94.5716 15.681 94.6378 15.4609 94.6378 15.2116C94.6378 14.9593 94.567 14.7362 94.4254 14.5423C94.2869 14.3453 94.0869 14.1914 93.8253 14.0806C93.5668 13.9698 93.259 13.9144 92.902 13.9144H92.0202V12.4464H92.902C93.2036 12.4464 93.4698 12.3941 93.7006 12.2894C93.9345 12.1848 94.1161 12.0401 94.2454 11.8555C94.3746 11.6677 94.4393 11.4492 94.4393 11.1999C94.4393 10.9629 94.3823 10.7552 94.2685 10.5767C94.1577 10.3951 94.0007 10.2536 93.7976 10.152C93.5975 10.0504 93.3636 9.99964 93.0959 9.99964C92.825 9.99964 92.5773 10.0489 92.3526 10.1474C92.128 10.2428 91.9479 10.3797 91.8125 10.5582C91.6771 10.7367 91.6048 10.946 91.5955 11.1861H89.6797C89.6889 10.6413 89.8443 10.1612 90.146 9.74574C90.4476 9.33026 90.8538 9.00556 91.3647 8.77166C91.8787 8.53468 92.4588 8.41619 93.1051 8.41619C93.7576 8.41619 94.3285 8.53468 94.8178 8.77166C95.3072 9.00864 95.6873 9.32872 95.9581 9.73189C96.232 10.132 96.3674 10.5813 96.3643 11.0799C96.3674 11.6093 96.2028 12.0509 95.8704 12.4048C95.5411 12.7588 95.1117 12.9834 94.5824 13.0788V13.1527C95.2779 13.242 95.8073 13.4835 96.1705 13.8775C96.5367 14.2683 96.7183 14.7577 96.7152 15.3455C96.7183 15.8841 96.5629 16.3627 96.2489 16.7812C95.9381 17.1998 95.5088 17.5291 94.9609 17.7692C94.4131 18.0092 93.7853 18.1293 93.0774 18.1293Z" fill="white"/>
<path d="M103 0H179C184.657 0 187.485 0 189.243 1.75736C191 3.51472 191 6.34315 191 12V14C191 19.6569 191 22.4853 189.243 24.2426C187.485 26 184.657 26 179 26H103V0Z" fill="#6C4FD4"/>
<path d="M108.822 8.54545H111.287L113.891 14.8977H114.001L116.605 8.54545H119.07V18H117.131V11.8462H117.053L114.606 17.9538H113.286L110.839 11.8232H110.761V18H108.822V8.54545ZM122.702 18.1339C122.25 18.1339 121.847 18.0554 121.493 17.8984C121.139 17.7384 120.859 17.503 120.653 17.1921C120.449 16.8782 120.348 16.4873 120.348 16.0195C120.348 15.6256 120.42 15.2947 120.565 15.027C120.71 14.7592 120.907 14.5438 121.156 14.3807C121.405 14.2176 121.688 14.0945 122.005 14.0114C122.325 13.9283 122.661 13.8698 123.012 13.8359C123.424 13.7929 123.756 13.7528 124.009 13.7159C124.261 13.6759 124.444 13.6174 124.558 13.5405C124.672 13.4635 124.729 13.3497 124.729 13.1989V13.1712C124.729 12.8788 124.637 12.6526 124.452 12.4925C124.27 12.3325 124.012 12.2525 123.676 12.2525C123.322 12.2525 123.041 12.331 122.832 12.4879C122.622 12.6418 122.484 12.8357 122.416 13.0696L120.597 12.9219C120.69 12.491 120.871 12.1186 121.142 11.8047C121.413 11.4877 121.762 11.2446 122.19 11.0753C122.621 10.9029 123.119 10.8168 123.686 10.8168C124.08 10.8168 124.457 10.8629 124.817 10.9553C125.18 11.0476 125.501 11.1907 125.782 11.3846C126.065 11.5785 126.288 11.8278 126.451 12.1325C126.614 12.4341 126.696 12.7957 126.696 13.2173V18H124.831V17.0167H124.775C124.661 17.2383 124.509 17.4337 124.318 17.603C124.127 17.7692 123.898 17.9 123.63 17.9954C123.362 18.0877 123.053 18.1339 122.702 18.1339ZM123.266 16.7766C123.555 16.7766 123.81 16.7197 124.032 16.6058C124.253 16.4889 124.427 16.3319 124.554 16.1349C124.68 15.938 124.743 15.7148 124.743 15.4656V14.7131C124.681 14.7531 124.597 14.79 124.489 14.8239C124.384 14.8546 124.266 14.8839 124.133 14.9116C124.001 14.9362 123.869 14.9593 123.736 14.9808C123.604 14.9993 123.484 15.0162 123.376 15.0316C123.146 15.0655 122.944 15.1193 122.772 15.1932C122.599 15.267 122.465 15.3671 122.37 15.4933C122.275 15.6164 122.227 15.7702 122.227 15.9549C122.227 16.2227 122.324 16.4273 122.518 16.5689C122.715 16.7074 122.964 16.7766 123.266 16.7766ZM128.221 18V10.9091H130.128V12.1463H130.202C130.331 11.7062 130.548 11.3738 130.853 11.1491C131.157 10.9214 131.508 10.8075 131.905 10.8075C132.004 10.8075 132.11 10.8137 132.224 10.826C132.338 10.8383 132.438 10.8552 132.524 10.8768V12.6218C132.432 12.5941 132.304 12.5695 132.141 12.5479C131.978 12.5264 131.828 12.5156 131.693 12.5156C131.404 12.5156 131.145 12.5787 130.917 12.7049C130.693 12.828 130.514 13.0004 130.382 13.2219C130.253 13.4435 130.188 13.699 130.188 13.9883V18H128.221ZM136.414 18.1385C135.688 18.1385 135.063 17.9846 134.54 17.6768C134.02 17.366 133.62 16.9351 133.34 16.3842C133.063 15.8333 132.924 15.1993 132.924 14.4822C132.924 13.7559 133.064 13.1188 133.344 12.571C133.628 12.0201 134.029 11.5908 134.549 11.283C135.069 10.9722 135.688 10.8168 136.405 10.8168C137.024 10.8168 137.565 10.9291 138.03 11.1538C138.495 11.3784 138.863 11.6939 139.134 12.1001C139.404 12.5064 139.554 12.9834 139.581 13.5312H137.725C137.673 13.1773 137.535 12.8926 137.31 12.6772C137.088 12.4587 136.798 12.3494 136.438 12.3494C136.133 12.3494 135.867 12.4325 135.639 12.5987C135.414 12.7618 135.239 13.0004 135.113 13.3143C134.986 13.6282 134.923 14.0083 134.923 14.4545C134.923 14.907 134.985 15.2917 135.108 15.6087C135.234 15.9257 135.411 16.1673 135.639 16.3335C135.867 16.4996 136.133 16.5827 136.438 16.5827C136.662 16.5827 136.864 16.5366 137.042 16.4442C137.224 16.3519 137.373 16.218 137.49 16.0426C137.61 15.8641 137.689 15.6502 137.725 15.4009H139.581C139.551 15.9426 139.403 16.4196 139.138 16.832C138.877 17.2414 138.515 17.5614 138.053 17.7923C137.592 18.0231 137.045 18.1385 136.414 18.1385ZM142.807 13.9006V18H140.84V8.54545H142.752V12.1602H142.835C142.995 11.7416 143.253 11.4138 143.61 11.1768C143.967 10.9368 144.415 10.8168 144.954 10.8168C145.446 10.8168 145.876 10.9245 146.242 11.1399C146.611 11.3523 146.897 11.6585 147.1 12.0586C147.307 12.4556 147.408 12.9311 147.405 13.4851V18H145.438V13.8359C145.442 13.3989 145.331 13.0588 145.106 12.8157C144.884 12.5726 144.574 12.451 144.174 12.451C143.906 12.451 143.669 12.5079 143.463 12.6218C143.259 12.7357 143.099 12.9019 142.983 13.1204C142.869 13.3358 142.81 13.5959 142.807 13.9006ZM151.943 18V16.5597L155.309 13.4435C155.595 13.1665 155.835 12.9173 156.029 12.6957C156.226 12.4741 156.375 12.2571 156.476 12.0447C156.578 11.8293 156.629 11.5969 156.629 11.3477C156.629 11.0707 156.566 10.8321 156.44 10.6321C156.313 10.429 156.141 10.2736 155.922 10.1658C155.704 10.055 155.456 9.99964 155.179 9.99964C154.89 9.99964 154.638 10.0581 154.422 10.1751C154.207 10.292 154.041 10.4598 153.924 10.6783C153.807 10.8968 153.748 11.1568 153.748 11.4585H151.851C151.851 10.8398 151.991 10.3028 152.271 9.8473C152.551 9.39181 152.943 9.03942 153.448 8.79013C153.953 8.54084 154.534 8.41619 155.193 8.41619C155.87 8.41619 156.46 8.53622 156.961 8.77628C157.466 9.01326 157.858 9.34257 158.138 9.7642C158.418 10.1858 158.559 10.669 158.559 11.2138C158.559 11.5708 158.488 11.9232 158.346 12.271C158.208 12.6187 157.96 13.005 157.603 13.4297C157.246 13.8513 156.743 14.3576 156.093 14.9485L154.713 16.3011V16.3658H158.683V18H151.943ZM163.839 18.2077C163.045 18.2047 162.361 18.0092 161.789 17.6214C161.22 17.2337 160.781 16.672 160.473 15.9364C160.169 15.2009 160.018 14.3161 160.021 13.282C160.021 12.2509 160.173 11.3723 160.478 10.646C160.786 9.91963 161.224 9.36719 161.794 8.98864C162.366 8.60701 163.048 8.41619 163.839 8.41619C164.63 8.41619 165.31 8.60701 165.879 8.98864C166.452 9.37026 166.892 9.92424 167.199 10.6506C167.507 11.3738 167.66 12.2509 167.656 13.282C167.656 14.3191 167.503 15.2055 167.195 15.9411C166.89 16.6766 166.453 17.2383 165.884 17.6261C165.314 18.0138 164.633 18.2077 163.839 18.2077ZM163.839 16.5504C164.38 16.5504 164.813 16.2781 165.136 15.7333C165.459 15.1886 165.619 14.3714 165.616 13.282C165.616 12.5649 165.542 11.9678 165.394 11.4908C165.25 11.0137 165.044 10.6552 164.776 10.4151C164.511 10.1751 164.199 10.055 163.839 10.055C163.3 10.055 162.869 10.3243 162.546 10.8629C162.223 11.4015 162.06 12.2079 162.057 13.282C162.057 14.0083 162.129 14.6146 162.274 15.1009C162.421 15.584 162.629 15.9472 162.897 16.1903C163.165 16.4304 163.479 16.5504 163.839 16.5504ZM169.082 18V16.5597L172.447 13.4435C172.733 13.1665 172.973 12.9173 173.167 12.6957C173.364 12.4741 173.514 12.2571 173.615 12.0447C173.717 11.8293 173.767 11.5969 173.767 11.3477C173.767 11.0707 173.704 10.8321 173.578 10.6321C173.452 10.429 173.28 10.2736 173.061 10.1658C172.843 10.055 172.595 9.99964 172.318 9.99964C172.029 9.99964 171.776 10.0581 171.561 10.1751C171.345 10.292 171.179 10.4598 171.062 10.6783C170.945 10.8968 170.887 11.1568 170.887 11.4585H168.989C168.989 10.8398 169.129 10.3028 169.41 9.8473C169.69 9.39181 170.082 9.03942 170.587 8.79013C171.091 8.54084 171.673 8.41619 172.332 8.41619C173.009 8.41619 173.598 8.53622 174.1 8.77628C174.605 9.01326 174.997 9.34257 175.277 9.7642C175.557 10.1858 175.697 10.669 175.697 11.2138C175.697 11.5708 175.626 11.9232 175.485 12.271C175.346 12.6187 175.099 13.005 174.742 13.4297C174.385 13.8513 173.881 14.3576 173.232 14.9485L171.852 16.3011V16.3658H175.822V18H169.082ZM176.924 16.3381V14.7638L180.871 8.54545H182.228V10.7244H181.425L178.937 14.6623V14.7362H184.546V16.3381H176.924ZM181.462 18V15.858L181.499 15.1609V8.54545H183.373V18H181.462Z" fill="white"/>
</svg>
