<svg width="197" height="26" viewBox="0 0 197 26" fill="none" xmlns="http://www.w3.org/2000/svg">
<path d="M1 12C1 6.34315 1 3.51472 2.75736 1.75736C4.51472 0 7.34315 0 13 0H60V26H13C7.34315 26 4.51472 26 2.75736 24.2426C1 22.4853 1 19.6569 1 14V12Z" fill="#3F3F3F"/>
<path d="M8.52983 8.54545L10.815 15.7287H10.9027L13.1925 8.54545H15.4084L12.1491 18H9.57315L6.3093 8.54545H8.52983ZM18.9411 18.1385C18.2117 18.1385 17.5839 17.9908 17.0576 17.6953C16.5344 17.3968 16.1312 16.9751 15.8481 16.4304C15.565 15.8826 15.4234 15.2347 15.4234 14.4869C15.4234 13.7575 15.565 13.1173 15.8481 12.5664C16.1312 12.0155 16.5298 11.5862 17.0438 11.2784C17.5608 10.9706 18.1671 10.8168 18.8627 10.8168C19.3305 10.8168 19.766 10.8922 20.1691 11.043C20.5754 11.1907 20.9293 11.4138 21.2309 11.7124C21.5356 12.0109 21.7726 12.3864 21.9419 12.8388C22.1111 13.2881 22.1958 13.8144 22.1958 14.4176V14.9577H16.2082V13.739H20.3445C20.3445 13.4558 20.283 13.205 20.1599 12.9865C20.0368 12.768 19.866 12.5972 19.6475 12.4741C19.432 12.3479 19.1812 12.2848 18.895 12.2848C18.5964 12.2848 18.3318 12.354 18.1009 12.4925C17.8732 12.628 17.6947 12.8111 17.5654 13.0419C17.4362 13.2696 17.37 13.5236 17.3669 13.8036V14.9624C17.3669 15.3132 17.4316 15.6164 17.5608 15.8718C17.6932 16.1272 17.8794 16.3242 18.1194 16.4627C18.3595 16.6012 18.6441 16.6705 18.9735 16.6705C19.192 16.6705 19.392 16.6397 19.5736 16.5781C19.7552 16.5166 19.9106 16.4242 20.0399 16.3011C20.1691 16.178 20.2676 16.0272 20.3353 15.8487L22.1542 15.9688C22.0619 16.4058 21.8726 16.7874 21.5864 17.1136C21.3032 17.4368 20.937 17.6892 20.4877 17.8707C20.0414 18.0492 19.5259 18.1385 18.9411 18.1385ZM23.4791 18V10.9091H25.3857V12.1463H25.4596C25.5889 11.7062 25.8058 11.3738 26.1105 11.1491C26.4152 10.9214 26.7661 10.8075 27.1631 10.8075C27.2616 10.8075 27.3677 10.8137 27.4816 10.826C27.5955 10.8383 27.6955 10.8552 27.7817 10.8768V12.6218C27.6894 12.5941 27.5616 12.5695 27.3985 12.5479C27.2354 12.5264 27.0861 12.5156 26.9507 12.5156C26.6614 12.5156 26.4029 12.5787 26.1752 12.7049C25.9505 12.828 25.772 13.0004 25.6396 13.2219C25.5104 13.4435 25.4458 13.699 25.4458 13.9883V18H23.4791ZM34.6983 12.9311L32.8979 13.0419C32.8671 12.888 32.801 12.7495 32.6994 12.6264C32.5978 12.5002 32.464 12.4002 32.2978 12.3263C32.1346 12.2494 31.9392 12.2109 31.7115 12.2109C31.4068 12.2109 31.1498 12.2756 30.9405 12.4048C30.7312 12.531 30.6266 12.7003 30.6266 12.9126C30.6266 13.0819 30.6943 13.225 30.8297 13.342C30.9651 13.4589 31.1975 13.5528 31.5268 13.6236L32.8102 13.8821C33.4996 14.0237 34.0136 14.2514 34.3521 14.5653C34.6906 14.8793 34.8599 15.2917 34.8599 15.8026C34.8599 16.2673 34.723 16.6751 34.449 17.0259C34.1782 17.3768 33.8058 17.6507 33.3319 17.8477C32.861 18.0415 32.3178 18.1385 31.7022 18.1385C30.7636 18.1385 30.0157 17.9431 29.4586 17.5522C28.9047 17.1583 28.58 16.6228 28.4846 15.9457L30.4189 15.8441C30.4773 16.1303 30.6189 16.3488 30.8436 16.4996C31.0682 16.6474 31.356 16.7212 31.7069 16.7212C32.0516 16.7212 32.3285 16.6551 32.5378 16.5227C32.7502 16.3873 32.8579 16.2134 32.861 16.0011C32.8579 15.8226 32.7825 15.6764 32.6348 15.5625C32.487 15.4455 32.2593 15.3563 31.9515 15.2947L30.7235 15.0501C30.0311 14.9116 29.5156 14.6715 29.177 14.3299C28.8416 13.9883 28.6738 13.5528 28.6738 13.0234C28.6738 12.5679 28.7969 12.1755 29.0431 11.8462C29.2924 11.5169 29.6417 11.263 30.0911 11.0845C30.5435 10.906 31.0729 10.8168 31.6792 10.8168C32.5748 10.8168 33.2795 11.006 33.7935 11.3846C34.3105 11.7631 34.6122 12.2786 34.6983 12.9311ZM36.0983 18V10.9091H38.0649V18H36.0983ZM37.0862 9.99503C36.7938 9.99503 36.543 9.89808 36.3337 9.70419C36.1275 9.50722 36.0244 9.27178 36.0244 8.99787C36.0244 8.72704 36.1275 8.49467 36.3337 8.30078C36.543 8.10381 36.7938 8.00533 37.0862 8.00533C37.3786 8.00533 37.6279 8.10381 37.8341 8.30078C38.0434 8.49467 38.148 8.72704 38.148 8.99787C38.148 9.27178 38.0434 9.50722 37.8341 9.70419C37.6279 9.89808 37.3786 9.99503 37.0862 9.99503ZM42.8441 18.1385C42.127 18.1385 41.5069 17.9862 40.9837 17.6815C40.4635 17.3737 40.0619 16.9459 39.7788 16.3981C39.4956 15.8472 39.354 15.2086 39.354 14.4822C39.354 13.7498 39.4956 13.1096 39.7788 12.5618C40.0619 12.0109 40.4635 11.5831 40.9837 11.2784C41.5069 10.9706 42.127 10.8168 42.8441 10.8168C43.5612 10.8168 44.1798 10.9706 44.6999 11.2784C45.2231 11.5831 45.6263 12.0109 45.9094 12.5618C46.1926 13.1096 46.3342 13.7498 46.3342 14.4822C46.3342 15.2086 46.1926 15.8472 45.9094 16.3981C45.6263 16.9459 45.2231 17.3737 44.6999 17.6815C44.1798 17.9862 43.5612 18.1385 42.8441 18.1385ZM42.8533 16.6151C43.1796 16.6151 43.4519 16.5227 43.6705 16.3381C43.889 16.1503 44.0536 15.8949 44.1644 15.5717C44.2783 15.2486 44.3352 14.8808 44.3352 14.4684C44.3352 14.056 44.2783 13.6882 44.1644 13.3651C44.0536 13.0419 43.889 12.7865 43.6705 12.5987C43.4519 12.411 43.1796 12.3171 42.8533 12.3171C42.524 12.3171 42.247 12.411 42.0224 12.5987C41.8008 12.7865 41.633 13.0419 41.5192 13.3651C41.4084 13.6882 41.353 14.056 41.353 14.4684C41.353 14.8808 41.4084 15.2486 41.5192 15.5717C41.633 15.8949 41.8008 16.1503 42.0224 16.3381C42.247 16.5227 42.524 16.6151 42.8533 16.6151ZM49.5795 13.9006V18H47.6129V10.9091H49.4872V12.1602H49.5703C49.7273 11.7478 49.9904 11.4215 50.3597 11.1815C50.729 10.9383 51.1768 10.8168 51.7031 10.8168C52.1955 10.8168 52.6249 10.9245 52.9911 11.1399C53.3574 11.3554 53.642 11.6631 53.8452 12.0632C54.0483 12.4602 54.1499 12.9342 54.1499 13.4851V18H52.1832V13.8359C52.1863 13.402 52.0755 13.0634 51.8509 12.8203C51.6262 12.5741 51.3169 12.451 50.9229 12.451C50.6583 12.451 50.4244 12.5079 50.2212 12.6218C50.0212 12.7357 49.8642 12.9019 49.7504 13.1204C49.6396 13.3358 49.5826 13.5959 49.5795 13.9006Z" fill="#FFFCFF"/>
<rect width="36" height="26" transform="translate(60)" fill="#533DA3"/>
<path d="M65.7663 18V16.5597L69.1317 13.4435C69.418 13.1665 69.658 12.9173 69.8519 12.6957C70.0489 12.4741 70.1982 12.2571 70.2997 12.0447C70.4013 11.8293 70.4521 11.5969 70.4521 11.3477C70.4521 11.0707 70.389 10.8321 70.2628 10.6321C70.1366 10.429 69.9643 10.2736 69.7457 10.1658C69.5272 10.055 69.2795 9.99964 69.0025 9.99964C68.7132 9.99964 68.4608 10.0581 68.2454 10.1751C68.0299 10.292 67.8638 10.4598 67.7468 10.6783C67.6299 10.8968 67.5714 11.1568 67.5714 11.4585H65.674C65.674 10.8398 65.814 10.3028 66.0941 9.8473C66.3742 9.39181 66.7666 9.03942 67.2713 8.79013C67.776 8.54084 68.3577 8.41619 69.0163 8.41619C69.6934 8.41619 70.2828 8.53622 70.7844 8.77628C71.2892 9.01326 71.6816 9.34257 71.9616 9.7642C72.2417 10.1858 72.3817 10.669 72.3817 11.2138C72.3817 11.5708 72.311 11.9232 72.1694 12.271C72.0309 12.6187 71.7831 13.005 71.4261 13.4297C71.0691 13.8513 70.5659 14.3576 69.9165 14.9485L68.5362 16.3011V16.3658H72.5064V18H65.7663ZM75.1228 18.12C74.8181 18.12 74.5565 18.0123 74.338 17.7969C74.1225 17.5784 74.0148 17.3168 74.0148 17.0121C74.0148 16.7105 74.1225 16.4519 74.338 16.2365C74.5565 16.0211 74.8181 15.9134 75.1228 15.9134C75.4182 15.9134 75.6768 16.0211 75.8983 16.2365C76.1199 16.4519 76.2307 16.7105 76.2307 17.0121C76.2307 17.2152 76.1784 17.4014 76.0738 17.5707C75.9722 17.7369 75.8383 17.8707 75.6721 17.9723C75.5059 18.0708 75.3228 18.12 75.1228 18.12ZM80.7595 8.54545V18H78.7606V10.4428H78.7052L76.54 11.8001V10.0273L78.8806 8.54545H80.7595ZM83.6667 18.12C83.362 18.12 83.1004 18.0123 82.8819 17.7969C82.6665 17.5784 82.5588 17.3168 82.5588 17.0121C82.5588 16.7105 82.6665 16.4519 82.8819 16.2365C83.1004 16.0211 83.362 15.9134 83.6667 15.9134C83.9622 15.9134 84.2207 16.0211 84.4423 16.2365C84.6639 16.4519 84.7747 16.7105 84.7747 17.0121C84.7747 17.2152 84.7224 17.4014 84.6177 17.5707C84.5162 17.7369 84.3823 17.8707 84.2161 17.9723C84.0499 18.0708 83.8668 18.12 83.6667 18.12ZM89.3034 8.54545V18H87.3045V10.4428H87.2491L85.084 11.8001V10.0273L87.4245 8.54545H89.3034Z" fill="#FFFCFF"/>
<path d="M96 0H184C189.657 0 192.485 0 194.243 1.75736C196 3.51472 196 6.34315 196 12V14C196 19.6569 196 22.4853 194.243 24.2426C192.485 26 189.657 26 184 26H96V0Z" fill="#6C4FD4"/>
<path d="M110.51 13.2727C110.51 14.3037 110.315 15.1809 109.924 15.9041C109.536 16.6274 109.007 17.1798 108.336 17.5614C107.668 17.94 106.917 18.1293 106.083 18.1293C105.243 18.1293 104.489 17.9384 103.821 17.5568C103.153 17.1752 102.625 16.6228 102.237 15.8995C101.849 15.1763 101.656 14.3007 101.656 13.2727C101.656 12.2417 101.849 11.3646 102.237 10.6413C102.625 9.91809 103.153 9.36719 103.821 8.98864C104.489 8.60701 105.243 8.41619 106.083 8.41619C106.917 8.41619 107.668 8.60701 108.336 8.98864C109.007 9.36719 109.536 9.91809 109.924 10.6413C110.315 11.3646 110.51 12.2417 110.51 13.2727ZM108.483 13.2727C108.483 12.6049 108.383 12.0417 108.183 11.5831C107.986 11.1245 107.708 10.7768 107.348 10.5398C106.988 10.3028 106.566 10.1843 106.083 10.1843C105.6 10.1843 105.178 10.3028 104.818 10.5398C104.458 10.7768 104.178 11.1245 103.978 11.5831C103.781 12.0417 103.682 12.6049 103.682 13.2727C103.682 13.9406 103.781 14.5038 103.978 14.9624C104.178 15.4209 104.458 15.7687 104.818 16.0057C105.178 16.2427 105.6 16.3612 106.083 16.3612C106.566 16.3612 106.988 16.2427 107.348 16.0057C107.708 15.7687 107.986 15.4209 108.183 14.9624C108.383 14.5038 108.483 13.9406 108.483 13.2727ZM115.158 18.1385C114.431 18.1385 113.806 17.9846 113.283 17.6768C112.763 17.366 112.363 16.9351 112.083 16.3842C111.806 15.8333 111.668 15.1993 111.668 14.4822C111.668 13.7559 111.808 13.1188 112.088 12.571C112.371 12.0201 112.772 11.5908 113.293 11.283C113.813 10.9722 114.431 10.8168 115.148 10.8168C115.767 10.8168 116.309 10.9291 116.773 11.1538C117.238 11.3784 117.606 11.6939 117.877 12.1001C118.148 12.5064 118.297 12.9834 118.324 13.5312H116.469C116.416 13.1773 116.278 12.8926 116.053 12.6772C115.832 12.4587 115.541 12.3494 115.181 12.3494C114.876 12.3494 114.61 12.4325 114.382 12.5987C114.157 12.7618 113.982 13.0004 113.856 13.3143C113.73 13.6282 113.666 14.0083 113.666 14.4545C113.666 14.907 113.728 15.2917 113.851 15.6087C113.977 15.9257 114.154 16.1673 114.382 16.3335C114.61 16.4996 114.876 16.5827 115.181 16.5827C115.405 16.5827 115.607 16.5366 115.785 16.4442C115.967 16.3519 116.116 16.218 116.233 16.0426C116.353 15.8641 116.432 15.6502 116.469 15.4009H118.324C118.294 15.9426 118.146 16.4196 117.881 16.832C117.62 17.2414 117.258 17.5614 116.796 17.7923C116.335 18.0231 115.789 18.1385 115.158 18.1385ZM123.355 10.9091V12.3864H119.085V10.9091H123.355ZM120.055 9.21023H122.021V15.821C122.021 16.0026 122.049 16.1442 122.104 16.2457C122.16 16.3442 122.237 16.4135 122.335 16.4535C122.437 16.4935 122.554 16.5135 122.686 16.5135C122.778 16.5135 122.871 16.5058 122.963 16.4904C123.055 16.4719 123.126 16.4581 123.175 16.4489L123.485 17.9123C123.386 17.9431 123.248 17.9785 123.069 18.0185C122.891 18.0616 122.674 18.0877 122.418 18.0969C121.944 18.1154 121.529 18.0523 121.172 17.9077C120.818 17.763 120.542 17.5384 120.345 17.2337C120.148 16.929 120.051 16.5443 120.055 16.0795V9.21023ZM127.764 18.1385C127.047 18.1385 126.427 17.9862 125.904 17.6815C125.383 17.3737 124.982 16.9459 124.699 16.3981C124.416 15.8472 124.274 15.2086 124.274 14.4822C124.274 13.7498 124.416 13.1096 124.699 12.5618C124.982 12.0109 125.383 11.5831 125.904 11.2784C126.427 10.9706 127.047 10.8168 127.764 10.8168C128.481 10.8168 129.1 10.9706 129.62 11.2784C130.143 11.5831 130.546 12.0109 130.829 12.5618C131.113 13.1096 131.254 13.7498 131.254 14.4822C131.254 15.2086 131.113 15.8472 130.829 16.3981C130.546 16.9459 130.143 17.3737 129.62 17.6815C129.1 17.9862 128.481 18.1385 127.764 18.1385ZM127.773 16.6151C128.099 16.6151 128.372 16.5227 128.59 16.3381C128.809 16.1503 128.974 15.8949 129.084 15.5717C129.198 15.2486 129.255 14.8808 129.255 14.4684C129.255 14.056 129.198 13.6882 129.084 13.3651C128.974 13.0419 128.809 12.7865 128.59 12.5987C128.372 12.411 128.099 12.3171 127.773 12.3171C127.444 12.3171 127.167 12.411 126.942 12.5987C126.721 12.7865 126.553 13.0419 126.439 13.3651C126.328 13.6882 126.273 14.056 126.273 14.4684C126.273 14.8808 126.328 15.2486 126.439 15.5717C126.553 15.8949 126.721 16.1503 126.942 16.3381C127.167 16.5227 127.444 16.6151 127.773 16.6151ZM132.57 18V8.54545H134.536V12.1001H134.596C134.683 11.9093 134.807 11.7154 134.97 11.5185C135.137 11.3184 135.352 11.1522 135.617 11.0199C135.884 10.8845 136.217 10.8168 136.614 10.8168C137.131 10.8168 137.608 10.9522 138.045 11.223C138.482 11.4908 138.831 11.8955 139.093 12.4371C139.354 12.9757 139.485 13.6513 139.485 14.4638C139.485 15.2547 139.358 15.9226 139.102 16.4673C138.85 17.009 138.505 17.4199 138.068 17.6999C137.634 17.9769 137.148 18.1154 136.609 18.1154C136.228 18.1154 135.903 18.0523 135.635 17.9261C135.37 17.8 135.153 17.6415 134.984 17.4506C134.815 17.2567 134.686 17.0613 134.596 16.8643H134.509V18H132.57ZM134.495 14.4545C134.495 14.8762 134.553 15.244 134.67 15.5579C134.787 15.8718 134.956 16.1165 135.178 16.2919C135.4 16.4643 135.669 16.5504 135.986 16.5504C136.306 16.5504 136.577 16.4627 136.798 16.2873C137.02 16.1088 137.188 15.8626 137.302 15.5487C137.419 15.2317 137.477 14.867 137.477 14.4545C137.477 14.0452 137.42 13.6851 137.306 13.3743C137.192 13.0634 137.025 12.8203 136.803 12.6449C136.581 12.4695 136.309 12.3817 135.986 12.3817C135.666 12.3817 135.395 12.4664 135.173 12.6357C134.955 12.8049 134.787 13.045 134.67 13.3558C134.553 13.6667 134.495 14.0329 134.495 14.4545ZM144.029 18.1385C143.3 18.1385 142.672 17.9908 142.146 17.6953C141.622 17.3968 141.219 16.9751 140.936 16.4304C140.653 15.8826 140.511 15.2347 140.511 14.4869C140.511 13.7575 140.653 13.1173 140.936 12.5664C141.219 12.0155 141.618 11.5862 142.132 11.2784C142.649 10.9706 143.255 10.8168 143.951 10.8168C144.418 10.8168 144.854 10.8922 145.257 11.043C145.663 11.1907 146.017 11.4138 146.319 11.7124C146.623 12.0109 146.86 12.3864 147.03 12.8388C147.199 13.2881 147.284 13.8144 147.284 14.4176V14.9577H141.296V13.739H145.432C145.432 13.4558 145.371 13.205 145.248 12.9865C145.125 12.768 144.954 12.5972 144.735 12.4741C144.52 12.3479 144.269 12.2848 143.983 12.2848C143.684 12.2848 143.42 12.354 143.189 12.4925C142.961 12.628 142.783 12.8111 142.653 13.0419C142.524 13.2696 142.458 13.5236 142.455 13.8036V14.9624C142.455 15.3132 142.519 15.6164 142.649 15.8718C142.781 16.1272 142.967 16.3242 143.207 16.4627C143.447 16.6012 143.732 16.6705 144.061 16.6705C144.28 16.6705 144.48 16.6397 144.661 16.5781C144.843 16.5166 144.998 16.4242 145.128 16.3011C145.257 16.178 145.355 16.0272 145.423 15.8487L147.242 15.9688C147.15 16.4058 146.96 16.7874 146.674 17.1136C146.391 17.4368 146.025 17.6892 145.576 17.8707C145.129 18.0492 144.614 18.1385 144.029 18.1385ZM148.567 18V10.9091H150.474V12.1463H150.547C150.677 11.7062 150.894 11.3738 151.198 11.1491C151.503 10.9214 151.854 10.8075 152.251 10.8075C152.349 10.8075 152.456 10.8137 152.57 10.826C152.683 10.8383 152.783 10.8552 152.87 10.8768V12.6218C152.777 12.5941 152.65 12.5695 152.486 12.5479C152.323 12.5264 152.174 12.5156 152.039 12.5156C151.749 12.5156 151.491 12.5787 151.263 12.7049C151.038 12.828 150.86 13.0004 150.728 13.2219C150.598 13.4435 150.534 13.699 150.534 13.9883V18H148.567ZM156.877 18V16.5597L160.242 13.4435C160.528 13.1665 160.768 12.9173 160.962 12.6957C161.159 12.4741 161.309 12.2571 161.41 12.0447C161.512 11.8293 161.562 11.5969 161.562 11.3477C161.562 11.0707 161.499 10.8321 161.373 10.6321C161.247 10.429 161.075 10.2736 160.856 10.1658C160.638 10.055 160.39 9.99964 160.113 9.99964C159.824 9.99964 159.571 10.0581 159.356 10.1751C159.14 10.292 158.974 10.4598 158.857 10.6783C158.74 10.8968 158.682 11.1568 158.682 11.4585H156.784C156.784 10.8398 156.924 10.3028 157.204 9.8473C157.485 9.39181 157.877 9.03942 158.382 8.79013C158.886 8.54084 159.468 8.41619 160.127 8.41619C160.804 8.41619 161.393 8.53622 161.895 8.77628C162.4 9.01326 162.792 9.34257 163.072 9.7642C163.352 10.1858 163.492 10.669 163.492 11.2138C163.492 11.5708 163.421 11.9232 163.28 12.271C163.141 12.6187 162.893 13.005 162.536 13.4297C162.179 13.8513 161.676 14.3576 161.027 14.9485L159.647 16.3011V16.3658H163.617V18H156.877ZM168.772 18.2077C167.978 18.2047 167.295 18.0092 166.722 17.6214C166.153 17.2337 165.715 16.672 165.407 15.9364C165.102 15.2009 164.951 14.3161 164.954 13.282C164.954 12.2509 165.107 11.3723 165.411 10.646C165.719 9.91963 166.158 9.36719 166.727 8.98864C167.3 8.60701 167.981 8.41619 168.772 8.41619C169.563 8.41619 170.243 8.60701 170.813 8.98864C171.385 9.37026 171.825 9.92424 172.133 10.6506C172.441 11.3738 172.593 12.2509 172.59 13.282C172.59 14.3191 172.436 15.2055 172.128 15.9411C171.824 16.6766 171.387 17.2383 170.817 17.6261C170.248 18.0138 169.566 18.2077 168.772 18.2077ZM168.772 16.5504C169.314 16.5504 169.746 16.2781 170.069 15.7333C170.393 15.1886 170.553 14.3714 170.55 13.282C170.55 12.5649 170.476 11.9678 170.328 11.4908C170.183 11.0137 169.977 10.6552 169.709 10.4151C169.445 10.1751 169.132 10.055 168.772 10.055C168.234 10.055 167.803 10.3243 167.48 10.8629C167.156 11.4015 166.993 12.2079 166.99 13.282C166.99 14.0083 167.063 14.6146 167.207 15.1009C167.355 15.584 167.563 15.9472 167.83 16.1903C168.098 16.4304 168.412 16.5504 168.772 16.5504ZM174.015 18V16.5597L177.381 13.4435C177.667 13.1665 177.907 12.9173 178.101 12.6957C178.298 12.4741 178.447 12.2571 178.549 12.0447C178.65 11.8293 178.701 11.5969 178.701 11.3477C178.701 11.0707 178.638 10.8321 178.512 10.6321C178.386 10.429 178.213 10.2736 177.995 10.1658C177.776 10.055 177.528 9.99964 177.252 9.99964C176.962 9.99964 176.71 10.0581 176.494 10.1751C176.279 10.292 176.113 10.4598 175.996 10.6783C175.879 10.8968 175.82 11.1568 175.82 11.4585H173.923C173.923 10.8398 174.063 10.3028 174.343 9.8473C174.623 9.39181 175.016 9.03942 175.52 8.79013C176.025 8.54084 176.607 8.41619 177.265 8.41619C177.942 8.41619 178.532 8.53622 179.033 8.77628C179.538 9.01326 179.931 9.34257 180.211 9.7642C180.491 10.1858 180.631 10.669 180.631 11.2138C180.631 11.5708 180.56 11.9232 180.418 12.271C180.28 12.6187 180.032 13.005 179.675 13.4297C179.318 13.8513 178.815 14.3576 178.166 14.9485L176.785 16.3011V16.3658H180.755V18H174.015ZM185.699 18.1293C185.009 18.1293 184.395 18.0108 183.857 17.7738C183.321 17.5337 182.898 17.2044 182.587 16.7859C182.279 16.3642 182.121 15.878 182.112 15.3271H184.124C184.137 15.5579 184.212 15.761 184.35 15.9364C184.492 16.1088 184.68 16.2427 184.914 16.3381C185.148 16.4335 185.411 16.4812 185.703 16.4812C186.008 16.4812 186.277 16.4273 186.511 16.3196C186.745 16.2119 186.928 16.0626 187.06 15.8718C187.193 15.681 187.259 15.4609 187.259 15.2116C187.259 14.9593 187.188 14.7362 187.047 14.5423C186.908 14.3453 186.708 14.1914 186.446 14.0806C186.188 13.9698 185.88 13.9144 185.523 13.9144H184.641V12.4464H185.523C185.825 12.4464 186.091 12.3941 186.322 12.2894C186.556 12.1848 186.737 12.0401 186.866 11.8555C186.996 11.6677 187.06 11.4492 187.06 11.1999C187.06 10.9629 187.003 10.7552 186.89 10.5767C186.779 10.3951 186.622 10.2536 186.419 10.152C186.219 10.0504 185.985 9.99964 185.717 9.99964C185.446 9.99964 185.198 10.0489 184.974 10.1474C184.749 10.2428 184.569 10.3797 184.434 10.5582C184.298 10.7367 184.226 10.946 184.217 11.1861H182.301C182.31 10.6413 182.465 10.1612 182.767 9.74574C183.069 9.33026 183.475 9.00556 183.986 8.77166C184.5 8.53468 185.08 8.41619 185.726 8.41619C186.379 8.41619 186.95 8.53468 187.439 8.77166C187.928 9.00864 188.308 9.32872 188.579 9.73189C188.853 10.132 188.989 10.5813 188.985 11.0799C188.989 11.6093 188.824 12.0509 188.491 12.4048C188.162 12.7588 187.733 12.9834 187.203 13.0788V13.1527C187.899 13.242 188.428 13.4835 188.792 13.8775C189.158 14.2683 189.339 14.7577 189.336 15.3455C189.339 15.8841 189.184 16.3627 188.87 16.7812C188.559 17.1998 188.13 17.5291 187.582 17.7692C187.034 18.0092 186.406 18.1293 185.699 18.1293Z" fill="#FFFCFF"/>
</svg>
