<svg width="121" height="26" viewBox="0 0 121 26" fill="none" xmlns="http://www.w3.org/2000/svg">
<rect x="1" width="119" height="26" rx="6" fill="#EC631E"/>
<g clip-path="url(#clip0_1_683)">
<path d="M18 18.6C18.21 18.6 18.4113 18.5883 18.6038 18.565C18.7963 18.5417 18.9917 18.5067 19.19 18.46L18.35 17.2H15.9V16.5C15.9 16.115 16.0371 15.7854 16.3113 15.5113C16.5854 15.2371 16.915 15.1 17.3 15.1H18.7V13H17.3C17.1017 13 16.9354 12.9329 16.8013 12.7988C16.6671 12.6646 16.6 12.4983 16.6 12.3V10.9H16.285C15.9817 10.9 15.725 10.7979 15.515 10.5938C15.305 10.3896 15.2 10.1358 15.2 9.8325C15.2 9.7275 15.2146 9.6225 15.2438 9.5175C15.2729 9.4125 15.3167 9.31333 15.375 9.22L16.46 7.6275C15.2817 7.96583 14.3104 8.625 13.5463 9.605C12.7821 10.585 12.4 11.7167 12.4 13H13.1V12.3C13.1 12.1017 13.1671 11.9354 13.3013 11.8013C13.4354 11.6671 13.6017 11.6 13.8 11.6H15.2C15.3983 11.6 15.5646 11.6671 15.6988 11.8013C15.8329 11.9354 15.9 12.1017 15.9 12.3V13C15.9 13.1983 15.8329 13.3646 15.6988 13.4988C15.5646 13.6329 15.3983 13.7 15.2 13.7V14.4C15.2 14.785 15.0629 15.1146 14.7888 15.3888C14.5146 15.6629 14.185 15.8 13.8 15.8H13.1525C13.6425 16.64 14.3133 17.3167 15.165 17.83C16.0167 18.3433 16.9617 18.6 18 18.6ZM23.32 14.715C23.4133 14.4467 23.4833 14.1696 23.53 13.8838C23.5767 13.5979 23.6 13.3033 23.6 13C23.6 11.6933 23.2033 10.5413 22.41 9.54375C21.6167 8.54625 20.6133 7.89 19.4 7.575V9.5C19.785 9.5 20.1146 9.63708 20.3888 9.91125C20.6629 10.1854 20.8 10.515 20.8 10.9V12.3C21.0217 12.3 21.22 12.3263 21.395 12.3788C21.57 12.4313 21.7392 12.5392 21.9025 12.7025L23.32 14.715ZM18 20C17.0317 20 16.1217 19.8163 15.27 19.4488C14.4183 19.0813 13.6775 18.5825 13.0475 17.9525C12.4175 17.3225 11.9188 16.5817 11.5513 15.73C11.1838 14.8783 11 13.9683 11 13C11 12.0317 11.1838 11.1217 11.5513 10.27C11.9188 9.41833 12.4175 8.6775 13.0475 8.0475C13.6775 7.4175 14.4183 6.91875 15.27 6.55125C16.1217 6.18375 17.0317 6 18 6C18.9683 6 19.8783 6.18375 20.73 6.55125C21.5817 6.91875 22.3225 7.4175 22.9525 8.0475C23.5825 8.6775 24.0813 9.41833 24.4488 10.27C24.8163 11.1217 25 12.0317 25 13C25 13.9683 24.8163 14.8783 24.4488 15.73C24.0813 16.5817 23.5825 17.3225 22.9525 17.9525C22.3225 18.5825 21.5817 19.0813 20.73 19.4488C19.8783 19.8163 18.9683 20 18 20Z" fill="#FFFCFF"/>
</g>
<path d="M29.9499 18L27.2447 8.54545H29.4283L30.9933 15.1147H31.0717L32.7983 8.54545H34.668L36.3899 15.1286H36.473L38.038 8.54545H40.2216L37.5163 18H35.5682L33.7678 11.8185H33.6939L31.8981 18H29.9499ZM43.6966 18.1385C42.9796 18.1385 42.3594 17.9862 41.8362 17.6815C41.3161 17.3737 40.9144 16.9459 40.6313 16.3981C40.3482 15.8472 40.2066 15.2086 40.2066 14.4822C40.2066 13.7498 40.3482 13.1096 40.6313 12.5618C40.9144 12.0109 41.3161 11.5831 41.8362 11.2784C42.3594 10.9706 42.9796 10.8168 43.6966 10.8168C44.4137 10.8168 45.0323 10.9706 45.5525 11.2784C46.0757 11.5831 46.4788 12.0109 46.762 12.5618C47.0451 13.1096 47.1867 13.7498 47.1867 14.4822C47.1867 15.2086 47.0451 15.8472 46.762 16.3981C46.4788 16.9459 46.0757 17.3737 45.5525 17.6815C45.0323 17.9862 44.4137 18.1385 43.6966 18.1385ZM43.7059 16.6151C44.0321 16.6151 44.3045 16.5227 44.523 16.3381C44.7415 16.1503 44.9062 15.8949 45.017 15.5717C45.1308 15.2486 45.1878 14.8808 45.1878 14.4684C45.1878 14.056 45.1308 13.6882 45.017 13.3651C44.9062 13.0419 44.7415 12.7865 44.523 12.5987C44.3045 12.411 44.0321 12.3171 43.7059 12.3171C43.3766 12.3171 43.0996 12.411 42.8749 12.5987C42.6533 12.7865 42.4856 13.0419 42.3717 13.3651C42.2609 13.6882 42.2055 14.056 42.2055 14.4684C42.2055 14.8808 42.2609 15.2486 42.3717 15.5717C42.4856 15.8949 42.6533 16.1503 42.8749 16.3381C43.0996 16.5227 43.3766 16.6151 43.7059 16.6151ZM48.4655 18V10.9091H50.3721V12.1463H50.4459C50.5752 11.7062 50.7922 11.3738 51.0969 11.1491C51.4015 10.9214 51.7524 10.8075 52.1494 10.8075C52.2479 10.8075 52.3541 10.8137 52.468 10.826C52.5818 10.8383 52.6818 10.8552 52.768 10.8768V12.6218C52.6757 12.5941 52.548 12.5695 52.3849 12.5479C52.2217 12.5264 52.0725 12.5156 51.9371 12.5156C51.6478 12.5156 51.3892 12.5787 51.1615 12.7049C50.9368 12.828 50.7583 13.0004 50.626 13.2219C50.4967 13.4435 50.4321 13.699 50.4321 13.9883V18H48.4655ZM55.5668 15.9595L55.5714 13.6005H55.8576L58.1289 10.9091H60.3864L57.3349 14.473H56.8686L55.5668 15.9595ZM53.7848 18V8.54545H55.7514V18H53.7848ZM58.2166 18L56.13 14.9116L57.4411 13.522L60.5202 18H58.2166ZM65.7588 18L63.8291 10.9091H65.8188L66.9175 15.6733H66.9822L68.127 10.9091H70.0798L71.2432 15.6456H71.3032L72.3834 10.9091H74.3685L72.4434 18H70.3614L69.1427 13.5405H69.055L67.8362 18H65.7588ZM75.4176 18V10.9091H77.3842V18H75.4176ZM76.4055 9.99503C76.1132 9.99503 75.8623 9.89808 75.6531 9.70419C75.4469 9.50722 75.3438 9.27178 75.3438 8.99787C75.3438 8.72704 75.4469 8.49467 75.6531 8.30078C75.8623 8.10381 76.1132 8.00533 76.4055 8.00533C76.6979 8.00533 76.9472 8.10381 77.1534 8.30078C77.3627 8.49467 77.4673 8.72704 77.4673 8.99787C77.4673 9.27178 77.3627 9.50722 77.1534 9.70419C76.9472 9.89808 76.6979 9.99503 76.4055 9.99503ZM82.7313 10.9091V12.3864H78.461V10.9091H82.7313ZM79.4305 9.21023H81.3971V15.821C81.3971 16.0026 81.4248 16.1442 81.4802 16.2457C81.5356 16.3442 81.6125 16.4135 81.711 16.4535C81.8126 16.4935 81.9295 16.5135 82.0619 16.5135C82.1542 16.5135 82.2465 16.5058 82.3389 16.4904C82.4312 16.4719 82.502 16.4581 82.5512 16.4489L82.8605 17.9123C82.762 17.9431 82.6236 17.9785 82.445 18.0185C82.2665 18.0616 82.0496 18.0877 81.7941 18.0969C81.3202 18.1154 80.9047 18.0523 80.5477 17.9077C80.1937 17.763 79.9183 17.5384 79.7213 17.2337C79.5244 16.929 79.4274 16.5443 79.4305 16.0795V9.21023ZM86.1313 13.9006V18H84.1647V8.54545H86.0759V12.1602H86.159C86.319 11.7416 86.5776 11.4138 86.9346 11.1768C87.2916 10.9368 87.7394 10.8168 88.278 10.8168C88.7704 10.8168 89.1997 10.9245 89.566 11.1399C89.9353 11.3523 90.2215 11.6585 90.4246 12.0586C90.6308 12.4556 90.7324 12.9311 90.7293 13.4851V18H88.7627V13.8359C88.7658 13.3989 88.655 13.0588 88.4303 12.8157C88.2087 12.5726 87.8979 12.451 87.4978 12.451C87.23 12.451 86.993 12.5079 86.7868 12.6218C86.5837 12.7357 86.4237 12.9019 86.3067 13.1204C86.1929 13.3358 86.1344 13.5959 86.1313 13.9006ZM99.833 14.9808V10.9091H101.8V18H99.9115V16.712H99.8376C99.6776 17.1275 99.4114 17.4614 99.039 17.7138C98.6697 17.9661 98.2188 18.0923 97.6863 18.0923C97.2124 18.0923 96.7954 17.9846 96.4353 17.7692C96.0752 17.5537 95.7936 17.2475 95.5905 16.8505C95.3904 16.4535 95.2889 15.978 95.2858 15.424V10.9091H97.2524V15.0732C97.2555 15.4917 97.3678 15.8226 97.5894 16.0657C97.811 16.3088 98.108 16.4304 98.4804 16.4304C98.7174 16.4304 98.939 16.3765 99.1452 16.2688C99.3514 16.158 99.5175 15.9949 99.6437 15.7795C99.773 15.564 99.8361 15.2978 99.833 14.9808ZM109.273 12.9311L107.472 13.0419C107.441 12.888 107.375 12.7495 107.274 12.6264C107.172 12.5002 107.038 12.4002 106.872 12.3263C106.709 12.2494 106.513 12.2109 106.286 12.2109C105.981 12.2109 105.724 12.2756 105.515 12.4048C105.305 12.531 105.201 12.7003 105.201 12.9126C105.201 13.0819 105.269 13.225 105.404 13.342C105.539 13.4589 105.772 13.5528 106.101 13.6236L107.384 13.8821C108.074 14.0237 108.588 14.2514 108.926 14.5653C109.265 14.8793 109.434 15.2917 109.434 15.8026C109.434 16.2673 109.297 16.6751 109.023 17.0259C108.752 17.3768 108.38 17.6507 107.906 17.8477C107.435 18.0415 106.892 18.1385 106.276 18.1385C105.338 18.1385 104.59 17.9431 104.033 17.5522C103.479 17.1583 103.154 16.6228 103.059 15.9457L104.993 15.8441C105.052 16.1303 105.193 16.3488 105.418 16.4996C105.642 16.6474 105.93 16.7212 106.281 16.7212C106.626 16.7212 106.903 16.6551 107.112 16.5227C107.324 16.3873 107.432 16.2134 107.435 16.0011C107.432 15.8226 107.357 15.6764 107.209 15.5625C107.061 15.4455 106.834 15.3563 106.526 15.2947L105.298 15.0501C104.605 14.9116 104.09 14.6715 103.751 14.3299C103.416 13.9883 103.248 13.5528 103.248 13.0234C103.248 12.5679 103.371 12.1755 103.617 11.8462C103.867 11.5169 104.216 11.263 104.665 11.0845C105.118 10.906 105.647 10.8168 106.253 10.8168C107.149 10.8168 107.854 11.006 108.368 11.3846C108.885 11.7631 109.186 12.2786 109.273 12.9311Z" fill="#FFFCFF"/>
<defs>
<clipPath id="clip0_1_683">
<rect width="14" height="14" fill="white" transform="translate(11 6)"/>
</clipPath>
</defs>
</svg>
