<svg width="79" height="26" viewBox="0 0 79 26" fill="none" xmlns="http://www.w3.org/2000/svg">
<rect x="1" width="77" height="26" rx="6" fill="#C8C8D9"/>
<path d="M19.3319 11.928L24.5437 6H23.3087L18.7833 11.1472L15.1688 6H11L16.4657 13.7835L11 20H12.2351L17.0141 14.5643L20.8312 20H25L19.3316 11.928H19.3319ZM17.6403 13.8521L17.0865 13.077L12.6801 6.90978H14.5772L18.1331 11.887L18.6869 12.662L23.3093 19.1316H21.4122L17.6403 13.8524V13.8521Z" fill="#24292F"/>
<path d="M27.8217 18V8.54545H34.0817V10.1935H29.8207V12.4464H33.6662V14.0945H29.8207V18H27.8217ZM38.0726 18.1385C37.3555 18.1385 36.7354 17.9862 36.2122 17.6815C35.6921 17.3737 35.2904 16.9459 35.0073 16.3981C34.7241 15.8472 34.5826 15.2086 34.5826 14.4822C34.5826 13.7498 34.7241 13.1096 35.0073 12.5618C35.2904 12.0109 35.6921 11.5831 36.2122 11.2784C36.7354 10.9706 37.3555 10.8168 38.0726 10.8168C38.7897 10.8168 39.4083 10.9706 39.9284 11.2784C40.4516 11.5831 40.8548 12.0109 41.138 12.5618C41.4211 13.1096 41.5627 13.7498 41.5627 14.4822C41.5627 15.2086 41.4211 15.8472 41.138 16.3981C40.8548 16.9459 40.4516 17.3737 39.9284 17.6815C39.4083 17.9862 38.7897 18.1385 38.0726 18.1385ZM38.0819 16.6151C38.4081 16.6151 38.6805 16.5227 38.899 16.3381C39.1175 16.1503 39.2821 15.8949 39.3929 15.5717C39.5068 15.2486 39.5637 14.8808 39.5637 14.4684C39.5637 14.056 39.5068 13.6882 39.3929 13.3651C39.2821 13.0419 39.1175 12.7865 38.899 12.5987C38.6805 12.411 38.4081 12.3171 38.0819 12.3171C37.7525 12.3171 37.4756 12.411 37.2509 12.5987C37.0293 12.7865 36.8616 13.0419 36.7477 13.3651C36.6369 13.6882 36.5815 14.056 36.5815 14.4684C36.5815 14.8808 36.6369 15.2486 36.7477 15.5717C36.8616 15.8949 37.0293 16.1503 37.2509 16.3381C37.4756 16.5227 37.7525 16.6151 38.0819 16.6151ZM44.8081 8.54545V18H42.8414V8.54545H44.8081ZM48.3501 8.54545V18H46.3834V8.54545H48.3501ZM53.1293 18.1385C52.4122 18.1385 51.792 17.9862 51.2688 17.6815C50.7487 17.3737 50.3471 16.9459 50.0639 16.3981C49.7808 15.8472 49.6392 15.2086 49.6392 14.4822C49.6392 13.7498 49.7808 13.1096 50.0639 12.5618C50.3471 12.0109 50.7487 11.5831 51.2688 11.2784C51.792 10.9706 52.4122 10.8168 53.1293 10.8168C53.8464 10.8168 54.465 10.9706 54.9851 11.2784C55.5083 11.5831 55.9115 12.0109 56.1946 12.5618C56.4777 13.1096 56.6193 13.7498 56.6193 14.4822C56.6193 15.2086 56.4777 15.8472 56.1946 16.3981C55.9115 16.9459 55.5083 17.3737 54.9851 17.6815C54.465 17.9862 53.8464 18.1385 53.1293 18.1385ZM53.1385 16.6151C53.4647 16.6151 53.7371 16.5227 53.9556 16.3381C54.1741 16.1503 54.3388 15.8949 54.4496 15.5717C54.5634 15.2486 54.6204 14.8808 54.6204 14.4684C54.6204 14.056 54.5634 13.6882 54.4496 13.3651C54.3388 13.0419 54.1741 12.7865 53.9556 12.5987C53.7371 12.411 53.4647 12.3171 53.1385 12.3171C52.8092 12.3171 52.5322 12.411 52.3075 12.5987C52.0859 12.7865 51.9182 13.0419 51.8043 13.3651C51.6935 13.6882 51.6381 14.056 51.6381 14.4684C51.6381 14.8808 51.6935 15.2486 51.8043 15.5717C51.9182 15.8949 52.0859 16.1503 52.3075 16.3381C52.5322 16.5227 52.8092 16.6151 53.1385 16.6151ZM59.1191 18L57.1895 10.9091H59.1792L60.2779 15.6733H60.3425L61.4874 10.9091H63.4402L64.6035 15.6456H64.6635L65.7438 10.9091H67.7289L65.8038 18H63.7218L62.503 13.5405H62.4153L61.1966 18H59.1191Z" fill="#24292F"/>
</svg>
