<svg width="66" height="26" viewBox="0 0 66 26" fill="none" xmlns="http://www.w3.org/2000/svg">
<rect x="1" width="64" height="26" rx="6" fill="#1D2F6F"/>
<path d="M17.5422 17.8754C15.8945 18.7313 13.6312 18.8181 11.358 17.9431C9.58458 17.2644 8.06616 16.0953 7 14.5867C7.49737 14.9395 8.03869 15.2321 8.61211 15.4571C10.9616 16.4244 13.3163 16.3807 14.9692 15.4571C12.7874 13.8782 10.8225 12.0455 9.12076 10.0017C8.82755 9.70667 8.56518 9.38258 8.33769 9.03439C10.1247 10.462 12.0257 11.7555 14.0236 12.9035C12.5685 11.5004 11.2302 9.99154 10.0215 8.39099C12.0373 10.231 14.2532 11.8619 16.6322 13.2565L16.8866 13.3919C16.9554 13.2342 17.0149 13.0727 17.0648 12.9081C17.6142 11.1089 16.9884 9.06331 15.6155 7.37052C18.794 9.09685 20.6759 12.3422 19.8923 15.0604C19.8923 15.1326 19.8518 15.2055 19.8257 15.2781L19.8512 15.307C21.4225 17.0724 20.9905 18.939 20.7921 18.5862C19.9327 17.1114 18.3409 17.5654 17.5425 17.8748L17.5422 17.8754Z" fill="white"/>
<path d="M30.9506 11.2646C30.9137 10.8922 30.7552 10.6029 30.4751 10.3967C30.1951 10.1905 29.815 10.0874 29.3349 10.0874C29.0086 10.0874 28.7332 10.1335 28.5085 10.2259C28.2839 10.3151 28.1115 10.4397 27.9915 10.5998C27.8745 10.7598 27.8161 10.9414 27.8161 11.1445C27.8099 11.3138 27.8453 11.4615 27.9222 11.5877C28.0022 11.7139 28.1115 11.8232 28.25 11.9155C28.3885 12.0047 28.5485 12.0832 28.7301 12.1509C28.9117 12.2156 29.1056 12.271 29.3118 12.3171L30.1612 12.5202C30.5736 12.6126 30.9522 12.7357 31.2969 12.8896C31.6416 13.0434 31.9401 13.2327 32.1925 13.4574C32.4448 13.6821 32.6403 13.9467 32.7788 14.2514C32.9203 14.5561 32.9927 14.9054 32.9957 15.2994C32.9927 15.878 32.8449 16.3796 32.5526 16.8043C32.2633 17.226 31.8447 17.5537 31.2969 17.7876C30.7521 18.0185 30.0951 18.1339 29.3256 18.1339C28.5624 18.1339 27.8976 18.0169 27.3313 17.783C26.7681 17.5491 26.328 17.2029 26.011 16.7443C25.6971 16.2827 25.5324 15.7118 25.517 15.0316H27.4513C27.4729 15.3486 27.5637 15.6133 27.7237 15.8256C27.8868 16.0349 28.1038 16.1934 28.3746 16.3011C28.6486 16.4058 28.9579 16.4581 29.3026 16.4581C29.6411 16.4581 29.935 16.4089 30.1843 16.3104C30.4367 16.2119 30.6321 16.0749 30.7706 15.8995C30.9091 15.7241 30.9783 15.5225 30.9783 15.2947C30.9783 15.0824 30.9152 14.9039 30.7891 14.7592C30.666 14.6146 30.4844 14.4915 30.2443 14.3899C30.0073 14.2884 29.7165 14.196 29.3718 14.1129L28.3423 13.8544C27.5452 13.6605 26.9158 13.3574 26.4542 12.945C25.9925 12.5326 25.7633 11.977 25.7663 11.2784C25.7633 10.706 25.9156 10.2058 26.2234 9.77805C26.5342 9.35026 26.9605 9.01634 27.5021 8.77628C28.0438 8.53622 28.6593 8.41619 29.3487 8.41619C30.0504 8.41619 30.6629 8.53622 31.1861 8.77628C31.7124 9.01634 32.1217 9.35026 32.4141 9.77805C32.7064 10.2058 32.8572 10.7013 32.8665 11.2646H30.9506ZM35.7021 18L33.7725 10.9091H35.7622L36.8609 15.6733H36.9255L38.0704 10.9091H40.0232L41.1865 15.6456H41.2465L42.3268 10.9091H44.3119L42.3868 18H40.3048L39.086 13.5405H38.9983L37.7796 18H35.7021ZM45.361 18V10.9091H47.3276V18H45.361ZM46.3489 9.99503C46.0565 9.99503 45.8057 9.89808 45.5964 9.70419C45.3902 9.50722 45.2871 9.27178 45.2871 8.99787C45.2871 8.72704 45.3902 8.49467 45.5964 8.30078C45.8057 8.10381 46.0565 8.00533 46.3489 8.00533C46.6413 8.00533 46.8906 8.10381 47.0968 8.30078C47.306 8.49467 47.4107 8.72704 47.4107 8.99787C47.4107 9.27178 47.306 9.50722 47.0968 9.70419C46.8906 9.89808 46.6413 9.99503 46.3489 9.99503ZM52.7162 10.9091V12.3864H48.3398V10.9091H52.7162ZM49.3415 18V10.3967C49.3415 9.88269 49.4416 9.45644 49.6416 9.1179C49.8447 8.77936 50.1217 8.52545 50.4726 8.35618C50.8234 8.18691 51.222 8.10227 51.6682 8.10227C51.9698 8.10227 52.2453 8.12535 52.4946 8.17152C52.747 8.21768 52.9347 8.25923 53.0578 8.29616L52.7069 9.77344C52.63 9.74882 52.5346 9.72573 52.4207 9.70419C52.3099 9.68265 52.1961 9.67188 52.0791 9.67188C51.7898 9.67188 51.5882 9.73958 51.4743 9.875C51.3605 10.0073 51.3035 10.1935 51.3035 10.4336V18H49.3415ZM57.6893 10.9091V12.3864H53.419V10.9091H57.6893ZM54.3885 9.21023H56.3551V15.821C56.3551 16.0026 56.3828 16.1442 56.4382 16.2457C56.4936 16.3442 56.5705 16.4135 56.669 16.4535C56.7706 16.4935 56.8875 16.5135 57.0199 16.5135C57.1122 16.5135 57.2045 16.5058 57.2969 16.4904C57.3892 16.4719 57.46 16.4581 57.5092 16.4489L57.8185 17.9123C57.7201 17.9431 57.5816 17.9785 57.4031 18.0185C57.2246 18.0616 57.0076 18.0877 56.7521 18.0969C56.2782 18.1154 55.8627 18.0523 55.5057 17.9077C55.1518 17.763 54.8763 17.5384 54.6793 17.2337C54.4824 16.929 54.3854 16.5443 54.3885 16.0795V9.21023Z" fill="white"/>
</svg>
