<svg width="89" height="26" viewBox="0 0 89 26" fill="none" xmlns="http://www.w3.org/2000/svg">
<g clip-path="url(#clip0_318_353)">
<rect x="1.605" width="64" height="26" rx="6" fill="#F0C808"/>
<g clip-path="url(#clip1_318_353)">
<path fill-rule="evenodd" clip-rule="evenodd" d="M14.5841 6C10.7249 6 7.605 9.20833 7.605 13.1775C7.605 16.3502 9.604 19.0359 12.3771 19.9864C12.7239 20.0579 12.8509 19.832 12.8509 19.642C12.8509 19.4756 12.8394 18.9052 12.8394 18.311C10.898 18.7388 10.4937 17.4554 10.4937 17.4554C10.1817 16.6235 9.71943 16.4097 9.71943 16.4097C9.084 15.97 9.76572 15.97 9.76572 15.97C10.4706 16.0176 10.8404 16.7068 10.8404 16.7068C11.4643 17.8 12.4696 17.4911 12.874 17.3009C12.9317 16.8375 13.1167 16.5166 13.3131 16.3384C11.7647 16.172 10.1356 15.5541 10.1356 12.7971C10.1356 12.0129 10.4127 11.3712 10.8519 10.8721C10.7826 10.6939 10.5399 9.95704 10.9213 8.97077C10.9213 8.97077 11.5106 8.7806 12.8393 9.70752C13.4082 9.55041 13.9948 9.47049 14.5841 9.46981C15.1734 9.46981 15.7741 9.55308 16.3289 9.70752C17.6577 8.7806 18.247 8.97077 18.247 8.97077C18.6284 9.95704 18.3856 10.6939 18.3163 10.8721C18.767 11.3712 19.0327 12.0129 19.0327 12.7971C19.0327 15.5541 17.4036 16.1601 15.8436 16.3384C16.0979 16.5642 16.3173 16.9919 16.3173 17.6693C16.3173 18.6318 16.3059 19.4043 16.3059 19.6418C16.3059 19.832 16.433 20.0579 16.7796 19.9866C19.5527 19.0358 21.5517 16.3502 21.5517 13.1775C21.5631 9.20833 18.4319 6 14.5841 6Z" fill="#0D1117"/>
</g>
<path d="M31.5556 11.2646C31.5187 10.8922 31.3602 10.6029 31.0801 10.3967C30.8001 10.1905 30.42 10.0874 29.9399 10.0874C29.6136 10.0874 29.3382 10.1335 29.1135 10.2259C28.8889 10.3151 28.7165 10.4397 28.5965 10.5998C28.4795 10.7598 28.4211 10.9414 28.4211 11.1445C28.4149 11.3138 28.4503 11.4615 28.5272 11.5877C28.6073 11.7139 28.7165 11.8232 28.855 11.9155C28.9935 12.0047 29.1535 12.0832 29.3351 12.1509C29.5167 12.2156 29.7106 12.271 29.9168 12.3171L30.7662 12.5202C31.1786 12.6126 31.5572 12.7357 31.9019 12.8896C32.2466 13.0434 32.5451 13.2327 32.7975 13.4574C33.0498 13.6821 33.2453 13.9467 33.3838 14.2514C33.5253 14.5561 33.5977 14.9054 33.6007 15.2994C33.5977 15.878 33.4499 16.3796 33.1576 16.8043C32.8683 17.226 32.4497 17.5537 31.9019 17.7876C31.3571 18.0185 30.7001 18.1339 29.9306 18.1339C29.1674 18.1339 28.5026 18.0169 27.9363 17.783C27.3731 17.5491 26.933 17.2029 26.616 16.7443C26.3021 16.2827 26.1374 15.7118 26.122 15.0316H28.0564C28.0779 15.3486 28.1687 15.6133 28.3287 15.8256C28.4918 16.0349 28.7088 16.1934 28.9796 16.3011C29.2536 16.4058 29.5629 16.4581 29.9076 16.4581C30.2461 16.4581 30.54 16.4089 30.7893 16.3104C31.0417 16.2119 31.2371 16.0749 31.3756 15.8995C31.5141 15.7241 31.5833 15.5225 31.5833 15.2947C31.5833 15.0824 31.5202 14.9039 31.3941 14.7592C31.271 14.6146 31.0894 14.4915 30.8493 14.3899C30.6123 14.2884 30.3215 14.196 29.9768 14.1129L28.9473 13.8544C28.1502 13.6605 27.5208 13.3574 27.0592 12.945C26.5975 12.5326 26.3683 11.977 26.3713 11.2784C26.3683 10.706 26.5206 10.2058 26.8284 9.77805C27.1392 9.35026 27.5655 9.01634 28.1071 8.77628C28.6488 8.53622 29.2643 8.41619 29.9537 8.41619C30.6554 8.41619 31.2679 8.53622 31.7911 8.77628C32.3174 9.01634 32.7267 9.35026 33.0191 9.77805C33.3114 10.2058 33.4622 10.7013 33.4715 11.2646H31.5556ZM38.68 10.9091V12.3864H34.4098V10.9091H38.68ZM35.3792 9.21023H37.3459V15.821C37.3459 16.0026 37.3736 16.1442 37.429 16.2457C37.4844 16.3442 37.5613 16.4135 37.6598 16.4535C37.7613 16.4935 37.8783 16.5135 38.0106 16.5135C38.103 16.5135 38.1953 16.5058 38.2876 16.4904C38.38 16.4719 38.4507 16.4581 38.5 16.4489L38.8093 17.9123C38.7108 17.9431 38.5723 17.9785 38.3938 18.0185C38.2153 18.0616 37.9983 18.0877 37.7429 18.0969C37.2689 18.1154 36.8534 18.0523 36.4964 17.9077C36.1425 17.763 35.867 17.5384 35.6701 17.2337C35.4731 16.929 35.3762 16.5443 35.3792 16.0795V9.21023ZM41.9831 18.1339C41.5307 18.1339 41.1275 18.0554 40.7736 17.8984C40.4197 17.7384 40.1396 17.503 39.9334 17.1921C39.7303 16.8782 39.6287 16.4873 39.6287 16.0195C39.6287 15.6256 39.701 15.2947 39.8457 15.027C39.9903 14.7592 40.1873 14.5438 40.4366 14.3807C40.6859 14.2176 40.969 14.0945 41.286 14.0114C41.6061 13.9283 41.9416 13.8698 42.2924 13.8359C42.7048 13.7929 43.0372 13.7528 43.2896 13.7159C43.5419 13.6759 43.7251 13.6174 43.8389 13.5405C43.9528 13.4635 44.0097 13.3497 44.0097 13.1989V13.1712C44.0097 12.8788 43.9174 12.6526 43.7328 12.4925C43.5512 12.3325 43.2927 12.2525 42.9572 12.2525C42.6033 12.2525 42.3217 12.331 42.1124 12.4879C41.9031 12.6418 41.7646 12.8357 41.6969 13.0696L39.878 12.9219C39.9703 12.491 40.1519 12.1186 40.4227 11.8047C40.6936 11.4877 41.0429 11.2446 41.4707 11.0753C41.9016 10.9029 42.4001 10.8168 42.9664 10.8168C43.3604 10.8168 43.7374 10.8629 44.0975 10.9553C44.4606 11.0476 44.7822 11.1907 45.0623 11.3846C45.3454 11.5785 45.5686 11.8278 45.7317 12.1325C45.8948 12.4341 45.9764 12.7957 45.9764 13.2173V18H44.1113V17.0167H44.0559C43.942 17.2383 43.7897 17.4337 43.5989 17.603C43.4081 17.7692 43.1788 17.9 42.911 17.9954C42.6433 18.0877 42.334 18.1339 41.9831 18.1339ZM42.5463 16.7766C42.8356 16.7766 43.0911 16.7197 43.3127 16.6058C43.5342 16.4889 43.7081 16.3319 43.8343 16.1349C43.9605 15.938 44.0236 15.7148 44.0236 15.4656V14.7131C43.962 14.7531 43.8774 14.79 43.7697 14.8239C43.665 14.8546 43.5466 14.8839 43.4142 14.9116C43.2819 14.9362 43.1495 14.9593 43.0172 14.9808C42.8849 14.9993 42.7648 15.0162 42.6571 15.0316C42.4263 15.0655 42.2247 15.1193 42.0524 15.1932C41.88 15.267 41.7461 15.3671 41.6507 15.4933C41.5553 15.6164 41.5076 15.7702 41.5076 15.9549C41.5076 16.2227 41.6046 16.4273 41.7985 16.5689C41.9954 16.7074 42.2447 16.7766 42.5463 16.7766ZM47.5021 18V10.9091H49.4087V12.1463H49.4826C49.6118 11.7062 49.8288 11.3738 50.1335 11.1491C50.4382 10.9214 50.789 10.8075 51.1861 10.8075C51.2845 10.8075 51.3907 10.8137 51.5046 10.826C51.6185 10.8383 51.7185 10.8552 51.8047 10.8768V12.6218C51.7123 12.5941 51.5846 12.5695 51.4215 12.5479C51.2584 12.5264 51.1091 12.5156 50.9737 12.5156C50.6844 12.5156 50.4259 12.5787 50.1981 12.7049C49.9735 12.828 49.795 13.0004 49.6626 13.2219C49.5334 13.4435 49.4687 13.699 49.4687 13.9883V18H47.5021ZM58.7213 12.9311L56.9209 13.0419C56.8901 12.888 56.8239 12.7495 56.7224 12.6264C56.6208 12.5002 56.4869 12.4002 56.3207 12.3263C56.1576 12.2494 55.9622 12.2109 55.7344 12.2109C55.4298 12.2109 55.1728 12.2756 54.9635 12.4048C54.7542 12.531 54.6496 12.7003 54.6496 12.9126C54.6496 13.0819 54.7173 13.225 54.8527 13.342C54.9881 13.4589 55.2205 13.5528 55.5498 13.6236L56.8332 13.8821C57.5226 14.0237 58.0365 14.2514 58.3751 14.5653C58.7136 14.8793 58.8829 15.2917 58.8829 15.8026C58.8829 16.2673 58.7459 16.6751 58.472 17.0259C58.2012 17.3768 57.8288 17.6507 57.3548 17.8477C56.8839 18.0415 56.3407 18.1385 55.7252 18.1385C54.7865 18.1385 54.0387 17.9431 53.4816 17.5522C52.9276 17.1583 52.6029 16.6228 52.5075 15.9457L54.4418 15.8441C54.5003 16.1303 54.6419 16.3488 54.8665 16.4996C55.0912 16.6474 55.379 16.7212 55.7298 16.7212C56.0745 16.7212 56.3515 16.6551 56.5608 16.5227C56.7731 16.3873 56.8809 16.2134 56.8839 16.0011C56.8809 15.8226 56.8055 15.6764 56.6577 15.5625C56.51 15.4455 56.2823 15.3563 55.9745 15.2947L54.7465 15.0501C54.054 14.9116 53.5385 14.6715 53.2 14.3299C52.8645 13.9883 52.6968 13.5528 52.6968 13.0234C52.6968 12.5679 52.8199 12.1755 53.0661 11.8462C53.3154 11.5169 53.6647 11.263 54.1141 11.0845C54.5665 10.906 55.0958 10.8168 55.7021 10.8168C56.5977 10.8168 57.3025 11.006 57.8165 11.3846C58.3335 11.7631 58.6351 12.2786 58.7213 12.9311Z" fill="#0D1117"/>
<rect x="70.185" width="17" height="26" rx="6" fill="#F0C808"/>
<path d="M78.6584 18.2077C77.8643 18.2047 77.1811 18.0092 76.6087 17.6214C76.0393 17.2337 75.6007 16.672 75.293 15.9364C74.9883 15.2009 74.8375 14.3161 74.8406 13.282C74.8406 12.2509 74.9929 11.3723 75.2976 10.646C75.6053 9.91963 76.0439 9.36719 76.6133 8.98864C77.1857 8.60701 77.8674 8.41619 78.6584 8.41619C79.4493 8.41619 80.1295 8.60701 80.6989 8.98864C81.2713 9.37026 81.7114 9.92424 82.0192 10.6506C82.3269 11.3738 82.4793 12.2509 82.4762 13.282C82.4762 14.3191 82.3223 15.2055 82.0146 15.9411C81.7099 16.6766 81.2728 17.2383 80.7035 17.6261C80.1341 18.0138 79.4524 18.2077 78.6584 18.2077ZM78.6584 16.5504C79.2 16.5504 79.6325 16.2781 79.9556 15.7333C80.2788 15.1886 80.4388 14.3714 80.4357 13.282C80.4357 12.5649 80.3619 11.9678 80.2141 11.4908C80.0695 11.0137 79.8633 10.6552 79.5955 10.4151C79.3308 10.1751 79.0185 10.055 78.6584 10.055C78.1198 10.055 77.6889 10.3243 77.3658 10.8629C77.0426 11.4015 76.8795 12.2079 76.8764 13.282C76.8764 14.0083 76.9487 14.6146 77.0934 15.1009C77.2411 15.584 77.4489 15.9472 77.7166 16.1903C77.9844 16.4304 78.2983 16.5504 78.6584 16.5504Z" fill="#0D1117"/>
<path d="M68.2591 14.0904C67.6326 13.4984 67.6326 12.5016 68.2591 11.9096L72.8249 7.59611C73.7814 6.69242 75.355 7.37055 75.355 8.68646L75.355 17.3135C75.355 18.6295 73.7814 19.3076 72.8249 18.4039L68.2591 14.0904Z" fill="#F0C808"/>
</g>
<defs>
<clipPath id="clip0_318_353">
<rect width="87.58" height="26" fill="white" transform="translate(0.605003)"/>
</clipPath>
<clipPath id="clip1_318_353">
<rect width="14" height="14" fill="white" transform="translate(7.605 6)"/>
</clipPath>
</defs>
</svg>
