<svg width="215" height="26" viewBox="0 0 215 26" fill="none" xmlns="http://www.w3.org/2000/svg">
<path d="M1 12C1 6.34315 1 3.51472 2.75736 1.75736C4.51472 0 7.34315 0 13 0H60V26H13C7.34315 26 4.51472 26 2.75736 24.2426C1 22.4853 1 19.6569 1 14V12Z" fill="#3B3E43"/>
<path d="M8.52983 8.54545L10.815 15.7287H10.9027L13.1925 8.54545H15.4084L12.1491 18H9.57315L6.3093 8.54545H8.52983ZM18.9411 18.1385C18.2117 18.1385 17.5839 17.9908 17.0576 17.6953C16.5344 17.3968 16.1312 16.9751 15.8481 16.4304C15.565 15.8826 15.4234 15.2347 15.4234 14.4869C15.4234 13.7575 15.565 13.1173 15.8481 12.5664C16.1312 12.0155 16.5298 11.5862 17.0438 11.2784C17.5608 10.9706 18.1671 10.8168 18.8627 10.8168C19.3305 10.8168 19.766 10.8922 20.1691 11.043C20.5754 11.1907 20.9293 11.4138 21.2309 11.7124C21.5356 12.0109 21.7726 12.3864 21.9419 12.8388C22.1111 13.2881 22.1958 13.8144 22.1958 14.4176V14.9577H16.2082V13.739H20.3445C20.3445 13.4558 20.283 13.205 20.1599 12.9865C20.0368 12.768 19.866 12.5972 19.6475 12.4741C19.432 12.3479 19.1812 12.2848 18.895 12.2848C18.5964 12.2848 18.3318 12.354 18.1009 12.4925C17.8732 12.628 17.6947 12.8111 17.5654 13.0419C17.4362 13.2696 17.37 13.5236 17.3669 13.8036V14.9624C17.3669 15.3132 17.4316 15.6164 17.5608 15.8718C17.6932 16.1272 17.8794 16.3242 18.1194 16.4627C18.3595 16.6012 18.6441 16.6705 18.9735 16.6705C19.192 16.6705 19.392 16.6397 19.5736 16.5781C19.7552 16.5166 19.9106 16.4242 20.0399 16.3011C20.1691 16.178 20.2676 16.0272 20.3353 15.8487L22.1542 15.9688C22.0619 16.4058 21.8726 16.7874 21.5864 17.1136C21.3032 17.4368 20.937 17.6892 20.4877 17.8707C20.0414 18.0492 19.5259 18.1385 18.9411 18.1385ZM23.4791 18V10.9091H25.3857V12.1463H25.4596C25.5889 11.7062 25.8058 11.3738 26.1105 11.1491C26.4152 10.9214 26.7661 10.8075 27.1631 10.8075C27.2616 10.8075 27.3677 10.8137 27.4816 10.826C27.5955 10.8383 27.6955 10.8552 27.7817 10.8768V12.6218C27.6894 12.5941 27.5616 12.5695 27.3985 12.5479C27.2354 12.5264 27.0861 12.5156 26.9507 12.5156C26.6614 12.5156 26.4029 12.5787 26.1752 12.7049C25.9505 12.828 25.772 13.0004 25.6396 13.2219C25.5104 13.4435 25.4458 13.699 25.4458 13.9883V18H23.4791ZM34.6983 12.9311L32.8979 13.0419C32.8671 12.888 32.801 12.7495 32.6994 12.6264C32.5978 12.5002 32.464 12.4002 32.2978 12.3263C32.1346 12.2494 31.9392 12.2109 31.7115 12.2109C31.4068 12.2109 31.1498 12.2756 30.9405 12.4048C30.7312 12.531 30.6266 12.7003 30.6266 12.9126C30.6266 13.0819 30.6943 13.225 30.8297 13.342C30.9651 13.4589 31.1975 13.5528 31.5268 13.6236L32.8102 13.8821C33.4996 14.0237 34.0136 14.2514 34.3521 14.5653C34.6906 14.8793 34.8599 15.2917 34.8599 15.8026C34.8599 16.2673 34.723 16.6751 34.449 17.0259C34.1782 17.3768 33.8058 17.6507 33.3319 17.8477C32.861 18.0415 32.3178 18.1385 31.7022 18.1385C30.7636 18.1385 30.0157 17.9431 29.4586 17.5522C28.9047 17.1583 28.58 16.6228 28.4846 15.9457L30.4189 15.8441C30.4773 16.1303 30.6189 16.3488 30.8436 16.4996C31.0682 16.6474 31.356 16.7212 31.7069 16.7212C32.0516 16.7212 32.3285 16.6551 32.5378 16.5227C32.7502 16.3873 32.8579 16.2134 32.861 16.0011C32.8579 15.8226 32.7825 15.6764 32.6348 15.5625C32.487 15.4455 32.2593 15.3563 31.9515 15.2947L30.7235 15.0501C30.0311 14.9116 29.5156 14.6715 29.177 14.3299C28.8416 13.9883 28.6738 13.5528 28.6738 13.0234C28.6738 12.5679 28.7969 12.1755 29.0431 11.8462C29.2924 11.5169 29.6417 11.263 30.0911 11.0845C30.5435 10.906 31.0729 10.8168 31.6792 10.8168C32.5748 10.8168 33.2795 11.006 33.7935 11.3846C34.3105 11.7631 34.6122 12.2786 34.6983 12.9311ZM36.0983 18V10.9091H38.0649V18H36.0983ZM37.0862 9.99503C36.7938 9.99503 36.543 9.89808 36.3337 9.70419C36.1275 9.50722 36.0244 9.27178 36.0244 8.99787C36.0244 8.72704 36.1275 8.49467 36.3337 8.30078C36.543 8.10381 36.7938 8.00533 37.0862 8.00533C37.3786 8.00533 37.6279 8.10381 37.8341 8.30078C38.0434 8.49467 38.148 8.72704 38.148 8.99787C38.148 9.27178 38.0434 9.50722 37.8341 9.70419C37.6279 9.89808 37.3786 9.99503 37.0862 9.99503ZM42.8441 18.1385C42.127 18.1385 41.5069 17.9862 40.9837 17.6815C40.4635 17.3737 40.0619 16.9459 39.7788 16.3981C39.4956 15.8472 39.354 15.2086 39.354 14.4822C39.354 13.7498 39.4956 13.1096 39.7788 12.5618C40.0619 12.0109 40.4635 11.5831 40.9837 11.2784C41.5069 10.9706 42.127 10.8168 42.8441 10.8168C43.5612 10.8168 44.1798 10.9706 44.6999 11.2784C45.2231 11.5831 45.6263 12.0109 45.9094 12.5618C46.1926 13.1096 46.3342 13.7498 46.3342 14.4822C46.3342 15.2086 46.1926 15.8472 45.9094 16.3981C45.6263 16.9459 45.2231 17.3737 44.6999 17.6815C44.1798 17.9862 43.5612 18.1385 42.8441 18.1385ZM42.8533 16.6151C43.1796 16.6151 43.4519 16.5227 43.6705 16.3381C43.889 16.1503 44.0536 15.8949 44.1644 15.5717C44.2783 15.2486 44.3352 14.8808 44.3352 14.4684C44.3352 14.056 44.2783 13.6882 44.1644 13.3651C44.0536 13.0419 43.889 12.7865 43.6705 12.5987C43.4519 12.411 43.1796 12.3171 42.8533 12.3171C42.524 12.3171 42.247 12.411 42.0224 12.5987C41.8008 12.7865 41.633 13.0419 41.5192 13.3651C41.4084 13.6882 41.353 14.056 41.353 14.4684C41.353 14.8808 41.4084 15.2486 41.5192 15.5717C41.633 15.8949 41.8008 16.1503 42.0224 16.3381C42.247 16.5227 42.524 16.6151 42.8533 16.6151ZM49.5795 13.9006V18H47.6129V10.9091H49.4872V12.1602H49.5703C49.7273 11.7478 49.9904 11.4215 50.3597 11.1815C50.729 10.9383 51.1768 10.8168 51.7031 10.8168C52.1955 10.8168 52.6249 10.9245 52.9911 11.1399C53.3574 11.3554 53.642 11.6631 53.8452 12.0632C54.0483 12.4602 54.1499 12.9342 54.1499 13.4851V18H52.1832V13.8359C52.1863 13.402 52.0755 13.0634 51.8509 12.8203C51.6262 12.5741 51.3169 12.451 50.9229 12.451C50.6583 12.451 50.4244 12.5079 50.2212 12.6218C50.0212 12.7357 49.8642 12.9019 49.7504 13.1204C49.6396 13.3358 49.5826 13.5959 49.5795 13.9006Z" fill="white"/>
<rect width="41" height="26" transform="translate(60)" fill="#1D2F6F"/>
<path d="M69.8796 8.54545V18H67.8807V10.4428H67.8253L65.6602 11.8001V10.0273L68.0007 8.54545H69.8796ZM72.7868 18.12C72.4822 18.12 72.2206 18.0123 72.002 17.7969C71.7866 17.5784 71.6789 17.3168 71.6789 17.0121C71.6789 16.7105 71.7866 16.4519 72.002 16.2365C72.2206 16.0211 72.4822 15.9134 72.7868 15.9134C73.0823 15.9134 73.3408 16.0211 73.5624 16.2365C73.784 16.4519 73.8948 16.7105 73.8948 17.0121C73.8948 17.2152 73.8425 17.4014 73.7378 17.5707C73.6363 17.7369 73.5024 17.8707 73.3362 17.9723C73.17 18.0708 72.9869 18.12 72.7868 18.12ZM78.8171 18.2077C78.0231 18.2047 77.3398 18.0092 76.7674 17.6214C76.198 17.2337 75.7595 16.672 75.4517 15.9364C75.147 15.2009 74.9962 14.3161 74.9993 13.282C74.9993 12.2509 75.1516 11.3723 75.4563 10.646C75.7641 9.91963 76.2027 9.36719 76.772 8.98864C77.3445 8.60701 78.0262 8.41619 78.8171 8.41619C79.6081 8.41619 80.2882 8.60701 80.8576 8.98864C81.43 9.37026 81.8701 9.92424 82.1779 10.6506C82.4857 11.3738 82.638 12.2509 82.6349 13.282C82.6349 14.3191 82.4811 15.2055 82.1733 15.9411C81.8686 16.6766 81.4316 17.2383 80.8622 17.6261C80.2929 18.0138 79.6112 18.2077 78.8171 18.2077ZM78.8171 16.5504C79.3588 16.5504 79.7912 16.2781 80.1143 15.7333C80.4375 15.1886 80.5975 14.3714 80.5945 13.282C80.5945 12.5649 80.5206 11.9678 80.3729 11.4908C80.2282 11.0137 80.022 10.6552 79.7543 10.4151C79.4896 10.1751 79.1772 10.055 78.8171 10.055C78.2785 10.055 77.8477 10.3243 77.5245 10.8629C77.2013 11.4015 77.0382 12.2079 77.0352 13.282C77.0352 14.0083 77.1075 14.6146 77.2521 15.1009C77.3999 15.584 77.6076 15.9472 77.8754 16.1903C78.1431 16.4304 78.457 16.5504 78.8171 16.5504ZM84.8474 18.12C84.5427 18.12 84.2811 18.0123 84.0626 17.7969C83.8472 17.5784 83.7394 17.3168 83.7394 17.0121C83.7394 16.7105 83.8472 16.4519 84.0626 16.2365C84.2811 16.0211 84.5427 15.9134 84.8474 15.9134C85.1428 15.9134 85.4014 16.0211 85.623 16.2365C85.8445 16.4519 85.9553 16.7105 85.9553 17.0121C85.9553 17.2152 85.903 17.4014 85.7984 17.5707C85.6968 17.7369 85.5629 17.8707 85.3968 17.9723C85.2306 18.0708 85.0474 18.12 84.8474 18.12ZM90.8777 18.2077C90.0836 18.2047 89.4004 18.0092 88.8279 17.6214C88.2586 17.2337 87.82 16.672 87.5123 15.9364C87.2076 15.2009 87.0568 14.3161 87.0598 13.282C87.0598 12.2509 87.2122 11.3723 87.5169 10.646C87.8246 9.91963 88.2632 9.36719 88.8326 8.98864C89.405 8.60701 90.0867 8.41619 90.8777 8.41619C91.6686 8.41619 92.3488 8.60701 92.9181 8.98864C93.4906 9.37026 93.9307 9.92424 94.2385 10.6506C94.5462 11.3738 94.6986 12.2509 94.6955 13.282C94.6955 14.3191 94.5416 15.2055 94.2338 15.9411C93.9292 16.6766 93.4921 17.2383 92.9228 17.6261C92.3534 18.0138 91.6717 18.2077 90.8777 18.2077ZM90.8777 16.5504C91.4193 16.5504 91.8517 16.2781 92.1749 15.7333C92.498 15.1886 92.6581 14.3714 92.655 13.282C92.655 12.5649 92.5811 11.9678 92.4334 11.4908C92.2888 11.0137 92.0826 10.6552 91.8148 10.4151C91.5501 10.1751 91.2377 10.055 90.8777 10.055C90.3391 10.055 89.9082 10.3243 89.585 10.8629C89.2619 11.4015 89.0988 12.2079 89.0957 13.282C89.0957 14.0083 89.168 14.6146 89.3127 15.1009C89.4604 15.584 89.6681 15.9472 89.9359 16.1903C90.2037 16.4304 90.5176 16.5504 90.8777 16.5504Z" fill="white"/>
<path d="M101 0H202C207.657 0 210.485 0 212.243 1.75736C214 3.51472 214 6.34315 214 12V14C214 19.6569 214 22.4853 212.243 24.2426C210.485 26 207.657 26 202 26H101V0Z" fill="#2A3C81"/>
<path d="M110.173 18H106.822V8.54545H110.201C111.152 8.54545 111.971 8.73473 112.657 9.11328C113.343 9.48875 113.871 10.0289 114.24 10.7337C114.613 11.4384 114.799 12.2817 114.799 13.2635C114.799 14.2483 114.613 15.0947 114.24 15.8026C113.871 16.5104 113.34 17.0536 112.648 17.4322C111.958 17.8107 111.134 18 110.173 18ZM108.821 16.2873H110.09C110.681 16.2873 111.178 16.1826 111.581 15.9734C111.988 15.761 112.292 15.4332 112.495 14.9901C112.702 14.5438 112.805 13.9683 112.805 13.2635C112.805 12.5649 112.702 11.994 112.495 11.5508C112.292 11.1076 111.989 10.7814 111.586 10.5721C111.183 10.3628 110.686 10.2582 110.095 10.2582H108.821V16.2873ZM119.474 18.1385C118.745 18.1385 118.117 17.9908 117.591 17.6953C117.068 17.3968 116.664 16.9751 116.381 16.4304C116.098 15.8826 115.957 15.2347 115.957 14.4869C115.957 13.7575 116.098 13.1173 116.381 12.5664C116.664 12.0155 117.063 11.5862 117.577 11.2784C118.094 10.9706 118.7 10.8168 119.396 10.8168C119.864 10.8168 120.299 10.8922 120.702 11.043C121.109 11.1907 121.463 11.4138 121.764 11.7124C122.069 12.0109 122.306 12.3864 122.475 12.8388C122.644 13.2881 122.729 13.8144 122.729 14.4176V14.9577H116.741V13.739H120.878C120.878 13.4558 120.816 13.205 120.693 12.9865C120.57 12.768 120.399 12.5972 120.181 12.4741C119.965 12.3479 119.714 12.2848 119.428 12.2848C119.13 12.2848 118.865 12.354 118.634 12.4925C118.406 12.628 118.228 12.8111 118.099 13.0419C117.969 13.2696 117.903 13.5236 117.9 13.8036V14.9624C117.9 15.3132 117.965 15.6164 118.094 15.8718C118.226 16.1272 118.413 16.3242 118.653 16.4627C118.893 16.6012 119.177 16.6705 119.507 16.6705C119.725 16.6705 119.925 16.6397 120.107 16.5781C120.288 16.5166 120.444 16.4242 120.573 16.3011C120.702 16.178 120.801 16.0272 120.869 15.8487L122.687 15.9688C122.595 16.4058 122.406 16.7874 122.12 17.1136C121.836 17.4368 121.47 17.6892 121.021 17.8707C120.575 18.0492 120.059 18.1385 119.474 18.1385ZM127.216 18.1385C126.49 18.1385 125.865 17.9846 125.342 17.6768C124.822 17.366 124.422 16.9351 124.142 16.3842C123.865 15.8333 123.726 15.1993 123.726 14.4822C123.726 13.7559 123.866 13.1188 124.146 12.571C124.429 12.0201 124.831 11.5908 125.351 11.283C125.871 10.9722 126.49 10.8168 127.207 10.8168C127.826 10.8168 128.367 10.9291 128.832 11.1538C129.297 11.3784 129.664 11.6939 129.935 12.1001C130.206 12.5064 130.355 12.9834 130.383 13.5312H128.527C128.475 13.1773 128.336 12.8926 128.112 12.6772C127.89 12.4587 127.599 12.3494 127.239 12.3494C126.935 12.3494 126.668 12.4325 126.441 12.5987C126.216 12.7618 126.041 13.0004 125.914 13.3143C125.788 13.6282 125.725 14.0083 125.725 14.4545C125.725 14.907 125.787 15.2917 125.91 15.6087C126.036 15.9257 126.213 16.1673 126.441 16.3335C126.668 16.4996 126.935 16.5827 127.239 16.5827C127.464 16.5827 127.666 16.5366 127.844 16.4442C128.026 16.3519 128.175 16.218 128.292 16.0426C128.412 15.8641 128.49 15.6502 128.527 15.4009H130.383C130.352 15.9426 130.205 16.4196 129.94 16.832C129.678 17.2414 129.317 17.5614 128.855 17.7923C128.393 18.0231 127.847 18.1385 127.216 18.1385ZM134.874 18.1385C134.144 18.1385 133.517 17.9908 132.99 17.6953C132.467 17.3968 132.064 16.9751 131.781 16.4304C131.498 15.8826 131.356 15.2347 131.356 14.4869C131.356 13.7575 131.498 13.1173 131.781 12.5664C132.064 12.0155 132.462 11.5862 132.976 11.2784C133.493 10.9706 134.1 10.8168 134.795 10.8168C135.263 10.8168 135.699 10.8922 136.102 11.043C136.508 11.1907 136.862 11.4138 137.164 11.7124C137.468 12.0109 137.705 12.3864 137.874 12.8388C138.044 13.2881 138.128 13.8144 138.128 14.4176V14.9577H132.141V13.739H136.277C136.277 13.4558 136.216 13.205 136.093 12.9865C135.969 12.768 135.799 12.5972 135.58 12.4741C135.365 12.3479 135.114 12.2848 134.828 12.2848C134.529 12.2848 134.264 12.354 134.034 12.4925C133.806 12.628 133.627 12.8111 133.498 13.0419C133.369 13.2696 133.303 13.5236 133.3 13.8036V14.9624C133.3 15.3132 133.364 15.6164 133.493 15.8718C133.626 16.1272 133.812 16.3242 134.052 16.4627C134.292 16.6012 134.577 16.6705 134.906 16.6705C135.125 16.6705 135.325 16.6397 135.506 16.5781C135.688 16.5166 135.843 16.4242 135.972 16.3011C136.102 16.178 136.2 16.0272 136.268 15.8487L138.087 15.9688C137.994 16.4058 137.805 16.7874 137.519 17.1136C137.236 17.4368 136.87 17.6892 136.42 17.8707C135.974 18.0492 135.459 18.1385 134.874 18.1385ZM139.412 18V10.9091H141.286V12.1602H141.369C141.517 11.7447 141.763 11.4169 142.108 11.1768C142.452 10.9368 142.865 10.8168 143.345 10.8168C143.831 10.8168 144.245 10.9383 144.587 11.1815C144.928 11.4215 145.156 11.7478 145.27 12.1602H145.344C145.489 11.7539 145.75 11.4292 146.129 11.1861C146.51 10.9399 146.961 10.8168 147.481 10.8168C148.143 10.8168 148.68 11.0276 149.093 11.4492C149.508 11.8678 149.716 12.4618 149.716 13.2312V18H147.754V13.619C147.754 13.225 147.649 12.9296 147.44 12.7326C147.231 12.5356 146.969 12.4371 146.655 12.4371C146.298 12.4371 146.019 12.551 145.819 12.7788C145.619 13.0034 145.519 13.3004 145.519 13.6697V18H143.613V13.5774C143.613 13.2296 143.513 12.9527 143.313 12.7464C143.116 12.5402 142.856 12.4371 142.532 12.4371C142.314 12.4371 142.117 12.4925 141.942 12.6033C141.769 12.7111 141.632 12.8634 141.531 13.0604C141.429 13.2543 141.378 13.482 141.378 13.7436V18H139.412ZM151.306 18V8.54545H153.273V12.1001H153.333C153.419 11.9093 153.544 11.7154 153.707 11.5185C153.873 11.3184 154.088 11.1522 154.353 11.0199C154.621 10.8845 154.953 10.8168 155.35 10.8168C155.867 10.8168 156.344 10.9522 156.781 11.223C157.218 11.4908 157.568 11.8955 157.829 12.4371C158.091 12.9757 158.222 13.6513 158.222 14.4638C158.222 15.2547 158.094 15.9226 157.838 16.4673C157.586 17.009 157.241 17.4199 156.804 17.6999C156.37 17.9769 155.884 18.1154 155.346 18.1154C154.964 18.1154 154.639 18.0523 154.371 17.9261C154.107 17.8 153.89 17.6415 153.721 17.4506C153.551 17.2567 153.422 17.0613 153.333 16.8643H153.245V18H151.306ZM153.231 14.4545C153.231 14.8762 153.29 15.244 153.407 15.5579C153.524 15.8718 153.693 16.1165 153.914 16.2919C154.136 16.4643 154.405 16.5504 154.722 16.5504C155.042 16.5504 155.313 16.4627 155.535 16.2873C155.756 16.1088 155.924 15.8626 156.038 15.5487C156.155 15.2317 156.213 14.867 156.213 14.4545C156.213 14.0452 156.156 13.6851 156.043 13.3743C155.929 13.0634 155.761 12.8203 155.539 12.6449C155.318 12.4695 155.045 12.3817 154.722 12.3817C154.402 12.3817 154.131 12.4664 153.91 12.6357C153.691 12.8049 153.524 13.045 153.407 13.3558C153.29 13.6667 153.231 14.0329 153.231 14.4545ZM162.765 18.1385C162.036 18.1385 161.408 17.9908 160.882 17.6953C160.359 17.3968 159.955 16.9751 159.672 16.4304C159.389 15.8826 159.248 15.2347 159.248 14.4869C159.248 13.7575 159.389 13.1173 159.672 12.5664C159.955 12.0155 160.354 11.5862 160.868 11.2784C161.385 10.9706 161.991 10.8168 162.687 10.8168C163.155 10.8168 163.59 10.8922 163.993 11.043C164.4 11.1907 164.754 11.4138 165.055 11.7124C165.36 12.0109 165.597 12.3864 165.766 12.8388C165.935 13.2881 166.02 13.8144 166.02 14.4176V14.9577H160.032V13.739H164.169C164.169 13.4558 164.107 13.205 163.984 12.9865C163.861 12.768 163.69 12.5972 163.472 12.4741C163.256 12.3479 163.005 12.2848 162.719 12.2848C162.421 12.2848 162.156 12.354 161.925 12.4925C161.697 12.628 161.519 12.8111 161.39 13.0419C161.26 13.2696 161.194 13.5236 161.191 13.8036V14.9624C161.191 15.3132 161.256 15.6164 161.385 15.8718C161.517 16.1272 161.704 16.3242 161.944 16.4627C162.184 16.6012 162.468 16.6705 162.798 16.6705C163.016 16.6705 163.216 16.6397 163.398 16.5781C163.579 16.5166 163.735 16.4242 163.864 16.3011C163.993 16.178 164.092 16.0272 164.16 15.8487L165.978 15.9688C165.886 16.4058 165.697 16.7874 165.411 17.1136C165.127 17.4368 164.761 17.6892 164.312 17.8707C163.866 18.0492 163.35 18.1385 162.765 18.1385ZM167.303 18V10.9091H169.21V12.1463H169.284C169.413 11.7062 169.63 11.3738 169.935 11.1491C170.239 10.9214 170.59 10.8075 170.987 10.8075C171.086 10.8075 171.192 10.8137 171.306 10.826C171.42 10.8383 171.52 10.8552 171.606 10.8768V12.6218C171.514 12.5941 171.386 12.5695 171.223 12.5479C171.06 12.5264 170.91 12.5156 170.775 12.5156C170.486 12.5156 170.227 12.5787 169.999 12.7049C169.775 12.828 169.596 13.0004 169.464 13.2219C169.335 13.4435 169.27 13.699 169.27 13.9883V18H167.303ZM175.613 18V16.5597L178.978 13.4435C179.265 13.1665 179.505 12.9173 179.699 12.6957C179.896 12.4741 180.045 12.2571 180.146 12.0447C180.248 11.8293 180.299 11.5969 180.299 11.3477C180.299 11.0707 180.236 10.8321 180.109 10.6321C179.983 10.429 179.811 10.2736 179.592 10.1658C179.374 10.055 179.126 9.99964 178.849 9.99964C178.56 9.99964 178.307 10.0581 178.092 10.1751C177.877 10.292 177.71 10.4598 177.593 10.6783C177.477 10.8968 177.418 11.1568 177.418 11.4585H175.521C175.521 10.8398 175.661 10.3028 175.941 9.8473C176.221 9.39181 176.613 9.03942 177.118 8.79013C177.623 8.54084 178.204 8.41619 178.863 8.41619C179.54 8.41619 180.129 8.53622 180.631 8.77628C181.136 9.01326 181.528 9.34257 181.808 9.7642C182.088 10.1858 182.228 10.669 182.228 11.2138C182.228 11.5708 182.158 11.9232 182.016 12.271C181.878 12.6187 181.63 13.005 181.273 13.4297C180.916 13.8513 180.413 14.3576 179.763 14.9485L178.383 16.3011V16.3658H182.353V18H175.613ZM187.509 18.2077C186.714 18.2047 186.031 18.0092 185.459 17.6214C184.889 17.2337 184.451 16.672 184.143 15.9364C183.838 15.2009 183.688 14.3161 183.691 13.282C183.691 12.2509 183.843 11.3723 184.148 10.646C184.455 9.91963 184.894 9.36719 185.463 8.98864C186.036 8.60701 186.718 8.41619 187.509 8.41619C188.299 8.41619 188.98 8.60701 189.549 8.98864C190.121 9.37026 190.562 9.92424 190.869 10.6506C191.177 11.3738 191.329 12.2509 191.326 13.282C191.326 14.3191 191.172 15.2055 190.865 15.9411C190.56 16.6766 190.123 17.2383 189.554 17.6261C188.984 18.0138 188.303 18.2077 187.509 18.2077ZM187.509 16.5504C188.05 16.5504 188.483 16.2781 188.806 15.7333C189.129 15.1886 189.289 14.3714 189.286 13.282C189.286 12.5649 189.212 11.9678 189.064 11.4908C188.92 11.0137 188.713 10.6552 188.446 10.4151C188.181 10.1751 187.869 10.055 187.509 10.055C186.97 10.055 186.539 10.3243 186.216 10.8629C185.893 11.4015 185.73 12.2079 185.727 13.282C185.727 14.0083 185.799 14.6146 185.944 15.1009C186.091 15.584 186.299 15.9472 186.567 16.1903C186.835 16.4304 187.148 16.5504 187.509 16.5504ZM192.752 18V16.5597L196.117 13.4435C196.403 13.1665 196.643 12.9173 196.837 12.6957C197.034 12.4741 197.184 12.2571 197.285 12.0447C197.387 11.8293 197.437 11.5969 197.437 11.3477C197.437 11.0707 197.374 10.8321 197.248 10.6321C197.122 10.429 196.95 10.2736 196.731 10.1658C196.513 10.055 196.265 9.99964 195.988 9.99964C195.699 9.99964 195.446 10.0581 195.231 10.1751C195.015 10.292 194.849 10.4598 194.732 10.6783C194.615 10.8968 194.557 11.1568 194.557 11.4585H192.659C192.659 10.8398 192.799 10.3028 193.079 9.8473C193.36 9.39181 193.752 9.03942 194.257 8.79013C194.761 8.54084 195.343 8.41619 196.002 8.41619C196.679 8.41619 197.268 8.53622 197.77 8.77628C198.275 9.01326 198.667 9.34257 198.947 9.7642C199.227 10.1858 199.367 10.669 199.367 11.2138C199.367 11.5708 199.296 11.9232 199.155 12.271C199.016 12.6187 198.768 13.005 198.411 13.4297C198.054 13.8513 197.551 14.3576 196.902 14.9485L195.522 16.3011V16.3658H199.492V18H192.752ZM204.435 18.1293C203.745 18.1293 203.131 18.0108 202.593 17.7738C202.057 17.5337 201.634 17.2044 201.323 16.7859C201.016 16.3642 200.857 15.878 200.848 15.3271H202.861C202.873 15.5579 202.948 15.761 203.087 15.9364C203.228 16.1088 203.416 16.2427 203.65 16.3381C203.884 16.4335 204.147 16.4812 204.439 16.4812C204.744 16.4812 205.013 16.4273 205.247 16.3196C205.481 16.2119 205.664 16.0626 205.797 15.8718C205.929 15.681 205.995 15.4609 205.995 15.2116C205.995 14.9593 205.924 14.7362 205.783 14.5423C205.644 14.3453 205.444 14.1914 205.183 14.0806C204.924 13.9698 204.616 13.9144 204.259 13.9144H203.378V12.4464H204.259C204.561 12.4464 204.827 12.3941 205.058 12.2894C205.292 12.1848 205.474 12.0401 205.603 11.8555C205.732 11.6677 205.797 11.4492 205.797 11.1999C205.797 10.9629 205.74 10.7552 205.626 10.5767C205.515 10.3951 205.358 10.2536 205.155 10.152C204.955 10.0504 204.721 9.99964 204.453 9.99964C204.182 9.99964 203.935 10.0489 203.71 10.1474C203.485 10.2428 203.305 10.3797 203.17 10.5582C203.035 10.7367 202.962 10.946 202.953 11.1861H201.037C201.046 10.6413 201.202 10.1612 201.503 9.74574C201.805 9.33026 202.211 9.00556 202.722 8.77166C203.236 8.53468 203.816 8.41619 204.463 8.41619C205.115 8.41619 205.686 8.53468 206.175 8.77166C206.665 9.00864 207.045 9.32872 207.316 9.73189C207.589 10.132 207.725 10.5813 207.722 11.0799C207.725 11.6093 207.56 12.0509 207.228 12.4048C206.898 12.7588 206.469 12.9834 205.94 13.0788V13.1527C206.635 13.242 207.165 13.4835 207.528 13.8775C207.894 14.2683 208.076 14.7577 208.073 15.3455C208.076 15.8841 207.92 16.3627 207.606 16.7812C207.296 17.1998 206.866 17.5291 206.318 17.7692C205.771 18.0092 205.143 18.1293 204.435 18.1293Z" fill="white"/>
</svg>
