<svg width="158" height="40" viewBox="0 0 158 40" fill="none" xmlns="http://www.w3.org/2000/svg">
<rect width="158" height="40" rx="8" fill="#FFDD00"/>
<path fill-rule="evenodd" clip-rule="evenodd" d="M19.0086 13.4932C18.4103 13.59 18.0291 13.717 17.8655 13.8191C17.7655 13.8815 17.6657 13.9779 17.5296 14.2133C17.3826 14.4676 17.2303 14.8158 16.9951 15.3579L16.8928 15.5938H25.1072L25.0048 15.3579C24.7697 14.8158 24.6174 14.4676 24.4704 14.2133C24.3343 13.9779 24.2345 13.8815 24.1345 13.8191C23.9382 13.6965 23.5316 13.5645 22.9239 13.4712C22.3405 13.3817 21.6516 13.3392 20.9563 13.3441C20.2611 13.349 19.5785 13.401 19.0086 13.4932ZM26.7422 15.5938L26.3651 14.7244C26.1503 14.2292 25.9644 13.8006 25.7689 13.4624C25.5576 13.0971 25.3051 12.7816 24.9289 12.5468C24.4639 12.2564 23.8058 12.089 23.1514 11.9886C22.4726 11.8844 21.7018 11.8389 20.9457 11.8442C20.1893 11.8495 19.4286 11.9058 18.7691 12.0124C18.1379 12.1145 17.5035 12.2768 17.0711 12.5468C16.6948 12.7816 16.4424 13.0971 16.2311 13.4624C16.0356 13.8006 15.8497 14.2292 15.6349 14.7244C15.6296 14.7366 15.6243 14.7488 15.619 14.761L15.2578 15.5938H15C14.5858 15.5938 14.25 15.9295 14.25 16.3438C14.25 16.758 14.5858 17.0938 15 17.0938H15.7328C15.744 17.094 15.7553 17.094 15.7665 17.0938H26.2335C26.2448 17.094 26.256 17.094 26.2673 17.0938H27C27.4142 17.0938 27.75 16.758 27.75 16.3438C27.75 15.9295 27.4142 15.5938 27 15.5938H26.7422Z" fill="#0D0D0E"/>
<path fill-rule="evenodd" clip-rule="evenodd" d="M25.1654 25.8794C25.2807 25.455 25.3706 24.9237 25.4813 24.2693L26.9173 15.7812H15.0859L16.5219 24.2693C16.6326 24.9237 16.7225 25.455 16.8378 25.8794C16.9576 26.3199 17.1171 26.6961 17.3966 27.0184C17.7747 27.4547 18.3649 27.73 18.9706 27.8995C19.5911 28.0731 20.3021 28.1562 21.0016 28.1562C21.7011 28.1562 22.412 28.0731 23.0326 27.8995C23.6384 27.73 24.2285 27.4547 24.6066 27.0184C24.8861 26.6961 25.0457 26.3199 25.1654 25.8794ZM20.0635 21.9688C20.0635 21.1203 20.5939 20.6562 21.001 20.6562C21.4081 20.6562 21.9385 21.1203 21.9385 21.9688C21.9385 22.8172 21.4081 23.2812 21.001 23.2812C20.5939 23.2812 20.0635 22.8172 20.0635 21.9688ZM21.001 19.5312C19.7513 19.5312 18.9385 20.7462 18.9385 21.9688C18.9385 23.1913 19.7513 24.4062 21.001 24.4062C22.2507 24.4062 23.0635 23.1913 23.0635 21.9688C23.0635 20.7462 22.2507 19.5312 21.001 19.5312Z" fill="#0D0D0E"/>
<path d="M37.1486 25V14.0909H41.5165C42.319 14.0909 42.9884 14.2099 43.5246 14.4478C44.0609 14.6857 44.4639 15.016 44.7338 15.4386C45.0037 15.8576 45.1386 16.3406 45.1386 16.8874C45.1386 17.3136 45.0534 17.6882 44.883 18.0114C44.7125 18.331 44.4781 18.5937 44.1798 18.7997C43.8851 19.0021 43.5477 19.146 43.1678 19.2312V19.3377C43.5832 19.3555 43.9721 19.4727 44.3343 19.6893C44.7001 19.9059 44.9966 20.2095 45.2239 20.6001C45.4511 20.9872 45.5648 21.4489 45.5648 21.9851C45.5648 22.5639 45.421 23.0806 45.1333 23.5352C44.8492 23.9862 44.4284 24.343 43.8709 24.6058C43.3134 24.8686 42.6262 25 41.8094 25H37.1486ZM39.455 23.1143H41.3354C41.9781 23.1143 42.4469 22.9918 42.7416 22.7468C43.0364 22.4982 43.1837 22.168 43.1837 21.756C43.1837 21.4542 43.1109 21.1879 42.9653 20.957C42.8197 20.7262 42.612 20.5451 42.3421 20.4137C42.0758 20.2823 41.758 20.2166 41.3886 20.2166H39.455V23.1143ZM39.455 18.6559H41.1649C41.481 18.6559 41.7615 18.6009 42.0065 18.4908C42.2551 18.3771 42.4504 18.2173 42.5925 18.0114C42.7381 17.8054 42.8109 17.5586 42.8109 17.271C42.8109 16.8768 42.6706 16.5589 42.3901 16.3175C42.1131 16.076 41.7189 15.9553 41.2075 15.9553H39.455V18.6559ZM52.0898 21.5163V16.8182H54.3589V25H52.1803V23.5138H52.0951C51.9104 23.9933 51.6033 24.3786 51.1736 24.6697C50.7474 24.9609 50.2272 25.1065 49.6128 25.1065C49.066 25.1065 48.5848 24.9822 48.1693 24.7337C47.7538 24.4851 47.4289 24.1317 47.1945 23.6737C46.9637 23.2156 46.8465 22.6669 46.843 22.0277V16.8182H49.1121V21.6229C49.1157 22.1058 49.2453 22.4876 49.501 22.7681C49.7567 23.0487 50.0994 23.1889 50.529 23.1889C50.8025 23.1889 51.0582 23.1268 51.2961 23.0025C51.534 22.8746 51.7258 22.6864 51.8714 22.4379C52.0205 22.1893 52.0933 21.8821 52.0898 21.5163ZM57.3949 28.0682C57.1073 28.0682 56.8374 28.0451 56.5853 27.9989C56.3367 27.9563 56.1307 27.9013 55.9674 27.8338L56.4787 26.1399C56.7451 26.2216 56.9848 26.266 57.1978 26.2731C57.4145 26.2802 57.6009 26.2305 57.7572 26.1239C57.917 26.0174 58.0466 25.8363 58.146 25.5806L58.2792 25.2344L55.3442 16.8182H57.7305L59.4244 22.8267H59.5096L61.2195 16.8182H63.6219L60.4418 25.8842C60.2891 26.3246 60.0814 26.7081 59.8186 27.0348C59.5594 27.3651 59.2309 27.619 58.8331 27.7965C58.4354 27.9776 57.956 28.0682 57.3949 28.0682ZM73.1416 21.5163V16.8182H75.4107V25H73.2321V23.5138H73.1469C72.9622 23.9933 72.6551 24.3786 72.2254 24.6697C71.7992 24.9609 71.279 25.1065 70.6646 25.1065C70.1178 25.1065 69.6366 24.9822 69.2211 24.7337C68.8056 24.4851 68.4807 24.1317 68.2463 23.6737C68.0155 23.2156 67.8983 22.6669 67.8948 22.0277V16.8182H70.1639V21.6229C70.1675 22.1058 70.2971 22.4876 70.5528 22.7681C70.8085 23.0487 71.1511 23.1889 71.5808 23.1889C71.8543 23.1889 72.11 23.1268 72.3479 23.0025C72.5858 22.8746 72.7776 22.6864 72.9232 22.4379C73.0723 22.1893 73.1451 21.8821 73.1416 21.5163ZM83.8533 19.1513L81.7759 19.2791C81.7404 19.1016 81.6641 18.9418 81.5469 18.7997C81.4297 18.6541 81.2752 18.5387 81.0835 18.4535C80.8952 18.3647 80.6697 18.3203 80.407 18.3203C80.0554 18.3203 79.7589 18.3949 79.5174 18.544C79.2759 18.6896 79.1552 18.8849 79.1552 19.13C79.1552 19.3253 79.2333 19.4904 79.3896 19.6254C79.5458 19.7603 79.8139 19.8686 80.1939 19.9503L81.6747 20.2486C82.4702 20.4119 83.0632 20.6747 83.4538 21.0369C83.8445 21.3991 84.0398 21.875 84.0398 22.4645C84.0398 23.0007 83.8817 23.4712 83.5657 23.8761C83.2532 24.2809 82.8235 24.5969 82.2766 24.8242C81.7333 25.0479 81.1065 25.1598 80.3963 25.1598C79.3132 25.1598 78.4503 24.9343 77.8075 24.4833C77.1683 24.0288 76.7937 23.4109 76.6836 22.6296L78.9155 22.5124C78.983 22.8427 79.1463 23.0948 79.4055 23.2688C79.6648 23.4393 79.9968 23.5245 80.4016 23.5245C80.7994 23.5245 81.119 23.4482 81.3604 23.2955C81.6055 23.1392 81.7298 22.9386 81.7333 22.6935C81.7298 22.4876 81.6428 22.3189 81.4723 22.1875C81.3018 22.0526 81.0391 21.9496 80.6839 21.8786L79.267 21.5962C78.468 21.4364 77.8732 21.1594 77.4826 20.7653C77.0955 20.3711 76.902 19.8686 76.902 19.2578C76.902 18.7322 77.044 18.2795 77.3281 17.8995C77.6158 17.5195 78.0188 17.2266 78.5373 17.0206C79.0593 16.8146 79.6701 16.7116 80.3697 16.7116C81.4031 16.7116 82.2163 16.93 82.8093 17.3668C83.4059 17.8036 83.7539 18.3984 83.8533 19.1513ZM90.9134 25.1545C90.3914 25.1545 89.9262 25.0639 89.5178 24.8828C89.1095 24.6982 88.7863 24.4265 88.5484 24.0678C88.314 23.7056 88.1968 23.2546 88.1968 22.7148C88.1968 22.2603 88.2803 21.8786 88.4472 21.5696C88.6141 21.2607 88.8414 21.0121 89.129 20.8239C89.4166 20.6357 89.7433 20.4936 90.1091 20.3977C90.4784 20.3018 90.8655 20.2344 91.2703 20.1953C91.7462 20.1456 92.1297 20.0994 92.4209 20.0568C92.7121 20.0107 92.9234 19.9432 93.0548 19.8544C93.1862 19.7656 93.2519 19.6342 93.2519 19.4602V19.4283C93.2519 19.0909 93.1453 18.8299 92.9323 18.6452C92.7227 18.4606 92.4244 18.3683 92.0374 18.3683C91.629 18.3683 91.3041 18.4588 91.0626 18.6399C90.8211 18.8175 90.6613 19.0412 90.5832 19.3111L88.4845 19.1406C88.591 18.6435 88.8005 18.2138 89.113 17.8516C89.4255 17.4858 89.8286 17.2053 90.3222 17.0099C90.8193 16.8111 91.3946 16.7116 92.048 16.7116C92.5026 16.7116 92.9376 16.7649 93.3531 16.8714C93.7721 16.978 94.1432 17.1431 94.4664 17.3668C94.7931 17.5906 95.0505 17.8782 95.2387 18.2298C95.4269 18.5778 95.521 18.995 95.521 19.4815V25H93.3691V23.8654H93.3051C93.1737 24.1211 92.998 24.3466 92.7778 24.5419C92.5576 24.7337 92.2931 24.8846 91.9841 24.9947C91.6752 25.1012 91.3183 25.1545 90.9134 25.1545ZM91.5633 23.5884C91.8971 23.5884 92.1919 23.5227 92.4475 23.3913C92.7032 23.2564 92.9039 23.0753 93.0494 22.848C93.195 22.6207 93.2678 22.3633 93.2678 22.0756V21.2074C93.1968 21.2536 93.0992 21.2962 92.9749 21.3352C92.8541 21.3707 92.7174 21.4045 92.5647 21.4364C92.412 21.4648 92.2593 21.4915 92.1066 21.5163C91.9539 21.5376 91.8154 21.5572 91.6911 21.5749C91.4248 21.614 91.1922 21.6761 90.9933 21.7614C90.7945 21.8466 90.64 21.962 90.5299 22.1076C90.4198 22.2496 90.3648 22.4272 90.3648 22.6403C90.3648 22.9492 90.4767 23.1854 90.7004 23.3487C90.9276 23.5085 91.2153 23.5884 91.5633 23.5884ZM104.09 25.1598C103.252 25.1598 102.531 24.9822 101.927 24.6271C101.327 24.2685 100.865 23.7713 100.542 23.1357C100.223 22.5 100.063 21.7685 100.063 20.9411C100.063 20.103 100.225 19.3679 100.548 18.7358C100.874 18.1001 101.338 17.6048 101.938 17.2496C102.538 16.891 103.252 16.7116 104.079 16.7116C104.793 16.7116 105.418 16.8413 105.954 17.1005C106.49 17.3597 106.915 17.7237 107.227 18.1925C107.54 18.6612 107.712 19.2116 107.744 19.8438H105.603C105.542 19.4354 105.383 19.1069 105.123 18.8583C104.868 18.6062 104.532 18.4801 104.117 18.4801C103.765 18.4801 103.458 18.576 103.195 18.7678C102.936 18.956 102.733 19.2312 102.588 19.5934C102.442 19.9556 102.369 20.3942 102.369 20.9091C102.369 21.4311 102.44 21.875 102.582 22.2408C102.728 22.6065 102.932 22.8853 103.195 23.0771C103.458 23.2688 103.765 23.3647 104.117 23.3647C104.376 23.3647 104.608 23.3114 104.814 23.2049C105.024 23.0984 105.196 22.9439 105.331 22.7415C105.47 22.5355 105.56 22.2887 105.603 22.0011H107.744C107.709 22.6261 107.538 23.1765 107.233 23.6523C106.931 24.1246 106.514 24.494 105.981 24.7603C105.448 25.0266 104.818 25.1598 104.09 25.1598ZM112.714 25.1598C111.886 25.1598 111.171 24.984 110.567 24.6325C109.967 24.2773 109.503 23.7837 109.177 23.1516C108.85 22.516 108.687 21.7791 108.687 20.9411C108.687 20.0959 108.85 19.3572 109.177 18.7251C109.503 18.0895 109.967 17.5959 110.567 17.2443C111.171 16.8892 111.886 16.7116 112.714 16.7116C113.541 16.7116 114.255 16.8892 114.855 17.2443C115.459 17.5959 115.924 18.0895 116.251 18.7251C116.577 19.3572 116.741 20.0959 116.741 20.9411C116.741 21.7791 116.577 22.516 116.251 23.1516C115.924 23.7837 115.459 24.2773 114.855 24.6325C114.255 24.984 113.541 25.1598 112.714 25.1598ZM112.724 23.402C113.101 23.402 113.415 23.2955 113.667 23.0824C113.919 22.8658 114.109 22.571 114.237 22.1982C114.368 21.8253 114.434 21.4009 114.434 20.9251C114.434 20.4492 114.368 20.0249 114.237 19.652C114.109 19.2791 113.919 18.9844 113.667 18.7678C113.415 18.5511 113.101 18.4428 112.724 18.4428C112.344 18.4428 112.025 18.5511 111.765 18.7678C111.51 18.9844 111.316 19.2791 111.185 19.652C111.057 20.0249 110.993 20.4492 110.993 20.9251C110.993 21.4009 111.057 21.8253 111.185 22.1982C111.316 22.571 111.51 22.8658 111.765 23.0824C112.025 23.2955 112.344 23.402 112.724 23.402ZM122.436 16.8182V18.5227H117.386V16.8182H122.436ZM118.542 25V16.2269C118.542 15.6339 118.658 15.142 118.888 14.7514C119.123 14.3608 119.442 14.0678 119.847 13.8725C120.252 13.6772 120.712 13.5795 121.227 13.5795C121.575 13.5795 121.893 13.6062 122.18 13.6594C122.471 13.7127 122.688 13.7607 122.83 13.8033L122.425 15.5078C122.337 15.4794 122.226 15.4528 122.095 15.4279C121.967 15.4031 121.836 15.3906 121.701 15.3906C121.367 15.3906 121.134 15.4688 121.003 15.625C120.872 15.7777 120.806 15.9925 120.806 16.2695V25H118.542ZM128.042 16.8182V18.5227H122.992V16.8182H128.042ZM124.148 25V16.2269C124.148 15.6339 124.264 15.142 124.495 14.7514C124.729 14.3608 125.048 14.0678 125.453 13.8725C125.858 13.6772 126.318 13.5795 126.833 13.5795C127.181 13.5795 127.499 13.6062 127.786 13.6594C128.078 13.7127 128.294 13.7607 128.436 13.8033L128.031 15.5078C127.943 15.4794 127.833 15.4528 127.701 15.4279C127.573 15.4031 127.442 15.3906 127.307 15.3906C126.973 15.3906 126.741 15.4688 126.609 15.625C126.478 15.7777 126.412 15.9925 126.412 16.2695V25H124.148ZM132.684 25.1598C131.842 25.1598 131.118 24.9893 130.511 24.6484C129.907 24.304 129.442 23.8175 129.115 23.1889C128.789 22.5568 128.625 21.8093 128.625 20.9464C128.625 20.1048 128.789 19.3661 129.115 18.7305C129.442 18.0948 129.902 17.5994 130.495 17.2443C131.091 16.8892 131.791 16.7116 132.594 16.7116C133.133 16.7116 133.636 16.7987 134.101 16.9727C134.57 17.1431 134.978 17.4006 135.326 17.745C135.678 18.0895 135.951 18.5227 136.146 19.0447C136.342 19.5632 136.439 20.1705 136.439 20.8665V21.4897H129.531V20.0835H134.303C134.303 19.7567 134.232 19.4673 134.09 19.2152C133.948 18.9631 133.751 18.766 133.499 18.6239C133.251 18.4783 132.961 18.4055 132.631 18.4055C132.286 18.4055 131.981 18.4854 131.715 18.6452C131.452 18.8015 131.246 19.0128 131.097 19.2791C130.948 19.5419 130.871 19.8349 130.868 20.158V21.495C130.868 21.8999 130.942 22.2496 131.091 22.5444C131.244 22.8391 131.459 23.0664 131.736 23.2262C132.013 23.386 132.341 23.4659 132.721 23.4659C132.974 23.4659 133.204 23.4304 133.414 23.3594C133.623 23.2884 133.803 23.1818 133.952 23.0398C134.101 22.8977 134.215 22.7237 134.293 22.5178L136.392 22.6562C136.285 23.1605 136.067 23.6009 135.736 23.9773C135.41 24.3501 134.987 24.6413 134.469 24.8509C133.954 25.0568 133.359 25.1598 132.684 25.1598ZM141.469 25.1598C140.627 25.1598 139.903 24.9893 139.296 24.6484C138.692 24.304 138.227 23.8175 137.9 23.1889C137.573 22.5568 137.41 21.8093 137.41 20.9464C137.41 20.1048 137.573 19.3661 137.9 18.7305C138.227 18.0948 138.687 17.5994 139.28 17.2443C139.876 16.8892 140.576 16.7116 141.378 16.7116C141.918 16.7116 142.421 16.7987 142.886 16.9727C143.355 17.1431 143.763 17.4006 144.111 17.745C144.463 18.0895 144.736 18.5227 144.931 19.0447C145.127 19.5632 145.224 20.1705 145.224 20.8665V21.4897H138.316V20.0835H143.088C143.088 19.7567 143.017 19.4673 142.875 19.2152C142.733 18.9631 142.536 18.766 142.284 18.6239C142.035 18.4783 141.746 18.4055 141.416 18.4055C141.071 18.4055 140.766 18.4854 140.5 18.6452C140.237 18.8015 140.031 19.0128 139.882 19.2791C139.732 19.5419 139.656 19.8349 139.653 20.158V21.495C139.653 21.8999 139.727 22.2496 139.876 22.5444C140.029 22.8391 140.244 23.0664 140.521 23.2262C140.798 23.386 141.126 23.4659 141.506 23.4659C141.758 23.4659 141.989 23.4304 142.199 23.3594C142.408 23.2884 142.588 23.1818 142.737 23.0398C142.886 22.8977 143 22.7237 143.078 22.5178L145.176 22.6562C145.07 23.1605 144.851 23.6009 144.521 23.9773C144.194 24.3501 143.772 24.6413 143.253 24.8509C142.738 25.0568 142.144 25.1598 141.469 25.1598Z" fill="#0D0D0E"/>
</svg>
