<svg width="180" height="40" viewBox="0 0 180 40" fill="none" xmlns="http://www.w3.org/2000/svg">
<rect width="180" height="40" rx="8" fill="#5D6AF2"/>
<path fill-rule="evenodd" clip-rule="evenodd" d="M18.8417 14.2923C18.8417 14.2923 19.8431 14.0896 21 14.0896C22.1569 14.0896 23.1583 14.2923 23.1583 14.2923L23.5588 13.4929C23.6433 13.3241 23.8295 13.2256 24.0195 13.2552C25.9511 13.5567 27.7513 14.5565 27.7513 14.5565C27.7513 14.5565 30 16.7339 30 24.4135C30.0009 24.5518 29.9344 24.6859 29.8193 24.7664C28.3428 25.7982 26.5496 26.4759 25.8261 26.726C25.6344 26.7922 25.4244 26.7175 25.3151 26.5501L24.8088 25.7746C24.6702 25.5624 24.7422 25.28 24.9665 25.156L26.0246 24.5711L25.5966 24.2443C25.5966 24.2443 23.8846 25.2473 21 25.2473C18.1153 25.2473 16.4034 24.2443 16.4034 24.2443L15.9755 24.5711L17.0334 25.156C17.2578 25.28 17.3298 25.5624 17.1912 25.7746L16.6849 26.5501C16.5756 26.7175 16.3656 26.7922 16.1739 26.726C15.4504 26.4759 13.6572 25.7982 12.1807 24.7664C12.0656 24.6859 11.9991 24.5518 12 24.4135C12 16.7339 14.2502 14.5565 14.2502 14.5565C14.2502 14.5565 16.0503 13.5565 17.9805 13.2552C18.1706 13.2256 18.3566 13.3241 18.4412 13.4929L18.8417 14.2923ZM25.7261 20.6532C25.7261 21.6153 25.0209 22.3952 24.151 22.3952C23.2811 22.3952 22.5758 21.6153 22.5758 20.6532C22.5758 19.6912 23.2811 18.9113 24.151 18.9113C25.0209 18.9113 25.7261 19.6912 25.7261 20.6532ZM17.8505 22.3952C18.7204 22.3952 19.4256 21.6153 19.4256 20.6532C19.4256 19.6912 18.7204 18.9113 17.8505 18.9113C16.9806 18.9113 16.2753 19.6912 16.2753 20.6532C16.2753 21.6153 16.9806 22.3952 17.8505 22.3952Z" fill="#F1EFEF"/>
<path d="M41.5511 14.0909H43.831V21.6974C43.831 22.4006 43.6729 23.0114 43.3569 23.5298C43.0444 24.0483 42.6094 24.4478 42.0518 24.7283C41.4943 25.0089 40.8462 25.1491 40.1076 25.1491C39.4506 25.1491 38.854 25.0337 38.3178 24.8029C37.7851 24.5685 37.3626 24.2134 37.0501 23.7376C36.7376 23.2582 36.5831 22.6562 36.5866 21.9318H38.8824C38.8896 22.2195 38.9481 22.4663 39.0582 22.6722C39.1719 22.8746 39.3263 23.0309 39.5217 23.141C39.7205 23.2475 39.9549 23.3008 40.2248 23.3008C40.5089 23.3008 40.7486 23.2404 40.9439 23.1197C41.1427 22.9954 41.2937 22.8143 41.3967 22.5763C41.4996 22.3384 41.5511 22.0455 41.5511 21.6974V14.0909ZM49.212 25.1598C48.3846 25.1598 47.6691 24.984 47.0654 24.6325C46.4652 24.2773 46.0018 23.7837 45.6751 23.1516C45.3484 22.516 45.185 21.7791 45.185 20.9411C45.185 20.0959 45.3484 19.3572 45.6751 18.7251C46.0018 18.0895 46.4652 17.5959 47.0654 17.2443C47.6691 16.8892 48.3846 16.7116 49.212 16.7116C50.0395 16.7116 50.7532 16.8892 51.3534 17.2443C51.9571 17.5959 52.4223 18.0895 52.749 18.7251C53.0757 19.3572 53.239 20.0959 53.239 20.9411C53.239 21.7791 53.0757 22.516 52.749 23.1516C52.4223 23.7837 51.9571 24.2773 51.3534 24.6325C50.7532 24.984 50.0395 25.1598 49.212 25.1598ZM49.2227 23.402C49.5991 23.402 49.9134 23.2955 50.1655 23.0824C50.4176 22.8658 50.6076 22.571 50.7355 22.1982C50.8669 21.8253 50.9326 21.4009 50.9326 20.9251C50.9326 20.4492 50.8669 20.0249 50.7355 19.652C50.6076 19.2791 50.4176 18.9844 50.1655 18.7678C49.9134 18.5511 49.5991 18.4428 49.2227 18.4428C48.8427 18.4428 48.5231 18.5511 48.2639 18.7678C48.0082 18.9844 47.8147 19.2791 47.6833 19.652C47.5554 20.0249 47.4915 20.4492 47.4915 20.9251C47.4915 21.4009 47.5554 21.8253 47.6833 22.1982C47.8147 22.571 48.0082 22.8658 48.2639 23.0824C48.5231 23.2955 48.8427 23.402 49.2227 23.402ZM54.5345 25V16.8182H56.8037V25H54.5345ZM55.6744 15.7635C55.3371 15.7635 55.0477 15.6516 54.8062 15.4279C54.5683 15.2006 54.4493 14.929 54.4493 14.6129C54.4493 14.3004 54.5683 14.0323 54.8062 13.8086C55.0477 13.5813 55.3371 13.4677 55.6744 13.4677C56.0118 13.4677 56.2994 13.5813 56.5374 13.8086C56.7788 14.0323 56.8996 14.3004 56.8996 14.6129C56.8996 14.929 56.7788 15.2006 56.5374 15.4279C56.2994 15.6516 56.0118 15.7635 55.6744 15.7635ZM60.7106 20.2699V25H58.4414V16.8182H60.6041V18.2617H60.7C60.8811 17.7859 61.1847 17.4094 61.6108 17.1325C62.037 16.8519 62.5537 16.7116 63.1609 16.7116C63.7291 16.7116 64.2245 16.8359 64.647 17.0845C65.0696 17.3331 65.3981 17.6882 65.6325 18.1499C65.8669 18.608 65.9841 19.1548 65.9841 19.7905V25H63.7149V20.1953C63.7184 19.6946 63.5906 19.304 63.3314 19.0234C63.0721 18.7393 62.7152 18.5973 62.2607 18.5973C61.9553 18.5973 61.6854 18.663 61.451 18.7944C61.2202 18.9258 61.0391 19.1175 60.9077 19.3697C60.7799 19.6183 60.7142 19.9183 60.7106 20.2699ZM76.131 21.5163V16.8182H78.4002V25H76.2215V23.5138H76.1363C75.9516 23.9933 75.6445 24.3786 75.2148 24.6697C74.7886 24.9609 74.2684 25.1065 73.6541 25.1065C73.1072 25.1065 72.626 24.9822 72.2105 24.7337C71.795 24.4851 71.4701 24.1317 71.2357 23.6737C71.0049 23.2156 70.8877 22.6669 70.8842 22.0277V16.8182H73.1533V21.6229C73.1569 22.1058 73.2865 22.4876 73.5422 22.7681C73.7979 23.0487 74.1406 23.1889 74.5702 23.1889C74.8437 23.1889 75.0994 23.1268 75.3373 23.0025C75.5752 22.8746 75.767 22.6864 75.9126 22.4379C76.0617 22.1893 76.1345 21.8821 76.131 21.5163ZM86.8428 19.1513L84.7653 19.2791C84.7298 19.1016 84.6535 18.9418 84.5363 18.7997C84.4191 18.6541 84.2646 18.5387 84.0729 18.4535C83.8847 18.3647 83.6592 18.3203 83.3964 18.3203C83.0448 18.3203 82.7483 18.3949 82.5068 18.544C82.2653 18.6896 82.1446 18.8849 82.1446 19.13C82.1446 19.3253 82.2227 19.4904 82.379 19.6254C82.5352 19.7603 82.8033 19.8686 83.1833 19.9503L84.6641 20.2486C85.4596 20.4119 86.0526 20.6747 86.4432 21.0369C86.8339 21.3991 87.0292 21.875 87.0292 22.4645C87.0292 23.0007 86.8712 23.4712 86.5551 23.8761C86.2426 24.2809 85.8129 24.5969 85.266 24.8242C84.7227 25.0479 84.0959 25.1598 83.3857 25.1598C82.3026 25.1598 81.4397 24.9343 80.7969 24.4833C80.1577 24.0288 79.7831 23.4109 79.673 22.6296L81.9049 22.5124C81.9724 22.8427 82.1357 23.0948 82.395 23.2688C82.6542 23.4393 82.9862 23.5245 83.391 23.5245C83.7888 23.5245 84.1084 23.4482 84.3499 23.2955C84.5949 23.1392 84.7192 22.9386 84.7227 22.6935C84.7192 22.4876 84.6322 22.3189 84.4617 22.1875C84.2913 22.0526 84.0285 21.9496 83.6734 21.8786L82.2565 21.5962C81.4575 21.4364 80.8626 21.1594 80.472 20.7653C80.0849 20.3711 79.8914 19.8686 79.8914 19.2578C79.8914 18.7322 80.0334 18.2795 80.3175 17.8995C80.6052 17.5195 81.0082 17.2266 81.5267 17.0206C82.0487 16.8146 82.6595 16.7116 83.3591 16.7116C84.3925 16.7116 85.2057 16.93 85.7987 17.3668C86.3953 17.8036 86.7433 18.3984 86.8428 19.1513ZM95.2665 25.1598C94.4391 25.1598 93.7235 24.984 93.1198 24.6325C92.5197 24.2773 92.0563 23.7837 91.7296 23.1516C91.4029 22.516 91.2395 21.7791 91.2395 20.9411C91.2395 20.0959 91.4029 19.3572 91.7296 18.7251C92.0563 18.0895 92.5197 17.5959 93.1198 17.2443C93.7235 16.8892 94.4391 16.7116 95.2665 16.7116C96.0939 16.7116 96.8077 16.8892 97.4078 17.2443C98.0115 17.5959 98.4767 18.0895 98.8034 18.7251C99.1301 19.3572 99.2935 20.0959 99.2935 20.9411C99.2935 21.7791 99.1301 22.516 98.8034 23.1516C98.4767 23.7837 98.0115 24.2773 97.4078 24.6325C96.8077 24.984 96.0939 25.1598 95.2665 25.1598ZM95.2771 23.402C95.6536 23.402 95.9678 23.2955 96.22 23.0824C96.4721 22.8658 96.6621 22.571 96.7899 22.1982C96.9213 21.8253 96.987 21.4009 96.987 20.9251C96.987 20.4492 96.9213 20.0249 96.7899 19.652C96.6621 19.2791 96.4721 18.9844 96.22 18.7678C95.9678 18.5511 95.6536 18.4428 95.2771 18.4428C94.8972 18.4428 94.5776 18.5511 94.3183 18.7678C94.0627 18.9844 93.8691 19.2791 93.7377 19.652C93.6099 20.0249 93.546 20.4492 93.546 20.9251C93.546 21.4009 93.6099 21.8253 93.7377 22.1982C93.8691 22.571 94.0627 22.8658 94.3183 23.0824C94.5776 23.2955 94.8972 23.402 95.2771 23.402ZM102.858 20.2699V25H100.589V16.8182H102.752V18.2617H102.847C103.029 17.7859 103.332 17.4094 103.758 17.1325C104.185 16.8519 104.701 16.7116 105.308 16.7116C105.877 16.7116 106.372 16.8359 106.795 17.0845C107.217 17.3331 107.546 17.6882 107.78 18.1499C108.014 18.608 108.132 19.1548 108.132 19.7905V25H105.862V20.1953C105.866 19.6946 105.738 19.304 105.479 19.0234C105.22 18.7393 104.863 18.5973 104.408 18.5973C104.103 18.5973 103.833 18.663 103.599 18.7944C103.368 18.9258 103.187 19.1175 103.055 19.3697C102.927 19.6183 102.862 19.9183 102.858 20.2699ZM116.942 25H113.074V14.0909H116.973C118.071 14.0909 119.015 14.3093 119.807 14.7461C120.599 15.1793 121.208 15.8026 121.634 16.6158C122.064 17.429 122.279 18.402 122.279 19.5348C122.279 20.6712 122.064 21.6477 121.634 22.4645C121.208 23.2812 120.596 23.908 119.797 24.3448C119.001 24.7816 118.049 25 116.942 25ZM115.381 23.0238H116.846C117.527 23.0238 118.101 22.9031 118.566 22.6616C119.035 22.4165 119.386 22.0384 119.621 21.527C119.859 21.0121 119.978 20.348 119.978 19.5348C119.978 18.7287 119.859 18.07 119.621 17.5586C119.386 17.0472 119.037 16.6708 118.571 16.4293C118.106 16.1879 117.533 16.0671 116.851 16.0671H115.381V23.0238ZM123.765 25V16.8182H126.034V25H123.765ZM124.905 15.7635C124.567 15.7635 124.278 15.6516 124.036 15.4279C123.799 15.2006 123.68 14.929 123.68 14.6129C123.68 14.3004 123.799 14.0323 124.036 13.8086C124.278 13.5813 124.567 13.4677 124.905 13.4677C125.242 13.4677 125.53 13.5813 125.768 13.8086C126.009 14.0323 126.13 14.3004 126.13 14.6129C126.13 14.929 126.009 15.2006 125.768 15.4279C125.53 15.6516 125.242 15.7635 124.905 15.7635ZM134.479 19.1513L132.402 19.2791C132.366 19.1016 132.29 18.9418 132.173 18.7997C132.056 18.6541 131.901 18.5387 131.709 18.4535C131.521 18.3647 131.296 18.3203 131.033 18.3203C130.681 18.3203 130.385 18.3949 130.143 18.544C129.902 18.6896 129.781 18.8849 129.781 19.13C129.781 19.3253 129.859 19.4904 130.015 19.6254C130.172 19.7603 130.44 19.8686 130.82 19.9503L132.301 20.2486C133.096 20.4119 133.689 20.6747 134.08 21.0369C134.47 21.3991 134.666 21.875 134.666 22.4645C134.666 23.0007 134.508 23.4712 134.192 23.8761C133.879 24.2809 133.449 24.5969 132.903 24.8242C132.359 25.0479 131.732 25.1598 131.022 25.1598C129.939 25.1598 129.076 24.9343 128.433 24.4833C127.794 24.0288 127.42 23.4109 127.309 22.6296L129.541 22.5124C129.609 22.8427 129.772 23.0948 130.031 23.2688C130.291 23.4393 130.623 23.5245 131.028 23.5245C131.425 23.5245 131.745 23.4482 131.986 23.2955C132.231 23.1392 132.356 22.9386 132.359 22.6935C132.356 22.4876 132.269 22.3189 132.098 22.1875C131.928 22.0526 131.665 21.9496 131.31 21.8786L129.893 21.5962C129.094 21.4364 128.499 21.1594 128.109 20.7653C127.721 20.3711 127.528 19.8686 127.528 19.2578C127.528 18.7322 127.67 18.2795 127.954 17.8995C128.242 17.5195 128.645 17.2266 129.163 17.0206C129.685 16.8146 130.296 16.7116 130.996 16.7116C132.029 16.7116 132.842 16.93 133.435 17.3668C134.032 17.8036 134.38 18.3984 134.479 19.1513ZM139.611 25.1598C138.773 25.1598 138.052 24.9822 137.449 24.6271C136.849 24.2685 136.387 23.7713 136.064 23.1357C135.744 22.5 135.584 21.7685 135.584 20.9411C135.584 20.103 135.746 19.3679 136.069 18.7358C136.396 18.1001 136.859 17.6048 137.459 17.2496C138.059 16.891 138.773 16.7116 139.601 16.7116C140.314 16.7116 140.939 16.8413 141.476 17.1005C142.012 17.3597 142.436 17.7237 142.749 18.1925C143.061 18.6612 143.233 19.2116 143.265 19.8438H141.124C141.064 19.4354 140.904 19.1069 140.645 18.8583C140.389 18.6062 140.053 18.4801 139.638 18.4801C139.286 18.4801 138.979 18.576 138.716 18.7678C138.457 18.956 138.255 19.2312 138.109 19.5934C137.964 19.9556 137.891 20.3942 137.891 20.9091C137.891 21.4311 137.962 21.875 138.104 22.2408C138.249 22.6065 138.454 22.8853 138.716 23.0771C138.979 23.2688 139.286 23.3647 139.638 23.3647C139.897 23.3647 140.13 23.3114 140.336 23.2049C140.545 23.0984 140.717 22.9439 140.852 22.7415C140.991 22.5355 141.081 22.2887 141.124 22.0011H143.265C143.23 22.6261 143.059 23.1765 142.754 23.6523C142.452 24.1246 142.035 24.494 141.502 24.7603C140.97 25.0266 140.339 25.1598 139.611 25.1598ZM148.235 25.1598C147.408 25.1598 146.692 24.984 146.088 24.6325C145.488 24.2773 145.025 23.7837 144.698 23.1516C144.371 22.516 144.208 21.7791 144.208 20.9411C144.208 20.0959 144.371 19.3572 144.698 18.7251C145.025 18.0895 145.488 17.5959 146.088 17.2443C146.692 16.8892 147.408 16.7116 148.235 16.7116C149.062 16.7116 149.776 16.8892 150.376 17.2443C150.98 17.5959 151.445 18.0895 151.772 18.7251C152.099 19.3572 152.262 20.0959 152.262 20.9411C152.262 21.7791 152.099 22.516 151.772 23.1516C151.445 23.7837 150.98 24.2773 150.376 24.6325C149.776 24.984 149.062 25.1598 148.235 25.1598ZM148.246 23.402C148.622 23.402 148.936 23.2955 149.188 23.0824C149.441 22.8658 149.631 22.571 149.758 22.1982C149.89 21.8253 149.956 21.4009 149.956 20.9251C149.956 20.4492 149.89 20.0249 149.758 19.652C149.631 19.2791 149.441 18.9844 149.188 18.7678C148.936 18.5511 148.622 18.4428 148.246 18.4428C147.866 18.4428 147.546 18.5511 147.287 18.7678C147.031 18.9844 146.838 19.2791 146.706 19.652C146.578 20.0249 146.514 20.4492 146.514 20.9251C146.514 21.4009 146.578 21.8253 146.706 22.1982C146.838 22.571 147.031 22.8658 147.287 23.0824C147.546 23.2955 147.866 23.402 148.246 23.402ZM153.557 25V16.8182H155.757V18.2457H155.843C155.992 17.7379 156.242 17.3544 156.594 17.0952C156.945 16.8324 157.35 16.701 157.808 16.701C157.922 16.701 158.044 16.7081 158.176 16.7223C158.307 16.7365 158.423 16.756 158.522 16.7809V18.7944C158.415 18.7624 158.268 18.734 158.08 18.7092C157.892 18.6843 157.719 18.6719 157.563 18.6719C157.229 18.6719 156.931 18.7447 156.668 18.8903C156.409 19.0323 156.203 19.2312 156.05 19.4869C155.901 19.7425 155.827 20.0373 155.827 20.3711V25H153.557ZM162.149 25.1332C161.528 25.1332 160.965 24.9734 160.461 24.6538C159.96 24.3306 159.562 23.8565 159.267 23.2315C158.976 22.603 158.831 21.8324 158.831 20.9197C158.831 19.9822 158.982 19.2028 159.283 18.5813C159.585 17.9563 159.987 17.4893 160.487 17.1804C160.992 16.8679 161.544 16.7116 162.144 16.7116C162.602 16.7116 162.984 16.7898 163.289 16.946C163.598 17.0987 163.847 17.2905 164.035 17.5213C164.227 17.7486 164.372 17.9723 164.472 18.1925H164.541V14.0909H166.805V25H164.568V23.6896H164.472C164.365 23.9169 164.214 24.1424 164.019 24.3661C163.827 24.5863 163.577 24.7692 163.268 24.9148C162.962 25.0604 162.59 25.1332 162.149 25.1332ZM162.868 23.3274C163.234 23.3274 163.543 23.228 163.795 23.0291C164.051 22.8267 164.246 22.5444 164.381 22.1822C164.52 21.82 164.589 21.3956 164.589 20.9091C164.589 20.4226 164.521 20 164.386 19.6413C164.252 19.2827 164.056 19.0057 163.801 18.8104C163.545 18.6151 163.234 18.5174 162.868 18.5174C162.495 18.5174 162.181 18.6186 161.926 18.821C161.67 19.0234 161.476 19.304 161.345 19.6626C161.214 20.0213 161.148 20.4368 161.148 20.9091C161.148 21.3849 161.214 21.8058 161.345 22.1715C161.48 22.5337 161.673 22.8178 161.926 23.0238C162.181 23.2262 162.495 23.3274 162.868 23.3274Z" fill="#F1EFEF"/>
</svg>
