<svg width="235" height="40" viewBox="0 0 235 40" fill="none" xmlns="http://www.w3.org/2000/svg">
<rect x="0.5" y="0.5" width="234" height="39" rx="7.5" fill="#1D1C1B"/>
<rect x="0.5" y="0.5" width="234" height="39" rx="7.5" stroke="#4B4B4B"/>
<path fill-rule="evenodd" clip-rule="evenodd" d="M15.771 27.0222C14.8196 26.5604 14.0286 25.782 13.4067 24.7354C13.1951 24.3793 13.3559 23.9286 13.7292 23.7492C14.1026 23.5698 14.5459 23.7308 14.7649 24.0823C15.2522 24.8645 15.8188 25.378 16.4261 25.6728C17.1845 26.041 18.0926 26.11 19.1547 25.817L19.5537 27.2629C18.2114 27.6333 16.9183 27.5792 15.771 27.0222Z" fill="#F1EFEF"/>
<path d="M16.4199 11.9375C16.7432 11.9375 17.1929 12.0129 17.4974 12.0867C18.0373 12.2177 18.7292 12.4689 19.3748 12.9547C19.9367 12.8221 20.7325 12.6674 21.75 12.6674C22.7675 12.6673 23.5633 12.8221 24.1252 12.9548C24.7709 12.4689 25.4627 12.2177 26.0027 12.0867C26.3071 12.0129 26.768 11.9375 27.0801 11.9375H27.4646L27.6042 12.2958C27.7987 12.7948 27.869 13.4019 27.8699 13.9713C27.8708 14.4507 27.8224 14.9364 27.738 15.36C27.9664 15.7213 28.1796 16.1494 28.3452 16.5889C28.5427 17.113 28.6875 17.693 28.6875 18.2215C28.6875 20.038 28.0789 21.321 27.1162 22.2261C26.3849 22.9137 25.4773 23.3564 24.5594 23.6708C24.7561 23.9669 24.9375 24.3583 24.9375 24.8713V26.5625C24.9375 27.2696 24.9375 27.6231 24.7178 27.8428C24.4981 28.0625 24.1446 28.0625 23.4375 28.0625H20.0625C19.3554 28.0625 19.0018 28.0625 18.7822 27.8428C18.5625 27.6231 18.5625 27.2696 18.5625 26.5625V24.8713C18.5625 24.3583 18.744 23.9669 18.9406 23.6708C18.0226 23.3564 17.1151 22.9137 16.3838 22.2261C15.4211 21.321 14.8125 20.038 14.8125 18.2215C14.8125 17.693 14.9573 17.113 15.1548 16.5889C15.3204 16.1494 15.5336 15.7212 15.762 15.36C15.6776 14.9364 15.6292 14.4507 15.6301 13.9713C15.631 13.4019 15.7014 12.7948 15.8958 12.2958L16.0354 11.9375H16.4199Z" fill="#F1EFEF"/>
<path d="M43.17 17.2283C43.1274 16.7987 42.9445 16.4648 42.6214 16.2269C42.2982 15.989 41.8596 15.87 41.3057 15.87C40.9292 15.87 40.6114 15.9233 40.3522 16.0298C40.0929 16.1328 39.8941 16.2766 39.7556 16.4613C39.6206 16.646 39.5532 16.8555 39.5532 17.0898C39.5461 17.2852 39.5869 17.4556 39.6757 17.6012C39.768 17.7468 39.8941 17.8729 40.0539 17.9794C40.2137 18.0824 40.3983 18.1729 40.6079 18.2511C40.8174 18.3256 41.0411 18.3896 41.279 18.4428L42.2591 18.6772C42.735 18.7837 43.1718 18.9258 43.5695 19.1033C43.9672 19.2809 44.3117 19.4993 44.6029 19.7585C44.8941 20.0178 45.1196 20.3232 45.2794 20.6747C45.4427 21.0263 45.5262 21.4293 45.5297 21.8839C45.5262 22.5515 45.3557 23.1303 45.0184 23.6204C44.6846 24.1069 44.2016 24.4851 43.5695 24.755C42.941 25.0213 42.1828 25.1545 41.295 25.1545C40.4143 25.1545 39.6473 25.0195 38.9939 24.7496C38.344 24.4798 37.8362 24.0803 37.4704 23.5511C37.1082 23.0185 36.9182 22.3597 36.9005 21.5749H39.1324C39.1572 21.9407 39.262 22.2461 39.4466 22.4911C39.6349 22.7326 39.8852 22.9155 40.1977 23.0398C40.5138 23.1605 40.8706 23.2209 41.2684 23.2209C41.659 23.2209 41.9981 23.1641 42.2858 23.0504C42.577 22.9368 42.8025 22.7788 42.9623 22.5763C43.1221 22.3739 43.202 22.1413 43.202 21.8786C43.202 21.6335 43.1292 21.4276 42.9836 21.2607C42.8415 21.0937 42.632 20.9517 42.355 20.8345C42.0816 20.7173 41.746 20.6108 41.3483 20.5149L40.1604 20.2166C39.2407 19.9929 38.5145 19.6431 37.9818 19.1673C37.4491 18.6914 37.1846 18.0504 37.1881 17.2443C37.1846 16.5838 37.3603 16.0067 37.7155 15.5131C38.0741 15.0195 38.566 14.6342 39.191 14.3572C39.816 14.0803 40.5262 13.9418 41.3216 13.9418C42.1313 13.9418 42.838 14.0803 43.4417 14.3572C44.0489 14.6342 44.5212 15.0195 44.8586 15.5131C45.1959 16.0067 45.3699 16.5785 45.3806 17.2283H43.17ZM50.5872 25.1598C49.7456 25.1598 49.0212 24.9893 48.4139 24.6484C47.8102 24.304 47.345 23.8175 47.0183 23.1889C46.6916 22.5568 46.5283 21.8093 46.5283 20.9464C46.5283 20.1048 46.6916 19.3661 47.0183 18.7305C47.345 18.0948 47.8049 17.5994 48.3979 17.2443C48.9945 16.8892 49.6941 16.7116 50.4967 16.7116C51.0364 16.7116 51.5389 16.7987 52.0041 16.9727C52.4729 17.1431 52.8813 17.4006 53.2293 17.745C53.5808 18.0895 53.8543 18.5227 54.0496 19.0447C54.2449 19.5632 54.3425 20.1705 54.3425 20.8665V21.4897H47.4338V20.0835H52.2065C52.2065 19.7567 52.1355 19.4673 51.9935 19.2152C51.8514 18.9631 51.6543 18.766 51.4022 18.6239C51.1536 18.4783 50.8642 18.4055 50.534 18.4055C50.1895 18.4055 49.8841 18.4854 49.6178 18.6452C49.355 18.8015 49.149 19.0128 48.9999 19.2791C48.8507 19.5419 48.7744 19.8349 48.7708 20.158V21.495C48.7708 21.8999 48.8454 22.2496 48.9945 22.5444C49.1472 22.8391 49.3621 23.0664 49.6391 23.2262C49.9161 23.386 50.2445 23.4659 50.6245 23.4659C50.8766 23.4659 51.1075 23.4304 51.317 23.3594C51.5265 23.2884 51.7058 23.1818 51.855 23.0398C52.0041 22.8977 52.1178 22.7237 52.1959 22.5178L54.2946 22.6562C54.1881 23.1605 53.9697 23.6009 53.6394 23.9773C53.3127 24.3501 52.8901 24.6413 52.3717 24.8509C51.8568 25.0568 51.2619 25.1598 50.5872 25.1598ZM59.3721 25.1598C58.5304 25.1598 57.806 24.9893 57.1988 24.6484C56.5951 24.304 56.1299 23.8175 55.8032 23.1889C55.4765 22.5568 55.3131 21.8093 55.3131 20.9464C55.3131 20.1048 55.4765 19.3661 55.8032 18.7305C56.1299 18.0948 56.5897 17.5994 57.1828 17.2443C57.7794 16.8892 58.479 16.7116 59.2815 16.7116C59.8213 16.7116 60.3238 16.7987 60.789 16.9727C61.2577 17.1431 61.6661 17.4006 62.0141 17.745C62.3657 18.0895 62.6391 18.5227 62.8344 19.0447C63.0297 19.5632 63.1274 20.1705 63.1274 20.8665V21.4897H56.2187V20.0835H60.9914C60.9914 19.7567 60.9204 19.4673 60.7783 19.2152C60.6363 18.9631 60.4392 18.766 60.187 18.6239C59.9385 18.4783 59.6491 18.4055 59.3188 18.4055C58.9743 18.4055 58.6689 18.4854 58.4026 18.6452C58.1398 18.8015 57.9339 19.0128 57.7847 19.2791C57.6356 19.5419 57.5592 19.8349 57.5557 20.158V21.495C57.5557 21.8999 57.6302 22.2496 57.7794 22.5444C57.9321 22.8391 58.1469 23.0664 58.4239 23.2262C58.7009 23.386 59.0294 23.4659 59.4094 23.4659C59.6615 23.4659 59.8923 23.4304 60.1018 23.3594C60.3113 23.2884 60.4907 23.1818 60.6398 23.0398C60.789 22.8977 60.9026 22.7237 60.9807 22.5178L63.0795 22.6562C62.9729 23.1605 62.7545 23.6009 62.4243 23.9773C62.0976 24.3501 61.675 24.6413 61.1565 24.8509C60.6416 25.0568 60.0468 25.1598 59.3721 25.1598ZM71.4166 25.1598C70.5892 25.1598 69.8737 24.984 69.27 24.6325C68.6698 24.2773 68.2064 23.7837 67.8797 23.1516C67.553 22.516 67.3896 21.7791 67.3896 20.9411C67.3896 20.0959 67.553 19.3572 67.8797 18.7251C68.2064 18.0895 68.6698 17.5959 69.27 17.2443C69.8737 16.8892 70.5892 16.7116 71.4166 16.7116C72.244 16.7116 72.9578 16.8892 73.558 17.2443C74.1617 17.5959 74.6269 18.0895 74.9536 18.7251C75.2803 19.3572 75.4436 20.0959 75.4436 20.9411C75.4436 21.7791 75.2803 22.516 74.9536 23.1516C74.6269 23.7837 74.1617 24.2773 73.558 24.6325C72.9578 24.984 72.244 25.1598 71.4166 25.1598ZM71.4273 23.402C71.8037 23.402 72.118 23.2955 72.3701 23.0824C72.6222 22.8658 72.8122 22.571 72.9401 22.1982C73.0715 21.8253 73.1372 21.4009 73.1372 20.9251C73.1372 20.4492 73.0715 20.0249 72.9401 19.652C72.8122 19.2791 72.6222 18.9844 72.3701 18.7678C72.118 18.5511 71.8037 18.4428 71.4273 18.4428C71.0473 18.4428 70.7277 18.5511 70.4685 18.7678C70.2128 18.9844 70.0193 19.2791 69.8879 19.652C69.76 20.0249 69.6961 20.4492 69.6961 20.9251C69.6961 21.4009 69.76 21.8253 69.8879 22.1982C70.0193 22.571 70.2128 22.8658 70.4685 23.0824C70.7277 23.2955 71.0473 23.402 71.4273 23.402ZM81.9859 21.5163V16.8182H84.2551V25H82.0765V23.5138H81.9912C81.8066 23.9933 81.4994 24.3786 81.0697 24.6697C80.6436 24.9609 80.1233 25.1065 79.509 25.1065C78.9621 25.1065 78.4809 24.9822 78.0655 24.7337C77.65 24.4851 77.325 24.1317 77.0907 23.6737C76.8599 23.2156 76.7427 22.6669 76.7391 22.0277V16.8182H79.0083V21.6229C79.0118 22.1058 79.1415 22.4876 79.3971 22.7681C79.6528 23.0487 79.9955 23.1889 80.4252 23.1889C80.6986 23.1889 80.9543 23.1268 81.1922 23.0025C81.4302 22.8746 81.6219 22.6864 81.7675 22.4379C81.9167 22.1893 81.9895 21.8821 81.9859 21.5163ZM85.8902 25V16.8182H88.0901V18.2457H88.1753C88.3245 17.7379 88.5748 17.3544 88.9264 17.0952C89.278 16.8324 89.6828 16.701 90.1409 16.701C90.2545 16.701 90.377 16.7081 90.5084 16.7223C90.6398 16.7365 90.7552 16.756 90.8547 16.7809V18.7944C90.7481 18.7624 90.6007 18.734 90.4125 18.7092C90.2243 18.6843 90.0521 18.6719 89.8958 18.6719C89.562 18.6719 89.2637 18.7447 89.001 18.8903C88.7417 19.0323 88.5358 19.2312 88.3831 19.4869C88.2339 19.7425 88.1593 20.0373 88.1593 20.3711V25H85.8902ZM98.8363 25.1598C98.0089 25.1598 97.2933 24.984 96.6896 24.6325C96.0895 24.2773 95.6261 23.7837 95.2993 23.1516C94.9726 22.516 94.8093 21.7791 94.8093 20.9411C94.8093 20.0959 94.9726 19.3572 95.2993 18.7251C95.6261 18.0895 96.0895 17.5959 96.6896 17.2443C97.2933 16.8892 98.0089 16.7116 98.8363 16.7116C99.6637 16.7116 100.377 16.8892 100.978 17.2443C101.581 17.5959 102.047 18.0895 102.373 18.7251C102.7 19.3572 102.863 20.0959 102.863 20.9411C102.863 21.7791 102.7 22.516 102.373 23.1516C102.047 23.7837 101.581 24.2773 100.978 24.6325C100.377 24.984 99.6637 25.1598 98.8363 25.1598ZM98.8469 23.402C99.2234 23.402 99.5376 23.2955 99.7898 23.0824C100.042 22.8658 100.232 22.571 100.36 22.1982C100.491 21.8253 100.557 21.4009 100.557 20.9251C100.557 20.4492 100.491 20.0249 100.36 19.652C100.232 19.2791 100.042 18.9844 99.7898 18.7678C99.5376 18.5511 99.2234 18.4428 98.8469 18.4428C98.467 18.4428 98.1474 18.5511 97.8881 18.7678C97.6324 18.9844 97.4389 19.2791 97.3075 19.652C97.1797 20.0249 97.1158 20.4492 97.1158 20.9251C97.1158 21.4009 97.1797 21.8253 97.3075 22.1982C97.4389 22.571 97.6324 22.8658 97.8881 23.0824C98.1474 23.2955 98.467 23.402 98.8469 23.402ZM108.511 16.8182V18.5227H103.583V16.8182H108.511ZM104.702 14.858H106.971V22.4858C106.971 22.6953 107.003 22.8587 107.067 22.9759C107.131 23.0895 107.22 23.1694 107.333 23.2156C107.451 23.2617 107.586 23.2848 107.738 23.2848C107.845 23.2848 107.951 23.2759 108.058 23.2582C108.164 23.2369 108.246 23.2209 108.303 23.2102L108.66 24.8988C108.546 24.9343 108.386 24.9751 108.18 25.0213C107.974 25.071 107.724 25.1012 107.429 25.1119C106.882 25.1332 106.403 25.0604 105.991 24.8935C105.583 24.7266 105.265 24.4673 105.038 24.1158C104.81 23.7642 104.699 23.3203 104.702 22.7841V14.858ZM112.254 20.2699V25H109.985V14.0909H112.19V18.2617H112.286C112.47 17.7788 112.769 17.4006 113.181 17.1271C113.593 16.8501 114.109 16.7116 114.731 16.7116C115.299 16.7116 115.794 16.8359 116.217 17.0845C116.643 17.3295 116.973 17.6829 117.208 18.1445C117.446 18.6026 117.563 19.1513 117.559 19.7905V25H115.29V20.1953C115.294 19.6911 115.166 19.2987 114.906 19.0181C114.651 18.7376 114.292 18.5973 113.83 18.5973C113.522 18.5973 113.248 18.663 113.01 18.7944C112.776 18.9258 112.591 19.1175 112.456 19.3697C112.325 19.6183 112.257 19.9183 112.254 20.2699ZM122.894 25.1598C122.052 25.1598 121.328 24.9893 120.72 24.6484C120.117 24.304 119.651 23.8175 119.325 23.1889C118.998 22.5568 118.835 21.8093 118.835 20.9464C118.835 20.1048 118.998 19.3661 119.325 18.7305C119.651 18.0948 120.111 17.5994 120.704 17.2443C121.301 16.8892 122.001 16.7116 122.803 16.7116C123.343 16.7116 123.845 16.7987 124.311 16.9727C124.779 17.1431 125.188 17.4006 125.536 17.745C125.887 18.0895 126.161 18.5227 126.356 19.0447C126.551 19.5632 126.649 20.1705 126.649 20.8665V21.4897H119.74V20.0835H124.513C124.513 19.7567 124.442 19.4673 124.3 19.2152C124.158 18.9631 123.961 18.766 123.709 18.6239C123.46 18.4783 123.171 18.4055 122.84 18.4055C122.496 18.4055 122.191 18.4854 121.924 18.6452C121.661 18.8015 121.455 19.0128 121.306 19.2791C121.157 19.5419 121.081 19.8349 121.077 20.158V21.495C121.077 21.8999 121.152 22.2496 121.301 22.5444C121.454 22.8391 121.669 23.0664 121.946 23.2262C122.222 23.386 122.551 23.4659 122.931 23.4659C123.183 23.4659 123.414 23.4304 123.623 23.3594C123.833 23.2884 124.012 23.1818 124.161 23.0398C124.311 22.8977 124.424 22.7237 124.502 22.5178L126.601 22.6562C126.495 23.1605 126.276 23.6009 125.946 23.9773C125.619 24.3501 125.197 24.6413 124.678 24.8509C124.163 25.0568 123.568 25.1598 122.894 25.1598ZM127.95 25V16.8182H130.15V18.2457H130.235C130.384 17.7379 130.634 17.3544 130.986 17.0952C131.338 16.8324 131.742 16.701 132.201 16.701C132.314 16.701 132.437 16.7081 132.568 16.7223C132.699 16.7365 132.815 16.756 132.914 16.7809V18.7944C132.808 18.7624 132.66 18.734 132.472 18.7092C132.284 18.6843 132.112 18.6719 131.955 18.6719C131.622 18.6719 131.323 18.7447 131.061 18.8903C130.801 19.0323 130.595 19.2312 130.443 19.4869C130.294 19.7425 130.219 20.0373 130.219 20.3711V25H127.95ZM141.599 16.8182V18.5227H136.549V16.8182H141.599ZM137.705 25V16.2269C137.705 15.6339 137.821 15.142 138.051 14.7514C138.286 14.3608 138.605 14.0678 139.01 13.8725C139.415 13.6772 139.875 13.5795 140.39 13.5795C140.738 13.5795 141.056 13.6062 141.343 13.6594C141.635 13.7127 141.851 13.7607 141.993 13.8033L141.588 15.5078C141.5 15.4794 141.39 15.4528 141.258 15.4279C141.13 15.4031 140.999 15.3906 140.864 15.3906C140.53 15.3906 140.298 15.4688 140.166 15.625C140.035 15.7777 139.969 15.9925 139.969 16.2695V25H137.705ZM142.805 25V16.8182H145.005V18.2457H145.09C145.24 17.7379 145.49 17.3544 145.842 17.0952C146.193 16.8324 146.598 16.701 147.056 16.701C147.17 16.701 147.292 16.7081 147.424 16.7223C147.555 16.7365 147.67 16.756 147.77 16.7809V18.7944C147.663 18.7624 147.516 18.734 147.328 18.7092C147.139 18.6843 146.967 18.6719 146.811 18.6719C146.477 18.6719 146.179 18.7447 145.916 18.8903C145.657 19.0323 145.451 19.2312 145.298 19.4869C145.149 19.7425 145.075 20.0373 145.075 20.3711V25H142.805ZM150.862 25.1545C150.34 25.1545 149.875 25.0639 149.466 24.8828C149.058 24.6982 148.735 24.4265 148.497 24.0678C148.262 23.7056 148.145 23.2546 148.145 22.7148C148.145 22.2603 148.229 21.8786 148.395 21.5696C148.562 21.2607 148.79 21.0121 149.077 20.8239C149.365 20.6357 149.692 20.4936 150.057 20.3977C150.427 20.3018 150.814 20.2344 151.219 20.1953C151.694 20.1456 152.078 20.0994 152.369 20.0568C152.66 20.0107 152.872 19.9432 153.003 19.8544C153.134 19.7656 153.2 19.6342 153.2 19.4602V19.4283C153.2 19.0909 153.094 18.8299 152.881 18.6452C152.671 18.4606 152.373 18.3683 151.986 18.3683C151.577 18.3683 151.252 18.4588 151.011 18.6399C150.769 18.8175 150.61 19.0412 150.531 19.3111L148.433 19.1406C148.539 18.6435 148.749 18.2138 149.061 17.8516C149.374 17.4858 149.777 17.2053 150.27 17.0099C150.768 16.8111 151.343 16.7116 151.996 16.7116C152.451 16.7116 152.886 16.7649 153.301 16.8714C153.72 16.978 154.092 17.1431 154.415 17.3668C154.741 17.5906 154.999 17.8782 155.187 18.2298C155.375 18.5778 155.469 18.995 155.469 19.4815V25H153.317V23.8654H153.253C153.122 24.1211 152.946 24.3466 152.726 24.5419C152.506 24.7337 152.241 24.8846 151.932 24.9947C151.623 25.1012 151.267 25.1545 150.862 25.1545ZM151.512 23.5884C151.845 23.5884 152.14 23.5227 152.396 23.3913C152.652 23.2564 152.852 23.0753 152.998 22.848C153.143 22.6207 153.216 22.3633 153.216 22.0756V21.2074C153.145 21.2536 153.047 21.2962 152.923 21.3352C152.802 21.3707 152.666 21.4045 152.513 21.4364C152.36 21.4648 152.208 21.4915 152.055 21.5163C151.902 21.5376 151.764 21.5572 151.639 21.5749C151.373 21.614 151.141 21.6761 150.942 21.7614C150.743 21.8466 150.588 21.962 150.478 22.1076C150.368 22.2496 150.313 22.4272 150.313 22.6403C150.313 22.9492 150.425 23.1854 150.649 23.3487C150.876 23.5085 151.164 23.5884 151.512 23.5884ZM157.05 25V16.8182H159.212V18.2617H159.308C159.479 17.7823 159.763 17.4041 160.161 17.1271C160.558 16.8501 161.034 16.7116 161.588 16.7116C162.149 16.7116 162.627 16.8519 163.021 17.1325C163.415 17.4094 163.678 17.7859 163.809 18.2617H163.895C164.062 17.793 164.363 17.4183 164.8 17.1378C165.241 16.8537 165.761 16.7116 166.361 16.7116C167.124 16.7116 167.744 16.9549 168.22 17.4414C168.699 17.9244 168.939 18.6097 168.939 19.4975V25H166.675V19.945C166.675 19.4904 166.554 19.1495 166.313 18.9222C166.071 18.695 165.77 18.5813 165.407 18.5813C164.995 18.5813 164.674 18.7127 164.443 18.9755C164.212 19.2347 164.097 19.5774 164.097 20.0036V25H161.897V19.897C161.897 19.4957 161.782 19.1761 161.551 18.9382C161.324 18.7003 161.024 18.5813 160.651 18.5813C160.399 18.5813 160.171 18.6452 159.969 18.7731C159.77 18.8974 159.612 19.0732 159.495 19.3004C159.378 19.5241 159.319 19.7869 159.319 20.0888V25H157.05ZM174.28 25.1598C173.439 25.1598 172.714 24.9893 172.107 24.6484C171.503 24.304 171.038 23.8175 170.711 23.1889C170.385 22.5568 170.221 21.8093 170.221 20.9464C170.221 20.1048 170.385 19.3661 170.711 18.7305C171.038 18.0948 171.498 17.5994 172.091 17.2443C172.687 16.8892 173.387 16.7116 174.19 16.7116C174.729 16.7116 175.232 16.7987 175.697 16.9727C176.166 17.1431 176.574 17.4006 176.922 17.745C177.274 18.0895 177.547 18.5227 177.742 19.0447C177.938 19.5632 178.035 20.1705 178.035 20.8665V21.4897H171.127V20.0835H175.899C175.899 19.7567 175.828 19.4673 175.686 19.2152C175.544 18.9631 175.347 18.766 175.095 18.6239C174.847 18.4783 174.557 18.4055 174.227 18.4055C173.882 18.4055 173.577 18.4854 173.311 18.6452C173.048 18.8015 172.842 19.0128 172.693 19.2791C172.544 19.5419 172.467 19.8349 172.464 20.158V21.495C172.464 21.8999 172.538 22.2496 172.687 22.5444C172.84 22.8391 173.055 23.0664 173.332 23.2262C173.609 23.386 173.937 23.4659 174.317 23.4659C174.57 23.4659 174.8 23.4304 175.01 23.3594C175.219 23.2884 175.399 23.1818 175.548 23.0398C175.697 22.8977 175.811 22.7237 175.889 22.5178L177.988 22.6562C177.881 23.1605 177.663 23.6009 177.332 23.9773C177.006 24.3501 176.583 24.6413 176.065 24.8509C175.55 25.0568 174.955 25.1598 174.28 25.1598ZM180.892 25L178.665 16.8182H180.961L182.229 22.3153H182.303L183.624 16.8182H185.877L187.22 22.2834H187.289L188.536 16.8182H190.826L188.605 25H186.202L184.796 19.8544H184.695L183.289 25H180.892ZM195.348 25.1598C194.521 25.1598 193.805 24.984 193.201 24.6325C192.601 24.2773 192.138 23.7837 191.811 23.1516C191.485 22.516 191.321 21.7791 191.321 20.9411C191.321 20.0959 191.485 19.3572 191.811 18.7251C192.138 18.0895 192.601 17.5959 193.201 17.2443C193.805 16.8892 194.521 16.7116 195.348 16.7116C196.176 16.7116 196.889 16.8892 197.489 17.2443C198.093 17.5959 198.558 18.0895 198.885 18.7251C199.212 19.3572 199.375 20.0959 199.375 20.9411C199.375 21.7791 199.212 22.516 198.885 23.1516C198.558 23.7837 198.093 24.2773 197.489 24.6325C196.889 24.984 196.176 25.1598 195.348 25.1598ZM195.359 23.402C195.735 23.402 196.05 23.2955 196.302 23.0824C196.554 22.8658 196.744 22.571 196.872 22.1982C197.003 21.8253 197.069 21.4009 197.069 20.9251C197.069 20.4492 197.003 20.0249 196.872 19.652C196.744 19.2791 196.554 18.9844 196.302 18.7678C196.05 18.5511 195.735 18.4428 195.359 18.4428C194.979 18.4428 194.659 18.5511 194.4 18.7678C194.144 18.9844 193.951 19.2791 193.819 19.652C193.692 20.0249 193.628 20.4492 193.628 20.9251C193.628 21.4009 193.692 21.8253 193.819 22.1982C193.951 22.571 194.144 22.8658 194.4 23.0824C194.659 23.2955 194.979 23.402 195.359 23.402ZM200.671 25V16.8182H202.871V18.2457H202.956C203.105 17.7379 203.355 17.3544 203.707 17.0952C204.058 16.8324 204.463 16.701 204.921 16.701C205.035 16.701 205.158 16.7081 205.289 16.7223C205.42 16.7365 205.536 16.756 205.635 16.7809V18.7944C205.529 18.7624 205.381 18.734 205.193 18.7092C205.005 18.6843 204.833 18.6719 204.676 18.6719C204.343 18.6719 204.044 18.7447 203.781 18.8903C203.522 19.0323 203.316 19.2312 203.164 19.4869C203.014 19.7425 202.94 20.0373 202.94 20.3711V25H200.671ZM208.684 22.6456L208.69 19.9237H209.02L211.641 16.8182H214.246L210.725 20.9304H210.187L208.684 22.6456ZM206.628 25V14.0909H208.897V25H206.628ZM211.742 25L209.334 21.4364L210.847 19.8331L214.4 25H211.742ZM221.986 19.1513L219.909 19.2791C219.873 19.1016 219.797 18.9418 219.68 18.7997C219.563 18.6541 219.408 18.5387 219.216 18.4535C219.028 18.3647 218.803 18.3203 218.54 18.3203C218.188 18.3203 217.892 18.3949 217.65 18.544C217.409 18.6896 217.288 18.8849 217.288 19.13C217.288 19.3253 217.366 19.4904 217.523 19.6254C217.679 19.7603 217.947 19.8686 218.327 19.9503L219.808 20.2486C220.603 20.4119 221.196 20.6747 221.587 21.0369C221.977 21.3991 222.173 21.875 222.173 22.4645C222.173 23.0007 222.015 23.4712 221.699 23.8761C221.386 24.2809 220.956 24.5969 220.41 24.8242C219.866 25.0479 219.24 25.1598 218.529 25.1598C217.446 25.1598 216.583 24.9343 215.941 24.4833C215.301 24.0288 214.927 23.4109 214.817 22.6296L217.048 22.5124C217.116 22.8427 217.279 23.0948 217.539 23.2688C217.798 23.4393 218.13 23.5245 218.535 23.5245C218.932 23.5245 219.252 23.4482 219.493 23.2955C219.738 23.1392 219.863 22.9386 219.866 22.6935C219.863 22.4876 219.776 22.3189 219.605 22.1875C219.435 22.0526 219.172 21.9496 218.817 21.8786L217.4 21.5962C216.601 21.4364 216.006 21.1594 215.616 20.7653C215.229 20.3711 215.035 19.8686 215.035 19.2578C215.035 18.7322 215.177 18.2795 215.461 17.8995C215.749 17.5195 216.152 17.2266 216.67 17.0206C217.192 16.8146 217.803 16.7116 218.503 16.7116C219.536 16.7116 220.349 16.93 220.942 17.3668C221.539 17.8036 221.887 18.3984 221.986 19.1513Z" fill="#F1EFEF"/>
</svg>
