<svg width="189" height="40" viewBox="0 0 189 40" fill="none" xmlns="http://www.w3.org/2000/svg">
<rect x="0.5" y="0.5" width="188" height="39" rx="7.5" fill="#080808"/>
<rect x="0.5" y="0.5" width="188" height="39" rx="7.5" stroke="#4B4B4B"/>
<path d="M12.9375 20C12.9375 17.8254 14.7004 16.0625 16.875 16.0625C19.0496 16.0625 20.8125 17.8254 20.8125 20C20.8125 22.1746 19.0496 23.9375 16.875 23.9375C14.7004 23.9375 12.9375 22.1746 12.9375 20Z" fill="#F1EFEF"/>
<path d="M21.8075 17.3403C22.1908 16.6503 22.8102 16.0625 23.625 16.0625C24.4398 16.0625 25.0592 16.6503 25.4426 17.3403C25.8365 18.0494 26.0625 18.9908 26.0625 20C26.0625 21.0092 25.8365 21.9506 25.4426 22.6596C25.0592 23.3496 24.4398 23.9375 23.625 23.9375C22.8102 23.9375 22.1908 23.3496 21.8075 22.6596C21.4136 21.9506 21.1875 21.0092 21.1875 20C21.1875 18.9908 21.4136 18.0494 21.8075 17.3403Z" fill="#F1EFEF"/>
<path d="M27.2178 16.2798C27.3346 16.1723 27.5149 16.0625 27.75 16.0625C27.9851 16.0625 28.1654 16.1723 28.2822 16.2798C28.3959 16.3845 28.4786 16.512 28.5399 16.6286C28.663 16.863 28.7569 17.1653 28.8294 17.4915C28.9764 18.153 29.0625 19.0396 29.0625 20C29.0625 20.9604 28.9764 21.847 28.8294 22.5085C28.7569 22.8347 28.663 23.1369 28.5399 23.3714C28.4786 23.488 28.3959 23.6155 28.2822 23.7202C28.1654 23.8278 27.9851 23.9375 27.75 23.9375C27.5149 23.9375 27.3346 23.8278 27.2178 23.7202C27.1041 23.6155 27.0214 23.488 26.9601 23.3714C26.837 23.1369 26.7431 22.8347 26.6706 22.5085C26.5236 21.847 26.4375 20.9604 26.4375 20C26.4375 19.0396 26.5236 18.153 26.6706 17.4915C26.7431 17.1653 26.837 16.863 26.9601 16.6286C27.0214 16.512 27.1041 16.3845 27.2178 16.2798Z" fill="#F1EFEF"/>
<path d="M37.4184 25V14.0909H41.7224C42.5463 14.0909 43.2494 14.2383 43.8318 14.533C44.4177 14.8242 44.8634 15.2379 45.1688 15.7741C45.4777 16.3068 45.6322 16.9336 45.6322 17.6545C45.6322 18.3789 45.476 19.0021 45.1635 19.5241C44.851 20.0426 44.3982 20.4403 43.8051 20.7173C43.2157 20.9943 42.5019 21.1328 41.6638 21.1328H38.7821V19.2791H41.2909C41.7313 19.2791 42.0971 19.2187 42.3882 19.098C42.6794 18.9773 42.8961 18.7962 43.0381 18.5547C43.1837 18.3132 43.2565 18.0131 43.2565 17.6545C43.2565 17.2923 43.1837 16.9869 43.0381 16.7383C42.8961 16.4897 42.6777 16.3015 42.3829 16.1737C42.0917 16.0423 41.7242 15.9766 41.2803 15.9766H39.7249V25H37.4184ZM43.3098 20.0355L46.0211 25H43.4749L40.8222 20.0355H43.3098ZM50.6364 25.1598C49.7948 25.1598 49.0704 24.9893 48.4631 24.6484C47.8594 24.304 47.3942 23.8175 47.0675 23.1889C46.7408 22.5568 46.5775 21.8093 46.5775 20.9464C46.5775 20.1048 46.7408 19.3661 47.0675 18.7305C47.3942 18.0948 47.8541 17.5994 48.4471 17.2443C49.0437 16.8892 49.7433 16.7116 50.5459 16.7116C51.0856 16.7116 51.5881 16.7987 52.0533 16.9727C52.5221 17.1431 52.9305 17.4006 53.2785 17.745C53.63 18.0895 53.9035 18.5227 54.0988 19.0447C54.2941 19.5632 54.3917 20.1705 54.3917 20.8665V21.4897H47.483V20.0835H52.2557C52.2557 19.7567 52.1847 19.4673 52.0427 19.2152C51.9006 18.9631 51.7035 18.766 51.4514 18.6239C51.2028 18.4783 50.9134 18.4055 50.5832 18.4055C50.2387 18.4055 49.9333 18.4854 49.667 18.6452C49.4042 18.8015 49.1982 19.0128 49.0491 19.2791C48.8999 19.5419 48.8236 19.8349 48.82 20.158V21.495C48.82 21.8999 48.8946 22.2496 49.0437 22.5444C49.1964 22.8391 49.4113 23.0664 49.6883 23.2262C49.9653 23.386 50.2937 23.4659 50.6737 23.4659C50.9258 23.4659 51.1567 23.4304 51.3662 23.3594C51.5757 23.2884 51.755 23.1818 51.9042 23.0398C52.0533 22.8977 52.167 22.7237 52.2451 22.5178L54.3438 22.6562C54.2373 23.1605 54.0189 23.6009 53.6886 23.9773C53.3619 24.3501 52.9393 24.6413 52.4209 24.8509C51.906 25.0568 51.3111 25.1598 50.6364 25.1598ZM58.0257 25.1545C57.5037 25.1545 57.0385 25.0639 56.6301 24.8828C56.2217 24.6982 55.8985 24.4265 55.6606 24.0678C55.4262 23.7056 55.3091 23.2546 55.3091 22.7148C55.3091 22.2603 55.3925 21.8786 55.5594 21.5696C55.7263 21.2607 55.9536 21.0121 56.2412 20.8239C56.5289 20.6357 56.8556 20.4936 57.2213 20.3977C57.5907 20.3018 57.9777 20.2344 58.3826 20.1953C58.8584 20.1456 59.2419 20.0994 59.5331 20.0568C59.8243 20.0107 60.0356 19.9432 60.167 19.8544C60.2984 19.7656 60.3641 19.6342 60.3641 19.4602V19.4283C60.3641 19.0909 60.2576 18.8299 60.0445 18.6452C59.835 18.4606 59.5367 18.3683 59.1496 18.3683C58.7412 18.3683 58.4163 18.4588 58.1748 18.6399C57.9333 18.8175 57.7735 19.0412 57.6954 19.3111L55.5967 19.1406C55.7032 18.6435 55.9127 18.2138 56.2252 17.8516C56.5377 17.4858 56.9408 17.2053 57.4344 17.0099C57.9316 16.8111 58.5068 16.7116 59.1603 16.7116C59.6148 16.7116 60.0498 16.7649 60.4653 16.8714C60.8843 16.978 61.2554 17.1431 61.5786 17.3668C61.9053 17.5906 62.1627 17.8782 62.351 18.2298C62.5392 18.5778 62.6333 18.995 62.6333 19.4815V25H60.4813V23.8654H60.4174C60.286 24.1211 60.1102 24.3466 59.89 24.5419C59.6698 24.7337 59.4053 24.8846 59.0963 24.9947C58.7874 25.1012 58.4305 25.1545 58.0257 25.1545ZM58.6755 23.5884C59.0093 23.5884 59.3041 23.5227 59.5598 23.3913C59.8154 23.2564 60.0161 23.0753 60.1617 22.848C60.3073 22.6207 60.3801 22.3633 60.3801 22.0756V21.2074C60.3091 21.2536 60.2114 21.2962 60.0871 21.3352C59.9664 21.3707 59.8296 21.4045 59.6769 21.4364C59.5242 21.4648 59.3716 21.4915 59.2189 21.5163C59.0662 21.5376 58.9277 21.5572 58.8034 21.5749C58.537 21.614 58.3044 21.6761 58.1056 21.7614C57.9067 21.8466 57.7522 21.962 57.6421 22.1076C57.5321 22.2496 57.477 22.4272 57.477 22.6403C57.477 22.9492 57.5889 23.1854 57.8126 23.3487C58.0399 23.5085 58.3275 23.5884 58.6755 23.5884ZM67.2287 25.1332C66.6072 25.1332 66.0444 24.9734 65.5401 24.6538C65.0394 24.3306 64.6417 23.8565 64.3469 23.2315C64.0557 22.603 63.9101 21.8324 63.9101 20.9197C63.9101 19.9822 64.061 19.2028 64.3629 18.5813C64.6647 17.9563 65.066 17.4893 65.5667 17.1804C66.071 16.8679 66.6232 16.7116 67.2233 16.7116C67.6814 16.7116 68.0632 16.7898 68.3686 16.946C68.6775 17.0987 68.9261 17.2905 69.1143 17.5213C69.3061 17.7486 69.4517 17.9723 69.5511 18.1925H69.6203V14.0909H71.8842V25H69.647V23.6896H69.5511C69.4446 23.9169 69.2936 24.1424 69.0983 24.3661C68.9066 24.5863 68.6562 24.7692 68.3473 24.9148C68.0419 25.0604 67.669 25.1332 67.2287 25.1332ZM67.9478 23.3274C68.3135 23.3274 68.6225 23.228 68.8746 23.0291C69.1303 22.8267 69.3256 22.5444 69.4605 22.1822C69.599 21.82 69.6683 21.3956 69.6683 20.9091C69.6683 20.4226 69.6008 20 69.4659 19.6413C69.3309 19.2827 69.1356 19.0057 68.8799 18.8104C68.6243 18.6151 68.3135 18.5174 67.9478 18.5174C67.5749 18.5174 67.2606 18.6186 67.0049 18.821C66.7493 19.0234 66.5557 19.304 66.4243 19.6626C66.2929 20.0213 66.2272 20.4368 66.2272 20.9091C66.2272 21.3849 66.2929 21.8058 66.4243 22.1715C66.5593 22.5337 66.7528 22.8178 67.0049 23.0238C67.2606 23.2262 67.5749 23.3274 67.9478 23.3274ZM82.1084 21.5163V16.8182H84.3775V25H82.1989V23.5138H82.1137C81.929 23.9933 81.6219 24.3786 81.1922 24.6697C80.766 24.9609 80.2458 25.1065 79.6314 25.1065C79.0846 25.1065 78.6034 24.9822 78.1879 24.7337C77.7724 24.4851 77.4475 24.1317 77.2131 23.6737C76.9823 23.2156 76.8651 22.6669 76.8616 22.0277V16.8182H79.1307V21.6229C79.1343 22.1058 79.2639 22.4876 79.5196 22.7681C79.7753 23.0487 80.1179 23.1889 80.5476 23.1889C80.8211 23.1889 81.0768 23.1268 81.3147 23.0025C81.5526 22.8746 81.7444 22.6864 81.89 22.4379C82.0391 22.1893 82.1119 21.8821 82.1084 21.5163ZM92.8201 19.1513L90.7427 19.2791C90.7072 19.1016 90.6309 18.9418 90.5137 18.7997C90.3965 18.6541 90.242 18.5387 90.0503 18.4535C89.862 18.3647 89.6365 18.3203 89.3738 18.3203C89.0222 18.3203 88.7257 18.3949 88.4842 18.544C88.2427 18.6896 88.122 18.8849 88.122 19.13C88.122 19.3253 88.2001 19.4904 88.3564 19.6254C88.5126 19.7603 88.7807 19.8686 89.1607 19.9503L90.6415 20.2486C91.437 20.4119 92.03 20.6747 92.4206 21.0369C92.8113 21.3991 93.0066 21.875 93.0066 22.4645C93.0066 23.0007 92.8485 23.4712 92.5325 23.8761C92.22 24.2809 91.7903 24.5969 91.2434 24.8242C90.7001 25.0479 90.0733 25.1598 89.3631 25.1598C88.28 25.1598 87.4171 24.9343 86.7743 24.4833C86.1351 24.0288 85.7605 23.4109 85.6504 22.6296L87.8823 22.5124C87.9498 22.8427 88.1131 23.0948 88.3723 23.2688C88.6316 23.4393 88.9636 23.5245 89.3684 23.5245C89.7662 23.5245 90.0858 23.4482 90.3272 23.2955C90.5723 23.1392 90.6966 22.9386 90.7001 22.6935C90.6966 22.4876 90.6096 22.3189 90.4391 22.1875C90.2686 22.0526 90.0059 21.9496 89.6507 21.8786L88.2338 21.5962C87.4348 21.4364 86.84 21.1594 86.4494 20.7653C86.0623 20.3711 85.8688 19.8686 85.8688 19.2578C85.8688 18.7322 86.0108 18.2795 86.2949 17.8995C86.5826 17.5195 86.9856 17.2266 87.5041 17.0206C88.0261 16.8146 88.6369 16.7116 89.3365 16.7116C90.3699 16.7116 91.1831 16.93 91.7761 17.3668C92.3727 17.8036 92.7207 18.3984 92.8201 19.1513ZM101.244 25.1598C100.416 25.1598 99.7009 24.984 99.0972 24.6325C98.4971 24.2773 98.0337 23.7837 97.7069 23.1516C97.3802 22.516 97.2169 21.7791 97.2169 20.9411C97.2169 20.0959 97.3802 19.3572 97.7069 18.7251C98.0337 18.0895 98.4971 17.5959 99.0972 17.2443C99.7009 16.8892 100.416 16.7116 101.244 16.7116C102.071 16.7116 102.785 16.8892 103.385 17.2443C103.989 17.5959 104.454 18.0895 104.781 18.7251C105.108 19.3572 105.271 20.0959 105.271 20.9411C105.271 21.7791 105.108 22.516 104.781 23.1516C104.454 23.7837 103.989 24.2773 103.385 24.6325C102.785 24.984 102.071 25.1598 101.244 25.1598ZM101.255 23.402C101.631 23.402 101.945 23.2955 102.197 23.0824C102.449 22.8658 102.639 22.571 102.767 22.1982C102.899 21.8253 102.964 21.4009 102.964 20.9251C102.964 20.4492 102.899 20.0249 102.767 19.652C102.639 19.2791 102.449 18.9844 102.197 18.7678C101.945 18.5511 101.631 18.4428 101.255 18.4428C100.875 18.4428 100.555 18.5511 100.296 18.7678C100.04 18.9844 99.8465 19.2791 99.7151 19.652C99.5873 20.0249 99.5234 20.4492 99.5234 20.9251C99.5234 21.4009 99.5873 21.8253 99.7151 22.1982C99.8465 22.571 100.04 22.8658 100.296 23.0824C100.555 23.2955 100.875 23.402 101.255 23.402ZM108.836 20.2699V25H106.566V16.8182H108.729V18.2617H108.825C109.006 17.7859 109.31 17.4094 109.736 17.1325C110.162 16.8519 110.679 16.7116 111.286 16.7116C111.854 16.7116 112.349 16.8359 112.772 17.0845C113.195 17.3331 113.523 17.6882 113.757 18.1499C113.992 18.608 114.109 19.1548 114.109 19.7905V25H111.84V20.1953C111.843 19.6946 111.716 19.304 111.456 19.0234C111.197 18.7393 110.84 18.5973 110.386 18.5973C110.08 18.5973 109.81 18.663 109.576 18.7944C109.345 18.9258 109.164 19.1175 109.033 19.3697C108.905 19.6183 108.839 19.9183 108.836 20.2699ZM119.052 14.0909H121.896L124.9 21.4205H125.028L128.033 14.0909H130.877V25H128.64V17.8995H128.549L125.726 24.9467H124.203L121.379 17.8729H121.289V25H119.052V14.0909ZM136.283 25.1598C135.442 25.1598 134.717 24.9893 134.11 24.6484C133.506 24.304 133.041 23.8175 132.714 23.1889C132.388 22.5568 132.224 21.8093 132.224 20.9464C132.224 20.1048 132.388 19.3661 132.714 18.7305C133.041 18.0948 133.501 17.5994 134.094 17.2443C134.691 16.8892 135.39 16.7116 136.193 16.7116C136.733 16.7116 137.235 16.7987 137.7 16.9727C138.169 17.1431 138.577 17.4006 138.925 17.745C139.277 18.0895 139.55 18.5227 139.746 19.0447C139.941 19.5632 140.039 20.1705 140.039 20.8665V21.4897H133.13V20.0835H137.903C137.903 19.7567 137.832 19.4673 137.69 19.2152C137.548 18.9631 137.35 18.766 137.098 18.6239C136.85 18.4783 136.56 18.4055 136.23 18.4055C135.886 18.4055 135.58 18.4854 135.314 18.6452C135.051 18.8015 134.845 19.0128 134.696 19.2791C134.547 19.5419 134.471 19.8349 134.467 20.158V21.495C134.467 21.8999 134.542 22.2496 134.691 22.5444C134.843 22.8391 135.058 23.0664 135.335 23.2262C135.612 23.386 135.941 23.4659 136.321 23.4659C136.573 23.4659 136.804 23.4304 137.013 23.3594C137.223 23.2884 137.402 23.1818 137.551 23.0398C137.7 22.8977 137.814 22.7237 137.892 22.5178L139.991 22.6562C139.884 23.1605 139.666 23.6009 139.336 23.9773C139.009 24.3501 138.586 24.6413 138.068 24.8509C137.553 25.0568 136.958 25.1598 136.283 25.1598ZM144.354 25.1332C143.733 25.1332 143.17 24.9734 142.666 24.6538C142.165 24.3306 141.767 23.8565 141.473 23.2315C141.182 22.603 141.036 21.8324 141.036 20.9197C141.036 19.9822 141.187 19.2028 141.489 18.5813C141.791 17.9563 142.192 17.4893 142.693 17.1804C143.197 16.8679 143.749 16.7116 144.349 16.7116C144.807 16.7116 145.189 16.7898 145.494 16.946C145.803 17.0987 146.052 17.2905 146.24 17.5213C146.432 17.7486 146.577 17.9723 146.677 18.1925H146.746V14.0909H149.01V25H146.773V23.6896H146.677C146.57 23.9169 146.419 24.1424 146.224 24.3661C146.032 24.5863 145.782 24.7692 145.473 24.9148C145.168 25.0604 144.795 25.1332 144.354 25.1332ZM145.074 23.3274C145.439 23.3274 145.748 23.228 146 23.0291C146.256 22.8267 146.451 22.5444 146.586 22.1822C146.725 21.82 146.794 21.3956 146.794 20.9091C146.794 20.4226 146.727 20 146.592 19.6413C146.457 19.2827 146.261 19.0057 146.006 18.8104C145.75 18.6151 145.439 18.5174 145.074 18.5174C144.701 18.5174 144.386 18.6186 144.131 18.821C143.875 19.0234 143.682 19.304 143.55 19.6626C143.419 20.0213 143.353 20.4368 143.353 20.9091C143.353 21.3849 143.419 21.8058 143.55 22.1715C143.685 22.5337 143.879 22.8178 144.131 23.0238C144.386 23.2262 144.701 23.3274 145.074 23.3274ZM150.696 25V16.8182H152.965V25H150.696ZM151.836 15.7635C151.498 15.7635 151.209 15.6516 150.967 15.4279C150.729 15.2006 150.61 14.929 150.61 14.6129C150.61 14.3004 150.729 14.0323 150.967 13.8086C151.209 13.5813 151.498 13.4677 151.836 13.4677C152.173 13.4677 152.461 13.5813 152.699 13.8086C152.94 14.0323 153.061 14.3004 153.061 14.6129C153.061 14.929 152.94 15.2006 152.699 15.4279C152.461 15.6516 152.173 15.7635 151.836 15.7635ZM159.849 21.5163V16.8182H162.119V25H159.94V23.5138H159.855C159.67 23.9933 159.363 24.3786 158.933 24.6697C158.507 24.9609 157.987 25.1065 157.372 25.1065C156.826 25.1065 156.344 24.9822 155.929 24.7337C155.513 24.4851 155.189 24.1317 154.954 23.6737C154.723 23.2156 154.606 22.6669 154.603 22.0277V16.8182H156.872V21.6229C156.875 22.1058 157.005 22.4876 157.261 22.7681C157.516 23.0487 157.859 23.1889 158.289 23.1889C158.562 23.1889 158.818 23.1268 159.056 23.0025C159.294 22.8746 159.485 22.6864 159.631 22.4379C159.78 22.1893 159.853 21.8821 159.849 21.5163ZM163.754 25V16.8182H165.916V18.2617H166.012C166.183 17.7823 166.467 17.4041 166.864 17.1271C167.262 16.8501 167.738 16.7116 168.292 16.7116C168.853 16.7116 169.331 16.8519 169.725 17.1325C170.119 17.4094 170.382 17.7859 170.513 18.2617H170.598C170.765 17.793 171.067 17.4183 171.504 17.1378C171.944 16.8537 172.465 16.7116 173.065 16.7116C173.828 16.7116 174.448 16.9549 174.924 17.4414C175.403 17.9244 175.643 18.6097 175.643 19.4975V25H173.379V19.945C173.379 19.4904 173.258 19.1495 173.017 18.9222C172.775 18.695 172.473 18.5813 172.111 18.5813C171.699 18.5813 171.378 18.7127 171.147 18.9755C170.916 19.2347 170.801 19.5774 170.801 20.0036V25H168.601V19.897C168.601 19.4957 168.486 19.1761 168.255 18.9382C168.027 18.7003 167.727 18.5813 167.354 18.5813C167.102 18.5813 166.875 18.6452 166.673 18.7731C166.474 18.8974 166.316 19.0732 166.199 19.3004C166.081 19.5241 166.023 19.7869 166.023 20.0888V25H163.754Z" fill="#F1EFEF"/>
</svg>
