<svg width="559" height="60" viewBox="0 0 559 60" fill="none" xmlns="http://www.w3.org/2000/svg">
<rect width="82" height="28" rx="6" fill="#936BE2"/>
<rect x="6" y="5" width="18" height="18" rx="3.5" fill="#F1EFEF"/>
<path opacity="0.4" d="M9.0625 14C9.0625 11.201 9.0625 9.80156 9.93202 8.93202C10.8016 8.0625 12.201 8.0625 15 8.0625C17.7989 8.0625 19.1984 8.0625 20.068 8.93202C20.9375 9.80156 20.9375 11.201 20.9375 14C20.9375 16.7989 20.9375 18.1984 20.068 19.068C19.1984 19.9375 17.7989 19.9375 15 19.9375C12.201 19.9375 10.8016 19.9375 9.93202 19.068C9.0625 18.1984 9.0625 16.7989 9.0625 14Z" fill="#936BE2"/>
<path d="M17.5 12.75L18.2666 13.4108C18.5889 13.6885 18.75 13.8274 18.75 14C18.75 14.1726 18.5889 14.3115 18.2666 14.5892L17.5 15.25" stroke="#936BE2" stroke-width="1.25" stroke-linecap="round" stroke-linejoin="round"/>
<path d="M12.5 12.75L11.7334 13.4108C11.4111 13.6885 11.25 13.8274 11.25 14C11.25 14.1726 11.4111 14.3115 11.7334 14.5892L12.5 15.25" stroke="#936BE2" stroke-width="1.25" stroke-linecap="round" stroke-linejoin="round"/>
<path d="M15.625 12.125L14.375 15.875" stroke="#936BE2" stroke-width="1.25" stroke-linecap="round" stroke-linejoin="round"/>
<path d="M9.0625 14C9.0625 11.201 9.0625 9.80156 9.93202 8.93202C10.8016 8.0625 12.201 8.0625 15 8.0625C17.7989 8.0625 19.1984 8.0625 20.068 8.93202C20.9375 9.80156 20.9375 11.201 20.9375 14C20.9375 16.7989 20.9375 18.1984 20.068 19.068C19.1984 19.9375 17.7989 19.9375 15 19.9375C12.201 19.9375 10.8016 19.9375 9.93202 19.068C9.0625 18.1984 9.0625 16.7989 9.0625 14Z" stroke="#936BE2" stroke-width="1.25"/>
<path d="M34.5856 12.1172C34.5392 11.683 34.3437 11.3449 33.999 11.103C33.6576 10.861 33.2135 10.7401 32.6666 10.7401C32.2821 10.7401 31.9523 10.7981 31.6772 10.9141C31.4021 11.0301 31.1917 11.1875 31.0458 11.3864C30.9 11.5852 30.8254 11.8123 30.8221 12.0675C30.8221 12.2796 30.8702 12.4635 30.9663 12.6193C31.0657 12.7751 31.2 12.9077 31.369 13.017C31.538 13.1231 31.7253 13.2126 31.9308 13.2855C32.1363 13.3584 32.3434 13.4197 32.5522 13.4695L33.5068 13.7081C33.8912 13.7976 34.2608 13.9186 34.6154 14.071C34.9734 14.2235 35.2932 14.4157 35.575 14.6477C35.86 14.8797 36.0854 15.1598 36.2511 15.4879C36.4168 15.8161 36.4997 16.2005 36.4997 16.6413C36.4997 17.2379 36.3472 17.7633 36.0423 18.2173C35.7374 18.6681 35.2965 19.0211 34.7198 19.2763C34.1465 19.5282 33.4521 19.6541 32.6367 19.6541C31.8446 19.6541 31.1569 19.5315 30.5735 19.2862C29.9935 19.041 29.5394 18.683 29.2113 18.2124C28.8865 17.7417 28.7108 17.1683 28.6843 16.4922H30.499C30.5255 16.8468 30.6349 17.1418 30.8271 17.3771C31.0193 17.6125 31.2696 17.7881 31.5778 17.9041C31.8894 18.0201 32.2374 18.0781 32.6218 18.0781C33.0229 18.0781 33.3742 18.0185 33.6758 17.8991C33.9807 17.7765 34.2194 17.6075 34.3917 17.392C34.5641 17.1733 34.6519 16.9181 34.6552 16.6264C34.6519 16.3613 34.574 16.1425 34.4215 15.9702C34.2691 15.7945 34.0553 15.6487 33.7802 15.5327C33.5084 15.4134 33.1903 15.3073 32.8257 15.2145L31.6673 14.9162C30.8287 14.7008 30.1659 14.3743 29.6786 13.9368C29.1947 13.496 28.9528 12.911 28.9528 12.1818C28.9528 11.5819 29.1152 11.0566 29.44 10.6058C29.7681 10.1551 30.2139 9.8054 30.7774 9.55682C31.3408 9.30492 31.9788 9.17898 32.6914 9.17898C33.414 9.17898 34.047 9.30492 34.5906 9.55682C35.1375 9.8054 35.5667 10.1518 35.8782 10.5959C36.1898 11.0367 36.3505 11.5438 36.3605 12.1172H34.5856ZM39.4305 19.5L37.2728 11.8636H39.1073L40.4497 17.233H40.5193L41.8914 11.8636H43.706L45.0782 17.2031H45.1528L46.4752 11.8636H48.3147L46.1521 19.5H44.2778L42.846 14.3395H42.7416L41.3097 19.5H39.4305ZM49.3613 19.5V11.8636H51.161V19.5H49.3613ZM50.2661 10.7798C49.9811 10.7798 49.7358 10.6854 49.5303 10.4964C49.3248 10.3042 49.2221 10.0739 49.2221 9.8054C49.2221 9.53362 49.3248 9.30327 49.5303 9.11435C49.7358 8.92211 49.9811 8.82599 50.2661 8.82599C50.5545 8.82599 50.7997 8.92211 51.0019 9.11435C51.2074 9.30327 51.3101 9.53362 51.3101 9.8054C51.3101 10.0739 51.2074 10.3042 51.0019 10.4964C50.7997 10.6854 50.5545 10.7798 50.2661 10.7798ZM56.6696 11.8636V13.2557H52.1554V11.8636H56.6696ZM53.2839 19.5V11.1428C53.2839 10.629 53.39 10.2015 53.6021 9.86008C53.8175 9.5187 54.1059 9.26349 54.4672 9.09446C54.8284 8.92543 55.2295 8.84091 55.6703 8.84091C55.9818 8.84091 56.2586 8.86577 56.5005 8.91548C56.7425 8.9652 56.9215 9.00994 57.0375 9.04972L56.6795 10.4418C56.6033 10.4186 56.5072 10.3954 56.3912 10.3722C56.2752 10.3456 56.1459 10.3324 56.0034 10.3324C55.6686 10.3324 55.4316 10.4136 55.2924 10.576C55.1565 10.7351 55.0886 10.9638 55.0886 11.2621V19.5H53.2839ZM61.6822 11.8636V13.2557H57.2923V11.8636H61.6822ZM58.3761 10.0341H60.1758V17.2031C60.1758 17.4451 60.2123 17.6307 60.2852 17.7599C60.3614 17.8859 60.4609 17.9721 60.5835 18.0185C60.7061 18.0649 60.842 18.0881 60.9912 18.0881C61.1039 18.0881 61.2066 18.0798 61.2994 18.0632C61.3955 18.0466 61.4684 18.0317 61.5182 18.0185L61.8214 19.4254C61.7253 19.4586 61.5878 19.495 61.4088 19.5348C61.2331 19.5746 61.0177 19.5978 60.7625 19.6044C60.3117 19.6177 59.9057 19.5497 59.5444 19.4006C59.1832 19.2481 58.8965 19.0128 58.6844 18.6946C58.4755 18.3764 58.3728 17.9787 58.3761 17.5014V10.0341ZM69.4752 9.31818H71.3197V15.9702C71.3197 16.6993 71.1474 17.3407 70.8027 17.8942C70.4613 18.4477 69.9807 18.8802 69.3609 19.1918C68.7411 19.5 68.0169 19.6541 67.1883 19.6541C66.3564 19.6541 65.6305 19.5 65.0108 19.1918C64.391 18.8802 63.9104 18.4477 63.569 17.8942C63.2276 17.3407 63.0569 16.6993 63.0569 15.9702V9.31818H64.9014V15.8161C64.9014 16.2403 64.9942 16.6181 65.1798 16.9496C65.3687 17.281 65.6339 17.5412 65.9752 17.7301C66.3166 17.9157 66.721 18.0085 67.1883 18.0085C67.6556 18.0085 68.06 17.9157 68.4014 17.7301C68.7461 17.5412 69.0112 17.281 69.1968 16.9496C69.3824 16.6181 69.4752 16.2403 69.4752 15.8161V9.31818ZM74.959 9.31818V19.5H73.1145V9.31818H74.959Z" fill="#F1EFEF"/>
<rect x="86" width="58" height="28" rx="6" fill="#3C46C9"/>
<rect x="92" y="5" width="18" height="18" rx="3.5" fill="#F1EFEF"/>
<path opacity="0.4" d="M97.2657 8.39076C96.625 9.03147 96.625 10.0627 96.625 12.1251V15.875C96.625 17.9375 96.625 18.9687 97.2657 19.6093C97.9064 20.25 98.9376 20.25 101 20.25C103.062 20.25 104.094 20.25 104.734 19.6093C105.375 18.9687 105.375 17.9375 105.375 15.875V12.1251C105.375 10.0627 105.375 9.03147 104.734 8.39076C104.326 7.98278 103.76 7.83459 102.87 7.78076L102.819 8.08382C102.699 8.80712 102.639 9.16877 102.391 9.38884C102.132 9.6184 101.765 9.62506 101 9.62506C100.235 9.62506 99.8683 9.6184 99.6095 9.38884C99.3615 9.16877 99.3012 8.80712 99.1806 8.08382L99.1301 7.78076C98.24 7.83459 97.6737 7.98278 97.2657 8.39076Z" fill="#3C46C9"/>
<path d="M96.625 12.125C96.625 10.0626 96.625 9.03141 97.2657 8.39071C97.9064 7.75 98.9376 7.75 101 7.75C103.062 7.75 104.094 7.75 104.734 8.39071C105.375 9.03141 105.375 10.0626 105.375 12.125V15.875C105.375 17.9374 105.375 18.9686 104.734 19.6093C104.094 20.25 103.062 20.25 101 20.25C98.9376 20.25 97.9064 20.25 97.2657 19.6093C96.625 18.9686 96.625 17.9374 96.625 15.875V12.125Z" stroke="#3C46C9" stroke-width="1.25" stroke-linecap="round"/>
<path d="M100.375 18.375H101.625" stroke="#3C46C9" stroke-width="1.25" stroke-linecap="round" stroke-linejoin="round"/>
<path d="M99.125 7.75L99.1806 8.08376C99.3012 8.80706 99.3615 9.16871 99.6095 9.38877C99.8683 9.61834 100.235 9.625 101 9.625C101.765 9.625 102.132 9.61834 102.391 9.38877C102.639 9.16871 102.699 8.80706 102.819 8.08376L102.875 7.75" stroke="#3C46C9" stroke-width="1.25" stroke-linejoin="round"/>
<path d="M115.343 19.5V11.8636H117.142V19.5H115.343ZM116.248 10.7798C115.963 10.7798 115.717 10.6854 115.512 10.4964C115.306 10.3042 115.204 10.0739 115.204 9.8054C115.204 9.53362 115.306 9.30327 115.512 9.11435C115.717 8.92211 115.963 8.82599 116.248 8.82599C116.536 8.82599 116.781 8.92211 116.983 9.11435C117.189 9.30327 117.292 9.53362 117.292 9.8054C117.292 10.0739 117.189 10.3042 116.983 10.4964C116.781 10.6854 116.536 10.7798 116.248 10.7798ZM127.961 14.4091C127.961 15.5062 127.755 16.4458 127.344 17.228C126.937 18.0069 126.38 18.6035 125.674 19.0178C124.971 19.4321 124.174 19.6392 123.282 19.6392C122.391 19.6392 121.592 19.4321 120.886 19.0178C120.183 18.6001 119.627 18.0019 119.216 17.223C118.808 16.4408 118.604 15.5028 118.604 14.4091C118.604 13.312 118.808 12.3741 119.216 11.5952C119.627 10.813 120.183 10.2147 120.886 9.80043C121.592 9.38613 122.391 9.17898 123.282 9.17898C124.174 9.17898 124.971 9.38613 125.674 9.80043C126.38 10.2147 126.937 10.813 127.344 11.5952C127.755 12.3741 127.961 13.312 127.961 14.4091ZM126.106 14.4091C126.106 13.6368 125.985 12.9856 125.743 12.4553C125.505 11.9216 125.173 11.5189 124.749 11.2472C124.325 10.9721 123.836 10.8345 123.282 10.8345C122.729 10.8345 122.24 10.9721 121.816 11.2472C121.392 11.5189 121.058 11.9216 120.816 12.4553C120.578 12.9856 120.459 13.6368 120.459 14.4091C120.459 15.1813 120.578 15.8343 120.816 16.3679C121.058 16.8982 121.392 17.3009 121.816 17.576C122.24 17.8478 122.729 17.9837 123.282 17.9837C123.836 17.9837 124.325 17.8478 124.749 17.576C125.173 17.3009 125.505 16.8982 125.743 16.3679C125.985 15.8343 126.106 15.1813 126.106 14.4091ZM135.028 12.1172C134.981 11.683 134.786 11.3449 134.441 11.103C134.1 10.861 133.656 10.7401 133.109 10.7401C132.724 10.7401 132.395 10.7981 132.119 10.9141C131.844 11.0301 131.634 11.1875 131.488 11.3864C131.342 11.5852 131.268 11.8123 131.264 12.0675C131.264 12.2796 131.312 12.4635 131.409 12.6193C131.508 12.7751 131.642 12.9077 131.811 13.017C131.98 13.1231 132.168 13.2126 132.373 13.2855C132.579 13.3584 132.786 13.4197 132.994 13.4695L133.949 13.7081C134.333 13.7976 134.703 13.9186 135.058 14.071C135.416 14.2235 135.735 14.4157 136.017 14.6477C136.302 14.8797 136.528 15.1598 136.693 15.4879C136.859 15.8161 136.942 16.2005 136.942 16.6413C136.942 17.2379 136.789 17.7633 136.485 18.2173C136.18 18.6681 135.739 19.0211 135.162 19.2763C134.589 19.5282 133.894 19.6541 133.079 19.6541C132.287 19.6541 131.599 19.5315 131.016 19.2862C130.436 19.041 129.982 18.683 129.654 18.2124C129.329 17.7417 129.153 17.1683 129.127 16.4922H130.941C130.968 16.8468 131.077 17.1418 131.269 17.3771C131.462 17.6125 131.712 17.7881 132.02 17.9041C132.332 18.0201 132.68 18.0781 133.064 18.0781C133.465 18.0781 133.816 18.0185 134.118 17.8991C134.423 17.7765 134.662 17.6075 134.834 17.392C135.006 17.1733 135.094 16.9181 135.097 16.6264C135.094 16.3613 135.016 16.1425 134.864 15.9702C134.711 15.7945 134.498 15.6487 134.222 15.5327C133.951 15.4134 133.632 15.3073 133.268 15.2145L132.11 14.9162C131.271 14.7008 130.608 14.3743 130.121 13.9368C129.637 13.496 129.395 12.911 129.395 12.1818C129.395 11.5819 129.557 11.0566 129.882 10.6058C130.21 10.1551 130.656 9.8054 131.22 9.55682C131.783 9.30492 132.421 9.17898 133.134 9.17898C133.856 9.17898 134.489 9.30492 135.033 9.55682C135.58 9.8054 136.009 10.1518 136.32 10.5959C136.632 11.0367 136.793 11.5438 136.803 12.1172H135.028Z" fill="#F1EFEF"/>
<rect x="148" width="58" height="28" rx="6" fill="#3C46C9"/>
<rect x="154" y="5" width="18" height="18" rx="3.5" fill="#F1EFEF"/>
<path opacity="0.4" d="M164.562 7.75H161.438C159.67 7.75 158.786 7.75 158.237 8.29917C157.688 8.84835 157.688 9.73223 157.688 11.5V16.5C157.688 18.2677 157.688 19.1516 158.237 19.7008C158.786 20.25 159.67 20.25 161.438 20.25H164.562C166.33 20.25 167.214 20.25 167.763 19.7008C168.312 19.1516 168.312 18.2677 168.312 16.5V11.5C168.312 9.73223 168.312 8.84835 167.763 8.29917C167.214 7.75 166.33 7.75 164.562 7.75Z" fill="#3C46C9"/>
<path d="M164.562 7.75H161.438C159.67 7.75 158.786 7.75 158.237 8.29917C157.688 8.84835 157.688 9.73223 157.688 11.5V16.5C157.688 18.2677 157.688 19.1516 158.237 19.7008C158.786 20.25 159.67 20.25 161.438 20.25H164.562C166.33 20.25 167.214 20.25 167.763 19.7008C168.312 19.1516 168.312 18.2677 168.312 16.5V11.5C168.312 9.73223 168.312 8.84835 167.763 8.29917C167.214 7.75 166.33 7.75 164.562 7.75Z" stroke="#3C46C9" stroke-width="1.25" stroke-linecap="round"/>
<path d="M163 18.375H163.006" stroke="#3C46C9" stroke-width="1.25" stroke-linecap="round"/>
<path d="M177.343 19.5V11.8636H179.142V19.5H177.343ZM178.248 10.7798C177.963 10.7798 177.717 10.6854 177.512 10.4964C177.306 10.3042 177.204 10.0739 177.204 9.8054C177.204 9.53362 177.306 9.30327 177.512 9.11435C177.717 8.92211 177.963 8.82599 178.248 8.82599C178.536 8.82599 178.781 8.92211 178.983 9.11435C179.189 9.30327 179.292 9.53362 179.292 9.8054C179.292 10.0739 179.189 10.3042 178.983 10.4964C178.781 10.6854 178.536 10.7798 178.248 10.7798ZM189.961 14.4091C189.961 15.5062 189.755 16.4458 189.344 17.228C188.937 18.0069 188.38 18.6035 187.674 19.0178C186.971 19.4321 186.174 19.6392 185.282 19.6392C184.391 19.6392 183.592 19.4321 182.886 19.0178C182.183 18.6001 181.627 18.0019 181.216 17.223C180.808 16.4408 180.604 15.5028 180.604 14.4091C180.604 13.312 180.808 12.3741 181.216 11.5952C181.627 10.813 182.183 10.2147 182.886 9.80043C183.592 9.38613 184.391 9.17898 185.282 9.17898C186.174 9.17898 186.971 9.38613 187.674 9.80043C188.38 10.2147 188.937 10.813 189.344 11.5952C189.755 12.3741 189.961 13.312 189.961 14.4091ZM188.106 14.4091C188.106 13.6368 187.985 12.9856 187.743 12.4553C187.505 11.9216 187.173 11.5189 186.749 11.2472C186.325 10.9721 185.836 10.8345 185.282 10.8345C184.729 10.8345 184.24 10.9721 183.816 11.2472C183.392 11.5189 183.058 11.9216 182.816 12.4553C182.578 12.9856 182.459 13.6368 182.459 14.4091C182.459 15.1813 182.578 15.8343 182.816 16.3679C183.058 16.8982 183.392 17.3009 183.816 17.576C184.24 17.8478 184.729 17.9837 185.282 17.9837C185.836 17.9837 186.325 17.8478 186.749 17.576C187.173 17.3009 187.505 16.8982 187.743 16.3679C187.985 15.8343 188.106 15.1813 188.106 14.4091ZM197.028 12.1172C196.981 11.683 196.786 11.3449 196.441 11.103C196.1 10.861 195.656 10.7401 195.109 10.7401C194.724 10.7401 194.395 10.7981 194.119 10.9141C193.844 11.0301 193.634 11.1875 193.488 11.3864C193.342 11.5852 193.268 11.8123 193.264 12.0675C193.264 12.2796 193.312 12.4635 193.409 12.6193C193.508 12.7751 193.642 12.9077 193.811 13.017C193.98 13.1231 194.168 13.2126 194.373 13.2855C194.579 13.3584 194.786 13.4197 194.994 13.4695L195.949 13.7081C196.333 13.7976 196.703 13.9186 197.058 14.071C197.416 14.2235 197.735 14.4157 198.017 14.6477C198.302 14.8797 198.528 15.1598 198.693 15.4879C198.859 15.8161 198.942 16.2005 198.942 16.6413C198.942 17.2379 198.789 17.7633 198.485 18.2173C198.18 18.6681 197.739 19.0211 197.162 19.2763C196.589 19.5282 195.894 19.6541 195.079 19.6541C194.287 19.6541 193.599 19.5315 193.016 19.2862C192.436 19.041 191.982 18.683 191.654 18.2124C191.329 17.7417 191.153 17.1683 191.127 16.4922H192.941C192.968 16.8468 193.077 17.1418 193.269 17.3771C193.462 17.6125 193.712 17.7881 194.02 17.9041C194.332 18.0201 194.68 18.0781 195.064 18.0781C195.465 18.0781 195.816 18.0185 196.118 17.8991C196.423 17.7765 196.662 17.6075 196.834 17.392C197.006 17.1733 197.094 16.9181 197.097 16.6264C197.094 16.3613 197.016 16.1425 196.864 15.9702C196.711 15.7945 196.498 15.6487 196.222 15.5327C195.951 15.4134 195.632 15.3073 195.268 15.2145L194.11 14.9162C193.271 14.7008 192.608 14.3743 192.121 13.9368C191.637 13.496 191.395 12.911 191.395 12.1818C191.395 11.5819 191.557 11.0566 191.882 10.6058C192.21 10.1551 192.656 9.8054 193.22 9.55682C193.783 9.30492 194.421 9.17898 195.134 9.17898C195.856 9.17898 196.489 9.30492 197.033 9.55682C197.58 9.8054 198.009 10.1518 198.32 10.5959C198.632 11.0367 198.793 11.5438 198.803 12.1172H197.028Z" fill="#F1EFEF"/>
<rect x="210" width="82" height="28" rx="6" fill="#3C46C9"/>
<rect x="216" y="5" width="18" height="18" rx="3.5" fill="#F1EFEF"/>
<path opacity="0.4" d="M226.25 7.75H223.75C221.7 7.75 220.676 7.75 219.949 8.25864C219.681 8.44681 219.447 8.68057 219.259 8.94932C218.75 9.67572 218.75 10.7005 218.75 12.75C218.75 14.7995 218.75 15.8242 219.259 16.5507C219.447 16.8194 219.681 17.0532 219.949 17.2414C220.676 17.75 221.7 17.75 223.75 17.75H226.25C228.3 17.75 229.324 17.75 230.051 17.2414C230.319 17.0532 230.553 16.8194 230.741 16.5507C231.25 15.8242 231.25 14.7995 231.25 12.75C231.25 10.7005 231.25 9.67572 230.741 8.94932C230.553 8.68057 230.319 8.44681 230.051 8.25864C229.324 7.75 228.3 7.75 226.25 7.75Z" fill="#3C46C9"/>
<path d="M226.25 7.75H223.75C221.7 7.75 220.676 7.75 219.949 8.25864C219.681 8.44681 219.447 8.68057 219.259 8.94932C218.75 9.67572 218.75 10.7005 218.75 12.75C218.75 14.7995 218.75 15.8242 219.259 16.5507C219.447 16.8194 219.681 17.0532 219.949 17.2414C220.676 17.75 221.7 17.75 223.75 17.75H226.25C228.3 17.75 229.324 17.75 230.051 17.2414C230.319 17.0532 230.553 16.8194 230.741 16.5507C231.25 15.8242 231.25 14.7995 231.25 12.75C231.25 10.7005 231.25 9.67572 230.741 8.94932C230.553 8.68057 230.319 8.44681 230.051 8.25864C229.324 7.75 228.3 7.75 226.25 7.75Z" stroke="#3C46C9" stroke-width="1.25" stroke-linecap="round"/>
<path d="M224.375 15.875H225.625" stroke="#3C46C9" stroke-width="1.25" stroke-linecap="round" stroke-linejoin="round"/>
<path d="M226.562 20.25L226.365 19.9882C225.921 19.3981 225.811 18.4965 226.092 17.75M223.438 20.25L223.635 19.9882C224.079 19.3981 224.189 18.4965 223.908 17.75" stroke="#3C46C9" stroke-width="1.25" stroke-linecap="round"/>
<path d="M221.875 20.25H228.125" stroke="#3C46C9" stroke-width="1.25" stroke-linecap="round"/>
<path d="M239.036 19.5V11.8636H240.756V13.1612H240.846C241.005 12.7237 241.268 12.3823 241.636 12.1371C242.004 11.8885 242.443 11.7642 242.954 11.7642C243.471 11.7642 243.907 11.8902 244.261 12.142C244.619 12.3906 244.871 12.7304 245.017 13.1612H245.096C245.266 12.737 245.551 12.3989 245.952 12.147C246.356 11.8918 246.835 11.7642 247.388 11.7642C248.091 11.7642 248.664 11.9863 249.109 12.4304C249.553 12.8745 249.775 13.5225 249.775 14.3743V19.5H247.97V14.6527C247.97 14.1787 247.844 13.8324 247.592 13.6136C247.34 13.3916 247.032 13.2805 246.668 13.2805C246.233 13.2805 245.894 13.4164 245.648 13.6882C245.406 13.9567 245.285 14.3063 245.285 14.7372V19.5H243.52V14.5781C243.52 14.1837 243.401 13.8688 243.163 13.6335C242.927 13.3982 242.619 13.2805 242.238 13.2805C241.979 13.2805 241.744 13.3468 241.532 13.4794C241.32 13.6087 241.151 13.7926 241.025 14.0312C240.899 14.2666 240.836 14.5417 240.836 14.8565V19.5H239.036ZM253.588 19.6541C253.104 19.6541 252.668 19.5679 252.28 19.3956C251.896 19.2199 251.591 18.9614 251.366 18.62C251.144 18.2786 251.033 17.8577 251.033 17.3572C251.033 16.9264 251.112 16.5701 251.271 16.2884C251.43 16.0066 251.647 15.7812 251.923 15.6122C252.198 15.4432 252.508 15.3156 252.852 15.2294C253.2 15.1399 253.56 15.0753 253.931 15.0355C254.379 14.9891 254.741 14.9477 255.02 14.9112C255.298 14.8714 255.5 14.8118 255.626 14.7322C255.756 14.6494 255.82 14.5218 255.82 14.3494V14.3196C255.82 13.9451 255.709 13.6551 255.487 13.4496C255.265 13.2441 254.945 13.1413 254.528 13.1413C254.087 13.1413 253.737 13.2375 253.479 13.4297C253.223 13.6219 253.051 13.849 252.962 14.1108L251.281 13.8722C251.414 13.4081 251.633 13.0204 251.937 12.7088C252.242 12.3939 252.615 12.1586 253.056 12.0028C253.497 11.8438 253.984 11.7642 254.518 11.7642C254.886 11.7642 255.252 11.8073 255.616 11.8935C255.981 11.9796 256.314 12.1222 256.616 12.321C256.917 12.5166 257.159 12.7834 257.342 13.1214C257.527 13.4595 257.62 13.8821 257.62 14.3892V19.5H255.89V18.451H255.83C255.721 18.6631 255.567 18.862 255.368 19.0476C255.172 19.2299 254.925 19.3774 254.627 19.4901C254.332 19.5994 253.986 19.6541 253.588 19.6541ZM254.055 18.3317C254.417 18.3317 254.73 18.2604 254.995 18.1179C255.26 17.9721 255.464 17.7798 255.606 17.5412C255.752 17.3026 255.825 17.0424 255.825 16.7607V15.8608C255.769 15.9072 255.673 15.9503 255.537 15.9901C255.404 16.0298 255.255 16.0646 255.089 16.0945C254.924 16.1243 254.76 16.1508 254.597 16.174C254.435 16.1972 254.294 16.2171 254.175 16.2337C253.906 16.2701 253.666 16.3298 253.454 16.4126C253.242 16.4955 253.074 16.6115 252.952 16.7607C252.829 16.9065 252.768 17.0954 252.768 17.3274C252.768 17.6589 252.889 17.9091 253.131 18.0781C253.373 18.2472 253.681 18.3317 254.055 18.3317ZM262.551 19.6491C261.788 19.6491 261.134 19.4818 260.587 19.147C260.043 18.8123 259.624 18.3499 259.329 17.7599C259.037 17.1667 258.892 16.4839 258.892 15.7116C258.892 14.9361 259.041 14.2517 259.339 13.6584C259.637 13.0618 260.058 12.5978 260.602 12.2663C261.149 11.9316 261.795 11.7642 262.541 11.7642C263.16 11.7642 263.709 11.8786 264.186 12.1072C264.667 12.3326 265.05 12.6525 265.335 13.0668C265.62 13.4777 265.782 13.9583 265.822 14.5085H264.102C264.032 14.1406 263.866 13.834 263.605 13.5888C263.346 13.3402 263 13.2159 262.566 13.2159C262.198 13.2159 261.874 13.3153 261.596 13.5142C261.318 13.7098 261.101 13.9915 260.945 14.3594C260.792 14.7273 260.716 15.1681 260.716 15.6818C260.716 16.2022 260.792 16.6496 260.945 17.0241C261.097 17.3954 261.311 17.6821 261.586 17.8842C261.865 18.0831 262.191 18.1825 262.566 18.1825C262.831 18.1825 263.068 18.1328 263.276 18.0334C263.489 17.9306 263.666 17.7831 263.808 17.5909C263.951 17.3987 264.049 17.165 264.102 16.8899H265.822C265.779 17.4302 265.62 17.9091 265.345 18.3267C265.07 18.741 264.695 19.0658 264.221 19.3011C263.747 19.5331 263.19 19.6491 262.551 19.6491ZM276.267 14.4091C276.267 15.5062 276.062 16.4458 275.651 17.228C275.243 18.0069 274.686 18.6035 273.98 19.0178C273.278 19.4321 272.481 19.6392 271.589 19.6392C270.697 19.6392 269.899 19.4321 269.193 19.0178C268.49 18.6001 267.933 18.0019 267.522 17.223C267.115 16.4408 266.911 15.5028 266.911 14.4091C266.911 13.312 267.115 12.3741 267.522 11.5952C267.933 10.813 268.49 10.2147 269.193 9.80043C269.899 9.38613 270.697 9.17898 271.589 9.17898C272.481 9.17898 273.278 9.38613 273.98 9.80043C274.686 10.2147 275.243 10.813 275.651 11.5952C276.062 12.3741 276.267 13.312 276.267 14.4091ZM274.413 14.4091C274.413 13.6368 274.292 12.9856 274.05 12.4553C273.811 11.9216 273.48 11.5189 273.056 11.2472C272.631 10.9721 272.143 10.8345 271.589 10.8345C271.036 10.8345 270.547 10.9721 270.122 11.2472C269.698 11.5189 269.365 11.9216 269.123 12.4553C268.884 12.9856 268.765 13.6368 268.765 14.4091C268.765 15.1813 268.884 15.8343 269.123 16.3679C269.365 16.8982 269.698 17.3009 270.122 17.576C270.547 17.8478 271.036 17.9837 271.589 17.9837C272.143 17.9837 272.631 17.8478 273.056 17.576C273.48 17.3009 273.811 16.8982 274.05 16.3679C274.292 15.8343 274.413 15.1813 274.413 14.4091ZM283.334 12.1172C283.288 11.683 283.092 11.3449 282.748 11.103C282.406 10.861 281.962 10.7401 281.415 10.7401C281.031 10.7401 280.701 10.7981 280.426 10.9141C280.151 11.0301 279.941 11.1875 279.795 11.3864C279.649 11.5852 279.574 11.8123 279.571 12.0675C279.571 12.2796 279.619 12.4635 279.715 12.6193C279.815 12.7751 279.949 12.9077 280.118 13.017C280.287 13.1231 280.474 13.2126 280.68 13.2855C280.885 13.3584 281.092 13.4197 281.301 13.4695L282.256 13.7081C282.64 13.7976 283.01 13.9186 283.364 14.071C283.722 14.2235 284.042 14.4157 284.324 14.6477C284.609 14.8797 284.834 15.1598 285 15.4879C285.166 15.8161 285.249 16.2005 285.249 16.6413C285.249 17.2379 285.096 17.7633 284.791 18.2173C284.486 18.6681 284.045 19.0211 283.469 19.2763C282.895 19.5282 282.201 19.6541 281.386 19.6541C280.593 19.6541 279.906 19.5315 279.322 19.2862C278.742 19.041 278.288 18.683 277.96 18.2124C277.635 17.7417 277.46 17.1683 277.433 16.4922H279.248C279.274 16.8468 279.384 17.1418 279.576 17.3771C279.768 17.6125 280.018 17.7881 280.327 17.9041C280.638 18.0201 280.986 18.0781 281.371 18.0781C281.772 18.0781 282.123 18.0185 282.425 17.8991C282.73 17.7765 282.968 17.6075 283.141 17.392C283.313 17.1733 283.401 16.9181 283.404 16.6264C283.401 16.3613 283.323 16.1425 283.17 15.9702C283.018 15.7945 282.804 15.6487 282.529 15.5327C282.257 15.4134 281.939 15.3073 281.574 15.2145L280.416 14.9162C279.578 14.7008 278.915 14.3743 278.427 13.9368C277.944 13.496 277.702 12.911 277.702 12.1818C277.702 11.5819 277.864 11.0566 278.189 10.6058C278.517 10.1551 278.963 9.8054 279.526 9.55682C280.09 9.30492 280.728 9.17898 281.44 9.17898C282.163 9.17898 282.796 9.30492 283.339 9.55682C283.886 9.8054 284.316 10.1518 284.627 10.5959C284.939 11.0367 285.099 11.5438 285.109 12.1172H283.334Z" fill="#F1EFEF"/>
<rect x="296" width="67" height="28" rx="6" fill="#3C46C9"/>
<rect x="302" y="5" width="18" height="18" rx="3.5" fill="#F1EFEF"/>
<path opacity="0.4" d="M312.25 8.375H309.75C307.393 8.375 306.214 8.375 305.482 9.10723C304.75 9.83947 304.75 11.018 304.75 13.375C304.75 15.732 304.75 16.9106 305.482 17.6427C306.214 18.375 307.393 18.375 309.75 18.375H312.25C314.607 18.375 315.786 18.375 316.518 17.6427C317.25 16.9106 317.25 15.732 317.25 13.375C317.25 11.018 317.25 9.83947 316.518 9.10723C315.786 8.375 314.607 8.375 312.25 8.375Z" fill="#3C46C9"/>
<path d="M312.25 8.375H309.75C307.393 8.375 306.214 8.375 305.482 9.10723C304.75 9.83947 304.75 11.018 304.75 13.375C304.75 15.732 304.75 16.9106 305.482 17.6427C306.214 18.375 307.393 18.375 309.75 18.375H312.25C314.607 18.375 315.786 18.375 316.518 17.6427C317.25 16.9106 317.25 15.732 317.25 13.375C317.25 11.018 317.25 9.83947 316.518 9.10723C315.786 8.375 314.607 8.375 312.25 8.375Z" stroke="#3C46C9" stroke-width="1.25" stroke-linecap="round"/>
<path d="M314.75 18.375L315.375 19.625" stroke="#3C46C9" stroke-width="1.25" stroke-linecap="round" stroke-linejoin="round"/>
<path d="M307.25 18.375L306.625 19.625" stroke="#3C46C9" stroke-width="1.25" stroke-linecap="round" stroke-linejoin="round"/>
<path d="M328.894 11.8636V13.2557H324.504V11.8636H328.894ZM325.588 10.0341H327.387V17.2031C327.387 17.4451 327.424 17.6307 327.497 17.7599C327.573 17.8859 327.672 17.9721 327.795 18.0185C327.918 18.0649 328.054 18.0881 328.203 18.0881C328.315 18.0881 328.418 18.0798 328.511 18.0632C328.607 18.0466 328.68 18.0317 328.73 18.0185L329.033 19.4254C328.937 19.4586 328.799 19.495 328.62 19.5348C328.445 19.5746 328.229 19.5978 327.974 19.6044C327.523 19.6177 327.117 19.5497 326.756 19.4006C326.395 19.2481 326.108 19.0128 325.896 18.6946C325.687 18.3764 325.584 17.9787 325.588 17.5014V10.0341ZM337.01 11.8636L334.29 19.5H332.302L329.582 11.8636H331.501L333.256 17.5362H333.336L335.096 11.8636H337.01ZM347.223 14.4091C347.223 15.5062 347.017 16.4458 346.606 17.228C346.199 18.0069 345.642 18.6035 344.936 19.0178C344.233 19.4321 343.436 19.6392 342.545 19.6392C341.653 19.6392 340.854 19.4321 340.148 19.0178C339.446 18.6001 338.889 18.0019 338.478 17.223C338.07 16.4408 337.866 15.5028 337.866 14.4091C337.866 13.312 338.07 12.3741 338.478 11.5952C338.889 10.813 339.446 10.2147 340.148 9.80043C340.854 9.38613 341.653 9.17898 342.545 9.17898C343.436 9.17898 344.233 9.38613 344.936 9.80043C345.642 10.2147 346.199 10.813 346.606 11.5952C347.017 12.3741 347.223 13.312 347.223 14.4091ZM345.368 14.4091C345.368 13.6368 345.247 12.9856 345.006 12.4553C344.767 11.9216 344.435 11.5189 344.011 11.2472C343.587 10.9721 343.098 10.8345 342.545 10.8345C341.991 10.8345 341.502 10.9721 341.078 11.2472C340.654 11.5189 340.321 11.9216 340.079 12.4553C339.84 12.9856 339.721 13.6368 339.721 14.4091C339.721 15.1813 339.84 15.8343 340.079 16.3679C340.321 16.8982 340.654 17.3009 341.078 17.576C341.502 17.8478 341.991 17.9837 342.545 17.9837C343.098 17.9837 343.587 17.8478 344.011 17.576C344.435 17.3009 344.767 16.8982 345.006 16.3679C345.247 15.8343 345.368 15.1813 345.368 14.4091ZM354.29 12.1172C354.244 11.683 354.048 11.3449 353.703 11.103C353.362 10.861 352.918 10.7401 352.371 10.7401C351.987 10.7401 351.657 10.7981 351.382 10.9141C351.107 11.0301 350.896 11.1875 350.75 11.3864C350.604 11.5852 350.53 11.8123 350.527 12.0675C350.527 12.2796 350.575 12.4635 350.671 12.6193C350.77 12.7751 350.904 12.9077 351.073 13.017C351.242 13.1231 351.43 13.2126 351.635 13.2855C351.841 13.3584 352.048 13.4197 352.257 13.4695L353.211 13.7081C353.596 13.7976 353.965 13.9186 354.32 14.071C354.678 14.2235 354.998 14.4157 355.279 14.6477C355.564 14.8797 355.79 15.1598 355.956 15.4879C356.121 15.8161 356.204 16.2005 356.204 16.6413C356.204 17.2379 356.052 17.7633 355.747 18.2173C355.442 18.6681 355.001 19.0211 354.424 19.2763C353.851 19.5282 353.157 19.6541 352.341 19.6541C351.549 19.6541 350.861 19.5315 350.278 19.2862C349.698 19.041 349.244 18.683 348.916 18.2124C348.591 17.7417 348.415 17.1683 348.389 16.4922H350.203C350.23 16.8468 350.339 17.1418 350.532 17.3771C350.724 17.6125 350.974 17.7881 351.282 17.9041C351.594 18.0201 351.942 18.0781 352.326 18.0781C352.727 18.0781 353.079 18.0185 353.38 17.8991C353.685 17.7765 353.924 17.6075 354.096 17.392C354.268 17.1733 354.356 16.9181 354.36 16.6264C354.356 16.3613 354.278 16.1425 354.126 15.9702C353.974 15.7945 353.76 15.6487 353.485 15.5327C353.213 15.4134 352.895 15.3073 352.53 15.2145L351.372 14.9162C350.533 14.7008 349.87 14.3743 349.383 13.9368C348.899 13.496 348.657 12.911 348.657 12.1818C348.657 11.5819 348.82 11.0566 349.144 10.6058C349.473 10.1551 349.918 9.8054 350.482 9.55682C351.045 9.30492 351.683 9.17898 352.396 9.17898C353.118 9.17898 353.751 9.30492 354.295 9.55682C354.842 9.8054 355.271 10.1518 355.583 10.5959C355.894 11.0367 356.055 11.5438 356.065 12.1172H354.29Z" fill="#F1EFEF"/>
<rect x="367" width="95" height="28" rx="6" fill="#3C46C9"/>
<rect x="373" y="5" width="18" height="18" rx="3.5" fill="#F1EFEF"/>
<path opacity="0.4" d="M378.875 13.375C378.875 12.1965 378.875 11.6072 379.241 11.2411C379.607 10.875 380.196 10.875 381.375 10.875H382.625C383.803 10.875 384.393 10.875 384.759 11.2411C385.125 11.6072 385.125 12.1965 385.125 13.375V14.625C385.125 15.8035 385.125 16.3927 384.759 16.7589C384.393 17.125 383.803 17.125 382.625 17.125H381.375C380.196 17.125 379.607 17.125 379.241 16.7589C378.875 16.3927 378.875 15.8035 378.875 14.625V13.375Z" fill="#3C46C9"/>
<path d="M378.875 13.375C378.875 12.1965 378.875 11.6072 379.241 11.2411C379.607 10.875 380.196 10.875 381.375 10.875H382.625C383.803 10.875 384.393 10.875 384.759 11.2411C385.125 11.6072 385.125 12.1965 385.125 13.375V14.625C385.125 15.8035 385.125 16.3927 384.759 16.7589C384.393 17.125 383.803 17.125 382.625 17.125H381.375C380.196 17.125 379.607 17.125 379.241 16.7589C378.875 16.3927 378.875 15.8035 378.875 14.625V13.375Z" stroke="#3C46C9" stroke-width="1.25"/>
<path d="M379.812 10.875C379.812 10.875 380.243 10.038 380.34 9.00058C380.393 8.43828 380.419 8.15712 380.577 7.99796C380.736 7.83879 380.927 7.82009 381.309 7.78269C381.511 7.76294 381.741 7.75 382 7.75C382.259 7.75 382.489 7.76294 382.691 7.78269C383.073 7.82009 383.264 7.83879 383.423 7.99796C383.581 8.15712 383.607 8.43828 383.66 9.00058C383.757 10.038 384.188 10.875 384.188 10.875" stroke="#3C46C9" stroke-width="1.25" stroke-linecap="round" stroke-linejoin="round"/>
<path d="M384.188 17.125C384.188 17.125 383.757 17.962 383.66 18.9994C383.607 19.5617 383.581 19.8429 383.423 20.0021C383.264 20.1612 383.073 20.1799 382.691 20.2173C382.489 20.2371 382.259 20.25 382 20.25C381.741 20.25 381.511 20.2371 381.309 20.2173C380.927 20.1799 380.736 20.1612 380.577 20.0021C380.419 19.8429 380.393 19.5617 380.34 18.9994C380.243 17.962 379.812 17.125 379.812 17.125" stroke="#3C46C9" stroke-width="1.25" stroke-linecap="round" stroke-linejoin="round"/>
<path d="M397.835 19.5L395.677 11.8636H397.512L398.854 17.233H398.924L400.296 11.8636H402.11L403.483 17.2031H403.557L404.88 11.8636H406.719L404.556 19.5H402.682L401.25 14.3395H401.146L399.714 19.5H397.835ZM409.963 19.6541C409.479 19.6541 409.043 19.5679 408.656 19.3956C408.271 19.2199 407.966 18.9614 407.741 18.62C407.519 18.2786 407.408 17.8577 407.408 17.3572C407.408 16.9264 407.487 16.5701 407.646 16.2884C407.805 16.0066 408.022 15.7812 408.298 15.6122C408.573 15.4432 408.883 15.3156 409.227 15.2294C409.575 15.1399 409.935 15.0753 410.306 15.0355C410.754 14.9891 411.116 14.9477 411.395 14.9112C411.673 14.8714 411.875 14.8118 412.001 14.7322C412.131 14.6494 412.195 14.5218 412.195 14.3494V14.3196C412.195 13.9451 412.084 13.6551 411.862 13.4496C411.64 13.2441 411.32 13.1413 410.903 13.1413C410.462 13.1413 410.112 13.2375 409.854 13.4297C409.598 13.6219 409.426 13.849 409.337 14.1108L407.656 13.8722C407.789 13.4081 408.008 13.0204 408.312 12.7088C408.617 12.3939 408.99 12.1586 409.431 12.0028C409.872 11.8438 410.359 11.7642 410.893 11.7642C411.261 11.7642 411.627 11.8073 411.991 11.8935C412.356 11.9796 412.689 12.1222 412.991 12.321C413.292 12.5166 413.534 12.7834 413.717 13.1214C413.902 13.4595 413.995 13.8821 413.995 14.3892V19.5H412.265V18.451H412.205C412.096 18.6631 411.942 18.862 411.743 19.0476C411.547 19.2299 411.3 19.3774 411.002 19.4901C410.707 19.5994 410.361 19.6541 409.963 19.6541ZM410.43 18.3317C410.792 18.3317 411.105 18.2604 411.37 18.1179C411.635 17.9721 411.839 17.7798 411.982 17.5412C412.127 17.3026 412.2 17.0424 412.2 16.7607V15.8608C412.144 15.9072 412.048 15.9503 411.912 15.9901C411.779 16.0298 411.63 16.0646 411.464 16.0945C411.299 16.1243 411.135 16.1508 410.972 16.174C410.81 16.1972 410.669 16.2171 410.55 16.2337C410.281 16.2701 410.041 16.3298 409.829 16.4126C409.617 16.4955 409.449 16.6115 409.327 16.7607C409.204 16.9065 409.143 17.0954 409.143 17.3274C409.143 17.6589 409.264 17.9091 409.506 18.0781C409.748 18.2472 410.056 18.3317 410.43 18.3317ZM419.408 11.8636V13.2557H415.018V11.8636H419.408ZM416.102 10.0341H417.901V17.2031C417.901 17.4451 417.938 17.6307 418.011 17.7599C418.087 17.8859 418.187 17.9721 418.309 18.0185C418.432 18.0649 418.568 18.0881 418.717 18.0881C418.83 18.0881 418.932 18.0798 419.025 18.0632C419.121 18.0466 419.194 18.0317 419.244 18.0185L419.547 19.4254C419.451 19.4586 419.313 19.495 419.134 19.5348C418.959 19.5746 418.743 19.5978 418.488 19.6044C418.037 19.6177 417.631 19.5497 417.27 19.4006C416.909 19.2481 416.622 19.0128 416.41 18.6946C416.201 18.3764 416.098 17.9787 416.102 17.5014V10.0341ZM423.952 19.6491C423.19 19.6491 422.535 19.4818 421.988 19.147C421.445 18.8123 421.025 18.3499 420.73 17.7599C420.439 17.1667 420.293 16.4839 420.293 15.7116C420.293 14.9361 420.442 14.2517 420.74 13.6584C421.039 13.0618 421.46 12.5978 422.003 12.2663C422.55 11.9316 423.196 11.7642 423.942 11.7642C424.562 11.7642 425.11 11.8786 425.588 12.1072C426.068 12.3326 426.451 12.6525 426.736 13.0668C427.021 13.4777 427.184 13.9583 427.223 14.5085H425.503C425.434 14.1406 425.268 13.834 425.006 13.5888C424.747 13.3402 424.401 13.2159 423.967 13.2159C423.599 13.2159 423.276 13.3153 422.997 13.5142C422.719 13.7098 422.502 13.9915 422.346 14.3594C422.194 14.7273 422.117 15.1681 422.117 15.6818C422.117 16.2022 422.194 16.6496 422.346 17.0241C422.499 17.3954 422.712 17.6821 422.987 17.8842C423.266 18.0831 423.592 18.1825 423.967 18.1825C424.232 18.1825 424.469 18.1328 424.678 18.0334C424.89 17.9306 425.067 17.7831 425.21 17.5909C425.352 17.3987 425.45 17.165 425.503 16.8899H427.223C427.18 17.4302 427.021 17.9091 426.746 18.3267C426.471 18.741 426.096 19.0658 425.622 19.3011C425.148 19.5331 424.592 19.6491 423.952 19.6491ZM430.291 15.0256V19.5H428.491V9.31818H430.251V13.1612H430.341C430.519 12.7304 430.796 12.3906 431.171 12.142C431.549 11.8902 432.029 11.7642 432.613 11.7642C433.143 11.7642 433.605 11.8752 434 12.0973C434.394 12.3194 434.699 12.6442 434.914 13.0717C435.133 13.4993 435.243 14.0213 435.243 14.6378V19.5H433.443V14.9162C433.443 14.4025 433.31 14.0031 433.045 13.718C432.783 13.4297 432.415 13.2855 431.941 13.2855C431.623 13.2855 431.338 13.3551 431.086 13.4943C430.838 13.6302 430.642 13.8274 430.5 14.0859C430.36 14.3445 430.291 14.6577 430.291 15.0256ZM446.045 14.4091C446.045 15.5062 445.839 16.4458 445.428 17.228C445.02 18.0069 444.464 18.6035 443.758 19.0178C443.055 19.4321 442.258 19.6392 441.366 19.6392C440.475 19.6392 439.676 19.4321 438.97 19.0178C438.267 18.6001 437.711 18.0019 437.3 17.223C436.892 16.4408 436.688 15.5028 436.688 14.4091C436.688 13.312 436.892 12.3741 437.3 11.5952C437.711 10.813 438.267 10.2147 438.97 9.80043C439.676 9.38613 440.475 9.17898 441.366 9.17898C442.258 9.17898 443.055 9.38613 443.758 9.80043C444.464 10.2147 445.02 10.813 445.428 11.5952C445.839 12.3741 446.045 13.312 446.045 14.4091ZM444.19 14.4091C444.19 13.6368 444.069 12.9856 443.827 12.4553C443.589 11.9216 443.257 11.5189 442.833 11.2472C442.409 10.9721 441.92 10.8345 441.366 10.8345C440.813 10.8345 440.324 10.9721 439.9 11.2472C439.475 11.5189 439.142 11.9216 438.9 12.4553C438.662 12.9856 438.542 13.6368 438.542 14.4091C438.542 15.1813 438.662 15.8343 438.9 16.3679C439.142 16.8982 439.475 17.3009 439.9 17.576C440.324 17.8478 440.813 17.9837 441.366 17.9837C441.92 17.9837 442.409 17.8478 442.833 17.576C443.257 17.3009 443.589 16.8982 443.827 16.3679C444.069 15.8343 444.19 15.1813 444.19 14.4091ZM453.112 12.1172C453.065 11.683 452.87 11.3449 452.525 11.103C452.184 10.861 451.74 10.7401 451.193 10.7401C450.808 10.7401 450.478 10.7981 450.203 10.9141C449.928 11.0301 449.718 11.1875 449.572 11.3864C449.426 11.5852 449.352 11.8123 449.348 12.0675C449.348 12.2796 449.396 12.4635 449.492 12.6193C449.592 12.7751 449.726 12.9077 449.895 13.017C450.064 13.1231 450.251 13.2126 450.457 13.2855C450.662 13.3584 450.87 13.4197 451.078 13.4695L452.033 13.7081C452.417 13.7976 452.787 13.9186 453.142 14.071C453.5 14.2235 453.819 14.4157 454.101 14.6477C454.386 14.8797 454.612 15.1598 454.777 15.4879C454.943 15.8161 455.026 16.2005 455.026 16.6413C455.026 17.2379 454.873 17.7633 454.568 18.2173C454.263 18.6681 453.823 19.0211 453.246 19.2763C452.673 19.5282 451.978 19.6541 451.163 19.6541C450.371 19.6541 449.683 19.5315 449.1 19.2862C448.52 19.041 448.066 18.683 447.737 18.2124C447.413 17.7417 447.237 17.1683 447.21 16.4922H449.025C449.052 16.8468 449.161 17.1418 449.353 17.3771C449.545 17.6125 449.796 17.7881 450.104 17.9041C450.415 18.0201 450.763 18.0781 451.148 18.0781C451.549 18.0781 451.9 18.0185 452.202 17.8991C452.507 17.7765 452.746 17.6075 452.918 17.392C453.09 17.1733 453.178 16.9181 453.181 16.6264C453.178 16.3613 453.1 16.1425 452.948 15.9702C452.795 15.7945 452.581 15.6487 452.306 15.5327C452.035 15.4134 451.716 15.3073 451.352 15.2145L450.193 14.9162C449.355 14.7008 448.692 14.3743 448.205 13.9368C447.721 13.496 447.479 12.911 447.479 12.1818C447.479 11.5819 447.641 11.0566 447.966 10.6058C448.294 10.1551 448.74 9.8054 449.304 9.55682C449.867 9.30492 450.505 9.17898 451.218 9.17898C451.94 9.17898 452.573 9.30492 453.117 9.55682C453.664 9.8054 454.093 10.1518 454.404 10.5959C454.716 11.0367 454.877 11.5438 454.887 12.1172H453.112Z" fill="#F1EFEF"/>
<rect x="466" width="93" height="28" rx="6" fill="#3C46C9"/>
<rect x="472" y="5" width="18" height="18" rx="3.5" fill="#F1EFEF"/>
<path opacity="0.4" d="M477.562 17.4375C476 17.4375 474.75 16.5 474.75 14.3125C474.75 11.8125 476.625 10.5625 481 10.5625C485.375 10.5625 487.25 11.8125 487.25 14.3125C487.25 16.5 486 17.4375 484.438 17.4375C482.875 17.4375 481.938 15.875 481 15.875C480.062 15.875 479.125 17.4375 477.562 17.4375Z" fill="#3C46C9"/>
<path d="M477.562 17.4375C476 17.4375 474.75 16.5 474.75 14.3125C474.75 11.8125 476.625 10.5625 481 10.5625C485.375 10.5625 487.25 11.8125 487.25 14.3125C487.25 16.5 486 17.4375 484.438 17.4375C482.875 17.4375 481.938 15.875 481 15.875C480.062 15.875 479.125 17.4375 477.562 17.4375Z" stroke="#3C46C9" stroke-width="1.25" stroke-linecap="round"/>
<path d="M501.964 11.8636L499.245 19.5H497.256L494.537 11.8636H496.456L498.211 17.5362H498.29L500.05 11.8636H501.964ZM503 19.5V11.8636H504.799V19.5H503ZM503.904 10.7798C503.619 10.7798 503.374 10.6854 503.169 10.4964C502.963 10.3042 502.86 10.0739 502.86 9.8054C502.86 9.53362 502.963 9.30327 503.169 9.11435C503.374 8.92211 503.619 8.82599 503.904 8.82599C504.193 8.82599 504.438 8.92211 504.64 9.11435C504.846 9.30327 504.948 9.53362 504.948 9.8054C504.948 10.0739 504.846 10.3042 504.64 10.4964C504.438 10.6854 504.193 10.7798 503.904 10.7798ZM512.475 13.8821L510.835 14.0611C510.788 13.8954 510.707 13.7396 510.591 13.5938C510.479 13.4479 510.326 13.3303 510.134 13.2408C509.942 13.1513 509.706 13.1065 509.428 13.1065C509.053 13.1065 508.738 13.1877 508.483 13.3501C508.231 13.5125 508.107 13.723 508.11 13.9815C508.107 14.2036 508.188 14.3842 508.354 14.5234C508.523 14.6626 508.801 14.777 509.189 14.8665L510.492 15.1449C511.214 15.3007 511.751 15.5476 512.103 15.8857C512.457 16.2237 512.636 16.6662 512.639 17.2131C512.636 17.6937 512.495 18.1179 512.217 18.4858C511.942 18.8504 511.559 19.1354 511.068 19.3409C510.578 19.5464 510.014 19.6491 509.378 19.6491C508.443 19.6491 507.691 19.4536 507.121 19.0625C506.551 18.6681 506.211 18.1196 506.102 17.4169L507.857 17.2479C507.936 17.5926 508.105 17.8527 508.364 18.0284C508.622 18.2041 508.959 18.2919 509.373 18.2919C509.801 18.2919 510.144 18.2041 510.402 18.0284C510.664 17.8527 510.795 17.6357 510.795 17.3771C510.795 17.1584 510.711 16.9777 510.541 16.8352C510.376 16.6927 510.117 16.5833 509.766 16.5071L508.463 16.2337C507.731 16.0812 507.189 15.8243 506.838 15.4631C506.486 15.0985 506.312 14.6378 506.316 14.081C506.312 13.6103 506.44 13.2027 506.698 12.858C506.96 12.5099 507.323 12.2415 507.787 12.0526C508.255 11.8603 508.793 11.7642 509.403 11.7642C510.298 11.7642 511.002 11.9548 511.516 12.3359C512.033 12.7171 512.353 13.2325 512.475 13.8821ZM513.914 19.5V11.8636H515.713V19.5H513.914ZM514.818 10.7798C514.533 10.7798 514.288 10.6854 514.083 10.4964C513.877 10.3042 513.774 10.0739 513.774 9.8054C513.774 9.53362 513.877 9.30327 514.083 9.11435C514.288 8.92211 514.533 8.82599 514.818 8.82599C515.107 8.82599 515.352 8.92211 515.554 9.11435C515.76 9.30327 515.862 9.53362 515.862 9.8054C515.862 10.0739 515.76 10.3042 515.554 10.4964C515.352 10.6854 515.107 10.7798 514.818 10.7798ZM520.685 19.6491C519.939 19.6491 519.293 19.4851 518.746 19.157C518.199 18.8288 517.775 18.3698 517.473 17.7798C517.175 17.1899 517.026 16.5005 517.026 15.7116C517.026 14.9228 517.175 14.2318 517.473 13.6385C517.775 13.0452 518.199 12.5845 518.746 12.2564C519.293 11.9283 519.939 11.7642 520.685 11.7642C521.431 11.7642 522.077 11.9283 522.624 12.2564C523.171 12.5845 523.593 13.0452 523.892 13.6385C524.193 14.2318 524.344 14.9228 524.344 15.7116C524.344 16.5005 524.193 17.1899 523.892 17.7798C523.593 18.3698 523.171 18.8288 522.624 19.157C522.077 19.4851 521.431 19.6491 520.685 19.6491ZM520.695 18.2074C521.099 18.2074 521.437 18.0964 521.709 17.8743C521.981 17.6489 522.183 17.3473 522.316 16.9695C522.451 16.5916 522.519 16.1707 522.519 15.7067C522.519 15.2393 522.451 14.8168 522.316 14.4389C522.183 14.0578 521.981 13.7545 521.709 13.5291C521.437 13.3037 521.099 13.1911 520.695 13.1911C520.281 13.1911 519.936 13.3037 519.661 13.5291C519.389 13.7545 519.185 14.0578 519.049 14.4389C518.917 14.8168 518.85 15.2393 518.85 15.7067C518.85 16.1707 518.917 16.5916 519.049 16.9695C519.185 17.3473 519.389 17.6489 519.661 17.8743C519.936 18.0964 520.281 18.2074 520.695 18.2074ZM527.461 15.0256V19.5H525.661V11.8636H527.382V13.1612H527.471C527.647 12.7337 527.927 12.3939 528.311 12.142C528.699 11.8902 529.178 11.7642 529.748 11.7642C530.275 11.7642 530.734 11.8769 531.125 12.1023C531.52 12.3277 531.825 12.6541 532.04 13.0817C532.259 13.5092 532.366 14.0279 532.363 14.6378V19.5H530.563V14.9162C530.563 14.4058 530.431 14.0064 530.166 13.718C529.904 13.4297 529.541 13.2855 529.077 13.2855C528.762 13.2855 528.482 13.3551 528.237 13.4943C527.995 13.6302 527.804 13.8274 527.665 14.0859C527.529 14.3445 527.461 14.6577 527.461 15.0256ZM543.16 14.4091C543.16 15.5062 542.955 16.4458 542.544 17.228C542.136 18.0069 541.579 18.6035 540.873 19.0178C540.171 19.4321 539.374 19.6392 538.482 19.6392C537.59 19.6392 536.792 19.4321 536.086 19.0178C535.383 18.6001 534.826 18.0019 534.415 17.223C534.008 16.4408 533.804 15.5028 533.804 14.4091C533.804 13.312 534.008 12.3741 534.415 11.5952C534.826 10.813 535.383 10.2147 536.086 9.80043C536.792 9.38613 537.59 9.17898 538.482 9.17898C539.374 9.17898 540.171 9.38613 540.873 9.80043C541.579 10.2147 542.136 10.813 542.544 11.5952C542.955 12.3741 543.16 13.312 543.16 14.4091ZM541.306 14.4091C541.306 13.6368 541.185 12.9856 540.943 12.4553C540.704 11.9216 540.373 11.5189 539.949 11.2472C539.524 10.9721 539.036 10.8345 538.482 10.8345C537.929 10.8345 537.44 10.9721 537.015 11.2472C536.591 11.5189 536.258 11.9216 536.016 12.4553C535.777 12.9856 535.658 13.6368 535.658 14.4091C535.658 15.1813 535.777 15.8343 536.016 16.3679C536.258 16.8982 536.591 17.3009 537.015 17.576C537.44 17.8478 537.929 17.9837 538.482 17.9837C539.036 17.9837 539.524 17.8478 539.949 17.576C540.373 17.3009 540.704 16.8982 540.943 16.3679C541.185 15.8343 541.306 15.1813 541.306 14.4091ZM550.227 12.1172C550.181 11.683 549.985 11.3449 549.641 11.103C549.299 10.861 548.855 10.7401 548.308 10.7401C547.924 10.7401 547.594 10.7981 547.319 10.9141C547.044 11.0301 546.834 11.1875 546.688 11.3864C546.542 11.5852 546.467 11.8123 546.464 12.0675C546.464 12.2796 546.512 12.4635 546.608 12.6193C546.708 12.7751 546.842 12.9077 547.011 13.017C547.18 13.1231 547.367 13.2126 547.573 13.2855C547.778 13.3584 547.985 13.4197 548.194 13.4695L549.149 13.7081C549.533 13.7976 549.903 13.9186 550.257 14.071C550.615 14.2235 550.935 14.4157 551.217 14.6477C551.502 14.8797 551.727 15.1598 551.893 15.4879C552.059 15.8161 552.142 16.2005 552.142 16.6413C552.142 17.2379 551.989 17.7633 551.684 18.2173C551.379 18.6681 550.938 19.0211 550.362 19.2763C549.788 19.5282 549.094 19.6541 548.279 19.6541C547.486 19.6541 546.799 19.5315 546.215 19.2862C545.635 19.041 545.181 18.683 544.853 18.2124C544.528 17.7417 544.353 17.1683 544.326 16.4922H546.141C546.167 16.8468 546.277 17.1418 546.469 17.3771C546.661 17.6125 546.911 17.7881 547.22 17.9041C547.531 18.0201 547.879 18.0781 548.264 18.0781C548.665 18.0781 549.016 18.0185 549.318 17.8991C549.623 17.7765 549.861 17.6075 550.034 17.392C550.206 17.1733 550.294 16.9181 550.297 16.6264C550.294 16.3613 550.216 16.1425 550.063 15.9702C549.911 15.7945 549.697 15.6487 549.422 15.5327C549.15 15.4134 548.832 15.3073 548.468 15.2145L547.309 14.9162C546.471 14.7008 545.808 14.3743 545.32 13.9368C544.837 13.496 544.595 12.911 544.595 12.1818C544.595 11.5819 544.757 11.0566 545.082 10.6058C545.41 10.1551 545.856 9.8054 546.419 9.55682C546.983 9.30492 547.621 9.17898 548.333 9.17898C549.056 9.17898 549.689 9.30492 550.232 9.55682C550.779 9.8054 551.209 10.1518 551.52 10.5959C551.832 11.0367 551.992 11.5438 552.002 12.1172H550.227Z" fill="#F1EFEF"/>
<rect x="53.5" y="32" width="139" height="28" rx="6" fill="#006AB2"/>
<rect x="59.5" y="37" width="18" height="18" rx="3.5" fill="#F1EFEF"/>
<path d="M71.5879 42.7165V39.7162C71.5915 39.6109 71.6787 39.5287 71.7835 39.5303C72.8072 39.5923 73.7372 39.6824 74.5322 39.7944L74.5349 39.7951C74.6093 39.8039 74.6713 39.856 74.6946 39.9268L74.6949 39.9267L74.6956 39.9299C74.6981 39.9376 74.6997 39.9453 74.7011 39.9532L74.7027 39.9597C74.7056 39.9804 74.7092 40.004 74.7133 40.0313C74.8113 40.696 74.913 41.7453 74.9667 42.6972C74.9667 42.6972 74.9788 42.9095 74.7661 42.9095H71.7809C71.6742 42.9095 71.5879 42.8232 71.5879 42.7165ZM71.5884 39.7032L71.5879 39.7162V39.7101L71.5881 39.7032H71.5884Z" fill="#006AB2"/>
<path d="M65.4102 52.2805V49.0874V49.2805C65.4102 49.1738 65.3238 49.0874 65.2172 49.0874H62.2321C62.0193 49.0874 62.0314 49.3 62.0314 49.3C62.085 50.2517 62.1868 51.3012 62.2848 51.966C62.2889 51.9935 62.2926 52.0175 62.2956 52.0384L62.297 52.0442C62.2983 52.0522 62.3 52.0599 62.3025 52.0676L62.3031 52.0708H62.3034C62.3266 52.1409 62.3876 52.1923 62.4613 52.2019C63.2574 52.3145 64.1898 52.4048 65.2159 52.467C65.3203 52.4678 65.407 52.3854 65.4102 52.2805Z" fill="#006AB2"/>
<path d="M68.8867 42.697C68.8867 42.697 68.8867 42.9098 69.0994 42.9098H70.6043C70.6043 42.9098 70.8173 42.9098 70.8173 42.697V39.6941C70.8173 39.6941 70.8173 39.4811 70.6046 39.4726C70.198 39.4557 69.5516 39.4405 69.0994 39.4375C69.0994 39.4375 68.8867 39.4362 68.8867 39.6491V42.697Z" fill="#006AB2"/>
<path d="M68.4985 52.3498V49.1518V49.2805C68.4985 49.174 68.4119 49.0874 68.3053 49.0874H68.434H66.3946C66.3946 49.0874 66.1816 49.0874 66.1816 49.3003V52.3032C66.1816 52.3032 66.1816 52.5161 66.3943 52.5248C66.9203 52.5464 67.6967 52.5626 68.2857 52.5626C68.2857 52.5626 68.4985 52.5626 68.4985 52.3498Z" fill="#006AB2"/>
<path d="M66.1816 42.697C66.1816 42.697 66.1816 42.9098 66.3946 42.9098H67.8994C67.8994 42.9098 68.1123 42.9098 68.1123 42.697V39.6489C68.1123 39.6489 68.1123 39.436 67.8995 39.4375C67.4471 39.4405 66.8011 39.456 66.3943 39.4727C66.3943 39.4727 66.1816 39.4814 66.1816 39.6942V42.697Z" fill="#006AB2"/>
<path d="M62.1943 48.3156H65.1971C65.1971 48.3156 65.4099 48.3156 65.4099 48.1027V46.5976C65.4099 46.5976 65.4099 46.3848 65.1971 46.3848H62.149C62.149 46.3848 61.9363 46.3848 61.9375 46.5976C61.9405 47.05 61.9561 47.696 61.9727 48.1027C61.9727 48.1027 61.9816 48.3156 62.1943 48.3156Z" fill="#006AB2"/>
<path d="M61.9375 45.3999C61.9375 45.3999 61.9362 45.6127 62.1489 45.6127H65.197C65.197 45.6127 65.4098 45.6127 65.4098 45.3999V43.8949C65.4098 43.8949 65.4098 43.6821 65.197 43.6821H62.1941C62.1941 43.6821 61.9814 43.6821 61.9726 43.8947C61.956 44.3014 61.9405 44.9477 61.9375 45.3999Z" fill="#006AB2"/>
<path d="M65.4102 42.7165V39.7162C65.4066 39.6109 65.3194 39.5287 65.2145 39.5303C64.1908 39.5923 63.2609 39.6824 62.4659 39.7944L62.4632 39.7951C62.3888 39.8039 62.3268 39.856 62.3034 39.9268L62.3031 39.9267L62.3025 39.9299C62.3 39.9376 62.2983 39.9453 62.297 39.9532L62.2954 39.9597C62.2925 39.9804 62.2888 40.004 62.2848 40.0313C62.1868 40.696 62.085 41.7453 62.0314 42.6972C62.0314 42.6972 62.0193 42.9095 62.2321 42.9095H65.2172C65.3238 42.9095 65.4102 42.8232 65.4102 42.7165ZM65.4097 39.7032L65.4102 39.7162V39.7101L65.41 39.7032H65.4097Z" fill="#006AB2"/>
<path d="M71.5879 48.3287C71.5879 48.3287 71.5879 48.5415 71.7382 48.692C71.7382 48.692 71.5879 48.5415 74.5969 51.5508C74.5969 51.5508 74.7475 51.7011 74.7743 51.49C74.9208 50.3435 75.0333 48.6399 75.0551 46.9837C75.0551 46.9837 75.0578 46.771 74.845 46.771H71.7593C71.7593 46.771 71.5879 46.771 71.5879 46.9424V48.3287Z" fill="#006AB2"/>
<path d="M75.0627 45.809C75.0604 45.0759 75.0451 44.379 75.0253 43.8947C75.0253 43.8947 75.0165 43.6821 74.8036 43.6821H71.8007C71.8007 43.6821 71.5879 43.6821 71.5879 43.8949V45.7859C71.5879 45.7859 71.5879 45.9987 71.8007 45.9987H74.8699C74.9754 45.9987 75.0609 45.9141 75.0627 45.809Z" fill="#006AB2"/>
<path d="M74.0513 52.0968C71.9783 50.0239 71.3334 49.379 71.1328 49.1784C71.0691 49.1171 70.9966 49.0835 70.9345 49.0878V49.0876H69.4843C69.4843 49.0876 69.2715 49.0876 69.2715 49.3006V52.3449C69.2715 52.3449 69.2715 52.5577 69.4843 52.555C71.1406 52.5331 72.8437 52.4206 73.9906 52.2742C73.9906 52.2742 74.2018 52.2471 74.0513 52.0968Z" fill="#006AB2"/>
<path d="M82.5841 41.3182H84.8412L87.8639 48.696H87.9833L91.006 41.3182H93.2631V51.5H91.4932V44.505H91.3987L88.5848 51.4702H87.2624L84.4485 44.4901H84.354V51.5H82.5841V41.3182ZM97.1795 51.6541C96.6956 51.6541 96.2598 51.5679 95.872 51.3956C95.4875 51.2199 95.1826 50.9614 94.9572 50.62C94.7351 50.2786 94.6241 49.8577 94.6241 49.3572C94.6241 48.9264 94.7037 48.5701 94.8627 48.2884C95.0218 48.0066 95.2389 47.7812 95.514 47.6122C95.7891 47.4432 96.099 47.3156 96.4437 47.2294C96.7917 47.1399 97.1513 47.0753 97.5225 47.0355C97.97 46.9891 98.3329 46.9477 98.6113 46.9112C98.8897 46.8714 99.0919 46.8118 99.2179 46.7322C99.3471 46.6494 99.4117 46.5218 99.4117 46.3494V46.3196C99.4117 45.9451 99.3007 45.6551 99.0787 45.4496C98.8566 45.2441 98.5367 45.1413 98.1191 45.1413C97.6783 45.1413 97.3287 45.2375 97.0701 45.4297C96.8149 45.6219 96.6426 45.849 96.5531 46.1108L94.8727 45.8722C95.0053 45.4081 95.224 45.0204 95.5289 44.7088C95.8339 44.3939 96.2067 44.1586 96.6475 44.0028C97.0884 43.8438 97.5756 43.7642 98.1092 43.7642C98.4771 43.7642 98.8433 43.8073 99.2079 43.8935C99.5725 43.9796 99.9056 44.1222 100.207 44.321C100.509 44.5166 100.751 44.7834 100.933 45.1214C101.119 45.4595 101.211 45.8821 101.211 46.3892V51.5H99.4814V50.451H99.4217C99.3123 50.6631 99.1582 50.862 98.9593 51.0476C98.7638 51.2299 98.5169 51.3774 98.2186 51.4901C97.9236 51.5994 97.5772 51.6541 97.1795 51.6541ZM97.6468 50.3317C98.0081 50.3317 98.3213 50.2604 98.5865 50.1179C98.8516 49.9721 99.0555 49.7798 99.198 49.5412C99.3438 49.3026 99.4167 49.0424 99.4167 48.7607V47.8608C99.3604 47.9072 99.2643 47.9503 99.1284 47.9901C98.9958 48.0298 98.8466 48.0646 98.6809 48.0945C98.5152 48.1243 98.3511 48.1508 98.1887 48.174C98.0263 48.1972 97.8855 48.2171 97.7662 48.2337C97.4977 48.2701 97.2574 48.3298 97.0453 48.4126C96.8332 48.4955 96.6658 48.6115 96.5431 48.7607C96.4205 48.9065 96.3592 49.0954 96.3592 49.3274C96.3592 49.6589 96.4802 49.9091 96.7221 50.0781C96.9641 50.2472 97.2723 50.3317 97.6468 50.3317ZM105.645 51.6342C105.045 51.6342 104.508 51.4801 104.034 51.1719C103.56 50.8636 103.186 50.4162 102.911 49.8295C102.635 49.2429 102.498 48.5303 102.498 47.6918C102.498 46.8433 102.637 46.1274 102.916 45.544C103.197 44.9574 103.577 44.5149 104.054 44.2166C104.531 43.915 105.063 43.7642 105.65 43.7642C106.097 43.7642 106.465 43.8404 106.754 43.9929C107.042 44.142 107.271 44.3227 107.44 44.5348C107.609 44.7436 107.74 44.9408 107.832 45.1264H107.907V41.3182H109.712V51.5H107.942V50.2969H107.832C107.74 50.4825 107.605 50.6797 107.43 50.8885C107.254 51.094 107.022 51.2696 106.734 51.4155C106.445 51.5613 106.082 51.6342 105.645 51.6342ZM106.147 50.1577C106.528 50.1577 106.853 50.0549 107.121 49.8494C107.39 49.6406 107.594 49.3506 107.733 48.9794C107.872 48.6082 107.942 48.1757 107.942 47.6818C107.942 47.188 107.872 46.7588 107.733 46.3942C107.597 46.0296 107.395 45.7462 107.126 45.544C106.861 45.3419 106.535 45.2408 106.147 45.2408C105.746 45.2408 105.411 45.3452 105.143 45.554C104.874 45.7628 104.672 46.0511 104.536 46.419C104.4 46.7869 104.332 47.2079 104.332 47.6818C104.332 48.1591 104.4 48.585 104.536 48.9595C104.675 49.3307 104.879 49.6241 105.148 49.8395C105.42 50.0516 105.753 50.1577 106.147 50.1577ZM114.8 51.6491C114.035 51.6491 113.373 51.4901 112.817 51.1719C112.263 50.8504 111.837 50.3963 111.539 49.8097C111.241 49.2197 111.091 48.5253 111.091 47.7266C111.091 46.9411 111.241 46.2517 111.539 45.6584C111.84 45.0618 112.261 44.5978 112.802 44.2663C113.342 43.9316 113.977 43.7642 114.706 43.7642C115.176 43.7642 115.62 43.8404 116.038 43.9929C116.459 44.142 116.83 44.3741 117.152 44.6889C117.477 45.0038 117.732 45.4048 117.917 45.892C118.103 46.3759 118.196 46.9527 118.196 47.6222V48.174H111.937V46.9609H116.471C116.467 46.6162 116.393 46.3097 116.247 46.0412C116.101 45.7694 115.897 45.5556 115.635 45.3999C115.377 45.2441 115.075 45.1662 114.731 45.1662C114.363 45.1662 114.04 45.2557 113.761 45.4347C113.483 45.6103 113.266 45.8423 113.11 46.1307C112.957 46.4157 112.879 46.7289 112.876 47.0703V48.1293C112.876 48.5734 112.957 48.9545 113.12 49.2727C113.282 49.5876 113.509 49.8295 113.801 49.9986C114.093 50.1643 114.434 50.2472 114.825 50.2472C115.087 50.2472 115.324 50.2107 115.536 50.1378C115.748 50.0616 115.932 49.9505 116.088 49.8047C116.244 49.6589 116.361 49.4782 116.441 49.2628L118.121 49.4517C118.015 49.8958 117.813 50.2836 117.515 50.6151C117.22 50.9432 116.842 51.1984 116.381 51.3807C115.92 51.5597 115.393 51.6491 114.8 51.6491ZM122.771 51.5V43.8636H124.571V51.5H122.771ZM123.676 42.7798C123.391 42.7798 123.145 42.6854 122.94 42.4964C122.735 42.3042 122.632 42.0739 122.632 41.8054C122.632 41.5336 122.735 41.3033 122.94 41.1143C123.145 40.9221 123.391 40.826 123.676 40.826C123.964 40.826 124.209 40.9221 124.412 41.1143C124.617 41.3033 124.72 41.5336 124.72 41.8054C124.72 42.0739 124.617 42.3042 124.412 42.4964C124.209 42.6854 123.964 42.7798 123.676 42.7798ZM128.011 47.0256V51.5H126.211V43.8636H127.932V45.1612H128.021C128.197 44.7337 128.477 44.3939 128.861 44.142C129.249 43.8902 129.728 43.7642 130.298 43.7642C130.825 43.7642 131.284 43.8769 131.675 44.1023C132.07 44.3277 132.374 44.6541 132.59 45.0817C132.809 45.5092 132.916 46.0279 132.913 46.6378V51.5H131.113V46.9162C131.113 46.4058 130.981 46.0064 130.716 45.718C130.454 45.4297 130.091 45.2855 129.627 45.2855C129.312 45.2855 129.032 45.3551 128.787 45.4943C128.545 45.6302 128.354 45.8274 128.215 46.0859C128.079 46.3445 128.011 46.6577 128.011 47.0256ZM137.875 51.5V41.3182H139.719V45.9964H139.844L143.816 41.3182H146.068L142.13 45.8871L146.103 51.5H143.885L140.848 47.1349L139.719 48.4673V51.5H137.875ZM147.06 51.5V43.8636H148.805V45.1364H148.884C149.024 44.6955 149.262 44.3558 149.6 44.1172C149.942 43.8752 150.331 43.7543 150.769 43.7543C150.868 43.7543 150.979 43.7592 151.102 43.7692C151.228 43.7758 151.332 43.7874 151.415 43.804V45.4595C151.339 45.433 151.218 45.4098 151.052 45.3899C150.89 45.3667 150.732 45.3551 150.58 45.3551C150.252 45.3551 149.957 45.4264 149.695 45.5689C149.436 45.7081 149.232 45.902 149.083 46.1506C148.934 46.3991 148.86 46.6858 148.86 47.0107V51.5H147.06ZM154.461 51.6541C153.977 51.6541 153.542 51.5679 153.154 51.3956C152.769 51.2199 152.464 50.9614 152.239 50.62C152.017 50.2786 151.906 49.8577 151.906 49.3572C151.906 48.9264 151.986 48.5701 152.145 48.2884C152.304 48.0066 152.521 47.7812 152.796 47.6122C153.071 47.4432 153.381 47.3156 153.726 47.2294C154.074 47.1399 154.433 47.0753 154.804 47.0355C155.252 46.9891 155.615 46.9477 155.893 46.9112C156.172 46.8714 156.374 46.8118 156.5 46.7322C156.629 46.6494 156.694 46.5218 156.694 46.3494V46.3196C156.694 45.9451 156.583 45.6551 156.361 45.4496C156.138 45.2441 155.819 45.1413 155.401 45.1413C154.96 45.1413 154.611 45.2375 154.352 45.4297C154.097 45.6219 153.924 45.849 153.835 46.1108L152.155 45.8722C152.287 45.4081 152.506 45.0204 152.811 44.7088C153.116 44.3939 153.489 44.1586 153.929 44.0028C154.37 43.8438 154.857 43.7642 155.391 43.7642C155.759 43.7642 156.125 43.8073 156.49 43.8935C156.854 43.9796 157.187 44.1222 157.489 44.321C157.791 44.5166 158.033 44.7834 158.215 45.1214C158.401 45.4595 158.493 45.8821 158.493 46.3892V51.5H156.763V50.451H156.704C156.594 50.6631 156.44 50.862 156.241 51.0476C156.046 51.2299 155.799 51.3774 155.5 51.4901C155.205 51.5994 154.859 51.6541 154.461 51.6541ZM154.929 50.3317C155.29 50.3317 155.603 50.2604 155.868 50.1179C156.133 49.9721 156.337 49.7798 156.48 49.5412C156.626 49.3026 156.699 49.0424 156.699 48.7607V47.8608C156.642 47.9072 156.546 47.9503 156.41 47.9901C156.278 48.0298 156.129 48.0646 155.963 48.0945C155.797 48.1243 155.633 48.1508 155.471 48.174C155.308 48.1972 155.167 48.2171 155.048 48.2337C154.78 48.2701 154.539 48.3298 154.327 48.4126C154.115 48.4955 153.948 48.6115 153.825 48.7607C153.702 48.9065 153.641 49.0954 153.641 49.3274C153.641 49.6589 153.762 49.9091 154.004 50.0781C154.246 50.2472 154.554 50.3317 154.929 50.3317ZM161.734 49.1037L161.729 46.9311H162.017L164.761 43.8636H166.864L163.489 47.6222H163.116L161.734 49.1037ZM160.093 51.5V41.3182H161.893V51.5H160.093ZM164.886 51.5L162.4 48.0249L163.613 46.7571L167.038 51.5H164.886ZM170.87 51.6491C170.124 51.6491 169.478 51.4851 168.931 51.157C168.384 50.8288 167.96 50.3698 167.659 49.7798C167.36 49.1899 167.211 48.5005 167.211 47.7116C167.211 46.9228 167.36 46.2318 167.659 45.6385C167.96 45.0452 168.384 44.5845 168.931 44.2564C169.478 43.9283 170.124 43.7642 170.87 43.7642C171.616 43.7642 172.262 43.9283 172.809 44.2564C173.356 44.5845 173.779 45.0452 174.077 45.6385C174.379 46.2318 174.529 46.9228 174.529 47.7116C174.529 48.5005 174.379 49.1899 174.077 49.7798C173.779 50.3698 173.356 50.8288 172.809 51.157C172.262 51.4851 171.616 51.6491 170.87 51.6491ZM170.88 50.2074C171.285 50.2074 171.623 50.0964 171.894 49.8743C172.166 49.6489 172.368 49.3473 172.501 48.9695C172.637 48.5916 172.705 48.1707 172.705 47.7067C172.705 47.2393 172.637 46.8168 172.501 46.4389C172.368 46.0578 172.166 45.7545 171.894 45.5291C171.623 45.3037 171.285 45.1911 170.88 45.1911C170.466 45.1911 170.121 45.3037 169.846 45.5291C169.574 45.7545 169.37 46.0578 169.235 46.4389C169.102 46.8168 169.036 47.2393 169.036 47.7067C169.036 48.1707 169.102 48.5916 169.235 48.9695C169.37 49.3473 169.574 49.6489 169.846 49.8743C170.121 50.0964 170.466 50.2074 170.88 50.2074ZM170.179 42.8594L171.293 40.5874H173.053L171.526 42.8594H170.179ZM177.204 51.5L175.046 43.8636H176.881L178.223 49.233H178.293L179.665 43.8636H181.48L182.852 49.2031H182.926L184.249 43.8636H186.088L183.926 51.5H182.051L180.62 46.3395H180.515L179.083 51.5H177.204Z" fill="#F1EFEF"/>
<rect x="196.5" y="32" width="141" height="28" rx="6" fill="#3C46C9"/>
<rect x="202.5" y="37" width="18" height="18" rx="3.5" fill="#F1EFEF"/>
<path opacity="0.4" fill-rule="evenodd" clip-rule="evenodd" d="M217.389 43.5C217.437 44.2048 217.438 45.0711 217.438 46.152V46.473C217.438 49.1963 217.438 50.5579 216.655 51.404C215.872 52.25 214.613 52.25 212.094 52.25H210.906C208.387 52.25 207.128 52.25 206.345 51.404C205.562 50.5579 205.562 49.1963 205.562 46.473V46.152C205.562 45.0711 205.562 44.2048 205.611 43.5H217.389ZM211.5 46.3125C212.042 46.3125 212.52 46.5888 212.8 47.0082C212.966 47.2563 213.062 47.5543 213.062 47.875C213.062 48.1957 212.966 48.4938 212.8 48.7419C212.52 49.1613 212.042 49.4375 211.5 49.4375C210.958 49.4375 210.48 49.1613 210.2 48.7419C210.034 48.4938 209.938 48.1957 209.938 47.875C209.938 47.5543 210.034 47.2563 210.2 47.0082C210.48 46.5888 210.958 46.3125 211.5 46.3125Z" fill="#3C46C9"/>
<path d="M215.25 39.75V41M207.75 39.75V41" stroke="#3C46C9" stroke-width="1.25" stroke-linecap="round" stroke-linejoin="round"/>
<path d="M205.875 43.5H217.125" stroke="#3C46C9" stroke-width="1.25" stroke-linecap="round" stroke-linejoin="round"/>
<path d="M205.562 46.152C205.562 43.4287 205.562 42.0671 206.345 41.221C207.128 40.375 208.387 40.375 210.906 40.375H212.094C214.613 40.375 215.872 40.375 216.655 41.221C217.438 42.0671 217.438 43.4287 217.438 46.152V46.473C217.438 49.1963 217.438 50.5579 216.655 51.404C215.872 52.25 214.613 52.25 212.094 52.25H210.906C208.387 52.25 207.128 52.25 206.345 51.404C205.562 50.5579 205.562 49.1963 205.562 46.473V46.152Z" stroke="#3C46C9" stroke-width="1.25" stroke-linecap="round" stroke-linejoin="round"/>
<path d="M211.5 49.4375V50.0625M211.5 49.4375C210.958 49.4375 210.48 49.1613 210.2 48.7419M211.5 49.4375C212.042 49.4375 212.52 49.1613 212.8 48.7419M210.2 48.7419L209.625 49.125M210.2 48.7419C210.034 48.4938 209.938 48.1957 209.938 47.875C209.938 47.5543 210.034 47.2563 210.2 47.0082M212.8 48.7419L213.375 49.125M212.8 48.7419C212.966 48.4938 213.062 48.1957 213.062 47.875C213.062 47.5543 212.966 47.2563 212.8 47.0082M211.5 46.3125C212.042 46.3125 212.52 46.5888 212.8 47.0082M211.5 46.3125C210.958 46.3125 210.48 46.5888 210.2 47.0082M211.5 46.3125V45.6875M212.8 47.0082L213.375 46.625M210.2 47.0082L209.625 46.625" stroke="#3C46C9" stroke-width="1.25" stroke-linecap="round"/>
<path d="M229.266 51.6392C228.55 51.6392 227.914 51.5166 227.357 51.2713C226.803 51.026 226.366 50.6847 226.044 50.2472C225.723 49.8097 225.552 49.3042 225.532 48.7308H227.402C227.418 49.0059 227.509 49.2462 227.675 49.4517C227.841 49.6539 228.061 49.8113 228.336 49.924C228.611 50.0367 228.92 50.093 229.261 50.093C229.626 50.093 229.949 50.0301 230.231 49.9041C230.512 49.7749 230.733 49.5959 230.892 49.3672C231.051 49.1385 231.129 48.875 231.125 48.5767C231.129 48.2685 231.049 47.9967 230.887 47.7614C230.724 47.526 230.489 47.3421 230.181 47.2095C229.876 47.0769 229.508 47.0107 229.077 47.0107H228.177V45.5888H229.077C229.432 45.5888 229.742 45.5275 230.007 45.4048C230.275 45.2822 230.486 45.1098 230.638 44.8878C230.791 44.6624 230.865 44.4022 230.862 44.1072C230.865 43.8189 230.801 43.5687 230.668 43.3565C230.539 43.1411 230.355 42.9737 230.116 42.8544C229.881 42.7351 229.604 42.6754 229.286 42.6754C228.974 42.6754 228.686 42.7318 228.421 42.8445C228.156 42.9571 227.942 43.1179 227.78 43.3267C227.617 43.5322 227.531 43.7775 227.521 44.0625H225.746C225.759 43.4924 225.923 42.992 226.238 42.5611C226.557 42.1269 226.981 41.7888 227.511 41.5469C228.041 41.3016 228.636 41.179 229.296 41.179C229.975 41.179 230.565 41.3066 231.066 41.5618C231.57 41.8137 231.959 42.1534 232.234 42.581C232.509 43.0085 232.647 43.4808 232.647 43.9979C232.65 44.5713 232.481 45.0518 232.14 45.4396C231.802 45.8274 231.357 46.081 230.807 46.2003V46.2798C231.523 46.3793 232.072 46.6444 232.453 47.0753C232.837 47.5028 233.028 48.0348 233.025 48.6712C233.025 49.2412 232.862 49.7517 232.537 50.2024C232.216 50.6499 231.772 51.0012 231.205 51.2564C230.642 51.5116 229.995 51.6392 229.266 51.6392ZM235.349 51.6094C235.047 51.6094 234.789 51.5033 234.573 51.2912C234.358 51.0791 234.252 50.8205 234.255 50.5156C234.252 50.2173 234.358 49.9621 234.573 49.75C234.789 49.5379 235.047 49.4318 235.349 49.4318C235.641 49.4318 235.894 49.5379 236.11 49.75C236.328 49.9621 236.439 50.2173 236.443 50.5156C236.439 50.7178 236.386 50.9018 236.284 51.0675C236.184 51.2332 236.052 51.3658 235.886 51.4652C235.723 51.5613 235.544 51.6094 235.349 51.6094ZM241.438 51.6939C240.619 51.6939 239.917 51.4867 239.33 51.0724C238.747 50.6548 238.297 50.0533 237.983 49.2678C237.671 48.4789 237.515 47.5294 237.515 46.419C237.519 45.3087 237.676 44.3641 237.988 43.5852C238.302 42.803 238.752 42.2064 239.335 41.7955C239.922 41.3845 240.623 41.179 241.438 41.179C242.253 41.179 242.954 41.3845 243.541 41.7955C244.127 42.2064 244.577 42.803 244.888 43.5852C245.203 44.3674 245.36 45.312 245.36 46.419C245.36 47.5327 245.203 48.4839 244.888 49.2727C244.577 50.0582 244.127 50.6581 243.541 51.0724C242.958 51.4867 242.257 51.6939 241.438 51.6939ZM241.438 50.1378C242.074 50.1378 242.576 49.8246 242.944 49.1982C243.315 48.5684 243.501 47.642 243.501 46.419C243.501 45.6103 243.417 44.9309 243.248 44.3807C243.078 43.8305 242.84 43.4162 242.532 43.1378C242.223 42.8561 241.859 42.7152 241.438 42.7152C240.805 42.7152 240.304 43.0301 239.936 43.6598C239.569 44.2862 239.383 45.206 239.38 46.419C239.376 47.2311 239.458 47.9138 239.623 48.4673C239.792 49.0208 240.031 49.4384 240.339 49.7202C240.647 49.9986 241.014 50.1378 241.438 50.1378ZM247.534 51.6094C247.233 51.6094 246.974 51.5033 246.759 51.2912C246.543 51.0791 246.437 50.8205 246.441 50.5156C246.437 50.2173 246.543 49.9621 246.759 49.75C246.974 49.5379 247.233 49.4318 247.534 49.4318C247.826 49.4318 248.08 49.5379 248.295 49.75C248.514 49.9621 248.625 50.2173 248.628 50.5156C248.625 50.7178 248.572 50.9018 248.469 51.0675C248.37 51.2332 248.237 51.3658 248.071 51.4652C247.909 51.5613 247.73 51.6094 247.534 51.6094ZM253.623 51.6939C252.805 51.6939 252.102 51.4867 251.515 51.0724C250.932 50.6548 250.483 50.0533 250.168 49.2678C249.857 48.4789 249.701 47.5294 249.701 46.419C249.704 45.3087 249.861 44.3641 250.173 43.5852C250.488 42.803 250.937 42.2064 251.52 41.7955C252.107 41.3845 252.808 41.179 253.623 41.179C254.439 41.179 255.14 41.3845 255.726 41.7955C256.313 42.2064 256.762 42.803 257.074 43.5852C257.388 44.3674 257.546 45.312 257.546 46.419C257.546 47.5327 257.388 48.4839 257.074 49.2727C256.762 50.0582 256.313 50.6581 255.726 51.0724C255.143 51.4867 254.442 51.6939 253.623 51.6939ZM253.623 50.1378C254.26 50.1378 254.762 49.8246 255.13 49.1982C255.501 48.5684 255.687 47.642 255.687 46.419C255.687 45.6103 255.602 44.9309 255.433 44.3807C255.264 43.8305 255.025 43.4162 254.717 43.1378C254.409 42.8561 254.044 42.7152 253.623 42.7152C252.99 42.7152 252.49 43.0301 252.122 43.6598C251.754 44.2862 251.568 45.206 251.565 46.419C251.562 47.2311 251.643 47.9138 251.809 48.4673C251.978 49.0208 252.216 49.4384 252.525 49.7202C252.833 49.9986 253.199 50.1378 253.623 50.1378Z" fill="#F1EFEF"/>
<path d="M268.366 46.5C268.366 47.3437 268.214 48.0729 267.909 48.6875C267.604 49.3021 267.186 49.776 266.655 50.1094C266.124 50.4427 265.517 50.6094 264.835 50.6094C264.152 50.6094 263.546 50.4427 263.014 50.1094C262.483 49.776 262.065 49.3021 261.761 48.6875C261.456 48.0729 261.303 47.3437 261.303 46.5C261.303 45.6562 261.456 44.9271 261.761 44.3125C262.065 43.6979 262.483 43.224 263.014 42.8906C263.546 42.5573 264.152 42.3906 264.835 42.3906C265.517 42.3906 266.124 42.5573 266.655 42.8906C267.186 43.224 267.604 43.6979 267.909 44.3125C268.214 44.9271 268.366 45.6562 268.366 46.5ZM267.428 46.5C267.428 45.8073 267.313 45.2227 267.081 44.7461C266.852 44.2695 266.54 43.9089 266.147 43.6641C265.757 43.4193 265.319 43.2969 264.835 43.2969C264.35 43.2969 263.912 43.4193 263.518 43.6641C263.128 43.9089 262.817 44.2695 262.585 44.7461C262.356 45.2227 262.241 45.8073 262.241 46.5C262.241 47.1927 262.356 47.7773 262.585 48.2539C262.817 48.7305 263.128 49.0911 263.518 49.3359C263.912 49.5807 264.35 49.7031 264.835 49.7031C265.319 49.7031 265.757 49.5807 266.147 49.3359C266.54 49.0911 266.852 48.7305 267.081 48.2539C267.313 47.7773 267.428 47.1927 267.428 46.5ZM272.142 50.625C271.58 50.625 271.096 50.4922 270.689 50.2266C270.283 49.9609 269.971 49.5951 269.752 49.1289C269.533 48.6628 269.424 48.1302 269.424 47.5312C269.424 46.9219 269.536 46.3841 269.76 45.918C269.986 45.4492 270.301 45.0833 270.705 44.8203C271.111 44.5547 271.585 44.4219 272.127 44.4219C272.549 44.4219 272.929 44.5 273.267 44.6562C273.606 44.8125 273.883 45.0312 274.099 45.3125C274.316 45.5937 274.45 45.9219 274.502 46.2969H273.58C273.51 46.0234 273.353 45.7812 273.111 45.5703C272.872 45.3568 272.549 45.25 272.142 45.25C271.783 45.25 271.468 45.3437 271.197 45.5312C270.929 45.7161 270.719 45.9779 270.568 46.3164C270.42 46.6523 270.346 47.0469 270.346 47.5C270.346 47.9635 270.418 48.3672 270.564 48.7109C270.713 49.0547 270.921 49.3216 271.189 49.5117C271.46 49.7018 271.778 49.7969 272.142 49.7969C272.382 49.7969 272.599 49.7552 272.795 49.6719C272.99 49.5885 273.155 49.4688 273.291 49.3125C273.426 49.1562 273.523 48.9687 273.58 48.75H274.502C274.45 49.1042 274.321 49.4232 274.115 49.707C273.912 49.9883 273.642 50.2122 273.306 50.3789C272.973 50.543 272.585 50.625 272.142 50.625ZM278.294 44.5V45.2812H275.184V44.5H278.294ZM276.091 43.0625H277.013V48.7812C277.013 49.0417 277.05 49.237 277.126 49.3672C277.204 49.4948 277.303 49.5807 277.423 49.625C277.545 49.6667 277.674 49.6875 277.809 49.6875C277.911 49.6875 277.994 49.6823 278.059 49.6719C278.125 49.6589 278.177 49.6484 278.216 49.6406L278.403 50.4687C278.341 50.4922 278.253 50.5156 278.141 50.5391C278.029 50.5651 277.888 50.5781 277.716 50.5781C277.455 50.5781 277.2 50.5221 276.95 50.4102C276.703 50.2982 276.497 50.1276 276.333 49.8984C276.171 49.6693 276.091 49.3802 276.091 49.0312V43.0625ZM281.889 50.625C281.347 50.625 280.872 50.4961 280.463 50.2383C280.057 49.9805 279.739 49.6198 279.51 49.1562C279.283 48.6927 279.17 48.151 279.17 47.5312C279.17 46.9062 279.283 46.3607 279.51 45.8945C279.739 45.4284 280.057 45.0664 280.463 44.8086C280.872 44.5508 281.347 44.4219 281.889 44.4219C282.43 44.4219 282.904 44.5508 283.31 44.8086C283.719 45.0664 284.037 45.4284 284.264 45.8945C284.493 46.3607 284.607 46.9062 284.607 47.5312C284.607 48.151 284.493 48.6927 284.264 49.1562C284.037 49.6198 283.719 49.9805 283.31 50.2383C282.904 50.4961 282.43 50.625 281.889 50.625ZM281.889 49.7969C282.3 49.7969 282.639 49.6914 282.904 49.4805C283.17 49.2695 283.366 48.9922 283.494 48.6484C283.622 48.3047 283.685 47.9323 283.685 47.5312C283.685 47.1302 283.622 46.7565 283.494 46.4102C283.366 46.0638 283.17 45.7839 282.904 45.5703C282.639 45.3568 282.3 45.25 281.889 45.25C281.477 45.25 281.139 45.3568 280.873 45.5703C280.607 45.7839 280.411 46.0638 280.283 46.4102C280.156 46.7565 280.092 47.1302 280.092 47.5312C280.092 47.9323 280.156 48.3047 280.283 48.6484C280.411 48.9922 280.607 49.2695 280.873 49.4805C281.139 49.6914 281.477 49.7969 281.889 49.7969ZM285.975 50.5V42.5H286.896V45.4531H286.975C287.042 45.349 287.136 45.2161 287.256 45.0547C287.378 44.8906 287.553 44.7448 287.779 44.6172C288.008 44.487 288.318 44.4219 288.709 44.4219C289.214 44.4219 289.659 44.5482 290.045 44.8008C290.43 45.0534 290.731 45.4115 290.947 45.875C291.163 46.3385 291.271 46.8854 291.271 47.5156C291.271 48.151 291.163 48.7018 290.947 49.168C290.731 49.6315 290.432 49.9909 290.049 50.2461C289.666 50.4987 289.225 50.625 288.725 50.625C288.339 50.625 288.031 50.5612 287.799 50.4336C287.567 50.3034 287.389 50.1562 287.264 49.9922C287.139 49.8255 287.042 49.6875 286.975 49.5781H286.865V50.5H285.975ZM286.881 47.5C286.881 47.9531 286.947 48.3529 287.08 48.6992C287.213 49.043 287.407 49.3125 287.662 49.5078C287.917 49.7005 288.23 49.7969 288.6 49.7969C288.985 49.7969 289.307 49.6953 289.564 49.4922C289.825 49.2865 290.02 49.0104 290.15 48.6641C290.283 48.3151 290.35 47.9271 290.35 47.5C290.35 47.0781 290.284 46.6979 290.154 46.3594C290.027 46.0182 289.833 45.7487 289.572 45.5508C289.314 45.3503 288.99 45.25 288.6 45.25C288.225 45.25 287.909 45.3451 287.654 45.5352C287.399 45.7227 287.206 45.9857 287.076 46.3242C286.946 46.6602 286.881 47.0521 286.881 47.5ZM295.032 50.625C294.454 50.625 293.955 50.4974 293.536 50.2422C293.119 49.9844 292.798 49.625 292.571 49.1641C292.347 48.7005 292.235 48.1615 292.235 47.5469C292.235 46.9323 292.347 46.3906 292.571 45.9219C292.798 45.4505 293.113 45.0833 293.517 44.8203C293.923 44.5547 294.397 44.4219 294.938 44.4219C295.251 44.4219 295.56 44.474 295.864 44.5781C296.169 44.6823 296.446 44.8516 296.696 45.0859C296.946 45.3177 297.145 45.625 297.294 46.0078C297.442 46.3906 297.517 46.862 297.517 47.4219V47.8125H292.892V47.0156H296.579C296.579 46.6771 296.511 46.375 296.376 46.1094C296.243 45.8437 296.053 45.6341 295.806 45.4805C295.561 45.3268 295.272 45.25 294.938 45.25C294.571 45.25 294.254 45.3411 293.985 45.5234C293.72 45.7031 293.515 45.9375 293.372 46.2266C293.229 46.5156 293.157 46.8255 293.157 47.1562V47.6875C293.157 48.1406 293.235 48.5247 293.392 48.8398C293.55 49.1523 293.77 49.3906 294.052 49.5547C294.333 49.7161 294.66 49.7969 295.032 49.7969C295.274 49.7969 295.493 49.763 295.688 49.6953C295.886 49.625 296.057 49.5208 296.2 49.3828C296.343 49.2422 296.454 49.0677 296.532 48.8594L297.423 49.1094C297.329 49.4115 297.172 49.6771 296.95 49.9062C296.729 50.1328 296.455 50.3099 296.13 50.4375C295.804 50.5625 295.438 50.625 295.032 50.625ZM298.754 50.5V44.5H299.645V45.4062H299.707C299.816 45.1094 300.014 44.8685 300.301 44.6836C300.587 44.4987 300.91 44.4062 301.27 44.4062C301.337 44.4062 301.422 44.4076 301.523 44.4102C301.625 44.4128 301.702 44.4167 301.754 44.4219V45.3594C301.723 45.3516 301.651 45.3398 301.539 45.3242C301.43 45.306 301.314 45.2969 301.191 45.2969C300.9 45.2969 300.639 45.3581 300.41 45.4805C300.184 45.6003 300.004 45.7669 299.871 45.9805C299.741 46.1914 299.676 46.4323 299.676 46.7031V50.5H298.754ZM305.595 50.5V49.7969L308.235 46.9062C308.545 46.5677 308.801 46.2734 309.001 46.0234C309.202 45.7708 309.35 45.5339 309.446 45.3125C309.545 45.0885 309.595 44.8542 309.595 44.6094C309.595 44.3281 309.527 44.0846 309.392 43.8789C309.259 43.6732 309.077 43.5143 308.845 43.4023C308.613 43.2904 308.353 43.2344 308.064 43.2344C307.756 43.2344 307.488 43.2982 307.259 43.4258C307.032 43.5508 306.857 43.7266 306.732 43.9531C306.609 44.1797 306.548 44.4453 306.548 44.75H305.626C305.626 44.2812 305.734 43.8698 305.95 43.5156C306.166 43.1615 306.461 42.8854 306.833 42.6875C307.208 42.4896 307.629 42.3906 308.095 42.3906C308.564 42.3906 308.979 42.4896 309.341 42.6875C309.703 42.8854 309.987 43.1523 310.192 43.4883C310.398 43.8242 310.501 44.1979 310.501 44.6094C310.501 44.9036 310.448 45.1914 310.341 45.4727C310.237 45.7513 310.054 46.0625 309.794 46.4062C309.536 46.7474 309.178 47.1641 308.72 47.6562L306.923 49.5781V49.6406H310.642V50.5H305.595ZM314.699 50.6094C314.111 50.6094 313.61 50.4492 313.195 50.1289C312.781 49.806 312.465 49.3385 312.246 48.7266C312.027 48.112 311.918 47.3698 311.918 46.5C311.918 45.6354 312.027 44.8971 312.246 44.2852C312.468 43.6706 312.785 43.2018 313.199 42.8789C313.616 42.5534 314.116 42.3906 314.699 42.3906C315.283 42.3906 315.781 42.5534 316.195 42.8789C316.612 43.2018 316.93 43.6706 317.149 44.2852C317.37 44.8971 317.481 45.6354 317.481 46.5C317.481 47.3698 317.371 48.112 317.152 48.7266C316.934 49.3385 316.617 49.806 316.203 50.1289C315.789 50.4492 315.288 50.6094 314.699 50.6094ZM314.699 49.75C315.283 49.75 315.736 49.4687 316.059 48.9062C316.382 48.3437 316.543 47.5417 316.543 46.5C316.543 45.8073 316.469 45.2174 316.32 44.7305C316.175 44.2435 315.964 43.8724 315.688 43.6172C315.414 43.362 315.085 43.2344 314.699 43.2344C314.121 43.2344 313.669 43.5195 313.344 44.0898C313.018 44.6576 312.856 45.4609 312.856 46.5C312.856 47.1927 312.929 47.7812 313.074 48.2656C313.22 48.75 313.43 49.1185 313.703 49.3711C313.979 49.6237 314.311 49.75 314.699 49.75ZM318.8 50.5V49.7969L321.441 46.9062C321.751 46.5677 322.006 46.2734 322.206 46.0234C322.407 45.7708 322.555 45.5339 322.652 45.3125C322.751 45.0885 322.8 44.8542 322.8 44.6094C322.8 44.3281 322.732 44.0846 322.597 43.8789C322.464 43.6732 322.282 43.5143 322.05 43.4023C321.818 43.2904 321.558 43.2344 321.269 43.2344C320.961 43.2344 320.693 43.2982 320.464 43.4258C320.237 43.5508 320.062 43.7266 319.937 43.9531C319.814 44.1797 319.753 44.4453 319.753 44.75H318.831C318.831 44.2812 318.939 43.8698 319.155 43.5156C319.372 43.1615 319.666 42.8854 320.038 42.6875C320.413 42.4896 320.834 42.3906 321.3 42.3906C321.769 42.3906 322.184 42.4896 322.546 42.6875C322.908 42.8854 323.192 43.1523 323.398 43.4883C323.603 43.8242 323.706 44.1979 323.706 44.6094C323.706 44.9036 323.653 45.1914 323.546 45.4727C323.442 45.7513 323.26 46.0625 322.999 46.4062C322.741 46.7474 322.383 47.1641 321.925 47.6562L320.128 49.5781V49.6406H323.847V50.5H318.8ZM324.936 48.8594V48.0625L328.451 42.5H329.03V43.7344H328.639L325.983 47.9375V48H330.717V48.8594H324.936ZM328.701 50.5V48.6172V48.2461V42.5H329.623V50.5H328.701Z" fill="#C6C6C8"/>
<rect x="341.5" y="32" width="164" height="28" rx="6" fill="#3C46C9"/>
<rect x="347.5" y="37" width="18" height="18" rx="3.5" fill="#F1EFEF"/>
<path d="M356.5 52.25H355.562C353.205 52.25 352.027 52.25 351.295 51.5177C350.562 50.7855 350.562 49.607 350.563 47.2499L350.563 44.75C350.563 42.393 350.563 41.2145 351.295 40.4822C352.027 39.75 353.206 39.75 355.562 39.75H356.187C358.544 39.75 359.723 39.75 360.455 40.4822C361.187 41.2145 361.187 42.393 361.187 44.75V45.375" stroke="#3C46C9" stroke-width="1.25" stroke-linecap="round" stroke-linejoin="round"/>
<path d="M353.375 42.875H358.375M353.375 46H356.188" stroke="#3C46C9" stroke-width="1.25" stroke-linecap="round" stroke-linejoin="round"/>
<path d="M359.938 51.4829C361.042 51.4829 361.938 50.5672 361.938 49.4375C361.938 48.3078 361.042 47.3921 359.938 47.3921M359.938 51.4829C358.833 51.4829 357.938 50.5672 357.938 49.4375C357.938 48.3078 358.833 47.3921 359.938 47.3921M359.938 51.4829V52.25M359.938 47.3921V46.625M358.12 48.3218L357.438 47.9034M362.438 50.9716L361.756 50.5532M361.755 48.3218L362.437 47.9034M357.438 50.9716L358.119 50.5532" stroke="#3C46C9" stroke-width="1.25" stroke-linecap="round"/>
<path opacity="0.4" d="M361.187 44.75V47.25C361.187 47.4552 361.187 47.6516 361.187 47.8394C360.845 47.5592 360.41 47.3916 359.938 47.3916C358.833 47.3916 357.938 48.3074 357.938 49.4371C357.938 50.5668 358.833 51.4825 359.938 51.4825C360.165 51.4825 360.383 51.4439 360.586 51.3727C360.545 51.423 360.502 51.4713 360.455 51.5177C359.723 52.25 358.544 52.25 356.187 52.25H355.562C353.205 52.25 352.027 52.25 351.295 51.5177C350.562 50.7855 350.562 49.607 350.563 47.2499L350.563 44.75C350.563 42.393 350.563 41.2145 351.295 40.4822C352.027 39.75 353.206 39.75 355.562 39.75H356.187C358.544 39.75 359.723 39.75 360.455 40.4822C361.187 41.2145 361.187 42.393 361.187 44.75Z" fill="#3C46C9"/>
<path d="M372.097 51.5H370.128L373.713 41.3182H375.99L379.579 51.5H377.61L374.891 43.4062H374.811L372.097 51.5ZM372.161 47.5078H377.531V48.9893H372.161V47.5078ZM380.631 54.3636V43.8636H382.4V45.1264H382.505C382.598 44.9408 382.729 44.7436 382.898 44.5348C383.067 44.3227 383.295 44.142 383.584 43.9929C383.872 43.8404 384.24 43.7642 384.687 43.7642C385.277 43.7642 385.809 43.915 386.283 44.2166C386.761 44.5149 387.138 44.9574 387.417 45.544C387.699 46.1274 387.839 46.8433 387.839 47.6918C387.839 48.5303 387.702 49.2429 387.427 49.8295C387.152 50.4162 386.777 50.8636 386.303 51.1719C385.829 51.4801 385.292 51.6342 384.692 51.6342C384.255 51.6342 383.892 51.5613 383.604 51.4155C383.315 51.2696 383.083 51.094 382.908 50.8885C382.735 50.6797 382.601 50.4825 382.505 50.2969H382.43V54.3636H380.631ZM382.395 47.6818C382.395 48.1757 382.465 48.6082 382.604 48.9794C382.747 49.3506 382.951 49.6406 383.216 49.8494C383.484 50.0549 383.809 50.1577 384.19 50.1577C384.588 50.1577 384.921 50.0516 385.19 49.8395C385.458 49.6241 385.66 49.3307 385.796 48.9595C385.935 48.585 386.005 48.1591 386.005 47.6818C386.005 47.2079 385.937 46.7869 385.801 46.419C385.665 46.0511 385.463 45.7628 385.194 45.554C384.926 45.3452 384.591 45.2408 384.19 45.2408C383.806 45.2408 383.479 45.3419 383.211 45.544C382.942 45.7462 382.739 46.0296 382.599 46.3942C382.463 46.7588 382.395 47.188 382.395 47.6818ZM391.368 51.6541C390.884 51.6541 390.448 51.5679 390.06 51.3956C389.676 51.2199 389.371 50.9614 389.146 50.62C388.924 50.2786 388.813 49.8577 388.813 49.3572C388.813 48.9264 388.892 48.5701 389.051 48.2884C389.21 48.0066 389.427 47.7812 389.703 47.6122C389.978 47.4432 390.288 47.3156 390.632 47.2294C390.98 47.1399 391.34 47.0753 391.711 47.0355C392.159 46.9891 392.521 46.9477 392.8 46.9112C393.078 46.8714 393.28 46.8118 393.406 46.7322C393.536 46.6494 393.6 46.5218 393.6 46.3494V46.3196C393.6 45.9451 393.489 45.6551 393.267 45.4496C393.045 45.2441 392.725 45.1413 392.308 45.1413C391.867 45.1413 391.517 45.2375 391.259 45.4297C391.003 45.6219 390.831 45.849 390.742 46.1108L389.061 45.8722C389.194 45.4081 389.413 45.0204 389.717 44.7088C390.022 44.3939 390.395 44.1586 390.836 44.0028C391.277 43.8438 391.764 43.7642 392.298 43.7642C392.666 43.7642 393.032 43.8073 393.396 43.8935C393.761 43.9796 394.094 44.1222 394.396 44.321C394.697 44.5166 394.939 44.7834 395.122 45.1214C395.307 45.4595 395.4 45.8821 395.4 46.3892V51.5H393.67V50.451H393.61C393.501 50.6631 393.347 50.862 393.148 51.0476C392.952 51.2299 392.705 51.3774 392.407 51.4901C392.112 51.5994 391.766 51.6541 391.368 51.6541ZM391.835 50.3317C392.197 50.3317 392.51 50.2604 392.775 50.1179C393.04 49.9721 393.244 49.7798 393.386 49.5412C393.532 49.3026 393.605 49.0424 393.605 48.7607V47.8608C393.549 47.9072 393.453 47.9503 393.317 47.9901C393.184 48.0298 393.035 48.0646 392.869 48.0945C392.704 48.1243 392.54 48.1508 392.377 48.174C392.215 48.1972 392.074 48.2171 391.955 48.2337C391.686 48.2701 391.446 48.3298 391.234 48.4126C391.022 48.4955 390.854 48.6115 390.732 48.7607C390.609 48.9065 390.548 49.0954 390.548 49.3274C390.548 49.6589 390.669 49.9091 390.911 50.0781C391.153 50.2472 391.461 50.3317 391.835 50.3317ZM400.331 51.6491C399.568 51.6491 398.914 51.4818 398.367 51.147C397.823 50.8123 397.404 50.3499 397.109 49.7599C396.817 49.1667 396.672 48.4839 396.672 47.7116C396.672 46.9361 396.821 46.2517 397.119 45.6584C397.417 45.0618 397.838 44.5978 398.382 44.2663C398.929 43.9316 399.575 43.7642 400.321 43.7642C400.94 43.7642 401.489 43.8786 401.966 44.1072C402.447 44.3326 402.83 44.6525 403.115 45.0668C403.4 45.4777 403.562 45.9583 403.602 46.5085H401.882C401.812 46.1406 401.646 45.834 401.385 45.5888C401.126 45.3402 400.78 45.2159 400.346 45.2159C399.978 45.2159 399.654 45.3153 399.376 45.5142C399.098 45.7098 398.881 45.9915 398.725 46.3594C398.572 46.7273 398.496 47.1681 398.496 47.6818C398.496 48.2022 398.572 48.6496 398.725 49.0241C398.877 49.3954 399.091 49.6821 399.366 49.8842C399.645 50.0831 399.971 50.1825 400.346 50.1825C400.611 50.1825 400.848 50.1328 401.056 50.0334C401.269 49.9306 401.446 49.7831 401.588 49.5909C401.731 49.3987 401.829 49.165 401.882 48.8899H403.602C403.559 49.4302 403.4 49.9091 403.125 50.3267C402.85 50.741 402.475 51.0658 402.001 51.3011C401.527 51.5331 400.97 51.6491 400.331 51.6491ZM406.669 47.0256V51.5H404.87V41.3182H406.63V45.1612H406.719C406.898 44.7304 407.175 44.3906 407.549 44.142C407.927 43.8902 408.408 43.7642 408.991 43.7642C409.521 43.7642 409.984 43.8752 410.378 44.0973C410.773 44.3194 411.078 44.6442 411.293 45.0717C411.512 45.4993 411.621 46.0213 411.621 46.6378V51.5H409.821V46.9162C409.821 46.4025 409.689 46.0031 409.424 45.718C409.162 45.4297 408.794 45.2855 408.32 45.2855C408.002 45.2855 407.717 45.3551 407.465 45.4943C407.216 45.6302 407.021 45.8274 406.878 46.0859C406.739 46.3445 406.669 46.6577 406.669 47.0256ZM416.626 51.6491C415.861 51.6491 415.199 51.4901 414.643 51.1719C414.089 50.8504 413.663 50.3963 413.365 49.8097C413.067 49.2197 412.918 48.5253 412.918 47.7266C412.918 46.9411 413.067 46.2517 413.365 45.6584C413.667 45.0618 414.088 44.5978 414.628 44.2663C415.168 43.9316 415.803 43.7642 416.532 43.7642C417.003 43.7642 417.447 43.8404 417.864 43.9929C418.285 44.142 418.656 44.3741 418.978 44.6889C419.303 45.0038 419.558 45.4048 419.744 45.892C419.929 46.3759 420.022 46.9527 420.022 47.6222V48.174H413.763V46.9609H418.297C418.293 46.6162 418.219 46.3097 418.073 46.0412C417.927 45.7694 417.723 45.5556 417.462 45.3999C417.203 45.2441 416.901 45.1662 416.557 45.1662C416.189 45.1662 415.866 45.2557 415.587 45.4347C415.309 45.6103 415.092 45.8423 414.936 46.1307C414.784 46.4157 414.706 46.7289 414.702 47.0703V48.1293C414.702 48.5734 414.784 48.9545 414.946 49.2727C415.108 49.5876 415.335 49.8295 415.627 49.9986C415.919 50.1643 416.26 50.2472 416.651 50.2472C416.913 50.2472 417.15 50.2107 417.362 50.1378C417.574 50.0616 417.758 49.9505 417.914 49.8047C418.07 49.6589 418.187 49.4782 418.267 49.2628L419.947 49.4517C419.841 49.8958 419.639 50.2836 419.341 50.6151C419.046 50.9432 418.668 51.1984 418.207 51.3807C417.747 51.5597 417.22 51.6491 416.626 51.6491ZM424.577 51.5V50.1676L428.112 46.7024C428.45 46.361 428.732 46.0578 428.957 45.7926C429.183 45.5275 429.352 45.2706 429.464 45.022C429.577 44.7734 429.633 44.5083 429.633 44.2266C429.633 43.9051 429.56 43.63 429.415 43.4013C429.269 43.1693 429.068 42.9903 428.813 42.8643C428.558 42.7384 428.268 42.6754 427.943 42.6754C427.608 42.6754 427.315 42.745 427.063 42.8842C426.811 43.0201 426.616 43.214 426.476 43.4659C426.341 43.7178 426.273 44.0178 426.273 44.3658H424.518C424.518 43.7195 424.665 43.1577 424.96 42.6804C425.255 42.2031 425.661 41.8336 426.178 41.5717C426.698 41.3099 427.295 41.179 427.968 41.179C428.651 41.179 429.251 41.3066 429.768 41.5618C430.285 41.817 430.686 42.1667 430.971 42.6108C431.259 43.0549 431.403 43.562 431.403 44.1321C431.403 44.5133 431.33 44.8878 431.184 45.2557C431.039 45.6236 430.782 46.0312 430.414 46.4787C430.049 46.9261 429.537 47.468 428.878 48.1044L427.123 49.8892V49.9588H431.557V51.5H424.577ZM434.191 51.6094C433.89 51.6094 433.631 51.5033 433.416 51.2912C433.2 51.0791 433.094 50.8205 433.097 50.5156C433.094 50.2173 433.2 49.9621 433.416 49.75C433.631 49.5379 433.89 49.4318 434.191 49.4318C434.483 49.4318 434.736 49.5379 434.952 49.75C435.171 49.9621 435.282 50.2173 435.285 50.5156C435.282 50.7178 435.229 50.9018 435.126 51.0675C435.026 51.2332 434.894 51.3658 434.728 51.4652C434.566 51.5613 434.387 51.6094 434.191 51.6094ZM440.28 51.6939C439.461 51.6939 438.759 51.4867 438.172 51.0724C437.589 50.6548 437.14 50.0533 436.825 49.2678C436.513 48.4789 436.358 47.5294 436.358 46.419C436.361 45.3087 436.518 44.3641 436.83 43.5852C437.145 42.803 437.594 42.2064 438.177 41.7955C438.764 41.3845 439.465 41.179 440.28 41.179C441.095 41.179 441.796 41.3845 442.383 41.7955C442.97 42.2064 443.419 42.803 443.73 43.5852C444.045 44.3674 444.203 45.312 444.203 46.419C444.203 47.5327 444.045 48.4839 443.73 49.2727C443.419 50.0582 442.97 50.6581 442.383 51.0724C441.8 51.4867 441.099 51.6939 440.28 51.6939ZM440.28 50.1378C440.916 50.1378 441.419 49.8246 441.787 49.1982C442.158 48.5684 442.343 47.642 442.343 46.419C442.343 45.6103 442.259 44.9309 442.09 44.3807C441.921 43.8305 441.682 43.4162 441.374 43.1378C441.066 42.8561 440.701 42.7152 440.28 42.7152C439.647 42.7152 439.147 43.0301 438.779 43.6598C438.411 44.2862 438.225 45.206 438.222 46.419C438.219 47.2311 438.3 47.9138 438.465 48.4673C438.635 49.0208 438.873 49.4384 439.181 49.7202C439.49 49.9986 439.856 50.1378 440.28 50.1378ZM449.007 51.5V41.3182H450.851V49.9538H455.335V51.5H449.007ZM456.647 51.5V43.8636H458.446V51.5H456.647ZM457.552 42.7798C457.267 42.7798 457.021 42.6854 456.816 42.4964C456.61 42.3042 456.508 42.0739 456.508 41.8054C456.508 41.5336 456.61 41.3033 456.816 41.1143C457.021 40.9221 457.267 40.826 457.552 40.826C457.84 40.826 458.085 40.9221 458.287 41.1143C458.493 41.3033 458.596 41.5336 458.596 41.8054C458.596 42.0739 458.493 42.3042 458.287 42.4964C458.085 42.6854 457.84 42.7798 457.552 42.7798ZM463.418 51.6491C462.656 51.6491 462.001 51.4818 461.454 51.147C460.911 50.8123 460.491 50.3499 460.197 49.7599C459.905 49.1667 459.759 48.4839 459.759 47.7116C459.759 46.9361 459.908 46.2517 460.206 45.6584C460.505 45.0618 460.926 44.5978 461.469 44.2663C462.016 43.9316 462.662 43.7642 463.408 43.7642C464.028 43.7642 464.576 43.8786 465.054 44.1072C465.534 44.3326 465.917 44.6525 466.202 45.0668C466.487 45.4777 466.65 45.9583 466.689 46.5085H464.969C464.9 46.1406 464.734 45.834 464.472 45.5888C464.214 45.3402 463.867 45.2159 463.433 45.2159C463.065 45.2159 462.742 45.3153 462.464 45.5142C462.185 45.7098 461.968 45.9915 461.812 46.3594C461.66 46.7273 461.584 47.1681 461.584 47.6818C461.584 48.2022 461.66 48.6496 461.812 49.0241C461.965 49.3954 462.179 49.6821 462.454 49.8842C462.732 50.0831 463.058 50.1825 463.433 50.1825C463.698 50.1825 463.935 50.1328 464.144 50.0334C464.356 49.9306 464.533 49.7831 464.676 49.5909C464.818 49.3987 464.916 49.165 464.969 48.8899H466.689C466.646 49.4302 466.487 49.9091 466.212 50.3267C465.937 50.741 465.563 51.0658 465.089 51.3011C464.615 51.5331 464.058 51.6491 463.418 51.6491ZM471.338 51.6491C470.572 51.6491 469.911 51.4901 469.354 51.1719C468.801 50.8504 468.375 50.3963 468.077 49.8097C467.778 49.2197 467.629 48.5253 467.629 47.7266C467.629 46.9411 467.778 46.2517 468.077 45.6584C468.378 45.0618 468.799 44.5978 469.339 44.2663C469.88 43.9316 470.514 43.7642 471.243 43.7642C471.714 43.7642 472.158 43.8404 472.576 43.9929C472.997 44.142 473.368 44.3741 473.689 44.6889C474.014 45.0038 474.269 45.4048 474.455 45.892C474.641 46.3759 474.733 46.9527 474.733 47.6222V48.174H468.474V46.9609H473.008C473.005 46.6162 472.93 46.3097 472.785 46.0412C472.639 45.7694 472.435 45.5556 472.173 45.3999C471.915 45.2441 471.613 45.1662 471.268 45.1662C470.9 45.1662 470.577 45.2557 470.299 45.4347C470.02 45.6103 469.803 45.8423 469.648 46.1307C469.495 46.4157 469.417 46.7289 469.414 47.0703V48.1293C469.414 48.5734 469.495 48.9545 469.658 49.2727C469.82 49.5876 470.047 49.8295 470.339 49.9986C470.63 50.1643 470.972 50.2472 471.363 50.2472C471.625 50.2472 471.862 50.2107 472.074 50.1378C472.286 50.0616 472.47 49.9505 472.626 49.8047C472.781 49.6589 472.899 49.4782 472.979 49.2628L474.659 49.4517C474.553 49.8958 474.351 50.2836 474.052 50.6151C473.757 50.9432 473.38 51.1984 472.919 51.3807C472.458 51.5597 471.931 51.6491 471.338 51.6491ZM477.846 47.0256V51.5H476.046V43.8636H477.766V45.1612H477.856C478.031 44.7337 478.311 44.3939 478.696 44.142C479.084 43.8902 479.563 43.7642 480.133 43.7642C480.66 43.7642 481.119 43.8769 481.51 44.1023C481.904 44.3277 482.209 44.6541 482.425 45.0817C482.643 45.5092 482.751 46.0279 482.748 46.6378V51.5H480.948V46.9162C480.948 46.4058 480.815 46.0064 480.55 45.718C480.288 45.4297 479.926 45.2855 479.462 45.2855C479.147 45.2855 478.867 45.3551 478.621 45.4943C478.379 45.6302 478.189 45.8274 478.05 46.0859C477.914 46.3445 477.846 46.6577 477.846 47.0256ZM490.403 45.8821L488.762 46.0611C488.716 45.8954 488.635 45.7396 488.519 45.5938C488.406 45.4479 488.253 45.3303 488.061 45.2408C487.869 45.1513 487.634 45.1065 487.355 45.1065C486.981 45.1065 486.666 45.1877 486.411 45.3501C486.159 45.5125 486.034 45.723 486.038 45.9815C486.034 46.2036 486.116 46.3842 486.281 46.5234C486.45 46.6626 486.729 46.777 487.117 46.8665L488.419 47.1449C489.142 47.3007 489.679 47.5476 490.03 47.8857C490.385 48.2237 490.564 48.6662 490.567 49.2131C490.564 49.6937 490.423 50.1179 490.144 50.4858C489.869 50.8504 489.486 51.1354 488.996 51.3409C488.505 51.5464 487.942 51.6491 487.306 51.6491C486.371 51.6491 485.618 51.4536 485.048 51.0625C484.478 50.6681 484.139 50.1196 484.029 49.4169L485.784 49.2479C485.864 49.5926 486.033 49.8527 486.291 50.0284C486.55 50.2041 486.886 50.2919 487.301 50.2919C487.728 50.2919 488.071 50.2041 488.33 50.0284C488.591 49.8527 488.722 49.6357 488.722 49.3771C488.722 49.1584 488.638 48.9777 488.469 48.8352C488.303 48.6927 488.045 48.5833 487.693 48.5071L486.391 48.2337C485.658 48.0812 485.116 47.8243 484.765 47.4631C484.414 47.0985 484.24 46.6378 484.243 46.081C484.24 45.6103 484.367 45.2027 484.626 44.858C484.888 44.5099 485.251 44.2415 485.715 44.0526C486.182 43.8603 486.721 43.7642 487.33 43.7642C488.225 43.7642 488.93 43.9548 489.443 44.3359C489.96 44.7171 490.28 45.2325 490.403 45.8821ZM495.222 51.6491C494.456 51.6491 493.795 51.4901 493.238 51.1719C492.684 50.8504 492.259 50.3963 491.96 49.8097C491.662 49.2197 491.513 48.5253 491.513 47.7266C491.513 46.9411 491.662 46.2517 491.96 45.6584C492.262 45.0618 492.683 44.5978 493.223 44.2663C493.763 43.9316 494.398 43.7642 495.127 43.7642C495.598 43.7642 496.042 43.8404 496.459 43.9929C496.88 44.142 497.252 44.3741 497.573 44.6889C497.898 45.0038 498.153 45.4048 498.339 45.892C498.524 46.3759 498.617 46.9527 498.617 47.6222V48.174H492.358V46.9609H496.892C496.889 46.6162 496.814 46.3097 496.668 46.0412C496.522 45.7694 496.319 45.5556 496.057 45.3999C495.798 45.2441 495.497 45.1662 495.152 45.1662C494.784 45.1662 494.461 45.2557 494.183 45.4347C493.904 45.6103 493.687 45.8423 493.531 46.1307C493.379 46.4157 493.301 46.7289 493.298 47.0703V48.1293C493.298 48.5734 493.379 48.9545 493.541 49.2727C493.704 49.5876 493.931 49.8295 494.222 49.9986C494.514 50.1643 494.855 50.2472 495.246 50.2472C495.508 50.2472 495.745 50.2107 495.957 50.1378C496.169 50.0616 496.353 49.9505 496.509 49.8047C496.665 49.6589 496.783 49.4782 496.862 49.2628L498.543 49.4517C498.437 49.8958 498.234 50.2836 497.936 50.6151C497.641 50.9432 497.263 51.1984 496.803 51.3807C496.342 51.5597 495.815 51.6491 495.222 51.6491Z" fill="#F1EFEF"/>
</svg>
