<svg width="559" height="60" viewBox="0 0 559 60" fill="none" xmlns="http://www.w3.org/2000/svg">
<rect width="82" height="28" rx="6" fill="#6A45B5"/>
<rect x="6" y="5" width="18" height="18" rx="3.5" fill="#F1EFEF"/>
<path opacity="0.4" d="M9.0625 14C9.0625 11.201 9.0625 9.80156 9.93202 8.93202C10.8016 8.0625 12.201 8.0625 15 8.0625C17.7989 8.0625 19.1984 8.0625 20.068 8.93202C20.9375 9.80156 20.9375 11.201 20.9375 14C20.9375 16.7989 20.9375 18.1984 20.068 19.068C19.1984 19.9375 17.7989 19.9375 15 19.9375C12.201 19.9375 10.8016 19.9375 9.93202 19.068C9.0625 18.1984 9.0625 16.7989 9.0625 14Z" fill="#6A45B5"/>
<path d="M17.5 12.75L18.2666 13.4108C18.5889 13.6885 18.75 13.8274 18.75 14C18.75 14.1726 18.5889 14.3115 18.2666 14.5892L17.5 15.25" stroke="#6A45B5" stroke-width="1.25" stroke-linecap="round" stroke-linejoin="round"/>
<path d="M12.5 12.75L11.7334 13.4108C11.4111 13.6885 11.25 13.8274 11.25 14C11.25 14.1726 11.4111 14.3115 11.7334 14.5892L12.5 15.25" stroke="#6A45B5" stroke-width="1.25" stroke-linecap="round" stroke-linejoin="round"/>
<path d="M15.625 12.125L14.375 15.875" stroke="#6A45B5" stroke-width="1.25" stroke-linecap="round" stroke-linejoin="round"/>
<path d="M9.0625 14C9.0625 11.201 9.0625 9.80156 9.93202 8.93202C10.8016 8.0625 12.201 8.0625 15 8.0625C17.7989 8.0625 19.1984 8.0625 20.068 8.93202C20.9375 9.80156 20.9375 11.201 20.9375 14C20.9375 16.7989 20.9375 18.1984 20.068 19.068C19.1984 19.9375 17.7989 19.9375 15 19.9375C12.201 19.9375 10.8016 19.9375 9.93202 19.068C9.0625 18.1984 9.0625 16.7989 9.0625 14Z" stroke="#6A45B5" stroke-width="1.25"/>
<path d="M34.5856 12.1172C34.5392 11.683 34.3437 11.3449 33.999 11.103C33.6576 10.861 33.2135 10.7401 32.6666 10.7401C32.2821 10.7401 31.9523 10.7981 31.6772 10.9141C31.4021 11.0301 31.1917 11.1875 31.0458 11.3864C30.9 11.5852 30.8254 11.8123 30.8221 12.0675C30.8221 12.2796 30.8702 12.4635 30.9663 12.6193C31.0657 12.7751 31.2 12.9077 31.369 13.017C31.538 13.1231 31.7253 13.2126 31.9308 13.2855C32.1363 13.3584 32.3434 13.4197 32.5522 13.4695L33.5068 13.7081C33.8912 13.7976 34.2608 13.9186 34.6154 14.071C34.9734 14.2235 35.2932 14.4157 35.575 14.6477C35.86 14.8797 36.0854 15.1598 36.2511 15.4879C36.4168 15.8161 36.4997 16.2005 36.4997 16.6413C36.4997 17.2379 36.3472 17.7633 36.0423 18.2173C35.7374 18.6681 35.2965 19.0211 34.7198 19.2763C34.1465 19.5282 33.4521 19.6541 32.6367 19.6541C31.8446 19.6541 31.1569 19.5315 30.5735 19.2862C29.9935 19.041 29.5394 18.683 29.2113 18.2124C28.8865 17.7417 28.7108 17.1683 28.6843 16.4922H30.499C30.5255 16.8468 30.6349 17.1418 30.8271 17.3771C31.0193 17.6125 31.2696 17.7881 31.5778 17.9041C31.8894 18.0201 32.2374 18.0781 32.6218 18.0781C33.0229 18.0781 33.3742 18.0185 33.6758 17.8991C33.9807 17.7765 34.2194 17.6075 34.3917 17.392C34.5641 17.1733 34.6519 16.9181 34.6552 16.6264C34.6519 16.3613 34.574 16.1425 34.4215 15.9702C34.2691 15.7945 34.0553 15.6487 33.7802 15.5327C33.5084 15.4134 33.1903 15.3073 32.8257 15.2145L31.6673 14.9162C30.8287 14.7008 30.1659 14.3743 29.6786 13.9368C29.1947 13.496 28.9528 12.911 28.9528 12.1818C28.9528 11.5819 29.1152 11.0566 29.44 10.6058C29.7681 10.1551 30.2139 9.8054 30.7774 9.55682C31.3408 9.30492 31.9788 9.17898 32.6914 9.17898C33.414 9.17898 34.047 9.30492 34.5906 9.55682C35.1375 9.8054 35.5667 10.1518 35.8782 10.5959C36.1898 11.0367 36.3505 11.5438 36.3605 12.1172H34.5856ZM39.4305 19.5L37.2728 11.8636H39.1073L40.4497 17.233H40.5193L41.8914 11.8636H43.706L45.0782 17.2031H45.1528L46.4752 11.8636H48.3147L46.1521 19.5H44.2778L42.846 14.3395H42.7416L41.3097 19.5H39.4305ZM49.3613 19.5V11.8636H51.161V19.5H49.3613ZM50.2661 10.7798C49.9811 10.7798 49.7358 10.6854 49.5303 10.4964C49.3248 10.3042 49.2221 10.0739 49.2221 9.8054C49.2221 9.53362 49.3248 9.30327 49.5303 9.11435C49.7358 8.92211 49.9811 8.82599 50.2661 8.82599C50.5545 8.82599 50.7997 8.92211 51.0019 9.11435C51.2074 9.30327 51.3101 9.53362 51.3101 9.8054C51.3101 10.0739 51.2074 10.3042 51.0019 10.4964C50.7997 10.6854 50.5545 10.7798 50.2661 10.7798ZM56.6696 11.8636V13.2557H52.1554V11.8636H56.6696ZM53.2839 19.5V11.1428C53.2839 10.629 53.39 10.2015 53.6021 9.86008C53.8175 9.5187 54.1059 9.26349 54.4672 9.09446C54.8284 8.92543 55.2295 8.84091 55.6703 8.84091C55.9818 8.84091 56.2586 8.86577 56.5005 8.91548C56.7425 8.9652 56.9215 9.00994 57.0375 9.04972L56.6795 10.4418C56.6033 10.4186 56.5072 10.3954 56.3912 10.3722C56.2752 10.3456 56.1459 10.3324 56.0034 10.3324C55.6686 10.3324 55.4316 10.4136 55.2924 10.576C55.1565 10.7351 55.0886 10.9638 55.0886 11.2621V19.5H53.2839ZM61.6822 11.8636V13.2557H57.2923V11.8636H61.6822ZM58.3761 10.0341H60.1758V17.2031C60.1758 17.4451 60.2123 17.6307 60.2852 17.7599C60.3614 17.8859 60.4609 17.9721 60.5835 18.0185C60.7061 18.0649 60.842 18.0881 60.9912 18.0881C61.1039 18.0881 61.2066 18.0798 61.2994 18.0632C61.3955 18.0466 61.4684 18.0317 61.5182 18.0185L61.8214 19.4254C61.7253 19.4586 61.5878 19.495 61.4088 19.5348C61.2331 19.5746 61.0177 19.5978 60.7625 19.6044C60.3117 19.6177 59.9057 19.5497 59.5444 19.4006C59.1832 19.2481 58.8965 19.0128 58.6844 18.6946C58.4755 18.3764 58.3728 17.9787 58.3761 17.5014V10.0341ZM69.4752 9.31818H71.3197V15.9702C71.3197 16.6993 71.1474 17.3407 70.8027 17.8942C70.4613 18.4477 69.9807 18.8802 69.3609 19.1918C68.7411 19.5 68.0169 19.6541 67.1883 19.6541C66.3564 19.6541 65.6305 19.5 65.0108 19.1918C64.391 18.8802 63.9104 18.4477 63.569 17.8942C63.2276 17.3407 63.0569 16.6993 63.0569 15.9702V9.31818H64.9014V15.8161C64.9014 16.2403 64.9942 16.6181 65.1798 16.9496C65.3687 17.281 65.6339 17.5412 65.9752 17.7301C66.3166 17.9157 66.721 18.0085 67.1883 18.0085C67.6556 18.0085 68.06 17.9157 68.4014 17.7301C68.7461 17.5412 69.0112 17.281 69.1968 16.9496C69.3824 16.6181 69.4752 16.2403 69.4752 15.8161V9.31818ZM74.959 9.31818V19.5H73.1145V9.31818H74.959Z" fill="#F1EFEF"/>
<rect x="86" width="58" height="28" rx="6" fill="#3C46C9"/>
<rect x="92" y="5" width="18" height="18" rx="3.5" fill="#F1EFEF"/>
<path opacity="0.4" d="M97.2657 8.39076C96.625 9.03147 96.625 10.0627 96.625 12.1251V15.875C96.625 17.9375 96.625 18.9687 97.2657 19.6093C97.9064 20.25 98.9376 20.25 101 20.25C103.062 20.25 104.094 20.25 104.734 19.6093C105.375 18.9687 105.375 17.9375 105.375 15.875V12.1251C105.375 10.0627 105.375 9.03147 104.734 8.39076C104.326 7.98278 103.76 7.83459 102.87 7.78076L102.819 8.08382C102.699 8.80712 102.639 9.16877 102.391 9.38884C102.132 9.6184 101.765 9.62506 101 9.62506C100.235 9.62506 99.8683 9.6184 99.6095 9.38884C99.3615 9.16877 99.3012 8.80712 99.1806 8.08382L99.1301 7.78076C98.24 7.83459 97.6737 7.98278 97.2657 8.39076Z" fill="#3C46C9"/>
<path d="M96.625 12.125C96.625 10.0626 96.625 9.03141 97.2657 8.39071C97.9064 7.75 98.9376 7.75 101 7.75C103.062 7.75 104.094 7.75 104.734 8.39071C105.375 9.03141 105.375 10.0626 105.375 12.125V15.875C105.375 17.9374 105.375 18.9686 104.734 19.6093C104.094 20.25 103.062 20.25 101 20.25C98.9376 20.25 97.9064 20.25 97.2657 19.6093C96.625 18.9686 96.625 17.9374 96.625 15.875V12.125Z" stroke="#3C46C9" stroke-width="1.25" stroke-linecap="round"/>
<path d="M100.375 18.375H101.625" stroke="#3C46C9" stroke-width="1.25" stroke-linecap="round" stroke-linejoin="round"/>
<path d="M99.125 7.75L99.1806 8.08376C99.3012 8.80706 99.3615 9.16871 99.6095 9.38877C99.8683 9.61834 100.235 9.625 101 9.625C101.765 9.625 102.132 9.61834 102.391 9.38877C102.639 9.16871 102.699 8.80706 102.819 8.08376L102.875 7.75" stroke="#3C46C9" stroke-width="1.25" stroke-linejoin="round"/>
<path d="M115.343 19.5V11.8636H117.142V19.5H115.343ZM116.248 10.7798C115.963 10.7798 115.717 10.6854 115.512 10.4964C115.306 10.3042 115.204 10.0739 115.204 9.8054C115.204 9.53362 115.306 9.30327 115.512 9.11435C115.717 8.92211 115.963 8.82599 116.248 8.82599C116.536 8.82599 116.781 8.92211 116.983 9.11435C117.189 9.30327 117.292 9.53362 117.292 9.8054C117.292 10.0739 117.189 10.3042 116.983 10.4964C116.781 10.6854 116.536 10.7798 116.248 10.7798ZM127.961 14.4091C127.961 15.5062 127.755 16.4458 127.344 17.228C126.937 18.0069 126.38 18.6035 125.674 19.0178C124.971 19.4321 124.174 19.6392 123.282 19.6392C122.391 19.6392 121.592 19.4321 120.886 19.0178C120.183 18.6001 119.627 18.0019 119.216 17.223C118.808 16.4408 118.604 15.5028 118.604 14.4091C118.604 13.312 118.808 12.3741 119.216 11.5952C119.627 10.813 120.183 10.2147 120.886 9.80043C121.592 9.38613 122.391 9.17898 123.282 9.17898C124.174 9.17898 124.971 9.38613 125.674 9.80043C126.38 10.2147 126.937 10.813 127.344 11.5952C127.755 12.3741 127.961 13.312 127.961 14.4091ZM126.106 14.4091C126.106 13.6368 125.985 12.9856 125.743 12.4553C125.505 11.9216 125.173 11.5189 124.749 11.2472C124.325 10.9721 123.836 10.8345 123.282 10.8345C122.729 10.8345 122.24 10.9721 121.816 11.2472C121.392 11.5189 121.058 11.9216 120.816 12.4553C120.578 12.9856 120.459 13.6368 120.459 14.4091C120.459 15.1813 120.578 15.8343 120.816 16.3679C121.058 16.8982 121.392 17.3009 121.816 17.576C122.24 17.8478 122.729 17.9837 123.282 17.9837C123.836 17.9837 124.325 17.8478 124.749 17.576C125.173 17.3009 125.505 16.8982 125.743 16.3679C125.985 15.8343 126.106 15.1813 126.106 14.4091ZM135.028 12.1172C134.981 11.683 134.786 11.3449 134.441 11.103C134.1 10.861 133.656 10.7401 133.109 10.7401C132.724 10.7401 132.395 10.7981 132.119 10.9141C131.844 11.0301 131.634 11.1875 131.488 11.3864C131.342 11.5852 131.268 11.8123 131.264 12.0675C131.264 12.2796 131.312 12.4635 131.409 12.6193C131.508 12.7751 131.642 12.9077 131.811 13.017C131.98 13.1231 132.168 13.2126 132.373 13.2855C132.579 13.3584 132.786 13.4197 132.994 13.4695L133.949 13.7081C134.333 13.7976 134.703 13.9186 135.058 14.071C135.416 14.2235 135.735 14.4157 136.017 14.6477C136.302 14.8797 136.528 15.1598 136.693 15.4879C136.859 15.8161 136.942 16.2005 136.942 16.6413C136.942 17.2379 136.789 17.7633 136.485 18.2173C136.18 18.6681 135.739 19.0211 135.162 19.2763C134.589 19.5282 133.894 19.6541 133.079 19.6541C132.287 19.6541 131.599 19.5315 131.016 19.2862C130.436 19.041 129.982 18.683 129.654 18.2124C129.329 17.7417 129.153 17.1683 129.127 16.4922H130.941C130.968 16.8468 131.077 17.1418 131.269 17.3771C131.462 17.6125 131.712 17.7881 132.02 17.9041C132.332 18.0201 132.68 18.0781 133.064 18.0781C133.465 18.0781 133.816 18.0185 134.118 17.8991C134.423 17.7765 134.662 17.6075 134.834 17.392C135.006 17.1733 135.094 16.9181 135.097 16.6264C135.094 16.3613 135.016 16.1425 134.864 15.9702C134.711 15.7945 134.498 15.6487 134.222 15.5327C133.951 15.4134 133.632 15.3073 133.268 15.2145L132.11 14.9162C131.271 14.7008 130.608 14.3743 130.121 13.9368C129.637 13.496 129.395 12.911 129.395 12.1818C129.395 11.5819 129.557 11.0566 129.882 10.6058C130.21 10.1551 130.656 9.8054 131.22 9.55682C131.783 9.30492 132.421 9.17898 133.134 9.17898C133.856 9.17898 134.489 9.30492 135.033 9.55682C135.58 9.8054 136.009 10.1518 136.32 10.5959C136.632 11.0367 136.793 11.5438 136.803 12.1172H135.028Z" fill="#F1EFEF"/>
<rect x="148" width="58" height="28" rx="6" fill="#3C46C9"/>
<rect x="154" y="5" width="18" height="18" rx="3.5" fill="#F1EFEF"/>
<path opacity="0.4" d="M164.562 7.75H161.438C159.67 7.75 158.786 7.75 158.237 8.29917C157.688 8.84835 157.688 9.73223 157.688 11.5V16.5C157.688 18.2677 157.688 19.1516 158.237 19.7008C158.786 20.25 159.67 20.25 161.438 20.25H164.562C166.33 20.25 167.214 20.25 167.763 19.7008C168.312 19.1516 168.312 18.2677 168.312 16.5V11.5C168.312 9.73223 168.312 8.84835 167.763 8.29917C167.214 7.75 166.33 7.75 164.562 7.75Z" fill="#3C46C9"/>
<path d="M164.562 7.75H161.438C159.67 7.75 158.786 7.75 158.237 8.29917C157.688 8.84835 157.688 9.73223 157.688 11.5V16.5C157.688 18.2677 157.688 19.1516 158.237 19.7008C158.786 20.25 159.67 20.25 161.438 20.25H164.562C166.33 20.25 167.214 20.25 167.763 19.7008C168.312 19.1516 168.312 18.2677 168.312 16.5V11.5C168.312 9.73223 168.312 8.84835 167.763 8.29917C167.214 7.75 166.33 7.75 164.562 7.75Z" stroke="#3C46C9" stroke-width="1.25" stroke-linecap="round"/>
<path d="M163 18.375H163.006" stroke="#3C46C9" stroke-width="1.25" stroke-linecap="round"/>
<path d="M177.343 19.5V11.8636H179.142V19.5H177.343ZM178.248 10.7798C177.963 10.7798 177.717 10.6854 177.512 10.4964C177.306 10.3042 177.204 10.0739 177.204 9.8054C177.204 9.53362 177.306 9.30327 177.512 9.11435C177.717 8.92211 177.963 8.82599 178.248 8.82599C178.536 8.82599 178.781 8.92211 178.983 9.11435C179.189 9.30327 179.292 9.53362 179.292 9.8054C179.292 10.0739 179.189 10.3042 178.983 10.4964C178.781 10.6854 178.536 10.7798 178.248 10.7798ZM189.961 14.4091C189.961 15.5062 189.755 16.4458 189.344 17.228C188.937 18.0069 188.38 18.6035 187.674 19.0178C186.971 19.4321 186.174 19.6392 185.282 19.6392C184.391 19.6392 183.592 19.4321 182.886 19.0178C182.183 18.6001 181.627 18.0019 181.216 17.223C180.808 16.4408 180.604 15.5028 180.604 14.4091C180.604 13.312 180.808 12.3741 181.216 11.5952C181.627 10.813 182.183 10.2147 182.886 9.80043C183.592 9.38613 184.391 9.17898 185.282 9.17898C186.174 9.17898 186.971 9.38613 187.674 9.80043C188.38 10.2147 188.937 10.813 189.344 11.5952C189.755 12.3741 189.961 13.312 189.961 14.4091ZM188.106 14.4091C188.106 13.6368 187.985 12.9856 187.743 12.4553C187.505 11.9216 187.173 11.5189 186.749 11.2472C186.325 10.9721 185.836 10.8345 185.282 10.8345C184.729 10.8345 184.24 10.9721 183.816 11.2472C183.392 11.5189 183.058 11.9216 182.816 12.4553C182.578 12.9856 182.459 13.6368 182.459 14.4091C182.459 15.1813 182.578 15.8343 182.816 16.3679C183.058 16.8982 183.392 17.3009 183.816 17.576C184.24 17.8478 184.729 17.9837 185.282 17.9837C185.836 17.9837 186.325 17.8478 186.749 17.576C187.173 17.3009 187.505 16.8982 187.743 16.3679C187.985 15.8343 188.106 15.1813 188.106 14.4091ZM197.028 12.1172C196.981 11.683 196.786 11.3449 196.441 11.103C196.1 10.861 195.656 10.7401 195.109 10.7401C194.724 10.7401 194.395 10.7981 194.119 10.9141C193.844 11.0301 193.634 11.1875 193.488 11.3864C193.342 11.5852 193.268 11.8123 193.264 12.0675C193.264 12.2796 193.312 12.4635 193.409 12.6193C193.508 12.7751 193.642 12.9077 193.811 13.017C193.98 13.1231 194.168 13.2126 194.373 13.2855C194.579 13.3584 194.786 13.4197 194.994 13.4695L195.949 13.7081C196.333 13.7976 196.703 13.9186 197.058 14.071C197.416 14.2235 197.735 14.4157 198.017 14.6477C198.302 14.8797 198.528 15.1598 198.693 15.4879C198.859 15.8161 198.942 16.2005 198.942 16.6413C198.942 17.2379 198.789 17.7633 198.485 18.2173C198.18 18.6681 197.739 19.0211 197.162 19.2763C196.589 19.5282 195.894 19.6541 195.079 19.6541C194.287 19.6541 193.599 19.5315 193.016 19.2862C192.436 19.041 191.982 18.683 191.654 18.2124C191.329 17.7417 191.153 17.1683 191.127 16.4922H192.941C192.968 16.8468 193.077 17.1418 193.269 17.3771C193.462 17.6125 193.712 17.7881 194.02 17.9041C194.332 18.0201 194.68 18.0781 195.064 18.0781C195.465 18.0781 195.816 18.0185 196.118 17.8991C196.423 17.7765 196.662 17.6075 196.834 17.392C197.006 17.1733 197.094 16.9181 197.097 16.6264C197.094 16.3613 197.016 16.1425 196.864 15.9702C196.711 15.7945 196.498 15.6487 196.222 15.5327C195.951 15.4134 195.632 15.3073 195.268 15.2145L194.11 14.9162C193.271 14.7008 192.608 14.3743 192.121 13.9368C191.637 13.496 191.395 12.911 191.395 12.1818C191.395 11.5819 191.557 11.0566 191.882 10.6058C192.21 10.1551 192.656 9.8054 193.22 9.55682C193.783 9.30492 194.421 9.17898 195.134 9.17898C195.856 9.17898 196.489 9.30492 197.033 9.55682C197.58 9.8054 198.009 10.1518 198.32 10.5959C198.632 11.0367 198.793 11.5438 198.803 12.1172H197.028Z" fill="#F1EFEF"/>
<rect x="210" width="82" height="28" rx="6" fill="#3C46C9"/>
<rect x="216" y="5" width="18" height="18" rx="3.5" fill="#F1EFEF"/>
<path opacity="0.4" d="M226.25 7.75H223.75C221.7 7.75 220.676 7.75 219.949 8.25864C219.681 8.44681 219.447 8.68057 219.259 8.94932C218.75 9.67572 218.75 10.7005 218.75 12.75C218.75 14.7995 218.75 15.8242 219.259 16.5507C219.447 16.8194 219.681 17.0532 219.949 17.2414C220.676 17.75 221.7 17.75 223.75 17.75H226.25C228.3 17.75 229.324 17.75 230.051 17.2414C230.319 17.0532 230.553 16.8194 230.741 16.5507C231.25 15.8242 231.25 14.7995 231.25 12.75C231.25 10.7005 231.25 9.67572 230.741 8.94932C230.553 8.68057 230.319 8.44681 230.051 8.25864C229.324 7.75 228.3 7.75 226.25 7.75Z" fill="#3C46C9"/>
<path d="M226.25 7.75H223.75C221.7 7.75 220.676 7.75 219.949 8.25864C219.681 8.44681 219.447 8.68057 219.259 8.94932C218.75 9.67572 218.75 10.7005 218.75 12.75C218.75 14.7995 218.75 15.8242 219.259 16.5507C219.447 16.8194 219.681 17.0532 219.949 17.2414C220.676 17.75 221.7 17.75 223.75 17.75H226.25C228.3 17.75 229.324 17.75 230.051 17.2414C230.319 17.0532 230.553 16.8194 230.741 16.5507C231.25 15.8242 231.25 14.7995 231.25 12.75C231.25 10.7005 231.25 9.67572 230.741 8.94932C230.553 8.68057 230.319 8.44681 230.051 8.25864C229.324 7.75 228.3 7.75 226.25 7.75Z" stroke="#3C46C9" stroke-width="1.25" stroke-linecap="round"/>
<path d="M224.375 15.875H225.625" stroke="#3C46C9" stroke-width="1.25" stroke-linecap="round" stroke-linejoin="round"/>
<path d="M226.562 20.25L226.365 19.9882C225.921 19.3981 225.811 18.4965 226.092 17.75M223.438 20.25L223.635 19.9882C224.079 19.3981 224.189 18.4965 223.908 17.75" stroke="#3C46C9" stroke-width="1.25" stroke-linecap="round"/>
<path d="M221.875 20.25H228.125" stroke="#3C46C9" stroke-width="1.25" stroke-linecap="round"/>
<path d="M239.036 19.5V11.8636H240.756V13.1612H240.846C241.005 12.7237 241.268 12.3823 241.636 12.1371C242.004 11.8885 242.443 11.7642 242.954 11.7642C243.471 11.7642 243.907 11.8902 244.261 12.142C244.619 12.3906 244.871 12.7304 245.017 13.1612H245.096C245.266 12.737 245.551 12.3989 245.952 12.147C246.356 11.8918 246.835 11.7642 247.388 11.7642C248.091 11.7642 248.664 11.9863 249.109 12.4304C249.553 12.8745 249.775 13.5225 249.775 14.3743V19.5H247.97V14.6527C247.97 14.1787 247.844 13.8324 247.592 13.6136C247.34 13.3916 247.032 13.2805 246.668 13.2805C246.233 13.2805 245.894 13.4164 245.648 13.6882C245.406 13.9567 245.285 14.3063 245.285 14.7372V19.5H243.52V14.5781C243.52 14.1837 243.401 13.8688 243.163 13.6335C242.927 13.3982 242.619 13.2805 242.238 13.2805C241.979 13.2805 241.744 13.3468 241.532 13.4794C241.32 13.6087 241.151 13.7926 241.025 14.0312C240.899 14.2666 240.836 14.5417 240.836 14.8565V19.5H239.036ZM253.588 19.6541C253.104 19.6541 252.668 19.5679 252.28 19.3956C251.896 19.2199 251.591 18.9614 251.366 18.62C251.144 18.2786 251.033 17.8577 251.033 17.3572C251.033 16.9264 251.112 16.5701 251.271 16.2884C251.43 16.0066 251.647 15.7812 251.923 15.6122C252.198 15.4432 252.508 15.3156 252.852 15.2294C253.2 15.1399 253.56 15.0753 253.931 15.0355C254.379 14.9891 254.741 14.9477 255.02 14.9112C255.298 14.8714 255.5 14.8118 255.626 14.7322C255.756 14.6494 255.82 14.5218 255.82 14.3494V14.3196C255.82 13.9451 255.709 13.6551 255.487 13.4496C255.265 13.2441 254.945 13.1413 254.528 13.1413C254.087 13.1413 253.737 13.2375 253.479 13.4297C253.223 13.6219 253.051 13.849 252.962 14.1108L251.281 13.8722C251.414 13.4081 251.633 13.0204 251.937 12.7088C252.242 12.3939 252.615 12.1586 253.056 12.0028C253.497 11.8438 253.984 11.7642 254.518 11.7642C254.886 11.7642 255.252 11.8073 255.616 11.8935C255.981 11.9796 256.314 12.1222 256.616 12.321C256.917 12.5166 257.159 12.7834 257.342 13.1214C257.527 13.4595 257.62 13.8821 257.62 14.3892V19.5H255.89V18.451H255.83C255.721 18.6631 255.567 18.862 255.368 19.0476C255.172 19.2299 254.925 19.3774 254.627 19.4901C254.332 19.5994 253.986 19.6541 253.588 19.6541ZM254.055 18.3317C254.417 18.3317 254.73 18.2604 254.995 18.1179C255.26 17.9721 255.464 17.7798 255.606 17.5412C255.752 17.3026 255.825 17.0424 255.825 16.7607V15.8608C255.769 15.9072 255.673 15.9503 255.537 15.9901C255.404 16.0298 255.255 16.0646 255.089 16.0945C254.924 16.1243 254.76 16.1508 254.597 16.174C254.435 16.1972 254.294 16.2171 254.175 16.2337C253.906 16.2701 253.666 16.3298 253.454 16.4126C253.242 16.4955 253.074 16.6115 252.952 16.7607C252.829 16.9065 252.768 17.0954 252.768 17.3274C252.768 17.6589 252.889 17.9091 253.131 18.0781C253.373 18.2472 253.681 18.3317 254.055 18.3317ZM262.551 19.6491C261.788 19.6491 261.134 19.4818 260.587 19.147C260.043 18.8123 259.624 18.3499 259.329 17.7599C259.037 17.1667 258.892 16.4839 258.892 15.7116C258.892 14.9361 259.041 14.2517 259.339 13.6584C259.637 13.0618 260.058 12.5978 260.602 12.2663C261.149 11.9316 261.795 11.7642 262.541 11.7642C263.16 11.7642 263.709 11.8786 264.186 12.1072C264.667 12.3326 265.05 12.6525 265.335 13.0668C265.62 13.4777 265.782 13.9583 265.822 14.5085H264.102C264.032 14.1406 263.866 13.834 263.605 13.5888C263.346 13.3402 263 13.2159 262.566 13.2159C262.198 13.2159 261.874 13.3153 261.596 13.5142C261.318 13.7098 261.101 13.9915 260.945 14.3594C260.792 14.7273 260.716 15.1681 260.716 15.6818C260.716 16.2022 260.792 16.6496 260.945 17.0241C261.097 17.3954 261.311 17.6821 261.586 17.8842C261.865 18.0831 262.191 18.1825 262.566 18.1825C262.831 18.1825 263.068 18.1328 263.276 18.0334C263.489 17.9306 263.666 17.7831 263.808 17.5909C263.951 17.3987 264.049 17.165 264.102 16.8899H265.822C265.779 17.4302 265.62 17.9091 265.345 18.3267C265.07 18.741 264.695 19.0658 264.221 19.3011C263.747 19.5331 263.19 19.6491 262.551 19.6491ZM276.267 14.4091C276.267 15.5062 276.062 16.4458 275.651 17.228C275.243 18.0069 274.686 18.6035 273.98 19.0178C273.278 19.4321 272.481 19.6392 271.589 19.6392C270.697 19.6392 269.899 19.4321 269.193 19.0178C268.49 18.6001 267.933 18.0019 267.522 17.223C267.115 16.4408 266.911 15.5028 266.911 14.4091C266.911 13.312 267.115 12.3741 267.522 11.5952C267.933 10.813 268.49 10.2147 269.193 9.80043C269.899 9.38613 270.697 9.17898 271.589 9.17898C272.481 9.17898 273.278 9.38613 273.98 9.80043C274.686 10.2147 275.243 10.813 275.651 11.5952C276.062 12.3741 276.267 13.312 276.267 14.4091ZM274.413 14.4091C274.413 13.6368 274.292 12.9856 274.05 12.4553C273.811 11.9216 273.48 11.5189 273.056 11.2472C272.631 10.9721 272.143 10.8345 271.589 10.8345C271.036 10.8345 270.547 10.9721 270.122 11.2472C269.698 11.5189 269.365 11.9216 269.123 12.4553C268.884 12.9856 268.765 13.6368 268.765 14.4091C268.765 15.1813 268.884 15.8343 269.123 16.3679C269.365 16.8982 269.698 17.3009 270.122 17.576C270.547 17.8478 271.036 17.9837 271.589 17.9837C272.143 17.9837 272.631 17.8478 273.056 17.576C273.48 17.3009 273.811 16.8982 274.05 16.3679C274.292 15.8343 274.413 15.1813 274.413 14.4091ZM283.334 12.1172C283.288 11.683 283.092 11.3449 282.748 11.103C282.406 10.861 281.962 10.7401 281.415 10.7401C281.031 10.7401 280.701 10.7981 280.426 10.9141C280.151 11.0301 279.941 11.1875 279.795 11.3864C279.649 11.5852 279.574 11.8123 279.571 12.0675C279.571 12.2796 279.619 12.4635 279.715 12.6193C279.815 12.7751 279.949 12.9077 280.118 13.017C280.287 13.1231 280.474 13.2126 280.68 13.2855C280.885 13.3584 281.092 13.4197 281.301 13.4695L282.256 13.7081C282.64 13.7976 283.01 13.9186 283.364 14.071C283.722 14.2235 284.042 14.4157 284.324 14.6477C284.609 14.8797 284.834 15.1598 285 15.4879C285.166 15.8161 285.249 16.2005 285.249 16.6413C285.249 17.2379 285.096 17.7633 284.791 18.2173C284.486 18.6681 284.045 19.0211 283.469 19.2763C282.895 19.5282 282.201 19.6541 281.386 19.6541C280.593 19.6541 279.906 19.5315 279.322 19.2862C278.742 19.041 278.288 18.683 277.96 18.2124C277.635 17.7417 277.46 17.1683 277.433 16.4922H279.248C279.274 16.8468 279.384 17.1418 279.576 17.3771C279.768 17.6125 280.018 17.7881 280.327 17.9041C280.638 18.0201 280.986 18.0781 281.371 18.0781C281.772 18.0781 282.123 18.0185 282.425 17.8991C282.73 17.7765 282.968 17.6075 283.141 17.392C283.313 17.1733 283.401 16.9181 283.404 16.6264C283.401 16.3613 283.323 16.1425 283.17 15.9702C283.018 15.7945 282.804 15.6487 282.529 15.5327C282.257 15.4134 281.939 15.3073 281.574 15.2145L280.416 14.9162C279.578 14.7008 278.915 14.3743 278.427 13.9368C277.944 13.496 277.702 12.911 277.702 12.1818C277.702 11.5819 277.864 11.0566 278.189 10.6058C278.517 10.1551 278.963 9.8054 279.526 9.55682C280.09 9.30492 280.728 9.17898 281.44 9.17898C282.163 9.17898 282.796 9.30492 283.339 9.55682C283.886 9.8054 284.316 10.1518 284.627 10.5959C284.939 11.0367 285.099 11.5438 285.109 12.1172H283.334Z" fill="#F1EFEF"/>
<rect x="296" width="67" height="28" rx="6" fill="#3C46C9"/>
<rect x="302" y="5" width="18" height="18" rx="3.5" fill="#F1EFEF"/>
<path opacity="0.4" d="M312.25 8.375H309.75C307.393 8.375 306.214 8.375 305.482 9.10723C304.75 9.83947 304.75 11.018 304.75 13.375C304.75 15.732 304.75 16.9106 305.482 17.6427C306.214 18.375 307.393 18.375 309.75 18.375H312.25C314.607 18.375 315.786 18.375 316.518 17.6427C317.25 16.9106 317.25 15.732 317.25 13.375C317.25 11.018 317.25 9.83947 316.518 9.10723C315.786 8.375 314.607 8.375 312.25 8.375Z" fill="#3C46C9"/>
<path d="M312.25 8.375H309.75C307.393 8.375 306.214 8.375 305.482 9.10723C304.75 9.83947 304.75 11.018 304.75 13.375C304.75 15.732 304.75 16.9106 305.482 17.6427C306.214 18.375 307.393 18.375 309.75 18.375H312.25C314.607 18.375 315.786 18.375 316.518 17.6427C317.25 16.9106 317.25 15.732 317.25 13.375C317.25 11.018 317.25 9.83947 316.518 9.10723C315.786 8.375 314.607 8.375 312.25 8.375Z" stroke="#3C46C9" stroke-width="1.25" stroke-linecap="round"/>
<path d="M314.75 18.375L315.375 19.625" stroke="#3C46C9" stroke-width="1.25" stroke-linecap="round" stroke-linejoin="round"/>
<path d="M307.25 18.375L306.625 19.625" stroke="#3C46C9" stroke-width="1.25" stroke-linecap="round" stroke-linejoin="round"/>
<path d="M328.894 11.8636V13.2557H324.504V11.8636H328.894ZM325.588 10.0341H327.387V17.2031C327.387 17.4451 327.424 17.6307 327.497 17.7599C327.573 17.8859 327.672 17.9721 327.795 18.0185C327.918 18.0649 328.054 18.0881 328.203 18.0881C328.315 18.0881 328.418 18.0798 328.511 18.0632C328.607 18.0466 328.68 18.0317 328.73 18.0185L329.033 19.4254C328.937 19.4586 328.799 19.495 328.62 19.5348C328.445 19.5746 328.229 19.5978 327.974 19.6044C327.523 19.6177 327.117 19.5497 326.756 19.4006C326.395 19.2481 326.108 19.0128 325.896 18.6946C325.687 18.3764 325.584 17.9787 325.588 17.5014V10.0341ZM337.01 11.8636L334.29 19.5H332.302L329.582 11.8636H331.501L333.256 17.5362H333.336L335.096 11.8636H337.01ZM347.223 14.4091C347.223 15.5062 347.017 16.4458 346.606 17.228C346.199 18.0069 345.642 18.6035 344.936 19.0178C344.233 19.4321 343.436 19.6392 342.545 19.6392C341.653 19.6392 340.854 19.4321 340.148 19.0178C339.446 18.6001 338.889 18.0019 338.478 17.223C338.07 16.4408 337.866 15.5028 337.866 14.4091C337.866 13.312 338.07 12.3741 338.478 11.5952C338.889 10.813 339.446 10.2147 340.148 9.80043C340.854 9.38613 341.653 9.17898 342.545 9.17898C343.436 9.17898 344.233 9.38613 344.936 9.80043C345.642 10.2147 346.199 10.813 346.606 11.5952C347.017 12.3741 347.223 13.312 347.223 14.4091ZM345.368 14.4091C345.368 13.6368 345.247 12.9856 345.006 12.4553C344.767 11.9216 344.435 11.5189 344.011 11.2472C343.587 10.9721 343.098 10.8345 342.545 10.8345C341.991 10.8345 341.502 10.9721 341.078 11.2472C340.654 11.5189 340.321 11.9216 340.079 12.4553C339.84 12.9856 339.721 13.6368 339.721 14.4091C339.721 15.1813 339.84 15.8343 340.079 16.3679C340.321 16.8982 340.654 17.3009 341.078 17.576C341.502 17.8478 341.991 17.9837 342.545 17.9837C343.098 17.9837 343.587 17.8478 344.011 17.576C344.435 17.3009 344.767 16.8982 345.006 16.3679C345.247 15.8343 345.368 15.1813 345.368 14.4091ZM354.29 12.1172C354.244 11.683 354.048 11.3449 353.703 11.103C353.362 10.861 352.918 10.7401 352.371 10.7401C351.987 10.7401 351.657 10.7981 351.382 10.9141C351.107 11.0301 350.896 11.1875 350.75 11.3864C350.604 11.5852 350.53 11.8123 350.527 12.0675C350.527 12.2796 350.575 12.4635 350.671 12.6193C350.77 12.7751 350.904 12.9077 351.073 13.017C351.242 13.1231 351.43 13.2126 351.635 13.2855C351.841 13.3584 352.048 13.4197 352.257 13.4695L353.211 13.7081C353.596 13.7976 353.965 13.9186 354.32 14.071C354.678 14.2235 354.998 14.4157 355.279 14.6477C355.564 14.8797 355.79 15.1598 355.956 15.4879C356.121 15.8161 356.204 16.2005 356.204 16.6413C356.204 17.2379 356.052 17.7633 355.747 18.2173C355.442 18.6681 355.001 19.0211 354.424 19.2763C353.851 19.5282 353.157 19.6541 352.341 19.6541C351.549 19.6541 350.861 19.5315 350.278 19.2862C349.698 19.041 349.244 18.683 348.916 18.2124C348.591 17.7417 348.415 17.1683 348.389 16.4922H350.203C350.23 16.8468 350.339 17.1418 350.532 17.3771C350.724 17.6125 350.974 17.7881 351.282 17.9041C351.594 18.0201 351.942 18.0781 352.326 18.0781C352.727 18.0781 353.079 18.0185 353.38 17.8991C353.685 17.7765 353.924 17.6075 354.096 17.392C354.268 17.1733 354.356 16.9181 354.36 16.6264C354.356 16.3613 354.278 16.1425 354.126 15.9702C353.974 15.7945 353.76 15.6487 353.485 15.5327C353.213 15.4134 352.895 15.3073 352.53 15.2145L351.372 14.9162C350.533 14.7008 349.87 14.3743 349.383 13.9368C348.899 13.496 348.657 12.911 348.657 12.1818C348.657 11.5819 348.82 11.0566 349.144 10.6058C349.473 10.1551 349.918 9.8054 350.482 9.55682C351.045 9.30492 351.683 9.17898 352.396 9.17898C353.118 9.17898 353.751 9.30492 354.295 9.55682C354.842 9.8054 355.271 10.1518 355.583 10.5959C355.894 11.0367 356.055 11.5438 356.065 12.1172H354.29Z" fill="#F1EFEF"/>
<rect x="367" width="95" height="28" rx="6" fill="#3C46C9"/>
<rect x="373" y="5" width="18" height="18" rx="3.5" fill="#F1EFEF"/>
<path opacity="0.4" d="M378.875 13.375C378.875 12.1965 378.875 11.6072 379.241 11.2411C379.607 10.875 380.196 10.875 381.375 10.875H382.625C383.803 10.875 384.393 10.875 384.759 11.2411C385.125 11.6072 385.125 12.1965 385.125 13.375V14.625C385.125 15.8035 385.125 16.3927 384.759 16.7589C384.393 17.125 383.803 17.125 382.625 17.125H381.375C380.196 17.125 379.607 17.125 379.241 16.7589C378.875 16.3927 378.875 15.8035 378.875 14.625V13.375Z" fill="#3C46C9"/>
<path d="M378.875 13.375C378.875 12.1965 378.875 11.6072 379.241 11.2411C379.607 10.875 380.196 10.875 381.375 10.875H382.625C383.803 10.875 384.393 10.875 384.759 11.2411C385.125 11.6072 385.125 12.1965 385.125 13.375V14.625C385.125 15.8035 385.125 16.3927 384.759 16.7589C384.393 17.125 383.803 17.125 382.625 17.125H381.375C380.196 17.125 379.607 17.125 379.241 16.7589C378.875 16.3927 378.875 15.8035 378.875 14.625V13.375Z" stroke="#3C46C9" stroke-width="1.25"/>
<path d="M379.812 10.875C379.812 10.875 380.243 10.038 380.34 9.00058C380.393 8.43828 380.419 8.15712 380.577 7.99796C380.736 7.83879 380.927 7.82009 381.309 7.78269C381.511 7.76294 381.741 7.75 382 7.75C382.259 7.75 382.489 7.76294 382.691 7.78269C383.073 7.82009 383.264 7.83879 383.423 7.99796C383.581 8.15712 383.607 8.43828 383.66 9.00058C383.757 10.038 384.188 10.875 384.188 10.875" stroke="#3C46C9" stroke-width="1.25" stroke-linecap="round" stroke-linejoin="round"/>
<path d="M384.188 17.125C384.188 17.125 383.757 17.962 383.66 18.9994C383.607 19.5617 383.581 19.8429 383.423 20.0021C383.264 20.1612 383.073 20.1799 382.691 20.2173C382.489 20.2371 382.259 20.25 382 20.25C381.741 20.25 381.511 20.2371 381.309 20.2173C380.927 20.1799 380.736 20.1612 380.577 20.0021C380.419 19.8429 380.393 19.5617 380.34 18.9994C380.243 17.962 379.812 17.125 379.812 17.125" stroke="#3C46C9" stroke-width="1.25" stroke-linecap="round" stroke-linejoin="round"/>
<path d="M397.835 19.5L395.677 11.8636H397.512L398.854 17.233H398.924L400.296 11.8636H402.11L403.483 17.2031H403.557L404.88 11.8636H406.719L404.556 19.5H402.682L401.25 14.3395H401.146L399.714 19.5H397.835ZM409.963 19.6541C409.479 19.6541 409.043 19.5679 408.656 19.3956C408.271 19.2199 407.966 18.9614 407.741 18.62C407.519 18.2786 407.408 17.8577 407.408 17.3572C407.408 16.9264 407.487 16.5701 407.646 16.2884C407.805 16.0066 408.022 15.7812 408.298 15.6122C408.573 15.4432 408.883 15.3156 409.227 15.2294C409.575 15.1399 409.935 15.0753 410.306 15.0355C410.754 14.9891 411.116 14.9477 411.395 14.9112C411.673 14.8714 411.875 14.8118 412.001 14.7322C412.131 14.6494 412.195 14.5218 412.195 14.3494V14.3196C412.195 13.9451 412.084 13.6551 411.862 13.4496C411.64 13.2441 411.32 13.1413 410.903 13.1413C410.462 13.1413 410.112 13.2375 409.854 13.4297C409.598 13.6219 409.426 13.849 409.337 14.1108L407.656 13.8722C407.789 13.4081 408.008 13.0204 408.312 12.7088C408.617 12.3939 408.99 12.1586 409.431 12.0028C409.872 11.8438 410.359 11.7642 410.893 11.7642C411.261 11.7642 411.627 11.8073 411.991 11.8935C412.356 11.9796 412.689 12.1222 412.991 12.321C413.292 12.5166 413.534 12.7834 413.717 13.1214C413.902 13.4595 413.995 13.8821 413.995 14.3892V19.5H412.265V18.451H412.205C412.096 18.6631 411.942 18.862 411.743 19.0476C411.547 19.2299 411.3 19.3774 411.002 19.4901C410.707 19.5994 410.361 19.6541 409.963 19.6541ZM410.43 18.3317C410.792 18.3317 411.105 18.2604 411.37 18.1179C411.635 17.9721 411.839 17.7798 411.982 17.5412C412.127 17.3026 412.2 17.0424 412.2 16.7607V15.8608C412.144 15.9072 412.048 15.9503 411.912 15.9901C411.779 16.0298 411.63 16.0646 411.464 16.0945C411.299 16.1243 411.135 16.1508 410.972 16.174C410.81 16.1972 410.669 16.2171 410.55 16.2337C410.281 16.2701 410.041 16.3298 409.829 16.4126C409.617 16.4955 409.449 16.6115 409.327 16.7607C409.204 16.9065 409.143 17.0954 409.143 17.3274C409.143 17.6589 409.264 17.9091 409.506 18.0781C409.748 18.2472 410.056 18.3317 410.43 18.3317ZM419.408 11.8636V13.2557H415.018V11.8636H419.408ZM416.102 10.0341H417.901V17.2031C417.901 17.4451 417.938 17.6307 418.011 17.7599C418.087 17.8859 418.187 17.9721 418.309 18.0185C418.432 18.0649 418.568 18.0881 418.717 18.0881C418.83 18.0881 418.932 18.0798 419.025 18.0632C419.121 18.0466 419.194 18.0317 419.244 18.0185L419.547 19.4254C419.451 19.4586 419.313 19.495 419.134 19.5348C418.959 19.5746 418.743 19.5978 418.488 19.6044C418.037 19.6177 417.631 19.5497 417.27 19.4006C416.909 19.2481 416.622 19.0128 416.41 18.6946C416.201 18.3764 416.098 17.9787 416.102 17.5014V10.0341ZM423.952 19.6491C423.19 19.6491 422.535 19.4818 421.988 19.147C421.445 18.8123 421.025 18.3499 420.73 17.7599C420.439 17.1667 420.293 16.4839 420.293 15.7116C420.293 14.9361 420.442 14.2517 420.74 13.6584C421.039 13.0618 421.46 12.5978 422.003 12.2663C422.55 11.9316 423.196 11.7642 423.942 11.7642C424.562 11.7642 425.11 11.8786 425.588 12.1072C426.068 12.3326 426.451 12.6525 426.736 13.0668C427.021 13.4777 427.184 13.9583 427.223 14.5085H425.503C425.434 14.1406 425.268 13.834 425.006 13.5888C424.747 13.3402 424.401 13.2159 423.967 13.2159C423.599 13.2159 423.276 13.3153 422.997 13.5142C422.719 13.7098 422.502 13.9915 422.346 14.3594C422.194 14.7273 422.117 15.1681 422.117 15.6818C422.117 16.2022 422.194 16.6496 422.346 17.0241C422.499 17.3954 422.712 17.6821 422.987 17.8842C423.266 18.0831 423.592 18.1825 423.967 18.1825C424.232 18.1825 424.469 18.1328 424.678 18.0334C424.89 17.9306 425.067 17.7831 425.21 17.5909C425.352 17.3987 425.45 17.165 425.503 16.8899H427.223C427.18 17.4302 427.021 17.9091 426.746 18.3267C426.471 18.741 426.096 19.0658 425.622 19.3011C425.148 19.5331 424.592 19.6491 423.952 19.6491ZM430.291 15.0256V19.5H428.491V9.31818H430.251V13.1612H430.341C430.519 12.7304 430.796 12.3906 431.171 12.142C431.549 11.8902 432.029 11.7642 432.613 11.7642C433.143 11.7642 433.605 11.8752 434 12.0973C434.394 12.3194 434.699 12.6442 434.914 13.0717C435.133 13.4993 435.243 14.0213 435.243 14.6378V19.5H433.443V14.9162C433.443 14.4025 433.31 14.0031 433.045 13.718C432.783 13.4297 432.415 13.2855 431.941 13.2855C431.623 13.2855 431.338 13.3551 431.086 13.4943C430.838 13.6302 430.642 13.8274 430.5 14.0859C430.36 14.3445 430.291 14.6577 430.291 15.0256ZM446.045 14.4091C446.045 15.5062 445.839 16.4458 445.428 17.228C445.02 18.0069 444.464 18.6035 443.758 19.0178C443.055 19.4321 442.258 19.6392 441.366 19.6392C440.475 19.6392 439.676 19.4321 438.97 19.0178C438.267 18.6001 437.711 18.0019 437.3 17.223C436.892 16.4408 436.688 15.5028 436.688 14.4091C436.688 13.312 436.892 12.3741 437.3 11.5952C437.711 10.813 438.267 10.2147 438.97 9.80043C439.676 9.38613 440.475 9.17898 441.366 9.17898C442.258 9.17898 443.055 9.38613 443.758 9.80043C444.464 10.2147 445.02 10.813 445.428 11.5952C445.839 12.3741 446.045 13.312 446.045 14.4091ZM444.19 14.4091C444.19 13.6368 444.069 12.9856 443.827 12.4553C443.589 11.9216 443.257 11.5189 442.833 11.2472C442.409 10.9721 441.92 10.8345 441.366 10.8345C440.813 10.8345 440.324 10.9721 439.9 11.2472C439.475 11.5189 439.142 11.9216 438.9 12.4553C438.662 12.9856 438.542 13.6368 438.542 14.4091C438.542 15.1813 438.662 15.8343 438.9 16.3679C439.142 16.8982 439.475 17.3009 439.9 17.576C440.324 17.8478 440.813 17.9837 441.366 17.9837C441.92 17.9837 442.409 17.8478 442.833 17.576C443.257 17.3009 443.589 16.8982 443.827 16.3679C444.069 15.8343 444.19 15.1813 444.19 14.4091ZM453.112 12.1172C453.065 11.683 452.87 11.3449 452.525 11.103C452.184 10.861 451.74 10.7401 451.193 10.7401C450.808 10.7401 450.478 10.7981 450.203 10.9141C449.928 11.0301 449.718 11.1875 449.572 11.3864C449.426 11.5852 449.352 11.8123 449.348 12.0675C449.348 12.2796 449.396 12.4635 449.492 12.6193C449.592 12.7751 449.726 12.9077 449.895 13.017C450.064 13.1231 450.251 13.2126 450.457 13.2855C450.662 13.3584 450.87 13.4197 451.078 13.4695L452.033 13.7081C452.417 13.7976 452.787 13.9186 453.142 14.071C453.5 14.2235 453.819 14.4157 454.101 14.6477C454.386 14.8797 454.612 15.1598 454.777 15.4879C454.943 15.8161 455.026 16.2005 455.026 16.6413C455.026 17.2379 454.873 17.7633 454.568 18.2173C454.263 18.6681 453.823 19.0211 453.246 19.2763C452.673 19.5282 451.978 19.6541 451.163 19.6541C450.371 19.6541 449.683 19.5315 449.1 19.2862C448.52 19.041 448.066 18.683 447.737 18.2124C447.413 17.7417 447.237 17.1683 447.21 16.4922H449.025C449.052 16.8468 449.161 17.1418 449.353 17.3771C449.545 17.6125 449.796 17.7881 450.104 17.9041C450.415 18.0201 450.763 18.0781 451.148 18.0781C451.549 18.0781 451.9 18.0185 452.202 17.8991C452.507 17.7765 452.746 17.6075 452.918 17.392C453.09 17.1733 453.178 16.9181 453.181 16.6264C453.178 16.3613 453.1 16.1425 452.948 15.9702C452.795 15.7945 452.581 15.6487 452.306 15.5327C452.035 15.4134 451.716 15.3073 451.352 15.2145L450.193 14.9162C449.355 14.7008 448.692 14.3743 448.205 13.9368C447.721 13.496 447.479 12.911 447.479 12.1818C447.479 11.5819 447.641 11.0566 447.966 10.6058C448.294 10.1551 448.74 9.8054 449.304 9.55682C449.867 9.30492 450.505 9.17898 451.218 9.17898C451.94 9.17898 452.573 9.30492 453.117 9.55682C453.664 9.8054 454.093 10.1518 454.404 10.5959C454.716 11.0367 454.877 11.5438 454.887 12.1172H453.112Z" fill="#F1EFEF"/>
<rect x="466" width="93" height="28" rx="6" fill="#3C46C9"/>
<rect x="472" y="5" width="18" height="18" rx="3.5" fill="#F1EFEF"/>
<path opacity="0.4" d="M477.562 17.4375C476 17.4375 474.75 16.5 474.75 14.3125C474.75 11.8125 476.625 10.5625 481 10.5625C485.375 10.5625 487.25 11.8125 487.25 14.3125C487.25 16.5 486 17.4375 484.438 17.4375C482.875 17.4375 481.938 15.875 481 15.875C480.062 15.875 479.125 17.4375 477.562 17.4375Z" fill="#3C46C9"/>
<path d="M477.562 17.4375C476 17.4375 474.75 16.5 474.75 14.3125C474.75 11.8125 476.625 10.5625 481 10.5625C485.375 10.5625 487.25 11.8125 487.25 14.3125C487.25 16.5 486 17.4375 484.438 17.4375C482.875 17.4375 481.938 15.875 481 15.875C480.062 15.875 479.125 17.4375 477.562 17.4375Z" stroke="#3C46C9" stroke-width="1.25" stroke-linecap="round"/>
<path d="M501.964 11.8636L499.245 19.5H497.256L494.537 11.8636H496.456L498.211 17.5362H498.29L500.05 11.8636H501.964ZM503 19.5V11.8636H504.799V19.5H503ZM503.904 10.7798C503.619 10.7798 503.374 10.6854 503.169 10.4964C502.963 10.3042 502.86 10.0739 502.86 9.8054C502.86 9.53362 502.963 9.30327 503.169 9.11435C503.374 8.92211 503.619 8.82599 503.904 8.82599C504.193 8.82599 504.438 8.92211 504.64 9.11435C504.846 9.30327 504.948 9.53362 504.948 9.8054C504.948 10.0739 504.846 10.3042 504.64 10.4964C504.438 10.6854 504.193 10.7798 503.904 10.7798ZM512.475 13.8821L510.835 14.0611C510.788 13.8954 510.707 13.7396 510.591 13.5938C510.479 13.4479 510.326 13.3303 510.134 13.2408C509.942 13.1513 509.706 13.1065 509.428 13.1065C509.053 13.1065 508.738 13.1877 508.483 13.3501C508.231 13.5125 508.107 13.723 508.11 13.9815C508.107 14.2036 508.188 14.3842 508.354 14.5234C508.523 14.6626 508.801 14.777 509.189 14.8665L510.492 15.1449C511.214 15.3007 511.751 15.5476 512.103 15.8857C512.457 16.2237 512.636 16.6662 512.639 17.2131C512.636 17.6937 512.495 18.1179 512.217 18.4858C511.942 18.8504 511.559 19.1354 511.068 19.3409C510.578 19.5464 510.014 19.6491 509.378 19.6491C508.443 19.6491 507.691 19.4536 507.121 19.0625C506.551 18.6681 506.211 18.1196 506.102 17.4169L507.857 17.2479C507.936 17.5926 508.105 17.8527 508.364 18.0284C508.622 18.2041 508.959 18.2919 509.373 18.2919C509.801 18.2919 510.144 18.2041 510.402 18.0284C510.664 17.8527 510.795 17.6357 510.795 17.3771C510.795 17.1584 510.711 16.9777 510.541 16.8352C510.376 16.6927 510.117 16.5833 509.766 16.5071L508.463 16.2337C507.731 16.0812 507.189 15.8243 506.838 15.4631C506.486 15.0985 506.312 14.6378 506.316 14.081C506.312 13.6103 506.44 13.2027 506.698 12.858C506.96 12.5099 507.323 12.2415 507.787 12.0526C508.255 11.8603 508.793 11.7642 509.403 11.7642C510.298 11.7642 511.002 11.9548 511.516 12.3359C512.033 12.7171 512.353 13.2325 512.475 13.8821ZM513.914 19.5V11.8636H515.713V19.5H513.914ZM514.818 10.7798C514.533 10.7798 514.288 10.6854 514.083 10.4964C513.877 10.3042 513.774 10.0739 513.774 9.8054C513.774 9.53362 513.877 9.30327 514.083 9.11435C514.288 8.92211 514.533 8.82599 514.818 8.82599C515.107 8.82599 515.352 8.92211 515.554 9.11435C515.76 9.30327 515.862 9.53362 515.862 9.8054C515.862 10.0739 515.76 10.3042 515.554 10.4964C515.352 10.6854 515.107 10.7798 514.818 10.7798ZM520.685 19.6491C519.939 19.6491 519.293 19.4851 518.746 19.157C518.199 18.8288 517.775 18.3698 517.473 17.7798C517.175 17.1899 517.026 16.5005 517.026 15.7116C517.026 14.9228 517.175 14.2318 517.473 13.6385C517.775 13.0452 518.199 12.5845 518.746 12.2564C519.293 11.9283 519.939 11.7642 520.685 11.7642C521.431 11.7642 522.077 11.9283 522.624 12.2564C523.171 12.5845 523.593 13.0452 523.892 13.6385C524.193 14.2318 524.344 14.9228 524.344 15.7116C524.344 16.5005 524.193 17.1899 523.892 17.7798C523.593 18.3698 523.171 18.8288 522.624 19.157C522.077 19.4851 521.431 19.6491 520.685 19.6491ZM520.695 18.2074C521.099 18.2074 521.437 18.0964 521.709 17.8743C521.981 17.6489 522.183 17.3473 522.316 16.9695C522.451 16.5916 522.519 16.1707 522.519 15.7067C522.519 15.2393 522.451 14.8168 522.316 14.4389C522.183 14.0578 521.981 13.7545 521.709 13.5291C521.437 13.3037 521.099 13.1911 520.695 13.1911C520.281 13.1911 519.936 13.3037 519.661 13.5291C519.389 13.7545 519.185 14.0578 519.049 14.4389C518.917 14.8168 518.85 15.2393 518.85 15.7067C518.85 16.1707 518.917 16.5916 519.049 16.9695C519.185 17.3473 519.389 17.6489 519.661 17.8743C519.936 18.0964 520.281 18.2074 520.695 18.2074ZM527.461 15.0256V19.5H525.661V11.8636H527.382V13.1612H527.471C527.647 12.7337 527.927 12.3939 528.311 12.142C528.699 11.8902 529.178 11.7642 529.748 11.7642C530.275 11.7642 530.734 11.8769 531.125 12.1023C531.52 12.3277 531.825 12.6541 532.04 13.0817C532.259 13.5092 532.366 14.0279 532.363 14.6378V19.5H530.563V14.9162C530.563 14.4058 530.431 14.0064 530.166 13.718C529.904 13.4297 529.541 13.2855 529.077 13.2855C528.762 13.2855 528.482 13.3551 528.237 13.4943C527.995 13.6302 527.804 13.8274 527.665 14.0859C527.529 14.3445 527.461 14.6577 527.461 15.0256ZM543.16 14.4091C543.16 15.5062 542.955 16.4458 542.544 17.228C542.136 18.0069 541.579 18.6035 540.873 19.0178C540.171 19.4321 539.374 19.6392 538.482 19.6392C537.59 19.6392 536.792 19.4321 536.086 19.0178C535.383 18.6001 534.826 18.0019 534.415 17.223C534.008 16.4408 533.804 15.5028 533.804 14.4091C533.804 13.312 534.008 12.3741 534.415 11.5952C534.826 10.813 535.383 10.2147 536.086 9.80043C536.792 9.38613 537.59 9.17898 538.482 9.17898C539.374 9.17898 540.171 9.38613 540.873 9.80043C541.579 10.2147 542.136 10.813 542.544 11.5952C542.955 12.3741 543.16 13.312 543.16 14.4091ZM541.306 14.4091C541.306 13.6368 541.185 12.9856 540.943 12.4553C540.704 11.9216 540.373 11.5189 539.949 11.2472C539.524 10.9721 539.036 10.8345 538.482 10.8345C537.929 10.8345 537.44 10.9721 537.015 11.2472C536.591 11.5189 536.258 11.9216 536.016 12.4553C535.777 12.9856 535.658 13.6368 535.658 14.4091C535.658 15.1813 535.777 15.8343 536.016 16.3679C536.258 16.8982 536.591 17.3009 537.015 17.576C537.44 17.8478 537.929 17.9837 538.482 17.9837C539.036 17.9837 539.524 17.8478 539.949 17.576C540.373 17.3009 540.704 16.8982 540.943 16.3679C541.185 15.8343 541.306 15.1813 541.306 14.4091ZM550.227 12.1172C550.181 11.683 549.985 11.3449 549.641 11.103C549.299 10.861 548.855 10.7401 548.308 10.7401C547.924 10.7401 547.594 10.7981 547.319 10.9141C547.044 11.0301 546.834 11.1875 546.688 11.3864C546.542 11.5852 546.467 11.8123 546.464 12.0675C546.464 12.2796 546.512 12.4635 546.608 12.6193C546.708 12.7751 546.842 12.9077 547.011 13.017C547.18 13.1231 547.367 13.2126 547.573 13.2855C547.778 13.3584 547.985 13.4197 548.194 13.4695L549.149 13.7081C549.533 13.7976 549.903 13.9186 550.257 14.071C550.615 14.2235 550.935 14.4157 551.217 14.6477C551.502 14.8797 551.727 15.1598 551.893 15.4879C552.059 15.8161 552.142 16.2005 552.142 16.6413C552.142 17.2379 551.989 17.7633 551.684 18.2173C551.379 18.6681 550.938 19.0211 550.362 19.2763C549.788 19.5282 549.094 19.6541 548.279 19.6541C547.486 19.6541 546.799 19.5315 546.215 19.2862C545.635 19.041 545.181 18.683 544.853 18.2124C544.528 17.7417 544.353 17.1683 544.326 16.4922H546.141C546.167 16.8468 546.277 17.1418 546.469 17.3771C546.661 17.6125 546.911 17.7881 547.22 17.9041C547.531 18.0201 547.879 18.0781 548.264 18.0781C548.665 18.0781 549.016 18.0185 549.318 17.8991C549.623 17.7765 549.861 17.6075 550.034 17.392C550.206 17.1733 550.294 16.9181 550.297 16.6264C550.294 16.3613 550.216 16.1425 550.063 15.9702C549.911 15.7945 549.697 15.6487 549.422 15.5327C549.15 15.4134 548.832 15.3073 548.468 15.2145L547.309 14.9162C546.471 14.7008 545.808 14.3743 545.32 13.9368C544.837 13.496 544.595 12.911 544.595 12.1818C544.595 11.5819 544.757 11.0566 545.082 10.6058C545.41 10.1551 545.856 9.8054 546.419 9.55682C546.983 9.30492 547.621 9.17898 548.333 9.17898C549.056 9.17898 549.689 9.30492 550.232 9.55682C550.779 9.8054 551.209 10.1518 551.52 10.5959C551.832 11.0367 551.992 11.5438 552.002 12.1172H550.227Z" fill="#F1EFEF"/>
<rect x="108" y="32" width="164" height="28" rx="6" fill="#3C46C9"/>
<rect x="114" y="37" width="18" height="18" rx="3.5" fill="#F1EFEF"/>
<path d="M123 52.25H122.062C119.705 52.25 118.527 52.25 117.795 51.5177C117.062 50.7855 117.062 49.607 117.063 47.2499L117.063 44.75C117.063 42.393 117.063 41.2145 117.795 40.4822C118.527 39.75 119.706 39.75 122.062 39.75H122.687C125.044 39.75 126.223 39.75 126.955 40.4822C127.687 41.2145 127.687 42.393 127.687 44.75V45.375" stroke="#3C46C9" stroke-width="1.25" stroke-linecap="round" stroke-linejoin="round"/>
<path d="M119.875 42.875H124.875M119.875 46H122.688" stroke="#3C46C9" stroke-width="1.25" stroke-linecap="round" stroke-linejoin="round"/>
<path d="M126.438 51.4829C127.542 51.4829 128.438 50.5672 128.438 49.4375C128.438 48.3078 127.542 47.3921 126.438 47.3921M126.438 51.4829C125.333 51.4829 124.438 50.5672 124.438 49.4375C124.438 48.3078 125.333 47.3921 126.438 47.3921M126.438 51.4829V52.25M126.438 47.3921V46.625M124.62 48.3218L123.938 47.9034M128.938 50.9716L128.256 50.5532M128.255 48.3218L128.937 47.9034M123.938 50.9716L124.619 50.5532" stroke="#3C46C9" stroke-width="1.25" stroke-linecap="round"/>
<path opacity="0.4" d="M127.687 44.75V47.25C127.687 47.4552 127.687 47.6516 127.687 47.8394C127.345 47.5592 126.91 47.3916 126.438 47.3916C125.333 47.3916 124.438 48.3074 124.438 49.4371C124.438 50.5668 125.333 51.4825 126.438 51.4825C126.665 51.4825 126.883 51.4439 127.086 51.3727C127.045 51.423 127.002 51.4713 126.955 51.5177C126.223 52.25 125.044 52.25 122.687 52.25H122.062C119.705 52.25 118.527 52.25 117.795 51.5177C117.062 50.7855 117.062 49.607 117.063 47.2499L117.063 44.75C117.063 42.393 117.063 41.2145 117.795 40.4822C118.527 39.75 119.706 39.75 122.062 39.75H122.687C125.044 39.75 126.223 39.75 126.955 40.4822C127.687 41.2145 127.687 42.393 127.687 44.75Z" fill="#3C46C9"/>
<path d="M138.597 51.5H136.628L140.213 41.3182H142.49L146.079 51.5H144.11L141.391 43.4062H141.311L138.597 51.5ZM138.661 47.5078H144.031V48.9893H138.661V47.5078ZM147.131 54.3636V43.8636H148.9V45.1264H149.005C149.098 44.9408 149.229 44.7436 149.398 44.5348C149.567 44.3227 149.795 44.142 150.084 43.9929C150.372 43.8404 150.74 43.7642 151.187 43.7642C151.777 43.7642 152.309 43.915 152.783 44.2166C153.261 44.5149 153.638 44.9574 153.917 45.544C154.199 46.1274 154.339 46.8433 154.339 47.6918C154.339 48.5303 154.202 49.2429 153.927 49.8295C153.652 50.4162 153.277 50.8636 152.803 51.1719C152.329 51.4801 151.792 51.6342 151.192 51.6342C150.755 51.6342 150.392 51.5613 150.104 51.4155C149.815 51.2696 149.583 51.094 149.408 50.8885C149.235 50.6797 149.101 50.4825 149.005 50.2969H148.93V54.3636H147.131ZM148.895 47.6818C148.895 48.1757 148.965 48.6082 149.104 48.9794C149.247 49.3506 149.451 49.6406 149.716 49.8494C149.984 50.0549 150.309 50.1577 150.69 50.1577C151.088 50.1577 151.421 50.0516 151.69 49.8395C151.958 49.6241 152.16 49.3307 152.296 48.9595C152.435 48.585 152.505 48.1591 152.505 47.6818C152.505 47.2079 152.437 46.7869 152.301 46.419C152.165 46.0511 151.963 45.7628 151.694 45.554C151.426 45.3452 151.091 45.2408 150.69 45.2408C150.306 45.2408 149.979 45.3419 149.711 45.544C149.442 45.7462 149.239 46.0296 149.099 46.3942C148.963 46.7588 148.895 47.188 148.895 47.6818ZM157.868 51.6541C157.384 51.6541 156.948 51.5679 156.56 51.3956C156.176 51.2199 155.871 50.9614 155.646 50.62C155.424 50.2786 155.313 49.8577 155.313 49.3572C155.313 48.9264 155.392 48.5701 155.551 48.2884C155.71 48.0066 155.927 47.7812 156.203 47.6122C156.478 47.4432 156.788 47.3156 157.132 47.2294C157.48 47.1399 157.84 47.0753 158.211 47.0355C158.659 46.9891 159.021 46.9477 159.3 46.9112C159.578 46.8714 159.78 46.8118 159.906 46.7322C160.036 46.6494 160.1 46.5218 160.1 46.3494V46.3196C160.1 45.9451 159.989 45.6551 159.767 45.4496C159.545 45.2441 159.225 45.1413 158.808 45.1413C158.367 45.1413 158.017 45.2375 157.759 45.4297C157.503 45.6219 157.331 45.849 157.242 46.1108L155.561 45.8722C155.694 45.4081 155.913 45.0204 156.217 44.7088C156.522 44.3939 156.895 44.1586 157.336 44.0028C157.777 43.8438 158.264 43.7642 158.798 43.7642C159.166 43.7642 159.532 43.8073 159.896 43.8935C160.261 43.9796 160.594 44.1222 160.896 44.321C161.197 44.5166 161.439 44.7834 161.622 45.1214C161.807 45.4595 161.9 45.8821 161.9 46.3892V51.5H160.17V50.451H160.11C160.001 50.6631 159.847 50.862 159.648 51.0476C159.452 51.2299 159.205 51.3774 158.907 51.4901C158.612 51.5994 158.266 51.6541 157.868 51.6541ZM158.335 50.3317C158.697 50.3317 159.01 50.2604 159.275 50.1179C159.54 49.9721 159.744 49.7798 159.886 49.5412C160.032 49.3026 160.105 49.0424 160.105 48.7607V47.8608C160.049 47.9072 159.953 47.9503 159.817 47.9901C159.684 48.0298 159.535 48.0646 159.369 48.0945C159.204 48.1243 159.04 48.1508 158.877 48.174C158.715 48.1972 158.574 48.2171 158.455 48.2337C158.186 48.2701 157.946 48.3298 157.734 48.4126C157.522 48.4955 157.354 48.6115 157.232 48.7607C157.109 48.9065 157.048 49.0954 157.048 49.3274C157.048 49.6589 157.169 49.9091 157.411 50.0781C157.653 50.2472 157.961 50.3317 158.335 50.3317ZM166.831 51.6491C166.068 51.6491 165.414 51.4818 164.867 51.147C164.323 50.8123 163.904 50.3499 163.609 49.7599C163.317 49.1667 163.172 48.4839 163.172 47.7116C163.172 46.9361 163.321 46.2517 163.619 45.6584C163.917 45.0618 164.338 44.5978 164.882 44.2663C165.429 43.9316 166.075 43.7642 166.821 43.7642C167.44 43.7642 167.989 43.8786 168.466 44.1072C168.947 44.3326 169.33 44.6525 169.615 45.0668C169.9 45.4777 170.062 45.9583 170.102 46.5085H168.382C168.312 46.1406 168.146 45.834 167.885 45.5888C167.626 45.3402 167.28 45.2159 166.846 45.2159C166.478 45.2159 166.154 45.3153 165.876 45.5142C165.598 45.7098 165.381 45.9915 165.225 46.3594C165.072 46.7273 164.996 47.1681 164.996 47.6818C164.996 48.2022 165.072 48.6496 165.225 49.0241C165.377 49.3954 165.591 49.6821 165.866 49.8842C166.145 50.0831 166.471 50.1825 166.846 50.1825C167.111 50.1825 167.348 50.1328 167.556 50.0334C167.769 49.9306 167.946 49.7831 168.088 49.5909C168.231 49.3987 168.329 49.165 168.382 48.8899H170.102C170.059 49.4302 169.9 49.9091 169.625 50.3267C169.35 50.741 168.975 51.0658 168.501 51.3011C168.027 51.5331 167.47 51.6491 166.831 51.6491ZM173.169 47.0256V51.5H171.37V41.3182H173.13V45.1612H173.219C173.398 44.7304 173.675 44.3906 174.049 44.142C174.427 43.8902 174.908 43.7642 175.491 43.7642C176.021 43.7642 176.484 43.8752 176.878 44.0973C177.273 44.3194 177.578 44.6442 177.793 45.0717C178.012 45.4993 178.121 46.0213 178.121 46.6378V51.5H176.321V46.9162C176.321 46.4025 176.189 46.0031 175.924 45.718C175.662 45.4297 175.294 45.2855 174.82 45.2855C174.502 45.2855 174.217 45.3551 173.965 45.4943C173.716 45.6302 173.521 45.8274 173.378 46.0859C173.239 46.3445 173.169 46.6577 173.169 47.0256ZM183.126 51.6491C182.361 51.6491 181.699 51.4901 181.143 51.1719C180.589 50.8504 180.163 50.3963 179.865 49.8097C179.567 49.2197 179.418 48.5253 179.418 47.7266C179.418 46.9411 179.567 46.2517 179.865 45.6584C180.167 45.0618 180.588 44.5978 181.128 44.2663C181.668 43.9316 182.303 43.7642 183.032 43.7642C183.503 43.7642 183.947 43.8404 184.364 43.9929C184.785 44.142 185.156 44.3741 185.478 44.6889C185.803 45.0038 186.058 45.4048 186.244 45.892C186.429 46.3759 186.522 46.9527 186.522 47.6222V48.174H180.263V46.9609H184.797C184.793 46.6162 184.719 46.3097 184.573 46.0412C184.427 45.7694 184.223 45.5556 183.962 45.3999C183.703 45.2441 183.401 45.1662 183.057 45.1662C182.689 45.1662 182.366 45.2557 182.087 45.4347C181.809 45.6103 181.592 45.8423 181.436 46.1307C181.284 46.4157 181.206 46.7289 181.202 47.0703V48.1293C181.202 48.5734 181.284 48.9545 181.446 49.2727C181.608 49.5876 181.835 49.8295 182.127 49.9986C182.419 50.1643 182.76 50.2472 183.151 50.2472C183.413 50.2472 183.65 50.2107 183.862 50.1378C184.074 50.0616 184.258 49.9505 184.414 49.8047C184.57 49.6589 184.687 49.4782 184.767 49.2628L186.447 49.4517C186.341 49.8958 186.139 50.2836 185.841 50.6151C185.546 50.9432 185.168 51.1984 184.707 51.3807C184.247 51.5597 183.72 51.6491 183.126 51.6491ZM191.077 51.5V50.1676L194.612 46.7024C194.95 46.361 195.232 46.0578 195.457 45.7926C195.683 45.5275 195.852 45.2706 195.964 45.022C196.077 44.7734 196.133 44.5083 196.133 44.2266C196.133 43.9051 196.06 43.63 195.915 43.4013C195.769 43.1693 195.568 42.9903 195.313 42.8643C195.058 42.7384 194.768 42.6754 194.443 42.6754C194.108 42.6754 193.815 42.745 193.563 42.8842C193.311 43.0201 193.116 43.214 192.976 43.4659C192.841 43.7178 192.773 44.0178 192.773 44.3658H191.018C191.018 43.7195 191.165 43.1577 191.46 42.6804C191.755 42.2031 192.161 41.8336 192.678 41.5717C193.198 41.3099 193.795 41.179 194.468 41.179C195.151 41.179 195.751 41.3066 196.268 41.5618C196.785 41.817 197.186 42.1667 197.471 42.6108C197.759 43.0549 197.903 43.562 197.903 44.1321C197.903 44.5133 197.83 44.8878 197.684 45.2557C197.539 45.6236 197.282 46.0312 196.914 46.4787C196.549 46.9261 196.037 47.468 195.378 48.1044L193.623 49.8892V49.9588H198.057V51.5H191.077ZM200.691 51.6094C200.39 51.6094 200.131 51.5033 199.916 51.2912C199.7 51.0791 199.594 50.8205 199.597 50.5156C199.594 50.2173 199.7 49.9621 199.916 49.75C200.131 49.5379 200.39 49.4318 200.691 49.4318C200.983 49.4318 201.236 49.5379 201.452 49.75C201.671 49.9621 201.782 50.2173 201.785 50.5156C201.782 50.7178 201.729 50.9018 201.626 51.0675C201.526 51.2332 201.394 51.3658 201.228 51.4652C201.066 51.5613 200.887 51.6094 200.691 51.6094ZM206.78 51.6939C205.961 51.6939 205.259 51.4867 204.672 51.0724C204.089 50.6548 203.64 50.0533 203.325 49.2678C203.013 48.4789 202.858 47.5294 202.858 46.419C202.861 45.3087 203.018 44.3641 203.33 43.5852C203.645 42.803 204.094 42.2064 204.677 41.7955C205.264 41.3845 205.965 41.179 206.78 41.179C207.595 41.179 208.296 41.3845 208.883 41.7955C209.47 42.2064 209.919 42.803 210.23 43.5852C210.545 44.3674 210.703 45.312 210.703 46.419C210.703 47.5327 210.545 48.4839 210.23 49.2727C209.919 50.0582 209.47 50.6581 208.883 51.0724C208.3 51.4867 207.599 51.6939 206.78 51.6939ZM206.78 50.1378C207.416 50.1378 207.919 49.8246 208.287 49.1982C208.658 48.5684 208.843 47.642 208.843 46.419C208.843 45.6103 208.759 44.9309 208.59 44.3807C208.421 43.8305 208.182 43.4162 207.874 43.1378C207.566 42.8561 207.201 42.7152 206.78 42.7152C206.147 42.7152 205.647 43.0301 205.279 43.6598C204.911 44.2862 204.725 45.206 204.722 46.419C204.719 47.2311 204.8 47.9138 204.965 48.4673C205.135 49.0208 205.373 49.4384 205.681 49.7202C205.99 49.9986 206.356 50.1378 206.78 50.1378ZM215.507 51.5V41.3182H217.351V49.9538H221.835V51.5H215.507ZM223.147 51.5V43.8636H224.946V51.5H223.147ZM224.052 42.7798C223.767 42.7798 223.521 42.6854 223.316 42.4964C223.11 42.3042 223.008 42.0739 223.008 41.8054C223.008 41.5336 223.11 41.3033 223.316 41.1143C223.521 40.9221 223.767 40.826 224.052 40.826C224.34 40.826 224.585 40.9221 224.787 41.1143C224.993 41.3033 225.096 41.5336 225.096 41.8054C225.096 42.0739 224.993 42.3042 224.787 42.4964C224.585 42.6854 224.34 42.7798 224.052 42.7798ZM229.918 51.6491C229.156 51.6491 228.501 51.4818 227.954 51.147C227.411 50.8123 226.991 50.3499 226.697 49.7599C226.405 49.1667 226.259 48.4839 226.259 47.7116C226.259 46.9361 226.408 46.2517 226.706 45.6584C227.005 45.0618 227.426 44.5978 227.969 44.2663C228.516 43.9316 229.162 43.7642 229.908 43.7642C230.528 43.7642 231.076 43.8786 231.554 44.1072C232.034 44.3326 232.417 44.6525 232.702 45.0668C232.987 45.4777 233.15 45.9583 233.189 46.5085H231.469C231.4 46.1406 231.234 45.834 230.972 45.5888C230.714 45.3402 230.367 45.2159 229.933 45.2159C229.565 45.2159 229.242 45.3153 228.964 45.5142C228.685 45.7098 228.468 45.9915 228.312 46.3594C228.16 46.7273 228.084 47.1681 228.084 47.6818C228.084 48.2022 228.16 48.6496 228.312 49.0241C228.465 49.3954 228.679 49.6821 228.954 49.8842C229.232 50.0831 229.558 50.1825 229.933 50.1825C230.198 50.1825 230.435 50.1328 230.644 50.0334C230.856 49.9306 231.033 49.7831 231.176 49.5909C231.318 49.3987 231.416 49.165 231.469 48.8899H233.189C233.146 49.4302 232.987 49.9091 232.712 50.3267C232.437 50.741 232.063 51.0658 231.589 51.3011C231.115 51.5331 230.558 51.6491 229.918 51.6491ZM237.838 51.6491C237.072 51.6491 236.411 51.4901 235.854 51.1719C235.301 50.8504 234.875 50.3963 234.577 49.8097C234.278 49.2197 234.129 48.5253 234.129 47.7266C234.129 46.9411 234.278 46.2517 234.577 45.6584C234.878 45.0618 235.299 44.5978 235.839 44.2663C236.38 43.9316 237.014 43.7642 237.743 43.7642C238.214 43.7642 238.658 43.8404 239.076 43.9929C239.497 44.142 239.868 44.3741 240.189 44.6889C240.514 45.0038 240.769 45.4048 240.955 45.892C241.141 46.3759 241.233 46.9527 241.233 47.6222V48.174H234.974V46.9609H239.508C239.505 46.6162 239.43 46.3097 239.285 46.0412C239.139 45.7694 238.935 45.5556 238.673 45.3999C238.415 45.2441 238.113 45.1662 237.768 45.1662C237.4 45.1662 237.077 45.2557 236.799 45.4347C236.52 45.6103 236.303 45.8423 236.148 46.1307C235.995 46.4157 235.917 46.7289 235.914 47.0703V48.1293C235.914 48.5734 235.995 48.9545 236.158 49.2727C236.32 49.5876 236.547 49.8295 236.839 49.9986C237.13 50.1643 237.472 50.2472 237.863 50.2472C238.125 50.2472 238.362 50.2107 238.574 50.1378C238.786 50.0616 238.97 49.9505 239.126 49.8047C239.281 49.6589 239.399 49.4782 239.479 49.2628L241.159 49.4517C241.053 49.8958 240.851 50.2836 240.552 50.6151C240.257 50.9432 239.88 51.1984 239.419 51.3807C238.958 51.5597 238.431 51.6491 237.838 51.6491ZM244.346 47.0256V51.5H242.546V43.8636H244.266V45.1612H244.356C244.531 44.7337 244.811 44.3939 245.196 44.142C245.584 43.8902 246.063 43.7642 246.633 43.7642C247.16 43.7642 247.619 43.8769 248.01 44.1023C248.404 44.3277 248.709 44.6541 248.925 45.0817C249.143 45.5092 249.251 46.0279 249.248 46.6378V51.5H247.448V46.9162C247.448 46.4058 247.315 46.0064 247.05 45.718C246.788 45.4297 246.426 45.2855 245.962 45.2855C245.647 45.2855 245.367 45.3551 245.121 45.4943C244.879 45.6302 244.689 45.8274 244.55 46.0859C244.414 46.3445 244.346 46.6577 244.346 47.0256ZM256.903 45.8821L255.262 46.0611C255.216 45.8954 255.135 45.7396 255.019 45.5938C254.906 45.4479 254.753 45.3303 254.561 45.2408C254.369 45.1513 254.134 45.1065 253.855 45.1065C253.481 45.1065 253.166 45.1877 252.911 45.3501C252.659 45.5125 252.534 45.723 252.538 45.9815C252.534 46.2036 252.616 46.3842 252.781 46.5234C252.95 46.6626 253.229 46.777 253.617 46.8665L254.919 47.1449C255.642 47.3007 256.179 47.5476 256.53 47.8857C256.885 48.2237 257.064 48.6662 257.067 49.2131C257.064 49.6937 256.923 50.1179 256.644 50.4858C256.369 50.8504 255.986 51.1354 255.496 51.3409C255.005 51.5464 254.442 51.6491 253.806 51.6491C252.871 51.6491 252.118 51.4536 251.548 51.0625C250.978 50.6681 250.639 50.1196 250.529 49.4169L252.284 49.2479C252.364 49.5926 252.533 49.8527 252.791 50.0284C253.05 50.2041 253.386 50.2919 253.801 50.2919C254.228 50.2919 254.571 50.2041 254.83 50.0284C255.091 49.8527 255.222 49.6357 255.222 49.3771C255.222 49.1584 255.138 48.9777 254.969 48.8352C254.803 48.6927 254.545 48.5833 254.193 48.5071L252.891 48.2337C252.158 48.0812 251.616 47.8243 251.265 47.4631C250.914 47.0985 250.74 46.6378 250.743 46.081C250.74 45.6103 250.867 45.2027 251.126 44.858C251.388 44.5099 251.751 44.2415 252.215 44.0526C252.682 43.8603 253.221 43.7642 253.83 43.7642C254.725 43.7642 255.43 43.9548 255.943 44.3359C256.46 44.7171 256.78 45.2325 256.903 45.8821ZM261.722 51.6491C260.956 51.6491 260.295 51.4901 259.738 51.1719C259.184 50.8504 258.759 50.3963 258.46 49.8097C258.162 49.2197 258.013 48.5253 258.013 47.7266C258.013 46.9411 258.162 46.2517 258.46 45.6584C258.762 45.0618 259.183 44.5978 259.723 44.2663C260.263 43.9316 260.898 43.7642 261.627 43.7642C262.098 43.7642 262.542 43.8404 262.959 43.9929C263.38 44.142 263.752 44.3741 264.073 44.6889C264.398 45.0038 264.653 45.4048 264.839 45.892C265.024 46.3759 265.117 46.9527 265.117 47.6222V48.174H258.858V46.9609H263.392C263.389 46.6162 263.314 46.3097 263.168 46.0412C263.022 45.7694 262.819 45.5556 262.557 45.3999C262.298 45.2441 261.997 45.1662 261.652 45.1662C261.284 45.1662 260.961 45.2557 260.683 45.4347C260.404 45.6103 260.187 45.8423 260.031 46.1307C259.879 46.4157 259.801 46.7289 259.798 47.0703V48.1293C259.798 48.5734 259.879 48.9545 260.041 49.2727C260.204 49.5876 260.431 49.8295 260.722 49.9986C261.014 50.1643 261.355 50.2472 261.746 50.2472C262.008 50.2472 262.245 50.2107 262.457 50.1378C262.669 50.0616 262.853 49.9505 263.009 49.8047C263.165 49.6589 263.283 49.4782 263.362 49.2628L265.043 49.4517C264.937 49.8958 264.734 50.2836 264.436 50.6151C264.141 50.9432 263.763 51.1984 263.303 51.3807C262.842 51.5597 262.315 51.6491 261.722 51.6491Z" fill="#F1EFEF"/>
<rect x="276" y="32" width="175" height="28" rx="6" fill="#3C46C9"/>
<rect x="282" y="37" width="18" height="18" rx="3.5" fill="#F1EFEF"/>
<path opacity="0.4" fill-rule="evenodd" clip-rule="evenodd" d="M296.889 43.5C296.937 44.2048 296.938 45.0711 296.938 46.152V46.473C296.938 49.1963 296.938 50.5579 296.155 51.404C295.372 52.25 294.113 52.25 291.594 52.25H290.406C287.887 52.25 286.628 52.25 285.845 51.404C285.062 50.5579 285.062 49.1963 285.062 46.473V46.152C285.062 45.0711 285.062 44.2048 285.111 43.5H296.889ZM291 46.3125C291.542 46.3125 292.02 46.5888 292.3 47.0082C292.466 47.2563 292.562 47.5543 292.562 47.875C292.562 48.1957 292.466 48.4938 292.3 48.7419C292.02 49.1613 291.542 49.4375 291 49.4375C290.458 49.4375 289.98 49.1613 289.7 48.7419C289.534 48.4938 289.438 48.1957 289.438 47.875C289.438 47.5543 289.534 47.2563 289.7 47.0082C289.98 46.5888 290.458 46.3125 291 46.3125Z" fill="#3C46C9"/>
<path d="M294.75 39.75V41M287.25 39.75V41" stroke="#3C46C9" stroke-width="1.25" stroke-linecap="round" stroke-linejoin="round"/>
<path d="M285.375 43.5H296.625" stroke="#3C46C9" stroke-width="1.25" stroke-linecap="round" stroke-linejoin="round"/>
<path d="M285.062 46.152C285.062 43.4287 285.062 42.0671 285.845 41.221C286.628 40.375 287.887 40.375 290.406 40.375H291.594C294.113 40.375 295.372 40.375 296.155 41.221C296.938 42.0671 296.938 43.4287 296.938 46.152V46.473C296.938 49.1963 296.938 50.5579 296.155 51.404C295.372 52.25 294.113 52.25 291.594 52.25H290.406C287.887 52.25 286.628 52.25 285.845 51.404C285.062 50.5579 285.062 49.1963 285.062 46.473V46.152Z" stroke="#3C46C9" stroke-width="1.25" stroke-linecap="round" stroke-linejoin="round"/>
<path d="M291 49.4375V50.0625M291 49.4375C290.458 49.4375 289.98 49.1613 289.7 48.7419M291 49.4375C291.542 49.4375 292.02 49.1613 292.3 48.7419M289.7 48.7419L289.125 49.125M289.7 48.7419C289.534 48.4938 289.438 48.1957 289.438 47.875C289.438 47.5543 289.534 47.2563 289.7 47.0082M292.3 48.7419L292.875 49.125M292.3 48.7419C292.466 48.4938 292.562 48.1957 292.562 47.875C292.562 47.5543 292.466 47.2563 292.3 47.0082M291 46.3125C291.542 46.3125 292.02 46.5888 292.3 47.0082M291 46.3125C290.458 46.3125 289.98 46.5888 289.7 47.0082M291 46.3125V45.6875M292.3 47.0082L292.875 46.625M289.7 47.0082L289.125 46.625" stroke="#3C46C9" stroke-width="1.25" stroke-linecap="round"/>
<path d="M308.766 51.6392C308.05 51.6392 307.414 51.5166 306.857 51.2713C306.303 51.026 305.866 50.6847 305.544 50.2472C305.223 49.8097 305.052 49.3042 305.032 48.7308H306.902C306.918 49.0059 307.009 49.2462 307.175 49.4517C307.341 49.6539 307.561 49.8113 307.836 49.924C308.111 50.0367 308.42 50.093 308.761 50.093C309.126 50.093 309.449 50.0301 309.731 49.9041C310.012 49.7749 310.233 49.5959 310.392 49.3672C310.551 49.1385 310.629 48.875 310.625 48.5767C310.629 48.2685 310.549 47.9967 310.387 47.7614C310.224 47.526 309.989 47.3421 309.681 47.2095C309.376 47.0769 309.008 47.0107 308.577 47.0107H307.677V45.5888H308.577C308.932 45.5888 309.242 45.5275 309.507 45.4048C309.775 45.2822 309.986 45.1098 310.138 44.8878C310.291 44.6624 310.365 44.4022 310.362 44.1072C310.365 43.8189 310.301 43.5687 310.168 43.3565C310.039 43.1411 309.855 42.9737 309.616 42.8544C309.381 42.7351 309.104 42.6754 308.786 42.6754C308.474 42.6754 308.186 42.7318 307.921 42.8445C307.656 42.9571 307.442 43.1179 307.28 43.3267C307.117 43.5322 307.031 43.7775 307.021 44.0625H305.246C305.259 43.4924 305.423 42.992 305.738 42.5611C306.057 42.1269 306.481 41.7888 307.011 41.5469C307.541 41.3016 308.136 41.179 308.796 41.179C309.475 41.179 310.065 41.3066 310.566 41.5618C311.07 41.8137 311.459 42.1534 311.734 42.581C312.009 43.0085 312.147 43.4808 312.147 43.9979C312.15 44.5713 311.981 45.0518 311.64 45.4396C311.302 45.8274 310.857 46.081 310.307 46.2003V46.2798C311.023 46.3793 311.572 46.6444 311.953 47.0753C312.337 47.5028 312.528 48.0348 312.525 48.6712C312.525 49.2412 312.362 49.7517 312.037 50.2024C311.716 50.6499 311.272 51.0012 310.705 51.2564C310.142 51.5116 309.495 51.6392 308.766 51.6392ZM314.849 51.6094C314.547 51.6094 314.289 51.5033 314.073 51.2912C313.858 51.0791 313.752 50.8205 313.755 50.5156C313.752 50.2173 313.858 49.9621 314.073 49.75C314.289 49.5379 314.547 49.4318 314.849 49.4318C315.141 49.4318 315.394 49.5379 315.61 49.75C315.828 49.9621 315.939 50.2173 315.943 50.5156C315.939 50.7178 315.886 50.9018 315.784 51.0675C315.684 51.2332 315.552 51.3658 315.386 51.4652C315.223 51.5613 315.044 51.6094 314.849 51.6094ZM320.938 51.6939C320.119 51.6939 319.417 51.4867 318.83 51.0724C318.247 50.6548 317.797 50.0533 317.483 49.2678C317.171 48.4789 317.015 47.5294 317.015 46.419C317.019 45.3087 317.176 44.3641 317.488 43.5852C317.802 42.803 318.252 42.2064 318.835 41.7955C319.422 41.3845 320.123 41.179 320.938 41.179C321.753 41.179 322.454 41.3845 323.041 41.7955C323.627 42.2064 324.077 42.803 324.388 43.5852C324.703 44.3674 324.86 45.312 324.86 46.419C324.86 47.5327 324.703 48.4839 324.388 49.2727C324.077 50.0582 323.627 50.6581 323.041 51.0724C322.458 51.4867 321.757 51.6939 320.938 51.6939ZM320.938 50.1378C321.574 50.1378 322.076 49.8246 322.444 49.1982C322.815 48.5684 323.001 47.642 323.001 46.419C323.001 45.6103 322.917 44.9309 322.748 44.3807C322.578 43.8305 322.34 43.4162 322.032 43.1378C321.723 42.8561 321.359 42.7152 320.938 42.7152C320.305 42.7152 319.804 43.0301 319.436 43.6598C319.069 44.2862 318.883 45.206 318.88 46.419C318.876 47.2311 318.958 47.9138 319.123 48.4673C319.292 49.0208 319.531 49.4384 319.839 49.7202C320.147 49.9986 320.514 50.1378 320.938 50.1378ZM327.034 51.6094C326.733 51.6094 326.474 51.5033 326.259 51.2912C326.043 51.0791 325.937 50.8205 325.941 50.5156C325.937 50.2173 326.043 49.9621 326.259 49.75C326.474 49.5379 326.733 49.4318 327.034 49.4318C327.326 49.4318 327.58 49.5379 327.795 49.75C328.014 49.9621 328.125 50.2173 328.128 50.5156C328.125 50.7178 328.072 50.9018 327.969 51.0675C327.87 51.2332 327.737 51.3658 327.571 51.4652C327.409 51.5613 327.23 51.6094 327.034 51.6094ZM333.123 51.6939C332.305 51.6939 331.602 51.4867 331.015 51.0724C330.432 50.6548 329.983 50.0533 329.668 49.2678C329.357 48.4789 329.201 47.5294 329.201 46.419C329.204 45.3087 329.361 44.3641 329.673 43.5852C329.988 42.803 330.437 42.2064 331.02 41.7955C331.607 41.3845 332.308 41.179 333.123 41.179C333.939 41.179 334.64 41.3845 335.226 41.7955C335.813 42.2064 336.262 42.803 336.574 43.5852C336.888 44.3674 337.046 45.312 337.046 46.419C337.046 47.5327 336.888 48.4839 336.574 49.2727C336.262 50.0582 335.813 50.6581 335.226 51.0724C334.643 51.4867 333.942 51.6939 333.123 51.6939ZM333.123 50.1378C333.76 50.1378 334.262 49.8246 334.63 49.1982C335.001 48.5684 335.187 47.642 335.187 46.419C335.187 45.6103 335.102 44.9309 334.933 44.3807C334.764 43.8305 334.525 43.4162 334.217 43.1378C333.909 42.8561 333.544 42.7152 333.123 42.7152C332.49 42.7152 331.99 43.0301 331.622 43.6598C331.254 44.2862 331.068 45.206 331.065 46.419C331.062 47.2311 331.143 47.9138 331.309 48.4673C331.478 49.0208 331.716 49.4384 332.025 49.7202C332.333 49.9986 332.699 50.1378 333.123 50.1378Z" fill="#F1EFEF"/>
<path d="M349.61 41.3182V51.5H348.417L342.868 43.5057H342.769V51.5H341.536V41.3182H342.729L348.297 49.3324H348.397V41.3182H349.61ZM354.81 51.6591C354.121 51.6591 353.516 51.495 352.995 51.1669C352.478 50.8388 352.074 50.3797 351.782 49.7898C351.494 49.1998 351.35 48.5104 351.35 47.7216C351.35 46.9261 351.494 46.2318 351.782 45.6385C352.074 45.0452 352.478 44.5845 352.995 44.2564C353.516 43.9283 354.121 43.7642 354.81 43.7642C355.5 43.7642 356.103 43.9283 356.62 44.2564C357.14 44.5845 357.544 45.0452 357.833 45.6385C358.125 46.2318 358.27 46.9261 358.27 47.7216C358.27 48.5104 358.125 49.1998 357.833 49.7898C357.544 50.3797 357.14 50.8388 356.62 51.1669C356.103 51.495 355.5 51.6591 354.81 51.6591ZM354.81 50.6051C355.334 50.6051 355.765 50.4709 356.103 50.2024C356.441 49.9339 356.691 49.581 356.853 49.1435C357.016 48.706 357.097 48.232 357.097 47.7216C357.097 47.2112 357.016 46.7356 356.853 46.2947C356.691 45.8539 356.441 45.4976 356.103 45.2259C355.765 44.9541 355.334 44.8182 354.81 44.8182C354.286 44.8182 353.856 44.9541 353.518 45.2259C353.179 45.4976 352.929 45.8539 352.767 46.2947C352.604 46.7356 352.523 47.2112 352.523 47.7216C352.523 48.232 352.604 48.706 352.767 49.1435C352.929 49.581 353.179 49.9339 353.518 50.2024C353.856 50.4709 354.286 50.6051 354.81 50.6051ZM365.822 43.8636L362.998 51.5H361.805L358.981 43.8636H360.254L362.362 49.9489H362.442L364.55 43.8636H365.822ZM370.089 51.6591C369.353 51.6591 368.719 51.4967 368.185 51.1719C367.655 50.8438 367.245 50.3864 366.957 49.7997C366.672 49.2098 366.53 48.5237 366.53 47.7415C366.53 46.9593 366.672 46.2699 366.957 45.6733C367.245 45.0734 367.646 44.6061 368.16 44.2713C368.677 43.9332 369.28 43.7642 369.97 43.7642C370.368 43.7642 370.76 43.8305 371.148 43.9631C371.536 44.0956 371.889 44.3111 372.207 44.6094C372.525 44.9044 372.779 45.2955 372.968 45.7827C373.157 46.2699 373.251 46.8698 373.251 47.5824V48.0795H367.365V47.0653H372.058C372.058 46.6345 371.972 46.25 371.799 45.9119C371.63 45.5739 371.388 45.3071 371.074 45.1115C370.762 44.916 370.394 44.8182 369.97 44.8182C369.503 44.8182 369.098 44.9342 368.757 45.1662C368.419 45.3949 368.159 45.6932 367.976 46.0611C367.794 46.429 367.703 46.8234 367.703 47.2443V47.9205C367.703 48.4972 367.802 48.986 368.001 49.3871C368.203 49.7848 368.483 50.0881 368.841 50.2969C369.199 50.5024 369.615 50.6051 370.089 50.6051C370.397 50.6051 370.676 50.562 370.924 50.4759C371.176 50.3864 371.393 50.2538 371.576 50.0781C371.758 49.8991 371.899 49.6771 371.998 49.4119L373.132 49.7301C373.012 50.1146 372.812 50.4527 372.53 50.7443C372.248 51.0327 371.9 51.258 371.486 51.4205C371.072 51.5795 370.606 51.6591 370.089 51.6591ZM374.826 51.5V43.8636H375.959V45.0568H376.059C376.218 44.6491 376.475 44.3326 376.829 44.1072C377.184 43.8786 377.61 43.7642 378.107 43.7642C378.611 43.7642 379.03 43.8786 379.365 44.1072C379.703 44.3326 379.967 44.6491 380.155 45.0568H380.235C380.431 44.6624 380.724 44.3492 381.115 44.1172C381.506 43.8819 381.975 43.7642 382.522 43.7642C383.205 43.7642 383.763 43.978 384.197 44.4055C384.632 44.8298 384.849 45.491 384.849 46.3892V51.5H383.675V46.3892C383.675 45.8258 383.521 45.4231 383.213 45.1811C382.905 44.9392 382.542 44.8182 382.124 44.8182C381.587 44.8182 381.171 44.9806 380.876 45.3054C380.581 45.6269 380.434 46.0346 380.434 46.5284V51.5H379.241V46.2699C379.241 45.8357 379.1 45.486 378.818 45.2209C378.536 44.9524 378.173 44.8182 377.729 44.8182C377.424 44.8182 377.139 44.8994 376.874 45.0618C376.612 45.2242 376.4 45.4496 376.238 45.7379C376.079 46.023 375.999 46.3527 375.999 46.7273V51.5H374.826ZM386.943 51.5V41.3182H388.116V45.0767H388.216C388.302 44.9441 388.421 44.7751 388.574 44.5696C388.729 44.3608 388.951 44.1752 389.24 44.0128C389.531 43.8471 389.926 43.7642 390.423 43.7642C391.066 43.7642 391.633 43.925 392.123 44.2464C392.614 44.5679 392.997 45.0237 393.272 45.6136C393.547 46.2036 393.684 46.8996 393.684 47.7017C393.684 48.5104 393.547 49.2114 393.272 49.8047C392.997 50.3946 392.616 50.852 392.128 51.1768C391.641 51.4983 391.079 51.6591 390.443 51.6591C389.952 51.6591 389.56 51.5779 389.265 51.4155C388.97 51.2498 388.743 51.0625 388.584 50.8537C388.424 50.6416 388.302 50.4659 388.216 50.3267H388.076V51.5H386.943ZM388.096 47.6818C388.096 48.2585 388.181 48.7673 388.35 49.2081C388.519 49.6456 388.766 49.9886 389.091 50.2372C389.415 50.4825 389.813 50.6051 390.284 50.6051C390.774 50.6051 391.184 50.4759 391.512 50.2173C391.843 49.9555 392.092 49.6042 392.258 49.1634C392.427 48.7192 392.511 48.2254 392.511 47.6818C392.511 47.1449 392.428 46.661 392.263 46.2301C392.1 45.7959 391.853 45.4529 391.522 45.201C391.194 44.9458 390.781 44.8182 390.284 44.8182C389.807 44.8182 389.406 44.9392 389.081 45.1811C388.756 45.4197 388.511 45.7545 388.345 46.1854C388.179 46.6129 388.096 47.1117 388.096 47.6818ZM398.471 51.6591C397.735 51.6591 397.1 51.4967 396.567 51.1719C396.036 50.8438 395.627 50.3864 395.339 49.7997C395.054 49.2098 394.911 48.5237 394.911 47.7415C394.911 46.9593 395.054 46.2699 395.339 45.6733C395.627 45.0734 396.028 44.6061 396.542 44.2713C397.059 43.9332 397.662 43.7642 398.352 43.7642C398.749 43.7642 399.142 43.8305 399.53 43.9631C399.918 44.0956 400.271 44.3111 400.589 44.6094C400.907 44.9044 401.161 45.2955 401.349 45.7827C401.538 46.2699 401.633 46.8698 401.633 47.5824V48.0795H395.746V47.0653H400.44C400.44 46.6345 400.353 46.25 400.181 45.9119C400.012 45.5739 399.77 45.3071 399.455 45.1115C399.144 44.916 398.776 44.8182 398.352 44.8182C397.884 44.8182 397.48 44.9342 397.138 45.1662C396.8 45.3949 396.54 45.6932 396.358 46.0611C396.176 46.429 396.085 46.8234 396.085 47.2443V47.9205C396.085 48.4972 396.184 48.986 396.383 49.3871C396.585 49.7848 396.865 50.0881 397.223 50.2969C397.581 50.5024 397.997 50.6051 398.471 50.6051C398.779 50.6051 399.058 50.562 399.306 50.4759C399.558 50.3864 399.775 50.2538 399.957 50.0781C400.14 49.8991 400.281 49.6771 400.38 49.4119L401.513 49.7301C401.394 50.1146 401.194 50.4527 400.912 50.7443C400.63 51.0327 400.282 51.258 399.868 51.4205C399.454 51.5795 398.988 51.6591 398.471 51.6591ZM403.208 51.5V43.8636H404.341V45.017H404.421C404.56 44.6392 404.812 44.3326 405.176 44.0973C405.541 43.862 405.952 43.7443 406.409 43.7443C406.495 43.7443 406.603 43.746 406.732 43.7493C406.862 43.7526 406.96 43.7576 407.026 43.7642V44.9574C406.986 44.9474 406.895 44.9325 406.752 44.9126C406.613 44.8894 406.466 44.8778 406.31 44.8778C405.939 44.8778 405.607 44.9557 405.316 45.1115C405.027 45.264 404.799 45.4761 404.629 45.7479C404.464 46.0163 404.381 46.3229 404.381 46.6676V51.5H403.208ZM411.914 51.5V50.6051L415.275 46.9261C415.669 46.4953 415.994 46.1207 416.249 45.8026C416.505 45.4811 416.694 45.1795 416.816 44.8977C416.942 44.6127 417.005 44.3144 417.005 44.0028C417.005 43.6449 416.919 43.335 416.747 43.0732C416.578 42.8113 416.346 42.6091 416.051 42.4666C415.756 42.3241 415.424 42.2528 415.056 42.2528C414.665 42.2528 414.324 42.334 414.032 42.4964C413.744 42.6555 413.52 42.8793 413.361 43.1676C413.205 43.456 413.127 43.794 413.127 44.1818H411.954C411.954 43.5852 412.092 43.0616 412.367 42.6108C412.642 42.16 413.016 41.8087 413.49 41.5568C413.967 41.3049 414.503 41.179 415.096 41.179C415.693 41.179 416.221 41.3049 416.682 41.5568C417.143 41.8087 417.504 42.1484 417.766 42.576C418.028 43.0036 418.159 43.4792 418.159 44.0028C418.159 44.3774 418.091 44.7436 417.955 45.1016C417.822 45.4562 417.59 45.8523 417.259 46.2898C416.931 46.724 416.475 47.2543 415.891 47.8807L413.605 50.3267V50.4062H418.338V51.5H411.914ZM423.502 51.6392C422.753 51.6392 422.115 51.4354 421.588 51.0277C421.061 50.6167 420.658 50.0218 420.38 49.2429C420.101 48.4607 419.962 47.5161 419.962 46.4091C419.962 45.3087 420.101 44.3691 420.38 43.5902C420.661 42.808 421.066 42.2114 421.593 41.8004C422.123 41.3861 422.759 41.179 423.502 41.179C424.244 41.179 424.879 41.3861 425.406 41.8004C425.936 42.2114 426.341 42.808 426.619 43.5902C426.901 44.3691 427.042 45.3087 427.042 46.4091C427.042 47.5161 426.902 48.4607 426.624 49.2429C426.346 50.0218 425.943 50.6167 425.416 51.0277C424.889 51.4354 424.251 51.6392 423.502 51.6392ZM423.502 50.5455C424.244 50.5455 424.821 50.1875 425.232 49.4716C425.643 48.7557 425.848 47.7348 425.848 46.4091C425.848 45.5275 425.754 44.7768 425.565 44.157C425.379 43.5372 425.111 43.0649 424.76 42.7401C424.412 42.4152 423.992 42.2528 423.502 42.2528C422.766 42.2528 422.191 42.6158 421.777 43.3416C421.362 44.0642 421.155 45.0866 421.155 46.4091C421.155 47.2907 421.248 48.0398 421.434 48.6562C421.619 49.2727 421.886 49.7417 422.234 50.0632C422.585 50.3847 423.008 50.5455 423.502 50.5455ZM428.721 51.5V50.6051L432.082 46.9261C432.476 46.4953 432.801 46.1207 433.056 45.8026C433.311 45.4811 433.5 45.1795 433.623 44.8977C433.749 44.6127 433.812 44.3144 433.812 44.0028C433.812 43.6449 433.726 43.335 433.553 43.0732C433.384 42.8113 433.152 42.6091 432.857 42.4666C432.562 42.3241 432.231 42.2528 431.863 42.2528C431.472 42.2528 431.13 42.334 430.839 42.4964C430.55 42.6555 430.327 42.8793 430.168 43.1676C430.012 43.456 429.934 43.794 429.934 44.1818H428.761C428.761 43.5852 428.898 43.0616 429.173 42.6108C429.448 42.16 429.823 41.8087 430.297 41.5568C430.774 41.3049 431.309 41.179 431.903 41.179C432.499 41.179 433.028 41.3049 433.489 41.5568C433.949 41.8087 434.31 42.1484 434.572 42.576C434.834 43.0036 434.965 43.4792 434.965 44.0028C434.965 44.3774 434.897 44.7436 434.761 45.1016C434.629 45.4562 434.397 45.8523 434.065 46.2898C433.737 46.724 433.281 47.2543 432.698 47.8807L430.411 50.3267V50.4062H435.144V51.5H428.721ZM436.53 49.4119V48.3977L441.004 41.3182H441.74V42.8892H441.243L437.862 48.2386V48.3182H443.888V49.4119H436.53ZM441.323 51.5V49.1037V48.6314V41.3182H442.496V51.5H441.323Z" fill="#C6C6C8"/>
</svg>
