<svg width="559" height="92" viewBox="0 0 559 92" fill="none" xmlns="http://www.w3.org/2000/svg">
<rect x="210" width="139" height="28" rx="6" fill="#0069B1"/>
<rect x="216" y="5" width="18" height="18" rx="3.5" fill="#F1EFEF"/>
<circle opacity="0.4" cx="225" cy="14" r="5.625" fill="#0069B1"/>
<path fill-rule="evenodd" clip-rule="evenodd" d="M227.014 20.2385C227.313 20.3539 227.657 20.3504 227.969 20.2008C228.782 19.8109 229.511 19.2644 230.114 18.5942C230.221 18.4754 230.3 18.3411 230.352 18.1995C230.459 18.0632 230.56 17.9237 230.655 17.7813C230.818 17.5385 230.874 17.2557 230.835 16.9877C231.129 16.8579 231.37 16.612 231.484 16.2855C231.631 15.8677 231.739 15.4304 231.804 14.9775C231.869 14.5246 231.889 14.0745 231.866 13.6322C231.857 13.4711 231.817 13.319 231.752 13.1816C231.732 13.0115 231.705 12.8421 231.672 12.6736C231.615 12.3874 231.455 12.1479 231.239 11.9859C231.354 11.687 231.35 11.3429 231.201 11.0312C230.811 10.2184 230.264 9.48856 229.594 8.8856C229.475 8.7788 229.341 8.69995 229.2 8.64862C229.063 8.54079 228.923 8.43888 228.779 8.34293C228.537 8.18058 228.255 8.12412 227.987 8.16272C227.857 7.87036 227.611 7.63012 227.286 7.51564C226.868 7.36879 226.43 7.26064 225.977 7.19558C225.525 7.13052 225.074 7.11119 224.632 7.13449C224.473 7.14286 224.323 7.18166 224.187 7.24495C224.015 7.26558 223.843 7.29281 223.672 7.32666C223.385 7.38339 223.145 7.54344 222.983 7.76042C222.685 7.64614 222.342 7.65007 222.031 7.79917C221.218 8.18909 220.489 8.73559 219.886 9.40579C219.781 9.52227 219.703 9.65357 219.652 9.79205C219.542 9.93105 219.438 10.0735 219.341 10.2189C219.178 10.4621 219.122 10.7454 219.161 11.0138C218.869 11.1441 218.63 11.3894 218.516 11.7145C218.369 12.1323 218.261 12.5696 218.196 13.0225C218.131 13.4754 218.111 13.9255 218.134 14.3678C218.143 14.5247 218.181 14.673 218.243 14.8076C218.263 14.9814 218.291 15.1545 218.325 15.3266C218.382 15.614 218.542 15.8544 218.761 16.0164C218.646 16.3148 218.65 16.6579 218.799 16.9688C219.189 17.7816 219.736 18.5114 220.406 19.1144C220.522 19.2193 220.654 19.2973 220.793 19.3486C220.931 19.4576 221.072 19.5605 221.217 19.6573C221.46 19.8203 221.744 19.8766 222.013 19.837C222.143 20.1295 222.389 20.3698 222.714 20.4844C223.132 20.6312 223.57 20.7394 224.023 20.8044C224.475 20.8695 224.926 20.8888 225.368 20.8655C225.527 20.8571 225.677 20.8182 225.813 20.7547C225.985 20.7342 226.155 20.7071 226.325 20.6735C226.612 20.6167 226.852 20.4561 227.014 20.2385ZM229.187 15.7347C229.119 15.4471 229.11 15.1406 229.171 14.8317C229.279 14.2832 229.279 13.7169 229.171 13.1684C229.11 12.8595 229.119 12.5529 229.187 12.2653C228.936 12.1104 228.713 11.9003 228.538 11.639C228.386 11.4125 228.209 11.1961 228.007 10.9933C227.804 10.7906 227.588 10.6138 227.361 10.4621C227.1 10.2872 226.89 10.0643 226.735 9.81308C226.447 9.88139 226.141 9.8905 225.832 9.82934C225.283 9.72076 224.717 9.72076 224.168 9.82934C223.859 9.8905 223.553 9.88139 223.265 9.81308C223.11 10.0643 222.9 10.2872 222.639 10.4621C222.413 10.6138 222.196 10.7906 221.993 10.9933C221.791 11.1961 221.614 11.4125 221.462 11.639C221.287 11.9003 221.064 12.1104 220.813 12.2653C220.881 12.5529 220.891 12.8595 220.829 13.1684C220.721 13.7169 220.721 14.2832 220.829 14.8317C220.891 15.1406 220.881 15.4471 220.813 15.7347C221.064 15.8897 221.287 16.0997 221.462 16.361C221.614 16.5876 221.791 16.804 221.993 17.0067C222.196 17.2095 222.413 17.3862 222.639 17.5379C222.9 17.7129 223.11 17.9357 223.265 18.187C223.553 18.1187 223.859 18.1096 224.168 18.1707C224.717 18.2793 225.283 18.2793 225.832 18.1707C226.141 18.1096 226.447 18.1187 226.735 18.187C226.89 17.9357 227.1 17.7129 227.361 17.5379C227.588 17.3862 227.804 17.2095 228.007 17.0067C228.209 16.804 228.386 16.5876 228.538 16.361C228.713 16.0997 228.936 15.8897 229.187 15.7347Z" fill="#0069B1"/>
<path d="M239.084 9.31818H241.341L244.364 16.696H244.483L247.506 9.31818H249.763V19.5H247.993V12.505H247.899L245.085 19.4702H243.762L240.948 12.4901H240.854V19.5H239.084V9.31818ZM253.68 19.6541C253.196 19.6541 252.76 19.5679 252.372 19.3956C251.988 19.2199 251.683 18.9614 251.457 18.62C251.235 18.2786 251.124 17.8577 251.124 17.3572C251.124 16.9264 251.204 16.5701 251.363 16.2884C251.522 16.0066 251.739 15.7812 252.014 15.6122C252.289 15.4432 252.599 15.3156 252.944 15.2294C253.292 15.1399 253.651 15.0753 254.023 15.0355C254.47 14.9891 254.833 14.9477 255.111 14.9112C255.39 14.8714 255.592 14.8118 255.718 14.7322C255.847 14.6494 255.912 14.5218 255.912 14.3494V14.3196C255.912 13.9451 255.801 13.6551 255.579 13.4496C255.357 13.2441 255.037 13.1413 254.619 13.1413C254.178 13.1413 253.829 13.2375 253.57 13.4297C253.315 13.6219 253.143 13.849 253.053 14.1108L251.373 13.8722C251.505 13.4081 251.724 13.0204 252.029 12.7088C252.334 12.3939 252.707 12.1586 253.148 12.0028C253.588 11.8438 254.076 11.7642 254.609 11.7642C254.977 11.7642 255.343 11.8073 255.708 11.8935C256.072 11.9796 256.406 12.1222 256.707 12.321C257.009 12.5166 257.251 12.7834 257.433 13.1214C257.619 13.4595 257.711 13.8821 257.711 14.3892V19.5H255.981V18.451H255.922C255.812 18.6631 255.658 18.862 255.459 19.0476C255.264 19.2299 255.017 19.3774 254.719 19.4901C254.424 19.5994 254.077 19.6541 253.68 19.6541ZM254.147 18.3317C254.508 18.3317 254.821 18.2604 255.086 18.1179C255.352 17.9721 255.555 17.7798 255.698 17.5412C255.844 17.3026 255.917 17.0424 255.917 16.7607V15.8608C255.86 15.9072 255.764 15.9503 255.628 15.9901C255.496 16.0298 255.347 16.0646 255.181 16.0945C255.015 16.1243 254.851 16.1508 254.689 16.174C254.526 16.1972 254.385 16.2171 254.266 16.2337C253.998 16.2701 253.757 16.3298 253.545 16.4126C253.333 16.4955 253.166 16.6115 253.043 16.7607C252.921 16.9065 252.859 17.0954 252.859 17.3274C252.859 17.6589 252.98 17.9091 253.222 18.0781C253.464 18.2472 253.772 18.3317 254.147 18.3317ZM262.145 19.6342C261.545 19.6342 261.008 19.4801 260.534 19.1719C260.06 18.8636 259.686 18.4162 259.411 17.8295C259.135 17.2429 258.998 16.5303 258.998 15.6918C258.998 14.8433 259.137 14.1274 259.416 13.544C259.697 12.9574 260.077 12.5149 260.554 12.2166C261.031 11.915 261.563 11.7642 262.15 11.7642C262.597 11.7642 262.965 11.8404 263.254 11.9929C263.542 12.142 263.771 12.3227 263.94 12.5348C264.109 12.7436 264.24 12.9408 264.332 13.1264H264.407V9.31818H266.212V19.5H264.442V18.2969H264.332C264.24 18.4825 264.105 18.6797 263.93 18.8885C263.754 19.094 263.522 19.2696 263.234 19.4155C262.945 19.5613 262.582 19.6342 262.145 19.6342ZM262.647 18.1577C263.028 18.1577 263.353 18.0549 263.621 17.8494C263.89 17.6406 264.094 17.3506 264.233 16.9794C264.372 16.6082 264.442 16.1757 264.442 15.6818C264.442 15.188 264.372 14.7588 264.233 14.3942C264.097 14.0296 263.895 13.7462 263.626 13.544C263.361 13.3419 263.035 13.2408 262.647 13.2408C262.246 13.2408 261.911 13.3452 261.643 13.554C261.374 13.7628 261.172 14.0511 261.036 14.419C260.9 14.7869 260.832 15.2079 260.832 15.6818C260.832 16.1591 260.9 16.585 261.036 16.9595C261.175 17.3307 261.379 17.6241 261.648 17.8395C261.92 18.0516 262.253 18.1577 262.647 18.1577ZM271.3 19.6491C270.535 19.6491 269.873 19.4901 269.317 19.1719C268.763 18.8504 268.337 18.3963 268.039 17.8097C267.741 17.2197 267.591 16.5253 267.591 15.7266C267.591 14.9411 267.741 14.2517 268.039 13.6584C268.34 13.0618 268.761 12.5978 269.302 12.2663C269.842 11.9316 270.477 11.7642 271.206 11.7642C271.676 11.7642 272.12 11.8404 272.538 11.9929C272.959 12.142 273.33 12.3741 273.652 12.6889C273.977 13.0038 274.232 13.4048 274.417 13.892C274.603 14.3759 274.696 14.9527 274.696 15.6222V16.174H268.437V14.9609H272.971C272.967 14.6162 272.893 14.3097 272.747 14.0412C272.601 13.7694 272.397 13.5556 272.135 13.3999C271.877 13.2441 271.575 13.1662 271.231 13.1662C270.863 13.1662 270.54 13.2557 270.261 13.4347C269.983 13.6103 269.766 13.8423 269.61 14.1307C269.457 14.4157 269.379 14.7289 269.376 15.0703V16.1293C269.376 16.5734 269.457 16.9545 269.62 17.2727C269.782 17.5876 270.009 17.8295 270.301 17.9986C270.593 18.1643 270.934 18.2472 271.325 18.2472C271.587 18.2472 271.824 18.2107 272.036 18.1378C272.248 18.0616 272.432 17.9505 272.588 17.8047C272.744 17.6589 272.861 17.4782 272.941 17.2628L274.621 17.4517C274.515 17.8958 274.313 18.2836 274.015 18.6151C273.72 18.9432 273.342 19.1984 272.881 19.3807C272.42 19.5597 271.893 19.6491 271.3 19.6491ZM279.271 19.5V11.8636H281.071V19.5H279.271ZM280.176 10.7798C279.891 10.7798 279.645 10.6854 279.44 10.4964C279.235 10.3042 279.132 10.0739 279.132 9.8054C279.132 9.53362 279.235 9.30327 279.44 9.11435C279.645 8.92211 279.891 8.82599 280.176 8.82599C280.464 8.82599 280.709 8.92211 280.912 9.11435C281.117 9.30327 281.22 9.53362 281.22 9.8054C281.22 10.0739 281.117 10.3042 280.912 10.4964C280.709 10.6854 280.464 10.7798 280.176 10.7798ZM284.511 15.0256V19.5H282.711V11.8636H284.432V13.1612H284.521C284.697 12.7337 284.977 12.3939 285.361 12.142C285.749 11.8902 286.228 11.7642 286.798 11.7642C287.325 11.7642 287.784 11.8769 288.175 12.1023C288.57 12.3277 288.874 12.6541 289.09 13.0817C289.309 13.5092 289.416 14.0279 289.413 14.6378V19.5H287.613V14.9162C287.613 14.4058 287.481 14.0064 287.216 13.718C286.954 13.4297 286.591 13.2855 286.127 13.2855C285.812 13.2855 285.532 13.3551 285.287 13.4943C285.045 13.6302 284.854 13.8274 284.715 14.0859C284.579 14.3445 284.511 14.6577 284.511 15.0256ZM294.375 19.5V9.31818H296.219V13.9964H296.344L300.316 9.31818H302.568L298.63 13.8871L302.603 19.5H300.385L297.348 15.1349L296.219 16.4673V19.5H294.375ZM303.56 19.5V11.8636H305.305V13.1364H305.384C305.524 12.6955 305.762 12.3558 306.1 12.1172C306.442 11.8752 306.831 11.7543 307.269 11.7543C307.368 11.7543 307.479 11.7592 307.602 11.7692C307.728 11.7758 307.832 11.7874 307.915 11.804V13.4595C307.839 13.433 307.718 13.4098 307.552 13.3899C307.39 13.3667 307.232 13.3551 307.08 13.3551C306.752 13.3551 306.457 13.4264 306.195 13.5689C305.936 13.7081 305.732 13.902 305.583 14.1506C305.434 14.3991 305.36 14.6858 305.36 15.0107V19.5H303.56ZM310.961 19.6541C310.477 19.6541 310.042 19.5679 309.654 19.3956C309.269 19.2199 308.964 18.9614 308.739 18.62C308.517 18.2786 308.406 17.8577 308.406 17.3572C308.406 16.9264 308.486 16.5701 308.645 16.2884C308.804 16.0066 309.021 15.7812 309.296 15.6122C309.571 15.4432 309.881 15.3156 310.226 15.2294C310.574 15.1399 310.933 15.0753 311.304 15.0355C311.752 14.9891 312.115 14.9477 312.393 14.9112C312.672 14.8714 312.874 14.8118 313 14.7322C313.129 14.6494 313.194 14.5218 313.194 14.3494V14.3196C313.194 13.9451 313.083 13.6551 312.861 13.4496C312.638 13.2441 312.319 13.1413 311.901 13.1413C311.46 13.1413 311.111 13.2375 310.852 13.4297C310.597 13.6219 310.424 13.849 310.335 14.1108L308.655 13.8722C308.787 13.4081 309.006 13.0204 309.311 12.7088C309.616 12.3939 309.989 12.1586 310.429 12.0028C310.87 11.8438 311.357 11.7642 311.891 11.7642C312.259 11.7642 312.625 11.8073 312.99 11.8935C313.354 11.9796 313.687 12.1222 313.989 12.321C314.291 12.5166 314.533 12.7834 314.715 13.1214C314.901 13.4595 314.993 13.8821 314.993 14.3892V19.5H313.263V18.451H313.204C313.094 18.6631 312.94 18.862 312.741 19.0476C312.546 19.2299 312.299 19.3774 312 19.4901C311.705 19.5994 311.359 19.6541 310.961 19.6541ZM311.429 18.3317C311.79 18.3317 312.103 18.2604 312.368 18.1179C312.633 17.9721 312.837 17.7798 312.98 17.5412C313.126 17.3026 313.199 17.0424 313.199 16.7607V15.8608C313.142 15.9072 313.046 15.9503 312.91 15.9901C312.778 16.0298 312.629 16.0646 312.463 16.0945C312.297 16.1243 312.133 16.1508 311.971 16.174C311.808 16.1972 311.667 16.2171 311.548 16.2337C311.28 16.2701 311.039 16.3298 310.827 16.4126C310.615 16.4955 310.448 16.6115 310.325 16.7607C310.202 16.9065 310.141 17.0954 310.141 17.3274C310.141 17.6589 310.262 17.9091 310.504 18.0781C310.746 18.2472 311.054 18.3317 311.429 18.3317ZM318.234 17.1037L318.229 14.9311H318.517L321.261 11.8636H323.364L319.989 15.6222H319.616L318.234 17.1037ZM316.593 19.5V9.31818H318.393V19.5H316.593ZM321.386 19.5L318.9 16.0249L320.113 14.7571L323.538 19.5H321.386ZM327.37 19.6491C326.624 19.6491 325.978 19.4851 325.431 19.157C324.884 18.8288 324.46 18.3698 324.159 17.7798C323.86 17.1899 323.711 16.5005 323.711 15.7116C323.711 14.9228 323.86 14.2318 324.159 13.6385C324.46 13.0452 324.884 12.5845 325.431 12.2564C325.978 11.9283 326.624 11.7642 327.37 11.7642C328.116 11.7642 328.762 11.9283 329.309 12.2564C329.856 12.5845 330.279 13.0452 330.577 13.6385C330.879 14.2318 331.029 14.9228 331.029 15.7116C331.029 16.5005 330.879 17.1899 330.577 17.7798C330.279 18.3698 329.856 18.8288 329.309 19.157C328.762 19.4851 328.116 19.6491 327.37 19.6491ZM327.38 18.2074C327.785 18.2074 328.123 18.0964 328.394 17.8743C328.666 17.6489 328.868 17.3473 329.001 16.9695C329.137 16.5916 329.205 16.1707 329.205 15.7067C329.205 15.2393 329.137 14.8168 329.001 14.4389C328.868 14.0578 328.666 13.7545 328.394 13.5291C328.123 13.3037 327.785 13.1911 327.38 13.1911C326.966 13.1911 326.621 13.3037 326.346 13.5291C326.074 13.7545 325.87 14.0578 325.735 14.4389C325.602 14.8168 325.536 15.2393 325.536 15.7067C325.536 16.1707 325.602 16.5916 325.735 16.9695C325.87 17.3473 326.074 17.6489 326.346 17.8743C326.621 18.0964 326.966 18.2074 327.38 18.2074ZM326.679 10.8594L327.793 8.58736H329.553L328.026 10.8594H326.679ZM333.704 19.5L331.546 11.8636H333.381L334.723 17.233H334.793L336.165 11.8636H337.98L339.352 17.2031H339.426L340.749 11.8636H342.588L340.426 19.5H338.551L337.12 14.3395H337.015L335.583 19.5H333.704Z" fill="#F1EFEF"/>
<rect y="32" width="82" height="28" rx="6" fill="#6A45B5"/>
<rect x="6" y="37" width="18" height="18" rx="3.5" fill="#F1EFEF"/>
<path opacity="0.4" d="M9.0625 46C9.0625 43.201 9.0625 41.8016 9.93202 40.932C10.8016 40.0625 12.201 40.0625 15 40.0625C17.7989 40.0625 19.1984 40.0625 20.068 40.932C20.9375 41.8016 20.9375 43.201 20.9375 46C20.9375 48.7989 20.9375 50.1984 20.068 51.068C19.1984 51.9375 17.7989 51.9375 15 51.9375C12.201 51.9375 10.8016 51.9375 9.93202 51.068C9.0625 50.1984 9.0625 48.7989 9.0625 46Z" fill="#6A45B5"/>
<path d="M17.5 44.75L18.2666 45.4108C18.5889 45.6885 18.75 45.8274 18.75 46C18.75 46.1726 18.5889 46.3115 18.2666 46.5892L17.5 47.25" stroke="#6A45B5" stroke-width="1.25" stroke-linecap="round" stroke-linejoin="round"/>
<path d="M12.5 44.75L11.7334 45.4108C11.4111 45.6885 11.25 45.8274 11.25 46C11.25 46.1726 11.4111 46.3115 11.7334 46.5892L12.5 47.25" stroke="#6A45B5" stroke-width="1.25" stroke-linecap="round" stroke-linejoin="round"/>
<path d="M15.625 44.125L14.375 47.875" stroke="#6A45B5" stroke-width="1.25" stroke-linecap="round" stroke-linejoin="round"/>
<path d="M9.0625 46C9.0625 43.201 9.0625 41.8016 9.93202 40.932C10.8016 40.0625 12.201 40.0625 15 40.0625C17.7989 40.0625 19.1984 40.0625 20.068 40.932C20.9375 41.8016 20.9375 43.201 20.9375 46C20.9375 48.7989 20.9375 50.1984 20.068 51.068C19.1984 51.9375 17.7989 51.9375 15 51.9375C12.201 51.9375 10.8016 51.9375 9.93202 51.068C9.0625 50.1984 9.0625 48.7989 9.0625 46Z" stroke="#6A45B5" stroke-width="1.25"/>
<path d="M34.5856 44.1172C34.5392 43.683 34.3437 43.3449 33.999 43.103C33.6576 42.861 33.2135 42.7401 32.6666 42.7401C32.2821 42.7401 31.9523 42.7981 31.6772 42.9141C31.4021 43.0301 31.1917 43.1875 31.0458 43.3864C30.9 43.5852 30.8254 43.8123 30.8221 44.0675C30.8221 44.2796 30.8702 44.4635 30.9663 44.6193C31.0657 44.7751 31.2 44.9077 31.369 45.017C31.538 45.1231 31.7253 45.2126 31.9308 45.2855C32.1363 45.3584 32.3434 45.4197 32.5522 45.4695L33.5068 45.7081C33.8912 45.7976 34.2608 45.9186 34.6154 46.071C34.9734 46.2235 35.2932 46.4157 35.575 46.6477C35.86 46.8797 36.0854 47.1598 36.2511 47.4879C36.4168 47.8161 36.4997 48.2005 36.4997 48.6413C36.4997 49.2379 36.3472 49.7633 36.0423 50.2173C35.7374 50.6681 35.2965 51.0211 34.7198 51.2763C34.1465 51.5282 33.4521 51.6541 32.6367 51.6541C31.8446 51.6541 31.1569 51.5315 30.5735 51.2862C29.9935 51.041 29.5394 50.683 29.2113 50.2124C28.8865 49.7417 28.7108 49.1683 28.6843 48.4922H30.499C30.5255 48.8468 30.6349 49.1418 30.8271 49.3771C31.0193 49.6125 31.2696 49.7881 31.5778 49.9041C31.8894 50.0201 32.2374 50.0781 32.6218 50.0781C33.0229 50.0781 33.3742 50.0185 33.6758 49.8991C33.9807 49.7765 34.2194 49.6075 34.3917 49.392C34.5641 49.1733 34.6519 48.9181 34.6552 48.6264C34.6519 48.3613 34.574 48.1425 34.4215 47.9702C34.2691 47.7945 34.0553 47.6487 33.7802 47.5327C33.5084 47.4134 33.1903 47.3073 32.8257 47.2145L31.6673 46.9162C30.8287 46.7008 30.1659 46.3743 29.6786 45.9368C29.1947 45.496 28.9528 44.911 28.9528 44.1818C28.9528 43.5819 29.1152 43.0566 29.44 42.6058C29.7681 42.1551 30.2139 41.8054 30.7774 41.5568C31.3408 41.3049 31.9788 41.179 32.6914 41.179C33.414 41.179 34.047 41.3049 34.5906 41.5568C35.1375 41.8054 35.5667 42.1518 35.8782 42.5959C36.1898 43.0367 36.3505 43.5438 36.3605 44.1172H34.5856ZM39.4305 51.5L37.2728 43.8636H39.1073L40.4497 49.233H40.5193L41.8914 43.8636H43.706L45.0782 49.2031H45.1528L46.4752 43.8636H48.3147L46.1521 51.5H44.2778L42.846 46.3395H42.7416L41.3097 51.5H39.4305ZM49.3613 51.5V43.8636H51.161V51.5H49.3613ZM50.2661 42.7798C49.9811 42.7798 49.7358 42.6854 49.5303 42.4964C49.3248 42.3042 49.2221 42.0739 49.2221 41.8054C49.2221 41.5336 49.3248 41.3033 49.5303 41.1143C49.7358 40.9221 49.9811 40.826 50.2661 40.826C50.5545 40.826 50.7997 40.9221 51.0019 41.1143C51.2074 41.3033 51.3101 41.5336 51.3101 41.8054C51.3101 42.0739 51.2074 42.3042 51.0019 42.4964C50.7997 42.6854 50.5545 42.7798 50.2661 42.7798ZM56.6696 43.8636V45.2557H52.1554V43.8636H56.6696ZM53.2839 51.5V43.1428C53.2839 42.629 53.39 42.2015 53.6021 41.8601C53.8175 41.5187 54.1059 41.2635 54.4672 41.0945C54.8284 40.9254 55.2295 40.8409 55.6703 40.8409C55.9818 40.8409 56.2586 40.8658 56.5005 40.9155C56.7425 40.9652 56.9215 41.0099 57.0375 41.0497L56.6795 42.4418C56.6033 42.4186 56.5072 42.3954 56.3912 42.3722C56.2752 42.3456 56.1459 42.3324 56.0034 42.3324C55.6686 42.3324 55.4316 42.4136 55.2924 42.576C55.1565 42.7351 55.0886 42.9638 55.0886 43.2621V51.5H53.2839ZM61.6822 43.8636V45.2557H57.2923V43.8636H61.6822ZM58.3761 42.0341H60.1758V49.2031C60.1758 49.4451 60.2123 49.6307 60.2852 49.7599C60.3614 49.8859 60.4609 49.9721 60.5835 50.0185C60.7061 50.0649 60.842 50.0881 60.9912 50.0881C61.1039 50.0881 61.2066 50.0798 61.2994 50.0632C61.3955 50.0466 61.4684 50.0317 61.5182 50.0185L61.8214 51.4254C61.7253 51.4586 61.5878 51.495 61.4088 51.5348C61.2331 51.5746 61.0177 51.5978 60.7625 51.6044C60.3117 51.6177 59.9057 51.5497 59.5444 51.4006C59.1832 51.2481 58.8965 51.0128 58.6844 50.6946C58.4755 50.3764 58.3728 49.9787 58.3761 49.5014V42.0341ZM69.4752 41.3182H71.3197V47.9702C71.3197 48.6993 71.1474 49.3407 70.8027 49.8942C70.4613 50.4477 69.9807 50.8802 69.3609 51.1918C68.7411 51.5 68.0169 51.6541 67.1883 51.6541C66.3564 51.6541 65.6305 51.5 65.0108 51.1918C64.391 50.8802 63.9104 50.4477 63.569 49.8942C63.2276 49.3407 63.0569 48.6993 63.0569 47.9702V41.3182H64.9014V47.8161C64.9014 48.2403 64.9942 48.6181 65.1798 48.9496C65.3687 49.281 65.6339 49.5412 65.9752 49.7301C66.3166 49.9157 66.721 50.0085 67.1883 50.0085C67.6556 50.0085 68.06 49.9157 68.4014 49.7301C68.7461 49.5412 69.0112 49.281 69.1968 48.9496C69.3824 48.6181 69.4752 48.2403 69.4752 47.8161V41.3182ZM74.959 41.3182V51.5H73.1145V41.3182H74.959Z" fill="#F1EFEF"/>
<rect x="86" y="32" width="58" height="28" rx="6" fill="#3C46C9"/>
<rect x="92" y="37" width="18" height="18" rx="3.5" fill="#F1EFEF"/>
<path opacity="0.4" d="M97.2657 40.3908C96.625 41.0315 96.625 42.0627 96.625 44.1251V47.875C96.625 49.9375 96.625 50.9687 97.2657 51.6093C97.9064 52.25 98.9376 52.25 101 52.25C103.062 52.25 104.094 52.25 104.734 51.6093C105.375 50.9687 105.375 49.9375 105.375 47.875V44.1251C105.375 42.0627 105.375 41.0315 104.734 40.3908C104.326 39.9828 103.76 39.8346 102.87 39.7808L102.819 40.0838C102.699 40.8071 102.639 41.1688 102.391 41.3888C102.132 41.6184 101.765 41.6251 101 41.6251C100.235 41.6251 99.8683 41.6184 99.6095 41.3888C99.3615 41.1688 99.3012 40.8071 99.1806 40.0838L99.1301 39.7808C98.24 39.8346 97.6737 39.9828 97.2657 40.3908Z" fill="#3C46C9"/>
<path d="M96.625 44.125C96.625 42.0626 96.625 41.0314 97.2657 40.3907C97.9064 39.75 98.9376 39.75 101 39.75C103.062 39.75 104.094 39.75 104.734 40.3907C105.375 41.0314 105.375 42.0626 105.375 44.125V47.875C105.375 49.9374 105.375 50.9686 104.734 51.6093C104.094 52.25 103.062 52.25 101 52.25C98.9376 52.25 97.9064 52.25 97.2657 51.6093C96.625 50.9686 96.625 49.9374 96.625 47.875V44.125Z" stroke="#3C46C9" stroke-width="1.25" stroke-linecap="round"/>
<path d="M100.375 50.375H101.625" stroke="#3C46C9" stroke-width="1.25" stroke-linecap="round" stroke-linejoin="round"/>
<path d="M99.125 39.75L99.1806 40.0838C99.3012 40.8071 99.3615 41.1687 99.6095 41.3888C99.8683 41.6183 100.235 41.625 101 41.625C101.765 41.625 102.132 41.6183 102.391 41.3888C102.639 41.1687 102.699 40.8071 102.819 40.0838L102.875 39.75" stroke="#3C46C9" stroke-width="1.25" stroke-linejoin="round"/>
<path d="M115.343 51.5V43.8636H117.142V51.5H115.343ZM116.248 42.7798C115.963 42.7798 115.717 42.6854 115.512 42.4964C115.306 42.3042 115.204 42.0739 115.204 41.8054C115.204 41.5336 115.306 41.3033 115.512 41.1143C115.717 40.9221 115.963 40.826 116.248 40.826C116.536 40.826 116.781 40.9221 116.983 41.1143C117.189 41.3033 117.292 41.5336 117.292 41.8054C117.292 42.0739 117.189 42.3042 116.983 42.4964C116.781 42.6854 116.536 42.7798 116.248 42.7798ZM127.961 46.4091C127.961 47.5062 127.755 48.4458 127.344 49.228C126.937 50.0069 126.38 50.6035 125.674 51.0178C124.971 51.4321 124.174 51.6392 123.282 51.6392C122.391 51.6392 121.592 51.4321 120.886 51.0178C120.183 50.6001 119.627 50.0019 119.216 49.223C118.808 48.4408 118.604 47.5028 118.604 46.4091C118.604 45.312 118.808 44.3741 119.216 43.5952C119.627 42.813 120.183 42.2147 120.886 41.8004C121.592 41.3861 122.391 41.179 123.282 41.179C124.174 41.179 124.971 41.3861 125.674 41.8004C126.38 42.2147 126.937 42.813 127.344 43.5952C127.755 44.3741 127.961 45.312 127.961 46.4091ZM126.106 46.4091C126.106 45.6368 125.985 44.9856 125.743 44.4553C125.505 43.9216 125.173 43.5189 124.749 43.2472C124.325 42.9721 123.836 42.8345 123.282 42.8345C122.729 42.8345 122.24 42.9721 121.816 43.2472C121.392 43.5189 121.058 43.9216 120.816 44.4553C120.578 44.9856 120.459 45.6368 120.459 46.4091C120.459 47.1813 120.578 47.8343 120.816 48.3679C121.058 48.8982 121.392 49.3009 121.816 49.576C122.24 49.8478 122.729 49.9837 123.282 49.9837C123.836 49.9837 124.325 49.8478 124.749 49.576C125.173 49.3009 125.505 48.8982 125.743 48.3679C125.985 47.8343 126.106 47.1813 126.106 46.4091ZM135.028 44.1172C134.981 43.683 134.786 43.3449 134.441 43.103C134.1 42.861 133.656 42.7401 133.109 42.7401C132.724 42.7401 132.395 42.7981 132.119 42.9141C131.844 43.0301 131.634 43.1875 131.488 43.3864C131.342 43.5852 131.268 43.8123 131.264 44.0675C131.264 44.2796 131.312 44.4635 131.409 44.6193C131.508 44.7751 131.642 44.9077 131.811 45.017C131.98 45.1231 132.168 45.2126 132.373 45.2855C132.579 45.3584 132.786 45.4197 132.994 45.4695L133.949 45.7081C134.333 45.7976 134.703 45.9186 135.058 46.071C135.416 46.2235 135.735 46.4157 136.017 46.6477C136.302 46.8797 136.528 47.1598 136.693 47.4879C136.859 47.8161 136.942 48.2005 136.942 48.6413C136.942 49.2379 136.789 49.7633 136.485 50.2173C136.18 50.6681 135.739 51.0211 135.162 51.2763C134.589 51.5282 133.894 51.6541 133.079 51.6541C132.287 51.6541 131.599 51.5315 131.016 51.2862C130.436 51.041 129.982 50.683 129.654 50.2124C129.329 49.7417 129.153 49.1683 129.127 48.4922H130.941C130.968 48.8468 131.077 49.1418 131.269 49.3771C131.462 49.6125 131.712 49.7881 132.02 49.9041C132.332 50.0201 132.68 50.0781 133.064 50.0781C133.465 50.0781 133.816 50.0185 134.118 49.8991C134.423 49.7765 134.662 49.6075 134.834 49.392C135.006 49.1733 135.094 48.9181 135.097 48.6264C135.094 48.3613 135.016 48.1425 134.864 47.9702C134.711 47.7945 134.498 47.6487 134.222 47.5327C133.951 47.4134 133.632 47.3073 133.268 47.2145L132.11 46.9162C131.271 46.7008 130.608 46.3743 130.121 45.9368C129.637 45.496 129.395 44.911 129.395 44.1818C129.395 43.5819 129.557 43.0566 129.882 42.6058C130.21 42.1551 130.656 41.8054 131.22 41.5568C131.783 41.3049 132.421 41.179 133.134 41.179C133.856 41.179 134.489 41.3049 135.033 41.5568C135.58 41.8054 136.009 42.1518 136.32 42.5959C136.632 43.0367 136.793 43.5438 136.803 44.1172H135.028Z" fill="#F1EFEF"/>
<rect x="148" y="32" width="58" height="28" rx="6" fill="#3C46C9"/>
<rect x="154" y="37" width="18" height="18" rx="3.5" fill="#F1EFEF"/>
<path opacity="0.4" d="M164.562 39.75H161.438C159.67 39.75 158.786 39.75 158.237 40.2992C157.688 40.8483 157.688 41.7322 157.688 43.5V48.5C157.688 50.2677 157.688 51.1516 158.237 51.7008C158.786 52.25 159.67 52.25 161.438 52.25H164.562C166.33 52.25 167.214 52.25 167.763 51.7008C168.312 51.1516 168.312 50.2677 168.312 48.5V43.5C168.312 41.7322 168.312 40.8483 167.763 40.2992C167.214 39.75 166.33 39.75 164.562 39.75Z" fill="#3C46C9"/>
<path d="M164.562 39.75H161.438C159.67 39.75 158.786 39.75 158.237 40.2992C157.688 40.8483 157.688 41.7322 157.688 43.5V48.5C157.688 50.2677 157.688 51.1516 158.237 51.7008C158.786 52.25 159.67 52.25 161.438 52.25H164.562C166.33 52.25 167.214 52.25 167.763 51.7008C168.312 51.1516 168.312 50.2677 168.312 48.5V43.5C168.312 41.7322 168.312 40.8483 167.763 40.2992C167.214 39.75 166.33 39.75 164.562 39.75Z" stroke="#3C46C9" stroke-width="1.25" stroke-linecap="round"/>
<path d="M163 50.375H163.006" stroke="#3C46C9" stroke-width="1.25" stroke-linecap="round"/>
<path d="M177.343 51.5V43.8636H179.142V51.5H177.343ZM178.248 42.7798C177.963 42.7798 177.717 42.6854 177.512 42.4964C177.306 42.3042 177.204 42.0739 177.204 41.8054C177.204 41.5336 177.306 41.3033 177.512 41.1143C177.717 40.9221 177.963 40.826 178.248 40.826C178.536 40.826 178.781 40.9221 178.983 41.1143C179.189 41.3033 179.292 41.5336 179.292 41.8054C179.292 42.0739 179.189 42.3042 178.983 42.4964C178.781 42.6854 178.536 42.7798 178.248 42.7798ZM189.961 46.4091C189.961 47.5062 189.755 48.4458 189.344 49.228C188.937 50.0069 188.38 50.6035 187.674 51.0178C186.971 51.4321 186.174 51.6392 185.282 51.6392C184.391 51.6392 183.592 51.4321 182.886 51.0178C182.183 50.6001 181.627 50.0019 181.216 49.223C180.808 48.4408 180.604 47.5028 180.604 46.4091C180.604 45.312 180.808 44.3741 181.216 43.5952C181.627 42.813 182.183 42.2147 182.886 41.8004C183.592 41.3861 184.391 41.179 185.282 41.179C186.174 41.179 186.971 41.3861 187.674 41.8004C188.38 42.2147 188.937 42.813 189.344 43.5952C189.755 44.3741 189.961 45.312 189.961 46.4091ZM188.106 46.4091C188.106 45.6368 187.985 44.9856 187.743 44.4553C187.505 43.9216 187.173 43.5189 186.749 43.2472C186.325 42.9721 185.836 42.8345 185.282 42.8345C184.729 42.8345 184.24 42.9721 183.816 43.2472C183.392 43.5189 183.058 43.9216 182.816 44.4553C182.578 44.9856 182.459 45.6368 182.459 46.4091C182.459 47.1813 182.578 47.8343 182.816 48.3679C183.058 48.8982 183.392 49.3009 183.816 49.576C184.24 49.8478 184.729 49.9837 185.282 49.9837C185.836 49.9837 186.325 49.8478 186.749 49.576C187.173 49.3009 187.505 48.8982 187.743 48.3679C187.985 47.8343 188.106 47.1813 188.106 46.4091ZM197.028 44.1172C196.981 43.683 196.786 43.3449 196.441 43.103C196.1 42.861 195.656 42.7401 195.109 42.7401C194.724 42.7401 194.395 42.7981 194.119 42.9141C193.844 43.0301 193.634 43.1875 193.488 43.3864C193.342 43.5852 193.268 43.8123 193.264 44.0675C193.264 44.2796 193.312 44.4635 193.409 44.6193C193.508 44.7751 193.642 44.9077 193.811 45.017C193.98 45.1231 194.168 45.2126 194.373 45.2855C194.579 45.3584 194.786 45.4197 194.994 45.4695L195.949 45.7081C196.333 45.7976 196.703 45.9186 197.058 46.071C197.416 46.2235 197.735 46.4157 198.017 46.6477C198.302 46.8797 198.528 47.1598 198.693 47.4879C198.859 47.8161 198.942 48.2005 198.942 48.6413C198.942 49.2379 198.789 49.7633 198.485 50.2173C198.18 50.6681 197.739 51.0211 197.162 51.2763C196.589 51.5282 195.894 51.6541 195.079 51.6541C194.287 51.6541 193.599 51.5315 193.016 51.2862C192.436 51.041 191.982 50.683 191.654 50.2124C191.329 49.7417 191.153 49.1683 191.127 48.4922H192.941C192.968 48.8468 193.077 49.1418 193.269 49.3771C193.462 49.6125 193.712 49.7881 194.02 49.9041C194.332 50.0201 194.68 50.0781 195.064 50.0781C195.465 50.0781 195.816 50.0185 196.118 49.8991C196.423 49.7765 196.662 49.6075 196.834 49.392C197.006 49.1733 197.094 48.9181 197.097 48.6264C197.094 48.3613 197.016 48.1425 196.864 47.9702C196.711 47.7945 196.498 47.6487 196.222 47.5327C195.951 47.4134 195.632 47.3073 195.268 47.2145L194.11 46.9162C193.271 46.7008 192.608 46.3743 192.121 45.9368C191.637 45.496 191.395 44.911 191.395 44.1818C191.395 43.5819 191.557 43.0566 191.882 42.6058C192.21 42.1551 192.656 41.8054 193.22 41.5568C193.783 41.3049 194.421 41.179 195.134 41.179C195.856 41.179 196.489 41.3049 197.033 41.5568C197.58 41.8054 198.009 42.1518 198.32 42.5959C198.632 43.0367 198.793 43.5438 198.803 44.1172H197.028Z" fill="#F1EFEF"/>
<rect x="210" y="32" width="82" height="28" rx="6" fill="#3C46C9"/>
<rect x="216" y="37" width="18" height="18" rx="3.5" fill="#F1EFEF"/>
<path opacity="0.4" d="M226.25 39.75H223.75C221.7 39.75 220.676 39.75 219.949 40.2586C219.681 40.4468 219.447 40.6806 219.259 40.9493C218.75 41.6757 218.75 42.7005 218.75 44.75C218.75 46.7995 218.75 47.8242 219.259 48.5507C219.447 48.8194 219.681 49.0532 219.949 49.2414C220.676 49.75 221.7 49.75 223.75 49.75H226.25C228.3 49.75 229.324 49.75 230.051 49.2414C230.319 49.0532 230.553 48.8194 230.741 48.5507C231.25 47.8242 231.25 46.7995 231.25 44.75C231.25 42.7005 231.25 41.6757 230.741 40.9493C230.553 40.6806 230.319 40.4468 230.051 40.2586C229.324 39.75 228.3 39.75 226.25 39.75Z" fill="#3C46C9"/>
<path d="M226.25 39.75H223.75C221.7 39.75 220.676 39.75 219.949 40.2586C219.681 40.4468 219.447 40.6806 219.259 40.9493C218.75 41.6757 218.75 42.7005 218.75 44.75C218.75 46.7995 218.75 47.8242 219.259 48.5507C219.447 48.8194 219.681 49.0532 219.949 49.2414C220.676 49.75 221.7 49.75 223.75 49.75H226.25C228.3 49.75 229.324 49.75 230.051 49.2414C230.319 49.0532 230.553 48.8194 230.741 48.5507C231.25 47.8242 231.25 46.7995 231.25 44.75C231.25 42.7005 231.25 41.6757 230.741 40.9493C230.553 40.6806 230.319 40.4468 230.051 40.2586C229.324 39.75 228.3 39.75 226.25 39.75Z" stroke="#3C46C9" stroke-width="1.25" stroke-linecap="round"/>
<path d="M224.375 47.875H225.625" stroke="#3C46C9" stroke-width="1.25" stroke-linecap="round" stroke-linejoin="round"/>
<path d="M226.562 52.25L226.365 51.9882C225.921 51.3981 225.811 50.4965 226.092 49.75M223.438 52.25L223.635 51.9882C224.079 51.3981 224.189 50.4965 223.908 49.75" stroke="#3C46C9" stroke-width="1.25" stroke-linecap="round"/>
<path d="M221.875 52.25H228.125" stroke="#3C46C9" stroke-width="1.25" stroke-linecap="round"/>
<path d="M239.036 51.5V43.8636H240.756V45.1612H240.846C241.005 44.7237 241.268 44.3823 241.636 44.1371C242.004 43.8885 242.443 43.7642 242.954 43.7642C243.471 43.7642 243.907 43.8902 244.261 44.142C244.619 44.3906 244.871 44.7304 245.017 45.1612H245.096C245.266 44.737 245.551 44.3989 245.952 44.147C246.356 43.8918 246.835 43.7642 247.388 43.7642C248.091 43.7642 248.664 43.9863 249.109 44.4304C249.553 44.8745 249.775 45.5225 249.775 46.3743V51.5H247.97V46.6527C247.97 46.1787 247.844 45.8324 247.592 45.6136C247.34 45.3916 247.032 45.2805 246.668 45.2805C246.233 45.2805 245.894 45.4164 245.648 45.6882C245.406 45.9567 245.285 46.3063 245.285 46.7372V51.5H243.52V46.5781C243.52 46.1837 243.401 45.8688 243.163 45.6335C242.927 45.3982 242.619 45.2805 242.238 45.2805C241.979 45.2805 241.744 45.3468 241.532 45.4794C241.32 45.6087 241.151 45.7926 241.025 46.0312C240.899 46.2666 240.836 46.5417 240.836 46.8565V51.5H239.036ZM253.588 51.6541C253.104 51.6541 252.668 51.5679 252.28 51.3956C251.896 51.2199 251.591 50.9614 251.366 50.62C251.144 50.2786 251.033 49.8577 251.033 49.3572C251.033 48.9264 251.112 48.5701 251.271 48.2884C251.43 48.0066 251.647 47.7812 251.923 47.6122C252.198 47.4432 252.508 47.3156 252.852 47.2294C253.2 47.1399 253.56 47.0753 253.931 47.0355C254.379 46.9891 254.741 46.9477 255.02 46.9112C255.298 46.8714 255.5 46.8118 255.626 46.7322C255.756 46.6494 255.82 46.5218 255.82 46.3494V46.3196C255.82 45.9451 255.709 45.6551 255.487 45.4496C255.265 45.2441 254.945 45.1413 254.528 45.1413C254.087 45.1413 253.737 45.2375 253.479 45.4297C253.223 45.6219 253.051 45.849 252.962 46.1108L251.281 45.8722C251.414 45.4081 251.633 45.0204 251.937 44.7088C252.242 44.3939 252.615 44.1586 253.056 44.0028C253.497 43.8438 253.984 43.7642 254.518 43.7642C254.886 43.7642 255.252 43.8073 255.616 43.8935C255.981 43.9796 256.314 44.1222 256.616 44.321C256.917 44.5166 257.159 44.7834 257.342 45.1214C257.527 45.4595 257.62 45.8821 257.62 46.3892V51.5H255.89V50.451H255.83C255.721 50.6631 255.567 50.862 255.368 51.0476C255.172 51.2299 254.925 51.3774 254.627 51.4901C254.332 51.5994 253.986 51.6541 253.588 51.6541ZM254.055 50.3317C254.417 50.3317 254.73 50.2604 254.995 50.1179C255.26 49.9721 255.464 49.7798 255.606 49.5412C255.752 49.3026 255.825 49.0424 255.825 48.7607V47.8608C255.769 47.9072 255.673 47.9503 255.537 47.9901C255.404 48.0298 255.255 48.0646 255.089 48.0945C254.924 48.1243 254.76 48.1508 254.597 48.174C254.435 48.1972 254.294 48.2171 254.175 48.2337C253.906 48.2701 253.666 48.3298 253.454 48.4126C253.242 48.4955 253.074 48.6115 252.952 48.7607C252.829 48.9065 252.768 49.0954 252.768 49.3274C252.768 49.6589 252.889 49.9091 253.131 50.0781C253.373 50.2472 253.681 50.3317 254.055 50.3317ZM262.551 51.6491C261.788 51.6491 261.134 51.4818 260.587 51.147C260.043 50.8123 259.624 50.3499 259.329 49.7599C259.037 49.1667 258.892 48.4839 258.892 47.7116C258.892 46.9361 259.041 46.2517 259.339 45.6584C259.637 45.0618 260.058 44.5978 260.602 44.2663C261.149 43.9316 261.795 43.7642 262.541 43.7642C263.16 43.7642 263.709 43.8786 264.186 44.1072C264.667 44.3326 265.05 44.6525 265.335 45.0668C265.62 45.4777 265.782 45.9583 265.822 46.5085H264.102C264.032 46.1406 263.866 45.834 263.605 45.5888C263.346 45.3402 263 45.2159 262.566 45.2159C262.198 45.2159 261.874 45.3153 261.596 45.5142C261.318 45.7098 261.101 45.9915 260.945 46.3594C260.792 46.7273 260.716 47.1681 260.716 47.6818C260.716 48.2022 260.792 48.6496 260.945 49.0241C261.097 49.3954 261.311 49.6821 261.586 49.8842C261.865 50.0831 262.191 50.1825 262.566 50.1825C262.831 50.1825 263.068 50.1328 263.276 50.0334C263.489 49.9306 263.666 49.7831 263.808 49.5909C263.951 49.3987 264.049 49.165 264.102 48.8899H265.822C265.779 49.4302 265.62 49.9091 265.345 50.3267C265.07 50.741 264.695 51.0658 264.221 51.3011C263.747 51.5331 263.19 51.6491 262.551 51.6491ZM276.267 46.4091C276.267 47.5062 276.062 48.4458 275.651 49.228C275.243 50.0069 274.686 50.6035 273.98 51.0178C273.278 51.4321 272.481 51.6392 271.589 51.6392C270.697 51.6392 269.899 51.4321 269.193 51.0178C268.49 50.6001 267.933 50.0019 267.522 49.223C267.115 48.4408 266.911 47.5028 266.911 46.4091C266.911 45.312 267.115 44.3741 267.522 43.5952C267.933 42.813 268.49 42.2147 269.193 41.8004C269.899 41.3861 270.697 41.179 271.589 41.179C272.481 41.179 273.278 41.3861 273.98 41.8004C274.686 42.2147 275.243 42.813 275.651 43.5952C276.062 44.3741 276.267 45.312 276.267 46.4091ZM274.413 46.4091C274.413 45.6368 274.292 44.9856 274.05 44.4553C273.811 43.9216 273.48 43.5189 273.056 43.2472C272.631 42.9721 272.143 42.8345 271.589 42.8345C271.036 42.8345 270.547 42.9721 270.122 43.2472C269.698 43.5189 269.365 43.9216 269.123 44.4553C268.884 44.9856 268.765 45.6368 268.765 46.4091C268.765 47.1813 268.884 47.8343 269.123 48.3679C269.365 48.8982 269.698 49.3009 270.122 49.576C270.547 49.8478 271.036 49.9837 271.589 49.9837C272.143 49.9837 272.631 49.8478 273.056 49.576C273.48 49.3009 273.811 48.8982 274.05 48.3679C274.292 47.8343 274.413 47.1813 274.413 46.4091ZM283.334 44.1172C283.288 43.683 283.092 43.3449 282.748 43.103C282.406 42.861 281.962 42.7401 281.415 42.7401C281.031 42.7401 280.701 42.7981 280.426 42.9141C280.151 43.0301 279.941 43.1875 279.795 43.3864C279.649 43.5852 279.574 43.8123 279.571 44.0675C279.571 44.2796 279.619 44.4635 279.715 44.6193C279.815 44.7751 279.949 44.9077 280.118 45.017C280.287 45.1231 280.474 45.2126 280.68 45.2855C280.885 45.3584 281.092 45.4197 281.301 45.4695L282.256 45.7081C282.64 45.7976 283.01 45.9186 283.364 46.071C283.722 46.2235 284.042 46.4157 284.324 46.6477C284.609 46.8797 284.834 47.1598 285 47.4879C285.166 47.8161 285.249 48.2005 285.249 48.6413C285.249 49.2379 285.096 49.7633 284.791 50.2173C284.486 50.6681 284.045 51.0211 283.469 51.2763C282.895 51.5282 282.201 51.6541 281.386 51.6541C280.593 51.6541 279.906 51.5315 279.322 51.2862C278.742 51.041 278.288 50.683 277.96 50.2124C277.635 49.7417 277.46 49.1683 277.433 48.4922H279.248C279.274 48.8468 279.384 49.1418 279.576 49.3771C279.768 49.6125 280.018 49.7881 280.327 49.9041C280.638 50.0201 280.986 50.0781 281.371 50.0781C281.772 50.0781 282.123 50.0185 282.425 49.8991C282.73 49.7765 282.968 49.6075 283.141 49.392C283.313 49.1733 283.401 48.9181 283.404 48.6264C283.401 48.3613 283.323 48.1425 283.17 47.9702C283.018 47.7945 282.804 47.6487 282.529 47.5327C282.257 47.4134 281.939 47.3073 281.574 47.2145L280.416 46.9162C279.578 46.7008 278.915 46.3743 278.427 45.9368C277.944 45.496 277.702 44.911 277.702 44.1818C277.702 43.5819 277.864 43.0566 278.189 42.6058C278.517 42.1551 278.963 41.8054 279.526 41.5568C280.09 41.3049 280.728 41.179 281.44 41.179C282.163 41.179 282.796 41.3049 283.339 41.5568C283.886 41.8054 284.316 42.1518 284.627 42.5959C284.939 43.0367 285.099 43.5438 285.109 44.1172H283.334Z" fill="#F1EFEF"/>
<rect x="296" y="32" width="67" height="28" rx="6" fill="#3C46C9"/>
<rect x="302" y="37" width="18" height="18" rx="3.5" fill="#F1EFEF"/>
<path opacity="0.4" d="M312.25 40.375H309.75C307.393 40.375 306.214 40.375 305.482 41.1072C304.75 41.8395 304.75 43.018 304.75 45.375C304.75 47.732 304.75 48.9106 305.482 49.6427C306.214 50.375 307.393 50.375 309.75 50.375H312.25C314.607 50.375 315.786 50.375 316.518 49.6427C317.25 48.9106 317.25 47.732 317.25 45.375C317.25 43.018 317.25 41.8395 316.518 41.1072C315.786 40.375 314.607 40.375 312.25 40.375Z" fill="#3C46C9"/>
<path d="M312.25 40.375H309.75C307.393 40.375 306.214 40.375 305.482 41.1072C304.75 41.8395 304.75 43.018 304.75 45.375C304.75 47.732 304.75 48.9106 305.482 49.6427C306.214 50.375 307.393 50.375 309.75 50.375H312.25C314.607 50.375 315.786 50.375 316.518 49.6427C317.25 48.9106 317.25 47.732 317.25 45.375C317.25 43.018 317.25 41.8395 316.518 41.1072C315.786 40.375 314.607 40.375 312.25 40.375Z" stroke="#3C46C9" stroke-width="1.25" stroke-linecap="round"/>
<path d="M314.75 50.375L315.375 51.625" stroke="#3C46C9" stroke-width="1.25" stroke-linecap="round" stroke-linejoin="round"/>
<path d="M307.25 50.375L306.625 51.625" stroke="#3C46C9" stroke-width="1.25" stroke-linecap="round" stroke-linejoin="round"/>
<path d="M328.894 43.8636V45.2557H324.504V43.8636H328.894ZM325.588 42.0341H327.387V49.2031C327.387 49.4451 327.424 49.6307 327.497 49.7599C327.573 49.8859 327.672 49.9721 327.795 50.0185C327.918 50.0649 328.054 50.0881 328.203 50.0881C328.315 50.0881 328.418 50.0798 328.511 50.0632C328.607 50.0466 328.68 50.0317 328.73 50.0185L329.033 51.4254C328.937 51.4586 328.799 51.495 328.62 51.5348C328.445 51.5746 328.229 51.5978 327.974 51.6044C327.523 51.6177 327.117 51.5497 326.756 51.4006C326.395 51.2481 326.108 51.0128 325.896 50.6946C325.687 50.3764 325.584 49.9787 325.588 49.5014V42.0341ZM337.01 43.8636L334.29 51.5H332.302L329.582 43.8636H331.501L333.256 49.5362H333.336L335.096 43.8636H337.01ZM347.223 46.4091C347.223 47.5062 347.017 48.4458 346.606 49.228C346.199 50.0069 345.642 50.6035 344.936 51.0178C344.233 51.4321 343.436 51.6392 342.545 51.6392C341.653 51.6392 340.854 51.4321 340.148 51.0178C339.446 50.6001 338.889 50.0019 338.478 49.223C338.07 48.4408 337.866 47.5028 337.866 46.4091C337.866 45.312 338.07 44.3741 338.478 43.5952C338.889 42.813 339.446 42.2147 340.148 41.8004C340.854 41.3861 341.653 41.179 342.545 41.179C343.436 41.179 344.233 41.3861 344.936 41.8004C345.642 42.2147 346.199 42.813 346.606 43.5952C347.017 44.3741 347.223 45.312 347.223 46.4091ZM345.368 46.4091C345.368 45.6368 345.247 44.9856 345.006 44.4553C344.767 43.9216 344.435 43.5189 344.011 43.2472C343.587 42.9721 343.098 42.8345 342.545 42.8345C341.991 42.8345 341.502 42.9721 341.078 43.2472C340.654 43.5189 340.321 43.9216 340.079 44.4553C339.84 44.9856 339.721 45.6368 339.721 46.4091C339.721 47.1813 339.84 47.8343 340.079 48.3679C340.321 48.8982 340.654 49.3009 341.078 49.576C341.502 49.8478 341.991 49.9837 342.545 49.9837C343.098 49.9837 343.587 49.8478 344.011 49.576C344.435 49.3009 344.767 48.8982 345.006 48.3679C345.247 47.8343 345.368 47.1813 345.368 46.4091ZM354.29 44.1172C354.244 43.683 354.048 43.3449 353.703 43.103C353.362 42.861 352.918 42.7401 352.371 42.7401C351.987 42.7401 351.657 42.7981 351.382 42.9141C351.107 43.0301 350.896 43.1875 350.75 43.3864C350.604 43.5852 350.53 43.8123 350.527 44.0675C350.527 44.2796 350.575 44.4635 350.671 44.6193C350.77 44.7751 350.904 44.9077 351.073 45.017C351.242 45.1231 351.43 45.2126 351.635 45.2855C351.841 45.3584 352.048 45.4197 352.257 45.4695L353.211 45.7081C353.596 45.7976 353.965 45.9186 354.32 46.071C354.678 46.2235 354.998 46.4157 355.279 46.6477C355.564 46.8797 355.79 47.1598 355.956 47.4879C356.121 47.8161 356.204 48.2005 356.204 48.6413C356.204 49.2379 356.052 49.7633 355.747 50.2173C355.442 50.6681 355.001 51.0211 354.424 51.2763C353.851 51.5282 353.157 51.6541 352.341 51.6541C351.549 51.6541 350.861 51.5315 350.278 51.2862C349.698 51.041 349.244 50.683 348.916 50.2124C348.591 49.7417 348.415 49.1683 348.389 48.4922H350.203C350.23 48.8468 350.339 49.1418 350.532 49.3771C350.724 49.6125 350.974 49.7881 351.282 49.9041C351.594 50.0201 351.942 50.0781 352.326 50.0781C352.727 50.0781 353.079 50.0185 353.38 49.8991C353.685 49.7765 353.924 49.6075 354.096 49.392C354.268 49.1733 354.356 48.9181 354.36 48.6264C354.356 48.3613 354.278 48.1425 354.126 47.9702C353.974 47.7945 353.76 47.6487 353.485 47.5327C353.213 47.4134 352.895 47.3073 352.53 47.2145L351.372 46.9162C350.533 46.7008 349.87 46.3743 349.383 45.9368C348.899 45.496 348.657 44.911 348.657 44.1818C348.657 43.5819 348.82 43.0566 349.144 42.6058C349.473 42.1551 349.918 41.8054 350.482 41.5568C351.045 41.3049 351.683 41.179 352.396 41.179C353.118 41.179 353.751 41.3049 354.295 41.5568C354.842 41.8054 355.271 42.1518 355.583 42.5959C355.894 43.0367 356.055 43.5438 356.065 44.1172H354.29Z" fill="#F1EFEF"/>
<rect x="367" y="32" width="95" height="28" rx="6" fill="#3C46C9"/>
<rect x="373" y="37" width="18" height="18" rx="3.5" fill="#F1EFEF"/>
<path opacity="0.4" d="M378.875 45.375C378.875 44.1965 378.875 43.6072 379.241 43.2411C379.607 42.875 380.196 42.875 381.375 42.875H382.625C383.803 42.875 384.393 42.875 384.759 43.2411C385.125 43.6072 385.125 44.1965 385.125 45.375V46.625C385.125 47.8035 385.125 48.3927 384.759 48.7589C384.393 49.125 383.803 49.125 382.625 49.125H381.375C380.196 49.125 379.607 49.125 379.241 48.7589C378.875 48.3927 378.875 47.8035 378.875 46.625V45.375Z" fill="#3C46C9"/>
<path d="M378.875 45.375C378.875 44.1965 378.875 43.6072 379.241 43.2411C379.607 42.875 380.196 42.875 381.375 42.875H382.625C383.803 42.875 384.393 42.875 384.759 43.2411C385.125 43.6072 385.125 44.1965 385.125 45.375V46.625C385.125 47.8035 385.125 48.3927 384.759 48.7589C384.393 49.125 383.803 49.125 382.625 49.125H381.375C380.196 49.125 379.607 49.125 379.241 48.7589C378.875 48.3927 378.875 47.8035 378.875 46.625V45.375Z" stroke="#3C46C9" stroke-width="1.25"/>
<path d="M379.812 42.875C379.812 42.875 380.243 42.038 380.34 41.0006C380.393 40.4383 380.419 40.1571 380.577 39.998C380.736 39.8388 380.927 39.8201 381.309 39.7827C381.511 39.7629 381.741 39.75 382 39.75C382.259 39.75 382.489 39.7629 382.691 39.7827C383.073 39.8201 383.264 39.8388 383.423 39.998C383.581 40.1571 383.607 40.4383 383.66 41.0006C383.757 42.038 384.188 42.875 384.188 42.875" stroke="#3C46C9" stroke-width="1.25" stroke-linecap="round" stroke-linejoin="round"/>
<path d="M384.188 49.125C384.188 49.125 383.757 49.962 383.66 50.9994C383.607 51.5617 383.581 51.8429 383.423 52.0021C383.264 52.1612 383.073 52.1799 382.691 52.2173C382.489 52.2371 382.259 52.25 382 52.25C381.741 52.25 381.511 52.2371 381.309 52.2173C380.927 52.1799 380.736 52.1612 380.577 52.0021C380.419 51.8429 380.393 51.5617 380.34 50.9994C380.243 49.962 379.812 49.125 379.812 49.125" stroke="#3C46C9" stroke-width="1.25" stroke-linecap="round" stroke-linejoin="round"/>
<path d="M397.835 51.5L395.677 43.8636H397.512L398.854 49.233H398.924L400.296 43.8636H402.11L403.483 49.2031H403.557L404.88 43.8636H406.719L404.556 51.5H402.682L401.25 46.3395H401.146L399.714 51.5H397.835ZM409.963 51.6541C409.479 51.6541 409.043 51.5679 408.656 51.3956C408.271 51.2199 407.966 50.9614 407.741 50.62C407.519 50.2786 407.408 49.8577 407.408 49.3572C407.408 48.9264 407.487 48.5701 407.646 48.2884C407.805 48.0066 408.022 47.7812 408.298 47.6122C408.573 47.4432 408.883 47.3156 409.227 47.2294C409.575 47.1399 409.935 47.0753 410.306 47.0355C410.754 46.9891 411.116 46.9477 411.395 46.9112C411.673 46.8714 411.875 46.8118 412.001 46.7322C412.131 46.6494 412.195 46.5218 412.195 46.3494V46.3196C412.195 45.9451 412.084 45.6551 411.862 45.4496C411.64 45.2441 411.32 45.1413 410.903 45.1413C410.462 45.1413 410.112 45.2375 409.854 45.4297C409.598 45.6219 409.426 45.849 409.337 46.1108L407.656 45.8722C407.789 45.4081 408.008 45.0204 408.312 44.7088C408.617 44.3939 408.99 44.1586 409.431 44.0028C409.872 43.8438 410.359 43.7642 410.893 43.7642C411.261 43.7642 411.627 43.8073 411.991 43.8935C412.356 43.9796 412.689 44.1222 412.991 44.321C413.292 44.5166 413.534 44.7834 413.717 45.1214C413.902 45.4595 413.995 45.8821 413.995 46.3892V51.5H412.265V50.451H412.205C412.096 50.6631 411.942 50.862 411.743 51.0476C411.547 51.2299 411.3 51.3774 411.002 51.4901C410.707 51.5994 410.361 51.6541 409.963 51.6541ZM410.43 50.3317C410.792 50.3317 411.105 50.2604 411.37 50.1179C411.635 49.9721 411.839 49.7798 411.982 49.5412C412.127 49.3026 412.2 49.0424 412.2 48.7607V47.8608C412.144 47.9072 412.048 47.9503 411.912 47.9901C411.779 48.0298 411.63 48.0646 411.464 48.0945C411.299 48.1243 411.135 48.1508 410.972 48.174C410.81 48.1972 410.669 48.2171 410.55 48.2337C410.281 48.2701 410.041 48.3298 409.829 48.4126C409.617 48.4955 409.449 48.6115 409.327 48.7607C409.204 48.9065 409.143 49.0954 409.143 49.3274C409.143 49.6589 409.264 49.9091 409.506 50.0781C409.748 50.2472 410.056 50.3317 410.43 50.3317ZM419.408 43.8636V45.2557H415.018V43.8636H419.408ZM416.102 42.0341H417.901V49.2031C417.901 49.4451 417.938 49.6307 418.011 49.7599C418.087 49.8859 418.187 49.9721 418.309 50.0185C418.432 50.0649 418.568 50.0881 418.717 50.0881C418.83 50.0881 418.932 50.0798 419.025 50.0632C419.121 50.0466 419.194 50.0317 419.244 50.0185L419.547 51.4254C419.451 51.4586 419.313 51.495 419.134 51.5348C418.959 51.5746 418.743 51.5978 418.488 51.6044C418.037 51.6177 417.631 51.5497 417.27 51.4006C416.909 51.2481 416.622 51.0128 416.41 50.6946C416.201 50.3764 416.098 49.9787 416.102 49.5014V42.0341ZM423.952 51.6491C423.19 51.6491 422.535 51.4818 421.988 51.147C421.445 50.8123 421.025 50.3499 420.73 49.7599C420.439 49.1667 420.293 48.4839 420.293 47.7116C420.293 46.9361 420.442 46.2517 420.74 45.6584C421.039 45.0618 421.46 44.5978 422.003 44.2663C422.55 43.9316 423.196 43.7642 423.942 43.7642C424.562 43.7642 425.11 43.8786 425.588 44.1072C426.068 44.3326 426.451 44.6525 426.736 45.0668C427.021 45.4777 427.184 45.9583 427.223 46.5085H425.503C425.434 46.1406 425.268 45.834 425.006 45.5888C424.747 45.3402 424.401 45.2159 423.967 45.2159C423.599 45.2159 423.276 45.3153 422.997 45.5142C422.719 45.7098 422.502 45.9915 422.346 46.3594C422.194 46.7273 422.117 47.1681 422.117 47.6818C422.117 48.2022 422.194 48.6496 422.346 49.0241C422.499 49.3954 422.712 49.6821 422.987 49.8842C423.266 50.0831 423.592 50.1825 423.967 50.1825C424.232 50.1825 424.469 50.1328 424.678 50.0334C424.89 49.9306 425.067 49.7831 425.21 49.5909C425.352 49.3987 425.45 49.165 425.503 48.8899H427.223C427.18 49.4302 427.021 49.9091 426.746 50.3267C426.471 50.741 426.096 51.0658 425.622 51.3011C425.148 51.5331 424.592 51.6491 423.952 51.6491ZM430.291 47.0256V51.5H428.491V41.3182H430.251V45.1612H430.341C430.519 44.7304 430.796 44.3906 431.171 44.142C431.549 43.8902 432.029 43.7642 432.613 43.7642C433.143 43.7642 433.605 43.8752 434 44.0973C434.394 44.3194 434.699 44.6442 434.914 45.0717C435.133 45.4993 435.243 46.0213 435.243 46.6378V51.5H433.443V46.9162C433.443 46.4025 433.31 46.0031 433.045 45.718C432.783 45.4297 432.415 45.2855 431.941 45.2855C431.623 45.2855 431.338 45.3551 431.086 45.4943C430.838 45.6302 430.642 45.8274 430.5 46.0859C430.36 46.3445 430.291 46.6577 430.291 47.0256ZM446.045 46.4091C446.045 47.5062 445.839 48.4458 445.428 49.228C445.02 50.0069 444.464 50.6035 443.758 51.0178C443.055 51.4321 442.258 51.6392 441.366 51.6392C440.475 51.6392 439.676 51.4321 438.97 51.0178C438.267 50.6001 437.711 50.0019 437.3 49.223C436.892 48.4408 436.688 47.5028 436.688 46.4091C436.688 45.312 436.892 44.3741 437.3 43.5952C437.711 42.813 438.267 42.2147 438.97 41.8004C439.676 41.3861 440.475 41.179 441.366 41.179C442.258 41.179 443.055 41.3861 443.758 41.8004C444.464 42.2147 445.02 42.813 445.428 43.5952C445.839 44.3741 446.045 45.312 446.045 46.4091ZM444.19 46.4091C444.19 45.6368 444.069 44.9856 443.827 44.4553C443.589 43.9216 443.257 43.5189 442.833 43.2472C442.409 42.9721 441.92 42.8345 441.366 42.8345C440.813 42.8345 440.324 42.9721 439.9 43.2472C439.475 43.5189 439.142 43.9216 438.9 44.4553C438.662 44.9856 438.542 45.6368 438.542 46.4091C438.542 47.1813 438.662 47.8343 438.9 48.3679C439.142 48.8982 439.475 49.3009 439.9 49.576C440.324 49.8478 440.813 49.9837 441.366 49.9837C441.92 49.9837 442.409 49.8478 442.833 49.576C443.257 49.3009 443.589 48.8982 443.827 48.3679C444.069 47.8343 444.19 47.1813 444.19 46.4091ZM453.112 44.1172C453.065 43.683 452.87 43.3449 452.525 43.103C452.184 42.861 451.74 42.7401 451.193 42.7401C450.808 42.7401 450.478 42.7981 450.203 42.9141C449.928 43.0301 449.718 43.1875 449.572 43.3864C449.426 43.5852 449.352 43.8123 449.348 44.0675C449.348 44.2796 449.396 44.4635 449.492 44.6193C449.592 44.7751 449.726 44.9077 449.895 45.017C450.064 45.1231 450.251 45.2126 450.457 45.2855C450.662 45.3584 450.87 45.4197 451.078 45.4695L452.033 45.7081C452.417 45.7976 452.787 45.9186 453.142 46.071C453.5 46.2235 453.819 46.4157 454.101 46.6477C454.386 46.8797 454.612 47.1598 454.777 47.4879C454.943 47.8161 455.026 48.2005 455.026 48.6413C455.026 49.2379 454.873 49.7633 454.568 50.2173C454.263 50.6681 453.823 51.0211 453.246 51.2763C452.673 51.5282 451.978 51.6541 451.163 51.6541C450.371 51.6541 449.683 51.5315 449.1 51.2862C448.52 51.041 448.066 50.683 447.737 50.2124C447.413 49.7417 447.237 49.1683 447.21 48.4922H449.025C449.052 48.8468 449.161 49.1418 449.353 49.3771C449.545 49.6125 449.796 49.7881 450.104 49.9041C450.415 50.0201 450.763 50.0781 451.148 50.0781C451.549 50.0781 451.9 50.0185 452.202 49.8991C452.507 49.7765 452.746 49.6075 452.918 49.392C453.09 49.1733 453.178 48.9181 453.181 48.6264C453.178 48.3613 453.1 48.1425 452.948 47.9702C452.795 47.7945 452.581 47.6487 452.306 47.5327C452.035 47.4134 451.716 47.3073 451.352 47.2145L450.193 46.9162C449.355 46.7008 448.692 46.3743 448.205 45.9368C447.721 45.496 447.479 44.911 447.479 44.1818C447.479 43.5819 447.641 43.0566 447.966 42.6058C448.294 42.1551 448.74 41.8054 449.304 41.5568C449.867 41.3049 450.505 41.179 451.218 41.179C451.94 41.179 452.573 41.3049 453.117 41.5568C453.664 41.8054 454.093 42.1518 454.404 42.5959C454.716 43.0367 454.877 43.5438 454.887 44.1172H453.112Z" fill="#F1EFEF"/>
<rect x="466" y="32" width="93" height="28" rx="6" fill="#3C46C9"/>
<rect x="472" y="37" width="18" height="18" rx="3.5" fill="#F1EFEF"/>
<path opacity="0.4" d="M477.562 49.4375C476 49.4375 474.75 48.5 474.75 46.3125C474.75 43.8125 476.625 42.5625 481 42.5625C485.375 42.5625 487.25 43.8125 487.25 46.3125C487.25 48.5 486 49.4375 484.438 49.4375C482.875 49.4375 481.938 47.875 481 47.875C480.062 47.875 479.125 49.4375 477.562 49.4375Z" fill="#3C46C9"/>
<path d="M477.562 49.4375C476 49.4375 474.75 48.5 474.75 46.3125C474.75 43.8125 476.625 42.5625 481 42.5625C485.375 42.5625 487.25 43.8125 487.25 46.3125C487.25 48.5 486 49.4375 484.438 49.4375C482.875 49.4375 481.938 47.875 481 47.875C480.062 47.875 479.125 49.4375 477.562 49.4375Z" stroke="#3C46C9" stroke-width="1.25" stroke-linecap="round"/>
<path d="M501.964 43.8636L499.245 51.5H497.256L494.537 43.8636H496.456L498.211 49.5362H498.29L500.05 43.8636H501.964ZM503 51.5V43.8636H504.799V51.5H503ZM503.904 42.7798C503.619 42.7798 503.374 42.6854 503.169 42.4964C502.963 42.3042 502.86 42.0739 502.86 41.8054C502.86 41.5336 502.963 41.3033 503.169 41.1143C503.374 40.9221 503.619 40.826 503.904 40.826C504.193 40.826 504.438 40.9221 504.64 41.1143C504.846 41.3033 504.948 41.5336 504.948 41.8054C504.948 42.0739 504.846 42.3042 504.64 42.4964C504.438 42.6854 504.193 42.7798 503.904 42.7798ZM512.475 45.8821L510.835 46.0611C510.788 45.8954 510.707 45.7396 510.591 45.5938C510.479 45.4479 510.326 45.3303 510.134 45.2408C509.942 45.1513 509.706 45.1065 509.428 45.1065C509.053 45.1065 508.738 45.1877 508.483 45.3501C508.231 45.5125 508.107 45.723 508.11 45.9815C508.107 46.2036 508.188 46.3842 508.354 46.5234C508.523 46.6626 508.801 46.777 509.189 46.8665L510.492 47.1449C511.214 47.3007 511.751 47.5476 512.103 47.8857C512.457 48.2237 512.636 48.6662 512.639 49.2131C512.636 49.6937 512.495 50.1179 512.217 50.4858C511.942 50.8504 511.559 51.1354 511.068 51.3409C510.578 51.5464 510.014 51.6491 509.378 51.6491C508.443 51.6491 507.691 51.4536 507.121 51.0625C506.551 50.6681 506.211 50.1196 506.102 49.4169L507.857 49.2479C507.936 49.5926 508.105 49.8527 508.364 50.0284C508.622 50.2041 508.959 50.2919 509.373 50.2919C509.801 50.2919 510.144 50.2041 510.402 50.0284C510.664 49.8527 510.795 49.6357 510.795 49.3771C510.795 49.1584 510.711 48.9777 510.541 48.8352C510.376 48.6927 510.117 48.5833 509.766 48.5071L508.463 48.2337C507.731 48.0812 507.189 47.8243 506.838 47.4631C506.486 47.0985 506.312 46.6378 506.316 46.081C506.312 45.6103 506.44 45.2027 506.698 44.858C506.96 44.5099 507.323 44.2415 507.787 44.0526C508.255 43.8603 508.793 43.7642 509.403 43.7642C510.298 43.7642 511.002 43.9548 511.516 44.3359C512.033 44.7171 512.353 45.2325 512.475 45.8821ZM513.914 51.5V43.8636H515.713V51.5H513.914ZM514.818 42.7798C514.533 42.7798 514.288 42.6854 514.083 42.4964C513.877 42.3042 513.774 42.0739 513.774 41.8054C513.774 41.5336 513.877 41.3033 514.083 41.1143C514.288 40.9221 514.533 40.826 514.818 40.826C515.107 40.826 515.352 40.9221 515.554 41.1143C515.76 41.3033 515.862 41.5336 515.862 41.8054C515.862 42.0739 515.76 42.3042 515.554 42.4964C515.352 42.6854 515.107 42.7798 514.818 42.7798ZM520.685 51.6491C519.939 51.6491 519.293 51.4851 518.746 51.157C518.199 50.8288 517.775 50.3698 517.473 49.7798C517.175 49.1899 517.026 48.5005 517.026 47.7116C517.026 46.9228 517.175 46.2318 517.473 45.6385C517.775 45.0452 518.199 44.5845 518.746 44.2564C519.293 43.9283 519.939 43.7642 520.685 43.7642C521.431 43.7642 522.077 43.9283 522.624 44.2564C523.171 44.5845 523.593 45.0452 523.892 45.6385C524.193 46.2318 524.344 46.9228 524.344 47.7116C524.344 48.5005 524.193 49.1899 523.892 49.7798C523.593 50.3698 523.171 50.8288 522.624 51.157C522.077 51.4851 521.431 51.6491 520.685 51.6491ZM520.695 50.2074C521.099 50.2074 521.437 50.0964 521.709 49.8743C521.981 49.6489 522.183 49.3473 522.316 48.9695C522.451 48.5916 522.519 48.1707 522.519 47.7067C522.519 47.2393 522.451 46.8168 522.316 46.4389C522.183 46.0578 521.981 45.7545 521.709 45.5291C521.437 45.3037 521.099 45.1911 520.695 45.1911C520.281 45.1911 519.936 45.3037 519.661 45.5291C519.389 45.7545 519.185 46.0578 519.049 46.4389C518.917 46.8168 518.85 47.2393 518.85 47.7067C518.85 48.1707 518.917 48.5916 519.049 48.9695C519.185 49.3473 519.389 49.6489 519.661 49.8743C519.936 50.0964 520.281 50.2074 520.695 50.2074ZM527.461 47.0256V51.5H525.661V43.8636H527.382V45.1612H527.471C527.647 44.7337 527.927 44.3939 528.311 44.142C528.699 43.8902 529.178 43.7642 529.748 43.7642C530.275 43.7642 530.734 43.8769 531.125 44.1023C531.52 44.3277 531.825 44.6541 532.04 45.0817C532.259 45.5092 532.366 46.0279 532.363 46.6378V51.5H530.563V46.9162C530.563 46.4058 530.431 46.0064 530.166 45.718C529.904 45.4297 529.541 45.2855 529.077 45.2855C528.762 45.2855 528.482 45.3551 528.237 45.4943C527.995 45.6302 527.804 45.8274 527.665 46.0859C527.529 46.3445 527.461 46.6577 527.461 47.0256ZM543.16 46.4091C543.16 47.5062 542.955 48.4458 542.544 49.228C542.136 50.0069 541.579 50.6035 540.873 51.0178C540.171 51.4321 539.374 51.6392 538.482 51.6392C537.59 51.6392 536.792 51.4321 536.086 51.0178C535.383 50.6001 534.826 50.0019 534.415 49.223C534.008 48.4408 533.804 47.5028 533.804 46.4091C533.804 45.312 534.008 44.3741 534.415 43.5952C534.826 42.813 535.383 42.2147 536.086 41.8004C536.792 41.3861 537.59 41.179 538.482 41.179C539.374 41.179 540.171 41.3861 540.873 41.8004C541.579 42.2147 542.136 42.813 542.544 43.5952C542.955 44.3741 543.16 45.312 543.16 46.4091ZM541.306 46.4091C541.306 45.6368 541.185 44.9856 540.943 44.4553C540.704 43.9216 540.373 43.5189 539.949 43.2472C539.524 42.9721 539.036 42.8345 538.482 42.8345C537.929 42.8345 537.44 42.9721 537.015 43.2472C536.591 43.5189 536.258 43.9216 536.016 44.4553C535.777 44.9856 535.658 45.6368 535.658 46.4091C535.658 47.1813 535.777 47.8343 536.016 48.3679C536.258 48.8982 536.591 49.3009 537.015 49.576C537.44 49.8478 537.929 49.9837 538.482 49.9837C539.036 49.9837 539.524 49.8478 539.949 49.576C540.373 49.3009 540.704 48.8982 540.943 48.3679C541.185 47.8343 541.306 47.1813 541.306 46.4091ZM550.227 44.1172C550.181 43.683 549.985 43.3449 549.641 43.103C549.299 42.861 548.855 42.7401 548.308 42.7401C547.924 42.7401 547.594 42.7981 547.319 42.9141C547.044 43.0301 546.834 43.1875 546.688 43.3864C546.542 43.5852 546.467 43.8123 546.464 44.0675C546.464 44.2796 546.512 44.4635 546.608 44.6193C546.708 44.7751 546.842 44.9077 547.011 45.017C547.18 45.1231 547.367 45.2126 547.573 45.2855C547.778 45.3584 547.985 45.4197 548.194 45.4695L549.149 45.7081C549.533 45.7976 549.903 45.9186 550.257 46.071C550.615 46.2235 550.935 46.4157 551.217 46.6477C551.502 46.8797 551.727 47.1598 551.893 47.4879C552.059 47.8161 552.142 48.2005 552.142 48.6413C552.142 49.2379 551.989 49.7633 551.684 50.2173C551.379 50.6681 550.938 51.0211 550.362 51.2763C549.788 51.5282 549.094 51.6541 548.279 51.6541C547.486 51.6541 546.799 51.5315 546.215 51.2862C545.635 51.041 545.181 50.683 544.853 50.2124C544.528 49.7417 544.353 49.1683 544.326 48.4922H546.141C546.167 48.8468 546.277 49.1418 546.469 49.3771C546.661 49.6125 546.911 49.7881 547.22 49.9041C547.531 50.0201 547.879 50.0781 548.264 50.0781C548.665 50.0781 549.016 50.0185 549.318 49.8991C549.623 49.7765 549.861 49.6075 550.034 49.392C550.206 49.1733 550.294 48.9181 550.297 48.6264C550.294 48.3613 550.216 48.1425 550.063 47.9702C549.911 47.7945 549.697 47.6487 549.422 47.5327C549.15 47.4134 548.832 47.3073 548.468 47.2145L547.309 46.9162C546.471 46.7008 545.808 46.3743 545.32 45.9368C544.837 45.496 544.595 44.911 544.595 44.1818C544.595 43.5819 544.757 43.0566 545.082 42.6058C545.41 42.1551 545.856 41.8054 546.419 41.5568C546.983 41.3049 547.621 41.179 548.333 41.179C549.056 41.179 549.689 41.3049 550.232 41.5568C550.779 41.8054 551.209 42.1518 551.52 42.5959C551.832 43.0367 551.992 43.5438 552.002 44.1172H550.227Z" fill="#F1EFEF"/>
<rect x="108" y="64" width="164" height="28" rx="6" fill="#3C46C9"/>
<rect x="114" y="69" width="18" height="18" rx="3.5" fill="#F1EFEF"/>
<path d="M123 84.25H122.062C119.705 84.25 118.527 84.25 117.795 83.5177C117.062 82.7855 117.062 81.607 117.063 79.2499L117.063 76.75C117.063 74.393 117.063 73.2145 117.795 72.4822C118.527 71.75 119.706 71.75 122.062 71.75H122.687C125.044 71.75 126.223 71.75 126.955 72.4822C127.687 73.2145 127.687 74.393 127.687 76.75V77.375" stroke="#3C46C9" stroke-width="1.25" stroke-linecap="round" stroke-linejoin="round"/>
<path d="M119.875 74.875H124.875M119.875 78H122.688" stroke="#3C46C9" stroke-width="1.25" stroke-linecap="round" stroke-linejoin="round"/>
<path d="M126.438 83.4829C127.542 83.4829 128.438 82.5672 128.438 81.4375C128.438 80.3078 127.542 79.3921 126.438 79.3921M126.438 83.4829C125.333 83.4829 124.438 82.5672 124.438 81.4375C124.438 80.3078 125.333 79.3921 126.438 79.3921M126.438 83.4829V84.25M126.438 79.3921V78.625M124.62 80.3218L123.938 79.9034M128.938 82.9716L128.256 82.5532M128.255 80.3218L128.937 79.9034M123.938 82.9716L124.619 82.5532" stroke="#3C46C9" stroke-width="1.25" stroke-linecap="round"/>
<path opacity="0.4" d="M127.687 76.75V79.25C127.687 79.4552 127.687 79.6516 127.687 79.8394C127.345 79.5592 126.91 79.3916 126.438 79.3916C125.333 79.3916 124.438 80.3074 124.438 81.4371C124.438 82.5668 125.333 83.4825 126.438 83.4825C126.665 83.4825 126.883 83.4439 127.086 83.3727C127.045 83.423 127.002 83.4713 126.955 83.5177C126.223 84.25 125.044 84.25 122.687 84.25H122.062C119.705 84.25 118.527 84.25 117.795 83.5177C117.062 82.7855 117.062 81.607 117.063 79.2499L117.063 76.75C117.063 74.393 117.063 73.2145 117.795 72.4822C118.527 71.75 119.706 71.75 122.062 71.75H122.687C125.044 71.75 126.223 71.75 126.955 72.4822C127.687 73.2145 127.687 74.393 127.687 76.75Z" fill="#3C46C9"/>
<path d="M138.597 83.5H136.628L140.213 73.3182H142.49L146.079 83.5H144.11L141.391 75.4062H141.311L138.597 83.5ZM138.661 79.5078H144.031V80.9893H138.661V79.5078ZM147.131 86.3636V75.8636H148.9V77.1264H149.005C149.098 76.9408 149.229 76.7436 149.398 76.5348C149.567 76.3227 149.795 76.142 150.084 75.9929C150.372 75.8404 150.74 75.7642 151.187 75.7642C151.777 75.7642 152.309 75.915 152.783 76.2166C153.261 76.5149 153.638 76.9574 153.917 77.544C154.199 78.1274 154.339 78.8433 154.339 79.6918C154.339 80.5303 154.202 81.2429 153.927 81.8295C153.652 82.4162 153.277 82.8636 152.803 83.1719C152.329 83.4801 151.792 83.6342 151.192 83.6342C150.755 83.6342 150.392 83.5613 150.104 83.4155C149.815 83.2696 149.583 83.094 149.408 82.8885C149.235 82.6797 149.101 82.4825 149.005 82.2969H148.93V86.3636H147.131ZM148.895 79.6818C148.895 80.1757 148.965 80.6082 149.104 80.9794C149.247 81.3506 149.451 81.6406 149.716 81.8494C149.984 82.0549 150.309 82.1577 150.69 82.1577C151.088 82.1577 151.421 82.0516 151.69 81.8395C151.958 81.6241 152.16 81.3307 152.296 80.9595C152.435 80.585 152.505 80.1591 152.505 79.6818C152.505 79.2079 152.437 78.7869 152.301 78.419C152.165 78.0511 151.963 77.7628 151.694 77.554C151.426 77.3452 151.091 77.2408 150.69 77.2408C150.306 77.2408 149.979 77.3419 149.711 77.544C149.442 77.7462 149.239 78.0296 149.099 78.3942C148.963 78.7588 148.895 79.188 148.895 79.6818ZM157.868 83.6541C157.384 83.6541 156.948 83.5679 156.56 83.3956C156.176 83.2199 155.871 82.9614 155.646 82.62C155.424 82.2786 155.313 81.8577 155.313 81.3572C155.313 80.9264 155.392 80.5701 155.551 80.2884C155.71 80.0066 155.927 79.7812 156.203 79.6122C156.478 79.4432 156.788 79.3156 157.132 79.2294C157.48 79.1399 157.84 79.0753 158.211 79.0355C158.659 78.9891 159.021 78.9477 159.3 78.9112C159.578 78.8714 159.78 78.8118 159.906 78.7322C160.036 78.6494 160.1 78.5218 160.1 78.3494V78.3196C160.1 77.9451 159.989 77.6551 159.767 77.4496C159.545 77.2441 159.225 77.1413 158.808 77.1413C158.367 77.1413 158.017 77.2375 157.759 77.4297C157.503 77.6219 157.331 77.849 157.242 78.1108L155.561 77.8722C155.694 77.4081 155.913 77.0204 156.217 76.7088C156.522 76.3939 156.895 76.1586 157.336 76.0028C157.777 75.8438 158.264 75.7642 158.798 75.7642C159.166 75.7642 159.532 75.8073 159.896 75.8935C160.261 75.9796 160.594 76.1222 160.896 76.321C161.197 76.5166 161.439 76.7834 161.622 77.1214C161.807 77.4595 161.9 77.8821 161.9 78.3892V83.5H160.17V82.451H160.11C160.001 82.6631 159.847 82.862 159.648 83.0476C159.452 83.2299 159.205 83.3774 158.907 83.4901C158.612 83.5994 158.266 83.6541 157.868 83.6541ZM158.335 82.3317C158.697 82.3317 159.01 82.2604 159.275 82.1179C159.54 81.9721 159.744 81.7798 159.886 81.5412C160.032 81.3026 160.105 81.0424 160.105 80.7607V79.8608C160.049 79.9072 159.953 79.9503 159.817 79.9901C159.684 80.0298 159.535 80.0646 159.369 80.0945C159.204 80.1243 159.04 80.1508 158.877 80.174C158.715 80.1972 158.574 80.2171 158.455 80.2337C158.186 80.2701 157.946 80.3298 157.734 80.4126C157.522 80.4955 157.354 80.6115 157.232 80.7607C157.109 80.9065 157.048 81.0954 157.048 81.3274C157.048 81.6589 157.169 81.9091 157.411 82.0781C157.653 82.2472 157.961 82.3317 158.335 82.3317ZM166.831 83.6491C166.068 83.6491 165.414 83.4818 164.867 83.147C164.323 82.8123 163.904 82.3499 163.609 81.7599C163.317 81.1667 163.172 80.4839 163.172 79.7116C163.172 78.9361 163.321 78.2517 163.619 77.6584C163.917 77.0618 164.338 76.5978 164.882 76.2663C165.429 75.9316 166.075 75.7642 166.821 75.7642C167.44 75.7642 167.989 75.8786 168.466 76.1072C168.947 76.3326 169.33 76.6525 169.615 77.0668C169.9 77.4777 170.062 77.9583 170.102 78.5085H168.382C168.312 78.1406 168.146 77.834 167.885 77.5888C167.626 77.3402 167.28 77.2159 166.846 77.2159C166.478 77.2159 166.154 77.3153 165.876 77.5142C165.598 77.7098 165.381 77.9915 165.225 78.3594C165.072 78.7273 164.996 79.1681 164.996 79.6818C164.996 80.2022 165.072 80.6496 165.225 81.0241C165.377 81.3954 165.591 81.6821 165.866 81.8842C166.145 82.0831 166.471 82.1825 166.846 82.1825C167.111 82.1825 167.348 82.1328 167.556 82.0334C167.769 81.9306 167.946 81.7831 168.088 81.5909C168.231 81.3987 168.329 81.165 168.382 80.8899H170.102C170.059 81.4302 169.9 81.9091 169.625 82.3267C169.35 82.741 168.975 83.0658 168.501 83.3011C168.027 83.5331 167.47 83.6491 166.831 83.6491ZM173.169 79.0256V83.5H171.37V73.3182H173.13V77.1612H173.219C173.398 76.7304 173.675 76.3906 174.049 76.142C174.427 75.8902 174.908 75.7642 175.491 75.7642C176.021 75.7642 176.484 75.8752 176.878 76.0973C177.273 76.3194 177.578 76.6442 177.793 77.0717C178.012 77.4993 178.121 78.0213 178.121 78.6378V83.5H176.321V78.9162C176.321 78.4025 176.189 78.0031 175.924 77.718C175.662 77.4297 175.294 77.2855 174.82 77.2855C174.502 77.2855 174.217 77.3551 173.965 77.4943C173.716 77.6302 173.521 77.8274 173.378 78.0859C173.239 78.3445 173.169 78.6577 173.169 79.0256ZM183.126 83.6491C182.361 83.6491 181.699 83.4901 181.143 83.1719C180.589 82.8504 180.163 82.3963 179.865 81.8097C179.567 81.2197 179.418 80.5253 179.418 79.7266C179.418 78.9411 179.567 78.2517 179.865 77.6584C180.167 77.0618 180.588 76.5978 181.128 76.2663C181.668 75.9316 182.303 75.7642 183.032 75.7642C183.503 75.7642 183.947 75.8404 184.364 75.9929C184.785 76.142 185.156 76.3741 185.478 76.6889C185.803 77.0038 186.058 77.4048 186.244 77.892C186.429 78.3759 186.522 78.9527 186.522 79.6222V80.174H180.263V78.9609H184.797C184.793 78.6162 184.719 78.3097 184.573 78.0412C184.427 77.7694 184.223 77.5556 183.962 77.3999C183.703 77.2441 183.401 77.1662 183.057 77.1662C182.689 77.1662 182.366 77.2557 182.087 77.4347C181.809 77.6103 181.592 77.8423 181.436 78.1307C181.284 78.4157 181.206 78.7289 181.202 79.0703V80.1293C181.202 80.5734 181.284 80.9545 181.446 81.2727C181.608 81.5876 181.835 81.8295 182.127 81.9986C182.419 82.1643 182.76 82.2472 183.151 82.2472C183.413 82.2472 183.65 82.2107 183.862 82.1378C184.074 82.0616 184.258 81.9505 184.414 81.8047C184.57 81.6589 184.687 81.4782 184.767 81.2628L186.447 81.4517C186.341 81.8958 186.139 82.2836 185.841 82.6151C185.546 82.9432 185.168 83.1984 184.707 83.3807C184.247 83.5597 183.72 83.6491 183.126 83.6491ZM191.077 83.5V82.1676L194.612 78.7024C194.95 78.361 195.232 78.0578 195.457 77.7926C195.683 77.5275 195.852 77.2706 195.964 77.022C196.077 76.7734 196.133 76.5083 196.133 76.2266C196.133 75.9051 196.06 75.63 195.915 75.4013C195.769 75.1693 195.568 74.9903 195.313 74.8643C195.058 74.7384 194.768 74.6754 194.443 74.6754C194.108 74.6754 193.815 74.745 193.563 74.8842C193.311 75.0201 193.116 75.214 192.976 75.4659C192.841 75.7178 192.773 76.0178 192.773 76.3658H191.018C191.018 75.7195 191.165 75.1577 191.46 74.6804C191.755 74.2031 192.161 73.8336 192.678 73.5717C193.198 73.3099 193.795 73.179 194.468 73.179C195.151 73.179 195.751 73.3066 196.268 73.5618C196.785 73.817 197.186 74.1667 197.471 74.6108C197.759 75.0549 197.903 75.562 197.903 76.1321C197.903 76.5133 197.83 76.8878 197.684 77.2557C197.539 77.6236 197.282 78.0312 196.914 78.4787C196.549 78.9261 196.037 79.468 195.378 80.1044L193.623 81.8892V81.9588H198.057V83.5H191.077ZM200.691 83.6094C200.39 83.6094 200.131 83.5033 199.916 83.2912C199.7 83.0791 199.594 82.8205 199.597 82.5156C199.594 82.2173 199.7 81.9621 199.916 81.75C200.131 81.5379 200.39 81.4318 200.691 81.4318C200.983 81.4318 201.236 81.5379 201.452 81.75C201.671 81.9621 201.782 82.2173 201.785 82.5156C201.782 82.7178 201.729 82.9018 201.626 83.0675C201.526 83.2332 201.394 83.3658 201.228 83.4652C201.066 83.5613 200.887 83.6094 200.691 83.6094ZM206.78 83.6939C205.961 83.6939 205.259 83.4867 204.672 83.0724C204.089 82.6548 203.64 82.0533 203.325 81.2678C203.013 80.4789 202.858 79.5294 202.858 78.419C202.861 77.3087 203.018 76.3641 203.33 75.5852C203.645 74.803 204.094 74.2064 204.677 73.7955C205.264 73.3845 205.965 73.179 206.78 73.179C207.595 73.179 208.296 73.3845 208.883 73.7955C209.47 74.2064 209.919 74.803 210.23 75.5852C210.545 76.3674 210.703 77.312 210.703 78.419C210.703 79.5327 210.545 80.4839 210.23 81.2727C209.919 82.0582 209.47 82.6581 208.883 83.0724C208.3 83.4867 207.599 83.6939 206.78 83.6939ZM206.78 82.1378C207.416 82.1378 207.919 81.8246 208.287 81.1982C208.658 80.5684 208.843 79.642 208.843 78.419C208.843 77.6103 208.759 76.9309 208.59 76.3807C208.421 75.8305 208.182 75.4162 207.874 75.1378C207.566 74.8561 207.201 74.7152 206.78 74.7152C206.147 74.7152 205.647 75.0301 205.279 75.6598C204.911 76.2862 204.725 77.206 204.722 78.419C204.719 79.2311 204.8 79.9138 204.965 80.4673C205.135 81.0208 205.373 81.4384 205.681 81.7202C205.99 81.9986 206.356 82.1378 206.78 82.1378ZM215.507 83.5V73.3182H217.351V81.9538H221.835V83.5H215.507ZM223.147 83.5V75.8636H224.946V83.5H223.147ZM224.052 74.7798C223.767 74.7798 223.521 74.6854 223.316 74.4964C223.11 74.3042 223.008 74.0739 223.008 73.8054C223.008 73.5336 223.11 73.3033 223.316 73.1143C223.521 72.9221 223.767 72.826 224.052 72.826C224.34 72.826 224.585 72.9221 224.787 73.1143C224.993 73.3033 225.096 73.5336 225.096 73.8054C225.096 74.0739 224.993 74.3042 224.787 74.4964C224.585 74.6854 224.34 74.7798 224.052 74.7798ZM229.918 83.6491C229.156 83.6491 228.501 83.4818 227.954 83.147C227.411 82.8123 226.991 82.3499 226.697 81.7599C226.405 81.1667 226.259 80.4839 226.259 79.7116C226.259 78.9361 226.408 78.2517 226.706 77.6584C227.005 77.0618 227.426 76.5978 227.969 76.2663C228.516 75.9316 229.162 75.7642 229.908 75.7642C230.528 75.7642 231.076 75.8786 231.554 76.1072C232.034 76.3326 232.417 76.6525 232.702 77.0668C232.987 77.4777 233.15 77.9583 233.189 78.5085H231.469C231.4 78.1406 231.234 77.834 230.972 77.5888C230.714 77.3402 230.367 77.2159 229.933 77.2159C229.565 77.2159 229.242 77.3153 228.964 77.5142C228.685 77.7098 228.468 77.9915 228.312 78.3594C228.16 78.7273 228.084 79.1681 228.084 79.6818C228.084 80.2022 228.16 80.6496 228.312 81.0241C228.465 81.3954 228.679 81.6821 228.954 81.8842C229.232 82.0831 229.558 82.1825 229.933 82.1825C230.198 82.1825 230.435 82.1328 230.644 82.0334C230.856 81.9306 231.033 81.7831 231.176 81.5909C231.318 81.3987 231.416 81.165 231.469 80.8899H233.189C233.146 81.4302 232.987 81.9091 232.712 82.3267C232.437 82.741 232.063 83.0658 231.589 83.3011C231.115 83.5331 230.558 83.6491 229.918 83.6491ZM237.838 83.6491C237.072 83.6491 236.411 83.4901 235.854 83.1719C235.301 82.8504 234.875 82.3963 234.577 81.8097C234.278 81.2197 234.129 80.5253 234.129 79.7266C234.129 78.9411 234.278 78.2517 234.577 77.6584C234.878 77.0618 235.299 76.5978 235.839 76.2663C236.38 75.9316 237.014 75.7642 237.743 75.7642C238.214 75.7642 238.658 75.8404 239.076 75.9929C239.497 76.142 239.868 76.3741 240.189 76.6889C240.514 77.0038 240.769 77.4048 240.955 77.892C241.141 78.3759 241.233 78.9527 241.233 79.6222V80.174H234.974V78.9609H239.508C239.505 78.6162 239.43 78.3097 239.285 78.0412C239.139 77.7694 238.935 77.5556 238.673 77.3999C238.415 77.2441 238.113 77.1662 237.768 77.1662C237.4 77.1662 237.077 77.2557 236.799 77.4347C236.52 77.6103 236.303 77.8423 236.148 78.1307C235.995 78.4157 235.917 78.7289 235.914 79.0703V80.1293C235.914 80.5734 235.995 80.9545 236.158 81.2727C236.32 81.5876 236.547 81.8295 236.839 81.9986C237.13 82.1643 237.472 82.2472 237.863 82.2472C238.125 82.2472 238.362 82.2107 238.574 82.1378C238.786 82.0616 238.97 81.9505 239.126 81.8047C239.281 81.6589 239.399 81.4782 239.479 81.2628L241.159 81.4517C241.053 81.8958 240.851 82.2836 240.552 82.6151C240.257 82.9432 239.88 83.1984 239.419 83.3807C238.958 83.5597 238.431 83.6491 237.838 83.6491ZM244.346 79.0256V83.5H242.546V75.8636H244.266V77.1612H244.356C244.531 76.7337 244.811 76.3939 245.196 76.142C245.584 75.8902 246.063 75.7642 246.633 75.7642C247.16 75.7642 247.619 75.8769 248.01 76.1023C248.404 76.3277 248.709 76.6541 248.925 77.0817C249.143 77.5092 249.251 78.0279 249.248 78.6378V83.5H247.448V78.9162C247.448 78.4058 247.315 78.0064 247.05 77.718C246.788 77.4297 246.426 77.2855 245.962 77.2855C245.647 77.2855 245.367 77.3551 245.121 77.4943C244.879 77.6302 244.689 77.8274 244.55 78.0859C244.414 78.3445 244.346 78.6577 244.346 79.0256ZM256.903 77.8821L255.262 78.0611C255.216 77.8954 255.135 77.7396 255.019 77.5938C254.906 77.4479 254.753 77.3303 254.561 77.2408C254.369 77.1513 254.134 77.1065 253.855 77.1065C253.481 77.1065 253.166 77.1877 252.911 77.3501C252.659 77.5125 252.534 77.723 252.538 77.9815C252.534 78.2036 252.616 78.3842 252.781 78.5234C252.95 78.6626 253.229 78.777 253.617 78.8665L254.919 79.1449C255.642 79.3007 256.179 79.5476 256.53 79.8857C256.885 80.2237 257.064 80.6662 257.067 81.2131C257.064 81.6937 256.923 82.1179 256.644 82.4858C256.369 82.8504 255.986 83.1354 255.496 83.3409C255.005 83.5464 254.442 83.6491 253.806 83.6491C252.871 83.6491 252.118 83.4536 251.548 83.0625C250.978 82.6681 250.639 82.1196 250.529 81.4169L252.284 81.2479C252.364 81.5926 252.533 81.8527 252.791 82.0284C253.05 82.2041 253.386 82.2919 253.801 82.2919C254.228 82.2919 254.571 82.2041 254.83 82.0284C255.091 81.8527 255.222 81.6357 255.222 81.3771C255.222 81.1584 255.138 80.9777 254.969 80.8352C254.803 80.6927 254.545 80.5833 254.193 80.5071L252.891 80.2337C252.158 80.0812 251.616 79.8243 251.265 79.4631C250.914 79.0985 250.74 78.6378 250.743 78.081C250.74 77.6103 250.867 77.2027 251.126 76.858C251.388 76.5099 251.751 76.2415 252.215 76.0526C252.682 75.8603 253.221 75.7642 253.83 75.7642C254.725 75.7642 255.43 75.9548 255.943 76.3359C256.46 76.7171 256.78 77.2325 256.903 77.8821ZM261.722 83.6491C260.956 83.6491 260.295 83.4901 259.738 83.1719C259.184 82.8504 258.759 82.3963 258.46 81.8097C258.162 81.2197 258.013 80.5253 258.013 79.7266C258.013 78.9411 258.162 78.2517 258.46 77.6584C258.762 77.0618 259.183 76.5978 259.723 76.2663C260.263 75.9316 260.898 75.7642 261.627 75.7642C262.098 75.7642 262.542 75.8404 262.959 75.9929C263.38 76.142 263.752 76.3741 264.073 76.6889C264.398 77.0038 264.653 77.4048 264.839 77.892C265.024 78.3759 265.117 78.9527 265.117 79.6222V80.174H258.858V78.9609H263.392C263.389 78.6162 263.314 78.3097 263.168 78.0412C263.022 77.7694 262.819 77.5556 262.557 77.3999C262.298 77.2441 261.997 77.1662 261.652 77.1662C261.284 77.1662 260.961 77.2557 260.683 77.4347C260.404 77.6103 260.187 77.8423 260.031 78.1307C259.879 78.4157 259.801 78.7289 259.798 79.0703V80.1293C259.798 80.5734 259.879 80.9545 260.041 81.2727C260.204 81.5876 260.431 81.8295 260.722 81.9986C261.014 82.1643 261.355 82.2472 261.746 82.2472C262.008 82.2472 262.245 82.2107 262.457 82.1378C262.669 82.0616 262.853 81.9505 263.009 81.8047C263.165 81.6589 263.283 81.4782 263.362 81.2628L265.043 81.4517C264.937 81.8958 264.734 82.2836 264.436 82.6151C264.141 82.9432 263.763 83.1984 263.303 83.3807C262.842 83.5597 262.315 83.6491 261.722 83.6491Z" fill="#F1EFEF"/>
<rect x="276" y="64" width="175" height="28" rx="6" fill="#3C46C9"/>
<rect x="282" y="69" width="18" height="18" rx="3.5" fill="#F1EFEF"/>
<path opacity="0.4" fill-rule="evenodd" clip-rule="evenodd" d="M296.889 75.5C296.937 76.2048 296.938 77.0711 296.938 78.152V78.473C296.938 81.1963 296.938 82.5579 296.155 83.404C295.372 84.25 294.113 84.25 291.594 84.25H290.406C287.887 84.25 286.628 84.25 285.845 83.404C285.062 82.5579 285.062 81.1963 285.062 78.473V78.152C285.062 77.0711 285.062 76.2048 285.111 75.5H296.889ZM291 78.3125C291.542 78.3125 292.02 78.5888 292.3 79.0082C292.466 79.2563 292.562 79.5543 292.562 79.875C292.562 80.1957 292.466 80.4938 292.3 80.7419C292.02 81.1613 291.542 81.4375 291 81.4375C290.458 81.4375 289.98 81.1613 289.7 80.7419C289.534 80.4938 289.438 80.1957 289.438 79.875C289.438 79.5543 289.534 79.2563 289.7 79.0082C289.98 78.5888 290.458 78.3125 291 78.3125Z" fill="#3C46C9"/>
<path d="M294.75 71.75V73M287.25 71.75V73" stroke="#3C46C9" stroke-width="1.25" stroke-linecap="round" stroke-linejoin="round"/>
<path d="M285.375 75.5H296.625" stroke="#3C46C9" stroke-width="1.25" stroke-linecap="round" stroke-linejoin="round"/>
<path d="M285.062 78.152C285.062 75.4287 285.062 74.0671 285.845 73.221C286.628 72.375 287.887 72.375 290.406 72.375H291.594C294.113 72.375 295.372 72.375 296.155 73.221C296.938 74.0671 296.938 75.4287 296.938 78.152V78.473C296.938 81.1963 296.938 82.5579 296.155 83.404C295.372 84.25 294.113 84.25 291.594 84.25H290.406C287.887 84.25 286.628 84.25 285.845 83.404C285.062 82.5579 285.062 81.1963 285.062 78.473V78.152Z" stroke="#3C46C9" stroke-width="1.25" stroke-linecap="round" stroke-linejoin="round"/>
<path d="M291 81.4375V82.0625M291 81.4375C290.458 81.4375 289.98 81.1613 289.7 80.7419M291 81.4375C291.542 81.4375 292.02 81.1613 292.3 80.7419M289.7 80.7419L289.125 81.125M289.7 80.7419C289.534 80.4938 289.438 80.1957 289.438 79.875C289.438 79.5543 289.534 79.2563 289.7 79.0082M292.3 80.7419L292.875 81.125M292.3 80.7419C292.466 80.4938 292.562 80.1957 292.562 79.875C292.562 79.5543 292.466 79.2563 292.3 79.0082M291 78.3125C291.542 78.3125 292.02 78.5888 292.3 79.0082M291 78.3125C290.458 78.3125 289.98 78.5888 289.7 79.0082M291 78.3125V77.6875M292.3 79.0082L292.875 78.625M289.7 79.0082L289.125 78.625" stroke="#3C46C9" stroke-width="1.25" stroke-linecap="round"/>
<path d="M308.766 83.6392C308.05 83.6392 307.414 83.5166 306.857 83.2713C306.303 83.026 305.866 82.6847 305.544 82.2472C305.223 81.8097 305.052 81.3042 305.032 80.7308H306.902C306.918 81.0059 307.009 81.2462 307.175 81.4517C307.341 81.6539 307.561 81.8113 307.836 81.924C308.111 82.0367 308.42 82.093 308.761 82.093C309.126 82.093 309.449 82.0301 309.731 81.9041C310.012 81.7749 310.233 81.5959 310.392 81.3672C310.551 81.1385 310.629 80.875 310.625 80.5767C310.629 80.2685 310.549 79.9967 310.387 79.7614C310.224 79.526 309.989 79.3421 309.681 79.2095C309.376 79.0769 309.008 79.0107 308.577 79.0107H307.677V77.5888H308.577C308.932 77.5888 309.242 77.5275 309.507 77.4048C309.775 77.2822 309.986 77.1098 310.138 76.8878C310.291 76.6624 310.365 76.4022 310.362 76.1072C310.365 75.8189 310.301 75.5687 310.168 75.3565C310.039 75.1411 309.855 74.9737 309.616 74.8544C309.381 74.7351 309.104 74.6754 308.786 74.6754C308.474 74.6754 308.186 74.7318 307.921 74.8445C307.656 74.9571 307.442 75.1179 307.28 75.3267C307.117 75.5322 307.031 75.7775 307.021 76.0625H305.246C305.259 75.4924 305.423 74.992 305.738 74.5611C306.057 74.1269 306.481 73.7888 307.011 73.5469C307.541 73.3016 308.136 73.179 308.796 73.179C309.475 73.179 310.065 73.3066 310.566 73.5618C311.07 73.8137 311.459 74.1534 311.734 74.581C312.009 75.0085 312.147 75.4808 312.147 75.9979C312.15 76.5713 311.981 77.0518 311.64 77.4396C311.302 77.8274 310.857 78.081 310.307 78.2003V78.2798C311.023 78.3793 311.572 78.6444 311.953 79.0753C312.337 79.5028 312.528 80.0348 312.525 80.6712C312.525 81.2412 312.362 81.7517 312.037 82.2024C311.716 82.6499 311.272 83.0012 310.705 83.2564C310.142 83.5116 309.495 83.6392 308.766 83.6392ZM314.849 83.6094C314.547 83.6094 314.289 83.5033 314.073 83.2912C313.858 83.0791 313.752 82.8205 313.755 82.5156C313.752 82.2173 313.858 81.9621 314.073 81.75C314.289 81.5379 314.547 81.4318 314.849 81.4318C315.141 81.4318 315.394 81.5379 315.61 81.75C315.828 81.9621 315.939 82.2173 315.943 82.5156C315.939 82.7178 315.886 82.9018 315.784 83.0675C315.684 83.2332 315.552 83.3658 315.386 83.4652C315.223 83.5613 315.044 83.6094 314.849 83.6094ZM320.938 83.6939C320.119 83.6939 319.417 83.4867 318.83 83.0724C318.247 82.6548 317.797 82.0533 317.483 81.2678C317.171 80.4789 317.015 79.5294 317.015 78.419C317.019 77.3087 317.176 76.3641 317.488 75.5852C317.802 74.803 318.252 74.2064 318.835 73.7955C319.422 73.3845 320.123 73.179 320.938 73.179C321.753 73.179 322.454 73.3845 323.041 73.7955C323.627 74.2064 324.077 74.803 324.388 75.5852C324.703 76.3674 324.86 77.312 324.86 78.419C324.86 79.5327 324.703 80.4839 324.388 81.2727C324.077 82.0582 323.627 82.6581 323.041 83.0724C322.458 83.4867 321.757 83.6939 320.938 83.6939ZM320.938 82.1378C321.574 82.1378 322.076 81.8246 322.444 81.1982C322.815 80.5684 323.001 79.642 323.001 78.419C323.001 77.6103 322.917 76.9309 322.748 76.3807C322.578 75.8305 322.34 75.4162 322.032 75.1378C321.723 74.8561 321.359 74.7152 320.938 74.7152C320.305 74.7152 319.804 75.0301 319.436 75.6598C319.069 76.2862 318.883 77.206 318.88 78.419C318.876 79.2311 318.958 79.9138 319.123 80.4673C319.292 81.0208 319.531 81.4384 319.839 81.7202C320.147 81.9986 320.514 82.1378 320.938 82.1378ZM327.034 83.6094C326.733 83.6094 326.474 83.5033 326.259 83.2912C326.043 83.0791 325.937 82.8205 325.941 82.5156C325.937 82.2173 326.043 81.9621 326.259 81.75C326.474 81.5379 326.733 81.4318 327.034 81.4318C327.326 81.4318 327.58 81.5379 327.795 81.75C328.014 81.9621 328.125 82.2173 328.128 82.5156C328.125 82.7178 328.072 82.9018 327.969 83.0675C327.87 83.2332 327.737 83.3658 327.571 83.4652C327.409 83.5613 327.23 83.6094 327.034 83.6094ZM333.123 83.6939C332.305 83.6939 331.602 83.4867 331.015 83.0724C330.432 82.6548 329.983 82.0533 329.668 81.2678C329.357 80.4789 329.201 79.5294 329.201 78.419C329.204 77.3087 329.361 76.3641 329.673 75.5852C329.988 74.803 330.437 74.2064 331.02 73.7955C331.607 73.3845 332.308 73.179 333.123 73.179C333.939 73.179 334.64 73.3845 335.226 73.7955C335.813 74.2064 336.262 74.803 336.574 75.5852C336.888 76.3674 337.046 77.312 337.046 78.419C337.046 79.5327 336.888 80.4839 336.574 81.2727C336.262 82.0582 335.813 82.6581 335.226 83.0724C334.643 83.4867 333.942 83.6939 333.123 83.6939ZM333.123 82.1378C333.76 82.1378 334.262 81.8246 334.63 81.1982C335.001 80.5684 335.187 79.642 335.187 78.419C335.187 77.6103 335.102 76.9309 334.933 76.3807C334.764 75.8305 334.525 75.4162 334.217 75.1378C333.909 74.8561 333.544 74.7152 333.123 74.7152C332.49 74.7152 331.99 75.0301 331.622 75.6598C331.254 76.2862 331.068 77.206 331.065 78.419C331.062 79.2311 331.143 79.9138 331.309 80.4673C331.478 81.0208 331.716 81.4384 332.025 81.7202C332.333 81.9986 332.699 82.1378 333.123 82.1378Z" fill="#F1EFEF"/>
<path d="M349.61 73.3182V83.5H348.417L342.868 75.5057H342.769V83.5H341.536V73.3182H342.729L348.297 81.3324H348.397V73.3182H349.61ZM354.81 83.6591C354.121 83.6591 353.516 83.495 352.995 83.1669C352.478 82.8388 352.074 82.3797 351.782 81.7898C351.494 81.1998 351.35 80.5104 351.35 79.7216C351.35 78.9261 351.494 78.2318 351.782 77.6385C352.074 77.0452 352.478 76.5845 352.995 76.2564C353.516 75.9283 354.121 75.7642 354.81 75.7642C355.5 75.7642 356.103 75.9283 356.62 76.2564C357.14 76.5845 357.544 77.0452 357.833 77.6385C358.125 78.2318 358.27 78.9261 358.27 79.7216C358.27 80.5104 358.125 81.1998 357.833 81.7898C357.544 82.3797 357.14 82.8388 356.62 83.1669C356.103 83.495 355.5 83.6591 354.81 83.6591ZM354.81 82.6051C355.334 82.6051 355.765 82.4709 356.103 82.2024C356.441 81.9339 356.691 81.581 356.853 81.1435C357.016 80.706 357.097 80.232 357.097 79.7216C357.097 79.2112 357.016 78.7356 356.853 78.2947C356.691 77.8539 356.441 77.4976 356.103 77.2259C355.765 76.9541 355.334 76.8182 354.81 76.8182C354.286 76.8182 353.856 76.9541 353.518 77.2259C353.179 77.4976 352.929 77.8539 352.767 78.2947C352.604 78.7356 352.523 79.2112 352.523 79.7216C352.523 80.232 352.604 80.706 352.767 81.1435C352.929 81.581 353.179 81.9339 353.518 82.2024C353.856 82.4709 354.286 82.6051 354.81 82.6051ZM365.822 75.8636L362.998 83.5H361.805L358.981 75.8636H360.254L362.362 81.9489H362.442L364.55 75.8636H365.822ZM370.089 83.6591C369.353 83.6591 368.719 83.4967 368.185 83.1719C367.655 82.8438 367.245 82.3864 366.957 81.7997C366.672 81.2098 366.53 80.5237 366.53 79.7415C366.53 78.9593 366.672 78.2699 366.957 77.6733C367.245 77.0734 367.646 76.6061 368.16 76.2713C368.677 75.9332 369.28 75.7642 369.97 75.7642C370.368 75.7642 370.76 75.8305 371.148 75.9631C371.536 76.0956 371.889 76.3111 372.207 76.6094C372.525 76.9044 372.779 77.2955 372.968 77.7827C373.157 78.2699 373.251 78.8698 373.251 79.5824V80.0795H367.365V79.0653H372.058C372.058 78.6345 371.972 78.25 371.799 77.9119C371.63 77.5739 371.388 77.3071 371.074 77.1115C370.762 76.916 370.394 76.8182 369.97 76.8182C369.503 76.8182 369.098 76.9342 368.757 77.1662C368.419 77.3949 368.159 77.6932 367.976 78.0611C367.794 78.429 367.703 78.8234 367.703 79.2443V79.9205C367.703 80.4972 367.802 80.986 368.001 81.3871C368.203 81.7848 368.483 82.0881 368.841 82.2969C369.199 82.5024 369.615 82.6051 370.089 82.6051C370.397 82.6051 370.676 82.562 370.924 82.4759C371.176 82.3864 371.393 82.2538 371.576 82.0781C371.758 81.8991 371.899 81.6771 371.998 81.4119L373.132 81.7301C373.012 82.1146 372.812 82.4527 372.53 82.7443C372.248 83.0327 371.9 83.258 371.486 83.4205C371.072 83.5795 370.606 83.6591 370.089 83.6591ZM374.826 83.5V75.8636H375.959V77.0568H376.059C376.218 76.6491 376.475 76.3326 376.829 76.1072C377.184 75.8786 377.61 75.7642 378.107 75.7642C378.611 75.7642 379.03 75.8786 379.365 76.1072C379.703 76.3326 379.967 76.6491 380.155 77.0568H380.235C380.431 76.6624 380.724 76.3492 381.115 76.1172C381.506 75.8819 381.975 75.7642 382.522 75.7642C383.205 75.7642 383.763 75.978 384.197 76.4055C384.632 76.8298 384.849 77.491 384.849 78.3892V83.5H383.675V78.3892C383.675 77.8258 383.521 77.4231 383.213 77.1811C382.905 76.9392 382.542 76.8182 382.124 76.8182C381.587 76.8182 381.171 76.9806 380.876 77.3054C380.581 77.6269 380.434 78.0346 380.434 78.5284V83.5H379.241V78.2699C379.241 77.8357 379.1 77.486 378.818 77.2209C378.536 76.9524 378.173 76.8182 377.729 76.8182C377.424 76.8182 377.139 76.8994 376.874 77.0618C376.612 77.2242 376.4 77.4496 376.238 77.7379C376.079 78.023 375.999 78.3527 375.999 78.7273V83.5H374.826ZM386.943 83.5V73.3182H388.116V77.0767H388.216C388.302 76.9441 388.421 76.7751 388.574 76.5696C388.729 76.3608 388.951 76.1752 389.24 76.0128C389.531 75.8471 389.926 75.7642 390.423 75.7642C391.066 75.7642 391.633 75.925 392.123 76.2464C392.614 76.5679 392.997 77.0237 393.272 77.6136C393.547 78.2036 393.684 78.8996 393.684 79.7017C393.684 80.5104 393.547 81.2114 393.272 81.8047C392.997 82.3946 392.616 82.852 392.128 83.1768C391.641 83.4983 391.079 83.6591 390.443 83.6591C389.952 83.6591 389.56 83.5779 389.265 83.4155C388.97 83.2498 388.743 83.0625 388.584 82.8537C388.424 82.6416 388.302 82.4659 388.216 82.3267H388.076V83.5H386.943ZM388.096 79.6818C388.096 80.2585 388.181 80.7673 388.35 81.2081C388.519 81.6456 388.766 81.9886 389.091 82.2372C389.415 82.4825 389.813 82.6051 390.284 82.6051C390.774 82.6051 391.184 82.4759 391.512 82.2173C391.843 81.9555 392.092 81.6042 392.258 81.1634C392.427 80.7192 392.511 80.2254 392.511 79.6818C392.511 79.1449 392.428 78.661 392.263 78.2301C392.1 77.7959 391.853 77.4529 391.522 77.201C391.194 76.9458 390.781 76.8182 390.284 76.8182C389.807 76.8182 389.406 76.9392 389.081 77.1811C388.756 77.4197 388.511 77.7545 388.345 78.1854C388.179 78.6129 388.096 79.1117 388.096 79.6818ZM398.471 83.6591C397.735 83.6591 397.1 83.4967 396.567 83.1719C396.036 82.8438 395.627 82.3864 395.339 81.7997C395.054 81.2098 394.911 80.5237 394.911 79.7415C394.911 78.9593 395.054 78.2699 395.339 77.6733C395.627 77.0734 396.028 76.6061 396.542 76.2713C397.059 75.9332 397.662 75.7642 398.352 75.7642C398.749 75.7642 399.142 75.8305 399.53 75.9631C399.918 76.0956 400.271 76.3111 400.589 76.6094C400.907 76.9044 401.161 77.2955 401.349 77.7827C401.538 78.2699 401.633 78.8698 401.633 79.5824V80.0795H395.746V79.0653H400.44C400.44 78.6345 400.353 78.25 400.181 77.9119C400.012 77.5739 399.77 77.3071 399.455 77.1115C399.144 76.916 398.776 76.8182 398.352 76.8182C397.884 76.8182 397.48 76.9342 397.138 77.1662C396.8 77.3949 396.54 77.6932 396.358 78.0611C396.176 78.429 396.085 78.8234 396.085 79.2443V79.9205C396.085 80.4972 396.184 80.986 396.383 81.3871C396.585 81.7848 396.865 82.0881 397.223 82.2969C397.581 82.5024 397.997 82.6051 398.471 82.6051C398.779 82.6051 399.058 82.562 399.306 82.4759C399.558 82.3864 399.775 82.2538 399.957 82.0781C400.14 81.8991 400.281 81.6771 400.38 81.4119L401.513 81.7301C401.394 82.1146 401.194 82.4527 400.912 82.7443C400.63 83.0327 400.282 83.258 399.868 83.4205C399.454 83.5795 398.988 83.6591 398.471 83.6591ZM403.208 83.5V75.8636H404.341V77.017H404.421C404.56 76.6392 404.812 76.3326 405.176 76.0973C405.541 75.862 405.952 75.7443 406.409 75.7443C406.495 75.7443 406.603 75.746 406.732 75.7493C406.862 75.7526 406.96 75.7576 407.026 75.7642V76.9574C406.986 76.9474 406.895 76.9325 406.752 76.9126C406.613 76.8894 406.466 76.8778 406.31 76.8778C405.939 76.8778 405.607 76.9557 405.316 77.1115C405.027 77.264 404.799 77.4761 404.629 77.7479C404.464 78.0163 404.381 78.3229 404.381 78.6676V83.5H403.208ZM411.914 83.5V82.6051L415.275 78.9261C415.669 78.4953 415.994 78.1207 416.249 77.8026C416.505 77.4811 416.694 77.1795 416.816 76.8977C416.942 76.6127 417.005 76.3144 417.005 76.0028C417.005 75.6449 416.919 75.335 416.747 75.0732C416.578 74.8113 416.346 74.6091 416.051 74.4666C415.756 74.3241 415.424 74.2528 415.056 74.2528C414.665 74.2528 414.324 74.334 414.032 74.4964C413.744 74.6555 413.52 74.8793 413.361 75.1676C413.205 75.456 413.127 75.794 413.127 76.1818H411.954C411.954 75.5852 412.092 75.0616 412.367 74.6108C412.642 74.16 413.016 73.8087 413.49 73.5568C413.967 73.3049 414.503 73.179 415.096 73.179C415.693 73.179 416.221 73.3049 416.682 73.5568C417.143 73.8087 417.504 74.1484 417.766 74.576C418.028 75.0036 418.159 75.4792 418.159 76.0028C418.159 76.3774 418.091 76.7436 417.955 77.1016C417.822 77.4562 417.59 77.8523 417.259 78.2898C416.931 78.724 416.475 79.2543 415.891 79.8807L413.605 82.3267V82.4062H418.338V83.5H411.914ZM423.502 83.6392C422.753 83.6392 422.115 83.4354 421.588 83.0277C421.061 82.6167 420.658 82.0218 420.38 81.2429C420.101 80.4607 419.962 79.5161 419.962 78.4091C419.962 77.3087 420.101 76.3691 420.38 75.5902C420.661 74.808 421.066 74.2114 421.593 73.8004C422.123 73.3861 422.759 73.179 423.502 73.179C424.244 73.179 424.879 73.3861 425.406 73.8004C425.936 74.2114 426.341 74.808 426.619 75.5902C426.901 76.3691 427.042 77.3087 427.042 78.4091C427.042 79.5161 426.902 80.4607 426.624 81.2429C426.346 82.0218 425.943 82.6167 425.416 83.0277C424.889 83.4354 424.251 83.6392 423.502 83.6392ZM423.502 82.5455C424.244 82.5455 424.821 82.1875 425.232 81.4716C425.643 80.7557 425.848 79.7348 425.848 78.4091C425.848 77.5275 425.754 76.7768 425.565 76.157C425.379 75.5372 425.111 75.0649 424.76 74.7401C424.412 74.4152 423.992 74.2528 423.502 74.2528C422.766 74.2528 422.191 74.6158 421.777 75.3416C421.362 76.0642 421.155 77.0866 421.155 78.4091C421.155 79.2907 421.248 80.0398 421.434 80.6562C421.619 81.2727 421.886 81.7417 422.234 82.0632C422.585 82.3847 423.008 82.5455 423.502 82.5455ZM428.721 83.5V82.6051L432.082 78.9261C432.476 78.4953 432.801 78.1207 433.056 77.8026C433.311 77.4811 433.5 77.1795 433.623 76.8977C433.749 76.6127 433.812 76.3144 433.812 76.0028C433.812 75.6449 433.726 75.335 433.553 75.0732C433.384 74.8113 433.152 74.6091 432.857 74.4666C432.562 74.3241 432.231 74.2528 431.863 74.2528C431.472 74.2528 431.13 74.334 430.839 74.4964C430.55 74.6555 430.327 74.8793 430.168 75.1676C430.012 75.456 429.934 75.794 429.934 76.1818H428.761C428.761 75.5852 428.898 75.0616 429.173 74.6108C429.448 74.16 429.823 73.8087 430.297 73.5568C430.774 73.3049 431.309 73.179 431.903 73.179C432.499 73.179 433.028 73.3049 433.489 73.5568C433.949 73.8087 434.31 74.1484 434.572 74.576C434.834 75.0036 434.965 75.4792 434.965 76.0028C434.965 76.3774 434.897 76.7436 434.761 77.1016C434.629 77.4562 434.397 77.8523 434.065 78.2898C433.737 78.724 433.281 79.2543 432.698 79.8807L430.411 82.3267V82.4062H435.144V83.5H428.721ZM436.53 81.4119V80.3977L441.004 73.3182H441.74V74.8892H441.243L437.862 80.2386V80.3182H443.888V81.4119H436.53ZM441.323 83.5V81.1037V80.6314V73.3182H442.496V83.5H441.323Z" fill="#C6C6C8"/>
</svg>
