<svg width="559" height="60" viewBox="0 0 559 60" fill="none" xmlns="http://www.w3.org/2000/svg">
<rect width="82" height="28" rx="6" fill="#6A45B5"/>
<rect x="6" y="5" width="18" height="18" rx="3.5" fill="#F1EFEF"/>
<path opacity="0.4" d="M9.0625 14C9.0625 11.201 9.0625 9.80156 9.93202 8.93202C10.8016 8.0625 12.201 8.0625 15 8.0625C17.7989 8.0625 19.1984 8.0625 20.068 8.93202C20.9375 9.80156 20.9375 11.201 20.9375 14C20.9375 16.7989 20.9375 18.1984 20.068 19.068C19.1984 19.9375 17.7989 19.9375 15 19.9375C12.201 19.9375 10.8016 19.9375 9.93202 19.068C9.0625 18.1984 9.0625 16.7989 9.0625 14Z" fill="#6A45B5"/>
<path d="M17.5 12.75L18.2666 13.4108C18.5889 13.6885 18.75 13.8274 18.75 14C18.75 14.1726 18.5889 14.3115 18.2666 14.5892L17.5 15.25" stroke="#6A45B5" stroke-width="1.25" stroke-linecap="round" stroke-linejoin="round"/>
<path d="M12.5 12.75L11.7334 13.4108C11.4111 13.6885 11.25 13.8274 11.25 14C11.25 14.1726 11.4111 14.3115 11.7334 14.5892L12.5 15.25" stroke="#6A45B5" stroke-width="1.25" stroke-linecap="round" stroke-linejoin="round"/>
<path d="M15.625 12.125L14.375 15.875" stroke="#6A45B5" stroke-width="1.25" stroke-linecap="round" stroke-linejoin="round"/>
<path d="M9.0625 14C9.0625 11.201 9.0625 9.80156 9.93202 8.93202C10.8016 8.0625 12.201 8.0625 15 8.0625C17.7989 8.0625 19.1984 8.0625 20.068 8.93202C20.9375 9.80156 20.9375 11.201 20.9375 14C20.9375 16.7989 20.9375 18.1984 20.068 19.068C19.1984 19.9375 17.7989 19.9375 15 19.9375C12.201 19.9375 10.8016 19.9375 9.93202 19.068C9.0625 18.1984 9.0625 16.7989 9.0625 14Z" stroke="#6A45B5" stroke-width="1.25"/>
<path d="M34.5856 12.1172C34.5392 11.683 34.3437 11.3449 33.999 11.103C33.6576 10.861 33.2135 10.7401 32.6666 10.7401C32.2821 10.7401 31.9523 10.7981 31.6772 10.9141C31.4021 11.0301 31.1917 11.1875 31.0458 11.3864C30.9 11.5852 30.8254 11.8123 30.8221 12.0675C30.8221 12.2796 30.8702 12.4635 30.9663 12.6193C31.0657 12.7751 31.2 12.9077 31.369 13.017C31.538 13.1231 31.7253 13.2126 31.9308 13.2855C32.1363 13.3584 32.3434 13.4197 32.5522 13.4695L33.5068 13.7081C33.8912 13.7976 34.2608 13.9186 34.6154 14.071C34.9734 14.2235 35.2932 14.4157 35.575 14.6477C35.86 14.8797 36.0854 15.1598 36.2511 15.4879C36.4168 15.8161 36.4997 16.2005 36.4997 16.6413C36.4997 17.2379 36.3472 17.7633 36.0423 18.2173C35.7374 18.6681 35.2965 19.0211 34.7198 19.2763C34.1465 19.5282 33.4521 19.6541 32.6367 19.6541C31.8446 19.6541 31.1569 19.5315 30.5735 19.2862C29.9935 19.041 29.5394 18.683 29.2113 18.2124C28.8865 17.7417 28.7108 17.1683 28.6843 16.4922H30.499C30.5255 16.8468 30.6349 17.1418 30.8271 17.3771C31.0193 17.6125 31.2696 17.7881 31.5778 17.9041C31.8894 18.0201 32.2374 18.0781 32.6218 18.0781C33.0229 18.0781 33.3742 18.0185 33.6758 17.8991C33.9807 17.7765 34.2194 17.6075 34.3917 17.392C34.5641 17.1733 34.6519 16.9181 34.6552 16.6264C34.6519 16.3613 34.574 16.1425 34.4215 15.9702C34.2691 15.7945 34.0553 15.6487 33.7802 15.5327C33.5084 15.4134 33.1903 15.3073 32.8257 15.2145L31.6673 14.9162C30.8287 14.7008 30.1659 14.3743 29.6786 13.9368C29.1947 13.496 28.9528 12.911 28.9528 12.1818C28.9528 11.5819 29.1152 11.0566 29.44 10.6058C29.7681 10.1551 30.2139 9.8054 30.7774 9.55682C31.3408 9.30492 31.9788 9.17898 32.6914 9.17898C33.414 9.17898 34.047 9.30492 34.5906 9.55682C35.1375 9.8054 35.5667 10.1518 35.8782 10.5959C36.1898 11.0367 36.3505 11.5438 36.3605 12.1172H34.5856ZM39.4305 19.5L37.2728 11.8636H39.1073L40.4497 17.233H40.5193L41.8914 11.8636H43.706L45.0782 17.2031H45.1528L46.4752 11.8636H48.3147L46.1521 19.5H44.2778L42.846 14.3395H42.7416L41.3097 19.5H39.4305ZM49.3613 19.5V11.8636H51.161V19.5H49.3613ZM50.2661 10.7798C49.9811 10.7798 49.7358 10.6854 49.5303 10.4964C49.3248 10.3042 49.2221 10.0739 49.2221 9.8054C49.2221 9.53362 49.3248 9.30327 49.5303 9.11435C49.7358 8.92211 49.9811 8.82599 50.2661 8.82599C50.5545 8.82599 50.7997 8.92211 51.0019 9.11435C51.2074 9.30327 51.3101 9.53362 51.3101 9.8054C51.3101 10.0739 51.2074 10.3042 51.0019 10.4964C50.7997 10.6854 50.5545 10.7798 50.2661 10.7798ZM56.6696 11.8636V13.2557H52.1554V11.8636H56.6696ZM53.2839 19.5V11.1428C53.2839 10.629 53.39 10.2015 53.6021 9.86008C53.8175 9.5187 54.1059 9.26349 54.4672 9.09446C54.8284 8.92543 55.2295 8.84091 55.6703 8.84091C55.9818 8.84091 56.2586 8.86577 56.5005 8.91548C56.7425 8.9652 56.9215 9.00994 57.0375 9.04972L56.6795 10.4418C56.6033 10.4186 56.5072 10.3954 56.3912 10.3722C56.2752 10.3456 56.1459 10.3324 56.0034 10.3324C55.6686 10.3324 55.4316 10.4136 55.2924 10.576C55.1565 10.7351 55.0886 10.9638 55.0886 11.2621V19.5H53.2839ZM61.6822 11.8636V13.2557H57.2923V11.8636H61.6822ZM58.3761 10.0341H60.1758V17.2031C60.1758 17.4451 60.2123 17.6307 60.2852 17.7599C60.3614 17.8859 60.4609 17.9721 60.5835 18.0185C60.7061 18.0649 60.842 18.0881 60.9912 18.0881C61.1039 18.0881 61.2066 18.0798 61.2994 18.0632C61.3955 18.0466 61.4684 18.0317 61.5182 18.0185L61.8214 19.4254C61.7253 19.4586 61.5878 19.495 61.4088 19.5348C61.2331 19.5746 61.0177 19.5978 60.7625 19.6044C60.3117 19.6177 59.9057 19.5497 59.5444 19.4006C59.1832 19.2481 58.8965 19.0128 58.6844 18.6946C58.4755 18.3764 58.3728 17.9787 58.3761 17.5014V10.0341ZM69.4752 9.31818H71.3197V15.9702C71.3197 16.6993 71.1474 17.3407 70.8027 17.8942C70.4613 18.4477 69.9807 18.8802 69.3609 19.1918C68.7411 19.5 68.0169 19.6541 67.1883 19.6541C66.3564 19.6541 65.6305 19.5 65.0108 19.1918C64.391 18.8802 63.9104 18.4477 63.569 17.8942C63.2276 17.3407 63.0569 16.6993 63.0569 15.9702V9.31818H64.9014V15.8161C64.9014 16.2403 64.9942 16.6181 65.1798 16.9496C65.3687 17.281 65.6339 17.5412 65.9752 17.7301C66.3166 17.9157 66.721 18.0085 67.1883 18.0085C67.6556 18.0085 68.06 17.9157 68.4014 17.7301C68.7461 17.5412 69.0112 17.281 69.1968 16.9496C69.3824 16.6181 69.4752 16.2403 69.4752 15.8161V9.31818ZM74.959 9.31818V19.5H73.1145V9.31818H74.959Z" fill="#F1EFEF"/>
<rect x="86" width="58" height="28" rx="6" fill="#3C46C9"/>
<rect x="92" y="5" width="18" height="18" rx="3.5" fill="#F1EFEF"/>
<path opacity="0.4" d="M97.2657 8.39076C96.625 9.03147 96.625 10.0627 96.625 12.1251V15.875C96.625 17.9375 96.625 18.9687 97.2657 19.6093C97.9064 20.25 98.9376 20.25 101 20.25C103.062 20.25 104.094 20.25 104.734 19.6093C105.375 18.9687 105.375 17.9375 105.375 15.875V12.1251C105.375 10.0627 105.375 9.03147 104.734 8.39076C104.326 7.98278 103.76 7.83459 102.87 7.78076L102.819 8.08382C102.699 8.80712 102.639 9.16877 102.391 9.38884C102.132 9.6184 101.765 9.62506 101 9.62506C100.235 9.62506 99.8683 9.6184 99.6095 9.38884C99.3615 9.16877 99.3012 8.80712 99.1806 8.08382L99.1301 7.78076C98.24 7.83459 97.6737 7.98278 97.2657 8.39076Z" fill="#3C46C9"/>
<path d="M96.625 12.125C96.625 10.0626 96.625 9.03141 97.2657 8.39071C97.9064 7.75 98.9376 7.75 101 7.75C103.062 7.75 104.094 7.75 104.734 8.39071C105.375 9.03141 105.375 10.0626 105.375 12.125V15.875C105.375 17.9374 105.375 18.9686 104.734 19.6093C104.094 20.25 103.062 20.25 101 20.25C98.9376 20.25 97.9064 20.25 97.2657 19.6093C96.625 18.9686 96.625 17.9374 96.625 15.875V12.125Z" stroke="#3C46C9" stroke-width="1.25" stroke-linecap="round"/>
<path d="M100.375 18.375H101.625" stroke="#3C46C9" stroke-width="1.25" stroke-linecap="round" stroke-linejoin="round"/>
<path d="M99.125 7.75L99.1806 8.08376C99.3012 8.80706 99.3615 9.16871 99.6095 9.38877C99.8683 9.61834 100.235 9.625 101 9.625C101.765 9.625 102.132 9.61834 102.391 9.38877C102.639 9.16871 102.699 8.80706 102.819 8.08376L102.875 7.75" stroke="#3C46C9" stroke-width="1.25" stroke-linejoin="round"/>
<path d="M115.343 19.5V11.8636H117.142V19.5H115.343ZM116.248 10.7798C115.963 10.7798 115.717 10.6854 115.512 10.4964C115.306 10.3042 115.204 10.0739 115.204 9.8054C115.204 9.53362 115.306 9.30327 115.512 9.11435C115.717 8.92211 115.963 8.82599 116.248 8.82599C116.536 8.82599 116.781 8.92211 116.983 9.11435C117.189 9.30327 117.292 9.53362 117.292 9.8054C117.292 10.0739 117.189 10.3042 116.983 10.4964C116.781 10.6854 116.536 10.7798 116.248 10.7798ZM127.961 14.4091C127.961 15.5062 127.755 16.4458 127.344 17.228C126.937 18.0069 126.38 18.6035 125.674 19.0178C124.971 19.4321 124.174 19.6392 123.282 19.6392C122.391 19.6392 121.592 19.4321 120.886 19.0178C120.183 18.6001 119.627 18.0019 119.216 17.223C118.808 16.4408 118.604 15.5028 118.604 14.4091C118.604 13.312 118.808 12.3741 119.216 11.5952C119.627 10.813 120.183 10.2147 120.886 9.80043C121.592 9.38613 122.391 9.17898 123.282 9.17898C124.174 9.17898 124.971 9.38613 125.674 9.80043C126.38 10.2147 126.937 10.813 127.344 11.5952C127.755 12.3741 127.961 13.312 127.961 14.4091ZM126.106 14.4091C126.106 13.6368 125.985 12.9856 125.743 12.4553C125.505 11.9216 125.173 11.5189 124.749 11.2472C124.325 10.9721 123.836 10.8345 123.282 10.8345C122.729 10.8345 122.24 10.9721 121.816 11.2472C121.392 11.5189 121.058 11.9216 120.816 12.4553C120.578 12.9856 120.459 13.6368 120.459 14.4091C120.459 15.1813 120.578 15.8343 120.816 16.3679C121.058 16.8982 121.392 17.3009 121.816 17.576C122.24 17.8478 122.729 17.9837 123.282 17.9837C123.836 17.9837 124.325 17.8478 124.749 17.576C125.173 17.3009 125.505 16.8982 125.743 16.3679C125.985 15.8343 126.106 15.1813 126.106 14.4091ZM135.028 12.1172C134.981 11.683 134.786 11.3449 134.441 11.103C134.1 10.861 133.656 10.7401 133.109 10.7401C132.724 10.7401 132.395 10.7981 132.119 10.9141C131.844 11.0301 131.634 11.1875 131.488 11.3864C131.342 11.5852 131.268 11.8123 131.264 12.0675C131.264 12.2796 131.312 12.4635 131.409 12.6193C131.508 12.7751 131.642 12.9077 131.811 13.017C131.98 13.1231 132.168 13.2126 132.373 13.2855C132.579 13.3584 132.786 13.4197 132.994 13.4695L133.949 13.7081C134.333 13.7976 134.703 13.9186 135.058 14.071C135.416 14.2235 135.735 14.4157 136.017 14.6477C136.302 14.8797 136.528 15.1598 136.693 15.4879C136.859 15.8161 136.942 16.2005 136.942 16.6413C136.942 17.2379 136.789 17.7633 136.485 18.2173C136.18 18.6681 135.739 19.0211 135.162 19.2763C134.589 19.5282 133.894 19.6541 133.079 19.6541C132.287 19.6541 131.599 19.5315 131.016 19.2862C130.436 19.041 129.982 18.683 129.654 18.2124C129.329 17.7417 129.153 17.1683 129.127 16.4922H130.941C130.968 16.8468 131.077 17.1418 131.269 17.3771C131.462 17.6125 131.712 17.7881 132.02 17.9041C132.332 18.0201 132.68 18.0781 133.064 18.0781C133.465 18.0781 133.816 18.0185 134.118 17.8991C134.423 17.7765 134.662 17.6075 134.834 17.392C135.006 17.1733 135.094 16.9181 135.097 16.6264C135.094 16.3613 135.016 16.1425 134.864 15.9702C134.711 15.7945 134.498 15.6487 134.222 15.5327C133.951 15.4134 133.632 15.3073 133.268 15.2145L132.11 14.9162C131.271 14.7008 130.608 14.3743 130.121 13.9368C129.637 13.496 129.395 12.911 129.395 12.1818C129.395 11.5819 129.557 11.0566 129.882 10.6058C130.21 10.1551 130.656 9.8054 131.22 9.55682C131.783 9.30492 132.421 9.17898 133.134 9.17898C133.856 9.17898 134.489 9.30492 135.033 9.55682C135.58 9.8054 136.009 10.1518 136.32 10.5959C136.632 11.0367 136.793 11.5438 136.803 12.1172H135.028Z" fill="#F1EFEF"/>
<rect x="148" width="58" height="28" rx="6" fill="#3C46C9"/>
<rect x="154" y="5" width="18" height="18" rx="3.5" fill="#F1EFEF"/>
<path opacity="0.4" d="M164.562 7.75H161.438C159.67 7.75 158.786 7.75 158.237 8.29917C157.688 8.84835 157.688 9.73223 157.688 11.5V16.5C157.688 18.2677 157.688 19.1516 158.237 19.7008C158.786 20.25 159.67 20.25 161.438 20.25H164.562C166.33 20.25 167.214 20.25 167.763 19.7008C168.312 19.1516 168.312 18.2677 168.312 16.5V11.5C168.312 9.73223 168.312 8.84835 167.763 8.29917C167.214 7.75 166.33 7.75 164.562 7.75Z" fill="#3C46C9"/>
<path d="M164.562 7.75H161.438C159.67 7.75 158.786 7.75 158.237 8.29917C157.688 8.84835 157.688 9.73223 157.688 11.5V16.5C157.688 18.2677 157.688 19.1516 158.237 19.7008C158.786 20.25 159.67 20.25 161.438 20.25H164.562C166.33 20.25 167.214 20.25 167.763 19.7008C168.312 19.1516 168.312 18.2677 168.312 16.5V11.5C168.312 9.73223 168.312 8.84835 167.763 8.29917C167.214 7.75 166.33 7.75 164.562 7.75Z" stroke="#3C46C9" stroke-width="1.25" stroke-linecap="round"/>
<path d="M163 18.375H163.006" stroke="#3C46C9" stroke-width="1.25" stroke-linecap="round"/>
<path d="M177.343 19.5V11.8636H179.142V19.5H177.343ZM178.248 10.7798C177.963 10.7798 177.717 10.6854 177.512 10.4964C177.306 10.3042 177.204 10.0739 177.204 9.8054C177.204 9.53362 177.306 9.30327 177.512 9.11435C177.717 8.92211 177.963 8.82599 178.248 8.82599C178.536 8.82599 178.781 8.92211 178.983 9.11435C179.189 9.30327 179.292 9.53362 179.292 9.8054C179.292 10.0739 179.189 10.3042 178.983 10.4964C178.781 10.6854 178.536 10.7798 178.248 10.7798ZM189.961 14.4091C189.961 15.5062 189.755 16.4458 189.344 17.228C188.937 18.0069 188.38 18.6035 187.674 19.0178C186.971 19.4321 186.174 19.6392 185.282 19.6392C184.391 19.6392 183.592 19.4321 182.886 19.0178C182.183 18.6001 181.627 18.0019 181.216 17.223C180.808 16.4408 180.604 15.5028 180.604 14.4091C180.604 13.312 180.808 12.3741 181.216 11.5952C181.627 10.813 182.183 10.2147 182.886 9.80043C183.592 9.38613 184.391 9.17898 185.282 9.17898C186.174 9.17898 186.971 9.38613 187.674 9.80043C188.38 10.2147 188.937 10.813 189.344 11.5952C189.755 12.3741 189.961 13.312 189.961 14.4091ZM188.106 14.4091C188.106 13.6368 187.985 12.9856 187.743 12.4553C187.505 11.9216 187.173 11.5189 186.749 11.2472C186.325 10.9721 185.836 10.8345 185.282 10.8345C184.729 10.8345 184.24 10.9721 183.816 11.2472C183.392 11.5189 183.058 11.9216 182.816 12.4553C182.578 12.9856 182.459 13.6368 182.459 14.4091C182.459 15.1813 182.578 15.8343 182.816 16.3679C183.058 16.8982 183.392 17.3009 183.816 17.576C184.24 17.8478 184.729 17.9837 185.282 17.9837C185.836 17.9837 186.325 17.8478 186.749 17.576C187.173 17.3009 187.505 16.8982 187.743 16.3679C187.985 15.8343 188.106 15.1813 188.106 14.4091ZM197.028 12.1172C196.981 11.683 196.786 11.3449 196.441 11.103C196.1 10.861 195.656 10.7401 195.109 10.7401C194.724 10.7401 194.395 10.7981 194.119 10.9141C193.844 11.0301 193.634 11.1875 193.488 11.3864C193.342 11.5852 193.268 11.8123 193.264 12.0675C193.264 12.2796 193.312 12.4635 193.409 12.6193C193.508 12.7751 193.642 12.9077 193.811 13.017C193.98 13.1231 194.168 13.2126 194.373 13.2855C194.579 13.3584 194.786 13.4197 194.994 13.4695L195.949 13.7081C196.333 13.7976 196.703 13.9186 197.058 14.071C197.416 14.2235 197.735 14.4157 198.017 14.6477C198.302 14.8797 198.528 15.1598 198.693 15.4879C198.859 15.8161 198.942 16.2005 198.942 16.6413C198.942 17.2379 198.789 17.7633 198.485 18.2173C198.18 18.6681 197.739 19.0211 197.162 19.2763C196.589 19.5282 195.894 19.6541 195.079 19.6541C194.287 19.6541 193.599 19.5315 193.016 19.2862C192.436 19.041 191.982 18.683 191.654 18.2124C191.329 17.7417 191.153 17.1683 191.127 16.4922H192.941C192.968 16.8468 193.077 17.1418 193.269 17.3771C193.462 17.6125 193.712 17.7881 194.02 17.9041C194.332 18.0201 194.68 18.0781 195.064 18.0781C195.465 18.0781 195.816 18.0185 196.118 17.8991C196.423 17.7765 196.662 17.6075 196.834 17.392C197.006 17.1733 197.094 16.9181 197.097 16.6264C197.094 16.3613 197.016 16.1425 196.864 15.9702C196.711 15.7945 196.498 15.6487 196.222 15.5327C195.951 15.4134 195.632 15.3073 195.268 15.2145L194.11 14.9162C193.271 14.7008 192.608 14.3743 192.121 13.9368C191.637 13.496 191.395 12.911 191.395 12.1818C191.395 11.5819 191.557 11.0566 191.882 10.6058C192.21 10.1551 192.656 9.8054 193.22 9.55682C193.783 9.30492 194.421 9.17898 195.134 9.17898C195.856 9.17898 196.489 9.30492 197.033 9.55682C197.58 9.8054 198.009 10.1518 198.32 10.5959C198.632 11.0367 198.793 11.5438 198.803 12.1172H197.028Z" fill="#F1EFEF"/>
<rect x="210" width="82" height="28" rx="6" fill="#3C46C9"/>
<rect x="216" y="5" width="18" height="18" rx="3.5" fill="#F1EFEF"/>
<path opacity="0.4" d="M226.25 7.75H223.75C221.7 7.75 220.676 7.75 219.949 8.25864C219.681 8.44681 219.447 8.68057 219.259 8.94932C218.75 9.67572 218.75 10.7005 218.75 12.75C218.75 14.7995 218.75 15.8242 219.259 16.5507C219.447 16.8194 219.681 17.0532 219.949 17.2414C220.676 17.75 221.7 17.75 223.75 17.75H226.25C228.3 17.75 229.324 17.75 230.051 17.2414C230.319 17.0532 230.553 16.8194 230.741 16.5507C231.25 15.8242 231.25 14.7995 231.25 12.75C231.25 10.7005 231.25 9.67572 230.741 8.94932C230.553 8.68057 230.319 8.44681 230.051 8.25864C229.324 7.75 228.3 7.75 226.25 7.75Z" fill="#3C46C9"/>
<path d="M226.25 7.75H223.75C221.7 7.75 220.676 7.75 219.949 8.25864C219.681 8.44681 219.447 8.68057 219.259 8.94932C218.75 9.67572 218.75 10.7005 218.75 12.75C218.75 14.7995 218.75 15.8242 219.259 16.5507C219.447 16.8194 219.681 17.0532 219.949 17.2414C220.676 17.75 221.7 17.75 223.75 17.75H226.25C228.3 17.75 229.324 17.75 230.051 17.2414C230.319 17.0532 230.553 16.8194 230.741 16.5507C231.25 15.8242 231.25 14.7995 231.25 12.75C231.25 10.7005 231.25 9.67572 230.741 8.94932C230.553 8.68057 230.319 8.44681 230.051 8.25864C229.324 7.75 228.3 7.75 226.25 7.75Z" stroke="#3C46C9" stroke-width="1.25" stroke-linecap="round"/>
<path d="M224.375 15.875H225.625" stroke="#3C46C9" stroke-width="1.25" stroke-linecap="round" stroke-linejoin="round"/>
<path d="M226.562 20.25L226.365 19.9882C225.921 19.3981 225.811 18.4965 226.092 17.75M223.438 20.25L223.635 19.9882C224.079 19.3981 224.189 18.4965 223.908 17.75" stroke="#3C46C9" stroke-width="1.25" stroke-linecap="round"/>
<path d="M221.875 20.25H228.125" stroke="#3C46C9" stroke-width="1.25" stroke-linecap="round"/>
<path d="M239.036 19.5V11.8636H240.756V13.1612H240.846C241.005 12.7237 241.268 12.3823 241.636 12.1371C242.004 11.8885 242.443 11.7642 242.954 11.7642C243.471 11.7642 243.907 11.8902 244.261 12.142C244.619 12.3906 244.871 12.7304 245.017 13.1612H245.096C245.266 12.737 245.551 12.3989 245.952 12.147C246.356 11.8918 246.835 11.7642 247.388 11.7642C248.091 11.7642 248.664 11.9863 249.109 12.4304C249.553 12.8745 249.775 13.5225 249.775 14.3743V19.5H247.97V14.6527C247.97 14.1787 247.844 13.8324 247.592 13.6136C247.34 13.3916 247.032 13.2805 246.668 13.2805C246.233 13.2805 245.894 13.4164 245.648 13.6882C245.406 13.9567 245.285 14.3063 245.285 14.7372V19.5H243.52V14.5781C243.52 14.1837 243.401 13.8688 243.163 13.6335C242.927 13.3982 242.619 13.2805 242.238 13.2805C241.979 13.2805 241.744 13.3468 241.532 13.4794C241.32 13.6087 241.151 13.7926 241.025 14.0312C240.899 14.2666 240.836 14.5417 240.836 14.8565V19.5H239.036ZM253.588 19.6541C253.104 19.6541 252.668 19.5679 252.28 19.3956C251.896 19.2199 251.591 18.9614 251.366 18.62C251.144 18.2786 251.033 17.8577 251.033 17.3572C251.033 16.9264 251.112 16.5701 251.271 16.2884C251.43 16.0066 251.647 15.7812 251.923 15.6122C252.198 15.4432 252.508 15.3156 252.852 15.2294C253.2 15.1399 253.56 15.0753 253.931 15.0355C254.379 14.9891 254.741 14.9477 255.02 14.9112C255.298 14.8714 255.5 14.8118 255.626 14.7322C255.756 14.6494 255.82 14.5218 255.82 14.3494V14.3196C255.82 13.9451 255.709 13.6551 255.487 13.4496C255.265 13.2441 254.945 13.1413 254.528 13.1413C254.087 13.1413 253.737 13.2375 253.479 13.4297C253.223 13.6219 253.051 13.849 252.962 14.1108L251.281 13.8722C251.414 13.4081 251.633 13.0204 251.937 12.7088C252.242 12.3939 252.615 12.1586 253.056 12.0028C253.497 11.8438 253.984 11.7642 254.518 11.7642C254.886 11.7642 255.252 11.8073 255.616 11.8935C255.981 11.9796 256.314 12.1222 256.616 12.321C256.917 12.5166 257.159 12.7834 257.342 13.1214C257.527 13.4595 257.62 13.8821 257.62 14.3892V19.5H255.89V18.451H255.83C255.721 18.6631 255.567 18.862 255.368 19.0476C255.172 19.2299 254.925 19.3774 254.627 19.4901C254.332 19.5994 253.986 19.6541 253.588 19.6541ZM254.055 18.3317C254.417 18.3317 254.73 18.2604 254.995 18.1179C255.26 17.9721 255.464 17.7798 255.606 17.5412C255.752 17.3026 255.825 17.0424 255.825 16.7607V15.8608C255.769 15.9072 255.673 15.9503 255.537 15.9901C255.404 16.0298 255.255 16.0646 255.089 16.0945C254.924 16.1243 254.76 16.1508 254.597 16.174C254.435 16.1972 254.294 16.2171 254.175 16.2337C253.906 16.2701 253.666 16.3298 253.454 16.4126C253.242 16.4955 253.074 16.6115 252.952 16.7607C252.829 16.9065 252.768 17.0954 252.768 17.3274C252.768 17.6589 252.889 17.9091 253.131 18.0781C253.373 18.2472 253.681 18.3317 254.055 18.3317ZM262.551 19.6491C261.788 19.6491 261.134 19.4818 260.587 19.147C260.043 18.8123 259.624 18.3499 259.329 17.7599C259.037 17.1667 258.892 16.4839 258.892 15.7116C258.892 14.9361 259.041 14.2517 259.339 13.6584C259.637 13.0618 260.058 12.5978 260.602 12.2663C261.149 11.9316 261.795 11.7642 262.541 11.7642C263.16 11.7642 263.709 11.8786 264.186 12.1072C264.667 12.3326 265.05 12.6525 265.335 13.0668C265.62 13.4777 265.782 13.9583 265.822 14.5085H264.102C264.032 14.1406 263.866 13.834 263.605 13.5888C263.346 13.3402 263 13.2159 262.566 13.2159C262.198 13.2159 261.874 13.3153 261.596 13.5142C261.318 13.7098 261.101 13.9915 260.945 14.3594C260.792 14.7273 260.716 15.1681 260.716 15.6818C260.716 16.2022 260.792 16.6496 260.945 17.0241C261.097 17.3954 261.311 17.6821 261.586 17.8842C261.865 18.0831 262.191 18.1825 262.566 18.1825C262.831 18.1825 263.068 18.1328 263.276 18.0334C263.489 17.9306 263.666 17.7831 263.808 17.5909C263.951 17.3987 264.049 17.165 264.102 16.8899H265.822C265.779 17.4302 265.62 17.9091 265.345 18.3267C265.07 18.741 264.695 19.0658 264.221 19.3011C263.747 19.5331 263.19 19.6491 262.551 19.6491ZM276.267 14.4091C276.267 15.5062 276.062 16.4458 275.651 17.228C275.243 18.0069 274.686 18.6035 273.98 19.0178C273.278 19.4321 272.481 19.6392 271.589 19.6392C270.697 19.6392 269.899 19.4321 269.193 19.0178C268.49 18.6001 267.933 18.0019 267.522 17.223C267.115 16.4408 266.911 15.5028 266.911 14.4091C266.911 13.312 267.115 12.3741 267.522 11.5952C267.933 10.813 268.49 10.2147 269.193 9.80043C269.899 9.38613 270.697 9.17898 271.589 9.17898C272.481 9.17898 273.278 9.38613 273.98 9.80043C274.686 10.2147 275.243 10.813 275.651 11.5952C276.062 12.3741 276.267 13.312 276.267 14.4091ZM274.413 14.4091C274.413 13.6368 274.292 12.9856 274.05 12.4553C273.811 11.9216 273.48 11.5189 273.056 11.2472C272.631 10.9721 272.143 10.8345 271.589 10.8345C271.036 10.8345 270.547 10.9721 270.122 11.2472C269.698 11.5189 269.365 11.9216 269.123 12.4553C268.884 12.9856 268.765 13.6368 268.765 14.4091C268.765 15.1813 268.884 15.8343 269.123 16.3679C269.365 16.8982 269.698 17.3009 270.122 17.576C270.547 17.8478 271.036 17.9837 271.589 17.9837C272.143 17.9837 272.631 17.8478 273.056 17.576C273.48 17.3009 273.811 16.8982 274.05 16.3679C274.292 15.8343 274.413 15.1813 274.413 14.4091ZM283.334 12.1172C283.288 11.683 283.092 11.3449 282.748 11.103C282.406 10.861 281.962 10.7401 281.415 10.7401C281.031 10.7401 280.701 10.7981 280.426 10.9141C280.151 11.0301 279.941 11.1875 279.795 11.3864C279.649 11.5852 279.574 11.8123 279.571 12.0675C279.571 12.2796 279.619 12.4635 279.715 12.6193C279.815 12.7751 279.949 12.9077 280.118 13.017C280.287 13.1231 280.474 13.2126 280.68 13.2855C280.885 13.3584 281.092 13.4197 281.301 13.4695L282.256 13.7081C282.64 13.7976 283.01 13.9186 283.364 14.071C283.722 14.2235 284.042 14.4157 284.324 14.6477C284.609 14.8797 284.834 15.1598 285 15.4879C285.166 15.8161 285.249 16.2005 285.249 16.6413C285.249 17.2379 285.096 17.7633 284.791 18.2173C284.486 18.6681 284.045 19.0211 283.469 19.2763C282.895 19.5282 282.201 19.6541 281.386 19.6541C280.593 19.6541 279.906 19.5315 279.322 19.2862C278.742 19.041 278.288 18.683 277.96 18.2124C277.635 17.7417 277.46 17.1683 277.433 16.4922H279.248C279.274 16.8468 279.384 17.1418 279.576 17.3771C279.768 17.6125 280.018 17.7881 280.327 17.9041C280.638 18.0201 280.986 18.0781 281.371 18.0781C281.772 18.0781 282.123 18.0185 282.425 17.8991C282.73 17.7765 282.968 17.6075 283.141 17.392C283.313 17.1733 283.401 16.9181 283.404 16.6264C283.401 16.3613 283.323 16.1425 283.17 15.9702C283.018 15.7945 282.804 15.6487 282.529 15.5327C282.257 15.4134 281.939 15.3073 281.574 15.2145L280.416 14.9162C279.578 14.7008 278.915 14.3743 278.427 13.9368C277.944 13.496 277.702 12.911 277.702 12.1818C277.702 11.5819 277.864 11.0566 278.189 10.6058C278.517 10.1551 278.963 9.8054 279.526 9.55682C280.09 9.30492 280.728 9.17898 281.44 9.17898C282.163 9.17898 282.796 9.30492 283.339 9.55682C283.886 9.8054 284.316 10.1518 284.627 10.5959C284.939 11.0367 285.099 11.5438 285.109 12.1172H283.334Z" fill="#F1EFEF"/>
<rect x="296" width="67" height="28" rx="6" fill="#3C46C9"/>
<rect x="302" y="5" width="18" height="18" rx="3.5" fill="#F1EFEF"/>
<path opacity="0.4" d="M312.25 8.375H309.75C307.393 8.375 306.214 8.375 305.482 9.10723C304.75 9.83947 304.75 11.018 304.75 13.375C304.75 15.732 304.75 16.9106 305.482 17.6427C306.214 18.375 307.393 18.375 309.75 18.375H312.25C314.607 18.375 315.786 18.375 316.518 17.6427C317.25 16.9106 317.25 15.732 317.25 13.375C317.25 11.018 317.25 9.83947 316.518 9.10723C315.786 8.375 314.607 8.375 312.25 8.375Z" fill="#3C46C9"/>
<path d="M312.25 8.375H309.75C307.393 8.375 306.214 8.375 305.482 9.10723C304.75 9.83947 304.75 11.018 304.75 13.375C304.75 15.732 304.75 16.9106 305.482 17.6427C306.214 18.375 307.393 18.375 309.75 18.375H312.25C314.607 18.375 315.786 18.375 316.518 17.6427C317.25 16.9106 317.25 15.732 317.25 13.375C317.25 11.018 317.25 9.83947 316.518 9.10723C315.786 8.375 314.607 8.375 312.25 8.375Z" stroke="#3C46C9" stroke-width="1.25" stroke-linecap="round"/>
<path d="M314.75 18.375L315.375 19.625" stroke="#3C46C9" stroke-width="1.25" stroke-linecap="round" stroke-linejoin="round"/>
<path d="M307.25 18.375L306.625 19.625" stroke="#3C46C9" stroke-width="1.25" stroke-linecap="round" stroke-linejoin="round"/>
<path d="M328.894 11.8636V13.2557H324.504V11.8636H328.894ZM325.588 10.0341H327.387V17.2031C327.387 17.4451 327.424 17.6307 327.497 17.7599C327.573 17.8859 327.672 17.9721 327.795 18.0185C327.918 18.0649 328.054 18.0881 328.203 18.0881C328.315 18.0881 328.418 18.0798 328.511 18.0632C328.607 18.0466 328.68 18.0317 328.73 18.0185L329.033 19.4254C328.937 19.4586 328.799 19.495 328.62 19.5348C328.445 19.5746 328.229 19.5978 327.974 19.6044C327.523 19.6177 327.117 19.5497 326.756 19.4006C326.395 19.2481 326.108 19.0128 325.896 18.6946C325.687 18.3764 325.584 17.9787 325.588 17.5014V10.0341ZM337.01 11.8636L334.29 19.5H332.302L329.582 11.8636H331.501L333.256 17.5362H333.336L335.096 11.8636H337.01ZM347.223 14.4091C347.223 15.5062 347.017 16.4458 346.606 17.228C346.199 18.0069 345.642 18.6035 344.936 19.0178C344.233 19.4321 343.436 19.6392 342.545 19.6392C341.653 19.6392 340.854 19.4321 340.148 19.0178C339.446 18.6001 338.889 18.0019 338.478 17.223C338.07 16.4408 337.866 15.5028 337.866 14.4091C337.866 13.312 338.07 12.3741 338.478 11.5952C338.889 10.813 339.446 10.2147 340.148 9.80043C340.854 9.38613 341.653 9.17898 342.545 9.17898C343.436 9.17898 344.233 9.38613 344.936 9.80043C345.642 10.2147 346.199 10.813 346.606 11.5952C347.017 12.3741 347.223 13.312 347.223 14.4091ZM345.368 14.4091C345.368 13.6368 345.247 12.9856 345.006 12.4553C344.767 11.9216 344.435 11.5189 344.011 11.2472C343.587 10.9721 343.098 10.8345 342.545 10.8345C341.991 10.8345 341.502 10.9721 341.078 11.2472C340.654 11.5189 340.321 11.9216 340.079 12.4553C339.84 12.9856 339.721 13.6368 339.721 14.4091C339.721 15.1813 339.84 15.8343 340.079 16.3679C340.321 16.8982 340.654 17.3009 341.078 17.576C341.502 17.8478 341.991 17.9837 342.545 17.9837C343.098 17.9837 343.587 17.8478 344.011 17.576C344.435 17.3009 344.767 16.8982 345.006 16.3679C345.247 15.8343 345.368 15.1813 345.368 14.4091ZM354.29 12.1172C354.244 11.683 354.048 11.3449 353.703 11.103C353.362 10.861 352.918 10.7401 352.371 10.7401C351.987 10.7401 351.657 10.7981 351.382 10.9141C351.107 11.0301 350.896 11.1875 350.75 11.3864C350.604 11.5852 350.53 11.8123 350.527 12.0675C350.527 12.2796 350.575 12.4635 350.671 12.6193C350.77 12.7751 350.904 12.9077 351.073 13.017C351.242 13.1231 351.43 13.2126 351.635 13.2855C351.841 13.3584 352.048 13.4197 352.257 13.4695L353.211 13.7081C353.596 13.7976 353.965 13.9186 354.32 14.071C354.678 14.2235 354.998 14.4157 355.279 14.6477C355.564 14.8797 355.79 15.1598 355.956 15.4879C356.121 15.8161 356.204 16.2005 356.204 16.6413C356.204 17.2379 356.052 17.7633 355.747 18.2173C355.442 18.6681 355.001 19.0211 354.424 19.2763C353.851 19.5282 353.157 19.6541 352.341 19.6541C351.549 19.6541 350.861 19.5315 350.278 19.2862C349.698 19.041 349.244 18.683 348.916 18.2124C348.591 17.7417 348.415 17.1683 348.389 16.4922H350.203C350.23 16.8468 350.339 17.1418 350.532 17.3771C350.724 17.6125 350.974 17.7881 351.282 17.9041C351.594 18.0201 351.942 18.0781 352.326 18.0781C352.727 18.0781 353.079 18.0185 353.38 17.8991C353.685 17.7765 353.924 17.6075 354.096 17.392C354.268 17.1733 354.356 16.9181 354.36 16.6264C354.356 16.3613 354.278 16.1425 354.126 15.9702C353.974 15.7945 353.76 15.6487 353.485 15.5327C353.213 15.4134 352.895 15.3073 352.53 15.2145L351.372 14.9162C350.533 14.7008 349.87 14.3743 349.383 13.9368C348.899 13.496 348.657 12.911 348.657 12.1818C348.657 11.5819 348.82 11.0566 349.144 10.6058C349.473 10.1551 349.918 9.8054 350.482 9.55682C351.045 9.30492 351.683 9.17898 352.396 9.17898C353.118 9.17898 353.751 9.30492 354.295 9.55682C354.842 9.8054 355.271 10.1518 355.583 10.5959C355.894 11.0367 356.055 11.5438 356.065 12.1172H354.29Z" fill="#F1EFEF"/>
<rect x="367" width="95" height="28" rx="6" fill="#3C46C9"/>
<rect x="373" y="5" width="18" height="18" rx="3.5" fill="#F1EFEF"/>
<path opacity="0.4" d="M378.875 13.375C378.875 12.1965 378.875 11.6072 379.241 11.2411C379.607 10.875 380.196 10.875 381.375 10.875H382.625C383.803 10.875 384.393 10.875 384.759 11.2411C385.125 11.6072 385.125 12.1965 385.125 13.375V14.625C385.125 15.8035 385.125 16.3927 384.759 16.7589C384.393 17.125 383.803 17.125 382.625 17.125H381.375C380.196 17.125 379.607 17.125 379.241 16.7589C378.875 16.3927 378.875 15.8035 378.875 14.625V13.375Z" fill="#3C46C9"/>
<path d="M378.875 13.375C378.875 12.1965 378.875 11.6072 379.241 11.2411C379.607 10.875 380.196 10.875 381.375 10.875H382.625C383.803 10.875 384.393 10.875 384.759 11.2411C385.125 11.6072 385.125 12.1965 385.125 13.375V14.625C385.125 15.8035 385.125 16.3927 384.759 16.7589C384.393 17.125 383.803 17.125 382.625 17.125H381.375C380.196 17.125 379.607 17.125 379.241 16.7589C378.875 16.3927 378.875 15.8035 378.875 14.625V13.375Z" stroke="#3C46C9" stroke-width="1.25"/>
<path d="M379.812 10.875C379.812 10.875 380.243 10.038 380.34 9.00058C380.393 8.43828 380.419 8.15712 380.577 7.99796C380.736 7.83879 380.927 7.82009 381.309 7.78269C381.511 7.76294 381.741 7.75 382 7.75C382.259 7.75 382.489 7.76294 382.691 7.78269C383.073 7.82009 383.264 7.83879 383.423 7.99796C383.581 8.15712 383.607 8.43828 383.66 9.00058C383.757 10.038 384.188 10.875 384.188 10.875" stroke="#3C46C9" stroke-width="1.25" stroke-linecap="round" stroke-linejoin="round"/>
<path d="M384.188 17.125C384.188 17.125 383.757 17.962 383.66 18.9994C383.607 19.5617 383.581 19.8429 383.423 20.0021C383.264 20.1612 383.073 20.1799 382.691 20.2173C382.489 20.2371 382.259 20.25 382 20.25C381.741 20.25 381.511 20.2371 381.309 20.2173C380.927 20.1799 380.736 20.1612 380.577 20.0021C380.419 19.8429 380.393 19.5617 380.34 18.9994C380.243 17.962 379.812 17.125 379.812 17.125" stroke="#3C46C9" stroke-width="1.25" stroke-linecap="round" stroke-linejoin="round"/>
<path d="M397.835 19.5L395.677 11.8636H397.512L398.854 17.233H398.924L400.296 11.8636H402.11L403.483 17.2031H403.557L404.88 11.8636H406.719L404.556 19.5H402.682L401.25 14.3395H401.146L399.714 19.5H397.835ZM409.963 19.6541C409.479 19.6541 409.043 19.5679 408.656 19.3956C408.271 19.2199 407.966 18.9614 407.741 18.62C407.519 18.2786 407.408 17.8577 407.408 17.3572C407.408 16.9264 407.487 16.5701 407.646 16.2884C407.805 16.0066 408.022 15.7812 408.298 15.6122C408.573 15.4432 408.883 15.3156 409.227 15.2294C409.575 15.1399 409.935 15.0753 410.306 15.0355C410.754 14.9891 411.116 14.9477 411.395 14.9112C411.673 14.8714 411.875 14.8118 412.001 14.7322C412.131 14.6494 412.195 14.5218 412.195 14.3494V14.3196C412.195 13.9451 412.084 13.6551 411.862 13.4496C411.64 13.2441 411.32 13.1413 410.903 13.1413C410.462 13.1413 410.112 13.2375 409.854 13.4297C409.598 13.6219 409.426 13.849 409.337 14.1108L407.656 13.8722C407.789 13.4081 408.008 13.0204 408.312 12.7088C408.617 12.3939 408.99 12.1586 409.431 12.0028C409.872 11.8438 410.359 11.7642 410.893 11.7642C411.261 11.7642 411.627 11.8073 411.991 11.8935C412.356 11.9796 412.689 12.1222 412.991 12.321C413.292 12.5166 413.534 12.7834 413.717 13.1214C413.902 13.4595 413.995 13.8821 413.995 14.3892V19.5H412.265V18.451H412.205C412.096 18.6631 411.942 18.862 411.743 19.0476C411.547 19.2299 411.3 19.3774 411.002 19.4901C410.707 19.5994 410.361 19.6541 409.963 19.6541ZM410.43 18.3317C410.792 18.3317 411.105 18.2604 411.37 18.1179C411.635 17.9721 411.839 17.7798 411.982 17.5412C412.127 17.3026 412.2 17.0424 412.2 16.7607V15.8608C412.144 15.9072 412.048 15.9503 411.912 15.9901C411.779 16.0298 411.63 16.0646 411.464 16.0945C411.299 16.1243 411.135 16.1508 410.972 16.174C410.81 16.1972 410.669 16.2171 410.55 16.2337C410.281 16.2701 410.041 16.3298 409.829 16.4126C409.617 16.4955 409.449 16.6115 409.327 16.7607C409.204 16.9065 409.143 17.0954 409.143 17.3274C409.143 17.6589 409.264 17.9091 409.506 18.0781C409.748 18.2472 410.056 18.3317 410.43 18.3317ZM419.408 11.8636V13.2557H415.018V11.8636H419.408ZM416.102 10.0341H417.901V17.2031C417.901 17.4451 417.938 17.6307 418.011 17.7599C418.087 17.8859 418.187 17.9721 418.309 18.0185C418.432 18.0649 418.568 18.0881 418.717 18.0881C418.83 18.0881 418.932 18.0798 419.025 18.0632C419.121 18.0466 419.194 18.0317 419.244 18.0185L419.547 19.4254C419.451 19.4586 419.313 19.495 419.134 19.5348C418.959 19.5746 418.743 19.5978 418.488 19.6044C418.037 19.6177 417.631 19.5497 417.27 19.4006C416.909 19.2481 416.622 19.0128 416.41 18.6946C416.201 18.3764 416.098 17.9787 416.102 17.5014V10.0341ZM423.952 19.6491C423.19 19.6491 422.535 19.4818 421.988 19.147C421.445 18.8123 421.025 18.3499 420.73 17.7599C420.439 17.1667 420.293 16.4839 420.293 15.7116C420.293 14.9361 420.442 14.2517 420.74 13.6584C421.039 13.0618 421.46 12.5978 422.003 12.2663C422.55 11.9316 423.196 11.7642 423.942 11.7642C424.562 11.7642 425.11 11.8786 425.588 12.1072C426.068 12.3326 426.451 12.6525 426.736 13.0668C427.021 13.4777 427.184 13.9583 427.223 14.5085H425.503C425.434 14.1406 425.268 13.834 425.006 13.5888C424.747 13.3402 424.401 13.2159 423.967 13.2159C423.599 13.2159 423.276 13.3153 422.997 13.5142C422.719 13.7098 422.502 13.9915 422.346 14.3594C422.194 14.7273 422.117 15.1681 422.117 15.6818C422.117 16.2022 422.194 16.6496 422.346 17.0241C422.499 17.3954 422.712 17.6821 422.987 17.8842C423.266 18.0831 423.592 18.1825 423.967 18.1825C424.232 18.1825 424.469 18.1328 424.678 18.0334C424.89 17.9306 425.067 17.7831 425.21 17.5909C425.352 17.3987 425.45 17.165 425.503 16.8899H427.223C427.18 17.4302 427.021 17.9091 426.746 18.3267C426.471 18.741 426.096 19.0658 425.622 19.3011C425.148 19.5331 424.592 19.6491 423.952 19.6491ZM430.291 15.0256V19.5H428.491V9.31818H430.251V13.1612H430.341C430.519 12.7304 430.796 12.3906 431.171 12.142C431.549 11.8902 432.029 11.7642 432.613 11.7642C433.143 11.7642 433.605 11.8752 434 12.0973C434.394 12.3194 434.699 12.6442 434.914 13.0717C435.133 13.4993 435.243 14.0213 435.243 14.6378V19.5H433.443V14.9162C433.443 14.4025 433.31 14.0031 433.045 13.718C432.783 13.4297 432.415 13.2855 431.941 13.2855C431.623 13.2855 431.338 13.3551 431.086 13.4943C430.838 13.6302 430.642 13.8274 430.5 14.0859C430.36 14.3445 430.291 14.6577 430.291 15.0256ZM446.045 14.4091C446.045 15.5062 445.839 16.4458 445.428 17.228C445.02 18.0069 444.464 18.6035 443.758 19.0178C443.055 19.4321 442.258 19.6392 441.366 19.6392C440.475 19.6392 439.676 19.4321 438.97 19.0178C438.267 18.6001 437.711 18.0019 437.3 17.223C436.892 16.4408 436.688 15.5028 436.688 14.4091C436.688 13.312 436.892 12.3741 437.3 11.5952C437.711 10.813 438.267 10.2147 438.97 9.80043C439.676 9.38613 440.475 9.17898 441.366 9.17898C442.258 9.17898 443.055 9.38613 443.758 9.80043C444.464 10.2147 445.02 10.813 445.428 11.5952C445.839 12.3741 446.045 13.312 446.045 14.4091ZM444.19 14.4091C444.19 13.6368 444.069 12.9856 443.827 12.4553C443.589 11.9216 443.257 11.5189 442.833 11.2472C442.409 10.9721 441.92 10.8345 441.366 10.8345C440.813 10.8345 440.324 10.9721 439.9 11.2472C439.475 11.5189 439.142 11.9216 438.9 12.4553C438.662 12.9856 438.542 13.6368 438.542 14.4091C438.542 15.1813 438.662 15.8343 438.9 16.3679C439.142 16.8982 439.475 17.3009 439.9 17.576C440.324 17.8478 440.813 17.9837 441.366 17.9837C441.92 17.9837 442.409 17.8478 442.833 17.576C443.257 17.3009 443.589 16.8982 443.827 16.3679C444.069 15.8343 444.19 15.1813 444.19 14.4091ZM453.112 12.1172C453.065 11.683 452.87 11.3449 452.525 11.103C452.184 10.861 451.74 10.7401 451.193 10.7401C450.808 10.7401 450.478 10.7981 450.203 10.9141C449.928 11.0301 449.718 11.1875 449.572 11.3864C449.426 11.5852 449.352 11.8123 449.348 12.0675C449.348 12.2796 449.396 12.4635 449.492 12.6193C449.592 12.7751 449.726 12.9077 449.895 13.017C450.064 13.1231 450.251 13.2126 450.457 13.2855C450.662 13.3584 450.87 13.4197 451.078 13.4695L452.033 13.7081C452.417 13.7976 452.787 13.9186 453.142 14.071C453.5 14.2235 453.819 14.4157 454.101 14.6477C454.386 14.8797 454.612 15.1598 454.777 15.4879C454.943 15.8161 455.026 16.2005 455.026 16.6413C455.026 17.2379 454.873 17.7633 454.568 18.2173C454.263 18.6681 453.823 19.0211 453.246 19.2763C452.673 19.5282 451.978 19.6541 451.163 19.6541C450.371 19.6541 449.683 19.5315 449.1 19.2862C448.52 19.041 448.066 18.683 447.737 18.2124C447.413 17.7417 447.237 17.1683 447.21 16.4922H449.025C449.052 16.8468 449.161 17.1418 449.353 17.3771C449.545 17.6125 449.796 17.7881 450.104 17.9041C450.415 18.0201 450.763 18.0781 451.148 18.0781C451.549 18.0781 451.9 18.0185 452.202 17.8991C452.507 17.7765 452.746 17.6075 452.918 17.392C453.09 17.1733 453.178 16.9181 453.181 16.6264C453.178 16.3613 453.1 16.1425 452.948 15.9702C452.795 15.7945 452.581 15.6487 452.306 15.5327C452.035 15.4134 451.716 15.3073 451.352 15.2145L450.193 14.9162C449.355 14.7008 448.692 14.3743 448.205 13.9368C447.721 13.496 447.479 12.911 447.479 12.1818C447.479 11.5819 447.641 11.0566 447.966 10.6058C448.294 10.1551 448.74 9.8054 449.304 9.55682C449.867 9.30492 450.505 9.17898 451.218 9.17898C451.94 9.17898 452.573 9.30492 453.117 9.55682C453.664 9.8054 454.093 10.1518 454.404 10.5959C454.716 11.0367 454.877 11.5438 454.887 12.1172H453.112Z" fill="#F1EFEF"/>
<rect x="466" width="93" height="28" rx="6" fill="#3C46C9"/>
<rect x="472" y="5" width="18" height="18" rx="3.5" fill="#F1EFEF"/>
<path opacity="0.4" d="M477.562 17.4375C476 17.4375 474.75 16.5 474.75 14.3125C474.75 11.8125 476.625 10.5625 481 10.5625C485.375 10.5625 487.25 11.8125 487.25 14.3125C487.25 16.5 486 17.4375 484.438 17.4375C482.875 17.4375 481.938 15.875 481 15.875C480.062 15.875 479.125 17.4375 477.562 17.4375Z" fill="#3C46C9"/>
<path d="M477.562 17.4375C476 17.4375 474.75 16.5 474.75 14.3125C474.75 11.8125 476.625 10.5625 481 10.5625C485.375 10.5625 487.25 11.8125 487.25 14.3125C487.25 16.5 486 17.4375 484.438 17.4375C482.875 17.4375 481.938 15.875 481 15.875C480.062 15.875 479.125 17.4375 477.562 17.4375Z" stroke="#3C46C9" stroke-width="1.25" stroke-linecap="round"/>
<path d="M501.964 11.8636L499.245 19.5H497.256L494.537 11.8636H496.456L498.211 17.5362H498.29L500.05 11.8636H501.964ZM503 19.5V11.8636H504.799V19.5H503ZM503.904 10.7798C503.619 10.7798 503.374 10.6854 503.169 10.4964C502.963 10.3042 502.86 10.0739 502.86 9.8054C502.86 9.53362 502.963 9.30327 503.169 9.11435C503.374 8.92211 503.619 8.82599 503.904 8.82599C504.193 8.82599 504.438 8.92211 504.64 9.11435C504.846 9.30327 504.948 9.53362 504.948 9.8054C504.948 10.0739 504.846 10.3042 504.64 10.4964C504.438 10.6854 504.193 10.7798 503.904 10.7798ZM512.475 13.8821L510.835 14.0611C510.788 13.8954 510.707 13.7396 510.591 13.5938C510.479 13.4479 510.326 13.3303 510.134 13.2408C509.942 13.1513 509.706 13.1065 509.428 13.1065C509.053 13.1065 508.738 13.1877 508.483 13.3501C508.231 13.5125 508.107 13.723 508.11 13.9815C508.107 14.2036 508.188 14.3842 508.354 14.5234C508.523 14.6626 508.801 14.777 509.189 14.8665L510.492 15.1449C511.214 15.3007 511.751 15.5476 512.103 15.8857C512.457 16.2237 512.636 16.6662 512.639 17.2131C512.636 17.6937 512.495 18.1179 512.217 18.4858C511.942 18.8504 511.559 19.1354 511.068 19.3409C510.578 19.5464 510.014 19.6491 509.378 19.6491C508.443 19.6491 507.691 19.4536 507.121 19.0625C506.551 18.6681 506.211 18.1196 506.102 17.4169L507.857 17.2479C507.936 17.5926 508.105 17.8527 508.364 18.0284C508.622 18.2041 508.959 18.2919 509.373 18.2919C509.801 18.2919 510.144 18.2041 510.402 18.0284C510.664 17.8527 510.795 17.6357 510.795 17.3771C510.795 17.1584 510.711 16.9777 510.541 16.8352C510.376 16.6927 510.117 16.5833 509.766 16.5071L508.463 16.2337C507.731 16.0812 507.189 15.8243 506.838 15.4631C506.486 15.0985 506.312 14.6378 506.316 14.081C506.312 13.6103 506.44 13.2027 506.698 12.858C506.96 12.5099 507.323 12.2415 507.787 12.0526C508.255 11.8603 508.793 11.7642 509.403 11.7642C510.298 11.7642 511.002 11.9548 511.516 12.3359C512.033 12.7171 512.353 13.2325 512.475 13.8821ZM513.914 19.5V11.8636H515.713V19.5H513.914ZM514.818 10.7798C514.533 10.7798 514.288 10.6854 514.083 10.4964C513.877 10.3042 513.774 10.0739 513.774 9.8054C513.774 9.53362 513.877 9.30327 514.083 9.11435C514.288 8.92211 514.533 8.82599 514.818 8.82599C515.107 8.82599 515.352 8.92211 515.554 9.11435C515.76 9.30327 515.862 9.53362 515.862 9.8054C515.862 10.0739 515.76 10.3042 515.554 10.4964C515.352 10.6854 515.107 10.7798 514.818 10.7798ZM520.685 19.6491C519.939 19.6491 519.293 19.4851 518.746 19.157C518.199 18.8288 517.775 18.3698 517.473 17.7798C517.175 17.1899 517.026 16.5005 517.026 15.7116C517.026 14.9228 517.175 14.2318 517.473 13.6385C517.775 13.0452 518.199 12.5845 518.746 12.2564C519.293 11.9283 519.939 11.7642 520.685 11.7642C521.431 11.7642 522.077 11.9283 522.624 12.2564C523.171 12.5845 523.593 13.0452 523.892 13.6385C524.193 14.2318 524.344 14.9228 524.344 15.7116C524.344 16.5005 524.193 17.1899 523.892 17.7798C523.593 18.3698 523.171 18.8288 522.624 19.157C522.077 19.4851 521.431 19.6491 520.685 19.6491ZM520.695 18.2074C521.099 18.2074 521.437 18.0964 521.709 17.8743C521.981 17.6489 522.183 17.3473 522.316 16.9695C522.451 16.5916 522.519 16.1707 522.519 15.7067C522.519 15.2393 522.451 14.8168 522.316 14.4389C522.183 14.0578 521.981 13.7545 521.709 13.5291C521.437 13.3037 521.099 13.1911 520.695 13.1911C520.281 13.1911 519.936 13.3037 519.661 13.5291C519.389 13.7545 519.185 14.0578 519.049 14.4389C518.917 14.8168 518.85 15.2393 518.85 15.7067C518.85 16.1707 518.917 16.5916 519.049 16.9695C519.185 17.3473 519.389 17.6489 519.661 17.8743C519.936 18.0964 520.281 18.2074 520.695 18.2074ZM527.461 15.0256V19.5H525.661V11.8636H527.382V13.1612H527.471C527.647 12.7337 527.927 12.3939 528.311 12.142C528.699 11.8902 529.178 11.7642 529.748 11.7642C530.275 11.7642 530.734 11.8769 531.125 12.1023C531.52 12.3277 531.825 12.6541 532.04 13.0817C532.259 13.5092 532.366 14.0279 532.363 14.6378V19.5H530.563V14.9162C530.563 14.4058 530.431 14.0064 530.166 13.718C529.904 13.4297 529.541 13.2855 529.077 13.2855C528.762 13.2855 528.482 13.3551 528.237 13.4943C527.995 13.6302 527.804 13.8274 527.665 14.0859C527.529 14.3445 527.461 14.6577 527.461 15.0256ZM543.16 14.4091C543.16 15.5062 542.955 16.4458 542.544 17.228C542.136 18.0069 541.579 18.6035 540.873 19.0178C540.171 19.4321 539.374 19.6392 538.482 19.6392C537.59 19.6392 536.792 19.4321 536.086 19.0178C535.383 18.6001 534.826 18.0019 534.415 17.223C534.008 16.4408 533.804 15.5028 533.804 14.4091C533.804 13.312 534.008 12.3741 534.415 11.5952C534.826 10.813 535.383 10.2147 536.086 9.80043C536.792 9.38613 537.59 9.17898 538.482 9.17898C539.374 9.17898 540.171 9.38613 540.873 9.80043C541.579 10.2147 542.136 10.813 542.544 11.5952C542.955 12.3741 543.16 13.312 543.16 14.4091ZM541.306 14.4091C541.306 13.6368 541.185 12.9856 540.943 12.4553C540.704 11.9216 540.373 11.5189 539.949 11.2472C539.524 10.9721 539.036 10.8345 538.482 10.8345C537.929 10.8345 537.44 10.9721 537.015 11.2472C536.591 11.5189 536.258 11.9216 536.016 12.4553C535.777 12.9856 535.658 13.6368 535.658 14.4091C535.658 15.1813 535.777 15.8343 536.016 16.3679C536.258 16.8982 536.591 17.3009 537.015 17.576C537.44 17.8478 537.929 17.9837 538.482 17.9837C539.036 17.9837 539.524 17.8478 539.949 17.576C540.373 17.3009 540.704 16.8982 540.943 16.3679C541.185 15.8343 541.306 15.1813 541.306 14.4091ZM550.227 12.1172C550.181 11.683 549.985 11.3449 549.641 11.103C549.299 10.861 548.855 10.7401 548.308 10.7401C547.924 10.7401 547.594 10.7981 547.319 10.9141C547.044 11.0301 546.834 11.1875 546.688 11.3864C546.542 11.5852 546.467 11.8123 546.464 12.0675C546.464 12.2796 546.512 12.4635 546.608 12.6193C546.708 12.7751 546.842 12.9077 547.011 13.017C547.18 13.1231 547.367 13.2126 547.573 13.2855C547.778 13.3584 547.985 13.4197 548.194 13.4695L549.149 13.7081C549.533 13.7976 549.903 13.9186 550.257 14.071C550.615 14.2235 550.935 14.4157 551.217 14.6477C551.502 14.8797 551.727 15.1598 551.893 15.4879C552.059 15.8161 552.142 16.2005 552.142 16.6413C552.142 17.2379 551.989 17.7633 551.684 18.2173C551.379 18.6681 550.938 19.0211 550.362 19.2763C549.788 19.5282 549.094 19.6541 548.279 19.6541C547.486 19.6541 546.799 19.5315 546.215 19.2862C545.635 19.041 545.181 18.683 544.853 18.2124C544.528 17.7417 544.353 17.1683 544.326 16.4922H546.141C546.167 16.8468 546.277 17.1418 546.469 17.3771C546.661 17.6125 546.911 17.7881 547.22 17.9041C547.531 18.0201 547.879 18.0781 548.264 18.0781C548.665 18.0781 549.016 18.0185 549.318 17.8991C549.623 17.7765 549.861 17.6075 550.034 17.392C550.206 17.1733 550.294 16.9181 550.297 16.6264C550.294 16.3613 550.216 16.1425 550.063 15.9702C549.911 15.7945 549.697 15.6487 549.422 15.5327C549.15 15.4134 548.832 15.3073 548.468 15.2145L547.309 14.9162C546.471 14.7008 545.808 14.3743 545.32 13.9368C544.837 13.496 544.595 12.911 544.595 12.1818C544.595 11.5819 544.757 11.0566 545.082 10.6058C545.41 10.1551 545.856 9.8054 546.419 9.55682C546.983 9.30492 547.621 9.17898 548.333 9.17898C549.056 9.17898 549.689 9.30492 550.232 9.55682C550.779 9.8054 551.209 10.1518 551.52 10.5959C551.832 11.0367 551.992 11.5438 552.002 12.1172H550.227Z" fill="#F1EFEF"/>
<rect x="36.5" y="32" width="175" height="28" rx="6" fill="#3C46C9"/>
<rect x="42.5" y="37" width="18" height="18" rx="3.5" fill="#F1EFEF"/>
<path opacity="0.4" fill-rule="evenodd" clip-rule="evenodd" d="M57.3886 43.5C57.4375 44.2048 57.4375 45.0711 57.4375 46.152V46.473C57.4375 49.1963 57.4375 50.5579 56.6549 51.404C55.8724 52.25 54.6128 52.25 52.0937 52.25H50.9063C48.3872 52.25 47.1277 52.25 46.3451 51.404C45.5625 50.5579 45.5625 49.1963 45.5625 46.473V46.152C45.5625 45.0711 45.5625 44.2048 45.6114 43.5H57.3886ZM51.5 46.3125C52.0423 46.3125 52.5201 46.5888 52.8003 47.0082C52.9659 47.2563 53.0625 47.5543 53.0625 47.875C53.0625 48.1957 52.9659 48.4938 52.8002 48.7419C52.52 49.1613 52.0423 49.4375 51.5 49.4375C50.9577 49.4375 50.48 49.1613 50.1998 48.7419C50.0341 48.4938 49.9375 48.1957 49.9375 47.875C49.9375 47.5543 50.0341 47.2563 50.1998 47.0082C50.4799 46.5888 50.9577 46.3125 51.5 46.3125Z" fill="#3C46C9"/>
<path d="M55.25 39.75V41M47.75 39.75V41" stroke="#3C46C9" stroke-width="1.25" stroke-linecap="round" stroke-linejoin="round"/>
<path d="M45.875 43.5H57.125" stroke="#3C46C9" stroke-width="1.25" stroke-linecap="round" stroke-linejoin="round"/>
<path d="M45.5625 46.152C45.5625 43.4287 45.5625 42.0671 46.3451 41.221C47.1277 40.375 48.3872 40.375 50.9063 40.375H52.0937C54.6128 40.375 55.8724 40.375 56.6549 41.221C57.4375 42.0671 57.4375 43.4287 57.4375 46.152V46.473C57.4375 49.1963 57.4375 50.5579 56.6549 51.404C55.8724 52.25 54.6128 52.25 52.0937 52.25H50.9063C48.3872 52.25 47.1277 52.25 46.3451 51.404C45.5625 50.5579 45.5625 49.1963 45.5625 46.473V46.152Z" stroke="#3C46C9" stroke-width="1.25" stroke-linecap="round" stroke-linejoin="round"/>
<path d="M51.5 49.4375V50.0625M51.5 49.4375C50.9577 49.4375 50.48 49.1613 50.1998 48.7419M51.5 49.4375C52.0423 49.4375 52.52 49.1613 52.8002 48.7419M50.1998 48.7419L49.6252 49.125M50.1998 48.7419C50.0341 48.4938 49.9375 48.1957 49.9375 47.875C49.9375 47.5543 50.0341 47.2563 50.1998 47.0082M52.8002 48.7419L53.3748 49.125M52.8002 48.7419C52.9659 48.4938 53.0625 48.1957 53.0625 47.875C53.0625 47.5543 52.9659 47.2563 52.8003 47.0082M51.5 46.3125C52.0423 46.3125 52.5201 46.5888 52.8003 47.0082M51.5 46.3125C50.9577 46.3125 50.4799 46.5888 50.1998 47.0082M51.5 46.3125V45.6875M52.8003 47.0082L53.375 46.625M50.1998 47.0082L49.625 46.625" stroke="#3C46C9" stroke-width="1.25" stroke-linecap="round"/>
<path d="M69.2661 51.6392C68.5501 51.6392 67.9138 51.5166 67.357 51.2713C66.8035 51.026 66.366 50.6847 66.0445 50.2472C65.723 49.8097 65.5523 49.3042 65.5324 48.7308H67.4017C67.4183 49.0059 67.5094 49.2462 67.6751 49.4517C67.8409 49.6539 68.0613 49.8113 68.3364 49.924C68.6115 50.0367 68.9197 50.093 69.2611 50.093C69.6257 50.093 69.9488 50.0301 70.2305 49.9041C70.5123 49.7749 70.7327 49.5959 70.8918 49.3672C71.0509 49.1385 71.1287 48.875 71.1254 48.5767C71.1287 48.2685 71.0492 47.9967 70.8868 47.7614C70.7244 47.526 70.4891 47.3421 70.1808 47.2095C69.8759 47.0769 69.508 47.0107 69.0771 47.0107H68.1773V45.5888H69.0771C69.4318 45.5888 69.7417 45.5275 70.0068 45.4048C70.2753 45.2822 70.4858 45.1098 70.6382 44.8878C70.7907 44.6624 70.8653 44.4022 70.8619 44.1072C70.8653 43.8189 70.8006 43.5687 70.668 43.3565C70.5388 43.1411 70.3548 42.9737 70.1162 42.8544C69.8809 42.7351 69.6041 42.6754 69.2859 42.6754C68.9744 42.6754 68.686 42.7318 68.4209 42.8445C68.1557 42.9571 67.942 43.1179 67.7796 43.3267C67.6171 43.5322 67.531 43.7775 67.521 44.0625H65.7462C65.7594 43.4924 65.9235 42.992 66.2384 42.5611C66.5565 42.1269 66.9808 41.7888 67.5111 41.5469C68.0414 41.3016 68.6363 41.179 69.2959 41.179C69.9753 41.179 70.5653 41.3066 71.0658 41.5618C71.5696 41.8137 71.959 42.1534 72.2341 42.581C72.5092 43.0085 72.6467 43.4808 72.6467 43.9979C72.6501 44.5713 72.481 45.0518 72.1396 45.4396C71.8016 45.8274 71.3574 46.081 70.8073 46.2003V46.2798C71.5232 46.3793 72.0717 46.6444 72.4528 47.0753C72.8373 47.5028 73.0279 48.0348 73.0246 48.6712C73.0246 49.2412 72.8622 49.7517 72.5374 50.2024C72.2159 50.6499 71.7717 51.0012 71.205 51.2564C70.6415 51.5116 69.9952 51.6392 69.2661 51.6392ZM75.3488 51.6094C75.0472 51.6094 74.7887 51.5033 74.5733 51.2912C74.3578 51.0791 74.2518 50.8205 74.2551 50.5156C74.2518 50.2173 74.3578 49.9621 74.5733 49.75C74.7887 49.5379 75.0472 49.4318 75.3488 49.4318C75.6405 49.4318 75.8941 49.5379 76.1095 49.75C76.3283 49.9621 76.4393 50.2173 76.4426 50.5156C76.4393 50.7178 76.3863 50.9018 76.2835 51.0675C76.1841 51.2332 76.0515 51.3658 75.8858 51.4652C75.7234 51.5613 75.5444 51.6094 75.3488 51.6094ZM81.4379 51.6939C80.6192 51.6939 79.9165 51.4867 79.3299 51.0724C78.7466 50.6548 78.2975 50.0533 77.9826 49.2678C77.671 48.4789 77.5153 47.5294 77.5153 46.419C77.5186 45.3087 77.676 44.3641 77.9876 43.5852C78.3024 42.803 78.7515 42.2064 79.3349 41.7955C79.9215 41.3845 80.6225 41.179 81.4379 41.179C82.2532 41.179 82.9542 41.3845 83.5408 41.7955C84.1275 42.2064 84.5766 42.803 84.8881 43.5852C85.203 44.3674 85.3604 45.312 85.3604 46.419C85.3604 47.5327 85.203 48.4839 84.8881 49.2727C84.5766 50.0582 84.1275 50.6581 83.5408 51.0724C82.9575 51.4867 82.2565 51.6939 81.4379 51.6939ZM81.4379 50.1378C82.0742 50.1378 82.5763 49.8246 82.9442 49.1982C83.3155 48.5684 83.5011 47.642 83.5011 46.419C83.5011 45.6103 83.4165 44.9309 83.2475 44.3807C83.0785 43.8305 82.8398 43.4162 82.5316 43.1378C82.2234 42.8561 81.8588 42.7152 81.4379 42.7152C80.8048 42.7152 80.3043 43.0301 79.9364 43.6598C79.5685 44.2862 79.3829 45.206 79.3796 46.419C79.3763 47.2311 79.4575 47.9138 79.6232 48.4673C79.7923 49.0208 80.0309 49.4384 80.3391 49.7202C80.6474 49.9986 81.0136 50.1378 81.4379 50.1378ZM87.5343 51.6094C87.2327 51.6094 86.9742 51.5033 86.7588 51.2912C86.5433 51.0791 86.4373 50.8205 86.4406 50.5156C86.4373 50.2173 86.5433 49.9621 86.7588 49.75C86.9742 49.5379 87.2327 49.4318 87.5343 49.4318C87.826 49.4318 88.0795 49.5379 88.295 49.75C88.5137 49.9621 88.6248 50.2173 88.6281 50.5156C88.6248 50.7178 88.5717 50.9018 88.469 51.0675C88.3695 51.2332 88.237 51.3658 88.0713 51.4652C87.9088 51.5613 87.7299 51.6094 87.5343 51.6094ZM93.6233 51.6939C92.8047 51.6939 92.102 51.4867 91.5154 51.0724C90.932 50.6548 90.4829 50.0533 90.1681 49.2678C89.8565 48.4789 89.7007 47.5294 89.7007 46.419C89.7041 45.3087 89.8615 44.3641 90.173 43.5852C90.4879 42.803 90.937 42.2064 91.5203 41.7955C92.107 41.3845 92.808 41.179 93.6233 41.179C94.4387 41.179 95.1397 41.3845 95.7263 41.7955C96.313 42.2064 96.7621 42.803 97.0736 43.5852C97.3885 44.3674 97.5459 45.312 97.5459 46.419C97.5459 47.5327 97.3885 48.4839 97.0736 49.2727C96.7621 50.0582 96.313 50.6581 95.7263 51.0724C95.143 51.4867 94.442 51.6939 93.6233 51.6939ZM93.6233 50.1378C94.2597 50.1378 94.7618 49.8246 95.1297 49.1982C95.5009 48.5684 95.6865 47.642 95.6865 46.419C95.6865 45.6103 95.602 44.9309 95.433 44.3807C95.2639 43.8305 95.0253 43.4162 94.7171 43.1378C94.4088 42.8561 94.0443 42.7152 93.6233 42.7152C92.9903 42.7152 92.4898 43.0301 92.1219 43.6598C91.754 44.2862 91.5684 45.206 91.5651 46.419C91.5618 47.2311 91.643 47.9138 91.8087 48.4673C91.9777 49.0208 92.2164 49.4384 92.5246 49.7202C92.8328 49.9986 93.1991 50.1378 93.6233 50.1378Z" fill="#F1EFEF"/>
<path d="M110.11 41.3182V51.5H108.917L103.368 43.5057H103.269V51.5H102.036V41.3182H103.229L108.797 49.3324H108.897V41.3182H110.11ZM115.31 51.6591C114.621 51.6591 114.016 51.495 113.495 51.1669C112.978 50.8388 112.574 50.3797 112.282 49.7898C111.994 49.1998 111.85 48.5104 111.85 47.7216C111.85 46.9261 111.994 46.2318 112.282 45.6385C112.574 45.0452 112.978 44.5845 113.495 44.2564C114.016 43.9283 114.621 43.7642 115.31 43.7642C116 43.7642 116.603 43.9283 117.12 44.2564C117.64 44.5845 118.044 45.0452 118.333 45.6385C118.625 46.2318 118.77 46.9261 118.77 47.7216C118.77 48.5104 118.625 49.1998 118.333 49.7898C118.044 50.3797 117.64 50.8388 117.12 51.1669C116.603 51.495 116 51.6591 115.31 51.6591ZM115.31 50.6051C115.834 50.6051 116.265 50.4709 116.603 50.2024C116.941 49.9339 117.191 49.581 117.353 49.1435C117.516 48.706 117.597 48.232 117.597 47.7216C117.597 47.2112 117.516 46.7356 117.353 46.2947C117.191 45.8539 116.941 45.4976 116.603 45.2259C116.265 44.9541 115.834 44.8182 115.31 44.8182C114.786 44.8182 114.356 44.9541 114.018 45.2259C113.679 45.4976 113.429 45.8539 113.267 46.2947C113.104 46.7356 113.023 47.2112 113.023 47.7216C113.023 48.232 113.104 48.706 113.267 49.1435C113.429 49.581 113.679 49.9339 114.018 50.2024C114.356 50.4709 114.786 50.6051 115.31 50.6051ZM126.322 43.8636L123.498 51.5H122.305L119.481 43.8636H120.754L122.862 49.9489H122.942L125.05 43.8636H126.322ZM130.589 51.6591C129.853 51.6591 129.219 51.4967 128.685 51.1719C128.155 50.8438 127.745 50.3864 127.457 49.7997C127.172 49.2098 127.03 48.5237 127.03 47.7415C127.03 46.9593 127.172 46.2699 127.457 45.6733C127.745 45.0734 128.146 44.6061 128.66 44.2713C129.177 43.9332 129.78 43.7642 130.47 43.7642C130.868 43.7642 131.26 43.8305 131.648 43.9631C132.036 44.0956 132.389 44.3111 132.707 44.6094C133.025 44.9044 133.279 45.2955 133.468 45.7827C133.657 46.2699 133.751 46.8698 133.751 47.5824V48.0795H127.865V47.0653H132.558C132.558 46.6345 132.472 46.25 132.299 45.9119C132.13 45.5739 131.888 45.3071 131.574 45.1115C131.262 44.916 130.894 44.8182 130.47 44.8182C130.003 44.8182 129.598 44.9342 129.257 45.1662C128.919 45.3949 128.659 45.6932 128.476 46.0611C128.294 46.429 128.203 46.8234 128.203 47.2443V47.9205C128.203 48.4972 128.302 48.986 128.501 49.3871C128.703 49.7848 128.983 50.0881 129.341 50.2969C129.699 50.5024 130.115 50.6051 130.589 50.6051C130.897 50.6051 131.176 50.562 131.424 50.4759C131.676 50.3864 131.893 50.2538 132.076 50.0781C132.258 49.8991 132.399 49.6771 132.498 49.4119L133.632 49.7301C133.512 50.1146 133.312 50.4527 133.03 50.7443C132.748 51.0327 132.4 51.258 131.986 51.4205C131.572 51.5795 131.106 51.6591 130.589 51.6591ZM135.326 51.5V43.8636H136.459V45.0568H136.559C136.718 44.6491 136.975 44.3326 137.329 44.1072C137.684 43.8786 138.11 43.7642 138.607 43.7642C139.111 43.7642 139.53 43.8786 139.865 44.1072C140.203 44.3326 140.467 44.6491 140.655 45.0568H140.735C140.931 44.6624 141.224 44.3492 141.615 44.1172C142.006 43.8819 142.475 43.7642 143.022 43.7642C143.705 43.7642 144.263 43.978 144.697 44.4055C145.132 44.8298 145.349 45.491 145.349 46.3892V51.5H144.175V46.3892C144.175 45.8258 144.021 45.4231 143.713 45.1811C143.405 44.9392 143.042 44.8182 142.624 44.8182C142.087 44.8182 141.671 44.9806 141.376 45.3054C141.081 45.6269 140.934 46.0346 140.934 46.5284V51.5H139.741V46.2699C139.741 45.8357 139.6 45.486 139.318 45.2209C139.036 44.9524 138.673 44.8182 138.229 44.8182C137.924 44.8182 137.639 44.8994 137.374 45.0618C137.112 45.2242 136.9 45.4496 136.738 45.7379C136.579 46.023 136.499 46.3527 136.499 46.7273V51.5H135.326ZM147.443 51.5V41.3182H148.616V45.0767H148.716C148.802 44.9441 148.921 44.7751 149.074 44.5696C149.229 44.3608 149.451 44.1752 149.74 44.0128C150.031 43.8471 150.426 43.7642 150.923 43.7642C151.566 43.7642 152.133 43.925 152.623 44.2464C153.114 44.5679 153.497 45.0237 153.772 45.6136C154.047 46.2036 154.184 46.8996 154.184 47.7017C154.184 48.5104 154.047 49.2114 153.772 49.8047C153.497 50.3946 153.116 50.852 152.628 51.1768C152.141 51.4983 151.579 51.6591 150.943 51.6591C150.452 51.6591 150.06 51.5779 149.765 51.4155C149.47 51.2498 149.243 51.0625 149.084 50.8537C148.924 50.6416 148.802 50.4659 148.716 50.3267H148.576V51.5H147.443ZM148.596 47.6818C148.596 48.2585 148.681 48.7673 148.85 49.2081C149.019 49.6456 149.266 49.9886 149.591 50.2372C149.915 50.4825 150.313 50.6051 150.784 50.6051C151.274 50.6051 151.684 50.4759 152.012 50.2173C152.343 49.9555 152.592 49.6042 152.758 49.1634C152.927 48.7192 153.011 48.2254 153.011 47.6818C153.011 47.1449 152.928 46.661 152.763 46.2301C152.6 45.7959 152.353 45.4529 152.022 45.201C151.694 44.9458 151.281 44.8182 150.784 44.8182C150.307 44.8182 149.906 44.9392 149.581 45.1811C149.256 45.4197 149.011 45.7545 148.845 46.1854C148.679 46.6129 148.596 47.1117 148.596 47.6818ZM158.971 51.6591C158.235 51.6591 157.6 51.4967 157.067 51.1719C156.536 50.8438 156.127 50.3864 155.839 49.7997C155.554 49.2098 155.411 48.5237 155.411 47.7415C155.411 46.9593 155.554 46.2699 155.839 45.6733C156.127 45.0734 156.528 44.6061 157.042 44.2713C157.559 43.9332 158.162 43.7642 158.852 43.7642C159.249 43.7642 159.642 43.8305 160.03 43.9631C160.418 44.0956 160.771 44.3111 161.089 44.6094C161.407 44.9044 161.661 45.2955 161.849 45.7827C162.038 46.2699 162.133 46.8698 162.133 47.5824V48.0795H156.246V47.0653H160.94C160.94 46.6345 160.853 46.25 160.681 45.9119C160.512 45.5739 160.27 45.3071 159.955 45.1115C159.644 44.916 159.276 44.8182 158.852 44.8182C158.384 44.8182 157.98 44.9342 157.638 45.1662C157.3 45.3949 157.04 45.6932 156.858 46.0611C156.676 46.429 156.585 46.8234 156.585 47.2443V47.9205C156.585 48.4972 156.684 48.986 156.883 49.3871C157.085 49.7848 157.365 50.0881 157.723 50.2969C158.081 50.5024 158.497 50.6051 158.971 50.6051C159.279 50.6051 159.558 50.562 159.806 50.4759C160.058 50.3864 160.275 50.2538 160.457 50.0781C160.64 49.8991 160.781 49.6771 160.88 49.4119L162.013 49.7301C161.894 50.1146 161.694 50.4527 161.412 50.7443C161.13 51.0327 160.782 51.258 160.368 51.4205C159.954 51.5795 159.488 51.6591 158.971 51.6591ZM163.708 51.5V43.8636H164.841V45.017H164.921C165.06 44.6392 165.312 44.3326 165.676 44.0973C166.041 43.862 166.452 43.7443 166.909 43.7443C166.995 43.7443 167.103 43.746 167.232 43.7493C167.362 43.7526 167.46 43.7576 167.526 43.7642V44.9574C167.486 44.9474 167.395 44.9325 167.252 44.9126C167.113 44.8894 166.966 44.8778 166.81 44.8778C166.439 44.8778 166.107 44.9557 165.816 45.1115C165.527 45.264 165.299 45.4761 165.129 45.7479C164.964 46.0163 164.881 46.3229 164.881 46.6676V51.5H163.708ZM172.414 51.5V50.6051L175.775 46.9261C176.169 46.4953 176.494 46.1207 176.749 45.8026C177.005 45.4811 177.194 45.1795 177.316 44.8977C177.442 44.6127 177.505 44.3144 177.505 44.0028C177.505 43.6449 177.419 43.335 177.247 43.0732C177.078 42.8113 176.846 42.6091 176.551 42.4666C176.256 42.3241 175.924 42.2528 175.556 42.2528C175.165 42.2528 174.824 42.334 174.532 42.4964C174.244 42.6555 174.02 42.8793 173.861 43.1676C173.705 43.456 173.627 43.794 173.627 44.1818H172.454C172.454 43.5852 172.592 43.0616 172.867 42.6108C173.142 42.16 173.516 41.8087 173.99 41.5568C174.467 41.3049 175.003 41.179 175.596 41.179C176.193 41.179 176.721 41.3049 177.182 41.5568C177.643 41.8087 178.004 42.1484 178.266 42.576C178.528 43.0036 178.659 43.4792 178.659 44.0028C178.659 44.3774 178.591 44.7436 178.455 45.1016C178.322 45.4562 178.09 45.8523 177.759 46.2898C177.431 46.724 176.975 47.2543 176.391 47.8807L174.105 50.3267V50.4062H178.838V51.5H172.414ZM184.002 51.6392C183.253 51.6392 182.615 51.4354 182.088 51.0277C181.561 50.6167 181.158 50.0218 180.88 49.2429C180.601 48.4607 180.462 47.5161 180.462 46.4091C180.462 45.3087 180.601 44.3691 180.88 43.5902C181.161 42.808 181.566 42.2114 182.093 41.8004C182.623 41.3861 183.259 41.179 184.002 41.179C184.744 41.179 185.379 41.3861 185.906 41.8004C186.436 42.2114 186.841 42.808 187.119 43.5902C187.401 44.3691 187.542 45.3087 187.542 46.4091C187.542 47.5161 187.402 48.4607 187.124 49.2429C186.846 50.0218 186.443 50.6167 185.916 51.0277C185.389 51.4354 184.751 51.6392 184.002 51.6392ZM184.002 50.5455C184.744 50.5455 185.321 50.1875 185.732 49.4716C186.143 48.7557 186.348 47.7348 186.348 46.4091C186.348 45.5275 186.254 44.7768 186.065 44.157C185.879 43.5372 185.611 43.0649 185.26 42.7401C184.912 42.4152 184.492 42.2528 184.002 42.2528C183.266 42.2528 182.691 42.6158 182.277 43.3416C181.862 44.0642 181.655 45.0866 181.655 46.4091C181.655 47.2907 181.748 48.0398 181.934 48.6562C182.119 49.2727 182.386 49.7417 182.734 50.0632C183.085 50.3847 183.508 50.5455 184.002 50.5455ZM189.221 51.5V50.6051L192.582 46.9261C192.976 46.4953 193.301 46.1207 193.556 45.8026C193.811 45.4811 194 45.1795 194.123 44.8977C194.249 44.6127 194.312 44.3144 194.312 44.0028C194.312 43.6449 194.226 43.335 194.053 43.0732C193.884 42.8113 193.652 42.6091 193.357 42.4666C193.062 42.3241 192.731 42.2528 192.363 42.2528C191.972 42.2528 191.63 42.334 191.339 42.4964C191.05 42.6555 190.827 42.8793 190.668 43.1676C190.512 43.456 190.434 43.794 190.434 44.1818H189.261C189.261 43.5852 189.398 43.0616 189.673 42.6108C189.948 42.16 190.323 41.8087 190.797 41.5568C191.274 41.3049 191.809 41.179 192.403 41.179C192.999 41.179 193.528 41.3049 193.989 41.5568C194.449 41.8087 194.81 42.1484 195.072 42.576C195.334 43.0036 195.465 43.4792 195.465 44.0028C195.465 44.3774 195.397 44.7436 195.261 45.1016C195.129 45.4562 194.897 45.8523 194.565 46.2898C194.237 46.724 193.781 47.2543 193.198 47.8807L190.911 50.3267V50.4062H195.644V51.5H189.221ZM197.03 49.4119V48.3977L201.504 41.3182H202.24V42.8892H201.743L198.362 48.2386V48.3182H204.388V49.4119H197.03ZM201.823 51.5V49.1037V48.6314V41.3182H202.996V51.5H201.823Z" fill="#C6C6C8"/>
<rect x="215.5" y="32" width="164" height="28" rx="6" fill="#3C46C9"/>
<rect x="221.5" y="37" width="18" height="18" rx="3.5" fill="#F1EFEF"/>
<path d="M230.5 52.25H229.562C227.205 52.25 226.027 52.25 225.295 51.5177C224.562 50.7855 224.562 49.607 224.563 47.2499L224.563 44.75C224.563 42.393 224.563 41.2145 225.295 40.4822C226.027 39.75 227.206 39.75 229.562 39.75H230.187C232.544 39.75 233.723 39.75 234.455 40.4822C235.187 41.2145 235.187 42.393 235.187 44.75V45.375" stroke="#3C46C9" stroke-width="1.25" stroke-linecap="round" stroke-linejoin="round"/>
<path d="M227.375 42.875H232.375M227.375 46H230.188" stroke="#3C46C9" stroke-width="1.25" stroke-linecap="round" stroke-linejoin="round"/>
<path d="M233.938 51.4829C235.042 51.4829 235.938 50.5672 235.938 49.4375C235.938 48.3078 235.042 47.3921 233.938 47.3921M233.938 51.4829C232.833 51.4829 231.938 50.5672 231.938 49.4375C231.938 48.3078 232.833 47.3921 233.938 47.3921M233.938 51.4829V52.25M233.938 47.3921V46.625M232.12 48.3218L231.438 47.9034M236.438 50.9716L235.756 50.5532M235.755 48.3218L236.437 47.9034M231.438 50.9716L232.119 50.5532" stroke="#3C46C9" stroke-width="1.25" stroke-linecap="round"/>
<path opacity="0.4" d="M235.187 44.75V47.25C235.187 47.4552 235.187 47.6516 235.187 47.8394C234.845 47.5592 234.41 47.3916 233.938 47.3916C232.833 47.3916 231.938 48.3074 231.938 49.4371C231.938 50.5668 232.833 51.4825 233.938 51.4825C234.165 51.4825 234.383 51.4439 234.586 51.3727C234.545 51.423 234.502 51.4713 234.455 51.5177C233.723 52.25 232.544 52.25 230.187 52.25H229.562C227.205 52.25 226.027 52.25 225.295 51.5177C224.562 50.7855 224.562 49.607 224.563 47.2499L224.563 44.75C224.563 42.393 224.563 41.2145 225.295 40.4822C226.027 39.75 227.206 39.75 229.562 39.75H230.187C232.544 39.75 233.723 39.75 234.455 40.4822C235.187 41.2145 235.187 42.393 235.187 44.75Z" fill="#3C46C9"/>
<path d="M246.097 51.5H244.128L247.713 41.3182H249.99L253.579 51.5H251.61L248.891 43.4062H248.811L246.097 51.5ZM246.161 47.5078H251.531V48.9893H246.161V47.5078ZM254.631 54.3636V43.8636H256.4V45.1264H256.505C256.598 44.9408 256.729 44.7436 256.898 44.5348C257.067 44.3227 257.295 44.142 257.584 43.9929C257.872 43.8404 258.24 43.7642 258.687 43.7642C259.277 43.7642 259.809 43.915 260.283 44.2166C260.761 44.5149 261.138 44.9574 261.417 45.544C261.699 46.1274 261.839 46.8433 261.839 47.6918C261.839 48.5303 261.702 49.2429 261.427 49.8295C261.152 50.4162 260.777 50.8636 260.303 51.1719C259.829 51.4801 259.292 51.6342 258.692 51.6342C258.255 51.6342 257.892 51.5613 257.604 51.4155C257.315 51.2696 257.083 51.094 256.908 50.8885C256.735 50.6797 256.601 50.4825 256.505 50.2969H256.43V54.3636H254.631ZM256.395 47.6818C256.395 48.1757 256.465 48.6082 256.604 48.9794C256.747 49.3506 256.951 49.6406 257.216 49.8494C257.484 50.0549 257.809 50.1577 258.19 50.1577C258.588 50.1577 258.921 50.0516 259.19 49.8395C259.458 49.6241 259.66 49.3307 259.796 48.9595C259.935 48.585 260.005 48.1591 260.005 47.6818C260.005 47.2079 259.937 46.7869 259.801 46.419C259.665 46.0511 259.463 45.7628 259.194 45.554C258.926 45.3452 258.591 45.2408 258.19 45.2408C257.806 45.2408 257.479 45.3419 257.211 45.544C256.942 45.7462 256.739 46.0296 256.599 46.3942C256.463 46.7588 256.395 47.188 256.395 47.6818ZM265.368 51.6541C264.884 51.6541 264.448 51.5679 264.06 51.3956C263.676 51.2199 263.371 50.9614 263.146 50.62C262.924 50.2786 262.813 49.8577 262.813 49.3572C262.813 48.9264 262.892 48.5701 263.051 48.2884C263.21 48.0066 263.427 47.7812 263.703 47.6122C263.978 47.4432 264.288 47.3156 264.632 47.2294C264.98 47.1399 265.34 47.0753 265.711 47.0355C266.159 46.9891 266.521 46.9477 266.8 46.9112C267.078 46.8714 267.28 46.8118 267.406 46.7322C267.536 46.6494 267.6 46.5218 267.6 46.3494V46.3196C267.6 45.9451 267.489 45.6551 267.267 45.4496C267.045 45.2441 266.725 45.1413 266.308 45.1413C265.867 45.1413 265.517 45.2375 265.259 45.4297C265.003 45.6219 264.831 45.849 264.742 46.1108L263.061 45.8722C263.194 45.4081 263.413 45.0204 263.717 44.7088C264.022 44.3939 264.395 44.1586 264.836 44.0028C265.277 43.8438 265.764 43.7642 266.298 43.7642C266.666 43.7642 267.032 43.8073 267.396 43.8935C267.761 43.9796 268.094 44.1222 268.396 44.321C268.697 44.5166 268.939 44.7834 269.122 45.1214C269.307 45.4595 269.4 45.8821 269.4 46.3892V51.5H267.67V50.451H267.61C267.501 50.6631 267.347 50.862 267.148 51.0476C266.952 51.2299 266.705 51.3774 266.407 51.4901C266.112 51.5994 265.766 51.6541 265.368 51.6541ZM265.835 50.3317C266.197 50.3317 266.51 50.2604 266.775 50.1179C267.04 49.9721 267.244 49.7798 267.386 49.5412C267.532 49.3026 267.605 49.0424 267.605 48.7607V47.8608C267.549 47.9072 267.453 47.9503 267.317 47.9901C267.184 48.0298 267.035 48.0646 266.869 48.0945C266.704 48.1243 266.54 48.1508 266.377 48.174C266.215 48.1972 266.074 48.2171 265.955 48.2337C265.686 48.2701 265.446 48.3298 265.234 48.4126C265.022 48.4955 264.854 48.6115 264.732 48.7607C264.609 48.9065 264.548 49.0954 264.548 49.3274C264.548 49.6589 264.669 49.9091 264.911 50.0781C265.153 50.2472 265.461 50.3317 265.835 50.3317ZM274.331 51.6491C273.568 51.6491 272.914 51.4818 272.367 51.147C271.823 50.8123 271.404 50.3499 271.109 49.7599C270.817 49.1667 270.672 48.4839 270.672 47.7116C270.672 46.9361 270.821 46.2517 271.119 45.6584C271.417 45.0618 271.838 44.5978 272.382 44.2663C272.929 43.9316 273.575 43.7642 274.321 43.7642C274.94 43.7642 275.489 43.8786 275.966 44.1072C276.447 44.3326 276.83 44.6525 277.115 45.0668C277.4 45.4777 277.562 45.9583 277.602 46.5085H275.882C275.812 46.1406 275.646 45.834 275.385 45.5888C275.126 45.3402 274.78 45.2159 274.346 45.2159C273.978 45.2159 273.654 45.3153 273.376 45.5142C273.098 45.7098 272.881 45.9915 272.725 46.3594C272.572 46.7273 272.496 47.1681 272.496 47.6818C272.496 48.2022 272.572 48.6496 272.725 49.0241C272.877 49.3954 273.091 49.6821 273.366 49.8842C273.645 50.0831 273.971 50.1825 274.346 50.1825C274.611 50.1825 274.848 50.1328 275.056 50.0334C275.269 49.9306 275.446 49.7831 275.588 49.5909C275.731 49.3987 275.829 49.165 275.882 48.8899H277.602C277.559 49.4302 277.4 49.9091 277.125 50.3267C276.85 50.741 276.475 51.0658 276.001 51.3011C275.527 51.5331 274.97 51.6491 274.331 51.6491ZM280.669 47.0256V51.5H278.87V41.3182H280.63V45.1612H280.719C280.898 44.7304 281.175 44.3906 281.549 44.142C281.927 43.8902 282.408 43.7642 282.991 43.7642C283.521 43.7642 283.984 43.8752 284.378 44.0973C284.773 44.3194 285.078 44.6442 285.293 45.0717C285.512 45.4993 285.621 46.0213 285.621 46.6378V51.5H283.821V46.9162C283.821 46.4025 283.689 46.0031 283.424 45.718C283.162 45.4297 282.794 45.2855 282.32 45.2855C282.002 45.2855 281.717 45.3551 281.465 45.4943C281.216 45.6302 281.021 45.8274 280.878 46.0859C280.739 46.3445 280.669 46.6577 280.669 47.0256ZM290.626 51.6491C289.861 51.6491 289.199 51.4901 288.643 51.1719C288.089 50.8504 287.663 50.3963 287.365 49.8097C287.067 49.2197 286.918 48.5253 286.918 47.7266C286.918 46.9411 287.067 46.2517 287.365 45.6584C287.667 45.0618 288.088 44.5978 288.628 44.2663C289.168 43.9316 289.803 43.7642 290.532 43.7642C291.003 43.7642 291.447 43.8404 291.864 43.9929C292.285 44.142 292.656 44.3741 292.978 44.6889C293.303 45.0038 293.558 45.4048 293.744 45.892C293.929 46.3759 294.022 46.9527 294.022 47.6222V48.174H287.763V46.9609H292.297C292.293 46.6162 292.219 46.3097 292.073 46.0412C291.927 45.7694 291.723 45.5556 291.462 45.3999C291.203 45.2441 290.901 45.1662 290.557 45.1662C290.189 45.1662 289.866 45.2557 289.587 45.4347C289.309 45.6103 289.092 45.8423 288.936 46.1307C288.784 46.4157 288.706 46.7289 288.702 47.0703V48.1293C288.702 48.5734 288.784 48.9545 288.946 49.2727C289.108 49.5876 289.335 49.8295 289.627 49.9986C289.919 50.1643 290.26 50.2472 290.651 50.2472C290.913 50.2472 291.15 50.2107 291.362 50.1378C291.574 50.0616 291.758 49.9505 291.914 49.8047C292.07 49.6589 292.187 49.4782 292.267 49.2628L293.947 49.4517C293.841 49.8958 293.639 50.2836 293.341 50.6151C293.046 50.9432 292.668 51.1984 292.207 51.3807C291.747 51.5597 291.22 51.6491 290.626 51.6491ZM298.577 51.5V50.1676L302.112 46.7024C302.45 46.361 302.732 46.0578 302.957 45.7926C303.183 45.5275 303.352 45.2706 303.464 45.022C303.577 44.7734 303.633 44.5083 303.633 44.2266C303.633 43.9051 303.56 43.63 303.415 43.4013C303.269 43.1693 303.068 42.9903 302.813 42.8643C302.558 42.7384 302.268 42.6754 301.943 42.6754C301.608 42.6754 301.315 42.745 301.063 42.8842C300.811 43.0201 300.616 43.214 300.476 43.4659C300.341 43.7178 300.273 44.0178 300.273 44.3658H298.518C298.518 43.7195 298.665 43.1577 298.96 42.6804C299.255 42.2031 299.661 41.8336 300.178 41.5717C300.698 41.3099 301.295 41.179 301.968 41.179C302.651 41.179 303.251 41.3066 303.768 41.5618C304.285 41.817 304.686 42.1667 304.971 42.6108C305.259 43.0549 305.403 43.562 305.403 44.1321C305.403 44.5133 305.33 44.8878 305.184 45.2557C305.039 45.6236 304.782 46.0312 304.414 46.4787C304.049 46.9261 303.537 47.468 302.878 48.1044L301.123 49.8892V49.9588H305.557V51.5H298.577ZM308.191 51.6094C307.89 51.6094 307.631 51.5033 307.416 51.2912C307.2 51.0791 307.094 50.8205 307.097 50.5156C307.094 50.2173 307.2 49.9621 307.416 49.75C307.631 49.5379 307.89 49.4318 308.191 49.4318C308.483 49.4318 308.736 49.5379 308.952 49.75C309.171 49.9621 309.282 50.2173 309.285 50.5156C309.282 50.7178 309.229 50.9018 309.126 51.0675C309.026 51.2332 308.894 51.3658 308.728 51.4652C308.566 51.5613 308.387 51.6094 308.191 51.6094ZM314.28 51.6939C313.461 51.6939 312.759 51.4867 312.172 51.0724C311.589 50.6548 311.14 50.0533 310.825 49.2678C310.513 48.4789 310.358 47.5294 310.358 46.419C310.361 45.3087 310.518 44.3641 310.83 43.5852C311.145 42.803 311.594 42.2064 312.177 41.7955C312.764 41.3845 313.465 41.179 314.28 41.179C315.095 41.179 315.796 41.3845 316.383 41.7955C316.97 42.2064 317.419 42.803 317.73 43.5852C318.045 44.3674 318.203 45.312 318.203 46.419C318.203 47.5327 318.045 48.4839 317.73 49.2727C317.419 50.0582 316.97 50.6581 316.383 51.0724C315.8 51.4867 315.099 51.6939 314.28 51.6939ZM314.28 50.1378C314.916 50.1378 315.419 49.8246 315.787 49.1982C316.158 48.5684 316.343 47.642 316.343 46.419C316.343 45.6103 316.259 44.9309 316.09 44.3807C315.921 43.8305 315.682 43.4162 315.374 43.1378C315.066 42.8561 314.701 42.7152 314.28 42.7152C313.647 42.7152 313.147 43.0301 312.779 43.6598C312.411 44.2862 312.225 45.206 312.222 46.419C312.219 47.2311 312.3 47.9138 312.465 48.4673C312.635 49.0208 312.873 49.4384 313.181 49.7202C313.49 49.9986 313.856 50.1378 314.28 50.1378ZM323.007 51.5V41.3182H324.851V49.9538H329.335V51.5H323.007ZM330.647 51.5V43.8636H332.446V51.5H330.647ZM331.552 42.7798C331.267 42.7798 331.021 42.6854 330.816 42.4964C330.61 42.3042 330.508 42.0739 330.508 41.8054C330.508 41.5336 330.61 41.3033 330.816 41.1143C331.021 40.9221 331.267 40.826 331.552 40.826C331.84 40.826 332.085 40.9221 332.287 41.1143C332.493 41.3033 332.596 41.5336 332.596 41.8054C332.596 42.0739 332.493 42.3042 332.287 42.4964C332.085 42.6854 331.84 42.7798 331.552 42.7798ZM337.418 51.6491C336.656 51.6491 336.001 51.4818 335.454 51.147C334.911 50.8123 334.491 50.3499 334.197 49.7599C333.905 49.1667 333.759 48.4839 333.759 47.7116C333.759 46.9361 333.908 46.2517 334.206 45.6584C334.505 45.0618 334.926 44.5978 335.469 44.2663C336.016 43.9316 336.662 43.7642 337.408 43.7642C338.028 43.7642 338.576 43.8786 339.054 44.1072C339.534 44.3326 339.917 44.6525 340.202 45.0668C340.487 45.4777 340.65 45.9583 340.689 46.5085H338.969C338.9 46.1406 338.734 45.834 338.472 45.5888C338.214 45.3402 337.867 45.2159 337.433 45.2159C337.065 45.2159 336.742 45.3153 336.464 45.5142C336.185 45.7098 335.968 45.9915 335.812 46.3594C335.66 46.7273 335.584 47.1681 335.584 47.6818C335.584 48.2022 335.66 48.6496 335.812 49.0241C335.965 49.3954 336.179 49.6821 336.454 49.8842C336.732 50.0831 337.058 50.1825 337.433 50.1825C337.698 50.1825 337.935 50.1328 338.144 50.0334C338.356 49.9306 338.533 49.7831 338.676 49.5909C338.818 49.3987 338.916 49.165 338.969 48.8899H340.689C340.646 49.4302 340.487 49.9091 340.212 50.3267C339.937 50.741 339.563 51.0658 339.089 51.3011C338.615 51.5331 338.058 51.6491 337.418 51.6491ZM345.338 51.6491C344.572 51.6491 343.911 51.4901 343.354 51.1719C342.801 50.8504 342.375 50.3963 342.077 49.8097C341.778 49.2197 341.629 48.5253 341.629 47.7266C341.629 46.9411 341.778 46.2517 342.077 45.6584C342.378 45.0618 342.799 44.5978 343.339 44.2663C343.88 43.9316 344.514 43.7642 345.243 43.7642C345.714 43.7642 346.158 43.8404 346.576 43.9929C346.997 44.142 347.368 44.3741 347.689 44.6889C348.014 45.0038 348.269 45.4048 348.455 45.892C348.641 46.3759 348.733 46.9527 348.733 47.6222V48.174H342.474V46.9609H347.008C347.005 46.6162 346.93 46.3097 346.785 46.0412C346.639 45.7694 346.435 45.5556 346.173 45.3999C345.915 45.2441 345.613 45.1662 345.268 45.1662C344.9 45.1662 344.577 45.2557 344.299 45.4347C344.02 45.6103 343.803 45.8423 343.648 46.1307C343.495 46.4157 343.417 46.7289 343.414 47.0703V48.1293C343.414 48.5734 343.495 48.9545 343.658 49.2727C343.82 49.5876 344.047 49.8295 344.339 49.9986C344.63 50.1643 344.972 50.2472 345.363 50.2472C345.625 50.2472 345.862 50.2107 346.074 50.1378C346.286 50.0616 346.47 49.9505 346.626 49.8047C346.781 49.6589 346.899 49.4782 346.979 49.2628L348.659 49.4517C348.553 49.8958 348.351 50.2836 348.052 50.6151C347.757 50.9432 347.38 51.1984 346.919 51.3807C346.458 51.5597 345.931 51.6491 345.338 51.6491ZM351.846 47.0256V51.5H350.046V43.8636H351.766V45.1612H351.856C352.031 44.7337 352.311 44.3939 352.696 44.142C353.084 43.8902 353.563 43.7642 354.133 43.7642C354.66 43.7642 355.119 43.8769 355.51 44.1023C355.904 44.3277 356.209 44.6541 356.425 45.0817C356.643 45.5092 356.751 46.0279 356.748 46.6378V51.5H354.948V46.9162C354.948 46.4058 354.815 46.0064 354.55 45.718C354.288 45.4297 353.926 45.2855 353.462 45.2855C353.147 45.2855 352.867 45.3551 352.621 45.4943C352.379 45.6302 352.189 45.8274 352.05 46.0859C351.914 46.3445 351.846 46.6577 351.846 47.0256ZM364.403 45.8821L362.762 46.0611C362.716 45.8954 362.635 45.7396 362.519 45.5938C362.406 45.4479 362.253 45.3303 362.061 45.2408C361.869 45.1513 361.634 45.1065 361.355 45.1065C360.981 45.1065 360.666 45.1877 360.411 45.3501C360.159 45.5125 360.034 45.723 360.038 45.9815C360.034 46.2036 360.116 46.3842 360.281 46.5234C360.45 46.6626 360.729 46.777 361.117 46.8665L362.419 47.1449C363.142 47.3007 363.679 47.5476 364.03 47.8857C364.385 48.2237 364.564 48.6662 364.567 49.2131C364.564 49.6937 364.423 50.1179 364.144 50.4858C363.869 50.8504 363.486 51.1354 362.996 51.3409C362.505 51.5464 361.942 51.6491 361.306 51.6491C360.371 51.6491 359.618 51.4536 359.048 51.0625C358.478 50.6681 358.139 50.1196 358.029 49.4169L359.784 49.2479C359.864 49.5926 360.033 49.8527 360.291 50.0284C360.55 50.2041 360.886 50.2919 361.301 50.2919C361.728 50.2919 362.071 50.2041 362.33 50.0284C362.591 49.8527 362.722 49.6357 362.722 49.3771C362.722 49.1584 362.638 48.9777 362.469 48.8352C362.303 48.6927 362.045 48.5833 361.693 48.5071L360.391 48.2337C359.658 48.0812 359.116 47.8243 358.765 47.4631C358.414 47.0985 358.24 46.6378 358.243 46.081C358.24 45.6103 358.367 45.2027 358.626 44.858C358.888 44.5099 359.251 44.2415 359.715 44.0526C360.182 43.8603 360.721 43.7642 361.33 43.7642C362.225 43.7642 362.93 43.9548 363.443 44.3359C363.96 44.7171 364.28 45.2325 364.403 45.8821ZM369.222 51.6491C368.456 51.6491 367.795 51.4901 367.238 51.1719C366.684 50.8504 366.259 50.3963 365.96 49.8097C365.662 49.2197 365.513 48.5253 365.513 47.7266C365.513 46.9411 365.662 46.2517 365.96 45.6584C366.262 45.0618 366.683 44.5978 367.223 44.2663C367.763 43.9316 368.398 43.7642 369.127 43.7642C369.598 43.7642 370.042 43.8404 370.459 43.9929C370.88 44.142 371.252 44.3741 371.573 44.6889C371.898 45.0038 372.153 45.4048 372.339 45.892C372.524 46.3759 372.617 46.9527 372.617 47.6222V48.174H366.358V46.9609H370.892C370.889 46.6162 370.814 46.3097 370.668 46.0412C370.522 45.7694 370.319 45.5556 370.057 45.3999C369.798 45.2441 369.497 45.1662 369.152 45.1662C368.784 45.1662 368.461 45.2557 368.183 45.4347C367.904 45.6103 367.687 45.8423 367.531 46.1307C367.379 46.4157 367.301 46.7289 367.298 47.0703V48.1293C367.298 48.5734 367.379 48.9545 367.541 49.2727C367.704 49.5876 367.931 49.8295 368.222 49.9986C368.514 50.1643 368.855 50.2472 369.246 50.2472C369.508 50.2472 369.745 50.2107 369.957 50.1378C370.169 50.0616 370.353 49.9505 370.509 49.8047C370.665 49.6589 370.783 49.4782 370.862 49.2628L372.543 49.4517C372.437 49.8958 372.234 50.2836 371.936 50.6151C371.641 50.9432 371.263 51.1984 370.803 51.3807C370.342 51.5597 369.815 51.6491 369.222 51.6491Z" fill="#F1EFEF"/>
<rect x="383.5" y="32" width="139" height="28" rx="6" fill="#0069B1"/>
<rect x="389.5" y="37" width="18" height="18" rx="3.5" fill="#F1EFEF"/>
<circle opacity="0.4" cx="398.5" cy="46" r="5.625" fill="#0069B1"/>
<path fill-rule="evenodd" clip-rule="evenodd" d="M400.514 52.2385C400.813 52.3539 401.157 52.3504 401.469 52.2008C402.282 51.8109 403.011 51.2644 403.614 50.5942C403.721 50.4754 403.8 50.3411 403.852 50.1995C403.959 50.0632 404.06 49.9237 404.155 49.7813C404.318 49.5385 404.374 49.2557 404.335 48.9877C404.629 48.8579 404.87 48.612 404.984 48.2855C405.131 47.8677 405.239 47.4304 405.304 46.9775C405.369 46.5246 405.389 46.0745 405.366 45.6322C405.357 45.4711 405.317 45.319 405.252 45.1816C405.232 45.0115 405.205 44.8421 405.172 44.6736C405.115 44.3874 404.955 44.1479 404.739 43.9859C404.854 43.687 404.85 43.3429 404.701 43.0312C404.311 42.2184 403.764 41.4886 403.094 40.8856C402.975 40.7788 402.841 40.7 402.7 40.6486C402.563 40.5408 402.423 40.4389 402.279 40.3429C402.037 40.1806 401.755 40.1241 401.487 40.1627C401.357 39.8704 401.111 39.6301 400.786 39.5156C400.368 39.3688 399.93 39.2606 399.477 39.1956C399.025 39.1305 398.574 39.1112 398.132 39.1345C397.973 39.1429 397.823 39.1817 397.687 39.245C397.515 39.2656 397.343 39.2928 397.172 39.3267C396.885 39.3834 396.645 39.5434 396.483 39.7604C396.185 39.6461 395.842 39.6501 395.531 39.7992C394.718 40.1891 393.989 40.7356 393.386 41.4058C393.281 41.5223 393.203 41.6536 393.152 41.792C393.042 41.9311 392.938 42.0735 392.841 42.2189C392.678 42.4621 392.622 42.7454 392.661 43.0138C392.369 43.1441 392.13 43.3894 392.016 43.7145C391.869 44.1323 391.761 44.5696 391.696 45.0225C391.631 45.4754 391.611 45.9255 391.634 46.3678C391.643 46.5247 391.681 46.673 391.743 46.8076C391.763 46.9814 391.791 47.1545 391.825 47.3266C391.882 47.614 392.042 47.8544 392.261 48.0164C392.146 48.3148 392.15 48.6579 392.299 48.9688C392.689 49.7816 393.236 50.5114 393.906 51.1144C394.022 51.2193 394.154 51.2973 394.293 51.3486C394.431 51.4576 394.572 51.5605 394.717 51.6573C394.96 51.8203 395.244 51.8766 395.513 51.837C395.643 52.1295 395.889 52.3698 396.214 52.4844C396.632 52.6312 397.07 52.7394 397.523 52.8044C397.975 52.8695 398.426 52.8888 398.868 52.8655C399.027 52.8571 399.177 52.8182 399.313 52.7547C399.485 52.7342 399.655 52.7071 399.825 52.6735C400.112 52.6167 400.352 52.4561 400.514 52.2385ZM402.687 47.7347C402.619 47.4471 402.61 47.1406 402.671 46.8317C402.779 46.2832 402.779 45.7169 402.671 45.1684C402.61 44.8595 402.619 44.5529 402.687 44.2653C402.436 44.1104 402.213 43.9003 402.038 43.639C401.886 43.4125 401.709 43.1961 401.507 42.9933C401.304 42.7906 401.088 42.6138 400.861 42.4621C400.6 42.2872 400.39 42.0643 400.235 41.8131C399.947 41.8814 399.641 41.8905 399.332 41.8293C398.783 41.7208 398.217 41.7208 397.668 41.8293C397.359 41.8905 397.053 41.8814 396.765 41.8131C396.61 42.0643 396.4 42.2872 396.139 42.4621C395.913 42.6138 395.696 42.7906 395.493 42.9933C395.291 43.1961 395.114 43.4125 394.962 43.639C394.787 43.9003 394.564 44.1104 394.313 44.2653C394.381 44.5529 394.391 44.8595 394.329 45.1684C394.221 45.7169 394.221 46.2832 394.329 46.8317C394.391 47.1406 394.381 47.4471 394.313 47.7347C394.564 47.8897 394.787 48.0997 394.962 48.361C395.114 48.5876 395.291 48.804 395.493 49.0067C395.696 49.2095 395.913 49.3862 396.139 49.5379C396.4 49.7129 396.61 49.9357 396.765 50.187C397.053 50.1187 397.359 50.1096 397.668 50.1707C398.217 50.2793 398.783 50.2793 399.332 50.1707C399.641 50.1096 399.947 50.1187 400.235 50.187C400.39 49.9357 400.6 49.7129 400.861 49.5379C401.088 49.3862 401.304 49.2095 401.507 49.0067C401.709 48.804 401.886 48.5876 402.038 48.361C402.213 48.0997 402.436 47.8897 402.687 47.7347Z" fill="#0069B1"/>
<path d="M412.584 41.3182H414.841L417.864 48.696H417.983L421.006 41.3182H423.263V51.5H421.493V44.505H421.399L418.585 51.4702H417.262L414.448 44.4901H414.354V51.5H412.584V41.3182ZM427.18 51.6541C426.696 51.6541 426.26 51.5679 425.872 51.3956C425.488 51.2199 425.183 50.9614 424.957 50.62C424.735 50.2786 424.624 49.8577 424.624 49.3572C424.624 48.9264 424.704 48.5701 424.863 48.2884C425.022 48.0066 425.239 47.7812 425.514 47.6122C425.789 47.4432 426.099 47.3156 426.444 47.2294C426.792 47.1399 427.151 47.0753 427.523 47.0355C427.97 46.9891 428.333 46.9477 428.611 46.9112C428.89 46.8714 429.092 46.8118 429.218 46.7322C429.347 46.6494 429.412 46.5218 429.412 46.3494V46.3196C429.412 45.9451 429.301 45.6551 429.079 45.4496C428.857 45.2441 428.537 45.1413 428.119 45.1413C427.678 45.1413 427.329 45.2375 427.07 45.4297C426.815 45.6219 426.643 45.849 426.553 46.1108L424.873 45.8722C425.005 45.4081 425.224 45.0204 425.529 44.7088C425.834 44.3939 426.207 44.1586 426.648 44.0028C427.088 43.8438 427.576 43.7642 428.109 43.7642C428.477 43.7642 428.843 43.8073 429.208 43.8935C429.572 43.9796 429.906 44.1222 430.207 44.321C430.509 44.5166 430.751 44.7834 430.933 45.1214C431.119 45.4595 431.211 45.8821 431.211 46.3892V51.5H429.481V50.451H429.422C429.312 50.6631 429.158 50.862 428.959 51.0476C428.764 51.2299 428.517 51.3774 428.219 51.4901C427.924 51.5994 427.577 51.6541 427.18 51.6541ZM427.647 50.3317C428.008 50.3317 428.321 50.2604 428.586 50.1179C428.852 49.9721 429.055 49.7798 429.198 49.5412C429.344 49.3026 429.417 49.0424 429.417 48.7607V47.8608C429.36 47.9072 429.264 47.9503 429.128 47.9901C428.996 48.0298 428.847 48.0646 428.681 48.0945C428.515 48.1243 428.351 48.1508 428.189 48.174C428.026 48.1972 427.885 48.2171 427.766 48.2337C427.498 48.2701 427.257 48.3298 427.045 48.4126C426.833 48.4955 426.666 48.6115 426.543 48.7607C426.421 48.9065 426.359 49.0954 426.359 49.3274C426.359 49.6589 426.48 49.9091 426.722 50.0781C426.964 50.2472 427.272 50.3317 427.647 50.3317ZM435.645 51.6342C435.045 51.6342 434.508 51.4801 434.034 51.1719C433.56 50.8636 433.186 50.4162 432.911 49.8295C432.635 49.2429 432.498 48.5303 432.498 47.6918C432.498 46.8433 432.637 46.1274 432.916 45.544C433.197 44.9574 433.577 44.5149 434.054 44.2166C434.531 43.915 435.063 43.7642 435.65 43.7642C436.097 43.7642 436.465 43.8404 436.754 43.9929C437.042 44.142 437.271 44.3227 437.44 44.5348C437.609 44.7436 437.74 44.9408 437.832 45.1264H437.907V41.3182H439.712V51.5H437.942V50.2969H437.832C437.74 50.4825 437.605 50.6797 437.43 50.8885C437.254 51.094 437.022 51.2696 436.734 51.4155C436.445 51.5613 436.082 51.6342 435.645 51.6342ZM436.147 50.1577C436.528 50.1577 436.853 50.0549 437.121 49.8494C437.39 49.6406 437.594 49.3506 437.733 48.9794C437.872 48.6082 437.942 48.1757 437.942 47.6818C437.942 47.188 437.872 46.7588 437.733 46.3942C437.597 46.0296 437.395 45.7462 437.126 45.544C436.861 45.3419 436.535 45.2408 436.147 45.2408C435.746 45.2408 435.411 45.3452 435.143 45.554C434.874 45.7628 434.672 46.0511 434.536 46.419C434.4 46.7869 434.332 47.2079 434.332 47.6818C434.332 48.1591 434.4 48.585 434.536 48.9595C434.675 49.3307 434.879 49.6241 435.148 49.8395C435.42 50.0516 435.753 50.1577 436.147 50.1577ZM444.8 51.6491C444.035 51.6491 443.373 51.4901 442.817 51.1719C442.263 50.8504 441.837 50.3963 441.539 49.8097C441.241 49.2197 441.091 48.5253 441.091 47.7266C441.091 46.9411 441.241 46.2517 441.539 45.6584C441.84 45.0618 442.261 44.5978 442.802 44.2663C443.342 43.9316 443.977 43.7642 444.706 43.7642C445.176 43.7642 445.62 43.8404 446.038 43.9929C446.459 44.142 446.83 44.3741 447.152 44.6889C447.477 45.0038 447.732 45.4048 447.917 45.892C448.103 46.3759 448.196 46.9527 448.196 47.6222V48.174H441.937V46.9609H446.471C446.467 46.6162 446.393 46.3097 446.247 46.0412C446.101 45.7694 445.897 45.5556 445.635 45.3999C445.377 45.2441 445.075 45.1662 444.731 45.1662C444.363 45.1662 444.04 45.2557 443.761 45.4347C443.483 45.6103 443.266 45.8423 443.11 46.1307C442.957 46.4157 442.879 46.7289 442.876 47.0703V48.1293C442.876 48.5734 442.957 48.9545 443.12 49.2727C443.282 49.5876 443.509 49.8295 443.801 49.9986C444.093 50.1643 444.434 50.2472 444.825 50.2472C445.087 50.2472 445.324 50.2107 445.536 50.1378C445.748 50.0616 445.932 49.9505 446.088 49.8047C446.244 49.6589 446.361 49.4782 446.441 49.2628L448.121 49.4517C448.015 49.8958 447.813 50.2836 447.515 50.6151C447.22 50.9432 446.842 51.1984 446.381 51.3807C445.92 51.5597 445.393 51.6491 444.8 51.6491ZM452.771 51.5V43.8636H454.571V51.5H452.771ZM453.676 42.7798C453.391 42.7798 453.145 42.6854 452.94 42.4964C452.735 42.3042 452.632 42.0739 452.632 41.8054C452.632 41.5336 452.735 41.3033 452.94 41.1143C453.145 40.9221 453.391 40.826 453.676 40.826C453.964 40.826 454.209 40.9221 454.412 41.1143C454.617 41.3033 454.72 41.5336 454.72 41.8054C454.72 42.0739 454.617 42.3042 454.412 42.4964C454.209 42.6854 453.964 42.7798 453.676 42.7798ZM458.011 47.0256V51.5H456.211V43.8636H457.932V45.1612H458.021C458.197 44.7337 458.477 44.3939 458.861 44.142C459.249 43.8902 459.728 43.7642 460.298 43.7642C460.825 43.7642 461.284 43.8769 461.675 44.1023C462.07 44.3277 462.374 44.6541 462.59 45.0817C462.809 45.5092 462.916 46.0279 462.913 46.6378V51.5H461.113V46.9162C461.113 46.4058 460.981 46.0064 460.716 45.718C460.454 45.4297 460.091 45.2855 459.627 45.2855C459.312 45.2855 459.032 45.3551 458.787 45.4943C458.545 45.6302 458.354 45.8274 458.215 46.0859C458.079 46.3445 458.011 46.6577 458.011 47.0256ZM467.875 51.5V41.3182H469.719V45.9964H469.844L473.816 41.3182H476.068L472.13 45.8871L476.103 51.5H473.885L470.848 47.1349L469.719 48.4673V51.5H467.875ZM477.06 51.5V43.8636H478.805V45.1364H478.884C479.024 44.6955 479.262 44.3558 479.6 44.1172C479.942 43.8752 480.331 43.7543 480.769 43.7543C480.868 43.7543 480.979 43.7592 481.102 43.7692C481.228 43.7758 481.332 43.7874 481.415 43.804V45.4595C481.339 45.433 481.218 45.4098 481.052 45.3899C480.89 45.3667 480.732 45.3551 480.58 45.3551C480.252 45.3551 479.957 45.4264 479.695 45.5689C479.436 45.7081 479.232 45.902 479.083 46.1506C478.934 46.3991 478.86 46.6858 478.86 47.0107V51.5H477.06ZM484.461 51.6541C483.977 51.6541 483.542 51.5679 483.154 51.3956C482.769 51.2199 482.464 50.9614 482.239 50.62C482.017 50.2786 481.906 49.8577 481.906 49.3572C481.906 48.9264 481.986 48.5701 482.145 48.2884C482.304 48.0066 482.521 47.7812 482.796 47.6122C483.071 47.4432 483.381 47.3156 483.726 47.2294C484.074 47.1399 484.433 47.0753 484.804 47.0355C485.252 46.9891 485.615 46.9477 485.893 46.9112C486.172 46.8714 486.374 46.8118 486.5 46.7322C486.629 46.6494 486.694 46.5218 486.694 46.3494V46.3196C486.694 45.9451 486.583 45.6551 486.361 45.4496C486.138 45.2441 485.819 45.1413 485.401 45.1413C484.96 45.1413 484.611 45.2375 484.352 45.4297C484.097 45.6219 483.924 45.849 483.835 46.1108L482.155 45.8722C482.287 45.4081 482.506 45.0204 482.811 44.7088C483.116 44.3939 483.489 44.1586 483.929 44.0028C484.37 43.8438 484.857 43.7642 485.391 43.7642C485.759 43.7642 486.125 43.8073 486.49 43.8935C486.854 43.9796 487.187 44.1222 487.489 44.321C487.791 44.5166 488.033 44.7834 488.215 45.1214C488.401 45.4595 488.493 45.8821 488.493 46.3892V51.5H486.763V50.451H486.704C486.594 50.6631 486.44 50.862 486.241 51.0476C486.046 51.2299 485.799 51.3774 485.5 51.4901C485.205 51.5994 484.859 51.6541 484.461 51.6541ZM484.929 50.3317C485.29 50.3317 485.603 50.2604 485.868 50.1179C486.133 49.9721 486.337 49.7798 486.48 49.5412C486.626 49.3026 486.699 49.0424 486.699 48.7607V47.8608C486.642 47.9072 486.546 47.9503 486.41 47.9901C486.278 48.0298 486.129 48.0646 485.963 48.0945C485.797 48.1243 485.633 48.1508 485.471 48.174C485.308 48.1972 485.167 48.2171 485.048 48.2337C484.78 48.2701 484.539 48.3298 484.327 48.4126C484.115 48.4955 483.948 48.6115 483.825 48.7607C483.702 48.9065 483.641 49.0954 483.641 49.3274C483.641 49.6589 483.762 49.9091 484.004 50.0781C484.246 50.2472 484.554 50.3317 484.929 50.3317ZM491.734 49.1037L491.729 46.9311H492.017L494.761 43.8636H496.864L493.489 47.6222H493.116L491.734 49.1037ZM490.093 51.5V41.3182H491.893V51.5H490.093ZM494.886 51.5L492.4 48.0249L493.613 46.7571L497.038 51.5H494.886ZM500.87 51.6491C500.124 51.6491 499.478 51.4851 498.931 51.157C498.384 50.8288 497.96 50.3698 497.659 49.7798C497.36 49.1899 497.211 48.5005 497.211 47.7116C497.211 46.9228 497.36 46.2318 497.659 45.6385C497.96 45.0452 498.384 44.5845 498.931 44.2564C499.478 43.9283 500.124 43.7642 500.87 43.7642C501.616 43.7642 502.262 43.9283 502.809 44.2564C503.356 44.5845 503.779 45.0452 504.077 45.6385C504.379 46.2318 504.529 46.9228 504.529 47.7116C504.529 48.5005 504.379 49.1899 504.077 49.7798C503.779 50.3698 503.356 50.8288 502.809 51.157C502.262 51.4851 501.616 51.6491 500.87 51.6491ZM500.88 50.2074C501.285 50.2074 501.623 50.0964 501.894 49.8743C502.166 49.6489 502.368 49.3473 502.501 48.9695C502.637 48.5916 502.705 48.1707 502.705 47.7067C502.705 47.2393 502.637 46.8168 502.501 46.4389C502.368 46.0578 502.166 45.7545 501.894 45.5291C501.623 45.3037 501.285 45.1911 500.88 45.1911C500.466 45.1911 500.121 45.3037 499.846 45.5291C499.574 45.7545 499.37 46.0578 499.235 46.4389C499.102 46.8168 499.036 47.2393 499.036 47.7067C499.036 48.1707 499.102 48.5916 499.235 48.9695C499.37 49.3473 499.574 49.6489 499.846 49.8743C500.121 50.0964 500.466 50.2074 500.88 50.2074ZM500.179 42.8594L501.293 40.5874H503.053L501.526 42.8594H500.179ZM507.204 51.5L505.046 43.8636H506.881L508.223 49.233H508.293L509.665 43.8636H511.48L512.852 49.2031H512.926L514.249 43.8636H516.088L513.926 51.5H512.051L510.62 46.3395H510.515L509.083 51.5H507.204Z" fill="#F1EFEF"/>
</svg>
