<svg width="376" height="51" viewBox="0 0 376 51" fill="none" xmlns="http://www.w3.org/2000/svg">
<rect y="4.5" width="41" height="41" rx="9" fill="#F0C808"/>
<path d="M23.8313 20.5583C23.8313 18.5705 23.8313 17.5766 24.2836 16.8491C24.5266 16.4584 24.8563 16.1287 25.247 15.8857C25.9746 15.4333 26.9685 15.4333 28.9563 15.4333V15.4333C30.9441 15.4333 31.938 15.4333 32.6655 15.8857C33.0562 16.1287 33.3859 16.4584 33.6289 16.8491C34.0813 17.5766 34.0813 18.5705 34.0813 20.5583V31.3C34.0813 34.1284 34.0813 35.5426 33.2026 36.4213C32.3239 37.3 30.9097 37.3 28.0813 37.3H23.8313V20.5583Z" fill="#25282D"/>
<rect x="6.91875" y="19.5333" width="8.2" height="17.7667" rx="3" fill="#2C2F34"/>
<path d="M9.99375 20.5583C9.99375 18.5705 9.99375 17.5766 10.4461 16.8491C10.6891 16.4584 11.0188 16.1287 11.4095 15.8857C12.1371 15.4333 13.131 15.4333 15.1187 15.4333V15.4333C17.1065 15.4333 18.1004 15.4333 18.828 15.8857C19.2187 16.1287 19.5484 16.4584 19.7914 16.8491C20.2437 17.5766 20.2437 18.5705 20.2437 20.5583V37.3H9.99375V20.5583Z" fill="#25282D"/>
<path d="M16.3146 18.7C16.3146 15.8716 16.3146 14.4574 17.1933 13.5787C18.0719 12.7 19.4862 12.7 22.3146 12.7H23.9812C26.8097 12.7 28.2239 12.7 29.1026 13.5787C29.9812 14.4574 29.9812 15.8716 29.9812 18.7V37.3H16.3146V18.7Z" fill="#0D1117"/>
<path d="M23.2333 28.8267C22.0933 28.6362 20.5 27.87 20.5 27.87C20.5 27.87 21.7583 29.7833 23.2333 29.7833C24.7083 29.7833 25.9667 28.8267 25.9667 28.8267C25.9667 28.8267 24.2641 28.9989 23.2333 28.8267Z" fill="#F0C808"/>
<ellipse cx="26.5361" cy="23.6846" rx="1.025" ry="1.07625" fill="#F0C808"/>
<ellipse cx="19.9306" cy="23.6846" rx="1.025" ry="1.07625" fill="#F0C808"/>
<path d="M78.2184 8.27273V41H72.2418L58.0036 20.4016H57.7638V41H50.8445V8.27273H56.9169L71.0433 28.8551H71.331V8.27273H78.2184ZM89.4567 41.4634C87.8907 41.4634 86.4951 41.1918 85.2699 40.6484C84.0448 40.0945 83.0753 39.2795 82.3616 38.2035C81.6584 37.1168 81.3069 35.7638 81.3069 34.1445C81.3069 32.7809 81.5572 31.6357 82.0579 30.7088C82.5586 29.782 83.2405 29.0362 84.1034 28.4716C84.9663 27.907 85.9464 27.4808 87.0437 27.1932C88.1517 26.9055 89.3129 26.7031 90.5274 26.5859C91.955 26.4368 93.1055 26.2983 93.9791 26.1705C94.8527 26.032 95.4866 25.8295 95.8807 25.5632C96.2749 25.2969 96.472 24.9027 96.472 24.3807V24.2848C96.472 23.2727 96.1524 22.4897 95.5132 21.9357C94.8846 21.3817 93.9898 21.1048 92.8285 21.1048C91.6034 21.1048 90.6286 21.3764 89.9042 21.9197C89.1797 22.4524 88.7003 23.1236 88.466 23.9332L82.1698 23.4219C82.4894 21.9304 83.118 20.6413 84.0555 19.5547C84.993 18.4574 86.2021 17.6158 87.6829 17.0298C89.1744 16.4332 90.9003 16.1349 92.8605 16.1349C94.2241 16.1349 95.5292 16.2947 96.7756 16.6143C98.0327 16.9339 99.146 17.4293 100.115 18.1005C101.096 18.7717 101.868 19.6346 102.433 20.6893C102.997 21.7333 103.28 22.9851 103.28 24.4446V41H96.8236V37.5962H96.6318C96.2376 38.3633 95.7103 39.0398 95.0498 39.6257C94.3893 40.201 93.5956 40.6538 92.6687 40.984C91.7419 41.3036 90.6712 41.4634 89.4567 41.4634ZM91.4063 36.7653C92.4077 36.7653 93.292 36.5682 94.059 36.174C94.826 35.7692 95.428 35.2259 95.8648 34.544C96.3015 33.8622 96.5199 33.0898 96.5199 32.2269V29.6222C96.3069 29.7607 96.0139 29.8885 95.641 30.0057C95.2788 30.1122 94.8687 30.2134 94.4106 30.3093C93.9525 30.3945 93.4944 30.4744 93.0363 30.549C92.5782 30.6129 92.1627 30.6715 91.7898 30.7248C90.9908 30.842 90.293 31.0284 89.6964 31.2841C89.0998 31.5398 88.6364 31.886 88.3062 32.3228C87.9759 32.7489 87.8108 33.2816 87.8108 33.9208C87.8108 34.8477 88.1464 35.5561 88.8175 36.0462C89.4993 36.5256 90.3623 36.7653 91.4063 36.7653ZM129.216 16.4545L120.634 41H112.964L104.382 16.4545H111.574L116.671 34.0167H116.927L122.009 16.4545H129.216ZM131.349 41V16.4545H138.157V41H131.349ZM134.769 13.2905C133.757 13.2905 132.889 12.9549 132.164 12.2837C131.45 11.6019 131.094 10.7869 131.094 9.83878C131.094 8.90128 131.45 8.09695 132.164 7.42578C132.889 6.74396 133.757 6.40305 134.769 6.40305C135.781 6.40305 136.644 6.74396 137.358 7.42578C138.082 8.09695 138.444 8.90128 138.444 9.83878C138.444 10.7869 138.082 11.6019 137.358 12.2837C136.644 12.9549 135.781 13.2905 134.769 13.2905ZM153.318 50.7159C151.113 50.7159 149.222 50.4123 147.645 49.805C146.079 49.2085 144.833 48.3935 143.906 47.3601C142.979 46.3267 142.377 45.1655 142.1 43.8764L148.396 43.0295C148.588 43.5195 148.892 43.9776 149.307 44.4038C149.723 44.8299 150.271 45.1708 150.953 45.4265C151.646 45.6928 152.487 45.826 153.478 45.826C154.959 45.826 156.179 45.4638 157.137 44.7393C158.107 44.0256 158.592 42.8271 158.592 41.1438V36.6534H158.304C158.006 37.3352 157.558 37.9798 156.962 38.587C156.365 39.1942 155.598 39.6896 154.661 40.0732C153.723 40.4567 152.604 40.6484 151.305 40.6484C149.462 40.6484 147.784 40.2223 146.271 39.37C144.769 38.5071 143.57 37.1914 142.675 35.4229C141.791 33.6438 141.349 31.396 141.349 28.6793C141.349 25.8988 141.802 23.5763 142.707 21.712C143.613 19.8477 144.817 18.4521 146.319 17.5252C147.832 16.5984 149.488 16.1349 151.289 16.1349C152.663 16.1349 153.814 16.3693 154.74 16.8381C155.667 17.2962 156.413 17.8714 156.978 18.5639C157.553 19.2457 157.995 19.9169 158.304 20.5774H158.56V16.4545H165.319V41.2397C165.319 43.3278 164.808 45.0749 163.785 46.4812C162.762 47.8874 161.346 48.9421 159.534 49.6452C157.734 50.359 155.662 50.7159 153.318 50.7159ZM153.462 35.5348C154.559 35.5348 155.486 35.2631 156.243 34.7198C157.01 34.1658 157.596 33.3775 158 32.3548C158.416 31.3214 158.624 30.0856 158.624 28.6474C158.624 27.2092 158.421 25.9627 158.016 24.908C157.612 23.8427 157.026 23.017 156.259 22.4311C155.492 21.8452 154.559 21.5522 153.462 21.5522C152.343 21.5522 151.401 21.8558 150.634 22.4631C149.867 23.0597 149.286 23.8906 148.892 24.956C148.498 26.0213 148.3 27.2518 148.3 28.6474C148.3 30.0643 148.498 31.2894 148.892 32.3228C149.297 33.3455 149.877 34.1392 150.634 34.7038C151.401 35.2578 152.343 35.5348 153.462 35.5348ZM176.386 41.4634C174.82 41.4634 173.424 41.1918 172.199 40.6484C170.974 40.0945 170.004 39.2795 169.291 38.2035C168.588 37.1168 168.236 35.7638 168.236 34.1445C168.236 32.7809 168.486 31.6357 168.987 30.7088C169.488 29.782 170.17 29.0362 171.032 28.4716C171.895 27.907 172.876 27.4808 173.973 27.1932C175.081 26.9055 176.242 26.7031 177.456 26.5859C178.884 26.4368 180.035 26.2983 180.908 26.1705C181.782 26.032 182.416 25.8295 182.81 25.5632C183.204 25.2969 183.401 24.9027 183.401 24.3807V24.2848C183.401 23.2727 183.081 22.4897 182.442 21.9357C181.814 21.3817 180.919 21.1048 179.758 21.1048C178.532 21.1048 177.558 21.3764 176.833 21.9197C176.109 22.4524 175.629 23.1236 175.395 23.9332L169.099 23.4219C169.419 21.9304 170.047 20.6413 170.985 19.5547C171.922 18.4574 173.131 17.6158 174.612 17.0298C176.104 16.4332 177.829 16.1349 179.79 16.1349C181.153 16.1349 182.458 16.2947 183.705 16.6143C184.962 16.9339 186.075 17.4293 187.045 18.1005C188.025 18.7717 188.797 19.6346 189.362 20.6893C189.926 21.7333 190.209 22.9851 190.209 24.4446V41H183.753V37.5962H183.561C183.167 38.3633 182.639 39.0398 181.979 39.6257C181.318 40.201 180.525 40.6538 179.598 40.984C178.671 41.3036 177.6 41.4634 176.386 41.4634ZM178.335 36.7653C179.337 36.7653 180.221 36.5682 180.988 36.174C181.755 35.7692 182.357 35.2259 182.794 34.544C183.231 33.8622 183.449 33.0898 183.449 32.2269V29.6222C183.236 29.7607 182.943 29.8885 182.57 30.0057C182.208 30.1122 181.798 30.2134 181.34 30.3093C180.882 30.3945 180.423 30.4744 179.965 30.549C179.507 30.6129 179.092 30.6715 178.719 30.7248C177.92 30.842 177.222 31.0284 176.626 31.2841C176.029 31.5398 175.566 31.886 175.235 32.3228C174.905 32.7489 174.74 33.2816 174.74 33.9208C174.74 34.8477 175.075 35.5561 175.747 36.0462C176.428 36.5256 177.291 36.7653 178.335 36.7653ZM207.196 16.4545V21.5682H192.414V16.4545H207.196ZM195.77 10.5739H202.578V33.4574C202.578 34.0859 202.673 34.576 202.865 34.9276C203.057 35.2685 203.323 35.5082 203.664 35.6467C204.016 35.7852 204.421 35.8544 204.879 35.8544C205.198 35.8544 205.518 35.8278 205.837 35.7745C206.157 35.7106 206.402 35.6626 206.573 35.6307L207.643 40.6964C207.302 40.8029 206.823 40.9254 206.205 41.0639C205.587 41.2131 204.836 41.3036 203.952 41.3356C202.311 41.3995 200.873 41.1811 199.637 40.6804C198.412 40.1797 197.459 39.402 196.777 38.3473C196.095 37.2926 195.759 35.9609 195.77 34.3523V10.5739ZM210.28 41V16.4545H217.088V41H210.28ZM213.7 13.2905C212.688 13.2905 211.82 12.9549 211.095 12.2837C210.382 11.6019 210.025 10.7869 210.025 9.83878C210.025 8.90128 210.382 8.09695 211.095 7.42578C211.82 6.74396 212.688 6.40305 213.7 6.40305C214.712 6.40305 215.575 6.74396 216.289 7.42578C217.013 8.09695 217.375 8.90128 217.375 9.83878C217.375 10.7869 217.013 11.6019 216.289 12.2837C215.575 12.9549 214.712 13.2905 213.7 13.2905ZM232.281 41.4794C229.799 41.4794 227.652 40.9521 225.841 39.8974C224.041 38.832 222.651 37.3512 221.67 35.4549C220.69 33.5479 220.2 31.3374 220.2 28.8232C220.2 26.2876 220.69 24.0717 221.67 22.1754C222.651 20.2685 224.041 18.7876 225.841 17.733C227.652 16.6676 229.799 16.1349 232.281 16.1349C234.763 16.1349 236.905 16.6676 238.705 17.733C240.516 18.7876 241.912 20.2685 242.892 22.1754C243.872 24.0717 244.362 26.2876 244.362 28.8232C244.362 31.3374 243.872 33.5479 242.892 35.4549C241.912 37.3512 240.516 38.832 238.705 39.8974C236.905 40.9521 234.763 41.4794 232.281 41.4794ZM232.313 36.206C233.442 36.206 234.385 35.8864 235.142 35.2472C235.898 34.5973 236.468 33.7131 236.852 32.5945C237.246 31.4759 237.443 30.2028 237.443 28.7752C237.443 27.3477 237.246 26.0746 236.852 24.956C236.468 23.8374 235.898 22.9531 235.142 22.3033C234.385 21.6534 233.442 21.3285 232.313 21.3285C231.173 21.3285 230.214 21.6534 229.437 22.3033C228.67 22.9531 228.089 23.8374 227.695 24.956C227.311 26.0746 227.12 27.3477 227.12 28.7752C227.12 30.2028 227.311 31.4759 227.695 32.5945C228.089 33.7131 228.67 34.5973 229.437 35.2472C230.214 35.8864 231.173 36.206 232.313 36.206ZM254.246 26.8097V41H247.439V16.4545H253.927V20.7852H254.214C254.758 19.3576 255.668 18.2283 256.947 17.3974C258.225 16.5558 259.775 16.1349 261.597 16.1349C263.302 16.1349 264.788 16.5078 266.056 17.2536C267.323 17.9993 268.309 19.0646 269.012 20.4496C269.715 21.8239 270.067 23.4645 270.067 25.3714V41H263.259V26.5859C263.27 25.0838 262.886 23.9119 262.108 23.0703C261.331 22.218 260.26 21.7919 258.896 21.7919C257.98 21.7919 257.171 21.989 256.467 22.3832C255.775 22.7773 255.232 23.3526 254.837 24.109C254.454 24.8548 254.257 25.755 254.246 26.8097ZM277.837 8.27273L285.747 33.1378H286.051L293.977 8.27273H301.648L290.366 41H281.449L270.151 8.27273H277.837ZM304.109 41V16.4545H310.916V41H304.109ZM307.529 13.2905C306.516 13.2905 305.648 12.9549 304.924 12.2837C304.21 11.6019 303.853 10.7869 303.853 9.83878C303.853 8.90128 304.21 8.09695 304.924 7.42578C305.648 6.74396 306.516 6.40305 307.529 6.40305C308.541 6.40305 309.404 6.74396 310.117 7.42578C310.842 8.09695 311.204 8.90128 311.204 9.83878C311.204 10.7869 310.842 11.6019 310.117 12.2837C309.404 12.9549 308.541 13.2905 307.529 13.2905ZM326.206 41.4794C323.681 41.4794 321.507 40.968 319.686 39.9453C317.875 38.9119 316.479 37.4524 315.499 35.5668C314.519 33.6705 314.029 31.4279 314.029 28.8391C314.029 26.3143 314.519 24.0984 315.499 22.1914C316.479 20.2844 317.859 18.7983 319.638 17.733C321.428 16.6676 323.526 16.1349 325.934 16.1349C327.553 16.1349 329.061 16.396 330.456 16.918C331.863 17.4293 333.088 18.2017 334.132 19.2351C335.186 20.2685 336.007 21.5682 336.593 23.1342C337.179 24.6896 337.472 26.5114 337.472 28.5994V30.4691H316.745V26.2504H331.064C331.064 25.2702 330.851 24.402 330.424 23.6456C329.998 22.8892 329.407 22.2979 328.651 21.8718C327.905 21.435 327.037 21.2166 326.046 21.2166C325.012 21.2166 324.096 21.4563 323.297 21.9357C322.509 22.4045 321.891 23.0384 321.444 23.8374C320.996 24.6257 320.767 25.5046 320.756 26.4741V30.4851C320.756 31.6996 320.98 32.7489 321.428 33.6332C321.886 34.5174 322.53 35.1992 323.361 35.6786C324.192 36.158 325.178 36.3977 326.317 36.3977C327.074 36.3977 327.766 36.2912 328.395 36.0781C329.023 35.8651 329.561 35.5455 330.009 35.1193C330.456 34.6932 330.797 34.1712 331.032 33.5533L337.328 33.9688C337.008 35.4815 336.353 36.8026 335.362 37.9318C334.382 39.0504 333.114 39.924 331.559 40.5526C330.014 41.1705 328.23 41.4794 326.206 41.4794ZM345.23 41L338.551 16.4545H345.438L349.241 32.946H349.465L353.428 16.4545H360.188L364.215 32.8501H364.422L368.162 16.4545H375.033L368.369 41H361.162L356.944 25.5632H356.64L352.421 41H345.23Z" fill="url(#paint0_linear_4_2860)"/>
<defs>
<linearGradient id="paint0_linear_4_2860" x1="212" y1="-2" x2="212" y2="52" gradientUnits="userSpaceOnUse">
<stop stop-color="#24292F"/>
<stop offset="1" stop-color="#37414D"/>
</linearGradient>
</defs>
</svg>
