<svg width="97" height="26" viewBox="0 0 97 26" fill="none" xmlns="http://www.w3.org/2000/svg">
<path d="M1 12C1 6.34315 1 3.51472 2.75736 1.75736C4.51472 0 7.34315 0 13 0H61V26H13C7.34315 26 4.51472 26 2.75736 24.2426C1 22.4853 1 19.6569 1 14V12Z" fill="#3F3F3F"/>
<path d="M6.82173 18V8.54545H8.82067V16.3519H12.8739V18H6.82173ZM14.1608 18V10.9091H16.1274V18H14.1608ZM15.1487 9.99503C14.8563 9.99503 14.6055 9.89808 14.3962 9.70419C14.19 9.50722 14.0869 9.27178 14.0869 8.99787C14.0869 8.72704 14.19 8.49467 14.3962 8.30078C14.6055 8.10381 14.8563 8.00533 15.1487 8.00533C15.4411 8.00533 15.6904 8.10381 15.8966 8.30078C16.1059 8.49467 16.2105 8.72704 16.2105 8.99787C16.2105 9.27178 16.1059 9.50722 15.8966 9.70419C15.6904 9.89808 15.4411 9.99503 15.1487 9.99503ZM20.9066 18.1385C20.1803 18.1385 19.5555 17.9846 19.0323 17.6768C18.5122 17.366 18.1121 16.9351 17.832 16.3842C17.555 15.8333 17.4165 15.1993 17.4165 14.4822C17.4165 13.7559 17.5566 13.1188 17.8366 12.571C18.1198 12.0201 18.5214 11.5908 19.0415 11.283C19.5617 10.9722 20.1803 10.8168 20.8974 10.8168C21.516 10.8168 22.0576 10.9291 22.5224 11.1538C22.9871 11.3784 23.3549 11.6939 23.6257 12.1001C23.8965 12.5064 24.0458 12.9834 24.0735 13.5312H22.2177C22.1654 13.1773 22.0269 12.8926 21.8022 12.6772C21.5806 12.4587 21.2898 12.3494 20.9297 12.3494C20.625 12.3494 20.3588 12.4325 20.131 12.5987C19.9064 12.7618 19.7309 13.0004 19.6048 13.3143C19.4786 13.6282 19.4155 14.0083 19.4155 14.4545C19.4155 14.907 19.477 15.2917 19.6001 15.6087C19.7263 15.9257 19.9033 16.1673 20.131 16.3335C20.3588 16.4996 20.625 16.5827 20.9297 16.5827C21.1544 16.5827 21.3559 16.5366 21.5344 16.4442C21.716 16.3519 21.8653 16.218 21.9822 16.0426C22.1023 15.8641 22.1808 15.6502 22.2177 15.4009H24.0735C24.0427 15.9426 23.895 16.4196 23.6303 16.832C23.3687 17.2414 23.0071 17.5614 22.5455 17.7923C22.0838 18.0231 21.5375 18.1385 20.9066 18.1385ZM28.5642 18.1385C27.8348 18.1385 27.2069 17.9908 26.6807 17.6953C26.1575 17.3968 25.7543 16.9751 25.4711 16.4304C25.188 15.8826 25.0464 15.2347 25.0464 14.4869C25.0464 13.7575 25.188 13.1173 25.4711 12.5664C25.7543 12.0155 26.1528 11.5862 26.6668 11.2784C27.1839 10.9706 27.7902 10.8168 28.4857 10.8168C28.9535 10.8168 29.389 10.8922 29.7922 11.043C30.1984 11.1907 30.5523 11.4138 30.854 11.7124C31.1586 12.0109 31.3956 12.3864 31.5649 12.8388C31.7342 13.2881 31.8188 13.8144 31.8188 14.4176V14.9577H25.8312V13.739H29.9676C29.9676 13.4558 29.906 13.205 29.7829 12.9865C29.6598 12.768 29.489 12.5972 29.2705 12.4741C29.0551 12.3479 28.8042 12.2848 28.518 12.2848C28.2195 12.2848 27.9548 12.354 27.724 12.4925C27.4962 12.628 27.3177 12.8111 27.1885 13.0419C27.0592 13.2696 26.993 13.5236 26.99 13.8036V14.9624C26.99 15.3132 27.0546 15.6164 27.1839 15.8718C27.3162 16.1272 27.5024 16.3242 27.7425 16.4627C27.9825 16.6012 28.2672 16.6705 28.5965 16.6705C28.815 16.6705 29.0151 16.6397 29.1966 16.5781C29.3782 16.5166 29.5336 16.4242 29.6629 16.3011C29.7922 16.178 29.8907 16.0272 29.9584 15.8487L31.7773 15.9688C31.6849 16.4058 31.4957 16.7874 31.2094 17.1136C30.9263 17.4368 30.56 17.6892 30.1107 17.8707C29.6644 18.0492 29.1489 18.1385 28.5642 18.1385ZM35.0688 13.9006V18H33.1022V10.9091H34.9765V12.1602H35.0596C35.2165 11.7478 35.4797 11.4215 35.849 11.1815C36.2183 10.9383 36.6661 10.8168 37.1924 10.8168C37.6848 10.8168 38.1141 10.9245 38.4804 11.1399C38.8466 11.3554 39.1313 11.6631 39.3344 12.0632C39.5376 12.4602 39.6391 12.9342 39.6391 13.4851V18H37.6725V13.8359C37.6756 13.402 37.5648 13.0634 37.3401 12.8203C37.1154 12.5741 36.8061 12.451 36.4122 12.451C36.1475 12.451 35.9136 12.5079 35.7105 12.6218C35.5104 12.7357 35.3535 12.9019 35.2396 13.1204C35.1288 13.3358 35.0719 13.5959 35.0688 13.9006ZM47.089 12.9311L45.2885 13.0419C45.2578 12.888 45.1916 12.7495 45.09 12.6264C44.9885 12.5002 44.8546 12.4002 44.6884 12.3263C44.5253 12.2494 44.3298 12.2109 44.1021 12.2109C43.7974 12.2109 43.5404 12.2756 43.3311 12.4048C43.1219 12.531 43.0172 12.7003 43.0172 12.9126C43.0172 13.0819 43.0849 13.225 43.2203 13.342C43.3558 13.4589 43.5881 13.5528 43.9174 13.6236L45.2008 13.8821C45.8902 14.0237 46.4042 14.2514 46.7427 14.5653C47.0813 14.8793 47.2505 15.2917 47.2505 15.8026C47.2505 16.2673 47.1136 16.6751 46.8397 17.0259C46.5688 17.3768 46.1964 17.6507 45.7225 17.8477C45.2516 18.0415 44.7084 18.1385 44.0929 18.1385C43.1542 18.1385 42.4063 17.9431 41.8493 17.5522C41.2953 17.1583 40.9706 16.6228 40.8752 15.9457L42.8095 15.8441C42.868 16.1303 43.0095 16.3488 43.2342 16.4996C43.4589 16.6474 43.7466 16.7212 44.0975 16.7212C44.4422 16.7212 44.7192 16.6551 44.9284 16.5227C45.1408 16.3873 45.2485 16.2134 45.2516 16.0011C45.2485 15.8226 45.1731 15.6764 45.0254 15.5625C44.8777 15.4455 44.6499 15.3563 44.3422 15.2947L43.1142 15.0501C42.4217 14.9116 41.9062 14.6715 41.5676 14.3299C41.2322 13.9883 41.0645 13.5528 41.0645 13.0234C41.0645 12.5679 41.1876 12.1755 41.4338 11.8462C41.6831 11.5169 42.0324 11.263 42.4817 11.0845C42.9341 10.906 43.4635 10.8168 44.0698 10.8168C44.9654 10.8168 45.6702 11.006 46.1841 11.3846C46.7012 11.7631 47.0028 12.2786 47.089 12.9311ZM51.7204 18.1385C50.991 18.1385 50.3632 17.9908 49.8369 17.6953C49.3137 17.3968 48.9105 16.9751 48.6274 16.4304C48.3443 15.8826 48.2027 15.2347 48.2027 14.4869C48.2027 13.7575 48.3443 13.1173 48.6274 12.5664C48.9105 12.0155 49.3091 11.5862 49.8231 11.2784C50.3401 10.9706 50.9464 10.8168 51.642 10.8168C52.1098 10.8168 52.5452 10.8922 52.9484 11.043C53.3547 11.1907 53.7086 11.4138 54.0102 11.7124C54.3149 12.0109 54.5519 12.3864 54.7211 12.8388C54.8904 13.2881 54.9751 13.8144 54.9751 14.4176V14.9577H48.9875V13.739H53.1238C53.1238 13.4558 53.0623 13.205 52.9392 12.9865C52.8161 12.768 52.6453 12.5972 52.4268 12.4741C52.2113 12.3479 51.9605 12.2848 51.6743 12.2848C51.3757 12.2848 51.1111 12.354 50.8802 12.4925C50.6525 12.628 50.474 12.8111 50.3447 13.0419C50.2155 13.2696 50.1493 13.5236 50.1462 13.8036V14.9624C50.1462 15.3132 50.2108 15.6164 50.3401 15.8718C50.4724 16.1272 50.6586 16.3242 50.8987 16.4627C51.1388 16.6012 51.4234 16.6705 51.7528 16.6705C51.9713 16.6705 52.1713 16.6397 52.3529 16.5781C52.5345 16.5166 52.6899 16.4242 52.8192 16.3011C52.9484 16.178 53.0469 16.0272 53.1146 15.8487L54.9335 15.9688C54.8412 16.4058 54.6519 16.7874 54.3657 17.1136C54.0825 17.4368 53.7163 17.6892 53.267 17.8707C52.8207 18.0492 52.3052 18.1385 51.7204 18.1385Z" fill="white"/>
<path d="M61 0H84C89.6569 0 92.4853 0 94.2426 1.75736C96 3.51472 96 6.34315 96 12V14C96 19.6569 96 22.4853 94.2426 24.2426C92.4853 26 89.6569 26 84 26H61V0Z" fill="#533DA3"/>
<path d="M66.8217 8.54545H69.2869L71.8906 14.8977H72.0014L74.6051 8.54545H77.0703V18H75.1314V11.8462H75.0529L72.6062 17.9538H71.2859L68.8391 11.8232H68.7607V18H66.8217V8.54545ZM80.7162 8.54545V18H78.7172V8.54545H80.7162ZM82.0007 10.1935V8.54545H89.7656V10.1935H86.8711V18H84.8952V10.1935H82.0007Z" fill="white"/>
</svg>
