<svg width="181" height="26" viewBox="0 0 181 26" fill="none" xmlns="http://www.w3.org/2000/svg">
<path d="M1 12C1 6.34315 1 3.51472 2.75736 1.75736C4.51472 0 7.34315 0 13 0H60V26H13C7.34315 26 4.51472 26 2.75736 24.2426C1 22.4853 1 19.6569 1 14V12Z" fill="#3F3F3F"/>
<path d="M8.52983 8.54545L10.815 15.7287H10.9027L13.1925 8.54545H15.4084L12.1491 18H9.57315L6.3093 8.54545H8.52983ZM18.9411 18.1385C18.2117 18.1385 17.5839 17.9908 17.0576 17.6953C16.5344 17.3968 16.1312 16.9751 15.8481 16.4304C15.565 15.8826 15.4234 15.2347 15.4234 14.4869C15.4234 13.7575 15.565 13.1173 15.8481 12.5664C16.1312 12.0155 16.5298 11.5862 17.0438 11.2784C17.5608 10.9706 18.1671 10.8168 18.8627 10.8168C19.3305 10.8168 19.766 10.8922 20.1691 11.043C20.5754 11.1907 20.9293 11.4138 21.2309 11.7124C21.5356 12.0109 21.7726 12.3864 21.9419 12.8388C22.1111 13.2881 22.1958 13.8144 22.1958 14.4176V14.9577H16.2082V13.739H20.3445C20.3445 13.4558 20.283 13.205 20.1599 12.9865C20.0368 12.768 19.866 12.5972 19.6475 12.4741C19.432 12.3479 19.1812 12.2848 18.895 12.2848C18.5964 12.2848 18.3318 12.354 18.1009 12.4925C17.8732 12.628 17.6947 12.8111 17.5654 13.0419C17.4362 13.2696 17.37 13.5236 17.3669 13.8036V14.9624C17.3669 15.3132 17.4316 15.6164 17.5608 15.8718C17.6932 16.1272 17.8794 16.3242 18.1194 16.4627C18.3595 16.6012 18.6441 16.6705 18.9735 16.6705C19.192 16.6705 19.392 16.6397 19.5736 16.5781C19.7552 16.5166 19.9106 16.4242 20.0399 16.3011C20.1691 16.178 20.2676 16.0272 20.3353 15.8487L22.1542 15.9688C22.0619 16.4058 21.8726 16.7874 21.5864 17.1136C21.3032 17.4368 20.937 17.6892 20.4877 17.8707C20.0414 18.0492 19.5259 18.1385 18.9411 18.1385ZM23.4791 18V10.9091H25.3857V12.1463H25.4596C25.5889 11.7062 25.8058 11.3738 26.1105 11.1491C26.4152 10.9214 26.7661 10.8075 27.1631 10.8075C27.2616 10.8075 27.3677 10.8137 27.4816 10.826C27.5955 10.8383 27.6955 10.8552 27.7817 10.8768V12.6218C27.6894 12.5941 27.5616 12.5695 27.3985 12.5479C27.2354 12.5264 27.0861 12.5156 26.9507 12.5156C26.6614 12.5156 26.4029 12.5787 26.1752 12.7049C25.9505 12.828 25.772 13.0004 25.6396 13.2219C25.5104 13.4435 25.4458 13.699 25.4458 13.9883V18H23.4791ZM34.6983 12.9311L32.8979 13.0419C32.8671 12.888 32.801 12.7495 32.6994 12.6264C32.5978 12.5002 32.464 12.4002 32.2978 12.3263C32.1346 12.2494 31.9392 12.2109 31.7115 12.2109C31.4068 12.2109 31.1498 12.2756 30.9405 12.4048C30.7312 12.531 30.6266 12.7003 30.6266 12.9126C30.6266 13.0819 30.6943 13.225 30.8297 13.342C30.9651 13.4589 31.1975 13.5528 31.5268 13.6236L32.8102 13.8821C33.4996 14.0237 34.0136 14.2514 34.3521 14.5653C34.6906 14.8793 34.8599 15.2917 34.8599 15.8026C34.8599 16.2673 34.723 16.6751 34.449 17.0259C34.1782 17.3768 33.8058 17.6507 33.3319 17.8477C32.861 18.0415 32.3178 18.1385 31.7022 18.1385C30.7636 18.1385 30.0157 17.9431 29.4586 17.5522C28.9047 17.1583 28.58 16.6228 28.4846 15.9457L30.4189 15.8441C30.4773 16.1303 30.6189 16.3488 30.8436 16.4996C31.0682 16.6474 31.356 16.7212 31.7069 16.7212C32.0516 16.7212 32.3285 16.6551 32.5378 16.5227C32.7502 16.3873 32.8579 16.2134 32.861 16.0011C32.8579 15.8226 32.7825 15.6764 32.6348 15.5625C32.487 15.4455 32.2593 15.3563 31.9515 15.2947L30.7235 15.0501C30.0311 14.9116 29.5156 14.6715 29.177 14.3299C28.8416 13.9883 28.6738 13.5528 28.6738 13.0234C28.6738 12.5679 28.7969 12.1755 29.0431 11.8462C29.2924 11.5169 29.6417 11.263 30.0911 11.0845C30.5435 10.906 31.0729 10.8168 31.6792 10.8168C32.5748 10.8168 33.2795 11.006 33.7935 11.3846C34.3105 11.7631 34.6122 12.2786 34.6983 12.9311ZM36.0983 18V10.9091H38.0649V18H36.0983ZM37.0862 9.99503C36.7938 9.99503 36.543 9.89808 36.3337 9.70419C36.1275 9.50722 36.0244 9.27178 36.0244 8.99787C36.0244 8.72704 36.1275 8.49467 36.3337 8.30078C36.543 8.10381 36.7938 8.00533 37.0862 8.00533C37.3786 8.00533 37.6279 8.10381 37.8341 8.30078C38.0434 8.49467 38.148 8.72704 38.148 8.99787C38.148 9.27178 38.0434 9.50722 37.8341 9.70419C37.6279 9.89808 37.3786 9.99503 37.0862 9.99503ZM42.8441 18.1385C42.127 18.1385 41.5069 17.9862 40.9837 17.6815C40.4635 17.3737 40.0619 16.9459 39.7788 16.3981C39.4956 15.8472 39.354 15.2086 39.354 14.4822C39.354 13.7498 39.4956 13.1096 39.7788 12.5618C40.0619 12.0109 40.4635 11.5831 40.9837 11.2784C41.5069 10.9706 42.127 10.8168 42.8441 10.8168C43.5612 10.8168 44.1798 10.9706 44.6999 11.2784C45.2231 11.5831 45.6263 12.0109 45.9094 12.5618C46.1926 13.1096 46.3342 13.7498 46.3342 14.4822C46.3342 15.2086 46.1926 15.8472 45.9094 16.3981C45.6263 16.9459 45.2231 17.3737 44.6999 17.6815C44.1798 17.9862 43.5612 18.1385 42.8441 18.1385ZM42.8533 16.6151C43.1796 16.6151 43.4519 16.5227 43.6705 16.3381C43.889 16.1503 44.0536 15.8949 44.1644 15.5717C44.2783 15.2486 44.3352 14.8808 44.3352 14.4684C44.3352 14.056 44.2783 13.6882 44.1644 13.3651C44.0536 13.0419 43.889 12.7865 43.6705 12.5987C43.4519 12.411 43.1796 12.3171 42.8533 12.3171C42.524 12.3171 42.247 12.411 42.0224 12.5987C41.8008 12.7865 41.633 13.0419 41.5192 13.3651C41.4084 13.6882 41.353 14.056 41.353 14.4684C41.353 14.8808 41.4084 15.2486 41.5192 15.5717C41.633 15.8949 41.8008 16.1503 42.0224 16.3381C42.247 16.5227 42.524 16.6151 42.8533 16.6151ZM49.5795 13.9006V18H47.6129V10.9091H49.4872V12.1602H49.5703C49.7273 11.7478 49.9904 11.4215 50.3597 11.1815C50.729 10.9383 51.1768 10.8168 51.7031 10.8168C52.1955 10.8168 52.6249 10.9245 52.9911 11.1399C53.3574 11.3554 53.642 11.6631 53.8452 12.0632C54.0483 12.4602 54.1499 12.9342 54.1499 13.4851V18H52.1832V13.8359C52.1863 13.402 52.0755 13.0634 51.8509 12.8203C51.6262 12.5741 51.3169 12.451 50.9229 12.451C50.6583 12.451 50.4244 12.5079 50.2212 12.6218C50.0212 12.7357 49.8642 12.9019 49.7504 13.1204C49.6396 13.3358 49.5826 13.5959 49.5795 13.9006Z" fill="white"/>
<rect width="41" height="26" transform="translate(60)" fill="#533DA3"/>
<path d="M69.8796 8.54545V18H67.8807V10.4428H67.8253L65.6602 11.8001V10.0273L68.0007 8.54545H69.8796ZM72.7868 18.12C72.4822 18.12 72.2206 18.0123 72.002 17.7969C71.7866 17.5784 71.6789 17.3168 71.6789 17.0121C71.6789 16.7105 71.7866 16.4519 72.002 16.2365C72.2206 16.0211 72.4822 15.9134 72.7868 15.9134C73.0823 15.9134 73.3408 16.0211 73.5624 16.2365C73.784 16.4519 73.8948 16.7105 73.8948 17.0121C73.8948 17.2152 73.8425 17.4014 73.7378 17.5707C73.6363 17.7369 73.5024 17.8707 73.3362 17.9723C73.17 18.0708 72.9869 18.12 72.7868 18.12ZM75.4909 18V16.5597L78.8564 13.4435C79.1426 13.1665 79.3826 12.9173 79.5765 12.6957C79.7735 12.4741 79.9228 12.2571 80.0243 12.0447C80.1259 11.8293 80.1767 11.5969 80.1767 11.3477C80.1767 11.0707 80.1136 10.8321 79.9874 10.6321C79.8612 10.429 79.6889 10.2736 79.4703 10.1658C79.2518 10.055 79.0041 9.99964 78.7271 9.99964C78.4378 9.99964 78.1854 10.0581 77.97 10.1751C77.7546 10.292 77.5884 10.4598 77.4714 10.6783C77.3545 10.8968 77.296 11.1568 77.296 11.4585H75.3986C75.3986 10.8398 75.5386 10.3028 75.8187 9.8473C76.0988 9.39181 76.4912 9.03942 76.9959 8.79013C77.5007 8.54084 78.0823 8.41619 78.7409 8.41619C79.418 8.41619 80.0074 8.53622 80.5091 8.77628C81.0138 9.01326 81.4062 9.34257 81.6863 9.7642C81.9663 10.1858 82.1064 10.669 82.1064 11.2138C82.1064 11.5708 82.0356 11.9232 81.894 12.271C81.7555 12.6187 81.5078 13.005 81.1507 13.4297C80.7937 13.8513 80.2905 14.3576 79.6412 14.9485L78.2608 16.3011V16.3658H82.231V18H75.4909ZM84.8474 18.12C84.5427 18.12 84.2811 18.0123 84.0626 17.7969C83.8472 17.5784 83.7394 17.3168 83.7394 17.0121C83.7394 16.7105 83.8472 16.4519 84.0626 16.2365C84.2811 16.0211 84.5427 15.9134 84.8474 15.9134C85.1428 15.9134 85.4014 16.0211 85.623 16.2365C85.8445 16.4519 85.9553 16.7105 85.9553 17.0121C85.9553 17.2152 85.903 17.4014 85.7984 17.5707C85.6968 17.7369 85.5629 17.8707 85.3968 17.9723C85.2306 18.0708 85.0474 18.12 84.8474 18.12ZM90.8777 18.2077C90.0836 18.2047 89.4004 18.0092 88.8279 17.6214C88.2586 17.2337 87.82 16.672 87.5123 15.9364C87.2076 15.2009 87.0568 14.3161 87.0598 13.282C87.0598 12.2509 87.2122 11.3723 87.5169 10.646C87.8246 9.91963 88.2632 9.36719 88.8326 8.98864C89.405 8.60701 90.0867 8.41619 90.8777 8.41619C91.6686 8.41619 92.3488 8.60701 92.9181 8.98864C93.4906 9.37026 93.9307 9.92424 94.2385 10.6506C94.5462 11.3738 94.6986 12.2509 94.6955 13.282C94.6955 14.3191 94.5416 15.2055 94.2338 15.9411C93.9292 16.6766 93.4921 17.2383 92.9228 17.6261C92.3534 18.0138 91.6717 18.2077 90.8777 18.2077ZM90.8777 16.5504C91.4193 16.5504 91.8517 16.2781 92.1749 15.7333C92.498 15.1886 92.6581 14.3714 92.655 13.282C92.655 12.5649 92.5811 11.9678 92.4334 11.4908C92.2888 11.0137 92.0826 10.6552 91.8148 10.4151C91.5501 10.1751 91.2377 10.055 90.8777 10.055C90.3391 10.055 89.9082 10.3243 89.585 10.8629C89.2619 11.4015 89.0988 12.2079 89.0957 13.282C89.0957 14.0083 89.168 14.6146 89.3127 15.1009C89.4604 15.584 89.6681 15.9472 89.9359 16.1903C90.2037 16.4304 90.5176 16.5504 90.8777 16.5504Z" fill="white"/>
<path d="M101 0H168C173.657 0 176.485 0 178.243 1.75736C180 3.51472 180 6.34315 180 12V14C180 19.6569 180 22.4853 178.243 24.2426C176.485 26 173.657 26 168 26H101V0Z" fill="#6C4FD4"/>
<path d="M110.607 8.54545H112.583V15.1378C112.583 15.7472 112.446 16.2765 112.172 16.7259C111.901 17.1752 111.524 17.5214 111.041 17.7646C110.558 18.0077 109.996 18.1293 109.356 18.1293C108.787 18.1293 108.27 18.0292 107.805 17.8292C107.343 17.6261 106.977 17.3183 106.706 16.9059C106.435 16.4904 106.302 15.9687 106.305 15.3409H108.294C108.301 15.5902 108.351 15.8041 108.447 15.9826C108.545 16.158 108.679 16.2934 108.848 16.3888C109.021 16.4812 109.224 16.5273 109.458 16.5273C109.704 16.5273 109.912 16.475 110.081 16.3704C110.253 16.2627 110.384 16.1057 110.473 15.8995C110.563 15.6933 110.607 15.4394 110.607 15.1378V8.54545ZM118.746 14.9808V10.9091H120.713V18H118.825V16.712H118.751C118.591 17.1275 118.324 17.4614 117.952 17.7138C117.583 17.9661 117.132 18.0923 116.599 18.0923C116.125 18.0923 115.708 17.9846 115.348 17.7692C114.988 17.5537 114.707 17.2475 114.504 16.8505C114.304 16.4535 114.202 15.978 114.199 15.424V10.9091H116.165V15.0732C116.169 15.4917 116.281 15.8226 116.502 16.0657C116.724 16.3088 117.021 16.4304 117.393 16.4304C117.63 16.4304 117.852 16.3765 118.058 16.2688C118.264 16.158 118.431 15.9949 118.557 15.7795C118.686 15.564 118.749 15.2978 118.746 14.9808ZM124.252 13.9006V18H122.286V10.9091H124.16V12.1602H124.243C124.4 11.7478 124.663 11.4215 125.033 11.1815C125.402 10.9383 125.85 10.8168 126.376 10.8168C126.868 10.8168 127.298 10.9245 127.664 11.1399C128.03 11.3554 128.315 11.6631 128.518 12.0632C128.721 12.4602 128.823 12.9342 128.823 13.4851V18H126.856V13.8359C126.859 13.402 126.748 13.0634 126.524 12.8203C126.299 12.5741 125.99 12.451 125.596 12.451C125.331 12.451 125.097 12.5079 124.894 12.6218C124.694 12.7357 124.537 12.9019 124.423 13.1204C124.312 13.3358 124.255 13.5959 124.252 13.9006ZM133.604 18.1385C132.875 18.1385 132.247 17.9908 131.721 17.6953C131.198 17.3968 130.794 16.9751 130.511 16.4304C130.228 15.8826 130.086 15.2347 130.086 14.4869C130.086 13.7575 130.228 13.1173 130.511 12.5664C130.794 12.0155 131.193 11.5862 131.707 11.2784C132.224 10.9706 132.83 10.8168 133.526 10.8168C133.994 10.8168 134.429 10.8922 134.832 11.043C135.238 11.1907 135.592 11.4138 135.894 11.7124C136.199 12.0109 136.436 12.3864 136.605 12.8388C136.774 13.2881 136.859 13.8144 136.859 14.4176V14.9577H130.871V13.739H135.008C135.008 13.4558 134.946 13.205 134.823 12.9865C134.7 12.768 134.529 12.5972 134.311 12.4741C134.095 12.3479 133.844 12.2848 133.558 12.2848C133.26 12.2848 132.995 12.354 132.764 12.4925C132.536 12.628 132.358 12.8111 132.229 13.0419C132.099 13.2696 132.033 13.5236 132.03 13.8036V14.9624C132.03 15.3132 132.095 15.6164 132.224 15.8718C132.356 16.1272 132.542 16.3242 132.782 16.4627C133.023 16.6012 133.307 16.6705 133.637 16.6705C133.855 16.6705 134.055 16.6397 134.237 16.5781C134.418 16.5166 134.574 16.4242 134.703 16.3011C134.832 16.178 134.931 16.0272 134.998 15.8487L136.817 15.9688C136.725 16.4058 136.536 16.7874 136.249 17.1136C135.966 17.4368 135.6 17.6892 135.151 17.8707C134.704 18.0492 134.189 18.1385 133.604 18.1385ZM141.133 18V16.5597L144.498 13.4435C144.784 13.1665 145.024 12.9173 145.218 12.6957C145.415 12.4741 145.564 12.2571 145.666 12.0447C145.767 11.8293 145.818 11.5969 145.818 11.3477C145.818 11.0707 145.755 10.8321 145.629 10.6321C145.503 10.429 145.33 10.2736 145.112 10.1658C144.893 10.055 144.646 9.99964 144.369 9.99964C144.079 9.99964 143.827 10.0581 143.612 10.1751C143.396 10.292 143.23 10.4598 143.113 10.6783C142.996 10.8968 142.938 11.1568 142.938 11.4585H141.04C141.04 10.8398 141.18 10.3028 141.46 9.8473C141.74 9.39181 142.133 9.03942 142.638 8.79013C143.142 8.54084 143.724 8.41619 144.383 8.41619C145.06 8.41619 145.649 8.53622 146.151 8.77628C146.655 9.01326 147.048 9.34257 147.328 9.7642C147.608 10.1858 147.748 10.669 147.748 11.2138C147.748 11.5708 147.677 11.9232 147.536 12.271C147.397 12.6187 147.149 13.005 146.792 13.4297C146.435 13.8513 145.932 14.3576 145.283 14.9485L143.902 16.3011V16.3658H147.873V18H141.133ZM153.028 18.2077C152.234 18.2047 151.551 18.0092 150.978 17.6214C150.409 17.2337 149.97 16.672 149.663 15.9364C149.358 15.2009 149.207 14.3161 149.21 13.282C149.21 12.2509 149.363 11.3723 149.667 10.646C149.975 9.91963 150.414 9.36719 150.983 8.98864C151.555 8.60701 152.237 8.41619 153.028 8.41619C153.819 8.41619 154.499 8.60701 155.069 8.98864C155.641 9.37026 156.081 9.92424 156.389 10.6506C156.697 11.3738 156.849 12.2509 156.846 13.282C156.846 14.3191 156.692 15.2055 156.384 15.9411C156.08 16.6766 155.643 17.2383 155.073 17.6261C154.504 18.0138 153.822 18.2077 153.028 18.2077ZM153.028 16.5504C153.57 16.5504 154.002 16.2781 154.325 15.7333C154.648 15.1886 154.808 14.3714 154.805 13.282C154.805 12.5649 154.732 11.9678 154.584 11.4908C154.439 11.0137 154.233 10.6552 153.965 10.4151C153.701 10.1751 153.388 10.055 153.028 10.055C152.489 10.055 152.059 10.3243 151.735 10.8629C151.412 11.4015 151.249 12.2079 151.246 13.282C151.246 14.0083 151.318 14.6146 151.463 15.1009C151.611 15.584 151.819 15.9472 152.086 16.1903C152.354 16.4304 152.668 16.5504 153.028 16.5504ZM158.271 18V16.5597L161.637 13.4435C161.923 13.1665 162.163 12.9173 162.357 12.6957C162.554 12.4741 162.703 12.2571 162.805 12.0447C162.906 11.8293 162.957 11.5969 162.957 11.3477C162.957 11.0707 162.894 10.8321 162.768 10.6321C162.641 10.429 162.469 10.2736 162.251 10.1658C162.032 10.055 161.784 9.99964 161.507 9.99964C161.218 9.99964 160.966 10.0581 160.75 10.1751C160.535 10.292 160.369 10.4598 160.252 10.6783C160.135 10.8968 160.076 11.1568 160.076 11.4585H158.179C158.179 10.8398 158.319 10.3028 158.599 9.8473C158.879 9.39181 159.271 9.03942 159.776 8.79013C160.281 8.54084 160.863 8.41619 161.521 8.41619C162.198 8.41619 162.788 8.53622 163.289 8.77628C163.794 9.01326 164.186 9.34257 164.467 9.7642C164.747 10.1858 164.887 10.669 164.887 11.2138C164.887 11.5708 164.816 11.9232 164.674 12.271C164.536 12.6187 164.288 13.005 163.931 13.4297C163.574 13.8513 163.071 14.3576 162.421 14.9485L161.041 16.3011V16.3658H165.011V18H158.271ZM166.113 16.3381V14.7638L170.061 8.54545H171.418V10.7244H170.615L168.126 14.6623V14.7362H173.735V16.3381H166.113ZM170.651 18V15.858L170.688 15.1609V8.54545H172.563V18H170.651Z" fill="white"/>
</svg>
