<svg width="175" height="26" viewBox="0 0 175 26" fill="none" xmlns="http://www.w3.org/2000/svg">
<path d="M1 12C1 6.34315 1 3.51472 2.75736 1.75736C4.51472 0 7.34315 0 13 0H60V26H13C7.34315 26 4.51472 26 2.75736 24.2426C1 22.4853 1 19.6569 1 14V12Z" fill="#3F3F3F"/>
<path d="M8.52983 8.54545L10.815 15.7287H10.9027L13.1925 8.54545H15.4084L12.1491 18H9.57315L6.3093 8.54545H8.52983ZM18.9411 18.1385C18.2117 18.1385 17.5839 17.9908 17.0576 17.6953C16.5344 17.3968 16.1312 16.9751 15.8481 16.4304C15.565 15.8826 15.4234 15.2347 15.4234 14.4869C15.4234 13.7575 15.565 13.1173 15.8481 12.5664C16.1312 12.0155 16.5298 11.5862 17.0438 11.2784C17.5608 10.9706 18.1671 10.8168 18.8627 10.8168C19.3305 10.8168 19.766 10.8922 20.1691 11.043C20.5754 11.1907 20.9293 11.4138 21.2309 11.7124C21.5356 12.0109 21.7726 12.3864 21.9419 12.8388C22.1111 13.2881 22.1958 13.8144 22.1958 14.4176V14.9577H16.2082V13.739H20.3445C20.3445 13.4558 20.283 13.205 20.1599 12.9865C20.0368 12.768 19.866 12.5972 19.6475 12.4741C19.432 12.3479 19.1812 12.2848 18.895 12.2848C18.5964 12.2848 18.3318 12.354 18.1009 12.4925C17.8732 12.628 17.6947 12.8111 17.5654 13.0419C17.4362 13.2696 17.37 13.5236 17.3669 13.8036V14.9624C17.3669 15.3132 17.4316 15.6164 17.5608 15.8718C17.6932 16.1272 17.8794 16.3242 18.1194 16.4627C18.3595 16.6012 18.6441 16.6705 18.9735 16.6705C19.192 16.6705 19.392 16.6397 19.5736 16.5781C19.7552 16.5166 19.9106 16.4242 20.0399 16.3011C20.1691 16.178 20.2676 16.0272 20.3353 15.8487L22.1542 15.9688C22.0619 16.4058 21.8726 16.7874 21.5864 17.1136C21.3032 17.4368 20.937 17.6892 20.4877 17.8707C20.0414 18.0492 19.5259 18.1385 18.9411 18.1385ZM23.4791 18V10.9091H25.3857V12.1463H25.4596C25.5889 11.7062 25.8058 11.3738 26.1105 11.1491C26.4152 10.9214 26.7661 10.8075 27.1631 10.8075C27.2616 10.8075 27.3677 10.8137 27.4816 10.826C27.5955 10.8383 27.6955 10.8552 27.7817 10.8768V12.6218C27.6894 12.5941 27.5616 12.5695 27.3985 12.5479C27.2354 12.5264 27.0861 12.5156 26.9507 12.5156C26.6614 12.5156 26.4029 12.5787 26.1752 12.7049C25.9505 12.828 25.772 13.0004 25.6396 13.2219C25.5104 13.4435 25.4458 13.699 25.4458 13.9883V18H23.4791ZM34.6983 12.9311L32.8979 13.0419C32.8671 12.888 32.801 12.7495 32.6994 12.6264C32.5978 12.5002 32.464 12.4002 32.2978 12.3263C32.1346 12.2494 31.9392 12.2109 31.7115 12.2109C31.4068 12.2109 31.1498 12.2756 30.9405 12.4048C30.7312 12.531 30.6266 12.7003 30.6266 12.9126C30.6266 13.0819 30.6943 13.225 30.8297 13.342C30.9651 13.4589 31.1975 13.5528 31.5268 13.6236L32.8102 13.8821C33.4996 14.0237 34.0136 14.2514 34.3521 14.5653C34.6906 14.8793 34.8599 15.2917 34.8599 15.8026C34.8599 16.2673 34.723 16.6751 34.449 17.0259C34.1782 17.3768 33.8058 17.6507 33.3319 17.8477C32.861 18.0415 32.3178 18.1385 31.7022 18.1385C30.7636 18.1385 30.0157 17.9431 29.4586 17.5522C28.9047 17.1583 28.58 16.6228 28.4846 15.9457L30.4189 15.8441C30.4773 16.1303 30.6189 16.3488 30.8436 16.4996C31.0682 16.6474 31.356 16.7212 31.7069 16.7212C32.0516 16.7212 32.3285 16.6551 32.5378 16.5227C32.7502 16.3873 32.8579 16.2134 32.861 16.0011C32.8579 15.8226 32.7825 15.6764 32.6348 15.5625C32.487 15.4455 32.2593 15.3563 31.9515 15.2947L30.7235 15.0501C30.0311 14.9116 29.5156 14.6715 29.177 14.3299C28.8416 13.9883 28.6738 13.5528 28.6738 13.0234C28.6738 12.5679 28.7969 12.1755 29.0431 11.8462C29.2924 11.5169 29.6417 11.263 30.0911 11.0845C30.5435 10.906 31.0729 10.8168 31.6792 10.8168C32.5748 10.8168 33.2795 11.006 33.7935 11.3846C34.3105 11.7631 34.6122 12.2786 34.6983 12.9311ZM36.0983 18V10.9091H38.0649V18H36.0983ZM37.0862 9.99503C36.7938 9.99503 36.543 9.89808 36.3337 9.70419C36.1275 9.50722 36.0244 9.27178 36.0244 8.99787C36.0244 8.72704 36.1275 8.49467 36.3337 8.30078C36.543 8.10381 36.7938 8.00533 37.0862 8.00533C37.3786 8.00533 37.6279 8.10381 37.8341 8.30078C38.0434 8.49467 38.148 8.72704 38.148 8.99787C38.148 9.27178 38.0434 9.50722 37.8341 9.70419C37.6279 9.89808 37.3786 9.99503 37.0862 9.99503ZM42.8441 18.1385C42.127 18.1385 41.5069 17.9862 40.9837 17.6815C40.4635 17.3737 40.0619 16.9459 39.7788 16.3981C39.4956 15.8472 39.354 15.2086 39.354 14.4822C39.354 13.7498 39.4956 13.1096 39.7788 12.5618C40.0619 12.0109 40.4635 11.5831 40.9837 11.2784C41.5069 10.9706 42.127 10.8168 42.8441 10.8168C43.5612 10.8168 44.1798 10.9706 44.6999 11.2784C45.2231 11.5831 45.6263 12.0109 45.9094 12.5618C46.1926 13.1096 46.3342 13.7498 46.3342 14.4822C46.3342 15.2086 46.1926 15.8472 45.9094 16.3981C45.6263 16.9459 45.2231 17.3737 44.6999 17.6815C44.1798 17.9862 43.5612 18.1385 42.8441 18.1385ZM42.8533 16.6151C43.1796 16.6151 43.4519 16.5227 43.6705 16.3381C43.889 16.1503 44.0536 15.8949 44.1644 15.5717C44.2783 15.2486 44.3352 14.8808 44.3352 14.4684C44.3352 14.056 44.2783 13.6882 44.1644 13.3651C44.0536 13.0419 43.889 12.7865 43.6705 12.5987C43.4519 12.411 43.1796 12.3171 42.8533 12.3171C42.524 12.3171 42.247 12.411 42.0224 12.5987C41.8008 12.7865 41.633 13.0419 41.5192 13.3651C41.4084 13.6882 41.353 14.056 41.353 14.4684C41.353 14.8808 41.4084 15.2486 41.5192 15.5717C41.633 15.8949 41.8008 16.1503 42.0224 16.3381C42.247 16.5227 42.524 16.6151 42.8533 16.6151ZM49.5795 13.9006V18H47.6129V10.9091H49.4872V12.1602H49.5703C49.7273 11.7478 49.9904 11.4215 50.3597 11.1815C50.729 10.9383 51.1768 10.8168 51.7031 10.8168C52.1955 10.8168 52.6249 10.9245 52.9911 11.1399C53.3574 11.3554 53.642 11.6631 53.8452 12.0632C54.0483 12.4602 54.1499 12.9342 54.1499 13.4851V18H52.1832V13.8359C52.1863 13.402 52.0755 13.0634 51.8509 12.8203C51.6262 12.5741 51.3169 12.451 50.9229 12.451C50.6583 12.451 50.4244 12.5079 50.2212 12.6218C50.0212 12.7357 49.8642 12.9019 49.7504 13.1204C49.6396 13.3358 49.5826 13.5959 49.5795 13.9006Z" fill="white"/>
<rect width="40" height="26" transform="translate(60)" fill="#533DA3"/>
<path d="M65.7663 18V16.5597L69.1317 13.4435C69.418 13.1665 69.658 12.9173 69.8519 12.6957C70.0489 12.4741 70.1982 12.2571 70.2997 12.0447C70.4013 11.8293 70.4521 11.5969 70.4521 11.3477C70.4521 11.0707 70.389 10.8321 70.2628 10.6321C70.1366 10.429 69.9643 10.2736 69.7457 10.1658C69.5272 10.055 69.2795 9.99964 69.0025 9.99964C68.7132 9.99964 68.4608 10.0581 68.2454 10.1751C68.0299 10.292 67.8638 10.4598 67.7468 10.6783C67.6299 10.8968 67.5714 11.1568 67.5714 11.4585H65.674C65.674 10.8398 65.814 10.3028 66.0941 9.8473C66.3742 9.39181 66.7666 9.03942 67.2713 8.79013C67.776 8.54084 68.3577 8.41619 69.0163 8.41619C69.6934 8.41619 70.2828 8.53622 70.7844 8.77628C71.2892 9.01326 71.6816 9.34257 71.9616 9.7642C72.2417 10.1858 72.3817 10.669 72.3817 11.2138C72.3817 11.5708 72.311 11.9232 72.1694 12.271C72.0309 12.6187 71.7831 13.005 71.4261 13.4297C71.0691 13.8513 70.5659 14.3576 69.9165 14.9485L68.5362 16.3011V16.3658H72.5064V18H65.7663ZM75.1228 18.12C74.8181 18.12 74.5565 18.0123 74.338 17.7969C74.1225 17.5784 74.0148 17.3168 74.0148 17.0121C74.0148 16.7105 74.1225 16.4519 74.338 16.2365C74.5565 16.0211 74.8181 15.9134 75.1228 15.9134C75.4182 15.9134 75.6768 16.0211 75.8983 16.2365C76.1199 16.4519 76.2307 16.7105 76.2307 17.0121C76.2307 17.2152 76.1784 17.4014 76.0738 17.5707C75.9722 17.7369 75.8383 17.8707 75.6721 17.9723C75.5059 18.0708 75.3228 18.12 75.1228 18.12ZM80.7595 8.54545V18H78.7606V10.4428H78.7052L76.54 11.8001V10.0273L78.8806 8.54545H80.7595ZM83.6667 18.12C83.362 18.12 83.1004 18.0123 82.8819 17.7969C82.6665 17.5784 82.5588 17.3168 82.5588 17.0121C82.5588 16.7105 82.6665 16.4519 82.8819 16.2365C83.1004 16.0211 83.362 15.9134 83.6667 15.9134C83.9622 15.9134 84.2207 16.0211 84.4423 16.2365C84.6639 16.4519 84.7747 16.7105 84.7747 17.0121C84.7747 17.2152 84.7224 17.4014 84.6177 17.5707C84.5162 17.7369 84.3823 17.8707 84.2161 17.9723C84.0499 18.0708 83.8668 18.12 83.6667 18.12ZM89.697 18.2077C88.903 18.2047 88.2197 18.0092 87.6473 17.6214C87.0779 17.2337 86.6394 16.672 86.3316 15.9364C86.0269 15.2009 85.8761 14.3161 85.8792 13.282C85.8792 12.2509 86.0315 11.3723 86.3362 10.646C86.644 9.91963 87.0825 9.36719 87.6519 8.98864C88.2243 8.60701 88.906 8.41619 89.697 8.41619C90.488 8.41619 91.1681 8.60701 91.7375 8.98864C92.3099 9.37026 92.75 9.92424 93.0578 10.6506C93.3656 11.3738 93.5179 12.2509 93.5148 13.282C93.5148 14.3191 93.3609 15.2055 93.0532 15.9411C92.7485 16.6766 92.3115 17.2383 91.7421 17.6261C91.1727 18.0138 90.491 18.2077 89.697 18.2077ZM89.697 16.5504C90.2387 16.5504 90.6711 16.2781 90.9942 15.7333C91.3174 15.1886 91.4774 14.3714 91.4743 13.282C91.4743 12.5649 91.4005 11.9678 91.2528 11.4908C91.1081 11.0137 90.9019 10.6552 90.6341 10.4151C90.3695 10.1751 90.0571 10.055 89.697 10.055C89.1584 10.055 88.7275 10.3243 88.4044 10.8629C88.0812 11.4015 87.9181 12.2079 87.915 13.282C87.915 14.0083 87.9874 14.6146 88.132 15.1009C88.2797 15.584 88.4875 15.9472 88.7552 16.1903C89.023 16.4304 89.3369 16.5504 89.697 16.5504Z" fill="white"/>
<path d="M100 0H162C167.657 0 170.485 0 172.243 1.75736C174 3.51472 174 6.34315 174 12V14C174 19.6569 174 22.4853 172.243 24.2426C170.485 26 167.657 26 162 26H100V0Z" fill="#6C4FD4"/>
<path d="M109.607 8.54545H111.583V15.1378C111.583 15.7472 111.446 16.2765 111.172 16.7259C110.901 17.1752 110.524 17.5214 110.041 17.7646C109.558 18.0077 108.996 18.1293 108.356 18.1293C107.787 18.1293 107.27 18.0292 106.805 17.8292C106.343 17.6261 105.977 17.3183 105.706 16.9059C105.435 16.4904 105.302 15.9687 105.305 15.3409H107.294C107.301 15.5902 107.351 15.8041 107.447 15.9826C107.545 16.158 107.679 16.2934 107.848 16.3888C108.021 16.4812 108.224 16.5273 108.458 16.5273C108.704 16.5273 108.912 16.475 109.081 16.3704C109.253 16.2627 109.384 16.1057 109.473 15.8995C109.563 15.6933 109.607 15.4394 109.607 15.1378V8.54545ZM117.746 14.9808V10.9091H119.713V18H117.825V16.712H117.751C117.591 17.1275 117.324 17.4614 116.952 17.7138C116.583 17.9661 116.132 18.0923 115.599 18.0923C115.125 18.0923 114.708 17.9846 114.348 17.7692C113.988 17.5537 113.707 17.2475 113.504 16.8505C113.304 16.4535 113.202 15.978 113.199 15.424V10.9091H115.165V15.0732C115.169 15.4917 115.281 15.8226 115.502 16.0657C115.724 16.3088 116.021 16.4304 116.393 16.4304C116.63 16.4304 116.852 16.3765 117.058 16.2688C117.264 16.158 117.431 15.9949 117.557 15.7795C117.686 15.564 117.749 15.2978 117.746 14.9808ZM123.252 8.54545V18H121.286V8.54545H123.252ZM126.042 20.6591C125.793 20.6591 125.559 20.6391 125.34 20.5991C125.125 20.5621 124.946 20.5144 124.805 20.456L125.248 18.9879C125.479 19.0587 125.686 19.0972 125.871 19.1033C126.059 19.1095 126.22 19.0664 126.356 18.9741C126.494 18.8817 126.607 18.7248 126.693 18.5032L126.808 18.2031L124.265 10.9091H126.333L127.801 16.1165H127.875L129.357 10.9091H131.439L128.683 18.7663C128.55 19.148 128.37 19.4804 128.142 19.7635C127.918 20.0497 127.633 20.2698 127.288 20.4237C126.944 20.5806 126.528 20.6591 126.042 20.6591ZM135.435 18V16.5597L138.801 13.4435C139.087 13.1665 139.327 12.9173 139.521 12.6957C139.718 12.4741 139.867 12.2571 139.969 12.0447C140.07 11.8293 140.121 11.5969 140.121 11.3477C140.121 11.0707 140.058 10.8321 139.932 10.6321C139.806 10.429 139.633 10.2736 139.415 10.1658C139.196 10.055 138.948 9.99964 138.671 9.99964C138.382 9.99964 138.13 10.0581 137.914 10.1751C137.699 10.292 137.533 10.4598 137.416 10.6783C137.299 10.8968 137.24 11.1568 137.24 11.4585H135.343C135.343 10.8398 135.483 10.3028 135.763 9.8473C136.043 9.39181 136.436 9.03942 136.94 8.79013C137.445 8.54084 138.027 8.41619 138.685 8.41619C139.362 8.41619 139.952 8.53622 140.453 8.77628C140.958 9.01326 141.351 9.34257 141.631 9.7642C141.911 10.1858 142.051 10.669 142.051 11.2138C142.051 11.5708 141.98 11.9232 141.838 12.271C141.7 12.6187 141.452 13.005 141.095 13.4297C140.738 13.8513 140.235 14.3576 139.585 14.9485L138.205 16.3011V16.3658H142.175V18H135.435ZM147.331 18.2077C146.537 18.2047 145.854 18.0092 145.281 17.6214C144.712 17.2337 144.273 16.672 143.965 15.9364C143.661 15.2009 143.51 14.3161 143.513 13.282C143.513 12.2509 143.665 11.3723 143.97 10.646C144.278 9.91963 144.716 9.36719 145.286 8.98864C145.858 8.60701 146.54 8.41619 147.331 8.41619C148.122 8.41619 148.802 8.60701 149.371 8.98864C149.944 9.37026 150.384 9.92424 150.692 10.6506C150.999 11.3738 151.152 12.2509 151.149 13.282C151.149 14.3191 150.995 15.2055 150.687 15.9411C150.382 16.6766 149.945 17.2383 149.376 17.6261C148.807 18.0138 148.125 18.2077 147.331 18.2077ZM147.331 16.5504C147.872 16.5504 148.305 16.2781 148.628 15.7333C148.951 15.1886 149.111 14.3714 149.108 13.282C149.108 12.5649 149.034 11.9678 148.887 11.4908C148.742 11.0137 148.536 10.6552 148.268 10.4151C148.003 10.1751 147.691 10.055 147.331 10.055C146.792 10.055 146.361 10.3243 146.038 10.8629C145.715 11.4015 145.552 12.2079 145.549 13.282C145.549 14.0083 145.621 14.6146 145.766 15.1009C145.914 15.584 146.121 15.9472 146.389 16.1903C146.657 16.4304 146.971 16.5504 147.331 16.5504ZM152.574 18V16.5597L155.939 13.4435C156.226 13.1665 156.466 12.9173 156.66 12.6957C156.857 12.4741 157.006 12.2571 157.107 12.0447C157.209 11.8293 157.26 11.5969 157.26 11.3477C157.26 11.0707 157.197 10.8321 157.07 10.6321C156.944 10.429 156.772 10.2736 156.553 10.1658C156.335 10.055 156.087 9.99964 155.81 9.99964C155.521 9.99964 155.268 10.0581 155.053 10.1751C154.838 10.292 154.671 10.4598 154.554 10.6783C154.437 10.8968 154.379 11.1568 154.379 11.4585H152.482C152.482 10.8398 152.622 10.3028 152.902 9.8473C153.182 9.39181 153.574 9.03942 154.079 8.79013C154.584 8.54084 155.165 8.41619 155.824 8.41619C156.501 8.41619 157.09 8.53622 157.592 8.77628C158.097 9.01326 158.489 9.34257 158.769 9.7642C159.049 10.1858 159.189 10.669 159.189 11.2138C159.189 11.5708 159.119 11.9232 158.977 12.271C158.839 12.6187 158.591 13.005 158.234 13.4297C157.877 13.8513 157.374 14.3576 156.724 14.9485L155.344 16.3011V16.3658H159.314V18H152.574ZM160.416 16.3381V14.7638L164.363 8.54545H165.721V10.7244H164.917L162.429 14.6623V14.7362H168.038V16.3381H160.416ZM164.954 18V15.858L164.991 15.1609V8.54545H166.865V18H164.954Z" fill="white"/>
</svg>
