<svg width="177" height="26" viewBox="0 0 177 26" fill="none" xmlns="http://www.w3.org/2000/svg">
<path d="M1 12C1 6.34315 1 3.51472 2.75736 1.75736C4.51472 0 7.34315 0 13 0H60V26H13C7.34315 26 4.51472 26 2.75736 24.2426C1 22.4853 1 19.6569 1 14V12Z" fill="#3F3F3F"/>
<path d="M8.52983 8.54545L10.815 15.7287H10.9027L13.1925 8.54545H15.4084L12.1491 18H9.57315L6.3093 8.54545H8.52983ZM18.9411 18.1385C18.2117 18.1385 17.5839 17.9908 17.0576 17.6953C16.5344 17.3968 16.1312 16.9751 15.8481 16.4304C15.565 15.8826 15.4234 15.2347 15.4234 14.4869C15.4234 13.7575 15.565 13.1173 15.8481 12.5664C16.1312 12.0155 16.5298 11.5862 17.0438 11.2784C17.5608 10.9706 18.1671 10.8168 18.8627 10.8168C19.3305 10.8168 19.766 10.8922 20.1691 11.043C20.5754 11.1907 20.9293 11.4138 21.2309 11.7124C21.5356 12.0109 21.7726 12.3864 21.9419 12.8388C22.1111 13.2881 22.1958 13.8144 22.1958 14.4176V14.9577H16.2082V13.739H20.3445C20.3445 13.4558 20.283 13.205 20.1599 12.9865C20.0368 12.768 19.866 12.5972 19.6475 12.4741C19.432 12.3479 19.1812 12.2848 18.895 12.2848C18.5964 12.2848 18.3318 12.354 18.1009 12.4925C17.8732 12.628 17.6947 12.8111 17.5654 13.0419C17.4362 13.2696 17.37 13.5236 17.3669 13.8036V14.9624C17.3669 15.3132 17.4316 15.6164 17.5608 15.8718C17.6932 16.1272 17.8794 16.3242 18.1194 16.4627C18.3595 16.6012 18.6441 16.6705 18.9735 16.6705C19.192 16.6705 19.392 16.6397 19.5736 16.5781C19.7552 16.5166 19.9106 16.4242 20.0399 16.3011C20.1691 16.178 20.2676 16.0272 20.3353 15.8487L22.1542 15.9688C22.0619 16.4058 21.8726 16.7874 21.5864 17.1136C21.3032 17.4368 20.937 17.6892 20.4877 17.8707C20.0414 18.0492 19.5259 18.1385 18.9411 18.1385ZM23.4791 18V10.9091H25.3857V12.1463H25.4596C25.5889 11.7062 25.8058 11.3738 26.1105 11.1491C26.4152 10.9214 26.7661 10.8075 27.1631 10.8075C27.2616 10.8075 27.3677 10.8137 27.4816 10.826C27.5955 10.8383 27.6955 10.8552 27.7817 10.8768V12.6218C27.6894 12.5941 27.5616 12.5695 27.3985 12.5479C27.2354 12.5264 27.0861 12.5156 26.9507 12.5156C26.6614 12.5156 26.4029 12.5787 26.1752 12.7049C25.9505 12.828 25.772 13.0004 25.6396 13.2219C25.5104 13.4435 25.4458 13.699 25.4458 13.9883V18H23.4791ZM34.6983 12.9311L32.8979 13.0419C32.8671 12.888 32.801 12.7495 32.6994 12.6264C32.5978 12.5002 32.464 12.4002 32.2978 12.3263C32.1346 12.2494 31.9392 12.2109 31.7115 12.2109C31.4068 12.2109 31.1498 12.2756 30.9405 12.4048C30.7312 12.531 30.6266 12.7003 30.6266 12.9126C30.6266 13.0819 30.6943 13.225 30.8297 13.342C30.9651 13.4589 31.1975 13.5528 31.5268 13.6236L32.8102 13.8821C33.4996 14.0237 34.0136 14.2514 34.3521 14.5653C34.6906 14.8793 34.8599 15.2917 34.8599 15.8026C34.8599 16.2673 34.723 16.6751 34.449 17.0259C34.1782 17.3768 33.8058 17.6507 33.3319 17.8477C32.861 18.0415 32.3178 18.1385 31.7022 18.1385C30.7636 18.1385 30.0157 17.9431 29.4586 17.5522C28.9047 17.1583 28.58 16.6228 28.4846 15.9457L30.4189 15.8441C30.4773 16.1303 30.6189 16.3488 30.8436 16.4996C31.0682 16.6474 31.356 16.7212 31.7069 16.7212C32.0516 16.7212 32.3285 16.6551 32.5378 16.5227C32.7502 16.3873 32.8579 16.2134 32.861 16.0011C32.8579 15.8226 32.7825 15.6764 32.6348 15.5625C32.487 15.4455 32.2593 15.3563 31.9515 15.2947L30.7235 15.0501C30.0311 14.9116 29.5156 14.6715 29.177 14.3299C28.8416 13.9883 28.6738 13.5528 28.6738 13.0234C28.6738 12.5679 28.7969 12.1755 29.0431 11.8462C29.2924 11.5169 29.6417 11.263 30.0911 11.0845C30.5435 10.906 31.0729 10.8168 31.6792 10.8168C32.5748 10.8168 33.2795 11.006 33.7935 11.3846C34.3105 11.7631 34.6122 12.2786 34.6983 12.9311ZM36.0983 18V10.9091H38.0649V18H36.0983ZM37.0862 9.99503C36.7938 9.99503 36.543 9.89808 36.3337 9.70419C36.1275 9.50722 36.0244 9.27178 36.0244 8.99787C36.0244 8.72704 36.1275 8.49467 36.3337 8.30078C36.543 8.10381 36.7938 8.00533 37.0862 8.00533C37.3786 8.00533 37.6279 8.10381 37.8341 8.30078C38.0434 8.49467 38.148 8.72704 38.148 8.99787C38.148 9.27178 38.0434 9.50722 37.8341 9.70419C37.6279 9.89808 37.3786 9.99503 37.0862 9.99503ZM42.8441 18.1385C42.127 18.1385 41.5069 17.9862 40.9837 17.6815C40.4635 17.3737 40.0619 16.9459 39.7788 16.3981C39.4956 15.8472 39.354 15.2086 39.354 14.4822C39.354 13.7498 39.4956 13.1096 39.7788 12.5618C40.0619 12.0109 40.4635 11.5831 40.9837 11.2784C41.5069 10.9706 42.127 10.8168 42.8441 10.8168C43.5612 10.8168 44.1798 10.9706 44.6999 11.2784C45.2231 11.5831 45.6263 12.0109 45.9094 12.5618C46.1926 13.1096 46.3342 13.7498 46.3342 14.4822C46.3342 15.2086 46.1926 15.8472 45.9094 16.3981C45.6263 16.9459 45.2231 17.3737 44.6999 17.6815C44.1798 17.9862 43.5612 18.1385 42.8441 18.1385ZM42.8533 16.6151C43.1796 16.6151 43.4519 16.5227 43.6705 16.3381C43.889 16.1503 44.0536 15.8949 44.1644 15.5717C44.2783 15.2486 44.3352 14.8808 44.3352 14.4684C44.3352 14.056 44.2783 13.6882 44.1644 13.3651C44.0536 13.0419 43.889 12.7865 43.6705 12.5987C43.4519 12.411 43.1796 12.3171 42.8533 12.3171C42.524 12.3171 42.247 12.411 42.0224 12.5987C41.8008 12.7865 41.633 13.0419 41.5192 13.3651C41.4084 13.6882 41.353 14.056 41.353 14.4684C41.353 14.8808 41.4084 15.2486 41.5192 15.5717C41.633 15.8949 41.8008 16.1503 42.0224 16.3381C42.247 16.5227 42.524 16.6151 42.8533 16.6151ZM49.5795 13.9006V18H47.6129V10.9091H49.4872V12.1602H49.5703C49.7273 11.7478 49.9904 11.4215 50.3597 11.1815C50.729 10.9383 51.1768 10.8168 51.7031 10.8168C52.1955 10.8168 52.6249 10.9245 52.9911 11.1399C53.3574 11.3554 53.642 11.6631 53.8452 12.0632C54.0483 12.4602 54.1499 12.9342 54.1499 13.4851V18H52.1832V13.8359C52.1863 13.402 52.0755 13.0634 51.8509 12.8203C51.6262 12.5741 51.3169 12.451 50.9229 12.451C50.6583 12.451 50.4244 12.5079 50.2212 12.6218C50.0212 12.7357 49.8642 12.9019 49.7504 13.1204C49.6396 13.3358 49.5826 13.5959 49.5795 13.9006Z" fill="white"/>
<rect width="37" height="26" transform="translate(60)" fill="#533DA3"/>
<path d="M69.8796 8.54545V18H67.8807V10.4428H67.8253L65.6602 11.8001V10.0273L68.0007 8.54545H69.8796ZM72.7868 18.12C72.4822 18.12 72.2206 18.0123 72.002 17.7969C71.7866 17.5784 71.6789 17.3168 71.6789 17.0121C71.6789 16.7105 71.7866 16.4519 72.002 16.2365C72.2206 16.0211 72.4822 15.9134 72.7868 15.9134C73.0823 15.9134 73.3408 16.0211 73.5624 16.2365C73.784 16.4519 73.8948 16.7105 73.8948 17.0121C73.8948 17.2152 73.8425 17.4014 73.7378 17.5707C73.6363 17.7369 73.5024 17.8707 73.3362 17.9723C73.17 18.0708 72.9869 18.12 72.7868 18.12ZM78.4236 8.54545V18H76.4246V10.4428H76.3692L74.2041 11.8001V10.0273L76.5447 8.54545H78.4236ZM81.3308 18.12C81.0261 18.12 80.7645 18.0123 80.546 17.7969C80.3306 17.5784 80.2228 17.3168 80.2228 17.0121C80.2228 16.7105 80.3306 16.4519 80.546 16.2365C80.7645 16.0211 81.0261 15.9134 81.3308 15.9134C81.6262 15.9134 81.8848 16.0211 82.1064 16.2365C82.3279 16.4519 82.4387 16.7105 82.4387 17.0121C82.4387 17.2152 82.3864 17.4014 82.2818 17.5707C82.1802 17.7369 82.0463 17.8707 81.8801 17.9723C81.714 18.0708 81.5308 18.12 81.3308 18.12ZM87.3611 18.2077C86.567 18.2047 85.8838 18.0092 85.3113 17.6214C84.742 17.2337 84.3034 16.672 83.9956 15.9364C83.691 15.2009 83.5402 14.3161 83.5432 13.282C83.5432 12.2509 83.6956 11.3723 84.0003 10.646C84.308 9.91963 84.7466 9.36719 85.316 8.98864C85.8884 8.60701 86.5701 8.41619 87.3611 8.41619C88.152 8.41619 88.8322 8.60701 89.4015 8.98864C89.974 9.37026 90.4141 9.92424 90.7219 10.6506C91.0296 11.3738 91.182 12.2509 91.1789 13.282C91.1789 14.3191 91.025 15.2055 90.7172 15.9411C90.4126 16.6766 89.9755 17.2383 89.4062 17.6261C88.8368 18.0138 88.1551 18.2077 87.3611 18.2077ZM87.3611 16.5504C87.9027 16.5504 88.3351 16.2781 88.6583 15.7333C88.9814 15.1886 89.1415 14.3714 89.1384 13.282C89.1384 12.5649 89.0645 11.9678 88.9168 11.4908C88.7722 11.0137 88.566 10.6552 88.2982 10.4151C88.0335 10.1751 87.7211 10.055 87.3611 10.055C86.8225 10.055 86.3916 10.3243 86.0684 10.8629C85.7453 11.4015 85.5822 12.2079 85.5791 13.282C85.5791 14.0083 85.6514 14.6146 85.7961 15.1009C85.9438 15.584 86.1515 15.9472 86.4193 16.1903C86.6871 16.4304 87.001 16.5504 87.3611 16.5504Z" fill="white"/>
<path d="M97 0H164C169.657 0 172.485 0 174.243 1.75736C176 3.51472 176 6.34315 176 12V14C176 19.6569 176 22.4853 174.243 24.2426C172.485 26 169.657 26 164 26H97V0Z" fill="#6C4FD4"/>
<path d="M106.607 8.54545H108.583V15.1378C108.583 15.7472 108.446 16.2765 108.172 16.7259C107.901 17.1752 107.524 17.5214 107.041 17.7646C106.558 18.0077 105.996 18.1293 105.356 18.1293C104.787 18.1293 104.27 18.0292 103.805 17.8292C103.343 17.6261 102.977 17.3183 102.706 16.9059C102.435 16.4904 102.302 15.9687 102.305 15.3409H104.294C104.301 15.5902 104.351 15.8041 104.447 15.9826C104.545 16.158 104.679 16.2934 104.848 16.3888C105.021 16.4812 105.224 16.5273 105.458 16.5273C105.704 16.5273 105.912 16.475 106.081 16.3704C106.253 16.2627 106.384 16.1057 106.473 15.8995C106.563 15.6933 106.607 15.4394 106.607 15.1378V8.54545ZM114.746 14.9808V10.9091H116.713V18H114.825V16.712H114.751C114.591 17.1275 114.324 17.4614 113.952 17.7138C113.583 17.9661 113.132 18.0923 112.599 18.0923C112.125 18.0923 111.708 17.9846 111.348 17.7692C110.988 17.5537 110.707 17.2475 110.504 16.8505C110.304 16.4535 110.202 15.978 110.199 15.424V10.9091H112.165V15.0732C112.169 15.4917 112.281 15.8226 112.502 16.0657C112.724 16.3088 113.021 16.4304 113.393 16.4304C113.63 16.4304 113.852 16.3765 114.058 16.2688C114.264 16.158 114.431 15.9949 114.557 15.7795C114.686 15.564 114.749 15.2978 114.746 14.9808ZM120.252 13.9006V18H118.286V10.9091H120.16V12.1602H120.243C120.4 11.7478 120.663 11.4215 121.033 11.1815C121.402 10.9383 121.85 10.8168 122.376 10.8168C122.868 10.8168 123.298 10.9245 123.664 11.1399C124.03 11.3554 124.315 11.6631 124.518 12.0632C124.721 12.4602 124.823 12.9342 124.823 13.4851V18H122.856V13.8359C122.859 13.402 122.748 13.0634 122.524 12.8203C122.299 12.5741 121.99 12.451 121.596 12.451C121.331 12.451 121.097 12.5079 120.894 12.6218C120.694 12.7357 120.537 12.9019 120.423 13.1204C120.312 13.3358 120.255 13.5959 120.252 13.9006ZM129.604 18.1385C128.875 18.1385 128.247 17.9908 127.721 17.6953C127.198 17.3968 126.794 16.9751 126.511 16.4304C126.228 15.8826 126.086 15.2347 126.086 14.4869C126.086 13.7575 126.228 13.1173 126.511 12.5664C126.794 12.0155 127.193 11.5862 127.707 11.2784C128.224 10.9706 128.83 10.8168 129.526 10.8168C129.994 10.8168 130.429 10.8922 130.832 11.043C131.238 11.1907 131.592 11.4138 131.894 11.7124C132.199 12.0109 132.436 12.3864 132.605 12.8388C132.774 13.2881 132.859 13.8144 132.859 14.4176V14.9577H126.871V13.739H131.008C131.008 13.4558 130.946 13.205 130.823 12.9865C130.7 12.768 130.529 12.5972 130.311 12.4741C130.095 12.3479 129.844 12.2848 129.558 12.2848C129.26 12.2848 128.995 12.354 128.764 12.4925C128.536 12.628 128.358 12.8111 128.229 13.0419C128.099 13.2696 128.033 13.5236 128.03 13.8036V14.9624C128.03 15.3132 128.095 15.6164 128.224 15.8718C128.356 16.1272 128.542 16.3242 128.782 16.4627C129.023 16.6012 129.307 16.6705 129.637 16.6705C129.855 16.6705 130.055 16.6397 130.237 16.5781C130.418 16.5166 130.574 16.4242 130.703 16.3011C130.832 16.178 130.931 16.0272 130.998 15.8487L132.817 15.9688C132.725 16.4058 132.536 16.7874 132.249 17.1136C131.966 17.4368 131.6 17.6892 131.151 17.8707C130.704 18.0492 130.189 18.1385 129.604 18.1385ZM137.133 18V16.5597L140.498 13.4435C140.784 13.1665 141.024 12.9173 141.218 12.6957C141.415 12.4741 141.564 12.2571 141.666 12.0447C141.767 11.8293 141.818 11.5969 141.818 11.3477C141.818 11.0707 141.755 10.8321 141.629 10.6321C141.503 10.429 141.33 10.2736 141.112 10.1658C140.893 10.055 140.646 9.99964 140.369 9.99964C140.079 9.99964 139.827 10.0581 139.612 10.1751C139.396 10.292 139.23 10.4598 139.113 10.6783C138.996 10.8968 138.938 11.1568 138.938 11.4585H137.04C137.04 10.8398 137.18 10.3028 137.46 9.8473C137.74 9.39181 138.133 9.03942 138.638 8.79013C139.142 8.54084 139.724 8.41619 140.383 8.41619C141.06 8.41619 141.649 8.53622 142.151 8.77628C142.655 9.01326 143.048 9.34257 143.328 9.7642C143.608 10.1858 143.748 10.669 143.748 11.2138C143.748 11.5708 143.677 11.9232 143.536 12.271C143.397 12.6187 143.149 13.005 142.792 13.4297C142.435 13.8513 141.932 14.3576 141.283 14.9485L139.902 16.3011V16.3658H143.873V18H137.133ZM149.028 18.2077C148.234 18.2047 147.551 18.0092 146.978 17.6214C146.409 17.2337 145.97 16.672 145.663 15.9364C145.358 15.2009 145.207 14.3161 145.21 13.282C145.21 12.2509 145.363 11.3723 145.667 10.646C145.975 9.91963 146.414 9.36719 146.983 8.98864C147.555 8.60701 148.237 8.41619 149.028 8.41619C149.819 8.41619 150.499 8.60701 151.069 8.98864C151.641 9.37026 152.081 9.92424 152.389 10.6506C152.697 11.3738 152.849 12.2509 152.846 13.282C152.846 14.3191 152.692 15.2055 152.384 15.9411C152.08 16.6766 151.643 17.2383 151.073 17.6261C150.504 18.0138 149.822 18.2077 149.028 18.2077ZM149.028 16.5504C149.57 16.5504 150.002 16.2781 150.325 15.7333C150.648 15.1886 150.808 14.3714 150.805 13.282C150.805 12.5649 150.732 11.9678 150.584 11.4908C150.439 11.0137 150.233 10.6552 149.965 10.4151C149.701 10.1751 149.388 10.055 149.028 10.055C148.489 10.055 148.059 10.3243 147.735 10.8629C147.412 11.4015 147.249 12.2079 147.246 13.282C147.246 14.0083 147.318 14.6146 147.463 15.1009C147.611 15.584 147.819 15.9472 148.086 16.1903C148.354 16.4304 148.668 16.5504 149.028 16.5504ZM154.271 18V16.5597L157.637 13.4435C157.923 13.1665 158.163 12.9173 158.357 12.6957C158.554 12.4741 158.703 12.2571 158.805 12.0447C158.906 11.8293 158.957 11.5969 158.957 11.3477C158.957 11.0707 158.894 10.8321 158.768 10.6321C158.641 10.429 158.469 10.2736 158.251 10.1658C158.032 10.055 157.784 9.99964 157.507 9.99964C157.218 9.99964 156.966 10.0581 156.75 10.1751C156.535 10.292 156.369 10.4598 156.252 10.6783C156.135 10.8968 156.076 11.1568 156.076 11.4585H154.179C154.179 10.8398 154.319 10.3028 154.599 9.8473C154.879 9.39181 155.271 9.03942 155.776 8.79013C156.281 8.54084 156.863 8.41619 157.521 8.41619C158.198 8.41619 158.788 8.53622 159.289 8.77628C159.794 9.01326 160.186 9.34257 160.467 9.7642C160.747 10.1858 160.887 10.669 160.887 11.2138C160.887 11.5708 160.816 11.9232 160.674 12.271C160.536 12.6187 160.288 13.005 159.931 13.4297C159.574 13.8513 159.071 14.3576 158.421 14.9485L157.041 16.3011V16.3658H161.011V18H154.271ZM162.113 16.3381V14.7638L166.061 8.54545H167.418V10.7244H166.615L164.126 14.6623V14.7362H169.735V16.3381H162.113ZM166.651 18V15.858L166.688 15.1609V8.54545H168.563V18H166.651Z" fill="white"/>
</svg>
