<svg width="178" height="26" viewBox="0 0 178 26" fill="none" xmlns="http://www.w3.org/2000/svg">
<path d="M1 12C1 6.34315 1 3.51472 2.75736 1.75736C4.51472 0 7.34315 0 13 0H60V26H13C7.34315 26 4.51472 26 2.75736 24.2426C1 22.4853 1 19.6569 1 14V12Z" fill="#3F3F3F"/>
<path d="M8.52983 8.54545L10.815 15.7287H10.9027L13.1925 8.54545H15.4084L12.1491 18H9.57315L6.3093 8.54545H8.52983ZM18.9411 18.1385C18.2117 18.1385 17.5839 17.9908 17.0576 17.6953C16.5344 17.3968 16.1312 16.9751 15.8481 16.4304C15.565 15.8826 15.4234 15.2347 15.4234 14.4869C15.4234 13.7575 15.565 13.1173 15.8481 12.5664C16.1312 12.0155 16.5298 11.5862 17.0438 11.2784C17.5608 10.9706 18.1671 10.8168 18.8627 10.8168C19.3305 10.8168 19.766 10.8922 20.1691 11.043C20.5754 11.1907 20.9293 11.4138 21.2309 11.7124C21.5356 12.0109 21.7726 12.3864 21.9419 12.8388C22.1111 13.2881 22.1958 13.8144 22.1958 14.4176V14.9577H16.2082V13.739H20.3445C20.3445 13.4558 20.283 13.205 20.1599 12.9865C20.0368 12.768 19.866 12.5972 19.6475 12.4741C19.432 12.3479 19.1812 12.2848 18.895 12.2848C18.5964 12.2848 18.3318 12.354 18.1009 12.4925C17.8732 12.628 17.6947 12.8111 17.5654 13.0419C17.4362 13.2696 17.37 13.5236 17.3669 13.8036V14.9624C17.3669 15.3132 17.4316 15.6164 17.5608 15.8718C17.6932 16.1272 17.8794 16.3242 18.1194 16.4627C18.3595 16.6012 18.6441 16.6705 18.9735 16.6705C19.192 16.6705 19.392 16.6397 19.5736 16.5781C19.7552 16.5166 19.9106 16.4242 20.0399 16.3011C20.1691 16.178 20.2676 16.0272 20.3353 15.8487L22.1542 15.9688C22.0619 16.4058 21.8726 16.7874 21.5864 17.1136C21.3032 17.4368 20.937 17.6892 20.4877 17.8707C20.0414 18.0492 19.5259 18.1385 18.9411 18.1385ZM23.4791 18V10.9091H25.3857V12.1463H25.4596C25.5889 11.7062 25.8058 11.3738 26.1105 11.1491C26.4152 10.9214 26.7661 10.8075 27.1631 10.8075C27.2616 10.8075 27.3677 10.8137 27.4816 10.826C27.5955 10.8383 27.6955 10.8552 27.7817 10.8768V12.6218C27.6894 12.5941 27.5616 12.5695 27.3985 12.5479C27.2354 12.5264 27.0861 12.5156 26.9507 12.5156C26.6614 12.5156 26.4029 12.5787 26.1752 12.7049C25.9505 12.828 25.772 13.0004 25.6396 13.2219C25.5104 13.4435 25.4458 13.699 25.4458 13.9883V18H23.4791ZM34.6983 12.9311L32.8979 13.0419C32.8671 12.888 32.801 12.7495 32.6994 12.6264C32.5978 12.5002 32.464 12.4002 32.2978 12.3263C32.1346 12.2494 31.9392 12.2109 31.7115 12.2109C31.4068 12.2109 31.1498 12.2756 30.9405 12.4048C30.7312 12.531 30.6266 12.7003 30.6266 12.9126C30.6266 13.0819 30.6943 13.225 30.8297 13.342C30.9651 13.4589 31.1975 13.5528 31.5268 13.6236L32.8102 13.8821C33.4996 14.0237 34.0136 14.2514 34.3521 14.5653C34.6906 14.8793 34.8599 15.2917 34.8599 15.8026C34.8599 16.2673 34.723 16.6751 34.449 17.0259C34.1782 17.3768 33.8058 17.6507 33.3319 17.8477C32.861 18.0415 32.3178 18.1385 31.7022 18.1385C30.7636 18.1385 30.0157 17.9431 29.4586 17.5522C28.9047 17.1583 28.58 16.6228 28.4846 15.9457L30.4189 15.8441C30.4773 16.1303 30.6189 16.3488 30.8436 16.4996C31.0682 16.6474 31.356 16.7212 31.7069 16.7212C32.0516 16.7212 32.3285 16.6551 32.5378 16.5227C32.7502 16.3873 32.8579 16.2134 32.861 16.0011C32.8579 15.8226 32.7825 15.6764 32.6348 15.5625C32.487 15.4455 32.2593 15.3563 31.9515 15.2947L30.7235 15.0501C30.0311 14.9116 29.5156 14.6715 29.177 14.3299C28.8416 13.9883 28.6738 13.5528 28.6738 13.0234C28.6738 12.5679 28.7969 12.1755 29.0431 11.8462C29.2924 11.5169 29.6417 11.263 30.0911 11.0845C30.5435 10.906 31.0729 10.8168 31.6792 10.8168C32.5748 10.8168 33.2795 11.006 33.7935 11.3846C34.3105 11.7631 34.6122 12.2786 34.6983 12.9311ZM36.0983 18V10.9091H38.0649V18H36.0983ZM37.0862 9.99503C36.7938 9.99503 36.543 9.89808 36.3337 9.70419C36.1275 9.50722 36.0244 9.27178 36.0244 8.99787C36.0244 8.72704 36.1275 8.49467 36.3337 8.30078C36.543 8.10381 36.7938 8.00533 37.0862 8.00533C37.3786 8.00533 37.6279 8.10381 37.8341 8.30078C38.0434 8.49467 38.148 8.72704 38.148 8.99787C38.148 9.27178 38.0434 9.50722 37.8341 9.70419C37.6279 9.89808 37.3786 9.99503 37.0862 9.99503ZM42.8441 18.1385C42.127 18.1385 41.5069 17.9862 40.9837 17.6815C40.4635 17.3737 40.0619 16.9459 39.7788 16.3981C39.4956 15.8472 39.354 15.2086 39.354 14.4822C39.354 13.7498 39.4956 13.1096 39.7788 12.5618C40.0619 12.0109 40.4635 11.5831 40.9837 11.2784C41.5069 10.9706 42.127 10.8168 42.8441 10.8168C43.5612 10.8168 44.1798 10.9706 44.6999 11.2784C45.2231 11.5831 45.6263 12.0109 45.9094 12.5618C46.1926 13.1096 46.3342 13.7498 46.3342 14.4822C46.3342 15.2086 46.1926 15.8472 45.9094 16.3981C45.6263 16.9459 45.2231 17.3737 44.6999 17.6815C44.1798 17.9862 43.5612 18.1385 42.8441 18.1385ZM42.8533 16.6151C43.1796 16.6151 43.4519 16.5227 43.6705 16.3381C43.889 16.1503 44.0536 15.8949 44.1644 15.5717C44.2783 15.2486 44.3352 14.8808 44.3352 14.4684C44.3352 14.056 44.2783 13.6882 44.1644 13.3651C44.0536 13.0419 43.889 12.7865 43.6705 12.5987C43.4519 12.411 43.1796 12.3171 42.8533 12.3171C42.524 12.3171 42.247 12.411 42.0224 12.5987C41.8008 12.7865 41.633 13.0419 41.5192 13.3651C41.4084 13.6882 41.353 14.056 41.353 14.4684C41.353 14.8808 41.4084 15.2486 41.5192 15.5717C41.633 15.8949 41.8008 16.1503 42.0224 16.3381C42.247 16.5227 42.524 16.6151 42.8533 16.6151ZM49.5795 13.9006V18H47.6129V10.9091H49.4872V12.1602H49.5703C49.7273 11.7478 49.9904 11.4215 50.3597 11.1815C50.729 10.9383 51.1768 10.8168 51.7031 10.8168C52.1955 10.8168 52.6249 10.9245 52.9911 11.1399C53.3574 11.3554 53.642 11.6631 53.8452 12.0632C54.0483 12.4602 54.1499 12.9342 54.1499 13.4851V18H52.1832V13.8359C52.1863 13.402 52.0755 13.0634 51.8509 12.8203C51.6262 12.5741 51.3169 12.451 50.9229 12.451C50.6583 12.451 50.4244 12.5079 50.2212 12.6218C50.0212 12.7357 49.8642 12.9019 49.7504 13.1204C49.6396 13.3358 49.5826 13.5959 49.5795 13.9006Z" fill="white"/>
<rect width="43" height="26" transform="translate(60)" fill="#533DA3"/>
<path d="M65.7663 18V16.5597L69.1317 13.4435C69.418 13.1665 69.658 12.9173 69.8519 12.6957C70.0489 12.4741 70.1982 12.2571 70.2997 12.0447C70.4013 11.8293 70.4521 11.5969 70.4521 11.3477C70.4521 11.0707 70.389 10.8321 70.2628 10.6321C70.1366 10.429 69.9643 10.2736 69.7457 10.1658C69.5272 10.055 69.2795 9.99964 69.0025 9.99964C68.7132 9.99964 68.4608 10.0581 68.2454 10.1751C68.0299 10.292 67.8638 10.4598 67.7468 10.6783C67.6299 10.8968 67.5714 11.1568 67.5714 11.4585H65.674C65.674 10.8398 65.814 10.3028 66.0941 9.8473C66.3742 9.39181 66.7666 9.03942 67.2713 8.79013C67.776 8.54084 68.3577 8.41619 69.0163 8.41619C69.6934 8.41619 70.2828 8.53622 70.7844 8.77628C71.2892 9.01326 71.6816 9.34257 71.9616 9.7642C72.2417 10.1858 72.3817 10.669 72.3817 11.2138C72.3817 11.5708 72.311 11.9232 72.1694 12.271C72.0309 12.6187 71.7831 13.005 71.4261 13.4297C71.0691 13.8513 70.5659 14.3576 69.9165 14.9485L68.5362 16.3011V16.3658H72.5064V18H65.7663ZM75.1228 18.12C74.8181 18.12 74.5565 18.0123 74.338 17.7969C74.1225 17.5784 74.0148 17.3168 74.0148 17.0121C74.0148 16.7105 74.1225 16.4519 74.338 16.2365C74.5565 16.0211 74.8181 15.9134 75.1228 15.9134C75.4182 15.9134 75.6768 16.0211 75.8983 16.2365C76.1199 16.4519 76.2307 16.7105 76.2307 17.0121C76.2307 17.2152 76.1784 17.4014 76.0738 17.5707C75.9722 17.7369 75.8383 17.8707 75.6721 17.9723C75.5059 18.0708 75.3228 18.12 75.1228 18.12ZM81.1531 18.2077C80.359 18.2047 79.6758 18.0092 79.1033 17.6214C78.534 17.2337 78.0954 16.672 77.7876 15.9364C77.483 15.2009 77.3321 14.3161 77.3352 13.282C77.3352 12.2509 77.4876 11.3723 77.7923 10.646C78.1 9.91963 78.5386 9.36719 79.108 8.98864C79.6804 8.60701 80.3621 8.41619 81.1531 8.41619C81.944 8.41619 82.6242 8.60701 83.1935 8.98864C83.766 9.37026 84.2061 9.92424 84.5138 10.6506C84.8216 11.3738 84.974 12.2509 84.9709 13.282C84.9709 14.3191 84.817 15.2055 84.5092 15.9411C84.2045 16.6766 83.7675 17.2383 83.1982 17.6261C82.6288 18.0138 81.9471 18.2077 81.1531 18.2077ZM81.1531 16.5504C81.6947 16.5504 82.1271 16.2781 82.4503 15.7333C82.7734 15.1886 82.9335 14.3714 82.9304 13.282C82.9304 12.5649 82.8565 11.9678 82.7088 11.4908C82.5642 11.0137 82.358 10.6552 82.0902 10.4151C81.8255 10.1751 81.5131 10.055 81.1531 10.055C80.6145 10.055 80.1836 10.3243 79.8604 10.8629C79.5373 11.4015 79.3742 12.2079 79.3711 13.282C79.3711 14.0083 79.4434 14.6146 79.5881 15.1009C79.7358 15.584 79.9435 15.9472 80.2113 16.1903C80.479 16.4304 80.793 16.5504 81.1531 16.5504ZM87.1833 18.12C86.8786 18.12 86.617 18.0123 86.3985 17.7969C86.1831 17.5784 86.0754 17.3168 86.0754 17.0121C86.0754 16.7105 86.1831 16.4519 86.3985 16.2365C86.617 16.0211 86.8786 15.9134 87.1833 15.9134C87.4788 15.9134 87.7373 16.0211 87.9589 16.2365C88.1805 16.4519 88.2913 16.7105 88.2913 17.0121C88.2913 17.2152 88.239 17.4014 88.1343 17.5707C88.0328 17.7369 87.8989 17.8707 87.7327 17.9723C87.5665 18.0708 87.3834 18.12 87.1833 18.12ZM93.2136 18.2077C92.4196 18.2047 91.7363 18.0092 91.1639 17.6214C90.5945 17.2337 90.156 16.672 89.8482 15.9364C89.5435 15.2009 89.3927 14.3161 89.3958 13.282C89.3958 12.2509 89.5481 11.3723 89.8528 10.646C90.1606 9.91963 90.5991 9.36719 91.1685 8.98864C91.7409 8.60701 92.4226 8.41619 93.2136 8.41619C94.0046 8.41619 94.6847 8.60701 95.2541 8.98864C95.8265 9.37026 96.2666 9.92424 96.5744 10.6506C96.8822 11.3738 97.0345 12.2509 97.0314 13.282C97.0314 14.3191 96.8775 15.2055 96.5698 15.9411C96.2651 16.6766 95.8281 17.2383 95.2587 17.6261C94.6893 18.0138 94.0076 18.2077 93.2136 18.2077ZM93.2136 16.5504C93.7553 16.5504 94.1877 16.2781 94.5108 15.7333C94.834 15.1886 94.994 14.3714 94.9909 13.282C94.9909 12.5649 94.9171 11.9678 94.7694 11.4908C94.6247 11.0137 94.4185 10.6552 94.1507 10.4151C93.8861 10.1751 93.5737 10.055 93.2136 10.055C92.675 10.055 92.2441 10.3243 91.921 10.8629C91.5978 11.4015 91.4347 12.2079 91.4316 13.282C91.4316 14.0083 91.504 14.6146 91.6486 15.1009C91.7963 15.584 92.0041 15.9472 92.2718 16.1903C92.5396 16.4304 92.8535 16.5504 93.2136 16.5504Z" fill="white"/>
<path d="M103 0H165C170.657 0 173.485 0 175.243 1.75736C177 3.51472 177 6.34315 177 12V14C177 19.6569 177 22.4853 175.243 24.2426C173.485 26 170.657 26 165 26H103V0Z" fill="#6C4FD4"/>
<path d="M112.607 8.54545H114.583V15.1378C114.583 15.7472 114.446 16.2765 114.172 16.7259C113.901 17.1752 113.524 17.5214 113.041 17.7646C112.558 18.0077 111.996 18.1293 111.356 18.1293C110.787 18.1293 110.27 18.0292 109.805 17.8292C109.343 17.6261 108.977 17.3183 108.706 16.9059C108.435 16.4904 108.302 15.9687 108.305 15.3409H110.294C110.301 15.5902 110.351 15.8041 110.447 15.9826C110.545 16.158 110.679 16.2934 110.848 16.3888C111.021 16.4812 111.224 16.5273 111.458 16.5273C111.704 16.5273 111.912 16.475 112.081 16.3704C112.253 16.2627 112.384 16.1057 112.473 15.8995C112.563 15.6933 112.607 15.4394 112.607 15.1378V8.54545ZM120.746 14.9808V10.9091H122.713V18H120.825V16.712H120.751C120.591 17.1275 120.324 17.4614 119.952 17.7138C119.583 17.9661 119.132 18.0923 118.599 18.0923C118.125 18.0923 117.708 17.9846 117.348 17.7692C116.988 17.5537 116.707 17.2475 116.504 16.8505C116.304 16.4535 116.202 15.978 116.199 15.424V10.9091H118.165V15.0732C118.169 15.4917 118.281 15.8226 118.502 16.0657C118.724 16.3088 119.021 16.4304 119.393 16.4304C119.63 16.4304 119.852 16.3765 120.058 16.2688C120.264 16.158 120.431 15.9949 120.557 15.7795C120.686 15.564 120.749 15.2978 120.746 14.9808ZM126.252 8.54545V18H124.286V8.54545H126.252ZM129.042 20.6591C128.793 20.6591 128.559 20.6391 128.34 20.5991C128.125 20.5621 127.946 20.5144 127.805 20.456L128.248 18.9879C128.479 19.0587 128.686 19.0972 128.871 19.1033C129.059 19.1095 129.22 19.0664 129.356 18.9741C129.494 18.8817 129.607 18.7248 129.693 18.5032L129.808 18.2031L127.265 10.9091H129.333L130.801 16.1165H130.875L132.357 10.9091H134.439L131.683 18.7663C131.55 19.148 131.37 19.4804 131.142 19.7635C130.918 20.0497 130.633 20.2698 130.288 20.4237C129.944 20.5806 129.528 20.6591 129.042 20.6591ZM138.435 18V16.5597L141.801 13.4435C142.087 13.1665 142.327 12.9173 142.521 12.6957C142.718 12.4741 142.867 12.2571 142.969 12.0447C143.07 11.8293 143.121 11.5969 143.121 11.3477C143.121 11.0707 143.058 10.8321 142.932 10.6321C142.806 10.429 142.633 10.2736 142.415 10.1658C142.196 10.055 141.948 9.99964 141.671 9.99964C141.382 9.99964 141.13 10.0581 140.914 10.1751C140.699 10.292 140.533 10.4598 140.416 10.6783C140.299 10.8968 140.24 11.1568 140.24 11.4585H138.343C138.343 10.8398 138.483 10.3028 138.763 9.8473C139.043 9.39181 139.436 9.03942 139.94 8.79013C140.445 8.54084 141.027 8.41619 141.685 8.41619C142.362 8.41619 142.952 8.53622 143.453 8.77628C143.958 9.01326 144.351 9.34257 144.631 9.7642C144.911 10.1858 145.051 10.669 145.051 11.2138C145.051 11.5708 144.98 11.9232 144.838 12.271C144.7 12.6187 144.452 13.005 144.095 13.4297C143.738 13.8513 143.235 14.3576 142.585 14.9485L141.205 16.3011V16.3658H145.175V18H138.435ZM150.331 18.2077C149.537 18.2047 148.854 18.0092 148.281 17.6214C147.712 17.2337 147.273 16.672 146.965 15.9364C146.661 15.2009 146.51 14.3161 146.513 13.282C146.513 12.2509 146.665 11.3723 146.97 10.646C147.278 9.91963 147.716 9.36719 148.286 8.98864C148.858 8.60701 149.54 8.41619 150.331 8.41619C151.122 8.41619 151.802 8.60701 152.371 8.98864C152.944 9.37026 153.384 9.92424 153.692 10.6506C153.999 11.3738 154.152 12.2509 154.149 13.282C154.149 14.3191 153.995 15.2055 153.687 15.9411C153.382 16.6766 152.945 17.2383 152.376 17.6261C151.807 18.0138 151.125 18.2077 150.331 18.2077ZM150.331 16.5504C150.872 16.5504 151.305 16.2781 151.628 15.7333C151.951 15.1886 152.111 14.3714 152.108 13.282C152.108 12.5649 152.034 11.9678 151.887 11.4908C151.742 11.0137 151.536 10.6552 151.268 10.4151C151.003 10.1751 150.691 10.055 150.331 10.055C149.792 10.055 149.361 10.3243 149.038 10.8629C148.715 11.4015 148.552 12.2079 148.549 13.282C148.549 14.0083 148.621 14.6146 148.766 15.1009C148.914 15.584 149.121 15.9472 149.389 16.1903C149.657 16.4304 149.971 16.5504 150.331 16.5504ZM155.574 18V16.5597L158.939 13.4435C159.226 13.1665 159.466 12.9173 159.66 12.6957C159.857 12.4741 160.006 12.2571 160.107 12.0447C160.209 11.8293 160.26 11.5969 160.26 11.3477C160.26 11.0707 160.197 10.8321 160.07 10.6321C159.944 10.429 159.772 10.2736 159.553 10.1658C159.335 10.055 159.087 9.99964 158.81 9.99964C158.521 9.99964 158.268 10.0581 158.053 10.1751C157.838 10.292 157.671 10.4598 157.554 10.6783C157.437 10.8968 157.379 11.1568 157.379 11.4585H155.482C155.482 10.8398 155.622 10.3028 155.902 9.8473C156.182 9.39181 156.574 9.03942 157.079 8.79013C157.584 8.54084 158.165 8.41619 158.824 8.41619C159.501 8.41619 160.09 8.53622 160.592 8.77628C161.097 9.01326 161.489 9.34257 161.769 9.7642C162.049 10.1858 162.189 10.669 162.189 11.2138C162.189 11.5708 162.119 11.9232 161.977 12.271C161.839 12.6187 161.591 13.005 161.234 13.4297C160.877 13.8513 160.374 14.3576 159.724 14.9485L158.344 16.3011V16.3658H162.314V18H155.574ZM163.416 16.3381V14.7638L167.363 8.54545H168.721V10.7244H167.917L165.429 14.6623V14.7362H171.038V16.3381H163.416ZM167.954 18V15.858L167.991 15.1609V8.54545H169.865V18H167.954Z" fill="white"/>
</svg>
