<svg width="115" height="26" viewBox="0 0 115 26" fill="none" xmlns="http://www.w3.org/2000/svg">
<rect x="1" width="113" height="26" rx="6" fill="#E01F3D"/>
<path d="M20.4615 7.75H7.53846C7.39565 7.75 7.25869 7.80531 7.15771 7.90377C7.05673 8.00223 7 8.13576 7 8.275V17.2C7 17.4785 7.11346 17.7455 7.31542 17.9425C7.51739 18.1394 7.79131 18.25 8.07692 18.25H19.9231C20.2087 18.25 20.4826 18.1394 20.6846 17.9425C20.8865 17.7455 21 17.4785 21 17.2V8.275C21 8.13576 20.9433 8.00223 20.8423 7.90377C20.7413 7.80531 20.6043 7.75 20.4615 7.75ZM19.9231 17.2H8.07692V9.46872L13.6359 14.4372C13.7352 14.5261 13.8651 14.5754 14 14.5754C14.1349 14.5754 14.2648 14.5261 14.3641 14.4372L19.9231 9.46872V17.2Z" fill="white"/>
<path d="M27.9499 18L25.2447 8.54545H27.4283L28.9933 15.1147H29.0717L30.7983 8.54545H32.668L34.3899 15.1286H34.473L36.038 8.54545H38.2216L35.5163 18H33.5682L31.7678 11.8185H31.6939L29.8981 18H27.9499ZM41.6966 18.1385C40.9796 18.1385 40.3594 17.9862 39.8362 17.6815C39.3161 17.3737 38.9144 16.9459 38.6313 16.3981C38.3482 15.8472 38.2066 15.2086 38.2066 14.4822C38.2066 13.7498 38.3482 13.1096 38.6313 12.5618C38.9144 12.0109 39.3161 11.5831 39.8362 11.2784C40.3594 10.9706 40.9796 10.8168 41.6966 10.8168C42.4137 10.8168 43.0323 10.9706 43.5525 11.2784C44.0757 11.5831 44.4788 12.0109 44.762 12.5618C45.0451 13.1096 45.1867 13.7498 45.1867 14.4822C45.1867 15.2086 45.0451 15.8472 44.762 16.3981C44.4788 16.9459 44.0757 17.3737 43.5525 17.6815C43.0323 17.9862 42.4137 18.1385 41.6966 18.1385ZM41.7059 16.6151C42.0321 16.6151 42.3045 16.5227 42.523 16.3381C42.7415 16.1503 42.9062 15.8949 43.017 15.5717C43.1308 15.2486 43.1878 14.8808 43.1878 14.4684C43.1878 14.056 43.1308 13.6882 43.017 13.3651C42.9062 13.0419 42.7415 12.7865 42.523 12.5987C42.3045 12.411 42.0321 12.3171 41.7059 12.3171C41.3766 12.3171 41.0996 12.411 40.8749 12.5987C40.6533 12.7865 40.4856 13.0419 40.3717 13.3651C40.2609 13.6882 40.2055 14.056 40.2055 14.4684C40.2055 14.8808 40.2609 15.2486 40.3717 15.5717C40.4856 15.8949 40.6533 16.1503 40.8749 16.3381C41.0996 16.5227 41.3766 16.6151 41.7059 16.6151ZM46.4655 18V10.9091H48.3721V12.1463H48.4459C48.5752 11.7062 48.7922 11.3738 49.0969 11.1491C49.4015 10.9214 49.7524 10.8075 50.1494 10.8075C50.2479 10.8075 50.3541 10.8137 50.468 10.826C50.5818 10.8383 50.6818 10.8552 50.768 10.8768V12.6218C50.6757 12.5941 50.548 12.5695 50.3849 12.5479C50.2217 12.5264 50.0725 12.5156 49.9371 12.5156C49.6478 12.5156 49.3892 12.5787 49.1615 12.7049C48.9368 12.828 48.7583 13.0004 48.626 13.2219C48.4967 13.4435 48.4321 13.699 48.4321 13.9883V18H46.4655ZM53.5668 15.9595L53.5714 13.6005H53.8576L56.1289 10.9091H58.3864L55.3349 14.473H54.8686L53.5668 15.9595ZM51.7848 18V8.54545H53.7514V18H51.7848ZM56.2166 18L54.13 14.9116L55.4411 13.522L58.5202 18H56.2166ZM63.7588 18L61.8291 10.9091H63.8188L64.9175 15.6733H64.9822L66.127 10.9091H68.0798L69.2432 15.6456H69.3032L70.3834 10.9091H72.3685L70.4434 18H68.3614L67.1427 13.5405H67.055L65.8362 18H63.7588ZM73.4176 18V10.9091H75.3842V18H73.4176ZM74.4055 9.99503C74.1132 9.99503 73.8623 9.89808 73.6531 9.70419C73.4469 9.50722 73.3438 9.27178 73.3438 8.99787C73.3438 8.72704 73.4469 8.49467 73.6531 8.30078C73.8623 8.10381 74.1132 8.00533 74.4055 8.00533C74.6979 8.00533 74.9472 8.10381 75.1534 8.30078C75.3627 8.49467 75.4673 8.72704 75.4673 8.99787C75.4673 9.27178 75.3627 9.50722 75.1534 9.70419C74.9472 9.89808 74.6979 9.99503 74.4055 9.99503ZM80.7313 10.9091V12.3864H76.461V10.9091H80.7313ZM77.4305 9.21023H79.3971V15.821C79.3971 16.0026 79.4248 16.1442 79.4802 16.2457C79.5356 16.3442 79.6125 16.4135 79.711 16.4535C79.8126 16.4935 79.9295 16.5135 80.0619 16.5135C80.1542 16.5135 80.2465 16.5058 80.3389 16.4904C80.4312 16.4719 80.502 16.4581 80.5512 16.4489L80.8605 17.9123C80.762 17.9431 80.6236 17.9785 80.445 18.0185C80.2665 18.0616 80.0496 18.0877 79.7941 18.0969C79.3202 18.1154 78.9047 18.0523 78.5477 17.9077C78.1937 17.763 77.9183 17.5384 77.7213 17.2337C77.5244 16.929 77.4274 16.5443 77.4305 16.0795V9.21023ZM84.1313 13.9006V18H82.1647V8.54545H84.0759V12.1602H84.159C84.319 11.7416 84.5776 11.4138 84.9346 11.1768C85.2916 10.9368 85.7394 10.8168 86.278 10.8168C86.7704 10.8168 87.1997 10.9245 87.566 11.1399C87.9353 11.3523 88.2215 11.6585 88.4246 12.0586C88.6308 12.4556 88.7324 12.9311 88.7293 13.4851V18H86.7627V13.8359C86.7658 13.3989 86.655 13.0588 86.4303 12.8157C86.2087 12.5726 85.8979 12.451 85.4978 12.451C85.23 12.451 84.993 12.5079 84.7868 12.6218C84.5837 12.7357 84.4237 12.9019 84.3067 13.1204C84.1929 13.3358 84.1344 13.5959 84.1313 13.9006ZM97.833 14.9808V10.9091H99.7996V18H97.9115V16.712H97.8376C97.6776 17.1275 97.4114 17.4614 97.039 17.7138C96.6697 17.9661 96.2188 18.0923 95.6863 18.0923C95.2124 18.0923 94.7954 17.9846 94.4353 17.7692C94.0752 17.5537 93.7936 17.2475 93.5905 16.8505C93.3904 16.4535 93.2889 15.978 93.2858 15.424V10.9091H95.2524V15.0732C95.2555 15.4917 95.3678 15.8226 95.5894 16.0657C95.811 16.3088 96.108 16.4304 96.4804 16.4304C96.7174 16.4304 96.939 16.3765 97.1452 16.2688C97.3514 16.158 97.5175 15.9949 97.6437 15.7795C97.773 15.564 97.8361 15.2978 97.833 14.9808ZM107.273 12.9311L105.472 13.0419C105.441 12.888 105.375 12.7495 105.274 12.6264C105.172 12.5002 105.038 12.4002 104.872 12.3263C104.709 12.2494 104.513 12.2109 104.286 12.2109C103.981 12.2109 103.724 12.2756 103.515 12.4048C103.305 12.531 103.201 12.7003 103.201 12.9126C103.201 13.0819 103.269 13.225 103.404 13.342C103.539 13.4589 103.772 13.5528 104.101 13.6236L105.384 13.8821C106.074 14.0237 106.588 14.2514 106.926 14.5653C107.265 14.8793 107.434 15.2917 107.434 15.8026C107.434 16.2673 107.297 16.6751 107.023 17.0259C106.752 17.3768 106.38 17.6507 105.906 17.8477C105.435 18.0415 104.892 18.1385 104.276 18.1385C103.338 18.1385 102.59 17.9431 102.033 17.5522C101.479 17.1583 101.154 16.6228 101.059 15.9457L102.993 15.8441C103.052 16.1303 103.193 16.3488 103.418 16.4996C103.642 16.6474 103.93 16.7212 104.281 16.7212C104.626 16.7212 104.903 16.6551 105.112 16.5227C105.324 16.3873 105.432 16.2134 105.435 16.0011C105.432 15.8226 105.357 15.6764 105.209 15.5625C105.061 15.4455 104.834 15.3563 104.526 15.2947L103.298 15.0501C102.605 14.9116 102.09 14.6715 101.751 14.3299C101.416 13.9883 101.248 13.5528 101.248 13.0234C101.248 12.5679 101.371 12.1755 101.617 11.8462C101.867 11.5169 102.216 11.263 102.665 11.0845C103.118 10.906 103.647 10.8168 104.253 10.8168C105.149 10.8168 105.854 11.006 106.368 11.3846C106.885 11.7631 107.186 12.2786 107.273 12.9311Z" fill="white"/>
</svg>
