<svg width="73" height="26" viewBox="0 0 73 26" fill="none" xmlns="http://www.w3.org/2000/svg">
<rect x="1" width="71" height="26" rx="6" fill="#C8C8D9"/>
<path d="M15.3319 11.928L20.5437 6H19.3087L14.7833 11.1472L11.1688 6H7L12.4657 13.7835L7 20H8.2351L13.0141 14.5643L16.8312 20H21L15.3316 11.928H15.3319ZM13.6403 13.8521L13.0865 13.077L8.68013 6.90978H10.5772L14.1331 11.887L14.6869 12.662L19.3093 19.1316H17.4122L13.6403 13.8524V13.8521Z" fill="#0D1117"/>
<path d="M25.8217 18V8.54545H32.0817V10.1935H27.8207V12.4464H31.6662V14.0945H27.8207V18H25.8217ZM36.0726 18.1385C35.3555 18.1385 34.7354 17.9862 34.2122 17.6815C33.6921 17.3737 33.2904 16.9459 33.0073 16.3981C32.7241 15.8472 32.5826 15.2086 32.5826 14.4822C32.5826 13.7498 32.7241 13.1096 33.0073 12.5618C33.2904 12.0109 33.6921 11.5831 34.2122 11.2784C34.7354 10.9706 35.3555 10.8168 36.0726 10.8168C36.7897 10.8168 37.4083 10.9706 37.9284 11.2784C38.4516 11.5831 38.8548 12.0109 39.138 12.5618C39.4211 13.1096 39.5627 13.7498 39.5627 14.4822C39.5627 15.2086 39.4211 15.8472 39.138 16.3981C38.8548 16.9459 38.4516 17.3737 37.9284 17.6815C37.4083 17.9862 36.7897 18.1385 36.0726 18.1385ZM36.0819 16.6151C36.4081 16.6151 36.6805 16.5227 36.899 16.3381C37.1175 16.1503 37.2821 15.8949 37.3929 15.5717C37.5068 15.2486 37.5637 14.8808 37.5637 14.4684C37.5637 14.056 37.5068 13.6882 37.3929 13.3651C37.2821 13.0419 37.1175 12.7865 36.899 12.5987C36.6805 12.411 36.4081 12.3171 36.0819 12.3171C35.7525 12.3171 35.4756 12.411 35.2509 12.5987C35.0293 12.7865 34.8616 13.0419 34.7477 13.3651C34.6369 13.6882 34.5815 14.056 34.5815 14.4684C34.5815 14.8808 34.6369 15.2486 34.7477 15.5717C34.8616 15.8949 35.0293 16.1503 35.2509 16.3381C35.4756 16.5227 35.7525 16.6151 36.0819 16.6151ZM42.8081 8.54545V18H40.8414V8.54545H42.8081ZM46.3501 8.54545V18H44.3834V8.54545H46.3501ZM51.1293 18.1385C50.4122 18.1385 49.792 17.9862 49.2688 17.6815C48.7487 17.3737 48.3471 16.9459 48.0639 16.3981C47.7808 15.8472 47.6392 15.2086 47.6392 14.4822C47.6392 13.7498 47.7808 13.1096 48.0639 12.5618C48.3471 12.0109 48.7487 11.5831 49.2688 11.2784C49.792 10.9706 50.4122 10.8168 51.1293 10.8168C51.8464 10.8168 52.465 10.9706 52.9851 11.2784C53.5083 11.5831 53.9115 12.0109 54.1946 12.5618C54.4777 13.1096 54.6193 13.7498 54.6193 14.4822C54.6193 15.2086 54.4777 15.8472 54.1946 16.3981C53.9115 16.9459 53.5083 17.3737 52.9851 17.6815C52.465 17.9862 51.8464 18.1385 51.1293 18.1385ZM51.1385 16.6151C51.4647 16.6151 51.7371 16.5227 51.9556 16.3381C52.1741 16.1503 52.3388 15.8949 52.4496 15.5717C52.5634 15.2486 52.6204 14.8808 52.6204 14.4684C52.6204 14.056 52.5634 13.6882 52.4496 13.3651C52.3388 13.0419 52.1741 12.7865 51.9556 12.5987C51.7371 12.411 51.4647 12.3171 51.1385 12.3171C50.8092 12.3171 50.5322 12.411 50.3075 12.5987C50.0859 12.7865 49.9182 13.0419 49.8043 13.3651C49.6935 13.6882 49.6381 14.056 49.6381 14.4684C49.6381 14.8808 49.6935 15.2486 49.8043 15.5717C49.9182 15.8949 50.0859 16.1503 50.3075 16.3381C50.5322 16.5227 50.8092 16.6151 51.1385 16.6151ZM57.1191 18L55.1895 10.9091H57.1792L58.2779 15.6733H58.3425L59.4874 10.9091H61.4402L62.6035 15.6456H62.6635L63.7438 10.9091H65.7289L63.8038 18H61.7218L60.503 13.5405H60.4153L59.1966 18H57.1191Z" fill="#0D1117"/>
</svg>
