<svg width="981" height="58" viewBox="0 0 981 58" fill="none" xmlns="http://www.w3.org/2000/svg">
<path d="M870.324 16L872.353 3.63636H873.56L871.532 16H870.324ZM864.698 12.571L864.891 11.3636H874.115L873.922 12.571H864.698ZM865.978 16L868.006 3.63636H869.213L867.185 16H865.978ZM865.422 8.27273L865.615 7.06534H874.84L874.647 8.27273H865.422ZM876.437 19.4773V6.72727H877.813V8.20028H877.982C878.087 8.0393 878.232 7.83404 878.417 7.58452C878.606 7.33097 878.876 7.10559 879.226 6.90838C879.58 6.70715 880.059 6.60653 880.663 6.60653C881.443 6.60653 882.132 6.80173 882.727 7.19212C883.323 7.5825 883.788 8.13589 884.122 8.85227C884.456 9.56865 884.623 10.4138 884.623 11.3878C884.623 12.3698 884.456 13.221 884.122 13.9414C883.788 14.6578 883.325 15.2132 882.733 15.6076C882.142 15.998 881.459 16.1932 880.687 16.1932C880.091 16.1932 879.614 16.0946 879.256 15.8974C878.898 15.6961 878.622 15.4687 878.429 15.2152C878.236 14.9576 878.087 14.7443 877.982 14.5753H877.861V19.4773H876.437ZM877.837 11.3636C877.837 12.0639 877.94 12.6817 878.145 13.217C878.35 13.7482 878.65 14.1648 879.045 14.4666C879.439 14.7644 879.922 14.9134 880.493 14.9134C881.089 14.9134 881.586 14.7564 881.985 14.4425C882.387 14.1245 882.689 13.6979 882.89 13.1626C883.095 12.6233 883.198 12.0237 883.198 11.3636C883.198 10.7116 883.097 10.1241 882.896 9.60085C882.699 9.07363 882.399 8.65708 881.997 8.35121C881.598 8.04131 881.097 7.88636 880.493 7.88636C879.914 7.88636 879.427 8.03326 879.033 8.32706C878.638 8.61683 878.34 9.02332 878.139 9.54652C877.938 10.0657 877.837 10.6714 877.837 11.3636ZM886.796 16V6.72727H888.172V8.12784H888.269C888.438 7.66903 888.744 7.29676 889.187 7.01101C889.629 6.72526 890.128 6.58239 890.684 6.58239C890.788 6.58239 890.919 6.5844 891.076 6.58842C891.233 6.59245 891.352 6.59848 891.432 6.60653V8.0554C891.384 8.04332 891.273 8.02521 891.1 8.00106C890.931 7.97289 890.752 7.95881 890.563 7.95881C890.112 7.95881 889.71 8.05339 889.356 8.24254C889.006 8.42767 888.728 8.68525 888.523 9.01527C888.321 9.34126 888.221 9.71354 888.221 10.1321V16H886.796ZM896.606 16.1932C895.769 16.1932 895.034 15.994 894.403 15.5955C893.775 15.1971 893.284 14.6397 892.93 13.9233C892.579 13.2069 892.404 12.3698 892.404 11.4119C892.404 10.446 892.579 9.60286 892.93 8.88246C893.284 8.16205 893.775 7.60263 894.403 7.20419C895.034 6.80575 895.769 6.60653 896.606 6.60653C897.443 6.60653 898.176 6.80575 898.804 7.20419C899.435 7.60263 899.926 8.16205 900.277 8.88246C900.631 9.60286 900.808 10.446 900.808 11.4119C900.808 12.3698 900.631 13.2069 900.277 13.9233C899.926 14.6397 899.435 15.1971 898.804 15.5955C898.176 15.994 897.443 16.1932 896.606 16.1932ZM896.606 14.9134C897.242 14.9134 897.765 14.7504 898.176 14.4244C898.586 14.0984 898.89 13.6697 899.087 13.1385C899.284 12.6072 899.383 12.0317 899.383 11.4119C899.383 10.7921 899.284 10.2146 899.087 9.67933C898.89 9.14406 898.586 8.71141 898.176 8.38139C897.765 8.05137 897.242 7.88636 896.606 7.88636C895.97 7.88636 895.447 8.05137 895.036 8.38139C894.626 8.71141 894.322 9.14406 894.125 9.67933C893.928 10.2146 893.829 10.7921 893.829 11.4119C893.829 12.0317 893.928 12.6072 894.125 13.1385C894.322 13.6697 894.626 14.0984 895.036 14.4244C895.447 14.7504 895.97 14.9134 896.606 14.9134ZM906.725 19.6705C906.037 19.6705 905.446 19.5819 904.951 19.4048C904.456 19.2318 904.043 19.0024 903.713 18.7166C903.387 18.4349 903.127 18.133 902.934 17.8111L904.069 17.0142C904.198 17.1832 904.361 17.3764 904.558 17.5938C904.755 17.8151 905.025 18.0063 905.367 18.1673C905.713 18.3323 906.166 18.4148 906.725 18.4148C907.474 18.4148 908.092 18.2337 908.579 17.8714C909.066 17.5092 909.309 16.9418 909.309 16.169V14.2855H909.189C909.084 14.4545 908.935 14.6638 908.742 14.9134C908.553 15.1589 908.279 15.3782 907.921 15.5714C907.567 15.7605 907.088 15.8551 906.484 15.8551C905.735 15.8551 905.063 15.678 904.468 15.3239C903.876 14.9697 903.407 14.4545 903.061 13.7784C902.719 13.1023 902.548 12.2812 902.548 11.3153C902.548 10.3655 902.715 9.53847 903.049 8.83416C903.383 8.12583 903.848 7.57848 904.444 7.19212C905.039 6.80173 905.727 6.60653 906.508 6.60653C907.112 6.60653 907.591 6.70715 907.945 6.90838C908.303 7.10559 908.577 7.33097 908.766 7.58452C908.959 7.83404 909.108 8.0393 909.213 8.20028H909.358V6.72727H910.734V16.2656C910.734 17.0625 910.553 17.7105 910.191 18.2095C909.832 18.7126 909.35 19.0808 908.742 19.3143C908.138 19.5517 907.466 19.6705 906.725 19.6705ZM906.677 14.5753C907.249 14.5753 907.732 14.4445 908.126 14.1829C908.52 13.9213 908.82 13.545 909.026 13.054C909.231 12.563 909.333 11.9754 909.333 11.2912C909.333 10.6231 909.233 10.0335 909.032 9.52237C908.83 9.01125 908.533 8.6108 908.138 8.32102C907.744 8.03125 907.257 7.88636 906.677 7.88636C906.073 7.88636 905.57 8.0393 905.168 8.34517C904.769 8.65104 904.47 9.06155 904.268 9.5767C904.071 10.0919 903.973 10.6634 903.973 11.2912C903.973 11.9351 904.073 12.5046 904.274 12.9996C904.48 13.4906 904.782 13.877 905.18 14.1587C905.582 14.4364 906.082 14.5753 906.677 14.5753ZM913.342 16V6.72727H914.718V8.12784H914.815C914.984 7.66903 915.29 7.29676 915.733 7.01101C916.175 6.72526 916.674 6.58239 917.23 6.58239C917.334 6.58239 917.465 6.5844 917.622 6.58842C917.779 6.59245 917.898 6.59848 917.978 6.60653V8.0554C917.93 8.04332 917.819 8.02521 917.646 8.00106C917.477 7.97289 917.298 7.95881 917.109 7.95881C916.658 7.95881 916.256 8.05339 915.902 8.24254C915.551 8.42767 915.274 8.68525 915.069 9.01527C914.867 9.34126 914.767 9.71354 914.767 10.1321V16H913.342ZM922.396 16.2173C921.808 16.2173 921.275 16.1067 920.796 15.8853C920.317 15.6599 919.937 15.3359 919.655 14.9134C919.373 14.4867 919.232 13.9716 919.232 13.3679C919.232 12.8366 919.337 12.406 919.546 12.076C919.756 11.742 920.035 11.4804 920.386 11.2912C920.736 11.102 921.122 10.9612 921.545 10.8686C921.971 10.772 922.4 10.6955 922.83 10.6392C923.394 10.5668 923.851 10.5124 924.201 10.4762C924.555 10.436 924.813 10.3696 924.974 10.277C925.139 10.1844 925.221 10.0234 925.221 9.79403V9.74574C925.221 9.15009 925.058 8.68726 924.732 8.35724C924.41 8.02723 923.921 7.86222 923.265 7.86222C922.585 7.86222 922.052 8.01113 921.665 8.30895C921.279 8.60677 921.007 8.92472 920.85 9.26278L919.498 8.77983C919.74 8.21638 920.062 7.7777 920.464 7.46378C920.87 7.14583 921.313 6.92448 921.792 6.79972C922.275 6.67093 922.75 6.60653 923.217 6.60653C923.515 6.60653 923.857 6.64276 924.243 6.7152C924.634 6.78362 925.01 6.92649 925.372 7.14382C925.738 7.36115 926.042 7.68916 926.284 8.12784C926.525 8.56652 926.646 9.15412 926.646 9.89062V16H925.221V14.7443H925.149C925.052 14.9455 924.891 15.1609 924.666 15.3903C924.44 15.6197 924.141 15.8149 923.766 15.9759C923.392 16.1368 922.935 16.2173 922.396 16.2173ZM922.613 14.9375C923.177 14.9375 923.652 14.8268 924.038 14.6055C924.428 14.3841 924.722 14.0984 924.919 13.7482C925.12 13.3981 925.221 13.0298 925.221 12.6435V11.3395C925.161 11.4119 925.028 11.4783 924.823 11.5387C924.621 11.5951 924.388 11.6454 924.122 11.6896C923.861 11.7299 923.605 11.7661 923.356 11.7983C923.11 11.8265 922.911 11.8506 922.758 11.8707C922.388 11.919 922.042 11.9975 921.72 12.1062C921.402 12.2108 921.144 12.3698 920.947 12.5831C920.754 12.7924 920.657 13.0781 920.657 13.4403C920.657 13.9354 920.84 14.3097 921.207 14.5632C921.577 14.8127 922.046 14.9375 922.613 14.9375ZM929.246 16V6.72727H930.623V8.17614H930.743C930.937 7.68111 931.248 7.29676 931.679 7.02308C932.11 6.74538 932.627 6.60653 933.231 6.60653C933.842 6.60653 934.351 6.74538 934.758 7.02308C935.168 7.29676 935.488 7.68111 935.718 8.17614H935.814C936.052 7.69721 936.408 7.31688 936.883 7.03516C937.358 6.74941 937.927 6.60653 938.591 6.60653C939.42 6.60653 940.099 6.86612 940.626 7.3853C941.153 7.90045 941.417 8.70336 941.417 9.79403V16H939.992V9.79403C939.992 9.10985 939.805 8.62086 939.431 8.32706C939.056 8.03326 938.616 7.88636 938.108 7.88636C937.456 7.88636 936.951 8.08357 936.593 8.47798C936.235 8.86837 936.056 9.3634 936.056 9.96307V16H934.607V9.64915C934.607 9.12192 934.436 8.69732 934.094 8.37535C933.752 8.04936 933.311 7.88636 932.772 7.88636C932.402 7.88636 932.055 7.98497 931.733 8.18217C931.416 8.37938 931.158 8.65305 930.961 9.0032C930.768 9.34931 930.671 9.74976 930.671 10.2045V16H929.246ZM944.022 16V6.72727H945.398V8.17614H945.519C945.712 7.68111 946.024 7.29676 946.455 7.02308C946.885 6.74538 947.402 6.60653 948.006 6.60653C948.618 6.60653 949.127 6.74538 949.533 7.02308C949.944 7.29676 950.264 7.68111 950.493 8.17614H950.59C950.827 7.69721 951.183 7.31688 951.658 7.03516C952.133 6.74941 952.703 6.60653 953.367 6.60653C954.196 6.60653 954.874 6.86612 955.401 7.3853C955.928 7.90045 956.192 8.70336 956.192 9.79403V16H954.767V9.79403C954.767 9.10985 954.58 8.62086 954.206 8.32706C953.832 8.03326 953.391 7.88636 952.884 7.88636C952.232 7.88636 951.727 8.08357 951.369 8.47798C951.01 8.86837 950.831 9.3634 950.831 9.96307V16H949.382V9.64915C949.382 9.12192 949.211 8.69732 948.869 8.37535C948.527 8.04936 948.086 7.88636 947.547 7.88636C947.177 7.88636 946.831 7.98497 946.509 8.18217C946.191 8.37938 945.933 8.65305 945.736 9.0032C945.543 9.34931 945.446 9.74976 945.446 10.2045V16H944.022ZM958.797 16V6.72727H960.222V16H958.797ZM959.521 5.18182C959.244 5.18182 959.004 5.08724 958.803 4.89808C958.606 4.70893 958.507 4.48153 958.507 4.21591C958.507 3.95028 958.606 3.72289 958.803 3.53374C959.004 3.34458 959.244 3.25 959.521 3.25C959.799 3.25 960.037 3.34458 960.234 3.53374C960.435 3.72289 960.536 3.95028 960.536 4.21591C960.536 4.48153 960.435 4.70893 960.234 4.89808C960.037 5.08724 959.799 5.18182 959.521 5.18182ZM964.256 10.4219V16H962.831V6.72727H964.208V8.17614H964.328C964.546 7.70526 964.876 7.32694 965.318 7.04119C965.761 6.75142 966.333 6.60653 967.033 6.60653C967.661 6.60653 968.21 6.73532 968.681 6.9929C969.152 7.24645 969.518 7.63281 969.78 8.15199C970.041 8.66714 970.172 9.31913 970.172 10.108V16H968.747V10.2045C968.747 9.47609 968.558 8.90862 968.18 8.50213C967.802 8.09162 967.282 7.88636 966.622 7.88636C966.168 7.88636 965.761 7.98497 965.403 8.18217C965.049 8.37938 964.769 8.66714 964.564 9.04545C964.359 9.42377 964.256 9.88258 964.256 10.4219ZM976.518 19.6705C975.83 19.6705 975.239 19.5819 974.744 19.4048C974.249 19.2318 973.836 19.0024 973.506 18.7166C973.18 18.4349 972.92 18.133 972.727 17.8111L973.862 17.0142C973.991 17.1832 974.154 17.3764 974.351 17.5938C974.548 17.8151 974.818 18.0063 975.16 18.1673C975.506 18.3323 975.959 18.4148 976.518 18.4148C977.267 18.4148 977.885 18.2337 978.372 17.8714C978.859 17.5092 979.102 16.9418 979.102 16.169V14.2855H978.982C978.877 14.4545 978.728 14.6638 978.535 14.9134C978.346 15.1589 978.072 15.3782 977.714 15.5714C977.36 15.7605 976.881 15.8551 976.277 15.8551C975.528 15.8551 974.856 15.678 974.261 15.3239C973.669 14.9697 973.2 14.4545 972.854 13.7784C972.512 13.1023 972.341 12.2812 972.341 11.3153C972.341 10.3655 972.508 9.53847 972.842 8.83416C973.176 8.12583 973.641 7.57848 974.236 7.19212C974.832 6.80173 975.52 6.60653 976.301 6.60653C976.905 6.60653 977.384 6.70715 977.738 6.90838C978.096 7.10559 978.37 7.33097 978.559 7.58452C978.752 7.83404 978.901 8.0393 979.006 8.20028H979.151V6.72727H980.527V16.2656C980.527 17.0625 980.346 17.7105 979.984 18.2095C979.625 18.7126 979.142 19.0808 978.535 19.3143C977.931 19.5517 977.259 19.6705 976.518 19.6705ZM976.47 14.5753C977.042 14.5753 977.525 14.4445 977.919 14.1829C978.313 13.9213 978.613 13.545 978.819 13.054C979.024 12.563 979.126 11.9754 979.126 11.2912C979.126 10.6231 979.026 10.0335 978.825 9.52237C978.623 9.01125 978.325 8.6108 977.931 8.32102C977.537 8.03125 977.05 7.88636 976.47 7.88636C975.866 7.88636 975.363 8.0393 974.961 8.34517C974.562 8.65104 974.263 9.06155 974.061 9.5767C973.864 10.0919 973.766 10.6634 973.766 11.2912C973.766 11.9351 973.866 12.5046 974.067 12.9996C974.273 13.4906 974.575 13.877 974.973 14.1587C975.375 14.4364 975.874 14.5753 976.47 14.5753ZM923.35 35L925.378 22.6364H926.585L924.557 35H923.35ZM917.723 31.571L917.916 30.3636H927.141L926.948 31.571H917.723ZM919.003 35L921.031 22.6364H922.239L920.21 35H919.003ZM918.448 27.2727L918.641 26.0653H927.865L927.672 27.2727H918.448ZM932.963 35.1932C932.191 35.1932 931.509 34.998 930.917 34.6076C930.325 34.2132 929.863 33.6578 929.528 32.9414C929.194 32.221 929.027 31.3698 929.027 30.3878C929.027 29.4138 929.194 28.5687 929.528 27.8523C929.863 27.1359 930.327 26.5825 930.923 26.1921C931.519 25.8017 932.207 25.6065 932.988 25.6065C933.591 25.6065 934.068 25.7071 934.418 25.9084C934.773 26.1056 935.042 26.331 935.227 26.5845C935.416 26.834 935.563 27.0393 935.668 27.2003H935.789V22.6364H937.213V35H935.837V33.5753H935.668C935.563 33.7443 935.414 33.9576 935.221 34.2152C935.028 34.4687 934.752 34.6961 934.394 34.8974C934.036 35.0946 933.559 35.1932 932.963 35.1932ZM933.157 33.9134C933.728 33.9134 934.211 33.7644 934.606 33.4666C935 33.1648 935.3 32.7482 935.505 32.217C935.71 31.6817 935.813 31.0639 935.813 30.3636C935.813 29.6714 935.712 29.0657 935.511 28.5465C935.31 28.0233 935.012 27.6168 934.618 27.3271C934.223 27.0333 933.736 26.8864 933.157 26.8864C932.553 26.8864 932.05 27.0413 931.647 27.3512C931.249 27.6571 930.949 28.0736 930.748 28.6009C930.551 29.1241 930.452 29.7116 930.452 30.3636C930.452 31.0237 930.553 31.6233 930.754 32.1626C930.959 32.6979 931.261 33.1245 931.66 33.4425C932.062 33.7564 932.561 33.9134 933.157 33.9134ZM943.908 35.1932C943.015 35.1932 942.244 34.996 941.596 34.6016C940.952 34.2031 940.455 33.6477 940.105 32.9354C939.759 32.219 939.586 31.3859 939.586 30.4361C939.586 29.4863 939.759 28.6491 940.105 27.9247C940.455 27.1963 940.942 26.6288 941.566 26.2223C942.194 25.8118 942.926 25.6065 943.764 25.6065C944.247 25.6065 944.723 25.687 945.194 25.848C945.665 26.009 946.094 26.2706 946.48 26.6328C946.867 26.991 947.174 27.4659 947.404 28.0575C947.633 28.6491 947.748 29.3776 947.748 30.2429V30.8466H940.6V29.6151H946.299C946.299 29.0919 946.194 28.625 945.985 28.2145C945.78 27.804 945.486 27.48 945.104 27.2425C944.725 27.0051 944.279 26.8864 943.764 26.8864C943.196 26.8864 942.705 27.0272 942.291 27.3089C941.88 27.5866 941.564 27.9489 941.343 28.3956C941.121 28.8423 941.011 29.3213 941.011 29.8324V30.6534C941.011 31.3537 941.131 31.9473 941.373 32.4343C941.618 32.9173 941.959 33.2855 942.393 33.5391C942.828 33.7886 943.333 33.9134 943.908 33.9134C944.283 33.9134 944.621 33.861 944.923 33.7564C945.229 33.6477 945.492 33.4867 945.713 33.2734C945.935 33.0561 946.106 32.7865 946.227 32.4645L947.603 32.8509C947.458 33.3177 947.215 33.7282 946.873 34.0824C946.53 34.4325 946.108 34.7062 945.605 34.9034C945.102 35.0966 944.536 35.1932 943.908 35.1932ZM956.483 27.804L955.204 28.1662C955.123 27.9529 955.004 27.7456 954.847 27.5444C954.694 27.3391 954.485 27.1701 954.22 27.0373C953.954 26.9045 953.614 26.8381 953.199 26.8381C952.632 26.8381 952.159 26.9689 951.781 27.2305C951.406 27.488 951.219 27.8161 951.219 28.2145C951.219 28.5687 951.348 28.8484 951.606 29.0536C951.863 29.2589 952.266 29.4299 952.813 29.5668L954.189 29.9048C955.018 30.1061 955.636 30.4139 956.043 30.8285C956.449 31.239 956.652 31.7682 956.652 32.4162C956.652 32.9474 956.499 33.4223 956.194 33.8409C955.892 34.2595 955.469 34.5895 954.926 34.831C954.383 35.0724 953.751 35.1932 953.03 35.1932C952.084 35.1932 951.302 34.9879 950.682 34.5774C950.062 34.1669 949.67 33.5672 949.505 32.7784L950.857 32.4403C950.986 32.9394 951.229 33.3137 951.587 33.5632C951.95 33.8127 952.423 33.9375 953.006 33.9375C953.67 33.9375 954.197 33.7966 954.588 33.5149C954.982 33.2292 955.179 32.8871 955.179 32.4886C955.179 32.1667 955.067 31.897 954.841 31.6797C954.616 31.4583 954.27 31.2933 953.803 31.1847L952.258 30.8224C951.408 30.6212 950.785 30.3093 950.386 29.8867C949.992 29.4601 949.794 28.9268 949.794 28.2869C949.794 27.7637 949.941 27.3009 950.235 26.8984C950.533 26.496 950.937 26.18 951.449 25.9506C951.964 25.7212 952.547 25.6065 953.199 25.6065C954.117 25.6065 954.837 25.8078 955.36 26.2102C955.888 26.6127 956.262 27.1439 956.483 27.804ZM958.797 35V25.7273H960.222V35H958.797ZM959.521 24.1818C959.244 24.1818 959.004 24.0872 958.803 23.8981C958.606 23.7089 958.507 23.4815 958.507 23.2159C958.507 22.9503 958.606 22.7229 958.803 22.5337C959.004 22.3446 959.244 22.25 959.521 22.25C959.799 22.25 960.037 22.3446 960.234 22.5337C960.435 22.7229 960.536 22.9503 960.536 23.2159C960.536 23.4815 960.435 23.7089 960.234 23.8981C960.037 24.0872 959.799 24.1818 959.521 24.1818ZM966.574 38.6705C965.886 38.6705 965.294 38.5819 964.799 38.4048C964.304 38.2318 963.892 38.0024 963.562 37.7166C963.236 37.4349 962.976 37.133 962.783 36.8111L963.918 36.0142C964.047 36.1832 964.21 36.3764 964.407 36.5938C964.604 36.8151 964.874 37.0063 965.216 37.1673C965.562 37.3323 966.015 37.4148 966.574 37.4148C967.323 37.4148 967.94 37.2337 968.427 36.8714C968.914 36.5092 969.158 35.9418 969.158 35.169V33.2855H969.037C968.933 33.4545 968.784 33.6638 968.59 33.9134C968.401 34.1589 968.128 34.3782 967.769 34.5714C967.415 34.7605 966.936 34.8551 966.333 34.8551C965.584 34.8551 964.912 34.678 964.316 34.3239C963.725 33.9697 963.256 33.4545 962.91 32.7784C962.568 32.1023 962.397 31.2812 962.397 30.3153C962.397 29.3655 962.564 28.5385 962.898 27.8342C963.232 27.1258 963.696 26.5785 964.292 26.1921C964.888 25.8017 965.576 25.6065 966.357 25.6065C966.96 25.6065 967.439 25.7071 967.794 25.9084C968.152 26.1056 968.425 26.331 968.615 26.5845C968.808 26.834 968.957 27.0393 969.061 27.2003H969.206V25.7273H970.583V35.2656C970.583 36.0625 970.402 36.7105 970.039 37.2095C969.681 37.7126 969.198 38.0808 968.59 38.3143C967.987 38.5517 967.315 38.6705 966.574 38.6705ZM966.526 33.5753C967.097 33.5753 967.58 33.4445 967.975 33.1829C968.369 32.9213 968.669 32.545 968.874 32.054C969.079 31.563 969.182 30.9754 969.182 30.2912C969.182 29.6231 969.081 29.0335 968.88 28.5224C968.679 28.0112 968.381 27.6108 967.987 27.321C967.592 27.0312 967.105 26.8864 966.526 26.8864C965.922 26.8864 965.419 27.0393 965.017 27.3452C964.618 27.651 964.318 28.0616 964.117 28.5767C963.92 29.0919 963.821 29.6634 963.821 30.2912C963.821 30.9351 963.922 31.5046 964.123 31.9996C964.328 32.4906 964.63 32.877 965.029 33.1587C965.431 33.4364 965.93 33.5753 966.526 33.5753ZM974.615 29.4219V35H973.191V25.7273H974.567V27.1761H974.688C974.905 26.7053 975.235 26.3269 975.678 26.0412C976.12 25.7514 976.692 25.6065 977.392 25.6065C978.02 25.6065 978.569 25.7353 979.04 25.9929C979.511 26.2464 979.877 26.6328 980.139 27.152C980.401 27.6671 980.531 28.3191 980.531 29.108V35H979.107V29.2045C979.107 28.4761 978.918 27.9086 978.539 27.5021C978.161 27.0916 977.642 26.8864 976.982 26.8864C976.527 26.8864 976.12 26.985 975.762 27.1822C975.408 27.3794 975.128 27.6671 974.923 28.0455C974.718 28.4238 974.615 28.8826 974.615 29.4219ZM906.067 54L908.096 41.6364H909.303L907.275 54H906.067ZM900.441 50.571L900.634 49.3636H909.859L909.665 50.571H900.441ZM901.721 54L903.749 41.6364H904.957L902.928 54H901.721ZM901.165 46.2727L901.359 45.0653H910.583L910.39 46.2727H901.165ZM912.373 54V41.6364H913.798V46.2003H913.918C914.023 46.0393 914.168 45.834 914.353 45.5845C914.542 45.331 914.812 45.1056 915.162 44.9084C915.516 44.7071 915.995 44.6065 916.599 44.6065C917.38 44.6065 918.068 44.8017 918.663 45.1921C919.259 45.5825 919.724 46.1359 920.058 46.8523C920.392 47.5687 920.559 48.4138 920.559 49.3878C920.559 50.3698 920.392 51.221 920.058 51.9414C919.724 52.6578 919.261 53.2132 918.67 53.6076C918.078 53.998 917.396 54.1932 916.623 54.1932C916.027 54.1932 915.55 54.0946 915.192 53.8974C914.834 53.6961 914.558 53.4687 914.365 53.2152C914.172 52.9576 914.023 52.7443 913.918 52.5753H913.749V54H912.373ZM913.774 49.3636C913.774 50.0639 913.876 50.6817 914.081 51.217C914.287 51.7482 914.587 52.1648 914.981 52.4666C915.375 52.7644 915.858 52.9134 916.43 52.9134C917.025 52.9134 917.523 52.7564 917.921 52.4425C918.323 52.1245 918.625 51.6979 918.826 51.1626C919.032 50.6233 919.134 50.0237 919.134 49.3636C919.134 48.7116 919.034 48.1241 918.833 47.6009C918.635 47.0736 918.335 46.6571 917.933 46.3512C917.535 46.0413 917.034 45.8864 916.43 45.8864C915.85 45.8864 915.363 46.0333 914.969 46.3271C914.574 46.6168 914.277 47.0233 914.075 47.5465C913.874 48.0657 913.774 48.6714 913.774 49.3636ZM928.582 50.2088V44.7273H930.007V54H928.582V52.4304H928.486C928.268 52.9013 927.93 53.3017 927.471 53.6317C927.013 53.9577 926.433 54.1207 925.733 54.1207C925.153 54.1207 924.638 53.994 924.187 53.7404C923.737 53.4828 923.382 53.0965 923.125 52.5813C922.867 52.0621 922.738 51.4081 922.738 50.6193V44.7273H924.163V50.5227C924.163 51.1989 924.352 51.7382 924.731 52.1406C925.113 52.5431 925.6 52.7443 926.192 52.7443C926.546 52.7443 926.906 52.6538 927.272 52.4727C927.642 52.2915 927.952 52.0138 928.202 51.6396C928.455 51.2653 928.582 50.7884 928.582 50.2088ZM939.185 46.804L937.905 47.1662C937.824 46.9529 937.705 46.7456 937.549 46.5444C937.396 46.3391 937.186 46.1701 936.921 46.0373C936.655 45.9045 936.315 45.8381 935.9 45.8381C935.333 45.8381 934.86 45.9689 934.482 46.2305C934.107 46.488 933.92 46.8161 933.92 47.2145C933.92 47.5687 934.049 47.8484 934.307 48.0536C934.564 48.2589 934.967 48.4299 935.514 48.5668L936.891 48.9048C937.72 49.1061 938.337 49.4139 938.744 49.8285C939.15 50.239 939.354 50.7682 939.354 51.4162C939.354 51.9474 939.201 52.4223 938.895 52.8409C938.593 53.2595 938.17 53.5895 937.627 53.831C937.084 54.0724 936.452 54.1932 935.731 54.1932C934.786 54.1932 934.003 53.9879 933.383 53.5774C932.763 53.1669 932.371 52.5672 932.206 51.7784L933.558 51.4403C933.687 51.9394 933.93 52.3137 934.289 52.5632C934.651 52.8127 935.124 52.9375 935.707 52.9375C936.371 52.9375 936.899 52.7966 937.289 52.5149C937.683 52.2292 937.881 51.8871 937.881 51.4886C937.881 51.1667 937.768 50.897 937.542 50.6797C937.317 50.4583 936.971 50.2933 936.504 50.1847L934.959 49.8224C934.109 49.6212 933.486 49.3093 933.087 48.8867C932.693 48.4601 932.496 47.9268 932.496 47.2869C932.496 46.7637 932.643 46.3009 932.936 45.8984C933.234 45.496 933.639 45.18 934.15 44.9506C934.665 44.7212 935.248 44.6065 935.9 44.6065C936.818 44.6065 937.538 44.8078 938.062 45.2102C938.589 45.6127 938.963 46.1439 939.185 46.804ZM941.498 54V44.7273H942.923V54H941.498ZM942.223 43.1818C941.945 43.1818 941.705 43.0872 941.504 42.8981C941.307 42.7089 941.208 42.4815 941.208 42.2159C941.208 41.9503 941.307 41.7229 941.504 41.5337C941.705 41.3446 941.945 41.25 942.223 41.25C942.5 41.25 942.738 41.3446 942.935 41.5337C943.136 41.7229 943.237 41.9503 943.237 42.2159C943.237 42.4815 943.136 42.7089 942.935 42.8981C942.738 43.0872 942.5 43.1818 942.223 43.1818ZM946.957 48.4219V54H945.532V44.7273H946.909V46.1761H947.03C947.247 45.7053 947.577 45.3269 948.02 45.0412C948.462 44.7514 949.034 44.6065 949.734 44.6065C950.362 44.6065 950.911 44.7353 951.382 44.9929C951.853 45.2464 952.219 45.6328 952.481 46.152C952.742 46.6671 952.873 47.3191 952.873 48.108V54H951.449V48.2045C951.449 47.4761 951.259 46.9086 950.881 46.5021C950.503 46.0916 949.984 45.8864 949.324 45.8864C948.869 45.8864 948.462 45.985 948.104 46.1822C947.75 46.3794 947.47 46.6671 947.265 47.0455C947.06 47.4238 946.957 47.8826 946.957 48.4219ZM959.364 54.1932C958.471 54.1932 957.7 53.996 957.052 53.6016C956.408 53.2031 955.911 52.6477 955.561 51.9354C955.215 51.219 955.042 50.3859 955.042 49.4361C955.042 48.4863 955.215 47.6491 955.561 46.9247C955.911 46.1963 956.398 45.6288 957.022 45.2223C957.65 44.8118 958.382 44.6065 959.22 44.6065C959.703 44.6065 960.179 44.687 960.65 44.848C961.121 45.009 961.55 45.2706 961.936 45.6328C962.323 45.991 962.63 46.4659 962.86 47.0575C963.089 47.6491 963.204 48.3776 963.204 49.2429V49.8466H956.056V48.6151H961.755C961.755 48.0919 961.65 47.625 961.441 47.2145C961.236 46.804 960.942 46.48 960.56 46.2425C960.181 46.0051 959.735 45.8864 959.22 45.8864C958.652 45.8864 958.161 46.0272 957.747 46.3089C957.336 46.5866 957.02 46.9489 956.799 47.3956C956.577 47.8423 956.467 48.3213 956.467 48.8324V49.6534C956.467 50.3537 956.588 50.9473 956.829 51.4343C957.074 51.9173 957.415 52.2855 957.849 52.5391C958.284 52.7886 958.789 52.9134 959.364 52.9134C959.739 52.9134 960.077 52.861 960.379 52.7564C960.685 52.6477 960.948 52.4867 961.17 52.2734C961.391 52.0561 961.562 51.7865 961.683 51.4645L963.059 51.8509C962.914 52.3177 962.671 52.7282 962.329 53.0824C961.987 53.4325 961.564 53.7062 961.061 53.9034C960.558 54.0966 959.992 54.1932 959.364 54.1932ZM971.939 46.804L970.66 47.1662C970.579 46.9529 970.46 46.7456 970.303 46.5444C970.15 46.3391 969.941 46.1701 969.676 46.0373C969.41 45.9045 969.07 45.8381 968.655 45.8381C968.088 45.8381 967.615 45.9689 967.237 46.2305C966.862 46.488 966.675 46.8161 966.675 47.2145C966.675 47.5687 966.804 47.8484 967.062 48.0536C967.319 48.2589 967.722 48.4299 968.269 48.5668L969.645 48.9048C970.474 49.1061 971.092 49.4139 971.499 49.8285C971.905 50.239 972.108 50.7682 972.108 51.4162C972.108 51.9474 971.956 52.4223 971.65 52.8409C971.348 53.2595 970.925 53.5895 970.382 53.831C969.839 54.0724 969.207 54.1932 968.486 54.1932C967.541 54.1932 966.758 53.9879 966.138 53.5774C965.518 53.1669 965.126 52.5672 964.961 51.7784L966.313 51.4403C966.442 51.9394 966.685 52.3137 967.043 52.5632C967.406 52.8127 967.879 52.9375 968.462 52.9375C969.126 52.9375 969.653 52.7966 970.044 52.5149C970.438 52.2292 970.635 51.8871 970.635 51.4886C970.635 51.1667 970.523 50.897 970.297 50.6797C970.072 50.4583 969.726 50.2933 969.259 50.1847L967.714 49.8224C966.864 49.6212 966.241 49.3093 965.842 48.8867C965.448 48.4601 965.25 47.9268 965.25 47.2869C965.25 46.7637 965.397 46.3009 965.691 45.8984C965.989 45.496 966.393 45.18 966.905 44.9506C967.42 44.7212 968.003 44.6065 968.655 44.6065C969.573 44.6065 970.293 44.8078 970.817 45.2102C971.344 45.6127 971.718 46.1439 971.939 46.804ZM980.821 46.804L979.541 47.1662C979.461 46.9529 979.342 46.7456 979.185 46.5444C979.032 46.3391 978.823 46.1701 978.557 46.0373C978.292 45.9045 977.952 45.8381 977.537 45.8381C976.97 45.8381 976.497 45.9689 976.118 46.2305C975.744 46.488 975.557 46.8161 975.557 47.2145C975.557 47.5687 975.686 47.8484 975.943 48.0536C976.201 48.2589 976.603 48.4299 977.151 48.5668L978.527 48.9048C979.356 49.1061 979.974 49.4139 980.381 49.8285C980.787 50.239 980.99 50.7682 980.99 51.4162C980.99 51.9474 980.837 52.4223 980.531 52.8409C980.23 53.2595 979.807 53.5895 979.264 53.831C978.72 54.0724 978.089 54.1932 977.368 54.1932C976.422 54.1932 975.64 53.9879 975.02 53.5774C974.4 53.1669 974.008 52.5672 973.843 51.7784L975.195 51.4403C975.324 51.9394 975.567 52.3137 975.925 52.5632C976.288 52.8127 976.76 52.9375 977.344 52.9375C978.008 52.9375 978.535 52.7966 978.926 52.5149C979.32 52.2292 979.517 51.8871 979.517 51.4886C979.517 51.1667 979.405 50.897 979.179 50.6797C978.954 50.4583 978.608 50.2933 978.141 50.1847L976.595 49.8224C975.746 49.6212 975.122 49.3093 974.724 48.8867C974.33 48.4601 974.132 47.9268 974.132 47.2869C974.132 46.7637 974.279 46.3009 974.573 45.8984C974.871 45.496 975.275 45.18 975.786 44.9506C976.302 44.7212 976.885 44.6065 977.537 44.6065C978.455 44.6065 979.175 44.8078 979.698 45.2102C980.226 45.6127 980.6 46.1439 980.821 46.804Z" fill="#B7D1DA" fill-opacity="0.76"/>
<path d="M545.785 35.1252L545.861 23.2708H547.219L554.239 13.9461H565.937L554.163 28.475H551.22L545.785 35.1252ZM536.426 41.7029V4.5H546.706V41.7029H536.426ZM554.314 41.7029L547.672 30.7159L554.465 23.632L566.239 41.7029H554.314Z" fill="#B7D1DA"/>
<path d="M519.783 41.5784C516.659 41.5784 513.986 40.9578 511.763 39.7154C509.538 38.4604 507.833 36.7169 506.646 34.4828C505.459 32.2371 504.866 29.633 504.866 26.6716C504.866 23.7112 505.459 21.113 506.646 18.88C507.833 16.6342 509.538 14.8897 511.763 13.6474C513.986 12.3923 516.659 11.7658 519.783 11.7658C522.607 11.7658 525.049 12.2798 527.111 13.3087C529.184 14.3248 530.79 15.7678 531.926 17.6377C533.064 19.4948 533.639 21.5927 533.651 24.1018H524.055C523.918 22.5834 523.481 21.5144 522.744 20.7244C522.019 19.9216 521.082 19.5202 519.933 19.5202C519.033 19.5202 518.246 19.7836 517.572 20.3103C516.897 20.8252 516.372 21.6094 515.998 22.6627C515.623 23.7044 515.436 25.0162 515.436 26.5972C515.436 28.1773 515.623 29.495 515.998 30.5493C516.372 31.591 516.897 32.3751 517.572 32.9018C518.246 33.4167 519.033 33.6732 519.933 33.6732C520.695 33.6732 521.37 33.498 521.957 33.1465C522.544 32.7824 523.019 32.2557 523.381 31.5655C523.756 30.8626 523.981 30.2459 524.055 29.2424H533.651C533.613 31.7897 533.033 33.7741 531.908 35.6684C530.784 37.5509 529.191 39.0067 527.129 40.0356C525.08 41.0645 522.632 41.5784 519.783 41.5784Z" fill="#B7D1DA"/>
<path fill-rule="evenodd" clip-rule="evenodd" d="M501.866 11.8903H502.17V41.7029H491.89V20.3016C493.465 19.4529 494.962 18.422 496.342 17.303C498.538 15.5233 500.431 13.5487 501.866 11.8903ZM488.805 21.6771V41.7029C488.805 52.5 478.525 52.5 478.525 52.5H465.163V44.7926L475.443 44.7896C476.618 44.7896 478.525 44.7896 478.525 41.7029V21.7035C480.182 22.2782 481.895 22.612 483.625 22.612C485.381 22.612 487.121 22.2674 488.805 21.6771ZM475.441 20.3388V41.7029H465.16V11.8903L465.439 11.8883C466.864 13.5467 468.746 15.5203 470.929 17.2991C472.326 18.4357 473.842 19.4812 475.441 20.3388Z" fill="#B7D1DA"/>
<path d="M483.625 11.2336C471.084 11.2336 465.157 6.36847 465.157 6.36847C465.157 6.36847 473.928 19.4355 483.625 19.4355C493.322 19.4355 502.168 6.36847 502.168 6.36847C502.168 6.36847 496.167 11.2336 483.625 11.2336Z" fill="#B7D1DA"/>
<path d="M416.75 41.7028V11.8901H427.03V18.0577C427.64 16.2182 428.681 14.6078 430.153 13.5348C431.624 12.4619 433.377 11.8901 435.407 11.8901C437.463 11.8901 439.234 12.4364 440.719 13.5348C442.203 14.6205 443.098 16.2573 443.403 18.0577H443.708C444.202 16.2573 445.256 14.6234 446.868 13.5377C448.479 12.4393 450.371 11.8901 452.541 11.8901C455.346 11.8901 457.618 12.7967 459.357 14.6107C461.108 16.4247 461.984 18.8389 461.984 21.8531V41.7028H452.217V24.2262C452.217 24.2262 452.217 20.6284 448.362 20.6284C444.764 20.6284 444.507 24.2262 444.507 24.2262V41.7028H434.741V24.2262C434.741 24.2262 434.741 20.6284 430.885 20.6284C427.288 20.6284 427.03 24.2262 427.03 24.2262V41.7028H416.75Z" fill="#B7D1DA"/>
<path d="M6.91619 25.5L8.9446 13.1364H10.152L8.12358 25.5H6.91619ZM1.28977 22.071L1.48295 20.8636H10.7074L10.5142 22.071H1.28977ZM2.5696 25.5L4.59801 13.1364H5.8054L3.77699 25.5H2.5696ZM2.0142 17.7727L2.20739 16.5653H11.4318L11.2386 17.7727H2.0142ZM15.1294 25.5L12.3042 16.2273H13.8013L15.8056 23.3267H15.9022L17.8823 16.2273H19.4036L21.3596 23.3026H21.4561L23.4604 16.2273H24.9576L22.1323 25.5H20.7317L18.7033 18.3764H18.5584L16.53 25.5H15.1294ZM26.8411 25.5V16.2273H28.2658V25.5H26.8411ZM27.5655 14.6818C27.2878 14.6818 27.0484 14.5872 26.8471 14.3981C26.6499 14.2089 26.5513 13.9815 26.5513 13.7159C26.5513 13.4503 26.6499 13.2229 26.8471 13.0337C27.0484 12.8446 27.2878 12.75 27.5655 12.75C27.8432 12.75 28.0807 12.8446 28.2779 13.0337C28.4791 13.2229 28.5797 13.4503 28.5797 13.7159C28.5797 13.9815 28.4791 14.2089 28.2779 14.3981C28.0807 14.5872 27.8432 14.6818 27.5655 14.6818ZM34.9079 16.2273V17.4347H30.1025V16.2273H34.9079ZM31.5031 14.0057H32.9278V22.8438C32.9278 23.2462 32.9862 23.5481 33.1029 23.7493C33.2236 23.9465 33.3766 24.0793 33.5617 24.1477C33.7509 24.2121 33.9501 24.2443 34.1594 24.2443C34.3163 24.2443 34.4451 24.2363 34.5457 24.2202C34.6463 24.2 34.7268 24.1839 34.7872 24.1719L35.077 25.4517C34.9804 25.4879 34.8456 25.5241 34.6725 25.5604C34.4994 25.6006 34.2801 25.6207 34.0145 25.6207C33.612 25.6207 33.2176 25.5342 32.8312 25.3612C32.4489 25.1881 32.1309 24.9245 31.8774 24.5703C31.6279 24.2161 31.5031 23.7694 31.5031 23.2301V14.0057ZM38.675 19.9219V25.5H37.2503V13.1364H38.675V17.6761H38.7957C39.0131 17.1972 39.339 16.8169 39.7737 16.5352C40.2124 16.2494 40.796 16.1065 41.5244 16.1065C42.1563 16.1065 42.7097 16.2333 43.1846 16.4869C43.6595 16.7364 44.0277 17.1207 44.2893 17.6399C44.555 18.1551 44.6878 18.8111 44.6878 19.608V25.5H43.2631V19.7045C43.2631 18.968 43.0719 18.3986 42.6895 17.9961C42.3112 17.5896 41.786 17.3864 41.1139 17.3864C40.647 17.3864 40.2285 17.485 39.8582 17.6822C39.492 17.8794 39.2022 18.1671 38.9889 18.5455C38.7796 18.9238 38.675 19.3826 38.675 19.9219ZM48.7189 13.1364V25.5H47.2942V13.1364H48.7189ZM55.0954 25.6932C54.2583 25.6932 53.5238 25.494 52.892 25.0955C52.2641 24.6971 51.7731 24.1397 51.4189 23.4233C51.0688 22.7069 50.8937 21.8698 50.8937 20.9119C50.8937 19.946 51.0688 19.1029 51.4189 18.3825C51.7731 17.662 52.2641 17.1026 52.892 16.7042C53.5238 16.3058 54.2583 16.1065 55.0954 16.1065C55.9326 16.1065 56.665 16.3058 57.2929 16.7042C57.9247 17.1026 58.4157 17.662 58.7659 18.3825C59.1201 19.1029 59.2971 19.946 59.2971 20.9119C59.2971 21.8698 59.1201 22.7069 58.7659 23.4233C58.4157 24.1397 57.9247 24.6971 57.2929 25.0955C56.665 25.494 55.9326 25.6932 55.0954 25.6932ZM55.0954 24.4134C55.7313 24.4134 56.2545 24.2504 56.665 23.9244C57.0756 23.5984 57.3794 23.1697 57.5766 22.6385C57.7738 22.1072 57.8724 21.5317 57.8724 20.9119C57.8724 20.2921 57.7738 19.7146 57.5766 19.1793C57.3794 18.6441 57.0756 18.2114 56.665 17.8814C56.2545 17.5514 55.7313 17.3864 55.0954 17.3864C54.4595 17.3864 53.9363 17.5514 53.5258 17.8814C53.1153 18.2114 52.8115 18.6441 52.6143 19.1793C52.4171 19.7146 52.3184 20.2921 52.3184 20.9119C52.3184 21.5317 52.4171 22.1072 52.6143 22.6385C52.8115 23.1697 53.1153 23.5984 53.5258 23.9244C53.9363 24.2504 54.4595 24.4134 55.0954 24.4134ZM68.7223 16.2273L65.2933 25.5H63.8445L60.4155 16.2273H61.9609L64.5206 23.6165H64.6172L67.1768 16.2273H68.7223ZM74.1586 25.6932C73.2651 25.6932 72.4944 25.496 71.8464 25.1016C71.2025 24.7031 70.7054 24.1477 70.3553 23.4354C70.0092 22.719 69.8361 21.8859 69.8361 20.9361C69.8361 19.9863 70.0092 19.1491 70.3553 18.4247C70.7054 17.6963 71.1924 17.1288 71.8162 16.7223C72.4441 16.3118 73.1766 16.1065 74.0137 16.1065C74.4966 16.1065 74.9735 16.187 75.4444 16.348C75.9153 16.509 76.3439 16.7706 76.7303 17.1328C77.1167 17.491 77.4245 17.9659 77.6539 18.5575C77.8833 19.1491 77.998 19.8776 77.998 20.7429V21.3466H70.8503V20.1151H76.5492C76.5492 19.5919 76.4445 19.125 76.2353 18.7145C76.03 18.304 75.7362 17.98 75.3539 17.7425C74.9756 17.5051 74.5288 17.3864 74.0137 17.3864C73.4462 17.3864 72.9552 17.5272 72.5407 17.8089C72.1301 18.0866 71.8142 18.4489 71.5929 18.8956C71.3715 19.3423 71.2608 19.8213 71.2608 20.3324V21.1534C71.2608 21.8537 71.3816 22.4473 71.623 22.9343C71.8685 23.4173 72.2086 23.7855 72.6433 24.0391C73.0779 24.2886 73.583 24.4134 74.1586 24.4134C74.5328 24.4134 74.8709 24.361 75.1728 24.2564C75.4786 24.1477 75.7422 23.9867 75.9636 23.7734C76.185 23.5561 76.356 23.2865 76.4767 22.9645L77.8532 23.3509C77.7083 23.8177 77.4648 24.2282 77.1227 24.5824C76.7806 24.9325 76.358 25.2062 75.8549 25.4034C75.3519 25.5966 74.7864 25.6932 74.1586 25.6932ZM84.2946 16.2273V17.4347H79.296V16.2273H84.2946ZM80.7931 25.5V14.9474C80.7931 14.4162 80.9179 13.9735 81.1674 13.6193C81.417 13.2652 81.7409 12.9995 82.1394 12.8224C82.5378 12.6454 82.9584 12.5568 83.4011 12.5568C83.7512 12.5568 84.037 12.585 84.2583 12.6413C84.4797 12.6977 84.6447 12.75 84.7534 12.7983L84.3429 14.0298C84.2704 14.0057 84.1698 13.9755 84.041 13.9393C83.9163 13.9031 83.7512 13.8849 83.546 13.8849C83.0751 13.8849 82.735 14.0037 82.5257 14.2411C82.3205 14.4786 82.2179 14.8267 82.2179 15.2855V25.5H80.7931ZM89.6765 25.6932C88.8394 25.6932 88.1049 25.494 87.473 25.0955C86.8452 24.6971 86.3542 24.1397 86 23.4233C85.6499 22.7069 85.4748 21.8698 85.4748 20.9119C85.4748 19.946 85.6499 19.1029 86 18.3825C86.3542 17.662 86.8452 17.1026 87.473 16.7042C88.1049 16.3058 88.8394 16.1065 89.6765 16.1065C90.5136 16.1065 91.2461 16.3058 91.8739 16.7042C92.5058 17.1026 92.9968 17.662 93.3469 18.3825C93.7011 19.1029 93.8782 19.946 93.8782 20.9119C93.8782 21.8698 93.7011 22.7069 93.3469 23.4233C92.9968 24.1397 92.5058 24.6971 91.8739 25.0955C91.2461 25.494 90.5136 25.6932 89.6765 25.6932ZM89.6765 24.4134C90.3124 24.4134 90.8356 24.2504 91.2461 23.9244C91.6566 23.5984 91.9605 23.1697 92.1577 22.6385C92.3549 22.1072 92.4535 21.5317 92.4535 20.9119C92.4535 20.2921 92.3549 19.7146 92.1577 19.1793C91.9605 18.6441 91.6566 18.2114 91.2461 17.8814C90.8356 17.5514 90.3124 17.3864 89.6765 17.3864C89.0406 17.3864 88.5174 17.5514 88.1069 17.8814C87.6964 18.2114 87.3925 18.6441 87.1953 19.1793C86.9981 19.7146 86.8995 20.2921 86.8995 20.9119C86.8995 21.5317 86.9981 22.1072 87.1953 22.6385C87.3925 23.1697 87.6964 23.5984 88.1069 23.9244C88.5174 24.2504 89.0406 24.4134 89.6765 24.4134ZM96.053 25.5V16.2273H97.4294V17.6278H97.526C97.695 17.169 98.0009 16.7968 98.4436 16.511C98.8863 16.2253 99.3854 16.0824 99.9408 16.0824C100.045 16.0824 100.176 16.0844 100.333 16.0884C100.49 16.0924 100.609 16.0985 100.689 16.1065V17.5554C100.641 17.5433 100.53 17.5252 100.357 17.5011C100.188 17.4729 100.009 17.4588 99.82 17.4588C99.3693 17.4588 98.9668 17.5534 98.6127 17.7425C98.2625 17.9277 97.9848 18.1853 97.7796 18.5153C97.5783 18.8413 97.4777 19.2135 97.4777 19.6321V25.5H96.053Z" fill="#B7D1DA" fill-opacity="0.76"/>
<path d="M10.321 38.2457H7.25426C7.23816 38.0566 7.17176 37.8936 7.05504 37.7567C6.93833 37.6199 6.78741 37.5153 6.60227 37.4428C6.42116 37.3664 6.21993 37.3281 5.99858 37.3281C5.71283 37.3281 5.46733 37.3804 5.26207 37.4851C5.05682 37.5897 4.9562 37.7386 4.96023 37.9318C4.9562 38.0687 5.01456 38.1954 5.1353 38.3121C5.26006 38.4289 5.49953 38.5194 5.85369 38.5838L7.73722 38.9219C8.68703 39.0949 9.39335 39.3867 9.85618 39.7972C10.323 40.2037 10.5585 40.7491 10.5625 41.4332C10.5585 42.0933 10.3613 42.6668 9.97088 43.1538C9.58452 43.6367 9.05528 44.011 8.38317 44.2766C7.71508 44.5382 6.95241 44.669 6.09517 44.669C4.6785 44.669 3.56972 44.3793 2.76882 43.7997C1.97195 43.2202 1.52723 42.4555 1.43466 41.5057H4.7429C4.78717 41.7995 4.93206 42.0269 5.17756 42.1879C5.42708 42.3448 5.741 42.4233 6.11932 42.4233C6.42519 42.4233 6.67673 42.371 6.87394 42.2663C7.07517 42.1617 7.17779 42.0128 7.18182 41.8196C7.17779 41.6425 7.08925 41.5017 6.91619 41.397C6.74716 41.2924 6.48153 41.2079 6.11932 41.1435L4.47727 40.8537C3.53149 40.6887 2.82315 40.3748 2.35227 39.9119C1.88139 39.4491 1.64796 38.8535 1.65199 38.125C1.64796 37.4811 1.817 36.9357 2.15909 36.489C2.50521 36.0382 2.99822 35.6961 3.63814 35.4627C4.28208 35.2253 5.04474 35.1065 5.92614 35.1065C7.26634 35.1065 8.3228 35.3842 9.09553 35.9396C9.87228 36.495 10.2808 37.2637 10.321 38.2457ZM11.8393 44.5V35.2273H15.1717V44.5H11.8393ZM13.5055 34.2614C13.0547 34.2614 12.6684 34.1125 12.3464 33.8146C12.0244 33.5168 11.8635 33.1586 11.8635 32.7401C11.8635 32.3215 12.0244 31.9633 12.3464 31.6655C12.6684 31.3677 13.0547 31.2188 13.5055 31.2188C13.9603 31.2188 14.3467 31.3677 14.6646 31.6655C14.9866 31.9633 15.1475 32.3215 15.1475 32.7401C15.1475 33.1586 14.9866 33.5168 14.6646 33.8146C14.3467 34.1125 13.9603 34.2614 13.5055 34.2614ZM16.8696 44.5V35.2273H20.0329V36.9901H20.1295C20.3227 36.4105 20.6527 35.9517 21.1196 35.6136C21.5864 35.2756 22.1418 35.1065 22.7858 35.1065C23.4378 35.1065 23.9992 35.2796 24.4701 35.6257C24.941 35.9678 25.2247 36.4226 25.3213 36.9901H25.4179C25.5748 36.4226 25.9089 35.9678 26.42 35.6257C26.9311 35.2796 27.5308 35.1065 28.219 35.1065C29.1085 35.1065 29.8289 35.3923 30.3802 35.9638C30.9356 36.5353 31.2133 37.2959 31.2133 38.2457V44.5H27.8809V39.0909C27.8809 38.6844 27.7783 38.3665 27.5731 38.1371C27.3678 37.9036 27.0921 37.7869 26.746 37.7869C26.4039 37.7869 26.1323 37.9036 25.931 38.1371C25.7338 38.3665 25.6352 38.6844 25.6352 39.0909V44.5H22.4477V39.0909C22.4477 38.6844 22.3451 38.3665 22.1398 38.1371C21.9346 37.9036 21.6589 37.7869 21.3128 37.7869C21.0834 37.7869 20.8862 37.8393 20.7211 37.9439C20.5561 38.0485 20.4273 38.1995 20.3348 38.3967C20.2462 38.5898 20.202 38.8213 20.202 39.0909V44.5H16.8696ZM32.8569 47.9773V35.2273H36.1651V36.8452H36.2376C36.3583 36.5312 36.5354 36.2435 36.7688 35.9819C37.0022 35.7163 37.292 35.505 37.6381 35.348C37.9843 35.187 38.3867 35.1065 38.8455 35.1065C39.4573 35.1065 40.0388 35.2695 40.5902 35.5955C41.1456 35.9215 41.5964 36.4347 41.9425 37.1349C42.2926 37.8352 42.4677 38.7448 42.4677 39.8636C42.4677 40.9342 42.3007 41.8216 41.9666 42.5259C41.6366 43.2302 41.1939 43.7554 40.6385 44.1016C40.0871 44.4477 39.4814 44.6207 38.8214 44.6207C38.3867 44.6207 37.9983 44.5503 37.6562 44.4094C37.3182 44.2646 37.0284 44.0694 36.7869 43.8239C36.5495 43.5743 36.3664 43.2926 36.2376 42.9787H36.1893V47.9773H32.8569ZM36.1168 39.8636C36.1168 40.3144 36.1752 40.7048 36.2919 41.0348C36.4126 41.3608 36.5817 41.6143 36.799 41.7955C37.0204 41.9725 37.284 42.0611 37.5898 42.0611C37.8957 42.0611 38.1553 41.9746 38.3686 41.8015C38.5859 41.6244 38.7509 41.3729 38.8636 41.0469C38.9804 40.7169 39.0387 40.3224 39.0387 39.8636C39.0387 39.4048 38.9804 39.0124 38.8636 38.6864C38.7509 38.3564 38.5859 38.1049 38.3686 37.9318C38.1553 37.7547 37.8957 37.6662 37.5898 37.6662C37.284 37.6662 37.0204 37.7547 36.799 37.9318C36.5817 38.1049 36.4126 38.3564 36.2919 38.6864C36.1752 39.0124 36.1168 39.4048 36.1168 39.8636ZM47.1961 32.1364V44.5H43.8637V32.1364H47.1961ZM48.894 44.5V35.2273H52.2264V44.5H48.894ZM50.5602 34.2614C50.1094 34.2614 49.7231 34.1125 49.4011 33.8146C49.0791 33.5168 48.9181 33.1586 48.9181 32.7401C48.9181 32.3215 49.0791 31.9633 49.4011 31.6655C49.7231 31.3677 50.1094 31.2188 50.5602 31.2188C51.015 31.2188 51.4013 31.3677 51.7193 31.6655C52.0413 31.9633 52.2022 32.3215 52.2022 32.7401C52.2022 33.1586 52.0413 33.5168 51.7193 33.8146C51.4013 34.1125 51.015 34.2614 50.5602 34.2614ZM58.3916 44.669C57.3854 44.669 56.5242 44.4698 55.8078 44.0714C55.0914 43.6689 54.5421 43.1095 54.1597 42.3931C53.7774 41.6727 53.5862 40.8376 53.5862 39.8878C53.5862 38.938 53.7774 38.1049 54.1597 37.3885C54.5421 36.6681 55.0914 36.1087 55.8078 35.7102C56.5242 35.3078 57.3854 35.1065 58.3916 35.1065C59.3012 35.1065 60.088 35.2715 60.752 35.6016C61.4201 35.9276 61.9373 36.3904 62.3035 36.9901C62.6698 37.5857 62.8549 38.286 62.8589 39.0909H59.768C59.7238 38.6039 59.5829 38.2337 59.3454 37.9801C59.112 37.7225 58.8102 37.5938 58.4399 37.5938C58.1501 37.5938 57.8966 37.6783 57.6792 37.8473C57.4619 38.0123 57.2929 38.2638 57.1721 38.6019C57.0514 38.936 56.991 39.3565 56.991 39.8636C56.991 40.3707 57.0514 40.7933 57.1721 41.1314C57.2929 41.4654 57.4619 41.717 57.6792 41.886C57.8966 42.051 58.1501 42.1335 58.4399 42.1335C58.6854 42.1335 58.9027 42.0772 59.0919 41.9645C59.281 41.8478 59.434 41.6787 59.5507 41.4574C59.6714 41.232 59.7439 40.9583 59.768 40.6364H62.8589C62.8469 41.4534 62.6597 42.1657 62.2975 42.7734C61.9353 43.3771 61.4221 43.844 60.7581 44.174C60.098 44.504 59.3092 44.669 58.3916 44.669ZM64.2338 44.5V35.2273H67.5662V44.5H64.2338ZM65.9 34.2614C65.4493 34.2614 65.0629 34.1125 64.7409 33.8146C64.419 33.5168 64.258 33.1586 64.258 32.7401C64.258 32.3215 64.419 31.9633 64.7409 31.6655C65.0629 31.3677 65.4493 31.2188 65.9 31.2188C66.3548 31.2188 66.7412 31.3677 67.0591 31.6655C67.3811 31.9633 67.5421 32.3215 67.5421 32.7401C67.5421 33.1586 67.3811 33.5168 67.0591 33.8146C66.7412 34.1125 66.3548 34.2614 65.9 34.2614ZM74.7939 35.2273V37.642H68.6846V35.2273H74.7939ZM69.8678 33.0057H73.2002V41.5178C73.2002 41.6465 73.2223 41.7552 73.2666 41.8438C73.3109 41.9283 73.3793 41.9927 73.4719 42.0369C73.5644 42.0772 73.6832 42.0973 73.828 42.0973C73.9287 42.0973 74.0454 42.0852 74.1782 42.0611C74.315 42.0369 74.4156 42.0168 74.48 42.0007L74.963 44.343C74.8141 44.3873 74.6008 44.4416 74.3231 44.506C74.0494 44.5704 73.7234 44.6127 73.3451 44.6328C72.5804 44.6731 71.9385 44.5946 71.4193 44.3974C70.9001 44.1961 70.5097 43.8802 70.2481 43.4496C69.9865 43.0189 69.8598 42.4796 69.8678 41.8317V33.0057ZM78.1822 47.9773C77.7998 47.9773 77.4356 47.9471 77.0895 47.8867C76.7434 47.8304 76.4395 47.7519 76.1779 47.6513L76.9023 45.2848C77.176 45.3814 77.4255 45.4438 77.6509 45.4719C77.8803 45.5001 78.0755 45.484 78.2365 45.4237C78.4015 45.3633 78.5202 45.2486 78.5927 45.0795L78.6651 44.9105L75.4052 35.2273H78.8825L80.3796 41.6506H80.4762L81.9975 35.2273H85.4989L82.1183 45.2727C81.9492 45.7839 81.7037 46.2427 81.3817 46.6491C81.0638 47.0597 80.6452 47.3836 80.1261 47.6211C79.6069 47.8585 78.9589 47.9773 78.1822 47.9773Z" fill="#B7D1DA"/>
</svg>
