<svg width="267" height="50" viewBox="0 0 267 50" fill="none" xmlns="http://www.w3.org/2000/svg">
<rect y="4.5" width="41" height="41" rx="9" fill="#FFCF01"/>
<rect x="5.80832" y="10.3083" width="18.7917" height="8.2" rx="3" fill="#24292F"/>
<rect x="5.80832" y="20.9" width="8.54167" height="8.2" rx="3" fill="#353A45"/>
<rect x="26.65" y="10.3083" width="8.54167" height="8.2" rx="3" fill="#353A45"/>
<rect x="16.4" y="20.9" width="8.2" height="8.2" rx="3" fill="#353A45"/>
<rect x="26.65" y="20.9" width="8.54167" height="8.2" rx="3" fill="#353A45"/>
<rect x="5.80832" y="31.4917" width="13.6667" height="8.2" rx="3" fill="#353A45"/>
<rect x="21.525" y="31.4917" width="13.6667" height="8.2" rx="3" fill="#24292F"/>
<path d="M28.3583 37.1406C27.7069 37.0408 26.7964 36.6394 26.7964 36.6394C26.7964 36.6394 27.5155 37.6417 28.3583 37.6417C29.2012 37.6417 29.9202 37.1406 29.9202 37.1406C29.9202 37.1406 28.9473 37.2308 28.3583 37.1406Z" fill="#FFCF01"/>
<ellipse cx="30.2456" cy="34.4471" rx="0.585714" ry="0.56375" fill="#FFCF01"/>
<ellipse cx="26.471" cy="34.4471" rx="0.585714" ry="0.56375" fill="#FFCF01"/>
<path d="M74.1818 18.375C73.9432 17.5455 73.608 16.8125 73.1761 16.1761C72.7443 15.5284 72.2159 14.983 71.5909 14.5398C70.9773 14.0852 70.2727 13.7386 69.4773 13.5C68.6932 13.2614 67.8239 13.142 66.8693 13.142C65.0852 13.142 63.517 13.5852 62.1648 14.4716C60.8239 15.358 59.7784 16.6477 59.0284 18.3409C58.2784 20.0227 57.9034 22.0795 57.9034 24.5114C57.9034 26.9432 58.2727 29.0114 59.0114 30.7159C59.75 32.4205 60.7955 33.7216 62.1477 34.6193C63.5 35.5057 65.0966 35.9489 66.9375 35.9489C68.608 35.9489 70.0341 35.6534 71.2159 35.0625C72.4091 34.4602 73.3182 33.6136 73.9432 32.5227C74.5795 31.4318 74.8977 30.142 74.8977 28.6534L76.3977 28.875H67.3977V23.3182H82.0057V27.7159C82.0057 30.7841 81.358 33.4205 80.0625 35.625C78.767 37.8182 76.983 39.5114 74.7102 40.7045C72.4375 41.8864 69.8352 42.4773 66.9034 42.4773C63.6307 42.4773 60.7557 41.7557 58.2784 40.3125C55.8011 38.858 53.8693 36.7955 52.483 34.125C51.108 31.4432 50.4205 28.2614 50.4205 24.5795C50.4205 21.75 50.8295 19.2273 51.6477 17.0114C52.4773 14.7841 53.6364 12.8977 55.125 11.3523C56.6136 9.80682 58.3466 8.63068 60.3239 7.82386C62.3011 7.01704 64.4432 6.61364 66.75 6.61364C68.7273 6.61364 70.5682 6.90341 72.2727 7.48295C73.9773 8.05114 75.4886 8.85795 76.8068 9.90341C78.1364 10.9489 79.2216 12.1932 80.0625 13.6364C80.9034 15.0682 81.4432 16.6477 81.6818 18.375H74.1818ZM87.4134 42V15.8182H94.4531V20.3864H94.7259C95.2031 18.7614 96.0043 17.5341 97.1293 16.7045C98.2543 15.8636 99.5497 15.4432 101.016 15.4432C101.379 15.4432 101.771 15.4659 102.192 15.5114C102.612 15.5568 102.982 15.6193 103.3 15.6989V22.142C102.959 22.0398 102.487 21.9489 101.885 21.8693C101.283 21.7898 100.732 21.75 100.232 21.75C99.1634 21.75 98.2088 21.983 97.3679 22.4489C96.5384 22.9034 95.8793 23.5398 95.3906 24.358C94.9134 25.1761 94.6747 26.1193 94.6747 27.1875V42H87.4134ZM107.054 42V15.8182H114.315V42H107.054ZM110.702 12.4432C109.622 12.4432 108.696 12.0852 107.923 11.3693C107.162 10.642 106.781 9.77273 106.781 8.76136C106.781 7.76136 107.162 6.90341 107.923 6.1875C108.696 5.46023 109.622 5.09659 110.702 5.09659C111.781 5.09659 112.702 5.46023 113.463 6.1875C114.236 6.90341 114.622 7.76136 114.622 8.76136C114.622 9.77273 114.236 10.642 113.463 11.3693C112.702 12.0852 111.781 12.4432 110.702 12.4432ZM129.78 42.4261C127.791 42.4261 125.99 41.9148 124.376 40.892C122.774 39.858 121.501 38.3409 120.558 36.3409C119.626 34.3295 119.161 31.8636 119.161 28.9432C119.161 25.9432 119.643 23.4489 120.609 21.4602C121.575 19.4602 122.859 17.9659 124.462 16.9773C126.075 15.9773 127.842 15.4773 129.763 15.4773C131.229 15.4773 132.45 15.7273 133.428 16.2273C134.416 16.7159 135.212 17.3295 135.814 18.0682C136.428 18.7955 136.893 19.5114 137.212 20.2159H137.433V7.09091H144.678V42H137.518V37.8068H137.212C136.871 38.5341 136.388 39.2557 135.763 39.9716C135.149 40.6761 134.348 41.2614 133.359 41.7273C132.382 42.1932 131.189 42.4261 129.78 42.4261ZM132.081 36.6477C133.251 36.6477 134.24 36.3295 135.047 35.6932C135.865 35.0455 136.49 34.142 136.922 32.983C137.365 31.8239 137.587 30.4659 137.587 28.9091C137.587 27.3523 137.371 26 136.939 24.8523C136.507 23.7045 135.882 22.8182 135.064 22.1932C134.246 21.5682 133.251 21.2557 132.081 21.2557C130.888 21.2557 129.882 21.5795 129.064 22.2273C128.246 22.875 127.626 23.7727 127.206 24.9205C126.786 26.0682 126.575 27.3977 126.575 28.9091C126.575 30.4318 126.786 31.7784 127.206 32.9489C127.638 34.108 128.257 35.017 129.064 35.6761C129.882 36.3239 130.888 36.6477 132.081 36.6477ZM157.091 7.09091L165.528 33.6136H165.852L174.307 7.09091H182.489L170.455 42H160.943L148.892 7.09091H157.091ZM186.554 42V15.8182H193.815V42H186.554ZM190.202 12.4432C189.122 12.4432 188.196 12.0852 187.423 11.3693C186.662 10.642 186.281 9.77273 186.281 8.76136C186.281 7.76136 186.662 6.90341 187.423 6.1875C188.196 5.46023 189.122 5.09659 190.202 5.09659C191.281 5.09659 192.202 5.46023 192.963 6.1875C193.736 6.90341 194.122 7.76136 194.122 8.76136C194.122 9.77273 193.736 10.642 192.963 11.3693C192.202 12.0852 191.281 12.4432 190.202 12.4432ZM211.564 42.5114C208.871 42.5114 206.553 41.9659 204.609 40.875C202.678 39.7727 201.189 38.2159 200.143 36.2045C199.098 34.1818 198.575 31.7898 198.575 29.0284C198.575 26.3352 199.098 23.9716 200.143 21.9375C201.189 19.9034 202.661 18.3182 204.558 17.1818C206.467 16.0455 208.706 15.4773 211.274 15.4773C213.001 15.4773 214.609 15.7557 216.098 16.3125C217.598 16.858 218.905 17.6818 220.018 18.7841C221.143 19.8864 222.018 21.2727 222.643 22.9432C223.268 24.6023 223.581 26.5455 223.581 28.7727V30.767H201.473V26.267H216.746C216.746 25.2216 216.518 24.2955 216.064 23.4886C215.609 22.6818 214.979 22.0511 214.172 21.5966C213.376 21.1307 212.45 20.8977 211.393 20.8977C210.291 20.8977 209.314 21.1534 208.462 21.6648C207.621 22.1648 206.962 22.8409 206.484 23.6932C206.007 24.5341 205.763 25.4716 205.751 26.5057V30.7841C205.751 32.0795 205.99 33.1989 206.467 34.142C206.956 35.0852 207.643 35.8125 208.53 36.3239C209.416 36.8352 210.467 37.0909 211.683 37.0909C212.49 37.0909 213.229 36.9773 213.899 36.75C214.57 36.5227 215.143 36.1818 215.621 35.7273C216.098 35.2727 216.462 34.7159 216.712 34.0568L223.428 34.5C223.087 36.1136 222.388 37.5227 221.331 38.7273C220.286 39.9205 218.933 40.8523 217.274 41.5227C215.626 42.1818 213.723 42.5114 211.564 42.5114ZM233.297 42L226.172 15.8182H233.518L237.575 33.4091H237.814L242.041 15.8182H249.251L253.547 33.3068H253.768L257.757 15.8182H265.087L257.979 42H250.291L245.791 25.5341H245.467L240.967 42H233.297Z" fill="url(#paint0_linear_4_977)"/>
<defs>
<linearGradient id="paint0_linear_4_977" x1="157.5" y1="-4" x2="157.5" y2="54" gradientUnits="userSpaceOnUse">
<stop stop-color="#24292F"/>
<stop offset="1" stop-color="#40464D"/>
</linearGradient>
</defs>
</svg>
