<svg width="243" height="50" viewBox="0 0 243 50" fill="none" xmlns="http://www.w3.org/2000/svg">
<rect y="4.5" width="41" height="41" rx="9" fill="#FFCF01"/>
<rect x="5.80832" y="10.3083" width="18.7917" height="8.2" rx="3" fill="#24292F"/>
<rect x="5.80832" y="20.9" width="8.54167" height="8.2" rx="3" fill="#353A45"/>
<rect x="26.65" y="10.3083" width="8.54167" height="8.2" rx="3" fill="#353A45"/>
<rect x="16.4" y="20.9" width="8.2" height="8.2" rx="3" fill="#353A45"/>
<rect x="26.65" y="20.9" width="8.54167" height="8.2" rx="3" fill="#353A45"/>
<rect x="5.80832" y="31.4917" width="13.6667" height="8.2" rx="3" fill="#353A45"/>
<rect x="21.525" y="31.4917" width="13.6667" height="8.2" rx="3" fill="#24292F"/>
<path d="M28.3583 37.1406C27.7069 37.0408 26.7964 36.6394 26.7964 36.6394C26.7964 36.6394 27.5155 37.6417 28.3583 37.6417C29.2012 37.6417 29.9202 37.1406 29.9202 37.1406C29.9202 37.1406 28.9473 37.2308 28.3583 37.1406Z" fill="#FFCF01"/>
<ellipse cx="30.2456" cy="34.4471" rx="0.585714" ry="0.56375" fill="#FFCF01"/>
<ellipse cx="26.471" cy="34.4471" rx="0.585714" ry="0.56375" fill="#FFCF01"/>
<path d="M72.5455 18.8516C72.3217 18.0739 72.0075 17.3867 71.6026 16.7901C71.1978 16.1829 70.7024 15.6715 70.1165 15.256C69.5412 14.8299 68.8807 14.505 68.1349 14.2812C67.3999 14.0575 66.5849 13.9457 65.69 13.9457C64.0174 13.9457 62.5472 14.3612 61.2795 15.1921C60.0224 16.0231 59.0423 17.2322 58.3391 18.8196C57.636 20.3963 57.2844 22.3246 57.2844 24.6044C57.2844 26.8842 57.6307 28.8232 58.3232 30.4212C59.0156 32.0192 59.9957 33.239 61.2635 34.0806C62.5312 34.9116 64.0281 35.3271 65.7539 35.3271C67.32 35.3271 68.657 35.0501 69.7649 34.4961C70.8835 33.9315 71.7358 33.1378 72.3217 32.1151C72.9183 31.0923 73.2166 29.8832 73.2166 28.4876L74.6229 28.6953H66.1854V23.4858H79.8803V27.6087C79.8803 30.4851 79.2731 32.9567 78.0586 35.0234C76.8441 37.0795 75.1715 38.6669 73.0408 39.7855C70.9102 40.8935 68.4705 41.4474 65.7219 41.4474C62.6538 41.4474 59.9585 40.771 57.636 39.418C55.3136 38.0543 53.5025 36.1207 52.2028 33.6172C50.9137 31.103 50.2692 28.12 50.2692 24.6683C50.2692 22.0156 50.6527 19.6506 51.4197 17.5732C52.1974 15.4851 53.2841 13.7166 54.6797 12.2678C56.0753 10.8189 57.6999 9.71626 59.5536 8.95987C61.4073 8.20348 63.4155 7.82528 65.5781 7.82528C67.4318 7.82528 69.1577 8.09695 70.7557 8.64027C72.3537 9.17294 73.7706 9.92933 75.0064 10.9094C76.2528 11.8896 77.2702 13.0561 78.0586 14.4091C78.8469 15.7514 79.353 17.2322 79.5767 18.8516H72.5455ZM83.6 41V16.4545H90.1998V20.7372H90.4555C90.9029 19.2138 91.654 18.0632 92.7087 17.2855C93.7634 16.4972 94.9779 16.103 96.3521 16.103C96.6931 16.103 97.0606 16.1243 97.4548 16.1669C97.849 16.2095 98.1952 16.2681 98.4935 16.3427V22.3832C98.1739 22.2873 97.7318 22.2021 97.1671 22.1275C96.6025 22.0529 96.0858 22.0156 95.6171 22.0156C94.6156 22.0156 93.7208 22.234 92.9324 22.6708C92.1547 23.0969 91.5368 23.6935 91.0787 24.4606C90.6313 25.2276 90.4075 26.1119 90.4075 27.1133V41H83.6ZM100.663 41V16.4545H107.471V41H100.663ZM104.083 13.2905C103.071 13.2905 102.203 12.9549 101.478 12.2837C100.764 11.6019 100.407 10.7869 100.407 9.83878C100.407 8.90128 100.764 8.09695 101.478 7.42578C102.203 6.74396 103.071 6.40305 104.083 6.40305C105.095 6.40305 105.958 6.74396 106.672 7.42578C107.396 8.09695 107.758 8.90128 107.758 9.83878C107.758 10.7869 107.396 11.6019 106.672 12.2837C105.958 12.9549 105.095 13.2905 104.083 13.2905ZM120.619 41.3995C118.754 41.3995 117.066 40.9201 115.553 39.9613C114.051 38.9918 112.858 37.5696 111.973 35.6946C111.1 33.8089 110.663 31.4972 110.663 28.7592C110.663 25.9467 111.116 23.6083 112.021 21.744C112.927 19.869 114.131 18.468 115.633 17.5412C117.146 16.6037 118.802 16.1349 120.603 16.1349C121.977 16.1349 123.122 16.3693 124.038 16.8381C124.965 17.2962 125.711 17.8714 126.276 18.5639C126.851 19.2457 127.288 19.9169 127.586 20.5774H127.794V8.27273H134.585V41H127.874V37.0689H127.586C127.266 37.7507 126.814 38.4272 126.228 39.0984C125.652 39.7589 124.901 40.3075 123.974 40.7443C123.058 41.1811 121.94 41.3995 120.619 41.3995ZM122.776 35.9822C123.873 35.9822 124.8 35.6839 125.556 35.0874C126.323 34.4801 126.909 33.6332 127.314 32.5465C127.73 31.4599 127.937 30.1868 127.937 28.7273C127.937 27.2678 127.735 26 127.33 24.924C126.925 23.848 126.339 23.017 125.572 22.4311C124.805 21.8452 123.873 21.5522 122.776 21.5522C121.657 21.5522 120.714 21.8558 119.947 22.4631C119.18 23.0703 118.6 23.9119 118.206 24.9879C117.811 26.0639 117.614 27.3104 117.614 28.7273C117.614 30.1548 117.811 31.4173 118.206 32.5146C118.61 33.6012 119.191 34.4535 119.947 35.0714C120.714 35.6786 121.657 35.9822 122.776 35.9822ZM144.873 8.27273L152.783 33.1378H153.087L161.013 8.27273H168.683L157.401 41H148.484L137.186 8.27273H144.873ZM171.144 41V16.4545H177.952V41H171.144ZM174.564 13.2905C173.552 13.2905 172.684 12.9549 171.959 12.2837C171.246 11.6019 170.889 10.7869 170.889 9.83878C170.889 8.90128 171.246 8.09695 171.959 7.42578C172.684 6.74396 173.552 6.40305 174.564 6.40305C175.576 6.40305 176.439 6.74396 177.153 7.42578C177.877 8.09695 178.24 8.90128 178.24 9.83878C178.24 10.7869 177.877 11.6019 177.153 12.2837C176.439 12.9549 175.576 13.2905 174.564 13.2905ZM193.241 41.4794C190.716 41.4794 188.543 40.968 186.721 39.9453C184.91 38.9119 183.515 37.4524 182.534 35.5668C181.554 33.6705 181.064 31.4279 181.064 28.8391C181.064 26.3143 181.554 24.0984 182.534 22.1914C183.515 20.2844 184.894 18.7983 186.673 17.733C188.463 16.6676 190.562 16.1349 192.97 16.1349C194.589 16.1349 196.096 16.396 197.492 16.918C198.898 17.4293 200.123 18.2017 201.167 19.2351C202.222 20.2685 203.042 21.5682 203.628 23.1342C204.214 24.6896 204.507 26.5114 204.507 28.5994V30.4691H183.781V26.2504H198.099C198.099 25.2702 197.886 24.402 197.46 23.6456C197.034 22.8892 196.443 22.2979 195.686 21.8718C194.94 21.435 194.072 21.2166 193.081 21.2166C192.048 21.2166 191.132 21.4563 190.333 21.9357C189.544 22.4045 188.927 23.0384 188.479 23.8374C188.032 24.6257 187.803 25.5046 187.792 26.4741V30.4851C187.792 31.6996 188.016 32.7489 188.463 33.6332C188.921 34.5174 189.566 35.1992 190.397 35.6786C191.228 36.158 192.213 36.3977 193.353 36.3977C194.109 36.3977 194.802 36.2912 195.43 36.0781C196.059 35.8651 196.597 35.5455 197.044 35.1193C197.492 34.6932 197.833 34.1712 198.067 33.5533L204.363 33.9688C204.044 35.4815 203.389 36.8026 202.398 37.9318C201.418 39.0504 200.15 39.924 198.595 40.5526C197.05 41.1705 195.265 41.4794 193.241 41.4794ZM212.266 41L205.586 16.4545H212.474L216.277 32.946H216.501L220.464 16.4545H227.223L231.25 32.8501H231.458L235.197 16.4545H242.069L235.405 41H228.198L223.979 25.5632H223.676L219.457 41H212.266Z" fill="url(#paint0_linear_4_977)"/>
<defs>
<linearGradient id="paint0_linear_4_977" x1="145.5" y1="-2" x2="145.5" y2="52" gradientUnits="userSpaceOnUse">
<stop stop-color="#24292F"/>
<stop offset="1" stop-color="#37414D"/>
</linearGradient>
</defs>
</svg>
