<svg width="40" height="41" viewBox="0 0 40 41" fill="none" xmlns="http://www.w3.org/2000/svg">
<circle cx="20" cy="20.9586" r="20" fill="#3B3E43"/>
<path d="M31.0769 11.9586H8.92308C8.67826 11.9586 8.44347 12.0534 8.27036 12.2222C8.09725 12.391 8 12.6199 8 12.8586V28.1586C8 28.636 8.1945 29.0938 8.54073 29.4314C8.88695 29.769 9.35652 29.9586 9.84615 29.9586H30.1538C30.6435 29.9586 31.1131 29.769 31.4593 29.4314C31.8055 29.0938 32 28.636 32 28.1586V12.8586C32 12.6199 31.9027 12.391 31.7296 12.2222C31.5565 12.0534 31.3217 11.9586 31.0769 11.9586ZM30.1538 28.1586H9.84615V14.905L19.3758 23.4224C19.5461 23.5748 19.7688 23.6594 20 23.6594C20.2312 23.6594 20.4539 23.5748 20.6242 23.4224L30.1538 14.905V28.1586Z" fill="#B7D1DA"/>
</svg>
