<svg width="40" height="41" viewBox="0 0 40 41" fill="none" xmlns="http://www.w3.org/2000/svg">
<circle cx="20" cy="20.9586" r="20" fill="#3B3E43"/>
<g clip-path="url(#clip0_318_599)">
<path fill-rule="evenodd" clip-rule="evenodd" d="M19.9583 7C12.2397 7 6 13.4167 6 21.355C6 27.7005 9.998 33.0718 15.5443 34.9729C16.2377 35.1158 16.4917 34.664 16.4917 34.284C16.4917 33.9512 16.4689 32.8105 16.4689 31.6219C12.586 32.4777 11.7774 29.9107 11.7774 29.9107C11.1534 28.247 10.2289 27.8195 10.2289 27.8195C8.958 26.9401 10.3214 26.9401 10.3214 26.9401C11.7311 27.0352 12.4709 28.4136 12.4709 28.4136C13.7186 30.5999 15.7291 29.9822 16.538 29.6018C16.6534 28.6749 17.0234 28.0333 17.4163 27.6768C14.3194 27.344 11.0611 26.1083 11.0611 20.5943C11.0611 19.0257 11.6154 17.7424 12.4937 16.7443C12.3551 16.3879 11.8697 14.9141 12.6326 12.9415C12.6326 12.9415 13.8111 12.5612 16.4686 14.415C17.6063 14.1008 18.7796 13.941 19.9583 13.9396C21.1369 13.9396 22.3383 14.1062 23.4477 14.415C26.1054 12.5612 27.284 12.9415 27.284 12.9415C28.0469 14.9141 27.5611 16.3879 27.4226 16.7443C28.324 17.7424 28.8554 19.0257 28.8554 20.5943C28.8554 26.1083 25.5971 27.3201 22.4771 27.6768C22.9857 28.1283 23.4246 28.9838 23.4246 30.3386C23.4246 32.2636 23.4017 33.8085 23.4017 34.2837C23.4017 34.664 23.656 35.1158 24.3491 34.9732C29.8954 33.0715 33.8934 27.7005 33.8934 21.355C33.9163 13.4167 27.6537 7 19.9583 7Z" fill="#B7D1DA"/>
</g>
<defs>
<clipPath id="clip0_318_599">
<rect width="28" height="28" fill="white" transform="translate(6 7)"/>
</clipPath>
</defs>
</svg>
