<svg width="40" height="41" viewBox="0 0 40 41" fill="none" xmlns="http://www.w3.org/2000/svg">
<circle cx="20" cy="20.959" r="20" fill="#B7D1DA"/>
<path d="M31.0769 11.959H8.92308C8.67826 11.959 8.44347 12.0538 8.27036 12.2226C8.09725 12.3914 8 12.6203 8 12.859V28.159C8 28.6364 8.1945 29.0942 8.54073 29.4318C8.88695 29.7693 9.35652 29.959 9.84615 29.959H30.1538C30.6435 29.959 31.1131 29.7693 31.4593 29.4318C31.8055 29.0942 32 28.6364 32 28.159V12.859C32 12.6203 31.9027 12.3914 31.7296 12.2226C31.5565 12.0538 31.3217 11.959 31.0769 11.959ZM30.1538 28.159H9.84615V14.9054L19.3758 23.4227C19.5461 23.5752 19.7688 23.6597 20 23.6597C20.2312 23.6597 20.4539 23.5752 20.6242 23.4227L30.1538 14.9054V28.159Z" fill="#654C4F"/>
</svg>
