<svg width="40" height="41" viewBox="0 0 40 41" fill="none" xmlns="http://www.w3.org/2000/svg">
<circle cx="20" cy="20.959" r="20" fill="#B7D1DA"/>
<g clip-path="url(#clip0_318_629)">
<path fill-rule="evenodd" clip-rule="evenodd" d="M19.9583 7.00037C12.2397 7.00037 6 13.417 6 21.3553C6 27.7008 9.998 33.0722 15.5443 34.9732C16.2377 35.1162 16.4917 34.6644 16.4917 34.2843C16.4917 33.9515 16.4689 32.8108 16.4689 31.6223C12.586 32.478 11.7774 29.9111 11.7774 29.9111C11.1534 28.2474 10.2289 27.8198 10.2289 27.8198C8.958 26.9404 10.3214 26.9405 10.3214 26.9405C11.7311 27.0355 12.4709 28.414 12.4709 28.414C13.7186 30.6003 15.7291 29.9825 16.538 29.6022C16.6534 28.6753 17.0234 28.0336 17.4163 27.6772C14.3194 27.3444 11.0611 26.1086 11.0611 20.5947C11.0611 19.0261 11.6154 17.7427 12.4937 16.7447C12.3551 16.3882 11.8697 14.9145 12.6326 12.9419C12.6326 12.9419 13.8111 12.5616 16.4686 14.4154C17.6063 14.1012 18.7796 13.9413 19.9583 13.94C21.1369 13.94 22.3383 14.1065 23.4477 14.4154C26.1054 12.5616 27.284 12.9419 27.284 12.9419C28.0469 14.9145 27.5611 16.3882 27.4226 16.7447C28.324 17.7427 28.8554 19.0261 28.8554 20.5947C28.8554 26.1086 25.5971 27.3205 22.4771 27.6772C22.9857 28.1287 23.4246 28.9842 23.4246 30.339C23.4246 32.264 23.4017 33.8089 23.4017 34.284C23.4017 34.6644 23.656 35.1162 24.3491 34.9735C29.8954 33.0719 33.8934 27.7008 33.8934 21.3553C33.9163 13.417 27.6537 7.00037 19.9583 7.00037Z" fill="#654C4F"/>
</g>
<defs>
<clipPath id="clip0_318_629">
<rect width="28" height="28" fill="white" transform="translate(6 7.00037)"/>
</clipPath>
</defs>
</svg>
