<svg width="981" height="59" viewBox="0 0 981 59" fill="none" xmlns="http://www.w3.org/2000/svg">
<path d="M870.324 16.959L872.353 4.59535H873.56L871.532 16.959H870.324ZM864.698 13.53L864.891 12.3226H874.115L873.922 13.53H864.698ZM865.978 16.959L868.006 4.59535H869.213L867.185 16.959H865.978ZM865.422 9.23171L865.615 8.02433H874.84L874.647 9.23171H865.422ZM876.437 20.4363V7.68626H877.813V9.15927H877.982C878.087 8.99828 878.232 8.79303 878.417 8.5435C878.606 8.28995 878.876 8.06457 879.226 7.86737C879.58 7.66613 880.059 7.56552 880.663 7.56552C881.443 7.56552 882.132 7.76071 882.727 8.1511C883.323 8.54149 883.788 9.09487 884.122 9.81126C884.456 10.5276 884.623 11.3728 884.623 12.3468C884.623 13.3288 884.456 14.18 884.122 14.9004C883.788 15.6168 883.325 16.1722 882.733 16.5666C882.142 16.957 881.459 17.1522 880.687 17.1522C880.091 17.1522 879.614 17.0536 879.256 16.8564C878.898 16.6551 878.622 16.4277 878.429 16.1742C878.236 15.9166 878.087 15.7033 877.982 15.5343H877.861V20.4363H876.437ZM877.837 12.3226C877.837 13.0229 877.94 13.6407 878.145 14.176C878.35 14.7072 878.65 15.1238 879.045 15.4256C879.439 15.7234 879.922 15.8723 880.493 15.8723C881.089 15.8723 881.586 15.7154 881.985 15.4015C882.387 15.0835 882.689 14.6569 882.89 14.1216C883.095 13.5823 883.198 12.9827 883.198 12.3226C883.198 11.6706 883.097 11.083 882.896 10.5598C882.699 10.0326 882.399 9.61606 881.997 9.31019C881.598 9.0003 881.097 8.84535 880.493 8.84535C879.914 8.84535 879.427 8.99225 879.033 9.28604C878.638 9.57582 878.34 9.9823 878.139 10.5055C877.938 11.0247 877.837 11.6304 877.837 12.3226ZM886.796 16.959V7.68626H888.172V9.08683H888.269C888.438 8.62802 888.744 8.25574 889.187 7.96999C889.629 7.68424 890.128 7.54137 890.684 7.54137C890.788 7.54137 890.919 7.54338 891.076 7.54741C891.233 7.55143 891.352 7.55747 891.432 7.56552V9.01438C891.384 9.00231 891.273 8.9842 891.1 8.96005C890.931 8.93188 890.752 8.91779 890.563 8.91779C890.112 8.91779 889.71 9.01237 889.356 9.20153C889.006 9.38666 888.728 9.64424 888.523 9.97425C888.321 10.3002 888.221 10.6725 888.221 11.0911V16.959H886.796ZM896.606 17.1522C895.769 17.1522 895.034 16.9529 894.403 16.5545C893.775 16.1561 893.284 15.5987 892.93 14.8823C892.579 14.1659 892.404 13.3288 892.404 12.3709C892.404 11.405 892.579 10.5618 892.93 9.84144C893.284 9.12103 893.775 8.56161 894.403 8.16317C895.034 7.76474 895.769 7.56552 896.606 7.56552C897.443 7.56552 898.176 7.76474 898.804 8.16317C899.435 8.56161 899.926 9.12103 900.277 9.84144C900.631 10.5618 900.808 11.405 900.808 12.3709C900.808 13.3288 900.631 14.1659 900.277 14.8823C899.926 15.5987 899.435 16.1561 898.804 16.5545C898.176 16.9529 897.443 17.1522 896.606 17.1522ZM896.606 15.8723C897.242 15.8723 897.765 15.7093 898.176 15.3833C898.586 15.0574 898.89 14.6287 899.087 14.0975C899.284 13.5662 899.383 12.9907 899.383 12.3709C899.383 11.7511 899.284 11.1736 899.087 10.6383C898.89 10.103 898.586 9.6704 898.176 9.34038C897.765 9.01036 897.242 8.84535 896.606 8.84535C895.97 8.84535 895.447 9.01036 895.036 9.34038C894.626 9.6704 894.322 10.103 894.125 10.6383C893.928 11.1736 893.829 11.7511 893.829 12.3709C893.829 12.9907 893.928 13.5662 894.125 14.0975C894.322 14.6287 894.626 15.0574 895.036 15.3833C895.447 15.7093 895.97 15.8723 896.606 15.8723ZM906.725 20.6294C906.037 20.6294 905.446 20.5409 904.951 20.3638C904.456 20.1908 904.043 19.9614 903.713 19.6756C903.387 19.3939 903.127 19.092 902.934 18.7701L904.069 17.9732C904.198 18.1422 904.361 18.3354 904.558 18.5527C904.755 18.7741 905.025 18.9653 905.367 19.1262C905.713 19.2913 906.166 19.3738 906.725 19.3738C907.474 19.3738 908.092 19.1926 908.579 18.8304C909.066 18.4682 909.309 17.9007 909.309 17.128V15.2445H909.189C909.084 15.4135 908.935 15.6228 908.742 15.8723C908.553 16.1178 908.279 16.3372 907.921 16.5304C907.567 16.7195 907.088 16.8141 906.484 16.8141C905.735 16.8141 905.063 16.637 904.468 16.2828C903.876 15.9287 903.407 15.4135 903.061 14.7374C902.719 14.0613 902.548 13.2402 902.548 12.2743C902.548 11.3245 902.715 10.4975 903.049 9.79315C903.383 9.08481 903.848 8.53746 904.444 8.1511C905.039 7.76071 905.727 7.56552 906.508 7.56552C907.112 7.56552 907.591 7.66613 907.945 7.86737C908.303 8.06457 908.577 8.28995 908.766 8.5435C908.959 8.79303 909.108 8.99828 909.213 9.15927H909.358V7.68626H910.734V17.2246C910.734 18.0215 910.553 18.6694 910.191 19.1685C909.832 19.6716 909.35 20.0398 908.742 20.2733C908.138 20.5107 907.466 20.6294 906.725 20.6294ZM906.677 15.5343C907.249 15.5343 907.732 15.4035 908.126 15.1419C908.52 14.8803 908.82 14.504 909.026 14.013C909.231 13.522 909.333 12.9344 909.333 12.2502C909.333 11.5821 909.233 10.9925 909.032 10.4814C908.83 9.97023 908.533 9.56978 908.138 9.28001C907.744 8.99023 907.257 8.84535 906.677 8.84535C906.073 8.84535 905.57 8.99828 905.168 9.30415C904.769 9.61003 904.47 10.0205 904.268 10.5357C904.071 11.0508 903.973 11.6223 903.973 12.2502C903.973 12.8941 904.073 13.4636 904.274 13.9586C904.48 14.4496 904.782 14.836 905.18 15.1177C905.582 15.3954 906.082 15.5343 906.677 15.5343ZM913.342 16.959V7.68626H914.718V9.08683H914.815C914.984 8.62802 915.29 8.25574 915.733 7.96999C916.175 7.68424 916.674 7.54137 917.23 7.54137C917.334 7.54137 917.465 7.54338 917.622 7.54741C917.779 7.55143 917.898 7.55747 917.978 7.56552V9.01438C917.93 9.00231 917.819 8.9842 917.646 8.96005C917.477 8.93188 917.298 8.91779 917.109 8.91779C916.658 8.91779 916.256 9.01237 915.902 9.20153C915.551 9.38666 915.274 9.64424 915.069 9.97425C914.867 10.3002 914.767 10.6725 914.767 11.0911V16.959H913.342ZM922.396 17.1763C921.808 17.1763 921.275 17.0656 920.796 16.8443C920.317 16.6189 919.937 16.2949 919.655 15.8723C919.373 15.4457 919.232 14.9306 919.232 14.3269C919.232 13.7956 919.337 13.365 919.546 13.035C919.756 12.7009 920.035 12.4393 920.386 12.2502C920.736 12.061 921.122 11.9202 921.545 11.8276C921.971 11.731 922.4 11.6545 922.83 11.5982C923.394 11.5257 923.851 11.4714 924.201 11.4352C924.555 11.3949 924.813 11.3285 924.974 11.236C925.139 11.1434 925.221 10.9824 925.221 10.753V10.7047C925.221 10.1091 925.058 9.64625 924.732 9.31623C924.41 8.98621 923.921 8.8212 923.265 8.8212C922.585 8.8212 922.052 8.97011 921.665 9.26793C921.279 9.56576 921.007 9.8837 920.85 10.2218L919.498 9.73881C919.74 9.17537 920.062 8.73668 920.464 8.42276C920.87 8.10482 921.313 7.88346 921.792 7.7587C922.275 7.62991 922.75 7.56552 923.217 7.56552C923.515 7.56552 923.857 7.60174 924.243 7.67418C924.634 7.7426 925.01 7.88548 925.372 8.1028C925.738 8.32013 926.042 8.64814 926.284 9.08683C926.525 9.52551 926.646 10.1131 926.646 10.8496V16.959H925.221V15.7033H925.149C925.052 15.9045 924.891 16.1199 924.666 16.3493C924.44 16.5787 924.141 16.7739 923.766 16.9348C923.392 17.0958 922.935 17.1763 922.396 17.1763ZM922.613 15.8965C923.177 15.8965 923.652 15.7858 924.038 15.5645C924.428 15.3431 924.722 15.0574 924.919 14.7072C925.12 14.3571 925.221 13.9888 925.221 13.6025V12.2985C925.161 12.3709 925.028 12.4373 924.823 12.4977C924.621 12.554 924.388 12.6043 924.122 12.6486C923.861 12.6889 923.605 12.7251 923.356 12.7573C923.11 12.7855 922.911 12.8096 922.758 12.8297C922.388 12.878 922.042 12.9565 921.72 13.0652C921.402 13.1698 921.144 13.3288 920.947 13.5421C920.754 13.7514 920.657 14.0371 920.657 14.3993C920.657 14.8944 920.84 15.2686 921.207 15.5222C921.577 15.7717 922.046 15.8965 922.613 15.8965ZM929.246 16.959V7.68626H930.623V9.13512H930.743C930.937 8.64009 931.248 8.25574 931.679 7.98207C932.11 7.70437 932.627 7.56552 933.231 7.56552C933.842 7.56552 934.351 7.70437 934.758 7.98207C935.168 8.25574 935.488 8.64009 935.718 9.13512H935.814C936.052 8.65619 936.408 8.27586 936.883 7.99414C937.358 7.70839 937.927 7.56552 938.591 7.56552C939.42 7.56552 940.099 7.82511 940.626 8.34428C941.153 8.85943 941.417 9.66235 941.417 10.753V16.959H939.992V10.753C939.992 10.0688 939.805 9.57984 939.431 9.28604C939.056 8.99225 938.616 8.84535 938.108 8.84535C937.456 8.84535 936.951 9.04255 936.593 9.43697C936.235 9.82736 936.056 10.3224 936.056 10.9221V16.959H934.607V10.6081C934.607 10.0809 934.436 9.65631 934.094 9.33434C933.752 9.00834 933.311 8.84535 932.772 8.84535C932.402 8.84535 932.055 8.94395 931.733 9.14116C931.416 9.33836 931.158 9.61204 930.961 9.96218C930.768 10.3083 930.671 10.7087 930.671 11.1635V16.959H929.246ZM944.022 16.959V7.68626H945.398V9.13512H945.519C945.712 8.64009 946.024 8.25574 946.455 7.98207C946.885 7.70437 947.402 7.56552 948.006 7.56552C948.618 7.56552 949.127 7.70437 949.533 7.98207C949.944 8.25574 950.264 8.64009 950.493 9.13512H950.59C950.827 8.65619 951.183 8.27586 951.658 7.99414C952.133 7.70839 952.703 7.56552 953.367 7.56552C954.196 7.56552 954.874 7.82511 955.401 8.34428C955.928 8.85943 956.192 9.66235 956.192 10.753V16.959H954.767V10.753C954.767 10.0688 954.58 9.57984 954.206 9.28604C953.832 8.99225 953.391 8.84535 952.884 8.84535C952.232 8.84535 951.727 9.04255 951.369 9.43697C951.01 9.82736 950.831 10.3224 950.831 10.9221V16.959H949.382V10.6081C949.382 10.0809 949.211 9.65631 948.869 9.33434C948.527 9.00834 948.086 8.84535 947.547 8.84535C947.177 8.84535 946.831 8.94395 946.509 9.14116C946.191 9.33836 945.933 9.61204 945.736 9.96218C945.543 10.3083 945.446 10.7087 945.446 11.1635V16.959H944.022ZM958.797 16.959V7.68626H960.222V16.959H958.797ZM959.521 6.1408C959.244 6.1408 959.004 6.04622 958.803 5.85707C958.606 5.66791 958.507 5.44052 958.507 5.17489C958.507 4.90927 958.606 4.68188 958.803 4.49272C959.004 4.30356 959.244 4.20898 959.521 4.20898C959.799 4.20898 960.037 4.30356 960.234 4.49272C960.435 4.68188 960.536 4.90927 960.536 5.17489C960.536 5.44052 960.435 5.66791 960.234 5.85707C960.037 6.04622 959.799 6.1408 959.521 6.1408ZM964.256 11.3809V16.959H962.831V7.68626H964.208V9.13512H964.328C964.546 8.66424 964.876 8.28593 965.318 8.00018C965.761 7.7104 966.333 7.56552 967.033 7.56552C967.661 7.56552 968.21 7.69431 968.681 7.95188C969.152 8.20543 969.518 8.5918 969.78 9.11097C970.041 9.62612 970.172 10.2781 970.172 11.0669V16.959H968.747V11.1635C968.747 10.4351 968.558 9.8676 968.18 9.46111C967.802 9.0506 967.282 8.84535 966.622 8.84535C966.168 8.84535 965.761 8.94395 965.403 9.14116C965.049 9.33836 964.769 9.62612 964.564 10.0044C964.359 10.3828 964.256 10.8416 964.256 11.3809ZM976.518 20.6294C975.83 20.6294 975.239 20.5409 974.744 20.3638C974.249 20.1908 973.836 19.9614 973.506 19.6756C973.18 19.3939 972.92 19.092 972.727 18.7701L973.862 17.9732C973.991 18.1422 974.154 18.3354 974.351 18.5527C974.548 18.7741 974.818 18.9653 975.16 19.1262C975.506 19.2913 975.959 19.3738 976.518 19.3738C977.267 19.3738 977.885 19.1926 978.372 18.8304C978.859 18.4682 979.102 17.9007 979.102 17.128V15.2445H978.982C978.877 15.4135 978.728 15.6228 978.535 15.8723C978.346 16.1178 978.072 16.3372 977.714 16.5304C977.36 16.7195 976.881 16.8141 976.277 16.8141C975.528 16.8141 974.856 16.637 974.261 16.2828C973.669 15.9287 973.2 15.4135 972.854 14.7374C972.512 14.0613 972.341 13.2402 972.341 12.2743C972.341 11.3245 972.508 10.4975 972.842 9.79315C973.176 9.08481 973.641 8.53746 974.236 8.1511C974.832 7.76071 975.52 7.56552 976.301 7.56552C976.905 7.56552 977.384 7.66613 977.738 7.86737C978.096 8.06457 978.37 8.28995 978.559 8.5435C978.752 8.79303 978.901 8.99828 979.006 9.15927H979.151V7.68626H980.527V17.2246C980.527 18.0215 980.346 18.6694 979.984 19.1685C979.625 19.6716 979.142 20.0398 978.535 20.2733C977.931 20.5107 977.259 20.6294 976.518 20.6294ZM976.47 15.5343C977.042 15.5343 977.525 15.4035 977.919 15.1419C978.313 14.8803 978.613 14.504 978.819 14.013C979.024 13.522 979.126 12.9344 979.126 12.2502C979.126 11.5821 979.026 10.9925 978.825 10.4814C978.623 9.97023 978.325 9.56978 977.931 9.28001C977.537 8.99023 977.05 8.84535 976.47 8.84535C975.866 8.84535 975.363 8.99828 974.961 9.30415C974.562 9.61003 974.263 10.0205 974.061 10.5357C973.864 11.0508 973.766 11.6223 973.766 12.2502C973.766 12.8941 973.866 13.4636 974.067 13.9586C974.273 14.4496 974.575 14.836 974.973 15.1177C975.375 15.3954 975.874 15.5343 976.47 15.5343ZM923.35 35.959L925.378 23.5953H926.585L924.557 35.959H923.35ZM917.723 32.53L917.916 31.3226H927.141L926.948 32.53H917.723ZM919.003 35.959L921.031 23.5953H922.239L920.21 35.959H919.003ZM918.448 28.2317L918.641 27.0243H927.865L927.672 28.2317H918.448ZM932.963 36.1522C932.191 36.1522 931.509 35.957 930.917 35.5666C930.325 35.1722 929.863 34.6168 929.528 33.9004C929.194 33.18 929.027 32.3288 929.027 31.3468C929.027 30.3728 929.194 29.5276 929.528 28.8113C929.863 28.0949 930.327 27.5415 930.923 27.1511C931.519 26.7607 932.207 26.5655 932.988 26.5655C933.591 26.5655 934.068 26.6661 934.418 26.8674C934.773 27.0646 935.042 27.29 935.227 27.5435C935.416 27.793 935.563 27.9983 935.668 28.1593H935.789V23.5953H937.213V35.959H935.837V34.5343H935.668C935.563 34.7033 935.414 34.9166 935.221 35.1742C935.028 35.4277 934.752 35.6551 934.394 35.8564C934.036 36.0536 933.559 36.1522 932.963 36.1522ZM933.157 34.8723C933.728 34.8723 934.211 34.7234 934.606 34.4256C935 34.1238 935.3 33.7072 935.505 33.176C935.71 32.6407 935.813 32.0229 935.813 31.3226C935.813 30.6304 935.712 30.0247 935.511 29.5055C935.31 28.9823 935.012 28.5758 934.618 28.286C934.223 27.9922 933.736 27.8453 933.157 27.8453C932.553 27.8453 932.05 28.0003 931.647 28.3102C931.249 28.6161 930.949 29.0326 930.748 29.5598C930.551 30.083 930.452 30.6706 930.452 31.3226C930.452 31.9827 930.553 32.5823 930.754 33.1216C930.959 33.6569 931.261 34.0835 931.66 34.4015C932.062 34.7154 932.561 34.8723 933.157 34.8723ZM943.908 36.1522C943.015 36.1522 942.244 35.955 941.596 35.5605C940.952 35.1621 940.455 34.6067 940.105 33.8944C939.759 33.178 939.586 32.3449 939.586 31.3951C939.586 30.4453 939.759 29.6081 940.105 28.8837C940.455 28.1552 940.942 27.5878 941.566 27.1813C942.194 26.7708 942.926 26.5655 943.764 26.5655C944.247 26.5655 944.723 26.646 945.194 26.807C945.665 26.968 946.094 27.2296 946.48 27.5918C946.867 27.95 947.174 28.4249 947.404 29.0165C947.633 29.6081 947.748 30.3366 947.748 31.2019V31.8056H940.6V30.574H946.299C946.299 30.0508 946.194 29.584 945.985 29.1735C945.78 28.763 945.486 28.439 945.104 28.2015C944.725 27.9641 944.279 27.8453 943.764 27.8453C943.196 27.8453 942.705 27.9862 942.291 28.2679C941.88 28.5456 941.564 28.9078 941.343 29.3546C941.121 29.8013 941.011 30.2802 941.011 30.7914V31.6124C941.011 32.3127 941.131 32.9063 941.373 33.3933C941.618 33.8762 941.959 34.2445 942.393 34.498C942.828 34.7476 943.333 34.8723 943.908 34.8723C944.283 34.8723 944.621 34.82 944.923 34.7154C945.229 34.6067 945.492 34.4457 945.713 34.2324C945.935 34.0151 946.106 33.7454 946.227 33.4235L947.603 33.8098C947.458 34.2767 947.215 34.6872 946.873 35.0414C946.53 35.3915 946.108 35.6652 945.605 35.8624C945.102 36.0556 944.536 36.1522 943.908 36.1522ZM956.483 28.763L955.204 29.1252C955.123 28.9119 955.004 28.7046 954.847 28.5034C954.694 28.2981 954.485 28.1291 954.22 27.9963C953.954 27.8635 953.614 27.7971 953.199 27.7971C952.632 27.7971 952.159 27.9279 951.781 28.1895C951.406 28.447 951.219 28.775 951.219 29.1735C951.219 29.5276 951.348 29.8074 951.606 30.0126C951.863 30.2179 952.266 30.3889 952.813 30.5257L954.189 30.8638C955.018 31.065 955.636 31.3729 956.043 31.7875C956.449 32.198 956.652 32.7272 956.652 33.3752C956.652 33.9064 956.499 34.3813 956.194 34.7999C955.892 35.2185 955.469 35.5485 954.926 35.79C954.383 36.0314 953.751 36.1522 953.03 36.1522C952.084 36.1522 951.302 35.9469 950.682 35.5364C950.062 35.1259 949.67 34.5262 949.505 33.7374L950.857 33.3993C950.986 33.8984 951.229 34.2727 951.587 34.5222C951.95 34.7717 952.423 34.8965 953.006 34.8965C953.67 34.8965 954.197 34.7556 954.588 34.4739C954.982 34.1882 955.179 33.8461 955.179 33.4476C955.179 33.1257 955.067 32.856 954.841 32.6387C954.616 32.4173 954.27 32.2523 953.803 32.1436L952.258 31.7814C951.408 31.5802 950.785 31.2683 950.386 30.8457C949.992 30.4191 949.794 29.8858 949.794 29.2459C949.794 28.7227 949.941 28.2599 950.235 27.8574C950.533 27.455 950.937 27.139 951.449 26.9096C951.964 26.6802 952.547 26.5655 953.199 26.5655C954.117 26.5655 954.837 26.7667 955.36 27.1692C955.888 27.5717 956.262 28.1029 956.483 28.763ZM958.797 35.959V26.6863H960.222V35.959H958.797ZM959.521 25.1408C959.244 25.1408 959.004 25.0462 958.803 24.8571C958.606 24.6679 958.507 24.4405 958.507 24.1749C958.507 23.9093 958.606 23.6819 958.803 23.4927C959.004 23.3036 959.244 23.209 959.521 23.209C959.799 23.209 960.037 23.3036 960.234 23.4927C960.435 23.6819 960.536 23.9093 960.536 24.1749C960.536 24.4405 960.435 24.6679 960.234 24.8571C960.037 25.0462 959.799 25.1408 959.521 25.1408ZM966.574 39.6294C965.886 39.6294 965.294 39.5409 964.799 39.3638C964.304 39.1908 963.892 38.9614 963.562 38.6756C963.236 38.3939 962.976 38.092 962.783 37.7701L963.918 36.9732C964.047 37.1422 964.21 37.3354 964.407 37.5527C964.604 37.7741 964.874 37.9653 965.216 38.1262C965.562 38.2913 966.015 38.3738 966.574 38.3738C967.323 38.3738 967.94 38.1926 968.427 37.8304C968.914 37.4682 969.158 36.9007 969.158 36.128V34.2445H969.037C968.933 34.4135 968.784 34.6228 968.59 34.8723C968.401 35.1178 968.128 35.3372 967.769 35.5304C967.415 35.7195 966.936 35.8141 966.333 35.8141C965.584 35.8141 964.912 35.637 964.316 35.2828C963.725 34.9287 963.256 34.4135 962.91 33.7374C962.568 33.0613 962.397 32.2402 962.397 31.2743C962.397 30.3245 962.564 29.4975 962.898 28.7931C963.232 28.0848 963.696 27.5375 964.292 27.1511C964.888 26.7607 965.576 26.5655 966.357 26.5655C966.96 26.5655 967.439 26.6661 967.794 26.8674C968.152 27.0646 968.425 27.29 968.615 27.5435C968.808 27.793 968.957 27.9983 969.061 28.1593H969.206V26.6863H970.583V36.2246C970.583 37.0215 970.402 37.6694 970.039 38.1685C969.681 38.6716 969.198 39.0398 968.59 39.2733C967.987 39.5107 967.315 39.6294 966.574 39.6294ZM966.526 34.5343C967.097 34.5343 967.58 34.4035 967.975 34.1419C968.369 33.8803 968.669 33.504 968.874 33.013C969.079 32.522 969.182 31.9344 969.182 31.2502C969.182 30.5821 969.081 29.9925 968.88 29.4814C968.679 28.9702 968.381 28.5698 967.987 28.28C967.592 27.9902 967.105 27.8453 966.526 27.8453C965.922 27.8453 965.419 27.9983 965.017 28.3042C964.618 28.61 964.318 29.0205 964.117 29.5357C963.92 30.0508 963.821 30.6223 963.821 31.2502C963.821 31.8941 963.922 32.4636 964.123 32.9586C964.328 33.4496 964.63 33.836 965.029 34.1177C965.431 34.3954 965.93 34.5343 966.526 34.5343ZM974.615 30.3809V35.959H973.191V26.6863H974.567V28.1351H974.688C974.905 27.6642 975.235 27.2859 975.678 27.0002C976.12 26.7104 976.692 26.5655 977.392 26.5655C978.02 26.5655 978.569 26.6943 979.04 26.9519C979.511 27.2054 979.877 27.5918 980.139 28.111C980.401 28.6261 980.531 29.2781 980.531 30.0669V35.959H979.107V30.1635C979.107 29.4351 978.918 28.8676 978.539 28.4611C978.161 28.0506 977.642 27.8453 976.982 27.8453C976.527 27.8453 976.12 27.944 975.762 28.1412C975.408 28.3384 975.128 28.6261 974.923 29.0044C974.718 29.3828 974.615 29.8416 974.615 30.3809ZM906.067 54.959L908.096 42.5953H909.303L907.275 54.959H906.067ZM900.441 51.53L900.634 50.3226H909.859L909.665 51.53H900.441ZM901.721 54.959L903.749 42.5953H904.957L902.928 54.959H901.721ZM901.165 47.2317L901.359 46.0243H910.583L910.39 47.2317H901.165ZM912.373 54.959V42.5953H913.798V47.1593H913.918C914.023 46.9983 914.168 46.793 914.353 46.5435C914.542 46.29 914.812 46.0646 915.162 45.8674C915.516 45.6661 915.995 45.5655 916.599 45.5655C917.38 45.5655 918.068 45.7607 918.663 46.1511C919.259 46.5415 919.724 47.0949 920.058 47.8113C920.392 48.5276 920.559 49.3728 920.559 50.3468C920.559 51.3288 920.392 52.18 920.058 52.9004C919.724 53.6168 919.261 54.1722 918.67 54.5666C918.078 54.957 917.396 55.1522 916.623 55.1522C916.027 55.1522 915.55 55.0536 915.192 54.8564C914.834 54.6551 914.558 54.4277 914.365 54.1742C914.172 53.9166 914.023 53.7033 913.918 53.5343H913.749V54.959H912.373ZM913.774 50.3226C913.774 51.0229 913.876 51.6407 914.081 52.176C914.287 52.7072 914.587 53.1238 914.981 53.4256C915.375 53.7234 915.858 53.8723 916.43 53.8723C917.025 53.8723 917.523 53.7154 917.921 53.4015C918.323 53.0835 918.625 52.6569 918.826 52.1216C919.032 51.5823 919.134 50.9827 919.134 50.3226C919.134 49.6706 919.034 49.083 918.833 48.5598C918.635 48.0326 918.335 47.6161 917.933 47.3102C917.535 47.0003 917.034 46.8453 916.43 46.8453C915.85 46.8453 915.363 46.9922 914.969 47.286C914.574 47.5758 914.277 47.9823 914.075 48.5055C913.874 49.0247 913.774 49.6304 913.774 50.3226ZM928.582 51.1678V45.6863H930.007V54.959H928.582V53.3894H928.486C928.268 53.8603 927.93 54.2607 927.471 54.5907C927.013 54.9167 926.433 55.0797 925.733 55.0797C925.153 55.0797 924.638 54.9529 924.187 54.6994C923.737 54.4418 923.382 54.0555 923.125 53.5403C922.867 53.0211 922.738 52.3671 922.738 51.5783V45.6863H924.163V51.4817C924.163 52.1578 924.352 52.6971 924.731 53.0996C925.113 53.5021 925.6 53.7033 926.192 53.7033C926.546 53.7033 926.906 53.6127 927.272 53.4316C927.642 53.2505 927.952 52.9728 928.202 52.5985C928.455 52.2243 928.582 51.7473 928.582 51.1678ZM939.185 47.763L937.905 48.1252C937.824 47.9119 937.705 47.7046 937.549 47.5034C937.396 47.2981 937.186 47.1291 936.921 46.9963C936.655 46.8635 936.315 46.7971 935.9 46.7971C935.333 46.7971 934.86 46.9279 934.482 47.1895C934.107 47.447 933.92 47.775 933.92 48.1735C933.92 48.5276 934.049 48.8074 934.307 49.0126C934.564 49.2179 934.967 49.3889 935.514 49.5257L936.891 49.8638C937.72 50.065 938.337 50.3729 938.744 50.7875C939.15 51.198 939.354 51.7272 939.354 52.3752C939.354 52.9064 939.201 53.3813 938.895 53.7999C938.593 54.2185 938.17 54.5485 937.627 54.79C937.084 55.0314 936.452 55.1522 935.731 55.1522C934.786 55.1522 934.003 54.9469 933.383 54.5364C932.763 54.1259 932.371 53.5262 932.206 52.7374L933.558 52.3993C933.687 52.8984 933.93 53.2727 934.289 53.5222C934.651 53.7717 935.124 53.8965 935.707 53.8965C936.371 53.8965 936.899 53.7556 937.289 53.4739C937.683 53.1882 937.881 52.8461 937.881 52.4476C937.881 52.1257 937.768 51.856 937.542 51.6387C937.317 51.4173 936.971 51.2523 936.504 51.1436L934.959 50.7814C934.109 50.5802 933.486 50.2683 933.087 49.8457C932.693 49.4191 932.496 48.8858 932.496 48.2459C932.496 47.7227 932.643 47.2599 932.936 46.8574C933.234 46.455 933.639 46.139 934.15 45.9096C934.665 45.6802 935.248 45.5655 935.9 45.5655C936.818 45.5655 937.538 45.7667 938.062 46.1692C938.589 46.5717 938.963 47.1029 939.185 47.763ZM941.498 54.959V45.6863H942.923V54.959H941.498ZM942.223 44.1408C941.945 44.1408 941.705 44.0462 941.504 43.8571C941.307 43.6679 941.208 43.4405 941.208 43.1749C941.208 42.9093 941.307 42.6819 941.504 42.4927C941.705 42.3036 941.945 42.209 942.223 42.209C942.5 42.209 942.738 42.3036 942.935 42.4927C943.136 42.6819 943.237 42.9093 943.237 43.1749C943.237 43.4405 943.136 43.6679 942.935 43.8571C942.738 44.0462 942.5 44.1408 942.223 44.1408ZM946.957 49.3809V54.959H945.532V45.6863H946.909V47.1351H947.03C947.247 46.6642 947.577 46.2859 948.02 46.0002C948.462 45.7104 949.034 45.5655 949.734 45.5655C950.362 45.5655 950.911 45.6943 951.382 45.9519C951.853 46.2054 952.219 46.5918 952.481 47.111C952.742 47.6261 952.873 48.2781 952.873 49.0669V54.959H951.449V49.1635C951.449 48.4351 951.259 47.8676 950.881 47.4611C950.503 47.0506 949.984 46.8453 949.324 46.8453C948.869 46.8453 948.462 46.944 948.104 47.1412C947.75 47.3384 947.47 47.6261 947.265 48.0044C947.06 48.3828 946.957 48.8416 946.957 49.3809ZM959.364 55.1522C958.471 55.1522 957.7 54.955 957.052 54.5605C956.408 54.1621 955.911 53.6067 955.561 52.8944C955.215 52.178 955.042 51.3449 955.042 50.3951C955.042 49.4453 955.215 48.6081 955.561 47.8837C955.911 47.1552 956.398 46.5878 957.022 46.1813C957.65 45.7708 958.382 45.5655 959.22 45.5655C959.703 45.5655 960.179 45.646 960.65 45.807C961.121 45.968 961.55 46.2296 961.936 46.5918C962.323 46.95 962.63 47.4249 962.86 48.0165C963.089 48.6081 963.204 49.3366 963.204 50.2019V50.8056H956.056V49.574H961.755C961.755 49.0508 961.65 48.584 961.441 48.1735C961.236 47.763 960.942 47.439 960.56 47.2015C960.181 46.9641 959.735 46.8453 959.22 46.8453C958.652 46.8453 958.161 46.9862 957.747 47.2679C957.336 47.5456 957.02 47.9078 956.799 48.3546C956.577 48.8013 956.467 49.2802 956.467 49.7914V50.6124C956.467 51.3127 956.588 51.9063 956.829 52.3933C957.074 52.8762 957.415 53.2445 957.849 53.498C958.284 53.7476 958.789 53.8723 959.364 53.8723C959.739 53.8723 960.077 53.82 960.379 53.7154C960.685 53.6067 960.948 53.4457 961.17 53.2324C961.391 53.0151 961.562 52.7454 961.683 52.4235L963.059 52.8098C962.914 53.2767 962.671 53.6872 962.329 54.0414C961.987 54.3915 961.564 54.6652 961.061 54.8624C960.558 55.0556 959.992 55.1522 959.364 55.1522ZM971.939 47.763L970.66 48.1252C970.579 47.9119 970.46 47.7046 970.303 47.5034C970.15 47.2981 969.941 47.1291 969.676 46.9963C969.41 46.8635 969.07 46.7971 968.655 46.7971C968.088 46.7971 967.615 46.9279 967.237 47.1895C966.862 47.447 966.675 47.775 966.675 48.1735C966.675 48.5276 966.804 48.8074 967.062 49.0126C967.319 49.2179 967.722 49.3889 968.269 49.5257L969.645 49.8638C970.474 50.065 971.092 50.3729 971.499 50.7875C971.905 51.198 972.108 51.7272 972.108 52.3752C972.108 52.9064 971.956 53.3813 971.65 53.7999C971.348 54.2185 970.925 54.5485 970.382 54.79C969.839 55.0314 969.207 55.1522 968.486 55.1522C967.541 55.1522 966.758 54.9469 966.138 54.5364C965.518 54.1259 965.126 53.5262 964.961 52.7374L966.313 52.3993C966.442 52.8984 966.685 53.2727 967.043 53.5222C967.406 53.7717 967.879 53.8965 968.462 53.8965C969.126 53.8965 969.653 53.7556 970.044 53.4739C970.438 53.1882 970.635 52.8461 970.635 52.4476C970.635 52.1257 970.523 51.856 970.297 51.6387C970.072 51.4173 969.726 51.2523 969.259 51.1436L967.714 50.7814C966.864 50.5802 966.241 50.2683 965.842 49.8457C965.448 49.4191 965.25 48.8858 965.25 48.2459C965.25 47.7227 965.397 47.2599 965.691 46.8574C965.989 46.455 966.393 46.139 966.905 45.9096C967.42 45.6802 968.003 45.5655 968.655 45.5655C969.573 45.5655 970.293 45.7667 970.817 46.1692C971.344 46.5717 971.718 47.1029 971.939 47.763ZM980.821 47.763L979.541 48.1252C979.461 47.9119 979.342 47.7046 979.185 47.5034C979.032 47.2981 978.823 47.1291 978.557 46.9963C978.292 46.8635 977.952 46.7971 977.537 46.7971C976.97 46.7971 976.497 46.9279 976.118 47.1895C975.744 47.447 975.557 47.775 975.557 48.1735C975.557 48.5276 975.686 48.8074 975.943 49.0126C976.201 49.2179 976.603 49.3889 977.151 49.5257L978.527 49.8638C979.356 50.065 979.974 50.3729 980.381 50.7875C980.787 51.198 980.99 51.7272 980.99 52.3752C980.99 52.9064 980.837 53.3813 980.531 53.7999C980.23 54.2185 979.807 54.5485 979.264 54.79C978.72 55.0314 978.089 55.1522 977.368 55.1522C976.422 55.1522 975.64 54.9469 975.02 54.5364C974.4 54.1259 974.008 53.5262 973.843 52.7374L975.195 52.3993C975.324 52.8984 975.567 53.2727 975.925 53.5222C976.288 53.7717 976.76 53.8965 977.344 53.8965C978.008 53.8965 978.535 53.7556 978.926 53.4739C979.32 53.1882 979.517 52.8461 979.517 52.4476C979.517 52.1257 979.405 51.856 979.179 51.6387C978.954 51.4173 978.608 51.2523 978.141 51.1436L976.595 50.7814C975.746 50.5802 975.122 50.2683 974.724 49.8457C974.33 49.4191 974.132 48.8858 974.132 48.2459C974.132 47.7227 974.279 47.2599 974.573 46.8574C974.871 46.455 975.275 46.139 975.786 45.9096C976.302 45.6802 976.885 45.5655 977.537 45.5655C978.455 45.5655 979.175 45.7667 979.698 46.1692C980.226 46.5717 980.6 47.1029 980.821 47.763Z" fill="#654C4F" fill-opacity="0.76"/>
<path d="M545.785 36.0842L545.861 24.2298H547.219L554.239 14.9051H565.937L554.163 29.434H551.22L545.785 36.0842ZM536.426 42.6619V5.45898H546.706V42.6619H536.426ZM554.314 42.6619L547.672 31.6749L554.465 24.591L566.239 42.6619H554.314Z" fill="#654C4F"/>
<path d="M519.783 42.5374C516.659 42.5374 513.986 41.9167 511.763 40.6744C509.538 39.4194 507.833 37.6758 506.646 35.4418C505.459 33.1961 504.866 30.592 504.866 27.6306C504.866 24.6702 505.459 22.072 506.646 19.839C507.833 17.5932 509.538 15.8487 511.763 14.6064C513.986 13.3513 516.659 12.7248 519.783 12.7248C522.607 12.7248 525.049 13.2388 527.111 14.2677C529.184 15.2838 530.79 16.7268 531.926 18.5967C533.064 20.4538 533.639 22.5517 533.651 25.0608H524.055C523.918 23.5424 523.481 22.4734 522.744 21.6834C522.019 20.8806 521.082 20.4792 519.933 20.4792C519.033 20.4792 518.246 20.7426 517.572 21.2693C516.897 21.7842 516.372 22.5684 515.998 23.6217C515.623 24.6634 515.436 25.9752 515.436 27.5562C515.436 29.1363 515.623 30.454 515.998 31.5083C516.372 32.5499 516.897 33.3341 517.572 33.8608C518.246 34.3757 519.033 34.6322 519.933 34.6322C520.695 34.6322 521.37 34.457 521.957 34.1055C522.544 33.7414 523.019 33.2147 523.381 32.5245C523.756 31.8216 523.981 31.2048 524.055 30.2014H533.651C533.613 32.7487 533.033 34.7331 531.908 36.6274C530.784 38.5099 529.191 39.9657 527.129 40.9946C525.08 42.0235 522.632 42.5374 519.783 42.5374Z" fill="#654C4F"/>
<path fill-rule="evenodd" clip-rule="evenodd" d="M501.866 12.8492H502.17V42.6619H491.89V21.2606C493.465 20.4118 494.962 19.3809 496.342 18.262C498.538 16.4822 500.431 14.5076 501.866 12.8492ZM488.805 22.636V42.6619C488.805 53.459 478.525 53.459 478.525 53.459H465.163V45.7515L475.443 45.7486C476.618 45.7486 478.525 45.7486 478.525 42.6619V22.6625C480.182 23.2371 481.895 23.5709 483.625 23.5709C485.381 23.5709 487.121 23.2264 488.805 22.636ZM475.441 21.2978V42.6619H465.16V12.8492L465.439 12.8473C466.864 14.5057 468.746 16.4793 470.929 18.2581C472.326 19.3947 473.842 20.4402 475.441 21.2978Z" fill="#654C4F"/>
<path d="M483.625 12.1926C471.084 12.1926 465.157 7.32745 465.157 7.32745C465.157 7.32745 473.928 20.3945 483.625 20.3945C493.322 20.3945 502.168 7.32745 502.168 7.32745C502.168 7.32745 496.167 12.1926 483.625 12.1926Z" fill="#654C4F"/>
<path d="M416.75 42.6617V12.8491H427.03V19.0166C427.64 17.1772 428.681 15.5667 430.153 14.4938C431.624 13.4208 433.377 12.8491 435.407 12.8491C437.463 12.8491 439.234 13.3954 440.719 14.4938C442.203 15.5795 443.098 17.2163 443.403 19.0166H443.708C444.202 17.2163 445.256 15.5824 446.868 14.4967C448.479 13.3983 450.371 12.8491 452.541 12.8491C455.346 12.8491 457.618 13.7556 459.357 15.5697C461.108 17.3837 461.984 19.7979 461.984 22.8121V42.6617H452.217V25.1851C452.217 25.1851 452.217 21.5874 448.362 21.5874C444.764 21.5874 444.507 25.1851 444.507 25.1851V42.6617H434.741V25.1851C434.741 25.1851 434.741 21.5874 430.885 21.5874C427.288 21.5874 427.03 25.1851 427.03 25.1851V42.6617H416.75Z" fill="#654C4F"/>
<path d="M6.91619 26.459L8.9446 14.0953H10.152L8.12358 26.459H6.91619ZM1.28977 23.03L1.48295 21.8226H10.7074L10.5142 23.03H1.28977ZM2.5696 26.459L4.59801 14.0953H5.8054L3.77699 26.459H2.5696ZM2.0142 18.7317L2.20739 17.5243H11.4318L11.2386 18.7317H2.0142ZM15.1294 26.459L12.3042 17.1863H13.8013L15.8056 24.2857H15.9022L17.8823 17.1863H19.4036L21.3596 24.2615H21.4561L23.4604 17.1863H24.9576L22.1323 26.459H20.7317L18.7033 19.3354H18.5584L16.53 26.459H15.1294ZM26.8411 26.459V17.1863H28.2658V26.459H26.8411ZM27.5655 15.6408C27.2878 15.6408 27.0484 15.5462 26.8471 15.3571C26.6499 15.1679 26.5513 14.9405 26.5513 14.6749C26.5513 14.4093 26.6499 14.1819 26.8471 13.9927C27.0484 13.8036 27.2878 13.709 27.5655 13.709C27.8432 13.709 28.0807 13.8036 28.2779 13.9927C28.4791 14.1819 28.5797 14.4093 28.5797 14.6749C28.5797 14.9405 28.4791 15.1679 28.2779 15.3571C28.0807 15.5462 27.8432 15.6408 27.5655 15.6408ZM34.9079 17.1863V18.3936H30.1025V17.1863H34.9079ZM31.5031 14.9647H32.9278V23.8027C32.9278 24.2052 32.9862 24.507 33.1029 24.7083C33.2236 24.9055 33.3766 25.0383 33.5617 25.1067C33.7509 25.1711 33.9501 25.2033 34.1594 25.2033C34.3163 25.2033 34.4451 25.1953 34.5457 25.1792C34.6463 25.159 34.7268 25.1429 34.7872 25.1309L35.077 26.4107C34.9804 26.4469 34.8456 26.4831 34.6725 26.5194C34.4994 26.5596 34.2801 26.5797 34.0145 26.5797C33.612 26.5797 33.2176 26.4932 32.8312 26.3201C32.4489 26.1471 32.1309 25.8835 31.8774 25.5293C31.6279 25.1751 31.5031 24.7284 31.5031 24.1891V14.9647ZM38.675 20.8809V26.459H37.2503V14.0953H38.675V18.6351H38.7957C39.0131 18.1562 39.339 17.7759 39.7737 17.4941C40.2124 17.2084 40.796 17.0655 41.5244 17.0655C42.1563 17.0655 42.7097 17.1923 43.1846 17.4458C43.6595 17.6954 44.0277 18.0797 44.2893 18.5989C44.555 19.1141 44.6878 19.7701 44.6878 20.5669V26.459H43.2631V20.6635C43.2631 19.927 43.0719 19.3575 42.6895 18.9551C42.3112 18.5486 41.786 18.3453 41.1139 18.3453C40.647 18.3453 40.2285 18.444 39.8582 18.6412C39.492 18.8384 39.2022 19.1261 38.9889 19.5044C38.7796 19.8828 38.675 20.3416 38.675 20.8809ZM48.7189 14.0953V26.459H47.2942V14.0953H48.7189ZM55.0954 26.6522C54.2583 26.6522 53.5238 26.4529 52.892 26.0545C52.2641 25.6561 51.7731 25.0987 51.4189 24.3823C51.0688 23.6659 50.8937 22.8288 50.8937 21.8709C50.8937 20.905 51.0688 20.0618 51.4189 19.3414C51.7731 18.621 52.2641 18.0616 52.892 17.6632C53.5238 17.2647 54.2583 17.0655 55.0954 17.0655C55.9326 17.0655 56.665 17.2647 57.2929 17.6632C57.9247 18.0616 58.4157 18.621 58.7659 19.3414C59.1201 20.0618 59.2971 20.905 59.2971 21.8709C59.2971 22.8288 59.1201 23.6659 58.7659 24.3823C58.4157 25.0987 57.9247 25.6561 57.2929 26.0545C56.665 26.4529 55.9326 26.6522 55.0954 26.6522ZM55.0954 25.3723C55.7313 25.3723 56.2545 25.2093 56.665 24.8833C57.0756 24.5574 57.3794 24.1287 57.5766 23.5975C57.7738 23.0662 57.8724 22.4907 57.8724 21.8709C57.8724 21.2511 57.7738 20.6736 57.5766 20.1383C57.3794 19.603 57.0756 19.1704 56.665 18.8404C56.2545 18.5104 55.7313 18.3453 55.0954 18.3453C54.4595 18.3453 53.9363 18.5104 53.5258 18.8404C53.1153 19.1704 52.8115 19.603 52.6143 20.1383C52.4171 20.6736 52.3184 21.2511 52.3184 21.8709C52.3184 22.4907 52.4171 23.0662 52.6143 23.5975C52.8115 24.1287 53.1153 24.5574 53.5258 24.8833C53.9363 25.2093 54.4595 25.3723 55.0954 25.3723ZM68.7223 17.1863L65.2933 26.459H63.8445L60.4155 17.1863H61.9609L64.5206 24.5755H64.6172L67.1768 17.1863H68.7223ZM74.1586 26.6522C73.2651 26.6522 72.4944 26.455 71.8464 26.0605C71.2025 25.6621 70.7054 25.1067 70.3553 24.3944C70.0092 23.678 69.8361 22.8449 69.8361 21.8951C69.8361 20.9453 70.0092 20.1081 70.3553 19.3837C70.7054 18.6552 71.1924 18.0878 71.8162 17.6813C72.4441 17.2708 73.1766 17.0655 74.0137 17.0655C74.4966 17.0655 74.9735 17.146 75.4444 17.307C75.9153 17.468 76.3439 17.7296 76.7303 18.0918C77.1167 18.45 77.4245 18.9249 77.6539 19.5165C77.8833 20.1081 77.998 20.8366 77.998 21.7019V22.3056H70.8503V21.074H76.5492C76.5492 20.5508 76.4445 20.084 76.2353 19.6735C76.03 19.263 75.7362 18.939 75.3539 18.7015C74.9756 18.4641 74.5288 18.3453 74.0137 18.3453C73.4462 18.3453 72.9552 18.4862 72.5407 18.7679C72.1301 19.0456 71.8142 19.4078 71.5929 19.8546C71.3715 20.3013 71.2608 20.7802 71.2608 21.2914V22.1124C71.2608 22.8127 71.3816 23.4063 71.623 23.8933C71.8685 24.3762 72.2086 24.7445 72.6433 24.998C73.0779 25.2476 73.583 25.3723 74.1586 25.3723C74.5328 25.3723 74.8709 25.32 75.1728 25.2154C75.4786 25.1067 75.7422 24.9457 75.9636 24.7324C76.185 24.5151 76.356 24.2454 76.4767 23.9235L77.8532 24.3098C77.7083 24.7767 77.4648 25.1872 77.1227 25.5414C76.7806 25.8915 76.358 26.1652 75.8549 26.3624C75.3519 26.5556 74.7864 26.6522 74.1586 26.6522ZM84.2946 17.1863V18.3936H79.296V17.1863H84.2946ZM80.7931 26.459V15.9064C80.7931 15.3752 80.9179 14.9325 81.1674 14.5783C81.417 14.2241 81.7409 13.9585 82.1394 13.7814C82.5378 13.6043 82.9584 13.5158 83.4011 13.5158C83.7512 13.5158 84.037 13.544 84.2583 13.6003C84.4797 13.6567 84.6447 13.709 84.7534 13.7573L84.3429 14.9888C84.2704 14.9647 84.1698 14.9345 84.041 14.8983C83.9163 14.862 83.7512 14.8439 83.546 14.8439C83.0751 14.8439 82.735 14.9627 82.5257 15.2001C82.3205 15.4376 82.2179 15.7857 82.2179 16.2445V26.459H80.7931ZM89.6765 26.6522C88.8394 26.6522 88.1049 26.4529 87.473 26.0545C86.8452 25.6561 86.3542 25.0987 86 24.3823C85.6499 23.6659 85.4748 22.8288 85.4748 21.8709C85.4748 20.905 85.6499 20.0618 86 19.3414C86.3542 18.621 86.8452 18.0616 87.473 17.6632C88.1049 17.2647 88.8394 17.0655 89.6765 17.0655C90.5136 17.0655 91.2461 17.2647 91.8739 17.6632C92.5058 18.0616 92.9968 18.621 93.3469 19.3414C93.7011 20.0618 93.8782 20.905 93.8782 21.8709C93.8782 22.8288 93.7011 23.6659 93.3469 24.3823C92.9968 25.0987 92.5058 25.6561 91.8739 26.0545C91.2461 26.4529 90.5136 26.6522 89.6765 26.6522ZM89.6765 25.3723C90.3124 25.3723 90.8356 25.2093 91.2461 24.8833C91.6566 24.5574 91.9605 24.1287 92.1577 23.5975C92.3549 23.0662 92.4535 22.4907 92.4535 21.8709C92.4535 21.2511 92.3549 20.6736 92.1577 20.1383C91.9605 19.603 91.6566 19.1704 91.2461 18.8404C90.8356 18.5104 90.3124 18.3453 89.6765 18.3453C89.0406 18.3453 88.5174 18.5104 88.1069 18.8404C87.6964 19.1704 87.3925 19.603 87.1953 20.1383C86.9981 20.6736 86.8995 21.2511 86.8995 21.8709C86.8995 22.4907 86.9981 23.0662 87.1953 23.5975C87.3925 24.1287 87.6964 24.5574 88.1069 24.8833C88.5174 25.2093 89.0406 25.3723 89.6765 25.3723ZM96.053 26.459V17.1863H97.4294V18.5868H97.526C97.695 18.128 98.0009 17.7557 98.4436 17.47C98.8863 17.1842 99.3854 17.0414 99.9408 17.0414C100.045 17.0414 100.176 17.0434 100.333 17.0474C100.49 17.0514 100.609 17.0575 100.689 17.0655V18.5144C100.641 18.5023 100.53 18.4842 100.357 18.46C100.188 18.4319 100.009 18.4178 99.82 18.4178C99.3693 18.4178 98.9668 18.5124 98.6127 18.7015C98.2625 18.8867 97.9848 19.1442 97.7796 19.4743C97.5783 19.8002 97.4777 20.1725 97.4777 20.5911V26.459H96.053Z" fill="#654C4F" fill-opacity="0.76"/>
<path d="M10.321 39.2047H7.25426C7.23816 39.0156 7.17176 38.8526 7.05504 38.7157C6.93833 38.5789 6.78741 38.4743 6.60227 38.4018C6.42116 38.3253 6.21993 38.2871 5.99858 38.2871C5.71283 38.2871 5.46733 38.3394 5.26207 38.4441C5.05682 38.5487 4.9562 38.6976 4.96023 38.8908C4.9562 39.0276 5.01456 39.1544 5.1353 39.2711C5.26006 39.3878 5.49953 39.4784 5.85369 39.5428L7.73722 39.8809C8.68703 40.0539 9.39335 40.3457 9.85618 40.7562C10.323 41.1627 10.5585 41.708 10.5625 42.3922C10.5585 43.0523 10.3613 43.6258 9.97088 44.1127C9.58452 44.5957 9.05528 44.97 8.38317 45.2356C7.71508 45.4972 6.95241 45.628 6.09517 45.628C4.6785 45.628 3.56972 45.3382 2.76882 44.7587C1.97195 44.1792 1.52723 43.4145 1.43466 42.4647H4.7429C4.78717 42.7585 4.93206 42.9859 5.17756 43.1468C5.42708 43.3038 5.741 43.3823 6.11932 43.3823C6.42519 43.3823 6.67673 43.33 6.87394 43.2253C7.07517 43.1207 7.17779 42.9718 7.18182 42.7786C7.17779 42.6015 7.08925 42.4606 6.91619 42.356C6.74716 42.2514 6.48153 42.1668 6.11932 42.1025L4.47727 41.8127C3.53149 41.6477 2.82315 41.3337 2.35227 40.8709C1.88139 40.4081 1.64796 39.8124 1.65199 39.084C1.64796 38.44 1.817 37.8947 2.15909 37.448C2.50521 36.9972 2.99822 36.6551 3.63814 36.4217C4.28208 36.1842 5.04474 36.0655 5.92614 36.0655C7.26634 36.0655 8.3228 36.3432 9.09553 36.8986C9.87228 37.454 10.2808 38.2227 10.321 39.2047ZM11.8393 45.459V36.1863H15.1717V45.459H11.8393ZM13.5055 35.2203C13.0547 35.2203 12.6684 35.0714 12.3464 34.7736C12.0244 34.4758 11.8635 34.1176 11.8635 33.699C11.8635 33.2805 12.0244 32.9223 12.3464 32.6245C12.6684 32.3266 13.0547 32.1777 13.5055 32.1777C13.9603 32.1777 14.3467 32.3266 14.6646 32.6245C14.9866 32.9223 15.1475 33.2805 15.1475 33.699C15.1475 34.1176 14.9866 34.4758 14.6646 34.7736C14.3467 35.0714 13.9603 35.2203 13.5055 35.2203ZM16.8696 45.459V36.1863H20.0329V37.949H20.1295C20.3227 37.3695 20.6527 36.9107 21.1196 36.5726C21.5864 36.2346 22.1418 36.0655 22.7858 36.0655C23.4378 36.0655 23.9992 36.2386 24.4701 36.5847C24.941 36.9268 25.2247 37.3816 25.3213 37.949H25.4179C25.5748 37.3816 25.9089 36.9268 26.42 36.5847C26.9311 36.2386 27.5308 36.0655 28.219 36.0655C29.1085 36.0655 29.8289 36.3513 30.3802 36.9228C30.9356 37.4943 31.2133 38.2549 31.2133 39.2047V45.459H27.8809V40.0499C27.8809 39.6434 27.7783 39.3255 27.5731 39.0961C27.3678 38.8626 27.0921 38.7459 26.746 38.7459C26.4039 38.7459 26.1323 38.8626 25.931 39.0961C25.7338 39.3255 25.6352 39.6434 25.6352 40.0499V45.459H22.4477V40.0499C22.4477 39.6434 22.3451 39.3255 22.1398 39.0961C21.9346 38.8626 21.6589 38.7459 21.3128 38.7459C21.0834 38.7459 20.8862 38.7982 20.7211 38.9029C20.5561 39.0075 20.4273 39.1584 20.3348 39.3556C20.2462 39.5488 20.202 39.7802 20.202 40.0499V45.459H16.8696ZM32.8569 48.9363V36.1863H36.1651V37.8042H36.2376C36.3583 37.4902 36.5354 37.2025 36.7688 36.9409C37.0022 36.6752 37.292 36.464 37.6381 36.307C37.9843 36.146 38.3867 36.0655 38.8455 36.0655C39.4573 36.0655 40.0388 36.2285 40.5902 36.5545C41.1456 36.8805 41.5964 37.3936 41.9425 38.0939C42.2926 38.7942 42.4677 39.7038 42.4677 40.8226C42.4677 41.8932 42.3007 42.7806 41.9666 43.4849C41.6366 44.1892 41.1939 44.7144 40.6385 45.0605C40.0871 45.4067 39.4814 45.5797 38.8214 45.5797C38.3867 45.5797 37.9983 45.5093 37.6562 45.3684C37.3182 45.2235 37.0284 45.0283 36.7869 44.7828C36.5495 44.5333 36.3664 44.2516 36.2376 43.9377H36.1893V48.9363H32.8569ZM36.1168 40.8226C36.1168 41.2734 36.1752 41.6638 36.2919 41.9938C36.4126 42.3198 36.5817 42.5733 36.799 42.7544C37.0204 42.9315 37.284 43.0201 37.5898 43.0201C37.8957 43.0201 38.1553 42.9335 38.3686 42.7605C38.5859 42.5834 38.7509 42.3319 38.8636 42.0059C38.9804 41.6758 39.0387 41.2814 39.0387 40.8226C39.0387 40.3638 38.9804 39.9714 38.8636 39.6454C38.7509 39.3154 38.5859 39.0639 38.3686 38.8908C38.1553 38.7137 37.8957 38.6252 37.5898 38.6252C37.284 38.6252 37.0204 38.7137 36.799 38.8908C36.5817 39.0639 36.4126 39.3154 36.2919 39.6454C36.1752 39.9714 36.1168 40.3638 36.1168 40.8226ZM47.1961 33.0953V45.459H43.8637V33.0953H47.1961ZM48.894 45.459V36.1863H52.2264V45.459H48.894ZM50.5602 35.2203C50.1094 35.2203 49.7231 35.0714 49.4011 34.7736C49.0791 34.4758 48.9181 34.1176 48.9181 33.699C48.9181 33.2805 49.0791 32.9223 49.4011 32.6245C49.7231 32.3266 50.1094 32.1777 50.5602 32.1777C51.015 32.1777 51.4013 32.3266 51.7193 32.6245C52.0413 32.9223 52.2022 33.2805 52.2022 33.699C52.2022 34.1176 52.0413 34.4758 51.7193 34.7736C51.4013 35.0714 51.015 35.2203 50.5602 35.2203ZM58.3916 45.628C57.3854 45.628 56.5242 45.4288 55.8078 45.0304C55.0914 44.6279 54.5421 44.0685 54.1597 43.3521C53.7774 42.6317 53.5862 41.7966 53.5862 40.8468C53.5862 39.897 53.7774 39.0639 54.1597 38.3475C54.5421 37.6271 55.0914 37.0676 55.8078 36.6692C56.5242 36.2667 57.3854 36.0655 58.3916 36.0655C59.3012 36.0655 60.088 36.2305 60.752 36.5605C61.4201 36.8865 61.9373 37.3494 62.3035 37.949C62.6698 38.5447 62.8549 39.245 62.8589 40.0499H59.768C59.7238 39.5629 59.5829 39.1926 59.3454 38.9391C59.112 38.6815 58.8102 38.5527 58.4399 38.5527C58.1501 38.5527 57.8966 38.6373 57.6792 38.8063C57.4619 38.9713 57.2929 39.2228 57.1721 39.5609C57.0514 39.8949 56.991 40.3155 56.991 40.8226C56.991 41.3297 57.0514 41.7523 57.1721 42.0904C57.2929 42.4244 57.4619 42.676 57.6792 42.845C57.8966 43.01 58.1501 43.0925 58.4399 43.0925C58.6854 43.0925 58.9027 43.0362 59.0919 42.9235C59.281 42.8068 59.434 42.6377 59.5507 42.4164C59.6714 42.191 59.7439 41.9173 59.768 41.5953H62.8589C62.8469 42.4123 62.6597 43.1247 62.2975 43.7324C61.9353 44.3361 61.4221 44.803 60.7581 45.133C60.098 45.463 59.3092 45.628 58.3916 45.628ZM64.2338 45.459V36.1863H67.5662V45.459H64.2338ZM65.9 35.2203C65.4493 35.2203 65.0629 35.0714 64.7409 34.7736C64.419 34.4758 64.258 34.1176 64.258 33.699C64.258 33.2805 64.419 32.9223 64.7409 32.6245C65.0629 32.3266 65.4493 32.1777 65.9 32.1777C66.3548 32.1777 66.7412 32.3266 67.0591 32.6245C67.3811 32.9223 67.5421 33.2805 67.5421 33.699C67.5421 34.1176 67.3811 34.4758 67.0591 34.7736C66.7412 35.0714 66.3548 35.2203 65.9 35.2203ZM74.7939 36.1863V38.601H68.6846V36.1863H74.7939ZM69.8678 33.9647H73.2002V42.4767C73.2002 42.6055 73.2223 42.7142 73.2666 42.8027C73.3109 42.8873 73.3793 42.9516 73.4719 42.9959C73.5644 43.0362 73.6832 43.0563 73.828 43.0563C73.9287 43.0563 74.0454 43.0442 74.1782 43.0201C74.315 42.9959 74.4156 42.9758 74.48 42.9597L74.963 45.302C74.8141 45.3463 74.6008 45.4006 74.3231 45.465C74.0494 45.5294 73.7234 45.5717 73.3451 45.5918C72.5804 45.632 71.9385 45.5536 71.4193 45.3564C70.9001 45.1551 70.5097 44.8392 70.2481 44.4086C69.9865 43.9779 69.8598 43.4386 69.8678 42.7907V33.9647ZM78.1822 48.9363C77.7998 48.9363 77.4356 48.9061 77.0895 48.8457C76.7434 48.7894 76.4395 48.7109 76.1779 48.6103L76.9023 46.2438C77.176 46.3404 77.4255 46.4028 77.6509 46.4309C77.8803 46.4591 78.0755 46.443 78.2365 46.3826C78.4015 46.3223 78.5202 46.2076 78.5927 46.0385L78.6651 45.8695L75.4052 36.1863H78.8825L80.3796 42.6096H80.4762L81.9975 36.1863H85.4989L82.1183 46.2317C81.9492 46.7428 81.7037 47.2016 81.3817 47.6081C81.0638 48.0186 80.6452 48.3426 80.1261 48.5801C79.6069 48.8175 78.9589 48.9363 78.1822 48.9363Z" fill="#654C4F"/>
</svg>
