<svg width="61" height="26" viewBox="0 0 61 26" fill="none" xmlns="http://www.w3.org/2000/svg">
<rect x="1" width="59" height="26" rx="6" fill="#F71735"/>
<path d="M21 8.79999V17.2C21 17.3238 20.9508 17.4425 20.8633 17.53C20.7758 17.6175 20.6571 17.6667 20.5333 17.6667H7.46667C7.3429 17.6667 7.2242 17.6175 7.13668 17.53C7.04917 17.4425 7 17.3238 7 17.2C7 17.0762 7.04917 16.9575 7.13668 16.87C7.2242 16.7825 7.3429 16.7333 7.46667 16.7333H10.2667V14.4C10.2667 14.2762 10.3158 14.1575 10.4034 14.07C10.4909 13.9825 10.6096 13.9333 10.7333 13.9333H13.5333V11.6C13.5333 11.4762 13.5825 11.3575 13.67 11.27C13.7575 11.1825 13.8762 11.1333 14 11.1333H16.8V8.79999C16.8 8.67623 16.8492 8.55753 16.9367 8.47001C17.0242 8.38249 17.1429 8.33333 17.2667 8.33333H20.5333C20.6571 8.33333 20.7758 8.38249 20.8633 8.47001C20.9508 8.55753 21 8.67623 21 8.79999Z" fill="#FFFCFF"/>
<path d="M25.8217 18V8.54545H29.6072C30.3028 8.54545 30.8829 8.64856 31.3477 8.85476C31.8124 9.06096 32.1617 9.34718 32.3956 9.71342C32.6295 10.0766 32.7464 10.4951 32.7464 10.9691C32.7464 11.3384 32.6726 11.6631 32.5249 11.9432C32.3771 12.2202 32.174 12.4479 31.9155 12.6264C31.66 12.8018 31.3677 12.9265 31.0384 13.0004V13.0927C31.3984 13.1081 31.7354 13.2096 32.0494 13.3974C32.3664 13.5851 32.6233 13.8482 32.8203 14.1868C33.0173 14.5223 33.1158 14.9223 33.1158 15.3871C33.1158 15.8887 32.9911 16.3365 32.7418 16.7305C32.4956 17.1213 32.1309 17.4306 31.6477 17.6584C31.1645 17.8861 30.569 18 29.8612 18H25.8217ZM27.8207 16.3658H29.4503C30.0073 16.3658 30.4136 16.2596 30.669 16.0472C30.9245 15.8318 31.0522 15.5456 31.0522 15.1886C31.0522 14.927 30.9891 14.6961 30.8629 14.4961C30.7367 14.296 30.5567 14.1391 30.3228 14.0252C30.092 13.9113 29.8165 13.8544 29.4964 13.8544H27.8207V16.3658ZM27.8207 12.5018H29.3026C29.5765 12.5018 29.8196 12.4541 30.032 12.3587C30.2474 12.2602 30.4167 12.1217 30.5398 11.9432C30.666 11.7647 30.729 11.5508 30.729 11.3015C30.729 10.9599 30.6075 10.6844 30.3643 10.4751C30.1243 10.2659 29.7827 10.1612 29.3395 10.1612H27.8207V12.5018ZM37.6111 18.1385C36.8817 18.1385 36.2538 17.9908 35.7275 17.6953C35.2043 17.3968 34.8012 16.9751 34.518 16.4304C34.2349 15.8826 34.0933 15.2347 34.0933 14.4869C34.0933 13.7575 34.2349 13.1173 34.518 12.5664C34.8012 12.0155 35.1997 11.5862 35.7137 11.2784C36.2307 10.9706 36.837 10.8168 37.5326 10.8168C38.0004 10.8168 38.4359 10.8922 38.839 11.043C39.2453 11.1907 39.5992 11.4138 39.9008 11.7124C40.2055 12.0109 40.4425 12.3864 40.6118 12.8388C40.781 13.2881 40.8657 13.8144 40.8657 14.4176V14.9577H34.8781V13.739H39.0145C39.0145 13.4558 38.9529 13.205 38.8298 12.9865C38.7067 12.768 38.5359 12.5972 38.3174 12.4741C38.1019 12.3479 37.8511 12.2848 37.5649 12.2848C37.2664 12.2848 37.0017 12.354 36.7709 12.4925C36.5431 12.628 36.3646 12.8111 36.2354 13.0419C36.1061 13.2696 36.0399 13.5236 36.0368 13.8036V14.9624C36.0368 15.3132 36.1015 15.6164 36.2307 15.8718C36.3631 16.1272 36.5493 16.3242 36.7893 16.4627C37.0294 16.6012 37.3141 16.6705 37.6434 16.6705C37.8619 16.6705 38.0619 16.6397 38.2435 16.5781C38.4251 16.5166 38.5805 16.4242 38.7098 16.3011C38.839 16.178 38.9375 16.0272 39.0052 15.8487L40.8241 15.9688C40.7318 16.4058 40.5425 16.7874 40.2563 17.1136C39.9732 17.4368 39.6069 17.6892 39.1576 17.8707C38.7113 18.0492 38.1958 18.1385 37.6111 18.1385ZM45.9207 10.9091V12.3864H41.6505V10.9091H45.9207ZM42.6199 9.21023H44.5866V15.821C44.5866 16.0026 44.6143 16.1442 44.6697 16.2457C44.7251 16.3442 44.802 16.4135 44.9005 16.4535C45.002 16.4935 45.119 16.5135 45.2513 16.5135C45.3437 16.5135 45.436 16.5058 45.5283 16.4904C45.6206 16.4719 45.6914 16.4581 45.7407 16.4489L46.05 17.9123C45.9515 17.9431 45.813 17.9785 45.6345 18.0185C45.456 18.0616 45.239 18.0877 44.9836 18.0969C44.5096 18.1154 44.0941 18.0523 43.7371 17.9077C43.3832 17.763 43.1077 17.5384 42.9108 17.2337C42.7138 16.929 42.6169 16.5443 42.6199 16.0795V9.21023ZM49.2238 18.1339C48.7714 18.1339 48.3682 18.0554 48.0143 17.8984C47.6604 17.7384 47.3803 17.503 47.1741 17.1921C46.971 16.8782 46.8694 16.4873 46.8694 16.0195C46.8694 15.6256 46.9417 15.2947 47.0864 15.027C47.231 14.7592 47.428 14.5438 47.6773 14.3807C47.9266 14.2176 48.2097 14.0945 48.5267 14.0114C48.8468 13.9283 49.1823 13.8698 49.5331 13.8359C49.9455 13.7929 50.2779 13.7528 50.5303 13.7159C50.7826 13.6759 50.9658 13.6174 51.0796 13.5405C51.1935 13.4635 51.2504 13.3497 51.2504 13.1989V13.1712C51.2504 12.8788 51.1581 12.6526 50.9735 12.4925C50.7919 12.3325 50.5334 12.2525 50.1979 12.2525C49.844 12.2525 49.5624 12.331 49.3531 12.4879C49.1438 12.6418 49.0053 12.8357 48.9376 13.0696L47.1187 12.9219C47.211 12.491 47.3926 12.1186 47.6634 11.8047C47.9343 11.4877 48.2836 11.2446 48.7114 11.0753C49.1423 10.9029 49.6408 10.8168 50.2071 10.8168C50.6011 10.8168 50.9781 10.8629 51.3382 10.9553C51.7013 11.0476 52.0229 11.1907 52.303 11.3846C52.5861 11.5785 52.8093 11.8278 52.9724 12.1325C53.1355 12.4341 53.2171 12.7957 53.2171 13.2173V18H51.352V17.0167H51.2966C51.1827 17.2383 51.0304 17.4337 50.8396 17.603C50.6488 17.7692 50.4195 17.9 50.1517 17.9954C49.884 18.0877 49.5747 18.1339 49.2238 18.1339ZM49.787 16.7766C50.0763 16.7766 50.3318 16.7197 50.5534 16.6058C50.7749 16.4889 50.9488 16.3319 51.075 16.1349C51.2012 15.938 51.2643 15.7148 51.2643 15.4656V14.7131C51.2027 14.7531 51.1181 14.79 51.0104 14.8239C50.9057 14.8546 50.7873 14.8839 50.6549 14.9116C50.5226 14.9362 50.3902 14.9593 50.2579 14.9808C50.1256 14.9993 50.0055 15.0162 49.8978 15.0316C49.667 15.0655 49.4654 15.1193 49.2931 15.1932C49.1207 15.267 48.9868 15.3671 48.8914 15.4933C48.796 15.6164 48.7483 15.7702 48.7483 15.9549C48.7483 16.2227 48.8453 16.4273 49.0392 16.5689C49.2361 16.7074 49.4854 16.7766 49.787 16.7766Z" fill="#FFFCFF"/>
</svg>
