<svg width="85" height="26" viewBox="0 0 85 26" fill="none" xmlns="http://www.w3.org/2000/svg">
<rect x="2" width="81" height="26" rx="6" fill="#533DA3"/>
<path d="M21.5422 17.8754C19.8945 18.7313 17.6312 18.8181 15.358 17.9431C13.5846 17.2644 12.0662 16.0953 11 14.5867C11.4974 14.9395 12.0387 15.2321 12.6121 15.4571C14.9616 16.4244 17.3163 16.3807 18.9692 15.4571C16.7874 13.8782 14.8225 12.0455 13.1208 10.0017C12.8276 9.70667 12.5652 9.38257 12.3377 9.03438C14.1247 10.462 16.0257 11.7555 18.0236 12.9034C16.5685 11.5004 15.2302 9.99153 14.0215 8.39099C16.0373 10.231 18.2532 11.8619 20.6322 13.2565L20.8866 13.3919C20.9554 13.2342 21.0149 13.0727 21.0648 12.9081C21.6142 11.1089 20.9884 9.0633 19.6155 7.37051C22.794 9.09685 24.6759 12.3422 23.8923 15.0604C23.8923 15.1326 23.8518 15.2055 23.8257 15.2781L23.8512 15.307C25.4225 17.0724 24.9905 18.939 24.7921 18.5862C23.9327 17.1114 22.3409 17.5654 21.5425 17.8748L21.5422 17.8754Z" fill="#FFFCFF"/>
<path d="M32.9506 11.2646C32.9137 10.8922 32.7552 10.6029 32.4751 10.3967C32.1951 10.1905 31.815 10.0874 31.3349 10.0874C31.0086 10.0874 30.7332 10.1335 30.5085 10.2259C30.2839 10.3151 30.1115 10.4397 29.9915 10.5998C29.8745 10.7598 29.8161 10.9414 29.8161 11.1445C29.8099 11.3138 29.8453 11.4615 29.9222 11.5877C30.0022 11.7139 30.1115 11.8232 30.25 11.9155C30.3885 12.0047 30.5485 12.0832 30.7301 12.1509C30.9117 12.2156 31.1056 12.271 31.3118 12.3171L32.1612 12.5202C32.5736 12.6126 32.9522 12.7357 33.2969 12.8896C33.6416 13.0434 33.9401 13.2327 34.1925 13.4574C34.4448 13.6821 34.6403 13.9467 34.7788 14.2514C34.9203 14.5561 34.9927 14.9054 34.9957 15.2994C34.9927 15.878 34.8449 16.3796 34.5526 16.8043C34.2633 17.226 33.8447 17.5537 33.2969 17.7876C32.7521 18.0185 32.0951 18.1339 31.3256 18.1339C30.5624 18.1339 29.8976 18.0169 29.3313 17.783C28.7681 17.5491 28.328 17.2029 28.011 16.7443C27.6971 16.2827 27.5324 15.7118 27.517 15.0316H29.4513C29.4729 15.3486 29.5637 15.6133 29.7237 15.8256C29.8868 16.0349 30.1038 16.1934 30.3746 16.3011C30.6486 16.4058 30.9579 16.4581 31.3026 16.4581C31.6411 16.4581 31.935 16.4089 32.1843 16.3104C32.4367 16.2119 32.6321 16.0749 32.7706 15.8995C32.9091 15.7241 32.9783 15.5225 32.9783 15.2947C32.9783 15.0824 32.9152 14.9039 32.7891 14.7592C32.666 14.6146 32.4844 14.4915 32.2443 14.3899C32.0073 14.2884 31.7165 14.196 31.3718 14.1129L30.3423 13.8544C29.5452 13.6605 28.9158 13.3574 28.4542 12.945C27.9925 12.5326 27.7633 11.977 27.7663 11.2784C27.7633 10.706 27.9156 10.2058 28.2234 9.77805C28.5342 9.35026 28.9605 9.01634 29.5021 8.77628C30.0438 8.53622 30.6593 8.41619 31.3487 8.41619C32.0504 8.41619 32.6629 8.53622 33.1861 8.77628C33.7124 9.01634 34.1217 9.35026 34.4141 9.77805C34.7064 10.2058 34.8572 10.7013 34.8665 11.2646H32.9506ZM37.7021 18L35.7725 10.9091H37.7622L38.8609 15.6733H38.9255L40.0704 10.9091H42.0232L43.1865 15.6456H43.2465L44.3268 10.9091H46.3119L44.3868 18H42.3048L41.086 13.5405H40.9983L39.7796 18H37.7021ZM47.361 18V10.9091H49.3276V18H47.361ZM48.3489 9.99503C48.0565 9.99503 47.8057 9.89808 47.5964 9.70419C47.3902 9.50722 47.2871 9.27178 47.2871 8.99787C47.2871 8.72704 47.3902 8.49467 47.5964 8.30078C47.8057 8.10381 48.0565 8.00533 48.3489 8.00533C48.6413 8.00533 48.8906 8.10381 49.0968 8.30078C49.306 8.49467 49.4107 8.72704 49.4107 8.99787C49.4107 9.27178 49.306 9.50722 49.0968 9.70419C48.8906 9.89808 48.6413 9.99503 48.3489 9.99503ZM54.7162 10.9091V12.3864H50.3398V10.9091H54.7162ZM51.3415 18V10.3967C51.3415 9.88269 51.4416 9.45644 51.6416 9.1179C51.8447 8.77936 52.1217 8.52545 52.4726 8.35618C52.8234 8.18691 53.222 8.10227 53.6682 8.10227C53.9698 8.10227 54.2453 8.12535 54.4946 8.17152C54.747 8.21768 54.9347 8.25923 55.0578 8.29616L54.7069 9.77344C54.63 9.74882 54.5346 9.72573 54.4207 9.70419C54.3099 9.68265 54.1961 9.67188 54.0791 9.67188C53.7898 9.67188 53.5882 9.73958 53.4743 9.875C53.3605 10.0073 53.3035 10.1935 53.3035 10.4336V18H51.3415ZM59.6893 10.9091V12.3864H55.419V10.9091H59.6893ZM56.3885 9.21023H58.3551V15.821C58.3551 16.0026 58.3828 16.1442 58.4382 16.2457C58.4936 16.3442 58.5705 16.4135 58.669 16.4535C58.7706 16.4935 58.8875 16.5135 59.0199 16.5135C59.1122 16.5135 59.2045 16.5058 59.2969 16.4904C59.3892 16.4719 59.46 16.4581 59.5092 16.4489L59.8185 17.9123C59.7201 17.9431 59.5816 17.9785 59.4031 18.0185C59.2246 18.0616 59.0076 18.0877 58.7521 18.0969C58.2782 18.1154 57.8627 18.0523 57.5057 17.9077C57.1518 17.763 56.8763 17.5384 56.6793 17.2337C56.4824 16.929 56.3854 16.5443 56.3885 16.0795V9.21023ZM66.8471 8.54545H68.8461V14.6854C68.8461 15.3748 68.6814 15.978 68.3521 16.495C68.0259 17.0121 67.5688 17.4152 66.981 17.7045C66.3932 17.9908 65.7084 18.1339 64.9267 18.1339C64.1419 18.1339 63.4556 17.9908 62.8677 17.7045C62.2799 17.4152 61.8229 17.0121 61.4966 16.495C61.1704 15.978 61.0073 15.3748 61.0073 14.6854V8.54545H63.0062V14.5146C63.0062 14.8746 63.0847 15.1947 63.2417 15.4748C63.4017 15.7549 63.6264 15.9749 63.9157 16.1349C64.205 16.295 64.542 16.375 64.9267 16.375C65.3145 16.375 65.6515 16.295 65.9377 16.1349C66.227 15.9749 66.4501 15.7549 66.6071 15.4748C66.7671 15.1947 66.8471 14.8746 66.8471 14.5146V8.54545ZM72.4896 8.54545V18H70.4907V8.54545H72.4896Z" fill="#FFFCFF"/>
</svg>
