<svg width="109" height="26" viewBox="0 0 109 26" fill="none" xmlns="http://www.w3.org/2000/svg">
<path d="M2 12C2 6.34315 2 3.51472 3.75736 1.75736C5.51472 0 8.34315 0 14 0H74V26H14C8.34315 26 5.51472 26 3.75736 24.2426C2 22.4853 2 19.6569 2 14V12Z" fill="#3F3F3F"/>
<path d="M7.82173 18V8.54545H11.5518C12.2689 8.54545 12.8799 8.68241 13.3846 8.95632C13.8893 9.22715 14.274 9.60417 14.5387 10.0874C14.8065 10.5675 14.9403 11.1214 14.9403 11.7493C14.9403 12.3771 14.8049 12.9311 14.5341 13.4112C14.2633 13.8913 13.8709 14.2653 13.3569 14.533C12.846 14.8008 12.2274 14.9347 11.5011 14.9347H9.12358V13.3327H11.1779C11.5626 13.3327 11.8796 13.2666 12.1289 13.1342C12.3813 12.9988 12.569 12.8126 12.6921 12.5756C12.8183 12.3356 12.8814 12.0601 12.8814 11.7493C12.8814 11.4354 12.8183 11.1615 12.6921 10.9276C12.569 10.6906 12.3813 10.5075 12.1289 10.3782C11.8765 10.2459 11.5565 10.1797 11.1687 10.1797H9.82067V18H7.82173ZM18.1684 8.54545V18H16.2018V8.54545H18.1684ZM21.7658 18.1339C21.3134 18.1339 20.9102 18.0554 20.5563 17.8984C20.2024 17.7384 19.9223 17.503 19.7161 17.1921C19.513 16.8782 19.4114 16.4873 19.4114 16.0195C19.4114 15.6256 19.4837 15.2947 19.6284 15.027C19.773 14.7592 19.97 14.5438 20.2193 14.3807C20.4686 14.2176 20.7517 14.0945 21.0687 14.0114C21.3888 13.9283 21.7243 13.8698 22.0751 13.8359C22.4875 13.7929 22.8199 13.7528 23.0723 13.7159C23.3246 13.6759 23.5078 13.6174 23.6216 13.5405C23.7355 13.4635 23.7924 13.3497 23.7924 13.1989V13.1712C23.7924 12.8788 23.7001 12.6526 23.5154 12.4925C23.3339 12.3325 23.0753 12.2525 22.7399 12.2525C22.3859 12.2525 22.1043 12.331 21.8951 12.4879C21.6858 12.6418 21.5473 12.8357 21.4796 13.0696L19.6607 12.9219C19.753 12.491 19.9346 12.1186 20.2054 11.8047C20.4763 11.4877 20.8256 11.2446 21.2534 11.0753C21.6842 10.9029 22.1828 10.8168 22.7491 10.8168C23.1431 10.8168 23.5201 10.8629 23.8801 10.9553C24.2433 11.0476 24.5649 11.1907 24.845 11.3846C25.1281 11.5785 25.3513 11.8278 25.5144 12.1325C25.6775 12.4341 25.7591 12.7957 25.7591 13.2173V18H23.894V17.0167H23.8386C23.7247 17.2383 23.5724 17.4337 23.3816 17.603C23.1908 17.7692 22.9615 17.9 22.6937 17.9954C22.426 18.0877 22.1167 18.1339 21.7658 18.1339ZM22.329 16.7766C22.6183 16.7766 22.8738 16.7197 23.0953 16.6058C23.3169 16.4889 23.4908 16.3319 23.617 16.1349C23.7432 15.938 23.8063 15.7148 23.8063 15.4656V14.7131C23.7447 14.7531 23.6601 14.79 23.5524 14.8239C23.4477 14.8546 23.3292 14.8839 23.1969 14.9116C23.0646 14.9362 22.9322 14.9593 22.7999 14.9808C22.6676 14.9993 22.5475 15.0162 22.4398 15.0316C22.209 15.0655 22.0074 15.1193 21.835 15.1932C21.6627 15.267 21.5288 15.3671 21.4334 15.4933C21.338 15.6164 21.2903 15.7702 21.2903 15.9549C21.2903 16.2227 21.3873 16.4273 21.5811 16.5689C21.7781 16.7074 22.0274 16.7766 22.329 16.7766ZM31.0565 10.9091V12.3864H26.7862V10.9091H31.0565ZM27.7557 9.21023H29.7223V15.821C29.7223 16.0026 29.75 16.1442 29.8054 16.2457C29.8608 16.3442 29.9377 16.4135 30.0362 16.4535C30.1378 16.4935 30.2547 16.5135 30.3871 16.5135C30.4794 16.5135 30.5717 16.5058 30.6641 16.4904C30.7564 16.4719 30.8272 16.4581 30.8764 16.4489L31.1857 17.9123C31.0872 17.9431 30.9487 17.9785 30.7702 18.0185C30.5917 18.0616 30.3748 18.0877 30.1193 18.0969C29.6454 18.1154 29.2299 18.0523 28.8729 17.9077C28.5189 17.763 28.2435 17.5384 28.0465 17.2337C27.8496 16.929 27.7526 16.5443 27.7557 16.0795V9.21023ZM36.1507 10.9091V12.3864H31.7743V10.9091H36.1507ZM32.7761 18V10.3967C32.7761 9.88269 32.8761 9.45644 33.0762 9.1179C33.2793 8.77936 33.5563 8.52545 33.9071 8.35618C34.258 8.18691 34.6565 8.10227 35.1028 8.10227C35.4044 8.10227 35.6799 8.12535 35.9292 8.17152C36.1815 8.21768 36.3693 8.25923 36.4924 8.29616L36.1415 9.77344C36.0646 9.74882 35.9692 9.72573 35.8553 9.70419C35.7445 9.68265 35.6306 9.67188 35.5137 9.67188C35.2244 9.67188 35.0228 9.73958 34.9089 9.875C34.795 10.0073 34.7381 10.1935 34.7381 10.4336V18H32.7761ZM40.3021 18.1385C39.585 18.1385 38.9649 17.9862 38.4417 17.6815C37.9215 17.3737 37.5199 16.9459 37.2368 16.3981C36.9536 15.8472 36.8121 15.2086 36.8121 14.4822C36.8121 13.7498 36.9536 13.1096 37.2368 12.5618C37.5199 12.0109 37.9215 11.5831 38.4417 11.2784C38.9649 10.9706 39.585 10.8168 40.3021 10.8168C41.0192 10.8168 41.6378 10.9706 42.1579 11.2784C42.6811 11.5831 43.0843 12.0109 43.3675 12.5618C43.6506 13.1096 43.7922 13.7498 43.7922 14.4822C43.7922 15.2086 43.6506 15.8472 43.3675 16.3981C43.0843 16.9459 42.6811 17.3737 42.1579 17.6815C41.6378 17.9862 41.0192 18.1385 40.3021 18.1385ZM40.3113 16.6151C40.6376 16.6151 40.9099 16.5227 41.1285 16.3381C41.347 16.1503 41.5116 15.8949 41.6224 15.5717C41.7363 15.2486 41.7932 14.8808 41.7932 14.4684C41.7932 14.056 41.7363 13.6882 41.6224 13.3651C41.5116 13.0419 41.347 12.7865 41.1285 12.5987C40.9099 12.411 40.6376 12.3171 40.3113 12.3171C39.982 12.3171 39.705 12.411 39.4804 12.5987C39.2588 12.7865 39.0911 13.0419 38.9772 13.3651C38.8664 13.6882 38.811 14.056 38.811 14.4684C38.811 14.8808 38.8664 15.2486 38.9772 15.5717C39.0911 15.8949 39.2588 16.1503 39.4804 16.3381C39.705 16.5227 39.982 16.6151 40.3113 16.6151ZM45.0709 18V10.9091H46.9775V12.1463H47.0514C47.1807 11.7062 47.3976 11.3738 47.7023 11.1491C48.007 10.9214 48.3579 10.8075 48.7549 10.8075C48.8534 10.8075 48.9595 10.8137 49.0734 10.826C49.1873 10.8383 49.2873 10.8552 49.3735 10.8768V12.6218C49.2812 12.5941 49.1534 12.5695 48.9903 12.5479C48.8272 12.5264 48.6779 12.5156 48.5425 12.5156C48.2532 12.5156 47.9947 12.5787 47.767 12.7049C47.5423 12.828 47.3638 13.0004 47.2314 13.2219C47.1022 13.4435 47.0376 13.699 47.0376 13.9883V18H45.0709ZM50.3903 18V10.9091H52.2646V12.1602H52.3477C52.4954 11.7447 52.7416 11.4169 53.0863 11.1768C53.431 10.9368 53.8434 10.8168 54.3235 10.8168C54.8098 10.8168 55.2237 10.9383 55.5653 11.1815C55.907 11.4215 56.1347 11.7478 56.2486 12.1602H56.3224C56.4671 11.7539 56.7287 11.4292 57.1072 11.1861C57.4889 10.9399 57.9397 10.8168 58.4599 10.8168C59.1216 10.8168 59.6586 11.0276 60.071 11.4492C60.4865 11.8678 60.6942 12.4618 60.6942 13.2312V18H58.7322V13.619C58.7322 13.225 58.6276 12.9296 58.4183 12.7326C58.209 12.5356 57.9474 12.4371 57.6335 12.4371C57.2765 12.4371 56.998 12.551 56.7979 12.7788C56.5979 13.0034 56.4979 13.3004 56.4979 13.6697V18H54.5913V13.5774C54.5913 13.2296 54.4912 12.9527 54.2912 12.7464C54.0942 12.5402 53.8342 12.4371 53.511 12.4371C53.2925 12.4371 53.0955 12.4925 52.9201 12.6033C52.7478 12.7111 52.6108 12.8634 52.5092 13.0604C52.4077 13.2543 52.3569 13.482 52.3569 13.7436V18H50.3903ZM68.1475 12.9311L66.3471 13.0419C66.3163 12.888 66.2502 12.7495 66.1486 12.6264C66.0471 12.5002 65.9132 12.4002 65.747 12.3263C65.5839 12.2494 65.3884 12.2109 65.1607 12.2109C64.856 12.2109 64.599 12.2756 64.3897 12.4048C64.1805 12.531 64.0758 12.7003 64.0758 12.9126C64.0758 13.0819 64.1435 13.225 64.2789 13.342C64.4144 13.4589 64.6467 13.5528 64.976 13.6236L66.2594 13.8821C66.9488 14.0237 67.4628 14.2514 67.8013 14.5653C68.1399 14.8793 68.3091 15.2917 68.3091 15.8026C68.3091 16.2673 68.1722 16.6751 67.8983 17.0259C67.6274 17.3768 67.255 17.6507 66.7811 17.8477C66.3102 18.0415 65.767 18.1385 65.1515 18.1385C64.2128 18.1385 63.4649 17.9431 62.9078 17.5522C62.3539 17.1583 62.0292 16.6228 61.9338 15.9457L63.8681 15.8441C63.9266 16.1303 64.0681 16.3488 64.2928 16.4996C64.5175 16.6474 64.8052 16.7212 65.1561 16.7212C65.5008 16.7212 65.7778 16.6551 65.987 16.5227C66.1994 16.3873 66.3071 16.2134 66.3102 16.0011C66.3071 15.8226 66.2317 15.6764 66.084 15.5625C65.9363 15.4455 65.7085 15.3563 65.4007 15.2947L64.1728 15.0501C63.4803 14.9116 62.9648 14.6715 62.6262 14.3299C62.2908 13.9883 62.123 13.5528 62.123 13.0234C62.123 12.5679 62.2462 12.1755 62.4924 11.8462C62.7417 11.5169 63.091 11.263 63.5403 11.0845C63.9927 10.906 64.5221 10.8168 65.1284 10.8168C66.024 10.8168 66.7288 11.006 67.2427 11.3846C67.7598 11.7631 68.0614 12.2786 68.1475 12.9311Z" fill="#FFFCFF"/>
<path d="M74 0H95C100.657 0 103.485 0 105.243 1.75736C107 3.51472 107 6.34315 107 12V14C107 19.6569 107 22.4853 105.243 24.2426C103.485 26 100.657 26 95 26H74V0Z" fill="#533DA3"/>
<path d="M79.7848 18V10.9091H81.7514V18H79.7848ZM80.7727 9.99503C80.4804 9.99503 80.2295 9.89808 80.0202 9.70419C79.814 9.50722 79.7109 9.27178 79.7109 8.99787C79.7109 8.72704 79.814 8.49467 80.0202 8.30078C80.2295 8.10381 80.4804 8.00533 80.7727 8.00533C81.0651 8.00533 81.3144 8.10381 81.5206 8.30078C81.7299 8.49467 81.8345 8.72704 81.8345 8.99787C81.8345 9.27178 81.7299 9.50722 81.5206 9.70419C81.3144 9.89808 81.0651 9.99503 80.7727 9.99503ZM92.0519 13.2727C92.0519 14.3037 91.8565 15.1809 91.4656 15.9041C91.0779 16.6274 90.5485 17.1798 89.8776 17.5614C89.2097 17.94 88.4588 18.1293 87.6247 18.1293C86.7845 18.1293 86.0305 17.9384 85.3627 17.5568C84.6948 17.1752 84.167 16.6228 83.7792 15.8995C83.3914 15.1763 83.1975 14.3007 83.1975 13.2727C83.1975 12.2417 83.3914 11.3646 83.7792 10.6413C84.167 9.91809 84.6948 9.36719 85.3627 8.98864C86.0305 8.60701 86.7845 8.41619 87.6247 8.41619C88.4588 8.41619 89.2097 8.60701 89.8776 8.98864C90.5485 9.36719 91.0779 9.91809 91.4656 10.6413C91.8565 11.3646 92.0519 12.2417 92.0519 13.2727ZM90.0253 13.2727C90.0253 12.6049 89.9253 12.0417 89.7252 11.5831C89.5283 11.1245 89.2497 10.7768 88.8896 10.5398C88.5296 10.3028 88.1079 10.1843 87.6247 10.1843C87.1415 10.1843 86.7199 10.3028 86.3598 10.5398C85.9997 10.7768 85.7197 11.1245 85.5196 11.5831C85.3227 12.0417 85.2242 12.6049 85.2242 13.2727C85.2242 13.9406 85.3227 14.5038 85.5196 14.9624C85.7197 15.4209 85.9997 15.7687 86.3598 16.0057C86.7199 16.2427 87.1415 16.3612 87.6247 16.3612C88.1079 16.3612 88.5296 16.2427 88.8896 16.0057C89.2497 15.7687 89.5283 15.4209 89.7252 14.9624C89.9253 14.5038 90.0253 13.9406 90.0253 13.2727ZM98.6616 11.2646C98.6246 10.8922 98.4661 10.6029 98.1861 10.3967C97.906 10.1905 97.5259 10.0874 97.0458 10.0874C96.7196 10.0874 96.4441 10.1335 96.2195 10.2259C95.9948 10.3151 95.8224 10.4397 95.7024 10.5998C95.5855 10.7598 95.527 10.9414 95.527 11.1445C95.5208 11.3138 95.5562 11.4615 95.6332 11.5877C95.7132 11.7139 95.8224 11.8232 95.9609 11.9155C96.0994 12.0047 96.2595 12.0832 96.4411 12.1509C96.6226 12.2156 96.8165 12.271 97.0227 12.3171L97.8722 12.5202C98.2846 12.6126 98.6631 12.7357 99.0078 12.8896C99.3525 13.0434 99.651 13.2327 99.9034 13.4574C100.156 13.6821 100.351 13.9467 100.49 14.2514C100.631 14.5561 100.704 14.9054 100.707 15.2994C100.704 15.878 100.556 16.3796 100.263 16.8043C99.9742 17.226 99.5556 17.5537 99.0078 17.7876C98.4631 18.0185 97.806 18.1339 97.0366 18.1339C96.2733 18.1339 95.6085 18.0169 95.0423 17.783C94.479 17.5491 94.0389 17.2029 93.7219 16.7443C93.408 16.2827 93.2434 15.7118 93.228 15.0316H95.1623C95.1838 15.3486 95.2746 15.6133 95.4347 15.8256C95.5978 16.0349 95.8147 16.1934 96.0856 16.3011C96.3595 16.4058 96.6688 16.4581 97.0135 16.4581C97.352 16.4581 97.646 16.4089 97.8952 16.3104C98.1476 16.2119 98.343 16.0749 98.4815 15.8995C98.62 15.7241 98.6893 15.5225 98.6893 15.2947C98.6893 15.0824 98.6262 14.9039 98.5 14.7592C98.3769 14.6146 98.1953 14.4915 97.9553 14.3899C97.7183 14.2884 97.4274 14.196 97.0827 14.1129L96.0533 13.8544C95.2562 13.6605 94.6268 13.3574 94.1651 12.945C93.7035 12.5326 93.4742 11.977 93.4773 11.2784C93.4742 10.706 93.6265 10.2058 93.9343 9.77805C94.2451 9.35026 94.6714 9.01634 95.2131 8.77628C95.7547 8.53622 96.3703 8.41619 97.0597 8.41619C97.7614 8.41619 98.3738 8.53622 98.897 8.77628C99.4233 9.01634 99.8326 9.35026 100.125 9.77805C100.417 10.2058 100.568 10.7013 100.577 11.2646H98.6616Z" fill="#FFFCFF"/>
</svg>
