<svg width="200" height="26" viewBox="0 0 200 26" fill="none" xmlns="http://www.w3.org/2000/svg">
<path d="M2 12C2 6.34315 2 3.51472 3.75736 1.75736C5.51472 0 8.34315 0 14 0H61V26H14C8.34315 26 5.51472 26 3.75736 24.2426C2 22.4853 2 19.6569 2 14V12Z" fill="#3F3F3F"/>
<path d="M9.52983 8.54545L11.815 15.7287H11.9027L14.1925 8.54545H16.4084L13.1491 18H10.5732L7.3093 8.54545H9.52983ZM19.9411 18.1385C19.2117 18.1385 18.5839 17.9908 18.0576 17.6953C17.5344 17.3968 17.1312 16.9751 16.8481 16.4304C16.565 15.8826 16.4234 15.2347 16.4234 14.4869C16.4234 13.7575 16.565 13.1173 16.8481 12.5664C17.1312 12.0155 17.5298 11.5862 18.0438 11.2784C18.5608 10.9706 19.1671 10.8168 19.8627 10.8168C20.3305 10.8168 20.766 10.8922 21.1691 11.043C21.5754 11.1907 21.9293 11.4138 22.2309 11.7124C22.5356 12.0109 22.7726 12.3864 22.9419 12.8388C23.1111 13.2881 23.1958 13.8144 23.1958 14.4176V14.9577H17.2082V13.739H21.3445C21.3445 13.4558 21.283 13.205 21.1599 12.9865C21.0368 12.768 20.866 12.5972 20.6475 12.4741C20.432 12.3479 20.1812 12.2848 19.895 12.2848C19.5964 12.2848 19.3318 12.354 19.1009 12.4925C18.8732 12.628 18.6947 12.8111 18.5654 13.0419C18.4362 13.2696 18.37 13.5236 18.3669 13.8036V14.9624C18.3669 15.3132 18.4316 15.6164 18.5608 15.8718C18.6932 16.1272 18.8794 16.3242 19.1194 16.4627C19.3595 16.6012 19.6441 16.6705 19.9735 16.6705C20.192 16.6705 20.392 16.6397 20.5736 16.5781C20.7552 16.5166 20.9106 16.4242 21.0399 16.3011C21.1691 16.178 21.2676 16.0272 21.3353 15.8487L23.1542 15.9688C23.0619 16.4058 22.8726 16.7874 22.5864 17.1136C22.3032 17.4368 21.937 17.6892 21.4877 17.8707C21.0414 18.0492 20.5259 18.1385 19.9411 18.1385ZM24.4791 18V10.9091H26.3857V12.1463H26.4596C26.5889 11.7062 26.8058 11.3738 27.1105 11.1491C27.4152 10.9214 27.7661 10.8075 28.1631 10.8075C28.2616 10.8075 28.3677 10.8137 28.4816 10.826C28.5955 10.8383 28.6955 10.8552 28.7817 10.8768V12.6218C28.6894 12.5941 28.5616 12.5695 28.3985 12.5479C28.2354 12.5264 28.0861 12.5156 27.9507 12.5156C27.6614 12.5156 27.4029 12.5787 27.1752 12.7049C26.9505 12.828 26.772 13.0004 26.6396 13.2219C26.5104 13.4435 26.4458 13.699 26.4458 13.9883V18H24.4791ZM35.6983 12.9311L33.8979 13.0419C33.8671 12.888 33.801 12.7495 33.6994 12.6264C33.5978 12.5002 33.464 12.4002 33.2978 12.3263C33.1346 12.2494 32.9392 12.2109 32.7115 12.2109C32.4068 12.2109 32.1498 12.2756 31.9405 12.4048C31.7312 12.531 31.6266 12.7003 31.6266 12.9126C31.6266 13.0819 31.6943 13.225 31.8297 13.342C31.9651 13.4589 32.1975 13.5528 32.5268 13.6236L33.8102 13.8821C34.4996 14.0237 35.0136 14.2514 35.3521 14.5653C35.6906 14.8793 35.8599 15.2917 35.8599 15.8026C35.8599 16.2673 35.723 16.6751 35.449 17.0259C35.1782 17.3768 34.8058 17.6507 34.3319 17.8477C33.861 18.0415 33.3178 18.1385 32.7022 18.1385C31.7636 18.1385 31.0157 17.9431 30.4586 17.5522C29.9047 17.1583 29.58 16.6228 29.4846 15.9457L31.4189 15.8441C31.4773 16.1303 31.6189 16.3488 31.8436 16.4996C32.0682 16.6474 32.356 16.7212 32.7069 16.7212C33.0516 16.7212 33.3285 16.6551 33.5378 16.5227C33.7502 16.3873 33.8579 16.2134 33.861 16.0011C33.8579 15.8226 33.7825 15.6764 33.6348 15.5625C33.487 15.4455 33.2593 15.3563 32.9515 15.2947L31.7235 15.0501C31.0311 14.9116 30.5156 14.6715 30.177 14.3299C29.8416 13.9883 29.6738 13.5528 29.6738 13.0234C29.6738 12.5679 29.7969 12.1755 30.0431 11.8462C30.2924 11.5169 30.6417 11.263 31.0911 11.0845C31.5435 10.906 32.0729 10.8168 32.6792 10.8168C33.5748 10.8168 34.2795 11.006 34.7935 11.3846C35.3105 11.7631 35.6122 12.2786 35.6983 12.9311ZM37.0983 18V10.9091H39.0649V18H37.0983ZM38.0862 9.99503C37.7938 9.99503 37.543 9.89808 37.3337 9.70419C37.1275 9.50722 37.0244 9.27178 37.0244 8.99787C37.0244 8.72704 37.1275 8.49467 37.3337 8.30078C37.543 8.10381 37.7938 8.00533 38.0862 8.00533C38.3786 8.00533 38.6279 8.10381 38.8341 8.30078C39.0434 8.49467 39.148 8.72704 39.148 8.99787C39.148 9.27178 39.0434 9.50722 38.8341 9.70419C38.6279 9.89808 38.3786 9.99503 38.0862 9.99503ZM43.8441 18.1385C43.127 18.1385 42.5069 17.9862 41.9837 17.6815C41.4635 17.3737 41.0619 16.9459 40.7788 16.3981C40.4956 15.8472 40.354 15.2086 40.354 14.4822C40.354 13.7498 40.4956 13.1096 40.7788 12.5618C41.0619 12.0109 41.4635 11.5831 41.9837 11.2784C42.5069 10.9706 43.127 10.8168 43.8441 10.8168C44.5612 10.8168 45.1798 10.9706 45.6999 11.2784C46.2231 11.5831 46.6263 12.0109 46.9094 12.5618C47.1926 13.1096 47.3342 13.7498 47.3342 14.4822C47.3342 15.2086 47.1926 15.8472 46.9094 16.3981C46.6263 16.9459 46.2231 17.3737 45.6999 17.6815C45.1798 17.9862 44.5612 18.1385 43.8441 18.1385ZM43.8533 16.6151C44.1796 16.6151 44.4519 16.5227 44.6705 16.3381C44.889 16.1503 45.0536 15.8949 45.1644 15.5717C45.2783 15.2486 45.3352 14.8808 45.3352 14.4684C45.3352 14.056 45.2783 13.6882 45.1644 13.3651C45.0536 13.0419 44.889 12.7865 44.6705 12.5987C44.4519 12.411 44.1796 12.3171 43.8533 12.3171C43.524 12.3171 43.247 12.411 43.0224 12.5987C42.8008 12.7865 42.633 13.0419 42.5192 13.3651C42.4084 13.6882 42.353 14.056 42.353 14.4684C42.353 14.8808 42.4084 15.2486 42.5192 15.5717C42.633 15.8949 42.8008 16.1503 43.0224 16.3381C43.247 16.5227 43.524 16.6151 43.8533 16.6151ZM50.5795 13.9006V18H48.6129V10.9091H50.4872V12.1602H50.5703C50.7273 11.7478 50.9904 11.4215 51.3597 11.1815C51.729 10.9383 52.1768 10.8168 52.7031 10.8168C53.1955 10.8168 53.6249 10.9245 53.9911 11.1399C54.3574 11.3554 54.642 11.6631 54.8452 12.0632C55.0483 12.4602 55.1499 12.9342 55.1499 13.4851V18H53.1832V13.8359C53.1863 13.402 53.0755 13.0634 52.8509 12.8203C52.6262 12.5741 52.3169 12.451 51.9229 12.451C51.6583 12.451 51.4244 12.5079 51.2212 12.6218C51.0212 12.7357 50.8642 12.9019 50.7504 13.1204C50.6396 13.3358 50.5826 13.5959 50.5795 13.9006Z" fill="#FFFCFF"/>
<rect width="43" height="26" transform="translate(61)" fill="#533DA3"/>
<path d="M70.4734 18.2077C69.6793 18.2047 68.9961 18.0092 68.4237 17.6214C67.8543 17.2337 67.4157 16.672 67.108 15.9364C66.8033 15.2009 66.6525 14.3161 66.6555 13.282C66.6555 12.2509 66.8079 11.3723 67.1126 10.646C67.4203 9.91963 67.8589 9.36719 68.4283 8.98864C69.0007 8.60701 69.6824 8.41619 70.4734 8.41619C71.2643 8.41619 71.9445 8.60701 72.5138 8.98864C73.0863 9.37026 73.5264 9.92424 73.8342 10.6506C74.1419 11.3738 74.2943 12.2509 74.2912 13.282C74.2912 14.3191 74.1373 15.2055 73.8295 15.9411C73.5249 16.6766 73.0878 17.2383 72.5185 17.6261C71.9491 18.0138 71.2674 18.2077 70.4734 18.2077ZM70.4734 16.5504C71.015 16.5504 71.4474 16.2781 71.7706 15.7333C72.0938 15.1886 72.2538 14.3714 72.2507 13.282C72.2507 12.5649 72.1768 11.9678 72.0291 11.4908C71.8845 11.0137 71.6783 10.6552 71.4105 10.4151C71.1458 10.1751 70.8335 10.055 70.4734 10.055C69.9348 10.055 69.5039 10.3243 69.1808 10.8629C68.8576 11.4015 68.6945 12.2079 68.6914 13.282C68.6914 14.0083 68.7637 14.6146 68.9084 15.1009C69.0561 15.584 69.2638 15.9472 69.5316 16.1903C69.7994 16.4304 70.1133 16.5504 70.4734 16.5504ZM76.5036 18.12C76.199 18.12 75.9374 18.0123 75.7188 17.7969C75.5034 17.5784 75.3957 17.3168 75.3957 17.0121C75.3957 16.7105 75.5034 16.4519 75.7188 16.2365C75.9374 16.0211 76.199 15.9134 76.5036 15.9134C76.7991 15.9134 77.0576 16.0211 77.2792 16.2365C77.5008 16.4519 77.6116 16.7105 77.6116 17.0121C77.6116 17.2152 77.5593 17.4014 77.4546 17.5707C77.3531 17.7369 77.2192 17.8707 77.053 17.9723C76.8868 18.0708 76.7037 18.12 76.5036 18.12ZM82.3977 18.1293C81.7083 18.1293 81.0943 18.0108 80.5558 17.7738C80.0202 17.5337 79.5971 17.2044 79.2862 16.7859C78.9785 16.3642 78.82 15.878 78.8107 15.3271H80.8235C80.8358 15.5579 80.9112 15.761 81.0497 15.9364C81.1913 16.1088 81.379 16.2427 81.6129 16.3381C81.8468 16.4335 82.11 16.4812 82.4023 16.4812C82.707 16.4812 82.9763 16.4273 83.2102 16.3196C83.4441 16.2119 83.6272 16.0626 83.7596 15.8718C83.8919 15.681 83.9581 15.4609 83.9581 15.2116C83.9581 14.9593 83.8873 14.7362 83.7457 14.5423C83.6072 14.3453 83.4072 14.1914 83.1456 14.0806C82.8871 13.9698 82.5793 13.9144 82.2223 13.9144H81.3406V12.4464H82.2223C82.5239 12.4464 82.7901 12.3941 83.021 12.2894C83.2549 12.1848 83.4364 12.0401 83.5657 11.8555C83.695 11.6677 83.7596 11.4492 83.7596 11.1999C83.7596 10.9629 83.7027 10.7552 83.5888 10.5767C83.478 10.3951 83.321 10.2536 83.1179 10.152C82.9179 10.0504 82.6839 9.99964 82.4162 9.99964C82.1454 9.99964 81.8976 10.0489 81.6729 10.1474C81.4483 10.2428 81.2682 10.3797 81.1328 10.5582C80.9974 10.7367 80.9251 10.946 80.9158 11.1861H79C79.0092 10.6413 79.1647 10.1612 79.4663 9.74574C79.7679 9.33026 80.1741 9.00556 80.685 8.77166C81.199 8.53468 81.7791 8.41619 82.4254 8.41619C83.0779 8.41619 83.6488 8.53468 84.1381 8.77166C84.6275 9.00864 85.0076 9.32872 85.2784 9.73189C85.5523 10.132 85.6877 10.5813 85.6847 11.0799C85.6877 11.6093 85.5231 12.0509 85.1907 12.4048C84.8614 12.7588 84.4321 12.9834 83.9027 13.0788V13.1527C84.5982 13.242 85.1276 13.4835 85.4908 13.8775C85.857 14.2683 86.0386 14.7577 86.0355 15.3455C86.0386 15.8841 85.8832 16.3627 85.5692 16.7812C85.2584 17.1998 84.8291 17.5291 84.2812 17.7692C83.7334 18.0092 83.1056 18.1293 82.3977 18.1293ZM88.3738 18.12C88.0691 18.12 87.8075 18.0123 87.589 17.7969C87.3735 17.5784 87.2658 17.3168 87.2658 17.0121C87.2658 16.7105 87.3735 16.4519 87.589 16.2365C87.8075 16.0211 88.0691 15.9134 88.3738 15.9134C88.6692 15.9134 88.9277 16.0211 89.1493 16.2365C89.3709 16.4519 89.4817 16.7105 89.4817 17.0121C89.4817 17.2152 89.4294 17.4014 89.3248 17.5707C89.2232 17.7369 89.0893 17.8707 88.9231 17.9723C88.7569 18.0708 88.5738 18.12 88.3738 18.12ZM94.404 18.2077C93.61 18.2047 92.9268 18.0092 92.3543 17.6214C91.7849 17.2337 91.3464 16.672 91.0386 15.9364C90.7339 15.2009 90.5831 14.3161 90.5862 13.282C90.5862 12.2509 90.7385 11.3723 91.0432 10.646C91.351 9.91963 91.7896 9.36719 92.3589 8.98864C92.9314 8.60701 93.6131 8.41619 94.404 8.41619C95.195 8.41619 95.8751 8.60701 96.4445 8.98864C97.017 9.37026 97.4571 9.92424 97.7648 10.6506C98.0726 11.3738 98.2249 12.2509 98.2219 13.282C98.2219 14.3191 98.068 15.2055 97.7602 15.9411C97.4555 16.6766 97.0185 17.2383 96.4491 17.6261C95.8798 18.0138 95.1981 18.2077 94.404 18.2077ZM94.404 16.5504C94.9457 16.5504 95.3781 16.2781 95.7013 15.7333C96.0244 15.1886 96.1845 14.3714 96.1814 13.282C96.1814 12.5649 96.1075 11.9678 95.9598 11.4908C95.8151 11.0137 95.6089 10.6552 95.3412 10.4151C95.0765 10.1751 94.7641 10.055 94.404 10.055C93.8654 10.055 93.4346 10.3243 93.1114 10.8629C92.7883 11.4015 92.6251 12.2079 92.6221 13.282C92.6221 14.0083 92.6944 14.6146 92.839 15.1009C92.9868 15.584 93.1945 15.9472 93.4623 16.1903C93.73 16.4304 94.0439 16.5504 94.404 16.5504Z" fill="#FFFCFF"/>
<path d="M104 0H186C191.657 0 194.485 0 196.243 1.75736C198 3.51472 198 6.34315 198 12V14C198 19.6569 198 22.4853 196.243 24.2426C194.485 26 191.657 26 186 26H104V0Z" fill="#6C4FD4"/>
<path d="M111.451 18H109.309L112.573 8.54545H115.149L118.408 18H116.266L113.898 10.706H113.824L111.451 18ZM111.317 14.2837H116.377V15.8441H111.317V14.2837ZM124.057 14.9808V10.9091H126.023V18H124.135V16.712H124.061C123.901 17.1275 123.635 17.4614 123.263 17.7138C122.893 17.9661 122.442 18.0923 121.91 18.0923C121.436 18.0923 121.019 17.9846 120.659 17.7692C120.299 17.5537 120.017 17.2475 119.814 16.8505C119.614 16.4535 119.512 15.978 119.509 15.424V10.9091H121.476V15.0732C121.479 15.4917 121.591 15.8226 121.813 16.0657C122.035 16.3088 122.332 16.4304 122.704 16.4304C122.941 16.4304 123.163 16.3765 123.369 16.2688C123.575 16.158 123.741 15.9949 123.867 15.7795C123.997 15.564 124.06 15.2978 124.057 14.9808ZM130.791 20.8068C130.154 20.8068 129.608 20.7191 129.152 20.5437C128.7 20.3713 128.34 20.1359 128.072 19.8374C127.804 19.5388 127.63 19.2034 127.55 18.831L129.369 18.5863C129.424 18.7279 129.512 18.8602 129.632 18.9833C129.752 19.1064 129.911 19.2049 130.108 19.2788C130.308 19.3557 130.551 19.3942 130.837 19.3942C131.265 19.3942 131.617 19.2895 131.894 19.0803C132.174 18.8741 132.314 18.5278 132.314 18.0415V16.7443H132.231C132.145 16.9413 132.016 17.1275 131.843 17.3029C131.671 17.4783 131.45 17.6214 131.179 17.7322C130.908 17.843 130.585 17.8984 130.209 17.8984C129.677 17.8984 129.192 17.7753 128.755 17.5291C128.321 17.2798 127.975 16.8997 127.716 16.3888C127.461 15.8749 127.333 15.2255 127.333 14.4407C127.333 13.6374 127.464 12.9665 127.726 12.4279C127.987 11.8893 128.335 11.4862 128.769 11.2184C129.206 10.9506 129.685 10.8168 130.205 10.8168C130.602 10.8168 130.934 10.8845 131.202 11.0199C131.47 11.1522 131.685 11.3184 131.848 11.5185C132.014 11.7154 132.142 11.9093 132.231 12.1001H132.305V10.9091H134.258V18.0692C134.258 18.6725 134.11 19.1772 133.815 19.5835C133.519 19.9897 133.11 20.2944 132.587 20.4975C132.067 20.7037 131.468 20.8068 130.791 20.8068ZM130.832 16.4212C131.149 16.4212 131.417 16.3427 131.636 16.1857C131.857 16.0257 132.027 15.7979 132.144 15.5025C132.264 15.204 132.324 14.8469 132.324 14.4315C132.324 14.016 132.265 13.6559 132.148 13.3512C132.031 13.0434 131.862 12.8049 131.64 12.6357C131.419 12.4664 131.149 12.3817 130.832 12.3817C130.509 12.3817 130.237 12.4695 130.015 12.6449C129.794 12.8172 129.626 13.0573 129.512 13.3651C129.398 13.6728 129.341 14.0283 129.341 14.4315C129.341 14.8408 129.398 15.1947 129.512 15.4933C129.629 15.7887 129.797 16.018 130.015 16.1811C130.237 16.3411 130.509 16.4212 130.832 16.4212ZM140.37 14.9808V10.9091H142.337V18H140.449V16.712H140.375C140.215 17.1275 139.948 17.4614 139.576 17.7138C139.207 17.9661 138.756 18.0923 138.223 18.0923C137.749 18.0923 137.332 17.9846 136.972 17.7692C136.612 17.5537 136.331 17.2475 136.128 16.8505C135.928 16.4535 135.826 15.978 135.823 15.424V10.9091H137.79V15.0732C137.793 15.4917 137.905 15.8226 138.127 16.0657C138.348 16.3088 138.645 16.4304 139.017 16.4304C139.254 16.4304 139.476 16.3765 139.682 16.2688C139.888 16.158 140.055 15.9949 140.181 15.7795C140.31 15.564 140.373 15.2978 140.37 14.9808ZM149.81 12.9311L148.009 13.0419C147.978 12.888 147.912 12.7495 147.811 12.6264C147.709 12.5002 147.575 12.4002 147.409 12.3263C147.246 12.2494 147.051 12.2109 146.823 12.2109C146.518 12.2109 146.261 12.2756 146.052 12.4048C145.843 12.531 145.738 12.7003 145.738 12.9126C145.738 13.0819 145.806 13.225 145.941 13.342C146.076 13.4589 146.309 13.5528 146.638 13.6236L147.922 13.8821C148.611 14.0237 149.125 14.2514 149.463 14.5653C149.802 14.8793 149.971 15.2917 149.971 15.8026C149.971 16.2673 149.834 16.6751 149.56 17.0259C149.29 17.3768 148.917 17.6507 148.443 17.8477C147.972 18.0415 147.429 18.1385 146.814 18.1385C145.875 18.1385 145.127 17.9431 144.57 17.5522C144.016 17.1583 143.691 16.6228 143.596 15.9457L145.53 15.8441C145.589 16.1303 145.73 16.3488 145.955 16.4996C146.18 16.6474 146.467 16.7212 146.818 16.7212C147.163 16.7212 147.44 16.6551 147.649 16.5227C147.862 16.3873 147.969 16.2134 147.972 16.0011C147.969 15.8226 147.894 15.6764 147.746 15.5625C147.598 15.4455 147.371 15.3563 147.063 15.2947L145.835 15.0501C145.142 14.9116 144.627 14.6715 144.288 14.3299C143.953 13.9883 143.785 13.5528 143.785 13.0234C143.785 12.5679 143.908 12.1755 144.154 11.8462C144.404 11.5169 144.753 11.263 145.202 11.0845C145.655 10.906 146.184 10.8168 146.79 10.8168C147.686 10.8168 148.391 11.006 148.905 11.3846C149.422 11.7631 149.723 12.2786 149.81 12.9311ZM154.981 10.9091V12.3864H150.711V10.9091H154.981ZM151.68 9.21023H153.647V15.821C153.647 16.0026 153.675 16.1442 153.73 16.2457C153.786 16.3442 153.863 16.4135 153.961 16.4535C154.063 16.4935 154.18 16.5135 154.312 16.5135C154.404 16.5135 154.497 16.5058 154.589 16.4904C154.681 16.4719 154.752 16.4581 154.801 16.4489L155.111 17.9123C155.012 17.9431 154.874 17.9785 154.695 18.0185C154.517 18.0616 154.3 18.0877 154.044 18.0969C153.57 18.1154 153.155 18.0523 152.798 17.9077C152.444 17.763 152.168 17.5384 151.971 17.2337C151.774 16.929 151.677 16.5443 151.68 16.0795V9.21023ZM159.253 18V16.5597L162.618 13.4435C162.904 13.1665 163.144 12.9173 163.338 12.6957C163.535 12.4741 163.684 12.2571 163.786 12.0447C163.888 11.8293 163.938 11.5969 163.938 11.3477C163.938 11.0707 163.875 10.8321 163.749 10.6321C163.623 10.429 163.451 10.2736 163.232 10.1658C163.014 10.055 162.766 9.99964 162.489 9.99964C162.2 9.99964 161.947 10.0581 161.732 10.1751C161.516 10.292 161.35 10.4598 161.233 10.6783C161.116 10.8968 161.058 11.1568 161.058 11.4585H159.16C159.16 10.8398 159.3 10.3028 159.58 9.8473C159.86 9.39181 160.253 9.03942 160.758 8.79013C161.262 8.54084 161.844 8.41619 162.503 8.41619C163.18 8.41619 163.769 8.53622 164.271 8.77628C164.776 9.01326 165.168 9.34257 165.448 9.7642C165.728 10.1858 165.868 10.669 165.868 11.2138C165.868 11.5708 165.797 11.9232 165.656 12.271C165.517 12.6187 165.269 13.005 164.912 13.4297C164.555 13.8513 164.052 14.3576 163.403 14.9485L162.023 16.3011V16.3658H165.993V18H159.253ZM171.148 18.2077C170.354 18.2047 169.671 18.0092 169.098 17.6214C168.529 17.2337 168.091 16.672 167.783 15.9364C167.478 15.2009 167.327 14.3161 167.33 13.282C167.33 12.2509 167.483 11.3723 167.787 10.646C168.095 9.91963 168.534 9.36719 169.103 8.98864C169.676 8.60701 170.357 8.41619 171.148 8.41619C171.939 8.41619 172.619 8.60701 173.189 8.98864C173.761 9.37026 174.201 9.92424 174.509 10.6506C174.817 11.3738 174.969 12.2509 174.966 13.282C174.966 14.3191 174.812 15.2055 174.504 15.9411C174.2 16.6766 173.763 17.2383 173.193 17.6261C172.624 18.0138 171.942 18.2077 171.148 18.2077ZM171.148 16.5504C171.69 16.5504 172.122 16.2781 172.445 15.7333C172.769 15.1886 172.929 14.3714 172.926 13.282C172.926 12.5649 172.852 11.9678 172.704 11.4908C172.559 11.0137 172.353 10.6552 172.085 10.4151C171.821 10.1751 171.508 10.055 171.148 10.055C170.61 10.055 170.179 10.3243 169.856 10.8629C169.532 11.4015 169.369 12.2079 169.366 13.282C169.366 14.0083 169.439 14.6146 169.583 15.1009C169.731 15.584 169.939 15.9472 170.206 16.1903C170.474 16.4304 170.788 16.5504 171.148 16.5504ZM176.391 18V16.5597L179.757 13.4435C180.043 13.1665 180.283 12.9173 180.477 12.6957C180.674 12.4741 180.823 12.2571 180.925 12.0447C181.026 11.8293 181.077 11.5969 181.077 11.3477C181.077 11.0707 181.014 10.8321 180.888 10.6321C180.762 10.429 180.589 10.2736 180.371 10.1658C180.152 10.055 179.904 9.99964 179.627 9.99964C179.338 9.99964 179.086 10.0581 178.87 10.1751C178.655 10.292 178.489 10.4598 178.372 10.6783C178.255 10.8968 178.196 11.1568 178.196 11.4585H176.299C176.299 10.8398 176.439 10.3028 176.719 9.8473C176.999 9.39181 177.392 9.03942 177.896 8.79013C178.401 8.54084 178.983 8.41619 179.641 8.41619C180.318 8.41619 180.908 8.53622 181.409 8.77628C181.914 9.01326 182.307 9.34257 182.587 9.7642C182.867 10.1858 183.007 10.669 183.007 11.2138C183.007 11.5708 182.936 11.9232 182.794 12.271C182.656 12.6187 182.408 13.005 182.051 13.4297C181.694 13.8513 181.191 14.3576 180.542 14.9485L179.161 16.3011V16.3658H183.131V18H176.391ZM188.074 18.1293C187.385 18.1293 186.771 18.0108 186.233 17.7738C185.697 17.5337 185.274 17.2044 184.963 16.7859C184.655 16.3642 184.497 15.878 184.487 15.3271H186.5C186.513 15.5579 186.588 15.761 186.726 15.9364C186.868 16.1088 187.056 16.2427 187.29 16.3381C187.524 16.4335 187.787 16.4812 188.079 16.4812C188.384 16.4812 188.653 16.4273 188.887 16.3196C189.121 16.2119 189.304 16.0626 189.436 15.8718C189.569 15.681 189.635 15.4609 189.635 15.2116C189.635 14.9593 189.564 14.7362 189.422 14.5423C189.284 14.3453 189.084 14.1914 188.822 14.0806C188.564 13.9698 188.256 13.9144 187.899 13.9144H187.017V12.4464H187.899C188.201 12.4464 188.467 12.3941 188.698 12.2894C188.932 12.1848 189.113 12.0401 189.242 11.8555C189.372 11.6677 189.436 11.4492 189.436 11.1999C189.436 10.9629 189.379 10.7552 189.266 10.5767C189.155 10.3951 188.998 10.2536 188.795 10.152C188.595 10.0504 188.361 9.99964 188.093 9.99964C187.822 9.99964 187.574 10.0489 187.35 10.1474C187.125 10.2428 186.945 10.3797 186.81 10.5582C186.674 10.7367 186.602 10.946 186.593 11.1861H184.677C184.686 10.6413 184.841 10.1612 185.143 9.74574C185.445 9.33026 185.851 9.00556 186.362 8.77166C186.876 8.53468 187.456 8.41619 188.102 8.41619C188.755 8.41619 189.326 8.53468 189.815 8.77166C190.304 9.00864 190.684 9.32872 190.955 9.73189C191.229 10.132 191.364 10.5813 191.361 11.0799C191.364 11.6093 191.2 12.0509 190.867 12.4048C190.538 12.7588 190.109 12.9834 189.579 13.0788V13.1527C190.275 13.242 190.804 13.4835 191.168 13.8775C191.534 14.2683 191.715 14.7577 191.712 15.3455C191.715 15.8841 191.56 16.3627 191.246 16.7812C190.935 17.1998 190.506 17.5291 189.958 17.7692C189.41 18.0092 188.782 18.1293 188.074 18.1293Z" fill="#FFFCFF"/>
</svg>
