<svg width="198" height="26" viewBox="0 0 198 26" fill="none" xmlns="http://www.w3.org/2000/svg">
<path d="M1 12C1 6.34315 1 3.51472 2.75736 1.75736C4.51472 0 7.34315 0 13 0H60V26H13C7.34315 26 4.51472 26 2.75736 24.2426C1 22.4853 1 19.6569 1 14V12Z" fill="#3F3F3F"/>
<path d="M8.52983 8.54545L10.815 15.7287H10.9027L13.1925 8.54545H15.4084L12.1491 18H9.57315L6.3093 8.54545H8.52983ZM18.9411 18.1385C18.2117 18.1385 17.5839 17.9908 17.0576 17.6953C16.5344 17.3968 16.1312 16.9751 15.8481 16.4304C15.565 15.8826 15.4234 15.2347 15.4234 14.4869C15.4234 13.7575 15.565 13.1173 15.8481 12.5664C16.1312 12.0155 16.5298 11.5862 17.0438 11.2784C17.5608 10.9706 18.1671 10.8168 18.8627 10.8168C19.3305 10.8168 19.766 10.8922 20.1691 11.043C20.5754 11.1907 20.9293 11.4138 21.2309 11.7124C21.5356 12.0109 21.7726 12.3864 21.9419 12.8388C22.1111 13.2881 22.1958 13.8144 22.1958 14.4176V14.9577H16.2082V13.739H20.3445C20.3445 13.4558 20.283 13.205 20.1599 12.9865C20.0368 12.768 19.866 12.5972 19.6475 12.4741C19.432 12.3479 19.1812 12.2848 18.895 12.2848C18.5964 12.2848 18.3318 12.354 18.1009 12.4925C17.8732 12.628 17.6947 12.8111 17.5654 13.0419C17.4362 13.2696 17.37 13.5236 17.3669 13.8036V14.9624C17.3669 15.3132 17.4316 15.6164 17.5608 15.8718C17.6932 16.1272 17.8794 16.3242 18.1194 16.4627C18.3595 16.6012 18.6441 16.6705 18.9735 16.6705C19.192 16.6705 19.392 16.6397 19.5736 16.5781C19.7552 16.5166 19.9106 16.4242 20.0399 16.3011C20.1691 16.178 20.2676 16.0272 20.3353 15.8487L22.1542 15.9688C22.0619 16.4058 21.8726 16.7874 21.5864 17.1136C21.3032 17.4368 20.937 17.6892 20.4877 17.8707C20.0414 18.0492 19.5259 18.1385 18.9411 18.1385ZM23.4791 18V10.9091H25.3857V12.1463H25.4596C25.5889 11.7062 25.8058 11.3738 26.1105 11.1491C26.4152 10.9214 26.7661 10.8075 27.1631 10.8075C27.2616 10.8075 27.3677 10.8137 27.4816 10.826C27.5955 10.8383 27.6955 10.8552 27.7817 10.8768V12.6218C27.6894 12.5941 27.5616 12.5695 27.3985 12.5479C27.2354 12.5264 27.0861 12.5156 26.9507 12.5156C26.6614 12.5156 26.4029 12.5787 26.1752 12.7049C25.9505 12.828 25.772 13.0004 25.6396 13.2219C25.5104 13.4435 25.4458 13.699 25.4458 13.9883V18H23.4791ZM34.6983 12.9311L32.8979 13.0419C32.8671 12.888 32.801 12.7495 32.6994 12.6264C32.5978 12.5002 32.464 12.4002 32.2978 12.3263C32.1346 12.2494 31.9392 12.2109 31.7115 12.2109C31.4068 12.2109 31.1498 12.2756 30.9405 12.4048C30.7312 12.531 30.6266 12.7003 30.6266 12.9126C30.6266 13.0819 30.6943 13.225 30.8297 13.342C30.9651 13.4589 31.1975 13.5528 31.5268 13.6236L32.8102 13.8821C33.4996 14.0237 34.0136 14.2514 34.3521 14.5653C34.6906 14.8793 34.8599 15.2917 34.8599 15.8026C34.8599 16.2673 34.723 16.6751 34.449 17.0259C34.1782 17.3768 33.8058 17.6507 33.3319 17.8477C32.861 18.0415 32.3178 18.1385 31.7022 18.1385C30.7636 18.1385 30.0157 17.9431 29.4586 17.5522C28.9047 17.1583 28.58 16.6228 28.4846 15.9457L30.4189 15.8441C30.4773 16.1303 30.6189 16.3488 30.8436 16.4996C31.0682 16.6474 31.356 16.7212 31.7069 16.7212C32.0516 16.7212 32.3285 16.6551 32.5378 16.5227C32.7502 16.3873 32.8579 16.2134 32.861 16.0011C32.8579 15.8226 32.7825 15.6764 32.6348 15.5625C32.487 15.4455 32.2593 15.3563 31.9515 15.2947L30.7235 15.0501C30.0311 14.9116 29.5156 14.6715 29.177 14.3299C28.8416 13.9883 28.6738 13.5528 28.6738 13.0234C28.6738 12.5679 28.7969 12.1755 29.0431 11.8462C29.2924 11.5169 29.6417 11.263 30.0911 11.0845C30.5435 10.906 31.0729 10.8168 31.6792 10.8168C32.5748 10.8168 33.2795 11.006 33.7935 11.3846C34.3105 11.7631 34.6122 12.2786 34.6983 12.9311ZM36.0983 18V10.9091H38.0649V18H36.0983ZM37.0862 9.99503C36.7938 9.99503 36.543 9.89808 36.3337 9.70419C36.1275 9.50722 36.0244 9.27178 36.0244 8.99787C36.0244 8.72704 36.1275 8.49467 36.3337 8.30078C36.543 8.10381 36.7938 8.00533 37.0862 8.00533C37.3786 8.00533 37.6279 8.10381 37.8341 8.30078C38.0434 8.49467 38.148 8.72704 38.148 8.99787C38.148 9.27178 38.0434 9.50722 37.8341 9.70419C37.6279 9.89808 37.3786 9.99503 37.0862 9.99503ZM42.8441 18.1385C42.127 18.1385 41.5069 17.9862 40.9837 17.6815C40.4635 17.3737 40.0619 16.9459 39.7788 16.3981C39.4956 15.8472 39.354 15.2086 39.354 14.4822C39.354 13.7498 39.4956 13.1096 39.7788 12.5618C40.0619 12.0109 40.4635 11.5831 40.9837 11.2784C41.5069 10.9706 42.127 10.8168 42.8441 10.8168C43.5612 10.8168 44.1798 10.9706 44.6999 11.2784C45.2231 11.5831 45.6263 12.0109 45.9094 12.5618C46.1926 13.1096 46.3342 13.7498 46.3342 14.4822C46.3342 15.2086 46.1926 15.8472 45.9094 16.3981C45.6263 16.9459 45.2231 17.3737 44.6999 17.6815C44.1798 17.9862 43.5612 18.1385 42.8441 18.1385ZM42.8533 16.6151C43.1796 16.6151 43.4519 16.5227 43.6705 16.3381C43.889 16.1503 44.0536 15.8949 44.1644 15.5717C44.2783 15.2486 44.3352 14.8808 44.3352 14.4684C44.3352 14.056 44.2783 13.6882 44.1644 13.3651C44.0536 13.0419 43.889 12.7865 43.6705 12.5987C43.4519 12.411 43.1796 12.3171 42.8533 12.3171C42.524 12.3171 42.247 12.411 42.0224 12.5987C41.8008 12.7865 41.633 13.0419 41.5192 13.3651C41.4084 13.6882 41.353 14.056 41.353 14.4684C41.353 14.8808 41.4084 15.2486 41.5192 15.5717C41.633 15.8949 41.8008 16.1503 42.0224 16.3381C42.247 16.5227 42.524 16.6151 42.8533 16.6151ZM49.5795 13.9006V18H47.6129V10.9091H49.4872V12.1602H49.5703C49.7273 11.7478 49.9904 11.4215 50.3597 11.1815C50.729 10.9383 51.1768 10.8168 51.7031 10.8168C52.1955 10.8168 52.6249 10.9245 52.9911 11.1399C53.3574 11.3554 53.642 11.6631 53.8452 12.0632C54.0483 12.4602 54.1499 12.9342 54.1499 13.4851V18H52.1832V13.8359C52.1863 13.402 52.0755 13.0634 51.8509 12.8203C51.6262 12.5741 51.3169 12.451 50.9229 12.451C50.6583 12.451 50.4244 12.5079 50.2212 12.6218C50.0212 12.7357 49.8642 12.9019 49.7504 13.1204C49.6396 13.3358 49.5826 13.5959 49.5795 13.9006Z" fill="#FFFCFF"/>
<rect width="43" height="26" transform="translate(60)" fill="#533DA3"/>
<path d="M69.4734 18.2077C68.6793 18.2047 67.9961 18.0092 67.4237 17.6214C66.8543 17.2337 66.4157 16.672 66.108 15.9364C65.8033 15.2009 65.6525 14.3161 65.6555 13.282C65.6555 12.2509 65.8079 11.3723 66.1126 10.646C66.4203 9.91963 66.8589 9.36719 67.4283 8.98864C68.0007 8.60701 68.6824 8.41619 69.4734 8.41619C70.2643 8.41619 70.9445 8.60701 71.5138 8.98864C72.0863 9.37026 72.5264 9.92424 72.8342 10.6506C73.1419 11.3738 73.2943 12.2509 73.2912 13.282C73.2912 14.3191 73.1373 15.2055 72.8295 15.9411C72.5249 16.6766 72.0878 17.2383 71.5185 17.6261C70.9491 18.0138 70.2674 18.2077 69.4734 18.2077ZM69.4734 16.5504C70.015 16.5504 70.4474 16.2781 70.7706 15.7333C71.0938 15.1886 71.2538 14.3714 71.2507 13.282C71.2507 12.5649 71.1768 11.9678 71.0291 11.4908C70.8845 11.0137 70.6783 10.6552 70.4105 10.4151C70.1458 10.1751 69.8335 10.055 69.4734 10.055C68.9348 10.055 68.5039 10.3243 68.1808 10.8629C67.8576 11.4015 67.6945 12.2079 67.6914 13.282C67.6914 14.0083 67.7637 14.6146 67.9084 15.1009C68.0561 15.584 68.2638 15.9472 68.5316 16.1903C68.7994 16.4304 69.1133 16.5504 69.4734 16.5504ZM75.5036 18.12C75.199 18.12 74.9374 18.0123 74.7188 17.7969C74.5034 17.5784 74.3957 17.3168 74.3957 17.0121C74.3957 16.7105 74.5034 16.4519 74.7188 16.2365C74.9374 16.0211 75.199 15.9134 75.5036 15.9134C75.7991 15.9134 76.0576 16.0211 76.2792 16.2365C76.5008 16.4519 76.6116 16.7105 76.6116 17.0121C76.6116 17.2152 76.5593 17.4014 76.4546 17.5707C76.3531 17.7369 76.2192 17.8707 76.053 17.9723C75.8868 18.0708 75.7037 18.12 75.5036 18.12ZM81.3977 18.1293C80.7083 18.1293 80.0943 18.0108 79.5558 17.7738C79.0202 17.5337 78.5971 17.2044 78.2862 16.7859C77.9785 16.3642 77.82 15.878 77.8107 15.3271H79.8235C79.8358 15.5579 79.9112 15.761 80.0497 15.9364C80.1913 16.1088 80.379 16.2427 80.6129 16.3381C80.8468 16.4335 81.11 16.4812 81.4023 16.4812C81.707 16.4812 81.9763 16.4273 82.2102 16.3196C82.4441 16.2119 82.6272 16.0626 82.7596 15.8718C82.8919 15.681 82.9581 15.4609 82.9581 15.2116C82.9581 14.9593 82.8873 14.7362 82.7457 14.5423C82.6072 14.3453 82.4072 14.1914 82.1456 14.0806C81.8871 13.9698 81.5793 13.9144 81.2223 13.9144H80.3406V12.4464H81.2223C81.5239 12.4464 81.7901 12.3941 82.021 12.2894C82.2549 12.1848 82.4364 12.0401 82.5657 11.8555C82.695 11.6677 82.7596 11.4492 82.7596 11.1999C82.7596 10.9629 82.7027 10.7552 82.5888 10.5767C82.478 10.3951 82.321 10.2536 82.1179 10.152C81.9179 10.0504 81.6839 9.99964 81.4162 9.99964C81.1454 9.99964 80.8976 10.0489 80.6729 10.1474C80.4483 10.2428 80.2682 10.3797 80.1328 10.5582C79.9974 10.7367 79.9251 10.946 79.9158 11.1861H78C78.0092 10.6413 78.1647 10.1612 78.4663 9.74574C78.7679 9.33026 79.1741 9.00556 79.685 8.77166C80.199 8.53468 80.7791 8.41619 81.4254 8.41619C82.0779 8.41619 82.6488 8.53468 83.1381 8.77166C83.6275 9.00864 84.0076 9.32872 84.2784 9.73189C84.5523 10.132 84.6877 10.5813 84.6847 11.0799C84.6877 11.6093 84.5231 12.0509 84.1907 12.4048C83.8614 12.7588 83.4321 12.9834 82.9027 13.0788V13.1527C83.5982 13.242 84.1276 13.4835 84.4908 13.8775C84.857 14.2683 85.0386 14.7577 85.0355 15.3455C85.0386 15.8841 84.8832 16.3627 84.5692 16.7812C84.2584 17.1998 83.8291 17.5291 83.2812 17.7692C82.7334 18.0092 82.1056 18.1293 81.3977 18.1293ZM87.3738 18.12C87.0691 18.12 86.8075 18.0123 86.589 17.7969C86.3735 17.5784 86.2658 17.3168 86.2658 17.0121C86.2658 16.7105 86.3735 16.4519 86.589 16.2365C86.8075 16.0211 87.0691 15.9134 87.3738 15.9134C87.6692 15.9134 87.9277 16.0211 88.1493 16.2365C88.3709 16.4519 88.4817 16.7105 88.4817 17.0121C88.4817 17.2152 88.4294 17.4014 88.3248 17.5707C88.2232 17.7369 88.0893 17.8707 87.9231 17.9723C87.7569 18.0708 87.5738 18.12 87.3738 18.12ZM93.404 18.2077C92.61 18.2047 91.9268 18.0092 91.3543 17.6214C90.7849 17.2337 90.3464 16.672 90.0386 15.9364C89.7339 15.2009 89.5831 14.3161 89.5862 13.282C89.5862 12.2509 89.7385 11.3723 90.0432 10.646C90.351 9.91963 90.7896 9.36719 91.3589 8.98864C91.9314 8.60701 92.6131 8.41619 93.404 8.41619C94.195 8.41619 94.8751 8.60701 95.4445 8.98864C96.017 9.37026 96.4571 9.92424 96.7648 10.6506C97.0726 11.3738 97.2249 12.2509 97.2219 13.282C97.2219 14.3191 97.068 15.2055 96.7602 15.9411C96.4555 16.6766 96.0185 17.2383 95.4491 17.6261C94.8798 18.0138 94.1981 18.2077 93.404 18.2077ZM93.404 16.5504C93.9457 16.5504 94.3781 16.2781 94.7013 15.7333C95.0244 15.1886 95.1845 14.3714 95.1814 13.282C95.1814 12.5649 95.1075 11.9678 94.9598 11.4908C94.8151 11.0137 94.6089 10.6552 94.3412 10.4151C94.0765 10.1751 93.7641 10.055 93.404 10.055C92.8654 10.055 92.4346 10.3243 92.1114 10.8629C91.7883 11.4015 91.6251 12.2079 91.6221 13.282C91.6221 14.0083 91.6944 14.6146 91.839 15.1009C91.9868 15.584 92.1945 15.9472 92.4623 16.1903C92.73 16.4304 93.0439 16.5504 93.404 16.5504Z" fill="#FFFCFF"/>
<path d="M103 0H185C190.657 0 193.485 0 195.243 1.75736C197 3.51472 197 6.34315 197 12V14C197 19.6569 197 22.4853 195.243 24.2426C193.485 26 190.657 26 185 26H103V0Z" fill="#6C4FD4"/>
<path d="M110.451 18H108.309L111.573 8.54545H114.149L117.408 18H115.266L112.898 10.706H112.824L110.451 18ZM110.317 14.2837H115.377V15.8441H110.317V14.2837ZM123.057 14.9808V10.9091H125.023V18H123.135V16.712H123.061C122.901 17.1275 122.635 17.4614 122.263 17.7138C121.893 17.9661 121.442 18.0923 120.91 18.0923C120.436 18.0923 120.019 17.9846 119.659 17.7692C119.299 17.5537 119.017 17.2475 118.814 16.8505C118.614 16.4535 118.512 15.978 118.509 15.424V10.9091H120.476V15.0732C120.479 15.4917 120.591 15.8226 120.813 16.0657C121.035 16.3088 121.332 16.4304 121.704 16.4304C121.941 16.4304 122.163 16.3765 122.369 16.2688C122.575 16.158 122.741 15.9949 122.867 15.7795C122.997 15.564 123.06 15.2978 123.057 14.9808ZM129.791 20.8068C129.154 20.8068 128.608 20.7191 128.152 20.5437C127.7 20.3713 127.34 20.1359 127.072 19.8374C126.804 19.5388 126.63 19.2034 126.55 18.831L128.369 18.5863C128.424 18.7279 128.512 18.8602 128.632 18.9833C128.752 19.1064 128.911 19.2049 129.108 19.2788C129.308 19.3557 129.551 19.3942 129.837 19.3942C130.265 19.3942 130.617 19.2895 130.894 19.0803C131.174 18.8741 131.314 18.5278 131.314 18.0415V16.7443H131.231C131.145 16.9413 131.016 17.1275 130.843 17.3029C130.671 17.4783 130.45 17.6214 130.179 17.7322C129.908 17.843 129.585 17.8984 129.209 17.8984C128.677 17.8984 128.192 17.7753 127.755 17.5291C127.321 17.2798 126.975 16.8997 126.716 16.3888C126.461 15.8749 126.333 15.2255 126.333 14.4407C126.333 13.6374 126.464 12.9665 126.726 12.4279C126.987 11.8893 127.335 11.4862 127.769 11.2184C128.206 10.9506 128.685 10.8168 129.205 10.8168C129.602 10.8168 129.934 10.8845 130.202 11.0199C130.47 11.1522 130.685 11.3184 130.848 11.5185C131.014 11.7154 131.142 11.9093 131.231 12.1001H131.305V10.9091H133.258V18.0692C133.258 18.6725 133.11 19.1772 132.815 19.5835C132.519 19.9897 132.11 20.2944 131.587 20.4975C131.067 20.7037 130.468 20.8068 129.791 20.8068ZM129.832 16.4212C130.149 16.4212 130.417 16.3427 130.636 16.1857C130.857 16.0257 131.027 15.7979 131.144 15.5025C131.264 15.204 131.324 14.8469 131.324 14.4315C131.324 14.016 131.265 13.6559 131.148 13.3512C131.031 13.0434 130.862 12.8049 130.64 12.6357C130.419 12.4664 130.149 12.3817 129.832 12.3817C129.509 12.3817 129.237 12.4695 129.015 12.6449C128.794 12.8172 128.626 13.0573 128.512 13.3651C128.398 13.6728 128.341 14.0283 128.341 14.4315C128.341 14.8408 128.398 15.1947 128.512 15.4933C128.629 15.7887 128.797 16.018 129.015 16.1811C129.237 16.3411 129.509 16.4212 129.832 16.4212ZM139.37 14.9808V10.9091H141.337V18H139.449V16.712H139.375C139.215 17.1275 138.948 17.4614 138.576 17.7138C138.207 17.9661 137.756 18.0923 137.223 18.0923C136.749 18.0923 136.332 17.9846 135.972 17.7692C135.612 17.5537 135.331 17.2475 135.128 16.8505C134.928 16.4535 134.826 15.978 134.823 15.424V10.9091H136.79V15.0732C136.793 15.4917 136.905 15.8226 137.127 16.0657C137.348 16.3088 137.645 16.4304 138.017 16.4304C138.254 16.4304 138.476 16.3765 138.682 16.2688C138.888 16.158 139.055 15.9949 139.181 15.7795C139.31 15.564 139.373 15.2978 139.37 14.9808ZM148.81 12.9311L147.009 13.0419C146.978 12.888 146.912 12.7495 146.811 12.6264C146.709 12.5002 146.575 12.4002 146.409 12.3263C146.246 12.2494 146.051 12.2109 145.823 12.2109C145.518 12.2109 145.261 12.2756 145.052 12.4048C144.843 12.531 144.738 12.7003 144.738 12.9126C144.738 13.0819 144.806 13.225 144.941 13.342C145.076 13.4589 145.309 13.5528 145.638 13.6236L146.922 13.8821C147.611 14.0237 148.125 14.2514 148.463 14.5653C148.802 14.8793 148.971 15.2917 148.971 15.8026C148.971 16.2673 148.834 16.6751 148.56 17.0259C148.29 17.3768 147.917 17.6507 147.443 17.8477C146.972 18.0415 146.429 18.1385 145.814 18.1385C144.875 18.1385 144.127 17.9431 143.57 17.5522C143.016 17.1583 142.691 16.6228 142.596 15.9457L144.53 15.8441C144.589 16.1303 144.73 16.3488 144.955 16.4996C145.18 16.6474 145.467 16.7212 145.818 16.7212C146.163 16.7212 146.44 16.6551 146.649 16.5227C146.862 16.3873 146.969 16.2134 146.972 16.0011C146.969 15.8226 146.894 15.6764 146.746 15.5625C146.598 15.4455 146.371 15.3563 146.063 15.2947L144.835 15.0501C144.142 14.9116 143.627 14.6715 143.288 14.3299C142.953 13.9883 142.785 13.5528 142.785 13.0234C142.785 12.5679 142.908 12.1755 143.154 11.8462C143.404 11.5169 143.753 11.263 144.202 11.0845C144.655 10.906 145.184 10.8168 145.79 10.8168C146.686 10.8168 147.391 11.006 147.905 11.3846C148.422 11.7631 148.723 12.2786 148.81 12.9311ZM153.981 10.9091V12.3864H149.711V10.9091H153.981ZM150.68 9.21023H152.647V15.821C152.647 16.0026 152.675 16.1442 152.73 16.2457C152.786 16.3442 152.863 16.4135 152.961 16.4535C153.063 16.4935 153.18 16.5135 153.312 16.5135C153.404 16.5135 153.497 16.5058 153.589 16.4904C153.681 16.4719 153.752 16.4581 153.801 16.4489L154.111 17.9123C154.012 17.9431 153.874 17.9785 153.695 18.0185C153.517 18.0616 153.3 18.0877 153.044 18.0969C152.57 18.1154 152.155 18.0523 151.798 17.9077C151.444 17.763 151.168 17.5384 150.971 17.2337C150.774 16.929 150.677 16.5443 150.68 16.0795V9.21023ZM158.253 18V16.5597L161.618 13.4435C161.904 13.1665 162.144 12.9173 162.338 12.6957C162.535 12.4741 162.684 12.2571 162.786 12.0447C162.888 11.8293 162.938 11.5969 162.938 11.3477C162.938 11.0707 162.875 10.8321 162.749 10.6321C162.623 10.429 162.451 10.2736 162.232 10.1658C162.014 10.055 161.766 9.99964 161.489 9.99964C161.2 9.99964 160.947 10.0581 160.732 10.1751C160.516 10.292 160.35 10.4598 160.233 10.6783C160.116 10.8968 160.058 11.1568 160.058 11.4585H158.16C158.16 10.8398 158.3 10.3028 158.58 9.8473C158.86 9.39181 159.253 9.03942 159.758 8.79013C160.262 8.54084 160.844 8.41619 161.503 8.41619C162.18 8.41619 162.769 8.53622 163.271 8.77628C163.776 9.01326 164.168 9.34257 164.448 9.7642C164.728 10.1858 164.868 10.669 164.868 11.2138C164.868 11.5708 164.797 11.9232 164.656 12.271C164.517 12.6187 164.269 13.005 163.912 13.4297C163.555 13.8513 163.052 14.3576 162.403 14.9485L161.023 16.3011V16.3658H164.993V18H158.253ZM170.148 18.2077C169.354 18.2047 168.671 18.0092 168.098 17.6214C167.529 17.2337 167.091 16.672 166.783 15.9364C166.478 15.2009 166.327 14.3161 166.33 13.282C166.33 12.2509 166.483 11.3723 166.787 10.646C167.095 9.91963 167.534 9.36719 168.103 8.98864C168.676 8.60701 169.357 8.41619 170.148 8.41619C170.939 8.41619 171.619 8.60701 172.189 8.98864C172.761 9.37026 173.201 9.92424 173.509 10.6506C173.817 11.3738 173.969 12.2509 173.966 13.282C173.966 14.3191 173.812 15.2055 173.504 15.9411C173.2 16.6766 172.763 17.2383 172.193 17.6261C171.624 18.0138 170.942 18.2077 170.148 18.2077ZM170.148 16.5504C170.69 16.5504 171.122 16.2781 171.445 15.7333C171.769 15.1886 171.929 14.3714 171.926 13.282C171.926 12.5649 171.852 11.9678 171.704 11.4908C171.559 11.0137 171.353 10.6552 171.085 10.4151C170.821 10.1751 170.508 10.055 170.148 10.055C169.61 10.055 169.179 10.3243 168.856 10.8629C168.532 11.4015 168.369 12.2079 168.366 13.282C168.366 14.0083 168.439 14.6146 168.583 15.1009C168.731 15.584 168.939 15.9472 169.206 16.1903C169.474 16.4304 169.788 16.5504 170.148 16.5504ZM175.391 18V16.5597L178.757 13.4435C179.043 13.1665 179.283 12.9173 179.477 12.6957C179.674 12.4741 179.823 12.2571 179.925 12.0447C180.026 11.8293 180.077 11.5969 180.077 11.3477C180.077 11.0707 180.014 10.8321 179.888 10.6321C179.762 10.429 179.589 10.2736 179.371 10.1658C179.152 10.055 178.904 9.99964 178.627 9.99964C178.338 9.99964 178.086 10.0581 177.87 10.1751C177.655 10.292 177.489 10.4598 177.372 10.6783C177.255 10.8968 177.196 11.1568 177.196 11.4585H175.299C175.299 10.8398 175.439 10.3028 175.719 9.8473C175.999 9.39181 176.392 9.03942 176.896 8.79013C177.401 8.54084 177.983 8.41619 178.641 8.41619C179.318 8.41619 179.908 8.53622 180.409 8.77628C180.914 9.01326 181.307 9.34257 181.587 9.7642C181.867 10.1858 182.007 10.669 182.007 11.2138C182.007 11.5708 181.936 11.9232 181.794 12.271C181.656 12.6187 181.408 13.005 181.051 13.4297C180.694 13.8513 180.191 14.3576 179.542 14.9485L178.161 16.3011V16.3658H182.131V18H175.391ZM187.074 18.1293C186.385 18.1293 185.771 18.0108 185.233 17.7738C184.697 17.5337 184.274 17.2044 183.963 16.7859C183.655 16.3642 183.497 15.878 183.487 15.3271H185.5C185.513 15.5579 185.588 15.761 185.726 15.9364C185.868 16.1088 186.056 16.2427 186.29 16.3381C186.524 16.4335 186.787 16.4812 187.079 16.4812C187.384 16.4812 187.653 16.4273 187.887 16.3196C188.121 16.2119 188.304 16.0626 188.436 15.8718C188.569 15.681 188.635 15.4609 188.635 15.2116C188.635 14.9593 188.564 14.7362 188.422 14.5423C188.284 14.3453 188.084 14.1914 187.822 14.0806C187.564 13.9698 187.256 13.9144 186.899 13.9144H186.017V12.4464H186.899C187.201 12.4464 187.467 12.3941 187.698 12.2894C187.932 12.1848 188.113 12.0401 188.242 11.8555C188.372 11.6677 188.436 11.4492 188.436 11.1999C188.436 10.9629 188.379 10.7552 188.266 10.5767C188.155 10.3951 187.998 10.2536 187.795 10.152C187.595 10.0504 187.361 9.99964 187.093 9.99964C186.822 9.99964 186.574 10.0489 186.35 10.1474C186.125 10.2428 185.945 10.3797 185.81 10.5582C185.674 10.7367 185.602 10.946 185.593 11.1861H183.677C183.686 10.6413 183.841 10.1612 184.143 9.74574C184.445 9.33026 184.851 9.00556 185.362 8.77166C185.876 8.53468 186.456 8.41619 187.102 8.41619C187.755 8.41619 188.326 8.53468 188.815 8.77166C189.304 9.00864 189.684 9.32872 189.955 9.73189C190.229 10.132 190.364 10.5813 190.361 11.0799C190.364 11.6093 190.2 12.0509 189.867 12.4048C189.538 12.7588 189.109 12.9834 188.579 13.0788V13.1527C189.275 13.242 189.804 13.4835 190.168 13.8775C190.534 14.2683 190.715 14.7577 190.712 15.3455C190.715 15.8841 190.56 16.3627 190.246 16.7812C189.935 17.1998 189.506 17.5291 188.958 17.7692C188.41 18.0092 187.782 18.1293 187.074 18.1293Z" fill="#FFFCFF"/>
</svg>
