<svg width="773" height="40" viewBox="0 0 773 40" fill="none" xmlns="http://www.w3.org/2000/svg">
<rect x="0.5" width="175" height="40" rx="8" fill="#5D6AF2"/>
<path fill-rule="evenodd" clip-rule="evenodd" d="M24.1019 13.6582C24.1019 13.6582 25.2146 13.4329 26.5 13.4329C27.7854 13.4329 28.8981 13.6582 28.8981 13.6582L29.3431 12.7699C29.437 12.5823 29.6438 12.4729 29.855 12.5058C32.0012 12.8408 34.0014 13.9516 34.0014 13.9516C34.0014 13.9516 36.5 16.371 36.5 24.9038C36.501 25.0575 36.4271 25.2066 36.2992 25.296C34.6586 26.4425 32.6662 27.1955 31.8623 27.4733C31.6493 27.5469 31.416 27.4639 31.2946 27.2779L30.732 26.4162C30.578 26.1804 30.658 25.8666 30.9072 25.7288L32.0828 25.079L31.6073 24.7159C31.6073 24.7159 29.7052 25.8304 26.5 25.8304C23.2948 25.8304 21.3927 24.7159 21.3927 24.7159L20.9172 25.079L22.0927 25.7288C22.342 25.8666 22.422 26.1804 22.268 26.4162L21.7054 27.2779C21.584 27.4639 21.3506 27.5469 21.1376 27.4733C20.3338 27.1955 18.3413 26.4425 16.7008 25.296C16.5729 25.2066 16.499 25.0575 16.5 24.9038C16.5 16.371 19.0002 13.9516 19.0002 13.9516C19.0002 13.9516 21.0004 12.8405 23.145 12.5058C23.3562 12.4729 23.5629 12.5823 23.6569 12.7699L24.1019 13.6582ZM31.7512 20.7258C31.7512 21.7948 30.9677 22.6613 30.0011 22.6613C29.0345 22.6613 28.2509 21.7948 28.2509 20.7258C28.2509 19.6568 29.0345 18.7903 30.0011 18.7903C30.9677 18.7903 31.7512 19.6568 31.7512 20.7258ZM23.0005 22.6613C23.9671 22.6613 24.7507 21.7948 24.7507 20.7258C24.7507 19.6568 23.9671 18.7903 23.0005 18.7903C22.0339 18.7903 21.2504 19.6568 21.2504 20.7258C21.2504 21.7948 22.0339 22.6613 23.0005 22.6613Z" fill="#F1EFEF"/>
<path d="M47.9151 14.0909H50.1949V21.6974C50.1949 22.4006 50.0369 23.0114 49.7208 23.5298C49.4083 24.0483 48.9733 24.4478 48.4158 24.7283C47.8583 25.0089 47.2102 25.1491 46.4715 25.1491C45.8146 25.1491 45.218 25.0337 44.6818 24.8029C44.1491 24.5685 43.7265 24.2134 43.414 23.7376C43.1015 23.2582 42.947 22.6562 42.9506 21.9318H45.2464C45.2535 22.2195 45.3121 22.4663 45.4222 22.6722C45.5358 22.8746 45.6903 23.0309 45.8856 23.141C46.0845 23.2475 46.3188 23.3008 46.5887 23.3008C46.8728 23.3008 47.1125 23.2404 47.3078 23.1197C47.5067 22.9954 47.6576 22.8143 47.7606 22.5763C47.8636 22.3384 47.9151 22.0455 47.9151 21.6974V14.0909ZM55.576 25.1598C54.7486 25.1598 54.033 24.984 53.4293 24.6325C52.8292 24.2773 52.3658 23.7837 52.0391 23.1516C51.7123 22.516 51.549 21.7791 51.549 20.9411C51.549 20.0959 51.7123 19.3572 52.0391 18.7251C52.3658 18.0895 52.8292 17.5959 53.4293 17.2443C54.033 16.8892 54.7486 16.7116 55.576 16.7116C56.4034 16.7116 57.1172 16.8892 57.7173 17.2443C58.321 17.5959 58.7862 18.0895 59.1129 18.7251C59.4396 19.3572 59.603 20.0959 59.603 20.9411C59.603 21.7791 59.4396 22.516 59.1129 23.1516C58.7862 23.7837 58.321 24.2773 57.7173 24.6325C57.1172 24.984 56.4034 25.1598 55.576 25.1598ZM55.5866 23.402C55.9631 23.402 56.2773 23.2955 56.5295 23.0824C56.7816 22.8658 56.9716 22.571 57.0994 22.1982C57.2308 21.8253 57.2965 21.4009 57.2965 20.9251C57.2965 20.4492 57.2308 20.0249 57.0994 19.652C56.9716 19.2791 56.7816 18.9844 56.5295 18.7678C56.2773 18.5511 55.9631 18.4428 55.5866 18.4428C55.2067 18.4428 54.8871 18.5511 54.6278 18.7678C54.3721 18.9844 54.1786 19.2791 54.0472 19.652C53.9194 20.0249 53.8555 20.4492 53.8555 20.9251C53.8555 21.4009 53.9194 21.8253 54.0472 22.1982C54.1786 22.571 54.3721 22.8658 54.6278 23.0824C54.8871 23.2955 55.2067 23.402 55.5866 23.402ZM60.8985 25V16.8182H63.1676V25H60.8985ZM62.0384 15.7635C61.701 15.7635 61.4116 15.6516 61.1701 15.4279C60.9322 15.2006 60.8132 14.929 60.8132 14.6129C60.8132 14.3004 60.9322 14.0323 61.1701 13.8086C61.4116 13.5813 61.701 13.4677 62.0384 13.4677C62.3757 13.4677 62.6634 13.5813 62.9013 13.8086C63.1428 14.0323 63.2635 14.3004 63.2635 14.6129C63.2635 14.929 63.1428 15.2006 62.9013 15.4279C62.6634 15.6516 62.3757 15.7635 62.0384 15.7635ZM67.0746 20.2699V25H64.8054V16.8182H66.968V18.2617H67.0639C67.245 17.7859 67.5486 17.4094 67.9748 17.1325C68.4009 16.8519 68.9176 16.7116 69.5248 16.7116C70.093 16.7116 70.5884 16.8359 71.011 17.0845C71.4336 17.3331 71.7621 17.6882 71.9964 18.1499C72.2308 18.608 72.348 19.1548 72.348 19.7905V25H70.0788V20.1953C70.0824 19.6946 69.9545 19.304 69.6953 19.0234C69.4361 18.7393 69.0792 18.5973 68.6246 18.5973C68.3192 18.5973 68.0493 18.663 67.815 18.7944C67.5841 18.9258 67.403 19.1175 67.2716 19.3697C67.1438 19.6183 67.0781 19.9183 67.0746 20.2699ZM80.9448 25.1598C80.1174 25.1598 79.4019 24.984 78.7982 24.6325C78.198 24.2773 77.7346 23.7837 77.4079 23.1516C77.0812 22.516 76.9179 21.7791 76.9179 20.9411C76.9179 20.0959 77.0812 19.3572 77.4079 18.7251C77.7346 18.0895 78.198 17.5959 78.7982 17.2443C79.4019 16.8892 80.1174 16.7116 80.9448 16.7116C81.7723 16.7116 82.486 16.8892 83.0862 17.2443C83.6899 17.5959 84.1551 18.0895 84.4818 18.7251C84.8085 19.3572 84.9718 20.0959 84.9718 20.9411C84.9718 21.7791 84.8085 22.516 84.4818 23.1516C84.1551 23.7837 83.6899 24.2773 83.0862 24.6325C82.486 24.984 81.7723 25.1598 80.9448 25.1598ZM80.9555 23.402C81.3319 23.402 81.6462 23.2955 81.8983 23.0824C82.1505 22.8658 82.3404 22.571 82.4683 22.1982C82.5997 21.8253 82.6654 21.4009 82.6654 20.9251C82.6654 20.4492 82.5997 20.0249 82.4683 19.652C82.3404 19.2791 82.1505 18.9844 81.8983 18.7678C81.6462 18.5511 81.3319 18.4428 80.9555 18.4428C80.5755 18.4428 80.2559 18.5511 79.9967 18.7678C79.741 18.9844 79.5475 19.2791 79.4161 19.652C79.2882 20.0249 79.2243 20.4492 79.2243 20.9251C79.2243 21.4009 79.2882 21.8253 79.4161 22.1982C79.5475 22.571 79.741 22.8658 79.9967 23.0824C80.2559 23.2955 80.5755 23.402 80.9555 23.402ZM91.5141 21.5163V16.8182H93.7833V25H91.6047V23.5138H91.5195C91.3348 23.9933 91.0276 24.3786 90.5979 24.6697C90.1718 24.9609 89.6516 25.1065 89.0372 25.1065C88.4903 25.1065 88.0092 24.9822 87.5937 24.7337C87.1782 24.4851 86.8533 24.1317 86.6189 23.6737C86.3881 23.2156 86.2709 22.6669 86.2673 22.0277V16.8182H88.5365V21.6229C88.5401 22.1058 88.6697 22.4876 88.9254 22.7681C89.181 23.0487 89.5237 23.1889 89.9534 23.1889C90.2269 23.1889 90.4825 23.1268 90.7205 23.0025C90.9584 22.8746 91.1501 22.6864 91.2957 22.4379C91.4449 22.1893 91.5177 21.8821 91.5141 21.5163ZM95.4184 25V16.8182H97.6183V18.2457H97.7035C97.8527 17.7379 98.1031 17.3544 98.4546 17.0952C98.8062 16.8324 99.211 16.701 99.6691 16.701C99.7827 16.701 99.9053 16.7081 100.037 16.7223C100.168 16.7365 100.283 16.756 100.383 16.7809V18.7944C100.276 18.7624 100.129 18.734 99.9408 18.7092C99.7526 18.6843 99.5803 18.6719 99.4241 18.6719C99.0903 18.6719 98.792 18.7447 98.5292 18.8903C98.27 19.0323 98.064 19.2312 97.9113 19.4869C97.7621 19.7425 97.6876 20.0373 97.6876 20.3711V25H95.4184ZM108.578 25H104.71V14.0909H108.61C109.707 14.0909 110.651 14.3093 111.443 14.7461C112.235 15.1793 112.844 15.8026 113.27 16.6158C113.7 17.429 113.915 18.402 113.915 19.5348C113.915 20.6712 113.7 21.6477 113.27 22.4645C112.844 23.2812 112.232 23.908 111.433 24.3448C110.637 24.7816 109.686 25 108.578 25ZM107.017 23.0238H108.482C109.164 23.0238 109.737 22.9031 110.202 22.6616C110.671 22.4165 111.023 22.0384 111.257 21.527C111.495 21.0121 111.614 20.348 111.614 19.5348C111.614 18.7287 111.495 18.07 111.257 17.5586C111.023 17.0472 110.673 16.6708 110.208 16.4293C109.742 16.1879 109.169 16.0671 108.487 16.0671H107.017V23.0238ZM115.401 25V16.8182H117.67V25H115.401ZM116.541 15.7635C116.203 15.7635 115.914 15.6516 115.673 15.4279C115.435 15.2006 115.316 14.929 115.316 14.6129C115.316 14.3004 115.435 14.0323 115.673 13.8086C115.914 13.5813 116.203 13.4677 116.541 13.4677C116.878 13.4677 117.166 13.5813 117.404 13.8086C117.645 14.0323 117.766 14.3004 117.766 14.6129C117.766 14.929 117.645 15.2006 117.404 15.4279C117.166 15.6516 116.878 15.7635 116.541 15.7635ZM126.115 19.1513L124.038 19.2791C124.002 19.1016 123.926 18.9418 123.809 18.7997C123.692 18.6541 123.537 18.5387 123.345 18.4535C123.157 18.3647 122.932 18.3203 122.669 18.3203C122.317 18.3203 122.021 18.3949 121.779 18.544C121.538 18.6896 121.417 18.8849 121.417 19.13C121.417 19.3253 121.495 19.4904 121.652 19.6254C121.808 19.7603 122.076 19.8686 122.456 19.9503L123.937 20.2486C124.732 20.4119 125.325 20.6747 125.716 21.0369C126.106 21.3991 126.302 21.875 126.302 22.4645C126.302 23.0007 126.144 23.4712 125.828 23.8761C125.515 24.2809 125.085 24.5969 124.539 24.8242C123.995 25.0479 123.368 25.1598 122.658 25.1598C121.575 25.1598 120.712 24.9343 120.069 24.4833C119.43 24.0288 119.056 23.4109 118.946 22.6296L121.177 22.5124C121.245 22.8427 121.408 23.0948 121.667 23.2688C121.927 23.4393 122.259 23.5245 122.664 23.5245C123.061 23.5245 123.381 23.4482 123.622 23.2955C123.867 23.1392 123.992 22.9386 123.995 22.6935C123.992 22.4876 123.905 22.3189 123.734 22.1875C123.564 22.0526 123.301 21.9496 122.946 21.8786L121.529 21.5962C120.73 21.4364 120.135 21.1594 119.745 20.7653C119.357 20.3711 119.164 19.8686 119.164 19.2578C119.164 18.7322 119.306 18.2795 119.59 17.8995C119.878 17.5195 120.281 17.2266 120.799 17.0206C121.321 16.8146 121.932 16.7116 122.632 16.7116C123.665 16.7116 124.478 16.93 125.071 17.3668C125.668 17.8036 126.016 18.3984 126.115 19.1513ZM131.247 25.1598C130.409 25.1598 129.688 24.9822 129.085 24.6271C128.485 24.2685 128.023 23.7713 127.7 23.1357C127.38 22.5 127.22 21.7685 127.22 20.9411C127.22 20.103 127.382 19.3679 127.705 18.7358C128.032 18.1001 128.495 17.6048 129.095 17.2496C129.695 16.891 130.409 16.7116 131.237 16.7116C131.95 16.7116 132.575 16.8413 133.112 17.1005C133.648 17.3597 134.072 17.7237 134.385 18.1925C134.697 18.6612 134.87 19.2116 134.901 19.8438H132.76C132.7 19.4354 132.54 19.1069 132.281 18.8583C132.025 18.6062 131.689 18.4801 131.274 18.4801C130.922 18.4801 130.615 18.576 130.352 18.7678C130.093 18.956 129.891 19.2312 129.745 19.5934C129.6 19.9556 129.527 20.3942 129.527 20.9091C129.527 21.4311 129.598 21.875 129.74 22.2408C129.885 22.6065 130.09 22.8853 130.352 23.0771C130.615 23.2688 130.922 23.3647 131.274 23.3647C131.533 23.3647 131.766 23.3114 131.972 23.2049C132.181 23.0984 132.354 22.9439 132.488 22.7415C132.627 22.5355 132.718 22.2887 132.76 22.0011H134.901C134.866 22.6261 134.695 23.1765 134.39 23.6523C134.088 24.1246 133.671 24.494 133.138 24.7603C132.606 25.0266 131.975 25.1598 131.247 25.1598ZM139.871 25.1598C139.044 25.1598 138.328 24.984 137.724 24.6325C137.124 24.2773 136.661 23.7837 136.334 23.1516C136.007 22.516 135.844 21.7791 135.844 20.9411C135.844 20.0959 136.007 19.3572 136.334 18.7251C136.661 18.0895 137.124 17.5959 137.724 17.2443C138.328 16.8892 139.044 16.7116 139.871 16.7116C140.698 16.7116 141.412 16.8892 142.012 17.2443C142.616 17.5959 143.081 18.0895 143.408 18.7251C143.735 19.3572 143.898 20.0959 143.898 20.9411C143.898 21.7791 143.735 22.516 143.408 23.1516C143.081 23.7837 142.616 24.2773 142.012 24.6325C141.412 24.984 140.698 25.1598 139.871 25.1598ZM139.882 23.402C140.258 23.402 140.572 23.2955 140.825 23.0824C141.077 22.8658 141.267 22.571 141.395 22.1982C141.526 21.8253 141.592 21.4009 141.592 20.9251C141.592 20.4492 141.526 20.0249 141.395 19.652C141.267 19.2791 141.077 18.9844 140.825 18.7678C140.572 18.5511 140.258 18.4428 139.882 18.4428C139.502 18.4428 139.182 18.5511 138.923 18.7678C138.667 18.9844 138.474 19.2791 138.342 19.652C138.214 20.0249 138.151 20.4492 138.151 20.9251C138.151 21.4009 138.214 21.8253 138.342 22.1982C138.474 22.571 138.667 22.8658 138.923 23.0824C139.182 23.2955 139.502 23.402 139.882 23.402ZM145.194 25V16.8182H147.393V18.2457H147.479C147.628 17.7379 147.878 17.3544 148.23 17.0952C148.581 16.8324 148.986 16.701 149.444 16.701C149.558 16.701 149.68 16.7081 149.812 16.7223C149.943 16.7365 150.059 16.756 150.158 16.7809V18.7944C150.052 18.7624 149.904 18.734 149.716 18.7092C149.528 18.6843 149.355 18.6719 149.199 18.6719C148.865 18.6719 148.567 18.7447 148.304 18.8903C148.045 19.0323 147.839 19.2312 147.686 19.4869C147.537 19.7425 147.463 20.0373 147.463 20.3711V25H145.194ZM153.785 25.1332C153.164 25.1332 152.601 24.9734 152.097 24.6538C151.596 24.3306 151.198 23.8565 150.904 23.2315C150.612 22.603 150.467 21.8324 150.467 20.9197C150.467 19.9822 150.618 19.2028 150.92 18.5813C151.221 17.9563 151.623 17.4893 152.123 17.1804C152.628 16.8679 153.18 16.7116 153.78 16.7116C154.238 16.7116 154.62 16.7898 154.925 16.946C155.234 17.0987 155.483 17.2905 155.671 17.5213C155.863 17.7486 156.008 17.9723 156.108 18.1925H156.177V14.0909H158.441V25H156.204V23.6896H156.108C156.001 23.9169 155.85 24.1424 155.655 24.3661C155.463 24.5863 155.213 24.7692 154.904 24.9148C154.599 25.0604 154.226 25.1332 153.785 25.1332ZM154.504 23.3274C154.87 23.3274 155.179 23.228 155.431 23.0291C155.687 22.8267 155.882 22.5444 156.017 22.1822C156.156 21.82 156.225 21.3956 156.225 20.9091C156.225 20.4226 156.157 20 156.023 19.6413C155.888 19.2827 155.692 19.0057 155.437 18.8104C155.181 18.6151 154.87 18.5174 154.504 18.5174C154.132 18.5174 153.817 18.6186 153.562 18.821C153.306 19.0234 153.112 19.304 152.981 19.6626C152.85 20.0213 152.784 20.4368 152.784 20.9091C152.784 21.3849 152.85 21.8058 152.981 22.1715C153.116 22.5337 153.309 22.8178 153.562 23.0238C153.817 23.2262 154.132 23.3274 154.504 23.3274Z" fill="#F1EFEF"/>
<rect x="180" y="0.5" width="217" height="39" rx="7.5" fill="#1D1C1B"/>
<rect x="180" y="0.5" width="217" height="39" rx="7.5" stroke="#4B4B4B"/>
<path fill-rule="evenodd" clip-rule="evenodd" d="M199.691 27.8023C198.634 27.2891 197.755 26.4242 197.064 25.2614C196.829 24.8657 197.007 24.365 197.422 24.1656C197.837 23.9663 198.329 24.1451 198.573 24.5357C199.114 25.4048 199.744 25.9754 200.419 26.303C201.261 26.7121 202.27 26.7887 203.45 26.4631L203.894 28.0697C202.402 28.4813 200.965 28.4211 199.691 27.8023Z" fill="#F1EFEF"/>
<path d="M200.411 11.0415C200.77 11.0415 201.27 11.1253 201.608 11.2073C202.208 11.3528 202.977 11.6319 203.694 12.1718C204.319 12.0244 205.203 11.8525 206.333 11.8525C207.464 11.8524 208.348 12.0244 208.972 12.1718C209.69 11.6319 210.458 11.3528 211.058 11.2073C211.397 11.1253 211.909 11.0415 212.256 11.0415H212.683L212.838 11.4396C213.054 11.9941 213.132 12.6686 213.133 13.3013C213.134 13.8339 213.08 14.3736 212.987 14.8443C213.24 15.2457 213.477 15.7214 213.661 16.2098C213.881 16.7921 214.042 17.4365 214.042 18.0237C214.042 20.0421 213.365 21.4676 212.296 22.4733C211.483 23.2373 210.475 23.7292 209.455 24.0785C209.673 24.4075 209.875 24.8423 209.875 25.4124V27.2915C209.875 28.0772 209.875 28.47 209.631 28.7141C209.387 28.9582 208.994 28.9582 208.208 28.9582H204.458C203.673 28.9582 203.28 28.9582 203.036 28.7141C202.792 28.47 202.792 28.0772 202.792 27.2915V25.4124C202.792 24.8423 202.993 24.4075 203.212 24.0785C202.192 23.7292 201.183 23.2373 200.371 22.4733C199.301 21.4676 198.625 20.0421 198.625 18.0237C198.625 17.4365 198.786 16.7921 199.005 16.2098C199.189 15.7214 199.426 15.2457 199.68 14.8443C199.586 14.3736 199.532 13.8339 199.533 13.3013C199.534 12.6686 199.613 11.9941 199.829 11.4396L199.984 11.0415H200.411Z" fill="#F1EFEF"/>
<path d="M228.774 17.2283C228.732 16.7987 228.549 16.4648 228.226 16.2269C227.902 15.989 227.464 15.87 226.91 15.87C226.533 15.87 226.216 15.9233 225.956 16.0298C225.697 16.1328 225.498 16.2766 225.36 16.4613C225.225 16.646 225.157 16.8555 225.157 17.0898C225.15 17.2852 225.191 17.4556 225.28 17.6012C225.372 17.7468 225.498 17.8729 225.658 17.9794C225.818 18.0824 226.003 18.1729 226.212 18.2511C226.422 18.3256 226.645 18.3896 226.883 18.4428L227.863 18.6772C228.339 18.7837 228.776 18.9258 229.174 19.1033C229.571 19.2809 229.916 19.4993 230.207 19.7585C230.498 20.0178 230.724 20.3232 230.884 20.6747C231.047 21.0263 231.13 21.4293 231.134 21.8839C231.13 22.5515 230.96 23.1303 230.623 23.6204C230.289 24.1069 229.806 24.4851 229.174 24.755C228.545 25.0213 227.787 25.1545 226.899 25.1545C226.019 25.1545 225.251 25.0195 224.598 24.7496C223.948 24.4798 223.44 24.0803 223.075 23.5511C222.712 23.0185 222.522 22.3597 222.505 21.5749H224.737C224.761 21.9407 224.866 22.2461 225.051 22.4911C225.239 22.7326 225.489 22.9155 225.802 23.0398C226.118 23.1605 226.475 23.2209 226.873 23.2209C227.263 23.2209 227.602 23.1641 227.89 23.0504C228.181 22.9368 228.407 22.7788 228.566 22.5763C228.726 22.3739 228.806 22.1413 228.806 21.8786C228.806 21.6335 228.733 21.4276 228.588 21.2607C228.446 21.0937 228.236 20.9517 227.959 20.8345C227.686 20.7173 227.35 20.6108 226.952 20.5149L225.765 20.2166C224.845 19.9929 224.119 19.6431 223.586 19.1673C223.053 18.6914 222.789 18.0504 222.792 17.2443C222.789 16.5838 222.965 16.0067 223.32 15.5131C223.678 15.0195 224.17 14.6342 224.795 14.3572C225.42 14.0803 226.13 13.9418 226.926 13.9418C227.735 13.9418 228.442 14.0803 229.046 14.3572C229.653 14.6342 230.125 15.0195 230.463 15.5131C230.8 16.0067 230.974 16.5785 230.985 17.2283H228.774ZM236.191 25.1598C235.35 25.1598 234.625 24.9893 234.018 24.6484C233.414 24.304 232.949 23.8175 232.623 23.1889C232.296 22.5568 232.132 21.8093 232.132 20.9464C232.132 20.1048 232.296 19.3661 232.623 18.7305C232.949 18.0948 233.409 17.5994 234.002 17.2443C234.599 16.8892 235.298 16.7116 236.101 16.7116C236.641 16.7116 237.143 16.7987 237.608 16.9727C238.077 17.1431 238.485 17.4006 238.833 17.745C239.185 18.0895 239.458 18.5227 239.654 19.0447C239.849 19.5632 239.947 20.1705 239.947 20.8665V21.4897H233.038V20.0835H237.811C237.811 19.7567 237.74 19.4673 237.598 19.2152C237.456 18.9631 237.259 18.766 237.006 18.6239C236.758 18.4783 236.468 18.4055 236.138 18.4055C235.794 18.4055 235.488 18.4854 235.222 18.6452C234.959 18.8015 234.753 19.0128 234.604 19.2791C234.455 19.5419 234.379 19.8349 234.375 20.158V21.495C234.375 21.8999 234.45 22.2496 234.599 22.5444C234.751 22.8391 234.966 23.0664 235.243 23.2262C235.52 23.386 235.849 23.4659 236.229 23.4659C236.481 23.4659 236.712 23.4304 236.921 23.3594C237.131 23.2884 237.31 23.1818 237.459 23.0398C237.608 22.8977 237.722 22.7237 237.8 22.5178L239.899 22.6562C239.792 23.1605 239.574 23.6009 239.244 23.9773C238.917 24.3501 238.494 24.6413 237.976 24.8509C237.461 25.0568 236.866 25.1598 236.191 25.1598ZM244.976 25.1598C244.135 25.1598 243.41 24.9893 242.803 24.6484C242.199 24.304 241.734 23.8175 241.407 23.1889C241.081 22.5568 240.917 21.8093 240.917 20.9464C240.917 20.1048 241.081 19.3661 241.407 18.7305C241.734 18.0948 242.194 17.5994 242.787 17.2443C243.384 16.8892 244.083 16.7116 244.886 16.7116C245.425 16.7116 245.928 16.7987 246.393 16.9727C246.862 17.1431 247.27 17.4006 247.618 17.745C247.97 18.0895 248.243 18.5227 248.439 19.0447C248.634 19.5632 248.732 20.1705 248.732 20.8665V21.4897H241.823V20.0835H246.596C246.596 19.7567 246.525 19.4673 246.382 19.2152C246.24 18.9631 246.043 18.766 245.791 18.6239C245.543 18.4783 245.253 18.4055 244.923 18.4055C244.579 18.4055 244.273 18.4854 244.007 18.6452C243.744 18.8015 243.538 19.0128 243.389 19.2791C243.24 19.5419 243.163 19.8349 243.16 20.158V21.495C243.16 21.8999 243.234 22.2496 243.384 22.5444C243.536 22.8391 243.751 23.0664 244.028 23.2262C244.305 23.386 244.634 23.4659 245.014 23.4659C245.266 23.4659 245.496 23.4304 245.706 23.3594C245.916 23.2884 246.095 23.1818 246.244 23.0398C246.393 22.8977 246.507 22.7237 246.585 22.5178L248.684 22.6562C248.577 23.1605 248.359 23.6009 248.028 23.9773C247.702 24.3501 247.279 24.6413 246.761 24.8509C246.246 25.0568 245.651 25.1598 244.976 25.1598ZM257.021 25.1598C256.193 25.1598 255.478 24.984 254.874 24.6325C254.274 24.2773 253.811 23.7837 253.484 23.1516C253.157 22.516 252.994 21.7791 252.994 20.9411C252.994 20.0959 253.157 19.3572 253.484 18.7251C253.811 18.0895 254.274 17.5959 254.874 17.2443C255.478 16.8892 256.193 16.7116 257.021 16.7116C257.848 16.7116 258.562 16.8892 259.162 17.2443C259.766 17.5959 260.231 18.0895 260.558 18.7251C260.884 19.3572 261.048 20.0959 261.048 20.9411C261.048 21.7791 260.884 22.516 260.558 23.1516C260.231 23.7837 259.766 24.2773 259.162 24.6325C258.562 24.984 257.848 25.1598 257.021 25.1598ZM257.031 23.402C257.408 23.402 257.722 23.2955 257.974 23.0824C258.226 22.8658 258.416 22.571 258.544 22.1982C258.676 21.8253 258.741 21.4009 258.741 20.9251C258.741 20.4492 258.676 20.0249 258.544 19.652C258.416 19.2791 258.226 18.9844 257.974 18.7678C257.722 18.5511 257.408 18.4428 257.031 18.4428C256.651 18.4428 256.332 18.5511 256.073 18.7678C255.817 18.9844 255.623 19.2791 255.492 19.652C255.364 20.0249 255.3 20.4492 255.3 20.9251C255.3 21.4009 255.364 21.8253 255.492 22.1982C255.623 22.571 255.817 22.8658 256.073 23.0824C256.332 23.2955 256.651 23.402 257.031 23.402ZM267.59 21.5163V16.8182H269.859V25H267.681V23.5138H267.595C267.411 23.9933 267.104 24.3786 266.674 24.6697C266.248 24.9609 265.728 25.1065 265.113 25.1065C264.566 25.1065 264.085 24.9822 263.67 24.7337C263.254 24.4851 262.929 24.1317 262.695 23.6737C262.464 23.2156 262.347 22.6669 262.343 22.0277V16.8182H264.612V21.6229C264.616 22.1058 264.746 22.4876 265.001 22.7681C265.257 23.0487 265.6 23.1889 266.029 23.1889C266.303 23.1889 266.558 23.1268 266.796 23.0025C267.034 22.8746 267.226 22.6864 267.372 22.4379C267.521 22.1893 267.594 21.8821 267.59 21.5163ZM271.494 25V16.8182H273.694V18.2457H273.78C273.929 17.7379 274.179 17.3544 274.531 17.0952C274.882 16.8324 275.287 16.701 275.745 16.701C275.859 16.701 275.981 16.7081 276.113 16.7223C276.244 16.7365 276.359 16.756 276.459 16.7809V18.7944C276.352 18.7624 276.205 18.734 276.017 18.7092C275.829 18.6843 275.656 18.6719 275.5 18.6719C275.166 18.6719 274.868 18.7447 274.605 18.8903C274.346 19.0323 274.14 19.2312 273.987 19.4869C273.838 19.7425 273.764 20.0373 273.764 20.3711V25H271.494ZM284.44 25.1598C283.613 25.1598 282.897 24.984 282.294 24.6325C281.694 24.2773 281.23 23.7837 280.904 23.1516C280.577 22.516 280.413 21.7791 280.413 20.9411C280.413 20.0959 280.577 19.3572 280.904 18.7251C281.23 18.0895 281.694 17.5959 282.294 17.2443C282.897 16.8892 283.613 16.7116 284.44 16.7116C285.268 16.7116 285.982 16.8892 286.582 17.2443C287.185 17.5959 287.651 18.0895 287.977 18.7251C288.304 19.3572 288.467 20.0959 288.467 20.9411C288.467 21.7791 288.304 22.516 287.977 23.1516C287.651 23.7837 287.185 24.2773 286.582 24.6325C285.982 24.984 285.268 25.1598 284.44 25.1598ZM284.451 23.402C284.828 23.402 285.142 23.2955 285.394 23.0824C285.646 22.8658 285.836 22.571 285.964 22.1982C286.095 21.8253 286.161 21.4009 286.161 20.9251C286.161 20.4492 286.095 20.0249 285.964 19.652C285.836 19.2791 285.646 18.9844 285.394 18.7678C285.142 18.5511 284.828 18.4428 284.451 18.4428C284.071 18.4428 283.752 18.5511 283.492 18.7678C283.237 18.9844 283.043 19.2791 282.912 19.652C282.784 20.0249 282.72 20.4492 282.72 20.9251C282.72 21.4009 282.784 21.8253 282.912 22.1982C283.043 22.571 283.237 22.8658 283.492 23.0824C283.752 23.2955 284.071 23.402 284.451 23.402ZM294.115 16.8182V18.5227H289.188V16.8182H294.115ZM290.306 14.858H292.575V22.4858C292.575 22.6953 292.607 22.8587 292.671 22.9759C292.735 23.0895 292.824 23.1694 292.938 23.2156C293.055 23.2617 293.19 23.2848 293.342 23.2848C293.449 23.2848 293.556 23.2759 293.662 23.2582C293.769 23.2369 293.85 23.2209 293.907 23.2102L294.264 24.8988C294.15 24.9343 293.991 24.9751 293.785 25.0213C293.579 25.071 293.328 25.1012 293.034 25.1119C292.487 25.1332 292.007 25.0604 291.595 24.8935C291.187 24.7266 290.869 24.4673 290.642 24.1158C290.415 23.7642 290.303 23.3203 290.306 22.7841V14.858ZM297.858 20.2699V25H295.589V14.0909H297.794V18.2617H297.89C298.075 17.7788 298.373 17.4006 298.785 17.1271C299.197 16.8501 299.713 16.7116 300.335 16.7116C300.903 16.7116 301.398 16.8359 301.821 17.0845C302.247 17.3295 302.577 17.6829 302.812 18.1445C303.05 18.6026 303.167 19.1513 303.163 19.7905V25H300.894V20.1953C300.898 19.6911 300.77 19.2987 300.511 19.0181C300.255 18.7376 299.896 18.5973 299.435 18.5973C299.126 18.5973 298.852 18.663 298.614 18.7944C298.38 18.9258 298.195 19.1175 298.06 19.3697C297.929 19.6183 297.862 19.9183 297.858 20.2699ZM308.498 25.1598C307.656 25.1598 306.932 24.9893 306.325 24.6484C305.721 24.304 305.256 23.8175 304.929 23.1889C304.602 22.5568 304.439 21.8093 304.439 20.9464C304.439 20.1048 304.602 19.3661 304.929 18.7305C305.256 18.0948 305.716 17.5994 306.309 17.2443C306.905 16.8892 307.605 16.7116 308.407 16.7116C308.947 16.7116 309.45 16.7987 309.915 16.9727C310.383 17.1431 310.792 17.4006 311.14 17.745C311.491 18.0895 311.765 18.5227 311.96 19.0447C312.156 19.5632 312.253 20.1705 312.253 20.8665V21.4897H305.344V20.0835H310.117C310.117 19.7567 310.046 19.4673 309.904 19.2152C309.762 18.9631 309.565 18.766 309.313 18.6239C309.064 18.4783 308.775 18.4055 308.445 18.4055C308.1 18.4055 307.795 18.4854 307.528 18.6452C307.266 18.8015 307.06 19.0128 306.91 19.2791C306.761 19.5419 306.685 19.8349 306.681 20.158V21.495C306.681 21.8999 306.756 22.2496 306.905 22.5444C307.058 22.8391 307.273 23.0664 307.55 23.2262C307.827 23.386 308.155 23.4659 308.535 23.4659C308.787 23.4659 309.018 23.4304 309.228 23.3594C309.437 23.2884 309.616 23.1818 309.766 23.0398C309.915 22.8977 310.028 22.7237 310.107 22.5178L312.205 22.6562C312.099 23.1605 311.88 23.6009 311.55 23.9773C311.223 24.3501 310.801 24.6413 310.282 24.8509C309.767 25.0568 309.173 25.1598 308.498 25.1598ZM313.554 25V16.8182H315.754V18.2457H315.839C315.988 17.7379 316.239 17.3544 316.59 17.0952C316.942 16.8324 317.347 16.701 317.805 16.701C317.918 16.701 318.041 16.7081 318.172 16.7223C318.304 16.7365 318.419 16.756 318.518 16.7809V18.7944C318.412 18.7624 318.265 18.734 318.076 18.7092C317.888 18.6843 317.716 18.6719 317.56 18.6719C317.226 18.6719 316.928 18.7447 316.665 18.8903C316.406 19.0323 316.2 19.2312 316.047 19.4869C315.898 19.7425 315.823 20.0373 315.823 20.3711V25H313.554ZM322.803 28.0682V16.8182H325.041V18.1925H325.142C325.241 17.9723 325.385 17.7486 325.573 17.5213C325.765 17.2905 326.014 17.0987 326.319 16.946C326.628 16.7898 327.011 16.7116 327.47 16.7116C328.066 16.7116 328.617 16.8679 329.121 17.1804C329.625 17.4893 330.028 17.9563 330.33 18.5813C330.632 19.2028 330.783 19.9822 330.783 20.9197C330.783 21.8324 330.635 22.603 330.341 23.2315C330.049 23.8565 329.652 24.3306 329.147 24.6538C328.647 24.9734 328.086 25.1332 327.464 25.1332C327.024 25.1332 326.649 25.0604 326.34 24.9148C326.035 24.7692 325.785 24.5863 325.589 24.3661C325.394 24.1424 325.245 23.9169 325.142 23.6896H325.073V28.0682H322.803ZM325.025 20.9091C325.025 21.3956 325.092 21.82 325.227 22.1822C325.362 22.5444 325.557 22.8267 325.813 23.0291C326.069 23.228 326.379 23.3274 326.745 23.3274C327.114 23.3274 327.427 23.2262 327.683 23.0238C327.938 22.8178 328.132 22.5337 328.263 22.1715C328.398 21.8058 328.466 21.3849 328.466 20.9091C328.466 20.4368 328.4 20.0213 328.269 19.6626C328.137 19.304 327.944 19.0234 327.688 18.821C327.432 18.6186 327.118 18.5174 326.745 18.5174C326.376 18.5174 326.063 18.6151 325.808 18.8104C325.556 19.0057 325.362 19.2827 325.227 19.6413C325.092 20 325.025 20.4226 325.025 20.9091ZM332.116 25V16.8182H334.315V18.2457H334.401C334.55 17.7379 334.8 17.3544 335.152 17.0952C335.503 16.8324 335.908 16.701 336.366 16.701C336.48 16.701 336.602 16.7081 336.734 16.7223C336.865 16.7365 336.981 16.756 337.08 16.7809V18.7944C336.974 18.7624 336.826 18.734 336.638 18.7092C336.45 18.6843 336.277 18.6719 336.121 18.6719C335.787 18.6719 335.489 18.7447 335.226 18.8903C334.967 19.0323 334.761 19.2312 334.608 19.4869C334.459 19.7425 334.385 20.0373 334.385 20.3711V25H332.116ZM341.389 25.1598C340.562 25.1598 339.846 24.984 339.242 24.6325C338.642 24.2773 338.179 23.7837 337.852 23.1516C337.525 22.516 337.362 21.7791 337.362 20.9411C337.362 20.0959 337.525 19.3572 337.852 18.7251C338.179 18.0895 338.642 17.5959 339.242 17.2443C339.846 16.8892 340.562 16.7116 341.389 16.7116C342.217 16.7116 342.93 16.8892 343.53 17.2443C344.134 17.5959 344.599 18.0895 344.926 18.7251C345.253 19.3572 345.416 20.0959 345.416 20.9411C345.416 21.7791 345.253 22.516 344.926 23.1516C344.599 23.7837 344.134 24.2773 343.53 24.6325C342.93 24.984 342.217 25.1598 341.389 25.1598ZM341.4 23.402C341.776 23.402 342.09 23.2955 342.343 23.0824C342.595 22.8658 342.785 22.571 342.913 22.1982C343.044 21.8253 343.11 21.4009 343.11 20.9251C343.11 20.4492 343.044 20.0249 342.913 19.652C342.785 19.2791 342.595 18.9844 342.343 18.7678C342.09 18.5511 341.776 18.4428 341.4 18.4428C341.02 18.4428 340.7 18.5511 340.441 18.7678C340.185 18.9844 339.992 19.2791 339.86 19.652C339.733 20.0249 339.669 20.4492 339.669 20.9251C339.669 21.4009 339.733 21.8253 339.86 22.1982C339.992 22.571 340.185 22.8658 340.441 23.0824C340.7 23.2955 341.02 23.402 341.4 23.402ZM346.712 16.8182H348.981V25.4048C348.981 26.0369 348.857 26.5483 348.608 26.9389C348.359 27.3295 348.002 27.6154 347.537 27.7965C347.076 27.9776 346.523 28.0682 345.881 28.0682C345.803 28.0682 345.728 28.0664 345.657 28.0629C345.582 28.0629 345.504 28.0611 345.423 28.0575V26.2837C345.483 26.2873 345.536 26.2891 345.582 26.2891C345.625 26.2926 345.671 26.2944 345.721 26.2944C346.087 26.2944 346.342 26.2163 346.488 26.06C346.637 25.9073 346.712 25.6765 346.712 25.3675V16.8182ZM347.841 15.7635C347.507 15.7635 347.219 15.6516 346.978 15.4279C346.736 15.2006 346.616 14.929 346.616 14.6129C346.616 14.3004 346.736 14.0323 346.978 13.8086C347.219 13.5813 347.507 13.4677 347.841 13.4677C348.182 13.4677 348.471 13.5813 348.709 13.8086C348.951 14.0323 349.071 14.3004 349.071 14.6129C349.071 14.929 348.951 15.2006 348.709 15.4279C348.471 15.6516 348.182 15.7635 347.841 15.7635ZM354.347 25.1598C353.506 25.1598 352.781 24.9893 352.174 24.6484C351.57 24.304 351.105 23.8175 350.778 23.1889C350.452 22.5568 350.288 21.8093 350.288 20.9464C350.288 20.1048 350.452 19.3661 350.778 18.7305C351.105 18.0948 351.565 17.5994 352.158 17.2443C352.755 16.8892 353.454 16.7116 354.257 16.7116C354.796 16.7116 355.299 16.7987 355.764 16.9727C356.233 17.1431 356.641 17.4006 356.989 17.745C357.341 18.0895 357.614 18.5227 357.81 19.0447C358.005 19.5632 358.103 20.1705 358.103 20.8665V21.4897H351.194V20.0835H355.967C355.967 19.7567 355.896 19.4673 355.753 19.2152C355.611 18.9631 355.414 18.766 355.162 18.6239C354.914 18.4783 354.624 18.4055 354.294 18.4055C353.949 18.4055 353.644 18.4854 353.378 18.6452C353.115 18.8015 352.909 19.0128 352.76 19.2791C352.611 19.5419 352.534 19.8349 352.531 20.158V21.495C352.531 21.8999 352.605 22.2496 352.755 22.5444C352.907 22.8391 353.122 23.0664 353.399 23.2262C353.676 23.386 354.005 23.4659 354.385 23.4659C354.637 23.4659 354.867 23.4304 355.077 23.3594C355.286 23.2884 355.466 23.1818 355.615 23.0398C355.764 22.8977 355.878 22.7237 355.956 22.5178L358.055 22.6562C357.948 23.1605 357.73 23.6009 357.399 23.9773C357.073 24.3501 356.65 24.6413 356.132 24.8509C355.617 25.0568 355.022 25.1598 354.347 25.1598ZM363.1 25.1598C362.262 25.1598 361.541 24.9822 360.937 24.6271C360.337 24.2685 359.876 23.7713 359.553 23.1357C359.233 22.5 359.073 21.7685 359.073 20.9411C359.073 20.103 359.235 19.3679 359.558 18.7358C359.885 18.1001 360.348 17.6048 360.948 17.2496C361.548 16.891 362.262 16.7116 363.089 16.7116C363.803 16.7116 364.428 16.8413 364.964 17.1005C365.501 17.3597 365.925 17.7237 366.238 18.1925C366.55 18.6612 366.722 19.2116 366.754 19.8438H364.613C364.553 19.4354 364.393 19.1069 364.133 18.8583C363.878 18.6062 363.542 18.4801 363.127 18.4801C362.775 18.4801 362.468 18.576 362.205 18.7678C361.946 18.956 361.744 19.2312 361.598 19.5934C361.452 19.9556 361.38 20.3942 361.38 20.9091C361.38 21.4311 361.451 21.875 361.593 22.2408C361.738 22.6065 361.942 22.8853 362.205 23.0771C362.468 23.2688 362.775 23.3647 363.127 23.3647C363.386 23.3647 363.619 23.3114 363.825 23.2049C364.034 23.0984 364.206 22.9439 364.341 22.7415C364.48 22.5355 364.57 22.2887 364.613 22.0011H366.754C366.719 22.6261 366.548 23.1765 366.243 23.6523C365.941 24.1246 365.524 24.494 364.991 24.7603C364.458 25.0266 363.828 25.1598 363.1 25.1598ZM372.379 16.8182V18.5227H367.452V16.8182H372.379ZM368.57 14.858H370.84V22.4858C370.84 22.6953 370.872 22.8587 370.935 22.9759C370.999 23.0895 371.088 23.1694 371.202 23.2156C371.319 23.2617 371.454 23.2848 371.607 23.2848C371.713 23.2848 371.82 23.2759 371.926 23.2582C372.033 23.2369 372.114 23.2209 372.171 23.2102L372.528 24.8988C372.415 24.9343 372.255 24.9751 372.049 25.0213C371.843 25.071 371.592 25.1012 371.298 25.1119C370.751 25.1332 370.271 25.0604 369.859 24.8935C369.451 24.7266 369.133 24.4673 368.906 24.1158C368.679 23.7642 368.567 23.3203 368.57 22.7841V14.858ZM380.382 19.1513L378.305 19.2791C378.269 19.1016 378.193 18.9418 378.076 18.7997C377.959 18.6541 377.804 18.5387 377.612 18.4535C377.424 18.3647 377.199 18.3203 376.936 18.3203C376.584 18.3203 376.288 18.3949 376.046 18.544C375.805 18.6896 375.684 18.8849 375.684 19.13C375.684 19.3253 375.762 19.4904 375.918 19.6254C376.075 19.7603 376.343 19.8686 376.723 19.9503L378.204 20.2486C378.999 20.4119 379.592 20.6747 379.983 21.0369C380.373 21.3991 380.569 21.875 380.569 22.4645C380.569 23.0007 380.411 23.4712 380.095 23.8761C379.782 24.2809 379.352 24.5969 378.805 24.8242C378.262 25.0479 377.635 25.1598 376.925 25.1598C375.842 25.1598 374.979 24.9343 374.336 24.4833C373.697 24.0288 373.322 23.4109 373.212 22.6296L375.444 22.5124C375.512 22.8427 375.675 23.0948 375.934 23.2688C376.194 23.4393 376.526 23.5245 376.93 23.5245C377.328 23.5245 377.648 23.4482 377.889 23.2955C378.134 23.1392 378.259 22.9386 378.262 22.6935C378.259 22.4876 378.172 22.3189 378.001 22.1875C377.831 22.0526 377.568 21.9496 377.213 21.8786L375.796 21.5962C374.997 21.4364 374.402 21.1594 374.011 20.7653C373.624 20.3711 373.431 19.8686 373.431 19.2578C373.431 18.7322 373.573 18.2795 373.857 17.8995C374.145 17.5195 374.548 17.2266 375.066 17.0206C375.588 16.8146 376.199 16.7116 376.898 16.7116C377.932 16.7116 378.745 16.93 379.338 17.3668C379.935 17.8036 380.283 18.3984 380.382 19.1513Z" fill="#F1EFEF"/>
<rect x="401.5" width="168" height="40" rx="8" fill="#FFDD00"/>
<path fill-rule="evenodd" clip-rule="evenodd" d="M425.287 12.7702C424.623 12.8777 424.199 13.0189 424.017 13.1324C423.906 13.2017 423.795 13.3088 423.644 13.5704C423.481 13.8529 423.311 14.2397 423.05 14.8421L422.936 15.1042H432.063L431.95 14.8421C431.689 14.2397 431.519 13.8529 431.356 13.5704C431.205 13.3088 431.094 13.2017 430.983 13.1324C430.765 12.9962 430.313 12.8494 429.638 12.7458C428.989 12.6463 428.224 12.5992 427.451 12.6046C426.679 12.61 425.921 12.6678 425.287 12.7702ZM433.88 15.1042L433.461 14.1382C433.223 13.588 433.016 13.1117 432.799 12.736C432.564 12.3301 432.283 11.9796 431.865 11.7186C431.349 11.396 430.618 11.21 429.89 11.0984C429.136 10.9826 428.28 10.9321 427.44 10.938C426.599 10.9439 425.754 11.0064 425.021 11.1249C424.32 11.2383 423.615 11.4187 423.135 11.7186C422.716 11.9796 422.436 12.3301 422.201 12.736C421.984 13.1117 421.777 13.588 421.539 14.1383C421.533 14.1518 421.527 14.1653 421.521 14.1789L421.12 15.1042H420.833C420.373 15.1042 420 15.4773 420 15.9375C420 16.3977 420.373 16.7708 420.833 16.7708H421.648C421.66 16.7711 421.673 16.7711 421.685 16.7708H433.315C433.328 16.7711 433.34 16.7711 433.353 16.7708H434.167C434.627 16.7708 435 16.3977 435 15.9375C435 15.4773 434.627 15.1042 434.167 15.1042H433.88Z" fill="#0D0D0E"/>
<path fill-rule="evenodd" clip-rule="evenodd" d="M432.127 26.5327C432.255 26.0612 432.355 25.4707 432.478 24.7437L434.074 15.3125H420.928L422.523 24.7437C422.646 25.4707 422.746 26.0612 422.874 26.5327C423.007 27.0222 423.185 27.4401 423.495 27.7983C423.915 28.283 424.571 28.5889 425.244 28.7772C425.934 28.9702 426.724 29.0625 427.501 29.0625C428.278 29.0625 429.068 28.9702 429.757 28.7772C430.43 28.5889 431.086 28.283 431.506 27.7983C431.817 27.4401 431.994 27.0222 432.127 26.5327ZM426.458 22.1875C426.458 21.2447 427.048 20.7292 427.5 20.7292C427.952 20.7292 428.542 21.2447 428.542 22.1875C428.542 23.1302 427.952 23.6458 427.5 23.6458C427.048 23.6458 426.458 23.1302 426.458 22.1875ZM427.5 19.4792C426.111 19.4792 425.208 20.8291 425.208 22.1875C425.208 23.5459 426.111 24.8958 427.5 24.8958C428.889 24.8958 429.792 23.5459 429.792 22.1875C429.792 20.8291 428.889 19.4792 427.5 19.4792Z" fill="#0D0D0E"/>
<path d="M444.649 25V14.0909H449.016C449.819 14.0909 450.488 14.2099 451.025 14.4478C451.561 14.6857 451.964 15.016 452.234 15.4386C452.504 15.8576 452.639 16.3406 452.639 16.8874C452.639 17.3136 452.553 17.6882 452.383 18.0114C452.213 18.331 451.978 18.5937 451.68 18.7997C451.385 19.0021 451.048 19.146 450.668 19.2312V19.3377C451.083 19.3555 451.472 19.4727 451.834 19.6893C452.2 19.9059 452.497 20.2095 452.724 20.6001C452.951 20.9872 453.065 21.4489 453.065 21.9851C453.065 22.5639 452.921 23.0806 452.633 23.5352C452.349 23.9862 451.928 24.343 451.371 24.6058C450.813 24.8686 450.126 25 449.309 25H444.649ZM446.955 23.1143H448.835C449.478 23.1143 449.947 22.9918 450.242 22.7468C450.536 22.4982 450.684 22.168 450.684 21.756C450.684 21.4542 450.611 21.1879 450.465 20.957C450.32 20.7262 450.112 20.5451 449.842 20.4137C449.576 20.2823 449.258 20.2166 448.889 20.2166H446.955V23.1143ZM446.955 18.6559H448.665C448.981 18.6559 449.262 18.6009 449.507 18.4908C449.755 18.3771 449.95 18.2173 450.092 18.0114C450.238 17.8054 450.311 17.5586 450.311 17.271C450.311 16.8768 450.171 16.5589 449.89 16.3175C449.613 16.076 449.219 15.9553 448.708 15.9553H446.955V18.6559ZM459.59 21.5163V16.8182H461.859V25H459.68V23.5138H459.595C459.41 23.9933 459.103 24.3786 458.674 24.6697C458.247 24.9609 457.727 25.1065 457.113 25.1065C456.566 25.1065 456.085 24.9822 455.669 24.7337C455.254 24.4851 454.929 24.1317 454.695 23.6737C454.464 23.2156 454.347 22.6669 454.343 22.0277V16.8182H456.612V21.6229C456.616 22.1058 456.745 22.4876 457.001 22.7681C457.257 23.0487 457.599 23.1889 458.029 23.1889C458.302 23.1889 458.558 23.1268 458.796 23.0025C459.034 22.8746 459.226 22.6864 459.371 22.4379C459.521 22.1893 459.593 21.8821 459.59 21.5163ZM464.895 28.0682C464.607 28.0682 464.337 28.0451 464.085 27.9989C463.837 27.9563 463.631 27.9013 463.467 27.8338L463.979 26.1399C464.245 26.2216 464.485 26.266 464.698 26.2731C464.914 26.2802 465.101 26.2305 465.257 26.1239C465.417 26.0174 465.547 25.8363 465.646 25.5806L465.779 25.2344L462.844 16.8182H465.231L466.924 22.8267H467.01L468.72 16.8182H471.122L467.942 25.8842C467.789 26.3246 467.581 26.7081 467.319 27.0348C467.059 27.3651 466.731 27.619 466.333 27.7965C465.935 27.9776 465.456 28.0682 464.895 28.0682ZM480.642 21.5163V16.8182H482.911V25H480.732V23.5138H480.647C480.462 23.9933 480.155 24.3786 479.725 24.6697C479.299 24.9609 478.779 25.1065 478.165 25.1065C477.618 25.1065 477.137 24.9822 476.721 24.7337C476.306 24.4851 475.981 24.1317 475.746 23.6737C475.515 23.2156 475.398 22.6669 475.395 22.0277V16.8182H477.664V21.6229C477.667 22.1058 477.797 22.4876 478.053 22.7681C478.308 23.0487 478.651 23.1889 479.081 23.1889C479.354 23.1889 479.61 23.1268 479.848 23.0025C480.086 22.8746 480.278 22.6864 480.423 22.4379C480.572 22.1893 480.645 21.8821 480.642 21.5163ZM491.353 19.1513L489.276 19.2791C489.24 19.1016 489.164 18.9418 489.047 18.7997C488.93 18.6541 488.775 18.5387 488.583 18.4535C488.395 18.3647 488.17 18.3203 487.907 18.3203C487.555 18.3203 487.259 18.3949 487.017 18.544C486.776 18.6896 486.655 18.8849 486.655 19.13C486.655 19.3253 486.733 19.4904 486.89 19.6254C487.046 19.7603 487.314 19.8686 487.694 19.9503L489.175 20.2486C489.97 20.4119 490.563 20.6747 490.954 21.0369C491.344 21.3991 491.54 21.875 491.54 22.4645C491.54 23.0007 491.382 23.4712 491.066 23.8761C490.753 24.2809 490.324 24.5969 489.777 24.8242C489.233 25.0479 488.607 25.1598 487.896 25.1598C486.813 25.1598 485.95 24.9343 485.308 24.4833C484.668 24.0288 484.294 23.4109 484.184 22.6296L486.415 22.5124C486.483 22.8427 486.646 23.0948 486.906 23.2688C487.165 23.4393 487.497 23.5245 487.902 23.5245C488.299 23.5245 488.619 23.4482 488.86 23.2955C489.105 23.1392 489.23 22.9386 489.233 22.6935C489.23 22.4876 489.143 22.3189 488.972 22.1875C488.802 22.0526 488.539 21.9496 488.184 21.8786L486.767 21.5962C485.968 21.4364 485.373 21.1594 484.983 20.7653C484.596 20.3711 484.402 19.8686 484.402 19.2578C484.402 18.7322 484.544 18.2795 484.828 17.8995C485.116 17.5195 485.519 17.2266 486.037 17.0206C486.559 16.8146 487.17 16.7116 487.87 16.7116C488.903 16.7116 489.716 16.93 490.309 17.3668C490.906 17.8036 491.254 18.3984 491.353 19.1513ZM498.413 25.1545C497.891 25.1545 497.426 25.0639 497.018 24.8828C496.609 24.6982 496.286 24.4265 496.048 24.0678C495.814 23.7056 495.697 23.2546 495.697 22.7148C495.697 22.2603 495.78 21.8786 495.947 21.5696C496.114 21.2607 496.341 21.0121 496.629 20.8239C496.917 20.6357 497.243 20.4936 497.609 20.3977C497.978 20.3018 498.366 20.2344 498.77 20.1953C499.246 20.1456 499.63 20.0994 499.921 20.0568C500.212 20.0107 500.423 19.9432 500.555 19.8544C500.686 19.7656 500.752 19.6342 500.752 19.4602V19.4283C500.752 19.0909 500.645 18.8299 500.432 18.6452C500.223 18.4606 499.924 18.3683 499.537 18.3683C499.129 18.3683 498.804 18.4588 498.563 18.6399C498.321 18.8175 498.161 19.0412 498.083 19.3111L495.984 19.1406C496.091 18.6435 496.301 18.2138 496.613 17.8516C496.926 17.4858 497.329 17.2053 497.822 17.0099C498.319 16.8111 498.895 16.7116 499.548 16.7116C500.003 16.7116 500.438 16.7649 500.853 16.8714C501.272 16.978 501.643 17.1431 501.966 17.3668C502.293 17.5906 502.551 17.8782 502.739 18.2298C502.927 18.5778 503.021 18.995 503.021 19.4815V25H500.869V23.8654H500.805C500.674 24.1211 500.498 24.3466 500.278 24.5419C500.058 24.7337 499.793 24.8846 499.484 24.9947C499.175 25.1012 498.818 25.1545 498.413 25.1545ZM499.063 23.5884C499.397 23.5884 499.692 23.5227 499.948 23.3913C500.203 23.2564 500.404 23.0753 500.549 22.848C500.695 22.6207 500.768 22.3633 500.768 22.0756V21.2074C500.697 21.2536 500.599 21.2962 500.475 21.3352C500.354 21.3707 500.217 21.4045 500.065 21.4364C499.912 21.4648 499.759 21.4915 499.607 21.5163C499.454 21.5376 499.315 21.5572 499.191 21.5749C498.925 21.614 498.692 21.6761 498.493 21.7614C498.294 21.8466 498.14 21.962 498.03 22.1076C497.92 22.2496 497.865 22.4272 497.865 22.6403C497.865 22.9492 497.977 23.1854 498.2 23.3487C498.428 23.5085 498.715 23.5884 499.063 23.5884ZM511.59 25.1598C510.752 25.1598 510.031 24.9822 509.427 24.6271C508.827 24.2685 508.365 23.7713 508.042 23.1357C507.723 22.5 507.563 21.7685 507.563 20.9411C507.563 20.103 507.725 19.3679 508.048 18.7358C508.374 18.1001 508.838 17.6048 509.438 17.2496C510.038 16.891 510.752 16.7116 511.579 16.7116C512.293 16.7116 512.918 16.8413 513.454 17.1005C513.99 17.3597 514.415 17.7237 514.727 18.1925C515.04 18.6612 515.212 19.2116 515.244 19.8438H513.103C513.042 19.4354 512.883 19.1069 512.623 18.8583C512.368 18.6062 512.032 18.4801 511.617 18.4801C511.265 18.4801 510.958 18.576 510.695 18.7678C510.436 18.956 510.233 19.2312 510.088 19.5934C509.942 19.9556 509.869 20.3942 509.869 20.9091C509.869 21.4311 509.94 21.875 510.082 22.2408C510.228 22.6065 510.432 22.8853 510.695 23.0771C510.958 23.2688 511.265 23.3647 511.617 23.3647C511.876 23.3647 512.108 23.3114 512.314 23.2049C512.524 23.0984 512.696 22.9439 512.831 22.7415C512.97 22.5355 513.06 22.2887 513.103 22.0011H515.244C515.209 22.6261 515.038 23.1765 514.733 23.6523C514.431 24.1246 514.014 24.494 513.481 24.7603C512.948 25.0266 512.318 25.1598 511.59 25.1598ZM520.214 25.1598C519.386 25.1598 518.671 24.984 518.067 24.6325C517.467 24.2773 517.003 23.7837 516.677 23.1516C516.35 22.516 516.187 21.7791 516.187 20.9411C516.187 20.0959 516.35 19.3572 516.677 18.7251C517.003 18.0895 517.467 17.5959 518.067 17.2443C518.671 16.8892 519.386 16.7116 520.214 16.7116C521.041 16.7116 521.755 16.8892 522.355 17.2443C522.959 17.5959 523.424 18.0895 523.751 18.7251C524.077 19.3572 524.241 20.0959 524.241 20.9411C524.241 21.7791 524.077 22.516 523.751 23.1516C523.424 23.7837 522.959 24.2773 522.355 24.6325C521.755 24.984 521.041 25.1598 520.214 25.1598ZM520.224 23.402C520.601 23.402 520.915 23.2955 521.167 23.0824C521.419 22.8658 521.609 22.571 521.737 22.1982C521.868 21.8253 521.934 21.4009 521.934 20.9251C521.934 20.4492 521.868 20.0249 521.737 19.652C521.609 19.2791 521.419 18.9844 521.167 18.7678C520.915 18.5511 520.601 18.4428 520.224 18.4428C519.844 18.4428 519.525 18.5511 519.265 18.7678C519.01 18.9844 518.816 19.2791 518.685 19.652C518.557 20.0249 518.493 20.4492 518.493 20.9251C518.493 21.4009 518.557 21.8253 518.685 22.1982C518.816 22.571 519.01 22.8658 519.265 23.0824C519.525 23.2955 519.844 23.402 520.224 23.402ZM529.936 16.8182V18.5227H524.886V16.8182H529.936ZM526.042 25V16.2269C526.042 15.6339 526.158 15.142 526.388 14.7514C526.623 14.3608 526.942 14.0678 527.347 13.8725C527.752 13.6772 528.212 13.5795 528.727 13.5795C529.075 13.5795 529.393 13.6062 529.68 13.6594C529.971 13.7127 530.188 13.7607 530.33 13.8033L529.925 15.5078C529.837 15.4794 529.726 15.4528 529.595 15.4279C529.467 15.4031 529.336 15.3906 529.201 15.3906C528.867 15.3906 528.634 15.4688 528.503 15.625C528.372 15.7777 528.306 15.9925 528.306 16.2695V25H526.042ZM535.542 16.8182V18.5227H530.492V16.8182H535.542ZM531.648 25V16.2269C531.648 15.6339 531.764 15.142 531.995 14.7514C532.229 14.3608 532.548 14.0678 532.953 13.8725C533.358 13.6772 533.818 13.5795 534.333 13.5795C534.681 13.5795 534.999 13.6062 535.286 13.6594C535.578 13.7127 535.794 13.7607 535.936 13.8033L535.531 15.5078C535.443 15.4794 535.333 15.4528 535.201 15.4279C535.073 15.4031 534.942 15.3906 534.807 15.3906C534.473 15.3906 534.241 15.4688 534.109 15.625C533.978 15.7777 533.912 15.9925 533.912 16.2695V25H531.648ZM540.184 25.1598C539.342 25.1598 538.618 24.9893 538.011 24.6484C537.407 24.304 536.942 23.8175 536.615 23.1889C536.289 22.5568 536.125 21.8093 536.125 20.9464C536.125 20.1048 536.289 19.3661 536.615 18.7305C536.942 18.0948 537.402 17.5994 537.995 17.2443C538.591 16.8892 539.291 16.7116 540.094 16.7116C540.633 16.7116 541.136 16.7987 541.601 16.9727C542.07 17.1431 542.478 17.4006 542.826 17.745C543.178 18.0895 543.451 18.5227 543.646 19.0447C543.842 19.5632 543.939 20.1705 543.939 20.8665V21.4897H537.031V20.0835H541.803C541.803 19.7567 541.732 19.4673 541.59 19.2152C541.448 18.9631 541.251 18.766 540.999 18.6239C540.751 18.4783 540.461 18.4055 540.131 18.4055C539.786 18.4055 539.481 18.4854 539.215 18.6452C538.952 18.8015 538.746 19.0128 538.597 19.2791C538.448 19.5419 538.371 19.8349 538.368 20.158V21.495C538.368 21.8999 538.442 22.2496 538.591 22.5444C538.744 22.8391 538.959 23.0664 539.236 23.2262C539.513 23.386 539.841 23.4659 540.221 23.4659C540.474 23.4659 540.704 23.4304 540.914 23.3594C541.123 23.2884 541.303 23.1818 541.452 23.0398C541.601 22.8977 541.715 22.7237 541.793 22.5178L543.892 22.6562C543.785 23.1605 543.567 23.6009 543.236 23.9773C542.91 24.3501 542.487 24.6413 541.969 24.8509C541.454 25.0568 540.859 25.1598 540.184 25.1598ZM548.969 25.1598C548.127 25.1598 547.403 24.9893 546.796 24.6484C546.192 24.304 545.727 23.8175 545.4 23.1889C545.073 22.5568 544.91 21.8093 544.91 20.9464C544.91 20.1048 545.073 19.3661 545.4 18.7305C545.727 18.0948 546.187 17.5994 546.78 17.2443C547.376 16.8892 548.076 16.7116 548.878 16.7116C549.418 16.7116 549.921 16.7987 550.386 16.9727C550.855 17.1431 551.263 17.4006 551.611 17.745C551.963 18.0895 552.236 18.5227 552.431 19.0447C552.627 19.5632 552.724 20.1705 552.724 20.8665V21.4897H545.816V20.0835H550.588C550.588 19.7567 550.517 19.4673 550.375 19.2152C550.233 18.9631 550.036 18.766 549.784 18.6239C549.535 18.4783 549.246 18.4055 548.916 18.4055C548.571 18.4055 548.266 18.4854 548 18.6452C547.737 18.8015 547.531 19.0128 547.382 19.2791C547.232 19.5419 547.156 19.8349 547.153 20.158V21.495C547.153 21.8999 547.227 22.2496 547.376 22.5444C547.529 22.8391 547.744 23.0664 548.021 23.2262C548.298 23.386 548.626 23.4659 549.006 23.4659C549.258 23.4659 549.489 23.4304 549.699 23.3594C549.908 23.2884 550.088 23.1818 550.237 23.0398C550.386 22.8977 550.5 22.7237 550.578 22.5178L552.676 22.6562C552.57 23.1605 552.351 23.6009 552.021 23.9773C551.694 24.3501 551.272 24.6413 550.753 24.8509C550.238 25.0568 549.644 25.1598 548.969 25.1598Z" fill="#0D0D0E"/>
<rect x="574" y="0.5" width="198" height="39" rx="7.5" fill="#080808"/>
<rect x="574" y="0.5" width="198" height="39" rx="7.5" stroke="#4B4B4B"/>
<path d="M590.541 20C590.541 17.5838 592.5 15.625 594.916 15.625C597.332 15.625 599.291 17.5838 599.291 20C599.291 22.4162 597.332 24.375 594.916 24.375C592.5 24.375 590.541 22.4162 590.541 20Z" fill="#F1EFEF"/>
<path d="M600.398 17.0448C600.824 16.2782 601.512 15.625 602.417 15.625C603.323 15.625 604.011 16.2782 604.437 17.0448C604.874 17.8327 605.126 18.8787 605.126 20C605.126 21.1213 604.874 22.1673 604.437 22.9552C604.011 23.7218 603.323 24.375 602.417 24.375C601.512 24.375 600.824 23.7218 600.398 22.9552C599.96 22.1673 599.709 21.1213 599.709 20C599.709 18.8787 599.96 17.8327 600.398 17.0448Z" fill="#F1EFEF"/>
<path d="M606.408 15.8664C606.538 15.747 606.738 15.625 606.999 15.625C607.261 15.625 607.461 15.747 607.591 15.8664C607.717 15.9828 607.809 16.1244 607.877 16.254C608.014 16.5145 608.118 16.8503 608.199 17.2128C608.362 17.9478 608.458 18.9329 608.458 20C608.458 21.0671 608.362 22.0522 608.199 22.7872C608.118 23.1497 608.014 23.4855 607.877 23.746C607.809 23.8756 607.717 24.0172 607.591 24.1336C607.461 24.2531 607.261 24.375 606.999 24.375C606.738 24.375 606.538 24.2531 606.408 24.1336C606.282 24.0172 606.19 23.8756 606.122 23.746C605.985 23.4855 605.881 23.1497 605.8 22.7872C605.637 22.0522 605.541 21.0671 605.541 20C605.541 18.9329 605.637 17.9478 605.8 17.2128C605.881 16.8503 605.985 16.5145 606.122 16.254C606.19 16.1244 606.282 15.9828 606.408 15.8664Z" fill="#F1EFEF"/>
<path d="M616.918 25V14.0909H621.222C622.046 14.0909 622.749 14.2383 623.332 14.533C623.918 14.8242 624.363 15.2379 624.669 15.7741C624.978 16.3068 625.132 16.9336 625.132 17.6545C625.132 18.3789 624.976 19.0021 624.663 19.5241C624.351 20.0426 623.898 20.4403 623.305 20.7173C622.716 20.9943 622.002 21.1328 621.164 21.1328H618.282V19.2791H620.791C621.231 19.2791 621.597 19.2187 621.888 19.098C622.179 18.9773 622.396 18.7962 622.538 18.5547C622.684 18.3132 622.756 18.0131 622.756 17.6545C622.756 17.2923 622.684 16.9869 622.538 16.7383C622.396 16.4897 622.178 16.3015 621.883 16.1737C621.592 16.0423 621.224 15.9766 620.78 15.9766H619.225V25H616.918ZM622.81 20.0355L625.521 25H622.975L620.322 20.0355H622.81ZM630.136 25.1598C629.295 25.1598 628.57 24.9893 627.963 24.6484C627.359 24.304 626.894 23.8175 626.568 23.1889C626.241 22.5568 626.077 21.8093 626.077 20.9464C626.077 20.1048 626.241 19.3661 626.568 18.7305C626.894 18.0948 627.354 17.5994 627.947 17.2443C628.544 16.8892 629.243 16.7116 630.046 16.7116C630.586 16.7116 631.088 16.7987 631.553 16.9727C632.022 17.1431 632.43 17.4006 632.778 17.745C633.13 18.0895 633.403 18.5227 633.599 19.0447C633.794 19.5632 633.892 20.1705 633.892 20.8665V21.4897H626.983V20.0835H631.756C631.756 19.7567 631.685 19.4673 631.543 19.2152C631.401 18.9631 631.204 18.766 630.951 18.6239C630.703 18.4783 630.413 18.4055 630.083 18.4055C629.739 18.4055 629.433 18.4854 629.167 18.6452C628.904 18.8015 628.698 19.0128 628.549 19.2791C628.4 19.5419 628.324 19.8349 628.32 20.158V21.495C628.32 21.8999 628.395 22.2496 628.544 22.5444C628.696 22.8391 628.911 23.0664 629.188 23.2262C629.465 23.386 629.794 23.4659 630.174 23.4659C630.426 23.4659 630.657 23.4304 630.866 23.3594C631.076 23.2884 631.255 23.1818 631.404 23.0398C631.553 22.8977 631.667 22.7237 631.745 22.5178L633.844 22.6562C633.737 23.1605 633.519 23.6009 633.189 23.9773C632.862 24.3501 632.439 24.6413 631.921 24.8509C631.406 25.0568 630.811 25.1598 630.136 25.1598ZM637.526 25.1545C637.004 25.1545 636.538 25.0639 636.13 24.8828C635.722 24.6982 635.399 24.4265 635.161 24.0678C634.926 23.7056 634.809 23.2546 634.809 22.7148C634.809 22.2603 634.893 21.8786 635.059 21.5696C635.226 21.2607 635.454 21.0121 635.741 20.8239C636.029 20.6357 636.356 20.4936 636.721 20.3977C637.091 20.3018 637.478 20.2344 637.883 20.1953C638.358 20.1456 638.742 20.0994 639.033 20.0568C639.324 20.0107 639.536 19.9432 639.667 19.8544C639.798 19.7656 639.864 19.6342 639.864 19.4602V19.4283C639.864 19.0909 639.758 18.8299 639.544 18.6452C639.335 18.4606 639.037 18.3683 638.65 18.3683C638.241 18.3683 637.916 18.4588 637.675 18.6399C637.433 18.8175 637.274 19.0412 637.195 19.3111L635.097 19.1406C635.203 18.6435 635.413 18.2138 635.725 17.8516C636.038 17.4858 636.441 17.2053 636.934 17.0099C637.432 16.8111 638.007 16.7116 638.66 16.7116C639.115 16.7116 639.55 16.7649 639.965 16.8714C640.384 16.978 640.755 17.1431 641.079 17.3668C641.405 17.5906 641.663 17.8782 641.851 18.2298C642.039 18.5778 642.133 18.995 642.133 19.4815V25H639.981V23.8654H639.917C639.786 24.1211 639.61 24.3466 639.39 24.5419C639.17 24.7337 638.905 24.8846 638.596 24.9947C638.287 25.1012 637.93 25.1545 637.526 25.1545ZM638.176 23.5884C638.509 23.5884 638.804 23.5227 639.06 23.3913C639.315 23.2564 639.516 23.0753 639.662 22.848C639.807 22.6207 639.88 22.3633 639.88 22.0756V21.2074C639.809 21.2536 639.711 21.2962 639.587 21.3352C639.466 21.3707 639.33 21.4045 639.177 21.4364C639.024 21.4648 638.872 21.4915 638.719 21.5163C638.566 21.5376 638.428 21.5572 638.303 21.5749C638.037 21.614 637.804 21.6761 637.606 21.7614C637.407 21.8466 637.252 21.962 637.142 22.1076C637.032 22.2496 636.977 22.4272 636.977 22.6403C636.977 22.9492 637.089 23.1854 637.313 23.3487C637.54 23.5085 637.828 23.5884 638.176 23.5884ZM646.729 25.1332C646.107 25.1332 645.544 24.9734 645.04 24.6538C644.539 24.3306 644.142 23.8565 643.847 23.2315C643.556 22.603 643.41 21.8324 643.41 20.9197C643.41 19.9822 643.561 19.2028 643.863 18.5813C644.165 17.9563 644.566 17.4893 645.067 17.1804C645.571 16.8679 646.123 16.7116 646.723 16.7116C647.181 16.7116 647.563 16.7898 647.869 16.946C648.178 17.0987 648.426 17.2905 648.614 17.5213C648.806 17.7486 648.952 17.9723 649.051 18.1925H649.12V14.0909H651.384V25H649.147V23.6896H649.051C648.945 23.9169 648.794 24.1424 648.598 24.3661C648.407 24.5863 648.156 24.7692 647.847 24.9148C647.542 25.0604 647.169 25.1332 646.729 25.1332ZM647.448 23.3274C647.814 23.3274 648.122 23.228 648.375 23.0291C648.63 22.8267 648.826 22.5444 648.961 22.1822C649.099 21.82 649.168 21.3956 649.168 20.9091C649.168 20.4226 649.101 20 648.966 19.6413C648.831 19.2827 648.636 19.0057 648.38 18.8104C648.124 18.6151 647.814 18.5174 647.448 18.5174C647.075 18.5174 646.761 18.6186 646.505 18.821C646.249 19.0234 646.056 19.304 645.924 19.6626C645.793 20.0213 645.727 20.4368 645.727 20.9091C645.727 21.3849 645.793 21.8058 645.924 22.1715C646.059 22.5337 646.253 22.8178 646.505 23.0238C646.761 23.2262 647.075 23.3274 647.448 23.3274ZM661.608 21.5163V16.8182H663.878V25H661.699V23.5138H661.614C661.429 23.9933 661.122 24.3786 660.692 24.6697C660.266 24.9609 659.746 25.1065 659.131 25.1065C658.585 25.1065 658.103 24.9822 657.688 24.7337C657.272 24.4851 656.947 24.1317 656.713 23.6737C656.482 23.2156 656.365 22.6669 656.362 22.0277V16.8182H658.631V21.6229C658.634 22.1058 658.764 22.4876 659.02 22.7681C659.275 23.0487 659.618 23.1889 660.048 23.1889C660.321 23.1889 660.577 23.1268 660.815 23.0025C661.053 22.8746 661.244 22.6864 661.39 22.4379C661.539 22.1893 661.612 21.8821 661.608 21.5163ZM672.32 19.1513L670.243 19.2791C670.207 19.1016 670.131 18.9418 670.014 18.7997C669.896 18.6541 669.742 18.5387 669.55 18.4535C669.362 18.3647 669.137 18.3203 668.874 18.3203C668.522 18.3203 668.226 18.3949 667.984 18.544C667.743 18.6896 667.622 18.8849 667.622 19.13C667.622 19.3253 667.7 19.4904 667.856 19.6254C668.013 19.7603 668.281 19.8686 668.661 19.9503L670.142 20.2486C670.937 20.4119 671.53 20.6747 671.921 21.0369C672.311 21.3991 672.507 21.875 672.507 22.4645C672.507 23.0007 672.349 23.4712 672.032 23.8761C671.72 24.2809 671.29 24.5969 670.743 24.8242C670.2 25.0479 669.573 25.1598 668.863 25.1598C667.78 25.1598 666.917 24.9343 666.274 24.4833C665.635 24.0288 665.26 23.4109 665.15 22.6296L667.382 22.5124C667.45 22.8427 667.613 23.0948 667.872 23.2688C668.132 23.4393 668.464 23.5245 668.868 23.5245C669.266 23.5245 669.586 23.4482 669.827 23.2955C670.072 23.1392 670.197 22.9386 670.2 22.6935C670.197 22.4876 670.11 22.3189 669.939 22.1875C669.769 22.0526 669.506 21.9496 669.151 21.8786L667.734 21.5962C666.935 21.4364 666.34 21.1594 665.949 20.7653C665.562 20.3711 665.369 19.8686 665.369 19.2578C665.369 18.7322 665.511 18.2795 665.795 17.8995C666.083 17.5195 666.486 17.2266 667.004 17.0206C667.526 16.8146 668.137 16.7116 668.836 16.7116C669.87 16.7116 670.683 16.93 671.276 17.3668C671.873 17.8036 672.221 18.3984 672.32 19.1513ZM680.744 25.1598C679.916 25.1598 679.201 24.984 678.597 24.6325C677.997 24.2773 677.534 23.7837 677.207 23.1516C676.88 22.516 676.717 21.7791 676.717 20.9411C676.717 20.0959 676.88 19.3572 677.207 18.7251C677.534 18.0895 677.997 17.5959 678.597 17.2443C679.201 16.8892 679.916 16.7116 680.744 16.7116C681.571 16.7116 682.285 16.8892 682.885 17.2443C683.489 17.5959 683.954 18.0895 684.281 18.7251C684.608 19.3572 684.771 20.0959 684.771 20.9411C684.771 21.7791 684.608 22.516 684.281 23.1516C683.954 23.7837 683.489 24.2773 682.885 24.6325C682.285 24.984 681.571 25.1598 680.744 25.1598ZM680.755 23.402C681.131 23.402 681.445 23.2955 681.697 23.0824C681.949 22.8658 682.139 22.571 682.267 22.1982C682.399 21.8253 682.464 21.4009 682.464 20.9251C682.464 20.4492 682.399 20.0249 682.267 19.652C682.139 19.2791 681.949 18.9844 681.697 18.7678C681.445 18.5511 681.131 18.4428 680.755 18.4428C680.375 18.4428 680.055 18.5511 679.796 18.7678C679.54 18.9844 679.347 19.2791 679.215 19.652C679.087 20.0249 679.023 20.4492 679.023 20.9251C679.023 21.4009 679.087 21.8253 679.215 22.1982C679.347 22.571 679.54 22.8658 679.796 23.0824C680.055 23.2955 680.375 23.402 680.755 23.402ZM688.336 20.2699V25H686.066V16.8182H688.229V18.2617H688.325C688.506 17.7859 688.81 17.4094 689.236 17.1325C689.662 16.8519 690.179 16.7116 690.786 16.7116C691.354 16.7116 691.849 16.8359 692.272 17.0845C692.695 17.3331 693.023 17.6882 693.257 18.1499C693.492 18.608 693.609 19.1548 693.609 19.7905V25H691.34V20.1953C691.343 19.6946 691.216 19.304 690.956 19.0234C690.697 18.7393 690.34 18.5973 689.886 18.5973C689.58 18.5973 689.31 18.663 689.076 18.7944C688.845 18.9258 688.664 19.1175 688.533 19.3697C688.405 19.6183 688.339 19.9183 688.336 20.2699ZM698.552 14.0909H701.396L704.4 21.4205H704.528L707.533 14.0909H710.377V25H708.14V17.8995H708.049L705.226 24.9467H703.703L700.879 17.8729H700.789V25H698.552V14.0909ZM715.783 25.1598C714.942 25.1598 714.217 24.9893 713.61 24.6484C713.006 24.304 712.541 23.8175 712.214 23.1889C711.888 22.5568 711.724 21.8093 711.724 20.9464C711.724 20.1048 711.888 19.3661 712.214 18.7305C712.541 18.0948 713.001 17.5994 713.594 17.2443C714.191 16.8892 714.89 16.7116 715.693 16.7116C716.233 16.7116 716.735 16.7987 717.2 16.9727C717.669 17.1431 718.077 17.4006 718.425 17.745C718.777 18.0895 719.05 18.5227 719.246 19.0447C719.441 19.5632 719.539 20.1705 719.539 20.8665V21.4897H712.63V20.0835H717.403C717.403 19.7567 717.332 19.4673 717.19 19.2152C717.048 18.9631 716.85 18.766 716.598 18.6239C716.35 18.4783 716.06 18.4055 715.73 18.4055C715.386 18.4055 715.08 18.4854 714.814 18.6452C714.551 18.8015 714.345 19.0128 714.196 19.2791C714.047 19.5419 713.971 19.8349 713.967 20.158V21.495C713.967 21.8999 714.042 22.2496 714.191 22.5444C714.343 22.8391 714.558 23.0664 714.835 23.2262C715.112 23.386 715.441 23.4659 715.821 23.4659C716.073 23.4659 716.304 23.4304 716.513 23.3594C716.723 23.2884 716.902 23.1818 717.051 23.0398C717.2 22.8977 717.314 22.7237 717.392 22.5178L719.491 22.6562C719.384 23.1605 719.166 23.6009 718.836 23.9773C718.509 24.3501 718.086 24.6413 717.568 24.8509C717.053 25.0568 716.458 25.1598 715.783 25.1598ZM723.854 25.1332C723.233 25.1332 722.67 24.9734 722.166 24.6538C721.665 24.3306 721.267 23.8565 720.973 23.2315C720.682 22.603 720.536 21.8324 720.536 20.9197C720.536 19.9822 720.687 19.2028 720.989 18.5813C721.291 17.9563 721.692 17.4893 722.193 17.1804C722.697 16.8679 723.249 16.7116 723.849 16.7116C724.307 16.7116 724.689 16.7898 724.994 16.946C725.303 17.0987 725.552 17.2905 725.74 17.5213C725.932 17.7486 726.077 17.9723 726.177 18.1925H726.246V14.0909H728.51V25H726.273V23.6896H726.177C726.07 23.9169 725.919 24.1424 725.724 24.3661C725.532 24.5863 725.282 24.7692 724.973 24.9148C724.668 25.0604 724.295 25.1332 723.854 25.1332ZM724.574 23.3274C724.939 23.3274 725.248 23.228 725.5 23.0291C725.756 22.8267 725.951 22.5444 726.086 22.1822C726.225 21.82 726.294 21.3956 726.294 20.9091C726.294 20.4226 726.227 20 726.092 19.6413C725.957 19.2827 725.761 19.0057 725.506 18.8104C725.25 18.6151 724.939 18.5174 724.574 18.5174C724.201 18.5174 723.886 18.6186 723.631 18.821C723.375 19.0234 723.182 19.304 723.05 19.6626C722.919 20.0213 722.853 20.4368 722.853 20.9091C722.853 21.3849 722.919 21.8058 723.05 22.1715C723.185 22.5337 723.379 22.8178 723.631 23.0238C723.886 23.2262 724.201 23.3274 724.574 23.3274ZM730.196 25V16.8182H732.465V25H730.196ZM731.336 15.7635C730.998 15.7635 730.709 15.6516 730.467 15.4279C730.229 15.2006 730.11 14.929 730.11 14.6129C730.11 14.3004 730.229 14.0323 730.467 13.8086C730.709 13.5813 730.998 13.4677 731.336 13.4677C731.673 13.4677 731.961 13.5813 732.199 13.8086C732.44 14.0323 732.561 14.3004 732.561 14.6129C732.561 14.929 732.44 15.2006 732.199 15.4279C731.961 15.6516 731.673 15.7635 731.336 15.7635ZM739.349 21.5163V16.8182H741.619V25H739.44V23.5138H739.355C739.17 23.9933 738.863 24.3786 738.433 24.6697C738.007 24.9609 737.487 25.1065 736.872 25.1065C736.326 25.1065 735.844 24.9822 735.429 24.7337C735.013 24.4851 734.689 24.1317 734.454 23.6737C734.223 23.2156 734.106 22.6669 734.103 22.0277V16.8182H736.372V21.6229C736.375 22.1058 736.505 22.4876 736.761 22.7681C737.016 23.0487 737.359 23.1889 737.789 23.1889C738.062 23.1889 738.318 23.1268 738.556 23.0025C738.794 22.8746 738.985 22.6864 739.131 22.4379C739.28 22.1893 739.353 21.8821 739.349 21.5163ZM743.254 25V16.8182H745.416V18.2617H745.512C745.683 17.7823 745.967 17.4041 746.364 17.1271C746.762 16.8501 747.238 16.7116 747.792 16.7116C748.353 16.7116 748.831 16.8519 749.225 17.1325C749.619 17.4094 749.882 17.7859 750.013 18.2617H750.098C750.265 17.793 750.567 17.4183 751.004 17.1378C751.444 16.8537 751.965 16.7116 752.565 16.7116C753.328 16.7116 753.948 16.9549 754.424 17.4414C754.903 17.9244 755.143 18.6097 755.143 19.4975V25H752.879V19.945C752.879 19.4904 752.758 19.1495 752.517 18.9222C752.275 18.695 751.973 18.5813 751.611 18.5813C751.199 18.5813 750.878 18.7127 750.647 18.9755C750.416 19.2347 750.301 19.5774 750.301 20.0036V25H748.101V19.897C748.101 19.4957 747.986 19.1761 747.755 18.9382C747.527 18.7003 747.227 18.5813 746.854 18.5813C746.602 18.5813 746.375 18.6452 746.173 18.7731C745.974 18.8974 745.816 19.0732 745.699 19.3004C745.581 19.5241 745.523 19.7869 745.523 20.0888V25H743.254Z" fill="#F1EFEF"/>
</svg>
