<svg width="774" height="40" viewBox="0 0 774 40" fill="none" xmlns="http://www.w3.org/2000/svg">
<rect width="180" height="40" rx="8" fill="#5D6AF2"/>
<path fill-rule="evenodd" clip-rule="evenodd" d="M18.8417 14.2923C18.8417 14.2923 19.8431 14.0896 21 14.0896C22.1569 14.0896 23.1583 14.2923 23.1583 14.2923L23.5588 13.4929C23.6433 13.3241 23.8295 13.2256 24.0195 13.2552C25.9511 13.5567 27.7513 14.5565 27.7513 14.5565C27.7513 14.5565 30 16.7339 30 24.4135C30.0009 24.5518 29.9344 24.6859 29.8193 24.7664C28.3428 25.7982 26.5496 26.4759 25.8261 26.726C25.6344 26.7922 25.4244 26.7175 25.3151 26.5501L24.8088 25.7746C24.6702 25.5624 24.7422 25.28 24.9665 25.156L26.0246 24.5711L25.5966 24.2443C25.5966 24.2443 23.8846 25.2473 21 25.2473C18.1153 25.2473 16.4034 24.2443 16.4034 24.2443L15.9755 24.5711L17.0334 25.156C17.2578 25.28 17.3298 25.5624 17.1912 25.7746L16.6849 26.5501C16.5756 26.7175 16.3656 26.7922 16.1739 26.726C15.4504 26.4759 13.6572 25.7982 12.1807 24.7664C12.0656 24.6859 11.9991 24.5518 12 24.4135C12 16.7339 14.2502 14.5565 14.2502 14.5565C14.2502 14.5565 16.0503 13.5565 17.9805 13.2552C18.1706 13.2256 18.3566 13.3241 18.4412 13.4929L18.8417 14.2923ZM25.7261 20.6532C25.7261 21.6153 25.0209 22.3952 24.151 22.3952C23.2811 22.3952 22.5758 21.6153 22.5758 20.6532C22.5758 19.6912 23.2811 18.9113 24.151 18.9113C25.0209 18.9113 25.7261 19.6912 25.7261 20.6532ZM17.8505 22.3952C18.7204 22.3952 19.4256 21.6153 19.4256 20.6532C19.4256 19.6912 18.7204 18.9113 17.8505 18.9113C16.9806 18.9113 16.2753 19.6912 16.2753 20.6532C16.2753 21.6153 16.9806 22.3952 17.8505 22.3952Z" fill="#F1EFEF"/>
<path d="M41.5511 14.0909H43.831V21.6974C43.831 22.4006 43.6729 23.0114 43.3569 23.5298C43.0444 24.0483 42.6094 24.4478 42.0518 24.7283C41.4943 25.0089 40.8462 25.1491 40.1076 25.1491C39.4506 25.1491 38.854 25.0337 38.3178 24.8029C37.7851 24.5685 37.3626 24.2134 37.0501 23.7376C36.7376 23.2582 36.5831 22.6562 36.5866 21.9318H38.8824C38.8896 22.2195 38.9481 22.4663 39.0582 22.6722C39.1719 22.8746 39.3263 23.0309 39.5217 23.141C39.7205 23.2475 39.9549 23.3008 40.2248 23.3008C40.5089 23.3008 40.7486 23.2404 40.9439 23.1197C41.1427 22.9954 41.2937 22.8143 41.3967 22.5763C41.4996 22.3384 41.5511 22.0455 41.5511 21.6974V14.0909ZM49.212 25.1598C48.3846 25.1598 47.6691 24.984 47.0654 24.6325C46.4652 24.2773 46.0018 23.7837 45.6751 23.1516C45.3484 22.516 45.185 21.7791 45.185 20.9411C45.185 20.0959 45.3484 19.3572 45.6751 18.7251C46.0018 18.0895 46.4652 17.5959 47.0654 17.2443C47.6691 16.8892 48.3846 16.7116 49.212 16.7116C50.0395 16.7116 50.7532 16.8892 51.3534 17.2443C51.9571 17.5959 52.4223 18.0895 52.749 18.7251C53.0757 19.3572 53.239 20.0959 53.239 20.9411C53.239 21.7791 53.0757 22.516 52.749 23.1516C52.4223 23.7837 51.9571 24.2773 51.3534 24.6325C50.7532 24.984 50.0395 25.1598 49.212 25.1598ZM49.2227 23.402C49.5991 23.402 49.9134 23.2955 50.1655 23.0824C50.4176 22.8658 50.6076 22.571 50.7355 22.1982C50.8669 21.8253 50.9326 21.4009 50.9326 20.9251C50.9326 20.4492 50.8669 20.0249 50.7355 19.652C50.6076 19.2791 50.4176 18.9844 50.1655 18.7678C49.9134 18.5511 49.5991 18.4428 49.2227 18.4428C48.8427 18.4428 48.5231 18.5511 48.2639 18.7678C48.0082 18.9844 47.8147 19.2791 47.6833 19.652C47.5554 20.0249 47.4915 20.4492 47.4915 20.9251C47.4915 21.4009 47.5554 21.8253 47.6833 22.1982C47.8147 22.571 48.0082 22.8658 48.2639 23.0824C48.5231 23.2955 48.8427 23.402 49.2227 23.402ZM54.5345 25V16.8182H56.8037V25H54.5345ZM55.6744 15.7635C55.3371 15.7635 55.0477 15.6516 54.8062 15.4279C54.5683 15.2006 54.4493 14.929 54.4493 14.6129C54.4493 14.3004 54.5683 14.0323 54.8062 13.8086C55.0477 13.5813 55.3371 13.4677 55.6744 13.4677C56.0118 13.4677 56.2994 13.5813 56.5374 13.8086C56.7788 14.0323 56.8996 14.3004 56.8996 14.6129C56.8996 14.929 56.7788 15.2006 56.5374 15.4279C56.2994 15.6516 56.0118 15.7635 55.6744 15.7635ZM60.7106 20.2699V25H58.4414V16.8182H60.6041V18.2617H60.7C60.8811 17.7859 61.1847 17.4094 61.6108 17.1325C62.037 16.8519 62.5537 16.7116 63.1609 16.7116C63.7291 16.7116 64.2245 16.8359 64.647 17.0845C65.0696 17.3331 65.3981 17.6882 65.6325 18.1499C65.8669 18.608 65.9841 19.1548 65.9841 19.7905V25H63.7149V20.1953C63.7184 19.6946 63.5906 19.304 63.3314 19.0234C63.0721 18.7393 62.7152 18.5973 62.2607 18.5973C61.9553 18.5973 61.6854 18.663 61.451 18.7944C61.2202 18.9258 61.0391 19.1175 60.9077 19.3697C60.7799 19.6183 60.7142 19.9183 60.7106 20.2699ZM76.131 21.5163V16.8182H78.4002V25H76.2215V23.5138H76.1363C75.9516 23.9933 75.6445 24.3786 75.2148 24.6697C74.7886 24.9609 74.2684 25.1065 73.6541 25.1065C73.1072 25.1065 72.626 24.9822 72.2105 24.7337C71.795 24.4851 71.4701 24.1317 71.2357 23.6737C71.0049 23.2156 70.8877 22.6669 70.8842 22.0277V16.8182H73.1533V21.6229C73.1569 22.1058 73.2865 22.4876 73.5422 22.7681C73.7979 23.0487 74.1406 23.1889 74.5702 23.1889C74.8437 23.1889 75.0994 23.1268 75.3373 23.0025C75.5752 22.8746 75.767 22.6864 75.9126 22.4379C76.0617 22.1893 76.1345 21.8821 76.131 21.5163ZM86.8428 19.1513L84.7653 19.2791C84.7298 19.1016 84.6535 18.9418 84.5363 18.7997C84.4191 18.6541 84.2646 18.5387 84.0729 18.4535C83.8847 18.3647 83.6592 18.3203 83.3964 18.3203C83.0448 18.3203 82.7483 18.3949 82.5068 18.544C82.2653 18.6896 82.1446 18.8849 82.1446 19.13C82.1446 19.3253 82.2227 19.4904 82.379 19.6254C82.5352 19.7603 82.8033 19.8686 83.1833 19.9503L84.6641 20.2486C85.4596 20.4119 86.0526 20.6747 86.4432 21.0369C86.8339 21.3991 87.0292 21.875 87.0292 22.4645C87.0292 23.0007 86.8712 23.4712 86.5551 23.8761C86.2426 24.2809 85.8129 24.5969 85.266 24.8242C84.7227 25.0479 84.0959 25.1598 83.3857 25.1598C82.3026 25.1598 81.4397 24.9343 80.7969 24.4833C80.1577 24.0288 79.7831 23.4109 79.673 22.6296L81.9049 22.5124C81.9724 22.8427 82.1357 23.0948 82.395 23.2688C82.6542 23.4393 82.9862 23.5245 83.391 23.5245C83.7888 23.5245 84.1084 23.4482 84.3499 23.2955C84.5949 23.1392 84.7192 22.9386 84.7227 22.6935C84.7192 22.4876 84.6322 22.3189 84.4617 22.1875C84.2913 22.0526 84.0285 21.9496 83.6734 21.8786L82.2565 21.5962C81.4575 21.4364 80.8626 21.1594 80.472 20.7653C80.0849 20.3711 79.8914 19.8686 79.8914 19.2578C79.8914 18.7322 80.0334 18.2795 80.3175 17.8995C80.6052 17.5195 81.0082 17.2266 81.5267 17.0206C82.0487 16.8146 82.6595 16.7116 83.3591 16.7116C84.3925 16.7116 85.2057 16.93 85.7987 17.3668C86.3953 17.8036 86.7433 18.3984 86.8428 19.1513ZM95.2665 25.1598C94.4391 25.1598 93.7235 24.984 93.1198 24.6325C92.5197 24.2773 92.0563 23.7837 91.7296 23.1516C91.4029 22.516 91.2395 21.7791 91.2395 20.9411C91.2395 20.0959 91.4029 19.3572 91.7296 18.7251C92.0563 18.0895 92.5197 17.5959 93.1198 17.2443C93.7235 16.8892 94.4391 16.7116 95.2665 16.7116C96.0939 16.7116 96.8077 16.8892 97.4078 17.2443C98.0115 17.5959 98.4767 18.0895 98.8034 18.7251C99.1301 19.3572 99.2935 20.0959 99.2935 20.9411C99.2935 21.7791 99.1301 22.516 98.8034 23.1516C98.4767 23.7837 98.0115 24.2773 97.4078 24.6325C96.8077 24.984 96.0939 25.1598 95.2665 25.1598ZM95.2771 23.402C95.6536 23.402 95.9678 23.2955 96.22 23.0824C96.4721 22.8658 96.6621 22.571 96.7899 22.1982C96.9213 21.8253 96.987 21.4009 96.987 20.9251C96.987 20.4492 96.9213 20.0249 96.7899 19.652C96.6621 19.2791 96.4721 18.9844 96.22 18.7678C95.9678 18.5511 95.6536 18.4428 95.2771 18.4428C94.8972 18.4428 94.5776 18.5511 94.3183 18.7678C94.0627 18.9844 93.8691 19.2791 93.7377 19.652C93.6099 20.0249 93.546 20.4492 93.546 20.9251C93.546 21.4009 93.6099 21.8253 93.7377 22.1982C93.8691 22.571 94.0627 22.8658 94.3183 23.0824C94.5776 23.2955 94.8972 23.402 95.2771 23.402ZM102.858 20.2699V25H100.589V16.8182H102.752V18.2617H102.847C103.029 17.7859 103.332 17.4094 103.758 17.1325C104.185 16.8519 104.701 16.7116 105.308 16.7116C105.877 16.7116 106.372 16.8359 106.795 17.0845C107.217 17.3331 107.546 17.6882 107.78 18.1499C108.014 18.608 108.132 19.1548 108.132 19.7905V25H105.862V20.1953C105.866 19.6946 105.738 19.304 105.479 19.0234C105.22 18.7393 104.863 18.5973 104.408 18.5973C104.103 18.5973 103.833 18.663 103.599 18.7944C103.368 18.9258 103.187 19.1175 103.055 19.3697C102.927 19.6183 102.862 19.9183 102.858 20.2699ZM116.942 25H113.074V14.0909H116.973C118.071 14.0909 119.015 14.3093 119.807 14.7461C120.599 15.1793 121.208 15.8026 121.634 16.6158C122.064 17.429 122.279 18.402 122.279 19.5348C122.279 20.6712 122.064 21.6477 121.634 22.4645C121.208 23.2812 120.596 23.908 119.797 24.3448C119.001 24.7816 118.049 25 116.942 25ZM115.381 23.0238H116.846C117.527 23.0238 118.101 22.9031 118.566 22.6616C119.035 22.4165 119.386 22.0384 119.621 21.527C119.859 21.0121 119.978 20.348 119.978 19.5348C119.978 18.7287 119.859 18.07 119.621 17.5586C119.386 17.0472 119.037 16.6708 118.571 16.4293C118.106 16.1879 117.533 16.0671 116.851 16.0671H115.381V23.0238ZM123.765 25V16.8182H126.034V25H123.765ZM124.905 15.7635C124.567 15.7635 124.278 15.6516 124.036 15.4279C123.799 15.2006 123.68 14.929 123.68 14.6129C123.68 14.3004 123.799 14.0323 124.036 13.8086C124.278 13.5813 124.567 13.4677 124.905 13.4677C125.242 13.4677 125.53 13.5813 125.768 13.8086C126.009 14.0323 126.13 14.3004 126.13 14.6129C126.13 14.929 126.009 15.2006 125.768 15.4279C125.53 15.6516 125.242 15.7635 124.905 15.7635ZM134.479 19.1513L132.402 19.2791C132.366 19.1016 132.29 18.9418 132.173 18.7997C132.056 18.6541 131.901 18.5387 131.709 18.4535C131.521 18.3647 131.296 18.3203 131.033 18.3203C130.681 18.3203 130.385 18.3949 130.143 18.544C129.902 18.6896 129.781 18.8849 129.781 19.13C129.781 19.3253 129.859 19.4904 130.015 19.6254C130.172 19.7603 130.44 19.8686 130.82 19.9503L132.301 20.2486C133.096 20.4119 133.689 20.6747 134.08 21.0369C134.47 21.3991 134.666 21.875 134.666 22.4645C134.666 23.0007 134.508 23.4712 134.192 23.8761C133.879 24.2809 133.449 24.5969 132.903 24.8242C132.359 25.0479 131.732 25.1598 131.022 25.1598C129.939 25.1598 129.076 24.9343 128.433 24.4833C127.794 24.0288 127.42 23.4109 127.309 22.6296L129.541 22.5124C129.609 22.8427 129.772 23.0948 130.031 23.2688C130.291 23.4393 130.623 23.5245 131.028 23.5245C131.425 23.5245 131.745 23.4482 131.986 23.2955C132.231 23.1392 132.356 22.9386 132.359 22.6935C132.356 22.4876 132.269 22.3189 132.098 22.1875C131.928 22.0526 131.665 21.9496 131.31 21.8786L129.893 21.5962C129.094 21.4364 128.499 21.1594 128.109 20.7653C127.721 20.3711 127.528 19.8686 127.528 19.2578C127.528 18.7322 127.67 18.2795 127.954 17.8995C128.242 17.5195 128.645 17.2266 129.163 17.0206C129.685 16.8146 130.296 16.7116 130.996 16.7116C132.029 16.7116 132.842 16.93 133.435 17.3668C134.032 17.8036 134.38 18.3984 134.479 19.1513ZM139.611 25.1598C138.773 25.1598 138.052 24.9822 137.449 24.6271C136.849 24.2685 136.387 23.7713 136.064 23.1357C135.744 22.5 135.584 21.7685 135.584 20.9411C135.584 20.103 135.746 19.3679 136.069 18.7358C136.396 18.1001 136.859 17.6048 137.459 17.2496C138.059 16.891 138.773 16.7116 139.601 16.7116C140.314 16.7116 140.939 16.8413 141.476 17.1005C142.012 17.3597 142.436 17.7237 142.749 18.1925C143.061 18.6612 143.233 19.2116 143.265 19.8438H141.124C141.064 19.4354 140.904 19.1069 140.645 18.8583C140.389 18.6062 140.053 18.4801 139.638 18.4801C139.286 18.4801 138.979 18.576 138.716 18.7678C138.457 18.956 138.255 19.2312 138.109 19.5934C137.964 19.9556 137.891 20.3942 137.891 20.9091C137.891 21.4311 137.962 21.875 138.104 22.2408C138.249 22.6065 138.454 22.8853 138.716 23.0771C138.979 23.2688 139.286 23.3647 139.638 23.3647C139.897 23.3647 140.13 23.3114 140.336 23.2049C140.545 23.0984 140.717 22.9439 140.852 22.7415C140.991 22.5355 141.081 22.2887 141.124 22.0011H143.265C143.23 22.6261 143.059 23.1765 142.754 23.6523C142.452 24.1246 142.035 24.494 141.502 24.7603C140.97 25.0266 140.339 25.1598 139.611 25.1598ZM148.235 25.1598C147.408 25.1598 146.692 24.984 146.088 24.6325C145.488 24.2773 145.025 23.7837 144.698 23.1516C144.371 22.516 144.208 21.7791 144.208 20.9411C144.208 20.0959 144.371 19.3572 144.698 18.7251C145.025 18.0895 145.488 17.5959 146.088 17.2443C146.692 16.8892 147.408 16.7116 148.235 16.7116C149.062 16.7116 149.776 16.8892 150.376 17.2443C150.98 17.5959 151.445 18.0895 151.772 18.7251C152.099 19.3572 152.262 20.0959 152.262 20.9411C152.262 21.7791 152.099 22.516 151.772 23.1516C151.445 23.7837 150.98 24.2773 150.376 24.6325C149.776 24.984 149.062 25.1598 148.235 25.1598ZM148.246 23.402C148.622 23.402 148.936 23.2955 149.188 23.0824C149.441 22.8658 149.631 22.571 149.758 22.1982C149.89 21.8253 149.956 21.4009 149.956 20.9251C149.956 20.4492 149.89 20.0249 149.758 19.652C149.631 19.2791 149.441 18.9844 149.188 18.7678C148.936 18.5511 148.622 18.4428 148.246 18.4428C147.866 18.4428 147.546 18.5511 147.287 18.7678C147.031 18.9844 146.838 19.2791 146.706 19.652C146.578 20.0249 146.514 20.4492 146.514 20.9251C146.514 21.4009 146.578 21.8253 146.706 22.1982C146.838 22.571 147.031 22.8658 147.287 23.0824C147.546 23.2955 147.866 23.402 148.246 23.402ZM153.557 25V16.8182H155.757V18.2457H155.843C155.992 17.7379 156.242 17.3544 156.594 17.0952C156.945 16.8324 157.35 16.701 157.808 16.701C157.922 16.701 158.044 16.7081 158.176 16.7223C158.307 16.7365 158.423 16.756 158.522 16.7809V18.7944C158.415 18.7624 158.268 18.734 158.08 18.7092C157.892 18.6843 157.719 18.6719 157.563 18.6719C157.229 18.6719 156.931 18.7447 156.668 18.8903C156.409 19.0323 156.203 19.2312 156.05 19.4869C155.901 19.7425 155.827 20.0373 155.827 20.3711V25H153.557ZM162.149 25.1332C161.528 25.1332 160.965 24.9734 160.461 24.6538C159.96 24.3306 159.562 23.8565 159.267 23.2315C158.976 22.603 158.831 21.8324 158.831 20.9197C158.831 19.9822 158.982 19.2028 159.283 18.5813C159.585 17.9563 159.987 17.4893 160.487 17.1804C160.992 16.8679 161.544 16.7116 162.144 16.7116C162.602 16.7116 162.984 16.7898 163.289 16.946C163.598 17.0987 163.847 17.2905 164.035 17.5213C164.227 17.7486 164.372 17.9723 164.472 18.1925H164.541V14.0909H166.805V25H164.568V23.6896H164.472C164.365 23.9169 164.214 24.1424 164.019 24.3661C163.827 24.5863 163.577 24.7692 163.268 24.9148C162.962 25.0604 162.59 25.1332 162.149 25.1332ZM162.868 23.3274C163.234 23.3274 163.543 23.228 163.795 23.0291C164.051 22.8267 164.246 22.5444 164.381 22.1822C164.52 21.82 164.589 21.3956 164.589 20.9091C164.589 20.4226 164.521 20 164.386 19.6413C164.252 19.2827 164.056 19.0057 163.801 18.8104C163.545 18.6151 163.234 18.5174 162.868 18.5174C162.495 18.5174 162.181 18.6186 161.926 18.821C161.67 19.0234 161.476 19.304 161.345 19.6626C161.214 20.0213 161.148 20.4368 161.148 20.9091C161.148 21.3849 161.214 21.8058 161.345 22.1715C161.48 22.5337 161.673 22.8178 161.926 23.0238C162.181 23.2262 162.495 23.3274 162.868 23.3274Z" fill="#F1EFEF"/>
<rect x="184.5" y="0.5" width="234" height="39" rx="7.5" fill="#1D1C1B"/>
<rect x="184.5" y="0.5" width="234" height="39" rx="7.5" stroke="#4B4B4B"/>
<path fill-rule="evenodd" clip-rule="evenodd" d="M199.771 27.0222C198.82 26.5604 198.029 25.782 197.407 24.7354C197.195 24.3793 197.356 23.9286 197.729 23.7492C198.103 23.5698 198.546 23.7308 198.765 24.0823C199.252 24.8645 199.819 25.378 200.426 25.6728C201.185 26.041 202.093 26.11 203.155 25.817L203.554 27.2629C202.211 27.6333 200.918 27.5792 199.771 27.0222Z" fill="#F1EFEF"/>
<path d="M200.42 11.9375C200.743 11.9375 201.193 12.0129 201.497 12.0867C202.037 12.2177 202.729 12.4689 203.375 12.9547C203.937 12.8221 204.733 12.6674 205.75 12.6674C206.767 12.6673 207.563 12.8221 208.125 12.9548C208.771 12.4689 209.463 12.2177 210.003 12.0867C210.307 12.0129 210.768 11.9375 211.08 11.9375H211.465L211.604 12.2958C211.799 12.7948 211.869 13.4019 211.87 13.9713C211.871 14.4507 211.822 14.9364 211.738 15.36C211.966 15.7213 212.18 16.1494 212.345 16.5889C212.543 17.113 212.688 17.693 212.688 18.2215C212.688 20.038 212.079 21.321 211.116 22.2261C210.385 22.9137 209.477 23.3564 208.559 23.6708C208.756 23.9669 208.938 24.3583 208.938 24.8713V26.5625C208.938 27.2696 208.937 27.6231 208.718 27.8428C208.498 28.0625 208.145 28.0625 207.438 28.0625H204.062C203.355 28.0625 203.002 28.0625 202.782 27.8428C202.562 27.6231 202.562 27.2696 202.562 26.5625V24.8713C202.562 24.3583 202.744 23.9669 202.941 23.6708C202.023 23.3564 201.115 22.9137 200.384 22.2261C199.421 21.321 198.812 20.038 198.812 18.2215C198.812 17.693 198.957 17.113 199.155 16.5889C199.32 16.1494 199.534 15.7212 199.762 15.36C199.678 14.9364 199.629 14.4507 199.63 13.9713C199.631 13.4019 199.701 12.7948 199.896 12.2958L200.035 11.9375H200.42Z" fill="#F1EFEF"/>
<path d="M227.17 17.2283C227.127 16.7987 226.945 16.4648 226.621 16.2269C226.298 15.989 225.86 15.87 225.306 15.87C224.929 15.87 224.611 15.9233 224.352 16.0298C224.093 16.1328 223.894 16.2766 223.756 16.4613C223.621 16.646 223.553 16.8555 223.553 17.0898C223.546 17.2852 223.587 17.4556 223.676 17.6012C223.768 17.7468 223.894 17.8729 224.054 17.9794C224.214 18.0824 224.398 18.1729 224.608 18.2511C224.817 18.3256 225.041 18.3896 225.279 18.4428L226.259 18.6772C226.735 18.7837 227.172 18.9258 227.57 19.1033C227.967 19.2809 228.312 19.4993 228.603 19.7585C228.894 20.0178 229.12 20.3232 229.279 20.6747C229.443 21.0263 229.526 21.4293 229.53 21.8839C229.526 22.5515 229.356 23.1303 229.018 23.6204C228.685 24.1069 228.202 24.4851 227.57 24.755C226.941 25.0213 226.183 25.1545 225.295 25.1545C224.414 25.1545 223.647 25.0195 222.994 24.7496C222.344 24.4798 221.836 24.0803 221.47 23.5511C221.108 23.0185 220.918 22.3597 220.9 21.5749H223.132C223.157 21.9407 223.262 22.2461 223.447 22.4911C223.635 22.7326 223.885 22.9155 224.198 23.0398C224.514 23.1605 224.871 23.2209 225.268 23.2209C225.659 23.2209 225.998 23.1641 226.286 23.0504C226.577 22.9368 226.802 22.7788 226.962 22.5763C227.122 22.3739 227.202 22.1413 227.202 21.8786C227.202 21.6335 227.129 21.4276 226.984 21.2607C226.842 21.0937 226.632 20.9517 226.355 20.8345C226.082 20.7173 225.746 20.6108 225.348 20.5149L224.16 20.2166C223.241 19.9929 222.514 19.6431 221.982 19.1673C221.449 18.6914 221.185 18.0504 221.188 17.2443C221.185 16.5838 221.36 16.0067 221.715 15.5131C222.074 15.0195 222.566 14.6342 223.191 14.3572C223.816 14.0803 224.526 13.9418 225.322 13.9418C226.131 13.9418 226.838 14.0803 227.442 14.3572C228.049 14.6342 228.521 15.0195 228.859 15.5131C229.196 16.0067 229.37 16.5785 229.381 17.2283H227.17ZM234.587 25.1598C233.746 25.1598 233.021 24.9893 232.414 24.6484C231.81 24.304 231.345 23.8175 231.018 23.1889C230.692 22.5568 230.528 21.8093 230.528 20.9464C230.528 20.1048 230.692 19.3661 231.018 18.7305C231.345 18.0948 231.805 17.5994 232.398 17.2443C232.995 16.8892 233.694 16.7116 234.497 16.7116C235.036 16.7116 235.539 16.7987 236.004 16.9727C236.473 17.1431 236.881 17.4006 237.229 17.745C237.581 18.0895 237.854 18.5227 238.05 19.0447C238.245 19.5632 238.343 20.1705 238.343 20.8665V21.4897H231.434V20.0835H236.207C236.207 19.7567 236.136 19.4673 235.993 19.2152C235.851 18.9631 235.654 18.766 235.402 18.6239C235.154 18.4783 234.864 18.4055 234.534 18.4055C234.189 18.4055 233.884 18.4854 233.618 18.6452C233.355 18.8015 233.149 19.0128 233 19.2791C232.851 19.5419 232.774 19.8349 232.771 20.158V21.495C232.771 21.8999 232.845 22.2496 232.995 22.5444C233.147 22.8391 233.362 23.0664 233.639 23.2262C233.916 23.386 234.245 23.4659 234.625 23.4659C234.877 23.4659 235.107 23.4304 235.317 23.3594C235.526 23.2884 235.706 23.1818 235.855 23.0398C236.004 22.8977 236.118 22.7237 236.196 22.5178L238.295 22.6562C238.188 23.1605 237.97 23.6009 237.639 23.9773C237.313 24.3501 236.89 24.6413 236.372 24.8509C235.857 25.0568 235.262 25.1598 234.587 25.1598ZM243.372 25.1598C242.53 25.1598 241.806 24.9893 241.199 24.6484C240.595 24.304 240.13 23.8175 239.803 23.1889C239.476 22.5568 239.313 21.8093 239.313 20.9464C239.313 20.1048 239.476 19.3661 239.803 18.7305C240.13 18.0948 240.59 17.5994 241.183 17.2443C241.779 16.8892 242.479 16.7116 243.282 16.7116C243.821 16.7116 244.324 16.7987 244.789 16.9727C245.258 17.1431 245.666 17.4006 246.014 17.745C246.366 18.0895 246.639 18.5227 246.834 19.0447C247.03 19.5632 247.127 20.1705 247.127 20.8665V21.4897H240.219V20.0835H244.991C244.991 19.7567 244.92 19.4673 244.778 19.2152C244.636 18.9631 244.439 18.766 244.187 18.6239C243.938 18.4783 243.649 18.4055 243.319 18.4055C242.974 18.4055 242.669 18.4854 242.403 18.6452C242.14 18.8015 241.934 19.0128 241.785 19.2791C241.636 19.5419 241.559 19.8349 241.556 20.158V21.495C241.556 21.8999 241.63 22.2496 241.779 22.5444C241.932 22.8391 242.147 23.0664 242.424 23.2262C242.701 23.386 243.029 23.4659 243.409 23.4659C243.661 23.4659 243.892 23.4304 244.102 23.3594C244.311 23.2884 244.491 23.1818 244.64 23.0398C244.789 22.8977 244.903 22.7237 244.981 22.5178L247.079 22.6562C246.973 23.1605 246.755 23.6009 246.424 23.9773C246.098 24.3501 245.675 24.6413 245.157 24.8509C244.642 25.0568 244.047 25.1598 243.372 25.1598ZM255.417 25.1598C254.589 25.1598 253.874 24.984 253.27 24.6325C252.67 24.2773 252.206 23.7837 251.88 23.1516C251.553 22.516 251.39 21.7791 251.39 20.9411C251.39 20.0959 251.553 19.3572 251.88 18.7251C252.206 18.0895 252.67 17.5959 253.27 17.2443C253.874 16.8892 254.589 16.7116 255.417 16.7116C256.244 16.7116 256.958 16.8892 257.558 17.2443C258.162 17.5959 258.627 18.0895 258.954 18.7251C259.28 19.3572 259.444 20.0959 259.444 20.9411C259.444 21.7791 259.28 22.516 258.954 23.1516C258.627 23.7837 258.162 24.2773 257.558 24.6325C256.958 24.984 256.244 25.1598 255.417 25.1598ZM255.427 23.402C255.804 23.402 256.118 23.2955 256.37 23.0824C256.622 22.8658 256.812 22.571 256.94 22.1982C257.071 21.8253 257.137 21.4009 257.137 20.9251C257.137 20.4492 257.071 20.0249 256.94 19.652C256.812 19.2791 256.622 18.9844 256.37 18.7678C256.118 18.5511 255.804 18.4428 255.427 18.4428C255.047 18.4428 254.728 18.5511 254.468 18.7678C254.213 18.9844 254.019 19.2791 253.888 19.652C253.76 20.0249 253.696 20.4492 253.696 20.9251C253.696 21.4009 253.76 21.8253 253.888 22.1982C254.019 22.571 254.213 22.8658 254.468 23.0824C254.728 23.2955 255.047 23.402 255.427 23.402ZM265.986 21.5163V16.8182H268.255V25H266.076V23.5138H265.991C265.807 23.9933 265.499 24.3786 265.07 24.6697C264.644 24.9609 264.123 25.1065 263.509 25.1065C262.962 25.1065 262.481 24.9822 262.065 24.7337C261.65 24.4851 261.325 24.1317 261.091 23.6737C260.86 23.2156 260.743 22.6669 260.739 22.0277V16.8182H263.008V21.6229C263.012 22.1058 263.141 22.4876 263.397 22.7681C263.653 23.0487 263.996 23.1889 264.425 23.1889C264.699 23.1889 264.954 23.1268 265.192 23.0025C265.43 22.8746 265.622 22.6864 265.768 22.4379C265.917 22.1893 265.989 21.8821 265.986 21.5163ZM269.89 25V16.8182H272.09V18.2457H272.175C272.324 17.7379 272.575 17.3544 272.926 17.0952C273.278 16.8324 273.683 16.701 274.141 16.701C274.255 16.701 274.377 16.7081 274.508 16.7223C274.64 16.7365 274.755 16.756 274.855 16.7809V18.7944C274.748 18.7624 274.601 18.734 274.413 18.7092C274.224 18.6843 274.052 18.6719 273.896 18.6719C273.562 18.6719 273.264 18.7447 273.001 18.8903C272.742 19.0323 272.536 19.2312 272.383 19.4869C272.234 19.7425 272.159 20.0373 272.159 20.3711V25H269.89ZM282.836 25.1598C282.009 25.1598 281.293 24.984 280.69 24.6325C280.089 24.2773 279.626 23.7837 279.299 23.1516C278.973 22.516 278.809 21.7791 278.809 20.9411C278.809 20.0959 278.973 19.3572 279.299 18.7251C279.626 18.0895 280.089 17.5959 280.69 17.2443C281.293 16.8892 282.009 16.7116 282.836 16.7116C283.664 16.7116 284.377 16.8892 284.978 17.2443C285.581 17.5959 286.047 18.0895 286.373 18.7251C286.7 19.3572 286.863 20.0959 286.863 20.9411C286.863 21.7791 286.7 22.516 286.373 23.1516C286.047 23.7837 285.581 24.2773 284.978 24.6325C284.377 24.984 283.664 25.1598 282.836 25.1598ZM282.847 23.402C283.223 23.402 283.538 23.2955 283.79 23.0824C284.042 22.8658 284.232 22.571 284.36 22.1982C284.491 21.8253 284.557 21.4009 284.557 20.9251C284.557 20.4492 284.491 20.0249 284.36 19.652C284.232 19.2791 284.042 18.9844 283.79 18.7678C283.538 18.5511 283.223 18.4428 282.847 18.4428C282.467 18.4428 282.147 18.5511 281.888 18.7678C281.632 18.9844 281.439 19.2791 281.308 19.652C281.18 20.0249 281.116 20.4492 281.116 20.9251C281.116 21.4009 281.18 21.8253 281.308 22.1982C281.439 22.571 281.632 22.8658 281.888 23.0824C282.147 23.2955 282.467 23.402 282.847 23.402ZM292.511 16.8182V18.5227H287.583V16.8182H292.511ZM288.702 14.858H290.971V22.4858C290.971 22.6953 291.003 22.8587 291.067 22.9759C291.131 23.0895 291.22 23.1694 291.333 23.2156C291.451 23.2617 291.586 23.2848 291.738 23.2848C291.845 23.2848 291.951 23.2759 292.058 23.2582C292.164 23.2369 292.246 23.2209 292.303 23.2102L292.66 24.8988C292.546 24.9343 292.386 24.9751 292.18 25.0213C291.974 25.071 291.724 25.1012 291.429 25.1119C290.882 25.1332 290.403 25.0604 289.991 24.8935C289.583 24.7266 289.265 24.4673 289.038 24.1158C288.81 23.7642 288.699 23.3203 288.702 22.7841V14.858ZM296.254 20.2699V25H293.985V14.0909H296.19V18.2617H296.286C296.47 17.7788 296.769 17.4006 297.181 17.1271C297.593 16.8501 298.109 16.7116 298.731 16.7116C299.299 16.7116 299.794 16.8359 300.217 17.0845C300.643 17.3295 300.973 17.6829 301.208 18.1445C301.446 18.6026 301.563 19.1513 301.559 19.7905V25H299.29V20.1953C299.294 19.6911 299.166 19.2987 298.906 19.0181C298.651 18.7376 298.292 18.5973 297.83 18.5973C297.522 18.5973 297.248 18.663 297.01 18.7944C296.776 18.9258 296.591 19.1175 296.456 19.3697C296.325 19.6183 296.257 19.9183 296.254 20.2699ZM306.894 25.1598C306.052 25.1598 305.328 24.9893 304.72 24.6484C304.117 24.304 303.651 23.8175 303.325 23.1889C302.998 22.5568 302.835 21.8093 302.835 20.9464C302.835 20.1048 302.998 19.3661 303.325 18.7305C303.651 18.0948 304.111 17.5994 304.704 17.2443C305.301 16.8892 306.001 16.7116 306.803 16.7116C307.343 16.7116 307.845 16.7987 308.311 16.9727C308.779 17.1431 309.188 17.4006 309.536 17.745C309.887 18.0895 310.161 18.5227 310.356 19.0447C310.551 19.5632 310.649 20.1705 310.649 20.8665V21.4897H303.74V20.0835H308.513C308.513 19.7567 308.442 19.4673 308.3 19.2152C308.158 18.9631 307.961 18.766 307.709 18.6239C307.46 18.4783 307.171 18.4055 306.84 18.4055C306.496 18.4055 306.191 18.4854 305.924 18.6452C305.661 18.8015 305.455 19.0128 305.306 19.2791C305.157 19.5419 305.081 19.8349 305.077 20.158V21.495C305.077 21.8999 305.152 22.2496 305.301 22.5444C305.454 22.8391 305.669 23.0664 305.946 23.2262C306.222 23.386 306.551 23.4659 306.931 23.4659C307.183 23.4659 307.414 23.4304 307.623 23.3594C307.833 23.2884 308.012 23.1818 308.161 23.0398C308.311 22.8977 308.424 22.7237 308.502 22.5178L310.601 22.6562C310.495 23.1605 310.276 23.6009 309.946 23.9773C309.619 24.3501 309.197 24.6413 308.678 24.8509C308.163 25.0568 307.568 25.1598 306.894 25.1598ZM311.95 25V16.8182H314.15V18.2457H314.235C314.384 17.7379 314.634 17.3544 314.986 17.0952C315.338 16.8324 315.742 16.701 316.201 16.701C316.314 16.701 316.437 16.7081 316.568 16.7223C316.699 16.7365 316.815 16.756 316.914 16.7809V18.7944C316.808 18.7624 316.66 18.734 316.472 18.7092C316.284 18.6843 316.112 18.6719 315.955 18.6719C315.622 18.6719 315.323 18.7447 315.061 18.8903C314.801 19.0323 314.595 19.2312 314.443 19.4869C314.294 19.7425 314.219 20.0373 314.219 20.3711V25H311.95ZM325.599 16.8182V18.5227H320.549V16.8182H325.599ZM321.705 25V16.2269C321.705 15.6339 321.821 15.142 322.051 14.7514C322.286 14.3608 322.605 14.0678 323.01 13.8725C323.415 13.6772 323.875 13.5795 324.39 13.5795C324.738 13.5795 325.056 13.6062 325.343 13.6594C325.635 13.7127 325.851 13.7607 325.993 13.8033L325.588 15.5078C325.5 15.4794 325.39 15.4528 325.258 15.4279C325.13 15.4031 324.999 15.3906 324.864 15.3906C324.53 15.3906 324.298 15.4688 324.166 15.625C324.035 15.7777 323.969 15.9925 323.969 16.2695V25H321.705ZM326.805 25V16.8182H329.005V18.2457H329.09C329.24 17.7379 329.49 17.3544 329.842 17.0952C330.193 16.8324 330.598 16.701 331.056 16.701C331.17 16.701 331.292 16.7081 331.424 16.7223C331.555 16.7365 331.67 16.756 331.77 16.7809V18.7944C331.663 18.7624 331.516 18.734 331.328 18.7092C331.139 18.6843 330.967 18.6719 330.811 18.6719C330.477 18.6719 330.179 18.7447 329.916 18.8903C329.657 19.0323 329.451 19.2312 329.298 19.4869C329.149 19.7425 329.075 20.0373 329.075 20.3711V25H326.805ZM334.862 25.1545C334.34 25.1545 333.875 25.0639 333.466 24.8828C333.058 24.6982 332.735 24.4265 332.497 24.0678C332.262 23.7056 332.145 23.2546 332.145 22.7148C332.145 22.2603 332.229 21.8786 332.395 21.5696C332.562 21.2607 332.79 21.0121 333.077 20.8239C333.365 20.6357 333.692 20.4936 334.057 20.3977C334.427 20.3018 334.814 20.2344 335.219 20.1953C335.694 20.1456 336.078 20.0994 336.369 20.0568C336.66 20.0107 336.872 19.9432 337.003 19.8544C337.134 19.7656 337.2 19.6342 337.2 19.4602V19.4283C337.2 19.0909 337.094 18.8299 336.881 18.6452C336.671 18.4606 336.373 18.3683 335.986 18.3683C335.577 18.3683 335.252 18.4588 335.011 18.6399C334.769 18.8175 334.61 19.0412 334.531 19.3111L332.433 19.1406C332.539 18.6435 332.749 18.2138 333.061 17.8516C333.374 17.4858 333.777 17.2053 334.27 17.0099C334.768 16.8111 335.343 16.7116 335.996 16.7116C336.451 16.7116 336.886 16.7649 337.301 16.8714C337.72 16.978 338.092 17.1431 338.415 17.3668C338.741 17.5906 338.999 17.8782 339.187 18.2298C339.375 18.5778 339.469 18.995 339.469 19.4815V25H337.317V23.8654H337.253C337.122 24.1211 336.946 24.3466 336.726 24.5419C336.506 24.7337 336.241 24.8846 335.932 24.9947C335.623 25.1012 335.267 25.1545 334.862 25.1545ZM335.512 23.5884C335.845 23.5884 336.14 23.5227 336.396 23.3913C336.652 23.2564 336.852 23.0753 336.998 22.848C337.143 22.6207 337.216 22.3633 337.216 22.0756V21.2074C337.145 21.2536 337.047 21.2962 336.923 21.3352C336.802 21.3707 336.666 21.4045 336.513 21.4364C336.36 21.4648 336.208 21.4915 336.055 21.5163C335.902 21.5376 335.764 21.5572 335.639 21.5749C335.373 21.614 335.141 21.6761 334.942 21.7614C334.743 21.8466 334.588 21.962 334.478 22.1076C334.368 22.2496 334.313 22.4272 334.313 22.6403C334.313 22.9492 334.425 23.1854 334.649 23.3487C334.876 23.5085 335.164 23.5884 335.512 23.5884ZM341.05 25V16.8182H343.212V18.2617H343.308C343.479 17.7823 343.763 17.4041 344.161 17.1271C344.558 16.8501 345.034 16.7116 345.588 16.7116C346.149 16.7116 346.627 16.8519 347.021 17.1325C347.415 17.4094 347.678 17.7859 347.809 18.2617H347.895C348.062 17.793 348.363 17.4183 348.8 17.1378C349.241 16.8537 349.761 16.7116 350.361 16.7116C351.124 16.7116 351.744 16.9549 352.22 17.4414C352.699 17.9244 352.939 18.6097 352.939 19.4975V25H350.675V19.945C350.675 19.4904 350.554 19.1495 350.313 18.9222C350.071 18.695 349.77 18.5813 349.407 18.5813C348.995 18.5813 348.674 18.7127 348.443 18.9755C348.212 19.2347 348.097 19.5774 348.097 20.0036V25H345.897V19.897C345.897 19.4957 345.782 19.1761 345.551 18.9382C345.324 18.7003 345.024 18.5813 344.651 18.5813C344.399 18.5813 344.171 18.6452 343.969 18.7731C343.77 18.8974 343.612 19.0732 343.495 19.3004C343.378 19.5241 343.319 19.7869 343.319 20.0888V25H341.05ZM358.28 25.1598C357.439 25.1598 356.714 24.9893 356.107 24.6484C355.503 24.304 355.038 23.8175 354.711 23.1889C354.385 22.5568 354.221 21.8093 354.221 20.9464C354.221 20.1048 354.385 19.3661 354.711 18.7305C355.038 18.0948 355.498 17.5994 356.091 17.2443C356.687 16.8892 357.387 16.7116 358.19 16.7116C358.729 16.7116 359.232 16.7987 359.697 16.9727C360.166 17.1431 360.574 17.4006 360.922 17.745C361.274 18.0895 361.547 18.5227 361.742 19.0447C361.938 19.5632 362.035 20.1705 362.035 20.8665V21.4897H355.127V20.0835H359.899C359.899 19.7567 359.828 19.4673 359.686 19.2152C359.544 18.9631 359.347 18.766 359.095 18.6239C358.847 18.4783 358.557 18.4055 358.227 18.4055C357.882 18.4055 357.577 18.4854 357.311 18.6452C357.048 18.8015 356.842 19.0128 356.693 19.2791C356.544 19.5419 356.467 19.8349 356.464 20.158V21.495C356.464 21.8999 356.538 22.2496 356.687 22.5444C356.84 22.8391 357.055 23.0664 357.332 23.2262C357.609 23.386 357.937 23.4659 358.317 23.4659C358.57 23.4659 358.8 23.4304 359.01 23.3594C359.219 23.2884 359.399 23.1818 359.548 23.0398C359.697 22.8977 359.811 22.7237 359.889 22.5178L361.988 22.6562C361.881 23.1605 361.663 23.6009 361.332 23.9773C361.006 24.3501 360.583 24.6413 360.065 24.8509C359.55 25.0568 358.955 25.1598 358.28 25.1598ZM364.892 25L362.665 16.8182H364.961L366.229 22.3153H366.303L367.624 16.8182H369.877L371.22 22.2834H371.289L372.536 16.8182H374.826L372.605 25H370.202L368.796 19.8544H368.695L367.289 25H364.892ZM379.348 25.1598C378.521 25.1598 377.805 24.984 377.201 24.6325C376.601 24.2773 376.138 23.7837 375.811 23.1516C375.485 22.516 375.321 21.7791 375.321 20.9411C375.321 20.0959 375.485 19.3572 375.811 18.7251C376.138 18.0895 376.601 17.5959 377.201 17.2443C377.805 16.8892 378.521 16.7116 379.348 16.7116C380.176 16.7116 380.889 16.8892 381.489 17.2443C382.093 17.5959 382.558 18.0895 382.885 18.7251C383.212 19.3572 383.375 20.0959 383.375 20.9411C383.375 21.7791 383.212 22.516 382.885 23.1516C382.558 23.7837 382.093 24.2773 381.489 24.6325C380.889 24.984 380.176 25.1598 379.348 25.1598ZM379.359 23.402C379.735 23.402 380.05 23.2955 380.302 23.0824C380.554 22.8658 380.744 22.571 380.872 22.1982C381.003 21.8253 381.069 21.4009 381.069 20.9251C381.069 20.4492 381.003 20.0249 380.872 19.652C380.744 19.2791 380.554 18.9844 380.302 18.7678C380.05 18.5511 379.735 18.4428 379.359 18.4428C378.979 18.4428 378.659 18.5511 378.4 18.7678C378.144 18.9844 377.951 19.2791 377.819 19.652C377.692 20.0249 377.628 20.4492 377.628 20.9251C377.628 21.4009 377.692 21.8253 377.819 22.1982C377.951 22.571 378.144 22.8658 378.4 23.0824C378.659 23.2955 378.979 23.402 379.359 23.402ZM384.671 25V16.8182H386.871V18.2457H386.956C387.105 17.7379 387.355 17.3544 387.707 17.0952C388.058 16.8324 388.463 16.701 388.921 16.701C389.035 16.701 389.158 16.7081 389.289 16.7223C389.42 16.7365 389.536 16.756 389.635 16.7809V18.7944C389.529 18.7624 389.381 18.734 389.193 18.7092C389.005 18.6843 388.833 18.6719 388.676 18.6719C388.343 18.6719 388.044 18.7447 387.781 18.8903C387.522 19.0323 387.316 19.2312 387.164 19.4869C387.014 19.7425 386.94 20.0373 386.94 20.3711V25H384.671ZM392.684 22.6456L392.69 19.9237H393.02L395.641 16.8182H398.246L394.725 20.9304H394.187L392.684 22.6456ZM390.628 25V14.0909H392.897V25H390.628ZM395.742 25L393.334 21.4364L394.847 19.8331L398.4 25H395.742ZM405.986 19.1513L403.909 19.2791C403.873 19.1016 403.797 18.9418 403.68 18.7997C403.563 18.6541 403.408 18.5387 403.216 18.4535C403.028 18.3647 402.803 18.3203 402.54 18.3203C402.188 18.3203 401.892 18.3949 401.65 18.544C401.409 18.6896 401.288 18.8849 401.288 19.13C401.288 19.3253 401.366 19.4904 401.523 19.6254C401.679 19.7603 401.947 19.8686 402.327 19.9503L403.808 20.2486C404.603 20.4119 405.196 20.6747 405.587 21.0369C405.977 21.3991 406.173 21.875 406.173 22.4645C406.173 23.0007 406.015 23.4712 405.699 23.8761C405.386 24.2809 404.956 24.5969 404.41 24.8242C403.866 25.0479 403.24 25.1598 402.529 25.1598C401.446 25.1598 400.583 24.9343 399.941 24.4833C399.301 24.0288 398.927 23.4109 398.817 22.6296L401.048 22.5124C401.116 22.8427 401.279 23.0948 401.539 23.2688C401.798 23.4393 402.13 23.5245 402.535 23.5245C402.932 23.5245 403.252 23.4482 403.493 23.2955C403.738 23.1392 403.863 22.9386 403.866 22.6935C403.863 22.4876 403.776 22.3189 403.605 22.1875C403.435 22.0526 403.172 21.9496 402.817 21.8786L401.4 21.5962C400.601 21.4364 400.006 21.1594 399.616 20.7653C399.229 20.3711 399.035 19.8686 399.035 19.2578C399.035 18.7322 399.177 18.2795 399.461 17.8995C399.749 17.5195 400.152 17.2266 400.67 17.0206C401.192 16.8146 401.803 16.7116 402.503 16.7116C403.536 16.7116 404.349 16.93 404.942 17.3668C405.539 17.8036 405.887 18.3984 405.986 19.1513Z" fill="#F1EFEF"/>
<rect x="423.5" y="0.5" width="188" height="39" rx="7.5" fill="#080808"/>
<rect x="423.5" y="0.5" width="188" height="39" rx="7.5" stroke="#4B4B4B"/>
<path d="M435.938 20C435.938 17.8254 437.7 16.0625 439.875 16.0625C442.05 16.0625 443.812 17.8254 443.812 20C443.812 22.1746 442.05 23.9375 439.875 23.9375C437.7 23.9375 435.938 22.1746 435.938 20Z" fill="#F1EFEF"/>
<path d="M444.807 17.3403C445.191 16.6503 445.81 16.0625 446.625 16.0625C447.44 16.0625 448.059 16.6503 448.443 17.3403C448.836 18.0494 449.062 18.9908 449.062 20C449.062 21.0092 448.836 21.9506 448.443 22.6596C448.059 23.3496 447.44 23.9375 446.625 23.9375C445.81 23.9375 445.191 23.3496 444.807 22.6596C444.414 21.9506 444.188 21.0092 444.188 20C444.188 18.9908 444.414 18.0494 444.807 17.3403Z" fill="#F1EFEF"/>
<path d="M450.218 16.2798C450.335 16.1723 450.515 16.0625 450.75 16.0625C450.985 16.0625 451.165 16.1723 451.282 16.2798C451.396 16.3845 451.479 16.512 451.54 16.6286C451.663 16.863 451.757 17.1653 451.829 17.4915C451.976 18.153 452.062 19.0396 452.062 20C452.062 20.9604 451.976 21.847 451.829 22.5085C451.757 22.8347 451.663 23.1369 451.54 23.3714C451.479 23.488 451.396 23.6155 451.282 23.7202C451.165 23.8278 450.985 23.9375 450.75 23.9375C450.515 23.9375 450.335 23.8278 450.218 23.7202C450.104 23.6155 450.021 23.488 449.96 23.3714C449.837 23.1369 449.743 22.8347 449.671 22.5085C449.524 21.847 449.438 20.9604 449.438 20C449.438 19.0396 449.524 18.153 449.671 17.4915C449.743 17.1653 449.837 16.863 449.96 16.6286C450.021 16.512 450.104 16.3845 450.218 16.2798Z" fill="#F1EFEF"/>
<path d="M460.418 25V14.0909H464.722C465.546 14.0909 466.249 14.2383 466.832 14.533C467.418 14.8242 467.863 15.2379 468.169 15.7741C468.478 16.3068 468.632 16.9336 468.632 17.6545C468.632 18.3789 468.476 19.0021 468.163 19.5241C467.851 20.0426 467.398 20.4403 466.805 20.7173C466.216 20.9943 465.502 21.1328 464.664 21.1328H461.782V19.2791H464.291C464.731 19.2791 465.097 19.2187 465.388 19.098C465.679 18.9773 465.896 18.7962 466.038 18.5547C466.184 18.3132 466.256 18.0131 466.256 17.6545C466.256 17.2923 466.184 16.9869 466.038 16.7383C465.896 16.4897 465.678 16.3015 465.383 16.1737C465.092 16.0423 464.724 15.9766 464.28 15.9766H462.725V25H460.418ZM466.31 20.0355L469.021 25H466.475L463.822 20.0355H466.31ZM473.636 25.1598C472.795 25.1598 472.07 24.9893 471.463 24.6484C470.859 24.304 470.394 23.8175 470.068 23.1889C469.741 22.5568 469.577 21.8093 469.577 20.9464C469.577 20.1048 469.741 19.3661 470.068 18.7305C470.394 18.0948 470.854 17.5994 471.447 17.2443C472.044 16.8892 472.743 16.7116 473.546 16.7116C474.086 16.7116 474.588 16.7987 475.053 16.9727C475.522 17.1431 475.93 17.4006 476.278 17.745C476.63 18.0895 476.903 18.5227 477.099 19.0447C477.294 19.5632 477.392 20.1705 477.392 20.8665V21.4897H470.483V20.0835H475.256C475.256 19.7567 475.185 19.4673 475.043 19.2152C474.901 18.9631 474.704 18.766 474.451 18.6239C474.203 18.4783 473.913 18.4055 473.583 18.4055C473.239 18.4055 472.933 18.4854 472.667 18.6452C472.404 18.8015 472.198 19.0128 472.049 19.2791C471.9 19.5419 471.824 19.8349 471.82 20.158V21.495C471.82 21.8999 471.895 22.2496 472.044 22.5444C472.196 22.8391 472.411 23.0664 472.688 23.2262C472.965 23.386 473.294 23.4659 473.674 23.4659C473.926 23.4659 474.157 23.4304 474.366 23.3594C474.576 23.2884 474.755 23.1818 474.904 23.0398C475.053 22.8977 475.167 22.7237 475.245 22.5178L477.344 22.6562C477.237 23.1605 477.019 23.6009 476.689 23.9773C476.362 24.3501 475.939 24.6413 475.421 24.8509C474.906 25.0568 474.311 25.1598 473.636 25.1598ZM481.026 25.1545C480.504 25.1545 480.038 25.0639 479.63 24.8828C479.222 24.6982 478.899 24.4265 478.661 24.0678C478.426 23.7056 478.309 23.2546 478.309 22.7148C478.309 22.2603 478.393 21.8786 478.559 21.5696C478.726 21.2607 478.954 21.0121 479.241 20.8239C479.529 20.6357 479.856 20.4936 480.221 20.3977C480.591 20.3018 480.978 20.2344 481.383 20.1953C481.858 20.1456 482.242 20.0994 482.533 20.0568C482.824 20.0107 483.036 19.9432 483.167 19.8544C483.298 19.7656 483.364 19.6342 483.364 19.4602V19.4283C483.364 19.0909 483.258 18.8299 483.044 18.6452C482.835 18.4606 482.537 18.3683 482.15 18.3683C481.741 18.3683 481.416 18.4588 481.175 18.6399C480.933 18.8175 480.774 19.0412 480.695 19.3111L478.597 19.1406C478.703 18.6435 478.913 18.2138 479.225 17.8516C479.538 17.4858 479.941 17.2053 480.434 17.0099C480.932 16.8111 481.507 16.7116 482.16 16.7116C482.615 16.7116 483.05 16.7649 483.465 16.8714C483.884 16.978 484.255 17.1431 484.579 17.3668C484.905 17.5906 485.163 17.8782 485.351 18.2298C485.539 18.5778 485.633 18.995 485.633 19.4815V25H483.481V23.8654H483.417C483.286 24.1211 483.11 24.3466 482.89 24.5419C482.67 24.7337 482.405 24.8846 482.096 24.9947C481.787 25.1012 481.43 25.1545 481.026 25.1545ZM481.676 23.5884C482.009 23.5884 482.304 23.5227 482.56 23.3913C482.815 23.2564 483.016 23.0753 483.162 22.848C483.307 22.6207 483.38 22.3633 483.38 22.0756V21.2074C483.309 21.2536 483.211 21.2962 483.087 21.3352C482.966 21.3707 482.83 21.4045 482.677 21.4364C482.524 21.4648 482.372 21.4915 482.219 21.5163C482.066 21.5376 481.928 21.5572 481.803 21.5749C481.537 21.614 481.304 21.6761 481.106 21.7614C480.907 21.8466 480.752 21.962 480.642 22.1076C480.532 22.2496 480.477 22.4272 480.477 22.6403C480.477 22.9492 480.589 23.1854 480.813 23.3487C481.04 23.5085 481.328 23.5884 481.676 23.5884ZM490.229 25.1332C489.607 25.1332 489.044 24.9734 488.54 24.6538C488.039 24.3306 487.642 23.8565 487.347 23.2315C487.056 22.603 486.91 21.8324 486.91 20.9197C486.91 19.9822 487.061 19.2028 487.363 18.5813C487.665 17.9563 488.066 17.4893 488.567 17.1804C489.071 16.8679 489.623 16.7116 490.223 16.7116C490.681 16.7116 491.063 16.7898 491.369 16.946C491.678 17.0987 491.926 17.2905 492.114 17.5213C492.306 17.7486 492.452 17.9723 492.551 18.1925H492.62V14.0909H494.884V25H492.647V23.6896H492.551C492.445 23.9169 492.294 24.1424 492.098 24.3661C491.907 24.5863 491.656 24.7692 491.347 24.9148C491.042 25.0604 490.669 25.1332 490.229 25.1332ZM490.948 23.3274C491.314 23.3274 491.622 23.228 491.875 23.0291C492.13 22.8267 492.326 22.5444 492.461 22.1822C492.599 21.82 492.668 21.3956 492.668 20.9091C492.668 20.4226 492.601 20 492.466 19.6413C492.331 19.2827 492.136 19.0057 491.88 18.8104C491.624 18.6151 491.314 18.5174 490.948 18.5174C490.575 18.5174 490.261 18.6186 490.005 18.821C489.749 19.0234 489.556 19.304 489.424 19.6626C489.293 20.0213 489.227 20.4368 489.227 20.9091C489.227 21.3849 489.293 21.8058 489.424 22.1715C489.559 22.5337 489.753 22.8178 490.005 23.0238C490.261 23.2262 490.575 23.3274 490.948 23.3274ZM505.108 21.5163V16.8182H507.378V25H505.199V23.5138H505.114C504.929 23.9933 504.622 24.3786 504.192 24.6697C503.766 24.9609 503.246 25.1065 502.631 25.1065C502.085 25.1065 501.603 24.9822 501.188 24.7337C500.772 24.4851 500.447 24.1317 500.213 23.6737C499.982 23.2156 499.865 22.6669 499.862 22.0277V16.8182H502.131V21.6229C502.134 22.1058 502.264 22.4876 502.52 22.7681C502.775 23.0487 503.118 23.1889 503.548 23.1889C503.821 23.1889 504.077 23.1268 504.315 23.0025C504.553 22.8746 504.744 22.6864 504.89 22.4379C505.039 22.1893 505.112 21.8821 505.108 21.5163ZM515.82 19.1513L513.743 19.2791C513.707 19.1016 513.631 18.9418 513.514 18.7997C513.396 18.6541 513.242 18.5387 513.05 18.4535C512.862 18.3647 512.637 18.3203 512.374 18.3203C512.022 18.3203 511.726 18.3949 511.484 18.544C511.243 18.6896 511.122 18.8849 511.122 19.13C511.122 19.3253 511.2 19.4904 511.356 19.6254C511.513 19.7603 511.781 19.8686 512.161 19.9503L513.642 20.2486C514.437 20.4119 515.03 20.6747 515.421 21.0369C515.811 21.3991 516.007 21.875 516.007 22.4645C516.007 23.0007 515.849 23.4712 515.532 23.8761C515.22 24.2809 514.79 24.5969 514.243 24.8242C513.7 25.0479 513.073 25.1598 512.363 25.1598C511.28 25.1598 510.417 24.9343 509.774 24.4833C509.135 24.0288 508.76 23.4109 508.65 22.6296L510.882 22.5124C510.95 22.8427 511.113 23.0948 511.372 23.2688C511.632 23.4393 511.964 23.5245 512.368 23.5245C512.766 23.5245 513.086 23.4482 513.327 23.2955C513.572 23.1392 513.697 22.9386 513.7 22.6935C513.697 22.4876 513.61 22.3189 513.439 22.1875C513.269 22.0526 513.006 21.9496 512.651 21.8786L511.234 21.5962C510.435 21.4364 509.84 21.1594 509.449 20.7653C509.062 20.3711 508.869 19.8686 508.869 19.2578C508.869 18.7322 509.011 18.2795 509.295 17.8995C509.583 17.5195 509.986 17.2266 510.504 17.0206C511.026 16.8146 511.637 16.7116 512.336 16.7116C513.37 16.7116 514.183 16.93 514.776 17.3668C515.373 17.8036 515.721 18.3984 515.82 19.1513ZM524.244 25.1598C523.416 25.1598 522.701 24.984 522.097 24.6325C521.497 24.2773 521.034 23.7837 520.707 23.1516C520.38 22.516 520.217 21.7791 520.217 20.9411C520.217 20.0959 520.38 19.3572 520.707 18.7251C521.034 18.0895 521.497 17.5959 522.097 17.2443C522.701 16.8892 523.416 16.7116 524.244 16.7116C525.071 16.7116 525.785 16.8892 526.385 17.2443C526.989 17.5959 527.454 18.0895 527.781 18.7251C528.108 19.3572 528.271 20.0959 528.271 20.9411C528.271 21.7791 528.108 22.516 527.781 23.1516C527.454 23.7837 526.989 24.2773 526.385 24.6325C525.785 24.984 525.071 25.1598 524.244 25.1598ZM524.255 23.402C524.631 23.402 524.945 23.2955 525.197 23.0824C525.449 22.8658 525.639 22.571 525.767 22.1982C525.899 21.8253 525.964 21.4009 525.964 20.9251C525.964 20.4492 525.899 20.0249 525.767 19.652C525.639 19.2791 525.449 18.9844 525.197 18.7678C524.945 18.5511 524.631 18.4428 524.255 18.4428C523.875 18.4428 523.555 18.5511 523.296 18.7678C523.04 18.9844 522.847 19.2791 522.715 19.652C522.587 20.0249 522.523 20.4492 522.523 20.9251C522.523 21.4009 522.587 21.8253 522.715 22.1982C522.847 22.571 523.04 22.8658 523.296 23.0824C523.555 23.2955 523.875 23.402 524.255 23.402ZM531.836 20.2699V25H529.566V16.8182H531.729V18.2617H531.825C532.006 17.7859 532.31 17.4094 532.736 17.1325C533.162 16.8519 533.679 16.7116 534.286 16.7116C534.854 16.7116 535.349 16.8359 535.772 17.0845C536.195 17.3331 536.523 17.6882 536.757 18.1499C536.992 18.608 537.109 19.1548 537.109 19.7905V25H534.84V20.1953C534.843 19.6946 534.716 19.304 534.456 19.0234C534.197 18.7393 533.84 18.5973 533.386 18.5973C533.08 18.5973 532.81 18.663 532.576 18.7944C532.345 18.9258 532.164 19.1175 532.033 19.3697C531.905 19.6183 531.839 19.9183 531.836 20.2699ZM542.052 14.0909H544.896L547.9 21.4205H548.028L551.033 14.0909H553.877V25H551.64V17.8995H551.549L548.726 24.9467H547.203L544.379 17.8729H544.289V25H542.052V14.0909ZM559.283 25.1598C558.442 25.1598 557.717 24.9893 557.11 24.6484C556.506 24.304 556.041 23.8175 555.714 23.1889C555.388 22.5568 555.224 21.8093 555.224 20.9464C555.224 20.1048 555.388 19.3661 555.714 18.7305C556.041 18.0948 556.501 17.5994 557.094 17.2443C557.691 16.8892 558.39 16.7116 559.193 16.7116C559.733 16.7116 560.235 16.7987 560.7 16.9727C561.169 17.1431 561.577 17.4006 561.925 17.745C562.277 18.0895 562.55 18.5227 562.746 19.0447C562.941 19.5632 563.039 20.1705 563.039 20.8665V21.4897H556.13V20.0835H560.903C560.903 19.7567 560.832 19.4673 560.69 19.2152C560.548 18.9631 560.35 18.766 560.098 18.6239C559.85 18.4783 559.56 18.4055 559.23 18.4055C558.886 18.4055 558.58 18.4854 558.314 18.6452C558.051 18.8015 557.845 19.0128 557.696 19.2791C557.547 19.5419 557.471 19.8349 557.467 20.158V21.495C557.467 21.8999 557.542 22.2496 557.691 22.5444C557.843 22.8391 558.058 23.0664 558.335 23.2262C558.612 23.386 558.941 23.4659 559.321 23.4659C559.573 23.4659 559.804 23.4304 560.013 23.3594C560.223 23.2884 560.402 23.1818 560.551 23.0398C560.7 22.8977 560.814 22.7237 560.892 22.5178L562.991 22.6562C562.884 23.1605 562.666 23.6009 562.336 23.9773C562.009 24.3501 561.586 24.6413 561.068 24.8509C560.553 25.0568 559.958 25.1598 559.283 25.1598ZM567.354 25.1332C566.733 25.1332 566.17 24.9734 565.666 24.6538C565.165 24.3306 564.767 23.8565 564.473 23.2315C564.182 22.603 564.036 21.8324 564.036 20.9197C564.036 19.9822 564.187 19.2028 564.489 18.5813C564.791 17.9563 565.192 17.4893 565.693 17.1804C566.197 16.8679 566.749 16.7116 567.349 16.7116C567.807 16.7116 568.189 16.7898 568.494 16.946C568.803 17.0987 569.052 17.2905 569.24 17.5213C569.432 17.7486 569.577 17.9723 569.677 18.1925H569.746V14.0909H572.01V25H569.773V23.6896H569.677C569.57 23.9169 569.419 24.1424 569.224 24.3661C569.032 24.5863 568.782 24.7692 568.473 24.9148C568.168 25.0604 567.795 25.1332 567.354 25.1332ZM568.074 23.3274C568.439 23.3274 568.748 23.228 569 23.0291C569.256 22.8267 569.451 22.5444 569.586 22.1822C569.725 21.82 569.794 21.3956 569.794 20.9091C569.794 20.4226 569.727 20 569.592 19.6413C569.457 19.2827 569.261 19.0057 569.006 18.8104C568.75 18.6151 568.439 18.5174 568.074 18.5174C567.701 18.5174 567.386 18.6186 567.131 18.821C566.875 19.0234 566.682 19.304 566.55 19.6626C566.419 20.0213 566.353 20.4368 566.353 20.9091C566.353 21.3849 566.419 21.8058 566.55 22.1715C566.685 22.5337 566.879 22.8178 567.131 23.0238C567.386 23.2262 567.701 23.3274 568.074 23.3274ZM573.696 25V16.8182H575.965V25H573.696ZM574.836 15.7635C574.498 15.7635 574.209 15.6516 573.967 15.4279C573.729 15.2006 573.61 14.929 573.61 14.6129C573.61 14.3004 573.729 14.0323 573.967 13.8086C574.209 13.5813 574.498 13.4677 574.836 13.4677C575.173 13.4677 575.461 13.5813 575.699 13.8086C575.94 14.0323 576.061 14.3004 576.061 14.6129C576.061 14.929 575.94 15.2006 575.699 15.4279C575.461 15.6516 575.173 15.7635 574.836 15.7635ZM582.849 21.5163V16.8182H585.119V25H582.94V23.5138H582.855C582.67 23.9933 582.363 24.3786 581.933 24.6697C581.507 24.9609 580.987 25.1065 580.372 25.1065C579.826 25.1065 579.344 24.9822 578.929 24.7337C578.513 24.4851 578.189 24.1317 577.954 23.6737C577.723 23.2156 577.606 22.6669 577.603 22.0277V16.8182H579.872V21.6229C579.875 22.1058 580.005 22.4876 580.261 22.7681C580.516 23.0487 580.859 23.1889 581.289 23.1889C581.562 23.1889 581.818 23.1268 582.056 23.0025C582.294 22.8746 582.485 22.6864 582.631 22.4379C582.78 22.1893 582.853 21.8821 582.849 21.5163ZM586.754 25V16.8182H588.916V18.2617H589.012C589.183 17.7823 589.467 17.4041 589.864 17.1271C590.262 16.8501 590.738 16.7116 591.292 16.7116C591.853 16.7116 592.331 16.8519 592.725 17.1325C593.119 17.4094 593.382 17.7859 593.513 18.2617H593.598C593.765 17.793 594.067 17.4183 594.504 17.1378C594.944 16.8537 595.465 16.7116 596.065 16.7116C596.828 16.7116 597.448 16.9549 597.924 17.4414C598.403 17.9244 598.643 18.6097 598.643 19.4975V25H596.379V19.945C596.379 19.4904 596.258 19.1495 596.017 18.9222C595.775 18.695 595.473 18.5813 595.111 18.5813C594.699 18.5813 594.378 18.7127 594.147 18.9755C593.916 19.2347 593.801 19.5774 593.801 20.0036V25H591.601V19.897C591.601 19.4957 591.486 19.1761 591.255 18.9382C591.027 18.7003 590.727 18.5813 590.354 18.5813C590.102 18.5813 589.875 18.6452 589.673 18.7731C589.474 18.8974 589.316 19.0732 589.199 19.3004C589.081 19.5241 589.023 19.7869 589.023 20.0888V25H586.754Z" fill="#F1EFEF"/>
<rect x="616" width="158" height="40" rx="8" fill="#FFDD00"/>
<path fill-rule="evenodd" clip-rule="evenodd" d="M635.009 13.4932C634.41 13.59 634.029 13.717 633.865 13.8191C633.766 13.8815 633.666 13.9779 633.53 14.2133C633.383 14.4676 633.23 14.8158 632.995 15.3579L632.893 15.5938H641.107L641.005 15.3579C640.77 14.8158 640.617 14.4676 640.47 14.2133C640.334 13.9779 640.235 13.8815 640.135 13.8191C639.938 13.6965 639.532 13.5645 638.924 13.4712C638.341 13.3817 637.652 13.3392 636.956 13.3441C636.261 13.349 635.579 13.401 635.009 13.4932ZM642.742 15.5938L642.365 14.7244C642.15 14.2292 641.964 13.8006 641.769 13.4624C641.558 13.0971 641.305 12.7816 640.929 12.5468C640.464 12.2564 639.806 12.089 639.151 11.9886C638.473 11.8844 637.702 11.8389 636.946 11.8442C636.189 11.8495 635.429 11.9058 634.769 12.0124C634.138 12.1145 633.503 12.2768 633.071 12.5468C632.695 12.7816 632.442 13.0971 632.231 13.4624C632.036 13.8006 631.85 14.2292 631.635 14.7244C631.63 14.7366 631.624 14.7488 631.619 14.761L631.258 15.5938H631C630.586 15.5938 630.25 15.9295 630.25 16.3438C630.25 16.758 630.586 17.0938 631 17.0938H631.733C631.744 17.094 631.755 17.094 631.766 17.0938H642.234C642.245 17.094 642.256 17.094 642.267 17.0938H643C643.414 17.0938 643.75 16.758 643.75 16.3438C643.75 15.9295 643.414 15.5938 643 15.5938H642.742Z" fill="#0D0D0E"/>
<path fill-rule="evenodd" clip-rule="evenodd" d="M641.165 25.8794C641.281 25.455 641.371 24.9237 641.481 24.2693L642.917 15.7812H631.086L632.522 24.2693C632.633 24.9237 632.722 25.455 632.838 25.8794C632.958 26.3199 633.117 26.6961 633.397 27.0184C633.775 27.4547 634.365 27.73 634.971 27.8995C635.591 28.0731 636.302 28.1562 637.002 28.1562C637.701 28.1562 638.412 28.0731 639.033 27.8995C639.638 27.73 640.228 27.4547 640.607 27.0184C640.886 26.6961 641.046 26.3199 641.165 25.8794ZM636.063 21.9688C636.063 21.1203 636.594 20.6562 637.001 20.6562C637.408 20.6562 637.938 21.1203 637.938 21.9688C637.938 22.8172 637.408 23.2812 637.001 23.2812C636.594 23.2812 636.063 22.8172 636.063 21.9688ZM637.001 19.5312C635.751 19.5312 634.938 20.7462 634.938 21.9688C634.938 23.1913 635.751 24.4062 637.001 24.4062C638.251 24.4062 639.063 23.1913 639.063 21.9688C639.063 20.7462 638.251 19.5312 637.001 19.5312Z" fill="#0D0D0E"/>
<path d="M653.149 25V14.0909H657.516C658.319 14.0909 658.988 14.2099 659.525 14.4478C660.061 14.6857 660.464 15.016 660.734 15.4386C661.004 15.8576 661.139 16.3406 661.139 16.8874C661.139 17.3136 661.053 17.6882 660.883 18.0114C660.713 18.331 660.478 18.5937 660.18 18.7997C659.885 19.0021 659.548 19.146 659.168 19.2312V19.3377C659.583 19.3555 659.972 19.4727 660.334 19.6893C660.7 19.9059 660.997 20.2095 661.224 20.6001C661.451 20.9872 661.565 21.4489 661.565 21.9851C661.565 22.5639 661.421 23.0806 661.133 23.5352C660.849 23.9862 660.428 24.343 659.871 24.6058C659.313 24.8686 658.626 25 657.809 25H653.149ZM655.455 23.1143H657.335C657.978 23.1143 658.447 22.9918 658.742 22.7468C659.036 22.4982 659.184 22.168 659.184 21.756C659.184 21.4542 659.111 21.1879 658.965 20.957C658.82 20.7262 658.612 20.5451 658.342 20.4137C658.076 20.2823 657.758 20.2166 657.389 20.2166H655.455V23.1143ZM655.455 18.6559H657.165C657.481 18.6559 657.762 18.6009 658.007 18.4908C658.255 18.3771 658.45 18.2173 658.592 18.0114C658.738 17.8054 658.811 17.5586 658.811 17.271C658.811 16.8768 658.671 16.5589 658.39 16.3175C658.113 16.076 657.719 15.9553 657.208 15.9553H655.455V18.6559ZM668.09 21.5163V16.8182H670.359V25H668.18V23.5138H668.095C667.91 23.9933 667.603 24.3786 667.174 24.6697C666.747 24.9609 666.227 25.1065 665.613 25.1065C665.066 25.1065 664.585 24.9822 664.169 24.7337C663.754 24.4851 663.429 24.1317 663.195 23.6737C662.964 23.2156 662.847 22.6669 662.843 22.0277V16.8182H665.112V21.6229C665.116 22.1058 665.245 22.4876 665.501 22.7681C665.757 23.0487 666.099 23.1889 666.529 23.1889C666.802 23.1889 667.058 23.1268 667.296 23.0025C667.534 22.8746 667.726 22.6864 667.871 22.4379C668.021 22.1893 668.093 21.8821 668.09 21.5163ZM673.395 28.0682C673.107 28.0682 672.837 28.0451 672.585 27.9989C672.337 27.9563 672.131 27.9013 671.967 27.8338L672.479 26.1399C672.745 26.2216 672.985 26.266 673.198 26.2731C673.414 26.2802 673.601 26.2305 673.757 26.1239C673.917 26.0174 674.047 25.8363 674.146 25.5806L674.279 25.2344L671.344 16.8182H673.731L675.424 22.8267H675.51L677.22 16.8182H679.622L676.442 25.8842C676.289 26.3246 676.081 26.7081 675.819 27.0348C675.559 27.3651 675.231 27.619 674.833 27.7965C674.435 27.9776 673.956 28.0682 673.395 28.0682ZM689.142 21.5163V16.8182H691.411V25H689.232V23.5138H689.147C688.962 23.9933 688.655 24.3786 688.225 24.6697C687.799 24.9609 687.279 25.1065 686.665 25.1065C686.118 25.1065 685.637 24.9822 685.221 24.7337C684.806 24.4851 684.481 24.1317 684.246 23.6737C684.015 23.2156 683.898 22.6669 683.895 22.0277V16.8182H686.164V21.6229C686.167 22.1058 686.297 22.4876 686.553 22.7681C686.808 23.0487 687.151 23.1889 687.581 23.1889C687.854 23.1889 688.11 23.1268 688.348 23.0025C688.586 22.8746 688.778 22.6864 688.923 22.4379C689.072 22.1893 689.145 21.8821 689.142 21.5163ZM699.853 19.1513L697.776 19.2791C697.74 19.1016 697.664 18.9418 697.547 18.7997C697.43 18.6541 697.275 18.5387 697.083 18.4535C696.895 18.3647 696.67 18.3203 696.407 18.3203C696.055 18.3203 695.759 18.3949 695.517 18.544C695.276 18.6896 695.155 18.8849 695.155 19.13C695.155 19.3253 695.233 19.4904 695.39 19.6254C695.546 19.7603 695.814 19.8686 696.194 19.9503L697.675 20.2486C698.47 20.4119 699.063 20.6747 699.454 21.0369C699.844 21.3991 700.04 21.875 700.04 22.4645C700.04 23.0007 699.882 23.4712 699.566 23.8761C699.253 24.2809 698.824 24.5969 698.277 24.8242C697.733 25.0479 697.107 25.1598 696.396 25.1598C695.313 25.1598 694.45 24.9343 693.808 24.4833C693.168 24.0288 692.794 23.4109 692.684 22.6296L694.915 22.5124C694.983 22.8427 695.146 23.0948 695.406 23.2688C695.665 23.4393 695.997 23.5245 696.402 23.5245C696.799 23.5245 697.119 23.4482 697.36 23.2955C697.605 23.1392 697.73 22.9386 697.733 22.6935C697.73 22.4876 697.643 22.3189 697.472 22.1875C697.302 22.0526 697.039 21.9496 696.684 21.8786L695.267 21.5962C694.468 21.4364 693.873 21.1594 693.483 20.7653C693.096 20.3711 692.902 19.8686 692.902 19.2578C692.902 18.7322 693.044 18.2795 693.328 17.8995C693.616 17.5195 694.019 17.2266 694.537 17.0206C695.059 16.8146 695.67 16.7116 696.37 16.7116C697.403 16.7116 698.216 16.93 698.809 17.3668C699.406 17.8036 699.754 18.3984 699.853 19.1513ZM706.913 25.1545C706.391 25.1545 705.926 25.0639 705.518 24.8828C705.109 24.6982 704.786 24.4265 704.548 24.0678C704.314 23.7056 704.197 23.2546 704.197 22.7148C704.197 22.2603 704.28 21.8786 704.447 21.5696C704.614 21.2607 704.841 21.0121 705.129 20.8239C705.417 20.6357 705.743 20.4936 706.109 20.3977C706.478 20.3018 706.866 20.2344 707.27 20.1953C707.746 20.1456 708.13 20.0994 708.421 20.0568C708.712 20.0107 708.923 19.9432 709.055 19.8544C709.186 19.7656 709.252 19.6342 709.252 19.4602V19.4283C709.252 19.0909 709.145 18.8299 708.932 18.6452C708.723 18.4606 708.424 18.3683 708.037 18.3683C707.629 18.3683 707.304 18.4588 707.063 18.6399C706.821 18.8175 706.661 19.0412 706.583 19.3111L704.484 19.1406C704.591 18.6435 704.801 18.2138 705.113 17.8516C705.426 17.4858 705.829 17.2053 706.322 17.0099C706.819 16.8111 707.395 16.7116 708.048 16.7116C708.503 16.7116 708.938 16.7649 709.353 16.8714C709.772 16.978 710.143 17.1431 710.466 17.3668C710.793 17.5906 711.051 17.8782 711.239 18.2298C711.427 18.5778 711.521 18.995 711.521 19.4815V25H709.369V23.8654H709.305C709.174 24.1211 708.998 24.3466 708.778 24.5419C708.558 24.7337 708.293 24.8846 707.984 24.9947C707.675 25.1012 707.318 25.1545 706.913 25.1545ZM707.563 23.5884C707.897 23.5884 708.192 23.5227 708.448 23.3913C708.703 23.2564 708.904 23.0753 709.049 22.848C709.195 22.6207 709.268 22.3633 709.268 22.0756V21.2074C709.197 21.2536 709.099 21.2962 708.975 21.3352C708.854 21.3707 708.717 21.4045 708.565 21.4364C708.412 21.4648 708.259 21.4915 708.107 21.5163C707.954 21.5376 707.815 21.5572 707.691 21.5749C707.425 21.614 707.192 21.6761 706.993 21.7614C706.794 21.8466 706.64 21.962 706.53 22.1076C706.42 22.2496 706.365 22.4272 706.365 22.6403C706.365 22.9492 706.477 23.1854 706.7 23.3487C706.928 23.5085 707.215 23.5884 707.563 23.5884ZM720.09 25.1598C719.252 25.1598 718.531 24.9822 717.927 24.6271C717.327 24.2685 716.865 23.7713 716.542 23.1357C716.223 22.5 716.063 21.7685 716.063 20.9411C716.063 20.103 716.225 19.3679 716.548 18.7358C716.874 18.1001 717.338 17.6048 717.938 17.2496C718.538 16.891 719.252 16.7116 720.079 16.7116C720.793 16.7116 721.418 16.8413 721.954 17.1005C722.49 17.3597 722.915 17.7237 723.227 18.1925C723.54 18.6612 723.712 19.2116 723.744 19.8438H721.603C721.542 19.4354 721.383 19.1069 721.123 18.8583C720.868 18.6062 720.532 18.4801 720.117 18.4801C719.765 18.4801 719.458 18.576 719.195 18.7678C718.936 18.956 718.733 19.2312 718.588 19.5934C718.442 19.9556 718.369 20.3942 718.369 20.9091C718.369 21.4311 718.44 21.875 718.582 22.2408C718.728 22.6065 718.932 22.8853 719.195 23.0771C719.458 23.2688 719.765 23.3647 720.117 23.3647C720.376 23.3647 720.608 23.3114 720.814 23.2049C721.024 23.0984 721.196 22.9439 721.331 22.7415C721.47 22.5355 721.56 22.2887 721.603 22.0011H723.744C723.709 22.6261 723.538 23.1765 723.233 23.6523C722.931 24.1246 722.514 24.494 721.981 24.7603C721.448 25.0266 720.818 25.1598 720.09 25.1598ZM728.714 25.1598C727.886 25.1598 727.171 24.984 726.567 24.6325C725.967 24.2773 725.503 23.7837 725.177 23.1516C724.85 22.516 724.687 21.7791 724.687 20.9411C724.687 20.0959 724.85 19.3572 725.177 18.7251C725.503 18.0895 725.967 17.5959 726.567 17.2443C727.171 16.8892 727.886 16.7116 728.714 16.7116C729.541 16.7116 730.255 16.8892 730.855 17.2443C731.459 17.5959 731.924 18.0895 732.251 18.7251C732.577 19.3572 732.741 20.0959 732.741 20.9411C732.741 21.7791 732.577 22.516 732.251 23.1516C731.924 23.7837 731.459 24.2773 730.855 24.6325C730.255 24.984 729.541 25.1598 728.714 25.1598ZM728.724 23.402C729.101 23.402 729.415 23.2955 729.667 23.0824C729.919 22.8658 730.109 22.571 730.237 22.1982C730.368 21.8253 730.434 21.4009 730.434 20.9251C730.434 20.4492 730.368 20.0249 730.237 19.652C730.109 19.2791 729.919 18.9844 729.667 18.7678C729.415 18.5511 729.101 18.4428 728.724 18.4428C728.344 18.4428 728.025 18.5511 727.765 18.7678C727.51 18.9844 727.316 19.2791 727.185 19.652C727.057 20.0249 726.993 20.4492 726.993 20.9251C726.993 21.4009 727.057 21.8253 727.185 22.1982C727.316 22.571 727.51 22.8658 727.765 23.0824C728.025 23.2955 728.344 23.402 728.724 23.402ZM738.436 16.8182V18.5227H733.386V16.8182H738.436ZM734.542 25V16.2269C734.542 15.6339 734.658 15.142 734.888 14.7514C735.123 14.3608 735.442 14.0678 735.847 13.8725C736.252 13.6772 736.712 13.5795 737.227 13.5795C737.575 13.5795 737.893 13.6062 738.18 13.6594C738.471 13.7127 738.688 13.7607 738.83 13.8033L738.425 15.5078C738.337 15.4794 738.226 15.4528 738.095 15.4279C737.967 15.4031 737.836 15.3906 737.701 15.3906C737.367 15.3906 737.134 15.4688 737.003 15.625C736.872 15.7777 736.806 15.9925 736.806 16.2695V25H734.542ZM744.042 16.8182V18.5227H738.992V16.8182H744.042ZM740.148 25V16.2269C740.148 15.6339 740.264 15.142 740.495 14.7514C740.729 14.3608 741.048 14.0678 741.453 13.8725C741.858 13.6772 742.318 13.5795 742.833 13.5795C743.181 13.5795 743.499 13.6062 743.786 13.6594C744.078 13.7127 744.294 13.7607 744.436 13.8033L744.031 15.5078C743.943 15.4794 743.833 15.4528 743.701 15.4279C743.573 15.4031 743.442 15.3906 743.307 15.3906C742.973 15.3906 742.741 15.4688 742.609 15.625C742.478 15.7777 742.412 15.9925 742.412 16.2695V25H740.148ZM748.684 25.1598C747.842 25.1598 747.118 24.9893 746.511 24.6484C745.907 24.304 745.442 23.8175 745.115 23.1889C744.789 22.5568 744.625 21.8093 744.625 20.9464C744.625 20.1048 744.789 19.3661 745.115 18.7305C745.442 18.0948 745.902 17.5994 746.495 17.2443C747.091 16.8892 747.791 16.7116 748.594 16.7116C749.133 16.7116 749.636 16.7987 750.101 16.9727C750.57 17.1431 750.978 17.4006 751.326 17.745C751.678 18.0895 751.951 18.5227 752.146 19.0447C752.342 19.5632 752.439 20.1705 752.439 20.8665V21.4897H745.531V20.0835H750.303C750.303 19.7567 750.232 19.4673 750.09 19.2152C749.948 18.9631 749.751 18.766 749.499 18.6239C749.251 18.4783 748.961 18.4055 748.631 18.4055C748.286 18.4055 747.981 18.4854 747.715 18.6452C747.452 18.8015 747.246 19.0128 747.097 19.2791C746.948 19.5419 746.871 19.8349 746.868 20.158V21.495C746.868 21.8999 746.942 22.2496 747.091 22.5444C747.244 22.8391 747.459 23.0664 747.736 23.2262C748.013 23.386 748.341 23.4659 748.721 23.4659C748.974 23.4659 749.204 23.4304 749.414 23.3594C749.623 23.2884 749.803 23.1818 749.952 23.0398C750.101 22.8977 750.215 22.7237 750.293 22.5178L752.392 22.6562C752.285 23.1605 752.067 23.6009 751.736 23.9773C751.41 24.3501 750.987 24.6413 750.469 24.8509C749.954 25.0568 749.359 25.1598 748.684 25.1598ZM757.469 25.1598C756.627 25.1598 755.903 24.9893 755.296 24.6484C754.692 24.304 754.227 23.8175 753.9 23.1889C753.573 22.5568 753.41 21.8093 753.41 20.9464C753.41 20.1048 753.573 19.3661 753.9 18.7305C754.227 18.0948 754.687 17.5994 755.28 17.2443C755.876 16.8892 756.576 16.7116 757.378 16.7116C757.918 16.7116 758.421 16.7987 758.886 16.9727C759.355 17.1431 759.763 17.4006 760.111 17.745C760.463 18.0895 760.736 18.5227 760.931 19.0447C761.127 19.5632 761.224 20.1705 761.224 20.8665V21.4897H754.316V20.0835H759.088C759.088 19.7567 759.017 19.4673 758.875 19.2152C758.733 18.9631 758.536 18.766 758.284 18.6239C758.035 18.4783 757.746 18.4055 757.416 18.4055C757.071 18.4055 756.766 18.4854 756.5 18.6452C756.237 18.8015 756.031 19.0128 755.882 19.2791C755.732 19.5419 755.656 19.8349 755.653 20.158V21.495C755.653 21.8999 755.727 22.2496 755.876 22.5444C756.029 22.8391 756.244 23.0664 756.521 23.2262C756.798 23.386 757.126 23.4659 757.506 23.4659C757.758 23.4659 757.989 23.4304 758.199 23.3594C758.408 23.2884 758.588 23.1818 758.737 23.0398C758.886 22.8977 759 22.7237 759.078 22.5178L761.176 22.6562C761.07 23.1605 760.851 23.6009 760.521 23.9773C760.194 24.3501 759.772 24.6413 759.253 24.8509C758.738 25.0568 758.144 25.1598 757.469 25.1598Z" fill="#0D0D0E"/>
</svg>
