<svg width="815" height="40" viewBox="0 0 815 40" fill="none" xmlns="http://www.w3.org/2000/svg">
<rect width="185" height="40" rx="8" fill="#5D6AF2"/>
<path fill-rule="evenodd" clip-rule="evenodd" d="M23.6019 13.6582C23.6019 13.6582 24.7146 13.4329 26 13.4329C27.2854 13.4329 28.3981 13.6582 28.3981 13.6582L28.8431 12.7699C28.937 12.5823 29.1438 12.4729 29.355 12.5058C31.5012 12.8408 33.5014 13.9516 33.5014 13.9516C33.5014 13.9516 36 16.371 36 24.9038C36.001 25.0575 35.9271 25.2066 35.7992 25.296C34.1586 26.4425 32.1662 27.1955 31.3623 27.4733C31.1493 27.5469 30.916 27.4639 30.7946 27.2779L30.232 26.4162C30.078 26.1804 30.158 25.8666 30.4072 25.7288L31.5828 25.079L31.1073 24.7159C31.1073 24.7159 29.2052 25.8304 26 25.8304C22.7948 25.8304 20.8927 24.7159 20.8927 24.7159L20.4172 25.079L21.5927 25.7288C21.842 25.8666 21.922 26.1804 21.768 26.4162L21.2054 27.2779C21.084 27.4639 20.8506 27.5469 20.6376 27.4733C19.8338 27.1955 17.8413 26.4425 16.2008 25.296C16.0729 25.2066 15.999 25.0575 16 24.9038C16 16.371 18.5002 13.9516 18.5002 13.9516C18.5002 13.9516 20.5004 12.8405 22.645 12.5058C22.8562 12.4729 23.0629 12.5823 23.1569 12.7699L23.6019 13.6582ZM31.2512 20.7258C31.2512 21.7948 30.4677 22.6613 29.5011 22.6613C28.5345 22.6613 27.7509 21.7948 27.7509 20.7258C27.7509 19.6568 28.5345 18.7903 29.5011 18.7903C30.4677 18.7903 31.2512 19.6568 31.2512 20.7258ZM22.5005 22.6613C23.4671 22.6613 24.2507 21.7948 24.2507 20.7258C24.2507 19.6568 23.4671 18.7903 22.5005 18.7903C21.5339 18.7903 20.7504 19.6568 20.7504 20.7258C20.7504 21.7948 21.5339 22.6613 22.5005 22.6613Z" fill="#F1EFEF"/>
<path d="M48.0361 13.8636H50.4679V21.9773C50.4679 22.7273 50.2993 23.3788 49.9622 23.9318C49.6289 24.4848 49.1649 24.911 48.5702 25.2102C47.9755 25.5095 47.2842 25.6591 46.4963 25.6591C45.7955 25.6591 45.1592 25.536 44.5872 25.2898C44.019 25.0398 43.5683 24.661 43.2349 24.1534C42.9016 23.642 42.7368 23 42.7406 22.2273H45.1895C45.1971 22.5341 45.2596 22.7973 45.377 23.017C45.4982 23.233 45.663 23.3996 45.8713 23.517C46.0834 23.6307 46.3334 23.6875 46.6213 23.6875C46.9243 23.6875 47.18 23.6231 47.3884 23.4943C47.6005 23.3617 47.7615 23.1686 47.8713 22.9148C47.9812 22.661 48.0361 22.3485 48.0361 21.9773V13.8636ZM56.3197 25.6705C55.4371 25.6705 54.6739 25.483 54.0299 25.108C53.3898 24.7292 52.8955 24.2027 52.547 23.5284C52.1985 22.8504 52.0243 22.0644 52.0243 21.1705C52.0243 20.2689 52.1985 19.4811 52.547 18.8068C52.8955 18.1288 53.3898 17.6023 54.0299 17.2273C54.6739 16.8485 55.4371 16.6591 56.3197 16.6591C57.2023 16.6591 57.9637 16.8485 58.6038 17.2273C59.2477 17.6023 59.744 18.1288 60.0924 18.8068C60.4409 19.4811 60.6152 20.2689 60.6152 21.1705C60.6152 22.0644 60.4409 22.8504 60.0924 23.5284C59.744 24.2027 59.2477 24.7292 58.6038 25.108C57.9637 25.483 57.2023 25.6705 56.3197 25.6705ZM56.3311 23.7955C56.7326 23.7955 57.0678 23.6818 57.3368 23.4545C57.6057 23.2235 57.8084 22.9091 57.9447 22.5114C58.0849 22.1136 58.1549 21.661 58.1549 21.1534C58.1549 20.6458 58.0849 20.1932 57.9447 19.7955C57.8084 19.3977 57.6057 19.0833 57.3368 18.8523C57.0678 18.6212 56.7326 18.5057 56.3311 18.5057C55.9258 18.5057 55.5849 18.6212 55.3084 18.8523C55.0356 19.0833 54.8292 19.3977 54.689 19.7955C54.5527 20.1932 54.4845 20.6458 54.4845 21.1534C54.4845 21.661 54.5527 22.1136 54.689 22.5114C54.8292 22.9091 55.0356 23.2235 55.3084 23.4545C55.5849 23.6818 55.9258 23.7955 56.3311 23.7955ZM62.109 25.5V16.7727H64.5295V25.5H62.109ZM63.3249 15.6477C62.9651 15.6477 62.6564 15.5284 62.3988 15.2898C62.145 15.0473 62.0181 14.7576 62.0181 14.4205C62.0181 14.0871 62.145 13.8011 62.3988 13.5625C62.6564 13.3201 62.9651 13.1989 63.3249 13.1989C63.6848 13.1989 63.9916 13.3201 64.2454 13.5625C64.503 13.8011 64.6318 14.0871 64.6318 14.4205C64.6318 14.7576 64.503 15.0473 64.2454 15.2898C63.9916 15.5284 63.6848 15.6477 63.3249 15.6477ZM68.8089 20.4545V25.5H66.3884V16.7727H68.6952V18.3125H68.7975C68.9907 17.8049 69.3145 17.4034 69.7691 17.108C70.2236 16.8087 70.7748 16.6591 71.4225 16.6591C72.0286 16.6591 72.557 16.7917 73.0077 17.0568C73.4585 17.322 73.8089 17.7008 74.0589 18.1932C74.3089 18.6818 74.4339 19.2652 74.4339 19.9432V25.5H72.0134V20.375C72.0172 19.8409 71.8808 19.4242 71.6043 19.125C71.3278 18.822 70.9471 18.6705 70.4623 18.6705C70.1365 18.6705 69.8486 18.7405 69.5986 18.8807C69.3524 19.0208 69.1592 19.2254 69.0191 19.4943C68.8827 19.7595 68.8127 20.0795 68.8089 20.4545ZM83.8278 25.6705C82.9453 25.6705 82.182 25.483 81.5381 25.108C80.8979 24.7292 80.4036 24.2027 80.0551 23.5284C79.7066 22.8504 79.5324 22.0644 79.5324 21.1705C79.5324 20.2689 79.7066 19.4811 80.0551 18.8068C80.4036 18.1288 80.8979 17.6023 81.5381 17.2273C82.182 16.8485 82.9453 16.6591 83.8278 16.6591C84.7104 16.6591 85.4718 16.8485 86.1119 17.2273C86.7559 17.6023 87.2521 18.1288 87.6006 18.8068C87.9491 19.4811 88.1233 20.2689 88.1233 21.1705C88.1233 22.0644 87.9491 22.8504 87.6006 23.5284C87.2521 24.2027 86.7559 24.7292 86.1119 25.108C85.4718 25.483 84.7104 25.6705 83.8278 25.6705ZM83.8392 23.7955C84.2407 23.7955 84.5759 23.6818 84.8449 23.4545C85.1138 23.2235 85.3165 22.9091 85.4528 22.5114C85.593 22.1136 85.6631 21.661 85.6631 21.1534C85.6631 20.6458 85.593 20.1932 85.4528 19.7955C85.3165 19.3977 85.1138 19.0833 84.8449 18.8523C84.5759 18.6212 84.2407 18.5057 83.8392 18.5057C83.4339 18.5057 83.093 18.6212 82.8165 18.8523C82.5437 19.0833 82.3373 19.3977 82.1972 19.7955C82.0608 20.1932 81.9926 20.6458 81.9926 21.1534C81.9926 21.661 82.0608 22.1136 82.1972 22.5114C82.3373 22.9091 82.5437 23.2235 82.8165 23.4545C83.093 23.6818 83.4339 23.7955 83.8392 23.7955ZM95.2137 21.7841V16.7727H97.6342V25.5H95.3103V23.9148H95.2194C95.0225 24.4261 94.6948 24.8371 94.2365 25.1477C93.7819 25.4583 93.227 25.6136 92.5717 25.6136C91.9884 25.6136 91.4751 25.4811 91.0319 25.2159C90.5887 24.9508 90.2422 24.5739 89.9922 24.0852C89.7459 23.5966 89.6209 23.0114 89.6172 22.3295V16.7727H92.0376V21.8977C92.0414 22.4129 92.1797 22.8201 92.4524 23.1193C92.7251 23.4186 93.0906 23.5682 93.549 23.5682C93.8406 23.5682 94.1134 23.5019 94.3672 23.3693C94.6209 23.233 94.8255 23.0322 94.9808 22.767C95.1399 22.5019 95.2175 22.1742 95.2137 21.7841ZM99.4903 25.5V16.7727H101.837V18.2955H101.928C102.087 17.7538 102.354 17.3447 102.729 17.0682C103.104 16.7879 103.536 16.6477 104.024 16.6477C104.146 16.6477 104.276 16.6553 104.416 16.6705C104.557 16.6856 104.68 16.7064 104.786 16.733V18.8807C104.672 18.8466 104.515 18.8163 104.314 18.7898C104.113 18.7633 103.93 18.75 103.763 18.75C103.407 18.75 103.089 18.8277 102.808 18.983C102.532 19.1345 102.312 19.3466 102.149 19.6193C101.99 19.892 101.911 20.2064 101.911 20.5625V25.5H99.4903ZM113.751 25.5H109.626V13.8636H113.785C114.955 13.8636 115.963 14.0966 116.808 14.5625C117.652 15.0246 118.302 15.6894 118.756 16.5568C119.215 17.4242 119.444 18.4621 119.444 19.6705C119.444 20.8826 119.215 21.9242 118.756 22.7955C118.302 23.6667 117.648 24.3352 116.796 24.8011C115.948 25.267 114.933 25.5 113.751 25.5ZM112.086 23.392H113.648C114.376 23.392 114.987 23.2633 115.484 23.0057C115.984 22.7443 116.359 22.3409 116.609 21.7955C116.862 21.2462 116.989 20.5379 116.989 19.6705C116.989 18.8106 116.862 18.108 116.609 17.5625C116.359 17.017 115.986 16.6155 115.489 16.358C114.993 16.1004 114.381 15.9716 113.654 15.9716H112.086V23.392ZM121.141 25.5V16.7727H123.561V25.5H121.141ZM122.357 15.6477C121.997 15.6477 121.688 15.5284 121.431 15.2898C121.177 15.0473 121.05 14.7576 121.05 14.4205C121.05 14.0871 121.177 13.8011 121.431 13.5625C121.688 13.3201 121.997 13.1989 122.357 13.1989C122.717 13.1989 123.023 13.3201 123.277 13.5625C123.535 13.8011 123.664 14.0871 123.664 14.4205C123.664 14.7576 123.535 15.0473 123.277 15.2898C123.023 15.5284 122.717 15.6477 122.357 15.6477ZM132.682 19.2614L130.466 19.3977C130.428 19.2083 130.346 19.0379 130.221 18.8864C130.096 18.7311 129.932 18.608 129.727 18.517C129.526 18.4223 129.286 18.375 129.006 18.375C128.631 18.375 128.314 18.4545 128.057 18.6136C127.799 18.7689 127.67 18.9773 127.67 19.2386C127.67 19.447 127.754 19.6231 127.92 19.767C128.087 19.911 128.373 20.0265 128.778 20.1136L130.358 20.4318C131.206 20.6061 131.839 20.8864 132.256 21.2727C132.672 21.6591 132.881 22.1667 132.881 22.7955C132.881 23.3674 132.712 23.8693 132.375 24.3011C132.041 24.733 131.583 25.0701 131 25.3125C130.42 25.5511 129.752 25.6705 128.994 25.6705C127.839 25.6705 126.918 25.4299 126.233 24.9489C125.551 24.464 125.151 23.8049 125.034 22.9716L127.415 22.8466C127.487 23.1989 127.661 23.4678 127.937 23.6534C128.214 23.8352 128.568 23.9261 129 23.9261C129.424 23.9261 129.765 23.8447 130.023 23.6818C130.284 23.5152 130.416 23.3011 130.42 23.0398C130.416 22.8201 130.324 22.6402 130.142 22.5C129.96 22.3561 129.68 22.2462 129.301 22.1705L127.79 21.8693C126.937 21.6989 126.303 21.4034 125.886 20.983C125.473 20.5625 125.267 20.0265 125.267 19.375C125.267 18.8144 125.418 18.3314 125.721 17.9261C126.028 17.5208 126.458 17.2083 127.011 16.9886C127.568 16.7689 128.22 16.6591 128.966 16.6591C130.068 16.6591 130.935 16.892 131.568 17.358C132.204 17.8239 132.576 18.4583 132.682 19.2614ZM138.268 25.6705C137.374 25.6705 136.605 25.4811 135.961 25.1023C135.321 24.7197 134.828 24.1894 134.484 23.5114C134.143 22.8333 133.972 22.053 133.972 21.1705C133.972 20.2765 134.145 19.4924 134.489 18.8182C134.838 18.1402 135.332 17.6117 135.972 17.233C136.613 16.8504 137.374 16.6591 138.256 16.6591C139.018 16.6591 139.685 16.7973 140.256 17.0739C140.828 17.3504 141.281 17.7386 141.614 18.2386C141.948 18.7386 142.131 19.3258 142.166 20H139.881C139.817 19.5644 139.647 19.214 139.37 18.9489C139.097 18.6799 138.739 18.5455 138.296 18.5455C137.921 18.5455 137.594 18.6477 137.313 18.8523C137.037 19.053 136.821 19.3466 136.666 19.733C136.51 20.1193 136.433 20.5871 136.433 21.1364C136.433 21.6932 136.508 22.1667 136.66 22.5568C136.815 22.947 137.033 23.2443 137.313 23.4489C137.594 23.6534 137.921 23.7557 138.296 23.7557C138.573 23.7557 138.821 23.6989 139.041 23.5852C139.264 23.4716 139.448 23.3068 139.592 23.0909C139.739 22.8712 139.836 22.608 139.881 22.3011H142.166C142.128 22.9678 141.946 23.5549 141.62 24.0625C141.298 24.5663 140.853 24.9602 140.285 25.2443C139.717 25.5284 139.044 25.6705 138.268 25.6705ZM147.578 25.6705C146.696 25.6705 145.933 25.483 145.289 25.108C144.649 24.7292 144.154 24.2027 143.806 23.5284C143.457 22.8504 143.283 22.0644 143.283 21.1705C143.283 20.2689 143.457 19.4811 143.806 18.8068C144.154 18.1288 144.649 17.6023 145.289 17.2273C145.933 16.8485 146.696 16.6591 147.578 16.6591C148.461 16.6591 149.222 16.8485 149.863 17.2273C150.506 17.6023 151.003 18.1288 151.351 18.8068C151.7 19.4811 151.874 20.2689 151.874 21.1705C151.874 22.0644 151.7 22.8504 151.351 23.5284C151.003 24.2027 150.506 24.7292 149.863 25.108C149.222 25.483 148.461 25.6705 147.578 25.6705ZM147.59 23.7955C147.991 23.7955 148.327 23.6818 148.596 23.4545C148.864 23.2235 149.067 22.9091 149.203 22.5114C149.344 22.1136 149.414 21.661 149.414 21.1534C149.414 20.6458 149.344 20.1932 149.203 19.7955C149.067 19.3977 148.864 19.0833 148.596 18.8523C148.327 18.6212 147.991 18.5057 147.59 18.5057C147.185 18.5057 146.844 18.6212 146.567 18.8523C146.294 19.0833 146.088 19.3977 145.948 19.7955C145.811 20.1932 145.743 20.6458 145.743 21.1534C145.743 21.661 145.811 22.1136 145.948 22.5114C146.088 22.9091 146.294 23.2235 146.567 23.4545C146.844 23.6818 147.185 23.7955 147.59 23.7955ZM153.368 25.5V16.7727H155.714V18.2955H155.805C155.964 17.7538 156.231 17.3447 156.606 17.0682C156.981 16.7879 157.413 16.6477 157.902 16.6477C158.023 16.6477 158.154 16.6553 158.294 16.6705C158.434 16.6856 158.557 16.7064 158.663 16.733V18.8807C158.55 18.8466 158.392 18.8163 158.192 18.7898C157.991 18.7633 157.807 18.75 157.641 18.75C157.284 18.75 156.966 18.8277 156.686 18.983C156.409 19.1345 156.19 19.3466 156.027 19.6193C155.868 19.892 155.788 20.2064 155.788 20.5625V25.5H153.368ZM162.644 25.642C161.981 25.642 161.381 25.4716 160.843 25.1307C160.309 24.786 159.885 24.2803 159.57 23.6136C159.26 22.9432 159.105 22.1212 159.105 21.1477C159.105 20.1477 159.266 19.3163 159.588 18.6534C159.909 17.9867 160.338 17.4886 160.872 17.1591C161.409 16.8258 161.998 16.6591 162.639 16.6591C163.127 16.6591 163.534 16.7424 163.86 16.9091C164.19 17.072 164.455 17.2765 164.656 17.5227C164.86 17.7652 165.016 18.0038 165.122 18.2386H165.195V13.8636H167.61V25.5H165.224V24.1023H165.122C165.008 24.3447 164.847 24.5852 164.639 24.8239C164.434 25.0587 164.167 25.2538 163.838 25.4091C163.512 25.5644 163.114 25.642 162.644 25.642ZM163.411 23.7159C163.802 23.7159 164.131 23.6098 164.4 23.3977C164.673 23.1818 164.881 22.8807 165.025 22.4943C165.173 22.108 165.247 21.6553 165.247 21.1364C165.247 20.6174 165.175 20.1667 165.031 19.7841C164.887 19.4015 164.678 19.1061 164.406 18.8977C164.133 18.6894 163.802 18.5852 163.411 18.5852C163.014 18.5852 162.678 18.6932 162.406 18.9091C162.133 19.125 161.927 19.4242 161.786 19.8068C161.646 20.1894 161.576 20.6326 161.576 21.1364C161.576 21.6439 161.646 22.0928 161.786 22.483C161.93 22.8693 162.137 23.1723 162.406 23.392C162.678 23.608 163.014 23.7159 163.411 23.7159Z" fill="#F1EFEF"/>
<rect x="189.5" y="0.5" width="230" height="39" rx="7.5" fill="#1D1C1B"/>
<rect x="189.5" y="0.5" width="230" height="39" rx="7.5" stroke="#4B4B4B"/>
<path fill-rule="evenodd" clip-rule="evenodd" d="M209.191 27.8023C208.134 27.2891 207.255 26.4242 206.564 25.2614C206.329 24.8657 206.507 24.365 206.922 24.1656C207.337 23.9663 207.829 24.1451 208.073 24.5357C208.614 25.4048 209.244 25.9754 209.919 26.303C210.761 26.7121 211.77 26.7887 212.95 26.4631L213.394 28.0697C211.902 28.4813 210.465 28.4211 209.191 27.8023Z" fill="#F1EFEF"/>
<path d="M209.911 11.0415C210.27 11.0415 210.77 11.1253 211.108 11.2073C211.708 11.3528 212.477 11.6319 213.194 12.1718C213.819 12.0244 214.703 11.8525 215.833 11.8525C216.964 11.8524 217.848 12.0244 218.472 12.1718C219.19 11.6319 219.958 11.3528 220.558 11.2073C220.897 11.1253 221.409 11.0415 221.756 11.0415H222.183L222.338 11.4396C222.554 11.9941 222.632 12.6686 222.633 13.3013C222.634 13.8339 222.58 14.3736 222.487 14.8443C222.74 15.2457 222.977 15.7214 223.161 16.2098C223.381 16.7921 223.542 17.4365 223.542 18.0237C223.542 20.0421 222.865 21.4676 221.796 22.4733C220.983 23.2373 219.975 23.7292 218.955 24.0785C219.173 24.4075 219.375 24.8423 219.375 25.4124V27.2915C219.375 28.0772 219.375 28.47 219.131 28.7141C218.887 28.9582 218.494 28.9582 217.708 28.9582H213.958C213.173 28.9582 212.78 28.9582 212.536 28.7141C212.292 28.47 212.292 28.0772 212.292 27.2915V25.4124C212.292 24.8423 212.493 24.4075 212.712 24.0785C211.692 23.7292 210.683 23.2373 209.871 22.4733C208.801 21.4676 208.125 20.0421 208.125 18.0237C208.125 17.4365 208.286 16.7921 208.505 16.2098C208.689 15.7214 208.926 15.2457 209.18 14.8443C209.086 14.3736 209.032 13.8339 209.033 13.3013C209.034 12.6686 209.113 11.9941 209.329 11.4396L209.484 11.0415H209.911Z" fill="#F1EFEF"/>
<path d="M238.75 17.2102C238.704 16.7519 238.509 16.3958 238.165 16.142C237.82 15.8883 237.352 15.7614 236.761 15.7614C236.36 15.7614 236.021 15.8182 235.744 15.9318C235.468 16.0417 235.255 16.1951 235.108 16.392C234.964 16.589 234.892 16.8125 234.892 17.0625C234.884 17.2708 234.928 17.4527 235.023 17.608C235.121 17.7633 235.255 17.8977 235.426 18.0114C235.596 18.1212 235.793 18.2178 236.017 18.3011C236.24 18.3807 236.479 18.4489 236.733 18.5057L237.778 18.7557C238.286 18.8693 238.752 19.0208 239.176 19.2102C239.6 19.3996 239.968 19.6326 240.278 19.9091C240.589 20.1856 240.829 20.5114 241 20.8864C241.174 21.2614 241.263 21.6913 241.267 22.1761C241.263 22.8883 241.081 23.5057 240.721 24.0284C240.365 24.5473 239.85 24.9508 239.176 25.2386C238.505 25.5227 237.697 25.6648 236.75 25.6648C235.81 25.6648 234.992 25.5208 234.295 25.233C233.602 24.9451 233.06 24.5189 232.67 23.9545C232.284 23.3864 232.081 22.6837 232.062 21.8466H234.443C234.469 22.2367 234.581 22.5625 234.778 22.8239C234.979 23.0814 235.246 23.2765 235.579 23.4091C235.916 23.5379 236.297 23.6023 236.721 23.6023C237.138 23.6023 237.5 23.5417 237.807 23.4205C238.117 23.2992 238.358 23.1307 238.528 22.9148C238.699 22.6989 238.784 22.4508 238.784 22.1705C238.784 21.9091 238.706 21.6894 238.551 21.5114C238.399 21.3333 238.176 21.1818 237.88 21.0568C237.589 20.9318 237.231 20.8182 236.807 20.7159L235.54 20.3977C234.559 20.1591 233.784 19.786 233.216 19.2784C232.648 18.7708 232.365 18.0871 232.369 17.2273C232.365 16.5227 232.553 15.9072 232.932 15.3807C233.314 14.8542 233.839 14.4432 234.505 14.1477C235.172 13.8523 235.93 13.7045 236.778 13.7045C237.642 13.7045 238.396 13.8523 239.04 14.1477C239.687 14.4432 240.191 14.8542 240.551 15.3807C240.911 15.9072 241.096 16.517 241.108 17.2102H238.75ZM246.773 25.6705C245.876 25.6705 245.103 25.4886 244.455 25.125C243.811 24.7576 243.315 24.2386 242.967 23.5682C242.618 22.8939 242.444 22.0966 242.444 21.1761C242.444 20.2784 242.618 19.4905 242.967 18.8125C243.315 18.1345 243.806 17.6061 244.438 17.2273C245.075 16.8485 245.821 16.6591 246.677 16.6591C247.253 16.6591 247.789 16.7519 248.285 16.9375C248.785 17.1193 249.22 17.3939 249.592 17.7614C249.967 18.1288 250.258 18.5909 250.467 19.1477C250.675 19.7008 250.779 20.3485 250.779 21.0909V21.7557H243.41V20.2557H248.501C248.501 19.9072 248.425 19.5985 248.273 19.3295C248.122 19.0606 247.912 18.8504 247.643 18.6989C247.378 18.5436 247.069 18.4659 246.717 18.4659C246.349 18.4659 246.023 18.5511 245.739 18.7216C245.459 18.8883 245.239 19.1136 245.08 19.3977C244.921 19.678 244.84 19.9905 244.836 20.3352V21.7614C244.836 22.1932 244.916 22.5663 245.075 22.8807C245.238 23.1951 245.467 23.4375 245.762 23.608C246.058 23.7784 246.408 23.8636 246.813 23.8636C247.082 23.8636 247.328 23.8258 247.552 23.75C247.775 23.6742 247.967 23.5606 248.126 23.4091C248.285 23.2576 248.406 23.072 248.489 22.8523L250.728 23C250.614 23.5379 250.381 24.0076 250.029 24.4091C249.681 24.8068 249.23 25.1174 248.677 25.3409C248.128 25.5606 247.493 25.6705 246.773 25.6705ZM256.256 25.6705C255.358 25.6705 254.586 25.4886 253.938 25.125C253.294 24.7576 252.798 24.2386 252.449 23.5682C252.101 22.8939 251.926 22.0966 251.926 21.1761C251.926 20.2784 252.101 19.4905 252.449 18.8125C252.798 18.1345 253.288 17.6061 253.921 17.2273C254.557 16.8485 255.303 16.6591 256.159 16.6591C256.735 16.6591 257.271 16.7519 257.767 16.9375C258.267 17.1193 258.703 17.3939 259.074 17.7614C259.449 18.1288 259.741 18.5909 259.949 19.1477C260.158 19.7008 260.262 20.3485 260.262 21.0909V21.7557H252.892V20.2557H257.983C257.983 19.9072 257.908 19.5985 257.756 19.3295C257.604 19.0606 257.394 18.8504 257.125 18.6989C256.86 18.5436 256.551 18.4659 256.199 18.4659C255.832 18.4659 255.506 18.5511 255.222 18.7216C254.942 18.8883 254.722 19.1136 254.563 19.3977C254.404 19.678 254.322 19.9905 254.318 20.3352V21.7614C254.318 22.1932 254.398 22.5663 254.557 22.8807C254.72 23.1951 254.949 23.4375 255.245 23.608C255.54 23.7784 255.89 23.8636 256.296 23.8636C256.565 23.8636 256.811 23.8258 257.034 23.75C257.258 23.6742 257.449 23.5606 257.608 23.4091C257.767 23.2576 257.889 23.072 257.972 22.8523L260.211 23C260.097 23.5379 259.864 24.0076 259.512 24.4091C259.163 24.8068 258.712 25.1174 258.159 25.3409C257.61 25.5606 256.976 25.6705 256.256 25.6705ZM269.328 25.6705C268.445 25.6705 267.682 25.483 267.038 25.108C266.398 24.7292 265.903 24.2027 265.555 23.5284C265.206 22.8504 265.032 22.0644 265.032 21.1705C265.032 20.2689 265.206 19.4811 265.555 18.8068C265.903 18.1288 266.398 17.6023 267.038 17.2273C267.682 16.8485 268.445 16.6591 269.328 16.6591C270.21 16.6591 270.971 16.8485 271.612 17.2273C272.256 17.6023 272.752 18.1288 273.1 18.8068C273.449 19.4811 273.623 20.2689 273.623 21.1705C273.623 22.0644 273.449 22.8504 273.1 23.5284C272.752 24.2027 272.256 24.7292 271.612 25.108C270.971 25.483 270.21 25.6705 269.328 25.6705ZM269.339 23.7955C269.74 23.7955 270.076 23.6818 270.345 23.4545C270.614 23.2235 270.816 22.9091 270.953 22.5114C271.093 22.1136 271.163 21.661 271.163 21.1534C271.163 20.6458 271.093 20.1932 270.953 19.7955C270.816 19.3977 270.614 19.0833 270.345 18.8523C270.076 18.6212 269.74 18.5057 269.339 18.5057C268.934 18.5057 268.593 18.6212 268.316 18.8523C268.043 19.0833 267.837 19.3977 267.697 19.7955C267.56 20.1932 267.492 20.6458 267.492 21.1534C267.492 21.661 267.56 22.1136 267.697 22.5114C267.837 22.9091 268.043 23.2235 268.316 23.4545C268.593 23.6818 268.934 23.7955 269.339 23.7955ZM280.713 21.7841V16.7727H283.134V25.5H280.81V23.9148H280.719C280.522 24.4261 280.194 24.8371 279.736 25.1477C279.282 25.4583 278.727 25.6136 278.071 25.6136C277.488 25.6136 276.975 25.4811 276.532 25.2159C276.088 24.9508 275.742 24.5739 275.492 24.0852C275.246 23.5966 275.121 23.0114 275.117 22.3295V16.7727H277.537V21.8977C277.541 22.4129 277.679 22.8201 277.952 23.1193C278.225 23.4186 278.59 23.5682 279.049 23.5682C279.34 23.5682 279.613 23.5019 279.867 23.3693C280.121 23.233 280.325 23.0322 280.48 22.767C280.64 22.5019 280.717 22.1742 280.713 21.7841ZM284.99 25.5V16.7727H287.337V18.2955H287.427C287.587 17.7538 287.854 17.3447 288.229 17.0682C288.604 16.7879 289.035 16.6477 289.524 16.6477C289.645 16.6477 289.776 16.6553 289.916 16.6705C290.056 16.6856 290.179 16.7064 290.285 16.733V18.8807C290.172 18.8466 290.015 18.8163 289.814 18.7898C289.613 18.7633 289.429 18.75 289.263 18.75C288.907 18.75 288.588 18.8277 288.308 18.983C288.032 19.1345 287.812 19.3466 287.649 19.6193C287.49 19.892 287.41 20.2064 287.41 20.5625V25.5H284.99ZM299.023 25.6705C298.141 25.6705 297.377 25.483 296.733 25.108C296.093 24.7292 295.599 24.2027 295.25 23.5284C294.902 22.8504 294.728 22.0644 294.728 21.1705C294.728 20.2689 294.902 19.4811 295.25 18.8068C295.599 18.1288 296.093 17.6023 296.733 17.2273C297.377 16.8485 298.141 16.6591 299.023 16.6591C299.906 16.6591 300.667 16.8485 301.307 17.2273C301.951 17.6023 302.447 18.1288 302.796 18.8068C303.144 19.4811 303.319 20.2689 303.319 21.1705C303.319 22.0644 303.144 22.8504 302.796 23.5284C302.447 24.2027 301.951 24.7292 301.307 25.108C300.667 25.483 299.906 25.6705 299.023 25.6705ZM299.035 23.7955C299.436 23.7955 299.771 23.6818 300.04 23.4545C300.309 23.2235 300.512 22.9091 300.648 22.5114C300.788 22.1136 300.858 21.661 300.858 21.1534C300.858 20.6458 300.788 20.1932 300.648 19.7955C300.512 19.3977 300.309 19.0833 300.04 18.8523C299.771 18.6212 299.436 18.5057 299.035 18.5057C298.629 18.5057 298.288 18.6212 298.012 18.8523C297.739 19.0833 297.533 19.3977 297.392 19.7955C297.256 20.1932 297.188 20.6458 297.188 21.1534C297.188 21.661 297.256 22.1136 297.392 22.5114C297.533 22.9091 297.739 23.2235 298.012 23.4545C298.288 23.6818 298.629 23.7955 299.035 23.7955ZM309.455 16.7727V18.5909H304.199V16.7727H309.455ZM305.392 14.6818H307.812V22.8182C307.812 23.0417 307.847 23.2159 307.915 23.3409C307.983 23.4621 308.078 23.5473 308.199 23.5966C308.324 23.6458 308.468 23.6705 308.631 23.6705C308.744 23.6705 308.858 23.661 308.972 23.642C309.085 23.6193 309.172 23.6023 309.233 23.5909L309.614 25.392C309.492 25.4299 309.322 25.4735 309.102 25.5227C308.883 25.5758 308.615 25.608 308.301 25.6193C307.718 25.642 307.206 25.5644 306.767 25.3864C306.331 25.2083 305.992 24.9318 305.75 24.5568C305.508 24.1818 305.388 23.7083 305.392 23.1364V14.6818ZM313.559 20.4545V25.5H311.139V13.8636H313.491V18.3125H313.593C313.79 17.7973 314.108 17.3939 314.548 17.1023C314.987 16.8068 315.538 16.6591 316.201 16.6591C316.807 16.6591 317.336 16.7917 317.786 17.0568C318.241 17.3182 318.593 17.6951 318.843 18.1875C319.097 18.6761 319.222 19.2614 319.218 19.9432V25.5H316.798V20.375C316.802 19.8371 316.665 19.4186 316.389 19.1193C316.116 18.8201 315.733 18.6705 315.241 18.6705C314.911 18.6705 314.62 18.7405 314.366 18.8807C314.116 19.0208 313.919 19.2254 313.775 19.4943C313.635 19.7595 313.563 20.0795 313.559 20.4545ZM325.02 25.6705C324.123 25.6705 323.35 25.4886 322.702 25.125C322.058 24.7576 321.562 24.2386 321.214 23.5682C320.865 22.8939 320.691 22.0966 320.691 21.1761C320.691 20.2784 320.865 19.4905 321.214 18.8125C321.562 18.1345 322.053 17.6061 322.685 17.2273C323.322 16.8485 324.068 16.6591 324.924 16.6591C325.5 16.6591 326.036 16.7519 326.532 16.9375C327.032 17.1193 327.467 17.3939 327.839 17.7614C328.214 18.1288 328.505 18.5909 328.714 19.1477C328.922 19.7008 329.026 20.3485 329.026 21.0909V21.7557H321.657V20.2557H326.748C326.748 19.9072 326.672 19.5985 326.52 19.3295C326.369 19.0606 326.159 18.8504 325.89 18.6989C325.625 18.5436 325.316 18.4659 324.964 18.4659C324.596 18.4659 324.27 18.5511 323.986 18.7216C323.706 18.8883 323.486 19.1136 323.327 19.3977C323.168 19.678 323.087 19.9905 323.083 20.3352V21.7614C323.083 22.1932 323.162 22.5663 323.322 22.8807C323.484 23.1951 323.714 23.4375 324.009 23.608C324.304 23.7784 324.655 23.8636 325.06 23.8636C325.329 23.8636 325.575 23.8258 325.799 23.75C326.022 23.6742 326.214 23.5606 326.373 23.4091C326.532 23.2576 326.653 23.072 326.736 22.8523L328.975 23C328.861 23.5379 328.628 24.0076 328.276 24.4091C327.928 24.8068 327.477 25.1174 326.924 25.3409C326.375 25.5606 325.74 25.6705 325.02 25.6705ZM330.526 25.5V16.7727H332.872V18.2955H332.963C333.122 17.7538 333.389 17.3447 333.764 17.0682C334.139 16.7879 334.571 16.6477 335.06 16.6477C335.181 16.6477 335.312 16.6553 335.452 16.6705C335.592 16.6856 335.715 16.7064 335.821 16.733V18.8807C335.707 18.8466 335.55 18.8163 335.349 18.7898C335.149 18.7633 334.965 18.75 334.798 18.75C334.442 18.75 334.124 18.8277 333.844 18.983C333.567 19.1345 333.348 19.3466 333.185 19.6193C333.026 19.892 332.946 20.2064 332.946 20.5625V25.5H330.526ZM340.616 28.7727V16.7727H343.002V18.2386H343.11C343.216 18.0038 343.369 17.7652 343.57 17.5227C343.775 17.2765 344.04 17.072 344.366 16.9091C344.695 16.7424 345.104 16.6591 345.593 16.6591C346.229 16.6591 346.816 16.8258 347.354 17.1591C347.892 17.4886 348.322 17.9867 348.644 18.6534C348.966 19.3163 349.127 20.1477 349.127 21.1477C349.127 22.1212 348.97 22.9432 348.655 23.6136C348.345 24.2803 347.921 24.786 347.383 25.1307C346.849 25.4716 346.25 25.642 345.587 25.642C345.117 25.642 344.718 25.5644 344.388 25.4091C344.063 25.2538 343.796 25.0587 343.587 24.8239C343.379 24.5852 343.22 24.3447 343.11 24.1023H343.036V28.7727H340.616ZM342.985 21.1364C342.985 21.6553 343.057 22.108 343.201 22.4943C343.345 22.8807 343.553 23.1818 343.826 23.3977C344.099 23.6098 344.43 23.7159 344.82 23.7159C345.214 23.7159 345.547 23.608 345.82 23.392C346.093 23.1723 346.299 22.8693 346.439 22.483C346.583 22.0928 346.655 21.6439 346.655 21.1364C346.655 20.6326 346.585 20.1894 346.445 19.8068C346.305 19.4242 346.099 19.125 345.826 18.9091C345.553 18.6932 345.218 18.5852 344.82 18.5852C344.426 18.5852 344.093 18.6894 343.82 18.8977C343.551 19.1061 343.345 19.4015 343.201 19.7841C343.057 20.1667 342.985 20.6174 342.985 21.1364ZM350.661 25.5V16.7727H353.007V18.2955H353.098C353.257 17.7538 353.524 17.3447 353.899 17.0682C354.274 16.7879 354.706 16.6477 355.195 16.6477C355.316 16.6477 355.447 16.6553 355.587 16.6705C355.727 16.6856 355.85 16.7064 355.956 16.733V18.8807C355.842 18.8466 355.685 18.8163 355.484 18.7898C355.284 18.7633 355.1 18.75 354.933 18.75C354.577 18.75 354.259 18.8277 353.979 18.983C353.702 19.1345 353.483 19.3466 353.32 19.6193C353.161 19.892 353.081 20.2064 353.081 20.5625V25.5H350.661ZM360.664 25.6705C359.782 25.6705 359.019 25.483 358.375 25.108C357.734 24.7292 357.24 24.2027 356.892 23.5284C356.543 22.8504 356.369 22.0644 356.369 21.1705C356.369 20.2689 356.543 19.4811 356.892 18.8068C357.24 18.1288 357.734 17.6023 358.375 17.2273C359.019 16.8485 359.782 16.6591 360.664 16.6591C361.547 16.6591 362.308 16.8485 362.948 17.2273C363.592 17.6023 364.089 18.1288 364.437 18.8068C364.786 19.4811 364.96 20.2689 364.96 21.1705C364.96 22.0644 364.786 22.8504 364.437 23.5284C364.089 24.2027 363.592 24.7292 362.948 25.108C362.308 25.483 361.547 25.6705 360.664 25.6705ZM360.676 23.7955C361.077 23.7955 361.413 23.6818 361.681 23.4545C361.95 23.2235 362.153 22.9091 362.289 22.5114C362.43 22.1136 362.5 21.661 362.5 21.1534C362.5 20.6458 362.43 20.1932 362.289 19.7955C362.153 19.3977 361.95 19.0833 361.681 18.8523C361.413 18.6212 361.077 18.5057 360.676 18.5057C360.27 18.5057 359.93 18.6212 359.653 18.8523C359.38 19.0833 359.174 19.3977 359.034 19.7955C358.897 20.1932 358.829 20.6458 358.829 21.1534C358.829 21.661 358.897 22.1136 359.034 22.5114C359.174 22.9091 359.38 23.2235 359.653 23.4545C359.93 23.6818 360.27 23.7955 360.676 23.7955ZM366.454 16.7727H368.874V25.9318C368.874 26.6061 368.742 27.1515 368.476 27.5682C368.211 27.9848 367.831 28.2898 367.334 28.483C366.842 28.6761 366.253 28.7727 365.567 28.7727C365.484 28.7727 365.404 28.7708 365.329 28.767C365.249 28.767 365.166 28.7652 365.079 28.7614V26.8693C365.143 26.8731 365.2 26.875 365.249 26.875C365.295 26.8788 365.344 26.8807 365.397 26.8807C365.787 26.8807 366.06 26.7973 366.215 26.6307C366.374 26.4678 366.454 26.2216 366.454 25.892V16.7727ZM367.658 15.6477C367.302 15.6477 366.995 15.5284 366.738 15.2898C366.48 15.0473 366.351 14.7576 366.351 14.4205C366.351 14.0871 366.48 13.8011 366.738 13.5625C366.995 13.3201 367.302 13.1989 367.658 13.1989C368.022 13.1989 368.331 13.3201 368.584 13.5625C368.842 13.8011 368.971 14.0871 368.971 14.4205C368.971 14.7576 368.842 15.0473 368.584 15.2898C368.331 15.5284 368.022 15.6477 367.658 15.6477ZM374.71 25.6705C373.813 25.6705 373.04 25.4886 372.392 25.125C371.748 24.7576 371.252 24.2386 370.904 23.5682C370.555 22.8939 370.381 22.0966 370.381 21.1761C370.381 20.2784 370.555 19.4905 370.904 18.8125C371.252 18.1345 371.743 17.6061 372.375 17.2273C373.011 16.8485 373.758 16.6591 374.614 16.6591C375.19 16.6591 375.726 16.7519 376.222 16.9375C376.722 17.1193 377.157 17.3939 377.529 17.7614C377.904 18.1288 378.195 18.5909 378.404 19.1477C378.612 19.7008 378.716 20.3485 378.716 21.0909V21.7557H371.347V20.2557H376.438C376.438 19.9072 376.362 19.5985 376.21 19.3295C376.059 19.0606 375.849 18.8504 375.58 18.6989C375.315 18.5436 375.006 18.4659 374.654 18.4659C374.286 18.4659 373.96 18.5511 373.676 18.7216C373.396 18.8883 373.176 19.1136 373.017 19.3977C372.858 19.678 372.777 19.9905 372.773 20.3352V21.7614C372.773 22.1932 372.852 22.5663 373.011 22.8807C373.174 23.1951 373.404 23.4375 373.699 23.608C373.994 23.7784 374.345 23.8636 374.75 23.8636C375.019 23.8636 375.265 23.8258 375.489 23.75C375.712 23.6742 375.904 23.5606 376.063 23.4091C376.222 23.2576 376.343 23.072 376.426 22.8523L378.665 23C378.551 23.5379 378.318 24.0076 377.966 24.4091C377.618 24.8068 377.167 25.1174 376.614 25.3409C376.065 25.5606 375.43 25.6705 374.71 25.6705ZM384.159 25.6705C383.265 25.6705 382.496 25.4811 381.852 25.1023C381.212 24.7197 380.719 24.1894 380.375 23.5114C380.034 22.8333 379.863 22.053 379.863 21.1705C379.863 20.2765 380.036 19.4924 380.38 18.8182C380.729 18.1402 381.223 17.6117 381.863 17.233C382.503 16.8504 383.265 16.6591 384.147 16.6591C384.909 16.6591 385.575 16.7973 386.147 17.0739C386.719 17.3504 387.172 17.7386 387.505 18.2386C387.839 18.7386 388.022 19.3258 388.056 20H385.772C385.708 19.5644 385.538 19.214 385.261 18.9489C384.988 18.6799 384.63 18.5455 384.187 18.5455C383.812 18.5455 383.485 18.6477 383.204 18.8523C382.928 19.053 382.712 19.3466 382.556 19.733C382.401 20.1193 382.324 20.5871 382.324 21.1364C382.324 21.6932 382.399 22.1667 382.551 22.5568C382.706 22.947 382.924 23.2443 383.204 23.4489C383.485 23.6534 383.812 23.7557 384.187 23.7557C384.464 23.7557 384.712 23.6989 384.931 23.5852C385.155 23.4716 385.339 23.3068 385.483 23.0909C385.63 22.8712 385.727 22.608 385.772 22.3011H388.056C388.019 22.9678 387.837 23.5549 387.511 24.0625C387.189 24.5663 386.744 24.9602 386.176 25.2443C385.608 25.5284 384.935 25.6705 384.159 25.6705ZM394.168 16.7727V18.5909H388.913V16.7727H394.168ZM390.106 14.6818H392.526V22.8182C392.526 23.0417 392.56 23.2159 392.628 23.3409C392.697 23.4621 392.791 23.5473 392.913 23.5966C393.038 23.6458 393.182 23.6705 393.344 23.6705C393.458 23.6705 393.572 23.661 393.685 23.642C393.799 23.6193 393.886 23.6023 393.947 23.5909L394.327 25.392C394.206 25.4299 394.036 25.4735 393.816 25.5227C393.596 25.5758 393.329 25.608 393.015 25.6193C392.432 25.642 391.92 25.5644 391.481 25.3864C391.045 25.2083 390.706 24.9318 390.464 24.5568C390.221 24.1818 390.102 23.7083 390.106 23.1364V14.6818ZM402.817 19.2614L400.601 19.3977C400.563 19.2083 400.482 19.0379 400.357 18.8864C400.232 18.7311 400.067 18.608 399.862 18.517C399.662 18.4223 399.421 18.375 399.141 18.375C398.766 18.375 398.45 18.4545 398.192 18.6136C397.934 18.7689 397.806 18.9773 397.806 19.2386C397.806 19.447 397.889 19.6231 398.056 19.767C398.222 19.911 398.508 20.0265 398.914 20.1136L400.493 20.4318C401.342 20.6061 401.974 20.8864 402.391 21.2727C402.807 21.6591 403.016 22.1667 403.016 22.7955C403.016 23.3674 402.847 23.8693 402.51 24.3011C402.177 24.733 401.718 25.0701 401.135 25.3125C400.556 25.5511 399.887 25.6705 399.129 25.6705C397.974 25.6705 397.054 25.4299 396.368 24.9489C395.686 24.464 395.287 23.8049 395.169 22.9716L397.55 22.8466C397.622 23.1989 397.796 23.4678 398.073 23.6534C398.349 23.8352 398.703 23.9261 399.135 23.9261C399.559 23.9261 399.9 23.8447 400.158 23.6818C400.419 23.5152 400.552 23.3011 400.556 23.0398C400.552 22.8201 400.459 22.6402 400.277 22.5C400.095 22.3561 399.815 22.2462 399.436 22.1705L397.925 21.8693C397.073 21.6989 396.438 21.4034 396.022 20.983C395.609 20.5625 395.402 20.0265 395.402 19.375C395.402 18.8144 395.554 18.3314 395.857 17.9261C396.164 17.5208 396.593 17.2083 397.147 16.9886C397.703 16.7689 398.355 16.6591 399.101 16.6591C400.203 16.6591 401.071 16.892 401.703 17.358C402.34 17.8239 402.711 18.4583 402.817 19.2614Z" fill="#F1EFEF"/>
<rect x="424" width="177" height="40" rx="8" fill="#FFDD00"/>
<path fill-rule="evenodd" clip-rule="evenodd" d="M447.787 12.7702C447.123 12.8777 446.699 13.0189 446.517 13.1324C446.406 13.2017 446.295 13.3088 446.144 13.5704C445.981 13.8529 445.811 14.2397 445.55 14.8421L445.436 15.1042H454.563L454.45 14.8421C454.189 14.2397 454.019 13.8529 453.856 13.5704C453.705 13.3088 453.594 13.2017 453.483 13.1324C453.265 12.9962 452.813 12.8494 452.138 12.7458C451.489 12.6463 450.724 12.5992 449.951 12.6046C449.179 12.61 448.421 12.6678 447.787 12.7702ZM456.38 15.1042L455.961 14.1382C455.723 13.588 455.516 13.1117 455.299 12.736C455.064 12.3301 454.783 11.9796 454.365 11.7186C453.849 11.396 453.118 11.21 452.39 11.0984C451.636 10.9826 450.78 10.9321 449.94 10.938C449.099 10.9439 448.254 11.0064 447.521 11.1249C446.82 11.2383 446.115 11.4187 445.635 11.7186C445.216 11.9796 444.936 12.3301 444.701 12.736C444.484 13.1117 444.277 13.588 444.039 14.1383C444.033 14.1518 444.027 14.1653 444.021 14.1789L443.62 15.1042H443.333C442.873 15.1042 442.5 15.4773 442.5 15.9375C442.5 16.3977 442.873 16.7708 443.333 16.7708H444.148C444.16 16.7711 444.173 16.7711 444.185 16.7708H455.815C455.828 16.7711 455.84 16.7711 455.853 16.7708H456.667C457.127 16.7708 457.5 16.3977 457.5 15.9375C457.5 15.4773 457.127 15.1042 456.667 15.1042H456.38Z" fill="#0D0D0E"/>
<path fill-rule="evenodd" clip-rule="evenodd" d="M454.627 26.5327C454.755 26.0612 454.855 25.4707 454.978 24.7437L456.574 15.3125H443.428L445.023 24.7437C445.146 25.4707 445.246 26.0612 445.374 26.5327C445.507 27.0222 445.685 27.4401 445.995 27.7983C446.415 28.283 447.071 28.5889 447.744 28.7772C448.434 28.9702 449.224 29.0625 450.001 29.0625C450.778 29.0625 451.568 28.9702 452.257 28.7772C452.93 28.5889 453.586 28.283 454.006 27.7983C454.317 27.4401 454.494 27.0222 454.627 26.5327ZM448.958 22.1875C448.958 21.2447 449.548 20.7292 450 20.7292C450.452 20.7292 451.042 21.2447 451.042 22.1875C451.042 23.1302 450.452 23.6458 450 23.6458C449.548 23.6458 448.958 23.1302 448.958 22.1875ZM450 19.4792C448.611 19.4792 447.708 20.8291 447.708 22.1875C447.708 23.5459 448.611 24.8958 450 24.8958C451.389 24.8958 452.292 23.5459 452.292 22.1875C452.292 20.8291 451.389 19.4792 450 19.4792Z" fill="#0D0D0E"/>
<path d="M467.274 25.5V13.8636H471.934C472.79 13.8636 473.504 13.9905 474.076 14.2443C474.648 14.4981 475.078 14.8504 475.365 15.3011C475.653 15.7481 475.797 16.2633 475.797 16.8466C475.797 17.3011 475.706 17.7008 475.524 18.0455C475.343 18.3864 475.093 18.6667 474.774 18.8864C474.46 19.1023 474.1 19.2557 473.695 19.3466V19.4602C474.138 19.4792 474.553 19.6042 474.939 19.8352C475.329 20.0663 475.646 20.3902 475.888 20.8068C476.131 21.2197 476.252 21.7121 476.252 22.2841C476.252 22.9015 476.098 23.4527 475.792 23.9375C475.489 24.4186 475.04 24.7992 474.445 25.0795C473.85 25.3598 473.117 25.5 472.246 25.5H467.274ZM469.735 23.4886H471.74C472.426 23.4886 472.926 23.358 473.24 23.0966C473.555 22.8314 473.712 22.4792 473.712 22.0398C473.712 21.7178 473.634 21.4337 473.479 21.1875C473.324 20.9413 473.102 20.7481 472.814 20.608C472.53 20.4678 472.191 20.3977 471.797 20.3977H469.735V23.4886ZM469.735 18.733H471.559C471.896 18.733 472.195 18.6742 472.456 18.5568C472.721 18.4356 472.93 18.2652 473.081 18.0455C473.237 17.8258 473.314 17.5625 473.314 17.2557C473.314 16.8352 473.165 16.4962 472.865 16.2386C472.57 15.9811 472.149 15.8523 471.604 15.8523H469.735V18.733ZM483.324 21.7841V16.7727H485.744V25.5H483.42V23.9148H483.329C483.132 24.4261 482.805 24.8371 482.346 25.1477C481.892 25.4583 481.337 25.6136 480.682 25.6136C480.098 25.6136 479.585 25.4811 479.142 25.2159C478.699 24.9508 478.352 24.5739 478.102 24.0852C477.856 23.5966 477.731 23.0114 477.727 22.3295V16.7727H480.148V21.8977C480.151 22.4129 480.29 22.8201 480.562 23.1193C480.835 23.4186 481.201 23.5682 481.659 23.5682C481.951 23.5682 482.223 23.5019 482.477 23.3693C482.731 23.233 482.935 23.0322 483.091 22.767C483.25 22.5019 483.328 22.1742 483.324 21.7841ZM489.095 28.7727C488.788 28.7727 488.5 28.7481 488.231 28.6989C487.966 28.6534 487.746 28.5947 487.572 28.5227L488.117 26.7159C488.401 26.803 488.657 26.8504 488.884 26.858C489.115 26.8655 489.314 26.8125 489.481 26.6989C489.651 26.5852 489.79 26.392 489.896 26.1193L490.038 25.75L486.907 16.7727H489.453L491.259 23.1818H491.35L493.174 16.7727H495.737L492.345 26.4432C492.182 26.9129 491.96 27.322 491.68 27.6705C491.403 28.0227 491.053 28.2936 490.629 28.483C490.204 28.6761 489.693 28.7727 489.095 28.7727ZM506.115 21.7841V16.7727H508.535V25.5H506.212V23.9148H506.121C505.924 24.4261 505.596 24.8371 505.138 25.1477C504.683 25.4583 504.128 25.6136 503.473 25.6136C502.89 25.6136 502.376 25.4811 501.933 25.2159C501.49 24.9508 501.143 24.5739 500.893 24.0852C500.647 23.5966 500.522 23.0114 500.518 22.3295V16.7727H502.939V21.8977C502.943 22.4129 503.081 22.8201 503.354 23.1193C503.626 23.4186 503.992 23.5682 504.45 23.5682C504.742 23.5682 505.015 23.5019 505.268 23.3693C505.522 23.233 505.727 23.0322 505.882 22.767C506.041 22.5019 506.119 22.1742 506.115 21.7841ZM517.653 19.2614L515.437 19.3977C515.399 19.2083 515.318 19.0379 515.193 18.8864C515.068 18.7311 514.903 18.608 514.698 18.517C514.498 18.4223 514.257 18.375 513.977 18.375C513.602 18.375 513.285 18.4545 513.028 18.6136C512.77 18.7689 512.642 18.9773 512.642 19.2386C512.642 19.447 512.725 19.6231 512.892 19.767C513.058 19.911 513.344 20.0265 513.749 20.1136L515.329 20.4318C516.178 20.6061 516.81 20.8864 517.227 21.2727C517.643 21.6591 517.852 22.1667 517.852 22.7955C517.852 23.3674 517.683 23.8693 517.346 24.3011C517.013 24.733 516.554 25.0701 515.971 25.3125C515.392 25.5511 514.723 25.6705 513.965 25.6705C512.81 25.6705 511.89 25.4299 511.204 24.9489C510.522 24.464 510.123 23.8049 510.005 22.9716L512.386 22.8466C512.458 23.1989 512.632 23.4678 512.909 23.6534C513.185 23.8352 513.539 23.9261 513.971 23.9261C514.395 23.9261 514.736 23.8447 514.994 23.6818C515.255 23.5152 515.388 23.3011 515.392 23.0398C515.388 22.8201 515.295 22.6402 515.113 22.5C514.931 22.3561 514.651 22.2462 514.272 22.1705L512.761 21.8693C511.909 21.6989 511.274 21.4034 510.857 20.983C510.445 20.5625 510.238 20.0265 510.238 19.375C510.238 18.8144 510.39 18.3314 510.693 17.9261C510.999 17.5208 511.429 17.2083 511.982 16.9886C512.539 16.7689 513.191 16.6591 513.937 16.6591C515.039 16.6591 515.907 16.892 516.539 17.358C517.176 17.8239 517.547 18.4583 517.653 19.2614ZM525.408 25.6648C524.851 25.6648 524.355 25.5682 523.919 25.375C523.483 25.178 523.139 24.8883 522.885 24.5057C522.635 24.1193 522.51 23.6383 522.51 23.0625C522.51 22.5777 522.599 22.1705 522.777 21.8409C522.955 21.5114 523.197 21.2462 523.504 21.0455C523.811 20.8447 524.16 20.6932 524.55 20.5909C524.944 20.4886 525.357 20.4167 525.788 20.375C526.296 20.322 526.705 20.2727 527.016 20.2273C527.326 20.178 527.552 20.1061 527.692 20.0114C527.832 19.9167 527.902 19.7765 527.902 19.5909V19.5568C527.902 19.197 527.788 18.9186 527.561 18.7216C527.338 18.5246 527.019 18.4261 526.607 18.4261C526.171 18.4261 525.824 18.5227 525.567 18.7159C525.309 18.9053 525.139 19.1439 525.055 19.4318L522.817 19.25C522.93 18.7197 523.154 18.2614 523.487 17.875C523.821 17.4848 524.25 17.1856 524.777 16.9773C525.307 16.7652 525.921 16.6591 526.618 16.6591C527.103 16.6591 527.567 16.7159 528.01 16.8295C528.457 16.9432 528.853 17.1193 529.197 17.358C529.546 17.5966 529.821 17.9034 530.021 18.2784C530.222 18.6496 530.322 19.0947 530.322 19.6136V25.5H528.027V24.2898H527.959C527.819 24.5625 527.631 24.803 527.396 25.0114C527.161 25.2159 526.879 25.3769 526.55 25.4943C526.22 25.608 525.839 25.6648 525.408 25.6648ZM526.101 23.9943C526.457 23.9943 526.771 23.9242 527.044 23.7841C527.317 23.6402 527.531 23.447 527.686 23.2045C527.841 22.9621 527.919 22.6875 527.919 22.3807V21.4545C527.843 21.5038 527.739 21.5492 527.607 21.5909C527.478 21.6288 527.332 21.6648 527.169 21.6989C527.006 21.7292 526.843 21.7576 526.68 21.7841C526.518 21.8068 526.37 21.8277 526.237 21.8466C525.953 21.8883 525.705 21.9545 525.493 22.0455C525.281 22.1364 525.116 22.2595 524.999 22.4148C524.881 22.5663 524.822 22.7557 524.822 22.983C524.822 23.3125 524.942 23.5644 525.18 23.7386C525.423 23.9091 525.73 23.9943 526.101 23.9943ZM539.687 25.6705C538.793 25.6705 538.024 25.4811 537.38 25.1023C536.74 24.7197 536.247 24.1894 535.902 23.5114C535.562 22.8333 535.391 22.053 535.391 21.1705C535.391 20.2765 535.563 19.4924 535.908 18.8182C536.257 18.1402 536.751 17.6117 537.391 17.233C538.031 16.8504 538.793 16.6591 539.675 16.6591C540.437 16.6591 541.103 16.7973 541.675 17.0739C542.247 17.3504 542.7 17.7386 543.033 18.2386C543.367 18.7386 543.55 19.3258 543.584 20H541.3C541.236 19.5644 541.065 19.214 540.789 18.9489C540.516 18.6799 540.158 18.5455 539.715 18.5455C539.34 18.5455 539.012 18.6477 538.732 18.8523C538.456 19.053 538.24 19.3466 538.084 19.733C537.929 20.1193 537.851 20.5871 537.851 21.1364C537.851 21.6932 537.927 22.1667 538.079 22.5568C538.234 22.947 538.452 23.2443 538.732 23.4489C539.012 23.6534 539.34 23.7557 539.715 23.7557C539.992 23.7557 540.24 23.6989 540.459 23.5852C540.683 23.4716 540.867 23.3068 541.01 23.0909C541.158 22.8712 541.255 22.608 541.3 22.3011H543.584C543.546 22.9678 543.365 23.5549 543.039 24.0625C542.717 24.5663 542.272 24.9602 541.704 25.2443C541.135 25.5284 540.463 25.6705 539.687 25.6705ZM548.997 25.6705C548.115 25.6705 547.351 25.483 546.707 25.108C546.067 24.7292 545.573 24.2027 545.224 23.5284C544.876 22.8504 544.702 22.0644 544.702 21.1705C544.702 20.2689 544.876 19.4811 545.224 18.8068C545.573 18.1288 546.067 17.6023 546.707 17.2273C547.351 16.8485 548.115 16.6591 548.997 16.6591C549.88 16.6591 550.641 16.8485 551.281 17.2273C551.925 17.6023 552.421 18.1288 552.77 18.8068C553.118 19.4811 553.293 20.2689 553.293 21.1705C553.293 22.0644 553.118 22.8504 552.77 23.5284C552.421 24.2027 551.925 24.7292 551.281 25.108C550.641 25.483 549.88 25.6705 548.997 25.6705ZM549.009 23.7955C549.41 23.7955 549.745 23.6818 550.014 23.4545C550.283 23.2235 550.486 22.9091 550.622 22.5114C550.762 22.1136 550.832 21.661 550.832 21.1534C550.832 20.6458 550.762 20.1932 550.622 19.7955C550.486 19.3977 550.283 19.0833 550.014 18.8523C549.745 18.6212 549.41 18.5057 549.009 18.5057C548.603 18.5057 548.262 18.6212 547.986 18.8523C547.713 19.0833 547.507 19.3977 547.367 19.7955C547.23 20.1932 547.162 20.6458 547.162 21.1534C547.162 21.661 547.23 22.1136 547.367 22.5114C547.507 22.9091 547.713 23.2235 547.986 23.4545C548.262 23.6818 548.603 23.7955 549.009 23.7955ZM559.48 16.7727V18.5909H554.093V16.7727H559.48ZM555.326 25.5V16.142C555.326 15.5095 555.449 14.9848 555.696 14.5682C555.946 14.1515 556.287 13.839 556.718 13.6307C557.15 13.4223 557.641 13.3182 558.19 13.3182C558.561 13.3182 558.9 13.3466 559.207 13.4034C559.518 13.4602 559.749 13.5114 559.9 13.5568L559.468 15.375C559.374 15.3447 559.256 15.3163 559.116 15.2898C558.98 15.2633 558.84 15.25 558.696 15.25C558.34 15.25 558.091 15.3333 557.951 15.5C557.811 15.6629 557.741 15.892 557.741 16.1875V25.5H555.326ZM565.572 16.7727V18.5909H560.185V16.7727H565.572ZM561.418 25.5V16.142C561.418 15.5095 561.541 14.9848 561.788 14.5682C562.038 14.1515 562.378 13.839 562.81 13.6307C563.242 13.4223 563.733 13.3182 564.282 13.3182C564.653 13.3182 564.992 13.3466 565.299 13.4034C565.609 13.4602 565.841 13.5114 565.992 13.5568L565.56 15.375C565.466 15.3447 565.348 15.3163 565.208 15.2898C565.072 15.2633 564.931 15.25 564.788 15.25C564.431 15.25 564.183 15.3333 564.043 15.5C563.903 15.6629 563.833 15.892 563.833 16.1875V25.5H561.418ZM570.635 25.6705C569.737 25.6705 568.965 25.4886 568.317 25.125C567.673 24.7576 567.177 24.2386 566.828 23.5682C566.48 22.8939 566.306 22.0966 566.306 21.1761C566.306 20.2784 566.48 19.4905 566.828 18.8125C567.177 18.1345 567.667 17.6061 568.3 17.2273C568.936 16.8485 569.682 16.6591 570.538 16.6591C571.114 16.6591 571.65 16.7519 572.146 16.9375C572.646 17.1193 573.082 17.3939 573.453 17.7614C573.828 18.1288 574.12 18.5909 574.328 19.1477C574.537 19.7008 574.641 20.3485 574.641 21.0909V21.7557H567.271V20.2557H572.362C572.362 19.9072 572.287 19.5985 572.135 19.3295C571.984 19.0606 571.773 18.8504 571.504 18.6989C571.239 18.5436 570.931 18.4659 570.578 18.4659C570.211 18.4659 569.885 18.5511 569.601 18.7216C569.321 18.8883 569.101 19.1136 568.942 19.3977C568.783 19.678 568.701 19.9905 568.698 20.3352V21.7614C568.698 22.1932 568.777 22.5663 568.936 22.8807C569.099 23.1951 569.328 23.4375 569.624 23.608C569.919 23.7784 570.27 23.8636 570.675 23.8636C570.944 23.8636 571.19 23.8258 571.413 23.75C571.637 23.6742 571.828 23.5606 571.987 23.4091C572.146 23.2576 572.268 23.072 572.351 22.8523L574.59 23C574.476 23.5379 574.243 24.0076 573.891 24.4091C573.542 24.8068 573.092 25.1174 572.538 25.3409C571.989 25.5606 571.355 25.6705 570.635 25.6705ZM580.118 25.6705C579.22 25.6705 578.447 25.4886 577.799 25.125C577.155 24.7576 576.659 24.2386 576.311 23.5682C575.962 22.8939 575.788 22.0966 575.788 21.1761C575.788 20.2784 575.962 19.4905 576.311 18.8125C576.659 18.1345 577.15 17.6061 577.782 17.2273C578.419 16.8485 579.165 16.6591 580.021 16.6591C580.597 16.6591 581.133 16.7519 581.629 16.9375C582.129 17.1193 582.565 17.3939 582.936 17.7614C583.311 18.1288 583.602 18.5909 583.811 19.1477C584.019 19.7008 584.123 20.3485 584.123 21.0909V21.7557H576.754V20.2557H581.845C581.845 19.9072 581.769 19.5985 581.618 19.3295C581.466 19.0606 581.256 18.8504 580.987 18.6989C580.722 18.5436 580.413 18.4659 580.061 18.4659C579.693 18.4659 579.368 18.5511 579.083 18.7216C578.803 18.8883 578.583 19.1136 578.424 19.3977C578.265 19.678 578.184 19.9905 578.18 20.3352V21.7614C578.18 22.1932 578.26 22.5663 578.419 22.8807C578.582 23.1951 578.811 23.4375 579.106 23.608C579.402 23.7784 579.752 23.8636 580.157 23.8636C580.426 23.8636 580.672 23.8258 580.896 23.75C581.119 23.6742 581.311 23.5606 581.47 23.4091C581.629 23.2576 581.75 23.072 581.833 22.8523L584.072 23C583.958 23.5379 583.726 24.0076 583.373 24.4091C583.025 24.8068 582.574 25.1174 582.021 25.3409C581.472 25.5606 580.837 25.6705 580.118 25.6705Z" fill="#0D0D0E"/>
<rect x="605.5" y="0.5" width="209" height="39" rx="7.5" fill="#080808"/>
<rect x="605.5" y="0.5" width="209" height="39" rx="7.5" stroke="#4B4B4B"/>
<path d="M622.041 20C622.041 17.5838 624 15.625 626.416 15.625C628.832 15.625 630.791 17.5838 630.791 20C630.791 22.4162 628.832 24.375 626.416 24.375C624 24.375 622.041 22.4162 622.041 20Z" fill="#F1EFEF"/>
<path d="M631.898 17.0448C632.324 16.2782 633.012 15.625 633.917 15.625C634.823 15.625 635.511 16.2782 635.937 17.0448C636.374 17.8327 636.626 18.8787 636.626 20C636.626 21.1213 636.374 22.1673 635.937 22.9552C635.511 23.7218 634.823 24.375 633.917 24.375C633.012 24.375 632.324 23.7218 631.898 22.9552C631.46 22.1673 631.209 21.1213 631.209 20C631.209 18.8787 631.46 17.8327 631.898 17.0448Z" fill="#F1EFEF"/>
<path d="M637.908 15.8664C638.038 15.747 638.238 15.625 638.499 15.625C638.761 15.625 638.961 15.747 639.091 15.8664C639.217 15.9828 639.309 16.1244 639.377 16.254C639.514 16.5145 639.618 16.8503 639.699 17.2128C639.862 17.9478 639.958 18.9329 639.958 20C639.958 21.0671 639.862 22.0522 639.699 22.7872C639.618 23.1497 639.514 23.4855 639.377 23.746C639.309 23.8756 639.217 24.0172 639.091 24.1336C638.961 24.2531 638.761 24.375 638.499 24.375C638.238 24.375 638.038 24.2531 637.908 24.1336C637.782 24.0172 637.69 23.8756 637.622 23.746C637.485 23.4855 637.381 23.1497 637.3 22.7872C637.137 22.0522 637.041 21.0671 637.041 20C637.041 18.9329 637.137 17.9478 637.3 17.2128C637.381 16.8503 637.485 16.5145 637.622 16.254C637.69 16.1244 637.782 15.9828 637.908 15.8664Z" fill="#F1EFEF"/>
<path d="M648.417 25.5V13.8636H653.008C653.887 13.8636 654.637 14.0208 655.258 14.3352C655.883 14.6458 656.358 15.0871 656.684 15.6591C657.014 16.2273 657.178 16.8958 657.178 17.6648C657.178 18.4375 657.012 19.1023 656.678 19.6591C656.345 20.2121 655.862 20.6364 655.229 20.9318C654.601 21.2273 653.839 21.375 652.945 21.375H649.872V19.3977H652.548C653.017 19.3977 653.408 19.3333 653.718 19.2045C654.029 19.0758 654.26 18.8826 654.411 18.625C654.567 18.3674 654.644 18.0473 654.644 17.6648C654.644 17.2784 654.567 16.9527 654.411 16.6875C654.26 16.4223 654.027 16.2216 653.712 16.0852C653.402 15.9451 653.01 15.875 652.536 15.875H650.877V25.5H648.417ZM654.701 20.2045L657.593 25.5H654.877L652.048 20.2045H654.701ZM662.628 25.6705C661.73 25.6705 660.958 25.4886 660.31 25.125C659.666 24.7576 659.17 24.2386 658.821 23.5682C658.473 22.8939 658.299 22.0966 658.299 21.1761C658.299 20.2784 658.473 19.4905 658.821 18.8125C659.17 18.1345 659.66 17.6061 660.293 17.2273C660.929 16.8485 661.676 16.6591 662.532 16.6591C663.107 16.6591 663.643 16.7519 664.14 16.9375C664.64 17.1193 665.075 17.3939 665.446 17.7614C665.821 18.1288 666.113 18.5909 666.321 19.1477C666.53 19.7008 666.634 20.3485 666.634 21.0909V21.7557H659.265V20.2557H664.355C664.355 19.9072 664.28 19.5985 664.128 19.3295C663.977 19.0606 663.766 18.8504 663.497 18.6989C663.232 18.5436 662.924 18.4659 662.571 18.4659C662.204 18.4659 661.878 18.5511 661.594 18.7216C661.314 18.8883 661.094 19.1136 660.935 19.3977C660.776 19.678 660.694 19.9905 660.691 20.3352V21.7614C660.691 22.1932 660.77 22.5663 660.929 22.8807C661.092 23.1951 661.321 23.4375 661.617 23.608C661.912 23.7784 662.263 23.8636 662.668 23.8636C662.937 23.8636 663.183 23.8258 663.407 23.75C663.63 23.6742 663.821 23.5606 663.98 23.4091C664.14 23.2576 664.261 23.072 664.344 22.8523L666.583 23C666.469 23.5379 666.236 24.0076 665.884 24.4091C665.535 24.8068 665.085 25.1174 664.532 25.3409C663.982 25.5606 663.348 25.6705 662.628 25.6705ZM670.622 25.6648C670.065 25.6648 669.569 25.5682 669.133 25.375C668.698 25.178 668.353 24.8883 668.099 24.5057C667.849 24.1193 667.724 23.6383 667.724 23.0625C667.724 22.5777 667.813 22.1705 667.991 21.8409C668.169 21.5114 668.412 21.2462 668.719 21.0455C669.025 20.8447 669.374 20.6932 669.764 20.5909C670.158 20.4886 670.571 20.4167 671.003 20.375C671.51 20.322 671.919 20.2727 672.23 20.2273C672.541 20.178 672.766 20.1061 672.906 20.0114C673.046 19.9167 673.116 19.7765 673.116 19.5909V19.5568C673.116 19.197 673.003 18.9186 672.775 18.7216C672.552 18.5246 672.234 18.4261 671.821 18.4261C671.385 18.4261 671.039 18.5227 670.781 18.7159C670.524 18.9053 670.353 19.1439 670.27 19.4318L668.031 19.25C668.145 18.7197 668.368 18.2614 668.702 17.875C669.035 17.4848 669.465 17.1856 669.991 16.9773C670.522 16.7652 671.135 16.6591 671.832 16.6591C672.317 16.6591 672.781 16.7159 673.224 16.8295C673.671 16.9432 674.067 17.1193 674.412 17.358C674.76 17.5966 675.035 17.9034 675.236 18.2784C675.436 18.6496 675.537 19.0947 675.537 19.6136V25.5H673.241V24.2898H673.173C673.033 24.5625 672.846 24.803 672.611 25.0114C672.376 25.2159 672.094 25.3769 671.764 25.4943C671.435 25.608 671.054 25.6648 670.622 25.6648ZM671.315 23.9943C671.671 23.9943 671.986 23.9242 672.258 23.7841C672.531 23.6402 672.745 23.447 672.9 23.2045C673.056 22.9621 673.133 22.6875 673.133 22.3807V21.4545C673.058 21.5038 672.953 21.5492 672.821 21.5909C672.692 21.6288 672.546 21.6648 672.383 21.6989C672.221 21.7292 672.058 21.7576 671.895 21.7841C671.732 21.8068 671.584 21.8277 671.452 21.8466C671.167 21.8883 670.919 21.9545 670.707 22.0455C670.495 22.1364 670.33 22.2595 670.213 22.4148C670.096 22.5663 670.037 22.7557 670.037 22.983C670.037 23.3125 670.156 23.5644 670.395 23.7386C670.637 23.9091 670.944 23.9943 671.315 23.9943ZM680.551 25.642C679.888 25.642 679.287 25.4716 678.749 25.1307C678.215 24.786 677.791 24.2803 677.477 23.6136C677.166 22.9432 677.011 22.1212 677.011 21.1477C677.011 20.1477 677.172 19.3163 677.494 18.6534C677.816 17.9867 678.244 17.4886 678.778 17.1591C679.316 16.8258 679.905 16.6591 680.545 16.6591C681.034 16.6591 681.441 16.7424 681.766 16.9091C682.096 17.072 682.361 17.2765 682.562 17.5227C682.766 17.7652 682.922 18.0038 683.028 18.2386H683.102V13.8636H685.516V25.5H683.13V24.1023H683.028C682.914 24.3447 682.753 24.5852 682.545 24.8239C682.34 25.0587 682.073 25.2538 681.744 25.4091C681.418 25.5644 681.02 25.642 680.551 25.642ZM681.318 23.7159C681.708 23.7159 682.037 23.6098 682.306 23.3977C682.579 23.1818 682.787 22.8807 682.931 22.4943C683.079 22.108 683.153 21.6553 683.153 21.1364C683.153 20.6174 683.081 20.1667 682.937 19.7841C682.793 19.4015 682.585 19.1061 682.312 18.8977C682.039 18.6894 681.708 18.5852 681.318 18.5852C680.92 18.5852 680.585 18.6932 680.312 18.9091C680.039 19.125 679.833 19.4242 679.693 19.8068C679.552 20.1894 679.482 20.6326 679.482 21.1364C679.482 21.6439 679.552 22.0928 679.693 22.483C679.837 22.8693 680.043 23.1723 680.312 23.392C680.585 23.608 680.92 23.7159 681.318 23.7159ZM696.646 21.7841V16.7727H699.067V25.5H696.743V23.9148H696.652C696.455 24.4261 696.127 24.8371 695.669 25.1477C695.214 25.4583 694.66 25.6136 694.004 25.6136C693.421 25.6136 692.908 25.4811 692.464 25.2159C692.021 24.9508 691.675 24.5739 691.425 24.0852C691.178 23.5966 691.053 23.0114 691.05 22.3295V16.7727H693.47V21.8977C693.474 22.4129 693.612 22.8201 693.885 23.1193C694.158 23.4186 694.523 23.5682 694.981 23.5682C695.273 23.5682 695.546 23.5019 695.8 23.3693C696.053 23.233 696.258 23.0322 696.413 22.767C696.572 22.5019 696.65 22.1742 696.646 21.7841ZM708.184 19.2614L705.968 19.3977C705.93 19.2083 705.849 19.0379 705.724 18.8864C705.599 18.7311 705.434 18.608 705.23 18.517C705.029 18.4223 704.788 18.375 704.508 18.375C704.133 18.375 703.817 18.4545 703.559 18.6136C703.302 18.7689 703.173 18.9773 703.173 19.2386C703.173 19.447 703.256 19.6231 703.423 19.767C703.589 19.911 703.875 20.0265 704.281 20.1136L705.86 20.4318C706.709 20.6061 707.341 20.8864 707.758 21.2727C708.175 21.6591 708.383 22.1667 708.383 22.7955C708.383 23.3674 708.214 23.8693 707.877 24.3011C707.544 24.733 707.086 25.0701 706.502 25.3125C705.923 25.5511 705.254 25.6705 704.497 25.6705C703.341 25.6705 702.421 25.4299 701.735 24.9489C701.053 24.464 700.654 23.8049 700.536 22.9716L702.917 22.8466C702.989 23.1989 703.163 23.4678 703.44 23.6534C703.716 23.8352 704.071 23.9261 704.502 23.9261C704.927 23.9261 705.267 23.8447 705.525 23.6818C705.786 23.5152 705.919 23.3011 705.923 23.0398C705.919 22.8201 705.826 22.6402 705.644 22.5C705.463 22.3561 705.182 22.2462 704.803 22.1705L703.292 21.8693C702.44 21.6989 701.805 21.4034 701.389 20.983C700.976 20.5625 700.769 20.0265 700.769 19.375C700.769 18.8144 700.921 18.3314 701.224 17.9261C701.531 17.5208 701.961 17.2083 702.514 16.9886C703.071 16.7689 703.722 16.6591 704.468 16.6591C705.571 16.6591 706.438 16.892 707.071 17.358C707.707 17.8239 708.078 18.4583 708.184 19.2614ZM717.393 25.6705C716.511 25.6705 715.748 25.483 715.104 25.108C714.464 24.7292 713.969 24.2027 713.621 23.5284C713.272 22.8504 713.098 22.0644 713.098 21.1705C713.098 20.2689 713.272 19.4811 713.621 18.8068C713.969 18.1288 714.464 17.6023 715.104 17.2273C715.748 16.8485 716.511 16.6591 717.393 16.6591C718.276 16.6591 719.037 16.8485 719.678 17.2273C720.321 17.6023 720.818 18.1288 721.166 18.8068C721.515 19.4811 721.689 20.2689 721.689 21.1705C721.689 22.0644 721.515 22.8504 721.166 23.5284C720.818 24.2027 720.321 24.7292 719.678 25.108C719.037 25.483 718.276 25.6705 717.393 25.6705ZM717.405 23.7955C717.806 23.7955 718.142 23.6818 718.411 23.4545C718.679 23.2235 718.882 22.9091 719.018 22.5114C719.159 22.1136 719.229 21.661 719.229 21.1534C719.229 20.6458 719.159 20.1932 719.018 19.7955C718.882 19.3977 718.679 19.0833 718.411 18.8523C718.142 18.6212 717.806 18.5057 717.405 18.5057C717 18.5057 716.659 18.6212 716.382 18.8523C716.109 19.0833 715.903 19.3977 715.763 19.7955C715.626 20.1932 715.558 20.6458 715.558 21.1534C715.558 21.661 715.626 22.1136 715.763 22.5114C715.903 22.9091 716.109 23.2235 716.382 23.4545C716.659 23.6818 717 23.7955 717.405 23.7955ZM725.603 20.4545V25.5H723.183V16.7727H725.49V18.3125H725.592C725.785 17.8049 726.109 17.4034 726.563 17.108C727.018 16.8087 727.569 16.6591 728.217 16.6591C728.823 16.6591 729.351 16.7917 729.802 17.0568C730.253 17.322 730.603 17.7008 730.853 18.1932C731.103 18.6818 731.228 19.2652 731.228 19.9432V25.5H728.808V20.375C728.812 19.8409 728.675 19.4242 728.399 19.125C728.122 18.822 727.741 18.6705 727.257 18.6705C726.931 18.6705 726.643 18.7405 726.393 18.8807C726.147 19.0208 725.954 19.2254 725.813 19.4943C725.677 19.7595 725.607 20.0795 725.603 20.4545ZM736.724 13.8636H739.759L742.963 21.6818H743.099L746.304 13.8636H749.338V25.5H746.952V17.9261H746.855L743.844 25.4432H742.219L739.207 17.8977H739.111V25.5H736.724V13.8636ZM755.217 25.6705C754.319 25.6705 753.546 25.4886 752.899 25.125C752.255 24.7576 751.759 24.2386 751.41 23.5682C751.062 22.8939 750.887 22.0966 750.887 21.1761C750.887 20.2784 751.062 19.4905 751.41 18.8125C751.759 18.1345 752.249 17.6061 752.882 17.2273C753.518 16.8485 754.264 16.6591 755.12 16.6591C755.696 16.6591 756.232 16.7519 756.728 16.9375C757.228 17.1193 757.664 17.3939 758.035 17.7614C758.41 18.1288 758.702 18.5909 758.91 19.1477C759.118 19.7008 759.223 20.3485 759.223 21.0909V21.7557H751.853V20.2557H756.944C756.944 19.9072 756.868 19.5985 756.717 19.3295C756.565 19.0606 756.355 18.8504 756.086 18.6989C755.821 18.5436 755.512 18.4659 755.16 18.4659C754.793 18.4659 754.467 18.5511 754.183 18.7216C753.903 18.8883 753.683 19.1136 753.524 19.3977C753.365 19.678 753.283 19.9905 753.279 20.3352V21.7614C753.279 22.1932 753.359 22.5663 753.518 22.8807C753.681 23.1951 753.91 23.4375 754.206 23.608C754.501 23.7784 754.851 23.8636 755.257 23.8636C755.526 23.8636 755.772 23.8258 755.995 23.75C756.219 23.6742 756.41 23.5606 756.569 23.4091C756.728 23.2576 756.85 23.072 756.933 22.8523L759.171 23C759.058 23.5379 758.825 24.0076 758.473 24.4091C758.124 24.8068 757.673 25.1174 757.12 25.3409C756.571 25.5606 755.937 25.6705 755.217 25.6705ZM763.938 25.642C763.275 25.642 762.675 25.4716 762.137 25.1307C761.603 24.786 761.179 24.2803 760.864 23.6136C760.554 22.9432 760.398 22.1212 760.398 21.1477C760.398 20.1477 760.559 19.3163 760.881 18.6534C761.203 17.9867 761.631 17.4886 762.165 17.1591C762.703 16.8258 763.292 16.6591 763.932 16.6591C764.421 16.6591 764.828 16.7424 765.154 16.9091C765.484 17.072 765.749 17.2765 765.949 17.5227C766.154 17.7652 766.309 18.0038 766.415 18.2386H766.489V13.8636H768.904V25.5H766.518V24.1023H766.415C766.302 24.3447 766.141 24.5852 765.932 24.8239C765.728 25.0587 765.461 25.2538 765.131 25.4091C764.805 25.5644 764.408 25.642 763.938 25.642ZM764.705 23.7159C765.095 23.7159 765.425 23.6098 765.694 23.3977C765.966 23.1818 766.175 22.8807 766.319 22.4943C766.466 22.108 766.54 21.6553 766.54 21.1364C766.54 20.6174 766.468 20.1667 766.324 19.7841C766.18 19.4015 765.972 19.1061 765.699 18.8977C765.427 18.6894 765.095 18.5852 764.705 18.5852C764.307 18.5852 763.972 18.6932 763.699 18.9091C763.427 19.125 763.22 19.4242 763.08 19.8068C762.94 20.1894 762.87 20.6326 762.87 21.1364C762.87 21.6439 762.94 22.0928 763.08 22.483C763.224 22.8693 763.43 23.1723 763.699 23.392C763.972 23.608 764.307 23.7159 764.705 23.7159ZM770.814 25.5V16.7727H773.234V25.5H770.814ZM772.03 15.6477C771.67 15.6477 771.361 15.5284 771.104 15.2898C770.85 15.0473 770.723 14.7576 770.723 14.4205C770.723 14.0871 770.85 13.8011 771.104 13.5625C771.361 13.3201 771.67 13.1989 772.03 13.1989C772.39 13.1989 772.697 13.3201 772.95 13.5625C773.208 13.8011 773.337 14.0871 773.337 14.4205C773.337 14.7576 773.208 15.0473 772.95 15.2898C772.697 15.5284 772.39 15.6477 772.03 15.6477ZM780.69 21.7841V16.7727H783.11V25.5H780.787V23.9148H780.696C780.499 24.4261 780.171 24.8371 779.713 25.1477C779.258 25.4583 778.703 25.6136 778.048 25.6136C777.465 25.6136 776.951 25.4811 776.508 25.2159C776.065 24.9508 775.718 24.5739 775.468 24.0852C775.222 23.5966 775.097 23.0114 775.093 22.3295V16.7727H777.514V21.8977C777.518 22.4129 777.656 22.8201 777.929 23.1193C778.201 23.4186 778.567 23.5682 779.025 23.5682C779.317 23.5682 779.59 23.5019 779.843 23.3693C780.097 23.233 780.302 23.0322 780.457 22.767C780.616 22.5019 780.694 22.1742 780.69 21.7841ZM784.967 25.5V16.7727H787.273V18.3125H787.376C787.557 17.8011 787.86 17.3977 788.285 17.1023C788.709 16.8068 789.217 16.6591 789.807 16.6591C790.406 16.6591 790.915 16.8087 791.336 17.108C791.756 17.4034 792.037 17.8049 792.177 18.3125H792.268C792.446 17.8125 792.768 17.4129 793.234 17.1136C793.703 16.8106 794.258 16.6591 794.898 16.6591C795.713 16.6591 796.374 16.9186 796.881 17.4375C797.393 17.9527 797.648 18.6837 797.648 19.6307V25.5H795.234V20.108C795.234 19.6231 795.105 19.2595 794.847 19.017C794.59 18.7746 794.268 18.6534 793.881 18.6534C793.442 18.6534 793.099 18.7936 792.853 19.0739C792.607 19.3504 792.484 19.7159 792.484 20.1705V25.5H790.137V20.0568C790.137 19.6288 790.014 19.2879 789.768 19.0341C789.525 18.7803 789.205 18.6534 788.807 18.6534C788.539 18.6534 788.296 18.7216 788.08 18.858C787.868 18.9905 787.699 19.178 787.574 19.4205C787.449 19.6591 787.387 19.9394 787.387 20.2614V25.5H784.967Z" fill="#F1EFEF"/>
</svg>
