<svg width="650" height="28" viewBox="0 0 650 28" fill="none" xmlns="http://www.w3.org/2000/svg">
<rect width="87" height="28" rx="6" fill="#936BE2"/>
<rect x="4" y="5" width="18" height="18" rx="3.5" fill="#F1EFEF"/>
<path d="M7.45898 13.9999C7.45898 11.3876 7.45898 10.0814 8.27054 9.26981C9.0821 8.45825 10.3883 8.45825 13.0007 8.45825C15.613 8.45825 16.9192 8.45825 17.7308 9.26981C18.5423 10.0814 18.5423 11.3876 18.5423 13.9999C18.5423 16.6123 18.5423 17.9185 17.7308 18.7301C16.9192 19.5416 15.613 19.5416 13.0007 19.5416C10.3883 19.5416 9.0821 19.5416 8.27054 18.7301C7.45898 17.9185 7.45898 16.6123 7.45898 13.9999Z" stroke="#936BE2" stroke-width="0.875"/>
<path opacity="0.4" d="M15.334 16.3334C15.6934 16.3334 15.9847 16.0349 15.9847 15.6667V14.9429C15.9847 14.7661 16.0532 14.5965 16.1753 14.4715L16.4053 14.2358C16.5324 14.1056 16.5324 13.8946 16.4053 13.7644L16.1753 13.5287C16.0532 13.4037 15.9847 13.2341 15.9847 13.0573V12.3334C15.9847 11.9652 15.6934 11.6667 15.334 11.6667" stroke="#936BE2" stroke-width="0.875" stroke-linecap="round" stroke-linejoin="round"/>
<path opacity="0.4" d="M10.6667 16.3334C10.3073 16.3334 10.0159 16.0349 10.0159 15.6667V14.9429C10.0159 14.7661 9.94739 14.5965 9.82536 14.4715L9.59529 14.2358C9.46824 14.1056 9.46824 13.8946 9.59529 13.7644L9.82536 13.5287C9.94739 13.4037 10.0159 13.2341 10.0159 13.0573V12.3334C10.0159 11.9652 10.3073 11.6667 10.6667 11.6667" stroke="#936BE2" stroke-width="0.875" stroke-linecap="round" stroke-linejoin="round"/>
<path opacity="0.4" d="M11.834 14H11.8392M14.1621 14H14.1673" stroke="#936BE2" stroke-width="1.16667" stroke-linecap="round" stroke-linejoin="round"/>
<path d="M33.8039 11.7102C33.7584 11.2519 33.5633 10.8958 33.2186 10.642C32.8739 10.3883 32.4061 10.2614 31.8152 10.2614C31.4137 10.2614 31.0747 10.3182 30.7982 10.4318C30.5217 10.5417 30.3095 10.6951 30.1618 10.892C30.0179 11.089 29.9459 11.3125 29.9459 11.5625C29.9383 11.7708 29.9819 11.9527 30.0766 12.108C30.1751 12.2633 30.3095 12.3977 30.48 12.5114C30.6505 12.6212 30.8474 12.7178 31.0709 12.8011C31.2944 12.8807 31.533 12.9489 31.7868 13.0057L32.8323 13.2557C33.3398 13.3693 33.8058 13.5208 34.23 13.7102C34.6542 13.8996 35.0217 14.1326 35.3323 14.4091C35.6429 14.6856 35.8834 15.0114 36.0539 15.3864C36.2281 15.7614 36.3171 16.1913 36.3209 16.6761C36.3171 17.3883 36.1353 18.0057 35.7755 18.5284C35.4194 19.0473 34.9042 19.4508 34.23 19.7386C33.5595 20.0227 32.7508 20.1648 31.8039 20.1648C30.8645 20.1648 30.0463 20.0208 29.3493 19.733C28.6561 19.4451 28.1145 19.0189 27.7243 18.4545C27.338 17.8864 27.1353 17.1837 27.1164 16.3466H29.497C29.5236 16.7367 29.6353 17.0625 29.8323 17.3239C30.033 17.5814 30.3001 17.7765 30.6334 17.9091C30.9705 18.0379 31.3512 18.1023 31.7755 18.1023C32.1921 18.1023 32.5539 18.0417 32.8607 17.9205C33.1713 17.7992 33.4118 17.6307 33.5823 17.4148C33.7527 17.1989 33.838 16.9508 33.838 16.6705C33.838 16.4091 33.7603 16.1894 33.605 16.0114C33.4535 15.8333 33.23 15.6818 32.9345 15.5568C32.6429 15.4318 32.2849 15.3182 31.8607 15.2159L30.5936 14.8977C29.6126 14.6591 28.838 14.286 28.2698 13.7784C27.7016 13.2708 27.4194 12.5871 27.4232 11.7273C27.4194 11.0227 27.6069 10.4072 27.9857 9.88068C28.3683 9.35417 28.8929 8.94318 29.5595 8.64773C30.2262 8.35227 30.9838 8.20455 31.8323 8.20455C32.6959 8.20455 33.4497 8.35227 34.0936 8.64773C34.7414 8.94318 35.2452 9.35417 35.605 9.88068C35.9648 10.4072 36.1505 11.017 36.1618 11.7102H33.8039ZM39.4919 20L37.1169 11.2727H39.5657L40.918 17.1364H40.9976L42.4066 11.2727H44.8101L46.2419 17.1023H46.3157L47.6453 11.2727H50.0885L47.7191 20H45.1566L43.6566 14.5114H43.5487L42.0487 20H39.4919ZM51.2197 20V11.2727H53.6401V20H51.2197ZM52.4356 10.1477C52.0757 10.1477 51.767 10.0284 51.5094 9.78977C51.2556 9.54735 51.1287 9.25758 51.1287 8.92045C51.1287 8.58712 51.2556 8.30114 51.5094 8.0625C51.767 7.82008 52.0757 7.69886 52.4356 7.69886C52.7954 7.69886 53.1022 7.82008 53.356 8.0625C53.6136 8.30114 53.7424 8.58712 53.7424 8.92045C53.7424 9.25758 53.6136 9.54735 53.356 9.78977C53.1022 10.0284 52.7954 10.1477 52.4356 10.1477ZM60.1122 11.2727V13.0909H54.7259V11.2727H60.1122ZM55.9588 20V10.642C55.9588 10.0095 56.0819 9.48485 56.3281 9.06818C56.5781 8.65151 56.919 8.33901 57.3509 8.13068C57.7827 7.92235 58.2732 7.81818 58.8224 7.81818C59.1937 7.81818 59.5327 7.84659 59.8395 7.90341C60.1501 7.96023 60.3812 8.01136 60.5327 8.05682L60.1009 9.875C60.0062 9.8447 59.8887 9.81629 59.7486 9.78977C59.6122 9.76326 59.4721 9.75 59.3281 9.75C58.9721 9.75 58.724 9.83333 58.5838 10C58.4437 10.1629 58.3736 10.392 58.3736 10.6875V20H55.9588ZM66.073 11.2727V13.0909H60.8173V11.2727H66.073ZM62.0105 9.18182H64.4309V17.3182C64.4309 17.5417 64.465 17.7159 64.5332 17.8409C64.6014 17.9621 64.6961 18.0473 64.8173 18.0966C64.9423 18.1458 65.0862 18.1705 65.2491 18.1705C65.3627 18.1705 65.4764 18.161 65.59 18.142C65.7036 18.1193 65.7908 18.1023 65.8514 18.0909L66.232 19.892C66.1108 19.9299 65.9404 19.9735 65.7207 20.0227C65.501 20.0758 65.2339 20.108 64.9195 20.1193C64.3362 20.142 63.8248 20.0644 63.3855 19.8864C62.9498 19.7083 62.6108 19.4318 62.3684 19.0568C62.126 18.6818 62.0067 18.2083 62.0105 17.6364V9.18182ZM74.7226 8.36364H77.1828V15.9205C77.1828 16.7689 76.9802 17.5114 76.5749 18.1477C76.1734 18.7841 75.6109 19.2803 74.8874 19.6364C74.1639 19.9886 73.3211 20.1648 72.359 20.1648C71.3931 20.1648 70.5484 19.9886 69.8249 19.6364C69.1014 19.2803 68.5389 18.7841 68.1374 18.1477C67.7359 17.5114 67.5351 16.7689 67.5351 15.9205V8.36364H69.9953V15.7102C69.9953 16.1534 70.0919 16.5473 70.2851 16.892C70.4821 17.2367 70.7586 17.5076 71.1147 17.7045C71.4707 17.9015 71.8855 18 72.359 18C72.8363 18 73.251 17.9015 73.6033 17.7045C73.9594 17.5076 74.234 17.2367 74.4272 16.892C74.6241 16.5473 74.7226 16.1534 74.7226 15.7102V8.36364ZM81.5072 8.36364V20H79.047V8.36364H81.5072Z" fill="#F1EFEF"/>
<rect x="91" width="58" height="28" rx="6" fill="#3C46C9"/>
<rect x="95" y="5" width="18" height="18" rx="3.5" fill="#F1EFEF"/>
<path d="M99.916 12.2501C99.916 10.3252 99.916 9.36273 100.514 8.76474C101.112 8.16675 102.074 8.16675 103.999 8.16675C105.924 8.16675 106.887 8.16675 107.485 8.76474C108.083 9.36273 108.083 10.3252 108.083 12.2501V15.7501C108.083 17.675 108.083 18.6374 107.485 19.2354C106.887 19.8334 105.924 19.8334 103.999 19.8334C102.074 19.8334 101.112 19.8334 100.514 19.2354C99.916 18.6374 99.916 17.675 99.916 15.7501V12.2501Z" stroke="#3C46C9" stroke-width="0.875" stroke-linecap="round"/>
<path opacity="0.4" d="M103.416 18.0833H104.583" stroke="#3C46C9" stroke-width="0.875" stroke-linecap="round" stroke-linejoin="round"/>
<path opacity="0.4" d="M102.25 8.16675L102.302 8.47826C102.414 9.15333 102.471 9.49087 102.702 9.69627C102.944 9.91053 103.286 9.91675 104 9.91675C104.714 9.91675 105.056 9.91053 105.298 9.69627C105.529 9.49087 105.586 9.15333 105.698 8.47826L105.75 8.16675" stroke="#3C46C9" stroke-width="0.875" stroke-linejoin="round"/>
<path d="M118.446 20V11.2727H120.867V20H118.446ZM119.662 10.1477C119.302 10.1477 118.994 10.0284 118.736 9.78977C118.482 9.54735 118.355 9.25758 118.355 8.92045C118.355 8.58712 118.482 8.30114 118.736 8.0625C118.994 7.82008 119.302 7.69886 119.662 7.69886C120.022 7.69886 120.329 7.82008 120.583 8.0625C120.84 8.30114 120.969 8.58712 120.969 8.92045C120.969 9.25758 120.84 9.54735 120.583 9.78977C120.329 10.0284 120.022 10.1477 119.662 10.1477ZM133.384 14.1818C133.384 15.4508 133.144 16.5303 132.663 17.4205C132.185 18.3106 131.534 18.9905 130.708 19.4602C129.886 19.9261 128.962 20.1591 127.935 20.1591C126.901 20.1591 125.973 19.9242 125.151 19.4545C124.329 18.9848 123.68 18.3049 123.202 17.4148C122.725 16.5246 122.487 15.447 122.487 14.1818C122.487 12.9129 122.725 11.8333 123.202 10.9432C123.68 10.053 124.329 9.375 125.151 8.90909C125.973 8.43939 126.901 8.20455 127.935 8.20455C128.962 8.20455 129.886 8.43939 130.708 8.90909C131.534 9.375 132.185 10.053 132.663 10.9432C133.144 11.8333 133.384 12.9129 133.384 14.1818ZM130.89 14.1818C130.89 13.3598 130.767 12.6667 130.521 12.1023C130.278 11.5379 129.935 11.1098 129.492 10.8182C129.049 10.5265 128.53 10.3807 127.935 10.3807C127.341 10.3807 126.822 10.5265 126.379 10.8182C125.935 11.1098 125.591 11.5379 125.344 12.1023C125.102 12.6667 124.981 13.3598 124.981 14.1818C124.981 15.0038 125.102 15.697 125.344 16.2614C125.591 16.8258 125.935 17.2538 126.379 17.5455C126.822 17.8371 127.341 17.983 127.935 17.983C128.53 17.983 129.049 17.8371 129.492 17.5455C129.935 17.2538 130.278 16.8258 130.521 16.2614C130.767 15.697 130.89 15.0038 130.89 14.1818ZM141.359 11.7102C141.314 11.2519 141.119 10.8958 140.774 10.642C140.429 10.3883 139.961 10.2614 139.371 10.2614C138.969 10.2614 138.63 10.3182 138.353 10.4318C138.077 10.5417 137.865 10.6951 137.717 10.892C137.573 11.089 137.501 11.3125 137.501 11.5625C137.494 11.7708 137.537 11.9527 137.632 12.108C137.73 12.2633 137.865 12.3977 138.035 12.5114C138.206 12.6212 138.403 12.7178 138.626 12.8011C138.85 12.8807 139.088 12.9489 139.342 13.0057L140.388 13.2557C140.895 13.3693 141.361 13.5208 141.785 13.7102C142.21 13.8996 142.577 14.1326 142.888 14.4091C143.198 14.6856 143.439 15.0114 143.609 15.3864C143.783 15.7614 143.872 16.1913 143.876 16.6761C143.872 17.3883 143.691 18.0057 143.331 18.5284C142.975 19.0473 142.46 19.4508 141.785 19.7386C141.115 20.0227 140.306 20.1648 139.359 20.1648C138.42 20.1648 137.602 20.0208 136.905 19.733C136.211 19.4451 135.67 19.0189 135.28 18.4545C134.893 17.8864 134.691 17.1837 134.672 16.3466H137.052C137.079 16.7367 137.191 17.0625 137.388 17.3239C137.588 17.5814 137.855 17.7765 138.189 17.9091C138.526 18.0379 138.907 18.1023 139.331 18.1023C139.747 18.1023 140.109 18.0417 140.416 17.9205C140.727 17.7992 140.967 17.6307 141.138 17.4148C141.308 17.1989 141.393 16.9508 141.393 16.6705C141.393 16.4091 141.316 16.1894 141.16 16.0114C141.009 15.8333 140.785 15.6818 140.49 15.5568C140.198 15.4318 139.84 15.3182 139.416 15.2159L138.149 14.8977C137.168 14.6591 136.393 14.286 135.825 13.7784C135.257 13.2708 134.975 12.5871 134.978 11.7273C134.975 11.0227 135.162 10.4072 135.541 9.88068C135.924 9.35417 136.448 8.94318 137.115 8.64773C137.782 8.35227 138.539 8.20455 139.388 8.20455C140.251 8.20455 141.005 8.35227 141.649 8.64773C142.297 8.94318 142.8 9.35417 143.16 9.88068C143.52 10.4072 143.706 11.017 143.717 11.7102H141.359Z" fill="#F1EFEF"/>
<rect x="153" width="86" height="28" rx="6" fill="#3C46C9"/>
<rect x="157" y="5" width="18" height="18" rx="3.5" fill="#F1EFEF"/>
<path d="M167.166 8.16675H164.833C162.92 8.16675 161.963 8.16675 161.285 8.64148C161.035 8.81711 160.816 9.03528 160.641 9.28611C160.166 9.96409 160.166 10.9205 160.166 12.8334C160.166 14.7463 160.166 15.7027 160.641 16.3807C160.816 16.6316 161.035 16.8497 161.285 17.0254C161.963 17.5001 162.92 17.5001 164.833 17.5001H167.166C169.079 17.5001 170.035 17.5001 170.713 17.0254C170.964 16.8497 171.182 16.6316 171.358 16.3807C171.833 15.7027 171.833 14.7463 171.833 12.8334C171.833 10.9205 171.833 9.96409 171.358 9.28611C171.182 9.03528 170.964 8.81711 170.713 8.64148C170.035 8.16675 169.079 8.16675 167.166 8.16675Z" stroke="#3C46C9" stroke-width="0.875" stroke-linecap="round"/>
<path opacity="0.4" d="M167.458 19.8333L167.274 19.589C166.859 19.0382 166.756 18.1967 167.018 17.5M164.541 19.8333L164.725 19.589C165.14 19.0382 165.243 18.1967 164.98 17.5" stroke="#3C46C9" stroke-width="0.875" stroke-linecap="round"/>
<path d="M163.084 19.8333H168.917" stroke="#3C46C9" stroke-width="0.875" stroke-linecap="round"/>
<path opacity="0.4" d="M165.416 15.75H166.583" stroke="#3C46C9" stroke-width="0.875" stroke-linecap="round" stroke-linejoin="round"/>
<path d="M180.153 20V11.2727H182.46V12.8125H182.562C182.744 12.3011 183.047 11.8977 183.471 11.6023C183.896 11.3068 184.403 11.1591 184.994 11.1591C185.592 11.1591 186.102 11.3087 186.522 11.608C186.943 11.9034 187.223 12.3049 187.363 12.8125H187.454C187.632 12.3125 187.954 11.9129 188.42 11.6136C188.89 11.3106 189.445 11.1591 190.085 11.1591C190.899 11.1591 191.56 11.4186 192.068 11.9375C192.579 12.4527 192.835 13.1837 192.835 14.1307V20H190.42V14.608C190.42 14.1231 190.291 13.7595 190.034 13.517C189.776 13.2746 189.454 13.1534 189.068 13.1534C188.628 13.1534 188.286 13.2936 188.039 13.5739C187.793 13.8504 187.67 14.2159 187.67 14.6705V20H185.324V14.5568C185.324 14.1288 185.2 13.7879 184.954 13.5341C184.712 13.2803 184.392 13.1534 183.994 13.1534C183.725 13.1534 183.483 13.2216 183.267 13.358C183.055 13.4905 182.886 13.678 182.761 13.9205C182.636 14.1591 182.574 14.4394 182.574 14.7614V20H180.153ZM197.075 20.1648C196.519 20.1648 196.022 20.0682 195.587 19.875C195.151 19.678 194.807 19.3883 194.553 19.0057C194.303 18.6193 194.178 18.1383 194.178 17.5625C194.178 17.0777 194.267 16.6705 194.445 16.3409C194.623 16.0114 194.865 15.7462 195.172 15.5455C195.479 15.3447 195.827 15.1932 196.218 15.0909C196.611 14.9886 197.024 14.9167 197.456 14.875C197.964 14.822 198.373 14.7727 198.683 14.7273C198.994 14.678 199.219 14.6061 199.36 14.5114C199.5 14.4167 199.57 14.2765 199.57 14.0909V14.0568C199.57 13.697 199.456 13.4186 199.229 13.2216C199.005 13.0246 198.687 12.9261 198.274 12.9261C197.839 12.9261 197.492 13.0227 197.235 13.2159C196.977 13.4053 196.807 13.6439 196.723 13.9318L194.485 13.75C194.598 13.2197 194.822 12.7614 195.155 12.375C195.488 11.9848 195.918 11.6856 196.445 11.4773C196.975 11.2652 197.589 11.1591 198.286 11.1591C198.771 11.1591 199.235 11.2159 199.678 11.3295C200.125 11.4432 200.521 11.6193 200.865 11.858C201.214 12.0966 201.488 12.4034 201.689 12.7784C201.89 13.1496 201.99 13.5947 201.99 14.1136V20H199.695V18.7898H199.627C199.486 19.0625 199.299 19.303 199.064 19.5114C198.829 19.7159 198.547 19.8769 198.218 19.9943C197.888 20.108 197.507 20.1648 197.075 20.1648ZM197.769 18.4943C198.125 18.4943 198.439 18.4242 198.712 18.2841C198.985 18.1402 199.199 17.947 199.354 17.7045C199.509 17.4621 199.587 17.1875 199.587 16.8807V15.9545C199.511 16.0038 199.407 16.0492 199.274 16.0909C199.146 16.1288 199 16.1648 198.837 16.1989C198.674 16.2292 198.511 16.2576 198.348 16.2841C198.185 16.3068 198.038 16.3277 197.905 16.3466C197.621 16.3883 197.373 16.4545 197.161 16.5455C196.949 16.6364 196.784 16.7595 196.666 16.9148C196.549 17.0663 196.49 17.2557 196.49 17.483C196.49 17.8125 196.61 18.0644 196.848 18.2386C197.091 18.4091 197.397 18.4943 197.769 18.4943ZM207.651 20.1705C206.757 20.1705 205.988 19.9811 205.344 19.6023C204.704 19.2197 204.212 18.6894 203.867 18.0114C203.526 17.3333 203.356 16.553 203.356 15.6705C203.356 14.7765 203.528 13.9924 203.873 13.3182C204.221 12.6402 204.716 12.1117 205.356 11.733C205.996 11.3504 206.757 11.1591 207.64 11.1591C208.401 11.1591 209.068 11.2973 209.64 11.5739C210.212 11.8504 210.665 12.2386 210.998 12.7386C211.331 13.2386 211.515 13.8258 211.549 14.5H209.265C209.201 14.0644 209.03 13.714 208.754 13.4489C208.481 13.1799 208.123 13.0455 207.68 13.0455C207.305 13.0455 206.977 13.1477 206.697 13.3523C206.42 13.553 206.204 13.8466 206.049 14.233C205.894 14.6193 205.816 15.0871 205.816 15.6364C205.816 16.1932 205.892 16.6667 206.043 17.0568C206.199 17.447 206.416 17.7443 206.697 17.9489C206.977 18.1534 207.305 18.2557 207.68 18.2557C207.956 18.2557 208.204 18.1989 208.424 18.0852C208.647 17.9716 208.831 17.8068 208.975 17.5909C209.123 17.3712 209.219 17.108 209.265 16.8011H211.549C211.511 17.4678 211.329 18.0549 211.004 18.5625C210.682 19.0663 210.237 19.4602 209.668 19.7443C209.1 20.0284 208.428 20.1705 207.651 20.1705ZM223.677 14.1818C223.677 15.4508 223.437 16.5303 222.956 17.4205C222.478 18.3106 221.827 18.9905 221.001 19.4602C220.179 19.9261 219.255 20.1591 218.228 20.1591C217.194 20.1591 216.266 19.9242 215.444 19.4545C214.622 18.9848 213.973 18.3049 213.496 17.4148C213.018 16.5246 212.78 15.447 212.78 14.1818C212.78 12.9129 213.018 11.8333 213.496 10.9432C213.973 10.053 214.622 9.375 215.444 8.90909C216.266 8.43939 217.194 8.20455 218.228 8.20455C219.255 8.20455 220.179 8.43939 221.001 8.90909C221.827 9.375 222.478 10.053 222.956 10.9432C223.437 11.8333 223.677 12.9129 223.677 14.1818ZM221.183 14.1818C221.183 13.3598 221.06 12.6667 220.814 12.1023C220.571 11.5379 220.228 11.1098 219.785 10.8182C219.342 10.5265 218.823 10.3807 218.228 10.3807C217.634 10.3807 217.115 10.5265 216.672 10.8182C216.228 11.1098 215.884 11.5379 215.638 12.1023C215.395 12.6667 215.274 13.3598 215.274 14.1818C215.274 15.0038 215.395 15.697 215.638 16.2614C215.884 16.8258 216.228 17.2538 216.672 17.5455C217.115 17.8371 217.634 17.983 218.228 17.983C218.823 17.983 219.342 17.8371 219.785 17.5455C220.228 17.2538 220.571 16.8258 220.814 16.2614C221.06 15.697 221.183 15.0038 221.183 14.1818ZM231.652 11.7102C231.607 11.2519 231.412 10.8958 231.067 10.642C230.722 10.3883 230.255 10.2614 229.664 10.2614C229.262 10.2614 228.923 10.3182 228.647 10.4318C228.37 10.5417 228.158 10.6951 228.01 10.892C227.866 11.089 227.794 11.3125 227.794 11.5625C227.787 11.7708 227.83 11.9527 227.925 12.108C228.024 12.2633 228.158 12.3977 228.328 12.5114C228.499 12.6212 228.696 12.7178 228.919 12.8011C229.143 12.8807 229.381 12.9489 229.635 13.0057L230.681 13.2557C231.188 13.3693 231.654 13.5208 232.078 13.7102C232.503 13.8996 232.87 14.1326 233.181 14.4091C233.491 14.6856 233.732 15.0114 233.902 15.3864C234.077 15.7614 234.166 16.1913 234.169 16.6761C234.166 17.3883 233.984 18.0057 233.624 18.5284C233.268 19.0473 232.753 19.4508 232.078 19.7386C231.408 20.0227 230.599 20.1648 229.652 20.1648C228.713 20.1648 227.895 20.0208 227.198 19.733C226.505 19.4451 225.963 19.0189 225.573 18.4545C225.186 17.8864 224.984 17.1837 224.965 16.3466H227.345C227.372 16.7367 227.484 17.0625 227.681 17.3239C227.881 17.5814 228.149 17.7765 228.482 17.9091C228.819 18.0379 229.2 18.1023 229.624 18.1023C230.041 18.1023 230.402 18.0417 230.709 17.9205C231.02 17.7992 231.26 17.6307 231.431 17.4148C231.601 17.1989 231.686 16.9508 231.686 16.6705C231.686 16.4091 231.609 16.1894 231.453 16.0114C231.302 15.8333 231.078 15.6818 230.783 15.5568C230.491 15.4318 230.133 15.3182 229.709 15.2159L228.442 14.8977C227.461 14.6591 226.686 14.286 226.118 13.7784C225.55 13.2708 225.268 12.5871 225.272 11.7273C225.268 11.0227 225.455 10.4072 225.834 9.88068C226.217 9.35417 226.741 8.94318 227.408 8.64773C228.075 8.35227 228.832 8.20455 229.681 8.20455C230.544 8.20455 231.298 8.35227 231.942 8.64773C232.59 8.94318 233.094 9.35417 233.453 9.88068C233.813 10.4072 233.999 11.017 234.01 11.7102H231.652Z" fill="#F1EFEF"/>
<rect x="243" width="69" height="28" rx="6" fill="#3C46C9"/>
<rect x="247" y="5" width="18" height="18" rx="3.5" fill="#F1EFEF"/>
<path d="M250.166 12.8334C250.166 10.6335 250.166 9.53359 250.849 8.85016C251.533 8.16675 252.633 8.16675 254.833 8.16675H257.166C259.366 8.16675 260.466 8.16675 261.149 8.85016C261.833 9.53359 261.833 10.6335 261.833 12.8334C261.833 15.0333 261.833 16.1333 261.149 16.8166C260.466 17.5001 259.366 17.5001 257.166 17.5001H254.833C252.633 17.5001 251.533 17.5001 250.849 16.8166C250.166 16.1333 250.166 15.0333 250.166 12.8334Z" stroke="#3C46C9" stroke-width="0.875" stroke-linecap="round"/>
<path opacity="0.4" d="M258.333 19.8333C257.646 19.4623 256.849 19.25 255.999 19.25C255.149 19.25 254.352 19.4623 253.666 19.8333" stroke="#3C46C9" stroke-width="0.875" stroke-linecap="round"/>
<path d="M275.051 11.2727V13.0909H269.795V11.2727H275.051ZM270.989 9.18182H273.409V17.3182C273.409 17.5417 273.443 17.7159 273.511 17.8409C273.579 17.9621 273.674 18.0473 273.795 18.0966C273.92 18.1458 274.064 18.1705 274.227 18.1705C274.341 18.1705 274.454 18.161 274.568 18.142C274.682 18.1193 274.769 18.1023 274.829 18.0909L275.21 19.892C275.089 19.9299 274.919 19.9735 274.699 20.0227C274.479 20.0758 274.212 20.108 273.898 20.1193C273.314 20.142 272.803 20.0644 272.364 19.8864C271.928 19.7083 271.589 19.4318 271.347 19.0568C271.104 18.6818 270.985 18.2083 270.989 17.6364V9.18182ZM284.604 11.2727L281.553 20H278.826L275.775 11.2727H278.331L280.144 17.517H280.235L282.042 11.2727H284.604ZM296.421 14.1818C296.421 15.4508 296.181 16.5303 295.7 17.4205C295.223 18.3106 294.571 18.9905 293.745 19.4602C292.923 19.9261 291.999 20.1591 290.973 20.1591C289.938 20.1591 289.01 19.9242 288.188 19.4545C287.366 18.9848 286.717 18.3049 286.24 17.4148C285.762 16.5246 285.524 15.447 285.524 14.1818C285.524 12.9129 285.762 11.8333 286.24 10.9432C286.717 10.053 287.366 9.375 288.188 8.90909C289.01 8.43939 289.938 8.20455 290.973 8.20455C291.999 8.20455 292.923 8.43939 293.745 8.90909C294.571 9.375 295.223 10.053 295.7 10.9432C296.181 11.8333 296.421 12.9129 296.421 14.1818ZM293.927 14.1818C293.927 13.3598 293.804 12.6667 293.558 12.1023C293.315 11.5379 292.973 11.1098 292.529 10.8182C292.086 10.5265 291.567 10.3807 290.973 10.3807C290.378 10.3807 289.859 10.5265 289.416 10.8182C288.973 11.1098 288.628 11.5379 288.382 12.1023C288.139 12.6667 288.018 13.3598 288.018 14.1818C288.018 15.0038 288.139 15.697 288.382 16.2614C288.628 16.8258 288.973 17.2538 289.416 17.5455C289.859 17.8371 290.378 17.983 290.973 17.983C291.567 17.983 292.086 17.8371 292.529 17.5455C292.973 17.2538 293.315 16.8258 293.558 16.2614C293.804 15.697 293.927 15.0038 293.927 14.1818ZM304.396 11.7102C304.351 11.2519 304.156 10.8958 303.811 10.642C303.466 10.3883 302.999 10.2614 302.408 10.2614C302.006 10.2614 301.667 10.3182 301.391 10.4318C301.114 10.5417 300.902 10.6951 300.754 10.892C300.61 11.089 300.538 11.3125 300.538 11.5625C300.531 11.7708 300.574 11.9527 300.669 12.108C300.768 12.2633 300.902 12.3977 301.073 12.5114C301.243 12.6212 301.44 12.7178 301.663 12.8011C301.887 12.8807 302.126 12.9489 302.379 13.0057L303.425 13.2557C303.932 13.3693 304.398 13.5208 304.823 13.7102C305.247 13.8996 305.614 14.1326 305.925 14.4091C306.235 14.6856 306.476 15.0114 306.646 15.3864C306.821 15.7614 306.91 16.1913 306.913 16.6761C306.91 17.3883 306.728 18.0057 306.368 18.5284C306.012 19.0473 305.497 19.4508 304.823 19.7386C304.152 20.0227 303.343 20.1648 302.396 20.1648C301.457 20.1648 300.639 20.0208 299.942 19.733C299.249 19.4451 298.707 19.0189 298.317 18.4545C297.93 17.8864 297.728 17.1837 297.709 16.3466H300.09C300.116 16.7367 300.228 17.0625 300.425 17.3239C300.626 17.5814 300.893 17.7765 301.226 17.9091C301.563 18.0379 301.944 18.1023 302.368 18.1023C302.785 18.1023 303.146 18.0417 303.453 17.9205C303.764 17.7992 304.004 17.6307 304.175 17.4148C304.345 17.1989 304.43 16.9508 304.43 16.6705C304.43 16.4091 304.353 16.1894 304.198 16.0114C304.046 15.8333 303.823 15.6818 303.527 15.5568C303.235 15.4318 302.877 15.3182 302.453 15.2159L301.186 14.8977C300.205 14.6591 299.43 14.286 298.862 13.7784C298.294 13.2708 298.012 12.5871 298.016 11.7273C298.012 11.0227 298.199 10.4072 298.578 9.88068C298.961 9.35417 299.485 8.94318 300.152 8.64773C300.819 8.35227 301.576 8.20455 302.425 8.20455C303.288 8.20455 304.042 8.35227 304.686 8.64773C305.334 8.94318 305.838 9.35417 306.198 9.88068C306.557 10.4072 306.743 11.017 306.754 11.7102H304.396Z" fill="#F1EFEF"/>
<rect x="316" width="182" height="28" rx="6" fill="#3C46C9"/>
<rect x="320" y="5" width="18" height="18" rx="3.5" fill="#F1EFEF"/>
<path opacity="0.4" d="M333.376 12.8334C333.376 10.6335 333.376 9.53359 332.692 8.85016C332.009 8.16675 330.909 8.16675 328.709 8.16675H328.126C325.926 8.16675 324.826 8.16675 324.142 8.85016C323.459 9.53357 323.459 10.6335 323.459 12.8334L323.459 15.1667C323.459 17.3666 323.459 18.4665 324.142 19.15C324.826 19.8334 325.926 19.8334 328.126 19.8334H329.001" stroke="#3C46C9" stroke-width="0.875" stroke-linecap="round" stroke-linejoin="round"/>
<path d="M326.084 11.0833H330.751M326.084 13.9999H329.876" stroke="#3C46C9" stroke-width="0.875" stroke-linecap="round"/>
<path d="M331.253 19.8333H333.748C334.265 19.8333 334.701 19.4825 334.486 19.1058C334.142 18.5024 333.382 18.0833 332.501 18.0833C331.619 18.0833 330.859 18.5024 330.515 19.1058C330.3 19.4825 330.737 19.8333 331.253 19.8333Z" stroke="#3C46C9" stroke-width="0.875" stroke-linejoin="round"/>
<path d="M332.498 16.6249C333.062 16.6249 333.519 16.1679 333.519 15.6041C333.519 15.0403 333.062 14.5833 332.498 14.5833C331.934 14.5833 331.477 15.0403 331.477 15.6041C331.477 16.1679 331.934 16.6249 332.498 16.6249Z" stroke="#3C46C9" stroke-width="0.875"/>
<path d="M345.377 20H342.741L346.758 8.36364H349.928L353.94 20H351.303L348.388 11.0227H348.298L345.377 20ZM345.212 15.4261H351.44V17.3466H345.212V15.4261ZM355.135 23.2727V11.2727H357.521V12.7386H357.629C357.735 12.5038 357.888 12.2652 358.089 12.0227C358.294 11.7765 358.559 11.572 358.885 11.4091C359.214 11.2424 359.623 11.1591 360.112 11.1591C360.748 11.1591 361.335 11.3258 361.873 11.6591C362.411 11.9886 362.841 12.4867 363.163 13.1534C363.485 13.8163 363.646 14.6477 363.646 15.6477C363.646 16.6212 363.489 17.4432 363.174 18.1136C362.864 18.7803 362.44 19.286 361.902 19.6307C361.368 19.9716 360.769 20.142 360.106 20.142C359.637 20.142 359.237 20.0644 358.907 19.9091C358.582 19.7538 358.315 19.5587 358.106 19.3239C357.898 19.0852 357.739 18.8447 357.629 18.6023H357.555V23.2727H355.135ZM357.504 15.6364C357.504 16.1553 357.576 16.608 357.72 16.9943C357.864 17.3807 358.072 17.6818 358.345 17.8977C358.618 18.1098 358.949 18.2159 359.339 18.2159C359.733 18.2159 360.066 18.108 360.339 17.892C360.612 17.6723 360.818 17.3693 360.959 16.983C361.102 16.5928 361.174 16.1439 361.174 15.6364C361.174 15.1326 361.104 14.6894 360.964 14.3068C360.824 13.9242 360.618 13.625 360.345 13.4091C360.072 13.1932 359.737 13.0852 359.339 13.0852C358.945 13.0852 358.612 13.1894 358.339 13.3977C358.07 13.6061 357.864 13.9015 357.72 14.2841C357.576 14.6667 357.504 15.1174 357.504 15.6364ZM367.588 20.1648C367.031 20.1648 366.535 20.0682 366.1 19.875C365.664 19.678 365.319 19.3883 365.066 19.0057C364.816 18.6193 364.691 18.1383 364.691 17.5625C364.691 17.0777 364.78 16.6705 364.958 16.3409C365.136 16.0114 365.378 15.7462 365.685 15.5455C365.992 15.3447 366.34 15.1932 366.73 15.0909C367.124 14.9886 367.537 14.9167 367.969 14.875C368.477 14.822 368.886 14.7727 369.196 14.7273C369.507 14.678 369.732 14.6061 369.872 14.5114C370.013 14.4167 370.083 14.2765 370.083 14.0909V14.0568C370.083 13.697 369.969 13.4186 369.742 13.2216C369.518 13.0246 369.2 12.9261 368.787 12.9261C368.352 12.9261 368.005 13.0227 367.747 13.2159C367.49 13.4053 367.319 13.6439 367.236 13.9318L364.997 13.75C365.111 13.2197 365.335 12.7614 365.668 12.375C366.001 11.9848 366.431 11.6856 366.958 11.4773C367.488 11.2652 368.102 11.1591 368.799 11.1591C369.283 11.1591 369.747 11.2159 370.191 11.3295C370.638 11.4432 371.033 11.6193 371.378 11.858C371.727 12.0966 372.001 12.4034 372.202 12.7784C372.403 13.1496 372.503 13.5947 372.503 14.1136V20H370.208V18.7898H370.139C369.999 19.0625 369.812 19.303 369.577 19.5114C369.342 19.7159 369.06 19.8769 368.73 19.9943C368.401 20.108 368.02 20.1648 367.588 20.1648ZM368.281 18.4943C368.638 18.4943 368.952 18.4242 369.225 18.2841C369.497 18.1402 369.711 17.947 369.867 17.7045C370.022 17.4621 370.1 17.1875 370.1 16.8807V15.9545C370.024 16.0038 369.92 16.0492 369.787 16.0909C369.658 16.1288 369.513 16.1648 369.35 16.1989C369.187 16.2292 369.024 16.2576 368.861 16.2841C368.698 16.3068 368.55 16.3277 368.418 16.3466C368.134 16.3883 367.886 16.4545 367.674 16.5455C367.461 16.6364 367.297 16.7595 367.179 16.9148C367.062 17.0663 367.003 17.2557 367.003 17.483C367.003 17.8125 367.122 18.0644 367.361 18.2386C367.603 18.4091 367.91 18.4943 368.281 18.4943ZM378.164 20.1705C377.27 20.1705 376.501 19.9811 375.857 19.6023C375.217 19.2197 374.725 18.6894 374.38 18.0114C374.039 17.3333 373.869 16.553 373.869 15.6705C373.869 14.7765 374.041 13.9924 374.386 13.3182C374.734 12.6402 375.228 12.1117 375.869 11.733C376.509 11.3504 377.27 11.1591 378.153 11.1591C378.914 11.1591 379.581 11.2973 380.153 11.5739C380.725 11.8504 381.177 12.2386 381.511 12.7386C381.844 13.2386 382.028 13.8258 382.062 14.5H379.778C379.713 14.0644 379.543 13.714 379.266 13.4489C378.994 13.1799 378.636 13.0455 378.193 13.0455C377.818 13.0455 377.49 13.1477 377.21 13.3523C376.933 13.553 376.717 13.8466 376.562 14.233C376.407 14.6193 376.329 15.0871 376.329 15.6364C376.329 16.1932 376.405 16.6667 376.556 17.0568C376.711 17.447 376.929 17.7443 377.21 17.9489C377.49 18.1534 377.818 18.2557 378.193 18.2557C378.469 18.2557 378.717 18.1989 378.937 18.0852C379.16 17.9716 379.344 17.8068 379.488 17.5909C379.636 17.3712 379.732 17.108 379.778 16.8011H382.062C382.024 17.4678 381.842 18.0549 381.516 18.5625C381.194 19.0663 380.749 19.4602 380.181 19.7443C379.613 20.0284 378.941 20.1705 378.164 20.1705ZM385.872 14.9545V20H383.452V8.36364H385.804V12.8125H385.906C386.103 12.2973 386.421 11.8939 386.861 11.6023C387.3 11.3068 387.851 11.1591 388.514 11.1591C389.12 11.1591 389.649 11.2917 390.099 11.5568C390.554 11.8182 390.906 12.1951 391.156 12.6875C391.41 13.1761 391.535 13.7614 391.531 14.4432V20H389.111V14.875C389.114 14.3371 388.978 13.9186 388.702 13.6193C388.429 13.3201 388.046 13.1705 387.554 13.1705C387.224 13.1705 386.933 13.2405 386.679 13.3807C386.429 13.5208 386.232 13.7254 386.088 13.9943C385.948 14.2595 385.876 14.5795 385.872 14.9545ZM397.253 20.1705C396.355 20.1705 395.583 19.9886 394.935 19.625C394.291 19.2576 393.795 18.7386 393.446 18.0682C393.098 17.3939 392.924 16.5966 392.924 15.6761C392.924 14.7784 393.098 13.9905 393.446 13.3125C393.795 12.6345 394.285 12.1061 394.918 11.7273C395.554 11.3485 396.301 11.1591 397.157 11.1591C397.732 11.1591 398.268 11.2519 398.765 11.4375C399.265 11.6193 399.7 11.8939 400.071 12.2614C400.446 12.6288 400.738 13.0909 400.946 13.6477C401.155 14.2008 401.259 14.8485 401.259 15.5909V16.2557H393.89V14.7557H398.98C398.98 14.4072 398.905 14.0985 398.753 13.8295C398.602 13.5606 398.391 13.3504 398.123 13.1989C397.857 13.0436 397.549 12.9659 397.196 12.9659C396.829 12.9659 396.503 13.0511 396.219 13.2216C395.939 13.3883 395.719 13.6136 395.56 13.8977C395.401 14.178 395.319 14.4905 395.316 14.8352V16.2614C395.316 16.6932 395.395 17.0663 395.554 17.3807C395.717 17.6951 395.946 17.9375 396.242 18.108C396.537 18.2784 396.888 18.3636 397.293 18.3636C397.562 18.3636 397.808 18.3258 398.032 18.25C398.255 18.1742 398.446 18.0606 398.605 17.9091C398.765 17.7576 398.886 17.572 398.969 17.3523L401.208 17.5C401.094 18.0379 400.861 18.5076 400.509 18.9091C400.16 19.3068 399.71 19.6174 399.157 19.8409C398.607 20.0606 397.973 20.1705 397.253 20.1705ZM406.199 20V18.2273L410.341 14.392C410.693 14.0511 410.989 13.7443 411.227 13.4716C411.47 13.1989 411.653 12.9318 411.778 12.6705C411.903 12.4053 411.966 12.1193 411.966 11.8125C411.966 11.4716 411.888 11.178 411.733 10.9318C411.578 10.6818 411.365 10.4905 411.097 10.358C410.828 10.2216 410.523 10.1534 410.182 10.1534C409.826 10.1534 409.515 10.2254 409.25 10.3693C408.985 10.5133 408.78 10.7197 408.636 10.9886C408.492 11.2576 408.42 11.5777 408.42 11.9489H406.085C406.085 11.1875 406.258 10.5265 406.602 9.96591C406.947 9.4053 407.43 8.97159 408.051 8.66477C408.672 8.35795 409.388 8.20455 410.199 8.20455C411.032 8.20455 411.758 8.35227 412.375 8.64773C412.996 8.93939 413.479 9.3447 413.824 9.86364C414.169 10.3826 414.341 10.9773 414.341 11.6477C414.341 12.0871 414.254 12.5208 414.079 12.9489C413.909 13.3769 413.604 13.8523 413.165 14.375C412.725 14.8939 412.106 15.517 411.307 16.2443L409.608 17.9091V17.9886H414.494V20H406.199ZM417.554 20.1477C417.179 20.1477 416.857 20.0152 416.589 19.75C416.323 19.4811 416.191 19.1591 416.191 18.7841C416.191 18.4129 416.323 18.0947 416.589 17.8295C416.857 17.5644 417.179 17.4318 417.554 17.4318C417.918 17.4318 418.236 17.5644 418.509 17.8295C418.782 18.0947 418.918 18.4129 418.918 18.7841C418.918 19.0341 418.854 19.2633 418.725 19.4716C418.6 19.6761 418.435 19.8409 418.231 19.9659C418.026 20.0871 417.801 20.1477 417.554 20.1477ZM424.816 20.2557C423.839 20.2519 422.998 20.0114 422.294 19.5341C421.593 19.0568 421.053 18.3655 420.674 17.4602C420.299 16.5549 420.114 15.4659 420.117 14.1932C420.117 12.9242 420.305 11.8428 420.68 10.9489C421.059 10.0549 421.599 9.375 422.299 8.90909C423.004 8.43939 423.843 8.20455 424.816 8.20455C425.79 8.20455 426.627 8.43939 427.328 8.90909C428.032 9.37879 428.574 10.0606 428.953 10.9545C429.331 11.8447 429.519 12.9242 429.515 14.1932C429.515 15.4697 429.326 16.5606 428.947 17.4659C428.572 18.3712 428.034 19.0625 427.333 19.5398C426.633 20.017 425.794 20.2557 424.816 20.2557ZM424.816 18.2159C425.483 18.2159 426.015 17.8807 426.413 17.2102C426.811 16.5398 427.008 15.5341 427.004 14.1932C427.004 13.3106 426.913 12.5758 426.731 11.9886C426.553 11.4015 426.299 10.9602 425.97 10.6648C425.644 10.3693 425.259 10.2216 424.816 10.2216C424.153 10.2216 423.623 10.553 423.225 11.2159C422.828 11.8788 422.627 12.8712 422.623 14.1932C422.623 15.0871 422.712 15.8333 422.89 16.4318C423.072 17.0265 423.328 17.4735 423.657 17.7727C423.987 18.0682 424.373 18.2159 424.816 18.2159ZM434.721 20V8.36364H437.181V17.9716H442.17V20H434.721ZM443.593 20V11.2727H446.014V20H443.593ZM444.809 10.1477C444.449 10.1477 444.141 10.0284 443.883 9.78977C443.629 9.54735 443.503 9.25758 443.503 8.92045C443.503 8.58712 443.629 8.30114 443.883 8.0625C444.141 7.82008 444.449 7.69886 444.809 7.69886C445.169 7.69886 445.476 7.82008 445.73 8.0625C445.987 8.30114 446.116 8.58712 446.116 8.92045C446.116 9.25758 445.987 9.54735 445.73 9.78977C445.476 10.0284 445.169 10.1477 444.809 10.1477ZM451.736 20.1705C450.842 20.1705 450.073 19.9811 449.429 19.6023C448.789 19.2197 448.297 18.6894 447.952 18.0114C447.611 17.3333 447.441 16.553 447.441 15.6705C447.441 14.7765 447.613 13.9924 447.958 13.3182C448.306 12.6402 448.8 12.1117 449.441 11.733C450.081 11.3504 450.842 11.1591 451.725 11.1591C452.486 11.1591 453.153 11.2973 453.725 11.5739C454.297 11.8504 454.749 12.2386 455.083 12.7386C455.416 13.2386 455.6 13.8258 455.634 14.5H453.35C453.285 14.0644 453.115 13.714 452.838 13.4489C452.566 13.1799 452.208 13.0455 451.764 13.0455C451.389 13.0455 451.062 13.1477 450.781 13.3523C450.505 13.553 450.289 13.8466 450.134 14.233C449.978 14.6193 449.901 15.0871 449.901 15.6364C449.901 16.1932 449.976 16.6667 450.128 17.0568C450.283 17.447 450.501 17.7443 450.781 17.9489C451.062 18.1534 451.389 18.2557 451.764 18.2557C452.041 18.2557 452.289 18.1989 452.509 18.0852C452.732 17.9716 452.916 17.8068 453.06 17.5909C453.208 17.3712 453.304 17.108 453.35 16.8011H455.634C455.596 17.4678 455.414 18.0549 455.088 18.5625C454.766 19.0663 454.321 19.4602 453.753 19.7443C453.185 20.0284 452.512 20.1705 451.736 20.1705ZM461.001 20.1705C460.103 20.1705 459.33 19.9886 458.683 19.625C458.039 19.2576 457.542 18.7386 457.194 18.0682C456.845 17.3939 456.671 16.5966 456.671 15.6761C456.671 14.7784 456.845 13.9905 457.194 13.3125C457.542 12.6345 458.033 12.1061 458.665 11.7273C459.302 11.3485 460.048 11.1591 460.904 11.1591C461.48 11.1591 462.016 11.2519 462.512 11.4375C463.012 11.6193 463.448 11.8939 463.819 12.2614C464.194 12.6288 464.486 13.0909 464.694 13.6477C464.902 14.2008 465.006 14.8485 465.006 15.5909V16.2557H457.637V14.7557H462.728C462.728 14.4072 462.652 14.0985 462.501 13.8295C462.349 13.5606 462.139 13.3504 461.87 13.1989C461.605 13.0436 461.296 12.9659 460.944 12.9659C460.576 12.9659 460.251 13.0511 459.967 13.2216C459.686 13.3883 459.467 13.6136 459.308 13.8977C459.148 14.178 459.067 14.4905 459.063 14.8352V16.2614C459.063 16.6932 459.143 17.0663 459.302 17.3807C459.465 17.6951 459.694 17.9375 459.989 18.108C460.285 18.2784 460.635 18.3636 461.04 18.3636C461.309 18.3636 461.556 18.3258 461.779 18.25C462.003 18.1742 462.194 18.0606 462.353 17.9091C462.512 17.7576 462.633 17.572 462.717 17.3523L464.955 17.5C464.842 18.0379 464.609 18.5076 464.256 18.9091C463.908 19.3068 463.457 19.6174 462.904 19.8409C462.355 20.0606 461.72 20.1705 461.001 20.1705ZM468.846 14.9545V20H466.426V11.2727H468.733V12.8125H468.835C469.028 12.3049 469.352 11.9034 469.807 11.608C470.261 11.3087 470.812 11.1591 471.46 11.1591C472.066 11.1591 472.594 11.2917 473.045 11.5568C473.496 11.822 473.846 12.2008 474.096 12.6932C474.346 13.1818 474.471 13.7652 474.471 14.4432V20H472.051V14.875C472.055 14.3409 471.918 13.9242 471.642 13.625C471.365 13.322 470.985 13.1705 470.5 13.1705C470.174 13.1705 469.886 13.2405 469.636 13.3807C469.39 13.5208 469.197 13.7254 469.057 13.9943C468.92 14.2595 468.85 14.5795 468.846 14.9545ZM483.48 13.7614L481.264 13.8977C481.227 13.7083 481.145 13.5379 481.02 13.3864C480.895 13.2311 480.73 13.108 480.526 13.017C480.325 12.9223 480.085 12.875 479.804 12.875C479.429 12.875 479.113 12.9545 478.855 13.1136C478.598 13.2689 478.469 13.4773 478.469 13.7386C478.469 13.947 478.552 14.1231 478.719 14.267C478.886 14.411 479.172 14.5265 479.577 14.6136L481.157 14.9318C482.005 15.1061 482.638 15.3864 483.054 15.7727C483.471 16.1591 483.679 16.6667 483.679 17.2955C483.679 17.8674 483.511 18.3693 483.174 18.8011C482.84 19.233 482.382 19.5701 481.799 19.8125C481.219 20.0511 480.55 20.1705 479.793 20.1705C478.638 20.1705 477.717 19.9299 477.032 19.4489C476.35 18.964 475.95 18.3049 475.833 17.4716L478.213 17.3466C478.285 17.6989 478.46 17.9678 478.736 18.1534C479.013 18.3352 479.367 18.4261 479.799 18.4261C480.223 18.4261 480.564 18.3447 480.821 18.1818C481.083 18.0152 481.215 17.8011 481.219 17.5398C481.215 17.3201 481.122 17.1402 480.941 17C480.759 16.8561 480.479 16.7462 480.1 16.6705L478.588 16.3693C477.736 16.1989 477.102 15.9034 476.685 15.483C476.272 15.0625 476.066 14.5265 476.066 13.875C476.066 13.3144 476.217 12.8314 476.52 12.4261C476.827 12.0208 477.257 11.7083 477.81 11.4886C478.367 11.2689 479.018 11.1591 479.764 11.1591C480.867 11.1591 481.734 11.392 482.367 11.858C483.003 12.3239 483.374 12.9583 483.48 13.7614ZM489.021 20.1705C488.123 20.1705 487.35 19.9886 486.702 19.625C486.059 19.2576 485.562 18.7386 485.214 18.0682C484.865 17.3939 484.691 16.5966 484.691 15.6761C484.691 14.7784 484.865 13.9905 485.214 13.3125C485.562 12.6345 486.053 12.1061 486.685 11.7273C487.322 11.3485 488.068 11.1591 488.924 11.1591C489.5 11.1591 490.036 11.2519 490.532 11.4375C491.032 11.6193 491.468 11.8939 491.839 12.2614C492.214 12.6288 492.506 13.0909 492.714 13.6477C492.922 14.2008 493.026 14.8485 493.026 15.5909V16.2557H485.657V14.7557H490.748C490.748 14.4072 490.672 14.0985 490.521 13.8295C490.369 13.5606 490.159 13.3504 489.89 13.1989C489.625 13.0436 489.316 12.9659 488.964 12.9659C488.596 12.9659 488.271 13.0511 487.987 13.2216C487.706 13.3883 487.487 13.6136 487.327 13.8977C487.168 14.178 487.087 14.4905 487.083 14.8352V16.2614C487.083 16.6932 487.163 17.0663 487.322 17.3807C487.485 17.6951 487.714 17.9375 488.009 18.108C488.305 18.2784 488.655 18.3636 489.06 18.3636C489.329 18.3636 489.576 18.3258 489.799 18.25C490.023 18.1742 490.214 18.0606 490.373 17.9091C490.532 17.7576 490.653 17.572 490.737 17.3523L492.975 17.5C492.862 18.0379 492.629 18.5076 492.276 18.9091C491.928 19.3068 491.477 19.6174 490.924 19.8409C490.375 20.0606 489.74 20.1705 489.021 20.1705Z" fill="#F1EFEF"/>
<rect x="502" width="148" height="28" rx="6" fill="#3C46C9"/>
<rect x="506" y="5" width="18" height="18" rx="3.5" fill="#F1EFEF"/>
<path d="M518.5 8.16675V9.33341M511.5 8.16675V9.33341" stroke="#3C46C9" stroke-width="0.875" stroke-linecap="round" stroke-linejoin="round"/>
<path opacity="0.4" d="M513.833 16.9166L513.833 14.7858C513.833 14.674 513.754 14.5833 513.655 14.5833H513.25M515.951 16.9166L516.741 14.787C516.778 14.6874 516.699 14.5833 516.587 14.5833H515.583" stroke="#3C46C9" stroke-width="0.875" stroke-linecap="round"/>
<path d="M509.459 14.1419C509.459 11.6001 509.459 10.3292 510.189 9.53962C510.92 8.75 512.095 8.75 514.446 8.75H515.555C517.906 8.75 519.082 8.75 519.812 9.53962C520.542 10.3292 520.542 11.6001 520.542 14.1419V14.4415C520.542 16.9832 520.542 18.2541 519.812 19.0437C519.082 19.8333 517.906 19.8333 515.555 19.8333H514.446C512.095 19.8333 510.92 19.8333 510.189 19.0437C509.459 18.2541 509.459 16.9832 509.459 14.4415V14.1419Z" stroke="#3C46C9" stroke-width="0.875" stroke-linecap="round" stroke-linejoin="round"/>
<path opacity="0.4" d="M511.5 11.6667H518.5" stroke="#3C46C9" stroke-width="0.875" stroke-linecap="round" stroke-linejoin="round"/>
<path d="M533.646 20.1591C532.798 20.1591 532.042 20.0133 531.379 19.7216C530.72 19.4261 530.199 19.0208 529.817 18.5057C529.438 17.9867 529.243 17.3883 529.231 16.7102H531.709C531.724 16.9943 531.817 17.2443 531.987 17.4602C532.161 17.6723 532.392 17.8371 532.68 17.9545C532.968 18.072 533.292 18.1307 533.652 18.1307C534.027 18.1307 534.358 18.0644 534.646 17.9318C534.934 17.7992 535.159 17.6155 535.322 17.3807C535.485 17.1458 535.567 16.875 535.567 16.5682C535.567 16.2576 535.48 15.983 535.305 15.7443C535.135 15.5019 534.889 15.3125 534.567 15.1761C534.248 15.0398 533.87 14.9716 533.43 14.9716H532.345V13.1648H533.43C533.801 13.1648 534.129 13.1004 534.413 12.9716C534.701 12.8428 534.925 12.6648 535.084 12.4375C535.243 12.2064 535.322 11.9375 535.322 11.6307C535.322 11.339 535.252 11.0833 535.112 10.8636C534.976 10.6402 534.783 10.4659 534.533 10.3409C534.286 10.2159 533.998 10.1534 533.669 10.1534C533.336 10.1534 533.031 10.214 532.754 10.3352C532.478 10.4527 532.256 10.6212 532.089 10.8409C531.923 11.0606 531.834 11.3182 531.822 11.6136H529.464C529.476 10.9432 529.667 10.3523 530.038 9.84091C530.409 9.32955 530.909 8.92992 531.538 8.64205C532.171 8.35038 532.885 8.20455 533.68 8.20455C534.483 8.20455 535.186 8.35038 535.788 8.64205C536.391 8.93371 536.858 9.32765 537.192 9.82386C537.529 10.3163 537.695 10.8693 537.692 11.483C537.695 12.1345 537.493 12.678 537.084 13.1136C536.678 13.5492 536.15 13.8258 535.498 13.9432V14.0341C536.355 14.1439 537.006 14.4413 537.453 14.9261C537.904 15.4072 538.127 16.0095 538.123 16.733C538.127 17.3958 537.936 17.9848 537.55 18.5C537.167 19.0152 536.639 19.4205 535.964 19.7159C535.29 20.0114 534.517 20.1591 533.646 20.1591ZM540.841 20.1477C540.466 20.1477 540.144 20.0152 539.875 19.75C539.61 19.4811 539.478 19.1591 539.478 18.7841C539.478 18.4129 539.61 18.0947 539.875 17.8295C540.144 17.5644 540.466 17.4318 540.841 17.4318C541.205 17.4318 541.523 17.5644 541.796 17.8295C542.069 18.0947 542.205 18.4129 542.205 18.7841C542.205 19.0341 542.141 19.2633 542.012 19.4716C541.887 19.6761 541.722 19.8409 541.517 19.9659C541.313 20.0871 541.088 20.1477 540.841 20.1477ZM548.103 20.2557C547.126 20.2519 546.285 20.0114 545.58 19.5341C544.88 19.0568 544.34 18.3655 543.961 17.4602C543.586 16.5549 543.401 15.4659 543.404 14.1932C543.404 12.9242 543.592 11.8428 543.967 10.9489C544.346 10.0549 544.885 9.375 545.586 8.90909C546.291 8.43939 547.13 8.20455 548.103 8.20455C549.077 8.20455 549.914 8.43939 550.615 8.90909C551.319 9.37879 551.861 10.0606 552.24 10.9545C552.618 11.8447 552.806 12.9242 552.802 14.1932C552.802 15.4697 552.613 16.5606 552.234 17.4659C551.859 18.3712 551.321 19.0625 550.62 19.5398C549.919 20.017 549.08 20.2557 548.103 20.2557ZM548.103 18.2159C548.77 18.2159 549.302 17.8807 549.7 17.2102C550.098 16.5398 550.294 15.5341 550.291 14.1932C550.291 13.3106 550.2 12.5758 550.018 11.9886C549.84 11.4015 549.586 10.9602 549.257 10.6648C548.931 10.3693 548.546 10.2216 548.103 10.2216C547.44 10.2216 546.91 10.553 546.512 11.2159C546.115 11.8788 545.914 12.8712 545.91 14.1932C545.91 15.0871 545.999 15.8333 546.177 16.4318C546.359 17.0265 546.615 17.4735 546.944 17.7727C547.274 18.0682 547.66 18.2159 548.103 18.2159ZM555.365 20.1477C554.99 20.1477 554.668 20.0152 554.399 19.75C554.134 19.4811 554.001 19.1591 554.001 18.7841C554.001 18.4129 554.134 18.0947 554.399 17.8295C554.668 17.5644 554.99 17.4318 555.365 17.4318C555.729 17.4318 556.047 17.5644 556.32 17.8295C556.592 18.0947 556.729 18.4129 556.729 18.7841C556.729 19.0341 556.664 19.2633 556.536 19.4716C556.411 19.6761 556.246 19.8409 556.041 19.9659C555.837 20.0871 555.611 20.1477 555.365 20.1477ZM562.627 20.2557C561.65 20.2519 560.809 20.0114 560.104 19.5341C559.403 19.0568 558.864 18.3655 558.485 17.4602C558.11 16.5549 557.924 15.4659 557.928 14.1932C557.928 12.9242 558.116 11.8428 558.491 10.9489C558.869 10.0549 559.409 9.375 560.11 8.90909C560.814 8.43939 561.653 8.20455 562.627 8.20455C563.6 8.20455 564.438 8.43939 565.138 8.90909C565.843 9.37879 566.385 10.0606 566.763 10.9545C567.142 11.8447 567.33 12.9242 567.326 14.1932C567.326 15.4697 567.136 16.5606 566.758 17.4659C566.383 18.3712 565.845 19.0625 565.144 19.5398C564.443 20.017 563.604 20.2557 562.627 20.2557ZM562.627 18.2159C563.294 18.2159 563.826 17.8807 564.224 17.2102C564.621 16.5398 564.818 15.5341 564.814 14.1932C564.814 13.3106 564.724 12.5758 564.542 11.9886C564.364 11.4015 564.11 10.9602 563.78 10.6648C563.455 10.3693 563.07 10.2216 562.627 10.2216C561.964 10.2216 561.434 10.553 561.036 11.2159C560.638 11.8788 560.438 12.8712 560.434 14.1932C560.434 15.0871 560.523 15.8333 560.701 16.4318C560.883 17.0265 561.138 17.4735 561.468 17.7727C561.797 18.0682 562.184 18.2159 562.627 18.2159Z" fill="#F1EFEF"/>
<path d="M582.156 8.36364V20H580.793L574.452 10.8636H574.338V20H572.929V8.36364H574.293L580.656 17.5227H580.77V8.36364H582.156ZM588.34 20.1818C587.552 20.1818 586.86 19.9943 586.266 19.6193C585.675 19.2443 585.213 18.7197 584.879 18.0455C584.55 17.3712 584.385 16.5833 584.385 15.6818C584.385 14.7727 584.55 13.9792 584.879 13.3011C585.213 12.6231 585.675 12.0966 586.266 11.7216C586.86 11.3466 587.552 11.1591 588.34 11.1591C589.127 11.1591 589.817 11.3466 590.408 11.7216C591.002 12.0966 591.465 12.6231 591.794 13.3011C592.127 13.9792 592.294 14.7727 592.294 15.6818C592.294 16.5833 592.127 17.3712 591.794 18.0455C591.465 18.7197 591.002 19.2443 590.408 19.6193C589.817 19.9943 589.127 20.1818 588.34 20.1818ZM588.34 18.9773C588.938 18.9773 589.431 18.8239 589.817 18.517C590.203 18.2102 590.489 17.8068 590.675 17.3068C590.86 16.8068 590.953 16.2652 590.953 15.6818C590.953 15.0985 590.86 14.5549 590.675 14.0511C590.489 13.5473 590.203 13.1402 589.817 12.8295C589.431 12.5189 588.938 12.3636 588.34 12.3636C587.741 12.3636 587.249 12.5189 586.862 12.8295C586.476 13.1402 586.19 13.5473 586.004 14.0511C585.819 14.5549 585.726 15.0985 585.726 15.6818C585.726 16.2652 585.819 16.8068 586.004 17.3068C586.19 17.8068 586.476 18.2102 586.862 18.517C587.249 18.8239 587.741 18.9773 588.34 18.9773ZM601.165 11.2727L597.938 20H596.574L593.347 11.2727H594.801L597.21 18.2273H597.301L599.71 11.2727H601.165ZM607.412 20V18.9773L611.253 14.7727C611.704 14.2803 612.075 13.8523 612.367 13.4886C612.658 13.1212 612.874 12.7765 613.014 12.4545C613.158 12.1288 613.23 11.7879 613.23 11.4318C613.23 11.0227 613.132 10.6686 612.935 10.3693C612.742 10.0701 612.476 9.83901 612.139 9.67614C611.802 9.51326 611.423 9.43182 611.003 9.43182C610.556 9.43182 610.166 9.52462 609.833 9.71023C609.503 9.89205 609.247 10.1477 609.065 10.4773C608.887 10.8068 608.798 11.1932 608.798 11.6364H607.458C607.458 10.9545 607.615 10.3561 607.929 9.84091C608.243 9.32576 608.672 8.92424 609.213 8.63636C609.759 8.34848 610.37 8.20455 611.048 8.20455C611.73 8.20455 612.334 8.34848 612.861 8.63636C613.387 8.92424 613.8 9.3125 614.1 9.80114C614.399 10.2898 614.548 10.8333 614.548 11.4318C614.548 11.8598 614.471 12.2784 614.315 12.6875C614.164 13.0928 613.899 13.5455 613.52 14.0455C613.145 14.5417 612.624 15.1477 611.958 15.8636L609.344 18.6591V18.75H614.753V20H607.412ZM620.895 20.1591C620.039 20.1591 619.31 19.9261 618.708 19.4602C618.105 18.9905 617.645 18.3106 617.327 17.4205C617.009 16.5265 616.85 15.447 616.85 14.1818C616.85 12.9242 617.009 11.8504 617.327 10.9602C617.649 10.0663 618.111 9.38447 618.713 8.91477C619.319 8.44129 620.047 8.20455 620.895 8.20455C621.743 8.20455 622.469 8.44129 623.071 8.91477C623.677 9.38447 624.139 10.0663 624.458 10.9602C624.779 11.8504 624.94 12.9242 624.94 14.1818C624.94 15.447 624.781 16.5265 624.463 17.4205C624.145 18.3106 623.685 18.9905 623.083 19.4602C622.48 19.9261 621.751 20.1591 620.895 20.1591ZM620.895 18.9091C621.743 18.9091 622.403 18.5 622.872 17.6818C623.342 16.8636 623.577 15.697 623.577 14.1818C623.577 13.1742 623.469 12.3163 623.253 11.608C623.041 10.8996 622.734 10.3598 622.333 9.98864C621.935 9.61742 621.456 9.43182 620.895 9.43182C620.054 9.43182 619.397 9.84659 618.923 10.6761C618.45 11.5019 618.213 12.6705 618.213 14.1818C618.213 15.1894 618.319 16.0455 618.531 16.75C618.743 17.4545 619.048 17.9905 619.446 18.358C619.848 18.7254 620.331 18.9091 620.895 18.9091ZM627.1 20V18.9773L630.94 14.7727C631.391 14.2803 631.762 13.8523 632.054 13.4886C632.346 13.1212 632.562 12.7765 632.702 12.4545C632.846 12.1288 632.918 11.7879 632.918 11.4318C632.918 11.0227 632.819 10.6686 632.622 10.3693C632.429 10.0701 632.164 9.83901 631.827 9.67614C631.49 9.51326 631.111 9.43182 630.69 9.43182C630.243 9.43182 629.853 9.52462 629.52 9.71023C629.19 9.89205 628.935 10.1477 628.753 10.4773C628.575 10.8068 628.486 11.1932 628.486 11.6364H627.145C627.145 10.9545 627.302 10.3561 627.617 9.84091C627.931 9.32576 628.359 8.92424 628.901 8.63636C629.446 8.34848 630.058 8.20455 630.736 8.20455C631.418 8.20455 632.022 8.34848 632.548 8.63636C633.075 8.92424 633.488 9.3125 633.787 9.80114C634.086 10.2898 634.236 10.8333 634.236 11.4318C634.236 11.8598 634.158 12.2784 634.003 12.6875C633.851 13.0928 633.586 13.5455 633.208 14.0455C632.833 14.5417 632.312 15.1477 631.645 15.8636L629.031 18.6591V18.75H634.44V20H627.1ZM636.264 17.6136V16.4545L641.378 8.36364H642.219V10.1591H641.651L637.787 16.2727V16.3636H644.673V17.6136H636.264ZM641.742 20V17.2614V16.7216V8.36364H643.083V20H641.742Z" fill="#C6C6C8"/>
</svg>
