<svg width="840" height="28" viewBox="0 0 840 28" fill="none" xmlns="http://www.w3.org/2000/svg">
<rect width="78" height="28" rx="6" fill="#6A45B5"/>
<rect x="4" y="5" width="18" height="18" rx="3.5" fill="#F1EFEF"/>
<path opacity="0.4" d="M7.0625 14C7.0625 11.201 7.0625 9.80156 7.93202 8.93202C8.80156 8.0625 10.201 8.0625 13 8.0625C15.7989 8.0625 17.1984 8.0625 18.068 8.93202C18.9375 9.80156 18.9375 11.201 18.9375 14C18.9375 16.7989 18.9375 18.1984 18.068 19.068C17.1984 19.9375 15.7989 19.9375 13 19.9375C10.201 19.9375 8.80156 19.9375 7.93202 19.068C7.0625 18.1984 7.0625 16.7989 7.0625 14Z" fill="#6A45B5"/>
<path d="M15.5 12.75L16.2666 13.4108C16.5889 13.6885 16.75 13.8274 16.75 14C16.75 14.1726 16.5889 14.3115 16.2666 14.5892L15.5 15.25" stroke="#6A45B5" stroke-width="1.25" stroke-linecap="round" stroke-linejoin="round"/>
<path d="M10.5 12.75L9.73341 13.4108C9.41114 13.6885 9.25 13.8274 9.25 14C9.25 14.1726 9.41114 14.3115 9.73341 14.5892L10.5 15.25" stroke="#6A45B5" stroke-width="1.25" stroke-linecap="round" stroke-linejoin="round"/>
<path d="M13.625 12.125L12.375 15.875" stroke="#6A45B5" stroke-width="1.25" stroke-linecap="round" stroke-linejoin="round"/>
<path d="M7.0625 14C7.0625 11.201 7.0625 9.80156 7.93202 8.93202C8.80156 8.0625 10.201 8.0625 13 8.0625C15.7989 8.0625 17.1984 8.0625 18.068 8.93202C18.9375 9.80156 18.9375 11.201 18.9375 14C18.9375 16.7989 18.9375 18.1984 18.068 19.068C17.1984 19.9375 15.7989 19.9375 13 19.9375C10.201 19.9375 8.80156 19.9375 7.93202 19.068C7.0625 18.1984 7.0625 16.7989 7.0625 14Z" stroke="#6A45B5" stroke-width="1.25"/>
<path d="M32.5856 12.1172C32.5392 11.683 32.3437 11.3449 31.999 11.103C31.6576 10.861 31.2135 10.7401 30.6666 10.7401C30.2821 10.7401 29.9523 10.7981 29.6772 10.9141C29.4021 11.0301 29.1917 11.1875 29.0458 11.3864C28.9 11.5852 28.8254 11.8123 28.8221 12.0675C28.8221 12.2796 28.8702 12.4635 28.9663 12.6193C29.0657 12.7751 29.2 12.9077 29.369 13.017C29.538 13.1231 29.7253 13.2126 29.9308 13.2855C30.1363 13.3584 30.3434 13.4197 30.5522 13.4695L31.5068 13.7081C31.8912 13.7976 32.2608 13.9186 32.6154 14.071C32.9734 14.2235 33.2932 14.4157 33.575 14.6477C33.86 14.8797 34.0854 15.1598 34.2511 15.4879C34.4168 15.8161 34.4997 16.2005 34.4997 16.6413C34.4997 17.2379 34.3472 17.7633 34.0423 18.2173C33.7374 18.6681 33.2965 19.0211 32.7198 19.2763C32.1465 19.5282 31.4521 19.6541 30.6367 19.6541C29.8446 19.6541 29.1569 19.5315 28.5735 19.2862C27.9935 19.041 27.5394 18.683 27.2113 18.2124C26.8865 17.7417 26.7108 17.1683 26.6843 16.4922H28.499C28.5255 16.8468 28.6349 17.1418 28.8271 17.3771C29.0193 17.6125 29.2696 17.7881 29.5778 17.9041C29.8894 18.0201 30.2374 18.0781 30.6218 18.0781C31.0229 18.0781 31.3742 18.0185 31.6758 17.8991C31.9807 17.7765 32.2194 17.6075 32.3917 17.392C32.5641 17.1733 32.6519 16.9181 32.6552 16.6264C32.6519 16.3613 32.574 16.1425 32.4215 15.9702C32.2691 15.7945 32.0553 15.6487 31.7802 15.5327C31.5084 15.4134 31.1903 15.3073 30.8257 15.2145L29.6673 14.9162C28.8287 14.7008 28.1659 14.3743 27.6786 13.9368C27.1947 13.496 26.9528 12.911 26.9528 12.1818C26.9528 11.5819 27.1152 11.0566 27.44 10.6058C27.7681 10.1551 28.2139 9.8054 28.7774 9.55682C29.3408 9.30492 29.9788 9.17898 30.6914 9.17898C31.414 9.17898 32.047 9.30492 32.5906 9.55682C33.1375 9.8054 33.5667 10.1518 33.8782 10.5959C34.1898 11.0367 34.3505 11.5438 34.3605 12.1172H32.5856ZM37.4305 19.5L35.2728 11.8636H37.1073L38.4497 17.233H38.5193L39.8914 11.8636H41.706L43.0782 17.2031H43.1528L44.4752 11.8636H46.3147L44.1521 19.5H42.2778L40.846 14.3395H40.7416L39.3097 19.5H37.4305ZM47.3613 19.5V11.8636H49.161V19.5H47.3613ZM48.2661 10.7798C47.9811 10.7798 47.7358 10.6854 47.5303 10.4964C47.3248 10.3042 47.2221 10.0739 47.2221 9.8054C47.2221 9.53362 47.3248 9.30327 47.5303 9.11435C47.7358 8.92211 47.9811 8.82599 48.2661 8.82599C48.5545 8.82599 48.7997 8.92211 49.0019 9.11435C49.2074 9.30327 49.3101 9.53362 49.3101 9.8054C49.3101 10.0739 49.2074 10.3042 49.0019 10.4964C48.7997 10.6854 48.5545 10.7798 48.2661 10.7798ZM54.6696 11.8636V13.2557H50.1554V11.8636H54.6696ZM51.2839 19.5V11.1428C51.2839 10.629 51.39 10.2015 51.6021 9.86008C51.8175 9.5187 52.1059 9.26349 52.4672 9.09446C52.8284 8.92543 53.2295 8.84091 53.6703 8.84091C53.9818 8.84091 54.2586 8.86577 54.5005 8.91548C54.7425 8.9652 54.9215 9.00994 55.0375 9.04972L54.6795 10.4418C54.6033 10.4186 54.5072 10.3954 54.3912 10.3722C54.2752 10.3456 54.1459 10.3324 54.0034 10.3324C53.6686 10.3324 53.4316 10.4136 53.2924 10.576C53.1565 10.7351 53.0886 10.9638 53.0886 11.2621V19.5H51.2839ZM59.6822 11.8636V13.2557H55.2923V11.8636H59.6822ZM56.3761 10.0341H58.1758V17.2031C58.1758 17.4451 58.2123 17.6307 58.2852 17.7599C58.3614 17.8859 58.4609 17.9721 58.5835 18.0185C58.7061 18.0649 58.842 18.0881 58.9912 18.0881C59.1039 18.0881 59.2066 18.0798 59.2994 18.0632C59.3955 18.0466 59.4684 18.0317 59.5182 18.0185L59.8214 19.4254C59.7253 19.4586 59.5878 19.495 59.4088 19.5348C59.2331 19.5746 59.0177 19.5978 58.7625 19.6044C58.3117 19.6177 57.9057 19.5497 57.5444 19.4006C57.1832 19.2481 56.8965 19.0128 56.6844 18.6946C56.4755 18.3764 56.3728 17.9787 56.3761 17.5014V10.0341ZM67.4752 9.31818H69.3197V15.9702C69.3197 16.6993 69.1474 17.3407 68.8027 17.8942C68.4613 18.4477 67.9807 18.8802 67.3609 19.1918C66.7411 19.5 66.0169 19.6541 65.1883 19.6541C64.3564 19.6541 63.6305 19.5 63.0108 19.1918C62.391 18.8802 61.9104 18.4477 61.569 17.8942C61.2276 17.3407 61.0569 16.6993 61.0569 15.9702V9.31818H62.9014V15.8161C62.9014 16.2403 62.9942 16.6181 63.1798 16.9496C63.3687 17.281 63.6339 17.5412 63.9752 17.7301C64.3166 17.9157 64.721 18.0085 65.1883 18.0085C65.6556 18.0085 66.06 17.9157 66.4014 17.7301C66.7461 17.5412 67.0112 17.281 67.1968 16.9496C67.3824 16.6181 67.4752 16.2403 67.4752 15.8161V9.31818ZM72.959 9.31818V19.5H71.1145V9.31818H72.959Z" fill="#F1EFEF"/>
<rect x="82" width="54" height="28" rx="6" fill="#3C46C9"/>
<rect x="86" y="5" width="18" height="18" rx="3.5" fill="#F1EFEF"/>
<path opacity="0.4" d="M91.2657 8.39076C90.625 9.03147 90.625 10.0627 90.625 12.1251V15.875C90.625 17.9375 90.625 18.9687 91.2657 19.6093C91.9064 20.25 92.9376 20.25 95 20.25C97.0624 20.25 98.0936 20.25 98.7343 19.6093C99.375 18.9687 99.375 17.9375 99.375 15.875V12.1251C99.375 10.0627 99.375 9.03147 98.7343 8.39076C98.3263 7.98278 97.76 7.83459 96.8699 7.78076L96.8194 8.08382C96.6988 8.80712 96.6386 9.16877 96.3905 9.38884C96.1318 9.6184 95.7649 9.62506 95 9.62506C94.2351 9.62506 93.8683 9.6184 93.6095 9.38884C93.3615 9.16877 93.3012 8.80712 93.1806 8.08382L93.1301 7.78076C92.24 7.83459 91.6737 7.98278 91.2657 8.39076Z" fill="#3C46C9"/>
<path d="M90.625 12.125C90.625 10.0626 90.625 9.03141 91.2657 8.39071C91.9064 7.75 92.9376 7.75 95 7.75C97.0624 7.75 98.0936 7.75 98.7343 8.39071C99.375 9.03141 99.375 10.0626 99.375 12.125V15.875C99.375 17.9374 99.375 18.9686 98.7343 19.6093C98.0936 20.25 97.0624 20.25 95 20.25C92.9376 20.25 91.9064 20.25 91.2657 19.6093C90.625 18.9686 90.625 17.9374 90.625 15.875V12.125Z" stroke="#3C46C9" stroke-width="1.25" stroke-linecap="round"/>
<path d="M94.375 18.375H95.625" stroke="#3C46C9" stroke-width="1.25" stroke-linecap="round" stroke-linejoin="round"/>
<path d="M93.125 7.75L93.1806 8.08376C93.3012 8.80706 93.3615 9.16871 93.6095 9.38877C93.8683 9.61834 94.2351 9.625 95 9.625C95.7649 9.625 96.1318 9.61834 96.3905 9.38877C96.6386 9.16871 96.6988 8.80706 96.8194 8.08376L96.875 7.75" stroke="#3C46C9" stroke-width="1.25" stroke-linejoin="round"/>
<path d="M109.343 19.5V11.8636H111.142V19.5H109.343ZM110.248 10.7798C109.963 10.7798 109.717 10.6854 109.512 10.4964C109.306 10.3042 109.204 10.0739 109.204 9.8054C109.204 9.53362 109.306 9.30327 109.512 9.11435C109.717 8.92211 109.963 8.82599 110.248 8.82599C110.536 8.82599 110.781 8.92211 110.983 9.11435C111.189 9.30327 111.292 9.53362 111.292 9.8054C111.292 10.0739 111.189 10.3042 110.983 10.4964C110.781 10.6854 110.536 10.7798 110.248 10.7798ZM121.961 14.4091C121.961 15.5062 121.755 16.4458 121.344 17.228C120.937 18.0069 120.38 18.6035 119.674 19.0178C118.971 19.4321 118.174 19.6392 117.282 19.6392C116.391 19.6392 115.592 19.4321 114.886 19.0178C114.183 18.6001 113.627 18.0019 113.216 17.223C112.808 16.4408 112.604 15.5028 112.604 14.4091C112.604 13.312 112.808 12.3741 113.216 11.5952C113.627 10.813 114.183 10.2147 114.886 9.80043C115.592 9.38613 116.391 9.17898 117.282 9.17898C118.174 9.17898 118.971 9.38613 119.674 9.80043C120.38 10.2147 120.937 10.813 121.344 11.5952C121.755 12.3741 121.961 13.312 121.961 14.4091ZM120.106 14.4091C120.106 13.6368 119.985 12.9856 119.743 12.4553C119.505 11.9216 119.173 11.5189 118.749 11.2472C118.325 10.9721 117.836 10.8345 117.282 10.8345C116.729 10.8345 116.24 10.9721 115.816 11.2472C115.392 11.5189 115.058 11.9216 114.816 12.4553C114.578 12.9856 114.459 13.6368 114.459 14.4091C114.459 15.1813 114.578 15.8343 114.816 16.3679C115.058 16.8982 115.392 17.3009 115.816 17.576C116.24 17.8478 116.729 17.9837 117.282 17.9837C117.836 17.9837 118.325 17.8478 118.749 17.576C119.173 17.3009 119.505 16.8982 119.743 16.3679C119.985 15.8343 120.106 15.1813 120.106 14.4091ZM129.028 12.1172C128.981 11.683 128.786 11.3449 128.441 11.103C128.1 10.861 127.656 10.7401 127.109 10.7401C126.724 10.7401 126.395 10.7981 126.119 10.9141C125.844 11.0301 125.634 11.1875 125.488 11.3864C125.342 11.5852 125.268 11.8123 125.264 12.0675C125.264 12.2796 125.312 12.4635 125.409 12.6193C125.508 12.7751 125.642 12.9077 125.811 13.017C125.98 13.1231 126.168 13.2126 126.373 13.2855C126.579 13.3584 126.786 13.4197 126.994 13.4695L127.949 13.7081C128.333 13.7976 128.703 13.9186 129.058 14.071C129.416 14.2235 129.735 14.4157 130.017 14.6477C130.302 14.8797 130.528 15.1598 130.693 15.4879C130.859 15.8161 130.942 16.2005 130.942 16.6413C130.942 17.2379 130.789 17.7633 130.485 18.2173C130.18 18.6681 129.739 19.0211 129.162 19.2763C128.589 19.5282 127.894 19.6541 127.079 19.6541C126.287 19.6541 125.599 19.5315 125.016 19.2862C124.436 19.041 123.982 18.683 123.654 18.2124C123.329 17.7417 123.153 17.1683 123.127 16.4922H124.941C124.968 16.8468 125.077 17.1418 125.269 17.3771C125.462 17.6125 125.712 17.7881 126.02 17.9041C126.332 18.0201 126.68 18.0781 127.064 18.0781C127.465 18.0781 127.816 18.0185 128.118 17.8991C128.423 17.7765 128.662 17.6075 128.834 17.392C129.006 17.1733 129.094 16.9181 129.097 16.6264C129.094 16.3613 129.016 16.1425 128.864 15.9702C128.711 15.7945 128.498 15.6487 128.222 15.5327C127.951 15.4134 127.632 15.3073 127.268 15.2145L126.11 14.9162C125.271 14.7008 124.608 14.3743 124.121 13.9368C123.637 13.496 123.395 12.911 123.395 12.1818C123.395 11.5819 123.557 11.0566 123.882 10.6058C124.21 10.1551 124.656 9.8054 125.22 9.55682C125.783 9.30492 126.421 9.17898 127.134 9.17898C127.856 9.17898 128.489 9.30492 129.033 9.55682C129.58 9.8054 130.009 10.1518 130.32 10.5959C130.632 11.0367 130.793 11.5438 130.803 12.1172H129.028Z" fill="#F1EFEF"/>
<rect x="140" width="54" height="28" rx="6" fill="#3C46C9"/>
<rect x="144" y="5" width="18" height="18" rx="3.5" fill="#F1EFEF"/>
<path opacity="0.4" d="M154.562 7.75H151.438C149.67 7.75 148.786 7.75 148.237 8.29917C147.688 8.84835 147.688 9.73223 147.688 11.5V16.5C147.688 18.2677 147.688 19.1516 148.237 19.7008C148.786 20.25 149.67 20.25 151.438 20.25H154.562C156.33 20.25 157.214 20.25 157.763 19.7008C158.312 19.1516 158.312 18.2677 158.312 16.5V11.5C158.312 9.73223 158.312 8.84835 157.763 8.29917C157.214 7.75 156.33 7.75 154.562 7.75Z" fill="#3C46C9"/>
<path d="M154.562 7.75H151.438C149.67 7.75 148.786 7.75 148.237 8.29917C147.688 8.84835 147.688 9.73223 147.688 11.5V16.5C147.688 18.2677 147.688 19.1516 148.237 19.7008C148.786 20.25 149.67 20.25 151.438 20.25H154.562C156.33 20.25 157.214 20.25 157.763 19.7008C158.312 19.1516 158.312 18.2677 158.312 16.5V11.5C158.312 9.73223 158.312 8.84835 157.763 8.29917C157.214 7.75 156.33 7.75 154.562 7.75Z" stroke="#3C46C9" stroke-width="1.25" stroke-linecap="round"/>
<path d="M153 18.375H153.006" stroke="#3C46C9" stroke-width="1.25" stroke-linecap="round"/>
<path d="M167.343 19.5V11.8636H169.142V19.5H167.343ZM168.248 10.7798C167.963 10.7798 167.717 10.6854 167.512 10.4964C167.306 10.3042 167.204 10.0739 167.204 9.8054C167.204 9.53362 167.306 9.30327 167.512 9.11435C167.717 8.92211 167.963 8.82599 168.248 8.82599C168.536 8.82599 168.781 8.92211 168.983 9.11435C169.189 9.30327 169.292 9.53362 169.292 9.8054C169.292 10.0739 169.189 10.3042 168.983 10.4964C168.781 10.6854 168.536 10.7798 168.248 10.7798ZM179.961 14.4091C179.961 15.5062 179.755 16.4458 179.344 17.228C178.937 18.0069 178.38 18.6035 177.674 19.0178C176.971 19.4321 176.174 19.6392 175.282 19.6392C174.391 19.6392 173.592 19.4321 172.886 19.0178C172.183 18.6001 171.627 18.0019 171.216 17.223C170.808 16.4408 170.604 15.5028 170.604 14.4091C170.604 13.312 170.808 12.3741 171.216 11.5952C171.627 10.813 172.183 10.2147 172.886 9.80043C173.592 9.38613 174.391 9.17898 175.282 9.17898C176.174 9.17898 176.971 9.38613 177.674 9.80043C178.38 10.2147 178.937 10.813 179.344 11.5952C179.755 12.3741 179.961 13.312 179.961 14.4091ZM178.106 14.4091C178.106 13.6368 177.985 12.9856 177.743 12.4553C177.505 11.9216 177.173 11.5189 176.749 11.2472C176.325 10.9721 175.836 10.8345 175.282 10.8345C174.729 10.8345 174.24 10.9721 173.816 11.2472C173.392 11.5189 173.058 11.9216 172.816 12.4553C172.578 12.9856 172.459 13.6368 172.459 14.4091C172.459 15.1813 172.578 15.8343 172.816 16.3679C173.058 16.8982 173.392 17.3009 173.816 17.576C174.24 17.8478 174.729 17.9837 175.282 17.9837C175.836 17.9837 176.325 17.8478 176.749 17.576C177.173 17.3009 177.505 16.8982 177.743 16.3679C177.985 15.8343 178.106 15.1813 178.106 14.4091ZM187.028 12.1172C186.981 11.683 186.786 11.3449 186.441 11.103C186.1 10.861 185.656 10.7401 185.109 10.7401C184.724 10.7401 184.395 10.7981 184.119 10.9141C183.844 11.0301 183.634 11.1875 183.488 11.3864C183.342 11.5852 183.268 11.8123 183.264 12.0675C183.264 12.2796 183.312 12.4635 183.409 12.6193C183.508 12.7751 183.642 12.9077 183.811 13.017C183.98 13.1231 184.168 13.2126 184.373 13.2855C184.579 13.3584 184.786 13.4197 184.994 13.4695L185.949 13.7081C186.333 13.7976 186.703 13.9186 187.058 14.071C187.416 14.2235 187.735 14.4157 188.017 14.6477C188.302 14.8797 188.528 15.1598 188.693 15.4879C188.859 15.8161 188.942 16.2005 188.942 16.6413C188.942 17.2379 188.789 17.7633 188.485 18.2173C188.18 18.6681 187.739 19.0211 187.162 19.2763C186.589 19.5282 185.894 19.6541 185.079 19.6541C184.287 19.6541 183.599 19.5315 183.016 19.2862C182.436 19.041 181.982 18.683 181.654 18.2124C181.329 17.7417 181.153 17.1683 181.127 16.4922H182.941C182.968 16.8468 183.077 17.1418 183.269 17.3771C183.462 17.6125 183.712 17.7881 184.02 17.9041C184.332 18.0201 184.68 18.0781 185.064 18.0781C185.465 18.0781 185.816 18.0185 186.118 17.8991C186.423 17.7765 186.662 17.6075 186.834 17.392C187.006 17.1733 187.094 16.9181 187.097 16.6264C187.094 16.3613 187.016 16.1425 186.864 15.9702C186.711 15.7945 186.498 15.6487 186.222 15.5327C185.951 15.4134 185.632 15.3073 185.268 15.2145L184.11 14.9162C183.271 14.7008 182.608 14.3743 182.121 13.9368C181.637 13.496 181.395 12.911 181.395 12.1818C181.395 11.5819 181.557 11.0566 181.882 10.6058C182.21 10.1551 182.656 9.8054 183.22 9.55682C183.783 9.30492 184.421 9.17898 185.134 9.17898C185.856 9.17898 186.489 9.30492 187.033 9.55682C187.58 9.8054 188.009 10.1518 188.32 10.5959C188.632 11.0367 188.793 11.5438 188.803 12.1172H187.028Z" fill="#F1EFEF"/>
<rect x="198" width="78" height="28" rx="6" fill="#3C46C9"/>
<rect x="202" y="5" width="18" height="18" rx="3.5" fill="#F1EFEF"/>
<path opacity="0.4" d="M212.25 7.75H209.75C207.7 7.75 206.676 7.75 205.949 8.25864C205.681 8.44681 205.447 8.68057 205.259 8.94932C204.75 9.67572 204.75 10.7005 204.75 12.75C204.75 14.7995 204.75 15.8242 205.259 16.5507C205.447 16.8194 205.681 17.0532 205.949 17.2414C206.676 17.75 207.7 17.75 209.75 17.75H212.25C214.3 17.75 215.324 17.75 216.051 17.2414C216.319 17.0532 216.553 16.8194 216.741 16.5507C217.25 15.8242 217.25 14.7995 217.25 12.75C217.25 10.7005 217.25 9.67572 216.741 8.94932C216.553 8.68057 216.319 8.44681 216.051 8.25864C215.324 7.75 214.3 7.75 212.25 7.75Z" fill="#3C46C9"/>
<path d="M212.25 7.75H209.75C207.7 7.75 206.676 7.75 205.949 8.25864C205.681 8.44681 205.447 8.68057 205.259 8.94932C204.75 9.67572 204.75 10.7005 204.75 12.75C204.75 14.7995 204.75 15.8242 205.259 16.5507C205.447 16.8194 205.681 17.0532 205.949 17.2414C206.676 17.75 207.7 17.75 209.75 17.75H212.25C214.3 17.75 215.324 17.75 216.051 17.2414C216.319 17.0532 216.553 16.8194 216.741 16.5507C217.25 15.8242 217.25 14.7995 217.25 12.75C217.25 10.7005 217.25 9.67572 216.741 8.94932C216.553 8.68057 216.319 8.44681 216.051 8.25864C215.324 7.75 214.3 7.75 212.25 7.75Z" stroke="#3C46C9" stroke-width="1.25" stroke-linecap="round"/>
<path d="M210.375 15.875H211.625" stroke="#3C46C9" stroke-width="1.25" stroke-linecap="round" stroke-linejoin="round"/>
<path d="M212.562 20.25L212.365 19.9882C211.921 19.3981 211.811 18.4965 212.092 17.75M209.438 20.25L209.635 19.9882C210.079 19.3981 210.189 18.4965 209.908 17.75" stroke="#3C46C9" stroke-width="1.25" stroke-linecap="round"/>
<path d="M207.875 20.25H214.125" stroke="#3C46C9" stroke-width="1.25" stroke-linecap="round"/>
<path d="M225.036 19.5V11.8636H226.756V13.1612H226.846C227.005 12.7237 227.268 12.3823 227.636 12.1371C228.004 11.8885 228.443 11.7642 228.954 11.7642C229.471 11.7642 229.907 11.8902 230.261 12.142C230.619 12.3906 230.871 12.7304 231.017 13.1612H231.096C231.266 12.737 231.551 12.3989 231.952 12.147C232.356 11.8918 232.835 11.7642 233.388 11.7642C234.091 11.7642 234.664 11.9863 235.109 12.4304C235.553 12.8745 235.775 13.5225 235.775 14.3743V19.5H233.97V14.6527C233.97 14.1787 233.844 13.8324 233.592 13.6136C233.34 13.3916 233.032 13.2805 232.668 13.2805C232.233 13.2805 231.894 13.4164 231.648 13.6882C231.406 13.9567 231.285 14.3063 231.285 14.7372V19.5H229.52V14.5781C229.52 14.1837 229.401 13.8688 229.163 13.6335C228.927 13.3982 228.619 13.2805 228.238 13.2805C227.979 13.2805 227.744 13.3468 227.532 13.4794C227.32 13.6087 227.151 13.7926 227.025 14.0312C226.899 14.2666 226.836 14.5417 226.836 14.8565V19.5H225.036ZM239.588 19.6541C239.104 19.6541 238.668 19.5679 238.28 19.3956C237.896 19.2199 237.591 18.9614 237.366 18.62C237.144 18.2786 237.033 17.8577 237.033 17.3572C237.033 16.9264 237.112 16.5701 237.271 16.2884C237.43 16.0066 237.647 15.7812 237.923 15.6122C238.198 15.4432 238.508 15.3156 238.852 15.2294C239.2 15.1399 239.56 15.0753 239.931 15.0355C240.379 14.9891 240.741 14.9477 241.02 14.9112C241.298 14.8714 241.5 14.8118 241.626 14.7322C241.756 14.6494 241.82 14.5218 241.82 14.3494V14.3196C241.82 13.9451 241.709 13.6551 241.487 13.4496C241.265 13.2441 240.945 13.1413 240.528 13.1413C240.087 13.1413 239.737 13.2375 239.479 13.4297C239.223 13.6219 239.051 13.849 238.962 14.1108L237.281 13.8722C237.414 13.4081 237.633 13.0204 237.937 12.7088C238.242 12.3939 238.615 12.1586 239.056 12.0028C239.497 11.8438 239.984 11.7642 240.518 11.7642C240.886 11.7642 241.252 11.8073 241.616 11.8935C241.981 11.9796 242.314 12.1222 242.616 12.321C242.917 12.5166 243.159 12.7834 243.342 13.1214C243.527 13.4595 243.62 13.8821 243.62 14.3892V19.5H241.89V18.451H241.83C241.721 18.6631 241.567 18.862 241.368 19.0476C241.172 19.2299 240.925 19.3774 240.627 19.4901C240.332 19.5994 239.986 19.6541 239.588 19.6541ZM240.055 18.3317C240.417 18.3317 240.73 18.2604 240.995 18.1179C241.26 17.9721 241.464 17.7798 241.606 17.5412C241.752 17.3026 241.825 17.0424 241.825 16.7607V15.8608C241.769 15.9072 241.673 15.9503 241.537 15.9901C241.404 16.0298 241.255 16.0646 241.089 16.0945C240.924 16.1243 240.76 16.1508 240.597 16.174C240.435 16.1972 240.294 16.2171 240.175 16.2337C239.906 16.2701 239.666 16.3298 239.454 16.4126C239.242 16.4955 239.074 16.6115 238.952 16.7607C238.829 16.9065 238.768 17.0954 238.768 17.3274C238.768 17.6589 238.889 17.9091 239.131 18.0781C239.373 18.2472 239.681 18.3317 240.055 18.3317ZM248.551 19.6491C247.788 19.6491 247.134 19.4818 246.587 19.147C246.043 18.8123 245.624 18.3499 245.329 17.7599C245.037 17.1667 244.892 16.4839 244.892 15.7116C244.892 14.9361 245.041 14.2517 245.339 13.6584C245.637 13.0618 246.058 12.5978 246.602 12.2663C247.149 11.9316 247.795 11.7642 248.541 11.7642C249.16 11.7642 249.709 11.8786 250.186 12.1072C250.667 12.3326 251.05 12.6525 251.335 13.0668C251.62 13.4777 251.782 13.9583 251.822 14.5085H250.102C250.032 14.1406 249.866 13.834 249.605 13.5888C249.346 13.3402 249 13.2159 248.566 13.2159C248.198 13.2159 247.874 13.3153 247.596 13.5142C247.318 13.7098 247.101 13.9915 246.945 14.3594C246.792 14.7273 246.716 15.1681 246.716 15.6818C246.716 16.2022 246.792 16.6496 246.945 17.0241C247.097 17.3954 247.311 17.6821 247.586 17.8842C247.865 18.0831 248.191 18.1825 248.566 18.1825C248.831 18.1825 249.068 18.1328 249.276 18.0334C249.489 17.9306 249.666 17.7831 249.808 17.5909C249.951 17.3987 250.049 17.165 250.102 16.8899H251.822C251.779 17.4302 251.62 17.9091 251.345 18.3267C251.07 18.741 250.695 19.0658 250.221 19.3011C249.747 19.5331 249.19 19.6491 248.551 19.6491ZM262.267 14.4091C262.267 15.5062 262.062 16.4458 261.651 17.228C261.243 18.0069 260.686 18.6035 259.98 19.0178C259.278 19.4321 258.481 19.6392 257.589 19.6392C256.697 19.6392 255.899 19.4321 255.193 19.0178C254.49 18.6001 253.933 18.0019 253.522 17.223C253.115 16.4408 252.911 15.5028 252.911 14.4091C252.911 13.312 253.115 12.3741 253.522 11.5952C253.933 10.813 254.49 10.2147 255.193 9.80043C255.899 9.38613 256.697 9.17898 257.589 9.17898C258.481 9.17898 259.278 9.38613 259.98 9.80043C260.686 10.2147 261.243 10.813 261.651 11.5952C262.062 12.3741 262.267 13.312 262.267 14.4091ZM260.413 14.4091C260.413 13.6368 260.292 12.9856 260.05 12.4553C259.811 11.9216 259.48 11.5189 259.056 11.2472C258.631 10.9721 258.143 10.8345 257.589 10.8345C257.036 10.8345 256.547 10.9721 256.122 11.2472C255.698 11.5189 255.365 11.9216 255.123 12.4553C254.884 12.9856 254.765 13.6368 254.765 14.4091C254.765 15.1813 254.884 15.8343 255.123 16.3679C255.365 16.8982 255.698 17.3009 256.122 17.576C256.547 17.8478 257.036 17.9837 257.589 17.9837C258.143 17.9837 258.631 17.8478 259.056 17.576C259.48 17.3009 259.811 16.8982 260.05 16.3679C260.292 15.8343 260.413 15.1813 260.413 14.4091ZM269.334 12.1172C269.288 11.683 269.092 11.3449 268.748 11.103C268.406 10.861 267.962 10.7401 267.415 10.7401C267.031 10.7401 266.701 10.7981 266.426 10.9141C266.151 11.0301 265.941 11.1875 265.795 11.3864C265.649 11.5852 265.574 11.8123 265.571 12.0675C265.571 12.2796 265.619 12.4635 265.715 12.6193C265.815 12.7751 265.949 12.9077 266.118 13.017C266.287 13.1231 266.474 13.2126 266.68 13.2855C266.885 13.3584 267.092 13.4197 267.301 13.4695L268.256 13.7081C268.64 13.7976 269.01 13.9186 269.364 14.071C269.722 14.2235 270.042 14.4157 270.324 14.6477C270.609 14.8797 270.834 15.1598 271 15.4879C271.166 15.8161 271.249 16.2005 271.249 16.6413C271.249 17.2379 271.096 17.7633 270.791 18.2173C270.486 18.6681 270.045 19.0211 269.469 19.2763C268.895 19.5282 268.201 19.6541 267.386 19.6541C266.593 19.6541 265.906 19.5315 265.322 19.2862C264.742 19.041 264.288 18.683 263.96 18.2124C263.635 17.7417 263.46 17.1683 263.433 16.4922H265.248C265.274 16.8468 265.384 17.1418 265.576 17.3771C265.768 17.6125 266.018 17.7881 266.327 17.9041C266.638 18.0201 266.986 18.0781 267.371 18.0781C267.772 18.0781 268.123 18.0185 268.425 17.8991C268.73 17.7765 268.968 17.6075 269.141 17.392C269.313 17.1733 269.401 16.9181 269.404 16.6264C269.401 16.3613 269.323 16.1425 269.17 15.9702C269.018 15.7945 268.804 15.6487 268.529 15.5327C268.257 15.4134 267.939 15.3073 267.574 15.2145L266.416 14.9162C265.578 14.7008 264.915 14.3743 264.427 13.9368C263.944 13.496 263.702 12.911 263.702 12.1818C263.702 11.5819 263.864 11.0566 264.189 10.6058C264.517 10.1551 264.963 9.8054 265.526 9.55682C266.09 9.30492 266.728 9.17898 267.44 9.17898C268.163 9.17898 268.796 9.30492 269.339 9.55682C269.886 9.8054 270.316 10.1518 270.627 10.5959C270.939 11.0367 271.099 11.5438 271.109 12.1172H269.334Z" fill="#F1EFEF"/>
<rect x="280" width="63" height="28" rx="6" fill="#3C46C9"/>
<rect x="284" y="5" width="18" height="18" rx="3.5" fill="#F1EFEF"/>
<path opacity="0.4" d="M294.25 8.375H291.75C289.393 8.375 288.214 8.375 287.482 9.10723C286.75 9.83947 286.75 11.018 286.75 13.375C286.75 15.732 286.75 16.9106 287.482 17.6427C288.214 18.375 289.393 18.375 291.75 18.375H294.25C296.607 18.375 297.786 18.375 298.518 17.6427C299.25 16.9106 299.25 15.732 299.25 13.375C299.25 11.018 299.25 9.83947 298.518 9.10723C297.786 8.375 296.607 8.375 294.25 8.375Z" fill="#3C46C9"/>
<path d="M294.25 8.375H291.75C289.393 8.375 288.214 8.375 287.482 9.10723C286.75 9.83947 286.75 11.018 286.75 13.375C286.75 15.732 286.75 16.9106 287.482 17.6427C288.214 18.375 289.393 18.375 291.75 18.375H294.25C296.607 18.375 297.786 18.375 298.518 17.6427C299.25 16.9106 299.25 15.732 299.25 13.375C299.25 11.018 299.25 9.83947 298.518 9.10723C297.786 8.375 296.607 8.375 294.25 8.375Z" stroke="#3C46C9" stroke-width="1.25" stroke-linecap="round"/>
<path d="M296.75 18.375L297.375 19.625" stroke="#3C46C9" stroke-width="1.25" stroke-linecap="round" stroke-linejoin="round"/>
<path d="M289.25 18.375L288.625 19.625" stroke="#3C46C9" stroke-width="1.25" stroke-linecap="round" stroke-linejoin="round"/>
<path d="M310.894 11.8636V13.2557H306.504V11.8636H310.894ZM307.588 10.0341H309.387V17.2031C309.387 17.4451 309.424 17.6307 309.497 17.7599C309.573 17.8859 309.672 17.9721 309.795 18.0185C309.918 18.0649 310.054 18.0881 310.203 18.0881C310.315 18.0881 310.418 18.0798 310.511 18.0632C310.607 18.0466 310.68 18.0317 310.73 18.0185L311.033 19.4254C310.937 19.4586 310.799 19.495 310.62 19.5348C310.445 19.5746 310.229 19.5978 309.974 19.6044C309.523 19.6177 309.117 19.5497 308.756 19.4006C308.395 19.2481 308.108 19.0128 307.896 18.6946C307.687 18.3764 307.584 17.9787 307.588 17.5014V10.0341ZM319.01 11.8636L316.29 19.5H314.302L311.582 11.8636H313.501L315.256 17.5362H315.336L317.096 11.8636H319.01ZM329.223 14.4091C329.223 15.5062 329.017 16.4458 328.606 17.228C328.199 18.0069 327.642 18.6035 326.936 19.0178C326.233 19.4321 325.436 19.6392 324.545 19.6392C323.653 19.6392 322.854 19.4321 322.148 19.0178C321.446 18.6001 320.889 18.0019 320.478 17.223C320.07 16.4408 319.866 15.5028 319.866 14.4091C319.866 13.312 320.07 12.3741 320.478 11.5952C320.889 10.813 321.446 10.2147 322.148 9.80043C322.854 9.38613 323.653 9.17898 324.545 9.17898C325.436 9.17898 326.233 9.38613 326.936 9.80043C327.642 10.2147 328.199 10.813 328.606 11.5952C329.017 12.3741 329.223 13.312 329.223 14.4091ZM327.368 14.4091C327.368 13.6368 327.247 12.9856 327.006 12.4553C326.767 11.9216 326.435 11.5189 326.011 11.2472C325.587 10.9721 325.098 10.8345 324.545 10.8345C323.991 10.8345 323.502 10.9721 323.078 11.2472C322.654 11.5189 322.321 11.9216 322.079 12.4553C321.84 12.9856 321.721 13.6368 321.721 14.4091C321.721 15.1813 321.84 15.8343 322.079 16.3679C322.321 16.8982 322.654 17.3009 323.078 17.576C323.502 17.8478 323.991 17.9837 324.545 17.9837C325.098 17.9837 325.587 17.8478 326.011 17.576C326.435 17.3009 326.767 16.8982 327.006 16.3679C327.247 15.8343 327.368 15.1813 327.368 14.4091ZM336.29 12.1172C336.244 11.683 336.048 11.3449 335.703 11.103C335.362 10.861 334.918 10.7401 334.371 10.7401C333.987 10.7401 333.657 10.7981 333.382 10.9141C333.107 11.0301 332.896 11.1875 332.75 11.3864C332.604 11.5852 332.53 11.8123 332.527 12.0675C332.527 12.2796 332.575 12.4635 332.671 12.6193C332.77 12.7751 332.904 12.9077 333.073 13.017C333.242 13.1231 333.43 13.2126 333.635 13.2855C333.841 13.3584 334.048 13.4197 334.257 13.4695L335.211 13.7081C335.596 13.7976 335.965 13.9186 336.32 14.071C336.678 14.2235 336.998 14.4157 337.279 14.6477C337.564 14.8797 337.79 15.1598 337.956 15.4879C338.121 15.8161 338.204 16.2005 338.204 16.6413C338.204 17.2379 338.052 17.7633 337.747 18.2173C337.442 18.6681 337.001 19.0211 336.424 19.2763C335.851 19.5282 335.157 19.6541 334.341 19.6541C333.549 19.6541 332.861 19.5315 332.278 19.2862C331.698 19.041 331.244 18.683 330.916 18.2124C330.591 17.7417 330.415 17.1683 330.389 16.4922H332.203C332.23 16.8468 332.339 17.1418 332.532 17.3771C332.724 17.6125 332.974 17.7881 333.282 17.9041C333.594 18.0201 333.942 18.0781 334.326 18.0781C334.727 18.0781 335.079 18.0185 335.38 17.8991C335.685 17.7765 335.924 17.6075 336.096 17.392C336.268 17.1733 336.356 16.9181 336.36 16.6264C336.356 16.3613 336.278 16.1425 336.126 15.9702C335.974 15.7945 335.76 15.6487 335.485 15.5327C335.213 15.4134 334.895 15.3073 334.53 15.2145L333.372 14.9162C332.533 14.7008 331.87 14.3743 331.383 13.9368C330.899 13.496 330.657 12.911 330.657 12.1818C330.657 11.5819 330.82 11.0566 331.144 10.6058C331.473 10.1551 331.918 9.8054 332.482 9.55682C333.045 9.30492 333.683 9.17898 334.396 9.17898C335.118 9.17898 335.751 9.30492 336.295 9.55682C336.842 9.8054 337.271 10.1518 337.583 10.5959C337.894 11.0367 338.055 11.5438 338.065 12.1172H336.29Z" fill="#F1EFEF"/>
<rect x="347" width="91" height="28" rx="6" fill="#3C46C9"/>
<rect x="351" y="5" width="18" height="18" rx="3.5" fill="#F1EFEF"/>
<path opacity="0.4" d="M356.875 13.375C356.875 12.1965 356.875 11.6072 357.241 11.2411C357.607 10.875 358.196 10.875 359.375 10.875H360.625C361.803 10.875 362.393 10.875 362.759 11.2411C363.125 11.6072 363.125 12.1965 363.125 13.375V14.625C363.125 15.8035 363.125 16.3927 362.759 16.7589C362.393 17.125 361.803 17.125 360.625 17.125H359.375C358.196 17.125 357.607 17.125 357.241 16.7589C356.875 16.3927 356.875 15.8035 356.875 14.625V13.375Z" fill="#3C46C9"/>
<path d="M356.875 13.375C356.875 12.1965 356.875 11.6072 357.241 11.2411C357.607 10.875 358.196 10.875 359.375 10.875H360.625C361.803 10.875 362.393 10.875 362.759 11.2411C363.125 11.6072 363.125 12.1965 363.125 13.375V14.625C363.125 15.8035 363.125 16.3927 362.759 16.7589C362.393 17.125 361.803 17.125 360.625 17.125H359.375C358.196 17.125 357.607 17.125 357.241 16.7589C356.875 16.3927 356.875 15.8035 356.875 14.625V13.375Z" stroke="#3C46C9" stroke-width="1.25"/>
<path d="M357.812 10.875C357.812 10.875 358.243 10.038 358.34 9.00058C358.393 8.43828 358.419 8.15712 358.577 7.99796C358.736 7.83879 358.927 7.82009 359.309 7.78269C359.511 7.76294 359.741 7.75 360 7.75C360.259 7.75 360.489 7.76294 360.691 7.78269C361.073 7.82009 361.264 7.83879 361.423 7.99796C361.581 8.15712 361.607 8.43828 361.66 9.00058C361.757 10.038 362.188 10.875 362.188 10.875" stroke="#3C46C9" stroke-width="1.25" stroke-linecap="round" stroke-linejoin="round"/>
<path d="M362.188 17.125C362.188 17.125 361.757 17.962 361.66 18.9994C361.607 19.5617 361.581 19.8429 361.423 20.0021C361.264 20.1612 361.073 20.1799 360.691 20.2173C360.489 20.2371 360.259 20.25 360 20.25C359.741 20.25 359.511 20.2371 359.309 20.2173C358.927 20.1799 358.736 20.1612 358.577 20.0021C358.419 19.8429 358.393 19.5617 358.34 18.9994C358.243 17.962 357.812 17.125 357.812 17.125" stroke="#3C46C9" stroke-width="1.25" stroke-linecap="round" stroke-linejoin="round"/>
<path d="M375.835 19.5L373.677 11.8636H375.512L376.854 17.233H376.924L378.296 11.8636H380.11L381.483 17.2031H381.557L382.88 11.8636H384.719L382.556 19.5H380.682L379.25 14.3395H379.146L377.714 19.5H375.835ZM387.963 19.6541C387.479 19.6541 387.043 19.5679 386.656 19.3956C386.271 19.2199 385.966 18.9614 385.741 18.62C385.519 18.2786 385.408 17.8577 385.408 17.3572C385.408 16.9264 385.487 16.5701 385.646 16.2884C385.805 16.0066 386.022 15.7812 386.298 15.6122C386.573 15.4432 386.883 15.3156 387.227 15.2294C387.575 15.1399 387.935 15.0753 388.306 15.0355C388.754 14.9891 389.116 14.9477 389.395 14.9112C389.673 14.8714 389.875 14.8118 390.001 14.7322C390.131 14.6494 390.195 14.5218 390.195 14.3494V14.3196C390.195 13.9451 390.084 13.6551 389.862 13.4496C389.64 13.2441 389.32 13.1413 388.903 13.1413C388.462 13.1413 388.112 13.2375 387.854 13.4297C387.598 13.6219 387.426 13.849 387.337 14.1108L385.656 13.8722C385.789 13.4081 386.008 13.0204 386.312 12.7088C386.617 12.3939 386.99 12.1586 387.431 12.0028C387.872 11.8438 388.359 11.7642 388.893 11.7642C389.261 11.7642 389.627 11.8073 389.991 11.8935C390.356 11.9796 390.689 12.1222 390.991 12.321C391.292 12.5166 391.534 12.7834 391.717 13.1214C391.902 13.4595 391.995 13.8821 391.995 14.3892V19.5H390.265V18.451H390.205C390.096 18.6631 389.942 18.862 389.743 19.0476C389.547 19.2299 389.3 19.3774 389.002 19.4901C388.707 19.5994 388.361 19.6541 387.963 19.6541ZM388.43 18.3317C388.792 18.3317 389.105 18.2604 389.37 18.1179C389.635 17.9721 389.839 17.7798 389.982 17.5412C390.127 17.3026 390.2 17.0424 390.2 16.7607V15.8608C390.144 15.9072 390.048 15.9503 389.912 15.9901C389.779 16.0298 389.63 16.0646 389.464 16.0945C389.299 16.1243 389.135 16.1508 388.972 16.174C388.81 16.1972 388.669 16.2171 388.55 16.2337C388.281 16.2701 388.041 16.3298 387.829 16.4126C387.617 16.4955 387.449 16.6115 387.327 16.7607C387.204 16.9065 387.143 17.0954 387.143 17.3274C387.143 17.6589 387.264 17.9091 387.506 18.0781C387.748 18.2472 388.056 18.3317 388.43 18.3317ZM397.408 11.8636V13.2557H393.018V11.8636H397.408ZM394.102 10.0341H395.901V17.2031C395.901 17.4451 395.938 17.6307 396.011 17.7599C396.087 17.8859 396.187 17.9721 396.309 18.0185C396.432 18.0649 396.568 18.0881 396.717 18.0881C396.83 18.0881 396.932 18.0798 397.025 18.0632C397.121 18.0466 397.194 18.0317 397.244 18.0185L397.547 19.4254C397.451 19.4586 397.313 19.495 397.134 19.5348C396.959 19.5746 396.743 19.5978 396.488 19.6044C396.037 19.6177 395.631 19.5497 395.27 19.4006C394.909 19.2481 394.622 19.0128 394.41 18.6946C394.201 18.3764 394.098 17.9787 394.102 17.5014V10.0341ZM401.952 19.6491C401.19 19.6491 400.535 19.4818 399.988 19.147C399.445 18.8123 399.025 18.3499 398.73 17.7599C398.439 17.1667 398.293 16.4839 398.293 15.7116C398.293 14.9361 398.442 14.2517 398.74 13.6584C399.039 13.0618 399.46 12.5978 400.003 12.2663C400.55 11.9316 401.196 11.7642 401.942 11.7642C402.562 11.7642 403.11 11.8786 403.588 12.1072C404.068 12.3326 404.451 12.6525 404.736 13.0668C405.021 13.4777 405.184 13.9583 405.223 14.5085H403.503C403.434 14.1406 403.268 13.834 403.006 13.5888C402.747 13.3402 402.401 13.2159 401.967 13.2159C401.599 13.2159 401.276 13.3153 400.997 13.5142C400.719 13.7098 400.502 13.9915 400.346 14.3594C400.194 14.7273 400.117 15.1681 400.117 15.6818C400.117 16.2022 400.194 16.6496 400.346 17.0241C400.499 17.3954 400.712 17.6821 400.987 17.8842C401.266 18.0831 401.592 18.1825 401.967 18.1825C402.232 18.1825 402.469 18.1328 402.678 18.0334C402.89 17.9306 403.067 17.7831 403.21 17.5909C403.352 17.3987 403.45 17.165 403.503 16.8899H405.223C405.18 17.4302 405.021 17.9091 404.746 18.3267C404.471 18.741 404.096 19.0658 403.622 19.3011C403.148 19.5331 402.592 19.6491 401.952 19.6491ZM408.291 15.0256V19.5H406.491V9.31818H408.251V13.1612H408.341C408.519 12.7304 408.796 12.3906 409.171 12.142C409.549 11.8902 410.029 11.7642 410.613 11.7642C411.143 11.7642 411.605 11.8752 412 12.0973C412.394 12.3194 412.699 12.6442 412.914 13.0717C413.133 13.4993 413.243 14.0213 413.243 14.6378V19.5H411.443V14.9162C411.443 14.4025 411.31 14.0031 411.045 13.718C410.783 13.4297 410.415 13.2855 409.941 13.2855C409.623 13.2855 409.338 13.3551 409.086 13.4943C408.838 13.6302 408.642 13.8274 408.5 14.0859C408.36 14.3445 408.291 14.6577 408.291 15.0256ZM424.045 14.4091C424.045 15.5062 423.839 16.4458 423.428 17.228C423.02 18.0069 422.464 18.6035 421.758 19.0178C421.055 19.4321 420.258 19.6392 419.366 19.6392C418.475 19.6392 417.676 19.4321 416.97 19.0178C416.267 18.6001 415.711 18.0019 415.3 17.223C414.892 16.4408 414.688 15.5028 414.688 14.4091C414.688 13.312 414.892 12.3741 415.3 11.5952C415.711 10.813 416.267 10.2147 416.97 9.80043C417.676 9.38613 418.475 9.17898 419.366 9.17898C420.258 9.17898 421.055 9.38613 421.758 9.80043C422.464 10.2147 423.02 10.813 423.428 11.5952C423.839 12.3741 424.045 13.312 424.045 14.4091ZM422.19 14.4091C422.19 13.6368 422.069 12.9856 421.827 12.4553C421.589 11.9216 421.257 11.5189 420.833 11.2472C420.409 10.9721 419.92 10.8345 419.366 10.8345C418.813 10.8345 418.324 10.9721 417.9 11.2472C417.475 11.5189 417.142 11.9216 416.9 12.4553C416.662 12.9856 416.542 13.6368 416.542 14.4091C416.542 15.1813 416.662 15.8343 416.9 16.3679C417.142 16.8982 417.475 17.3009 417.9 17.576C418.324 17.8478 418.813 17.9837 419.366 17.9837C419.92 17.9837 420.409 17.8478 420.833 17.576C421.257 17.3009 421.589 16.8982 421.827 16.3679C422.069 15.8343 422.19 15.1813 422.19 14.4091ZM431.112 12.1172C431.065 11.683 430.87 11.3449 430.525 11.103C430.184 10.861 429.74 10.7401 429.193 10.7401C428.808 10.7401 428.478 10.7981 428.203 10.9141C427.928 11.0301 427.718 11.1875 427.572 11.3864C427.426 11.5852 427.352 11.8123 427.348 12.0675C427.348 12.2796 427.396 12.4635 427.492 12.6193C427.592 12.7751 427.726 12.9077 427.895 13.017C428.064 13.1231 428.251 13.2126 428.457 13.2855C428.662 13.3584 428.87 13.4197 429.078 13.4695L430.033 13.7081C430.417 13.7976 430.787 13.9186 431.142 14.071C431.5 14.2235 431.819 14.4157 432.101 14.6477C432.386 14.8797 432.612 15.1598 432.777 15.4879C432.943 15.8161 433.026 16.2005 433.026 16.6413C433.026 17.2379 432.873 17.7633 432.568 18.2173C432.263 18.6681 431.823 19.0211 431.246 19.2763C430.673 19.5282 429.978 19.6541 429.163 19.6541C428.371 19.6541 427.683 19.5315 427.1 19.2862C426.52 19.041 426.066 18.683 425.737 18.2124C425.413 17.7417 425.237 17.1683 425.21 16.4922H427.025C427.052 16.8468 427.161 17.1418 427.353 17.3771C427.545 17.6125 427.796 17.7881 428.104 17.9041C428.415 18.0201 428.763 18.0781 429.148 18.0781C429.549 18.0781 429.9 18.0185 430.202 17.8991C430.507 17.7765 430.746 17.6075 430.918 17.392C431.09 17.1733 431.178 16.9181 431.181 16.6264C431.178 16.3613 431.1 16.1425 430.948 15.9702C430.795 15.7945 430.581 15.6487 430.306 15.5327C430.035 15.4134 429.716 15.3073 429.352 15.2145L428.193 14.9162C427.355 14.7008 426.692 14.3743 426.205 13.9368C425.721 13.496 425.479 12.911 425.479 12.1818C425.479 11.5819 425.641 11.0566 425.966 10.6058C426.294 10.1551 426.74 9.8054 427.304 9.55682C427.867 9.30492 428.505 9.17898 429.218 9.17898C429.94 9.17898 430.573 9.30492 431.117 9.55682C431.664 9.8054 432.093 10.1518 432.404 10.5959C432.716 11.0367 432.877 11.5438 432.887 12.1172H431.112Z" fill="#F1EFEF"/>
<rect x="442" width="89" height="28" rx="6" fill="#3C46C9"/>
<rect x="446" y="5" width="18" height="18" rx="3.5" fill="#F1EFEF"/>
<path opacity="0.4" d="M451.562 17.4375C450 17.4375 448.75 16.5 448.75 14.3125C448.75 11.8125 450.625 10.5625 455 10.5625C459.375 10.5625 461.25 11.8125 461.25 14.3125C461.25 16.5 460 17.4375 458.438 17.4375C456.875 17.4375 455.938 15.875 455 15.875C454.062 15.875 453.125 17.4375 451.562 17.4375Z" fill="#3C46C9"/>
<path d="M451.562 17.4375C450 17.4375 448.75 16.5 448.75 14.3125C448.75 11.8125 450.625 10.5625 455 10.5625C459.375 10.5625 461.25 11.8125 461.25 14.3125C461.25 16.5 460 17.4375 458.438 17.4375C456.875 17.4375 455.938 15.875 455 15.875C454.062 15.875 453.125 17.4375 451.562 17.4375Z" stroke="#3C46C9" stroke-width="1.25" stroke-linecap="round"/>
<path d="M475.964 11.8636L473.245 19.5H471.256L468.537 11.8636H470.456L472.211 17.5362H472.29L474.05 11.8636H475.964ZM477 19.5V11.8636H478.799V19.5H477ZM477.904 10.7798C477.619 10.7798 477.374 10.6854 477.169 10.4964C476.963 10.3042 476.86 10.0739 476.86 9.8054C476.86 9.53362 476.963 9.30327 477.169 9.11435C477.374 8.92211 477.619 8.82599 477.904 8.82599C478.193 8.82599 478.438 8.92211 478.64 9.11435C478.846 9.30327 478.948 9.53362 478.948 9.8054C478.948 10.0739 478.846 10.3042 478.64 10.4964C478.438 10.6854 478.193 10.7798 477.904 10.7798ZM486.475 13.8821L484.835 14.0611C484.788 13.8954 484.707 13.7396 484.591 13.5938C484.479 13.4479 484.326 13.3303 484.134 13.2408C483.942 13.1513 483.706 13.1065 483.428 13.1065C483.053 13.1065 482.738 13.1877 482.483 13.3501C482.231 13.5125 482.107 13.723 482.11 13.9815C482.107 14.2036 482.188 14.3842 482.354 14.5234C482.523 14.6626 482.801 14.777 483.189 14.8665L484.492 15.1449C485.214 15.3007 485.751 15.5476 486.103 15.8857C486.457 16.2237 486.636 16.6662 486.639 17.2131C486.636 17.6937 486.495 18.1179 486.217 18.4858C485.942 18.8504 485.559 19.1354 485.068 19.3409C484.578 19.5464 484.014 19.6491 483.378 19.6491C482.443 19.6491 481.691 19.4536 481.121 19.0625C480.551 18.6681 480.211 18.1196 480.102 17.4169L481.857 17.2479C481.936 17.5926 482.105 17.8527 482.364 18.0284C482.622 18.2041 482.959 18.2919 483.373 18.2919C483.801 18.2919 484.144 18.2041 484.402 18.0284C484.664 17.8527 484.795 17.6357 484.795 17.3771C484.795 17.1584 484.711 16.9777 484.541 16.8352C484.376 16.6927 484.117 16.5833 483.766 16.5071L482.463 16.2337C481.731 16.0812 481.189 15.8243 480.838 15.4631C480.486 15.0985 480.312 14.6378 480.316 14.081C480.312 13.6103 480.44 13.2027 480.698 12.858C480.96 12.5099 481.323 12.2415 481.787 12.0526C482.255 11.8603 482.793 11.7642 483.403 11.7642C484.298 11.7642 485.002 11.9548 485.516 12.3359C486.033 12.7171 486.353 13.2325 486.475 13.8821ZM487.914 19.5V11.8636H489.713V19.5H487.914ZM488.818 10.7798C488.533 10.7798 488.288 10.6854 488.083 10.4964C487.877 10.3042 487.774 10.0739 487.774 9.8054C487.774 9.53362 487.877 9.30327 488.083 9.11435C488.288 8.92211 488.533 8.82599 488.818 8.82599C489.107 8.82599 489.352 8.92211 489.554 9.11435C489.76 9.30327 489.862 9.53362 489.862 9.8054C489.862 10.0739 489.76 10.3042 489.554 10.4964C489.352 10.6854 489.107 10.7798 488.818 10.7798ZM494.685 19.6491C493.939 19.6491 493.293 19.4851 492.746 19.157C492.199 18.8288 491.775 18.3698 491.473 17.7798C491.175 17.1899 491.026 16.5005 491.026 15.7116C491.026 14.9228 491.175 14.2318 491.473 13.6385C491.775 13.0452 492.199 12.5845 492.746 12.2564C493.293 11.9283 493.939 11.7642 494.685 11.7642C495.431 11.7642 496.077 11.9283 496.624 12.2564C497.171 12.5845 497.593 13.0452 497.892 13.6385C498.193 14.2318 498.344 14.9228 498.344 15.7116C498.344 16.5005 498.193 17.1899 497.892 17.7798C497.593 18.3698 497.171 18.8288 496.624 19.157C496.077 19.4851 495.431 19.6491 494.685 19.6491ZM494.695 18.2074C495.099 18.2074 495.437 18.0964 495.709 17.8743C495.981 17.6489 496.183 17.3473 496.316 16.9695C496.451 16.5916 496.519 16.1707 496.519 15.7067C496.519 15.2393 496.451 14.8168 496.316 14.4389C496.183 14.0578 495.981 13.7545 495.709 13.5291C495.437 13.3037 495.099 13.1911 494.695 13.1911C494.281 13.1911 493.936 13.3037 493.661 13.5291C493.389 13.7545 493.185 14.0578 493.049 14.4389C492.917 14.8168 492.85 15.2393 492.85 15.7067C492.85 16.1707 492.917 16.5916 493.049 16.9695C493.185 17.3473 493.389 17.6489 493.661 17.8743C493.936 18.0964 494.281 18.2074 494.695 18.2074ZM501.461 15.0256V19.5H499.661V11.8636H501.382V13.1612H501.471C501.647 12.7337 501.927 12.3939 502.311 12.142C502.699 11.8902 503.178 11.7642 503.748 11.7642C504.275 11.7642 504.734 11.8769 505.125 12.1023C505.52 12.3277 505.825 12.6541 506.04 13.0817C506.259 13.5092 506.366 14.0279 506.363 14.6378V19.5H504.563V14.9162C504.563 14.4058 504.431 14.0064 504.166 13.718C503.904 13.4297 503.541 13.2855 503.077 13.2855C502.762 13.2855 502.482 13.3551 502.237 13.4943C501.995 13.6302 501.804 13.8274 501.665 14.0859C501.529 14.3445 501.461 14.6577 501.461 15.0256ZM517.16 14.4091C517.16 15.5062 516.955 16.4458 516.544 17.228C516.136 18.0069 515.579 18.6035 514.873 19.0178C514.171 19.4321 513.374 19.6392 512.482 19.6392C511.59 19.6392 510.792 19.4321 510.086 19.0178C509.383 18.6001 508.826 18.0019 508.415 17.223C508.008 16.4408 507.804 15.5028 507.804 14.4091C507.804 13.312 508.008 12.3741 508.415 11.5952C508.826 10.813 509.383 10.2147 510.086 9.80043C510.792 9.38613 511.59 9.17898 512.482 9.17898C513.374 9.17898 514.171 9.38613 514.873 9.80043C515.579 10.2147 516.136 10.813 516.544 11.5952C516.955 12.3741 517.16 13.312 517.16 14.4091ZM515.306 14.4091C515.306 13.6368 515.185 12.9856 514.943 12.4553C514.704 11.9216 514.373 11.5189 513.949 11.2472C513.524 10.9721 513.036 10.8345 512.482 10.8345C511.929 10.8345 511.44 10.9721 511.015 11.2472C510.591 11.5189 510.258 11.9216 510.016 12.4553C509.777 12.9856 509.658 13.6368 509.658 14.4091C509.658 15.1813 509.777 15.8343 510.016 16.3679C510.258 16.8982 510.591 17.3009 511.015 17.576C511.44 17.8478 511.929 17.9837 512.482 17.9837C513.036 17.9837 513.524 17.8478 513.949 17.576C514.373 17.3009 514.704 16.8982 514.943 16.3679C515.185 15.8343 515.306 15.1813 515.306 14.4091ZM524.227 12.1172C524.181 11.683 523.985 11.3449 523.641 11.103C523.299 10.861 522.855 10.7401 522.308 10.7401C521.924 10.7401 521.594 10.7981 521.319 10.9141C521.044 11.0301 520.834 11.1875 520.688 11.3864C520.542 11.5852 520.467 11.8123 520.464 12.0675C520.464 12.2796 520.512 12.4635 520.608 12.6193C520.708 12.7751 520.842 12.9077 521.011 13.017C521.18 13.1231 521.367 13.2126 521.573 13.2855C521.778 13.3584 521.985 13.4197 522.194 13.4695L523.149 13.7081C523.533 13.7976 523.903 13.9186 524.257 14.071C524.615 14.2235 524.935 14.4157 525.217 14.6477C525.502 14.8797 525.727 15.1598 525.893 15.4879C526.059 15.8161 526.142 16.2005 526.142 16.6413C526.142 17.2379 525.989 17.7633 525.684 18.2173C525.379 18.6681 524.938 19.0211 524.362 19.2763C523.788 19.5282 523.094 19.6541 522.279 19.6541C521.486 19.6541 520.799 19.5315 520.215 19.2862C519.635 19.041 519.181 18.683 518.853 18.2124C518.528 17.7417 518.353 17.1683 518.326 16.4922H520.141C520.167 16.8468 520.277 17.1418 520.469 17.3771C520.661 17.6125 520.911 17.7881 521.22 17.9041C521.531 18.0201 521.879 18.0781 522.264 18.0781C522.665 18.0781 523.016 18.0185 523.318 17.8991C523.623 17.7765 523.861 17.6075 524.034 17.392C524.206 17.1733 524.294 16.9181 524.297 16.6264C524.294 16.3613 524.216 16.1425 524.063 15.9702C523.911 15.7945 523.697 15.6487 523.422 15.5327C523.15 15.4134 522.832 15.3073 522.468 15.2145L521.309 14.9162C520.471 14.7008 519.808 14.3743 519.32 13.9368C518.837 13.496 518.595 12.911 518.595 12.1818C518.595 11.5819 518.757 11.0566 519.082 10.6058C519.41 10.1551 519.856 9.8054 520.419 9.55682C520.983 9.30492 521.621 9.17898 522.333 9.17898C523.056 9.17898 523.689 9.30492 524.232 9.55682C524.779 9.8054 525.209 10.1518 525.52 10.5959C525.832 11.0367 525.992 11.5438 526.002 12.1172H524.227Z" fill="#F1EFEF"/>
<rect x="535" width="160" height="28" rx="6" fill="#3C46C9"/>
<rect x="539" y="5" width="18" height="18" rx="3.5" fill="#F1EFEF"/>
<path d="M548 20.25H547.062C544.705 20.25 543.527 20.25 542.795 19.5177C542.062 18.7855 542.062 17.607 542.063 15.2499L542.063 12.75C542.063 10.393 542.063 9.21445 542.795 8.48223C543.527 7.75 544.706 7.75 547.062 7.75H547.687C550.044 7.75 551.223 7.75 551.955 8.48223C552.687 9.21447 552.687 10.393 552.687 12.75V13.375" stroke="#3C46C9" stroke-width="1.25" stroke-linecap="round" stroke-linejoin="round"/>
<path d="M544.875 10.875H549.875M544.875 14H547.688" stroke="#3C46C9" stroke-width="1.25" stroke-linecap="round" stroke-linejoin="round"/>
<path d="M551.438 19.4829C552.542 19.4829 553.438 18.5672 553.438 17.4375C553.438 16.3078 552.542 15.3921 551.438 15.3921M551.438 19.4829C550.333 19.4829 549.438 18.5672 549.438 17.4375C549.438 16.3078 550.333 15.3921 551.438 15.3921M551.438 19.4829V20.25M551.438 15.3921V14.625M549.62 16.3218L548.938 15.9034M553.938 18.9716L553.256 18.5532M553.255 16.3218L553.937 15.9034M548.938 18.9716L549.619 18.5532" stroke="#3C46C9" stroke-width="1.25" stroke-linecap="round"/>
<path opacity="0.4" d="M552.687 12.75V15.25C552.687 15.4552 552.687 15.6516 552.687 15.8394C552.345 15.5592 551.91 15.3916 551.438 15.3916C550.333 15.3916 549.438 16.3074 549.438 17.4371C549.438 18.5668 550.333 19.4825 551.438 19.4825C551.665 19.4825 551.883 19.4439 552.086 19.3727C552.045 19.423 552.002 19.4713 551.955 19.5177C551.223 20.25 550.044 20.25 547.687 20.25H547.062C544.705 20.25 543.527 20.25 542.795 19.5177C542.062 18.7855 542.062 17.607 542.063 15.2499L542.063 12.75C542.063 10.393 542.063 9.21445 542.795 8.48223C543.527 7.75 544.706 7.75 547.062 7.75H547.687C550.044 7.75 551.223 7.75 551.955 8.48223C552.687 9.21447 552.687 10.393 552.687 12.75Z" fill="#3C46C9"/>
<path d="M563.597 19.5H561.628L565.213 9.31818H567.49L571.079 19.5H569.11L566.391 11.4062H566.311L563.597 19.5ZM563.661 15.5078H569.031V16.9893H563.661V15.5078ZM572.131 22.3636V11.8636H573.9V13.1264H574.005C574.098 12.9408 574.229 12.7436 574.398 12.5348C574.567 12.3227 574.795 12.142 575.084 11.9929C575.372 11.8404 575.74 11.7642 576.187 11.7642C576.777 11.7642 577.309 11.915 577.783 12.2166C578.261 12.5149 578.638 12.9574 578.917 13.544C579.199 14.1274 579.339 14.8433 579.339 15.6918C579.339 16.5303 579.202 17.2429 578.927 17.8295C578.652 18.4162 578.277 18.8636 577.803 19.1719C577.329 19.4801 576.792 19.6342 576.192 19.6342C575.755 19.6342 575.392 19.5613 575.104 19.4155C574.815 19.2696 574.583 19.094 574.408 18.8885C574.235 18.6797 574.101 18.4825 574.005 18.2969H573.93V22.3636H572.131ZM573.895 15.6818C573.895 16.1757 573.965 16.6082 574.104 16.9794C574.247 17.3506 574.451 17.6406 574.716 17.8494C574.984 18.0549 575.309 18.1577 575.69 18.1577C576.088 18.1577 576.421 18.0516 576.69 17.8395C576.958 17.6241 577.16 17.3307 577.296 16.9595C577.435 16.585 577.505 16.1591 577.505 15.6818C577.505 15.2079 577.437 14.7869 577.301 14.419C577.165 14.0511 576.963 13.7628 576.694 13.554C576.426 13.3452 576.091 13.2408 575.69 13.2408C575.306 13.2408 574.979 13.3419 574.711 13.544C574.442 13.7462 574.239 14.0296 574.099 14.3942C573.963 14.7588 573.895 15.188 573.895 15.6818ZM582.868 19.6541C582.384 19.6541 581.948 19.5679 581.56 19.3956C581.176 19.2199 580.871 18.9614 580.646 18.62C580.424 18.2786 580.313 17.8577 580.313 17.3572C580.313 16.9264 580.392 16.5701 580.551 16.2884C580.71 16.0066 580.927 15.7812 581.203 15.6122C581.478 15.4432 581.788 15.3156 582.132 15.2294C582.48 15.1399 582.84 15.0753 583.211 15.0355C583.659 14.9891 584.021 14.9477 584.3 14.9112C584.578 14.8714 584.78 14.8118 584.906 14.7322C585.036 14.6494 585.1 14.5218 585.1 14.3494V14.3196C585.1 13.9451 584.989 13.6551 584.767 13.4496C584.545 13.2441 584.225 13.1413 583.808 13.1413C583.367 13.1413 583.017 13.2375 582.759 13.4297C582.503 13.6219 582.331 13.849 582.242 14.1108L580.561 13.8722C580.694 13.4081 580.913 13.0204 581.217 12.7088C581.522 12.3939 581.895 12.1586 582.336 12.0028C582.777 11.8438 583.264 11.7642 583.798 11.7642C584.166 11.7642 584.532 11.8073 584.896 11.8935C585.261 11.9796 585.594 12.1222 585.896 12.321C586.197 12.5166 586.439 12.7834 586.622 13.1214C586.807 13.4595 586.9 13.8821 586.9 14.3892V19.5H585.17V18.451H585.11C585.001 18.6631 584.847 18.862 584.648 19.0476C584.452 19.2299 584.205 19.3774 583.907 19.4901C583.612 19.5994 583.266 19.6541 582.868 19.6541ZM583.335 18.3317C583.697 18.3317 584.01 18.2604 584.275 18.1179C584.54 17.9721 584.744 17.7798 584.886 17.5412C585.032 17.3026 585.105 17.0424 585.105 16.7607V15.8608C585.049 15.9072 584.953 15.9503 584.817 15.9901C584.684 16.0298 584.535 16.0646 584.369 16.0945C584.204 16.1243 584.04 16.1508 583.877 16.174C583.715 16.1972 583.574 16.2171 583.455 16.2337C583.186 16.2701 582.946 16.3298 582.734 16.4126C582.522 16.4955 582.354 16.6115 582.232 16.7607C582.109 16.9065 582.048 17.0954 582.048 17.3274C582.048 17.6589 582.169 17.9091 582.411 18.0781C582.653 18.2472 582.961 18.3317 583.335 18.3317ZM591.831 19.6491C591.068 19.6491 590.414 19.4818 589.867 19.147C589.323 18.8123 588.904 18.3499 588.609 17.7599C588.317 17.1667 588.172 16.4839 588.172 15.7116C588.172 14.9361 588.321 14.2517 588.619 13.6584C588.917 13.0618 589.338 12.5978 589.882 12.2663C590.429 11.9316 591.075 11.7642 591.821 11.7642C592.44 11.7642 592.989 11.8786 593.466 12.1072C593.947 12.3326 594.33 12.6525 594.615 13.0668C594.9 13.4777 595.062 13.9583 595.102 14.5085H593.382C593.312 14.1406 593.146 13.834 592.885 13.5888C592.626 13.3402 592.28 13.2159 591.846 13.2159C591.478 13.2159 591.154 13.3153 590.876 13.5142C590.598 13.7098 590.381 13.9915 590.225 14.3594C590.072 14.7273 589.996 15.1681 589.996 15.6818C589.996 16.2022 590.072 16.6496 590.225 17.0241C590.377 17.3954 590.591 17.6821 590.866 17.8842C591.145 18.0831 591.471 18.1825 591.846 18.1825C592.111 18.1825 592.348 18.1328 592.556 18.0334C592.769 17.9306 592.946 17.7831 593.088 17.5909C593.231 17.3987 593.329 17.165 593.382 16.8899H595.102C595.059 17.4302 594.9 17.9091 594.625 18.3267C594.35 18.741 593.975 19.0658 593.501 19.3011C593.027 19.5331 592.47 19.6491 591.831 19.6491ZM598.169 15.0256V19.5H596.37V9.31818H598.13V13.1612H598.219C598.398 12.7304 598.675 12.3906 599.049 12.142C599.427 11.8902 599.908 11.7642 600.491 11.7642C601.021 11.7642 601.484 11.8752 601.878 12.0973C602.273 12.3194 602.578 12.6442 602.793 13.0717C603.012 13.4993 603.121 14.0213 603.121 14.6378V19.5H601.321V14.9162C601.321 14.4025 601.189 14.0031 600.924 13.718C600.662 13.4297 600.294 13.2855 599.82 13.2855C599.502 13.2855 599.217 13.3551 598.965 13.4943C598.716 13.6302 598.521 13.8274 598.378 14.0859C598.239 14.3445 598.169 14.6577 598.169 15.0256ZM608.126 19.6491C607.361 19.6491 606.699 19.4901 606.143 19.1719C605.589 18.8504 605.163 18.3963 604.865 17.8097C604.567 17.2197 604.418 16.5253 604.418 15.7266C604.418 14.9411 604.567 14.2517 604.865 13.6584C605.167 13.0618 605.588 12.5978 606.128 12.2663C606.668 11.9316 607.303 11.7642 608.032 11.7642C608.503 11.7642 608.947 11.8404 609.364 11.9929C609.785 12.142 610.156 12.3741 610.478 12.6889C610.803 13.0038 611.058 13.4048 611.244 13.892C611.429 14.3759 611.522 14.9527 611.522 15.6222V16.174H605.263V14.9609H609.797C609.793 14.6162 609.719 14.3097 609.573 14.0412C609.427 13.7694 609.223 13.5556 608.962 13.3999C608.703 13.2441 608.401 13.1662 608.057 13.1662C607.689 13.1662 607.366 13.2557 607.087 13.4347C606.809 13.6103 606.592 13.8423 606.436 14.1307C606.284 14.4157 606.206 14.7289 606.202 15.0703V16.1293C606.202 16.5734 606.284 16.9545 606.446 17.2727C606.608 17.5876 606.835 17.8295 607.127 17.9986C607.419 18.1643 607.76 18.2472 608.151 18.2472C608.413 18.2472 608.65 18.2107 608.862 18.1378C609.074 18.0616 609.258 17.9505 609.414 17.8047C609.57 17.6589 609.687 17.4782 609.767 17.2628L611.447 17.4517C611.341 17.8958 611.139 18.2836 610.841 18.6151C610.546 18.9432 610.168 19.1984 609.707 19.3807C609.247 19.5597 608.72 19.6491 608.126 19.6491ZM616.077 19.5V18.1676L619.612 14.7024C619.95 14.361 620.232 14.0578 620.457 13.7926C620.683 13.5275 620.852 13.2706 620.964 13.022C621.077 12.7734 621.133 12.5083 621.133 12.2266C621.133 11.9051 621.06 11.63 620.915 11.4013C620.769 11.1693 620.568 10.9903 620.313 10.8643C620.058 10.7384 619.768 10.6754 619.443 10.6754C619.108 10.6754 618.815 10.745 618.563 10.8842C618.311 11.0201 618.116 11.214 617.976 11.4659C617.841 11.7178 617.773 12.0178 617.773 12.3658H616.018C616.018 11.7195 616.165 11.1577 616.46 10.6804C616.755 10.2031 617.161 9.83357 617.678 9.57173C618.198 9.3099 618.795 9.17898 619.468 9.17898C620.151 9.17898 620.751 9.30658 621.268 9.56179C621.785 9.817 622.186 10.1667 622.471 10.6108C622.759 11.0549 622.903 11.562 622.903 12.1321C622.903 12.5133 622.83 12.8878 622.684 13.2557C622.539 13.6236 622.282 14.0312 621.914 14.4787C621.549 14.9261 621.037 15.468 620.378 16.1044L618.623 17.8892V17.9588H623.057V19.5H616.077ZM625.691 19.6094C625.39 19.6094 625.131 19.5033 624.916 19.2912C624.7 19.0791 624.594 18.8205 624.597 18.5156C624.594 18.2173 624.7 17.9621 624.916 17.75C625.131 17.5379 625.39 17.4318 625.691 17.4318C625.983 17.4318 626.236 17.5379 626.452 17.75C626.671 17.9621 626.782 18.2173 626.785 18.5156C626.782 18.7178 626.729 18.9018 626.626 19.0675C626.526 19.2332 626.394 19.3658 626.228 19.4652C626.066 19.5613 625.887 19.6094 625.691 19.6094ZM631.78 19.6939C630.961 19.6939 630.259 19.4867 629.672 19.0724C629.089 18.6548 628.64 18.0533 628.325 17.2678C628.013 16.4789 627.858 15.5294 627.858 14.419C627.861 13.3087 628.018 12.3641 628.33 11.5852C628.645 10.803 629.094 10.2064 629.677 9.79545C630.264 9.38447 630.965 9.17898 631.78 9.17898C632.595 9.17898 633.296 9.38447 633.883 9.79545C634.47 10.2064 634.919 10.803 635.23 11.5852C635.545 12.3674 635.703 13.312 635.703 14.419C635.703 15.5327 635.545 16.4839 635.23 17.2727C634.919 18.0582 634.47 18.6581 633.883 19.0724C633.3 19.4867 632.599 19.6939 631.78 19.6939ZM631.78 18.1378C632.416 18.1378 632.919 17.8246 633.287 17.1982C633.658 16.5684 633.843 15.642 633.843 14.419C633.843 13.6103 633.759 12.9309 633.59 12.3807C633.421 11.8305 633.182 11.4162 632.874 11.1378C632.566 10.8561 632.201 10.7152 631.78 10.7152C631.147 10.7152 630.647 11.0301 630.279 11.6598C629.911 12.2862 629.725 13.206 629.722 14.419C629.719 15.2311 629.8 15.9138 629.965 16.4673C630.135 17.0208 630.373 17.4384 630.681 17.7202C630.99 17.9986 631.356 18.1378 631.78 18.1378ZM640.507 19.5V9.31818H642.351V17.9538H646.835V19.5H640.507ZM648.147 19.5V11.8636H649.946V19.5H648.147ZM649.052 10.7798C648.767 10.7798 648.521 10.6854 648.316 10.4964C648.11 10.3042 648.008 10.0739 648.008 9.8054C648.008 9.53362 648.11 9.30327 648.316 9.11435C648.521 8.92211 648.767 8.82599 649.052 8.82599C649.34 8.82599 649.585 8.92211 649.787 9.11435C649.993 9.30327 650.096 9.53362 650.096 9.8054C650.096 10.0739 649.993 10.3042 649.787 10.4964C649.585 10.6854 649.34 10.7798 649.052 10.7798ZM654.918 19.6491C654.156 19.6491 653.501 19.4818 652.954 19.147C652.411 18.8123 651.991 18.3499 651.697 17.7599C651.405 17.1667 651.259 16.4839 651.259 15.7116C651.259 14.9361 651.408 14.2517 651.706 13.6584C652.005 13.0618 652.426 12.5978 652.969 12.2663C653.516 11.9316 654.162 11.7642 654.908 11.7642C655.528 11.7642 656.076 11.8786 656.554 12.1072C657.034 12.3326 657.417 12.6525 657.702 13.0668C657.987 13.4777 658.15 13.9583 658.189 14.5085H656.469C656.4 14.1406 656.234 13.834 655.972 13.5888C655.714 13.3402 655.367 13.2159 654.933 13.2159C654.565 13.2159 654.242 13.3153 653.964 13.5142C653.685 13.7098 653.468 13.9915 653.312 14.3594C653.16 14.7273 653.084 15.1681 653.084 15.6818C653.084 16.2022 653.16 16.6496 653.312 17.0241C653.465 17.3954 653.679 17.6821 653.954 17.8842C654.232 18.0831 654.558 18.1825 654.933 18.1825C655.198 18.1825 655.435 18.1328 655.644 18.0334C655.856 17.9306 656.033 17.7831 656.176 17.5909C656.318 17.3987 656.416 17.165 656.469 16.8899H658.189C658.146 17.4302 657.987 17.9091 657.712 18.3267C657.437 18.741 657.063 19.0658 656.589 19.3011C656.115 19.5331 655.558 19.6491 654.918 19.6491ZM662.838 19.6491C662.072 19.6491 661.411 19.4901 660.854 19.1719C660.301 18.8504 659.875 18.3963 659.577 17.8097C659.278 17.2197 659.129 16.5253 659.129 15.7266C659.129 14.9411 659.278 14.2517 659.577 13.6584C659.878 13.0618 660.299 12.5978 660.839 12.2663C661.38 11.9316 662.014 11.7642 662.743 11.7642C663.214 11.7642 663.658 11.8404 664.076 11.9929C664.497 12.142 664.868 12.3741 665.189 12.6889C665.514 13.0038 665.769 13.4048 665.955 13.892C666.141 14.3759 666.233 14.9527 666.233 15.6222V16.174H659.974V14.9609H664.508C664.505 14.6162 664.43 14.3097 664.285 14.0412C664.139 13.7694 663.935 13.5556 663.673 13.3999C663.415 13.2441 663.113 13.1662 662.768 13.1662C662.4 13.1662 662.077 13.2557 661.799 13.4347C661.52 13.6103 661.303 13.8423 661.148 14.1307C660.995 14.4157 660.917 14.7289 660.914 15.0703V16.1293C660.914 16.5734 660.995 16.9545 661.158 17.2727C661.32 17.5876 661.547 17.8295 661.839 17.9986C662.13 18.1643 662.472 18.2472 662.863 18.2472C663.125 18.2472 663.362 18.2107 663.574 18.1378C663.786 18.0616 663.97 17.9505 664.126 17.8047C664.281 17.6589 664.399 17.4782 664.479 17.2628L666.159 17.4517C666.053 17.8958 665.851 18.2836 665.552 18.6151C665.257 18.9432 664.88 19.1984 664.419 19.3807C663.958 19.5597 663.431 19.6491 662.838 19.6491ZM669.346 15.0256V19.5H667.546V11.8636H669.266V13.1612H669.356C669.531 12.7337 669.811 12.3939 670.196 12.142C670.584 11.8902 671.063 11.7642 671.633 11.7642C672.16 11.7642 672.619 11.8769 673.01 12.1023C673.404 12.3277 673.709 12.6541 673.925 13.0817C674.143 13.5092 674.251 14.0279 674.248 14.6378V19.5H672.448V14.9162C672.448 14.4058 672.315 14.0064 672.05 13.718C671.788 13.4297 671.426 13.2855 670.962 13.2855C670.647 13.2855 670.367 13.3551 670.121 13.4943C669.879 13.6302 669.689 13.8274 669.55 14.0859C669.414 14.3445 669.346 14.6577 669.346 15.0256ZM681.903 13.8821L680.262 14.0611C680.216 13.8954 680.135 13.7396 680.019 13.5938C679.906 13.4479 679.753 13.3303 679.561 13.2408C679.369 13.1513 679.134 13.1065 678.855 13.1065C678.481 13.1065 678.166 13.1877 677.911 13.3501C677.659 13.5125 677.534 13.723 677.538 13.9815C677.534 14.2036 677.616 14.3842 677.781 14.5234C677.95 14.6626 678.229 14.777 678.617 14.8665L679.919 15.1449C680.642 15.3007 681.179 15.5476 681.53 15.8857C681.885 16.2237 682.064 16.6662 682.067 17.2131C682.064 17.6937 681.923 18.1179 681.644 18.4858C681.369 18.8504 680.986 19.1354 680.496 19.3409C680.005 19.5464 679.442 19.6491 678.806 19.6491C677.871 19.6491 677.118 19.4536 676.548 19.0625C675.978 18.6681 675.639 18.1196 675.529 17.4169L677.284 17.2479C677.364 17.5926 677.533 17.8527 677.791 18.0284C678.05 18.2041 678.386 18.2919 678.801 18.2919C679.228 18.2919 679.571 18.2041 679.83 18.0284C680.091 17.8527 680.222 17.6357 680.222 17.3771C680.222 17.1584 680.138 16.9777 679.969 16.8352C679.803 16.6927 679.545 16.5833 679.193 16.5071L677.891 16.2337C677.158 16.0812 676.616 15.8243 676.265 15.4631C675.914 15.0985 675.74 14.6378 675.743 14.081C675.74 13.6103 675.867 13.2027 676.126 12.858C676.388 12.5099 676.751 12.2415 677.215 12.0526C677.682 11.8603 678.221 11.7642 678.83 11.7642C679.725 11.7642 680.43 11.9548 680.943 12.3359C681.46 12.7171 681.78 13.2325 681.903 13.8821ZM686.722 19.6491C685.956 19.6491 685.295 19.4901 684.738 19.1719C684.184 18.8504 683.759 18.3963 683.46 17.8097C683.162 17.2197 683.013 16.5253 683.013 15.7266C683.013 14.9411 683.162 14.2517 683.46 13.6584C683.762 13.0618 684.183 12.5978 684.723 12.2663C685.263 11.9316 685.898 11.7642 686.627 11.7642C687.098 11.7642 687.542 11.8404 687.959 11.9929C688.38 12.142 688.752 12.3741 689.073 12.6889C689.398 13.0038 689.653 13.4048 689.839 13.892C690.024 14.3759 690.117 14.9527 690.117 15.6222V16.174H683.858V14.9609H688.392C688.389 14.6162 688.314 14.3097 688.168 14.0412C688.022 13.7694 687.819 13.5556 687.557 13.3999C687.298 13.2441 686.997 13.1662 686.652 13.1662C686.284 13.1662 685.961 13.2557 685.683 13.4347C685.404 13.6103 685.187 13.8423 685.031 14.1307C684.879 14.4157 684.801 14.7289 684.798 15.0703V16.1293C684.798 16.5734 684.879 16.9545 685.041 17.2727C685.204 17.5876 685.431 17.8295 685.722 17.9986C686.014 18.1643 686.355 18.2472 686.746 18.2472C687.008 18.2472 687.245 18.2107 687.457 18.1378C687.669 18.0616 687.853 17.9505 688.009 17.8047C688.165 17.6589 688.283 17.4782 688.362 17.2628L690.043 17.4517C689.937 17.8958 689.734 18.2836 689.436 18.6151C689.141 18.9432 688.763 19.1984 688.303 19.3807C687.842 19.5597 687.315 19.6491 686.722 19.6491Z" fill="#F1EFEF"/>
<rect x="699" width="141" height="28" rx="6" fill="#3C46C9"/>
<rect x="703" y="5" width="18" height="18" rx="3.5" fill="#F1EFEF"/>
<path opacity="0.4" d="M717.294 12.125H706.706C706.688 12.6901 706.688 13.3547 706.688 14.152V14.473C706.688 15.851 706.689 16.8263 706.781 17.5653C706.871 18.291 707.039 18.6934 707.304 18.9796L717.294 12.125ZM717.294 12.125C717.312 12.6901 717.312 13.3547 717.312 14.152V14.473C717.312 15.851 717.311 16.8263 717.219 17.5653C717.129 18.291 716.961 18.6934 716.696 18.9796C716.438 19.2589 716.085 19.4314 715.436 19.5257C714.763 19.6235 713.872 19.625 712.594 19.625H711.406C710.128 19.625 709.237 19.6235 708.564 19.5257C707.915 19.4314 707.562 19.2589 707.304 18.9796L717.294 12.125ZM713.82 14.6611L713.82 14.661C713.429 14.0754 712.76 13.6875 712 13.6875C711.24 13.6875 710.571 14.0754 710.18 14.661L710.18 14.6611C709.948 15.0087 709.812 15.4269 709.812 15.875C709.812 16.3231 709.948 16.7414 710.18 17.089C710.571 17.6747 711.24 18.0625 712 18.0625C712.76 18.0625 713.429 17.6747 713.82 17.089L713.82 17.089C714.052 16.7414 714.188 16.3231 714.188 15.875C714.188 15.4269 714.052 15.0087 713.82 14.6611Z" stroke="#3C46C9" stroke-width="1.25"/>
<path d="M715.75 7.75V9M708.25 7.75V9" stroke="#3C46C9" stroke-width="1.25" stroke-linecap="round" stroke-linejoin="round"/>
<path d="M706.375 11.5H717.625" stroke="#3C46C9" stroke-width="1.25" stroke-linecap="round" stroke-linejoin="round"/>
<path d="M706.062 14.152C706.062 11.4287 706.062 10.0671 706.845 9.22103C707.628 8.375 708.887 8.375 711.406 8.375H712.594C715.113 8.375 716.372 8.375 717.155 9.22103C717.938 10.0671 717.938 11.4287 717.938 14.152V14.473C717.938 17.1963 717.938 18.5579 717.155 19.404C716.372 20.25 715.113 20.25 712.594 20.25H711.406C708.887 20.25 707.628 20.25 706.845 19.404C706.062 18.5579 706.062 17.1963 706.062 14.473V14.152Z" stroke="#3C46C9" stroke-width="1.25" stroke-linecap="round" stroke-linejoin="round"/>
<path d="M712 17.4375V18.0625M712 17.4375C711.458 17.4375 710.98 17.1613 710.7 16.7419M712 17.4375C712.542 17.4375 713.02 17.1613 713.3 16.7419M710.7 16.7419L710.125 17.125M710.7 16.7419C710.534 16.4938 710.438 16.1957 710.438 15.875C710.438 15.5543 710.534 15.2563 710.7 15.0082M713.3 16.7419L713.875 17.125M713.3 16.7419C713.466 16.4938 713.562 16.1957 713.562 15.875C713.562 15.5543 713.466 15.2563 713.3 15.0082M712 14.3125C712.542 14.3125 713.02 14.5888 713.3 15.0082M712 14.3125C711.458 14.3125 710.98 14.5888 710.7 15.0082M712 14.3125V13.6875M713.3 15.0082L713.875 14.625M710.7 15.0082L710.125 14.625" stroke="#3C46C9" stroke-width="1.25" stroke-linecap="round"/>
<path d="M729.766 19.6392C729.05 19.6392 728.414 19.5166 727.857 19.2713C727.303 19.026 726.866 18.6847 726.544 18.2472C726.223 17.8097 726.052 17.3042 726.032 16.7308H727.902C727.918 17.0059 728.009 17.2462 728.175 17.4517C728.341 17.6539 728.561 17.8113 728.836 17.924C729.111 18.0367 729.42 18.093 729.761 18.093C730.126 18.093 730.449 18.0301 730.731 17.9041C731.012 17.7749 731.233 17.5959 731.392 17.3672C731.551 17.1385 731.629 16.875 731.625 16.5767C731.629 16.2685 731.549 15.9967 731.387 15.7614C731.224 15.526 730.989 15.3421 730.681 15.2095C730.376 15.0769 730.008 15.0107 729.577 15.0107H728.677V13.5888H729.577C729.932 13.5888 730.242 13.5275 730.507 13.4048C730.775 13.2822 730.986 13.1098 731.138 12.8878C731.291 12.6624 731.365 12.4022 731.362 12.1072C731.365 11.8189 731.301 11.5687 731.168 11.3565C731.039 11.1411 730.855 10.9737 730.616 10.8544C730.381 10.7351 730.104 10.6754 729.786 10.6754C729.474 10.6754 729.186 10.7318 728.921 10.8445C728.656 10.9571 728.442 11.1179 728.28 11.3267C728.117 11.5322 728.031 11.7775 728.021 12.0625H726.246C726.259 11.4924 726.423 10.992 726.738 10.5611C727.057 10.1269 727.481 9.78883 728.011 9.54688C728.541 9.30161 729.136 9.17898 729.796 9.17898C730.475 9.17898 731.065 9.30658 731.566 9.56179C732.07 9.81368 732.459 10.1534 732.734 10.581C733.009 11.0085 733.147 11.4808 733.147 11.9979C733.15 12.5713 732.981 13.0518 732.64 13.4396C732.302 13.8274 731.857 14.081 731.307 14.2003V14.2798C732.023 14.3793 732.572 14.6444 732.953 15.0753C733.337 15.5028 733.528 16.0348 733.525 16.6712C733.525 17.2412 733.362 17.7517 733.037 18.2024C732.716 18.6499 732.272 19.0012 731.705 19.2564C731.142 19.5116 730.495 19.6392 729.766 19.6392ZM735.849 19.6094C735.547 19.6094 735.289 19.5033 735.073 19.2912C734.858 19.0791 734.752 18.8205 734.755 18.5156C734.752 18.2173 734.858 17.9621 735.073 17.75C735.289 17.5379 735.547 17.4318 735.849 17.4318C736.141 17.4318 736.394 17.5379 736.61 17.75C736.828 17.9621 736.939 18.2173 736.943 18.5156C736.939 18.7178 736.886 18.9018 736.784 19.0675C736.684 19.2332 736.552 19.3658 736.386 19.4652C736.223 19.5613 736.044 19.6094 735.849 19.6094ZM741.938 19.6939C741.119 19.6939 740.417 19.4867 739.83 19.0724C739.247 18.6548 738.797 18.0533 738.483 17.2678C738.171 16.4789 738.015 15.5294 738.015 14.419C738.019 13.3087 738.176 12.3641 738.488 11.5852C738.802 10.803 739.252 10.2064 739.835 9.79545C740.422 9.38447 741.123 9.17898 741.938 9.17898C742.753 9.17898 743.454 9.38447 744.041 9.79545C744.627 10.2064 745.077 10.803 745.388 11.5852C745.703 12.3674 745.86 13.312 745.86 14.419C745.86 15.5327 745.703 16.4839 745.388 17.2727C745.077 18.0582 744.627 18.6581 744.041 19.0724C743.458 19.4867 742.757 19.6939 741.938 19.6939ZM741.938 18.1378C742.574 18.1378 743.076 17.8246 743.444 17.1982C743.815 16.5684 744.001 15.642 744.001 14.419C744.001 13.6103 743.917 12.9309 743.748 12.3807C743.578 11.8305 743.34 11.4162 743.032 11.1378C742.723 10.8561 742.359 10.7152 741.938 10.7152C741.305 10.7152 740.804 11.0301 740.436 11.6598C740.069 12.2862 739.883 13.206 739.88 14.419C739.876 15.2311 739.958 15.9138 740.123 16.4673C740.292 17.0208 740.531 17.4384 740.839 17.7202C741.147 17.9986 741.514 18.1378 741.938 18.1378ZM748.034 19.6094C747.733 19.6094 747.474 19.5033 747.259 19.2912C747.043 19.0791 746.937 18.8205 746.941 18.5156C746.937 18.2173 747.043 17.9621 747.259 17.75C747.474 17.5379 747.733 17.4318 748.034 17.4318C748.326 17.4318 748.58 17.5379 748.795 17.75C749.014 17.9621 749.125 18.2173 749.128 18.5156C749.125 18.7178 749.072 18.9018 748.969 19.0675C748.87 19.2332 748.737 19.3658 748.571 19.4652C748.409 19.5613 748.23 19.6094 748.034 19.6094ZM754.123 19.6939C753.305 19.6939 752.602 19.4867 752.015 19.0724C751.432 18.6548 750.983 18.0533 750.668 17.2678C750.357 16.4789 750.201 15.5294 750.201 14.419C750.204 13.3087 750.361 12.3641 750.673 11.5852C750.988 10.803 751.437 10.2064 752.02 9.79545C752.607 9.38447 753.308 9.17898 754.123 9.17898C754.939 9.17898 755.64 9.38447 756.226 9.79545C756.813 10.2064 757.262 10.803 757.574 11.5852C757.888 12.3674 758.046 13.312 758.046 14.419C758.046 15.5327 757.888 16.4839 757.574 17.2727C757.262 18.0582 756.813 18.6581 756.226 19.0724C755.643 19.4867 754.942 19.6939 754.123 19.6939ZM754.123 18.1378C754.76 18.1378 755.262 17.8246 755.63 17.1982C756.001 16.5684 756.187 15.642 756.187 14.419C756.187 13.6103 756.102 12.9309 755.933 12.3807C755.764 11.8305 755.525 11.4162 755.217 11.1378C754.909 10.8561 754.544 10.7152 754.123 10.7152C753.49 10.7152 752.99 11.0301 752.622 11.6598C752.254 12.2862 752.068 13.206 752.065 14.419C752.062 15.2311 752.143 15.9138 752.309 16.4673C752.478 17.0208 752.716 17.4384 753.025 17.7202C753.333 17.9986 753.699 18.1378 754.123 18.1378Z" fill="#F1EFEF"/>
<path d="M767.864 10.7273V18H767.012L763.049 12.2898H762.978V18H762.097V10.7273H762.949L766.927 16.4517H766.998V10.7273H767.864ZM771.579 18.1136C771.086 18.1136 770.654 17.9964 770.282 17.7621C769.913 17.5277 769.624 17.1998 769.416 16.7784C769.21 16.357 769.107 15.8646 769.107 15.3011C769.107 14.733 769.21 14.237 769.416 13.8132C769.624 13.3894 769.913 13.0604 770.282 12.826C770.654 12.5916 771.086 12.4744 771.579 12.4744C772.071 12.4744 772.502 12.5916 772.871 12.826C773.243 13.0604 773.532 13.3894 773.738 13.8132C773.946 14.237 774.05 14.733 774.05 15.3011C774.05 15.8646 773.946 16.357 773.738 16.7784C773.532 17.1998 773.243 17.5277 772.871 17.7621C772.502 17.9964 772.071 18.1136 771.579 18.1136ZM771.579 17.3608C771.953 17.3608 772.26 17.2649 772.502 17.0732C772.743 16.8814 772.922 16.6293 773.038 16.3168C773.154 16.0043 773.212 15.6657 773.212 15.3011C773.212 14.9366 773.154 14.5968 773.038 14.282C772.922 13.9671 772.743 13.7126 772.502 13.5185C772.26 13.3243 771.953 13.2273 771.579 13.2273C771.205 13.2273 770.897 13.3243 770.655 13.5185C770.414 13.7126 770.235 13.9671 770.119 14.282C770.003 14.5968 769.945 14.9366 769.945 15.3011C769.945 15.6657 770.003 16.0043 770.119 16.3168C770.235 16.6293 770.414 16.8814 770.655 17.0732C770.897 17.2649 771.205 17.3608 771.579 17.3608ZM779.444 12.5455L777.427 18H776.575L774.558 12.5455H775.467L776.973 16.892H777.03L778.535 12.5455H779.444ZM782.492 18.1136C781.967 18.1136 781.513 17.9976 781.132 17.7656C780.753 17.5312 780.461 17.2045 780.255 16.7855C780.051 16.3641 779.95 15.8741 779.95 15.3153C779.95 14.7566 780.051 14.2642 780.255 13.8381C780.461 13.4096 780.747 13.0758 781.114 12.8366C781.484 12.5952 781.915 12.4744 782.407 12.4744C782.691 12.4744 782.972 12.5218 783.249 12.6165C783.526 12.7112 783.778 12.8651 784.005 13.0781C784.232 13.2888 784.413 13.5682 784.548 13.9162C784.683 14.2642 784.751 14.6927 784.751 15.2017V15.5568H780.546V14.8324H783.899C783.899 14.5246 783.837 14.25 783.714 14.0085C783.593 13.767 783.42 13.5765 783.195 13.4368C782.973 13.2971 782.71 13.2273 782.407 13.2273C782.073 13.2273 781.784 13.3101 781.541 13.4759C781.299 13.6392 781.113 13.8523 780.983 14.1151C780.853 14.3778 780.788 14.6596 780.788 14.9602V15.4432C780.788 15.8551 780.859 16.2043 781.001 16.4908C781.145 16.7749 781.345 16.9915 781.601 17.1406C781.857 17.2874 782.154 17.3608 782.492 17.3608C782.712 17.3608 782.911 17.33 783.089 17.2685C783.269 17.2045 783.424 17.1098 783.554 16.9844C783.684 16.8565 783.785 16.6979 783.856 16.5085L784.666 16.7358C784.58 17.0104 784.437 17.2519 784.236 17.4602C784.035 17.6662 783.786 17.8272 783.49 17.9432C783.194 18.0568 782.862 18.1136 782.492 18.1136ZM785.876 18V12.5455H786.685V13.3977H786.756C786.87 13.1065 787.053 12.8804 787.307 12.7195C787.56 12.5561 787.864 12.4744 788.219 12.4744C788.579 12.4744 788.879 12.5561 789.118 12.7195C789.359 12.8804 789.548 13.1065 789.682 13.3977H789.739C789.879 13.116 790.088 12.8923 790.368 12.7266C790.647 12.5585 790.982 12.4744 791.373 12.4744C791.86 12.4744 792.259 12.6271 792.57 12.9325C792.88 13.2356 793.035 13.7079 793.035 14.3494V18H792.197V14.3494C792.197 13.947 792.087 13.6593 791.866 13.4865C791.646 13.3137 791.387 13.2273 791.089 13.2273C790.705 13.2273 790.408 13.3433 790.197 13.5753C789.987 13.8049 789.881 14.0961 789.881 14.4489V18H789.029V14.2642C789.029 13.9541 788.928 13.7043 788.727 13.5149C788.526 13.3232 788.267 13.2273 787.95 13.2273C787.732 13.2273 787.528 13.2853 787.339 13.4013C787.152 13.5173 787 13.6783 786.884 13.8842C786.771 14.0878 786.714 14.3234 786.714 14.5909V18H785.876ZM794.531 18V10.7273H795.369V13.4119H795.44C795.501 13.3172 795.587 13.1965 795.695 13.0497C795.807 12.9006 795.965 12.768 796.171 12.652C796.38 12.5336 796.661 12.4744 797.016 12.4744C797.476 12.4744 797.881 12.5893 798.231 12.8189C798.581 13.0485 798.855 13.3741 799.051 13.7955C799.248 14.2169 799.346 14.714 799.346 15.2869C799.346 15.8646 799.248 16.3653 799.051 16.7891C798.855 17.2105 798.583 17.5372 798.235 17.7692C797.887 17.9988 797.485 18.1136 797.031 18.1136C796.68 18.1136 796.4 18.0556 796.189 17.9396C795.978 17.8213 795.816 17.6875 795.703 17.5384C795.589 17.3868 795.501 17.2614 795.44 17.1619H795.34V18H794.531ZM795.355 15.2727C795.355 15.6847 795.415 16.0481 795.536 16.3629C795.656 16.6754 795.833 16.9205 796.065 17.098C796.297 17.2732 796.581 17.3608 796.917 17.3608C797.267 17.3608 797.56 17.2685 797.794 17.0838C798.031 16.8968 798.208 16.6458 798.327 16.331C798.448 16.0137 798.508 15.661 798.508 15.2727C798.508 14.8892 798.449 14.5436 798.33 14.2358C798.214 13.9257 798.038 13.6806 797.801 13.5007C797.567 13.3184 797.272 13.2273 796.917 13.2273C796.576 13.2273 796.29 13.3137 796.058 13.4865C795.826 13.657 795.65 13.8961 795.532 14.2038C795.414 14.5092 795.355 14.8655 795.355 15.2727ZM802.765 18.1136C802.239 18.1136 801.786 17.9976 801.405 17.7656C801.026 17.5312 800.734 17.2045 800.528 16.7855C800.324 16.3641 800.222 15.8741 800.222 15.3153C800.222 14.7566 800.324 14.2642 800.528 13.8381C800.734 13.4096 801.02 13.0758 801.387 12.8366C801.756 12.5952 802.187 12.4744 802.68 12.4744C802.964 12.4744 803.244 12.5218 803.521 12.6165C803.798 12.7112 804.05 12.8651 804.278 13.0781C804.505 13.2888 804.686 13.5682 804.821 13.9162C804.956 14.2642 805.023 14.6927 805.023 15.2017V15.5568H800.819V14.8324H804.171C804.171 14.5246 804.11 14.25 803.987 14.0085C803.866 13.767 803.693 13.5765 803.468 13.4368C803.246 13.2971 802.983 13.2273 802.68 13.2273C802.346 13.2273 802.057 13.3101 801.813 13.4759C801.572 13.6392 801.386 13.8523 801.256 14.1151C801.125 14.3778 801.06 14.6596 801.06 14.9602V15.4432C801.06 15.8551 801.131 16.2043 801.273 16.4908C801.418 16.7749 801.618 16.9915 801.874 17.1406C802.129 17.2874 802.426 17.3608 802.765 17.3608C802.985 17.3608 803.184 17.33 803.362 17.2685C803.541 17.2045 803.696 17.1098 803.827 16.9844C803.957 16.8565 804.058 16.6979 804.129 16.5085L804.938 16.7358C804.853 17.0104 804.71 17.2519 804.509 17.4602C804.307 17.6662 804.059 17.8272 803.763 17.9432C803.467 18.0568 803.134 18.1136 802.765 18.1136ZM806.148 18V12.5455H806.958V13.3693H807.015C807.114 13.0994 807.294 12.8804 807.555 12.7124C807.815 12.5443 808.109 12.4602 808.435 12.4602C808.497 12.4602 808.574 12.4614 808.666 12.4638C808.758 12.4661 808.828 12.4697 808.876 12.4744V13.3267C808.847 13.3196 808.782 13.3089 808.68 13.2947C808.581 13.2782 808.475 13.2699 808.364 13.2699C808.099 13.2699 807.862 13.3255 807.654 13.4368C807.448 13.5457 807.285 13.6972 807.164 13.8913C807.046 14.0831 806.986 14.3021 806.986 14.5483V18H806.148ZM812.367 18V17.3608L814.768 14.733C815.05 14.4252 815.282 14.1577 815.464 13.9304C815.646 13.7008 815.781 13.4853 815.869 13.2841C815.959 13.0805 816.004 12.8674 816.004 12.6449C816.004 12.3892 815.942 12.1679 815.819 11.9808C815.698 11.7938 815.533 11.6494 815.322 11.5476C815.111 11.4458 814.874 11.3949 814.612 11.3949C814.332 11.3949 814.088 11.4529 813.88 11.5689C813.674 11.6825 813.514 11.8423 813.401 12.0483C813.289 12.2543 813.234 12.4957 813.234 12.7727H812.396C812.396 12.3466 812.494 11.9725 812.69 11.6506C812.887 11.3286 813.154 11.0777 813.493 10.8977C813.834 10.7178 814.216 10.6278 814.64 10.6278C815.066 10.6278 815.444 10.7178 815.773 10.8977C816.102 11.0777 816.36 11.3203 816.547 11.6257C816.734 11.9311 816.828 12.2708 816.828 12.6449C816.828 12.9124 816.779 13.174 816.682 13.4297C816.587 13.683 816.422 13.9659 816.185 14.2784C815.95 14.5885 815.625 14.9673 815.208 15.4148L813.575 17.1619V17.2188H816.955V18H812.367ZM820.644 18.0994C820.109 18.0994 819.653 17.9538 819.277 17.6626C818.901 17.3691 818.613 16.9441 818.414 16.3878C818.215 15.8291 818.116 15.1544 818.116 14.3636C818.116 13.5777 818.215 12.9065 818.414 12.3501C818.615 11.7914 818.904 11.3653 819.281 11.0717C819.659 10.7758 820.114 10.6278 820.644 10.6278C821.174 10.6278 821.628 10.7758 822.004 11.0717C822.383 11.3653 822.672 11.7914 822.871 12.3501C823.072 12.9065 823.173 13.5777 823.173 14.3636C823.173 15.1544 823.073 15.8291 822.874 16.3878C822.675 16.9441 822.388 17.3691 822.011 17.6626C821.635 17.9538 821.179 18.0994 820.644 18.0994ZM820.644 17.3182C821.174 17.3182 821.586 17.0625 821.88 16.5511C822.173 16.0398 822.32 15.3106 822.32 14.3636C822.32 13.7339 822.253 13.1977 822.118 12.755C821.985 12.3123 821.794 11.9749 821.543 11.7429C821.294 11.5109 820.995 11.3949 820.644 11.3949C820.119 11.3949 819.708 11.6541 819.412 12.1726C819.116 12.6887 818.968 13.419 818.968 14.3636C818.968 14.9934 819.034 15.5284 819.167 15.9688C819.299 16.4091 819.49 16.7441 819.739 16.9737C819.99 17.2034 820.291 17.3182 820.644 17.3182ZM824.372 18V17.3608L826.773 14.733C827.054 14.4252 827.286 14.1577 827.469 13.9304C827.651 13.7008 827.786 13.4853 827.873 13.2841C827.963 13.0805 828.008 12.8674 828.008 12.6449C828.008 12.3892 827.947 12.1679 827.824 11.9808C827.703 11.7938 827.537 11.6494 827.327 11.5476C827.116 11.4458 826.879 11.3949 826.616 11.3949C826.337 11.3949 826.093 11.4529 825.885 11.5689C825.679 11.6825 825.519 11.8423 825.405 12.0483C825.294 12.2543 825.238 12.4957 825.238 12.7727H824.4C824.4 12.3466 824.499 11.9725 824.695 11.6506C824.892 11.3286 825.159 11.0777 825.498 10.8977C825.839 10.7178 826.221 10.6278 826.645 10.6278C827.071 10.6278 827.448 10.7178 827.778 10.8977C828.107 11.0777 828.365 11.3203 828.552 11.6257C828.739 11.9311 828.832 12.2708 828.832 12.6449C828.832 12.9124 828.784 13.174 828.687 13.4297C828.592 13.683 828.426 13.9659 828.189 14.2784C827.955 14.5885 827.63 14.9673 827.213 15.4148L825.579 17.1619V17.2188H828.96V18H824.372ZM829.95 16.5085V15.7841L833.146 10.7273H833.672V11.8494H833.316L830.902 15.6705V15.7273H835.206V16.5085H829.95ZM833.373 18V16.2884V15.951V10.7273H834.211V18H833.373Z" fill="#C6C6C8"/>
</svg>
