<svg width="559" height="60" viewBox="0 0 559 60" fill="none" xmlns="http://www.w3.org/2000/svg">
<rect width="82" height="28" rx="6" fill="#6A45B5"/>
<rect x="6" y="5" width="18" height="18" rx="3.5" fill="#F1EFEF"/>
<path opacity="0.4" d="M9.0625 14C9.0625 11.201 9.0625 9.80156 9.93202 8.93202C10.8016 8.0625 12.201 8.0625 15 8.0625C17.7989 8.0625 19.1984 8.0625 20.068 8.93202C20.9375 9.80156 20.9375 11.201 20.9375 14C20.9375 16.7989 20.9375 18.1984 20.068 19.068C19.1984 19.9375 17.7989 19.9375 15 19.9375C12.201 19.9375 10.8016 19.9375 9.93202 19.068C9.0625 18.1984 9.0625 16.7989 9.0625 14Z" fill="#6A45B5"/>
<path d="M17.5 12.75L18.2666 13.4108C18.5889 13.6885 18.75 13.8274 18.75 14C18.75 14.1726 18.5889 14.3115 18.2666 14.5892L17.5 15.25" stroke="#6A45B5" stroke-width="1.25" stroke-linecap="round" stroke-linejoin="round"/>
<path d="M12.5 12.75L11.7334 13.4108C11.4111 13.6885 11.25 13.8274 11.25 14C11.25 14.1726 11.4111 14.3115 11.7334 14.5892L12.5 15.25" stroke="#6A45B5" stroke-width="1.25" stroke-linecap="round" stroke-linejoin="round"/>
<path d="M15.625 12.125L14.375 15.875" stroke="#6A45B5" stroke-width="1.25" stroke-linecap="round" stroke-linejoin="round"/>
<path d="M9.0625 14C9.0625 11.201 9.0625 9.80156 9.93202 8.93202C10.8016 8.0625 12.201 8.0625 15 8.0625C17.7989 8.0625 19.1984 8.0625 20.068 8.93202C20.9375 9.80156 20.9375 11.201 20.9375 14C20.9375 16.7989 20.9375 18.1984 20.068 19.068C19.1984 19.9375 17.7989 19.9375 15 19.9375C12.201 19.9375 10.8016 19.9375 9.93202 19.068C9.0625 18.1984 9.0625 16.7989 9.0625 14Z" stroke="#6A45B5" stroke-width="1.25"/>
<path d="M34.5856 12.1172C34.5392 11.683 34.3437 11.3449 33.999 11.103C33.6576 10.861 33.2135 10.7401 32.6666 10.7401C32.2821 10.7401 31.9523 10.7981 31.6772 10.9141C31.4021 11.0301 31.1917 11.1875 31.0458 11.3864C30.9 11.5852 30.8254 11.8123 30.8221 12.0675C30.8221 12.2796 30.8702 12.4635 30.9663 12.6193C31.0657 12.7751 31.2 12.9077 31.369 13.017C31.538 13.1231 31.7253 13.2126 31.9308 13.2855C32.1363 13.3584 32.3434 13.4197 32.5522 13.4695L33.5068 13.7081C33.8912 13.7976 34.2608 13.9186 34.6154 14.071C34.9734 14.2235 35.2932 14.4157 35.575 14.6477C35.86 14.8797 36.0854 15.1598 36.2511 15.4879C36.4168 15.8161 36.4997 16.2005 36.4997 16.6413C36.4997 17.2379 36.3472 17.7633 36.0423 18.2173C35.7374 18.6681 35.2965 19.0211 34.7198 19.2763C34.1465 19.5282 33.4521 19.6541 32.6367 19.6541C31.8446 19.6541 31.1569 19.5315 30.5735 19.2862C29.9935 19.041 29.5394 18.683 29.2113 18.2124C28.8865 17.7417 28.7108 17.1683 28.6843 16.4922H30.499C30.5255 16.8468 30.6349 17.1418 30.8271 17.3771C31.0193 17.6125 31.2696 17.7881 31.5778 17.9041C31.8894 18.0201 32.2374 18.0781 32.6218 18.0781C33.0229 18.0781 33.3742 18.0185 33.6758 17.8991C33.9807 17.7765 34.2194 17.6075 34.3917 17.392C34.5641 17.1733 34.6519 16.9181 34.6552 16.6264C34.6519 16.3613 34.574 16.1425 34.4215 15.9702C34.2691 15.7945 34.0553 15.6487 33.7802 15.5327C33.5084 15.4134 33.1903 15.3073 32.8257 15.2145L31.6673 14.9162C30.8287 14.7008 30.1659 14.3743 29.6786 13.9368C29.1947 13.496 28.9528 12.911 28.9528 12.1818C28.9528 11.5819 29.1152 11.0566 29.44 10.6058C29.7681 10.1551 30.2139 9.8054 30.7774 9.55682C31.3408 9.30492 31.9788 9.17898 32.6914 9.17898C33.414 9.17898 34.047 9.30492 34.5906 9.55682C35.1375 9.8054 35.5667 10.1518 35.8782 10.5959C36.1898 11.0367 36.3505 11.5438 36.3605 12.1172H34.5856ZM39.4305 19.5L37.2728 11.8636H39.1073L40.4497 17.233H40.5193L41.8914 11.8636H43.706L45.0782 17.2031H45.1528L46.4752 11.8636H48.3147L46.1521 19.5H44.2778L42.846 14.3395H42.7416L41.3097 19.5H39.4305ZM49.3613 19.5V11.8636H51.161V19.5H49.3613ZM50.2661 10.7798C49.9811 10.7798 49.7358 10.6854 49.5303 10.4964C49.3248 10.3042 49.2221 10.0739 49.2221 9.8054C49.2221 9.53362 49.3248 9.30327 49.5303 9.11435C49.7358 8.92211 49.9811 8.82599 50.2661 8.82599C50.5545 8.82599 50.7997 8.92211 51.0019 9.11435C51.2074 9.30327 51.3101 9.53362 51.3101 9.8054C51.3101 10.0739 51.2074 10.3042 51.0019 10.4964C50.7997 10.6854 50.5545 10.7798 50.2661 10.7798ZM56.6696 11.8636V13.2557H52.1554V11.8636H56.6696ZM53.2839 19.5V11.1428C53.2839 10.629 53.39 10.2015 53.6021 9.86008C53.8175 9.5187 54.1059 9.26349 54.4672 9.09446C54.8284 8.92543 55.2295 8.84091 55.6703 8.84091C55.9818 8.84091 56.2586 8.86577 56.5005 8.91548C56.7425 8.9652 56.9215 9.00994 57.0375 9.04972L56.6795 10.4418C56.6033 10.4186 56.5072 10.3954 56.3912 10.3722C56.2752 10.3456 56.1459 10.3324 56.0034 10.3324C55.6686 10.3324 55.4316 10.4136 55.2924 10.576C55.1565 10.7351 55.0886 10.9638 55.0886 11.2621V19.5H53.2839ZM61.6822 11.8636V13.2557H57.2923V11.8636H61.6822ZM58.3761 10.0341H60.1758V17.2031C60.1758 17.4451 60.2123 17.6307 60.2852 17.7599C60.3614 17.8859 60.4609 17.9721 60.5835 18.0185C60.7061 18.0649 60.842 18.0881 60.9912 18.0881C61.1039 18.0881 61.2066 18.0798 61.2994 18.0632C61.3955 18.0466 61.4684 18.0317 61.5182 18.0185L61.8214 19.4254C61.7253 19.4586 61.5878 19.495 61.4088 19.5348C61.2331 19.5746 61.0177 19.5978 60.7625 19.6044C60.3117 19.6177 59.9057 19.5497 59.5444 19.4006C59.1832 19.2481 58.8965 19.0128 58.6844 18.6946C58.4755 18.3764 58.3728 17.9787 58.3761 17.5014V10.0341ZM69.4752 9.31818H71.3197V15.9702C71.3197 16.6993 71.1474 17.3407 70.8027 17.8942C70.4613 18.4477 69.9807 18.8802 69.3609 19.1918C68.7411 19.5 68.0169 19.6541 67.1883 19.6541C66.3564 19.6541 65.6305 19.5 65.0108 19.1918C64.391 18.8802 63.9104 18.4477 63.569 17.8942C63.2276 17.3407 63.0569 16.6993 63.0569 15.9702V9.31818H64.9014V15.8161C64.9014 16.2403 64.9942 16.6181 65.1798 16.9496C65.3687 17.281 65.6339 17.5412 65.9752 17.7301C66.3166 17.9157 66.721 18.0085 67.1883 18.0085C67.6556 18.0085 68.06 17.9157 68.4014 17.7301C68.7461 17.5412 69.0112 17.281 69.1968 16.9496C69.3824 16.6181 69.4752 16.2403 69.4752 15.8161V9.31818ZM74.959 9.31818V19.5H73.1145V9.31818H74.959Z" fill="#F1EFEF"/>
<rect x="86" width="58" height="28" rx="6" fill="#3C46C9"/>
<rect x="92" y="5" width="18" height="18" rx="3.5" fill="#F1EFEF"/>
<path opacity="0.4" d="M97.2657 8.39076C96.625 9.03147 96.625 10.0627 96.625 12.1251V15.875C96.625 17.9375 96.625 18.9687 97.2657 19.6093C97.9064 20.25 98.9376 20.25 101 20.25C103.062 20.25 104.094 20.25 104.734 19.6093C105.375 18.9687 105.375 17.9375 105.375 15.875V12.1251C105.375 10.0627 105.375 9.03147 104.734 8.39076C104.326 7.98278 103.76 7.83459 102.87 7.78076L102.819 8.08382C102.699 8.80712 102.639 9.16877 102.391 9.38884C102.132 9.6184 101.765 9.62506 101 9.62506C100.235 9.62506 99.8683 9.6184 99.6095 9.38884C99.3615 9.16877 99.3012 8.80712 99.1806 8.08382L99.1301 7.78076C98.24 7.83459 97.6737 7.98278 97.2657 8.39076Z" fill="#3C46C9"/>
<path d="M96.625 12.125C96.625 10.0626 96.625 9.03141 97.2657 8.39071C97.9064 7.75 98.9376 7.75 101 7.75C103.062 7.75 104.094 7.75 104.734 8.39071C105.375 9.03141 105.375 10.0626 105.375 12.125V15.875C105.375 17.9374 105.375 18.9686 104.734 19.6093C104.094 20.25 103.062 20.25 101 20.25C98.9376 20.25 97.9064 20.25 97.2657 19.6093C96.625 18.9686 96.625 17.9374 96.625 15.875V12.125Z" stroke="#3C46C9" stroke-width="1.25" stroke-linecap="round"/>
<path d="M100.375 18.375H101.625" stroke="#3C46C9" stroke-width="1.25" stroke-linecap="round" stroke-linejoin="round"/>
<path d="M99.125 7.75L99.1806 8.08376C99.3012 8.80706 99.3615 9.16871 99.6095 9.38877C99.8683 9.61834 100.235 9.625 101 9.625C101.765 9.625 102.132 9.61834 102.391 9.38877C102.639 9.16871 102.699 8.80706 102.819 8.08376L102.875 7.75" stroke="#3C46C9" stroke-width="1.25" stroke-linejoin="round"/>
<path d="M115.343 19.5V11.8636H117.142V19.5H115.343ZM116.248 10.7798C115.963 10.7798 115.717 10.6854 115.512 10.4964C115.306 10.3042 115.204 10.0739 115.204 9.8054C115.204 9.53362 115.306 9.30327 115.512 9.11435C115.717 8.92211 115.963 8.82599 116.248 8.82599C116.536 8.82599 116.781 8.92211 116.983 9.11435C117.189 9.30327 117.292 9.53362 117.292 9.8054C117.292 10.0739 117.189 10.3042 116.983 10.4964C116.781 10.6854 116.536 10.7798 116.248 10.7798ZM127.961 14.4091C127.961 15.5062 127.755 16.4458 127.344 17.228C126.937 18.0069 126.38 18.6035 125.674 19.0178C124.971 19.4321 124.174 19.6392 123.282 19.6392C122.391 19.6392 121.592 19.4321 120.886 19.0178C120.183 18.6001 119.627 18.0019 119.216 17.223C118.808 16.4408 118.604 15.5028 118.604 14.4091C118.604 13.312 118.808 12.3741 119.216 11.5952C119.627 10.813 120.183 10.2147 120.886 9.80043C121.592 9.38613 122.391 9.17898 123.282 9.17898C124.174 9.17898 124.971 9.38613 125.674 9.80043C126.38 10.2147 126.937 10.813 127.344 11.5952C127.755 12.3741 127.961 13.312 127.961 14.4091ZM126.106 14.4091C126.106 13.6368 125.985 12.9856 125.743 12.4553C125.505 11.9216 125.173 11.5189 124.749 11.2472C124.325 10.9721 123.836 10.8345 123.282 10.8345C122.729 10.8345 122.24 10.9721 121.816 11.2472C121.392 11.5189 121.058 11.9216 120.816 12.4553C120.578 12.9856 120.459 13.6368 120.459 14.4091C120.459 15.1813 120.578 15.8343 120.816 16.3679C121.058 16.8982 121.392 17.3009 121.816 17.576C122.24 17.8478 122.729 17.9837 123.282 17.9837C123.836 17.9837 124.325 17.8478 124.749 17.576C125.173 17.3009 125.505 16.8982 125.743 16.3679C125.985 15.8343 126.106 15.1813 126.106 14.4091ZM135.028 12.1172C134.981 11.683 134.786 11.3449 134.441 11.103C134.1 10.861 133.656 10.7401 133.109 10.7401C132.724 10.7401 132.395 10.7981 132.119 10.9141C131.844 11.0301 131.634 11.1875 131.488 11.3864C131.342 11.5852 131.268 11.8123 131.264 12.0675C131.264 12.2796 131.312 12.4635 131.409 12.6193C131.508 12.7751 131.642 12.9077 131.811 13.017C131.98 13.1231 132.168 13.2126 132.373 13.2855C132.579 13.3584 132.786 13.4197 132.994 13.4695L133.949 13.7081C134.333 13.7976 134.703 13.9186 135.058 14.071C135.416 14.2235 135.735 14.4157 136.017 14.6477C136.302 14.8797 136.528 15.1598 136.693 15.4879C136.859 15.8161 136.942 16.2005 136.942 16.6413C136.942 17.2379 136.789 17.7633 136.485 18.2173C136.18 18.6681 135.739 19.0211 135.162 19.2763C134.589 19.5282 133.894 19.6541 133.079 19.6541C132.287 19.6541 131.599 19.5315 131.016 19.2862C130.436 19.041 129.982 18.683 129.654 18.2124C129.329 17.7417 129.153 17.1683 129.127 16.4922H130.941C130.968 16.8468 131.077 17.1418 131.269 17.3771C131.462 17.6125 131.712 17.7881 132.02 17.9041C132.332 18.0201 132.68 18.0781 133.064 18.0781C133.465 18.0781 133.816 18.0185 134.118 17.8991C134.423 17.7765 134.662 17.6075 134.834 17.392C135.006 17.1733 135.094 16.9181 135.097 16.6264C135.094 16.3613 135.016 16.1425 134.864 15.9702C134.711 15.7945 134.498 15.6487 134.222 15.5327C133.951 15.4134 133.632 15.3073 133.268 15.2145L132.11 14.9162C131.271 14.7008 130.608 14.3743 130.121 13.9368C129.637 13.496 129.395 12.911 129.395 12.1818C129.395 11.5819 129.557 11.0566 129.882 10.6058C130.21 10.1551 130.656 9.8054 131.22 9.55682C131.783 9.30492 132.421 9.17898 133.134 9.17898C133.856 9.17898 134.489 9.30492 135.033 9.55682C135.58 9.8054 136.009 10.1518 136.32 10.5959C136.632 11.0367 136.793 11.5438 136.803 12.1172H135.028Z" fill="#F1EFEF"/>
<rect x="148" width="58" height="28" rx="6" fill="#3C46C9"/>
<rect x="154" y="5" width="18" height="18" rx="3.5" fill="#F1EFEF"/>
<path opacity="0.4" d="M164.562 7.75H161.438C159.67 7.75 158.786 7.75 158.237 8.29917C157.688 8.84835 157.688 9.73223 157.688 11.5V16.5C157.688 18.2677 157.688 19.1516 158.237 19.7008C158.786 20.25 159.67 20.25 161.438 20.25H164.562C166.33 20.25 167.214 20.25 167.763 19.7008C168.312 19.1516 168.312 18.2677 168.312 16.5V11.5C168.312 9.73223 168.312 8.84835 167.763 8.29917C167.214 7.75 166.33 7.75 164.562 7.75Z" fill="#3C46C9"/>
<path d="M164.562 7.75H161.438C159.67 7.75 158.786 7.75 158.237 8.29917C157.688 8.84835 157.688 9.73223 157.688 11.5V16.5C157.688 18.2677 157.688 19.1516 158.237 19.7008C158.786 20.25 159.67 20.25 161.438 20.25H164.562C166.33 20.25 167.214 20.25 167.763 19.7008C168.312 19.1516 168.312 18.2677 168.312 16.5V11.5C168.312 9.73223 168.312 8.84835 167.763 8.29917C167.214 7.75 166.33 7.75 164.562 7.75Z" stroke="#3C46C9" stroke-width="1.25" stroke-linecap="round"/>
<path d="M163 18.375H163.006" stroke="#3C46C9" stroke-width="1.25" stroke-linecap="round"/>
<path d="M177.343 19.5V11.8636H179.142V19.5H177.343ZM178.248 10.7798C177.963 10.7798 177.717 10.6854 177.512 10.4964C177.306 10.3042 177.204 10.0739 177.204 9.8054C177.204 9.53362 177.306 9.30327 177.512 9.11435C177.717 8.92211 177.963 8.82599 178.248 8.82599C178.536 8.82599 178.781 8.92211 178.983 9.11435C179.189 9.30327 179.292 9.53362 179.292 9.8054C179.292 10.0739 179.189 10.3042 178.983 10.4964C178.781 10.6854 178.536 10.7798 178.248 10.7798ZM189.961 14.4091C189.961 15.5062 189.755 16.4458 189.344 17.228C188.937 18.0069 188.38 18.6035 187.674 19.0178C186.971 19.4321 186.174 19.6392 185.282 19.6392C184.391 19.6392 183.592 19.4321 182.886 19.0178C182.183 18.6001 181.627 18.0019 181.216 17.223C180.808 16.4408 180.604 15.5028 180.604 14.4091C180.604 13.312 180.808 12.3741 181.216 11.5952C181.627 10.813 182.183 10.2147 182.886 9.80043C183.592 9.38613 184.391 9.17898 185.282 9.17898C186.174 9.17898 186.971 9.38613 187.674 9.80043C188.38 10.2147 188.937 10.813 189.344 11.5952C189.755 12.3741 189.961 13.312 189.961 14.4091ZM188.106 14.4091C188.106 13.6368 187.985 12.9856 187.743 12.4553C187.505 11.9216 187.173 11.5189 186.749 11.2472C186.325 10.9721 185.836 10.8345 185.282 10.8345C184.729 10.8345 184.24 10.9721 183.816 11.2472C183.392 11.5189 183.058 11.9216 182.816 12.4553C182.578 12.9856 182.459 13.6368 182.459 14.4091C182.459 15.1813 182.578 15.8343 182.816 16.3679C183.058 16.8982 183.392 17.3009 183.816 17.576C184.24 17.8478 184.729 17.9837 185.282 17.9837C185.836 17.9837 186.325 17.8478 186.749 17.576C187.173 17.3009 187.505 16.8982 187.743 16.3679C187.985 15.8343 188.106 15.1813 188.106 14.4091ZM197.028 12.1172C196.981 11.683 196.786 11.3449 196.441 11.103C196.1 10.861 195.656 10.7401 195.109 10.7401C194.724 10.7401 194.395 10.7981 194.119 10.9141C193.844 11.0301 193.634 11.1875 193.488 11.3864C193.342 11.5852 193.268 11.8123 193.264 12.0675C193.264 12.2796 193.312 12.4635 193.409 12.6193C193.508 12.7751 193.642 12.9077 193.811 13.017C193.98 13.1231 194.168 13.2126 194.373 13.2855C194.579 13.3584 194.786 13.4197 194.994 13.4695L195.949 13.7081C196.333 13.7976 196.703 13.9186 197.058 14.071C197.416 14.2235 197.735 14.4157 198.017 14.6477C198.302 14.8797 198.528 15.1598 198.693 15.4879C198.859 15.8161 198.942 16.2005 198.942 16.6413C198.942 17.2379 198.789 17.7633 198.485 18.2173C198.18 18.6681 197.739 19.0211 197.162 19.2763C196.589 19.5282 195.894 19.6541 195.079 19.6541C194.287 19.6541 193.599 19.5315 193.016 19.2862C192.436 19.041 191.982 18.683 191.654 18.2124C191.329 17.7417 191.153 17.1683 191.127 16.4922H192.941C192.968 16.8468 193.077 17.1418 193.269 17.3771C193.462 17.6125 193.712 17.7881 194.02 17.9041C194.332 18.0201 194.68 18.0781 195.064 18.0781C195.465 18.0781 195.816 18.0185 196.118 17.8991C196.423 17.7765 196.662 17.6075 196.834 17.392C197.006 17.1733 197.094 16.9181 197.097 16.6264C197.094 16.3613 197.016 16.1425 196.864 15.9702C196.711 15.7945 196.498 15.6487 196.222 15.5327C195.951 15.4134 195.632 15.3073 195.268 15.2145L194.11 14.9162C193.271 14.7008 192.608 14.3743 192.121 13.9368C191.637 13.496 191.395 12.911 191.395 12.1818C191.395 11.5819 191.557 11.0566 191.882 10.6058C192.21 10.1551 192.656 9.8054 193.22 9.55682C193.783 9.30492 194.421 9.17898 195.134 9.17898C195.856 9.17898 196.489 9.30492 197.033 9.55682C197.58 9.8054 198.009 10.1518 198.32 10.5959C198.632 11.0367 198.793 11.5438 198.803 12.1172H197.028Z" fill="#F1EFEF"/>
<rect x="210" width="82" height="28" rx="6" fill="#3C46C9"/>
<rect x="216" y="5" width="18" height="18" rx="3.5" fill="#F1EFEF"/>
<path opacity="0.4" d="M226.25 7.75H223.75C221.7 7.75 220.676 7.75 219.949 8.25864C219.681 8.44681 219.447 8.68057 219.259 8.94932C218.75 9.67572 218.75 10.7005 218.75 12.75C218.75 14.7995 218.75 15.8242 219.259 16.5507C219.447 16.8194 219.681 17.0532 219.949 17.2414C220.676 17.75 221.7 17.75 223.75 17.75H226.25C228.3 17.75 229.324 17.75 230.051 17.2414C230.319 17.0532 230.553 16.8194 230.741 16.5507C231.25 15.8242 231.25 14.7995 231.25 12.75C231.25 10.7005 231.25 9.67572 230.741 8.94932C230.553 8.68057 230.319 8.44681 230.051 8.25864C229.324 7.75 228.3 7.75 226.25 7.75Z" fill="#3C46C9"/>
<path d="M226.25 7.75H223.75C221.7 7.75 220.676 7.75 219.949 8.25864C219.681 8.44681 219.447 8.68057 219.259 8.94932C218.75 9.67572 218.75 10.7005 218.75 12.75C218.75 14.7995 218.75 15.8242 219.259 16.5507C219.447 16.8194 219.681 17.0532 219.949 17.2414C220.676 17.75 221.7 17.75 223.75 17.75H226.25C228.3 17.75 229.324 17.75 230.051 17.2414C230.319 17.0532 230.553 16.8194 230.741 16.5507C231.25 15.8242 231.25 14.7995 231.25 12.75C231.25 10.7005 231.25 9.67572 230.741 8.94932C230.553 8.68057 230.319 8.44681 230.051 8.25864C229.324 7.75 228.3 7.75 226.25 7.75Z" stroke="#3C46C9" stroke-width="1.25" stroke-linecap="round"/>
<path d="M224.375 15.875H225.625" stroke="#3C46C9" stroke-width="1.25" stroke-linecap="round" stroke-linejoin="round"/>
<path d="M226.562 20.25L226.365 19.9882C225.921 19.3981 225.811 18.4965 226.092 17.75M223.438 20.25L223.635 19.9882C224.079 19.3981 224.189 18.4965 223.908 17.75" stroke="#3C46C9" stroke-width="1.25" stroke-linecap="round"/>
<path d="M221.875 20.25H228.125" stroke="#3C46C9" stroke-width="1.25" stroke-linecap="round"/>
<path d="M239.036 19.5V11.8636H240.756V13.1612H240.846C241.005 12.7237 241.268 12.3823 241.636 12.1371C242.004 11.8885 242.443 11.7642 242.954 11.7642C243.471 11.7642 243.907 11.8902 244.261 12.142C244.619 12.3906 244.871 12.7304 245.017 13.1612H245.096C245.266 12.737 245.551 12.3989 245.952 12.147C246.356 11.8918 246.835 11.7642 247.388 11.7642C248.091 11.7642 248.664 11.9863 249.109 12.4304C249.553 12.8745 249.775 13.5225 249.775 14.3743V19.5H247.97V14.6527C247.97 14.1787 247.844 13.8324 247.592 13.6136C247.34 13.3916 247.032 13.2805 246.668 13.2805C246.233 13.2805 245.894 13.4164 245.648 13.6882C245.406 13.9567 245.285 14.3063 245.285 14.7372V19.5H243.52V14.5781C243.52 14.1837 243.401 13.8688 243.163 13.6335C242.927 13.3982 242.619 13.2805 242.238 13.2805C241.979 13.2805 241.744 13.3468 241.532 13.4794C241.32 13.6087 241.151 13.7926 241.025 14.0312C240.899 14.2666 240.836 14.5417 240.836 14.8565V19.5H239.036ZM253.588 19.6541C253.104 19.6541 252.668 19.5679 252.28 19.3956C251.896 19.2199 251.591 18.9614 251.366 18.62C251.144 18.2786 251.033 17.8577 251.033 17.3572C251.033 16.9264 251.112 16.5701 251.271 16.2884C251.43 16.0066 251.647 15.7812 251.923 15.6122C252.198 15.4432 252.508 15.3156 252.852 15.2294C253.2 15.1399 253.56 15.0753 253.931 15.0355C254.379 14.9891 254.741 14.9477 255.02 14.9112C255.298 14.8714 255.5 14.8118 255.626 14.7322C255.756 14.6494 255.82 14.5218 255.82 14.3494V14.3196C255.82 13.9451 255.709 13.6551 255.487 13.4496C255.265 13.2441 254.945 13.1413 254.528 13.1413C254.087 13.1413 253.737 13.2375 253.479 13.4297C253.223 13.6219 253.051 13.849 252.962 14.1108L251.281 13.8722C251.414 13.4081 251.633 13.0204 251.937 12.7088C252.242 12.3939 252.615 12.1586 253.056 12.0028C253.497 11.8438 253.984 11.7642 254.518 11.7642C254.886 11.7642 255.252 11.8073 255.616 11.8935C255.981 11.9796 256.314 12.1222 256.616 12.321C256.917 12.5166 257.159 12.7834 257.342 13.1214C257.527 13.4595 257.62 13.8821 257.62 14.3892V19.5H255.89V18.451H255.83C255.721 18.6631 255.567 18.862 255.368 19.0476C255.172 19.2299 254.925 19.3774 254.627 19.4901C254.332 19.5994 253.986 19.6541 253.588 19.6541ZM254.055 18.3317C254.417 18.3317 254.73 18.2604 254.995 18.1179C255.26 17.9721 255.464 17.7798 255.606 17.5412C255.752 17.3026 255.825 17.0424 255.825 16.7607V15.8608C255.769 15.9072 255.673 15.9503 255.537 15.9901C255.404 16.0298 255.255 16.0646 255.089 16.0945C254.924 16.1243 254.76 16.1508 254.597 16.174C254.435 16.1972 254.294 16.2171 254.175 16.2337C253.906 16.2701 253.666 16.3298 253.454 16.4126C253.242 16.4955 253.074 16.6115 252.952 16.7607C252.829 16.9065 252.768 17.0954 252.768 17.3274C252.768 17.6589 252.889 17.9091 253.131 18.0781C253.373 18.2472 253.681 18.3317 254.055 18.3317ZM262.551 19.6491C261.788 19.6491 261.134 19.4818 260.587 19.147C260.043 18.8123 259.624 18.3499 259.329 17.7599C259.037 17.1667 258.892 16.4839 258.892 15.7116C258.892 14.9361 259.041 14.2517 259.339 13.6584C259.637 13.0618 260.058 12.5978 260.602 12.2663C261.149 11.9316 261.795 11.7642 262.541 11.7642C263.16 11.7642 263.709 11.8786 264.186 12.1072C264.667 12.3326 265.05 12.6525 265.335 13.0668C265.62 13.4777 265.782 13.9583 265.822 14.5085H264.102C264.032 14.1406 263.866 13.834 263.605 13.5888C263.346 13.3402 263 13.2159 262.566 13.2159C262.198 13.2159 261.874 13.3153 261.596 13.5142C261.318 13.7098 261.101 13.9915 260.945 14.3594C260.792 14.7273 260.716 15.1681 260.716 15.6818C260.716 16.2022 260.792 16.6496 260.945 17.0241C261.097 17.3954 261.311 17.6821 261.586 17.8842C261.865 18.0831 262.191 18.1825 262.566 18.1825C262.831 18.1825 263.068 18.1328 263.276 18.0334C263.489 17.9306 263.666 17.7831 263.808 17.5909C263.951 17.3987 264.049 17.165 264.102 16.8899H265.822C265.779 17.4302 265.62 17.9091 265.345 18.3267C265.07 18.741 264.695 19.0658 264.221 19.3011C263.747 19.5331 263.19 19.6491 262.551 19.6491ZM276.267 14.4091C276.267 15.5062 276.062 16.4458 275.651 17.228C275.243 18.0069 274.686 18.6035 273.98 19.0178C273.278 19.4321 272.481 19.6392 271.589 19.6392C270.697 19.6392 269.899 19.4321 269.193 19.0178C268.49 18.6001 267.933 18.0019 267.522 17.223C267.115 16.4408 266.911 15.5028 266.911 14.4091C266.911 13.312 267.115 12.3741 267.522 11.5952C267.933 10.813 268.49 10.2147 269.193 9.80043C269.899 9.38613 270.697 9.17898 271.589 9.17898C272.481 9.17898 273.278 9.38613 273.98 9.80043C274.686 10.2147 275.243 10.813 275.651 11.5952C276.062 12.3741 276.267 13.312 276.267 14.4091ZM274.413 14.4091C274.413 13.6368 274.292 12.9856 274.05 12.4553C273.811 11.9216 273.48 11.5189 273.056 11.2472C272.631 10.9721 272.143 10.8345 271.589 10.8345C271.036 10.8345 270.547 10.9721 270.122 11.2472C269.698 11.5189 269.365 11.9216 269.123 12.4553C268.884 12.9856 268.765 13.6368 268.765 14.4091C268.765 15.1813 268.884 15.8343 269.123 16.3679C269.365 16.8982 269.698 17.3009 270.122 17.576C270.547 17.8478 271.036 17.9837 271.589 17.9837C272.143 17.9837 272.631 17.8478 273.056 17.576C273.48 17.3009 273.811 16.8982 274.05 16.3679C274.292 15.8343 274.413 15.1813 274.413 14.4091ZM283.334 12.1172C283.288 11.683 283.092 11.3449 282.748 11.103C282.406 10.861 281.962 10.7401 281.415 10.7401C281.031 10.7401 280.701 10.7981 280.426 10.9141C280.151 11.0301 279.941 11.1875 279.795 11.3864C279.649 11.5852 279.574 11.8123 279.571 12.0675C279.571 12.2796 279.619 12.4635 279.715 12.6193C279.815 12.7751 279.949 12.9077 280.118 13.017C280.287 13.1231 280.474 13.2126 280.68 13.2855C280.885 13.3584 281.092 13.4197 281.301 13.4695L282.256 13.7081C282.64 13.7976 283.01 13.9186 283.364 14.071C283.722 14.2235 284.042 14.4157 284.324 14.6477C284.609 14.8797 284.834 15.1598 285 15.4879C285.166 15.8161 285.249 16.2005 285.249 16.6413C285.249 17.2379 285.096 17.7633 284.791 18.2173C284.486 18.6681 284.045 19.0211 283.469 19.2763C282.895 19.5282 282.201 19.6541 281.386 19.6541C280.593 19.6541 279.906 19.5315 279.322 19.2862C278.742 19.041 278.288 18.683 277.96 18.2124C277.635 17.7417 277.46 17.1683 277.433 16.4922H279.248C279.274 16.8468 279.384 17.1418 279.576 17.3771C279.768 17.6125 280.018 17.7881 280.327 17.9041C280.638 18.0201 280.986 18.0781 281.371 18.0781C281.772 18.0781 282.123 18.0185 282.425 17.8991C282.73 17.7765 282.968 17.6075 283.141 17.392C283.313 17.1733 283.401 16.9181 283.404 16.6264C283.401 16.3613 283.323 16.1425 283.17 15.9702C283.018 15.7945 282.804 15.6487 282.529 15.5327C282.257 15.4134 281.939 15.3073 281.574 15.2145L280.416 14.9162C279.578 14.7008 278.915 14.3743 278.427 13.9368C277.944 13.496 277.702 12.911 277.702 12.1818C277.702 11.5819 277.864 11.0566 278.189 10.6058C278.517 10.1551 278.963 9.8054 279.526 9.55682C280.09 9.30492 280.728 9.17898 281.44 9.17898C282.163 9.17898 282.796 9.30492 283.339 9.55682C283.886 9.8054 284.316 10.1518 284.627 10.5959C284.939 11.0367 285.099 11.5438 285.109 12.1172H283.334Z" fill="#F1EFEF"/>
<rect x="296" width="67" height="28" rx="6" fill="#3C46C9"/>
<rect x="302" y="5" width="18" height="18" rx="3.5" fill="#F1EFEF"/>
<path opacity="0.4" d="M312.25 8.375H309.75C307.393 8.375 306.214 8.375 305.482 9.10723C304.75 9.83947 304.75 11.018 304.75 13.375C304.75 15.732 304.75 16.9106 305.482 17.6427C306.214 18.375 307.393 18.375 309.75 18.375H312.25C314.607 18.375 315.786 18.375 316.518 17.6427C317.25 16.9106 317.25 15.732 317.25 13.375C317.25 11.018 317.25 9.83947 316.518 9.10723C315.786 8.375 314.607 8.375 312.25 8.375Z" fill="#3C46C9"/>
<path d="M312.25 8.375H309.75C307.393 8.375 306.214 8.375 305.482 9.10723C304.75 9.83947 304.75 11.018 304.75 13.375C304.75 15.732 304.75 16.9106 305.482 17.6427C306.214 18.375 307.393 18.375 309.75 18.375H312.25C314.607 18.375 315.786 18.375 316.518 17.6427C317.25 16.9106 317.25 15.732 317.25 13.375C317.25 11.018 317.25 9.83947 316.518 9.10723C315.786 8.375 314.607 8.375 312.25 8.375Z" stroke="#3C46C9" stroke-width="1.25" stroke-linecap="round"/>
<path d="M314.75 18.375L315.375 19.625" stroke="#3C46C9" stroke-width="1.25" stroke-linecap="round" stroke-linejoin="round"/>
<path d="M307.25 18.375L306.625 19.625" stroke="#3C46C9" stroke-width="1.25" stroke-linecap="round" stroke-linejoin="round"/>
<path d="M328.894 11.8636V13.2557H324.504V11.8636H328.894ZM325.588 10.0341H327.387V17.2031C327.387 17.4451 327.424 17.6307 327.497 17.7599C327.573 17.8859 327.672 17.9721 327.795 18.0185C327.918 18.0649 328.054 18.0881 328.203 18.0881C328.315 18.0881 328.418 18.0798 328.511 18.0632C328.607 18.0466 328.68 18.0317 328.73 18.0185L329.033 19.4254C328.937 19.4586 328.799 19.495 328.62 19.5348C328.445 19.5746 328.229 19.5978 327.974 19.6044C327.523 19.6177 327.117 19.5497 326.756 19.4006C326.395 19.2481 326.108 19.0128 325.896 18.6946C325.687 18.3764 325.584 17.9787 325.588 17.5014V10.0341ZM337.01 11.8636L334.29 19.5H332.302L329.582 11.8636H331.501L333.256 17.5362H333.336L335.096 11.8636H337.01ZM347.223 14.4091C347.223 15.5062 347.017 16.4458 346.606 17.228C346.199 18.0069 345.642 18.6035 344.936 19.0178C344.233 19.4321 343.436 19.6392 342.545 19.6392C341.653 19.6392 340.854 19.4321 340.148 19.0178C339.446 18.6001 338.889 18.0019 338.478 17.223C338.07 16.4408 337.866 15.5028 337.866 14.4091C337.866 13.312 338.07 12.3741 338.478 11.5952C338.889 10.813 339.446 10.2147 340.148 9.80043C340.854 9.38613 341.653 9.17898 342.545 9.17898C343.436 9.17898 344.233 9.38613 344.936 9.80043C345.642 10.2147 346.199 10.813 346.606 11.5952C347.017 12.3741 347.223 13.312 347.223 14.4091ZM345.368 14.4091C345.368 13.6368 345.247 12.9856 345.006 12.4553C344.767 11.9216 344.435 11.5189 344.011 11.2472C343.587 10.9721 343.098 10.8345 342.545 10.8345C341.991 10.8345 341.502 10.9721 341.078 11.2472C340.654 11.5189 340.321 11.9216 340.079 12.4553C339.84 12.9856 339.721 13.6368 339.721 14.4091C339.721 15.1813 339.84 15.8343 340.079 16.3679C340.321 16.8982 340.654 17.3009 341.078 17.576C341.502 17.8478 341.991 17.9837 342.545 17.9837C343.098 17.9837 343.587 17.8478 344.011 17.576C344.435 17.3009 344.767 16.8982 345.006 16.3679C345.247 15.8343 345.368 15.1813 345.368 14.4091ZM354.29 12.1172C354.244 11.683 354.048 11.3449 353.703 11.103C353.362 10.861 352.918 10.7401 352.371 10.7401C351.987 10.7401 351.657 10.7981 351.382 10.9141C351.107 11.0301 350.896 11.1875 350.75 11.3864C350.604 11.5852 350.53 11.8123 350.527 12.0675C350.527 12.2796 350.575 12.4635 350.671 12.6193C350.77 12.7751 350.904 12.9077 351.073 13.017C351.242 13.1231 351.43 13.2126 351.635 13.2855C351.841 13.3584 352.048 13.4197 352.257 13.4695L353.211 13.7081C353.596 13.7976 353.965 13.9186 354.32 14.071C354.678 14.2235 354.998 14.4157 355.279 14.6477C355.564 14.8797 355.79 15.1598 355.956 15.4879C356.121 15.8161 356.204 16.2005 356.204 16.6413C356.204 17.2379 356.052 17.7633 355.747 18.2173C355.442 18.6681 355.001 19.0211 354.424 19.2763C353.851 19.5282 353.157 19.6541 352.341 19.6541C351.549 19.6541 350.861 19.5315 350.278 19.2862C349.698 19.041 349.244 18.683 348.916 18.2124C348.591 17.7417 348.415 17.1683 348.389 16.4922H350.203C350.23 16.8468 350.339 17.1418 350.532 17.3771C350.724 17.6125 350.974 17.7881 351.282 17.9041C351.594 18.0201 351.942 18.0781 352.326 18.0781C352.727 18.0781 353.079 18.0185 353.38 17.8991C353.685 17.7765 353.924 17.6075 354.096 17.392C354.268 17.1733 354.356 16.9181 354.36 16.6264C354.356 16.3613 354.278 16.1425 354.126 15.9702C353.974 15.7945 353.76 15.6487 353.485 15.5327C353.213 15.4134 352.895 15.3073 352.53 15.2145L351.372 14.9162C350.533 14.7008 349.87 14.3743 349.383 13.9368C348.899 13.496 348.657 12.911 348.657 12.1818C348.657 11.5819 348.82 11.0566 349.144 10.6058C349.473 10.1551 349.918 9.8054 350.482 9.55682C351.045 9.30492 351.683 9.17898 352.396 9.17898C353.118 9.17898 353.751 9.30492 354.295 9.55682C354.842 9.8054 355.271 10.1518 355.583 10.5959C355.894 11.0367 356.055 11.5438 356.065 12.1172H354.29Z" fill="#F1EFEF"/>
<rect x="367" width="95" height="28" rx="6" fill="#3C46C9"/>
<rect x="373" y="5" width="18" height="18" rx="3.5" fill="#F1EFEF"/>
<path opacity="0.4" d="M378.875 13.375C378.875 12.1965 378.875 11.6072 379.241 11.2411C379.607 10.875 380.196 10.875 381.375 10.875H382.625C383.803 10.875 384.393 10.875 384.759 11.2411C385.125 11.6072 385.125 12.1965 385.125 13.375V14.625C385.125 15.8035 385.125 16.3927 384.759 16.7589C384.393 17.125 383.803 17.125 382.625 17.125H381.375C380.196 17.125 379.607 17.125 379.241 16.7589C378.875 16.3927 378.875 15.8035 378.875 14.625V13.375Z" fill="#3C46C9"/>
<path d="M378.875 13.375C378.875 12.1965 378.875 11.6072 379.241 11.2411C379.607 10.875 380.196 10.875 381.375 10.875H382.625C383.803 10.875 384.393 10.875 384.759 11.2411C385.125 11.6072 385.125 12.1965 385.125 13.375V14.625C385.125 15.8035 385.125 16.3927 384.759 16.7589C384.393 17.125 383.803 17.125 382.625 17.125H381.375C380.196 17.125 379.607 17.125 379.241 16.7589C378.875 16.3927 378.875 15.8035 378.875 14.625V13.375Z" stroke="#3C46C9" stroke-width="1.25"/>
<path d="M379.812 10.875C379.812 10.875 380.243 10.038 380.34 9.00058C380.393 8.43828 380.419 8.15712 380.577 7.99796C380.736 7.83879 380.927 7.82009 381.309 7.78269C381.511 7.76294 381.741 7.75 382 7.75C382.259 7.75 382.489 7.76294 382.691 7.78269C383.073 7.82009 383.264 7.83879 383.423 7.99796C383.581 8.15712 383.607 8.43828 383.66 9.00058C383.757 10.038 384.188 10.875 384.188 10.875" stroke="#3C46C9" stroke-width="1.25" stroke-linecap="round" stroke-linejoin="round"/>
<path d="M384.188 17.125C384.188 17.125 383.757 17.962 383.66 18.9994C383.607 19.5617 383.581 19.8429 383.423 20.0021C383.264 20.1612 383.073 20.1799 382.691 20.2173C382.489 20.2371 382.259 20.25 382 20.25C381.741 20.25 381.511 20.2371 381.309 20.2173C380.927 20.1799 380.736 20.1612 380.577 20.0021C380.419 19.8429 380.393 19.5617 380.34 18.9994C380.243 17.962 379.812 17.125 379.812 17.125" stroke="#3C46C9" stroke-width="1.25" stroke-linecap="round" stroke-linejoin="round"/>
<path d="M397.835 19.5L395.677 11.8636H397.512L398.854 17.233H398.924L400.296 11.8636H402.11L403.483 17.2031H403.557L404.88 11.8636H406.719L404.556 19.5H402.682L401.25 14.3395H401.146L399.714 19.5H397.835ZM409.963 19.6541C409.479 19.6541 409.043 19.5679 408.656 19.3956C408.271 19.2199 407.966 18.9614 407.741 18.62C407.519 18.2786 407.408 17.8577 407.408 17.3572C407.408 16.9264 407.487 16.5701 407.646 16.2884C407.805 16.0066 408.022 15.7812 408.298 15.6122C408.573 15.4432 408.883 15.3156 409.227 15.2294C409.575 15.1399 409.935 15.0753 410.306 15.0355C410.754 14.9891 411.116 14.9477 411.395 14.9112C411.673 14.8714 411.875 14.8118 412.001 14.7322C412.131 14.6494 412.195 14.5218 412.195 14.3494V14.3196C412.195 13.9451 412.084 13.6551 411.862 13.4496C411.64 13.2441 411.32 13.1413 410.903 13.1413C410.462 13.1413 410.112 13.2375 409.854 13.4297C409.598 13.6219 409.426 13.849 409.337 14.1108L407.656 13.8722C407.789 13.4081 408.008 13.0204 408.312 12.7088C408.617 12.3939 408.99 12.1586 409.431 12.0028C409.872 11.8438 410.359 11.7642 410.893 11.7642C411.261 11.7642 411.627 11.8073 411.991 11.8935C412.356 11.9796 412.689 12.1222 412.991 12.321C413.292 12.5166 413.534 12.7834 413.717 13.1214C413.902 13.4595 413.995 13.8821 413.995 14.3892V19.5H412.265V18.451H412.205C412.096 18.6631 411.942 18.862 411.743 19.0476C411.547 19.2299 411.3 19.3774 411.002 19.4901C410.707 19.5994 410.361 19.6541 409.963 19.6541ZM410.43 18.3317C410.792 18.3317 411.105 18.2604 411.37 18.1179C411.635 17.9721 411.839 17.7798 411.982 17.5412C412.127 17.3026 412.2 17.0424 412.2 16.7607V15.8608C412.144 15.9072 412.048 15.9503 411.912 15.9901C411.779 16.0298 411.63 16.0646 411.464 16.0945C411.299 16.1243 411.135 16.1508 410.972 16.174C410.81 16.1972 410.669 16.2171 410.55 16.2337C410.281 16.2701 410.041 16.3298 409.829 16.4126C409.617 16.4955 409.449 16.6115 409.327 16.7607C409.204 16.9065 409.143 17.0954 409.143 17.3274C409.143 17.6589 409.264 17.9091 409.506 18.0781C409.748 18.2472 410.056 18.3317 410.43 18.3317ZM419.408 11.8636V13.2557H415.018V11.8636H419.408ZM416.102 10.0341H417.901V17.2031C417.901 17.4451 417.938 17.6307 418.011 17.7599C418.087 17.8859 418.187 17.9721 418.309 18.0185C418.432 18.0649 418.568 18.0881 418.717 18.0881C418.83 18.0881 418.932 18.0798 419.025 18.0632C419.121 18.0466 419.194 18.0317 419.244 18.0185L419.547 19.4254C419.451 19.4586 419.313 19.495 419.134 19.5348C418.959 19.5746 418.743 19.5978 418.488 19.6044C418.037 19.6177 417.631 19.5497 417.27 19.4006C416.909 19.2481 416.622 19.0128 416.41 18.6946C416.201 18.3764 416.098 17.9787 416.102 17.5014V10.0341ZM423.952 19.6491C423.19 19.6491 422.535 19.4818 421.988 19.147C421.445 18.8123 421.025 18.3499 420.73 17.7599C420.439 17.1667 420.293 16.4839 420.293 15.7116C420.293 14.9361 420.442 14.2517 420.74 13.6584C421.039 13.0618 421.46 12.5978 422.003 12.2663C422.55 11.9316 423.196 11.7642 423.942 11.7642C424.562 11.7642 425.11 11.8786 425.588 12.1072C426.068 12.3326 426.451 12.6525 426.736 13.0668C427.021 13.4777 427.184 13.9583 427.223 14.5085H425.503C425.434 14.1406 425.268 13.834 425.006 13.5888C424.747 13.3402 424.401 13.2159 423.967 13.2159C423.599 13.2159 423.276 13.3153 422.997 13.5142C422.719 13.7098 422.502 13.9915 422.346 14.3594C422.194 14.7273 422.117 15.1681 422.117 15.6818C422.117 16.2022 422.194 16.6496 422.346 17.0241C422.499 17.3954 422.712 17.6821 422.987 17.8842C423.266 18.0831 423.592 18.1825 423.967 18.1825C424.232 18.1825 424.469 18.1328 424.678 18.0334C424.89 17.9306 425.067 17.7831 425.21 17.5909C425.352 17.3987 425.45 17.165 425.503 16.8899H427.223C427.18 17.4302 427.021 17.9091 426.746 18.3267C426.471 18.741 426.096 19.0658 425.622 19.3011C425.148 19.5331 424.592 19.6491 423.952 19.6491ZM430.291 15.0256V19.5H428.491V9.31818H430.251V13.1612H430.341C430.519 12.7304 430.796 12.3906 431.171 12.142C431.549 11.8902 432.029 11.7642 432.613 11.7642C433.143 11.7642 433.605 11.8752 434 12.0973C434.394 12.3194 434.699 12.6442 434.914 13.0717C435.133 13.4993 435.243 14.0213 435.243 14.6378V19.5H433.443V14.9162C433.443 14.4025 433.31 14.0031 433.045 13.718C432.783 13.4297 432.415 13.2855 431.941 13.2855C431.623 13.2855 431.338 13.3551 431.086 13.4943C430.838 13.6302 430.642 13.8274 430.5 14.0859C430.36 14.3445 430.291 14.6577 430.291 15.0256ZM446.045 14.4091C446.045 15.5062 445.839 16.4458 445.428 17.228C445.02 18.0069 444.464 18.6035 443.758 19.0178C443.055 19.4321 442.258 19.6392 441.366 19.6392C440.475 19.6392 439.676 19.4321 438.97 19.0178C438.267 18.6001 437.711 18.0019 437.3 17.223C436.892 16.4408 436.688 15.5028 436.688 14.4091C436.688 13.312 436.892 12.3741 437.3 11.5952C437.711 10.813 438.267 10.2147 438.97 9.80043C439.676 9.38613 440.475 9.17898 441.366 9.17898C442.258 9.17898 443.055 9.38613 443.758 9.80043C444.464 10.2147 445.02 10.813 445.428 11.5952C445.839 12.3741 446.045 13.312 446.045 14.4091ZM444.19 14.4091C444.19 13.6368 444.069 12.9856 443.827 12.4553C443.589 11.9216 443.257 11.5189 442.833 11.2472C442.409 10.9721 441.92 10.8345 441.366 10.8345C440.813 10.8345 440.324 10.9721 439.9 11.2472C439.475 11.5189 439.142 11.9216 438.9 12.4553C438.662 12.9856 438.542 13.6368 438.542 14.4091C438.542 15.1813 438.662 15.8343 438.9 16.3679C439.142 16.8982 439.475 17.3009 439.9 17.576C440.324 17.8478 440.813 17.9837 441.366 17.9837C441.92 17.9837 442.409 17.8478 442.833 17.576C443.257 17.3009 443.589 16.8982 443.827 16.3679C444.069 15.8343 444.19 15.1813 444.19 14.4091ZM453.112 12.1172C453.065 11.683 452.87 11.3449 452.525 11.103C452.184 10.861 451.74 10.7401 451.193 10.7401C450.808 10.7401 450.478 10.7981 450.203 10.9141C449.928 11.0301 449.718 11.1875 449.572 11.3864C449.426 11.5852 449.352 11.8123 449.348 12.0675C449.348 12.2796 449.396 12.4635 449.492 12.6193C449.592 12.7751 449.726 12.9077 449.895 13.017C450.064 13.1231 450.251 13.2126 450.457 13.2855C450.662 13.3584 450.87 13.4197 451.078 13.4695L452.033 13.7081C452.417 13.7976 452.787 13.9186 453.142 14.071C453.5 14.2235 453.819 14.4157 454.101 14.6477C454.386 14.8797 454.612 15.1598 454.777 15.4879C454.943 15.8161 455.026 16.2005 455.026 16.6413C455.026 17.2379 454.873 17.7633 454.568 18.2173C454.263 18.6681 453.823 19.0211 453.246 19.2763C452.673 19.5282 451.978 19.6541 451.163 19.6541C450.371 19.6541 449.683 19.5315 449.1 19.2862C448.52 19.041 448.066 18.683 447.737 18.2124C447.413 17.7417 447.237 17.1683 447.21 16.4922H449.025C449.052 16.8468 449.161 17.1418 449.353 17.3771C449.545 17.6125 449.796 17.7881 450.104 17.9041C450.415 18.0201 450.763 18.0781 451.148 18.0781C451.549 18.0781 451.9 18.0185 452.202 17.8991C452.507 17.7765 452.746 17.6075 452.918 17.392C453.09 17.1733 453.178 16.9181 453.181 16.6264C453.178 16.3613 453.1 16.1425 452.948 15.9702C452.795 15.7945 452.581 15.6487 452.306 15.5327C452.035 15.4134 451.716 15.3073 451.352 15.2145L450.193 14.9162C449.355 14.7008 448.692 14.3743 448.205 13.9368C447.721 13.496 447.479 12.911 447.479 12.1818C447.479 11.5819 447.641 11.0566 447.966 10.6058C448.294 10.1551 448.74 9.8054 449.304 9.55682C449.867 9.30492 450.505 9.17898 451.218 9.17898C451.94 9.17898 452.573 9.30492 453.117 9.55682C453.664 9.8054 454.093 10.1518 454.404 10.5959C454.716 11.0367 454.877 11.5438 454.887 12.1172H453.112Z" fill="#F1EFEF"/>
<rect x="466" width="93" height="28" rx="6" fill="#3C46C9"/>
<rect x="472" y="5" width="18" height="18" rx="3.5" fill="#F1EFEF"/>
<path opacity="0.4" d="M477.562 17.4375C476 17.4375 474.75 16.5 474.75 14.3125C474.75 11.8125 476.625 10.5625 481 10.5625C485.375 10.5625 487.25 11.8125 487.25 14.3125C487.25 16.5 486 17.4375 484.438 17.4375C482.875 17.4375 481.938 15.875 481 15.875C480.062 15.875 479.125 17.4375 477.562 17.4375Z" fill="#3C46C9"/>
<path d="M477.562 17.4375C476 17.4375 474.75 16.5 474.75 14.3125C474.75 11.8125 476.625 10.5625 481 10.5625C485.375 10.5625 487.25 11.8125 487.25 14.3125C487.25 16.5 486 17.4375 484.438 17.4375C482.875 17.4375 481.938 15.875 481 15.875C480.062 15.875 479.125 17.4375 477.562 17.4375Z" stroke="#3C46C9" stroke-width="1.25" stroke-linecap="round"/>
<path d="M501.964 11.8636L499.245 19.5H497.256L494.537 11.8636H496.456L498.211 17.5362H498.29L500.05 11.8636H501.964ZM503 19.5V11.8636H504.799V19.5H503ZM503.904 10.7798C503.619 10.7798 503.374 10.6854 503.169 10.4964C502.963 10.3042 502.86 10.0739 502.86 9.8054C502.86 9.53362 502.963 9.30327 503.169 9.11435C503.374 8.92211 503.619 8.82599 503.904 8.82599C504.193 8.82599 504.438 8.92211 504.64 9.11435C504.846 9.30327 504.948 9.53362 504.948 9.8054C504.948 10.0739 504.846 10.3042 504.64 10.4964C504.438 10.6854 504.193 10.7798 503.904 10.7798ZM512.475 13.8821L510.835 14.0611C510.788 13.8954 510.707 13.7396 510.591 13.5938C510.479 13.4479 510.326 13.3303 510.134 13.2408C509.942 13.1513 509.706 13.1065 509.428 13.1065C509.053 13.1065 508.738 13.1877 508.483 13.3501C508.231 13.5125 508.107 13.723 508.11 13.9815C508.107 14.2036 508.188 14.3842 508.354 14.5234C508.523 14.6626 508.801 14.777 509.189 14.8665L510.492 15.1449C511.214 15.3007 511.751 15.5476 512.103 15.8857C512.457 16.2237 512.636 16.6662 512.639 17.2131C512.636 17.6937 512.495 18.1179 512.217 18.4858C511.942 18.8504 511.559 19.1354 511.068 19.3409C510.578 19.5464 510.014 19.6491 509.378 19.6491C508.443 19.6491 507.691 19.4536 507.121 19.0625C506.551 18.6681 506.211 18.1196 506.102 17.4169L507.857 17.2479C507.936 17.5926 508.105 17.8527 508.364 18.0284C508.622 18.2041 508.959 18.2919 509.373 18.2919C509.801 18.2919 510.144 18.2041 510.402 18.0284C510.664 17.8527 510.795 17.6357 510.795 17.3771C510.795 17.1584 510.711 16.9777 510.541 16.8352C510.376 16.6927 510.117 16.5833 509.766 16.5071L508.463 16.2337C507.731 16.0812 507.189 15.8243 506.838 15.4631C506.486 15.0985 506.312 14.6378 506.316 14.081C506.312 13.6103 506.44 13.2027 506.698 12.858C506.96 12.5099 507.323 12.2415 507.787 12.0526C508.255 11.8603 508.793 11.7642 509.403 11.7642C510.298 11.7642 511.002 11.9548 511.516 12.3359C512.033 12.7171 512.353 13.2325 512.475 13.8821ZM513.914 19.5V11.8636H515.713V19.5H513.914ZM514.818 10.7798C514.533 10.7798 514.288 10.6854 514.083 10.4964C513.877 10.3042 513.774 10.0739 513.774 9.8054C513.774 9.53362 513.877 9.30327 514.083 9.11435C514.288 8.92211 514.533 8.82599 514.818 8.82599C515.107 8.82599 515.352 8.92211 515.554 9.11435C515.76 9.30327 515.862 9.53362 515.862 9.8054C515.862 10.0739 515.76 10.3042 515.554 10.4964C515.352 10.6854 515.107 10.7798 514.818 10.7798ZM520.685 19.6491C519.939 19.6491 519.293 19.4851 518.746 19.157C518.199 18.8288 517.775 18.3698 517.473 17.7798C517.175 17.1899 517.026 16.5005 517.026 15.7116C517.026 14.9228 517.175 14.2318 517.473 13.6385C517.775 13.0452 518.199 12.5845 518.746 12.2564C519.293 11.9283 519.939 11.7642 520.685 11.7642C521.431 11.7642 522.077 11.9283 522.624 12.2564C523.171 12.5845 523.593 13.0452 523.892 13.6385C524.193 14.2318 524.344 14.9228 524.344 15.7116C524.344 16.5005 524.193 17.1899 523.892 17.7798C523.593 18.3698 523.171 18.8288 522.624 19.157C522.077 19.4851 521.431 19.6491 520.685 19.6491ZM520.695 18.2074C521.099 18.2074 521.437 18.0964 521.709 17.8743C521.981 17.6489 522.183 17.3473 522.316 16.9695C522.451 16.5916 522.519 16.1707 522.519 15.7067C522.519 15.2393 522.451 14.8168 522.316 14.4389C522.183 14.0578 521.981 13.7545 521.709 13.5291C521.437 13.3037 521.099 13.1911 520.695 13.1911C520.281 13.1911 519.936 13.3037 519.661 13.5291C519.389 13.7545 519.185 14.0578 519.049 14.4389C518.917 14.8168 518.85 15.2393 518.85 15.7067C518.85 16.1707 518.917 16.5916 519.049 16.9695C519.185 17.3473 519.389 17.6489 519.661 17.8743C519.936 18.0964 520.281 18.2074 520.695 18.2074ZM527.461 15.0256V19.5H525.661V11.8636H527.382V13.1612H527.471C527.647 12.7337 527.927 12.3939 528.311 12.142C528.699 11.8902 529.178 11.7642 529.748 11.7642C530.275 11.7642 530.734 11.8769 531.125 12.1023C531.52 12.3277 531.825 12.6541 532.04 13.0817C532.259 13.5092 532.366 14.0279 532.363 14.6378V19.5H530.563V14.9162C530.563 14.4058 530.431 14.0064 530.166 13.718C529.904 13.4297 529.541 13.2855 529.077 13.2855C528.762 13.2855 528.482 13.3551 528.237 13.4943C527.995 13.6302 527.804 13.8274 527.665 14.0859C527.529 14.3445 527.461 14.6577 527.461 15.0256ZM543.16 14.4091C543.16 15.5062 542.955 16.4458 542.544 17.228C542.136 18.0069 541.579 18.6035 540.873 19.0178C540.171 19.4321 539.374 19.6392 538.482 19.6392C537.59 19.6392 536.792 19.4321 536.086 19.0178C535.383 18.6001 534.826 18.0019 534.415 17.223C534.008 16.4408 533.804 15.5028 533.804 14.4091C533.804 13.312 534.008 12.3741 534.415 11.5952C534.826 10.813 535.383 10.2147 536.086 9.80043C536.792 9.38613 537.59 9.17898 538.482 9.17898C539.374 9.17898 540.171 9.38613 540.873 9.80043C541.579 10.2147 542.136 10.813 542.544 11.5952C542.955 12.3741 543.16 13.312 543.16 14.4091ZM541.306 14.4091C541.306 13.6368 541.185 12.9856 540.943 12.4553C540.704 11.9216 540.373 11.5189 539.949 11.2472C539.524 10.9721 539.036 10.8345 538.482 10.8345C537.929 10.8345 537.44 10.9721 537.015 11.2472C536.591 11.5189 536.258 11.9216 536.016 12.4553C535.777 12.9856 535.658 13.6368 535.658 14.4091C535.658 15.1813 535.777 15.8343 536.016 16.3679C536.258 16.8982 536.591 17.3009 537.015 17.576C537.44 17.8478 537.929 17.9837 538.482 17.9837C539.036 17.9837 539.524 17.8478 539.949 17.576C540.373 17.3009 540.704 16.8982 540.943 16.3679C541.185 15.8343 541.306 15.1813 541.306 14.4091ZM550.227 12.1172C550.181 11.683 549.985 11.3449 549.641 11.103C549.299 10.861 548.855 10.7401 548.308 10.7401C547.924 10.7401 547.594 10.7981 547.319 10.9141C547.044 11.0301 546.834 11.1875 546.688 11.3864C546.542 11.5852 546.467 11.8123 546.464 12.0675C546.464 12.2796 546.512 12.4635 546.608 12.6193C546.708 12.7751 546.842 12.9077 547.011 13.017C547.18 13.1231 547.367 13.2126 547.573 13.2855C547.778 13.3584 547.985 13.4197 548.194 13.4695L549.149 13.7081C549.533 13.7976 549.903 13.9186 550.257 14.071C550.615 14.2235 550.935 14.4157 551.217 14.6477C551.502 14.8797 551.727 15.1598 551.893 15.4879C552.059 15.8161 552.142 16.2005 552.142 16.6413C552.142 17.2379 551.989 17.7633 551.684 18.2173C551.379 18.6681 550.938 19.0211 550.362 19.2763C549.788 19.5282 549.094 19.6541 548.279 19.6541C547.486 19.6541 546.799 19.5315 546.215 19.2862C545.635 19.041 545.181 18.683 544.853 18.2124C544.528 17.7417 544.353 17.1683 544.326 16.4922H546.141C546.167 16.8468 546.277 17.1418 546.469 17.3771C546.661 17.6125 546.911 17.7881 547.22 17.9041C547.531 18.0201 547.879 18.0781 548.264 18.0781C548.665 18.0781 549.016 18.0185 549.318 17.8991C549.623 17.7765 549.861 17.6075 550.034 17.392C550.206 17.1733 550.294 16.9181 550.297 16.6264C550.294 16.3613 550.216 16.1425 550.063 15.9702C549.911 15.7945 549.697 15.6487 549.422 15.5327C549.15 15.4134 548.832 15.3073 548.468 15.2145L547.309 14.9162C546.471 14.7008 545.808 14.3743 545.32 13.9368C544.837 13.496 544.595 12.911 544.595 12.1818C544.595 11.5819 544.757 11.0566 545.082 10.6058C545.41 10.1551 545.856 9.8054 546.419 9.55682C546.983 9.30492 547.621 9.17898 548.333 9.17898C549.056 9.17898 549.689 9.30492 550.232 9.55682C550.779 9.8054 551.209 10.1518 551.52 10.5959C551.832 11.0367 551.992 11.5438 552.002 12.1172H550.227Z" fill="#F1EFEF"/>
<rect x="119" y="32" width="164" height="28" rx="6" fill="#3C46C9"/>
<rect x="125" y="37" width="18" height="18" rx="3.5" fill="#F1EFEF"/>
<path d="M134 52.25H133.062C130.705 52.25 129.527 52.25 128.795 51.5177C128.062 50.7855 128.062 49.607 128.063 47.2499L128.063 44.75C128.063 42.393 128.063 41.2145 128.795 40.4822C129.527 39.75 130.706 39.75 133.062 39.75H133.687C136.044 39.75 137.223 39.75 137.955 40.4822C138.687 41.2145 138.687 42.393 138.687 44.75V45.375" stroke="#3C46C9" stroke-width="1.25" stroke-linecap="round" stroke-linejoin="round"/>
<path d="M130.875 42.875H135.875M130.875 46H133.688" stroke="#3C46C9" stroke-width="1.25" stroke-linecap="round" stroke-linejoin="round"/>
<path d="M137.438 51.4829C138.542 51.4829 139.438 50.5672 139.438 49.4375C139.438 48.3078 138.542 47.3921 137.438 47.3921M137.438 51.4829C136.333 51.4829 135.438 50.5672 135.438 49.4375C135.438 48.3078 136.333 47.3921 137.438 47.3921M137.438 51.4829V52.25M137.438 47.3921V46.625M135.62 48.3218L134.938 47.9034M139.938 50.9716L139.256 50.5532M139.255 48.3218L139.937 47.9034M134.938 50.9716L135.619 50.5532" stroke="#3C46C9" stroke-width="1.25" stroke-linecap="round"/>
<path opacity="0.4" d="M138.687 44.75V47.25C138.687 47.4552 138.687 47.6516 138.687 47.8394C138.345 47.5592 137.91 47.3916 137.438 47.3916C136.333 47.3916 135.438 48.3074 135.438 49.4371C135.438 50.5668 136.333 51.4825 137.438 51.4825C137.665 51.4825 137.883 51.4439 138.086 51.3727C138.045 51.423 138.002 51.4713 137.955 51.5177C137.223 52.25 136.044 52.25 133.687 52.25H133.062C130.705 52.25 129.527 52.25 128.795 51.5177C128.062 50.7855 128.062 49.607 128.063 47.2499L128.063 44.75C128.063 42.393 128.063 41.2145 128.795 40.4822C129.527 39.75 130.706 39.75 133.062 39.75H133.687C136.044 39.75 137.223 39.75 137.955 40.4822C138.687 41.2145 138.687 42.393 138.687 44.75Z" fill="#3C46C9"/>
<path d="M149.597 51.5H147.628L151.213 41.3182H153.49L157.079 51.5H155.11L152.391 43.4062H152.311L149.597 51.5ZM149.661 47.5078H155.031V48.9893H149.661V47.5078ZM158.131 54.3636V43.8636H159.9V45.1264H160.005C160.098 44.9408 160.229 44.7436 160.398 44.5348C160.567 44.3227 160.795 44.142 161.084 43.9929C161.372 43.8404 161.74 43.7642 162.187 43.7642C162.777 43.7642 163.309 43.915 163.783 44.2166C164.261 44.5149 164.638 44.9574 164.917 45.544C165.199 46.1274 165.339 46.8433 165.339 47.6918C165.339 48.5303 165.202 49.2429 164.927 49.8295C164.652 50.4162 164.277 50.8636 163.803 51.1719C163.329 51.4801 162.792 51.6342 162.192 51.6342C161.755 51.6342 161.392 51.5613 161.104 51.4155C160.815 51.2696 160.583 51.094 160.408 50.8885C160.235 50.6797 160.101 50.4825 160.005 50.2969H159.93V54.3636H158.131ZM159.895 47.6818C159.895 48.1757 159.965 48.6082 160.104 48.9794C160.247 49.3506 160.451 49.6406 160.716 49.8494C160.984 50.0549 161.309 50.1577 161.69 50.1577C162.088 50.1577 162.421 50.0516 162.69 49.8395C162.958 49.6241 163.16 49.3307 163.296 48.9595C163.435 48.585 163.505 48.1591 163.505 47.6818C163.505 47.2079 163.437 46.7869 163.301 46.419C163.165 46.0511 162.963 45.7628 162.694 45.554C162.426 45.3452 162.091 45.2408 161.69 45.2408C161.306 45.2408 160.979 45.3419 160.711 45.544C160.442 45.7462 160.239 46.0296 160.099 46.3942C159.963 46.7588 159.895 47.188 159.895 47.6818ZM168.868 51.6541C168.384 51.6541 167.948 51.5679 167.56 51.3956C167.176 51.2199 166.871 50.9614 166.646 50.62C166.424 50.2786 166.313 49.8577 166.313 49.3572C166.313 48.9264 166.392 48.5701 166.551 48.2884C166.71 48.0066 166.927 47.7812 167.203 47.6122C167.478 47.4432 167.788 47.3156 168.132 47.2294C168.48 47.1399 168.84 47.0753 169.211 47.0355C169.659 46.9891 170.021 46.9477 170.3 46.9112C170.578 46.8714 170.78 46.8118 170.906 46.7322C171.036 46.6494 171.1 46.5218 171.1 46.3494V46.3196C171.1 45.9451 170.989 45.6551 170.767 45.4496C170.545 45.2441 170.225 45.1413 169.808 45.1413C169.367 45.1413 169.017 45.2375 168.759 45.4297C168.503 45.6219 168.331 45.849 168.242 46.1108L166.561 45.8722C166.694 45.4081 166.913 45.0204 167.217 44.7088C167.522 44.3939 167.895 44.1586 168.336 44.0028C168.777 43.8438 169.264 43.7642 169.798 43.7642C170.166 43.7642 170.532 43.8073 170.896 43.8935C171.261 43.9796 171.594 44.1222 171.896 44.321C172.197 44.5166 172.439 44.7834 172.622 45.1214C172.807 45.4595 172.9 45.8821 172.9 46.3892V51.5H171.17V50.451H171.11C171.001 50.6631 170.847 50.862 170.648 51.0476C170.452 51.2299 170.205 51.3774 169.907 51.4901C169.612 51.5994 169.266 51.6541 168.868 51.6541ZM169.335 50.3317C169.697 50.3317 170.01 50.2604 170.275 50.1179C170.54 49.9721 170.744 49.7798 170.886 49.5412C171.032 49.3026 171.105 49.0424 171.105 48.7607V47.8608C171.049 47.9072 170.953 47.9503 170.817 47.9901C170.684 48.0298 170.535 48.0646 170.369 48.0945C170.204 48.1243 170.04 48.1508 169.877 48.174C169.715 48.1972 169.574 48.2171 169.455 48.2337C169.186 48.2701 168.946 48.3298 168.734 48.4126C168.522 48.4955 168.354 48.6115 168.232 48.7607C168.109 48.9065 168.048 49.0954 168.048 49.3274C168.048 49.6589 168.169 49.9091 168.411 50.0781C168.653 50.2472 168.961 50.3317 169.335 50.3317ZM177.831 51.6491C177.068 51.6491 176.414 51.4818 175.867 51.147C175.323 50.8123 174.904 50.3499 174.609 49.7599C174.317 49.1667 174.172 48.4839 174.172 47.7116C174.172 46.9361 174.321 46.2517 174.619 45.6584C174.917 45.0618 175.338 44.5978 175.882 44.2663C176.429 43.9316 177.075 43.7642 177.821 43.7642C178.44 43.7642 178.989 43.8786 179.466 44.1072C179.947 44.3326 180.33 44.6525 180.615 45.0668C180.9 45.4777 181.062 45.9583 181.102 46.5085H179.382C179.312 46.1406 179.146 45.834 178.885 45.5888C178.626 45.3402 178.28 45.2159 177.846 45.2159C177.478 45.2159 177.154 45.3153 176.876 45.5142C176.598 45.7098 176.381 45.9915 176.225 46.3594C176.072 46.7273 175.996 47.1681 175.996 47.6818C175.996 48.2022 176.072 48.6496 176.225 49.0241C176.377 49.3954 176.591 49.6821 176.866 49.8842C177.145 50.0831 177.471 50.1825 177.846 50.1825C178.111 50.1825 178.348 50.1328 178.556 50.0334C178.769 49.9306 178.946 49.7831 179.088 49.5909C179.231 49.3987 179.329 49.165 179.382 48.8899H181.102C181.059 49.4302 180.9 49.9091 180.625 50.3267C180.35 50.741 179.975 51.0658 179.501 51.3011C179.027 51.5331 178.47 51.6491 177.831 51.6491ZM184.169 47.0256V51.5H182.37V41.3182H184.13V45.1612H184.219C184.398 44.7304 184.675 44.3906 185.049 44.142C185.427 43.8902 185.908 43.7642 186.491 43.7642C187.021 43.7642 187.484 43.8752 187.878 44.0973C188.273 44.3194 188.578 44.6442 188.793 45.0717C189.012 45.4993 189.121 46.0213 189.121 46.6378V51.5H187.321V46.9162C187.321 46.4025 187.189 46.0031 186.924 45.718C186.662 45.4297 186.294 45.2855 185.82 45.2855C185.502 45.2855 185.217 45.3551 184.965 45.4943C184.716 45.6302 184.521 45.8274 184.378 46.0859C184.239 46.3445 184.169 46.6577 184.169 47.0256ZM194.126 51.6491C193.361 51.6491 192.699 51.4901 192.143 51.1719C191.589 50.8504 191.163 50.3963 190.865 49.8097C190.567 49.2197 190.418 48.5253 190.418 47.7266C190.418 46.9411 190.567 46.2517 190.865 45.6584C191.167 45.0618 191.588 44.5978 192.128 44.2663C192.668 43.9316 193.303 43.7642 194.032 43.7642C194.503 43.7642 194.947 43.8404 195.364 43.9929C195.785 44.142 196.156 44.3741 196.478 44.6889C196.803 45.0038 197.058 45.4048 197.244 45.892C197.429 46.3759 197.522 46.9527 197.522 47.6222V48.174H191.263V46.9609H195.797C195.793 46.6162 195.719 46.3097 195.573 46.0412C195.427 45.7694 195.223 45.5556 194.962 45.3999C194.703 45.2441 194.401 45.1662 194.057 45.1662C193.689 45.1662 193.366 45.2557 193.087 45.4347C192.809 45.6103 192.592 45.8423 192.436 46.1307C192.284 46.4157 192.206 46.7289 192.202 47.0703V48.1293C192.202 48.5734 192.284 48.9545 192.446 49.2727C192.608 49.5876 192.835 49.8295 193.127 49.9986C193.419 50.1643 193.76 50.2472 194.151 50.2472C194.413 50.2472 194.65 50.2107 194.862 50.1378C195.074 50.0616 195.258 49.9505 195.414 49.8047C195.57 49.6589 195.687 49.4782 195.767 49.2628L197.447 49.4517C197.341 49.8958 197.139 50.2836 196.841 50.6151C196.546 50.9432 196.168 51.1984 195.707 51.3807C195.247 51.5597 194.72 51.6491 194.126 51.6491ZM202.077 51.5V50.1676L205.612 46.7024C205.95 46.361 206.232 46.0578 206.457 45.7926C206.683 45.5275 206.852 45.2706 206.964 45.022C207.077 44.7734 207.133 44.5083 207.133 44.2266C207.133 43.9051 207.06 43.63 206.915 43.4013C206.769 43.1693 206.568 42.9903 206.313 42.8643C206.058 42.7384 205.768 42.6754 205.443 42.6754C205.108 42.6754 204.815 42.745 204.563 42.8842C204.311 43.0201 204.116 43.214 203.976 43.4659C203.841 43.7178 203.773 44.0178 203.773 44.3658H202.018C202.018 43.7195 202.165 43.1577 202.46 42.6804C202.755 42.2031 203.161 41.8336 203.678 41.5717C204.198 41.3099 204.795 41.179 205.468 41.179C206.151 41.179 206.751 41.3066 207.268 41.5618C207.785 41.817 208.186 42.1667 208.471 42.6108C208.759 43.0549 208.903 43.562 208.903 44.1321C208.903 44.5133 208.83 44.8878 208.684 45.2557C208.539 45.6236 208.282 46.0312 207.914 46.4787C207.549 46.9261 207.037 47.468 206.378 48.1044L204.623 49.8892V49.9588H209.057V51.5H202.077ZM211.691 51.6094C211.39 51.6094 211.131 51.5033 210.916 51.2912C210.7 51.0791 210.594 50.8205 210.597 50.5156C210.594 50.2173 210.7 49.9621 210.916 49.75C211.131 49.5379 211.39 49.4318 211.691 49.4318C211.983 49.4318 212.236 49.5379 212.452 49.75C212.671 49.9621 212.782 50.2173 212.785 50.5156C212.782 50.7178 212.729 50.9018 212.626 51.0675C212.526 51.2332 212.394 51.3658 212.228 51.4652C212.066 51.5613 211.887 51.6094 211.691 51.6094ZM217.78 51.6939C216.961 51.6939 216.259 51.4867 215.672 51.0724C215.089 50.6548 214.64 50.0533 214.325 49.2678C214.013 48.4789 213.858 47.5294 213.858 46.419C213.861 45.3087 214.018 44.3641 214.33 43.5852C214.645 42.803 215.094 42.2064 215.677 41.7955C216.264 41.3845 216.965 41.179 217.78 41.179C218.595 41.179 219.296 41.3845 219.883 41.7955C220.47 42.2064 220.919 42.803 221.23 43.5852C221.545 44.3674 221.703 45.312 221.703 46.419C221.703 47.5327 221.545 48.4839 221.23 49.2727C220.919 50.0582 220.47 50.6581 219.883 51.0724C219.3 51.4867 218.599 51.6939 217.78 51.6939ZM217.78 50.1378C218.416 50.1378 218.919 49.8246 219.287 49.1982C219.658 48.5684 219.843 47.642 219.843 46.419C219.843 45.6103 219.759 44.9309 219.59 44.3807C219.421 43.8305 219.182 43.4162 218.874 43.1378C218.566 42.8561 218.201 42.7152 217.78 42.7152C217.147 42.7152 216.647 43.0301 216.279 43.6598C215.911 44.2862 215.725 45.206 215.722 46.419C215.719 47.2311 215.8 47.9138 215.965 48.4673C216.135 49.0208 216.373 49.4384 216.681 49.7202C216.99 49.9986 217.356 50.1378 217.78 50.1378ZM226.507 51.5V41.3182H228.351V49.9538H232.835V51.5H226.507ZM234.147 51.5V43.8636H235.946V51.5H234.147ZM235.052 42.7798C234.767 42.7798 234.521 42.6854 234.316 42.4964C234.11 42.3042 234.008 42.0739 234.008 41.8054C234.008 41.5336 234.11 41.3033 234.316 41.1143C234.521 40.9221 234.767 40.826 235.052 40.826C235.34 40.826 235.585 40.9221 235.787 41.1143C235.993 41.3033 236.096 41.5336 236.096 41.8054C236.096 42.0739 235.993 42.3042 235.787 42.4964C235.585 42.6854 235.34 42.7798 235.052 42.7798ZM240.918 51.6491C240.156 51.6491 239.501 51.4818 238.954 51.147C238.411 50.8123 237.991 50.3499 237.697 49.7599C237.405 49.1667 237.259 48.4839 237.259 47.7116C237.259 46.9361 237.408 46.2517 237.706 45.6584C238.005 45.0618 238.426 44.5978 238.969 44.2663C239.516 43.9316 240.162 43.7642 240.908 43.7642C241.528 43.7642 242.076 43.8786 242.554 44.1072C243.034 44.3326 243.417 44.6525 243.702 45.0668C243.987 45.4777 244.15 45.9583 244.189 46.5085H242.469C242.4 46.1406 242.234 45.834 241.972 45.5888C241.714 45.3402 241.367 45.2159 240.933 45.2159C240.565 45.2159 240.242 45.3153 239.964 45.5142C239.685 45.7098 239.468 45.9915 239.312 46.3594C239.16 46.7273 239.084 47.1681 239.084 47.6818C239.084 48.2022 239.16 48.6496 239.312 49.0241C239.465 49.3954 239.679 49.6821 239.954 49.8842C240.232 50.0831 240.558 50.1825 240.933 50.1825C241.198 50.1825 241.435 50.1328 241.644 50.0334C241.856 49.9306 242.033 49.7831 242.176 49.5909C242.318 49.3987 242.416 49.165 242.469 48.8899H244.189C244.146 49.4302 243.987 49.9091 243.712 50.3267C243.437 50.741 243.063 51.0658 242.589 51.3011C242.115 51.5331 241.558 51.6491 240.918 51.6491ZM248.838 51.6491C248.072 51.6491 247.411 51.4901 246.854 51.1719C246.301 50.8504 245.875 50.3963 245.577 49.8097C245.278 49.2197 245.129 48.5253 245.129 47.7266C245.129 46.9411 245.278 46.2517 245.577 45.6584C245.878 45.0618 246.299 44.5978 246.839 44.2663C247.38 43.9316 248.014 43.7642 248.743 43.7642C249.214 43.7642 249.658 43.8404 250.076 43.9929C250.497 44.142 250.868 44.3741 251.189 44.6889C251.514 45.0038 251.769 45.4048 251.955 45.892C252.141 46.3759 252.233 46.9527 252.233 47.6222V48.174H245.974V46.9609H250.508C250.505 46.6162 250.43 46.3097 250.285 46.0412C250.139 45.7694 249.935 45.5556 249.673 45.3999C249.415 45.2441 249.113 45.1662 248.768 45.1662C248.4 45.1662 248.077 45.2557 247.799 45.4347C247.52 45.6103 247.303 45.8423 247.148 46.1307C246.995 46.4157 246.917 46.7289 246.914 47.0703V48.1293C246.914 48.5734 246.995 48.9545 247.158 49.2727C247.32 49.5876 247.547 49.8295 247.839 49.9986C248.13 50.1643 248.472 50.2472 248.863 50.2472C249.125 50.2472 249.362 50.2107 249.574 50.1378C249.786 50.0616 249.97 49.9505 250.126 49.8047C250.281 49.6589 250.399 49.4782 250.479 49.2628L252.159 49.4517C252.053 49.8958 251.851 50.2836 251.552 50.6151C251.257 50.9432 250.88 51.1984 250.419 51.3807C249.958 51.5597 249.431 51.6491 248.838 51.6491ZM255.346 47.0256V51.5H253.546V43.8636H255.266V45.1612H255.356C255.531 44.7337 255.811 44.3939 256.196 44.142C256.584 43.8902 257.063 43.7642 257.633 43.7642C258.16 43.7642 258.619 43.8769 259.01 44.1023C259.404 44.3277 259.709 44.6541 259.925 45.0817C260.143 45.5092 260.251 46.0279 260.248 46.6378V51.5H258.448V46.9162C258.448 46.4058 258.315 46.0064 258.05 45.718C257.788 45.4297 257.426 45.2855 256.962 45.2855C256.647 45.2855 256.367 45.3551 256.121 45.4943C255.879 45.6302 255.689 45.8274 255.55 46.0859C255.414 46.3445 255.346 46.6577 255.346 47.0256ZM267.903 45.8821L266.262 46.0611C266.216 45.8954 266.135 45.7396 266.019 45.5938C265.906 45.4479 265.753 45.3303 265.561 45.2408C265.369 45.1513 265.134 45.1065 264.855 45.1065C264.481 45.1065 264.166 45.1877 263.911 45.3501C263.659 45.5125 263.534 45.723 263.538 45.9815C263.534 46.2036 263.616 46.3842 263.781 46.5234C263.95 46.6626 264.229 46.777 264.617 46.8665L265.919 47.1449C266.642 47.3007 267.179 47.5476 267.53 47.8857C267.885 48.2237 268.064 48.6662 268.067 49.2131C268.064 49.6937 267.923 50.1179 267.644 50.4858C267.369 50.8504 266.986 51.1354 266.496 51.3409C266.005 51.5464 265.442 51.6491 264.806 51.6491C263.871 51.6491 263.118 51.4536 262.548 51.0625C261.978 50.6681 261.639 50.1196 261.529 49.4169L263.284 49.2479C263.364 49.5926 263.533 49.8527 263.791 50.0284C264.05 50.2041 264.386 50.2919 264.801 50.2919C265.228 50.2919 265.571 50.2041 265.83 50.0284C266.091 49.8527 266.222 49.6357 266.222 49.3771C266.222 49.1584 266.138 48.9777 265.969 48.8352C265.803 48.6927 265.545 48.5833 265.193 48.5071L263.891 48.2337C263.158 48.0812 262.616 47.8243 262.265 47.4631C261.914 47.0985 261.74 46.6378 261.743 46.081C261.74 45.6103 261.867 45.2027 262.126 44.858C262.388 44.5099 262.751 44.2415 263.215 44.0526C263.682 43.8603 264.221 43.7642 264.83 43.7642C265.725 43.7642 266.43 43.9548 266.943 44.3359C267.46 44.7171 267.78 45.2325 267.903 45.8821ZM272.722 51.6491C271.956 51.6491 271.295 51.4901 270.738 51.1719C270.184 50.8504 269.759 50.3963 269.46 49.8097C269.162 49.2197 269.013 48.5253 269.013 47.7266C269.013 46.9411 269.162 46.2517 269.46 45.6584C269.762 45.0618 270.183 44.5978 270.723 44.2663C271.263 43.9316 271.898 43.7642 272.627 43.7642C273.098 43.7642 273.542 43.8404 273.959 43.9929C274.38 44.142 274.752 44.3741 275.073 44.6889C275.398 45.0038 275.653 45.4048 275.839 45.892C276.024 46.3759 276.117 46.9527 276.117 47.6222V48.174H269.858V46.9609H274.392C274.389 46.6162 274.314 46.3097 274.168 46.0412C274.022 45.7694 273.819 45.5556 273.557 45.3999C273.298 45.2441 272.997 45.1662 272.652 45.1662C272.284 45.1662 271.961 45.2557 271.683 45.4347C271.404 45.6103 271.187 45.8423 271.031 46.1307C270.879 46.4157 270.801 46.7289 270.798 47.0703V48.1293C270.798 48.5734 270.879 48.9545 271.041 49.2727C271.204 49.5876 271.431 49.8295 271.722 49.9986C272.014 50.1643 272.355 50.2472 272.746 50.2472C273.008 50.2472 273.245 50.2107 273.457 50.1378C273.669 50.0616 273.853 49.9505 274.009 49.8047C274.165 49.6589 274.283 49.4782 274.362 49.2628L276.043 49.4517C275.937 49.8958 275.734 50.2836 275.436 50.6151C275.141 50.9432 274.763 51.1984 274.303 51.3807C273.842 51.5597 273.315 51.6491 272.722 51.6491Z" fill="#F1EFEF"/>
<rect x="287" y="32" width="153" height="28" rx="6" fill="#3C46C9"/>
<rect x="293" y="37" width="18" height="18" rx="3.5" fill="#F1EFEF"/>
<path opacity="0.4" d="M307.294 44.125H296.706C296.688 44.6901 296.688 45.3547 296.688 46.152V46.473C296.688 47.851 296.689 48.8263 296.781 49.5653C296.871 50.291 297.039 50.6934 297.304 50.9796L307.294 44.125ZM307.294 44.125C307.312 44.6901 307.312 45.3547 307.312 46.152V46.473C307.312 47.851 307.311 48.8263 307.219 49.5653C307.129 50.291 306.961 50.6934 306.696 50.9796C306.438 51.2589 306.085 51.4314 305.436 51.5257C304.763 51.6235 303.872 51.625 302.594 51.625H301.406C300.128 51.625 299.237 51.6235 298.564 51.5257C297.915 51.4314 297.562 51.2589 297.304 50.9796L307.294 44.125ZM303.82 46.6611L303.82 46.661C303.429 46.0754 302.76 45.6875 302 45.6875C301.24 45.6875 300.571 46.0754 300.18 46.661L300.18 46.6611C299.948 47.0087 299.812 47.4269 299.812 47.875C299.812 48.3231 299.948 48.7414 300.18 49.089C300.571 49.6747 301.24 50.0625 302 50.0625C302.76 50.0625 303.429 49.6747 303.82 49.089L303.82 49.089C304.052 48.7414 304.188 48.3231 304.188 47.875C304.188 47.4269 304.052 47.0087 303.82 46.6611Z" stroke="#3C46C9" stroke-width="1.25"/>
<path d="M305.75 39.75V41M298.25 39.75V41" stroke="#3C46C9" stroke-width="1.25" stroke-linecap="round" stroke-linejoin="round"/>
<path d="M296.375 43.5H307.625" stroke="#3C46C9" stroke-width="1.25" stroke-linecap="round" stroke-linejoin="round"/>
<path d="M296.062 46.152C296.062 43.4287 296.062 42.0671 296.845 41.221C297.628 40.375 298.887 40.375 301.406 40.375H302.594C305.113 40.375 306.372 40.375 307.155 41.221C307.938 42.0671 307.938 43.4287 307.938 46.152V46.473C307.938 49.1963 307.938 50.5579 307.155 51.404C306.372 52.25 305.113 52.25 302.594 52.25H301.406C298.887 52.25 297.628 52.25 296.845 51.404C296.062 50.5579 296.062 49.1963 296.062 46.473V46.152Z" stroke="#3C46C9" stroke-width="1.25" stroke-linecap="round" stroke-linejoin="round"/>
<path d="M302 49.4375V50.0625M302 49.4375C301.458 49.4375 300.98 49.1613 300.7 48.7419M302 49.4375C302.542 49.4375 303.02 49.1613 303.3 48.7419M300.7 48.7419L300.125 49.125M300.7 48.7419C300.534 48.4938 300.438 48.1957 300.438 47.875C300.438 47.5543 300.534 47.2563 300.7 47.0082M303.3 48.7419L303.875 49.125M303.3 48.7419C303.466 48.4938 303.562 48.1957 303.562 47.875C303.562 47.5543 303.466 47.2563 303.3 47.0082M302 46.3125C302.542 46.3125 303.02 46.5888 303.3 47.0082M302 46.3125C301.458 46.3125 300.98 46.5888 300.7 47.0082M302 46.3125V45.6875M303.3 47.0082L303.875 46.625M300.7 47.0082L300.125 46.625" stroke="#3C46C9" stroke-width="1.25" stroke-linecap="round"/>
<path d="M319.766 51.6392C319.05 51.6392 318.414 51.5166 317.857 51.2713C317.303 51.026 316.866 50.6847 316.544 50.2472C316.223 49.8097 316.052 49.3042 316.032 48.7308H317.902C317.918 49.0059 318.009 49.2462 318.175 49.4517C318.341 49.6539 318.561 49.8113 318.836 49.924C319.111 50.0367 319.42 50.093 319.761 50.093C320.126 50.093 320.449 50.0301 320.731 49.9041C321.012 49.7749 321.233 49.5959 321.392 49.3672C321.551 49.1385 321.629 48.875 321.625 48.5767C321.629 48.2685 321.549 47.9967 321.387 47.7614C321.224 47.526 320.989 47.3421 320.681 47.2095C320.376 47.0769 320.008 47.0107 319.577 47.0107H318.677V45.5888H319.577C319.932 45.5888 320.242 45.5275 320.507 45.4048C320.775 45.2822 320.986 45.1098 321.138 44.8878C321.291 44.6624 321.365 44.4022 321.362 44.1072C321.365 43.8189 321.301 43.5687 321.168 43.3565C321.039 43.1411 320.855 42.9737 320.616 42.8544C320.381 42.7351 320.104 42.6754 319.786 42.6754C319.474 42.6754 319.186 42.7318 318.921 42.8445C318.656 42.9571 318.442 43.1179 318.28 43.3267C318.117 43.5322 318.031 43.7775 318.021 44.0625H316.246C316.259 43.4924 316.423 42.992 316.738 42.5611C317.057 42.1269 317.481 41.7888 318.011 41.5469C318.541 41.3016 319.136 41.179 319.796 41.179C320.475 41.179 321.065 41.3066 321.566 41.5618C322.07 41.8137 322.459 42.1534 322.734 42.581C323.009 43.0085 323.147 43.4808 323.147 43.9979C323.15 44.5713 322.981 45.0518 322.64 45.4396C322.302 45.8274 321.857 46.081 321.307 46.2003V46.2798C322.023 46.3793 322.572 46.6444 322.953 47.0753C323.337 47.5028 323.528 48.0348 323.525 48.6712C323.525 49.2412 323.362 49.7517 323.037 50.2024C322.716 50.6499 322.272 51.0012 321.705 51.2564C321.142 51.5116 320.495 51.6392 319.766 51.6392ZM325.849 51.6094C325.547 51.6094 325.289 51.5033 325.073 51.2912C324.858 51.0791 324.752 50.8205 324.755 50.5156C324.752 50.2173 324.858 49.9621 325.073 49.75C325.289 49.5379 325.547 49.4318 325.849 49.4318C326.141 49.4318 326.394 49.5379 326.61 49.75C326.828 49.9621 326.939 50.2173 326.943 50.5156C326.939 50.7178 326.886 50.9018 326.784 51.0675C326.684 51.2332 326.552 51.3658 326.386 51.4652C326.223 51.5613 326.044 51.6094 325.849 51.6094ZM331.938 51.6939C331.119 51.6939 330.417 51.4867 329.83 51.0724C329.247 50.6548 328.797 50.0533 328.483 49.2678C328.171 48.4789 328.015 47.5294 328.015 46.419C328.019 45.3087 328.176 44.3641 328.488 43.5852C328.802 42.803 329.252 42.2064 329.835 41.7955C330.422 41.3845 331.123 41.179 331.938 41.179C332.753 41.179 333.454 41.3845 334.041 41.7955C334.627 42.2064 335.077 42.803 335.388 43.5852C335.703 44.3674 335.86 45.312 335.86 46.419C335.86 47.5327 335.703 48.4839 335.388 49.2727C335.077 50.0582 334.627 50.6581 334.041 51.0724C333.458 51.4867 332.757 51.6939 331.938 51.6939ZM331.938 50.1378C332.574 50.1378 333.076 49.8246 333.444 49.1982C333.815 48.5684 334.001 47.642 334.001 46.419C334.001 45.6103 333.917 44.9309 333.748 44.3807C333.578 43.8305 333.34 43.4162 333.032 43.1378C332.723 42.8561 332.359 42.7152 331.938 42.7152C331.305 42.7152 330.804 43.0301 330.436 43.6598C330.069 44.2862 329.883 45.206 329.88 46.419C329.876 47.2311 329.958 47.9138 330.123 48.4673C330.292 49.0208 330.531 49.4384 330.839 49.7202C331.147 49.9986 331.514 50.1378 331.938 50.1378ZM338.034 51.6094C337.733 51.6094 337.474 51.5033 337.259 51.2912C337.043 51.0791 336.937 50.8205 336.941 50.5156C336.937 50.2173 337.043 49.9621 337.259 49.75C337.474 49.5379 337.733 49.4318 338.034 49.4318C338.326 49.4318 338.58 49.5379 338.795 49.75C339.014 49.9621 339.125 50.2173 339.128 50.5156C339.125 50.7178 339.072 50.9018 338.969 51.0675C338.87 51.2332 338.737 51.3658 338.571 51.4652C338.409 51.5613 338.23 51.6094 338.034 51.6094ZM344.123 51.6939C343.305 51.6939 342.602 51.4867 342.015 51.0724C341.432 50.6548 340.983 50.0533 340.668 49.2678C340.357 48.4789 340.201 47.5294 340.201 46.419C340.204 45.3087 340.361 44.3641 340.673 43.5852C340.988 42.803 341.437 42.2064 342.02 41.7955C342.607 41.3845 343.308 41.179 344.123 41.179C344.939 41.179 345.64 41.3845 346.226 41.7955C346.813 42.2064 347.262 42.803 347.574 43.5852C347.888 44.3674 348.046 45.312 348.046 46.419C348.046 47.5327 347.888 48.4839 347.574 49.2727C347.262 50.0582 346.813 50.6581 346.226 51.0724C345.643 51.4867 344.942 51.6939 344.123 51.6939ZM344.123 50.1378C344.76 50.1378 345.262 49.8246 345.63 49.1982C346.001 48.5684 346.187 47.642 346.187 46.419C346.187 45.6103 346.102 44.9309 345.933 44.3807C345.764 43.8305 345.525 43.4162 345.217 43.1378C344.909 42.8561 344.544 42.7152 344.123 42.7152C343.49 42.7152 342.99 43.0301 342.622 43.6598C342.254 44.2862 342.068 45.206 342.065 46.419C342.062 47.2311 342.143 47.9138 342.309 48.4673C342.478 49.0208 342.716 49.4384 343.025 49.7202C343.333 49.9986 343.699 50.1378 344.123 50.1378Z" fill="#F1EFEF"/>
<path d="M358.801 42.5V50.5H357.863L353.504 44.2187H353.426V50.5H352.457V42.5H353.394L357.769 48.7969H357.847V42.5H358.801ZM362.887 50.625C362.345 50.625 361.87 50.4961 361.461 50.2383C361.054 49.9805 360.737 49.6198 360.508 49.1562C360.281 48.6927 360.168 48.151 360.168 47.5312C360.168 46.9062 360.281 46.3607 360.508 45.8945C360.737 45.4284 361.054 45.0664 361.461 44.8086C361.87 44.5508 362.345 44.4219 362.887 44.4219C363.428 44.4219 363.902 44.5508 364.308 44.8086C364.717 45.0664 365.035 45.4284 365.262 45.8945C365.491 46.3607 365.605 46.9062 365.605 47.5312C365.605 48.151 365.491 48.6927 365.262 49.1562C365.035 49.6198 364.717 49.9805 364.308 50.2383C363.902 50.4961 363.428 50.625 362.887 50.625ZM362.887 49.7969C363.298 49.7969 363.637 49.6914 363.902 49.4805C364.168 49.2695 364.364 48.9922 364.492 48.6484C364.62 48.3047 364.683 47.9323 364.683 47.5312C364.683 47.1302 364.62 46.7565 364.492 46.4102C364.364 46.0638 364.168 45.7839 363.902 45.5703C363.637 45.3568 363.298 45.25 362.887 45.25C362.475 45.25 362.137 45.3568 361.871 45.5703C361.605 45.7839 361.409 46.0638 361.281 46.4102C361.153 46.7565 361.09 47.1302 361.09 47.5312C361.09 47.9323 361.153 48.3047 361.281 48.6484C361.409 48.9922 361.605 49.2695 361.871 49.4805C362.137 49.6914 362.475 49.7969 362.887 49.7969ZM371.539 44.5L369.32 50.5H368.383L366.164 44.5H367.164L368.82 49.2812H368.883L370.539 44.5H371.539ZM374.891 50.625C374.313 50.625 373.815 50.4974 373.395 50.2422C372.979 49.9844 372.657 49.625 372.431 49.1641C372.207 48.7005 372.095 48.1615 372.095 47.5469C372.095 46.9323 372.207 46.3906 372.431 45.9219C372.657 45.4505 372.972 45.0833 373.376 44.8203C373.782 44.5547 374.256 44.4219 374.798 44.4219C375.11 44.4219 375.419 44.474 375.724 44.5781C376.028 44.6823 376.306 44.8516 376.556 45.0859C376.806 45.3177 377.005 45.625 377.153 46.0078C377.302 46.3906 377.376 46.862 377.376 47.4219V47.8125H372.751V47.0156H376.438C376.438 46.6771 376.371 46.375 376.235 46.1094C376.102 45.8437 375.912 45.6341 375.665 45.4805C375.42 45.3268 375.131 45.25 374.798 45.25C374.431 45.25 374.113 45.3411 373.845 45.5234C373.579 45.7031 373.375 45.9375 373.231 46.2266C373.088 46.5156 373.016 46.8255 373.016 47.1562V47.6875C373.016 48.1406 373.095 48.5247 373.251 48.8398C373.41 49.1523 373.63 49.3906 373.911 49.5547C374.192 49.7161 374.519 49.7969 374.891 49.7969C375.134 49.7969 375.352 49.763 375.548 49.6953C375.746 49.625 375.916 49.5208 376.059 49.3828C376.203 49.2422 376.313 49.0677 376.391 48.8594L377.282 49.1094C377.188 49.4115 377.031 49.6771 376.809 49.9062C376.588 50.1328 376.315 50.3099 375.989 50.4375C375.664 50.5625 375.298 50.625 374.891 50.625ZM378.613 50.5V44.5H379.504V45.4375H379.582C379.707 45.1172 379.909 44.8685 380.187 44.6914C380.466 44.5117 380.801 44.4219 381.191 44.4219C381.587 44.4219 381.917 44.5117 382.18 44.6914C382.445 44.8685 382.652 45.1172 382.801 45.4375H382.863C383.017 45.1276 383.247 44.8815 383.555 44.6992C383.862 44.5143 384.23 44.4219 384.66 44.4219C385.197 44.4219 385.635 44.5898 385.976 44.9258C386.318 45.2591 386.488 45.7786 386.488 46.4844V50.5H385.566V46.4844C385.566 46.0417 385.445 45.7253 385.203 45.5352C384.961 45.3451 384.676 45.25 384.348 45.25C383.926 45.25 383.599 45.3776 383.367 45.6328C383.135 45.8854 383.019 46.2057 383.019 46.5937V50.5H382.082V46.3906C382.082 46.0495 381.971 45.7747 381.75 45.5664C381.529 45.3555 381.243 45.25 380.894 45.25C380.655 45.25 380.431 45.3138 380.223 45.4414C380.017 45.569 379.85 45.7461 379.723 45.9727C379.598 46.1966 379.535 46.4557 379.535 46.75V50.5H378.613ZM388.134 50.5V42.5H389.056V45.4531H389.134C389.201 45.349 389.295 45.2161 389.415 45.0547C389.537 44.8906 389.712 44.7448 389.938 44.6172C390.168 44.487 390.478 44.4219 390.868 44.4219C391.373 44.4219 391.819 44.5482 392.204 44.8008C392.589 45.0534 392.89 45.4115 393.106 45.875C393.323 46.3385 393.431 46.8854 393.431 47.5156C393.431 48.151 393.323 48.7018 393.106 49.168C392.89 49.6315 392.591 49.9909 392.208 50.2461C391.825 50.4987 391.384 50.625 390.884 50.625C390.498 50.625 390.19 50.5612 389.958 50.4336C389.726 50.3034 389.548 50.1562 389.423 49.9922C389.298 49.8255 389.201 49.6875 389.134 49.5781H389.024V50.5H388.134ZM389.04 47.5C389.04 47.9531 389.106 48.3529 389.239 48.6992C389.372 49.043 389.566 49.3125 389.821 49.5078C390.076 49.7005 390.389 49.7969 390.759 49.7969C391.144 49.7969 391.466 49.6953 391.724 49.4922C391.984 49.2865 392.179 49.0104 392.31 48.6641C392.442 48.3151 392.509 47.9271 392.509 47.5C392.509 47.0781 392.444 46.6979 392.313 46.3594C392.186 46.0182 391.992 45.7487 391.731 45.5508C391.474 45.3503 391.149 45.25 390.759 45.25C390.384 45.25 390.069 45.3451 389.813 45.5352C389.558 45.7227 389.366 45.9857 389.235 46.3242C389.105 46.6602 389.04 47.0521 389.04 47.5ZM397.191 50.625C396.613 50.625 396.115 50.4974 395.695 50.2422C395.279 49.9844 394.957 49.625 394.73 49.1641C394.507 48.7005 394.395 48.1615 394.395 47.5469C394.395 46.9323 394.507 46.3906 394.73 45.9219C394.957 45.4505 395.272 45.0833 395.676 44.8203C396.082 44.5547 396.556 44.4219 397.098 44.4219C397.41 44.4219 397.719 44.474 398.023 44.5781C398.328 44.6823 398.605 44.8516 398.855 45.0859C399.105 45.3177 399.305 45.625 399.453 46.0078C399.602 46.3906 399.676 46.862 399.676 47.4219V47.8125H395.051V47.0156H398.738C398.738 46.6771 398.671 46.375 398.535 46.1094C398.402 45.8437 398.212 45.6341 397.965 45.4805C397.72 45.3268 397.431 45.25 397.098 45.25C396.73 45.25 396.413 45.3411 396.145 45.5234C395.879 45.7031 395.674 45.9375 395.531 46.2266C395.388 46.5156 395.316 46.8255 395.316 47.1562V47.6875C395.316 48.1406 395.395 48.5247 395.551 48.8398C395.71 49.1523 395.93 49.3906 396.211 49.5547C396.492 49.7161 396.819 49.7969 397.191 49.7969C397.434 49.7969 397.652 49.763 397.848 49.6953C398.046 49.625 398.216 49.5208 398.359 49.3828C398.503 49.2422 398.613 49.0677 398.691 48.8594L399.582 49.1094C399.488 49.4115 399.331 49.6771 399.109 49.9062C398.888 50.1328 398.615 50.3099 398.289 50.4375C397.964 50.5625 397.598 50.625 397.191 50.625ZM400.913 50.5V44.5H401.804V45.4062H401.866C401.976 45.1094 402.174 44.8685 402.46 44.6836C402.746 44.4987 403.069 44.4062 403.429 44.4062C403.496 44.4062 403.581 44.4076 403.683 44.4102C403.784 44.4128 403.861 44.4167 403.913 44.4219V45.3594C403.882 45.3516 403.81 45.3398 403.698 45.3242C403.589 45.306 403.473 45.2969 403.351 45.2969C403.059 45.2969 402.799 45.3581 402.569 45.4805C402.343 45.6003 402.163 45.7669 402.03 45.9805C401.9 46.1914 401.835 46.4323 401.835 46.7031V50.5H400.913ZM407.754 50.5V49.7969L410.395 46.9062C410.705 46.5677 410.96 46.2734 411.16 46.0234C411.361 45.7708 411.509 45.5339 411.606 45.3125C411.705 45.0885 411.754 44.8542 411.754 44.6094C411.754 44.3281 411.686 44.0846 411.551 43.8789C411.418 43.6732 411.236 43.5143 411.004 43.4023C410.772 43.2904 410.512 43.2344 410.223 43.2344C409.915 43.2344 409.647 43.2982 409.418 43.4258C409.192 43.5508 409.016 43.7266 408.891 43.9531C408.768 44.1797 408.707 44.4453 408.707 44.75H407.785C407.785 44.2812 407.893 43.8698 408.109 43.5156C408.326 43.1615 408.62 42.8854 408.992 42.6875C409.367 42.4896 409.788 42.3906 410.254 42.3906C410.723 42.3906 411.138 42.4896 411.5 42.6875C411.862 42.8854 412.146 43.1523 412.352 43.4883C412.557 43.8242 412.66 44.1979 412.66 44.6094C412.66 44.9036 412.607 45.1914 412.5 45.4727C412.396 45.7513 412.214 46.0625 411.953 46.4062C411.695 46.7474 411.337 47.1641 410.879 47.6562L409.082 49.5781V49.6406H412.801V50.5H407.754ZM416.859 50.6094C416.27 50.6094 415.769 50.4492 415.355 50.1289C414.941 49.806 414.624 49.3385 414.405 48.7266C414.187 48.112 414.077 47.3698 414.077 46.5C414.077 45.6354 414.187 44.8971 414.405 44.2852C414.627 43.6706 414.944 43.2018 415.359 42.8789C415.775 42.5534 416.275 42.3906 416.859 42.3906C417.442 42.3906 417.941 42.5534 418.355 42.8789C418.771 43.2018 419.089 43.6706 419.308 44.2852C419.529 44.8971 419.64 45.6354 419.64 46.5C419.64 47.3698 419.53 48.112 419.312 48.7266C419.093 49.3385 418.777 49.806 418.362 50.1289C417.948 50.4492 417.447 50.6094 416.859 50.6094ZM416.859 49.75C417.442 49.75 417.895 49.4687 418.218 48.9062C418.541 48.3437 418.702 47.5417 418.702 46.5C418.702 45.8073 418.628 45.2174 418.48 44.7305C418.334 44.2435 418.123 43.8724 417.847 43.6172C417.573 43.362 417.244 43.2344 416.859 43.2344C416.28 43.2344 415.829 43.5195 415.503 44.0898C415.178 44.6576 415.015 45.4609 415.015 46.5C415.015 47.1927 415.088 47.7812 415.234 48.2656C415.379 48.75 415.589 49.1185 415.862 49.3711C416.139 49.6237 416.471 49.75 416.859 49.75ZM420.959 50.5V49.7969L423.6 46.9062C423.91 46.5677 424.165 46.2734 424.365 46.0234C424.566 45.7708 424.714 45.5339 424.811 45.3125C424.91 45.0885 424.959 44.8542 424.959 44.6094C424.959 44.3281 424.891 44.0846 424.756 43.8789C424.623 43.6732 424.441 43.5143 424.209 43.4023C423.977 43.2904 423.717 43.2344 423.428 43.2344C423.121 43.2344 422.852 43.2982 422.623 43.4258C422.397 43.5508 422.221 43.7266 422.096 43.9531C421.974 44.1797 421.912 44.4453 421.912 44.75H420.99C420.99 44.2812 421.099 43.8698 421.315 43.5156C421.531 43.1615 421.825 42.8854 422.197 42.6875C422.572 42.4896 422.993 42.3906 423.459 42.3906C423.928 42.3906 424.343 42.4896 424.705 42.6875C425.067 42.8854 425.351 43.1523 425.557 43.4883C425.763 43.8242 425.865 44.1979 425.865 44.6094C425.865 44.9036 425.812 45.1914 425.705 45.4727C425.601 45.7513 425.419 46.0625 425.158 46.4062C424.901 46.7474 424.543 47.1641 424.084 47.6562L422.287 49.5781V49.6406H426.006V50.5H420.959ZM427.095 48.8594V48.0625L430.611 42.5H431.189V43.7344H430.798L428.142 47.9375V48H432.876V48.8594H427.095ZM430.861 50.5V48.6172V48.2461V42.5H431.782V50.5H430.861Z" fill="#C6C6C8"/>
</svg>
