<svg width="677" height="60" viewBox="0 0 677 60" fill="none" xmlns="http://www.w3.org/2000/svg">
<rect x="0.5" width="82" height="28" rx="6" fill="#936BE2"/>
<rect x="6.5" y="5" width="18" height="18" rx="3.5" fill="#F1EFEF"/>
<path opacity="0.4" d="M9.5625 14C9.5625 11.201 9.5625 9.80156 10.432 8.93202C11.3016 8.0625 12.701 8.0625 15.5 8.0625C18.2989 8.0625 19.6984 8.0625 20.568 8.93202C21.4375 9.80156 21.4375 11.201 21.4375 14C21.4375 16.7989 21.4375 18.1984 20.568 19.068C19.6984 19.9375 18.2989 19.9375 15.5 19.9375C12.701 19.9375 11.3016 19.9375 10.432 19.068C9.5625 18.1984 9.5625 16.7989 9.5625 14Z" fill="#936BE2"/>
<path d="M18 12.75L18.7666 13.4108C19.0889 13.6885 19.25 13.8274 19.25 14C19.25 14.1726 19.0889 14.3115 18.7666 14.5892L18 15.25" stroke="#936BE2" stroke-width="1.25" stroke-linecap="round" stroke-linejoin="round"/>
<path d="M13 12.75L12.2334 13.4108C11.9111 13.6885 11.75 13.8274 11.75 14C11.75 14.1726 11.9111 14.3115 12.2334 14.5892L13 15.25" stroke="#936BE2" stroke-width="1.25" stroke-linecap="round" stroke-linejoin="round"/>
<path d="M16.125 12.125L14.875 15.875" stroke="#936BE2" stroke-width="1.25" stroke-linecap="round" stroke-linejoin="round"/>
<path d="M9.5625 14C9.5625 11.201 9.5625 9.80156 10.432 8.93202C11.3016 8.0625 12.701 8.0625 15.5 8.0625C18.2989 8.0625 19.6984 8.0625 20.568 8.93202C21.4375 9.80156 21.4375 11.201 21.4375 14C21.4375 16.7989 21.4375 18.1984 20.568 19.068C19.6984 19.9375 18.2989 19.9375 15.5 19.9375C12.701 19.9375 11.3016 19.9375 10.432 19.068C9.5625 18.1984 9.5625 16.7989 9.5625 14Z" stroke="#936BE2" stroke-width="1.25"/>
<path d="M35.0856 12.1172C35.0392 11.683 34.8437 11.3449 34.499 11.103C34.1576 10.861 33.7135 10.7401 33.1666 10.7401C32.7821 10.7401 32.4523 10.7981 32.1772 10.9141C31.9021 11.0301 31.6917 11.1875 31.5458 11.3864C31.4 11.5852 31.3254 11.8123 31.3221 12.0675C31.3221 12.2796 31.3702 12.4635 31.4663 12.6193C31.5657 12.7751 31.7 12.9077 31.869 13.017C32.038 13.1231 32.2253 13.2126 32.4308 13.2855C32.6363 13.3584 32.8434 13.4197 33.0522 13.4695L34.0068 13.7081C34.3912 13.7976 34.7608 13.9186 35.1154 14.071C35.4734 14.2235 35.7932 14.4157 36.075 14.6477C36.36 14.8797 36.5854 15.1598 36.7511 15.4879C36.9168 15.8161 36.9997 16.2005 36.9997 16.6413C36.9997 17.2379 36.8472 17.7633 36.5423 18.2173C36.2374 18.6681 35.7965 19.0211 35.2198 19.2763C34.6465 19.5282 33.9521 19.6541 33.1367 19.6541C32.3446 19.6541 31.6569 19.5315 31.0735 19.2862C30.4935 19.041 30.0394 18.683 29.7113 18.2124C29.3865 17.7417 29.2108 17.1683 29.1843 16.4922H30.999C31.0255 16.8468 31.1349 17.1418 31.3271 17.3771C31.5193 17.6125 31.7696 17.7881 32.0778 17.9041C32.3894 18.0201 32.7374 18.0781 33.1218 18.0781C33.5229 18.0781 33.8742 18.0185 34.1758 17.8991C34.4807 17.7765 34.7194 17.6075 34.8917 17.392C35.0641 17.1733 35.1519 16.9181 35.1552 16.6264C35.1519 16.3613 35.074 16.1425 34.9215 15.9702C34.7691 15.7945 34.5553 15.6487 34.2802 15.5327C34.0084 15.4134 33.6903 15.3073 33.3257 15.2145L32.1673 14.9162C31.3287 14.7008 30.6659 14.3743 30.1786 13.9368C29.6947 13.496 29.4528 12.911 29.4528 12.1818C29.4528 11.5819 29.6152 11.0566 29.94 10.6058C30.2681 10.1551 30.7139 9.8054 31.2774 9.55682C31.8408 9.30492 32.4788 9.17898 33.1914 9.17898C33.914 9.17898 34.547 9.30492 35.0906 9.55682C35.6375 9.8054 36.0667 10.1518 36.3782 10.5959C36.6898 11.0367 36.8505 11.5438 36.8605 12.1172H35.0856ZM39.9305 19.5L37.7728 11.8636H39.6073L40.9497 17.233H41.0193L42.3914 11.8636H44.206L45.5782 17.2031H45.6528L46.9752 11.8636H48.8147L46.6521 19.5H44.7778L43.346 14.3395H43.2416L41.8097 19.5H39.9305ZM49.8613 19.5V11.8636H51.661V19.5H49.8613ZM50.7661 10.7798C50.4811 10.7798 50.2358 10.6854 50.0303 10.4964C49.8248 10.3042 49.7221 10.0739 49.7221 9.8054C49.7221 9.53362 49.8248 9.30327 50.0303 9.11435C50.2358 8.92211 50.4811 8.82599 50.7661 8.82599C51.0545 8.82599 51.2997 8.92211 51.5019 9.11435C51.7074 9.30327 51.8101 9.53362 51.8101 9.8054C51.8101 10.0739 51.7074 10.3042 51.5019 10.4964C51.2997 10.6854 51.0545 10.7798 50.7661 10.7798ZM57.1696 11.8636V13.2557H52.6554V11.8636H57.1696ZM53.7839 19.5V11.1428C53.7839 10.629 53.89 10.2015 54.1021 9.86008C54.3175 9.5187 54.6059 9.26349 54.9672 9.09446C55.3284 8.92543 55.7295 8.84091 56.1703 8.84091C56.4818 8.84091 56.7586 8.86577 57.0005 8.91548C57.2425 8.9652 57.4215 9.00994 57.5375 9.04972L57.1795 10.4418C57.1033 10.4186 57.0072 10.3954 56.8912 10.3722C56.7752 10.3456 56.6459 10.3324 56.5034 10.3324C56.1686 10.3324 55.9316 10.4136 55.7924 10.576C55.6565 10.7351 55.5886 10.9638 55.5886 11.2621V19.5H53.7839ZM62.1822 11.8636V13.2557H57.7923V11.8636H62.1822ZM58.8761 10.0341H60.6758V17.2031C60.6758 17.4451 60.7123 17.6307 60.7852 17.7599C60.8614 17.8859 60.9609 17.9721 61.0835 18.0185C61.2061 18.0649 61.342 18.0881 61.4912 18.0881C61.6039 18.0881 61.7066 18.0798 61.7994 18.0632C61.8955 18.0466 61.9684 18.0317 62.0182 18.0185L62.3214 19.4254C62.2253 19.4586 62.0878 19.495 61.9088 19.5348C61.7331 19.5746 61.5177 19.5978 61.2625 19.6044C60.8117 19.6177 60.4057 19.5497 60.0444 19.4006C59.6832 19.2481 59.3965 19.0128 59.1844 18.6946C58.9755 18.3764 58.8728 17.9787 58.8761 17.5014V10.0341ZM69.9752 9.31818H71.8197V15.9702C71.8197 16.6993 71.6474 17.3407 71.3027 17.8942C70.9613 18.4477 70.4807 18.8802 69.8609 19.1918C69.2411 19.5 68.5169 19.6541 67.6883 19.6541C66.8564 19.6541 66.1305 19.5 65.5108 19.1918C64.891 18.8802 64.4104 18.4477 64.069 17.8942C63.7276 17.3407 63.5569 16.6993 63.5569 15.9702V9.31818H65.4014V15.8161C65.4014 16.2403 65.4942 16.6181 65.6798 16.9496C65.8687 17.281 66.1339 17.5412 66.4752 17.7301C66.8166 17.9157 67.221 18.0085 67.6883 18.0085C68.1556 18.0085 68.56 17.9157 68.9014 17.7301C69.2461 17.5412 69.5112 17.281 69.6968 16.9496C69.8824 16.6181 69.9752 16.2403 69.9752 15.8161V9.31818ZM75.459 9.31818V19.5H73.6145V9.31818H75.459Z" fill="#F1EFEF"/>
<rect x="86.5" width="80" height="28" rx="6" fill="#3C46C9"/>
<rect x="92.5" y="5" width="18" height="18" rx="3.5" fill="#F1EFEF"/>
<path opacity="0.4" d="M97.7657 8.39076C97.125 9.03147 97.125 10.0627 97.125 12.1251V15.875C97.125 17.9375 97.125 18.9687 97.7657 19.6093C98.4064 20.25 99.4376 20.25 101.5 20.25C103.562 20.25 104.594 20.25 105.234 19.6093C105.875 18.9687 105.875 17.9375 105.875 15.875V12.1251C105.875 10.0627 105.875 9.03147 105.234 8.39076C104.826 7.98278 104.26 7.83459 103.37 7.78076L103.319 8.08382C103.199 8.80712 103.139 9.16877 102.891 9.38884C102.632 9.6184 102.265 9.62506 101.5 9.62506C100.735 9.62506 100.368 9.6184 100.109 9.38884C99.8615 9.16877 99.8012 8.80712 99.6806 8.08382L99.6301 7.78076C98.74 7.83459 98.1737 7.98278 97.7657 8.39076Z" fill="#3C46C9"/>
<path d="M97.125 12.125C97.125 10.0626 97.125 9.03141 97.7657 8.39071C98.4064 7.75 99.4376 7.75 101.5 7.75C103.562 7.75 104.594 7.75 105.234 8.39071C105.875 9.03141 105.875 10.0626 105.875 12.125V15.875C105.875 17.9374 105.875 18.9686 105.234 19.6093C104.594 20.25 103.562 20.25 101.5 20.25C99.4376 20.25 98.4064 20.25 97.7657 19.6093C97.125 18.9686 97.125 17.9374 97.125 15.875V12.125Z" stroke="#3C46C9" stroke-width="1.25" stroke-linecap="round"/>
<path d="M100.875 18.375H102.125" stroke="#3C46C9" stroke-width="1.25" stroke-linecap="round" stroke-linejoin="round"/>
<path d="M99.625 7.75L99.6806 8.08376C99.8012 8.80706 99.8615 9.16871 100.109 9.38877C100.368 9.61834 100.735 9.625 101.5 9.625C102.265 9.625 102.632 9.61834 102.891 9.38877C103.139 9.16871 103.199 8.80706 103.319 8.08376L103.375 7.75" stroke="#3C46C9" stroke-width="1.25" stroke-linejoin="round"/>
<path d="M115.843 19.5V11.8636H117.642V19.5H115.843ZM116.748 10.7798C116.463 10.7798 116.217 10.6854 116.012 10.4964C115.806 10.3042 115.704 10.0739 115.704 9.8054C115.704 9.53362 115.806 9.30327 116.012 9.11435C116.217 8.92211 116.463 8.82599 116.748 8.82599C117.036 8.82599 117.281 8.92211 117.483 9.11435C117.689 9.30327 117.792 9.53362 117.792 9.8054C117.792 10.0739 117.689 10.3042 117.483 10.4964C117.281 10.6854 117.036 10.7798 116.748 10.7798ZM128.461 14.4091C128.461 15.5062 128.255 16.4458 127.844 17.228C127.437 18.0069 126.88 18.6035 126.174 19.0178C125.471 19.4321 124.674 19.6392 123.782 19.6392C122.891 19.6392 122.092 19.4321 121.386 19.0178C120.683 18.6001 120.127 18.0019 119.716 17.223C119.308 16.4408 119.104 15.5028 119.104 14.4091C119.104 13.312 119.308 12.3741 119.716 11.5952C120.127 10.813 120.683 10.2147 121.386 9.80043C122.092 9.38613 122.891 9.17898 123.782 9.17898C124.674 9.17898 125.471 9.38613 126.174 9.80043C126.88 10.2147 127.437 10.813 127.844 11.5952C128.255 12.3741 128.461 13.312 128.461 14.4091ZM126.606 14.4091C126.606 13.6368 126.485 12.9856 126.243 12.4553C126.005 11.9216 125.673 11.5189 125.249 11.2472C124.825 10.9721 124.336 10.8345 123.782 10.8345C123.229 10.8345 122.74 10.9721 122.316 11.2472C121.892 11.5189 121.558 11.9216 121.316 12.4553C121.078 12.9856 120.959 13.6368 120.959 14.4091C120.959 15.1813 121.078 15.8343 121.316 16.3679C121.558 16.8982 121.892 17.3009 122.316 17.576C122.74 17.8478 123.229 17.9837 123.782 17.9837C124.336 17.9837 124.825 17.8478 125.249 17.576C125.673 17.3009 126.005 16.8982 126.243 16.3679C126.485 15.8343 126.606 15.1813 126.606 14.4091ZM135.528 12.1172C135.481 11.683 135.286 11.3449 134.941 11.103C134.6 10.861 134.156 10.7401 133.609 10.7401C133.224 10.7401 132.895 10.7981 132.619 10.9141C132.344 11.0301 132.134 11.1875 131.988 11.3864C131.842 11.5852 131.768 11.8123 131.764 12.0675C131.764 12.2796 131.812 12.4635 131.909 12.6193C132.008 12.7751 132.142 12.9077 132.311 13.017C132.48 13.1231 132.668 13.2126 132.873 13.2855C133.079 13.3584 133.286 13.4197 133.494 13.4695L134.449 13.7081C134.833 13.7976 135.203 13.9186 135.558 14.071C135.916 14.2235 136.235 14.4157 136.517 14.6477C136.802 14.8797 137.028 15.1598 137.193 15.4879C137.359 15.8161 137.442 16.2005 137.442 16.6413C137.442 17.2379 137.289 17.7633 136.985 18.2173C136.68 18.6681 136.239 19.0211 135.662 19.2763C135.089 19.5282 134.394 19.6541 133.579 19.6541C132.787 19.6541 132.099 19.5315 131.516 19.2862C130.936 19.041 130.482 18.683 130.154 18.2124C129.829 17.7417 129.653 17.1683 129.627 16.4922H131.441C131.468 16.8468 131.577 17.1418 131.769 17.3771C131.962 17.6125 132.212 17.7881 132.52 17.9041C132.832 18.0201 133.18 18.0781 133.564 18.0781C133.965 18.0781 134.316 18.0185 134.618 17.8991C134.923 17.7765 135.162 17.6075 135.334 17.392C135.506 17.1733 135.594 16.9181 135.597 16.6264C135.594 16.3613 135.516 16.1425 135.364 15.9702C135.211 15.7945 134.998 15.6487 134.722 15.5327C134.451 15.4134 134.132 15.3073 133.768 15.2145L132.61 14.9162C131.771 14.7008 131.108 14.3743 130.621 13.9368C130.137 13.496 129.895 12.911 129.895 12.1818C129.895 11.5819 130.057 11.0566 130.382 10.6058C130.71 10.1551 131.156 9.8054 131.72 9.55682C132.283 9.30492 132.921 9.17898 133.634 9.17898C134.356 9.17898 134.989 9.30492 135.533 9.55682C136.08 9.8054 136.509 10.1518 136.82 10.5959C137.132 11.0367 137.293 11.5438 137.303 12.1172H135.528Z" fill="#F1EFEF"/>
<path d="M144.595 10.5V18.5H143.626V11.5156H143.579L141.626 12.8125V11.8281L143.626 10.5H144.595ZM146.543 16.8594V16.0625L150.059 10.5H150.637V11.7344H150.246L147.59 15.9375V16H152.324V16.8594H146.543ZM150.309 18.5V16.6172V16.2461V10.5H151.23V18.5H150.309ZM155.982 17.0938V11.9375H156.857V17.0938H155.982ZM153.842 14.9531V14.0781H158.998V14.9531H153.842Z" fill="#C6C6C8"/>
<rect x="170.5" width="80" height="28" rx="6" fill="#3C46C9"/>
<rect x="176.5" y="5" width="18" height="18" rx="3.5" fill="#F1EFEF"/>
<path opacity="0.4" d="M187.062 7.75H183.938C182.17 7.75 181.286 7.75 180.737 8.29917C180.188 8.84835 180.188 9.73223 180.188 11.5V16.5C180.188 18.2677 180.188 19.1516 180.737 19.7008C181.286 20.25 182.17 20.25 183.938 20.25H187.062C188.83 20.25 189.714 20.25 190.263 19.7008C190.812 19.1516 190.812 18.2677 190.812 16.5V11.5C190.812 9.73223 190.812 8.84835 190.263 8.29917C189.714 7.75 188.83 7.75 187.062 7.75Z" fill="#3C46C9"/>
<path d="M187.062 7.75H183.938C182.17 7.75 181.286 7.75 180.737 8.29917C180.188 8.84835 180.188 9.73223 180.188 11.5V16.5C180.188 18.2677 180.188 19.1516 180.737 19.7008C181.286 20.25 182.17 20.25 183.938 20.25H187.062C188.83 20.25 189.714 20.25 190.263 19.7008C190.812 19.1516 190.812 18.2677 190.812 16.5V11.5C190.812 9.73223 190.812 8.84835 190.263 8.29917C189.714 7.75 188.83 7.75 187.062 7.75Z" stroke="#3C46C9" stroke-width="1.25" stroke-linecap="round"/>
<path d="M185.5 18.375H185.506" stroke="#3C46C9" stroke-width="1.25" stroke-linecap="round"/>
<path d="M199.843 19.5V11.8636H201.642V19.5H199.843ZM200.748 10.7798C200.463 10.7798 200.217 10.6854 200.012 10.4964C199.806 10.3042 199.704 10.0739 199.704 9.8054C199.704 9.53362 199.806 9.30327 200.012 9.11435C200.217 8.92211 200.463 8.82599 200.748 8.82599C201.036 8.82599 201.281 8.92211 201.483 9.11435C201.689 9.30327 201.792 9.53362 201.792 9.8054C201.792 10.0739 201.689 10.3042 201.483 10.4964C201.281 10.6854 201.036 10.7798 200.748 10.7798ZM212.461 14.4091C212.461 15.5062 212.255 16.4458 211.844 17.228C211.437 18.0069 210.88 18.6035 210.174 19.0178C209.471 19.4321 208.674 19.6392 207.782 19.6392C206.891 19.6392 206.092 19.4321 205.386 19.0178C204.683 18.6001 204.127 18.0019 203.716 17.223C203.308 16.4408 203.104 15.5028 203.104 14.4091C203.104 13.312 203.308 12.3741 203.716 11.5952C204.127 10.813 204.683 10.2147 205.386 9.80043C206.092 9.38613 206.891 9.17898 207.782 9.17898C208.674 9.17898 209.471 9.38613 210.174 9.80043C210.88 10.2147 211.437 10.813 211.844 11.5952C212.255 12.3741 212.461 13.312 212.461 14.4091ZM210.606 14.4091C210.606 13.6368 210.485 12.9856 210.243 12.4553C210.005 11.9216 209.673 11.5189 209.249 11.2472C208.825 10.9721 208.336 10.8345 207.782 10.8345C207.229 10.8345 206.74 10.9721 206.316 11.2472C205.892 11.5189 205.558 11.9216 205.316 12.4553C205.078 12.9856 204.959 13.6368 204.959 14.4091C204.959 15.1813 205.078 15.8343 205.316 16.3679C205.558 16.8982 205.892 17.3009 206.316 17.576C206.74 17.8478 207.229 17.9837 207.782 17.9837C208.336 17.9837 208.825 17.8478 209.249 17.576C209.673 17.3009 210.005 16.8982 210.243 16.3679C210.485 15.8343 210.606 15.1813 210.606 14.4091ZM219.528 12.1172C219.481 11.683 219.286 11.3449 218.941 11.103C218.6 10.861 218.156 10.7401 217.609 10.7401C217.224 10.7401 216.895 10.7981 216.619 10.9141C216.344 11.0301 216.134 11.1875 215.988 11.3864C215.842 11.5852 215.768 11.8123 215.764 12.0675C215.764 12.2796 215.812 12.4635 215.909 12.6193C216.008 12.7751 216.142 12.9077 216.311 13.017C216.48 13.1231 216.668 13.2126 216.873 13.2855C217.079 13.3584 217.286 13.4197 217.494 13.4695L218.449 13.7081C218.833 13.7976 219.203 13.9186 219.558 14.071C219.916 14.2235 220.235 14.4157 220.517 14.6477C220.802 14.8797 221.028 15.1598 221.193 15.4879C221.359 15.8161 221.442 16.2005 221.442 16.6413C221.442 17.2379 221.289 17.7633 220.985 18.2173C220.68 18.6681 220.239 19.0211 219.662 19.2763C219.089 19.5282 218.394 19.6541 217.579 19.6541C216.787 19.6541 216.099 19.5315 215.516 19.2862C214.936 19.041 214.482 18.683 214.154 18.2124C213.829 17.7417 213.653 17.1683 213.627 16.4922H215.441C215.468 16.8468 215.577 17.1418 215.769 17.3771C215.962 17.6125 216.212 17.7881 216.52 17.9041C216.832 18.0201 217.18 18.0781 217.564 18.0781C217.965 18.0781 218.316 18.0185 218.618 17.8991C218.923 17.7765 219.162 17.6075 219.334 17.392C219.506 17.1733 219.594 16.9181 219.597 16.6264C219.594 16.3613 219.516 16.1425 219.364 15.9702C219.211 15.7945 218.998 15.6487 218.722 15.5327C218.451 15.4134 218.132 15.3073 217.768 15.2145L216.61 14.9162C215.771 14.7008 215.108 14.3743 214.621 13.9368C214.137 13.496 213.895 12.911 213.895 12.1818C213.895 11.5819 214.057 11.0566 214.382 10.6058C214.71 10.1551 215.156 9.8054 215.72 9.55682C216.283 9.30492 216.921 9.17898 217.634 9.17898C218.356 9.17898 218.989 9.30492 219.533 9.55682C220.08 9.8054 220.509 10.1518 220.82 10.5959C221.132 11.0367 221.293 11.5438 221.303 12.1172H219.528Z" fill="#F1EFEF"/>
<path d="M228.595 10.5V18.5H227.626V11.5156H227.579L225.626 12.8125V11.8281L227.626 10.5H228.595ZM230.543 16.8594V16.0625L234.059 10.5H234.637V11.7344H234.246L231.59 15.9375V16H236.324V16.8594H230.543ZM234.309 18.5V16.6172V16.2461V10.5H235.23V18.5H234.309ZM239.982 17.0938V11.9375H240.857V17.0938H239.982ZM237.842 14.9531V14.0781H242.998V14.9531H237.842Z" fill="#C6C6C8"/>
<rect x="254.5" width="103" height="28" rx="6" fill="#3C46C9"/>
<rect x="260.5" y="5" width="18" height="18" rx="3.5" fill="#F1EFEF"/>
<path opacity="0.4" d="M270.75 7.75H268.25C266.2 7.75 265.176 7.75 264.449 8.25864C264.181 8.44681 263.947 8.68057 263.759 8.94932C263.25 9.67572 263.25 10.7005 263.25 12.75C263.25 14.7995 263.25 15.8242 263.759 16.5507C263.947 16.8194 264.181 17.0532 264.449 17.2414C265.176 17.75 266.2 17.75 268.25 17.75H270.75C272.8 17.75 273.824 17.75 274.551 17.2414C274.819 17.0532 275.053 16.8194 275.241 16.5507C275.75 15.8242 275.75 14.7995 275.75 12.75C275.75 10.7005 275.75 9.67572 275.241 8.94932C275.053 8.68057 274.819 8.44681 274.551 8.25864C273.824 7.75 272.8 7.75 270.75 7.75Z" fill="#3C46C9"/>
<path d="M270.75 7.75H268.25C266.2 7.75 265.176 7.75 264.449 8.25864C264.181 8.44681 263.947 8.68057 263.759 8.94932C263.25 9.67572 263.25 10.7005 263.25 12.75C263.25 14.7995 263.25 15.8242 263.759 16.5507C263.947 16.8194 264.181 17.0532 264.449 17.2414C265.176 17.75 266.2 17.75 268.25 17.75H270.75C272.8 17.75 273.824 17.75 274.551 17.2414C274.819 17.0532 275.053 16.8194 275.241 16.5507C275.75 15.8242 275.75 14.7995 275.75 12.75C275.75 10.7005 275.75 9.67572 275.241 8.94932C275.053 8.68057 274.819 8.44681 274.551 8.25864C273.824 7.75 272.8 7.75 270.75 7.75Z" stroke="#3C46C9" stroke-width="1.25" stroke-linecap="round"/>
<path d="M268.875 15.875H270.125" stroke="#3C46C9" stroke-width="1.25" stroke-linecap="round" stroke-linejoin="round"/>
<path d="M271.062 20.25L270.865 19.9882C270.421 19.3981 270.311 18.4965 270.592 17.75M267.938 20.25L268.135 19.9882C268.579 19.3981 268.689 18.4965 268.408 17.75" stroke="#3C46C9" stroke-width="1.25" stroke-linecap="round"/>
<path d="M266.375 20.25H272.625" stroke="#3C46C9" stroke-width="1.25" stroke-linecap="round"/>
<path d="M283.536 19.5V11.8636H285.256V13.1612H285.346C285.505 12.7237 285.768 12.3823 286.136 12.1371C286.504 11.8885 286.943 11.7642 287.454 11.7642C287.971 11.7642 288.407 11.8902 288.761 12.142C289.119 12.3906 289.371 12.7304 289.517 13.1612H289.596C289.766 12.737 290.051 12.3989 290.452 12.147C290.856 11.8918 291.335 11.7642 291.888 11.7642C292.591 11.7642 293.164 11.9863 293.609 12.4304C294.053 12.8745 294.275 13.5225 294.275 14.3743V19.5H292.47V14.6527C292.47 14.1787 292.344 13.8324 292.092 13.6136C291.84 13.3916 291.532 13.2805 291.168 13.2805C290.733 13.2805 290.394 13.4164 290.148 13.6882C289.906 13.9567 289.785 14.3063 289.785 14.7372V19.5H288.02V14.5781C288.02 14.1837 287.901 13.8688 287.663 13.6335C287.427 13.3982 287.119 13.2805 286.738 13.2805C286.479 13.2805 286.244 13.3468 286.032 13.4794C285.82 13.6087 285.651 13.7926 285.525 14.0312C285.399 14.2666 285.336 14.5417 285.336 14.8565V19.5H283.536ZM298.088 19.6541C297.604 19.6541 297.168 19.5679 296.78 19.3956C296.396 19.2199 296.091 18.9614 295.866 18.62C295.644 18.2786 295.533 17.8577 295.533 17.3572C295.533 16.9264 295.612 16.5701 295.771 16.2884C295.93 16.0066 296.147 15.7812 296.423 15.6122C296.698 15.4432 297.008 15.3156 297.352 15.2294C297.7 15.1399 298.06 15.0753 298.431 15.0355C298.879 14.9891 299.241 14.9477 299.52 14.9112C299.798 14.8714 300 14.8118 300.126 14.7322C300.256 14.6494 300.32 14.5218 300.32 14.3494V14.3196C300.32 13.9451 300.209 13.6551 299.987 13.4496C299.765 13.2441 299.445 13.1413 299.028 13.1413C298.587 13.1413 298.237 13.2375 297.979 13.4297C297.723 13.6219 297.551 13.849 297.462 14.1108L295.781 13.8722C295.914 13.4081 296.133 13.0204 296.437 12.7088C296.742 12.3939 297.115 12.1586 297.556 12.0028C297.997 11.8438 298.484 11.7642 299.018 11.7642C299.386 11.7642 299.752 11.8073 300.116 11.8935C300.481 11.9796 300.814 12.1222 301.116 12.321C301.417 12.5166 301.659 12.7834 301.842 13.1214C302.027 13.4595 302.12 13.8821 302.12 14.3892V19.5H300.39V18.451H300.33C300.221 18.6631 300.067 18.862 299.868 19.0476C299.672 19.2299 299.425 19.3774 299.127 19.4901C298.832 19.5994 298.486 19.6541 298.088 19.6541ZM298.555 18.3317C298.917 18.3317 299.23 18.2604 299.495 18.1179C299.76 17.9721 299.964 17.7798 300.106 17.5412C300.252 17.3026 300.325 17.0424 300.325 16.7607V15.8608C300.269 15.9072 300.173 15.9503 300.037 15.9901C299.904 16.0298 299.755 16.0646 299.589 16.0945C299.424 16.1243 299.26 16.1508 299.097 16.174C298.935 16.1972 298.794 16.2171 298.675 16.2337C298.406 16.2701 298.166 16.3298 297.954 16.4126C297.742 16.4955 297.574 16.6115 297.452 16.7607C297.329 16.9065 297.268 17.0954 297.268 17.3274C297.268 17.6589 297.389 17.9091 297.631 18.0781C297.873 18.2472 298.181 18.3317 298.555 18.3317ZM307.051 19.6491C306.288 19.6491 305.634 19.4818 305.087 19.147C304.543 18.8123 304.124 18.3499 303.829 17.7599C303.537 17.1667 303.392 16.4839 303.392 15.7116C303.392 14.9361 303.541 14.2517 303.839 13.6584C304.137 13.0618 304.558 12.5978 305.102 12.2663C305.649 11.9316 306.295 11.7642 307.041 11.7642C307.66 11.7642 308.209 11.8786 308.686 12.1072C309.167 12.3326 309.55 12.6525 309.835 13.0668C310.12 13.4777 310.282 13.9583 310.322 14.5085H308.602C308.532 14.1406 308.366 13.834 308.105 13.5888C307.846 13.3402 307.5 13.2159 307.066 13.2159C306.698 13.2159 306.374 13.3153 306.096 13.5142C305.818 13.7098 305.601 13.9915 305.445 14.3594C305.292 14.7273 305.216 15.1681 305.216 15.6818C305.216 16.2022 305.292 16.6496 305.445 17.0241C305.597 17.3954 305.811 17.6821 306.086 17.8842C306.365 18.0831 306.691 18.1825 307.066 18.1825C307.331 18.1825 307.568 18.1328 307.776 18.0334C307.989 17.9306 308.166 17.7831 308.308 17.5909C308.451 17.3987 308.549 17.165 308.602 16.8899H310.322C310.279 17.4302 310.12 17.9091 309.845 18.3267C309.57 18.741 309.195 19.0658 308.721 19.3011C308.247 19.5331 307.69 19.6491 307.051 19.6491ZM320.767 14.4091C320.767 15.5062 320.562 16.4458 320.151 17.228C319.743 18.0069 319.186 18.6035 318.48 19.0178C317.778 19.4321 316.981 19.6392 316.089 19.6392C315.197 19.6392 314.399 19.4321 313.693 19.0178C312.99 18.6001 312.433 18.0019 312.022 17.223C311.615 16.4408 311.411 15.5028 311.411 14.4091C311.411 13.312 311.615 12.3741 312.022 11.5952C312.433 10.813 312.99 10.2147 313.693 9.80043C314.399 9.38613 315.197 9.17898 316.089 9.17898C316.981 9.17898 317.778 9.38613 318.48 9.80043C319.186 10.2147 319.743 10.813 320.151 11.5952C320.562 12.3741 320.767 13.312 320.767 14.4091ZM318.913 14.4091C318.913 13.6368 318.792 12.9856 318.55 12.4553C318.311 11.9216 317.98 11.5189 317.556 11.2472C317.131 10.9721 316.643 10.8345 316.089 10.8345C315.536 10.8345 315.047 10.9721 314.622 11.2472C314.198 11.5189 313.865 11.9216 313.623 12.4553C313.384 12.9856 313.265 13.6368 313.265 14.4091C313.265 15.1813 313.384 15.8343 313.623 16.3679C313.865 16.8982 314.198 17.3009 314.622 17.576C315.047 17.8478 315.536 17.9837 316.089 17.9837C316.643 17.9837 317.131 17.8478 317.556 17.576C317.98 17.3009 318.311 16.8982 318.55 16.3679C318.792 15.8343 318.913 15.1813 318.913 14.4091ZM327.834 12.1172C327.788 11.683 327.592 11.3449 327.248 11.103C326.906 10.861 326.462 10.7401 325.915 10.7401C325.531 10.7401 325.201 10.7981 324.926 10.9141C324.651 11.0301 324.441 11.1875 324.295 11.3864C324.149 11.5852 324.074 11.8123 324.071 12.0675C324.071 12.2796 324.119 12.4635 324.215 12.6193C324.315 12.7751 324.449 12.9077 324.618 13.017C324.787 13.1231 324.974 13.2126 325.18 13.2855C325.385 13.3584 325.592 13.4197 325.801 13.4695L326.756 13.7081C327.14 13.7976 327.51 13.9186 327.864 14.071C328.222 14.2235 328.542 14.4157 328.824 14.6477C329.109 14.8797 329.334 15.1598 329.5 15.4879C329.666 15.8161 329.749 16.2005 329.749 16.6413C329.749 17.2379 329.596 17.7633 329.291 18.2173C328.986 18.6681 328.545 19.0211 327.969 19.2763C327.395 19.5282 326.701 19.6541 325.886 19.6541C325.093 19.6541 324.406 19.5315 323.822 19.2862C323.242 19.041 322.788 18.683 322.46 18.2124C322.135 17.7417 321.96 17.1683 321.933 16.4922H323.748C323.774 16.8468 323.884 17.1418 324.076 17.3771C324.268 17.6125 324.518 17.7881 324.827 17.9041C325.138 18.0201 325.486 18.0781 325.871 18.0781C326.272 18.0781 326.623 18.0185 326.925 17.8991C327.23 17.7765 327.468 17.6075 327.641 17.392C327.813 17.1733 327.901 16.9181 327.904 16.6264C327.901 16.3613 327.823 16.1425 327.67 15.9702C327.518 15.7945 327.304 15.6487 327.029 15.5327C326.757 15.4134 326.439 15.3073 326.074 15.2145L324.916 14.9162C324.078 14.7008 323.415 14.3743 322.927 13.9368C322.444 13.496 322.202 12.911 322.202 12.1818C322.202 11.5819 322.364 11.0566 322.689 10.6058C323.017 10.1551 323.463 9.8054 324.026 9.55682C324.59 9.30492 325.228 9.17898 325.94 9.17898C326.663 9.17898 327.296 9.30492 327.839 9.55682C328.386 9.8054 328.816 10.1518 329.127 10.5959C329.439 11.0367 329.599 11.5438 329.609 12.1172H327.834Z" fill="#F1EFEF"/>
<path d="M336.293 10.5V18.5H335.325V11.5156H335.278L333.325 12.8125V11.8281L335.325 10.5H336.293ZM338.429 18.5V17.7969L341.07 14.9062C341.38 14.5677 341.635 14.2734 341.835 14.0234C342.036 13.7708 342.184 13.5339 342.281 13.3125C342.38 13.0885 342.429 12.8542 342.429 12.6094C342.429 12.3281 342.361 12.0846 342.226 11.8789C342.093 11.6732 341.911 11.5143 341.679 11.4023C341.447 11.2904 341.187 11.2344 340.898 11.2344C340.591 11.2344 340.322 11.2982 340.093 11.4258C339.867 11.5508 339.691 11.7266 339.566 11.9531C339.444 12.1797 339.382 12.4453 339.382 12.75H338.46C338.46 12.2812 338.569 11.8698 338.785 11.5156C339.001 11.1615 339.295 10.8854 339.667 10.6875C340.042 10.4896 340.463 10.3906 340.929 10.3906C341.398 10.3906 341.813 10.4896 342.175 10.6875C342.537 10.8854 342.821 11.1523 343.027 11.4883C343.233 11.8242 343.335 12.1979 343.335 12.6094C343.335 12.9036 343.282 13.1914 343.175 13.4727C343.071 13.7513 342.889 14.0625 342.628 14.4062C342.371 14.7474 342.013 15.1641 341.554 15.6562L339.757 17.5781V17.6406H343.476V18.5H338.429ZM347.284 17.0938V11.9375H348.159V17.0938H347.284ZM345.143 14.9531V14.0781H350.299V14.9531H345.143Z" fill="#C6C6C8"/>
<rect x="361.5" width="88" height="28" rx="6" fill="#3C46C9"/>
<rect x="367.5" y="5" width="18" height="18" rx="3.5" fill="#F1EFEF"/>
<path opacity="0.4" d="M377.75 8.375H375.25C372.893 8.375 371.714 8.375 370.982 9.10723C370.25 9.83947 370.25 11.018 370.25 13.375C370.25 15.732 370.25 16.9106 370.982 17.6427C371.714 18.375 372.893 18.375 375.25 18.375H377.75C380.107 18.375 381.286 18.375 382.018 17.6427C382.75 16.9106 382.75 15.732 382.75 13.375C382.75 11.018 382.75 9.83947 382.018 9.10723C381.286 8.375 380.107 8.375 377.75 8.375Z" fill="#3C46C9"/>
<path d="M377.75 8.375H375.25C372.893 8.375 371.714 8.375 370.982 9.10723C370.25 9.83947 370.25 11.018 370.25 13.375C370.25 15.732 370.25 16.9106 370.982 17.6427C371.714 18.375 372.893 18.375 375.25 18.375H377.75C380.107 18.375 381.286 18.375 382.018 17.6427C382.75 16.9106 382.75 15.732 382.75 13.375C382.75 11.018 382.75 9.83947 382.018 9.10723C381.286 8.375 380.107 8.375 377.75 8.375Z" stroke="#3C46C9" stroke-width="1.25" stroke-linecap="round"/>
<path d="M380.25 18.375L380.875 19.625" stroke="#3C46C9" stroke-width="1.25" stroke-linecap="round" stroke-linejoin="round"/>
<path d="M372.75 18.375L372.125 19.625" stroke="#3C46C9" stroke-width="1.25" stroke-linecap="round" stroke-linejoin="round"/>
<path d="M394.394 11.8636V13.2557H390.004V11.8636H394.394ZM391.088 10.0341H392.887V17.2031C392.887 17.4451 392.924 17.6307 392.997 17.7599C393.073 17.8859 393.172 17.9721 393.295 18.0185C393.418 18.0649 393.554 18.0881 393.703 18.0881C393.815 18.0881 393.918 18.0798 394.011 18.0632C394.107 18.0466 394.18 18.0317 394.23 18.0185L394.533 19.4254C394.437 19.4586 394.299 19.495 394.12 19.5348C393.945 19.5746 393.729 19.5978 393.474 19.6044C393.023 19.6177 392.617 19.5497 392.256 19.4006C391.895 19.2481 391.608 19.0128 391.396 18.6946C391.187 18.3764 391.084 17.9787 391.088 17.5014V10.0341ZM402.51 11.8636L399.79 19.5H397.802L395.082 11.8636H397.001L398.756 17.5362H398.836L400.596 11.8636H402.51ZM412.723 14.4091C412.723 15.5062 412.517 16.4458 412.106 17.228C411.699 18.0069 411.142 18.6035 410.436 19.0178C409.733 19.4321 408.936 19.6392 408.045 19.6392C407.153 19.6392 406.354 19.4321 405.648 19.0178C404.946 18.6001 404.389 18.0019 403.978 17.223C403.57 16.4408 403.366 15.5028 403.366 14.4091C403.366 13.312 403.57 12.3741 403.978 11.5952C404.389 10.813 404.946 10.2147 405.648 9.80043C406.354 9.38613 407.153 9.17898 408.045 9.17898C408.936 9.17898 409.733 9.38613 410.436 9.80043C411.142 10.2147 411.699 10.813 412.106 11.5952C412.517 12.3741 412.723 13.312 412.723 14.4091ZM410.868 14.4091C410.868 13.6368 410.747 12.9856 410.506 12.4553C410.267 11.9216 409.935 11.5189 409.511 11.2472C409.087 10.9721 408.598 10.8345 408.045 10.8345C407.491 10.8345 407.002 10.9721 406.578 11.2472C406.154 11.5189 405.821 11.9216 405.579 12.4553C405.34 12.9856 405.221 13.6368 405.221 14.4091C405.221 15.1813 405.34 15.8343 405.579 16.3679C405.821 16.8982 406.154 17.3009 406.578 17.576C407.002 17.8478 407.491 17.9837 408.045 17.9837C408.598 17.9837 409.087 17.8478 409.511 17.576C409.935 17.3009 410.267 16.8982 410.506 16.3679C410.747 15.8343 410.868 15.1813 410.868 14.4091ZM419.79 12.1172C419.744 11.683 419.548 11.3449 419.203 11.103C418.862 10.861 418.418 10.7401 417.871 10.7401C417.487 10.7401 417.157 10.7981 416.882 10.9141C416.607 11.0301 416.396 11.1875 416.25 11.3864C416.104 11.5852 416.03 11.8123 416.027 12.0675C416.027 12.2796 416.075 12.4635 416.171 12.6193C416.27 12.7751 416.404 12.9077 416.573 13.017C416.742 13.1231 416.93 13.2126 417.135 13.2855C417.341 13.3584 417.548 13.4197 417.757 13.4695L418.711 13.7081C419.096 13.7976 419.465 13.9186 419.82 14.071C420.178 14.2235 420.498 14.4157 420.779 14.6477C421.064 14.8797 421.29 15.1598 421.456 15.4879C421.621 15.8161 421.704 16.2005 421.704 16.6413C421.704 17.2379 421.552 17.7633 421.247 18.2173C420.942 18.6681 420.501 19.0211 419.924 19.2763C419.351 19.5282 418.657 19.6541 417.841 19.6541C417.049 19.6541 416.361 19.5315 415.778 19.2862C415.198 19.041 414.744 18.683 414.416 18.2124C414.091 17.7417 413.915 17.1683 413.889 16.4922H415.703C415.73 16.8468 415.839 17.1418 416.032 17.3771C416.224 17.6125 416.474 17.7881 416.782 17.9041C417.094 18.0201 417.442 18.0781 417.826 18.0781C418.227 18.0781 418.579 18.0185 418.88 17.8991C419.185 17.7765 419.424 17.6075 419.596 17.392C419.768 17.1733 419.856 16.9181 419.86 16.6264C419.856 16.3613 419.778 16.1425 419.626 15.9702C419.474 15.7945 419.26 15.6487 418.985 15.5327C418.713 15.4134 418.395 15.3073 418.03 15.2145L416.872 14.9162C416.033 14.7008 415.37 14.3743 414.883 13.9368C414.399 13.496 414.157 12.911 414.157 12.1818C414.157 11.5819 414.32 11.0566 414.644 10.6058C414.973 10.1551 415.418 9.8054 415.982 9.55682C416.545 9.30492 417.183 9.17898 417.896 9.17898C418.618 9.17898 419.251 9.30492 419.795 9.55682C420.342 9.8054 420.771 10.1518 421.083 10.5959C421.394 11.0367 421.555 11.5438 421.565 12.1172H419.79Z" fill="#F1EFEF"/>
<path d="M428.277 10.5V18.5H427.309V11.5156H427.262L425.309 12.8125V11.8281L427.309 10.5H428.277ZM432.913 18.6094C432.455 18.6094 432.042 18.5182 431.675 18.3359C431.308 18.1536 431.013 17.9036 430.792 17.5859C430.571 17.2682 430.45 16.9062 430.429 16.5H431.366C431.403 16.862 431.567 17.1615 431.858 17.3984C432.153 17.6328 432.504 17.75 432.913 17.75C433.241 17.75 433.533 17.6732 433.788 17.5195C434.046 17.3659 434.248 17.1549 434.394 16.8867C434.542 16.6159 434.616 16.3099 434.616 15.9687C434.616 15.6198 434.539 15.3086 434.386 15.0352C434.235 14.7591 434.026 14.5417 433.761 14.3828C433.495 14.224 433.192 14.1432 432.851 14.1406C432.606 14.138 432.354 14.1758 432.097 14.2539C431.839 14.3294 431.627 14.4271 431.46 14.5469L430.554 14.4375L431.038 10.5H435.194V11.3594H431.851L431.569 13.7187H431.616C431.78 13.5885 431.986 13.4805 432.233 13.3945C432.481 13.3086 432.739 13.2656 433.007 13.2656C433.496 13.2656 433.933 13.3828 434.315 13.6172C434.701 13.849 435.003 14.1667 435.222 14.5703C435.443 14.974 435.554 15.4349 435.554 15.9531C435.554 16.4635 435.439 16.9193 435.21 17.3203C434.983 17.7187 434.671 18.0339 434.272 18.2656C433.874 18.4948 433.421 18.6094 432.913 18.6094ZM439.3 17.0938V11.9375H440.175V17.0938H439.3ZM437.159 14.9531V14.0781H442.315V14.9531H437.159Z" fill="#C6C6C8"/>
<rect x="453.5" width="111" height="28" rx="6" fill="#3C46C9"/>
<rect x="459.5" y="5" width="18" height="18" rx="3.5" fill="#F1EFEF"/>
<path opacity="0.4" d="M465.375 13.375C465.375 12.1965 465.375 11.6072 465.741 11.2411C466.107 10.875 466.696 10.875 467.875 10.875H469.125C470.303 10.875 470.893 10.875 471.259 11.2411C471.625 11.6072 471.625 12.1965 471.625 13.375V14.625C471.625 15.8035 471.625 16.3927 471.259 16.7589C470.893 17.125 470.303 17.125 469.125 17.125H467.875C466.696 17.125 466.107 17.125 465.741 16.7589C465.375 16.3927 465.375 15.8035 465.375 14.625V13.375Z" fill="#3C46C9"/>
<path d="M465.375 13.375C465.375 12.1965 465.375 11.6072 465.741 11.2411C466.107 10.875 466.696 10.875 467.875 10.875H469.125C470.303 10.875 470.893 10.875 471.259 11.2411C471.625 11.6072 471.625 12.1965 471.625 13.375V14.625C471.625 15.8035 471.625 16.3927 471.259 16.7589C470.893 17.125 470.303 17.125 469.125 17.125H467.875C466.696 17.125 466.107 17.125 465.741 16.7589C465.375 16.3927 465.375 15.8035 465.375 14.625V13.375Z" stroke="#3C46C9" stroke-width="1.25"/>
<path d="M466.312 10.875C466.312 10.875 466.743 10.038 466.84 9.00058C466.893 8.43828 466.919 8.15712 467.077 7.99796C467.236 7.83879 467.427 7.82009 467.809 7.78269C468.011 7.76294 468.241 7.75 468.5 7.75C468.759 7.75 468.989 7.76294 469.191 7.78269C469.573 7.82009 469.764 7.83879 469.923 7.99796C470.081 8.15712 470.107 8.43828 470.16 9.00058C470.257 10.038 470.688 10.875 470.688 10.875" stroke="#3C46C9" stroke-width="1.25" stroke-linecap="round" stroke-linejoin="round"/>
<path d="M470.688 17.125C470.688 17.125 470.257 17.962 470.16 18.9994C470.107 19.5617 470.081 19.8429 469.923 20.0021C469.764 20.1612 469.573 20.1799 469.191 20.2173C468.989 20.2371 468.759 20.25 468.5 20.25C468.241 20.25 468.011 20.2371 467.809 20.2173C467.427 20.1799 467.236 20.1612 467.077 20.0021C466.919 19.8429 466.893 19.5617 466.84 18.9994C466.743 17.962 466.312 17.125 466.312 17.125" stroke="#3C46C9" stroke-width="1.25" stroke-linecap="round" stroke-linejoin="round"/>
<path d="M484.335 19.5L482.177 11.8636H484.012L485.354 17.233H485.424L486.796 11.8636H488.61L489.983 17.2031H490.057L491.38 11.8636H493.219L491.056 19.5H489.182L487.75 14.3395H487.646L486.214 19.5H484.335ZM496.463 19.6541C495.979 19.6541 495.543 19.5679 495.156 19.3956C494.771 19.2199 494.466 18.9614 494.241 18.62C494.019 18.2786 493.908 17.8577 493.908 17.3572C493.908 16.9264 493.987 16.5701 494.146 16.2884C494.305 16.0066 494.522 15.7812 494.798 15.6122C495.073 15.4432 495.383 15.3156 495.727 15.2294C496.075 15.1399 496.435 15.0753 496.806 15.0355C497.254 14.9891 497.616 14.9477 497.895 14.9112C498.173 14.8714 498.375 14.8118 498.501 14.7322C498.631 14.6494 498.695 14.5218 498.695 14.3494V14.3196C498.695 13.9451 498.584 13.6551 498.362 13.4496C498.14 13.2441 497.82 13.1413 497.403 13.1413C496.962 13.1413 496.612 13.2375 496.354 13.4297C496.098 13.6219 495.926 13.849 495.837 14.1108L494.156 13.8722C494.289 13.4081 494.508 13.0204 494.812 12.7088C495.117 12.3939 495.49 12.1586 495.931 12.0028C496.372 11.8438 496.859 11.7642 497.393 11.7642C497.761 11.7642 498.127 11.8073 498.491 11.8935C498.856 11.9796 499.189 12.1222 499.491 12.321C499.792 12.5166 500.034 12.7834 500.217 13.1214C500.402 13.4595 500.495 13.8821 500.495 14.3892V19.5H498.765V18.451H498.705C498.596 18.6631 498.442 18.862 498.243 19.0476C498.047 19.2299 497.8 19.3774 497.502 19.4901C497.207 19.5994 496.861 19.6541 496.463 19.6541ZM496.93 18.3317C497.292 18.3317 497.605 18.2604 497.87 18.1179C498.135 17.9721 498.339 17.7798 498.482 17.5412C498.627 17.3026 498.7 17.0424 498.7 16.7607V15.8608C498.644 15.9072 498.548 15.9503 498.412 15.9901C498.279 16.0298 498.13 16.0646 497.964 16.0945C497.799 16.1243 497.635 16.1508 497.472 16.174C497.31 16.1972 497.169 16.2171 497.05 16.2337C496.781 16.2701 496.541 16.3298 496.329 16.4126C496.117 16.4955 495.949 16.6115 495.827 16.7607C495.704 16.9065 495.643 17.0954 495.643 17.3274C495.643 17.6589 495.764 17.9091 496.006 18.0781C496.248 18.2472 496.556 18.3317 496.93 18.3317ZM505.908 11.8636V13.2557H501.518V11.8636H505.908ZM502.602 10.0341H504.401V17.2031C504.401 17.4451 504.438 17.6307 504.511 17.7599C504.587 17.8859 504.687 17.9721 504.809 18.0185C504.932 18.0649 505.068 18.0881 505.217 18.0881C505.33 18.0881 505.432 18.0798 505.525 18.0632C505.621 18.0466 505.694 18.0317 505.744 18.0185L506.047 19.4254C505.951 19.4586 505.813 19.495 505.634 19.5348C505.459 19.5746 505.243 19.5978 504.988 19.6044C504.537 19.6177 504.131 19.5497 503.77 19.4006C503.409 19.2481 503.122 19.0128 502.91 18.6946C502.701 18.3764 502.598 17.9787 502.602 17.5014V10.0341ZM510.452 19.6491C509.69 19.6491 509.035 19.4818 508.488 19.147C507.945 18.8123 507.525 18.3499 507.23 17.7599C506.939 17.1667 506.793 16.4839 506.793 15.7116C506.793 14.9361 506.942 14.2517 507.24 13.6584C507.539 13.0618 507.96 12.5978 508.503 12.2663C509.05 11.9316 509.696 11.7642 510.442 11.7642C511.062 11.7642 511.61 11.8786 512.088 12.1072C512.568 12.3326 512.951 12.6525 513.236 13.0668C513.521 13.4777 513.684 13.9583 513.723 14.5085H512.003C511.934 14.1406 511.768 13.834 511.506 13.5888C511.247 13.3402 510.901 13.2159 510.467 13.2159C510.099 13.2159 509.776 13.3153 509.497 13.5142C509.219 13.7098 509.002 13.9915 508.846 14.3594C508.694 14.7273 508.617 15.1681 508.617 15.6818C508.617 16.2022 508.694 16.6496 508.846 17.0241C508.999 17.3954 509.212 17.6821 509.487 17.8842C509.766 18.0831 510.092 18.1825 510.467 18.1825C510.732 18.1825 510.969 18.1328 511.178 18.0334C511.39 17.9306 511.567 17.7831 511.71 17.5909C511.852 17.3987 511.95 17.165 512.003 16.8899H513.723C513.68 17.4302 513.521 17.9091 513.246 18.3267C512.971 18.741 512.596 19.0658 512.122 19.3011C511.648 19.5331 511.092 19.6491 510.452 19.6491ZM516.791 15.0256V19.5H514.991V9.31818H516.751V13.1612H516.841C517.019 12.7304 517.296 12.3906 517.671 12.142C518.049 11.8902 518.529 11.7642 519.113 11.7642C519.643 11.7642 520.105 11.8752 520.5 12.0973C520.894 12.3194 521.199 12.6442 521.414 13.0717C521.633 13.4993 521.743 14.0213 521.743 14.6378V19.5H519.943V14.9162C519.943 14.4025 519.81 14.0031 519.545 13.718C519.283 13.4297 518.915 13.2855 518.441 13.2855C518.123 13.2855 517.838 13.3551 517.586 13.4943C517.338 13.6302 517.142 13.8274 517 14.0859C516.86 14.3445 516.791 14.6577 516.791 15.0256ZM532.545 14.4091C532.545 15.5062 532.339 16.4458 531.928 17.228C531.52 18.0069 530.964 18.6035 530.258 19.0178C529.555 19.4321 528.758 19.6392 527.866 19.6392C526.975 19.6392 526.176 19.4321 525.47 19.0178C524.767 18.6001 524.211 18.0019 523.8 17.223C523.392 16.4408 523.188 15.5028 523.188 14.4091C523.188 13.312 523.392 12.3741 523.8 11.5952C524.211 10.813 524.767 10.2147 525.47 9.80043C526.176 9.38613 526.975 9.17898 527.866 9.17898C528.758 9.17898 529.555 9.38613 530.258 9.80043C530.964 10.2147 531.52 10.813 531.928 11.5952C532.339 12.3741 532.545 13.312 532.545 14.4091ZM530.69 14.4091C530.69 13.6368 530.569 12.9856 530.327 12.4553C530.089 11.9216 529.757 11.5189 529.333 11.2472C528.909 10.9721 528.42 10.8345 527.866 10.8345C527.313 10.8345 526.824 10.9721 526.4 11.2472C525.975 11.5189 525.642 11.9216 525.4 12.4553C525.162 12.9856 525.042 13.6368 525.042 14.4091C525.042 15.1813 525.162 15.8343 525.4 16.3679C525.642 16.8982 525.975 17.3009 526.4 17.576C526.824 17.8478 527.313 17.9837 527.866 17.9837C528.42 17.9837 528.909 17.8478 529.333 17.576C529.757 17.3009 530.089 16.8982 530.327 16.3679C530.569 15.8343 530.69 15.1813 530.69 14.4091ZM539.612 12.1172C539.565 11.683 539.37 11.3449 539.025 11.103C538.684 10.861 538.24 10.7401 537.693 10.7401C537.308 10.7401 536.978 10.7981 536.703 10.9141C536.428 11.0301 536.218 11.1875 536.072 11.3864C535.926 11.5852 535.852 11.8123 535.848 12.0675C535.848 12.2796 535.896 12.4635 535.992 12.6193C536.092 12.7751 536.226 12.9077 536.395 13.017C536.564 13.1231 536.751 13.2126 536.957 13.2855C537.162 13.3584 537.37 13.4197 537.578 13.4695L538.533 13.7081C538.917 13.7976 539.287 13.9186 539.642 14.071C540 14.2235 540.319 14.4157 540.601 14.6477C540.886 14.8797 541.112 15.1598 541.277 15.4879C541.443 15.8161 541.526 16.2005 541.526 16.6413C541.526 17.2379 541.373 17.7633 541.068 18.2173C540.763 18.6681 540.323 19.0211 539.746 19.2763C539.173 19.5282 538.478 19.6541 537.663 19.6541C536.871 19.6541 536.183 19.5315 535.6 19.2862C535.02 19.041 534.566 18.683 534.237 18.2124C533.913 17.7417 533.737 17.1683 533.71 16.4922H535.525C535.552 16.8468 535.661 17.1418 535.853 17.3771C536.045 17.6125 536.296 17.7881 536.604 17.9041C536.915 18.0201 537.263 18.0781 537.648 18.0781C538.049 18.0781 538.4 18.0185 538.702 17.8991C539.007 17.7765 539.246 17.6075 539.418 17.392C539.59 17.1733 539.678 16.9181 539.681 16.6264C539.678 16.3613 539.6 16.1425 539.448 15.9702C539.295 15.7945 539.081 15.6487 538.806 15.5327C538.535 15.4134 538.216 15.3073 537.852 15.2145L536.693 14.9162C535.855 14.7008 535.192 14.3743 534.705 13.9368C534.221 13.496 533.979 12.911 533.979 12.1818C533.979 11.5819 534.141 11.0566 534.466 10.6058C534.794 10.1551 535.24 9.8054 535.804 9.55682C536.367 9.30492 537.005 9.17898 537.718 9.17898C538.44 9.17898 539.073 9.30492 539.617 9.55682C540.164 9.8054 540.593 10.1518 540.904 10.5959C541.216 11.0367 541.377 11.5438 541.387 12.1172H539.612Z" fill="#F1EFEF"/>
<path d="M545.893 18.5L549.471 11.4219V11.3594H545.346V10.5H550.471V11.4062L546.909 18.5H545.893ZM554.122 17.0938V11.9375H554.997V17.0938H554.122ZM551.981 14.9531V14.0781H557.137V14.9531H551.981Z" fill="#C6C6C8"/>
<rect x="568.5" width="108" height="28" rx="6" fill="#3C46C9"/>
<rect x="574.5" y="5" width="18" height="18" rx="3.5" fill="#F1EFEF"/>
<path opacity="0.4" d="M580.062 17.4375C578.5 17.4375 577.25 16.5 577.25 14.3125C577.25 11.8125 579.125 10.5625 583.5 10.5625C587.875 10.5625 589.75 11.8125 589.75 14.3125C589.75 16.5 588.5 17.4375 586.938 17.4375C585.375 17.4375 584.438 15.875 583.5 15.875C582.562 15.875 581.625 17.4375 580.062 17.4375Z" fill="#3C46C9"/>
<path d="M580.062 17.4375C578.5 17.4375 577.25 16.5 577.25 14.3125C577.25 11.8125 579.125 10.5625 583.5 10.5625C587.875 10.5625 589.75 11.8125 589.75 14.3125C589.75 16.5 588.5 17.4375 586.938 17.4375C585.375 17.4375 584.438 15.875 583.5 15.875C582.562 15.875 581.625 17.4375 580.062 17.4375Z" stroke="#3C46C9" stroke-width="1.25" stroke-linecap="round"/>
<path d="M604.464 11.8636L601.745 19.5H599.756L597.037 11.8636H598.956L600.711 17.5362H600.79L602.55 11.8636H604.464ZM605.5 19.5V11.8636H607.299V19.5H605.5ZM606.404 10.7798C606.119 10.7798 605.874 10.6854 605.669 10.4964C605.463 10.3042 605.36 10.0739 605.36 9.8054C605.36 9.53362 605.463 9.30327 605.669 9.11435C605.874 8.92211 606.119 8.82599 606.404 8.82599C606.693 8.82599 606.938 8.92211 607.14 9.11435C607.346 9.30327 607.448 9.53362 607.448 9.8054C607.448 10.0739 607.346 10.3042 607.14 10.4964C606.938 10.6854 606.693 10.7798 606.404 10.7798ZM614.975 13.8821L613.335 14.0611C613.288 13.8954 613.207 13.7396 613.091 13.5938C612.979 13.4479 612.826 13.3303 612.634 13.2408C612.442 13.1513 612.206 13.1065 611.928 13.1065C611.553 13.1065 611.238 13.1877 610.983 13.3501C610.731 13.5125 610.607 13.723 610.61 13.9815C610.607 14.2036 610.688 14.3842 610.854 14.5234C611.023 14.6626 611.301 14.777 611.689 14.8665L612.992 15.1449C613.714 15.3007 614.251 15.5476 614.603 15.8857C614.957 16.2237 615.136 16.6662 615.139 17.2131C615.136 17.6937 614.995 18.1179 614.717 18.4858C614.442 18.8504 614.059 19.1354 613.568 19.3409C613.078 19.5464 612.514 19.6491 611.878 19.6491C610.943 19.6491 610.191 19.4536 609.621 19.0625C609.051 18.6681 608.711 18.1196 608.602 17.4169L610.357 17.2479C610.436 17.5926 610.605 17.8527 610.864 18.0284C611.122 18.2041 611.459 18.2919 611.873 18.2919C612.301 18.2919 612.644 18.2041 612.902 18.0284C613.164 17.8527 613.295 17.6357 613.295 17.3771C613.295 17.1584 613.211 16.9777 613.041 16.8352C612.876 16.6927 612.617 16.5833 612.266 16.5071L610.963 16.2337C610.231 16.0812 609.689 15.8243 609.338 15.4631C608.986 15.0985 608.812 14.6378 608.816 14.081C608.812 13.6103 608.94 13.2027 609.198 12.858C609.46 12.5099 609.823 12.2415 610.287 12.0526C610.755 11.8603 611.293 11.7642 611.903 11.7642C612.798 11.7642 613.502 11.9548 614.016 12.3359C614.533 12.7171 614.853 13.2325 614.975 13.8821ZM616.414 19.5V11.8636H618.213V19.5H616.414ZM617.318 10.7798C617.033 10.7798 616.788 10.6854 616.583 10.4964C616.377 10.3042 616.274 10.0739 616.274 9.8054C616.274 9.53362 616.377 9.30327 616.583 9.11435C616.788 8.92211 617.033 8.82599 617.318 8.82599C617.607 8.82599 617.852 8.92211 618.054 9.11435C618.26 9.30327 618.362 9.53362 618.362 9.8054C618.362 10.0739 618.26 10.3042 618.054 10.4964C617.852 10.6854 617.607 10.7798 617.318 10.7798ZM623.185 19.6491C622.439 19.6491 621.793 19.4851 621.246 19.157C620.699 18.8288 620.275 18.3698 619.973 17.7798C619.675 17.1899 619.526 16.5005 619.526 15.7116C619.526 14.9228 619.675 14.2318 619.973 13.6385C620.275 13.0452 620.699 12.5845 621.246 12.2564C621.793 11.9283 622.439 11.7642 623.185 11.7642C623.931 11.7642 624.577 11.9283 625.124 12.2564C625.671 12.5845 626.093 13.0452 626.392 13.6385C626.693 14.2318 626.844 14.9228 626.844 15.7116C626.844 16.5005 626.693 17.1899 626.392 17.7798C626.093 18.3698 625.671 18.8288 625.124 19.157C624.577 19.4851 623.931 19.6491 623.185 19.6491ZM623.195 18.2074C623.599 18.2074 623.937 18.0964 624.209 17.8743C624.481 17.6489 624.683 17.3473 624.816 16.9695C624.951 16.5916 625.019 16.1707 625.019 15.7067C625.019 15.2393 624.951 14.8168 624.816 14.4389C624.683 14.0578 624.481 13.7545 624.209 13.5291C623.937 13.3037 623.599 13.1911 623.195 13.1911C622.781 13.1911 622.436 13.3037 622.161 13.5291C621.889 13.7545 621.685 14.0578 621.549 14.4389C621.417 14.8168 621.35 15.2393 621.35 15.7067C621.35 16.1707 621.417 16.5916 621.549 16.9695C621.685 17.3473 621.889 17.6489 622.161 17.8743C622.436 18.0964 622.781 18.2074 623.195 18.2074ZM629.961 15.0256V19.5H628.161V11.8636H629.882V13.1612H629.971C630.147 12.7337 630.427 12.3939 630.811 12.142C631.199 11.8902 631.678 11.7642 632.248 11.7642C632.775 11.7642 633.234 11.8769 633.625 12.1023C634.02 12.3277 634.325 12.6541 634.54 13.0817C634.759 13.5092 634.866 14.0279 634.863 14.6378V19.5H633.063V14.9162C633.063 14.4058 632.931 14.0064 632.666 13.718C632.404 13.4297 632.041 13.2855 631.577 13.2855C631.262 13.2855 630.982 13.3551 630.737 13.4943C630.495 13.6302 630.304 13.8274 630.165 14.0859C630.029 14.3445 629.961 14.6577 629.961 15.0256ZM645.66 14.4091C645.66 15.5062 645.455 16.4458 645.044 17.228C644.636 18.0069 644.079 18.6035 643.373 19.0178C642.671 19.4321 641.874 19.6392 640.982 19.6392C640.09 19.6392 639.292 19.4321 638.586 19.0178C637.883 18.6001 637.326 18.0019 636.915 17.223C636.508 16.4408 636.304 15.5028 636.304 14.4091C636.304 13.312 636.508 12.3741 636.915 11.5952C637.326 10.813 637.883 10.2147 638.586 9.80043C639.292 9.38613 640.09 9.17898 640.982 9.17898C641.874 9.17898 642.671 9.38613 643.373 9.80043C644.079 10.2147 644.636 10.813 645.044 11.5952C645.455 12.3741 645.66 13.312 645.66 14.4091ZM643.806 14.4091C643.806 13.6368 643.685 12.9856 643.443 12.4553C643.204 11.9216 642.873 11.5189 642.449 11.2472C642.024 10.9721 641.536 10.8345 640.982 10.8345C640.429 10.8345 639.94 10.9721 639.515 11.2472C639.091 11.5189 638.758 11.9216 638.516 12.4553C638.277 12.9856 638.158 13.6368 638.158 14.4091C638.158 15.1813 638.277 15.8343 638.516 16.3679C638.758 16.8982 639.091 17.3009 639.515 17.576C639.94 17.8478 640.429 17.9837 640.982 17.9837C641.536 17.9837 642.024 17.8478 642.449 17.576C642.873 17.3009 643.204 16.8982 643.443 16.3679C643.685 15.8343 643.806 15.1813 643.806 14.4091ZM652.727 12.1172C652.681 11.683 652.485 11.3449 652.141 11.103C651.799 10.861 651.355 10.7401 650.808 10.7401C650.424 10.7401 650.094 10.7981 649.819 10.9141C649.544 11.0301 649.334 11.1875 649.188 11.3864C649.042 11.5852 648.967 11.8123 648.964 12.0675C648.964 12.2796 649.012 12.4635 649.108 12.6193C649.208 12.7751 649.342 12.9077 649.511 13.017C649.68 13.1231 649.867 13.2126 650.073 13.2855C650.278 13.3584 650.485 13.4197 650.694 13.4695L651.649 13.7081C652.033 13.7976 652.403 13.9186 652.757 14.071C653.115 14.2235 653.435 14.4157 653.717 14.6477C654.002 14.8797 654.227 15.1598 654.393 15.4879C654.559 15.8161 654.642 16.2005 654.642 16.6413C654.642 17.2379 654.489 17.7633 654.184 18.2173C653.879 18.6681 653.438 19.0211 652.862 19.2763C652.288 19.5282 651.594 19.6541 650.779 19.6541C649.986 19.6541 649.299 19.5315 648.715 19.2862C648.135 19.041 647.681 18.683 647.353 18.2124C647.028 17.7417 646.853 17.1683 646.826 16.4922H648.641C648.667 16.8468 648.777 17.1418 648.969 17.3771C649.161 17.6125 649.411 17.7881 649.72 17.9041C650.031 18.0201 650.379 18.0781 650.764 18.0781C651.165 18.0781 651.516 18.0185 651.818 17.8991C652.123 17.7765 652.361 17.6075 652.534 17.392C652.706 17.1733 652.794 16.9181 652.797 16.6264C652.794 16.3613 652.716 16.1425 652.563 15.9702C652.411 15.7945 652.197 15.6487 651.922 15.5327C651.65 15.4134 651.332 15.3073 650.968 15.2145L649.809 14.9162C648.971 14.7008 648.308 14.3743 647.82 13.9368C647.337 13.496 647.095 12.911 647.095 12.1818C647.095 11.5819 647.257 11.0566 647.582 10.6058C647.91 10.1551 648.356 9.8054 648.919 9.55682C649.483 9.30492 650.121 9.17898 650.833 9.17898C651.556 9.17898 652.189 9.30492 652.732 9.55682C653.279 9.8054 653.709 10.1518 654.02 10.5959C654.332 11.0367 654.492 11.5438 654.502 12.1172H652.727Z" fill="#F1EFEF"/>
<path d="M661.541 10.5V18.5H660.572V11.5156H660.525L658.572 12.8125V11.8281L660.572 10.5H661.541ZM666.036 17.0938V11.9375H666.911V17.0938H666.036ZM663.896 14.9531V14.0781H669.052V14.9531H663.896Z" fill="#C6C6C8"/>
<rect x="112.5" y="32" width="139" height="28" rx="6" fill="#006AB2"/>
<rect x="118.5" y="37" width="18" height="18" rx="3.5" fill="#F1EFEF"/>
<path d="M130.588 42.7165V39.7162C130.591 39.6109 130.679 39.5287 130.784 39.5303C131.807 39.5923 132.737 39.6824 133.532 39.7944L133.535 39.7951C133.609 39.8039 133.671 39.856 133.695 39.9268L133.695 39.9267L133.696 39.9299C133.698 39.9376 133.7 39.9453 133.701 39.9532L133.703 39.9597C133.706 39.9804 133.709 40.004 133.713 40.0313C133.811 40.696 133.913 41.7453 133.967 42.6972C133.967 42.6972 133.979 42.9095 133.766 42.9095H130.781C130.674 42.9095 130.588 42.8232 130.588 42.7165ZM130.588 39.7032L130.588 39.7162V39.7101L130.588 39.7032H130.588Z" fill="#006AB2"/>
<path d="M124.41 52.2805V49.0874V49.2805C124.41 49.1738 124.324 49.0874 124.217 49.0874H121.232C121.019 49.0874 121.031 49.3 121.031 49.3C121.085 50.2517 121.187 51.3012 121.285 51.966C121.289 51.9935 121.293 52.0175 121.296 52.0384L121.297 52.0442C121.298 52.0522 121.3 52.0599 121.302 52.0676L121.303 52.0708H121.303C121.327 52.1409 121.388 52.1923 121.461 52.2019C122.257 52.3145 123.19 52.4048 124.216 52.467C124.32 52.4678 124.407 52.3854 124.41 52.2805Z" fill="#006AB2"/>
<path d="M127.887 42.697C127.887 42.697 127.887 42.9098 128.099 42.9098H129.604C129.604 42.9098 129.817 42.9098 129.817 42.697V39.6941C129.817 39.6941 129.817 39.4811 129.605 39.4726C129.198 39.4557 128.552 39.4405 128.099 39.4375C128.099 39.4375 127.887 39.4362 127.887 39.6491V42.697Z" fill="#006AB2"/>
<path d="M127.498 52.3498V49.1518V49.2805C127.498 49.174 127.412 49.0874 127.305 49.0874H127.434H125.395C125.395 49.0874 125.182 49.0874 125.182 49.3003V52.3032C125.182 52.3032 125.182 52.5161 125.394 52.5248C125.92 52.5464 126.697 52.5626 127.286 52.5626C127.286 52.5626 127.498 52.5626 127.498 52.3498Z" fill="#006AB2"/>
<path d="M125.182 42.697C125.182 42.697 125.182 42.9098 125.395 42.9098H126.899C126.899 42.9098 127.112 42.9098 127.112 42.697V39.6489C127.112 39.6489 127.112 39.436 126.899 39.4375C126.447 39.4405 125.801 39.456 125.394 39.4727C125.394 39.4727 125.182 39.4814 125.182 39.6942V42.697Z" fill="#006AB2"/>
<path d="M121.194 48.3156H124.197C124.197 48.3156 124.41 48.3156 124.41 48.1027V46.5976C124.41 46.5976 124.41 46.3848 124.197 46.3848H121.149C121.149 46.3848 120.936 46.3848 120.938 46.5976C120.94 47.05 120.956 47.696 120.973 48.1027C120.973 48.1027 120.982 48.3156 121.194 48.3156Z" fill="#006AB2"/>
<path d="M120.938 45.3999C120.938 45.3999 120.936 45.6127 121.149 45.6127H124.197C124.197 45.6127 124.41 45.6127 124.41 45.3999V43.8949C124.41 43.8949 124.41 43.6821 124.197 43.6821H121.194C121.194 43.6821 120.981 43.6821 120.973 43.8947C120.956 44.3014 120.94 44.9477 120.938 45.3999Z" fill="#006AB2"/>
<path d="M124.41 42.7165V39.7162C124.407 39.6109 124.319 39.5287 124.214 39.5303C123.191 39.5923 122.261 39.6824 121.466 39.7944L121.463 39.7951C121.389 39.8039 121.327 39.856 121.303 39.9268L121.303 39.9267L121.302 39.9299C121.3 39.9376 121.298 39.9453 121.297 39.9532L121.295 39.9597C121.292 39.9804 121.289 40.004 121.285 40.0313C121.187 40.696 121.085 41.7453 121.031 42.6972C121.031 42.6972 121.019 42.9095 121.232 42.9095H124.217C124.324 42.9095 124.41 42.8232 124.41 42.7165ZM124.41 39.7032L124.41 39.7162V39.7101L124.41 39.7032H124.41Z" fill="#006AB2"/>
<path d="M130.588 48.3287C130.588 48.3287 130.588 48.5415 130.738 48.692C130.738 48.692 130.588 48.5415 133.597 51.5508C133.597 51.5508 133.747 51.7011 133.774 51.49C133.921 50.3435 134.033 48.6399 134.055 46.9837C134.055 46.9837 134.058 46.771 133.845 46.771H130.759C130.759 46.771 130.588 46.771 130.588 46.9424V48.3287Z" fill="#006AB2"/>
<path d="M134.063 45.809C134.06 45.0759 134.045 44.379 134.025 43.8947C134.025 43.8947 134.016 43.6821 133.804 43.6821H130.801C130.801 43.6821 130.588 43.6821 130.588 43.8949V45.7859C130.588 45.7859 130.588 45.9987 130.801 45.9987H133.87C133.975 45.9987 134.061 45.9141 134.063 45.809Z" fill="#006AB2"/>
<path d="M133.051 52.0968C130.978 50.0239 130.333 49.379 130.133 49.1784C130.069 49.1171 129.997 49.0835 129.935 49.0878V49.0876H128.484C128.484 49.0876 128.271 49.0876 128.271 49.3006V52.3449C128.271 52.3449 128.271 52.5577 128.484 52.555C130.141 52.5331 131.844 52.4206 132.991 52.2742C132.991 52.2742 133.202 52.2471 133.051 52.0968Z" fill="#006AB2"/>
<path d="M141.584 41.3182H143.841L146.864 48.696H146.983L150.006 41.3182H152.263V51.5H150.493V44.505H150.399L147.585 51.4702H146.262L143.448 44.4901H143.354V51.5H141.584V41.3182ZM156.18 51.6541C155.696 51.6541 155.26 51.5679 154.872 51.3956C154.488 51.2199 154.183 50.9614 153.957 50.62C153.735 50.2786 153.624 49.8577 153.624 49.3572C153.624 48.9264 153.704 48.5701 153.863 48.2884C154.022 48.0066 154.239 47.7812 154.514 47.6122C154.789 47.4432 155.099 47.3156 155.444 47.2294C155.792 47.1399 156.151 47.0753 156.523 47.0355C156.97 46.9891 157.333 46.9477 157.611 46.9112C157.89 46.8714 158.092 46.8118 158.218 46.7322C158.347 46.6494 158.412 46.5218 158.412 46.3494V46.3196C158.412 45.9451 158.301 45.6551 158.079 45.4496C157.857 45.2441 157.537 45.1413 157.119 45.1413C156.678 45.1413 156.329 45.2375 156.07 45.4297C155.815 45.6219 155.643 45.849 155.553 46.1108L153.873 45.8722C154.005 45.4081 154.224 45.0204 154.529 44.7088C154.834 44.3939 155.207 44.1586 155.648 44.0028C156.088 43.8438 156.576 43.7642 157.109 43.7642C157.477 43.7642 157.843 43.8073 158.208 43.8935C158.572 43.9796 158.906 44.1222 159.207 44.321C159.509 44.5166 159.751 44.7834 159.933 45.1214C160.119 45.4595 160.211 45.8821 160.211 46.3892V51.5H158.481V50.451H158.422C158.312 50.6631 158.158 50.862 157.959 51.0476C157.764 51.2299 157.517 51.3774 157.219 51.4901C156.924 51.5994 156.577 51.6541 156.18 51.6541ZM156.647 50.3317C157.008 50.3317 157.321 50.2604 157.586 50.1179C157.852 49.9721 158.055 49.7798 158.198 49.5412C158.344 49.3026 158.417 49.0424 158.417 48.7607V47.8608C158.36 47.9072 158.264 47.9503 158.128 47.9901C157.996 48.0298 157.847 48.0646 157.681 48.0945C157.515 48.1243 157.351 48.1508 157.189 48.174C157.026 48.1972 156.885 48.2171 156.766 48.2337C156.498 48.2701 156.257 48.3298 156.045 48.4126C155.833 48.4955 155.666 48.6115 155.543 48.7607C155.421 48.9065 155.359 49.0954 155.359 49.3274C155.359 49.6589 155.48 49.9091 155.722 50.0781C155.964 50.2472 156.272 50.3317 156.647 50.3317ZM164.645 51.6342C164.045 51.6342 163.508 51.4801 163.034 51.1719C162.56 50.8636 162.186 50.4162 161.911 49.8295C161.635 49.2429 161.498 48.5303 161.498 47.6918C161.498 46.8433 161.637 46.1274 161.916 45.544C162.197 44.9574 162.577 44.5149 163.054 44.2166C163.531 43.915 164.063 43.7642 164.65 43.7642C165.097 43.7642 165.465 43.8404 165.754 43.9929C166.042 44.142 166.271 44.3227 166.44 44.5348C166.609 44.7436 166.74 44.9408 166.832 45.1264H166.907V41.3182H168.712V51.5H166.942V50.2969H166.832C166.74 50.4825 166.605 50.6797 166.43 50.8885C166.254 51.094 166.022 51.2696 165.734 51.4155C165.445 51.5613 165.082 51.6342 164.645 51.6342ZM165.147 50.1577C165.528 50.1577 165.853 50.0549 166.121 49.8494C166.39 49.6406 166.594 49.3506 166.733 48.9794C166.872 48.6082 166.942 48.1757 166.942 47.6818C166.942 47.188 166.872 46.7588 166.733 46.3942C166.597 46.0296 166.395 45.7462 166.126 45.544C165.861 45.3419 165.535 45.2408 165.147 45.2408C164.746 45.2408 164.411 45.3452 164.143 45.554C163.874 45.7628 163.672 46.0511 163.536 46.419C163.4 46.7869 163.332 47.2079 163.332 47.6818C163.332 48.1591 163.4 48.585 163.536 48.9595C163.675 49.3307 163.879 49.6241 164.148 49.8395C164.42 50.0516 164.753 50.1577 165.147 50.1577ZM173.8 51.6491C173.035 51.6491 172.373 51.4901 171.817 51.1719C171.263 50.8504 170.837 50.3963 170.539 49.8097C170.241 49.2197 170.091 48.5253 170.091 47.7266C170.091 46.9411 170.241 46.2517 170.539 45.6584C170.84 45.0618 171.261 44.5978 171.802 44.2663C172.342 43.9316 172.977 43.7642 173.706 43.7642C174.176 43.7642 174.62 43.8404 175.038 43.9929C175.459 44.142 175.83 44.3741 176.152 44.6889C176.477 45.0038 176.732 45.4048 176.917 45.892C177.103 46.3759 177.196 46.9527 177.196 47.6222V48.174H170.937V46.9609H175.471C175.467 46.6162 175.393 46.3097 175.247 46.0412C175.101 45.7694 174.897 45.5556 174.635 45.3999C174.377 45.2441 174.075 45.1662 173.731 45.1662C173.363 45.1662 173.04 45.2557 172.761 45.4347C172.483 45.6103 172.266 45.8423 172.11 46.1307C171.957 46.4157 171.879 46.7289 171.876 47.0703V48.1293C171.876 48.5734 171.957 48.9545 172.12 49.2727C172.282 49.5876 172.509 49.8295 172.801 49.9986C173.093 50.1643 173.434 50.2472 173.825 50.2472C174.087 50.2472 174.324 50.2107 174.536 50.1378C174.748 50.0616 174.932 49.9505 175.088 49.8047C175.244 49.6589 175.361 49.4782 175.441 49.2628L177.121 49.4517C177.015 49.8958 176.813 50.2836 176.515 50.6151C176.22 50.9432 175.842 51.1984 175.381 51.3807C174.92 51.5597 174.393 51.6491 173.8 51.6491ZM181.771 51.5V43.8636H183.571V51.5H181.771ZM182.676 42.7798C182.391 42.7798 182.145 42.6854 181.94 42.4964C181.735 42.3042 181.632 42.0739 181.632 41.8054C181.632 41.5336 181.735 41.3033 181.94 41.1143C182.145 40.9221 182.391 40.826 182.676 40.826C182.964 40.826 183.209 40.9221 183.412 41.1143C183.617 41.3033 183.72 41.5336 183.72 41.8054C183.72 42.0739 183.617 42.3042 183.412 42.4964C183.209 42.6854 182.964 42.7798 182.676 42.7798ZM187.011 47.0256V51.5H185.211V43.8636H186.932V45.1612H187.021C187.197 44.7337 187.477 44.3939 187.861 44.142C188.249 43.8902 188.728 43.7642 189.298 43.7642C189.825 43.7642 190.284 43.8769 190.675 44.1023C191.07 44.3277 191.374 44.6541 191.59 45.0817C191.809 45.5092 191.916 46.0279 191.913 46.6378V51.5H190.113V46.9162C190.113 46.4058 189.981 46.0064 189.716 45.718C189.454 45.4297 189.091 45.2855 188.627 45.2855C188.312 45.2855 188.032 45.3551 187.787 45.4943C187.545 45.6302 187.354 45.8274 187.215 46.0859C187.079 46.3445 187.011 46.6577 187.011 47.0256ZM196.875 51.5V41.3182H198.719V45.9964H198.844L202.816 41.3182H205.068L201.13 45.8871L205.103 51.5H202.885L199.848 47.1349L198.719 48.4673V51.5H196.875ZM206.06 51.5V43.8636H207.805V45.1364H207.884C208.024 44.6955 208.262 44.3558 208.6 44.1172C208.942 43.8752 209.331 43.7543 209.769 43.7543C209.868 43.7543 209.979 43.7592 210.102 43.7692C210.228 43.7758 210.332 43.7874 210.415 43.804V45.4595C210.339 45.433 210.218 45.4098 210.052 45.3899C209.89 45.3667 209.732 45.3551 209.58 45.3551C209.252 45.3551 208.957 45.4264 208.695 45.5689C208.436 45.7081 208.232 45.902 208.083 46.1506C207.934 46.3991 207.86 46.6858 207.86 47.0107V51.5H206.06ZM213.461 51.6541C212.977 51.6541 212.542 51.5679 212.154 51.3956C211.769 51.2199 211.464 50.9614 211.239 50.62C211.017 50.2786 210.906 49.8577 210.906 49.3572C210.906 48.9264 210.986 48.5701 211.145 48.2884C211.304 48.0066 211.521 47.7812 211.796 47.6122C212.071 47.4432 212.381 47.3156 212.726 47.2294C213.074 47.1399 213.433 47.0753 213.804 47.0355C214.252 46.9891 214.615 46.9477 214.893 46.9112C215.172 46.8714 215.374 46.8118 215.5 46.7322C215.629 46.6494 215.694 46.5218 215.694 46.3494V46.3196C215.694 45.9451 215.583 45.6551 215.361 45.4496C215.138 45.2441 214.819 45.1413 214.401 45.1413C213.96 45.1413 213.611 45.2375 213.352 45.4297C213.097 45.6219 212.924 45.849 212.835 46.1108L211.155 45.8722C211.287 45.4081 211.506 45.0204 211.811 44.7088C212.116 44.3939 212.489 44.1586 212.929 44.0028C213.37 43.8438 213.857 43.7642 214.391 43.7642C214.759 43.7642 215.125 43.8073 215.49 43.8935C215.854 43.9796 216.187 44.1222 216.489 44.321C216.791 44.5166 217.033 44.7834 217.215 45.1214C217.401 45.4595 217.493 45.8821 217.493 46.3892V51.5H215.763V50.451H215.704C215.594 50.6631 215.44 50.862 215.241 51.0476C215.046 51.2299 214.799 51.3774 214.5 51.4901C214.205 51.5994 213.859 51.6541 213.461 51.6541ZM213.929 50.3317C214.29 50.3317 214.603 50.2604 214.868 50.1179C215.133 49.9721 215.337 49.7798 215.48 49.5412C215.626 49.3026 215.699 49.0424 215.699 48.7607V47.8608C215.642 47.9072 215.546 47.9503 215.41 47.9901C215.278 48.0298 215.129 48.0646 214.963 48.0945C214.797 48.1243 214.633 48.1508 214.471 48.174C214.308 48.1972 214.167 48.2171 214.048 48.2337C213.78 48.2701 213.539 48.3298 213.327 48.4126C213.115 48.4955 212.948 48.6115 212.825 48.7607C212.702 48.9065 212.641 49.0954 212.641 49.3274C212.641 49.6589 212.762 49.9091 213.004 50.0781C213.246 50.2472 213.554 50.3317 213.929 50.3317ZM220.734 49.1037L220.729 46.9311H221.017L223.761 43.8636H225.864L222.489 47.6222H222.116L220.734 49.1037ZM219.093 51.5V41.3182H220.893V51.5H219.093ZM223.886 51.5L221.4 48.0249L222.613 46.7571L226.038 51.5H223.886ZM229.87 51.6491C229.124 51.6491 228.478 51.4851 227.931 51.157C227.384 50.8288 226.96 50.3698 226.659 49.7798C226.36 49.1899 226.211 48.5005 226.211 47.7116C226.211 46.9228 226.36 46.2318 226.659 45.6385C226.96 45.0452 227.384 44.5845 227.931 44.2564C228.478 43.9283 229.124 43.7642 229.87 43.7642C230.616 43.7642 231.262 43.9283 231.809 44.2564C232.356 44.5845 232.779 45.0452 233.077 45.6385C233.379 46.2318 233.529 46.9228 233.529 47.7116C233.529 48.5005 233.379 49.1899 233.077 49.7798C232.779 50.3698 232.356 50.8288 231.809 51.157C231.262 51.4851 230.616 51.6491 229.87 51.6491ZM229.88 50.2074C230.285 50.2074 230.623 50.0964 230.894 49.8743C231.166 49.6489 231.368 49.3473 231.501 48.9695C231.637 48.5916 231.705 48.1707 231.705 47.7067C231.705 47.2393 231.637 46.8168 231.501 46.4389C231.368 46.0578 231.166 45.7545 230.894 45.5291C230.623 45.3037 230.285 45.1911 229.88 45.1911C229.466 45.1911 229.121 45.3037 228.846 45.5291C228.574 45.7545 228.37 46.0578 228.235 46.4389C228.102 46.8168 228.036 47.2393 228.036 47.7067C228.036 48.1707 228.102 48.5916 228.235 48.9695C228.37 49.3473 228.574 49.6489 228.846 49.8743C229.121 50.0964 229.466 50.2074 229.88 50.2074ZM229.179 42.8594L230.293 40.5874H232.053L230.526 42.8594H229.179ZM236.204 51.5L234.046 43.8636H235.881L237.223 49.233H237.293L238.665 43.8636H240.48L241.852 49.2031H241.926L243.249 43.8636H245.088L242.926 51.5H241.051L239.62 46.3395H239.515L238.083 51.5H236.204Z" fill="#F1EFEF"/>
<rect x="255.5" y="32" width="141" height="28" rx="6" fill="#3C46C9"/>
<rect x="261.5" y="37" width="18" height="18" rx="3.5" fill="#F1EFEF"/>
<path opacity="0.4" fill-rule="evenodd" clip-rule="evenodd" d="M276.389 43.5C276.437 44.2048 276.438 45.0711 276.438 46.152V46.473C276.438 49.1963 276.438 50.5579 275.655 51.404C274.872 52.25 273.613 52.25 271.094 52.25H269.906C267.387 52.25 266.128 52.25 265.345 51.404C264.562 50.5579 264.562 49.1963 264.562 46.473V46.152C264.562 45.0711 264.562 44.2048 264.611 43.5H276.389ZM270.5 46.3125C271.042 46.3125 271.52 46.5888 271.8 47.0082C271.966 47.2563 272.062 47.5543 272.062 47.875C272.062 48.1957 271.966 48.4938 271.8 48.7419C271.52 49.1613 271.042 49.4375 270.5 49.4375C269.958 49.4375 269.48 49.1613 269.2 48.7419C269.034 48.4938 268.938 48.1957 268.938 47.875C268.938 47.5543 269.034 47.2563 269.2 47.0082C269.48 46.5888 269.958 46.3125 270.5 46.3125Z" fill="#3C46C9"/>
<path d="M274.25 39.75V41M266.75 39.75V41" stroke="#3C46C9" stroke-width="1.25" stroke-linecap="round" stroke-linejoin="round"/>
<path d="M264.875 43.5H276.125" stroke="#3C46C9" stroke-width="1.25" stroke-linecap="round" stroke-linejoin="round"/>
<path d="M264.562 46.152C264.562 43.4287 264.562 42.0671 265.345 41.221C266.128 40.375 267.387 40.375 269.906 40.375H271.094C273.613 40.375 274.872 40.375 275.655 41.221C276.438 42.0671 276.438 43.4287 276.438 46.152V46.473C276.438 49.1963 276.438 50.5579 275.655 51.404C274.872 52.25 273.613 52.25 271.094 52.25H269.906C267.387 52.25 266.128 52.25 265.345 51.404C264.562 50.5579 264.562 49.1963 264.562 46.473V46.152Z" stroke="#3C46C9" stroke-width="1.25" stroke-linecap="round" stroke-linejoin="round"/>
<path d="M270.5 49.4375V50.0625M270.5 49.4375C269.958 49.4375 269.48 49.1613 269.2 48.7419M270.5 49.4375C271.042 49.4375 271.52 49.1613 271.8 48.7419M269.2 48.7419L268.625 49.125M269.2 48.7419C269.034 48.4938 268.938 48.1957 268.938 47.875C268.938 47.5543 269.034 47.2563 269.2 47.0082M271.8 48.7419L272.375 49.125M271.8 48.7419C271.966 48.4938 272.062 48.1957 272.062 47.875C272.062 47.5543 271.966 47.2563 271.8 47.0082M270.5 46.3125C271.042 46.3125 271.52 46.5888 271.8 47.0082M270.5 46.3125C269.958 46.3125 269.48 46.5888 269.2 47.0082M270.5 46.3125V45.6875M271.8 47.0082L272.375 46.625M269.2 47.0082L268.625 46.625" stroke="#3C46C9" stroke-width="1.25" stroke-linecap="round"/>
<path d="M288.266 51.6392C287.55 51.6392 286.914 51.5166 286.357 51.2713C285.803 51.026 285.366 50.6847 285.044 50.2472C284.723 49.8097 284.552 49.3042 284.532 48.7308H286.402C286.418 49.0059 286.509 49.2462 286.675 49.4517C286.841 49.6539 287.061 49.8113 287.336 49.924C287.611 50.0367 287.92 50.093 288.261 50.093C288.626 50.093 288.949 50.0301 289.231 49.9041C289.512 49.7749 289.733 49.5959 289.892 49.3672C290.051 49.1385 290.129 48.875 290.125 48.5767C290.129 48.2685 290.049 47.9967 289.887 47.7614C289.724 47.526 289.489 47.3421 289.181 47.2095C288.876 47.0769 288.508 47.0107 288.077 47.0107H287.177V45.5888H288.077C288.432 45.5888 288.742 45.5275 289.007 45.4048C289.275 45.2822 289.486 45.1098 289.638 44.8878C289.791 44.6624 289.865 44.4022 289.862 44.1072C289.865 43.8189 289.801 43.5687 289.668 43.3565C289.539 43.1411 289.355 42.9737 289.116 42.8544C288.881 42.7351 288.604 42.6754 288.286 42.6754C287.974 42.6754 287.686 42.7318 287.421 42.8445C287.156 42.9571 286.942 43.1179 286.78 43.3267C286.617 43.5322 286.531 43.7775 286.521 44.0625H284.746C284.759 43.4924 284.923 42.992 285.238 42.5611C285.557 42.1269 285.981 41.7888 286.511 41.5469C287.041 41.3016 287.636 41.179 288.296 41.179C288.975 41.179 289.565 41.3066 290.066 41.5618C290.57 41.8137 290.959 42.1534 291.234 42.581C291.509 43.0085 291.647 43.4808 291.647 43.9979C291.65 44.5713 291.481 45.0518 291.14 45.4396C290.802 45.8274 290.357 46.081 289.807 46.2003V46.2798C290.523 46.3793 291.072 46.6444 291.453 47.0753C291.837 47.5028 292.028 48.0348 292.025 48.6712C292.025 49.2412 291.862 49.7517 291.537 50.2024C291.216 50.6499 290.772 51.0012 290.205 51.2564C289.642 51.5116 288.995 51.6392 288.266 51.6392ZM294.349 51.6094C294.047 51.6094 293.789 51.5033 293.573 51.2912C293.358 51.0791 293.252 50.8205 293.255 50.5156C293.252 50.2173 293.358 49.9621 293.573 49.75C293.789 49.5379 294.047 49.4318 294.349 49.4318C294.641 49.4318 294.894 49.5379 295.11 49.75C295.328 49.9621 295.439 50.2173 295.443 50.5156C295.439 50.7178 295.386 50.9018 295.284 51.0675C295.184 51.2332 295.052 51.3658 294.886 51.4652C294.723 51.5613 294.544 51.6094 294.349 51.6094ZM300.438 51.6939C299.619 51.6939 298.917 51.4867 298.33 51.0724C297.747 50.6548 297.297 50.0533 296.983 49.2678C296.671 48.4789 296.515 47.5294 296.515 46.419C296.519 45.3087 296.676 44.3641 296.988 43.5852C297.302 42.803 297.752 42.2064 298.335 41.7955C298.922 41.3845 299.623 41.179 300.438 41.179C301.253 41.179 301.954 41.3845 302.541 41.7955C303.127 42.2064 303.577 42.803 303.888 43.5852C304.203 44.3674 304.36 45.312 304.36 46.419C304.36 47.5327 304.203 48.4839 303.888 49.2727C303.577 50.0582 303.127 50.6581 302.541 51.0724C301.958 51.4867 301.257 51.6939 300.438 51.6939ZM300.438 50.1378C301.074 50.1378 301.576 49.8246 301.944 49.1982C302.315 48.5684 302.501 47.642 302.501 46.419C302.501 45.6103 302.417 44.9309 302.248 44.3807C302.078 43.8305 301.84 43.4162 301.532 43.1378C301.223 42.8561 300.859 42.7152 300.438 42.7152C299.805 42.7152 299.304 43.0301 298.936 43.6598C298.569 44.2862 298.383 45.206 298.38 46.419C298.376 47.2311 298.458 47.9138 298.623 48.4673C298.792 49.0208 299.031 49.4384 299.339 49.7202C299.647 49.9986 300.014 50.1378 300.438 50.1378ZM306.534 51.6094C306.233 51.6094 305.974 51.5033 305.759 51.2912C305.543 51.0791 305.437 50.8205 305.441 50.5156C305.437 50.2173 305.543 49.9621 305.759 49.75C305.974 49.5379 306.233 49.4318 306.534 49.4318C306.826 49.4318 307.08 49.5379 307.295 49.75C307.514 49.9621 307.625 50.2173 307.628 50.5156C307.625 50.7178 307.572 50.9018 307.469 51.0675C307.37 51.2332 307.237 51.3658 307.071 51.4652C306.909 51.5613 306.73 51.6094 306.534 51.6094ZM312.623 51.6939C311.805 51.6939 311.102 51.4867 310.515 51.0724C309.932 50.6548 309.483 50.0533 309.168 49.2678C308.857 48.4789 308.701 47.5294 308.701 46.419C308.704 45.3087 308.861 44.3641 309.173 43.5852C309.488 42.803 309.937 42.2064 310.52 41.7955C311.107 41.3845 311.808 41.179 312.623 41.179C313.439 41.179 314.14 41.3845 314.726 41.7955C315.313 42.2064 315.762 42.803 316.074 43.5852C316.388 44.3674 316.546 45.312 316.546 46.419C316.546 47.5327 316.388 48.4839 316.074 49.2727C315.762 50.0582 315.313 50.6581 314.726 51.0724C314.143 51.4867 313.442 51.6939 312.623 51.6939ZM312.623 50.1378C313.26 50.1378 313.762 49.8246 314.13 49.1982C314.501 48.5684 314.687 47.642 314.687 46.419C314.687 45.6103 314.602 44.9309 314.433 44.3807C314.264 43.8305 314.025 43.4162 313.717 43.1378C313.409 42.8561 313.044 42.7152 312.623 42.7152C311.99 42.7152 311.49 43.0301 311.122 43.6598C310.754 44.2862 310.568 45.206 310.565 46.419C310.562 47.2311 310.643 47.9138 310.809 48.4673C310.978 49.0208 311.216 49.4384 311.525 49.7202C311.833 49.9986 312.199 50.1378 312.623 50.1378Z" fill="#F1EFEF"/>
<path d="M327.366 46.5C327.366 47.3437 327.214 48.0729 326.909 48.6875C326.604 49.3021 326.186 49.776 325.655 50.1094C325.124 50.4427 324.517 50.6094 323.835 50.6094C323.152 50.6094 322.546 50.4427 322.014 50.1094C321.483 49.776 321.065 49.3021 320.761 48.6875C320.456 48.0729 320.303 47.3437 320.303 46.5C320.303 45.6562 320.456 44.9271 320.761 44.3125C321.065 43.6979 321.483 43.224 322.014 42.8906C322.546 42.5573 323.152 42.3906 323.835 42.3906C324.517 42.3906 325.124 42.5573 325.655 42.8906C326.186 43.224 326.604 43.6979 326.909 44.3125C327.214 44.9271 327.366 45.6562 327.366 46.5ZM326.428 46.5C326.428 45.8073 326.313 45.2227 326.081 44.7461C325.852 44.2695 325.54 43.9089 325.147 43.6641C324.757 43.4193 324.319 43.2969 323.835 43.2969C323.35 43.2969 322.912 43.4193 322.518 43.6641C322.128 43.9089 321.817 44.2695 321.585 44.7461C321.356 45.2227 321.241 45.8073 321.241 46.5C321.241 47.1927 321.356 47.7773 321.585 48.2539C321.817 48.7305 322.128 49.0911 322.518 49.3359C322.912 49.5807 323.35 49.7031 323.835 49.7031C324.319 49.7031 324.757 49.5807 325.147 49.3359C325.54 49.0911 325.852 48.7305 326.081 48.2539C326.313 47.7773 326.428 47.1927 326.428 46.5ZM331.142 50.625C330.58 50.625 330.096 50.4922 329.689 50.2266C329.283 49.9609 328.971 49.5951 328.752 49.1289C328.533 48.6628 328.424 48.1302 328.424 47.5312C328.424 46.9219 328.536 46.3841 328.76 45.918C328.986 45.4492 329.301 45.0833 329.705 44.8203C330.111 44.5547 330.585 44.4219 331.127 44.4219C331.549 44.4219 331.929 44.5 332.267 44.6562C332.606 44.8125 332.883 45.0312 333.099 45.3125C333.316 45.5937 333.45 45.9219 333.502 46.2969H332.58C332.51 46.0234 332.353 45.7812 332.111 45.5703C331.872 45.3568 331.549 45.25 331.142 45.25C330.783 45.25 330.468 45.3437 330.197 45.5312C329.929 45.7161 329.719 45.9779 329.568 46.3164C329.42 46.6523 329.346 47.0469 329.346 47.5C329.346 47.9635 329.418 48.3672 329.564 48.7109C329.713 49.0547 329.921 49.3216 330.189 49.5117C330.46 49.7018 330.778 49.7969 331.142 49.7969C331.382 49.7969 331.599 49.7552 331.795 49.6719C331.99 49.5885 332.155 49.4688 332.291 49.3125C332.426 49.1562 332.523 48.9687 332.58 48.75H333.502C333.45 49.1042 333.321 49.4232 333.115 49.707C332.912 49.9883 332.642 50.2122 332.306 50.3789C331.973 50.543 331.585 50.625 331.142 50.625ZM337.294 44.5V45.2812H334.184V44.5H337.294ZM335.091 43.0625H336.013V48.7812C336.013 49.0417 336.05 49.237 336.126 49.3672C336.204 49.4948 336.303 49.5807 336.423 49.625C336.545 49.6667 336.674 49.6875 336.809 49.6875C336.911 49.6875 336.994 49.6823 337.059 49.6719C337.125 49.6589 337.177 49.6484 337.216 49.6406L337.403 50.4687C337.341 50.4922 337.253 50.5156 337.141 50.5391C337.029 50.5651 336.888 50.5781 336.716 50.5781C336.455 50.5781 336.2 50.5221 335.95 50.4102C335.703 50.2982 335.497 50.1276 335.333 49.8984C335.171 49.6693 335.091 49.3802 335.091 49.0312V43.0625ZM340.889 50.625C340.347 50.625 339.872 50.4961 339.463 50.2383C339.057 49.9805 338.739 49.6198 338.51 49.1562C338.283 48.6927 338.17 48.151 338.17 47.5312C338.17 46.9062 338.283 46.3607 338.51 45.8945C338.739 45.4284 339.057 45.0664 339.463 44.8086C339.872 44.5508 340.347 44.4219 340.889 44.4219C341.43 44.4219 341.904 44.5508 342.31 44.8086C342.719 45.0664 343.037 45.4284 343.264 45.8945C343.493 46.3607 343.607 46.9062 343.607 47.5312C343.607 48.151 343.493 48.6927 343.264 49.1562C343.037 49.6198 342.719 49.9805 342.31 50.2383C341.904 50.4961 341.43 50.625 340.889 50.625ZM340.889 49.7969C341.3 49.7969 341.639 49.6914 341.904 49.4805C342.17 49.2695 342.366 48.9922 342.494 48.6484C342.622 48.3047 342.685 47.9323 342.685 47.5312C342.685 47.1302 342.622 46.7565 342.494 46.4102C342.366 46.0638 342.17 45.7839 341.904 45.5703C341.639 45.3568 341.3 45.25 340.889 45.25C340.477 45.25 340.139 45.3568 339.873 45.5703C339.607 45.7839 339.411 46.0638 339.283 46.4102C339.156 46.7565 339.092 47.1302 339.092 47.5312C339.092 47.9323 339.156 48.3047 339.283 48.6484C339.411 48.9922 339.607 49.2695 339.873 49.4805C340.139 49.6914 340.477 49.7969 340.889 49.7969ZM344.975 50.5V42.5H345.896V45.4531H345.975C346.042 45.349 346.136 45.2161 346.256 45.0547C346.378 44.8906 346.553 44.7448 346.779 44.6172C347.008 44.487 347.318 44.4219 347.709 44.4219C348.214 44.4219 348.659 44.5482 349.045 44.8008C349.43 45.0534 349.731 45.4115 349.947 45.875C350.163 46.3385 350.271 46.8854 350.271 47.5156C350.271 48.151 350.163 48.7018 349.947 49.168C349.731 49.6315 349.432 49.9909 349.049 50.2461C348.666 50.4987 348.225 50.625 347.725 50.625C347.339 50.625 347.031 50.5612 346.799 50.4336C346.567 50.3034 346.389 50.1562 346.264 49.9922C346.139 49.8255 346.042 49.6875 345.975 49.5781H345.865V50.5H344.975ZM345.881 47.5C345.881 47.9531 345.947 48.3529 346.08 48.6992C346.213 49.043 346.407 49.3125 346.662 49.5078C346.917 49.7005 347.23 49.7969 347.6 49.7969C347.985 49.7969 348.307 49.6953 348.564 49.4922C348.825 49.2865 349.02 49.0104 349.15 48.6641C349.283 48.3151 349.35 47.9271 349.35 47.5C349.35 47.0781 349.284 46.6979 349.154 46.3594C349.027 46.0182 348.833 45.7487 348.572 45.5508C348.314 45.3503 347.99 45.25 347.6 45.25C347.225 45.25 346.909 45.3451 346.654 45.5352C346.399 45.7227 346.206 45.9857 346.076 46.3242C345.946 46.6602 345.881 47.0521 345.881 47.5ZM354.032 50.625C353.454 50.625 352.955 50.4974 352.536 50.2422C352.119 49.9844 351.798 49.625 351.571 49.1641C351.347 48.7005 351.235 48.1615 351.235 47.5469C351.235 46.9323 351.347 46.3906 351.571 45.9219C351.798 45.4505 352.113 45.0833 352.517 44.8203C352.923 44.5547 353.397 44.4219 353.938 44.4219C354.251 44.4219 354.56 44.474 354.864 44.5781C355.169 44.6823 355.446 44.8516 355.696 45.0859C355.946 45.3177 356.145 45.625 356.294 46.0078C356.442 46.3906 356.517 46.862 356.517 47.4219V47.8125H351.892V47.0156H355.579C355.579 46.6771 355.511 46.375 355.376 46.1094C355.243 45.8437 355.053 45.6341 354.806 45.4805C354.561 45.3268 354.272 45.25 353.938 45.25C353.571 45.25 353.254 45.3411 352.985 45.5234C352.72 45.7031 352.515 45.9375 352.372 46.2266C352.229 46.5156 352.157 46.8255 352.157 47.1562V47.6875C352.157 48.1406 352.235 48.5247 352.392 48.8398C352.55 49.1523 352.77 49.3906 353.052 49.5547C353.333 49.7161 353.66 49.7969 354.032 49.7969C354.274 49.7969 354.493 49.763 354.688 49.6953C354.886 49.625 355.057 49.5208 355.2 49.3828C355.343 49.2422 355.454 49.0677 355.532 48.8594L356.423 49.1094C356.329 49.4115 356.172 49.6771 355.95 49.9062C355.729 50.1328 355.455 50.3099 355.13 50.4375C354.804 50.5625 354.438 50.625 354.032 50.625ZM357.754 50.5V44.5H358.645V45.4062H358.707C358.816 45.1094 359.014 44.8685 359.301 44.6836C359.587 44.4987 359.91 44.4062 360.27 44.4062C360.337 44.4062 360.422 44.4076 360.523 44.4102C360.625 44.4128 360.702 44.4167 360.754 44.4219V45.3594C360.723 45.3516 360.651 45.3398 360.539 45.3242C360.43 45.306 360.314 45.2969 360.191 45.2969C359.9 45.2969 359.639 45.3581 359.41 45.4805C359.184 45.6003 359.004 45.7669 358.871 45.9805C358.741 46.1914 358.676 46.4323 358.676 46.7031V50.5H357.754ZM364.595 50.5V49.7969L367.235 46.9062C367.545 46.5677 367.801 46.2734 368.001 46.0234C368.202 45.7708 368.35 45.5339 368.446 45.3125C368.545 45.0885 368.595 44.8542 368.595 44.6094C368.595 44.3281 368.527 44.0846 368.392 43.8789C368.259 43.6732 368.077 43.5143 367.845 43.4023C367.613 43.2904 367.353 43.2344 367.064 43.2344C366.756 43.2344 366.488 43.2982 366.259 43.4258C366.032 43.5508 365.857 43.7266 365.732 43.9531C365.609 44.1797 365.548 44.4453 365.548 44.75H364.626C364.626 44.2812 364.734 43.8698 364.95 43.5156C365.166 43.1615 365.461 42.8854 365.833 42.6875C366.208 42.4896 366.629 42.3906 367.095 42.3906C367.564 42.3906 367.979 42.4896 368.341 42.6875C368.703 42.8854 368.987 43.1523 369.192 43.4883C369.398 43.8242 369.501 44.1979 369.501 44.6094C369.501 44.9036 369.448 45.1914 369.341 45.4727C369.237 45.7513 369.054 46.0625 368.794 46.4062C368.536 46.7474 368.178 47.1641 367.72 47.6562L365.923 49.5781V49.6406H369.642V50.5H364.595ZM373.699 50.6094C373.111 50.6094 372.61 50.4492 372.195 50.1289C371.781 49.806 371.465 49.3385 371.246 48.7266C371.027 48.112 370.918 47.3698 370.918 46.5C370.918 45.6354 371.027 44.8971 371.246 44.2852C371.468 43.6706 371.785 43.2018 372.199 42.8789C372.616 42.5534 373.116 42.3906 373.699 42.3906C374.283 42.3906 374.781 42.5534 375.195 42.8789C375.612 43.2018 375.93 43.6706 376.149 44.2852C376.37 44.8971 376.481 45.6354 376.481 46.5C376.481 47.3698 376.371 48.112 376.152 48.7266C375.934 49.3385 375.617 49.806 375.203 50.1289C374.789 50.4492 374.288 50.6094 373.699 50.6094ZM373.699 49.75C374.283 49.75 374.736 49.4687 375.059 48.9062C375.382 48.3437 375.543 47.5417 375.543 46.5C375.543 45.8073 375.469 45.2174 375.32 44.7305C375.175 44.2435 374.964 43.8724 374.688 43.6172C374.414 43.362 374.085 43.2344 373.699 43.2344C373.121 43.2344 372.669 43.5195 372.344 44.0898C372.018 44.6576 371.856 45.4609 371.856 46.5C371.856 47.1927 371.929 47.7812 372.074 48.2656C372.22 48.75 372.43 49.1185 372.703 49.3711C372.979 49.6237 373.311 49.75 373.699 49.75ZM377.8 50.5V49.7969L380.441 46.9062C380.751 46.5677 381.006 46.2734 381.206 46.0234C381.407 45.7708 381.555 45.5339 381.652 45.3125C381.751 45.0885 381.8 44.8542 381.8 44.6094C381.8 44.3281 381.732 44.0846 381.597 43.8789C381.464 43.6732 381.282 43.5143 381.05 43.4023C380.818 43.2904 380.558 43.2344 380.269 43.2344C379.961 43.2344 379.693 43.2982 379.464 43.4258C379.237 43.5508 379.062 43.7266 378.937 43.9531C378.814 44.1797 378.753 44.4453 378.753 44.75H377.831C377.831 44.2812 377.939 43.8698 378.155 43.5156C378.372 43.1615 378.666 42.8854 379.038 42.6875C379.413 42.4896 379.834 42.3906 380.3 42.3906C380.769 42.3906 381.184 42.4896 381.546 42.6875C381.908 42.8854 382.192 43.1523 382.398 43.4883C382.603 43.8242 382.706 44.1979 382.706 44.6094C382.706 44.9036 382.653 45.1914 382.546 45.4727C382.442 45.7513 382.26 46.0625 381.999 46.4062C381.741 46.7474 381.383 47.1641 380.925 47.6562L379.128 49.5781V49.6406H382.847V50.5H377.8ZM383.936 48.8594V48.0625L387.451 42.5H388.03V43.7344H387.639L384.983 47.9375V48H389.717V48.8594H383.936ZM387.701 50.5V48.6172V48.2461V42.5H388.623V50.5H387.701Z" fill="#C6C6C8"/>
<rect x="400.5" y="32" width="164" height="28" rx="6" fill="#3C46C9"/>
<rect x="406.5" y="37" width="18" height="18" rx="3.5" fill="#F1EFEF"/>
<path d="M415.5 52.25H414.562C412.205 52.25 411.027 52.25 410.295 51.5177C409.562 50.7855 409.562 49.607 409.563 47.2499L409.563 44.75C409.563 42.393 409.563 41.2145 410.295 40.4822C411.027 39.75 412.206 39.75 414.562 39.75H415.187C417.544 39.75 418.723 39.75 419.455 40.4822C420.187 41.2145 420.187 42.393 420.187 44.75V45.375" stroke="#3C46C9" stroke-width="1.25" stroke-linecap="round" stroke-linejoin="round"/>
<path d="M412.375 42.875H417.375M412.375 46H415.188" stroke="#3C46C9" stroke-width="1.25" stroke-linecap="round" stroke-linejoin="round"/>
<path d="M418.938 51.4829C420.042 51.4829 420.938 50.5672 420.938 49.4375C420.938 48.3078 420.042 47.3921 418.938 47.3921M418.938 51.4829C417.833 51.4829 416.938 50.5672 416.938 49.4375C416.938 48.3078 417.833 47.3921 418.938 47.3921M418.938 51.4829V52.25M418.938 47.3921V46.625M417.12 48.3218L416.438 47.9034M421.438 50.9716L420.756 50.5532M420.755 48.3218L421.437 47.9034M416.438 50.9716L417.119 50.5532" stroke="#3C46C9" stroke-width="1.25" stroke-linecap="round"/>
<path opacity="0.4" d="M420.187 44.75V47.25C420.187 47.4552 420.187 47.6516 420.187 47.8394C419.845 47.5592 419.41 47.3916 418.938 47.3916C417.833 47.3916 416.938 48.3074 416.938 49.4371C416.938 50.5667 417.833 51.4825 418.938 51.4825C419.165 51.4825 419.383 51.4439 419.586 51.3727C419.545 51.423 419.502 51.4713 419.455 51.5177C418.723 52.25 417.544 52.25 415.187 52.25H414.562C412.205 52.25 411.027 52.25 410.295 51.5177C409.562 50.7855 409.562 49.607 409.563 47.2499L409.563 44.75C409.563 42.393 409.563 41.2145 410.295 40.4822C411.027 39.75 412.206 39.75 414.562 39.75H415.187C417.544 39.75 418.723 39.75 419.455 40.4822C420.187 41.2145 420.187 42.393 420.187 44.75Z" fill="#3C46C9"/>
<path d="M431.097 51.5H429.128L432.713 41.3182H434.99L438.579 51.5H436.61L433.891 43.4062H433.811L431.097 51.5ZM431.161 47.5078H436.531V48.9893H431.161V47.5078ZM439.631 54.3636V43.8636H441.4V45.1264H441.505C441.598 44.9408 441.729 44.7436 441.898 44.5348C442.067 44.3227 442.295 44.142 442.584 43.9929C442.872 43.8404 443.24 43.7642 443.687 43.7642C444.277 43.7642 444.809 43.915 445.283 44.2166C445.761 44.5149 446.138 44.9574 446.417 45.544C446.699 46.1274 446.839 46.8433 446.839 47.6918C446.839 48.5303 446.702 49.2429 446.427 49.8295C446.152 50.4162 445.777 50.8636 445.303 51.1719C444.829 51.4801 444.292 51.6342 443.692 51.6342C443.255 51.6342 442.892 51.5613 442.604 51.4155C442.315 51.2696 442.083 51.094 441.908 50.8885C441.735 50.6797 441.601 50.4825 441.505 50.2969H441.43V54.3636H439.631ZM441.395 47.6818C441.395 48.1757 441.465 48.6082 441.604 48.9794C441.747 49.3506 441.951 49.6406 442.216 49.8494C442.484 50.0549 442.809 50.1577 443.19 50.1577C443.588 50.1577 443.921 50.0516 444.19 49.8395C444.458 49.6241 444.66 49.3307 444.796 48.9595C444.935 48.585 445.005 48.1591 445.005 47.6818C445.005 47.2079 444.937 46.7869 444.801 46.419C444.665 46.0511 444.463 45.7628 444.194 45.554C443.926 45.3452 443.591 45.2408 443.19 45.2408C442.806 45.2408 442.479 45.3419 442.211 45.544C441.942 45.7462 441.739 46.0296 441.599 46.3942C441.463 46.7588 441.395 47.188 441.395 47.6818ZM450.368 51.6541C449.884 51.6541 449.448 51.5679 449.06 51.3956C448.676 51.2199 448.371 50.9614 448.146 50.62C447.924 50.2786 447.813 49.8577 447.813 49.3572C447.813 48.9264 447.892 48.5701 448.051 48.2884C448.21 48.0066 448.427 47.7812 448.703 47.6122C448.978 47.4432 449.288 47.3156 449.632 47.2294C449.98 47.1399 450.34 47.0753 450.711 47.0355C451.159 46.9891 451.521 46.9477 451.8 46.9112C452.078 46.8714 452.28 46.8118 452.406 46.7322C452.536 46.6494 452.6 46.5218 452.6 46.3494V46.3196C452.6 45.9451 452.489 45.6551 452.267 45.4496C452.045 45.2441 451.725 45.1413 451.308 45.1413C450.867 45.1413 450.517 45.2375 450.259 45.4297C450.003 45.6219 449.831 45.849 449.742 46.1108L448.061 45.8722C448.194 45.4081 448.413 45.0204 448.717 44.7088C449.022 44.3939 449.395 44.1586 449.836 44.0028C450.277 43.8438 450.764 43.7642 451.298 43.7642C451.666 43.7642 452.032 43.8073 452.396 43.8935C452.761 43.9796 453.094 44.1222 453.396 44.321C453.697 44.5166 453.939 44.7834 454.122 45.1214C454.307 45.4595 454.4 45.8821 454.4 46.3892V51.5H452.67V50.451H452.61C452.501 50.6631 452.347 50.862 452.148 51.0476C451.952 51.2299 451.705 51.3774 451.407 51.4901C451.112 51.5994 450.766 51.6541 450.368 51.6541ZM450.835 50.3317C451.197 50.3317 451.51 50.2604 451.775 50.1179C452.04 49.9721 452.244 49.7798 452.386 49.5412C452.532 49.3026 452.605 49.0424 452.605 48.7607V47.8608C452.549 47.9072 452.453 47.9503 452.317 47.9901C452.184 48.0298 452.035 48.0646 451.869 48.0945C451.704 48.1243 451.54 48.1508 451.377 48.174C451.215 48.1972 451.074 48.2171 450.955 48.2337C450.686 48.2701 450.446 48.3298 450.234 48.4126C450.022 48.4955 449.854 48.6115 449.732 48.7607C449.609 48.9065 449.548 49.0954 449.548 49.3274C449.548 49.6589 449.669 49.9091 449.911 50.0781C450.153 50.2472 450.461 50.3317 450.835 50.3317ZM459.331 51.6491C458.568 51.6491 457.914 51.4818 457.367 51.147C456.823 50.8123 456.404 50.3499 456.109 49.7599C455.817 49.1667 455.672 48.4839 455.672 47.7116C455.672 46.9361 455.821 46.2517 456.119 45.6584C456.417 45.0618 456.838 44.5978 457.382 44.2663C457.929 43.9316 458.575 43.7642 459.321 43.7642C459.94 43.7642 460.489 43.8786 460.966 44.1072C461.447 44.3326 461.83 44.6525 462.115 45.0668C462.4 45.4777 462.562 45.9583 462.602 46.5085H460.882C460.812 46.1406 460.646 45.834 460.385 45.5888C460.126 45.3402 459.78 45.2159 459.346 45.2159C458.978 45.2159 458.654 45.3153 458.376 45.5142C458.098 45.7098 457.881 45.9915 457.725 46.3594C457.572 46.7273 457.496 47.1681 457.496 47.6818C457.496 48.2022 457.572 48.6496 457.725 49.0241C457.877 49.3954 458.091 49.6821 458.366 49.8842C458.645 50.0831 458.971 50.1825 459.346 50.1825C459.611 50.1825 459.848 50.1328 460.056 50.0334C460.269 49.9306 460.446 49.7831 460.588 49.5909C460.731 49.3987 460.829 49.165 460.882 48.8899H462.602C462.559 49.4302 462.4 49.9091 462.125 50.3267C461.85 50.741 461.475 51.0658 461.001 51.3011C460.527 51.5331 459.97 51.6491 459.331 51.6491ZM465.669 47.0256V51.5H463.87V41.3182H465.63V45.1612H465.719C465.898 44.7304 466.175 44.3906 466.549 44.142C466.927 43.8902 467.408 43.7642 467.991 43.7642C468.521 43.7642 468.984 43.8752 469.378 44.0973C469.773 44.3194 470.078 44.6442 470.293 45.0717C470.512 45.4993 470.621 46.0213 470.621 46.6378V51.5H468.821V46.9162C468.821 46.4025 468.689 46.0031 468.424 45.718C468.162 45.4297 467.794 45.2855 467.32 45.2855C467.002 45.2855 466.717 45.3551 466.465 45.4943C466.216 45.6302 466.021 45.8274 465.878 46.0859C465.739 46.3445 465.669 46.6577 465.669 47.0256ZM475.626 51.6491C474.861 51.6491 474.199 51.4901 473.643 51.1719C473.089 50.8504 472.663 50.3963 472.365 49.8097C472.067 49.2197 471.918 48.5253 471.918 47.7266C471.918 46.9411 472.067 46.2517 472.365 45.6584C472.667 45.0618 473.088 44.5978 473.628 44.2663C474.168 43.9316 474.803 43.7642 475.532 43.7642C476.003 43.7642 476.447 43.8404 476.864 43.9929C477.285 44.142 477.656 44.3741 477.978 44.6889C478.303 45.0038 478.558 45.4048 478.744 45.892C478.929 46.3759 479.022 46.9527 479.022 47.6222V48.174H472.763V46.9609H477.297C477.293 46.6162 477.219 46.3097 477.073 46.0412C476.927 45.7694 476.723 45.5556 476.462 45.3999C476.203 45.2441 475.901 45.1662 475.557 45.1662C475.189 45.1662 474.866 45.2557 474.587 45.4347C474.309 45.6103 474.092 45.8423 473.936 46.1307C473.784 46.4157 473.706 46.7289 473.702 47.0703V48.1293C473.702 48.5734 473.784 48.9545 473.946 49.2727C474.108 49.5876 474.335 49.8295 474.627 49.9986C474.919 50.1643 475.26 50.2472 475.651 50.2472C475.913 50.2472 476.15 50.2107 476.362 50.1378C476.574 50.0616 476.758 49.9505 476.914 49.8047C477.07 49.6589 477.187 49.4782 477.267 49.2628L478.947 49.4517C478.841 49.8958 478.639 50.2836 478.341 50.6151C478.046 50.9432 477.668 51.1984 477.207 51.3807C476.747 51.5597 476.22 51.6491 475.626 51.6491ZM483.577 51.5V50.1676L487.112 46.7024C487.45 46.361 487.732 46.0578 487.957 45.7926C488.183 45.5275 488.352 45.2706 488.464 45.022C488.577 44.7734 488.633 44.5083 488.633 44.2266C488.633 43.9051 488.56 43.63 488.415 43.4013C488.269 43.1693 488.068 42.9903 487.813 42.8643C487.558 42.7384 487.268 42.6754 486.943 42.6754C486.608 42.6754 486.315 42.745 486.063 42.8842C485.811 43.0201 485.616 43.214 485.476 43.4659C485.341 43.7178 485.273 44.0178 485.273 44.3658H483.518C483.518 43.7195 483.665 43.1577 483.96 42.6804C484.255 42.2031 484.661 41.8336 485.178 41.5717C485.698 41.3099 486.295 41.179 486.968 41.179C487.651 41.179 488.251 41.3066 488.768 41.5618C489.285 41.817 489.686 42.1667 489.971 42.6108C490.259 43.0549 490.403 43.562 490.403 44.1321C490.403 44.5133 490.33 44.8878 490.184 45.2557C490.039 45.6236 489.782 46.0312 489.414 46.4787C489.049 46.9261 488.537 47.468 487.878 48.1044L486.123 49.8892V49.9588H490.557V51.5H483.577ZM493.191 51.6094C492.89 51.6094 492.631 51.5033 492.416 51.2912C492.2 51.0791 492.094 50.8205 492.097 50.5156C492.094 50.2173 492.2 49.9621 492.416 49.75C492.631 49.5379 492.89 49.4318 493.191 49.4318C493.483 49.4318 493.736 49.5379 493.952 49.75C494.171 49.9621 494.282 50.2173 494.285 50.5156C494.282 50.7178 494.229 50.9018 494.126 51.0675C494.026 51.2332 493.894 51.3658 493.728 51.4652C493.566 51.5613 493.387 51.6094 493.191 51.6094ZM499.28 51.6939C498.461 51.6939 497.759 51.4867 497.172 51.0724C496.589 50.6548 496.14 50.0533 495.825 49.2678C495.513 48.4789 495.358 47.5294 495.358 46.419C495.361 45.3087 495.518 44.3641 495.83 43.5852C496.145 42.803 496.594 42.2064 497.177 41.7955C497.764 41.3845 498.465 41.179 499.28 41.179C500.095 41.179 500.796 41.3845 501.383 41.7955C501.97 42.2064 502.419 42.803 502.73 43.5852C503.045 44.3674 503.203 45.312 503.203 46.419C503.203 47.5327 503.045 48.4839 502.73 49.2727C502.419 50.0582 501.97 50.6581 501.383 51.0724C500.8 51.4867 500.099 51.6939 499.28 51.6939ZM499.28 50.1378C499.916 50.1378 500.419 49.8246 500.787 49.1982C501.158 48.5684 501.343 47.642 501.343 46.419C501.343 45.6103 501.259 44.9309 501.09 44.3807C500.921 43.8305 500.682 43.4162 500.374 43.1378C500.066 42.8561 499.701 42.7152 499.28 42.7152C498.647 42.7152 498.147 43.0301 497.779 43.6598C497.411 44.2862 497.225 45.206 497.222 46.419C497.219 47.2311 497.3 47.9138 497.465 48.4673C497.635 49.0208 497.873 49.4384 498.181 49.7202C498.49 49.9986 498.856 50.1378 499.28 50.1378ZM508.007 51.5V41.3182H509.851V49.9538H514.335V51.5H508.007ZM515.647 51.5V43.8636H517.446V51.5H515.647ZM516.552 42.7798C516.267 42.7798 516.021 42.6854 515.816 42.4964C515.61 42.3042 515.508 42.0739 515.508 41.8054C515.508 41.5336 515.61 41.3033 515.816 41.1143C516.021 40.9221 516.267 40.826 516.552 40.826C516.84 40.826 517.085 40.9221 517.287 41.1143C517.493 41.3033 517.596 41.5336 517.596 41.8054C517.596 42.0739 517.493 42.3042 517.287 42.4964C517.085 42.6854 516.84 42.7798 516.552 42.7798ZM522.418 51.6491C521.656 51.6491 521.001 51.4818 520.454 51.147C519.911 50.8123 519.491 50.3499 519.197 49.7599C518.905 49.1667 518.759 48.4839 518.759 47.7116C518.759 46.9361 518.908 46.2517 519.206 45.6584C519.505 45.0618 519.926 44.5978 520.469 44.2663C521.016 43.9316 521.662 43.7642 522.408 43.7642C523.028 43.7642 523.576 43.8786 524.054 44.1072C524.534 44.3326 524.917 44.6525 525.202 45.0668C525.487 45.4777 525.65 45.9583 525.689 46.5085H523.969C523.9 46.1406 523.734 45.834 523.472 45.5888C523.214 45.3402 522.867 45.2159 522.433 45.2159C522.065 45.2159 521.742 45.3153 521.464 45.5142C521.185 45.7098 520.968 45.9915 520.812 46.3594C520.66 46.7273 520.584 47.1681 520.584 47.6818C520.584 48.2022 520.66 48.6496 520.812 49.0241C520.965 49.3954 521.179 49.6821 521.454 49.8842C521.732 50.0831 522.058 50.1825 522.433 50.1825C522.698 50.1825 522.935 50.1328 523.144 50.0334C523.356 49.9306 523.533 49.7831 523.676 49.5909C523.818 49.3987 523.916 49.165 523.969 48.8899H525.689C525.646 49.4302 525.487 49.9091 525.212 50.3267C524.937 50.741 524.563 51.0658 524.089 51.3011C523.615 51.5331 523.058 51.6491 522.418 51.6491ZM530.338 51.6491C529.572 51.6491 528.911 51.4901 528.354 51.1719C527.801 50.8504 527.375 50.3963 527.077 49.8097C526.778 49.2197 526.629 48.5253 526.629 47.7266C526.629 46.9411 526.778 46.2517 527.077 45.6584C527.378 45.0618 527.799 44.5978 528.339 44.2663C528.88 43.9316 529.514 43.7642 530.243 43.7642C530.714 43.7642 531.158 43.8404 531.576 43.9929C531.997 44.142 532.368 44.3741 532.689 44.6889C533.014 45.0038 533.269 45.4048 533.455 45.892C533.641 46.3759 533.733 46.9527 533.733 47.6222V48.174H527.474V46.9609H532.008C532.005 46.6162 531.93 46.3097 531.785 46.0412C531.639 45.7694 531.435 45.5556 531.173 45.3999C530.915 45.2441 530.613 45.1662 530.268 45.1662C529.9 45.1662 529.577 45.2557 529.299 45.4347C529.02 45.6103 528.803 45.8423 528.648 46.1307C528.495 46.4157 528.417 46.7289 528.414 47.0703V48.1293C528.414 48.5734 528.495 48.9545 528.658 49.2727C528.82 49.5876 529.047 49.8295 529.339 49.9986C529.63 50.1643 529.972 50.2472 530.363 50.2472C530.625 50.2472 530.862 50.2107 531.074 50.1378C531.286 50.0616 531.47 49.9505 531.626 49.8047C531.781 49.6589 531.899 49.4782 531.979 49.2628L533.659 49.4517C533.553 49.8958 533.351 50.2836 533.052 50.6151C532.757 50.9432 532.38 51.1984 531.919 51.3807C531.458 51.5597 530.931 51.6491 530.338 51.6491ZM536.846 47.0256V51.5H535.046V43.8636H536.766V45.1612H536.856C537.031 44.7337 537.311 44.3939 537.696 44.142C538.084 43.8902 538.563 43.7642 539.133 43.7642C539.66 43.7642 540.119 43.8769 540.51 44.1023C540.904 44.3277 541.209 44.6541 541.425 45.0817C541.643 45.5092 541.751 46.0279 541.748 46.6378V51.5H539.948V46.9162C539.948 46.4058 539.815 46.0064 539.55 45.718C539.288 45.4297 538.926 45.2855 538.462 45.2855C538.147 45.2855 537.867 45.3551 537.621 45.4943C537.379 45.6302 537.189 45.8274 537.05 46.0859C536.914 46.3445 536.846 46.6577 536.846 47.0256ZM549.403 45.8821L547.762 46.0611C547.716 45.8954 547.635 45.7396 547.519 45.5938C547.406 45.4479 547.253 45.3303 547.061 45.2408C546.869 45.1513 546.634 45.1065 546.355 45.1065C545.981 45.1065 545.666 45.1877 545.411 45.3501C545.159 45.5125 545.034 45.723 545.038 45.9815C545.034 46.2036 545.116 46.3842 545.281 46.5234C545.45 46.6626 545.729 46.777 546.117 46.8665L547.419 47.1449C548.142 47.3007 548.679 47.5476 549.03 47.8857C549.385 48.2237 549.564 48.6662 549.567 49.2131C549.564 49.6937 549.423 50.1179 549.144 50.4858C548.869 50.8504 548.486 51.1354 547.996 51.3409C547.505 51.5464 546.942 51.6491 546.306 51.6491C545.371 51.6491 544.618 51.4536 544.048 51.0625C543.478 50.6681 543.139 50.1196 543.029 49.4169L544.784 49.2479C544.864 49.5926 545.033 49.8527 545.291 50.0284C545.55 50.2041 545.886 50.2919 546.301 50.2919C546.728 50.2919 547.071 50.2041 547.33 50.0284C547.591 49.8527 547.722 49.6357 547.722 49.3771C547.722 49.1584 547.638 48.9777 547.469 48.8352C547.303 48.6927 547.045 48.5833 546.693 48.5071L545.391 48.2337C544.658 48.0812 544.116 47.8243 543.765 47.4631C543.414 47.0985 543.24 46.6378 543.243 46.081C543.24 45.6103 543.367 45.2027 543.626 44.858C543.888 44.5099 544.251 44.2415 544.715 44.0526C545.182 43.8603 545.721 43.7642 546.33 43.7642C547.225 43.7642 547.93 43.9548 548.443 44.3359C548.96 44.7171 549.28 45.2325 549.403 45.8821ZM554.222 51.6491C553.456 51.6491 552.795 51.4901 552.238 51.1719C551.684 50.8504 551.259 50.3963 550.96 49.8097C550.662 49.2197 550.513 48.5253 550.513 47.7266C550.513 46.9411 550.662 46.2517 550.96 45.6584C551.262 45.0618 551.683 44.5978 552.223 44.2663C552.763 43.9316 553.398 43.7642 554.127 43.7642C554.598 43.7642 555.042 43.8404 555.459 43.9929C555.88 44.142 556.252 44.3741 556.573 44.6889C556.898 45.0038 557.153 45.4048 557.339 45.892C557.524 46.3759 557.617 46.9527 557.617 47.6222V48.174H551.358V46.9609H555.892C555.889 46.6162 555.814 46.3097 555.668 46.0412C555.522 45.7694 555.319 45.5556 555.057 45.3999C554.798 45.2441 554.497 45.1662 554.152 45.1662C553.784 45.1662 553.461 45.2557 553.183 45.4347C552.904 45.6103 552.687 45.8423 552.531 46.1307C552.379 46.4157 552.301 46.7289 552.298 47.0703V48.1293C552.298 48.5734 552.379 48.9545 552.541 49.2727C552.704 49.5876 552.931 49.8295 553.222 49.9986C553.514 50.1643 553.855 50.2472 554.246 50.2472C554.508 50.2472 554.745 50.2107 554.957 50.1378C555.169 50.0616 555.353 49.9505 555.509 49.8047C555.665 49.6589 555.783 49.4782 555.862 49.2628L557.543 49.4517C557.437 49.8958 557.234 50.2836 556.936 50.6151C556.641 50.9432 556.263 51.1984 555.803 51.3807C555.342 51.5597 554.815 51.6491 554.222 51.6491Z" fill="#F1EFEF"/>
</svg>
