<svg width="676" height="60" viewBox="0 0 676 60" fill="none" xmlns="http://www.w3.org/2000/svg">
<rect width="82" height="28" rx="6" fill="#936BE2"/>
<rect x="6" y="5" width="18" height="18" rx="3.5" fill="#F1EFEF"/>
<path opacity="0.4" d="M9.0625 14C9.0625 11.201 9.0625 9.80156 9.93202 8.93202C10.8016 8.0625 12.201 8.0625 15 8.0625C17.7989 8.0625 19.1984 8.0625 20.068 8.93202C20.9375 9.80156 20.9375 11.201 20.9375 14C20.9375 16.7989 20.9375 18.1984 20.068 19.068C19.1984 19.9375 17.7989 19.9375 15 19.9375C12.201 19.9375 10.8016 19.9375 9.93202 19.068C9.0625 18.1984 9.0625 16.7989 9.0625 14Z" fill="#936BE2"/>
<path d="M17.5 12.75L18.2666 13.4108C18.5889 13.6885 18.75 13.8274 18.75 14C18.75 14.1726 18.5889 14.3115 18.2666 14.5892L17.5 15.25" stroke="#936BE2" stroke-width="1.25" stroke-linecap="round" stroke-linejoin="round"/>
<path d="M12.5 12.75L11.7334 13.4108C11.4111 13.6885 11.25 13.8274 11.25 14C11.25 14.1726 11.4111 14.3115 11.7334 14.5892L12.5 15.25" stroke="#936BE2" stroke-width="1.25" stroke-linecap="round" stroke-linejoin="round"/>
<path d="M15.625 12.125L14.375 15.875" stroke="#936BE2" stroke-width="1.25" stroke-linecap="round" stroke-linejoin="round"/>
<path d="M9.0625 14C9.0625 11.201 9.0625 9.80156 9.93202 8.93202C10.8016 8.0625 12.201 8.0625 15 8.0625C17.7989 8.0625 19.1984 8.0625 20.068 8.93202C20.9375 9.80156 20.9375 11.201 20.9375 14C20.9375 16.7989 20.9375 18.1984 20.068 19.068C19.1984 19.9375 17.7989 19.9375 15 19.9375C12.201 19.9375 10.8016 19.9375 9.93202 19.068C9.0625 18.1984 9.0625 16.7989 9.0625 14Z" stroke="#936BE2" stroke-width="1.25"/>
<path d="M34.5856 12.1172C34.5392 11.683 34.3437 11.3449 33.999 11.103C33.6576 10.861 33.2135 10.7401 32.6666 10.7401C32.2821 10.7401 31.9523 10.7981 31.6772 10.9141C31.4021 11.0301 31.1917 11.1875 31.0458 11.3864C30.9 11.5852 30.8254 11.8123 30.8221 12.0675C30.8221 12.2796 30.8702 12.4635 30.9663 12.6193C31.0657 12.7751 31.2 12.9077 31.369 13.017C31.538 13.1231 31.7253 13.2126 31.9308 13.2855C32.1363 13.3584 32.3434 13.4197 32.5522 13.4695L33.5068 13.7081C33.8912 13.7976 34.2608 13.9186 34.6154 14.071C34.9734 14.2235 35.2932 14.4157 35.575 14.6477C35.86 14.8797 36.0854 15.1598 36.2511 15.4879C36.4168 15.8161 36.4997 16.2005 36.4997 16.6413C36.4997 17.2379 36.3472 17.7633 36.0423 18.2173C35.7374 18.6681 35.2965 19.0211 34.7198 19.2763C34.1465 19.5282 33.4521 19.6541 32.6367 19.6541C31.8446 19.6541 31.1569 19.5315 30.5735 19.2862C29.9935 19.041 29.5394 18.683 29.2113 18.2124C28.8865 17.7417 28.7108 17.1683 28.6843 16.4922H30.499C30.5255 16.8468 30.6349 17.1418 30.8271 17.3771C31.0193 17.6125 31.2696 17.7881 31.5778 17.9041C31.8894 18.0201 32.2374 18.0781 32.6218 18.0781C33.0229 18.0781 33.3742 18.0185 33.6758 17.8991C33.9807 17.7765 34.2194 17.6075 34.3917 17.392C34.5641 17.1733 34.6519 16.9181 34.6552 16.6264C34.6519 16.3613 34.574 16.1425 34.4215 15.9702C34.2691 15.7945 34.0553 15.6487 33.7802 15.5327C33.5084 15.4134 33.1903 15.3073 32.8257 15.2145L31.6673 14.9162C30.8287 14.7008 30.1659 14.3743 29.6786 13.9368C29.1947 13.496 28.9528 12.911 28.9528 12.1818C28.9528 11.5819 29.1152 11.0566 29.44 10.6058C29.7681 10.1551 30.2139 9.8054 30.7774 9.55682C31.3408 9.30492 31.9788 9.17898 32.6914 9.17898C33.414 9.17898 34.047 9.30492 34.5906 9.55682C35.1375 9.8054 35.5667 10.1518 35.8782 10.5959C36.1898 11.0367 36.3505 11.5438 36.3605 12.1172H34.5856ZM39.4305 19.5L37.2728 11.8636H39.1073L40.4497 17.233H40.5193L41.8914 11.8636H43.706L45.0782 17.2031H45.1528L46.4752 11.8636H48.3147L46.1521 19.5H44.2778L42.846 14.3395H42.7416L41.3097 19.5H39.4305ZM49.3613 19.5V11.8636H51.161V19.5H49.3613ZM50.2661 10.7798C49.9811 10.7798 49.7358 10.6854 49.5303 10.4964C49.3248 10.3042 49.2221 10.0739 49.2221 9.8054C49.2221 9.53362 49.3248 9.30327 49.5303 9.11435C49.7358 8.92211 49.9811 8.82599 50.2661 8.82599C50.5545 8.82599 50.7997 8.92211 51.0019 9.11435C51.2074 9.30327 51.3101 9.53362 51.3101 9.8054C51.3101 10.0739 51.2074 10.3042 51.0019 10.4964C50.7997 10.6854 50.5545 10.7798 50.2661 10.7798ZM56.6696 11.8636V13.2557H52.1554V11.8636H56.6696ZM53.2839 19.5V11.1428C53.2839 10.629 53.39 10.2015 53.6021 9.86008C53.8175 9.5187 54.1059 9.26349 54.4672 9.09446C54.8284 8.92543 55.2295 8.84091 55.6703 8.84091C55.9818 8.84091 56.2586 8.86577 56.5005 8.91548C56.7425 8.9652 56.9215 9.00994 57.0375 9.04972L56.6795 10.4418C56.6033 10.4186 56.5072 10.3954 56.3912 10.3722C56.2752 10.3456 56.1459 10.3324 56.0034 10.3324C55.6686 10.3324 55.4316 10.4136 55.2924 10.576C55.1565 10.7351 55.0886 10.9638 55.0886 11.2621V19.5H53.2839ZM61.6822 11.8636V13.2557H57.2923V11.8636H61.6822ZM58.3761 10.0341H60.1758V17.2031C60.1758 17.4451 60.2123 17.6307 60.2852 17.7599C60.3614 17.8859 60.4609 17.9721 60.5835 18.0185C60.7061 18.0649 60.842 18.0881 60.9912 18.0881C61.1039 18.0881 61.2066 18.0798 61.2994 18.0632C61.3955 18.0466 61.4684 18.0317 61.5182 18.0185L61.8214 19.4254C61.7253 19.4586 61.5878 19.495 61.4088 19.5348C61.2331 19.5746 61.0177 19.5978 60.7625 19.6044C60.3117 19.6177 59.9057 19.5497 59.5444 19.4006C59.1832 19.2481 58.8965 19.0128 58.6844 18.6946C58.4755 18.3764 58.3728 17.9787 58.3761 17.5014V10.0341ZM69.4752 9.31818H71.3197V15.9702C71.3197 16.6993 71.1474 17.3407 70.8027 17.8942C70.4613 18.4477 69.9807 18.8802 69.3609 19.1918C68.7411 19.5 68.0169 19.6541 67.1883 19.6541C66.3564 19.6541 65.6305 19.5 65.0108 19.1918C64.391 18.8802 63.9104 18.4477 63.569 17.8942C63.2276 17.3407 63.0569 16.6993 63.0569 15.9702V9.31818H64.9014V15.8161C64.9014 16.2403 64.9942 16.6181 65.1798 16.9496C65.3687 17.281 65.6339 17.5412 65.9752 17.7301C66.3166 17.9157 66.721 18.0085 67.1883 18.0085C67.6556 18.0085 68.06 17.9157 68.4014 17.7301C68.7461 17.5412 69.0112 17.281 69.1968 16.9496C69.3824 16.6181 69.4752 16.2403 69.4752 15.8161V9.31818ZM74.959 9.31818V19.5H73.1145V9.31818H74.959Z" fill="#F1EFEF"/>
<rect x="86" width="80" height="28" rx="6" fill="#3C46C9"/>
<rect x="92" y="5" width="18" height="18" rx="3.5" fill="#F1EFEF"/>
<path opacity="0.4" d="M97.2657 8.39076C96.625 9.03147 96.625 10.0627 96.625 12.1251V15.875C96.625 17.9375 96.625 18.9687 97.2657 19.6093C97.9064 20.25 98.9376 20.25 101 20.25C103.062 20.25 104.094 20.25 104.734 19.6093C105.375 18.9687 105.375 17.9375 105.375 15.875V12.1251C105.375 10.0627 105.375 9.03147 104.734 8.39076C104.326 7.98278 103.76 7.83459 102.87 7.78076L102.819 8.08382C102.699 8.80712 102.639 9.16877 102.391 9.38884C102.132 9.6184 101.765 9.62506 101 9.62506C100.235 9.62506 99.8683 9.6184 99.6095 9.38884C99.3615 9.16877 99.3012 8.80712 99.1806 8.08382L99.1301 7.78076C98.24 7.83459 97.6737 7.98278 97.2657 8.39076Z" fill="#3C46C9"/>
<path d="M96.625 12.125C96.625 10.0626 96.625 9.03141 97.2657 8.39071C97.9064 7.75 98.9376 7.75 101 7.75C103.062 7.75 104.094 7.75 104.734 8.39071C105.375 9.03141 105.375 10.0626 105.375 12.125V15.875C105.375 17.9374 105.375 18.9686 104.734 19.6093C104.094 20.25 103.062 20.25 101 20.25C98.9376 20.25 97.9064 20.25 97.2657 19.6093C96.625 18.9686 96.625 17.9374 96.625 15.875V12.125Z" stroke="#3C46C9" stroke-width="1.25" stroke-linecap="round"/>
<path d="M100.375 18.375H101.625" stroke="#3C46C9" stroke-width="1.25" stroke-linecap="round" stroke-linejoin="round"/>
<path d="M99.125 7.75L99.1806 8.08376C99.3012 8.80706 99.3615 9.16871 99.6095 9.38877C99.8683 9.61834 100.235 9.625 101 9.625C101.765 9.625 102.132 9.61834 102.391 9.38877C102.639 9.16871 102.699 8.80706 102.819 8.08376L102.875 7.75" stroke="#3C46C9" stroke-width="1.25" stroke-linejoin="round"/>
<path d="M115.343 19.5V11.8636H117.142V19.5H115.343ZM116.248 10.7798C115.963 10.7798 115.717 10.6854 115.512 10.4964C115.306 10.3042 115.204 10.0739 115.204 9.8054C115.204 9.53362 115.306 9.30327 115.512 9.11435C115.717 8.92211 115.963 8.82599 116.248 8.82599C116.536 8.82599 116.781 8.92211 116.983 9.11435C117.189 9.30327 117.292 9.53362 117.292 9.8054C117.292 10.0739 117.189 10.3042 116.983 10.4964C116.781 10.6854 116.536 10.7798 116.248 10.7798ZM127.961 14.4091C127.961 15.5062 127.755 16.4458 127.344 17.228C126.937 18.0069 126.38 18.6035 125.674 19.0178C124.971 19.4321 124.174 19.6392 123.282 19.6392C122.391 19.6392 121.592 19.4321 120.886 19.0178C120.183 18.6001 119.627 18.0019 119.216 17.223C118.808 16.4408 118.604 15.5028 118.604 14.4091C118.604 13.312 118.808 12.3741 119.216 11.5952C119.627 10.813 120.183 10.2147 120.886 9.80043C121.592 9.38613 122.391 9.17898 123.282 9.17898C124.174 9.17898 124.971 9.38613 125.674 9.80043C126.38 10.2147 126.937 10.813 127.344 11.5952C127.755 12.3741 127.961 13.312 127.961 14.4091ZM126.106 14.4091C126.106 13.6368 125.985 12.9856 125.743 12.4553C125.505 11.9216 125.173 11.5189 124.749 11.2472C124.325 10.9721 123.836 10.8345 123.282 10.8345C122.729 10.8345 122.24 10.9721 121.816 11.2472C121.392 11.5189 121.058 11.9216 120.816 12.4553C120.578 12.9856 120.459 13.6368 120.459 14.4091C120.459 15.1813 120.578 15.8343 120.816 16.3679C121.058 16.8982 121.392 17.3009 121.816 17.576C122.24 17.8478 122.729 17.9837 123.282 17.9837C123.836 17.9837 124.325 17.8478 124.749 17.576C125.173 17.3009 125.505 16.8982 125.743 16.3679C125.985 15.8343 126.106 15.1813 126.106 14.4091ZM135.028 12.1172C134.981 11.683 134.786 11.3449 134.441 11.103C134.1 10.861 133.656 10.7401 133.109 10.7401C132.724 10.7401 132.395 10.7981 132.119 10.9141C131.844 11.0301 131.634 11.1875 131.488 11.3864C131.342 11.5852 131.268 11.8123 131.264 12.0675C131.264 12.2796 131.312 12.4635 131.409 12.6193C131.508 12.7751 131.642 12.9077 131.811 13.017C131.98 13.1231 132.168 13.2126 132.373 13.2855C132.579 13.3584 132.786 13.4197 132.994 13.4695L133.949 13.7081C134.333 13.7976 134.703 13.9186 135.058 14.071C135.416 14.2235 135.735 14.4157 136.017 14.6477C136.302 14.8797 136.528 15.1598 136.693 15.4879C136.859 15.8161 136.942 16.2005 136.942 16.6413C136.942 17.2379 136.789 17.7633 136.485 18.2173C136.18 18.6681 135.739 19.0211 135.162 19.2763C134.589 19.5282 133.894 19.6541 133.079 19.6541C132.287 19.6541 131.599 19.5315 131.016 19.2862C130.436 19.041 129.982 18.683 129.654 18.2124C129.329 17.7417 129.153 17.1683 129.127 16.4922H130.941C130.968 16.8468 131.077 17.1418 131.269 17.3771C131.462 17.6125 131.712 17.7881 132.02 17.9041C132.332 18.0201 132.68 18.0781 133.064 18.0781C133.465 18.0781 133.816 18.0185 134.118 17.8991C134.423 17.7765 134.662 17.6075 134.834 17.392C135.006 17.1733 135.094 16.9181 135.097 16.6264C135.094 16.3613 135.016 16.1425 134.864 15.9702C134.711 15.7945 134.498 15.6487 134.222 15.5327C133.951 15.4134 133.632 15.3073 133.268 15.2145L132.11 14.9162C131.271 14.7008 130.608 14.3743 130.121 13.9368C129.637 13.496 129.395 12.911 129.395 12.1818C129.395 11.5819 129.557 11.0566 129.882 10.6058C130.21 10.1551 130.656 9.8054 131.22 9.55682C131.783 9.30492 132.421 9.17898 133.134 9.17898C133.856 9.17898 134.489 9.30492 135.033 9.55682C135.58 9.8054 136.009 10.1518 136.32 10.5959C136.632 11.0367 136.793 11.5438 136.803 12.1172H135.028Z" fill="#F1EFEF"/>
<path d="M144.095 10.5V18.5H143.126V11.5156H143.079L141.126 12.8125V11.8281L143.126 10.5H144.095ZM146.043 16.8594V16.0625L149.559 10.5H150.137V11.7344H149.746L147.09 15.9375V16H151.824V16.8594H146.043ZM149.809 18.5V16.6172V16.2461V10.5H150.73V18.5H149.809ZM155.482 17.0938V11.9375H156.357V17.0938H155.482ZM153.342 14.9531V14.0781H158.498V14.9531H153.342Z" fill="#C6C6C8"/>
<rect x="170" width="80" height="28" rx="6" fill="#3C46C9"/>
<rect x="176" y="5" width="18" height="18" rx="3.5" fill="#F1EFEF"/>
<path opacity="0.4" d="M186.562 7.75H183.438C181.67 7.75 180.786 7.75 180.237 8.29917C179.688 8.84835 179.688 9.73223 179.688 11.5V16.5C179.688 18.2677 179.688 19.1516 180.237 19.7008C180.786 20.25 181.67 20.25 183.438 20.25H186.562C188.33 20.25 189.214 20.25 189.763 19.7008C190.312 19.1516 190.312 18.2677 190.312 16.5V11.5C190.312 9.73223 190.312 8.84835 189.763 8.29917C189.214 7.75 188.33 7.75 186.562 7.75Z" fill="#3C46C9"/>
<path d="M186.562 7.75H183.438C181.67 7.75 180.786 7.75 180.237 8.29917C179.688 8.84835 179.688 9.73223 179.688 11.5V16.5C179.688 18.2677 179.688 19.1516 180.237 19.7008C180.786 20.25 181.67 20.25 183.438 20.25H186.562C188.33 20.25 189.214 20.25 189.763 19.7008C190.312 19.1516 190.312 18.2677 190.312 16.5V11.5C190.312 9.73223 190.312 8.84835 189.763 8.29917C189.214 7.75 188.33 7.75 186.562 7.75Z" stroke="#3C46C9" stroke-width="1.25" stroke-linecap="round"/>
<path d="M185 18.375H185.006" stroke="#3C46C9" stroke-width="1.25" stroke-linecap="round"/>
<path d="M199.343 19.5V11.8636H201.142V19.5H199.343ZM200.248 10.7798C199.963 10.7798 199.717 10.6854 199.512 10.4964C199.306 10.3042 199.204 10.0739 199.204 9.8054C199.204 9.53362 199.306 9.30327 199.512 9.11435C199.717 8.92211 199.963 8.82599 200.248 8.82599C200.536 8.82599 200.781 8.92211 200.983 9.11435C201.189 9.30327 201.292 9.53362 201.292 9.8054C201.292 10.0739 201.189 10.3042 200.983 10.4964C200.781 10.6854 200.536 10.7798 200.248 10.7798ZM211.961 14.4091C211.961 15.5062 211.755 16.4458 211.344 17.228C210.937 18.0069 210.38 18.6035 209.674 19.0178C208.971 19.4321 208.174 19.6392 207.282 19.6392C206.391 19.6392 205.592 19.4321 204.886 19.0178C204.183 18.6001 203.627 18.0019 203.216 17.223C202.808 16.4408 202.604 15.5028 202.604 14.4091C202.604 13.312 202.808 12.3741 203.216 11.5952C203.627 10.813 204.183 10.2147 204.886 9.80043C205.592 9.38613 206.391 9.17898 207.282 9.17898C208.174 9.17898 208.971 9.38613 209.674 9.80043C210.38 10.2147 210.937 10.813 211.344 11.5952C211.755 12.3741 211.961 13.312 211.961 14.4091ZM210.106 14.4091C210.106 13.6368 209.985 12.9856 209.743 12.4553C209.505 11.9216 209.173 11.5189 208.749 11.2472C208.325 10.9721 207.836 10.8345 207.282 10.8345C206.729 10.8345 206.24 10.9721 205.816 11.2472C205.392 11.5189 205.058 11.9216 204.816 12.4553C204.578 12.9856 204.459 13.6368 204.459 14.4091C204.459 15.1813 204.578 15.8343 204.816 16.3679C205.058 16.8982 205.392 17.3009 205.816 17.576C206.24 17.8478 206.729 17.9837 207.282 17.9837C207.836 17.9837 208.325 17.8478 208.749 17.576C209.173 17.3009 209.505 16.8982 209.743 16.3679C209.985 15.8343 210.106 15.1813 210.106 14.4091ZM219.028 12.1172C218.981 11.683 218.786 11.3449 218.441 11.103C218.1 10.861 217.656 10.7401 217.109 10.7401C216.724 10.7401 216.395 10.7981 216.119 10.9141C215.844 11.0301 215.634 11.1875 215.488 11.3864C215.342 11.5852 215.268 11.8123 215.264 12.0675C215.264 12.2796 215.312 12.4635 215.409 12.6193C215.508 12.7751 215.642 12.9077 215.811 13.017C215.98 13.1231 216.168 13.2126 216.373 13.2855C216.579 13.3584 216.786 13.4197 216.994 13.4695L217.949 13.7081C218.333 13.7976 218.703 13.9186 219.058 14.071C219.416 14.2235 219.735 14.4157 220.017 14.6477C220.302 14.8797 220.528 15.1598 220.693 15.4879C220.859 15.8161 220.942 16.2005 220.942 16.6413C220.942 17.2379 220.789 17.7633 220.485 18.2173C220.18 18.6681 219.739 19.0211 219.162 19.2763C218.589 19.5282 217.894 19.6541 217.079 19.6541C216.287 19.6541 215.599 19.5315 215.016 19.2862C214.436 19.041 213.982 18.683 213.654 18.2124C213.329 17.7417 213.153 17.1683 213.127 16.4922H214.941C214.968 16.8468 215.077 17.1418 215.269 17.3771C215.462 17.6125 215.712 17.7881 216.02 17.9041C216.332 18.0201 216.68 18.0781 217.064 18.0781C217.465 18.0781 217.816 18.0185 218.118 17.8991C218.423 17.7765 218.662 17.6075 218.834 17.392C219.006 17.1733 219.094 16.9181 219.097 16.6264C219.094 16.3613 219.016 16.1425 218.864 15.9702C218.711 15.7945 218.498 15.6487 218.222 15.5327C217.951 15.4134 217.632 15.3073 217.268 15.2145L216.11 14.9162C215.271 14.7008 214.608 14.3743 214.121 13.9368C213.637 13.496 213.395 12.911 213.395 12.1818C213.395 11.5819 213.557 11.0566 213.882 10.6058C214.21 10.1551 214.656 9.8054 215.22 9.55682C215.783 9.30492 216.421 9.17898 217.134 9.17898C217.856 9.17898 218.489 9.30492 219.033 9.55682C219.58 9.8054 220.009 10.1518 220.32 10.5959C220.632 11.0367 220.793 11.5438 220.803 12.1172H219.028Z" fill="#F1EFEF"/>
<path d="M228.095 10.5V18.5H227.126V11.5156H227.079L225.126 12.8125V11.8281L227.126 10.5H228.095ZM230.043 16.8594V16.0625L233.559 10.5H234.137V11.7344H233.746L231.09 15.9375V16H235.824V16.8594H230.043ZM233.809 18.5V16.6172V16.2461V10.5H234.73V18.5H233.809ZM239.482 17.0938V11.9375H240.357V17.0938H239.482ZM237.342 14.9531V14.0781H242.498V14.9531H237.342Z" fill="#C6C6C8"/>
<rect x="254" width="103" height="28" rx="6" fill="#3C46C9"/>
<rect x="260" y="5" width="18" height="18" rx="3.5" fill="#F1EFEF"/>
<path opacity="0.4" d="M270.25 7.75H267.75C265.7 7.75 264.676 7.75 263.949 8.25864C263.681 8.44681 263.447 8.68057 263.259 8.94932C262.75 9.67572 262.75 10.7005 262.75 12.75C262.75 14.7995 262.75 15.8242 263.259 16.5507C263.447 16.8194 263.681 17.0532 263.949 17.2414C264.676 17.75 265.7 17.75 267.75 17.75H270.25C272.3 17.75 273.324 17.75 274.051 17.2414C274.319 17.0532 274.553 16.8194 274.741 16.5507C275.25 15.8242 275.25 14.7995 275.25 12.75C275.25 10.7005 275.25 9.67572 274.741 8.94932C274.553 8.68057 274.319 8.44681 274.051 8.25864C273.324 7.75 272.3 7.75 270.25 7.75Z" fill="#3C46C9"/>
<path d="M270.25 7.75H267.75C265.7 7.75 264.676 7.75 263.949 8.25864C263.681 8.44681 263.447 8.68057 263.259 8.94932C262.75 9.67572 262.75 10.7005 262.75 12.75C262.75 14.7995 262.75 15.8242 263.259 16.5507C263.447 16.8194 263.681 17.0532 263.949 17.2414C264.676 17.75 265.7 17.75 267.75 17.75H270.25C272.3 17.75 273.324 17.75 274.051 17.2414C274.319 17.0532 274.553 16.8194 274.741 16.5507C275.25 15.8242 275.25 14.7995 275.25 12.75C275.25 10.7005 275.25 9.67572 274.741 8.94932C274.553 8.68057 274.319 8.44681 274.051 8.25864C273.324 7.75 272.3 7.75 270.25 7.75Z" stroke="#3C46C9" stroke-width="1.25" stroke-linecap="round"/>
<path d="M268.375 15.875H269.625" stroke="#3C46C9" stroke-width="1.25" stroke-linecap="round" stroke-linejoin="round"/>
<path d="M270.562 20.25L270.365 19.9882C269.921 19.3981 269.811 18.4965 270.092 17.75M267.438 20.25L267.635 19.9882C268.079 19.3981 268.189 18.4965 267.908 17.75" stroke="#3C46C9" stroke-width="1.25" stroke-linecap="round"/>
<path d="M265.875 20.25H272.125" stroke="#3C46C9" stroke-width="1.25" stroke-linecap="round"/>
<path d="M283.036 19.5V11.8636H284.756V13.1612H284.846C285.005 12.7237 285.268 12.3823 285.636 12.1371C286.004 11.8885 286.443 11.7642 286.954 11.7642C287.471 11.7642 287.907 11.8902 288.261 12.142C288.619 12.3906 288.871 12.7304 289.017 13.1612H289.096C289.266 12.737 289.551 12.3989 289.952 12.147C290.356 11.8918 290.835 11.7642 291.388 11.7642C292.091 11.7642 292.664 11.9863 293.109 12.4304C293.553 12.8745 293.775 13.5225 293.775 14.3743V19.5H291.97V14.6527C291.97 14.1787 291.844 13.8324 291.592 13.6136C291.34 13.3916 291.032 13.2805 290.668 13.2805C290.233 13.2805 289.894 13.4164 289.648 13.6882C289.406 13.9567 289.285 14.3063 289.285 14.7372V19.5H287.52V14.5781C287.52 14.1837 287.401 13.8688 287.163 13.6335C286.927 13.3982 286.619 13.2805 286.238 13.2805C285.979 13.2805 285.744 13.3468 285.532 13.4794C285.32 13.6087 285.151 13.7926 285.025 14.0312C284.899 14.2666 284.836 14.5417 284.836 14.8565V19.5H283.036ZM297.588 19.6541C297.104 19.6541 296.668 19.5679 296.28 19.3956C295.896 19.2199 295.591 18.9614 295.366 18.62C295.144 18.2786 295.033 17.8577 295.033 17.3572C295.033 16.9264 295.112 16.5701 295.271 16.2884C295.43 16.0066 295.647 15.7812 295.923 15.6122C296.198 15.4432 296.508 15.3156 296.852 15.2294C297.2 15.1399 297.56 15.0753 297.931 15.0355C298.379 14.9891 298.741 14.9477 299.02 14.9112C299.298 14.8714 299.5 14.8118 299.626 14.7322C299.756 14.6494 299.82 14.5218 299.82 14.3494V14.3196C299.82 13.9451 299.709 13.6551 299.487 13.4496C299.265 13.2441 298.945 13.1413 298.528 13.1413C298.087 13.1413 297.737 13.2375 297.479 13.4297C297.223 13.6219 297.051 13.849 296.962 14.1108L295.281 13.8722C295.414 13.4081 295.633 13.0204 295.937 12.7088C296.242 12.3939 296.615 12.1586 297.056 12.0028C297.497 11.8438 297.984 11.7642 298.518 11.7642C298.886 11.7642 299.252 11.8073 299.616 11.8935C299.981 11.9796 300.314 12.1222 300.616 12.321C300.917 12.5166 301.159 12.7834 301.342 13.1214C301.527 13.4595 301.62 13.8821 301.62 14.3892V19.5H299.89V18.451H299.83C299.721 18.6631 299.567 18.862 299.368 19.0476C299.172 19.2299 298.925 19.3774 298.627 19.4901C298.332 19.5994 297.986 19.6541 297.588 19.6541ZM298.055 18.3317C298.417 18.3317 298.73 18.2604 298.995 18.1179C299.26 17.9721 299.464 17.7798 299.606 17.5412C299.752 17.3026 299.825 17.0424 299.825 16.7607V15.8608C299.769 15.9072 299.673 15.9503 299.537 15.9901C299.404 16.0298 299.255 16.0646 299.089 16.0945C298.924 16.1243 298.76 16.1508 298.597 16.174C298.435 16.1972 298.294 16.2171 298.175 16.2337C297.906 16.2701 297.666 16.3298 297.454 16.4126C297.242 16.4955 297.074 16.6115 296.952 16.7607C296.829 16.9065 296.768 17.0954 296.768 17.3274C296.768 17.6589 296.889 17.9091 297.131 18.0781C297.373 18.2472 297.681 18.3317 298.055 18.3317ZM306.551 19.6491C305.788 19.6491 305.134 19.4818 304.587 19.147C304.043 18.8123 303.624 18.3499 303.329 17.7599C303.037 17.1667 302.892 16.4839 302.892 15.7116C302.892 14.9361 303.041 14.2517 303.339 13.6584C303.637 13.0618 304.058 12.5978 304.602 12.2663C305.149 11.9316 305.795 11.7642 306.541 11.7642C307.16 11.7642 307.709 11.8786 308.186 12.1072C308.667 12.3326 309.05 12.6525 309.335 13.0668C309.62 13.4777 309.782 13.9583 309.822 14.5085H308.102C308.032 14.1406 307.866 13.834 307.605 13.5888C307.346 13.3402 307 13.2159 306.566 13.2159C306.198 13.2159 305.874 13.3153 305.596 13.5142C305.318 13.7098 305.101 13.9915 304.945 14.3594C304.792 14.7273 304.716 15.1681 304.716 15.6818C304.716 16.2022 304.792 16.6496 304.945 17.0241C305.097 17.3954 305.311 17.6821 305.586 17.8842C305.865 18.0831 306.191 18.1825 306.566 18.1825C306.831 18.1825 307.068 18.1328 307.276 18.0334C307.489 17.9306 307.666 17.7831 307.808 17.5909C307.951 17.3987 308.049 17.165 308.102 16.8899H309.822C309.779 17.4302 309.62 17.9091 309.345 18.3267C309.07 18.741 308.695 19.0658 308.221 19.3011C307.747 19.5331 307.19 19.6491 306.551 19.6491ZM320.267 14.4091C320.267 15.5062 320.062 16.4458 319.651 17.228C319.243 18.0069 318.686 18.6035 317.98 19.0178C317.278 19.4321 316.481 19.6392 315.589 19.6392C314.697 19.6392 313.899 19.4321 313.193 19.0178C312.49 18.6001 311.933 18.0019 311.522 17.223C311.115 16.4408 310.911 15.5028 310.911 14.4091C310.911 13.312 311.115 12.3741 311.522 11.5952C311.933 10.813 312.49 10.2147 313.193 9.80043C313.899 9.38613 314.697 9.17898 315.589 9.17898C316.481 9.17898 317.278 9.38613 317.98 9.80043C318.686 10.2147 319.243 10.813 319.651 11.5952C320.062 12.3741 320.267 13.312 320.267 14.4091ZM318.413 14.4091C318.413 13.6368 318.292 12.9856 318.05 12.4553C317.811 11.9216 317.48 11.5189 317.056 11.2472C316.631 10.9721 316.143 10.8345 315.589 10.8345C315.036 10.8345 314.547 10.9721 314.122 11.2472C313.698 11.5189 313.365 11.9216 313.123 12.4553C312.884 12.9856 312.765 13.6368 312.765 14.4091C312.765 15.1813 312.884 15.8343 313.123 16.3679C313.365 16.8982 313.698 17.3009 314.122 17.576C314.547 17.8478 315.036 17.9837 315.589 17.9837C316.143 17.9837 316.631 17.8478 317.056 17.576C317.48 17.3009 317.811 16.8982 318.05 16.3679C318.292 15.8343 318.413 15.1813 318.413 14.4091ZM327.334 12.1172C327.288 11.683 327.092 11.3449 326.748 11.103C326.406 10.861 325.962 10.7401 325.415 10.7401C325.031 10.7401 324.701 10.7981 324.426 10.9141C324.151 11.0301 323.941 11.1875 323.795 11.3864C323.649 11.5852 323.574 11.8123 323.571 12.0675C323.571 12.2796 323.619 12.4635 323.715 12.6193C323.815 12.7751 323.949 12.9077 324.118 13.017C324.287 13.1231 324.474 13.2126 324.68 13.2855C324.885 13.3584 325.092 13.4197 325.301 13.4695L326.256 13.7081C326.64 13.7976 327.01 13.9186 327.364 14.071C327.722 14.2235 328.042 14.4157 328.324 14.6477C328.609 14.8797 328.834 15.1598 329 15.4879C329.166 15.8161 329.249 16.2005 329.249 16.6413C329.249 17.2379 329.096 17.7633 328.791 18.2173C328.486 18.6681 328.045 19.0211 327.469 19.2763C326.895 19.5282 326.201 19.6541 325.386 19.6541C324.593 19.6541 323.906 19.5315 323.322 19.2862C322.742 19.041 322.288 18.683 321.96 18.2124C321.635 17.7417 321.46 17.1683 321.433 16.4922H323.248C323.274 16.8468 323.384 17.1418 323.576 17.3771C323.768 17.6125 324.018 17.7881 324.327 17.9041C324.638 18.0201 324.986 18.0781 325.371 18.0781C325.772 18.0781 326.123 18.0185 326.425 17.8991C326.73 17.7765 326.968 17.6075 327.141 17.392C327.313 17.1733 327.401 16.9181 327.404 16.6264C327.401 16.3613 327.323 16.1425 327.17 15.9702C327.018 15.7945 326.804 15.6487 326.529 15.5327C326.257 15.4134 325.939 15.3073 325.574 15.2145L324.416 14.9162C323.578 14.7008 322.915 14.3743 322.427 13.9368C321.944 13.496 321.702 12.911 321.702 12.1818C321.702 11.5819 321.864 11.0566 322.189 10.6058C322.517 10.1551 322.963 9.8054 323.526 9.55682C324.09 9.30492 324.728 9.17898 325.44 9.17898C326.163 9.17898 326.796 9.30492 327.339 9.55682C327.886 9.8054 328.316 10.1518 328.627 10.5959C328.939 11.0367 329.099 11.5438 329.109 12.1172H327.334Z" fill="#F1EFEF"/>
<path d="M335.793 10.5V18.5H334.825V11.5156H334.778L332.825 12.8125V11.8281L334.825 10.5H335.793ZM337.929 18.5V17.7969L340.57 14.9062C340.88 14.5677 341.135 14.2734 341.335 14.0234C341.536 13.7708 341.684 13.5339 341.781 13.3125C341.88 13.0885 341.929 12.8542 341.929 12.6094C341.929 12.3281 341.861 12.0846 341.726 11.8789C341.593 11.6732 341.411 11.5143 341.179 11.4023C340.947 11.2904 340.687 11.2344 340.398 11.2344C340.091 11.2344 339.822 11.2982 339.593 11.4258C339.367 11.5508 339.191 11.7266 339.066 11.9531C338.944 12.1797 338.882 12.4453 338.882 12.75H337.96C337.96 12.2812 338.069 11.8698 338.285 11.5156C338.501 11.1615 338.795 10.8854 339.167 10.6875C339.542 10.4896 339.963 10.3906 340.429 10.3906C340.898 10.3906 341.313 10.4896 341.675 10.6875C342.037 10.8854 342.321 11.1523 342.527 11.4883C342.733 11.8242 342.835 12.1979 342.835 12.6094C342.835 12.9036 342.782 13.1914 342.675 13.4727C342.571 13.7513 342.389 14.0625 342.128 14.4062C341.871 14.7474 341.513 15.1641 341.054 15.6562L339.257 17.5781V17.6406H342.976V18.5H337.929ZM346.784 17.0938V11.9375H347.659V17.0938H346.784ZM344.643 14.9531V14.0781H349.799V14.9531H344.643Z" fill="#C6C6C8"/>
<rect x="361" width="88" height="28" rx="6" fill="#3C46C9"/>
<rect x="367" y="5" width="18" height="18" rx="3.5" fill="#F1EFEF"/>
<path opacity="0.4" d="M377.25 8.375H374.75C372.393 8.375 371.214 8.375 370.482 9.10723C369.75 9.83947 369.75 11.018 369.75 13.375C369.75 15.732 369.75 16.9106 370.482 17.6427C371.214 18.375 372.393 18.375 374.75 18.375H377.25C379.607 18.375 380.786 18.375 381.518 17.6427C382.25 16.9106 382.25 15.732 382.25 13.375C382.25 11.018 382.25 9.83947 381.518 9.10723C380.786 8.375 379.607 8.375 377.25 8.375Z" fill="#3C46C9"/>
<path d="M377.25 8.375H374.75C372.393 8.375 371.214 8.375 370.482 9.10723C369.75 9.83947 369.75 11.018 369.75 13.375C369.75 15.732 369.75 16.9106 370.482 17.6427C371.214 18.375 372.393 18.375 374.75 18.375H377.25C379.607 18.375 380.786 18.375 381.518 17.6427C382.25 16.9106 382.25 15.732 382.25 13.375C382.25 11.018 382.25 9.83947 381.518 9.10723C380.786 8.375 379.607 8.375 377.25 8.375Z" stroke="#3C46C9" stroke-width="1.25" stroke-linecap="round"/>
<path d="M379.75 18.375L380.375 19.625" stroke="#3C46C9" stroke-width="1.25" stroke-linecap="round" stroke-linejoin="round"/>
<path d="M372.25 18.375L371.625 19.625" stroke="#3C46C9" stroke-width="1.25" stroke-linecap="round" stroke-linejoin="round"/>
<path d="M393.894 11.8636V13.2557H389.504V11.8636H393.894ZM390.588 10.0341H392.387V17.2031C392.387 17.4451 392.424 17.6307 392.497 17.7599C392.573 17.8859 392.672 17.9721 392.795 18.0185C392.918 18.0649 393.054 18.0881 393.203 18.0881C393.315 18.0881 393.418 18.0798 393.511 18.0632C393.607 18.0466 393.68 18.0317 393.73 18.0185L394.033 19.4254C393.937 19.4586 393.799 19.495 393.62 19.5348C393.445 19.5746 393.229 19.5978 392.974 19.6044C392.523 19.6177 392.117 19.5497 391.756 19.4006C391.395 19.2481 391.108 19.0128 390.896 18.6946C390.687 18.3764 390.584 17.9787 390.588 17.5014V10.0341ZM402.01 11.8636L399.29 19.5H397.302L394.582 11.8636H396.501L398.256 17.5362H398.336L400.096 11.8636H402.01ZM412.223 14.4091C412.223 15.5062 412.017 16.4458 411.606 17.228C411.199 18.0069 410.642 18.6035 409.936 19.0178C409.233 19.4321 408.436 19.6392 407.545 19.6392C406.653 19.6392 405.854 19.4321 405.148 19.0178C404.446 18.6001 403.889 18.0019 403.478 17.223C403.07 16.4408 402.866 15.5028 402.866 14.4091C402.866 13.312 403.07 12.3741 403.478 11.5952C403.889 10.813 404.446 10.2147 405.148 9.80043C405.854 9.38613 406.653 9.17898 407.545 9.17898C408.436 9.17898 409.233 9.38613 409.936 9.80043C410.642 10.2147 411.199 10.813 411.606 11.5952C412.017 12.3741 412.223 13.312 412.223 14.4091ZM410.368 14.4091C410.368 13.6368 410.247 12.9856 410.006 12.4553C409.767 11.9216 409.435 11.5189 409.011 11.2472C408.587 10.9721 408.098 10.8345 407.545 10.8345C406.991 10.8345 406.502 10.9721 406.078 11.2472C405.654 11.5189 405.321 11.9216 405.079 12.4553C404.84 12.9856 404.721 13.6368 404.721 14.4091C404.721 15.1813 404.84 15.8343 405.079 16.3679C405.321 16.8982 405.654 17.3009 406.078 17.576C406.502 17.8478 406.991 17.9837 407.545 17.9837C408.098 17.9837 408.587 17.8478 409.011 17.576C409.435 17.3009 409.767 16.8982 410.006 16.3679C410.247 15.8343 410.368 15.1813 410.368 14.4091ZM419.29 12.1172C419.244 11.683 419.048 11.3449 418.703 11.103C418.362 10.861 417.918 10.7401 417.371 10.7401C416.987 10.7401 416.657 10.7981 416.382 10.9141C416.107 11.0301 415.896 11.1875 415.75 11.3864C415.604 11.5852 415.53 11.8123 415.527 12.0675C415.527 12.2796 415.575 12.4635 415.671 12.6193C415.77 12.7751 415.904 12.9077 416.073 13.017C416.242 13.1231 416.43 13.2126 416.635 13.2855C416.841 13.3584 417.048 13.4197 417.257 13.4695L418.211 13.7081C418.596 13.7976 418.965 13.9186 419.32 14.071C419.678 14.2235 419.998 14.4157 420.279 14.6477C420.564 14.8797 420.79 15.1598 420.956 15.4879C421.121 15.8161 421.204 16.2005 421.204 16.6413C421.204 17.2379 421.052 17.7633 420.747 18.2173C420.442 18.6681 420.001 19.0211 419.424 19.2763C418.851 19.5282 418.157 19.6541 417.341 19.6541C416.549 19.6541 415.861 19.5315 415.278 19.2862C414.698 19.041 414.244 18.683 413.916 18.2124C413.591 17.7417 413.415 17.1683 413.389 16.4922H415.203C415.23 16.8468 415.339 17.1418 415.532 17.3771C415.724 17.6125 415.974 17.7881 416.282 17.9041C416.594 18.0201 416.942 18.0781 417.326 18.0781C417.727 18.0781 418.079 18.0185 418.38 17.8991C418.685 17.7765 418.924 17.6075 419.096 17.392C419.268 17.1733 419.356 16.9181 419.36 16.6264C419.356 16.3613 419.278 16.1425 419.126 15.9702C418.974 15.7945 418.76 15.6487 418.485 15.5327C418.213 15.4134 417.895 15.3073 417.53 15.2145L416.372 14.9162C415.533 14.7008 414.87 14.3743 414.383 13.9368C413.899 13.496 413.657 12.911 413.657 12.1818C413.657 11.5819 413.82 11.0566 414.144 10.6058C414.473 10.1551 414.918 9.8054 415.482 9.55682C416.045 9.30492 416.683 9.17898 417.396 9.17898C418.118 9.17898 418.751 9.30492 419.295 9.55682C419.842 9.8054 420.271 10.1518 420.583 10.5959C420.894 11.0367 421.055 11.5438 421.065 12.1172H419.29Z" fill="#F1EFEF"/>
<path d="M427.777 10.5V18.5H426.809V11.5156H426.762L424.809 12.8125V11.8281L426.809 10.5H427.777ZM432.413 18.6094C431.955 18.6094 431.542 18.5182 431.175 18.3359C430.808 18.1536 430.513 17.9036 430.292 17.5859C430.071 17.2682 429.95 16.9062 429.929 16.5H430.866C430.903 16.862 431.067 17.1615 431.358 17.3984C431.653 17.6328 432.004 17.75 432.413 17.75C432.741 17.75 433.033 17.6732 433.288 17.5195C433.546 17.3659 433.748 17.1549 433.894 16.8867C434.042 16.6159 434.116 16.3099 434.116 15.9687C434.116 15.6198 434.039 15.3086 433.886 15.0352C433.735 14.7591 433.526 14.5417 433.261 14.3828C432.995 14.224 432.692 14.1432 432.351 14.1406C432.106 14.138 431.854 14.1758 431.597 14.2539C431.339 14.3294 431.127 14.4271 430.96 14.5469L430.054 14.4375L430.538 10.5H434.694V11.3594H431.351L431.069 13.7187H431.116C431.28 13.5885 431.486 13.4805 431.733 13.3945C431.981 13.3086 432.239 13.2656 432.507 13.2656C432.996 13.2656 433.433 13.3828 433.815 13.6172C434.201 13.849 434.503 14.1667 434.722 14.5703C434.943 14.974 435.054 15.4349 435.054 15.9531C435.054 16.4635 434.939 16.9193 434.71 17.3203C434.483 17.7187 434.171 18.0339 433.772 18.2656C433.374 18.4948 432.921 18.6094 432.413 18.6094ZM438.8 17.0938V11.9375H439.675V17.0938H438.8ZM436.659 14.9531V14.0781H441.815V14.9531H436.659Z" fill="#C6C6C8"/>
<rect x="453" width="111" height="28" rx="6" fill="#3C46C9"/>
<rect x="459" y="5" width="18" height="18" rx="3.5" fill="#F1EFEF"/>
<path opacity="0.4" d="M464.875 13.375C464.875 12.1965 464.875 11.6072 465.241 11.2411C465.607 10.875 466.196 10.875 467.375 10.875H468.625C469.803 10.875 470.393 10.875 470.759 11.2411C471.125 11.6072 471.125 12.1965 471.125 13.375V14.625C471.125 15.8035 471.125 16.3927 470.759 16.7589C470.393 17.125 469.803 17.125 468.625 17.125H467.375C466.196 17.125 465.607 17.125 465.241 16.7589C464.875 16.3927 464.875 15.8035 464.875 14.625V13.375Z" fill="#3C46C9"/>
<path d="M464.875 13.375C464.875 12.1965 464.875 11.6072 465.241 11.2411C465.607 10.875 466.196 10.875 467.375 10.875H468.625C469.803 10.875 470.393 10.875 470.759 11.2411C471.125 11.6072 471.125 12.1965 471.125 13.375V14.625C471.125 15.8035 471.125 16.3927 470.759 16.7589C470.393 17.125 469.803 17.125 468.625 17.125H467.375C466.196 17.125 465.607 17.125 465.241 16.7589C464.875 16.3927 464.875 15.8035 464.875 14.625V13.375Z" stroke="#3C46C9" stroke-width="1.25"/>
<path d="M465.812 10.875C465.812 10.875 466.243 10.038 466.34 9.00058C466.393 8.43828 466.419 8.15712 466.577 7.99796C466.736 7.83879 466.927 7.82009 467.309 7.78269C467.511 7.76294 467.741 7.75 468 7.75C468.259 7.75 468.489 7.76294 468.691 7.78269C469.073 7.82009 469.264 7.83879 469.423 7.99796C469.581 8.15712 469.607 8.43828 469.66 9.00058C469.757 10.038 470.188 10.875 470.188 10.875" stroke="#3C46C9" stroke-width="1.25" stroke-linecap="round" stroke-linejoin="round"/>
<path d="M470.188 17.125C470.188 17.125 469.757 17.962 469.66 18.9994C469.607 19.5617 469.581 19.8429 469.423 20.0021C469.264 20.1612 469.073 20.1799 468.691 20.2173C468.489 20.2371 468.259 20.25 468 20.25C467.741 20.25 467.511 20.2371 467.309 20.2173C466.927 20.1799 466.736 20.1612 466.577 20.0021C466.419 19.8429 466.393 19.5617 466.34 18.9994C466.243 17.962 465.812 17.125 465.812 17.125" stroke="#3C46C9" stroke-width="1.25" stroke-linecap="round" stroke-linejoin="round"/>
<path d="M483.835 19.5L481.677 11.8636H483.512L484.854 17.233H484.924L486.296 11.8636H488.11L489.483 17.2031H489.557L490.88 11.8636H492.719L490.556 19.5H488.682L487.25 14.3395H487.146L485.714 19.5H483.835ZM495.963 19.6541C495.479 19.6541 495.043 19.5679 494.656 19.3956C494.271 19.2199 493.966 18.9614 493.741 18.62C493.519 18.2786 493.408 17.8577 493.408 17.3572C493.408 16.9264 493.487 16.5701 493.646 16.2884C493.805 16.0066 494.022 15.7812 494.298 15.6122C494.573 15.4432 494.883 15.3156 495.227 15.2294C495.575 15.1399 495.935 15.0753 496.306 15.0355C496.754 14.9891 497.116 14.9477 497.395 14.9112C497.673 14.8714 497.875 14.8118 498.001 14.7322C498.131 14.6494 498.195 14.5218 498.195 14.3494V14.3196C498.195 13.9451 498.084 13.6551 497.862 13.4496C497.64 13.2441 497.32 13.1413 496.903 13.1413C496.462 13.1413 496.112 13.2375 495.854 13.4297C495.598 13.6219 495.426 13.849 495.337 14.1108L493.656 13.8722C493.789 13.4081 494.008 13.0204 494.312 12.7088C494.617 12.3939 494.99 12.1586 495.431 12.0028C495.872 11.8438 496.359 11.7642 496.893 11.7642C497.261 11.7642 497.627 11.8073 497.991 11.8935C498.356 11.9796 498.689 12.1222 498.991 12.321C499.292 12.5166 499.534 12.7834 499.717 13.1214C499.902 13.4595 499.995 13.8821 499.995 14.3892V19.5H498.265V18.451H498.205C498.096 18.6631 497.942 18.862 497.743 19.0476C497.547 19.2299 497.3 19.3774 497.002 19.4901C496.707 19.5994 496.361 19.6541 495.963 19.6541ZM496.43 18.3317C496.792 18.3317 497.105 18.2604 497.37 18.1179C497.635 17.9721 497.839 17.7798 497.982 17.5412C498.127 17.3026 498.2 17.0424 498.2 16.7607V15.8608C498.144 15.9072 498.048 15.9503 497.912 15.9901C497.779 16.0298 497.63 16.0646 497.464 16.0945C497.299 16.1243 497.135 16.1508 496.972 16.174C496.81 16.1972 496.669 16.2171 496.55 16.2337C496.281 16.2701 496.041 16.3298 495.829 16.4126C495.617 16.4955 495.449 16.6115 495.327 16.7607C495.204 16.9065 495.143 17.0954 495.143 17.3274C495.143 17.6589 495.264 17.9091 495.506 18.0781C495.748 18.2472 496.056 18.3317 496.43 18.3317ZM505.408 11.8636V13.2557H501.018V11.8636H505.408ZM502.102 10.0341H503.901V17.2031C503.901 17.4451 503.938 17.6307 504.011 17.7599C504.087 17.8859 504.187 17.9721 504.309 18.0185C504.432 18.0649 504.568 18.0881 504.717 18.0881C504.83 18.0881 504.932 18.0798 505.025 18.0632C505.121 18.0466 505.194 18.0317 505.244 18.0185L505.547 19.4254C505.451 19.4586 505.313 19.495 505.134 19.5348C504.959 19.5746 504.743 19.5978 504.488 19.6044C504.037 19.6177 503.631 19.5497 503.27 19.4006C502.909 19.2481 502.622 19.0128 502.41 18.6946C502.201 18.3764 502.098 17.9787 502.102 17.5014V10.0341ZM509.952 19.6491C509.19 19.6491 508.535 19.4818 507.988 19.147C507.445 18.8123 507.025 18.3499 506.73 17.7599C506.439 17.1667 506.293 16.4839 506.293 15.7116C506.293 14.9361 506.442 14.2517 506.74 13.6584C507.039 13.0618 507.46 12.5978 508.003 12.2663C508.55 11.9316 509.196 11.7642 509.942 11.7642C510.562 11.7642 511.11 11.8786 511.588 12.1072C512.068 12.3326 512.451 12.6525 512.736 13.0668C513.021 13.4777 513.184 13.9583 513.223 14.5085H511.503C511.434 14.1406 511.268 13.834 511.006 13.5888C510.747 13.3402 510.401 13.2159 509.967 13.2159C509.599 13.2159 509.276 13.3153 508.997 13.5142C508.719 13.7098 508.502 13.9915 508.346 14.3594C508.194 14.7273 508.117 15.1681 508.117 15.6818C508.117 16.2022 508.194 16.6496 508.346 17.0241C508.499 17.3954 508.712 17.6821 508.987 17.8842C509.266 18.0831 509.592 18.1825 509.967 18.1825C510.232 18.1825 510.469 18.1328 510.678 18.0334C510.89 17.9306 511.067 17.7831 511.21 17.5909C511.352 17.3987 511.45 17.165 511.503 16.8899H513.223C513.18 17.4302 513.021 17.9091 512.746 18.3267C512.471 18.741 512.096 19.0658 511.622 19.3011C511.148 19.5331 510.592 19.6491 509.952 19.6491ZM516.291 15.0256V19.5H514.491V9.31818H516.251V13.1612H516.341C516.519 12.7304 516.796 12.3906 517.171 12.142C517.549 11.8902 518.029 11.7642 518.613 11.7642C519.143 11.7642 519.605 11.8752 520 12.0973C520.394 12.3194 520.699 12.6442 520.914 13.0717C521.133 13.4993 521.243 14.0213 521.243 14.6378V19.5H519.443V14.9162C519.443 14.4025 519.31 14.0031 519.045 13.718C518.783 13.4297 518.415 13.2855 517.941 13.2855C517.623 13.2855 517.338 13.3551 517.086 13.4943C516.838 13.6302 516.642 13.8274 516.5 14.0859C516.36 14.3445 516.291 14.6577 516.291 15.0256ZM532.045 14.4091C532.045 15.5062 531.839 16.4458 531.428 17.228C531.02 18.0069 530.464 18.6035 529.758 19.0178C529.055 19.4321 528.258 19.6392 527.366 19.6392C526.475 19.6392 525.676 19.4321 524.97 19.0178C524.267 18.6001 523.711 18.0019 523.3 17.223C522.892 16.4408 522.688 15.5028 522.688 14.4091C522.688 13.312 522.892 12.3741 523.3 11.5952C523.711 10.813 524.267 10.2147 524.97 9.80043C525.676 9.38613 526.475 9.17898 527.366 9.17898C528.258 9.17898 529.055 9.38613 529.758 9.80043C530.464 10.2147 531.02 10.813 531.428 11.5952C531.839 12.3741 532.045 13.312 532.045 14.4091ZM530.19 14.4091C530.19 13.6368 530.069 12.9856 529.827 12.4553C529.589 11.9216 529.257 11.5189 528.833 11.2472C528.409 10.9721 527.92 10.8345 527.366 10.8345C526.813 10.8345 526.324 10.9721 525.9 11.2472C525.475 11.5189 525.142 11.9216 524.9 12.4553C524.662 12.9856 524.542 13.6368 524.542 14.4091C524.542 15.1813 524.662 15.8343 524.9 16.3679C525.142 16.8982 525.475 17.3009 525.9 17.576C526.324 17.8478 526.813 17.9837 527.366 17.9837C527.92 17.9837 528.409 17.8478 528.833 17.576C529.257 17.3009 529.589 16.8982 529.827 16.3679C530.069 15.8343 530.19 15.1813 530.19 14.4091ZM539.112 12.1172C539.065 11.683 538.87 11.3449 538.525 11.103C538.184 10.861 537.74 10.7401 537.193 10.7401C536.808 10.7401 536.478 10.7981 536.203 10.9141C535.928 11.0301 535.718 11.1875 535.572 11.3864C535.426 11.5852 535.352 11.8123 535.348 12.0675C535.348 12.2796 535.396 12.4635 535.492 12.6193C535.592 12.7751 535.726 12.9077 535.895 13.017C536.064 13.1231 536.251 13.2126 536.457 13.2855C536.662 13.3584 536.87 13.4197 537.078 13.4695L538.033 13.7081C538.417 13.7976 538.787 13.9186 539.142 14.071C539.5 14.2235 539.819 14.4157 540.101 14.6477C540.386 14.8797 540.612 15.1598 540.777 15.4879C540.943 15.8161 541.026 16.2005 541.026 16.6413C541.026 17.2379 540.873 17.7633 540.568 18.2173C540.263 18.6681 539.823 19.0211 539.246 19.2763C538.673 19.5282 537.978 19.6541 537.163 19.6541C536.371 19.6541 535.683 19.5315 535.1 19.2862C534.52 19.041 534.066 18.683 533.737 18.2124C533.413 17.7417 533.237 17.1683 533.21 16.4922H535.025C535.052 16.8468 535.161 17.1418 535.353 17.3771C535.545 17.6125 535.796 17.7881 536.104 17.9041C536.415 18.0201 536.763 18.0781 537.148 18.0781C537.549 18.0781 537.9 18.0185 538.202 17.8991C538.507 17.7765 538.746 17.6075 538.918 17.392C539.09 17.1733 539.178 16.9181 539.181 16.6264C539.178 16.3613 539.1 16.1425 538.948 15.9702C538.795 15.7945 538.581 15.6487 538.306 15.5327C538.035 15.4134 537.716 15.3073 537.352 15.2145L536.193 14.9162C535.355 14.7008 534.692 14.3743 534.205 13.9368C533.721 13.496 533.479 12.911 533.479 12.1818C533.479 11.5819 533.641 11.0566 533.966 10.6058C534.294 10.1551 534.74 9.8054 535.304 9.55682C535.867 9.30492 536.505 9.17898 537.218 9.17898C537.94 9.17898 538.573 9.30492 539.117 9.55682C539.664 9.8054 540.093 10.1518 540.404 10.5959C540.716 11.0367 540.877 11.5438 540.887 12.1172H539.112Z" fill="#F1EFEF"/>
<path d="M545.393 18.5L548.971 11.4219V11.3594H544.846V10.5H549.971V11.4062L546.409 18.5H545.393ZM553.622 17.0938V11.9375H554.497V17.0938H553.622ZM551.481 14.9531V14.0781H556.637V14.9531H551.481Z" fill="#C6C6C8"/>
<rect x="568" width="108" height="28" rx="6" fill="#3C46C9"/>
<rect x="574" y="5" width="18" height="18" rx="3.5" fill="#F1EFEF"/>
<path opacity="0.4" d="M579.562 17.4375C578 17.4375 576.75 16.5 576.75 14.3125C576.75 11.8125 578.625 10.5625 583 10.5625C587.375 10.5625 589.25 11.8125 589.25 14.3125C589.25 16.5 588 17.4375 586.438 17.4375C584.875 17.4375 583.938 15.875 583 15.875C582.062 15.875 581.125 17.4375 579.562 17.4375Z" fill="#3C46C9"/>
<path d="M579.562 17.4375C578 17.4375 576.75 16.5 576.75 14.3125C576.75 11.8125 578.625 10.5625 583 10.5625C587.375 10.5625 589.25 11.8125 589.25 14.3125C589.25 16.5 588 17.4375 586.438 17.4375C584.875 17.4375 583.938 15.875 583 15.875C582.062 15.875 581.125 17.4375 579.562 17.4375Z" stroke="#3C46C9" stroke-width="1.25" stroke-linecap="round"/>
<path d="M603.964 11.8636L601.245 19.5H599.256L596.537 11.8636H598.456L600.211 17.5362H600.29L602.05 11.8636H603.964ZM605 19.5V11.8636H606.799V19.5H605ZM605.904 10.7798C605.619 10.7798 605.374 10.6854 605.169 10.4964C604.963 10.3042 604.86 10.0739 604.86 9.8054C604.86 9.53362 604.963 9.30327 605.169 9.11435C605.374 8.92211 605.619 8.82599 605.904 8.82599C606.193 8.82599 606.438 8.92211 606.64 9.11435C606.846 9.30327 606.948 9.53362 606.948 9.8054C606.948 10.0739 606.846 10.3042 606.64 10.4964C606.438 10.6854 606.193 10.7798 605.904 10.7798ZM614.475 13.8821L612.835 14.0611C612.788 13.8954 612.707 13.7396 612.591 13.5938C612.479 13.4479 612.326 13.3303 612.134 13.2408C611.942 13.1513 611.706 13.1065 611.428 13.1065C611.053 13.1065 610.738 13.1877 610.483 13.3501C610.231 13.5125 610.107 13.723 610.11 13.9815C610.107 14.2036 610.188 14.3842 610.354 14.5234C610.523 14.6626 610.801 14.777 611.189 14.8665L612.492 15.1449C613.214 15.3007 613.751 15.5476 614.103 15.8857C614.457 16.2237 614.636 16.6662 614.639 17.2131C614.636 17.6937 614.495 18.1179 614.217 18.4858C613.942 18.8504 613.559 19.1354 613.068 19.3409C612.578 19.5464 612.014 19.6491 611.378 19.6491C610.443 19.6491 609.691 19.4536 609.121 19.0625C608.551 18.6681 608.211 18.1196 608.102 17.4169L609.857 17.2479C609.936 17.5926 610.105 17.8527 610.364 18.0284C610.622 18.2041 610.959 18.2919 611.373 18.2919C611.801 18.2919 612.144 18.2041 612.402 18.0284C612.664 17.8527 612.795 17.6357 612.795 17.3771C612.795 17.1584 612.711 16.9777 612.541 16.8352C612.376 16.6927 612.117 16.5833 611.766 16.5071L610.463 16.2337C609.731 16.0812 609.189 15.8243 608.838 15.4631C608.486 15.0985 608.312 14.6378 608.316 14.081C608.312 13.6103 608.44 13.2027 608.698 12.858C608.96 12.5099 609.323 12.2415 609.787 12.0526C610.255 11.8603 610.793 11.7642 611.403 11.7642C612.298 11.7642 613.002 11.9548 613.516 12.3359C614.033 12.7171 614.353 13.2325 614.475 13.8821ZM615.914 19.5V11.8636H617.713V19.5H615.914ZM616.818 10.7798C616.533 10.7798 616.288 10.6854 616.083 10.4964C615.877 10.3042 615.774 10.0739 615.774 9.8054C615.774 9.53362 615.877 9.30327 616.083 9.11435C616.288 8.92211 616.533 8.82599 616.818 8.82599C617.107 8.82599 617.352 8.92211 617.554 9.11435C617.76 9.30327 617.862 9.53362 617.862 9.8054C617.862 10.0739 617.76 10.3042 617.554 10.4964C617.352 10.6854 617.107 10.7798 616.818 10.7798ZM622.685 19.6491C621.939 19.6491 621.293 19.4851 620.746 19.157C620.199 18.8288 619.775 18.3698 619.473 17.7798C619.175 17.1899 619.026 16.5005 619.026 15.7116C619.026 14.9228 619.175 14.2318 619.473 13.6385C619.775 13.0452 620.199 12.5845 620.746 12.2564C621.293 11.9283 621.939 11.7642 622.685 11.7642C623.431 11.7642 624.077 11.9283 624.624 12.2564C625.171 12.5845 625.593 13.0452 625.892 13.6385C626.193 14.2318 626.344 14.9228 626.344 15.7116C626.344 16.5005 626.193 17.1899 625.892 17.7798C625.593 18.3698 625.171 18.8288 624.624 19.157C624.077 19.4851 623.431 19.6491 622.685 19.6491ZM622.695 18.2074C623.099 18.2074 623.437 18.0964 623.709 17.8743C623.981 17.6489 624.183 17.3473 624.316 16.9695C624.451 16.5916 624.519 16.1707 624.519 15.7067C624.519 15.2393 624.451 14.8168 624.316 14.4389C624.183 14.0578 623.981 13.7545 623.709 13.5291C623.437 13.3037 623.099 13.1911 622.695 13.1911C622.281 13.1911 621.936 13.3037 621.661 13.5291C621.389 13.7545 621.185 14.0578 621.049 14.4389C620.917 14.8168 620.85 15.2393 620.85 15.7067C620.85 16.1707 620.917 16.5916 621.049 16.9695C621.185 17.3473 621.389 17.6489 621.661 17.8743C621.936 18.0964 622.281 18.2074 622.695 18.2074ZM629.461 15.0256V19.5H627.661V11.8636H629.382V13.1612H629.471C629.647 12.7337 629.927 12.3939 630.311 12.142C630.699 11.8902 631.178 11.7642 631.748 11.7642C632.275 11.7642 632.734 11.8769 633.125 12.1023C633.52 12.3277 633.825 12.6541 634.04 13.0817C634.259 13.5092 634.366 14.0279 634.363 14.6378V19.5H632.563V14.9162C632.563 14.4058 632.431 14.0064 632.166 13.718C631.904 13.4297 631.541 13.2855 631.077 13.2855C630.762 13.2855 630.482 13.3551 630.237 13.4943C629.995 13.6302 629.804 13.8274 629.665 14.0859C629.529 14.3445 629.461 14.6577 629.461 15.0256ZM645.16 14.4091C645.16 15.5062 644.955 16.4458 644.544 17.228C644.136 18.0069 643.579 18.6035 642.873 19.0178C642.171 19.4321 641.374 19.6392 640.482 19.6392C639.59 19.6392 638.792 19.4321 638.086 19.0178C637.383 18.6001 636.826 18.0019 636.415 17.223C636.008 16.4408 635.804 15.5028 635.804 14.4091C635.804 13.312 636.008 12.3741 636.415 11.5952C636.826 10.813 637.383 10.2147 638.086 9.80043C638.792 9.38613 639.59 9.17898 640.482 9.17898C641.374 9.17898 642.171 9.38613 642.873 9.80043C643.579 10.2147 644.136 10.813 644.544 11.5952C644.955 12.3741 645.16 13.312 645.16 14.4091ZM643.306 14.4091C643.306 13.6368 643.185 12.9856 642.943 12.4553C642.704 11.9216 642.373 11.5189 641.949 11.2472C641.524 10.9721 641.036 10.8345 640.482 10.8345C639.929 10.8345 639.44 10.9721 639.015 11.2472C638.591 11.5189 638.258 11.9216 638.016 12.4553C637.777 12.9856 637.658 13.6368 637.658 14.4091C637.658 15.1813 637.777 15.8343 638.016 16.3679C638.258 16.8982 638.591 17.3009 639.015 17.576C639.44 17.8478 639.929 17.9837 640.482 17.9837C641.036 17.9837 641.524 17.8478 641.949 17.576C642.373 17.3009 642.704 16.8982 642.943 16.3679C643.185 15.8343 643.306 15.1813 643.306 14.4091ZM652.227 12.1172C652.181 11.683 651.985 11.3449 651.641 11.103C651.299 10.861 650.855 10.7401 650.308 10.7401C649.924 10.7401 649.594 10.7981 649.319 10.9141C649.044 11.0301 648.834 11.1875 648.688 11.3864C648.542 11.5852 648.467 11.8123 648.464 12.0675C648.464 12.2796 648.512 12.4635 648.608 12.6193C648.708 12.7751 648.842 12.9077 649.011 13.017C649.18 13.1231 649.367 13.2126 649.573 13.2855C649.778 13.3584 649.985 13.4197 650.194 13.4695L651.149 13.7081C651.533 13.7976 651.903 13.9186 652.257 14.071C652.615 14.2235 652.935 14.4157 653.217 14.6477C653.502 14.8797 653.727 15.1598 653.893 15.4879C654.059 15.8161 654.142 16.2005 654.142 16.6413C654.142 17.2379 653.989 17.7633 653.684 18.2173C653.379 18.6681 652.938 19.0211 652.362 19.2763C651.788 19.5282 651.094 19.6541 650.279 19.6541C649.486 19.6541 648.799 19.5315 648.215 19.2862C647.635 19.041 647.181 18.683 646.853 18.2124C646.528 17.7417 646.353 17.1683 646.326 16.4922H648.141C648.167 16.8468 648.277 17.1418 648.469 17.3771C648.661 17.6125 648.911 17.7881 649.22 17.9041C649.531 18.0201 649.879 18.0781 650.264 18.0781C650.665 18.0781 651.016 18.0185 651.318 17.8991C651.623 17.7765 651.861 17.6075 652.034 17.392C652.206 17.1733 652.294 16.9181 652.297 16.6264C652.294 16.3613 652.216 16.1425 652.063 15.9702C651.911 15.7945 651.697 15.6487 651.422 15.5327C651.15 15.4134 650.832 15.3073 650.468 15.2145L649.309 14.9162C648.471 14.7008 647.808 14.3743 647.32 13.9368C646.837 13.496 646.595 12.911 646.595 12.1818C646.595 11.5819 646.757 11.0566 647.082 10.6058C647.41 10.1551 647.856 9.8054 648.419 9.55682C648.983 9.30492 649.621 9.17898 650.333 9.17898C651.056 9.17898 651.689 9.30492 652.232 9.55682C652.779 9.8054 653.209 10.1518 653.52 10.5959C653.832 11.0367 653.992 11.5438 654.002 12.1172H652.227Z" fill="#F1EFEF"/>
<path d="M661.041 10.5V18.5H660.072V11.5156H660.025L658.072 12.8125V11.8281L660.072 10.5H661.041ZM665.536 17.0938V11.9375H666.411V17.0938H665.536ZM663.396 14.9531V14.0781H668.552V14.9531H663.396Z" fill="#C6C6C8"/>
<rect x="112" y="32" width="139" height="28" rx="6" fill="#006AB2"/>
<rect x="118" y="37" width="18" height="18" rx="3.5" fill="#F1EFEF"/>
<path d="M130.088 42.7165V39.7162C130.091 39.6109 130.179 39.5287 130.284 39.5303C131.307 39.5923 132.237 39.6824 133.032 39.7944L133.035 39.7951C133.109 39.8039 133.171 39.856 133.195 39.9268L133.195 39.9267L133.196 39.9299C133.198 39.9376 133.2 39.9453 133.201 39.9532L133.203 39.9597C133.206 39.9804 133.209 40.004 133.213 40.0313C133.311 40.696 133.413 41.7453 133.467 42.6972C133.467 42.6972 133.479 42.9095 133.266 42.9095H130.281C130.174 42.9095 130.088 42.8232 130.088 42.7165ZM130.088 39.7032L130.088 39.7162V39.7101L130.088 39.7032H130.088Z" fill="#006AB2"/>
<path d="M123.91 52.2805V49.0874V49.2805C123.91 49.1738 123.824 49.0874 123.717 49.0874H120.732C120.519 49.0874 120.531 49.3 120.531 49.3C120.585 50.2517 120.687 51.3012 120.785 51.966C120.789 51.9935 120.793 52.0175 120.796 52.0384L120.797 52.0442C120.798 52.0522 120.8 52.0599 120.802 52.0676L120.803 52.0708H120.803C120.827 52.1409 120.888 52.1923 120.961 52.2019C121.757 52.3145 122.69 52.4048 123.716 52.467C123.82 52.4678 123.907 52.3854 123.91 52.2805Z" fill="#006AB2"/>
<path d="M127.387 42.697C127.387 42.697 127.387 42.9098 127.599 42.9098H129.104C129.104 42.9098 129.317 42.9098 129.317 42.697V39.6941C129.317 39.6941 129.317 39.4811 129.105 39.4726C128.698 39.4557 128.052 39.4405 127.599 39.4375C127.599 39.4375 127.387 39.4362 127.387 39.6491V42.697Z" fill="#006AB2"/>
<path d="M126.998 52.3498V49.1518V49.2805C126.998 49.174 126.912 49.0874 126.805 49.0874H126.934H124.895C124.895 49.0874 124.682 49.0874 124.682 49.3003V52.3032C124.682 52.3032 124.682 52.5161 124.894 52.5248C125.42 52.5464 126.197 52.5626 126.786 52.5626C126.786 52.5626 126.998 52.5626 126.998 52.3498Z" fill="#006AB2"/>
<path d="M124.682 42.697C124.682 42.697 124.682 42.9098 124.895 42.9098H126.399C126.399 42.9098 126.612 42.9098 126.612 42.697V39.6489C126.612 39.6489 126.612 39.436 126.399 39.4375C125.947 39.4405 125.301 39.456 124.894 39.4727C124.894 39.4727 124.682 39.4814 124.682 39.6942V42.697Z" fill="#006AB2"/>
<path d="M120.694 48.3156H123.697C123.697 48.3156 123.91 48.3156 123.91 48.1027V46.5976C123.91 46.5976 123.91 46.3848 123.697 46.3848H120.649C120.649 46.3848 120.436 46.3848 120.438 46.5976C120.44 47.05 120.456 47.696 120.473 48.1027C120.473 48.1027 120.482 48.3156 120.694 48.3156Z" fill="#006AB2"/>
<path d="M120.438 45.3999C120.438 45.3999 120.436 45.6127 120.649 45.6127H123.697C123.697 45.6127 123.91 45.6127 123.91 45.3999V43.8949C123.91 43.8949 123.91 43.6821 123.697 43.6821H120.694C120.694 43.6821 120.481 43.6821 120.473 43.8947C120.456 44.3014 120.44 44.9477 120.438 45.3999Z" fill="#006AB2"/>
<path d="M123.91 42.7165V39.7162C123.907 39.6109 123.819 39.5287 123.714 39.5303C122.691 39.5923 121.761 39.6824 120.966 39.7944L120.963 39.7951C120.889 39.8039 120.827 39.856 120.803 39.9268L120.803 39.9267L120.802 39.9299C120.8 39.9376 120.798 39.9453 120.797 39.9532L120.795 39.9597C120.792 39.9804 120.789 40.004 120.785 40.0313C120.687 40.696 120.585 41.7453 120.531 42.6972C120.531 42.6972 120.519 42.9095 120.732 42.9095H123.717C123.824 42.9095 123.91 42.8232 123.91 42.7165ZM123.91 39.7032L123.91 39.7162V39.7101L123.91 39.7032H123.91Z" fill="#006AB2"/>
<path d="M130.088 48.3287C130.088 48.3287 130.088 48.5415 130.238 48.692C130.238 48.692 130.088 48.5415 133.097 51.5508C133.097 51.5508 133.247 51.7011 133.274 51.49C133.421 50.3435 133.533 48.6399 133.555 46.9837C133.555 46.9837 133.558 46.771 133.345 46.771H130.259C130.259 46.771 130.088 46.771 130.088 46.9424V48.3287Z" fill="#006AB2"/>
<path d="M133.563 45.809C133.56 45.0759 133.545 44.379 133.525 43.8947C133.525 43.8947 133.516 43.6821 133.304 43.6821H130.301C130.301 43.6821 130.088 43.6821 130.088 43.8949V45.7859C130.088 45.7859 130.088 45.9987 130.301 45.9987H133.37C133.475 45.9987 133.561 45.9141 133.563 45.809Z" fill="#006AB2"/>
<path d="M132.551 52.0968C130.478 50.0239 129.833 49.379 129.633 49.1784C129.569 49.1171 129.497 49.0835 129.435 49.0878V49.0876H127.984C127.984 49.0876 127.771 49.0876 127.771 49.3006V52.3449C127.771 52.3449 127.771 52.5577 127.984 52.555C129.641 52.5331 131.344 52.4206 132.491 52.2742C132.491 52.2742 132.702 52.2471 132.551 52.0968Z" fill="#006AB2"/>
<path d="M141.084 41.3182H143.341L146.364 48.696H146.483L149.506 41.3182H151.763V51.5H149.993V44.505H149.899L147.085 51.4702H145.762L142.948 44.4901H142.854V51.5H141.084V41.3182ZM155.68 51.6541C155.196 51.6541 154.76 51.5679 154.372 51.3956C153.988 51.2199 153.683 50.9614 153.457 50.62C153.235 50.2786 153.124 49.8577 153.124 49.3572C153.124 48.9264 153.204 48.5701 153.363 48.2884C153.522 48.0066 153.739 47.7812 154.014 47.6122C154.289 47.4432 154.599 47.3156 154.944 47.2294C155.292 47.1399 155.651 47.0753 156.023 47.0355C156.47 46.9891 156.833 46.9477 157.111 46.9112C157.39 46.8714 157.592 46.8118 157.718 46.7322C157.847 46.6494 157.912 46.5218 157.912 46.3494V46.3196C157.912 45.9451 157.801 45.6551 157.579 45.4496C157.357 45.2441 157.037 45.1413 156.619 45.1413C156.178 45.1413 155.829 45.2375 155.57 45.4297C155.315 45.6219 155.143 45.849 155.053 46.1108L153.373 45.8722C153.505 45.4081 153.724 45.0204 154.029 44.7088C154.334 44.3939 154.707 44.1586 155.148 44.0028C155.588 43.8438 156.076 43.7642 156.609 43.7642C156.977 43.7642 157.343 43.8073 157.708 43.8935C158.072 43.9796 158.406 44.1222 158.707 44.321C159.009 44.5166 159.251 44.7834 159.433 45.1214C159.619 45.4595 159.711 45.8821 159.711 46.3892V51.5H157.981V50.451H157.922C157.812 50.6631 157.658 50.862 157.459 51.0476C157.264 51.2299 157.017 51.3774 156.719 51.4901C156.424 51.5994 156.077 51.6541 155.68 51.6541ZM156.147 50.3317C156.508 50.3317 156.821 50.2604 157.086 50.1179C157.352 49.9721 157.555 49.7798 157.698 49.5412C157.844 49.3026 157.917 49.0424 157.917 48.7607V47.8608C157.86 47.9072 157.764 47.9503 157.628 47.9901C157.496 48.0298 157.347 48.0646 157.181 48.0945C157.015 48.1243 156.851 48.1508 156.689 48.174C156.526 48.1972 156.385 48.2171 156.266 48.2337C155.998 48.2701 155.757 48.3298 155.545 48.4126C155.333 48.4955 155.166 48.6115 155.043 48.7607C154.921 48.9065 154.859 49.0954 154.859 49.3274C154.859 49.6589 154.98 49.9091 155.222 50.0781C155.464 50.2472 155.772 50.3317 156.147 50.3317ZM164.145 51.6342C163.545 51.6342 163.008 51.4801 162.534 51.1719C162.06 50.8636 161.686 50.4162 161.411 49.8295C161.135 49.2429 160.998 48.5303 160.998 47.6918C160.998 46.8433 161.137 46.1274 161.416 45.544C161.697 44.9574 162.077 44.5149 162.554 44.2166C163.031 43.915 163.563 43.7642 164.15 43.7642C164.597 43.7642 164.965 43.8404 165.254 43.9929C165.542 44.142 165.771 44.3227 165.94 44.5348C166.109 44.7436 166.24 44.9408 166.332 45.1264H166.407V41.3182H168.212V51.5H166.442V50.2969H166.332C166.24 50.4825 166.105 50.6797 165.93 50.8885C165.754 51.094 165.522 51.2696 165.234 51.4155C164.945 51.5613 164.582 51.6342 164.145 51.6342ZM164.647 50.1577C165.028 50.1577 165.353 50.0549 165.621 49.8494C165.89 49.6406 166.094 49.3506 166.233 48.9794C166.372 48.6082 166.442 48.1757 166.442 47.6818C166.442 47.188 166.372 46.7588 166.233 46.3942C166.097 46.0296 165.895 45.7462 165.626 45.544C165.361 45.3419 165.035 45.2408 164.647 45.2408C164.246 45.2408 163.911 45.3452 163.643 45.554C163.374 45.7628 163.172 46.0511 163.036 46.419C162.9 46.7869 162.832 47.2079 162.832 47.6818C162.832 48.1591 162.9 48.585 163.036 48.9595C163.175 49.3307 163.379 49.6241 163.648 49.8395C163.92 50.0516 164.253 50.1577 164.647 50.1577ZM173.3 51.6491C172.535 51.6491 171.873 51.4901 171.317 51.1719C170.763 50.8504 170.337 50.3963 170.039 49.8097C169.741 49.2197 169.591 48.5253 169.591 47.7266C169.591 46.9411 169.741 46.2517 170.039 45.6584C170.34 45.0618 170.761 44.5978 171.302 44.2663C171.842 43.9316 172.477 43.7642 173.206 43.7642C173.676 43.7642 174.12 43.8404 174.538 43.9929C174.959 44.142 175.33 44.3741 175.652 44.6889C175.977 45.0038 176.232 45.4048 176.417 45.892C176.603 46.3759 176.696 46.9527 176.696 47.6222V48.174H170.437V46.9609H174.971C174.967 46.6162 174.893 46.3097 174.747 46.0412C174.601 45.7694 174.397 45.5556 174.135 45.3999C173.877 45.2441 173.575 45.1662 173.231 45.1662C172.863 45.1662 172.54 45.2557 172.261 45.4347C171.983 45.6103 171.766 45.8423 171.61 46.1307C171.457 46.4157 171.379 46.7289 171.376 47.0703V48.1293C171.376 48.5734 171.457 48.9545 171.62 49.2727C171.782 49.5876 172.009 49.8295 172.301 49.9986C172.593 50.1643 172.934 50.2472 173.325 50.2472C173.587 50.2472 173.824 50.2107 174.036 50.1378C174.248 50.0616 174.432 49.9505 174.588 49.8047C174.744 49.6589 174.861 49.4782 174.941 49.2628L176.621 49.4517C176.515 49.8958 176.313 50.2836 176.015 50.6151C175.72 50.9432 175.342 51.1984 174.881 51.3807C174.42 51.5597 173.893 51.6491 173.3 51.6491ZM181.271 51.5V43.8636H183.071V51.5H181.271ZM182.176 42.7798C181.891 42.7798 181.645 42.6854 181.44 42.4964C181.235 42.3042 181.132 42.0739 181.132 41.8054C181.132 41.5336 181.235 41.3033 181.44 41.1143C181.645 40.9221 181.891 40.826 182.176 40.826C182.464 40.826 182.709 40.9221 182.912 41.1143C183.117 41.3033 183.22 41.5336 183.22 41.8054C183.22 42.0739 183.117 42.3042 182.912 42.4964C182.709 42.6854 182.464 42.7798 182.176 42.7798ZM186.511 47.0256V51.5H184.711V43.8636H186.432V45.1612H186.521C186.697 44.7337 186.977 44.3939 187.361 44.142C187.749 43.8902 188.228 43.7642 188.798 43.7642C189.325 43.7642 189.784 43.8769 190.175 44.1023C190.57 44.3277 190.874 44.6541 191.09 45.0817C191.309 45.5092 191.416 46.0279 191.413 46.6378V51.5H189.613V46.9162C189.613 46.4058 189.481 46.0064 189.216 45.718C188.954 45.4297 188.591 45.2855 188.127 45.2855C187.812 45.2855 187.532 45.3551 187.287 45.4943C187.045 45.6302 186.854 45.8274 186.715 46.0859C186.579 46.3445 186.511 46.6577 186.511 47.0256ZM196.375 51.5V41.3182H198.219V45.9964H198.344L202.316 41.3182H204.568L200.63 45.8871L204.603 51.5H202.385L199.348 47.1349L198.219 48.4673V51.5H196.375ZM205.56 51.5V43.8636H207.305V45.1364H207.384C207.524 44.6955 207.762 44.3558 208.1 44.1172C208.442 43.8752 208.831 43.7543 209.269 43.7543C209.368 43.7543 209.479 43.7592 209.602 43.7692C209.728 43.7758 209.832 43.7874 209.915 43.804V45.4595C209.839 45.433 209.718 45.4098 209.552 45.3899C209.39 45.3667 209.232 45.3551 209.08 45.3551C208.752 45.3551 208.457 45.4264 208.195 45.5689C207.936 45.7081 207.732 45.902 207.583 46.1506C207.434 46.3991 207.36 46.6858 207.36 47.0107V51.5H205.56ZM212.961 51.6541C212.477 51.6541 212.042 51.5679 211.654 51.3956C211.269 51.2199 210.964 50.9614 210.739 50.62C210.517 50.2786 210.406 49.8577 210.406 49.3572C210.406 48.9264 210.486 48.5701 210.645 48.2884C210.804 48.0066 211.021 47.7812 211.296 47.6122C211.571 47.4432 211.881 47.3156 212.226 47.2294C212.574 47.1399 212.933 47.0753 213.304 47.0355C213.752 46.9891 214.115 46.9477 214.393 46.9112C214.672 46.8714 214.874 46.8118 215 46.7322C215.129 46.6494 215.194 46.5218 215.194 46.3494V46.3196C215.194 45.9451 215.083 45.6551 214.861 45.4496C214.638 45.2441 214.319 45.1413 213.901 45.1413C213.46 45.1413 213.111 45.2375 212.852 45.4297C212.597 45.6219 212.424 45.849 212.335 46.1108L210.655 45.8722C210.787 45.4081 211.006 45.0204 211.311 44.7088C211.616 44.3939 211.989 44.1586 212.429 44.0028C212.87 43.8438 213.357 43.7642 213.891 43.7642C214.259 43.7642 214.625 43.8073 214.99 43.8935C215.354 43.9796 215.687 44.1222 215.989 44.321C216.291 44.5166 216.533 44.7834 216.715 45.1214C216.901 45.4595 216.993 45.8821 216.993 46.3892V51.5H215.263V50.451H215.204C215.094 50.6631 214.94 50.862 214.741 51.0476C214.546 51.2299 214.299 51.3774 214 51.4901C213.705 51.5994 213.359 51.6541 212.961 51.6541ZM213.429 50.3317C213.79 50.3317 214.103 50.2604 214.368 50.1179C214.633 49.9721 214.837 49.7798 214.98 49.5412C215.126 49.3026 215.199 49.0424 215.199 48.7607V47.8608C215.142 47.9072 215.046 47.9503 214.91 47.9901C214.778 48.0298 214.629 48.0646 214.463 48.0945C214.297 48.1243 214.133 48.1508 213.971 48.174C213.808 48.1972 213.667 48.2171 213.548 48.2337C213.28 48.2701 213.039 48.3298 212.827 48.4126C212.615 48.4955 212.448 48.6115 212.325 48.7607C212.202 48.9065 212.141 49.0954 212.141 49.3274C212.141 49.6589 212.262 49.9091 212.504 50.0781C212.746 50.2472 213.054 50.3317 213.429 50.3317ZM220.234 49.1037L220.229 46.9311H220.517L223.261 43.8636H225.364L221.989 47.6222H221.616L220.234 49.1037ZM218.593 51.5V41.3182H220.393V51.5H218.593ZM223.386 51.5L220.9 48.0249L222.113 46.7571L225.538 51.5H223.386ZM229.37 51.6491C228.624 51.6491 227.978 51.4851 227.431 51.157C226.884 50.8288 226.46 50.3698 226.159 49.7798C225.86 49.1899 225.711 48.5005 225.711 47.7116C225.711 46.9228 225.86 46.2318 226.159 45.6385C226.46 45.0452 226.884 44.5845 227.431 44.2564C227.978 43.9283 228.624 43.7642 229.37 43.7642C230.116 43.7642 230.762 43.9283 231.309 44.2564C231.856 44.5845 232.279 45.0452 232.577 45.6385C232.879 46.2318 233.029 46.9228 233.029 47.7116C233.029 48.5005 232.879 49.1899 232.577 49.7798C232.279 50.3698 231.856 50.8288 231.309 51.157C230.762 51.4851 230.116 51.6491 229.37 51.6491ZM229.38 50.2074C229.785 50.2074 230.123 50.0964 230.394 49.8743C230.666 49.6489 230.868 49.3473 231.001 48.9695C231.137 48.5916 231.205 48.1707 231.205 47.7067C231.205 47.2393 231.137 46.8168 231.001 46.4389C230.868 46.0578 230.666 45.7545 230.394 45.5291C230.123 45.3037 229.785 45.1911 229.38 45.1911C228.966 45.1911 228.621 45.3037 228.346 45.5291C228.074 45.7545 227.87 46.0578 227.735 46.4389C227.602 46.8168 227.536 47.2393 227.536 47.7067C227.536 48.1707 227.602 48.5916 227.735 48.9695C227.87 49.3473 228.074 49.6489 228.346 49.8743C228.621 50.0964 228.966 50.2074 229.38 50.2074ZM228.679 42.8594L229.793 40.5874H231.553L230.026 42.8594H228.679ZM235.704 51.5L233.546 43.8636H235.381L236.723 49.233H236.793L238.165 43.8636H239.98L241.352 49.2031H241.426L242.749 43.8636H244.588L242.426 51.5H240.551L239.12 46.3395H239.015L237.583 51.5H235.704Z" fill="#F1EFEF"/>
<rect x="255" y="32" width="141" height="28" rx="6" fill="#3C46C9"/>
<rect x="261" y="37" width="18" height="18" rx="3.5" fill="#F1EFEF"/>
<path opacity="0.4" fill-rule="evenodd" clip-rule="evenodd" d="M275.889 43.5C275.937 44.2048 275.938 45.0711 275.938 46.152V46.473C275.938 49.1963 275.938 50.5579 275.155 51.404C274.372 52.25 273.113 52.25 270.594 52.25H269.406C266.887 52.25 265.628 52.25 264.845 51.404C264.062 50.5579 264.062 49.1963 264.062 46.473V46.152C264.062 45.0711 264.062 44.2048 264.111 43.5H275.889ZM270 46.3125C270.542 46.3125 271.02 46.5888 271.3 47.0082C271.466 47.2563 271.562 47.5543 271.562 47.875C271.562 48.1957 271.466 48.4938 271.3 48.7419C271.02 49.1613 270.542 49.4375 270 49.4375C269.458 49.4375 268.98 49.1613 268.7 48.7419C268.534 48.4938 268.438 48.1957 268.438 47.875C268.438 47.5543 268.534 47.2563 268.7 47.0082C268.98 46.5888 269.458 46.3125 270 46.3125Z" fill="#3C46C9"/>
<path d="M273.75 39.75V41M266.25 39.75V41" stroke="#3C46C9" stroke-width="1.25" stroke-linecap="round" stroke-linejoin="round"/>
<path d="M264.375 43.5H275.625" stroke="#3C46C9" stroke-width="1.25" stroke-linecap="round" stroke-linejoin="round"/>
<path d="M264.062 46.152C264.062 43.4287 264.062 42.0671 264.845 41.221C265.628 40.375 266.887 40.375 269.406 40.375H270.594C273.113 40.375 274.372 40.375 275.155 41.221C275.938 42.0671 275.938 43.4287 275.938 46.152V46.473C275.938 49.1963 275.938 50.5579 275.155 51.404C274.372 52.25 273.113 52.25 270.594 52.25H269.406C266.887 52.25 265.628 52.25 264.845 51.404C264.062 50.5579 264.062 49.1963 264.062 46.473V46.152Z" stroke="#3C46C9" stroke-width="1.25" stroke-linecap="round" stroke-linejoin="round"/>
<path d="M270 49.4375V50.0625M270 49.4375C269.458 49.4375 268.98 49.1613 268.7 48.7419M270 49.4375C270.542 49.4375 271.02 49.1613 271.3 48.7419M268.7 48.7419L268.125 49.125M268.7 48.7419C268.534 48.4938 268.438 48.1957 268.438 47.875C268.438 47.5543 268.534 47.2563 268.7 47.0082M271.3 48.7419L271.875 49.125M271.3 48.7419C271.466 48.4938 271.562 48.1957 271.562 47.875C271.562 47.5543 271.466 47.2563 271.3 47.0082M270 46.3125C270.542 46.3125 271.02 46.5888 271.3 47.0082M270 46.3125C269.458 46.3125 268.98 46.5888 268.7 47.0082M270 46.3125V45.6875M271.3 47.0082L271.875 46.625M268.7 47.0082L268.125 46.625" stroke="#3C46C9" stroke-width="1.25" stroke-linecap="round"/>
<path d="M287.766 51.6392C287.05 51.6392 286.414 51.5166 285.857 51.2713C285.303 51.026 284.866 50.6847 284.544 50.2472C284.223 49.8097 284.052 49.3042 284.032 48.7308H285.902C285.918 49.0059 286.009 49.2462 286.175 49.4517C286.341 49.6539 286.561 49.8113 286.836 49.924C287.111 50.0367 287.42 50.093 287.761 50.093C288.126 50.093 288.449 50.0301 288.731 49.9041C289.012 49.7749 289.233 49.5959 289.392 49.3672C289.551 49.1385 289.629 48.875 289.625 48.5767C289.629 48.2685 289.549 47.9967 289.387 47.7614C289.224 47.526 288.989 47.3421 288.681 47.2095C288.376 47.0769 288.008 47.0107 287.577 47.0107H286.677V45.5888H287.577C287.932 45.5888 288.242 45.5275 288.507 45.4048C288.775 45.2822 288.986 45.1098 289.138 44.8878C289.291 44.6624 289.365 44.4022 289.362 44.1072C289.365 43.8189 289.301 43.5687 289.168 43.3565C289.039 43.1411 288.855 42.9737 288.616 42.8544C288.381 42.7351 288.104 42.6754 287.786 42.6754C287.474 42.6754 287.186 42.7318 286.921 42.8445C286.656 42.9571 286.442 43.1179 286.28 43.3267C286.117 43.5322 286.031 43.7775 286.021 44.0625H284.246C284.259 43.4924 284.423 42.992 284.738 42.5611C285.057 42.1269 285.481 41.7888 286.011 41.5469C286.541 41.3016 287.136 41.179 287.796 41.179C288.475 41.179 289.065 41.3066 289.566 41.5618C290.07 41.8137 290.459 42.1534 290.734 42.581C291.009 43.0085 291.147 43.4808 291.147 43.9979C291.15 44.5713 290.981 45.0518 290.64 45.4396C290.302 45.8274 289.857 46.081 289.307 46.2003V46.2798C290.023 46.3793 290.572 46.6444 290.953 47.0753C291.337 47.5028 291.528 48.0348 291.525 48.6712C291.525 49.2412 291.362 49.7517 291.037 50.2024C290.716 50.6499 290.272 51.0012 289.705 51.2564C289.142 51.5116 288.495 51.6392 287.766 51.6392ZM293.849 51.6094C293.547 51.6094 293.289 51.5033 293.073 51.2912C292.858 51.0791 292.752 50.8205 292.755 50.5156C292.752 50.2173 292.858 49.9621 293.073 49.75C293.289 49.5379 293.547 49.4318 293.849 49.4318C294.141 49.4318 294.394 49.5379 294.61 49.75C294.828 49.9621 294.939 50.2173 294.943 50.5156C294.939 50.7178 294.886 50.9018 294.784 51.0675C294.684 51.2332 294.552 51.3658 294.386 51.4652C294.223 51.5613 294.044 51.6094 293.849 51.6094ZM299.938 51.6939C299.119 51.6939 298.417 51.4867 297.83 51.0724C297.247 50.6548 296.797 50.0533 296.483 49.2678C296.171 48.4789 296.015 47.5294 296.015 46.419C296.019 45.3087 296.176 44.3641 296.488 43.5852C296.802 42.803 297.252 42.2064 297.835 41.7955C298.422 41.3845 299.123 41.179 299.938 41.179C300.753 41.179 301.454 41.3845 302.041 41.7955C302.627 42.2064 303.077 42.803 303.388 43.5852C303.703 44.3674 303.86 45.312 303.86 46.419C303.86 47.5327 303.703 48.4839 303.388 49.2727C303.077 50.0582 302.627 50.6581 302.041 51.0724C301.458 51.4867 300.757 51.6939 299.938 51.6939ZM299.938 50.1378C300.574 50.1378 301.076 49.8246 301.444 49.1982C301.815 48.5684 302.001 47.642 302.001 46.419C302.001 45.6103 301.917 44.9309 301.748 44.3807C301.578 43.8305 301.34 43.4162 301.032 43.1378C300.723 42.8561 300.359 42.7152 299.938 42.7152C299.305 42.7152 298.804 43.0301 298.436 43.6598C298.069 44.2862 297.883 45.206 297.88 46.419C297.876 47.2311 297.958 47.9138 298.123 48.4673C298.292 49.0208 298.531 49.4384 298.839 49.7202C299.147 49.9986 299.514 50.1378 299.938 50.1378ZM306.034 51.6094C305.733 51.6094 305.474 51.5033 305.259 51.2912C305.043 51.0791 304.937 50.8205 304.941 50.5156C304.937 50.2173 305.043 49.9621 305.259 49.75C305.474 49.5379 305.733 49.4318 306.034 49.4318C306.326 49.4318 306.58 49.5379 306.795 49.75C307.014 49.9621 307.125 50.2173 307.128 50.5156C307.125 50.7178 307.072 50.9018 306.969 51.0675C306.87 51.2332 306.737 51.3658 306.571 51.4652C306.409 51.5613 306.23 51.6094 306.034 51.6094ZM312.123 51.6939C311.305 51.6939 310.602 51.4867 310.015 51.0724C309.432 50.6548 308.983 50.0533 308.668 49.2678C308.357 48.4789 308.201 47.5294 308.201 46.419C308.204 45.3087 308.361 44.3641 308.673 43.5852C308.988 42.803 309.437 42.2064 310.02 41.7955C310.607 41.3845 311.308 41.179 312.123 41.179C312.939 41.179 313.64 41.3845 314.226 41.7955C314.813 42.2064 315.262 42.803 315.574 43.5852C315.888 44.3674 316.046 45.312 316.046 46.419C316.046 47.5327 315.888 48.4839 315.574 49.2727C315.262 50.0582 314.813 50.6581 314.226 51.0724C313.643 51.4867 312.942 51.6939 312.123 51.6939ZM312.123 50.1378C312.76 50.1378 313.262 49.8246 313.63 49.1982C314.001 48.5684 314.187 47.642 314.187 46.419C314.187 45.6103 314.102 44.9309 313.933 44.3807C313.764 43.8305 313.525 43.4162 313.217 43.1378C312.909 42.8561 312.544 42.7152 312.123 42.7152C311.49 42.7152 310.99 43.0301 310.622 43.6598C310.254 44.2862 310.068 45.206 310.065 46.419C310.062 47.2311 310.143 47.9138 310.309 48.4673C310.478 49.0208 310.716 49.4384 311.025 49.7202C311.333 49.9986 311.699 50.1378 312.123 50.1378Z" fill="#F1EFEF"/>
<path d="M326.866 46.5C326.866 47.3437 326.714 48.0729 326.409 48.6875C326.104 49.3021 325.686 49.776 325.155 50.1094C324.624 50.4427 324.017 50.6094 323.335 50.6094C322.652 50.6094 322.046 50.4427 321.514 50.1094C320.983 49.776 320.565 49.3021 320.261 48.6875C319.956 48.0729 319.803 47.3437 319.803 46.5C319.803 45.6562 319.956 44.9271 320.261 44.3125C320.565 43.6979 320.983 43.224 321.514 42.8906C322.046 42.5573 322.652 42.3906 323.335 42.3906C324.017 42.3906 324.624 42.5573 325.155 42.8906C325.686 43.224 326.104 43.6979 326.409 44.3125C326.714 44.9271 326.866 45.6562 326.866 46.5ZM325.928 46.5C325.928 45.8073 325.813 45.2227 325.581 44.7461C325.352 44.2695 325.04 43.9089 324.647 43.6641C324.257 43.4193 323.819 43.2969 323.335 43.2969C322.85 43.2969 322.412 43.4193 322.018 43.6641C321.628 43.9089 321.317 44.2695 321.085 44.7461C320.856 45.2227 320.741 45.8073 320.741 46.5C320.741 47.1927 320.856 47.7773 321.085 48.2539C321.317 48.7305 321.628 49.0911 322.018 49.3359C322.412 49.5807 322.85 49.7031 323.335 49.7031C323.819 49.7031 324.257 49.5807 324.647 49.3359C325.04 49.0911 325.352 48.7305 325.581 48.2539C325.813 47.7773 325.928 47.1927 325.928 46.5ZM330.642 50.625C330.08 50.625 329.596 50.4922 329.189 50.2266C328.783 49.9609 328.471 49.5951 328.252 49.1289C328.033 48.6628 327.924 48.1302 327.924 47.5312C327.924 46.9219 328.036 46.3841 328.26 45.918C328.486 45.4492 328.801 45.0833 329.205 44.8203C329.611 44.5547 330.085 44.4219 330.627 44.4219C331.049 44.4219 331.429 44.5 331.767 44.6562C332.106 44.8125 332.383 45.0312 332.599 45.3125C332.816 45.5937 332.95 45.9219 333.002 46.2969H332.08C332.01 46.0234 331.853 45.7812 331.611 45.5703C331.372 45.3568 331.049 45.25 330.642 45.25C330.283 45.25 329.968 45.3437 329.697 45.5312C329.429 45.7161 329.219 45.9779 329.068 46.3164C328.92 46.6523 328.846 47.0469 328.846 47.5C328.846 47.9635 328.918 48.3672 329.064 48.7109C329.213 49.0547 329.421 49.3216 329.689 49.5117C329.96 49.7018 330.278 49.7969 330.642 49.7969C330.882 49.7969 331.099 49.7552 331.295 49.6719C331.49 49.5885 331.655 49.4688 331.791 49.3125C331.926 49.1562 332.023 48.9687 332.08 48.75H333.002C332.95 49.1042 332.821 49.4232 332.615 49.707C332.412 49.9883 332.142 50.2122 331.806 50.3789C331.473 50.543 331.085 50.625 330.642 50.625ZM336.794 44.5V45.2812H333.684V44.5H336.794ZM334.591 43.0625H335.513V48.7812C335.513 49.0417 335.55 49.237 335.626 49.3672C335.704 49.4948 335.803 49.5807 335.923 49.625C336.045 49.6667 336.174 49.6875 336.309 49.6875C336.411 49.6875 336.494 49.6823 336.559 49.6719C336.625 49.6589 336.677 49.6484 336.716 49.6406L336.903 50.4687C336.841 50.4922 336.753 50.5156 336.641 50.5391C336.529 50.5651 336.388 50.5781 336.216 50.5781C335.955 50.5781 335.7 50.5221 335.45 50.4102C335.203 50.2982 334.997 50.1276 334.833 49.8984C334.671 49.6693 334.591 49.3802 334.591 49.0312V43.0625ZM340.389 50.625C339.847 50.625 339.372 50.4961 338.963 50.2383C338.557 49.9805 338.239 49.6198 338.01 49.1562C337.783 48.6927 337.67 48.151 337.67 47.5312C337.67 46.9062 337.783 46.3607 338.01 45.8945C338.239 45.4284 338.557 45.0664 338.963 44.8086C339.372 44.5508 339.847 44.4219 340.389 44.4219C340.93 44.4219 341.404 44.5508 341.81 44.8086C342.219 45.0664 342.537 45.4284 342.764 45.8945C342.993 46.3607 343.107 46.9062 343.107 47.5312C343.107 48.151 342.993 48.6927 342.764 49.1562C342.537 49.6198 342.219 49.9805 341.81 50.2383C341.404 50.4961 340.93 50.625 340.389 50.625ZM340.389 49.7969C340.8 49.7969 341.139 49.6914 341.404 49.4805C341.67 49.2695 341.866 48.9922 341.994 48.6484C342.122 48.3047 342.185 47.9323 342.185 47.5312C342.185 47.1302 342.122 46.7565 341.994 46.4102C341.866 46.0638 341.67 45.7839 341.404 45.5703C341.139 45.3568 340.8 45.25 340.389 45.25C339.977 45.25 339.639 45.3568 339.373 45.5703C339.107 45.7839 338.911 46.0638 338.783 46.4102C338.656 46.7565 338.592 47.1302 338.592 47.5312C338.592 47.9323 338.656 48.3047 338.783 48.6484C338.911 48.9922 339.107 49.2695 339.373 49.4805C339.639 49.6914 339.977 49.7969 340.389 49.7969ZM344.475 50.5V42.5H345.396V45.4531H345.475C345.542 45.349 345.636 45.2161 345.756 45.0547C345.878 44.8906 346.053 44.7448 346.279 44.6172C346.508 44.487 346.818 44.4219 347.209 44.4219C347.714 44.4219 348.159 44.5482 348.545 44.8008C348.93 45.0534 349.231 45.4115 349.447 45.875C349.663 46.3385 349.771 46.8854 349.771 47.5156C349.771 48.151 349.663 48.7018 349.447 49.168C349.231 49.6315 348.932 49.9909 348.549 50.2461C348.166 50.4987 347.725 50.625 347.225 50.625C346.839 50.625 346.531 50.5612 346.299 50.4336C346.067 50.3034 345.889 50.1562 345.764 49.9922C345.639 49.8255 345.542 49.6875 345.475 49.5781H345.365V50.5H344.475ZM345.381 47.5C345.381 47.9531 345.447 48.3529 345.58 48.6992C345.713 49.043 345.907 49.3125 346.162 49.5078C346.417 49.7005 346.73 49.7969 347.1 49.7969C347.485 49.7969 347.807 49.6953 348.064 49.4922C348.325 49.2865 348.52 49.0104 348.65 48.6641C348.783 48.3151 348.85 47.9271 348.85 47.5C348.85 47.0781 348.784 46.6979 348.654 46.3594C348.527 46.0182 348.333 45.7487 348.072 45.5508C347.814 45.3503 347.49 45.25 347.1 45.25C346.725 45.25 346.409 45.3451 346.154 45.5352C345.899 45.7227 345.706 45.9857 345.576 46.3242C345.446 46.6602 345.381 47.0521 345.381 47.5ZM353.532 50.625C352.954 50.625 352.455 50.4974 352.036 50.2422C351.619 49.9844 351.298 49.625 351.071 49.1641C350.847 48.7005 350.735 48.1615 350.735 47.5469C350.735 46.9323 350.847 46.3906 351.071 45.9219C351.298 45.4505 351.613 45.0833 352.017 44.8203C352.423 44.5547 352.897 44.4219 353.438 44.4219C353.751 44.4219 354.06 44.474 354.364 44.5781C354.669 44.6823 354.946 44.8516 355.196 45.0859C355.446 45.3177 355.645 45.625 355.794 46.0078C355.942 46.3906 356.017 46.862 356.017 47.4219V47.8125H351.392V47.0156H355.079C355.079 46.6771 355.011 46.375 354.876 46.1094C354.743 45.8437 354.553 45.6341 354.306 45.4805C354.061 45.3268 353.772 45.25 353.438 45.25C353.071 45.25 352.754 45.3411 352.485 45.5234C352.22 45.7031 352.015 45.9375 351.872 46.2266C351.729 46.5156 351.657 46.8255 351.657 47.1562V47.6875C351.657 48.1406 351.735 48.5247 351.892 48.8398C352.05 49.1523 352.27 49.3906 352.552 49.5547C352.833 49.7161 353.16 49.7969 353.532 49.7969C353.774 49.7969 353.993 49.763 354.188 49.6953C354.386 49.625 354.557 49.5208 354.7 49.3828C354.843 49.2422 354.954 49.0677 355.032 48.8594L355.923 49.1094C355.829 49.4115 355.672 49.6771 355.45 49.9062C355.229 50.1328 354.955 50.3099 354.63 50.4375C354.304 50.5625 353.938 50.625 353.532 50.625ZM357.254 50.5V44.5H358.145V45.4062H358.207C358.316 45.1094 358.514 44.8685 358.801 44.6836C359.087 44.4987 359.41 44.4062 359.77 44.4062C359.837 44.4062 359.922 44.4076 360.023 44.4102C360.125 44.4128 360.202 44.4167 360.254 44.4219V45.3594C360.223 45.3516 360.151 45.3398 360.039 45.3242C359.93 45.306 359.814 45.2969 359.691 45.2969C359.4 45.2969 359.139 45.3581 358.91 45.4805C358.684 45.6003 358.504 45.7669 358.371 45.9805C358.241 46.1914 358.176 46.4323 358.176 46.7031V50.5H357.254ZM364.095 50.5V49.7969L366.735 46.9062C367.045 46.5677 367.301 46.2734 367.501 46.0234C367.702 45.7708 367.85 45.5339 367.946 45.3125C368.045 45.0885 368.095 44.8542 368.095 44.6094C368.095 44.3281 368.027 44.0846 367.892 43.8789C367.759 43.6732 367.577 43.5143 367.345 43.4023C367.113 43.2904 366.853 43.2344 366.564 43.2344C366.256 43.2344 365.988 43.2982 365.759 43.4258C365.532 43.5508 365.357 43.7266 365.232 43.9531C365.109 44.1797 365.048 44.4453 365.048 44.75H364.126C364.126 44.2812 364.234 43.8698 364.45 43.5156C364.666 43.1615 364.961 42.8854 365.333 42.6875C365.708 42.4896 366.129 42.3906 366.595 42.3906C367.064 42.3906 367.479 42.4896 367.841 42.6875C368.203 42.8854 368.487 43.1523 368.692 43.4883C368.898 43.8242 369.001 44.1979 369.001 44.6094C369.001 44.9036 368.948 45.1914 368.841 45.4727C368.737 45.7513 368.554 46.0625 368.294 46.4062C368.036 46.7474 367.678 47.1641 367.22 47.6562L365.423 49.5781V49.6406H369.142V50.5H364.095ZM373.199 50.6094C372.611 50.6094 372.11 50.4492 371.695 50.1289C371.281 49.806 370.965 49.3385 370.746 48.7266C370.527 48.112 370.418 47.3698 370.418 46.5C370.418 45.6354 370.527 44.8971 370.746 44.2852C370.968 43.6706 371.285 43.2018 371.699 42.8789C372.116 42.5534 372.616 42.3906 373.199 42.3906C373.783 42.3906 374.281 42.5534 374.695 42.8789C375.112 43.2018 375.43 43.6706 375.649 44.2852C375.87 44.8971 375.981 45.6354 375.981 46.5C375.981 47.3698 375.871 48.112 375.652 48.7266C375.434 49.3385 375.117 49.806 374.703 50.1289C374.289 50.4492 373.788 50.6094 373.199 50.6094ZM373.199 49.75C373.783 49.75 374.236 49.4687 374.559 48.9062C374.882 48.3437 375.043 47.5417 375.043 46.5C375.043 45.8073 374.969 45.2174 374.82 44.7305C374.675 44.2435 374.464 43.8724 374.188 43.6172C373.914 43.362 373.585 43.2344 373.199 43.2344C372.621 43.2344 372.169 43.5195 371.844 44.0898C371.518 44.6576 371.356 45.4609 371.356 46.5C371.356 47.1927 371.429 47.7812 371.574 48.2656C371.72 48.75 371.93 49.1185 372.203 49.3711C372.479 49.6237 372.811 49.75 373.199 49.75ZM377.3 50.5V49.7969L379.941 46.9062C380.251 46.5677 380.506 46.2734 380.706 46.0234C380.907 45.7708 381.055 45.5339 381.152 45.3125C381.251 45.0885 381.3 44.8542 381.3 44.6094C381.3 44.3281 381.232 44.0846 381.097 43.8789C380.964 43.6732 380.782 43.5143 380.55 43.4023C380.318 43.2904 380.058 43.2344 379.769 43.2344C379.461 43.2344 379.193 43.2982 378.964 43.4258C378.737 43.5508 378.562 43.7266 378.437 43.9531C378.314 44.1797 378.253 44.4453 378.253 44.75H377.331C377.331 44.2812 377.439 43.8698 377.655 43.5156C377.872 43.1615 378.166 42.8854 378.538 42.6875C378.913 42.4896 379.334 42.3906 379.8 42.3906C380.269 42.3906 380.684 42.4896 381.046 42.6875C381.408 42.8854 381.692 43.1523 381.898 43.4883C382.103 43.8242 382.206 44.1979 382.206 44.6094C382.206 44.9036 382.153 45.1914 382.046 45.4727C381.942 45.7513 381.76 46.0625 381.499 46.4062C381.241 46.7474 380.883 47.1641 380.425 47.6562L378.628 49.5781V49.6406H382.347V50.5H377.3ZM383.436 48.8594V48.0625L386.951 42.5H387.53V43.7344H387.139L384.483 47.9375V48H389.217V48.8594H383.436ZM387.201 50.5V48.6172V48.2461V42.5H388.123V50.5H387.201Z" fill="#C6C6C8"/>
<rect x="400" y="32" width="164" height="28" rx="6" fill="#3C46C9"/>
<rect x="406" y="37" width="18" height="18" rx="3.5" fill="#F1EFEF"/>
<path d="M415 52.25H414.062C411.705 52.25 410.527 52.25 409.795 51.5177C409.062 50.7855 409.062 49.607 409.063 47.2499L409.063 44.75C409.063 42.393 409.063 41.2145 409.795 40.4822C410.527 39.75 411.706 39.75 414.062 39.75H414.687C417.044 39.75 418.223 39.75 418.955 40.4822C419.687 41.2145 419.687 42.393 419.687 44.75V45.375" stroke="#3C46C9" stroke-width="1.25" stroke-linecap="round" stroke-linejoin="round"/>
<path d="M411.875 42.875H416.875M411.875 46H414.688" stroke="#3C46C9" stroke-width="1.25" stroke-linecap="round" stroke-linejoin="round"/>
<path d="M418.438 51.4829C419.542 51.4829 420.438 50.5672 420.438 49.4375C420.438 48.3078 419.542 47.3921 418.438 47.3921M418.438 51.4829C417.333 51.4829 416.438 50.5672 416.438 49.4375C416.438 48.3078 417.333 47.3921 418.438 47.3921M418.438 51.4829V52.25M418.438 47.3921V46.625M416.62 48.3218L415.938 47.9034M420.938 50.9716L420.256 50.5532M420.255 48.3218L420.937 47.9034M415.938 50.9716L416.619 50.5532" stroke="#3C46C9" stroke-width="1.25" stroke-linecap="round"/>
<path opacity="0.4" d="M419.687 44.75V47.25C419.687 47.4552 419.687 47.6516 419.687 47.8394C419.345 47.5592 418.91 47.3916 418.438 47.3916C417.333 47.3916 416.438 48.3074 416.438 49.4371C416.438 50.5668 417.333 51.4825 418.438 51.4825C418.665 51.4825 418.883 51.4439 419.086 51.3727C419.045 51.423 419.002 51.4713 418.955 51.5177C418.223 52.25 417.044 52.25 414.687 52.25H414.062C411.705 52.25 410.527 52.25 409.795 51.5177C409.062 50.7855 409.062 49.607 409.063 47.2499L409.063 44.75C409.063 42.393 409.063 41.2145 409.795 40.4822C410.527 39.75 411.706 39.75 414.062 39.75H414.687C417.044 39.75 418.223 39.75 418.955 40.4822C419.687 41.2145 419.687 42.393 419.687 44.75Z" fill="#3C46C9"/>
<path d="M430.597 51.5H428.628L432.213 41.3182H434.49L438.079 51.5H436.11L433.391 43.4062H433.311L430.597 51.5ZM430.661 47.5078H436.031V48.9893H430.661V47.5078ZM439.131 54.3636V43.8636H440.9V45.1264H441.005C441.098 44.9408 441.229 44.7436 441.398 44.5348C441.567 44.3227 441.795 44.142 442.084 43.9929C442.372 43.8404 442.74 43.7642 443.187 43.7642C443.777 43.7642 444.309 43.915 444.783 44.2166C445.261 44.5149 445.638 44.9574 445.917 45.544C446.199 46.1274 446.339 46.8433 446.339 47.6918C446.339 48.5303 446.202 49.2429 445.927 49.8295C445.652 50.4162 445.277 50.8636 444.803 51.1719C444.329 51.4801 443.792 51.6342 443.192 51.6342C442.755 51.6342 442.392 51.5613 442.104 51.4155C441.815 51.2696 441.583 51.094 441.408 50.8885C441.235 50.6797 441.101 50.4825 441.005 50.2969H440.93V54.3636H439.131ZM440.895 47.6818C440.895 48.1757 440.965 48.6082 441.104 48.9794C441.247 49.3506 441.451 49.6406 441.716 49.8494C441.984 50.0549 442.309 50.1577 442.69 50.1577C443.088 50.1577 443.421 50.0516 443.69 49.8395C443.958 49.6241 444.16 49.3307 444.296 48.9595C444.435 48.585 444.505 48.1591 444.505 47.6818C444.505 47.2079 444.437 46.7869 444.301 46.419C444.165 46.0511 443.963 45.7628 443.694 45.554C443.426 45.3452 443.091 45.2408 442.69 45.2408C442.306 45.2408 441.979 45.3419 441.711 45.544C441.442 45.7462 441.239 46.0296 441.099 46.3942C440.963 46.7588 440.895 47.188 440.895 47.6818ZM449.868 51.6541C449.384 51.6541 448.948 51.5679 448.56 51.3956C448.176 51.2199 447.871 50.9614 447.646 50.62C447.424 50.2786 447.313 49.8577 447.313 49.3572C447.313 48.9264 447.392 48.5701 447.551 48.2884C447.71 48.0066 447.927 47.7812 448.203 47.6122C448.478 47.4432 448.788 47.3156 449.132 47.2294C449.48 47.1399 449.84 47.0753 450.211 47.0355C450.659 46.9891 451.021 46.9477 451.3 46.9112C451.578 46.8714 451.78 46.8118 451.906 46.7322C452.036 46.6494 452.1 46.5218 452.1 46.3494V46.3196C452.1 45.9451 451.989 45.6551 451.767 45.4496C451.545 45.2441 451.225 45.1413 450.808 45.1413C450.367 45.1413 450.017 45.2375 449.759 45.4297C449.503 45.6219 449.331 45.849 449.242 46.1108L447.561 45.8722C447.694 45.4081 447.913 45.0204 448.217 44.7088C448.522 44.3939 448.895 44.1586 449.336 44.0028C449.777 43.8438 450.264 43.7642 450.798 43.7642C451.166 43.7642 451.532 43.8073 451.896 43.8935C452.261 43.9796 452.594 44.1222 452.896 44.321C453.197 44.5166 453.439 44.7834 453.622 45.1214C453.807 45.4595 453.9 45.8821 453.9 46.3892V51.5H452.17V50.451H452.11C452.001 50.6631 451.847 50.862 451.648 51.0476C451.452 51.2299 451.205 51.3774 450.907 51.4901C450.612 51.5994 450.266 51.6541 449.868 51.6541ZM450.335 50.3317C450.697 50.3317 451.01 50.2604 451.275 50.1179C451.54 49.9721 451.744 49.7798 451.886 49.5412C452.032 49.3026 452.105 49.0424 452.105 48.7607V47.8608C452.049 47.9072 451.953 47.9503 451.817 47.9901C451.684 48.0298 451.535 48.0646 451.369 48.0945C451.204 48.1243 451.04 48.1508 450.877 48.174C450.715 48.1972 450.574 48.2171 450.455 48.2337C450.186 48.2701 449.946 48.3298 449.734 48.4126C449.522 48.4955 449.354 48.6115 449.232 48.7607C449.109 48.9065 449.048 49.0954 449.048 49.3274C449.048 49.6589 449.169 49.9091 449.411 50.0781C449.653 50.2472 449.961 50.3317 450.335 50.3317ZM458.831 51.6491C458.068 51.6491 457.414 51.4818 456.867 51.147C456.323 50.8123 455.904 50.3499 455.609 49.7599C455.317 49.1667 455.172 48.4839 455.172 47.7116C455.172 46.9361 455.321 46.2517 455.619 45.6584C455.917 45.0618 456.338 44.5978 456.882 44.2663C457.429 43.9316 458.075 43.7642 458.821 43.7642C459.44 43.7642 459.989 43.8786 460.466 44.1072C460.947 44.3326 461.33 44.6525 461.615 45.0668C461.9 45.4777 462.062 45.9583 462.102 46.5085H460.382C460.312 46.1406 460.146 45.834 459.885 45.5888C459.626 45.3402 459.28 45.2159 458.846 45.2159C458.478 45.2159 458.154 45.3153 457.876 45.5142C457.598 45.7098 457.381 45.9915 457.225 46.3594C457.072 46.7273 456.996 47.1681 456.996 47.6818C456.996 48.2022 457.072 48.6496 457.225 49.0241C457.377 49.3954 457.591 49.6821 457.866 49.8842C458.145 50.0831 458.471 50.1825 458.846 50.1825C459.111 50.1825 459.348 50.1328 459.556 50.0334C459.769 49.9306 459.946 49.7831 460.088 49.5909C460.231 49.3987 460.329 49.165 460.382 48.8899H462.102C462.059 49.4302 461.9 49.9091 461.625 50.3267C461.35 50.741 460.975 51.0658 460.501 51.3011C460.027 51.5331 459.47 51.6491 458.831 51.6491ZM465.169 47.0256V51.5H463.37V41.3182H465.13V45.1612H465.219C465.398 44.7304 465.675 44.3906 466.049 44.142C466.427 43.8902 466.908 43.7642 467.491 43.7642C468.021 43.7642 468.484 43.8752 468.878 44.0973C469.273 44.3194 469.578 44.6442 469.793 45.0717C470.012 45.4993 470.121 46.0213 470.121 46.6378V51.5H468.321V46.9162C468.321 46.4025 468.189 46.0031 467.924 45.718C467.662 45.4297 467.294 45.2855 466.82 45.2855C466.502 45.2855 466.217 45.3551 465.965 45.4943C465.716 45.6302 465.521 45.8274 465.378 46.0859C465.239 46.3445 465.169 46.6577 465.169 47.0256ZM475.126 51.6491C474.361 51.6491 473.699 51.4901 473.143 51.1719C472.589 50.8504 472.163 50.3963 471.865 49.8097C471.567 49.2197 471.418 48.5253 471.418 47.7266C471.418 46.9411 471.567 46.2517 471.865 45.6584C472.167 45.0618 472.588 44.5978 473.128 44.2663C473.668 43.9316 474.303 43.7642 475.032 43.7642C475.503 43.7642 475.947 43.8404 476.364 43.9929C476.785 44.142 477.156 44.3741 477.478 44.6889C477.803 45.0038 478.058 45.4048 478.244 45.892C478.429 46.3759 478.522 46.9527 478.522 47.6222V48.174H472.263V46.9609H476.797C476.793 46.6162 476.719 46.3097 476.573 46.0412C476.427 45.7694 476.223 45.5556 475.962 45.3999C475.703 45.2441 475.401 45.1662 475.057 45.1662C474.689 45.1662 474.366 45.2557 474.087 45.4347C473.809 45.6103 473.592 45.8423 473.436 46.1307C473.284 46.4157 473.206 46.7289 473.202 47.0703V48.1293C473.202 48.5734 473.284 48.9545 473.446 49.2727C473.608 49.5876 473.835 49.8295 474.127 49.9986C474.419 50.1643 474.76 50.2472 475.151 50.2472C475.413 50.2472 475.65 50.2107 475.862 50.1378C476.074 50.0616 476.258 49.9505 476.414 49.8047C476.57 49.6589 476.687 49.4782 476.767 49.2628L478.447 49.4517C478.341 49.8958 478.139 50.2836 477.841 50.6151C477.546 50.9432 477.168 51.1984 476.707 51.3807C476.247 51.5597 475.72 51.6491 475.126 51.6491ZM483.077 51.5V50.1676L486.612 46.7024C486.95 46.361 487.232 46.0578 487.457 45.7926C487.683 45.5275 487.852 45.2706 487.964 45.022C488.077 44.7734 488.133 44.5083 488.133 44.2266C488.133 43.9051 488.06 43.63 487.915 43.4013C487.769 43.1693 487.568 42.9903 487.313 42.8643C487.058 42.7384 486.768 42.6754 486.443 42.6754C486.108 42.6754 485.815 42.745 485.563 42.8842C485.311 43.0201 485.116 43.214 484.976 43.4659C484.841 43.7178 484.773 44.0178 484.773 44.3658H483.018C483.018 43.7195 483.165 43.1577 483.46 42.6804C483.755 42.2031 484.161 41.8336 484.678 41.5717C485.198 41.3099 485.795 41.179 486.468 41.179C487.151 41.179 487.751 41.3066 488.268 41.5618C488.785 41.817 489.186 42.1667 489.471 42.6108C489.759 43.0549 489.903 43.562 489.903 44.1321C489.903 44.5133 489.83 44.8878 489.684 45.2557C489.539 45.6236 489.282 46.0312 488.914 46.4787C488.549 46.9261 488.037 47.468 487.378 48.1044L485.623 49.8892V49.9588H490.057V51.5H483.077ZM492.691 51.6094C492.39 51.6094 492.131 51.5033 491.916 51.2912C491.7 51.0791 491.594 50.8205 491.597 50.5156C491.594 50.2173 491.7 49.9621 491.916 49.75C492.131 49.5379 492.39 49.4318 492.691 49.4318C492.983 49.4318 493.236 49.5379 493.452 49.75C493.671 49.9621 493.782 50.2173 493.785 50.5156C493.782 50.7178 493.729 50.9018 493.626 51.0675C493.526 51.2332 493.394 51.3658 493.228 51.4652C493.066 51.5613 492.887 51.6094 492.691 51.6094ZM498.78 51.6939C497.961 51.6939 497.259 51.4867 496.672 51.0724C496.089 50.6548 495.64 50.0533 495.325 49.2678C495.013 48.4789 494.858 47.5294 494.858 46.419C494.861 45.3087 495.018 44.3641 495.33 43.5852C495.645 42.803 496.094 42.2064 496.677 41.7955C497.264 41.3845 497.965 41.179 498.78 41.179C499.595 41.179 500.296 41.3845 500.883 41.7955C501.47 42.2064 501.919 42.803 502.23 43.5852C502.545 44.3674 502.703 45.312 502.703 46.419C502.703 47.5327 502.545 48.4839 502.23 49.2727C501.919 50.0582 501.47 50.6581 500.883 51.0724C500.3 51.4867 499.599 51.6939 498.78 51.6939ZM498.78 50.1378C499.416 50.1378 499.919 49.8246 500.287 49.1982C500.658 48.5684 500.843 47.642 500.843 46.419C500.843 45.6103 500.759 44.9309 500.59 44.3807C500.421 43.8305 500.182 43.4162 499.874 43.1378C499.566 42.8561 499.201 42.7152 498.78 42.7152C498.147 42.7152 497.647 43.0301 497.279 43.6598C496.911 44.2862 496.725 45.206 496.722 46.419C496.719 47.2311 496.8 47.9138 496.965 48.4673C497.135 49.0208 497.373 49.4384 497.681 49.7202C497.99 49.9986 498.356 50.1378 498.78 50.1378ZM507.507 51.5V41.3182H509.351V49.9538H513.835V51.5H507.507ZM515.147 51.5V43.8636H516.946V51.5H515.147ZM516.052 42.7798C515.767 42.7798 515.521 42.6854 515.316 42.4964C515.11 42.3042 515.008 42.0739 515.008 41.8054C515.008 41.5336 515.11 41.3033 515.316 41.1143C515.521 40.9221 515.767 40.826 516.052 40.826C516.34 40.826 516.585 40.9221 516.787 41.1143C516.993 41.3033 517.096 41.5336 517.096 41.8054C517.096 42.0739 516.993 42.3042 516.787 42.4964C516.585 42.6854 516.34 42.7798 516.052 42.7798ZM521.918 51.6491C521.156 51.6491 520.501 51.4818 519.954 51.147C519.411 50.8123 518.991 50.3499 518.697 49.7599C518.405 49.1667 518.259 48.4839 518.259 47.7116C518.259 46.9361 518.408 46.2517 518.706 45.6584C519.005 45.0618 519.426 44.5978 519.969 44.2663C520.516 43.9316 521.162 43.7642 521.908 43.7642C522.528 43.7642 523.076 43.8786 523.554 44.1072C524.034 44.3326 524.417 44.6525 524.702 45.0668C524.987 45.4777 525.15 45.9583 525.189 46.5085H523.469C523.4 46.1406 523.234 45.834 522.972 45.5888C522.714 45.3402 522.367 45.2159 521.933 45.2159C521.565 45.2159 521.242 45.3153 520.964 45.5142C520.685 45.7098 520.468 45.9915 520.312 46.3594C520.16 46.7273 520.084 47.1681 520.084 47.6818C520.084 48.2022 520.16 48.6496 520.312 49.0241C520.465 49.3954 520.679 49.6821 520.954 49.8842C521.232 50.0831 521.558 50.1825 521.933 50.1825C522.198 50.1825 522.435 50.1328 522.644 50.0334C522.856 49.9306 523.033 49.7831 523.176 49.5909C523.318 49.3987 523.416 49.165 523.469 48.8899H525.189C525.146 49.4302 524.987 49.9091 524.712 50.3267C524.437 50.741 524.063 51.0658 523.589 51.3011C523.115 51.5331 522.558 51.6491 521.918 51.6491ZM529.838 51.6491C529.072 51.6491 528.411 51.4901 527.854 51.1719C527.301 50.8504 526.875 50.3963 526.577 49.8097C526.278 49.2197 526.129 48.5253 526.129 47.7266C526.129 46.9411 526.278 46.2517 526.577 45.6584C526.878 45.0618 527.299 44.5978 527.839 44.2663C528.38 43.9316 529.014 43.7642 529.743 43.7642C530.214 43.7642 530.658 43.8404 531.076 43.9929C531.497 44.142 531.868 44.3741 532.189 44.6889C532.514 45.0038 532.769 45.4048 532.955 45.892C533.141 46.3759 533.233 46.9527 533.233 47.6222V48.174H526.974V46.9609H531.508C531.505 46.6162 531.43 46.3097 531.285 46.0412C531.139 45.7694 530.935 45.5556 530.673 45.3999C530.415 45.2441 530.113 45.1662 529.768 45.1662C529.4 45.1662 529.077 45.2557 528.799 45.4347C528.52 45.6103 528.303 45.8423 528.148 46.1307C527.995 46.4157 527.917 46.7289 527.914 47.0703V48.1293C527.914 48.5734 527.995 48.9545 528.158 49.2727C528.32 49.5876 528.547 49.8295 528.839 49.9986C529.13 50.1643 529.472 50.2472 529.863 50.2472C530.125 50.2472 530.362 50.2107 530.574 50.1378C530.786 50.0616 530.97 49.9505 531.126 49.8047C531.281 49.6589 531.399 49.4782 531.479 49.2628L533.159 49.4517C533.053 49.8958 532.851 50.2836 532.552 50.6151C532.257 50.9432 531.88 51.1984 531.419 51.3807C530.958 51.5597 530.431 51.6491 529.838 51.6491ZM536.346 47.0256V51.5H534.546V43.8636H536.266V45.1612H536.356C536.531 44.7337 536.811 44.3939 537.196 44.142C537.584 43.8902 538.063 43.7642 538.633 43.7642C539.16 43.7642 539.619 43.8769 540.01 44.1023C540.404 44.3277 540.709 44.6541 540.925 45.0817C541.143 45.5092 541.251 46.0279 541.248 46.6378V51.5H539.448V46.9162C539.448 46.4058 539.315 46.0064 539.05 45.718C538.788 45.4297 538.426 45.2855 537.962 45.2855C537.647 45.2855 537.367 45.3551 537.121 45.4943C536.879 45.6302 536.689 45.8274 536.55 46.0859C536.414 46.3445 536.346 46.6577 536.346 47.0256ZM548.903 45.8821L547.262 46.0611C547.216 45.8954 547.135 45.7396 547.019 45.5938C546.906 45.4479 546.753 45.3303 546.561 45.2408C546.369 45.1513 546.134 45.1065 545.855 45.1065C545.481 45.1065 545.166 45.1877 544.911 45.3501C544.659 45.5125 544.534 45.723 544.538 45.9815C544.534 46.2036 544.616 46.3842 544.781 46.5234C544.95 46.6626 545.229 46.777 545.617 46.8665L546.919 47.1449C547.642 47.3007 548.179 47.5476 548.53 47.8857C548.885 48.2237 549.064 48.6662 549.067 49.2131C549.064 49.6937 548.923 50.1179 548.644 50.4858C548.369 50.8504 547.986 51.1354 547.496 51.3409C547.005 51.5464 546.442 51.6491 545.806 51.6491C544.871 51.6491 544.118 51.4536 543.548 51.0625C542.978 50.6681 542.639 50.1196 542.529 49.4169L544.284 49.2479C544.364 49.5926 544.533 49.8527 544.791 50.0284C545.05 50.2041 545.386 50.2919 545.801 50.2919C546.228 50.2919 546.571 50.2041 546.83 50.0284C547.091 49.8527 547.222 49.6357 547.222 49.3771C547.222 49.1584 547.138 48.9777 546.969 48.8352C546.803 48.6927 546.545 48.5833 546.193 48.5071L544.891 48.2337C544.158 48.0812 543.616 47.8243 543.265 47.4631C542.914 47.0985 542.74 46.6378 542.743 46.081C542.74 45.6103 542.867 45.2027 543.126 44.858C543.388 44.5099 543.751 44.2415 544.215 44.0526C544.682 43.8603 545.221 43.7642 545.83 43.7642C546.725 43.7642 547.43 43.9548 547.943 44.3359C548.46 44.7171 548.78 45.2325 548.903 45.8821ZM553.722 51.6491C552.956 51.6491 552.295 51.4901 551.738 51.1719C551.184 50.8504 550.759 50.3963 550.46 49.8097C550.162 49.2197 550.013 48.5253 550.013 47.7266C550.013 46.9411 550.162 46.2517 550.46 45.6584C550.762 45.0618 551.183 44.5978 551.723 44.2663C552.263 43.9316 552.898 43.7642 553.627 43.7642C554.098 43.7642 554.542 43.8404 554.959 43.9929C555.38 44.142 555.752 44.3741 556.073 44.6889C556.398 45.0038 556.653 45.4048 556.839 45.892C557.024 46.3759 557.117 46.9527 557.117 47.6222V48.174H550.858V46.9609H555.392C555.389 46.6162 555.314 46.3097 555.168 46.0412C555.022 45.7694 554.819 45.5556 554.557 45.3999C554.298 45.2441 553.997 45.1662 553.652 45.1662C553.284 45.1662 552.961 45.2557 552.683 45.4347C552.404 45.6103 552.187 45.8423 552.031 46.1307C551.879 46.4157 551.801 46.7289 551.798 47.0703V48.1293C551.798 48.5734 551.879 48.9545 552.041 49.2727C552.204 49.5876 552.431 49.8295 552.722 49.9986C553.014 50.1643 553.355 50.2472 553.746 50.2472C554.008 50.2472 554.245 50.2107 554.457 50.1378C554.669 50.0616 554.853 49.9505 555.009 49.8047C555.165 49.6589 555.283 49.4782 555.362 49.2628L557.043 49.4517C556.937 49.8958 556.734 50.2836 556.436 50.6151C556.141 50.9432 555.763 51.1984 555.303 51.3807C554.842 51.5597 554.315 51.6491 553.722 51.6491Z" fill="#F1EFEF"/>
</svg>
