<svg width="702" height="60" viewBox="0 0 702 60" fill="none" xmlns="http://www.w3.org/2000/svg">
<rect x="0.5" width="82" height="28" rx="6" fill="#259E51"/>
<rect x="6.5" y="5" width="18" height="18" rx="3.5" fill="#F1EFEF"/>
<path opacity="0.4" d="M9.5625 14C9.5625 11.201 9.5625 9.80156 10.432 8.93202C11.3016 8.0625 12.701 8.0625 15.5 8.0625C18.2989 8.0625 19.6984 8.0625 20.568 8.93202C21.4375 9.80156 21.4375 11.201 21.4375 14C21.4375 16.7989 21.4375 18.1984 20.568 19.068C19.6984 19.9375 18.2989 19.9375 15.5 19.9375C12.701 19.9375 11.3016 19.9375 10.432 19.068C9.5625 18.1984 9.5625 16.7989 9.5625 14Z" fill="#259E51"/>
<path d="M18 12.75L18.7666 13.4108C19.0889 13.6885 19.25 13.8274 19.25 14C19.25 14.1726 19.0889 14.3115 18.7666 14.5892L18 15.25" stroke="#259E51" stroke-width="1.25" stroke-linecap="round" stroke-linejoin="round"/>
<path d="M13 12.75L12.2334 13.4108C11.9111 13.6885 11.75 13.8274 11.75 14C11.75 14.1726 11.9111 14.3115 12.2334 14.5892L13 15.25" stroke="#259E51" stroke-width="1.25" stroke-linecap="round" stroke-linejoin="round"/>
<path d="M16.125 12.125L14.875 15.875" stroke="#259E51" stroke-width="1.25" stroke-linecap="round" stroke-linejoin="round"/>
<path d="M9.5625 14C9.5625 11.201 9.5625 9.80156 10.432 8.93202C11.3016 8.0625 12.701 8.0625 15.5 8.0625C18.2989 8.0625 19.6984 8.0625 20.568 8.93202C21.4375 9.80156 21.4375 11.201 21.4375 14C21.4375 16.7989 21.4375 18.1984 20.568 19.068C19.6984 19.9375 18.2989 19.9375 15.5 19.9375C12.701 19.9375 11.3016 19.9375 10.432 19.068C9.5625 18.1984 9.5625 16.7989 9.5625 14Z" stroke="#259E51" stroke-width="1.25"/>
<path d="M35.0856 12.1172C35.0392 11.683 34.8437 11.3449 34.499 11.103C34.1576 10.861 33.7135 10.7401 33.1666 10.7401C32.7821 10.7401 32.4523 10.7981 32.1772 10.9141C31.9021 11.0301 31.6917 11.1875 31.5458 11.3864C31.4 11.5852 31.3254 11.8123 31.3221 12.0675C31.3221 12.2796 31.3702 12.4635 31.4663 12.6193C31.5657 12.7751 31.7 12.9077 31.869 13.017C32.038 13.1231 32.2253 13.2126 32.4308 13.2855C32.6363 13.3584 32.8434 13.4197 33.0522 13.4695L34.0068 13.7081C34.3912 13.7976 34.7608 13.9186 35.1154 14.071C35.4734 14.2235 35.7932 14.4157 36.075 14.6477C36.36 14.8797 36.5854 15.1598 36.7511 15.4879C36.9168 15.8161 36.9997 16.2005 36.9997 16.6413C36.9997 17.2379 36.8472 17.7633 36.5423 18.2173C36.2374 18.6681 35.7965 19.0211 35.2198 19.2763C34.6465 19.5282 33.9521 19.6541 33.1367 19.6541C32.3446 19.6541 31.6569 19.5315 31.0735 19.2862C30.4935 19.041 30.0394 18.683 29.7113 18.2124C29.3865 17.7417 29.2108 17.1683 29.1843 16.4922H30.999C31.0255 16.8468 31.1349 17.1418 31.3271 17.3771C31.5193 17.6125 31.7696 17.7881 32.0778 17.9041C32.3894 18.0201 32.7374 18.0781 33.1218 18.0781C33.5229 18.0781 33.8742 18.0185 34.1758 17.8991C34.4807 17.7765 34.7194 17.6075 34.8917 17.392C35.0641 17.1733 35.1519 16.9181 35.1552 16.6264C35.1519 16.3613 35.074 16.1425 34.9215 15.9702C34.7691 15.7945 34.5553 15.6487 34.2802 15.5327C34.0084 15.4134 33.6903 15.3073 33.3257 15.2145L32.1673 14.9162C31.3287 14.7008 30.6659 14.3743 30.1786 13.9368C29.6947 13.496 29.4528 12.911 29.4528 12.1818C29.4528 11.5819 29.6152 11.0566 29.94 10.6058C30.2681 10.1551 30.7139 9.8054 31.2774 9.55682C31.8408 9.30492 32.4788 9.17898 33.1914 9.17898C33.914 9.17898 34.547 9.30492 35.0906 9.55682C35.6375 9.8054 36.0667 10.1518 36.3782 10.5959C36.6898 11.0367 36.8505 11.5438 36.8605 12.1172H35.0856ZM39.9305 19.5L37.7728 11.8636H39.6073L40.9497 17.233H41.0193L42.3914 11.8636H44.206L45.5782 17.2031H45.6528L46.9752 11.8636H48.8147L46.6521 19.5H44.7778L43.346 14.3395H43.2416L41.8097 19.5H39.9305ZM49.8613 19.5V11.8636H51.661V19.5H49.8613ZM50.7661 10.7798C50.4811 10.7798 50.2358 10.6854 50.0303 10.4964C49.8248 10.3042 49.7221 10.0739 49.7221 9.8054C49.7221 9.53362 49.8248 9.30327 50.0303 9.11435C50.2358 8.92211 50.4811 8.82599 50.7661 8.82599C51.0545 8.82599 51.2997 8.92211 51.5019 9.11435C51.7074 9.30327 51.8101 9.53362 51.8101 9.8054C51.8101 10.0739 51.7074 10.3042 51.5019 10.4964C51.2997 10.6854 51.0545 10.7798 50.7661 10.7798ZM57.1696 11.8636V13.2557H52.6554V11.8636H57.1696ZM53.7839 19.5V11.1428C53.7839 10.629 53.89 10.2015 54.1021 9.86008C54.3175 9.5187 54.6059 9.26349 54.9672 9.09446C55.3284 8.92543 55.7295 8.84091 56.1703 8.84091C56.4818 8.84091 56.7586 8.86577 57.0005 8.91548C57.2425 8.9652 57.4215 9.00994 57.5375 9.04972L57.1795 10.4418C57.1033 10.4186 57.0072 10.3954 56.8912 10.3722C56.7752 10.3456 56.6459 10.3324 56.5034 10.3324C56.1686 10.3324 55.9316 10.4136 55.7924 10.576C55.6565 10.7351 55.5886 10.9638 55.5886 11.2621V19.5H53.7839ZM62.1822 11.8636V13.2557H57.7923V11.8636H62.1822ZM58.8761 10.0341H60.6758V17.2031C60.6758 17.4451 60.7123 17.6307 60.7852 17.7599C60.8614 17.8859 60.9609 17.9721 61.0835 18.0185C61.2061 18.0649 61.342 18.0881 61.4912 18.0881C61.6039 18.0881 61.7066 18.0798 61.7994 18.0632C61.8955 18.0466 61.9684 18.0317 62.0182 18.0185L62.3214 19.4254C62.2253 19.4586 62.0878 19.495 61.9088 19.5348C61.7331 19.5746 61.5177 19.5978 61.2625 19.6044C60.8117 19.6177 60.4057 19.5497 60.0444 19.4006C59.6832 19.2481 59.3965 19.0128 59.1844 18.6946C58.9755 18.3764 58.8728 17.9787 58.8761 17.5014V10.0341ZM69.9752 9.31818H71.8197V15.9702C71.8197 16.6993 71.6474 17.3407 71.3027 17.8942C70.9613 18.4477 70.4807 18.8802 69.8609 19.1918C69.2411 19.5 68.5169 19.6541 67.6883 19.6541C66.8564 19.6541 66.1305 19.5 65.5108 19.1918C64.891 18.8802 64.4104 18.4477 64.069 17.8942C63.7276 17.3407 63.5569 16.6993 63.5569 15.9702V9.31818H65.4014V15.8161C65.4014 16.2403 65.4942 16.6181 65.6798 16.9496C65.8687 17.281 66.1339 17.5412 66.4752 17.7301C66.8166 17.9157 67.221 18.0085 67.6883 18.0085C68.1556 18.0085 68.56 17.9157 68.9014 17.7301C69.2461 17.5412 69.5112 17.281 69.6968 16.9496C69.8824 16.6181 69.9752 16.2403 69.9752 15.8161V9.31818ZM75.459 9.31818V19.5H73.6145V9.31818H75.459Z" fill="#F1EFEF"/>
<rect x="86.5" width="80" height="28" rx="6" fill="#3C46C9"/>
<rect x="92.5" y="5" width="18" height="18" rx="3.5" fill="#F1EFEF"/>
<path opacity="0.4" d="M97.7657 8.39076C97.125 9.03147 97.125 10.0627 97.125 12.1251V15.875C97.125 17.9375 97.125 18.9687 97.7657 19.6093C98.4064 20.25 99.4376 20.25 101.5 20.25C103.562 20.25 104.594 20.25 105.234 19.6093C105.875 18.9687 105.875 17.9375 105.875 15.875V12.1251C105.875 10.0627 105.875 9.03147 105.234 8.39076C104.826 7.98278 104.26 7.83459 103.37 7.78076L103.319 8.08382C103.199 8.80712 103.139 9.16877 102.891 9.38884C102.632 9.6184 102.265 9.62506 101.5 9.62506C100.735 9.62506 100.368 9.6184 100.109 9.38884C99.8615 9.16877 99.8012 8.80712 99.6806 8.08382L99.6301 7.78076C98.74 7.83459 98.1737 7.98278 97.7657 8.39076Z" fill="#3C46C9"/>
<path d="M97.125 12.125C97.125 10.0626 97.125 9.03141 97.7657 8.39071C98.4064 7.75 99.4376 7.75 101.5 7.75C103.562 7.75 104.594 7.75 105.234 8.39071C105.875 9.03141 105.875 10.0626 105.875 12.125V15.875C105.875 17.9374 105.875 18.9686 105.234 19.6093C104.594 20.25 103.562 20.25 101.5 20.25C99.4376 20.25 98.4064 20.25 97.7657 19.6093C97.125 18.9686 97.125 17.9374 97.125 15.875V12.125Z" stroke="#3C46C9" stroke-width="1.25" stroke-linecap="round"/>
<path d="M100.875 18.375H102.125" stroke="#3C46C9" stroke-width="1.25" stroke-linecap="round" stroke-linejoin="round"/>
<path d="M99.625 7.75L99.6806 8.08376C99.8012 8.80706 99.8615 9.16871 100.109 9.38877C100.368 9.61834 100.735 9.625 101.5 9.625C102.265 9.625 102.632 9.61834 102.891 9.38877C103.139 9.16871 103.199 8.80706 103.319 8.08376L103.375 7.75" stroke="#3C46C9" stroke-width="1.25" stroke-linejoin="round"/>
<path d="M115.843 19.5V11.8636H117.642V19.5H115.843ZM116.748 10.7798C116.463 10.7798 116.217 10.6854 116.012 10.4964C115.806 10.3042 115.704 10.0739 115.704 9.8054C115.704 9.53362 115.806 9.30327 116.012 9.11435C116.217 8.92211 116.463 8.82599 116.748 8.82599C117.036 8.82599 117.281 8.92211 117.483 9.11435C117.689 9.30327 117.792 9.53362 117.792 9.8054C117.792 10.0739 117.689 10.3042 117.483 10.4964C117.281 10.6854 117.036 10.7798 116.748 10.7798ZM128.461 14.4091C128.461 15.5062 128.255 16.4458 127.844 17.228C127.437 18.0069 126.88 18.6035 126.174 19.0178C125.471 19.4321 124.674 19.6392 123.782 19.6392C122.891 19.6392 122.092 19.4321 121.386 19.0178C120.683 18.6001 120.127 18.0019 119.716 17.223C119.308 16.4408 119.104 15.5028 119.104 14.4091C119.104 13.312 119.308 12.3741 119.716 11.5952C120.127 10.813 120.683 10.2147 121.386 9.80043C122.092 9.38613 122.891 9.17898 123.782 9.17898C124.674 9.17898 125.471 9.38613 126.174 9.80043C126.88 10.2147 127.437 10.813 127.844 11.5952C128.255 12.3741 128.461 13.312 128.461 14.4091ZM126.606 14.4091C126.606 13.6368 126.485 12.9856 126.243 12.4553C126.005 11.9216 125.673 11.5189 125.249 11.2472C124.825 10.9721 124.336 10.8345 123.782 10.8345C123.229 10.8345 122.74 10.9721 122.316 11.2472C121.892 11.5189 121.558 11.9216 121.316 12.4553C121.078 12.9856 120.959 13.6368 120.959 14.4091C120.959 15.1813 121.078 15.8343 121.316 16.3679C121.558 16.8982 121.892 17.3009 122.316 17.576C122.74 17.8478 123.229 17.9837 123.782 17.9837C124.336 17.9837 124.825 17.8478 125.249 17.576C125.673 17.3009 126.005 16.8982 126.243 16.3679C126.485 15.8343 126.606 15.1813 126.606 14.4091ZM135.528 12.1172C135.481 11.683 135.286 11.3449 134.941 11.103C134.6 10.861 134.156 10.7401 133.609 10.7401C133.224 10.7401 132.895 10.7981 132.619 10.9141C132.344 11.0301 132.134 11.1875 131.988 11.3864C131.842 11.5852 131.768 11.8123 131.764 12.0675C131.764 12.2796 131.812 12.4635 131.909 12.6193C132.008 12.7751 132.142 12.9077 132.311 13.017C132.48 13.1231 132.668 13.2126 132.873 13.2855C133.079 13.3584 133.286 13.4197 133.494 13.4695L134.449 13.7081C134.833 13.7976 135.203 13.9186 135.558 14.071C135.916 14.2235 136.235 14.4157 136.517 14.6477C136.802 14.8797 137.028 15.1598 137.193 15.4879C137.359 15.8161 137.442 16.2005 137.442 16.6413C137.442 17.2379 137.289 17.7633 136.985 18.2173C136.68 18.6681 136.239 19.0211 135.662 19.2763C135.089 19.5282 134.394 19.6541 133.579 19.6541C132.787 19.6541 132.099 19.5315 131.516 19.2862C130.936 19.041 130.482 18.683 130.154 18.2124C129.829 17.7417 129.653 17.1683 129.627 16.4922H131.441C131.468 16.8468 131.577 17.1418 131.769 17.3771C131.962 17.6125 132.212 17.7881 132.52 17.9041C132.832 18.0201 133.18 18.0781 133.564 18.0781C133.965 18.0781 134.316 18.0185 134.618 17.8991C134.923 17.7765 135.162 17.6075 135.334 17.392C135.506 17.1733 135.594 16.9181 135.597 16.6264C135.594 16.3613 135.516 16.1425 135.364 15.9702C135.211 15.7945 134.998 15.6487 134.722 15.5327C134.451 15.4134 134.132 15.3073 133.768 15.2145L132.61 14.9162C131.771 14.7008 131.108 14.3743 130.621 13.9368C130.137 13.496 129.895 12.911 129.895 12.1818C129.895 11.5819 130.057 11.0566 130.382 10.6058C130.71 10.1551 131.156 9.8054 131.72 9.55682C132.283 9.30492 132.921 9.17898 133.634 9.17898C134.356 9.17898 134.989 9.30492 135.533 9.55682C136.08 9.8054 136.509 10.1518 136.82 10.5959C137.132 11.0367 137.293 11.5438 137.303 12.1172H135.528Z" fill="#F1EFEF"/>
<path d="M144.595 10.5V18.5H143.626V11.5156H143.579L141.626 12.8125V11.8281L143.626 10.5H144.595ZM146.543 16.8594V16.0625L150.059 10.5H150.637V11.7344H150.246L147.59 15.9375V16H152.324V16.8594H146.543ZM150.309 18.5V16.6172V16.2461V10.5H151.23V18.5H150.309ZM155.982 17.0938V11.9375H156.857V17.0938H155.982ZM153.842 14.9531V14.0781H158.998V14.9531H153.842Z" fill="#C6C6C8"/>
<rect x="170.5" width="105" height="28" rx="6" fill="#3C46C9"/>
<rect x="176.5" y="5" width="18" height="18" rx="3.5" fill="#F1EFEF"/>
<path opacity="0.4" d="M187.062 7.75H183.938C182.17 7.75 181.286 7.75 180.737 8.29918C180.188 8.84835 180.188 9.73223 180.188 11.5V16.5C180.188 18.2677 180.188 19.1516 180.737 19.7008C181.286 20.25 182.17 20.25 183.938 20.25H187.062C188.83 20.25 189.714 20.25 190.263 19.7008C190.812 19.1516 190.812 18.2677 190.812 16.5V11.5C190.812 9.73223 190.812 8.84835 190.263 8.29918C189.714 7.75 188.83 7.75 187.062 7.75Z" fill="#3C46C9"/>
<path d="M187.062 7.75H183.938C182.17 7.75 181.286 7.75 180.737 8.29917C180.188 8.84835 180.188 9.73223 180.188 11.5V16.5C180.188 18.2677 180.188 19.1516 180.737 19.7008C181.286 20.25 182.17 20.25 183.938 20.25H187.062C188.83 20.25 189.714 20.25 190.263 19.7008C190.812 19.1516 190.812 18.2677 190.812 16.5V11.5C190.812 9.73223 190.812 8.84835 190.263 8.29917C189.714 7.75 188.83 7.75 187.062 7.75Z" stroke="#3C46C9" stroke-width="1.25" stroke-linecap="round"/>
<path d="M185.5 18.375H185.506" stroke="#3C46C9" stroke-width="1.25" stroke-linecap="round"/>
<path d="M199.792 19.5V11.8636H201.592V19.5H199.792ZM200.697 10.7798C200.412 10.7798 200.167 10.6854 199.962 10.4964C199.756 10.3042 199.653 10.0739 199.653 9.8054C199.653 9.53362 199.756 9.30327 199.962 9.11435C200.167 8.92211 200.412 8.82599 200.697 8.82599C200.986 8.82599 201.231 8.92211 201.433 9.11435C201.639 9.30327 201.741 9.53362 201.741 9.8054C201.741 10.0739 201.639 10.3042 201.433 10.4964C201.231 10.6854 200.986 10.7798 200.697 10.7798ZM203.312 19.5V9.31818H207.131C207.913 9.31818 208.569 9.46401 209.099 9.75568C209.633 10.0473 210.036 10.4484 210.307 10.9588C210.583 11.4659 210.72 12.0426 210.72 12.6889C210.72 13.3419 210.583 13.9219 210.307 14.429C210.032 14.9361 209.626 15.3355 209.089 15.6271C208.552 15.9155 207.891 16.0597 207.106 16.0597H204.575V14.5433H206.857C207.315 14.5433 207.689 14.4638 207.981 14.3047C208.272 14.1456 208.488 13.9268 208.627 13.6484C208.77 13.37 208.841 13.0502 208.841 12.6889C208.841 12.3277 208.77 12.0095 208.627 11.7344C208.488 11.4593 208.271 11.2455 207.976 11.093C207.684 10.9373 207.308 10.8594 206.847 10.8594H205.157V19.5H203.312ZM214.093 19.6541C213.609 19.6541 213.174 19.5679 212.786 19.3956C212.401 19.2199 212.096 18.9614 211.871 18.62C211.649 18.2786 211.538 17.8577 211.538 17.3572C211.538 16.9264 211.618 16.5701 211.777 16.2884C211.936 16.0066 212.153 15.7812 212.428 15.6122C212.703 15.4432 213.013 15.3156 213.358 15.2294C213.706 15.1399 214.065 15.0753 214.436 15.0355C214.884 14.9891 215.247 14.9477 215.525 14.9112C215.804 14.8714 216.006 14.8118 216.132 14.7322C216.261 14.6494 216.326 14.5218 216.326 14.3494V14.3196C216.326 13.9451 216.215 13.6551 215.993 13.4496C215.77 13.2441 215.451 13.1413 215.033 13.1413C214.592 13.1413 214.243 13.2375 213.984 13.4297C213.729 13.6219 213.556 13.849 213.467 14.1108L211.787 13.8722C211.919 13.4081 212.138 13.0204 212.443 12.7088C212.748 12.3939 213.121 12.1586 213.561 12.0028C214.002 11.8438 214.489 11.7642 215.023 11.7642C215.391 11.7642 215.757 11.8073 216.122 11.8935C216.486 11.9796 216.819 12.1222 217.121 12.321C217.423 12.5166 217.665 12.7834 217.847 13.1214C218.033 13.4595 218.125 13.8821 218.125 14.3892V19.5H216.395V18.451H216.336C216.226 18.6631 216.072 18.862 215.873 19.0476C215.678 19.2299 215.431 19.3774 215.132 19.4901C214.837 19.5994 214.491 19.6541 214.093 19.6541ZM214.561 18.3317C214.922 18.3317 215.235 18.2604 215.5 18.1179C215.765 17.9721 215.969 17.7798 216.112 17.5412C216.258 17.3026 216.331 17.0424 216.331 16.7607V15.8608C216.274 15.9072 216.178 15.9503 216.042 15.9901C215.91 16.0298 215.761 16.0646 215.595 16.0945C215.429 16.1243 215.265 16.1508 215.103 16.174C214.94 16.1972 214.799 16.2171 214.68 16.2337C214.412 16.2701 214.171 16.3298 213.959 16.4126C213.747 16.4955 213.58 16.6115 213.457 16.7607C213.334 16.9065 213.273 17.0954 213.273 17.3274C213.273 17.6589 213.394 17.9091 213.636 18.0781C213.878 18.2472 214.186 18.3317 214.561 18.3317ZM222.559 19.6342C221.959 19.6342 221.422 19.4801 220.948 19.1719C220.474 18.8636 220.1 18.4162 219.824 17.8295C219.549 17.2429 219.412 16.5303 219.412 15.6918C219.412 14.8433 219.551 14.1274 219.829 13.544C220.111 12.9574 220.491 12.5149 220.968 12.2166C221.445 11.915 221.977 11.7642 222.564 11.7642C223.011 11.7642 223.379 11.8404 223.667 11.9929C223.956 12.142 224.185 12.3227 224.354 12.5348C224.523 12.7436 224.653 12.9408 224.746 13.1264H224.821V9.31818H226.626V19.5H224.856V18.2969H224.746C224.653 18.4825 224.519 18.6797 224.344 18.8885C224.168 19.094 223.936 19.2696 223.648 19.4155C223.359 19.5613 222.996 19.6342 222.559 19.6342ZM223.061 18.1577C223.442 18.1577 223.767 18.0549 224.035 17.8494C224.304 17.6406 224.508 17.3506 224.647 16.9794C224.786 16.6082 224.856 16.1757 224.856 15.6818C224.856 15.188 224.786 14.7588 224.647 14.3942C224.511 14.0296 224.309 13.7462 224.04 13.544C223.775 13.3419 223.449 13.2408 223.061 13.2408C222.66 13.2408 222.325 13.3452 222.057 13.554C221.788 13.7628 221.586 14.0511 221.45 14.419C221.314 14.7869 221.246 15.2079 221.246 15.6818C221.246 16.1591 221.314 16.585 221.45 16.9595C221.589 17.3307 221.793 17.6241 222.062 17.8395C222.333 18.0516 222.667 18.1577 223.061 18.1577ZM237.511 14.4091C237.511 15.5062 237.305 16.4458 236.894 17.228C236.487 18.0069 235.93 18.6035 235.224 19.0178C234.521 19.4321 233.724 19.6392 232.833 19.6392C231.941 19.6392 231.142 19.4321 230.436 19.0178C229.734 18.6001 229.177 18.0019 228.766 17.223C228.358 16.4408 228.154 15.5028 228.154 14.4091C228.154 13.312 228.358 12.3741 228.766 11.5952C229.177 10.813 229.734 10.2147 230.436 9.80043C231.142 9.38613 231.941 9.17898 232.833 9.17898C233.724 9.17898 234.521 9.38613 235.224 9.80043C235.93 10.2147 236.487 10.813 236.894 11.5952C237.305 12.3741 237.511 13.312 237.511 14.4091ZM235.657 14.4091C235.657 13.6368 235.536 12.9856 235.294 12.4553C235.055 11.9216 234.723 11.5189 234.299 11.2472C233.875 10.9721 233.386 10.8345 232.833 10.8345C232.279 10.8345 231.79 10.9721 231.366 11.2472C230.942 11.5189 230.609 11.9216 230.367 12.4553C230.128 12.9856 230.009 13.6368 230.009 14.4091C230.009 15.1813 230.128 15.8343 230.367 16.3679C230.609 16.8982 230.942 17.3009 231.366 17.576C231.79 17.8478 232.279 17.9837 232.833 17.9837C233.386 17.9837 233.875 17.8478 234.299 17.576C234.723 17.3009 235.055 16.8982 235.294 16.3679C235.536 15.8343 235.657 15.1813 235.657 14.4091ZM244.578 12.1172C244.532 11.683 244.336 11.3449 243.991 11.103C243.65 10.861 243.206 10.7401 242.659 10.7401C242.275 10.7401 241.945 10.7981 241.67 10.9141C241.395 11.0301 241.184 11.1875 241.038 11.3864C240.892 11.5852 240.818 11.8123 240.815 12.0675C240.815 12.2796 240.863 12.4635 240.959 12.6193C241.058 12.7751 241.192 12.9077 241.361 13.017C241.53 13.1231 241.718 13.2126 241.923 13.2855C242.129 13.3584 242.336 13.4197 242.545 13.4695L243.499 13.7081C243.884 13.7976 244.253 13.9186 244.608 14.071C244.966 14.2235 245.286 14.4157 245.567 14.6477C245.852 14.8797 246.078 15.1598 246.244 15.4879C246.409 15.8161 246.492 16.2005 246.492 16.6413C246.492 17.2379 246.34 17.7633 246.035 18.2173C245.73 18.6681 245.289 19.0211 244.712 19.2763C244.139 19.5282 243.445 19.6541 242.629 19.6541C241.837 19.6541 241.149 19.5315 240.566 19.2862C239.986 19.041 239.532 18.683 239.204 18.2124C238.879 17.7417 238.703 17.1683 238.677 16.4922H240.491C240.518 16.8468 240.627 17.1418 240.82 17.3771C241.012 17.6125 241.262 17.7881 241.57 17.9041C241.882 18.0201 242.23 18.0781 242.614 18.0781C243.015 18.0781 243.367 18.0185 243.668 17.8991C243.973 17.7765 244.212 17.6075 244.384 17.392C244.557 17.1733 244.644 16.9181 244.648 16.6264C244.644 16.3613 244.566 16.1425 244.414 15.9702C244.262 15.7945 244.048 15.6487 243.773 15.5327C243.501 15.4134 243.183 15.3073 242.818 15.2145L241.66 14.9162C240.821 14.7008 240.158 14.3743 239.671 13.9368C239.187 13.496 238.945 12.911 238.945 12.1818C238.945 11.5819 239.108 11.0566 239.432 10.6058C239.761 10.1551 240.206 9.8054 240.77 9.55682C241.333 9.30492 241.971 9.17898 242.684 9.17898C243.406 9.17898 244.039 9.30492 244.583 9.55682C245.13 9.8054 245.559 10.1518 245.871 10.5959C246.182 11.0367 246.343 11.5438 246.353 12.1172H244.578Z" fill="#F1EFEF"/>
<path d="M253.595 10.5V18.5H252.626V11.5156H252.579L250.626 12.8125V11.8281L252.626 10.5H253.595ZM255.543 16.8594V16.0625L259.059 10.5H259.637V11.7344H259.246L256.59 15.9375V16H261.324V16.8594H255.543ZM259.309 18.5V16.6172V16.2461V10.5H260.23V18.5H259.309ZM264.982 17.0938V11.9375H265.857V17.0938H264.982ZM262.842 14.9531V14.0781H267.998V14.9531H262.842Z" fill="#C6C6C8"/>
<rect x="279.5" width="103" height="28" rx="6" fill="#3C46C9"/>
<rect x="285.5" y="5" width="18" height="18" rx="3.5" fill="#F1EFEF"/>
<path opacity="0.4" d="M295.75 7.75H293.25C291.2 7.75 290.176 7.75 289.449 8.25864C289.181 8.44681 288.947 8.68057 288.759 8.94932C288.25 9.67572 288.25 10.7005 288.25 12.75C288.25 14.7995 288.25 15.8242 288.759 16.5507C288.947 16.8194 289.181 17.0532 289.449 17.2414C290.176 17.75 291.2 17.75 293.25 17.75H295.75C297.8 17.75 298.824 17.75 299.551 17.2414C299.819 17.0532 300.053 16.8194 300.241 16.5507C300.75 15.8242 300.75 14.7995 300.75 12.75C300.75 10.7005 300.75 9.67572 300.241 8.94932C300.053 8.68057 299.819 8.44681 299.551 8.25864C298.824 7.75 297.8 7.75 295.75 7.75Z" fill="#3C46C9"/>
<path d="M295.75 7.75H293.25C291.2 7.75 290.176 7.75 289.449 8.25864C289.181 8.44681 288.947 8.68057 288.759 8.94932C288.25 9.67572 288.25 10.7005 288.25 12.75C288.25 14.7995 288.25 15.8242 288.759 16.5507C288.947 16.8194 289.181 17.0532 289.449 17.2414C290.176 17.75 291.2 17.75 293.25 17.75H295.75C297.8 17.75 298.824 17.75 299.551 17.2414C299.819 17.0532 300.053 16.8194 300.241 16.5507C300.75 15.8242 300.75 14.7995 300.75 12.75C300.75 10.7005 300.75 9.67572 300.241 8.94932C300.053 8.68057 299.819 8.44681 299.551 8.25864C298.824 7.75 297.8 7.75 295.75 7.75Z" stroke="#3C46C9" stroke-width="1.25" stroke-linecap="round"/>
<path d="M293.875 15.875H295.125" stroke="#3C46C9" stroke-width="1.25" stroke-linecap="round" stroke-linejoin="round"/>
<path d="M296.062 20.25L295.865 19.9882C295.421 19.3981 295.311 18.4965 295.592 17.75M292.938 20.25L293.135 19.9882C293.579 19.3981 293.689 18.4965 293.408 17.75" stroke="#3C46C9" stroke-width="1.25" stroke-linecap="round"/>
<path d="M291.375 20.25H297.625" stroke="#3C46C9" stroke-width="1.25" stroke-linecap="round"/>
<path d="M308.536 19.5V11.8636H310.256V13.1612H310.346C310.505 12.7237 310.768 12.3823 311.136 12.1371C311.504 11.8885 311.943 11.7642 312.454 11.7642C312.971 11.7642 313.407 11.8902 313.761 12.142C314.119 12.3906 314.371 12.7304 314.517 13.1612H314.596C314.766 12.737 315.051 12.3989 315.452 12.147C315.856 11.8918 316.335 11.7642 316.888 11.7642C317.591 11.7642 318.164 11.9863 318.609 12.4304C319.053 12.8745 319.275 13.5225 319.275 14.3743V19.5H317.47V14.6527C317.47 14.1787 317.344 13.8324 317.092 13.6136C316.84 13.3916 316.532 13.2805 316.168 13.2805C315.733 13.2805 315.394 13.4164 315.148 13.6882C314.906 13.9567 314.785 14.3063 314.785 14.7372V19.5H313.02V14.5781C313.02 14.1837 312.901 13.8688 312.663 13.6335C312.427 13.3982 312.119 13.2805 311.738 13.2805C311.479 13.2805 311.244 13.3468 311.032 13.4794C310.82 13.6087 310.651 13.7926 310.525 14.0312C310.399 14.2666 310.336 14.5417 310.336 14.8565V19.5H308.536ZM323.088 19.6541C322.604 19.6541 322.168 19.5679 321.78 19.3956C321.396 19.2199 321.091 18.9614 320.866 18.62C320.644 18.2786 320.533 17.8577 320.533 17.3572C320.533 16.9264 320.612 16.5701 320.771 16.2884C320.93 16.0066 321.147 15.7812 321.423 15.6122C321.698 15.4432 322.008 15.3156 322.352 15.2294C322.7 15.1399 323.06 15.0753 323.431 15.0355C323.879 14.9891 324.241 14.9477 324.52 14.9112C324.798 14.8714 325 14.8118 325.126 14.7322C325.256 14.6494 325.32 14.5218 325.32 14.3494V14.3196C325.32 13.9451 325.209 13.6551 324.987 13.4496C324.765 13.2441 324.445 13.1413 324.028 13.1413C323.587 13.1413 323.237 13.2375 322.979 13.4297C322.723 13.6219 322.551 13.849 322.462 14.1108L320.781 13.8722C320.914 13.4081 321.133 13.0204 321.437 12.7088C321.742 12.3939 322.115 12.1586 322.556 12.0028C322.997 11.8438 323.484 11.7642 324.018 11.7642C324.386 11.7642 324.752 11.8073 325.116 11.8935C325.481 11.9796 325.814 12.1222 326.116 12.321C326.417 12.5166 326.659 12.7834 326.842 13.1214C327.027 13.4595 327.12 13.8821 327.12 14.3892V19.5H325.39V18.451H325.33C325.221 18.6631 325.067 18.862 324.868 19.0476C324.672 19.2299 324.425 19.3774 324.127 19.4901C323.832 19.5994 323.486 19.6541 323.088 19.6541ZM323.555 18.3317C323.917 18.3317 324.23 18.2604 324.495 18.1179C324.76 17.9721 324.964 17.7798 325.106 17.5412C325.252 17.3026 325.325 17.0424 325.325 16.7607V15.8608C325.269 15.9072 325.173 15.9503 325.037 15.9901C324.904 16.0298 324.755 16.0646 324.589 16.0945C324.424 16.1243 324.26 16.1508 324.097 16.174C323.935 16.1972 323.794 16.2171 323.675 16.2337C323.406 16.2701 323.166 16.3298 322.954 16.4126C322.742 16.4955 322.574 16.6115 322.452 16.7607C322.329 16.9065 322.268 17.0954 322.268 17.3274C322.268 17.6589 322.389 17.9091 322.631 18.0781C322.873 18.2472 323.181 18.3317 323.555 18.3317ZM332.051 19.6491C331.288 19.6491 330.634 19.4818 330.087 19.147C329.543 18.8123 329.124 18.3499 328.829 17.7599C328.537 17.1667 328.392 16.4839 328.392 15.7116C328.392 14.9361 328.541 14.2517 328.839 13.6584C329.137 13.0618 329.558 12.5978 330.102 12.2663C330.649 11.9316 331.295 11.7642 332.041 11.7642C332.66 11.7642 333.209 11.8786 333.686 12.1072C334.167 12.3326 334.55 12.6525 334.835 13.0668C335.12 13.4777 335.282 13.9583 335.322 14.5085H333.602C333.532 14.1406 333.366 13.834 333.105 13.5888C332.846 13.3402 332.5 13.2159 332.066 13.2159C331.698 13.2159 331.374 13.3153 331.096 13.5142C330.818 13.7098 330.601 13.9915 330.445 14.3594C330.292 14.7273 330.216 15.1681 330.216 15.6818C330.216 16.2022 330.292 16.6496 330.445 17.0241C330.597 17.3954 330.811 17.6821 331.086 17.8842C331.365 18.0831 331.691 18.1825 332.066 18.1825C332.331 18.1825 332.568 18.1328 332.776 18.0334C332.989 17.9306 333.166 17.7831 333.308 17.5909C333.451 17.3987 333.549 17.165 333.602 16.8899H335.322C335.279 17.4302 335.12 17.9091 334.845 18.3267C334.57 18.741 334.195 19.0658 333.721 19.3011C333.247 19.5331 332.69 19.6491 332.051 19.6491ZM345.767 14.4091C345.767 15.5062 345.562 16.4458 345.151 17.228C344.743 18.0069 344.186 18.6035 343.48 19.0178C342.778 19.4321 341.981 19.6392 341.089 19.6392C340.197 19.6392 339.399 19.4321 338.693 19.0178C337.99 18.6001 337.433 18.0019 337.022 17.223C336.615 16.4408 336.411 15.5028 336.411 14.4091C336.411 13.312 336.615 12.3741 337.022 11.5952C337.433 10.813 337.99 10.2147 338.693 9.80043C339.399 9.38613 340.197 9.17898 341.089 9.17898C341.981 9.17898 342.778 9.38613 343.48 9.80043C344.186 10.2147 344.743 10.813 345.151 11.5952C345.562 12.3741 345.767 13.312 345.767 14.4091ZM343.913 14.4091C343.913 13.6368 343.792 12.9856 343.55 12.4553C343.311 11.9216 342.98 11.5189 342.556 11.2472C342.131 10.9721 341.643 10.8345 341.089 10.8345C340.536 10.8345 340.047 10.9721 339.622 11.2472C339.198 11.5189 338.865 11.9216 338.623 12.4553C338.384 12.9856 338.265 13.6368 338.265 14.4091C338.265 15.1813 338.384 15.8343 338.623 16.3679C338.865 16.8982 339.198 17.3009 339.622 17.576C340.047 17.8478 340.536 17.9837 341.089 17.9837C341.643 17.9837 342.131 17.8478 342.556 17.576C342.98 17.3009 343.311 16.8982 343.55 16.3679C343.792 15.8343 343.913 15.1813 343.913 14.4091ZM352.834 12.1172C352.788 11.683 352.592 11.3449 352.248 11.103C351.906 10.861 351.462 10.7401 350.915 10.7401C350.531 10.7401 350.201 10.7981 349.926 10.9141C349.651 11.0301 349.441 11.1875 349.295 11.3864C349.149 11.5852 349.074 11.8123 349.071 12.0675C349.071 12.2796 349.119 12.4635 349.215 12.6193C349.315 12.7751 349.449 12.9077 349.618 13.017C349.787 13.1231 349.974 13.2126 350.18 13.2855C350.385 13.3584 350.592 13.4197 350.801 13.4695L351.756 13.7081C352.14 13.7976 352.51 13.9186 352.864 14.071C353.222 14.2235 353.542 14.4157 353.824 14.6477C354.109 14.8797 354.334 15.1598 354.5 15.4879C354.666 15.8161 354.749 16.2005 354.749 16.6413C354.749 17.2379 354.596 17.7633 354.291 18.2173C353.986 18.6681 353.545 19.0211 352.969 19.2763C352.395 19.5282 351.701 19.6541 350.886 19.6541C350.093 19.6541 349.406 19.5315 348.822 19.2862C348.242 19.041 347.788 18.683 347.46 18.2124C347.135 17.7417 346.96 17.1683 346.933 16.4922H348.748C348.774 16.8468 348.884 17.1418 349.076 17.3771C349.268 17.6125 349.518 17.7881 349.827 17.9041C350.138 18.0201 350.486 18.0781 350.871 18.0781C351.272 18.0781 351.623 18.0185 351.925 17.8991C352.23 17.7765 352.468 17.6075 352.641 17.392C352.813 17.1733 352.901 16.9181 352.904 16.6264C352.901 16.3613 352.823 16.1425 352.67 15.9702C352.518 15.7945 352.304 15.6487 352.029 15.5327C351.757 15.4134 351.439 15.3073 351.074 15.2145L349.916 14.9162C349.078 14.7008 348.415 14.3743 347.927 13.9368C347.444 13.496 347.202 12.911 347.202 12.1818C347.202 11.5819 347.364 11.0566 347.689 10.6058C348.017 10.1551 348.463 9.8054 349.026 9.55682C349.59 9.30492 350.228 9.17898 350.94 9.17898C351.663 9.17898 352.296 9.30492 352.839 9.55682C353.386 9.8054 353.816 10.1518 354.127 10.5959C354.439 11.0367 354.599 11.5438 354.609 12.1172H352.834Z" fill="#F1EFEF"/>
<path d="M361.293 10.5V18.5H360.325V11.5156H360.278L358.325 12.8125V11.8281L360.325 10.5H361.293ZM363.429 18.5V17.7969L366.07 14.9062C366.38 14.5677 366.635 14.2734 366.835 14.0234C367.036 13.7708 367.184 13.5339 367.281 13.3125C367.38 13.0885 367.429 12.8542 367.429 12.6094C367.429 12.3281 367.361 12.0846 367.226 11.8789C367.093 11.6732 366.911 11.5143 366.679 11.4023C366.447 11.2904 366.187 11.2344 365.898 11.2344C365.591 11.2344 365.322 11.2982 365.093 11.4258C364.867 11.5508 364.691 11.7266 364.566 11.9531C364.444 12.1797 364.382 12.4453 364.382 12.75H363.46C363.46 12.2812 363.569 11.8698 363.785 11.5156C364.001 11.1615 364.295 10.8854 364.667 10.6875C365.042 10.4896 365.463 10.3906 365.929 10.3906C366.398 10.3906 366.813 10.4896 367.175 10.6875C367.537 10.8854 367.821 11.1523 368.027 11.4883C368.233 11.8242 368.335 12.1979 368.335 12.6094C368.335 12.9036 368.282 13.1914 368.175 13.4727C368.071 13.7513 367.889 14.0625 367.628 14.4062C367.371 14.7474 367.013 15.1641 366.554 15.6562L364.757 17.5781V17.6406H368.476V18.5H363.429ZM372.284 17.0938V11.9375H373.159V17.0938H372.284ZM370.143 14.9531V14.0781H375.299V14.9531H370.143Z" fill="#C6C6C8"/>
<rect x="386.5" width="88" height="28" rx="6" fill="#3C46C9"/>
<rect x="392.5" y="5" width="18" height="18" rx="3.5" fill="#F1EFEF"/>
<path opacity="0.4" d="M402.75 8.375H400.25C397.893 8.375 396.714 8.375 395.982 9.10723C395.25 9.83947 395.25 11.018 395.25 13.375C395.25 15.732 395.25 16.9106 395.982 17.6427C396.714 18.375 397.893 18.375 400.25 18.375H402.75C405.107 18.375 406.286 18.375 407.018 17.6427C407.75 16.9106 407.75 15.732 407.75 13.375C407.75 11.018 407.75 9.83947 407.018 9.10723C406.286 8.375 405.107 8.375 402.75 8.375Z" fill="#3C46C9"/>
<path d="M402.75 8.375H400.25C397.893 8.375 396.714 8.375 395.982 9.10723C395.25 9.83947 395.25 11.018 395.25 13.375C395.25 15.732 395.25 16.9106 395.982 17.6427C396.714 18.375 397.893 18.375 400.25 18.375H402.75C405.107 18.375 406.286 18.375 407.018 17.6427C407.75 16.9106 407.75 15.732 407.75 13.375C407.75 11.018 407.75 9.83947 407.018 9.10723C406.286 8.375 405.107 8.375 402.75 8.375Z" stroke="#3C46C9" stroke-width="1.25" stroke-linecap="round"/>
<path d="M405.25 18.375L405.875 19.625" stroke="#3C46C9" stroke-width="1.25" stroke-linecap="round" stroke-linejoin="round"/>
<path d="M397.75 18.375L397.125 19.625" stroke="#3C46C9" stroke-width="1.25" stroke-linecap="round" stroke-linejoin="round"/>
<path d="M419.394 11.8636V13.2557H415.004V11.8636H419.394ZM416.088 10.0341H417.887V17.2031C417.887 17.4451 417.924 17.6307 417.997 17.7599C418.073 17.8859 418.172 17.9721 418.295 18.0185C418.418 18.0649 418.554 18.0881 418.703 18.0881C418.815 18.0881 418.918 18.0798 419.011 18.0632C419.107 18.0466 419.18 18.0317 419.23 18.0185L419.533 19.4254C419.437 19.4586 419.299 19.495 419.12 19.5348C418.945 19.5746 418.729 19.5978 418.474 19.6044C418.023 19.6177 417.617 19.5497 417.256 19.4006C416.895 19.2481 416.608 19.0128 416.396 18.6946C416.187 18.3764 416.084 17.9787 416.088 17.5014V10.0341ZM427.51 11.8636L424.79 19.5H422.802L420.082 11.8636H422.001L423.756 17.5362H423.836L425.596 11.8636H427.51ZM437.723 14.4091C437.723 15.5062 437.517 16.4458 437.106 17.228C436.699 18.0069 436.142 18.6035 435.436 19.0178C434.733 19.4321 433.936 19.6392 433.045 19.6392C432.153 19.6392 431.354 19.4321 430.648 19.0178C429.946 18.6001 429.389 18.0019 428.978 17.223C428.57 16.4408 428.366 15.5028 428.366 14.4091C428.366 13.312 428.57 12.3741 428.978 11.5952C429.389 10.813 429.946 10.2147 430.648 9.80043C431.354 9.38613 432.153 9.17898 433.045 9.17898C433.936 9.17898 434.733 9.38613 435.436 9.80043C436.142 10.2147 436.699 10.813 437.106 11.5952C437.517 12.3741 437.723 13.312 437.723 14.4091ZM435.868 14.4091C435.868 13.6368 435.747 12.9856 435.506 12.4553C435.267 11.9216 434.935 11.5189 434.511 11.2472C434.087 10.9721 433.598 10.8345 433.045 10.8345C432.491 10.8345 432.002 10.9721 431.578 11.2472C431.154 11.5189 430.821 11.9216 430.579 12.4553C430.34 12.9856 430.221 13.6368 430.221 14.4091C430.221 15.1813 430.34 15.8343 430.579 16.3679C430.821 16.8982 431.154 17.3009 431.578 17.576C432.002 17.8478 432.491 17.9837 433.045 17.9837C433.598 17.9837 434.087 17.8478 434.511 17.576C434.935 17.3009 435.267 16.8982 435.506 16.3679C435.747 15.8343 435.868 15.1813 435.868 14.4091ZM444.79 12.1172C444.744 11.683 444.548 11.3449 444.203 11.103C443.862 10.861 443.418 10.7401 442.871 10.7401C442.487 10.7401 442.157 10.7981 441.882 10.9141C441.607 11.0301 441.396 11.1875 441.25 11.3864C441.104 11.5852 441.03 11.8123 441.027 12.0675C441.027 12.2796 441.075 12.4635 441.171 12.6193C441.27 12.7751 441.404 12.9077 441.573 13.017C441.742 13.1231 441.93 13.2126 442.135 13.2855C442.341 13.3584 442.548 13.4197 442.757 13.4695L443.711 13.7081C444.096 13.7976 444.465 13.9186 444.82 14.071C445.178 14.2235 445.498 14.4157 445.779 14.6477C446.064 14.8797 446.29 15.1598 446.456 15.4879C446.621 15.8161 446.704 16.2005 446.704 16.6413C446.704 17.2379 446.552 17.7633 446.247 18.2173C445.942 18.6681 445.501 19.0211 444.924 19.2763C444.351 19.5282 443.657 19.6541 442.841 19.6541C442.049 19.6541 441.361 19.5315 440.778 19.2862C440.198 19.041 439.744 18.683 439.416 18.2124C439.091 17.7417 438.915 17.1683 438.889 16.4922H440.703C440.73 16.8468 440.839 17.1418 441.032 17.3771C441.224 17.6125 441.474 17.7881 441.782 17.9041C442.094 18.0201 442.442 18.0781 442.826 18.0781C443.227 18.0781 443.579 18.0185 443.88 17.8991C444.185 17.7765 444.424 17.6075 444.596 17.392C444.768 17.1733 444.856 16.9181 444.86 16.6264C444.856 16.3613 444.778 16.1425 444.626 15.9702C444.474 15.7945 444.26 15.6487 443.985 15.5327C443.713 15.4134 443.395 15.3073 443.03 15.2145L441.872 14.9162C441.033 14.7008 440.37 14.3743 439.883 13.9368C439.399 13.496 439.157 12.911 439.157 12.1818C439.157 11.5819 439.32 11.0566 439.644 10.6058C439.973 10.1551 440.418 9.8054 440.982 9.55682C441.545 9.30492 442.183 9.17898 442.896 9.17898C443.618 9.17898 444.251 9.30492 444.795 9.55682C445.342 9.8054 445.771 10.1518 446.083 10.5959C446.394 11.0367 446.555 11.5438 446.565 12.1172H444.79Z" fill="#F1EFEF"/>
<path d="M453.277 10.5V18.5H452.309V11.5156H452.262L450.309 12.8125V11.8281L452.309 10.5H453.277ZM457.913 18.6094C457.455 18.6094 457.042 18.5182 456.675 18.3359C456.308 18.1536 456.013 17.9036 455.792 17.5859C455.571 17.2682 455.45 16.9062 455.429 16.5H456.366C456.403 16.862 456.567 17.1615 456.858 17.3984C457.153 17.6328 457.504 17.75 457.913 17.75C458.241 17.75 458.533 17.6732 458.788 17.5195C459.046 17.3659 459.248 17.1549 459.394 16.8867C459.542 16.6159 459.616 16.3099 459.616 15.9687C459.616 15.6198 459.539 15.3086 459.386 15.0352C459.235 14.7591 459.026 14.5417 458.761 14.3828C458.495 14.224 458.192 14.1432 457.851 14.1406C457.606 14.138 457.354 14.1758 457.097 14.2539C456.839 14.3294 456.627 14.4271 456.46 14.5469L455.554 14.4375L456.038 10.5H460.194V11.3594H456.851L456.569 13.7187H456.616C456.78 13.5885 456.986 13.4805 457.233 13.3945C457.481 13.3086 457.739 13.2656 458.007 13.2656C458.496 13.2656 458.933 13.3828 459.315 13.6172C459.701 13.849 460.003 14.1667 460.222 14.5703C460.443 14.974 460.554 15.4349 460.554 15.9531C460.554 16.4635 460.439 16.9193 460.21 17.3203C459.983 17.7187 459.671 18.0339 459.272 18.2656C458.874 18.4948 458.421 18.6094 457.913 18.6094ZM464.3 17.0938V11.9375H465.175V17.0938H464.3ZM462.159 14.9531V14.0781H467.315V14.9531H462.159Z" fill="#C6C6C8"/>
<rect x="478.5" width="111" height="28" rx="6" fill="#3C46C9"/>
<rect x="484.5" y="5" width="18" height="18" rx="3.5" fill="#F1EFEF"/>
<path opacity="0.4" d="M490.375 13.375C490.375 12.1965 490.375 11.6072 490.741 11.2411C491.107 10.875 491.696 10.875 492.875 10.875H494.125C495.304 10.875 495.893 10.875 496.259 11.2411C496.625 11.6072 496.625 12.1965 496.625 13.375V14.625C496.625 15.8035 496.625 16.3927 496.259 16.7589C495.893 17.125 495.304 17.125 494.125 17.125H492.875C491.696 17.125 491.107 17.125 490.741 16.7589C490.375 16.3927 490.375 15.8035 490.375 14.625V13.375Z" fill="#3C46C9"/>
<path d="M490.375 13.375C490.375 12.1965 490.375 11.6072 490.741 11.2411C491.107 10.875 491.696 10.875 492.875 10.875H494.125C495.303 10.875 495.893 10.875 496.259 11.2411C496.625 11.6072 496.625 12.1965 496.625 13.375V14.625C496.625 15.8035 496.625 16.3927 496.259 16.7589C495.893 17.125 495.303 17.125 494.125 17.125H492.875C491.696 17.125 491.107 17.125 490.741 16.7589C490.375 16.3927 490.375 15.8035 490.375 14.625V13.375Z" stroke="#3C46C9" stroke-width="1.25"/>
<path d="M491.312 10.875C491.312 10.875 491.743 10.038 491.84 9.00058C491.893 8.43828 491.919 8.15712 492.077 7.99796C492.236 7.83879 492.427 7.82009 492.809 7.78269C493.011 7.76294 493.241 7.75 493.5 7.75C493.759 7.75 493.989 7.76294 494.191 7.78269C494.573 7.82009 494.764 7.83879 494.923 7.99796C495.081 8.15712 495.107 8.43828 495.16 9.00058C495.257 10.038 495.688 10.875 495.688 10.875" stroke="#3C46C9" stroke-width="1.25" stroke-linecap="round" stroke-linejoin="round"/>
<path d="M495.688 17.125C495.688 17.125 495.257 17.962 495.16 18.9994C495.107 19.5617 495.081 19.8429 494.923 20.0021C494.764 20.1612 494.573 20.1799 494.191 20.2173C493.989 20.2371 493.759 20.25 493.5 20.25C493.241 20.25 493.011 20.2371 492.809 20.2173C492.427 20.1799 492.236 20.1612 492.077 20.0021C491.919 19.8429 491.893 19.5617 491.84 18.9994C491.743 17.962 491.312 17.125 491.312 17.125" stroke="#3C46C9" stroke-width="1.25" stroke-linecap="round" stroke-linejoin="round"/>
<path d="M509.335 19.5L507.177 11.8636H509.012L510.354 17.233H510.424L511.796 11.8636H513.61L514.983 17.2031H515.057L516.38 11.8636H518.219L516.056 19.5H514.182L512.75 14.3395H512.646L511.214 19.5H509.335ZM521.463 19.6541C520.979 19.6541 520.543 19.5679 520.156 19.3956C519.771 19.2199 519.466 18.9614 519.241 18.62C519.019 18.2786 518.908 17.8577 518.908 17.3572C518.908 16.9264 518.987 16.5701 519.146 16.2884C519.305 16.0066 519.522 15.7812 519.798 15.6122C520.073 15.4432 520.383 15.3156 520.727 15.2294C521.075 15.1399 521.435 15.0753 521.806 15.0355C522.254 14.9891 522.616 14.9477 522.895 14.9112C523.173 14.8714 523.375 14.8118 523.501 14.7322C523.631 14.6494 523.695 14.5218 523.695 14.3494V14.3196C523.695 13.9451 523.584 13.6551 523.362 13.4496C523.14 13.2441 522.82 13.1413 522.403 13.1413C521.962 13.1413 521.612 13.2375 521.354 13.4297C521.098 13.6219 520.926 13.849 520.837 14.1108L519.156 13.8722C519.289 13.4081 519.508 13.0204 519.812 12.7088C520.117 12.3939 520.49 12.1586 520.931 12.0028C521.372 11.8438 521.859 11.7642 522.393 11.7642C522.761 11.7642 523.127 11.8073 523.491 11.8935C523.856 11.9796 524.189 12.1222 524.491 12.321C524.792 12.5166 525.034 12.7834 525.217 13.1214C525.402 13.4595 525.495 13.8821 525.495 14.3892V19.5H523.765V18.451H523.705C523.596 18.6631 523.442 18.862 523.243 19.0476C523.047 19.2299 522.8 19.3774 522.502 19.4901C522.207 19.5994 521.861 19.6541 521.463 19.6541ZM521.93 18.3317C522.292 18.3317 522.605 18.2604 522.87 18.1179C523.135 17.9721 523.339 17.7798 523.482 17.5412C523.627 17.3026 523.7 17.0424 523.7 16.7607V15.8608C523.644 15.9072 523.548 15.9503 523.412 15.9901C523.279 16.0298 523.13 16.0646 522.964 16.0945C522.799 16.1243 522.635 16.1508 522.472 16.174C522.31 16.1972 522.169 16.2171 522.05 16.2337C521.781 16.2701 521.541 16.3298 521.329 16.4126C521.117 16.4955 520.949 16.6115 520.827 16.7607C520.704 16.9065 520.643 17.0954 520.643 17.3274C520.643 17.6589 520.764 17.9091 521.006 18.0781C521.248 18.2472 521.556 18.3317 521.93 18.3317ZM530.908 11.8636V13.2557H526.518V11.8636H530.908ZM527.602 10.0341H529.401V17.2031C529.401 17.4451 529.438 17.6307 529.511 17.7599C529.587 17.8859 529.687 17.9721 529.809 18.0185C529.932 18.0649 530.068 18.0881 530.217 18.0881C530.33 18.0881 530.432 18.0798 530.525 18.0632C530.621 18.0466 530.694 18.0317 530.744 18.0185L531.047 19.4254C530.951 19.4586 530.813 19.495 530.634 19.5348C530.459 19.5746 530.243 19.5978 529.988 19.6044C529.537 19.6177 529.131 19.5497 528.77 19.4006C528.409 19.2481 528.122 19.0128 527.91 18.6946C527.701 18.3764 527.598 17.9787 527.602 17.5014V10.0341ZM535.452 19.6491C534.69 19.6491 534.035 19.4818 533.488 19.147C532.945 18.8123 532.525 18.3499 532.23 17.7599C531.939 17.1667 531.793 16.4839 531.793 15.7116C531.793 14.9361 531.942 14.2517 532.24 13.6584C532.539 13.0618 532.96 12.5978 533.503 12.2663C534.05 11.9316 534.696 11.7642 535.442 11.7642C536.062 11.7642 536.61 11.8786 537.088 12.1072C537.568 12.3326 537.951 12.6525 538.236 13.0668C538.521 13.4777 538.684 13.9583 538.723 14.5085H537.003C536.934 14.1406 536.768 13.834 536.506 13.5888C536.247 13.3402 535.901 13.2159 535.467 13.2159C535.099 13.2159 534.776 13.3153 534.497 13.5142C534.219 13.7098 534.002 13.9915 533.846 14.3594C533.694 14.7273 533.617 15.1681 533.617 15.6818C533.617 16.2022 533.694 16.6496 533.846 17.0241C533.999 17.3954 534.212 17.6821 534.487 17.8842C534.766 18.0831 535.092 18.1825 535.467 18.1825C535.732 18.1825 535.969 18.1328 536.178 18.0334C536.39 17.9306 536.567 17.7831 536.71 17.5909C536.852 17.3987 536.95 17.165 537.003 16.8899H538.723C538.68 17.4302 538.521 17.9091 538.246 18.3267C537.971 18.741 537.596 19.0658 537.122 19.3011C536.648 19.5331 536.092 19.6491 535.452 19.6491ZM541.791 15.0256V19.5H539.991V9.31818H541.751V13.1612H541.841C542.019 12.7304 542.296 12.3906 542.671 12.142C543.049 11.8902 543.529 11.7642 544.113 11.7642C544.643 11.7642 545.105 11.8752 545.5 12.0973C545.894 12.3194 546.199 12.6442 546.414 13.0717C546.633 13.4993 546.743 14.0213 546.743 14.6378V19.5H544.943V14.9162C544.943 14.4025 544.81 14.0031 544.545 13.718C544.283 13.4297 543.915 13.2855 543.441 13.2855C543.123 13.2855 542.838 13.3551 542.586 13.4943C542.338 13.6302 542.142 13.8274 542 14.0859C541.86 14.3445 541.791 14.6577 541.791 15.0256ZM557.545 14.4091C557.545 15.5062 557.339 16.4458 556.928 17.228C556.52 18.0069 555.964 18.6035 555.258 19.0178C554.555 19.4321 553.758 19.6392 552.866 19.6392C551.975 19.6392 551.176 19.4321 550.47 19.0178C549.767 18.6001 549.211 18.0019 548.8 17.223C548.392 16.4408 548.188 15.5028 548.188 14.4091C548.188 13.312 548.392 12.3741 548.8 11.5952C549.211 10.813 549.767 10.2147 550.47 9.80043C551.176 9.38613 551.975 9.17898 552.866 9.17898C553.758 9.17898 554.555 9.38613 555.258 9.80043C555.964 10.2147 556.52 10.813 556.928 11.5952C557.339 12.3741 557.545 13.312 557.545 14.4091ZM555.69 14.4091C555.69 13.6368 555.569 12.9856 555.327 12.4553C555.089 11.9216 554.757 11.5189 554.333 11.2472C553.909 10.9721 553.42 10.8345 552.866 10.8345C552.313 10.8345 551.824 10.9721 551.4 11.2472C550.975 11.5189 550.642 11.9216 550.4 12.4553C550.162 12.9856 550.042 13.6368 550.042 14.4091C550.042 15.1813 550.162 15.8343 550.4 16.3679C550.642 16.8982 550.975 17.3009 551.4 17.576C551.824 17.8478 552.313 17.9837 552.866 17.9837C553.42 17.9837 553.909 17.8478 554.333 17.576C554.757 17.3009 555.089 16.8982 555.327 16.3679C555.569 15.8343 555.69 15.1813 555.69 14.4091ZM564.612 12.1172C564.565 11.683 564.37 11.3449 564.025 11.103C563.684 10.861 563.24 10.7401 562.693 10.7401C562.308 10.7401 561.978 10.7981 561.703 10.9141C561.428 11.0301 561.218 11.1875 561.072 11.3864C560.926 11.5852 560.852 11.8123 560.848 12.0675C560.848 12.2796 560.896 12.4635 560.992 12.6193C561.092 12.7751 561.226 12.9077 561.395 13.017C561.564 13.1231 561.751 13.2126 561.957 13.2855C562.162 13.3584 562.37 13.4197 562.578 13.4695L563.533 13.7081C563.917 13.7976 564.287 13.9186 564.642 14.071C565 14.2235 565.319 14.4157 565.601 14.6477C565.886 14.8797 566.112 15.1598 566.277 15.4879C566.443 15.8161 566.526 16.2005 566.526 16.6413C566.526 17.2379 566.373 17.7633 566.068 18.2173C565.763 18.6681 565.323 19.0211 564.746 19.2763C564.173 19.5282 563.478 19.6541 562.663 19.6541C561.871 19.6541 561.183 19.5315 560.6 19.2862C560.02 19.041 559.566 18.683 559.237 18.2124C558.913 17.7417 558.737 17.1683 558.71 16.4922H560.525C560.552 16.8468 560.661 17.1418 560.853 17.3771C561.045 17.6125 561.296 17.7881 561.604 17.9041C561.915 18.0201 562.263 18.0781 562.648 18.0781C563.049 18.0781 563.4 18.0185 563.702 17.8991C564.007 17.7765 564.246 17.6075 564.418 17.392C564.59 17.1733 564.678 16.9181 564.681 16.6264C564.678 16.3613 564.6 16.1425 564.448 15.9702C564.295 15.7945 564.081 15.6487 563.806 15.5327C563.535 15.4134 563.216 15.3073 562.852 15.2145L561.693 14.9162C560.855 14.7008 560.192 14.3743 559.705 13.9368C559.221 13.496 558.979 12.911 558.979 12.1818C558.979 11.5819 559.141 11.0566 559.466 10.6058C559.794 10.1551 560.24 9.8054 560.804 9.55682C561.367 9.30492 562.005 9.17898 562.718 9.17898C563.44 9.17898 564.073 9.30492 564.617 9.55682C565.164 9.8054 565.593 10.1518 565.904 10.5959C566.216 11.0367 566.377 11.5438 566.387 12.1172H564.612Z" fill="#F1EFEF"/>
<path d="M570.893 18.5L574.471 11.4219V11.3594H570.346V10.5H575.471V11.4062L571.909 18.5H570.893ZM579.122 17.0938V11.9375H579.997V17.0938H579.122ZM576.981 14.9531V14.0781H582.137V14.9531H576.981Z" fill="#C6C6C8"/>
<rect x="593.5" width="108" height="28" rx="6" fill="#3C46C9"/>
<rect x="599.5" y="5" width="18" height="18" rx="3.5" fill="#F1EFEF"/>
<path opacity="0.4" d="M605.062 17.4375C603.5 17.4375 602.25 16.5 602.25 14.3125C602.25 11.8125 604.125 10.5625 608.5 10.5625C612.875 10.5625 614.75 11.8125 614.75 14.3125C614.75 16.5 613.5 17.4375 611.938 17.4375C610.375 17.4375 609.438 15.875 608.5 15.875C607.562 15.875 606.625 17.4375 605.062 17.4375Z" fill="#3C46C9"/>
<path d="M605.062 17.4375C603.5 17.4375 602.25 16.5 602.25 14.3125C602.25 11.8125 604.125 10.5625 608.5 10.5625C612.875 10.5625 614.75 11.8125 614.75 14.3125C614.75 16.5 613.5 17.4375 611.938 17.4375C610.375 17.4375 609.438 15.875 608.5 15.875C607.562 15.875 606.625 17.4375 605.062 17.4375Z" stroke="#3C46C9" stroke-width="1.25" stroke-linecap="round"/>
<path d="M629.464 11.8636L626.745 19.5H624.756L622.037 11.8636H623.956L625.711 17.5362H625.79L627.55 11.8636H629.464ZM630.5 19.5V11.8636H632.299V19.5H630.5ZM631.404 10.7798C631.119 10.7798 630.874 10.6854 630.669 10.4964C630.463 10.3042 630.36 10.0739 630.36 9.8054C630.36 9.53362 630.463 9.30327 630.669 9.11435C630.874 8.92211 631.119 8.82599 631.404 8.82599C631.693 8.82599 631.938 8.92211 632.14 9.11435C632.346 9.30327 632.448 9.53362 632.448 9.8054C632.448 10.0739 632.346 10.3042 632.14 10.4964C631.938 10.6854 631.693 10.7798 631.404 10.7798ZM639.975 13.8821L638.335 14.0611C638.288 13.8954 638.207 13.7396 638.091 13.5938C637.979 13.4479 637.826 13.3303 637.634 13.2408C637.442 13.1513 637.206 13.1065 636.928 13.1065C636.553 13.1065 636.238 13.1877 635.983 13.3501C635.731 13.5125 635.607 13.723 635.61 13.9815C635.607 14.2036 635.688 14.3842 635.854 14.5234C636.023 14.6626 636.301 14.777 636.689 14.8665L637.992 15.1449C638.714 15.3007 639.251 15.5476 639.603 15.8857C639.957 16.2237 640.136 16.6662 640.139 17.2131C640.136 17.6937 639.995 18.1179 639.717 18.4858C639.442 18.8504 639.059 19.1354 638.568 19.3409C638.078 19.5464 637.514 19.6491 636.878 19.6491C635.943 19.6491 635.191 19.4536 634.621 19.0625C634.051 18.6681 633.711 18.1196 633.602 17.4169L635.357 17.2479C635.436 17.5926 635.605 17.8527 635.864 18.0284C636.122 18.2041 636.459 18.2919 636.873 18.2919C637.301 18.2919 637.644 18.2041 637.902 18.0284C638.164 17.8527 638.295 17.6357 638.295 17.3771C638.295 17.1584 638.211 16.9777 638.041 16.8352C637.876 16.6927 637.617 16.5833 637.266 16.5071L635.963 16.2337C635.231 16.0812 634.689 15.8243 634.338 15.4631C633.986 15.0985 633.812 14.6378 633.816 14.081C633.812 13.6103 633.94 13.2027 634.198 12.858C634.46 12.5099 634.823 12.2415 635.287 12.0526C635.755 11.8603 636.293 11.7642 636.903 11.7642C637.798 11.7642 638.502 11.9548 639.016 12.3359C639.533 12.7171 639.853 13.2325 639.975 13.8821ZM641.414 19.5V11.8636H643.213V19.5H641.414ZM642.318 10.7798C642.033 10.7798 641.788 10.6854 641.583 10.4964C641.377 10.3042 641.274 10.0739 641.274 9.8054C641.274 9.53362 641.377 9.30327 641.583 9.11435C641.788 8.92211 642.033 8.82599 642.318 8.82599C642.607 8.82599 642.852 8.92211 643.054 9.11435C643.26 9.30327 643.362 9.53362 643.362 9.8054C643.362 10.0739 643.26 10.3042 643.054 10.4964C642.852 10.6854 642.607 10.7798 642.318 10.7798ZM648.185 19.6491C647.439 19.6491 646.793 19.4851 646.246 19.157C645.699 18.8288 645.275 18.3698 644.973 17.7798C644.675 17.1899 644.526 16.5005 644.526 15.7116C644.526 14.9228 644.675 14.2318 644.973 13.6385C645.275 13.0452 645.699 12.5845 646.246 12.2564C646.793 11.9283 647.439 11.7642 648.185 11.7642C648.931 11.7642 649.577 11.9283 650.124 12.2564C650.671 12.5845 651.093 13.0452 651.392 13.6385C651.693 14.2318 651.844 14.9228 651.844 15.7116C651.844 16.5005 651.693 17.1899 651.392 17.7798C651.093 18.3698 650.671 18.8288 650.124 19.157C649.577 19.4851 648.931 19.6491 648.185 19.6491ZM648.195 18.2074C648.599 18.2074 648.937 18.0964 649.209 17.8743C649.481 17.6489 649.683 17.3473 649.816 16.9695C649.951 16.5916 650.019 16.1707 650.019 15.7067C650.019 15.2393 649.951 14.8168 649.816 14.4389C649.683 14.0578 649.481 13.7545 649.209 13.5291C648.937 13.3037 648.599 13.1911 648.195 13.1911C647.781 13.1911 647.436 13.3037 647.161 13.5291C646.889 13.7545 646.685 14.0578 646.549 14.4389C646.417 14.8168 646.35 15.2393 646.35 15.7067C646.35 16.1707 646.417 16.5916 646.549 16.9695C646.685 17.3473 646.889 17.6489 647.161 17.8743C647.436 18.0964 647.781 18.2074 648.195 18.2074ZM654.961 15.0256V19.5H653.161V11.8636H654.882V13.1612H654.971C655.147 12.7337 655.427 12.3939 655.811 12.142C656.199 11.8902 656.678 11.7642 657.248 11.7642C657.775 11.7642 658.234 11.8769 658.625 12.1023C659.02 12.3277 659.325 12.6541 659.54 13.0817C659.759 13.5092 659.866 14.0279 659.863 14.6378V19.5H658.063V14.9162C658.063 14.4058 657.931 14.0064 657.666 13.718C657.404 13.4297 657.041 13.2855 656.577 13.2855C656.262 13.2855 655.982 13.3551 655.737 13.4943C655.495 13.6302 655.304 13.8274 655.165 14.0859C655.029 14.3445 654.961 14.6577 654.961 15.0256ZM670.66 14.4091C670.66 15.5062 670.455 16.4458 670.044 17.228C669.636 18.0069 669.079 18.6035 668.373 19.0178C667.671 19.4321 666.874 19.6392 665.982 19.6392C665.09 19.6392 664.292 19.4321 663.586 19.0178C662.883 18.6001 662.326 18.0019 661.915 17.223C661.508 16.4408 661.304 15.5028 661.304 14.4091C661.304 13.312 661.508 12.3741 661.915 11.5952C662.326 10.813 662.883 10.2147 663.586 9.80043C664.292 9.38613 665.09 9.17898 665.982 9.17898C666.874 9.17898 667.671 9.38613 668.373 9.80043C669.079 10.2147 669.636 10.813 670.044 11.5952C670.455 12.3741 670.66 13.312 670.66 14.4091ZM668.806 14.4091C668.806 13.6368 668.685 12.9856 668.443 12.4553C668.204 11.9216 667.873 11.5189 667.449 11.2472C667.024 10.9721 666.536 10.8345 665.982 10.8345C665.429 10.8345 664.94 10.9721 664.515 11.2472C664.091 11.5189 663.758 11.9216 663.516 12.4553C663.277 12.9856 663.158 13.6368 663.158 14.4091C663.158 15.1813 663.277 15.8343 663.516 16.3679C663.758 16.8982 664.091 17.3009 664.515 17.576C664.94 17.8478 665.429 17.9837 665.982 17.9837C666.536 17.9837 667.024 17.8478 667.449 17.576C667.873 17.3009 668.204 16.8982 668.443 16.3679C668.685 15.8343 668.806 15.1813 668.806 14.4091ZM677.727 12.1172C677.681 11.683 677.485 11.3449 677.141 11.103C676.799 10.861 676.355 10.7401 675.808 10.7401C675.424 10.7401 675.094 10.7981 674.819 10.9141C674.544 11.0301 674.334 11.1875 674.188 11.3864C674.042 11.5852 673.967 11.8123 673.964 12.0675C673.964 12.2796 674.012 12.4635 674.108 12.6193C674.208 12.7751 674.342 12.9077 674.511 13.017C674.68 13.1231 674.867 13.2126 675.073 13.2855C675.278 13.3584 675.485 13.4197 675.694 13.4695L676.649 13.7081C677.033 13.7976 677.403 13.9186 677.757 14.071C678.115 14.2235 678.435 14.4157 678.717 14.6477C679.002 14.8797 679.227 15.1598 679.393 15.4879C679.559 15.8161 679.642 16.2005 679.642 16.6413C679.642 17.2379 679.489 17.7633 679.184 18.2173C678.879 18.6681 678.438 19.0211 677.862 19.2763C677.288 19.5282 676.594 19.6541 675.779 19.6541C674.986 19.6541 674.299 19.5315 673.715 19.2862C673.135 19.041 672.681 18.683 672.353 18.2124C672.028 17.7417 671.853 17.1683 671.826 16.4922H673.641C673.667 16.8468 673.777 17.1418 673.969 17.3771C674.161 17.6125 674.411 17.7881 674.72 17.9041C675.031 18.0201 675.379 18.0781 675.764 18.0781C676.165 18.0781 676.516 18.0185 676.818 17.8991C677.123 17.7765 677.361 17.6075 677.534 17.392C677.706 17.1733 677.794 16.9181 677.797 16.6264C677.794 16.3613 677.716 16.1425 677.563 15.9702C677.411 15.7945 677.197 15.6487 676.922 15.5327C676.65 15.4134 676.332 15.3073 675.968 15.2145L674.809 14.9162C673.971 14.7008 673.308 14.3743 672.82 13.9368C672.337 13.496 672.095 12.911 672.095 12.1818C672.095 11.5819 672.257 11.0566 672.582 10.6058C672.91 10.1551 673.356 9.8054 673.919 9.55682C674.483 9.30492 675.121 9.17898 675.833 9.17898C676.556 9.17898 677.189 9.30492 677.732 9.55682C678.279 9.8054 678.709 10.1518 679.02 10.5959C679.332 11.0367 679.492 11.5438 679.502 12.1172H677.727Z" fill="#F1EFEF"/>
<path d="M686.541 10.5V18.5H685.572V11.5156H685.525L683.572 12.8125V11.8281L685.572 10.5H686.541ZM691.036 17.0938V11.9375H691.911V17.0938H691.036ZM688.896 14.9531V14.0781H694.052V14.9531H688.896Z" fill="#C6C6C8"/>
<rect x="121" y="32" width="139" height="28" rx="6" fill="#006AB2"/>
<rect x="127" y="37" width="18" height="18" rx="3.5" fill="#F1EFEF"/>
<path d="M139.088 42.7165V39.7162C139.091 39.6109 139.179 39.5287 139.284 39.5303C140.307 39.5923 141.237 39.6824 142.032 39.7944L142.035 39.7951C142.109 39.8039 142.171 39.856 142.195 39.9268L142.195 39.9267L142.196 39.9299C142.198 39.9376 142.2 39.9453 142.201 39.9532L142.203 39.9597C142.206 39.9804 142.209 40.004 142.213 40.0313C142.311 40.696 142.413 41.7453 142.467 42.6972C142.467 42.6972 142.479 42.9095 142.266 42.9095H139.281C139.174 42.9095 139.088 42.8232 139.088 42.7165ZM139.088 39.7032L139.088 39.7162V39.7101L139.088 39.7032H139.088Z" fill="#006AB2"/>
<path d="M132.91 52.2805V49.0874V49.2805C132.91 49.1738 132.824 49.0874 132.717 49.0874H129.732C129.519 49.0874 129.531 49.3 129.531 49.3C129.585 50.2517 129.687 51.3012 129.785 51.966C129.789 51.9935 129.793 52.0175 129.796 52.0384L129.797 52.0442C129.798 52.0522 129.8 52.0599 129.802 52.0676L129.803 52.0708H129.803C129.827 52.1409 129.888 52.1923 129.961 52.2019C130.757 52.3145 131.69 52.4048 132.716 52.467C132.82 52.4678 132.907 52.3854 132.91 52.2805Z" fill="#006AB2"/>
<path d="M136.387 42.697C136.387 42.697 136.387 42.9098 136.599 42.9098H138.104C138.104 42.9098 138.317 42.9098 138.317 42.697V39.6941C138.317 39.6941 138.317 39.4811 138.105 39.4726C137.698 39.4557 137.052 39.4405 136.599 39.4375C136.599 39.4375 136.387 39.4362 136.387 39.6491V42.697Z" fill="#006AB2"/>
<path d="M135.998 52.3498V49.1518V49.2805C135.998 49.174 135.912 49.0874 135.805 49.0874H135.934H133.895C133.895 49.0874 133.682 49.0874 133.682 49.3003V52.3032C133.682 52.3032 133.682 52.5161 133.894 52.5248C134.42 52.5464 135.197 52.5626 135.786 52.5626C135.786 52.5626 135.998 52.5626 135.998 52.3498Z" fill="#006AB2"/>
<path d="M133.682 42.697C133.682 42.697 133.682 42.9098 133.895 42.9098H135.399C135.399 42.9098 135.612 42.9098 135.612 42.697V39.6489C135.612 39.6489 135.612 39.436 135.399 39.4375C134.947 39.4405 134.301 39.456 133.894 39.4727C133.894 39.4727 133.682 39.4814 133.682 39.6942V42.697Z" fill="#006AB2"/>
<path d="M129.694 48.3156H132.697C132.697 48.3156 132.91 48.3156 132.91 48.1027V46.5976C132.91 46.5976 132.91 46.3848 132.697 46.3848H129.649C129.649 46.3848 129.436 46.3848 129.438 46.5976C129.44 47.05 129.456 47.696 129.473 48.1027C129.473 48.1027 129.482 48.3156 129.694 48.3156Z" fill="#006AB2"/>
<path d="M129.438 45.3999C129.438 45.3999 129.436 45.6127 129.649 45.6127H132.697C132.697 45.6127 132.91 45.6127 132.91 45.3999V43.8949C132.91 43.8949 132.91 43.6821 132.697 43.6821H129.694C129.694 43.6821 129.481 43.6821 129.473 43.8947C129.456 44.3014 129.44 44.9477 129.438 45.3999Z" fill="#006AB2"/>
<path d="M132.91 42.7165V39.7162C132.907 39.6109 132.819 39.5287 132.714 39.5303C131.691 39.5923 130.761 39.6824 129.966 39.7944L129.963 39.7951C129.889 39.8039 129.827 39.856 129.803 39.9268L129.803 39.9267L129.802 39.9299C129.8 39.9376 129.798 39.9453 129.797 39.9532L129.795 39.9597C129.792 39.9804 129.789 40.004 129.785 40.0313C129.687 40.696 129.585 41.7453 129.531 42.6972C129.531 42.6972 129.519 42.9095 129.732 42.9095H132.717C132.824 42.9095 132.91 42.8232 132.91 42.7165ZM132.91 39.7032L132.91 39.7162V39.7101L132.91 39.7032H132.91Z" fill="#006AB2"/>
<path d="M139.088 48.3287C139.088 48.3287 139.088 48.5415 139.238 48.692C139.238 48.692 139.088 48.5415 142.097 51.5508C142.097 51.5508 142.247 51.7011 142.274 51.49C142.421 50.3435 142.533 48.6399 142.555 46.9837C142.555 46.9837 142.558 46.771 142.345 46.771H139.259C139.259 46.771 139.088 46.771 139.088 46.9424V48.3287Z" fill="#006AB2"/>
<path d="M142.563 45.809C142.56 45.0759 142.545 44.379 142.525 43.8947C142.525 43.8947 142.516 43.6821 142.304 43.6821H139.301C139.301 43.6821 139.088 43.6821 139.088 43.8949V45.7859C139.088 45.7859 139.088 45.9987 139.301 45.9987H142.37C142.475 45.9987 142.561 45.9141 142.563 45.809Z" fill="#006AB2"/>
<path d="M141.551 52.0968C139.478 50.0239 138.833 49.379 138.633 49.1784C138.569 49.1171 138.497 49.0835 138.435 49.0878V49.0876H136.984C136.984 49.0876 136.771 49.0876 136.771 49.3006V52.3449C136.771 52.3449 136.771 52.5577 136.984 52.555C138.641 52.5331 140.344 52.4206 141.491 52.2742C141.491 52.2742 141.702 52.2471 141.551 52.0968Z" fill="#006AB2"/>
<path d="M150.084 41.3182H152.341L155.364 48.696H155.483L158.506 41.3182H160.763V51.5H158.993V44.505H158.899L156.085 51.4702H154.762L151.948 44.4901H151.854V51.5H150.084V41.3182ZM164.68 51.6541C164.196 51.6541 163.76 51.5679 163.372 51.3956C162.988 51.2199 162.683 50.9614 162.457 50.62C162.235 50.2786 162.124 49.8577 162.124 49.3572C162.124 48.9264 162.204 48.5701 162.363 48.2884C162.522 48.0066 162.739 47.7812 163.014 47.6122C163.289 47.4432 163.599 47.3156 163.944 47.2294C164.292 47.1399 164.651 47.0753 165.023 47.0355C165.47 46.9891 165.833 46.9477 166.111 46.9112C166.39 46.8714 166.592 46.8118 166.718 46.7322C166.847 46.6494 166.912 46.5218 166.912 46.3494V46.3196C166.912 45.9451 166.801 45.6551 166.579 45.4496C166.357 45.2441 166.037 45.1413 165.619 45.1413C165.178 45.1413 164.829 45.2375 164.57 45.4297C164.315 45.6219 164.143 45.849 164.053 46.1108L162.373 45.8722C162.505 45.4081 162.724 45.0204 163.029 44.7088C163.334 44.3939 163.707 44.1586 164.148 44.0028C164.588 43.8438 165.076 43.7642 165.609 43.7642C165.977 43.7642 166.343 43.8073 166.708 43.8935C167.072 43.9796 167.406 44.1222 167.707 44.321C168.009 44.5166 168.251 44.7834 168.433 45.1214C168.619 45.4595 168.711 45.8821 168.711 46.3892V51.5H166.981V50.451H166.922C166.812 50.6631 166.658 50.862 166.459 51.0476C166.264 51.2299 166.017 51.3774 165.719 51.4901C165.424 51.5994 165.077 51.6541 164.68 51.6541ZM165.147 50.3317C165.508 50.3317 165.821 50.2604 166.086 50.1179C166.352 49.9721 166.555 49.7798 166.698 49.5412C166.844 49.3026 166.917 49.0424 166.917 48.7607V47.8608C166.86 47.9072 166.764 47.9503 166.628 47.9901C166.496 48.0298 166.347 48.0646 166.181 48.0945C166.015 48.1243 165.851 48.1508 165.689 48.174C165.526 48.1972 165.385 48.2171 165.266 48.2337C164.998 48.2701 164.757 48.3298 164.545 48.4126C164.333 48.4955 164.166 48.6115 164.043 48.7607C163.921 48.9065 163.859 49.0954 163.859 49.3274C163.859 49.6589 163.98 49.9091 164.222 50.0781C164.464 50.2472 164.772 50.3317 165.147 50.3317ZM173.145 51.6342C172.545 51.6342 172.008 51.4801 171.534 51.1719C171.06 50.8636 170.686 50.4162 170.411 49.8295C170.135 49.2429 169.998 48.5303 169.998 47.6918C169.998 46.8433 170.137 46.1274 170.416 45.544C170.697 44.9574 171.077 44.5149 171.554 44.2166C172.031 43.915 172.563 43.7642 173.15 43.7642C173.597 43.7642 173.965 43.8404 174.254 43.9929C174.542 44.142 174.771 44.3227 174.94 44.5348C175.109 44.7436 175.24 44.9408 175.332 45.1264H175.407V41.3182H177.212V51.5H175.442V50.2969H175.332C175.24 50.4825 175.105 50.6797 174.93 50.8885C174.754 51.094 174.522 51.2696 174.234 51.4155C173.945 51.5613 173.582 51.6342 173.145 51.6342ZM173.647 50.1577C174.028 50.1577 174.353 50.0549 174.621 49.8494C174.89 49.6406 175.094 49.3506 175.233 48.9794C175.372 48.6082 175.442 48.1757 175.442 47.6818C175.442 47.188 175.372 46.7588 175.233 46.3942C175.097 46.0296 174.895 45.7462 174.626 45.544C174.361 45.3419 174.035 45.2408 173.647 45.2408C173.246 45.2408 172.911 45.3452 172.643 45.554C172.374 45.7628 172.172 46.0511 172.036 46.419C171.9 46.7869 171.832 47.2079 171.832 47.6818C171.832 48.1591 171.9 48.585 172.036 48.9595C172.175 49.3307 172.379 49.6241 172.648 49.8395C172.92 50.0516 173.253 50.1577 173.647 50.1577ZM182.3 51.6491C181.535 51.6491 180.873 51.4901 180.317 51.1719C179.763 50.8504 179.337 50.3963 179.039 49.8097C178.741 49.2197 178.591 48.5253 178.591 47.7266C178.591 46.9411 178.741 46.2517 179.039 45.6584C179.34 45.0618 179.761 44.5978 180.302 44.2663C180.842 43.9316 181.477 43.7642 182.206 43.7642C182.676 43.7642 183.12 43.8404 183.538 43.9929C183.959 44.142 184.33 44.3741 184.652 44.6889C184.977 45.0038 185.232 45.4048 185.417 45.892C185.603 46.3759 185.696 46.9527 185.696 47.6222V48.174H179.437V46.9609H183.971C183.967 46.6162 183.893 46.3097 183.747 46.0412C183.601 45.7694 183.397 45.5556 183.135 45.3999C182.877 45.2441 182.575 45.1662 182.231 45.1662C181.863 45.1662 181.54 45.2557 181.261 45.4347C180.983 45.6103 180.766 45.8423 180.61 46.1307C180.457 46.4157 180.379 46.7289 180.376 47.0703V48.1293C180.376 48.5734 180.457 48.9545 180.62 49.2727C180.782 49.5876 181.009 49.8295 181.301 49.9986C181.593 50.1643 181.934 50.2472 182.325 50.2472C182.587 50.2472 182.824 50.2107 183.036 50.1378C183.248 50.0616 183.432 49.9505 183.588 49.8047C183.744 49.6589 183.861 49.4782 183.941 49.2628L185.621 49.4517C185.515 49.8958 185.313 50.2836 185.015 50.6151C184.72 50.9432 184.342 51.1984 183.881 51.3807C183.42 51.5597 182.893 51.6491 182.3 51.6491ZM190.271 51.5V43.8636H192.071V51.5H190.271ZM191.176 42.7798C190.891 42.7798 190.645 42.6854 190.44 42.4964C190.235 42.3042 190.132 42.0739 190.132 41.8054C190.132 41.5336 190.235 41.3033 190.44 41.1143C190.645 40.9221 190.891 40.826 191.176 40.826C191.464 40.826 191.709 40.9221 191.912 41.1143C192.117 41.3033 192.22 41.5336 192.22 41.8054C192.22 42.0739 192.117 42.3042 191.912 42.4964C191.709 42.6854 191.464 42.7798 191.176 42.7798ZM195.511 47.0256V51.5H193.711V43.8636H195.432V45.1612H195.521C195.697 44.7337 195.977 44.3939 196.361 44.142C196.749 43.8902 197.228 43.7642 197.798 43.7642C198.325 43.7642 198.784 43.8769 199.175 44.1023C199.57 44.3277 199.874 44.6541 200.09 45.0817C200.309 45.5092 200.416 46.0279 200.413 46.6378V51.5H198.613V46.9162C198.613 46.4058 198.481 46.0064 198.216 45.718C197.954 45.4297 197.591 45.2855 197.127 45.2855C196.812 45.2855 196.532 45.3551 196.287 45.4943C196.045 45.6302 195.854 45.8274 195.715 46.0859C195.579 46.3445 195.511 46.6577 195.511 47.0256ZM205.375 51.5V41.3182H207.219V45.9964H207.344L211.316 41.3182H213.568L209.63 45.8871L213.603 51.5H211.385L208.348 47.1349L207.219 48.4673V51.5H205.375ZM214.56 51.5V43.8636H216.305V45.1364H216.384C216.524 44.6955 216.762 44.3558 217.1 44.1172C217.442 43.8752 217.831 43.7543 218.269 43.7543C218.368 43.7543 218.479 43.7592 218.602 43.7692C218.728 43.7758 218.832 43.7874 218.915 43.804V45.4595C218.839 45.433 218.718 45.4098 218.552 45.3899C218.39 45.3667 218.232 45.3551 218.08 45.3551C217.752 45.3551 217.457 45.4264 217.195 45.5689C216.936 45.7081 216.732 45.902 216.583 46.1506C216.434 46.3991 216.36 46.6858 216.36 47.0107V51.5H214.56ZM221.961 51.6541C221.477 51.6541 221.042 51.5679 220.654 51.3956C220.269 51.2199 219.964 50.9614 219.739 50.62C219.517 50.2786 219.406 49.8577 219.406 49.3572C219.406 48.9264 219.486 48.5701 219.645 48.2884C219.804 48.0066 220.021 47.7812 220.296 47.6122C220.571 47.4432 220.881 47.3156 221.226 47.2294C221.574 47.1399 221.933 47.0753 222.304 47.0355C222.752 46.9891 223.115 46.9477 223.393 46.9112C223.672 46.8714 223.874 46.8118 224 46.7322C224.129 46.6494 224.194 46.5218 224.194 46.3494V46.3196C224.194 45.9451 224.083 45.6551 223.861 45.4496C223.638 45.2441 223.319 45.1413 222.901 45.1413C222.46 45.1413 222.111 45.2375 221.852 45.4297C221.597 45.6219 221.424 45.849 221.335 46.1108L219.655 45.8722C219.787 45.4081 220.006 45.0204 220.311 44.7088C220.616 44.3939 220.989 44.1586 221.429 44.0028C221.87 43.8438 222.357 43.7642 222.891 43.7642C223.259 43.7642 223.625 43.8073 223.99 43.8935C224.354 43.9796 224.687 44.1222 224.989 44.321C225.291 44.5166 225.533 44.7834 225.715 45.1214C225.901 45.4595 225.993 45.8821 225.993 46.3892V51.5H224.263V50.451H224.204C224.094 50.6631 223.94 50.862 223.741 51.0476C223.546 51.2299 223.299 51.3774 223 51.4901C222.705 51.5994 222.359 51.6541 221.961 51.6541ZM222.429 50.3317C222.79 50.3317 223.103 50.2604 223.368 50.1179C223.633 49.9721 223.837 49.7798 223.98 49.5412C224.126 49.3026 224.199 49.0424 224.199 48.7607V47.8608C224.142 47.9072 224.046 47.9503 223.91 47.9901C223.778 48.0298 223.629 48.0646 223.463 48.0945C223.297 48.1243 223.133 48.1508 222.971 48.174C222.808 48.1972 222.667 48.2171 222.548 48.2337C222.28 48.2701 222.039 48.3298 221.827 48.4126C221.615 48.4955 221.448 48.6115 221.325 48.7607C221.202 48.9065 221.141 49.0954 221.141 49.3274C221.141 49.6589 221.262 49.9091 221.504 50.0781C221.746 50.2472 222.054 50.3317 222.429 50.3317ZM229.234 49.1037L229.229 46.9311H229.517L232.261 43.8636H234.364L230.989 47.6222H230.616L229.234 49.1037ZM227.593 51.5V41.3182H229.393V51.5H227.593ZM232.386 51.5L229.9 48.0249L231.113 46.7571L234.538 51.5H232.386ZM238.37 51.6491C237.624 51.6491 236.978 51.4851 236.431 51.157C235.884 50.8288 235.46 50.3698 235.159 49.7798C234.86 49.1899 234.711 48.5005 234.711 47.7116C234.711 46.9228 234.86 46.2318 235.159 45.6385C235.46 45.0452 235.884 44.5845 236.431 44.2564C236.978 43.9283 237.624 43.7642 238.37 43.7642C239.116 43.7642 239.762 43.9283 240.309 44.2564C240.856 44.5845 241.279 45.0452 241.577 45.6385C241.879 46.2318 242.029 46.9228 242.029 47.7116C242.029 48.5005 241.879 49.1899 241.577 49.7798C241.279 50.3698 240.856 50.8288 240.309 51.157C239.762 51.4851 239.116 51.6491 238.37 51.6491ZM238.38 50.2074C238.785 50.2074 239.123 50.0964 239.394 49.8743C239.666 49.6489 239.868 49.3473 240.001 48.9695C240.137 48.5916 240.205 48.1707 240.205 47.7067C240.205 47.2393 240.137 46.8168 240.001 46.4389C239.868 46.0578 239.666 45.7545 239.394 45.5291C239.123 45.3037 238.785 45.1911 238.38 45.1911C237.966 45.1911 237.621 45.3037 237.346 45.5291C237.074 45.7545 236.87 46.0578 236.735 46.4389C236.602 46.8168 236.536 47.2393 236.536 47.7067C236.536 48.1707 236.602 48.5916 236.735 48.9695C236.87 49.3473 237.074 49.6489 237.346 49.8743C237.621 50.0964 237.966 50.2074 238.38 50.2074ZM237.679 42.8594L238.793 40.5874H240.553L239.026 42.8594H237.679ZM244.704 51.5L242.546 43.8636H244.381L245.723 49.233H245.793L247.165 43.8636H248.98L250.352 49.2031H250.426L251.749 43.8636H253.588L251.426 51.5H249.551L248.12 46.3395H248.015L246.583 51.5H244.704Z" fill="#F1EFEF"/>
<rect x="264" y="32" width="149" height="28" rx="6" fill="#3C46C9"/>
<rect x="270" y="37" width="18" height="18" rx="3.5" fill="#F1EFEF"/>
<path opacity="0.4" fill-rule="evenodd" clip-rule="evenodd" d="M284.889 43.5C284.937 44.2048 284.938 45.0711 284.938 46.152V46.473C284.938 49.1963 284.938 50.5579 284.155 51.404C283.372 52.25 282.113 52.25 279.594 52.25H278.406C275.887 52.25 274.628 52.25 273.845 51.404C273.062 50.5579 273.062 49.1963 273.062 46.473V46.152C273.062 45.0711 273.062 44.2048 273.111 43.5H284.889ZM279 46.3125C279.542 46.3125 280.02 46.5888 280.3 47.0082C280.466 47.2563 280.562 47.5543 280.562 47.875C280.562 48.1957 280.466 48.4938 280.3 48.7419C280.02 49.1613 279.542 49.4375 279 49.4375C278.458 49.4375 277.98 49.1613 277.7 48.7419C277.534 48.4938 277.438 48.1957 277.438 47.875C277.438 47.5543 277.534 47.2563 277.7 47.0082C277.98 46.5888 278.458 46.3125 279 46.3125Z" fill="#3C46C9"/>
<path d="M282.75 39.75V41M275.25 39.75V41" stroke="#3C46C9" stroke-width="1.25" stroke-linecap="round" stroke-linejoin="round"/>
<path d="M273.375 43.5H284.625" stroke="#3C46C9" stroke-width="1.25" stroke-linecap="round" stroke-linejoin="round"/>
<path d="M273.062 46.152C273.062 43.4287 273.062 42.0671 273.845 41.221C274.628 40.375 275.887 40.375 278.406 40.375H279.594C282.113 40.375 283.372 40.375 284.155 41.221C284.938 42.0671 284.938 43.4287 284.938 46.152V46.473C284.938 49.1963 284.938 50.5579 284.155 51.404C283.372 52.25 282.113 52.25 279.594 52.25H278.406C275.887 52.25 274.628 52.25 273.845 51.404C273.062 50.5579 273.062 49.1963 273.062 46.473V46.152Z" stroke="#3C46C9" stroke-width="1.25" stroke-linecap="round" stroke-linejoin="round"/>
<path d="M279 49.4375V50.0625M279 49.4375C278.458 49.4375 277.98 49.1613 277.7 48.7419M279 49.4375C279.542 49.4375 280.02 49.1613 280.3 48.7419M277.7 48.7419L277.125 49.125M277.7 48.7419C277.534 48.4938 277.438 48.1957 277.438 47.875C277.438 47.5543 277.534 47.2563 277.7 47.0082M280.3 48.7419L280.875 49.125M280.3 48.7419C280.466 48.4938 280.562 48.1957 280.562 47.875C280.562 47.5543 280.466 47.2563 280.3 47.0082M279 46.3125C279.542 46.3125 280.02 46.5888 280.3 47.0082M279 46.3125C278.458 46.3125 277.98 46.5888 277.7 47.0082M279 46.3125V45.6875M280.3 47.0082L280.875 46.625M277.7 47.0082L277.125 46.625" stroke="#3C46C9" stroke-width="1.25" stroke-linecap="round"/>
<path d="M293.055 49.6108V48.1442L297.375 41.3182H298.598V43.4062H297.853L294.944 48.0149V48.0945H300.975V49.6108H293.055ZM297.912 51.5V49.1634L297.932 48.5071V41.3182H299.672V51.5H297.912ZM303.195 51.6094C302.893 51.6094 302.634 51.5033 302.419 51.2912C302.204 51.0791 302.097 50.8205 302.101 50.5156C302.097 50.2173 302.204 49.9621 302.419 49.75C302.634 49.5379 302.893 49.4318 303.195 49.4318C303.486 49.4318 303.74 49.5379 303.955 49.75C304.174 49.9621 304.285 50.2173 304.288 50.5156C304.285 50.7178 304.232 50.9018 304.129 51.0675C304.03 51.2332 303.897 51.3658 303.731 51.4652C303.569 51.5613 303.39 51.6094 303.195 51.6094ZM309.284 51.6939C308.465 51.6939 307.762 51.4867 307.176 51.0724C306.592 50.6548 306.143 50.0533 305.828 49.2678C305.517 48.4789 305.361 47.5294 305.361 46.419C305.364 45.3087 305.522 44.3641 305.833 43.5852C306.148 42.803 306.597 42.2064 307.181 41.7955C307.767 41.3845 308.468 41.179 309.284 41.179C310.099 41.179 310.8 41.3845 311.387 41.7955C311.973 42.2064 312.422 42.803 312.734 43.5852C313.049 44.3674 313.206 45.312 313.206 46.419C313.206 47.5327 313.049 48.4839 312.734 49.2727C312.422 50.0582 311.973 50.6581 311.387 51.0724C310.803 51.4867 310.102 51.6939 309.284 51.6939ZM309.284 50.1378C309.92 50.1378 310.422 49.8246 310.79 49.1982C311.161 48.5684 311.347 47.642 311.347 46.419C311.347 45.6103 311.262 44.9309 311.093 44.3807C310.924 43.8305 310.686 43.4162 310.377 43.1378C310.069 42.8561 309.704 42.7152 309.284 42.7152C308.651 42.7152 308.15 43.0301 307.782 43.6598C307.414 44.2862 307.229 45.206 307.225 46.419C307.222 47.2311 307.303 47.9138 307.469 48.4673C307.638 49.0208 307.877 49.4384 308.185 49.7202C308.493 49.9986 308.859 50.1378 309.284 50.1378ZM315.38 51.6094C315.078 51.6094 314.82 51.5033 314.604 51.2912C314.389 51.0791 314.283 50.8205 314.286 50.5156C314.283 50.2173 314.389 49.9621 314.604 49.75C314.82 49.5379 315.078 49.4318 315.38 49.4318C315.672 49.4318 315.925 49.5379 316.141 49.75C316.359 49.9621 316.47 50.2173 316.474 50.5156C316.47 50.7178 316.417 50.9018 316.315 51.0675C316.215 51.2332 316.083 51.3658 315.917 51.4652C315.755 51.5613 315.576 51.6094 315.38 51.6094ZM320.986 41.3182V51.5H319.141V43.1129H319.081L316.7 44.6342V42.9439L319.231 41.3182H320.986Z" fill="#F1EFEF"/>
<path d="M328.469 50.5H326V42.5H328.578C329.354 42.5 330.018 42.6602 330.57 42.9805C331.122 43.2982 331.545 43.7552 331.84 44.3516C332.134 44.9453 332.281 45.6562 332.281 46.4844C332.281 47.3177 332.133 48.0352 331.836 48.6367C331.539 49.2357 331.107 49.6966 330.539 50.0195C329.971 50.3398 329.281 50.5 328.469 50.5ZM326.969 49.6406H328.406C329.067 49.6406 329.616 49.513 330.051 49.2578C330.485 49.0026 330.81 48.6393 331.023 48.168C331.237 47.6966 331.344 47.1354 331.344 46.4844C331.344 45.8385 331.238 45.2826 331.027 44.8164C330.816 44.3477 330.501 43.9883 330.082 43.7383C329.663 43.4857 329.14 43.3594 328.515 43.3594H326.969V49.6406ZM336.132 50.625C335.554 50.625 335.055 50.4974 334.636 50.2422C334.219 49.9844 333.897 49.625 333.671 49.1641C333.447 48.7005 333.335 48.1615 333.335 47.5469C333.335 46.9323 333.447 46.3906 333.671 45.9219C333.897 45.4505 334.212 45.0833 334.616 44.8203C335.022 44.5547 335.496 44.4219 336.038 44.4219C336.35 44.4219 336.659 44.474 336.964 44.5781C337.268 44.6823 337.546 44.8516 337.796 45.0859C338.046 45.3177 338.245 45.625 338.393 46.0078C338.542 46.3906 338.616 46.862 338.616 47.4219V47.8125H333.991V47.0156H337.679C337.679 46.6771 337.611 46.375 337.475 46.1094C337.343 45.8437 337.152 45.6341 336.905 45.4805C336.66 45.3268 336.371 45.25 336.038 45.25C335.671 45.25 335.353 45.3411 335.085 45.5234C334.819 45.7031 334.615 45.9375 334.471 46.2266C334.328 46.5156 334.257 46.8255 334.257 47.1562V47.6875C334.257 48.1406 334.335 48.5247 334.491 48.8398C334.65 49.1523 334.87 49.3906 335.151 49.5547C335.432 49.7161 335.759 49.7969 336.132 49.7969C336.374 49.7969 336.593 49.763 336.788 49.6953C336.986 49.625 337.156 49.5208 337.3 49.3828C337.443 49.2422 337.554 49.0677 337.632 48.8594L338.522 49.1094C338.429 49.4115 338.271 49.6771 338.05 49.9062C337.828 50.1328 337.555 50.3099 337.229 50.4375C336.904 50.5625 336.538 50.625 336.132 50.625ZM342.291 50.625C341.728 50.625 341.244 50.4922 340.838 50.2266C340.431 49.9609 340.119 49.5951 339.9 49.1289C339.681 48.6628 339.572 48.1302 339.572 47.5312C339.572 46.9219 339.684 46.3841 339.908 45.918C340.135 45.4492 340.45 45.0833 340.853 44.8203C341.26 44.5547 341.734 44.4219 342.275 44.4219C342.697 44.4219 343.077 44.5 343.416 44.6562C343.754 44.8125 344.032 45.0312 344.248 45.3125C344.464 45.5937 344.598 45.9219 344.65 46.2969H343.728C343.658 46.0234 343.502 45.7812 343.26 45.5703C343.02 45.3568 342.697 45.25 342.291 45.25C341.931 45.25 341.616 45.3437 341.346 45.5312C341.077 45.7161 340.868 45.9779 340.717 46.3164C340.568 46.6523 340.494 47.0469 340.494 47.5C340.494 47.9635 340.567 48.3672 340.713 48.7109C340.861 49.0547 341.07 49.3216 341.338 49.5117C341.609 49.7018 341.926 49.7969 342.291 49.7969C342.53 49.7969 342.748 49.7552 342.943 49.6719C343.139 49.5885 343.304 49.4688 343.439 49.3125C343.575 49.1562 343.671 48.9687 343.728 48.75H344.65C344.598 49.1042 344.469 49.4232 344.264 49.707C344.06 49.9883 343.791 50.2122 343.455 50.3789C343.122 50.543 342.734 50.625 342.291 50.625ZM348.349 50.625C347.77 50.625 347.272 50.4974 346.852 50.2422C346.436 49.9844 346.114 49.625 345.888 49.1641C345.664 48.7005 345.552 48.1615 345.552 47.5469C345.552 46.9323 345.664 46.3906 345.888 45.9219C346.114 45.4505 346.429 45.0833 346.833 44.8203C347.239 44.5547 347.713 44.4219 348.255 44.4219C348.567 44.4219 348.876 44.474 349.181 44.5781C349.485 44.6823 349.763 44.8516 350.013 45.0859C350.263 45.3177 350.462 45.625 350.61 46.0078C350.759 46.3906 350.833 46.862 350.833 47.4219V47.8125H346.208V47.0156H349.895C349.895 46.6771 349.828 46.375 349.692 46.1094C349.559 45.8437 349.369 45.6341 349.122 45.4805C348.877 45.3268 348.588 45.25 348.255 45.25C347.888 45.25 347.57 45.3411 347.302 45.5234C347.036 45.7031 346.832 45.9375 346.688 46.2266C346.545 46.5156 346.474 46.8255 346.474 47.1562V47.6875C346.474 48.1406 346.552 48.5247 346.708 48.8398C346.867 49.1523 347.087 49.3906 347.368 49.5547C347.649 49.7161 347.976 49.7969 348.349 49.7969C348.591 49.7969 348.809 49.763 349.005 49.6953C349.203 49.625 349.373 49.5208 349.516 49.3828C349.66 49.2422 349.77 49.0677 349.849 48.8594L350.739 49.1094C350.645 49.4115 350.488 49.6771 350.266 49.9062C350.045 50.1328 349.772 50.3099 349.446 50.4375C349.121 50.5625 348.755 50.625 348.349 50.625ZM352.07 50.5V44.5H352.961V45.4375H353.039C353.164 45.1172 353.366 44.8685 353.644 44.6914C353.923 44.5117 354.258 44.4219 354.648 44.4219C355.044 44.4219 355.374 44.5117 355.637 44.6914C355.902 44.8685 356.109 45.1172 356.258 45.4375H356.32C356.474 45.1276 356.704 44.8815 357.012 44.6992C357.319 44.5143 357.687 44.4219 358.117 44.4219C358.654 44.4219 359.092 44.5898 359.434 44.9258C359.775 45.2591 359.945 45.7786 359.945 46.4844V50.5H359.023V46.4844C359.023 46.0417 358.902 45.7253 358.66 45.5352C358.418 45.3451 358.133 45.25 357.805 45.25C357.383 45.25 357.056 45.3776 356.824 45.6328C356.592 45.8854 356.476 46.2057 356.476 46.5937V50.5H355.539V46.3906C355.539 46.0495 355.428 45.7747 355.207 45.5664C354.986 45.3555 354.7 45.25 354.351 45.25C354.112 45.25 353.888 45.3138 353.68 45.4414C353.474 45.569 353.307 45.7461 353.18 45.9727C353.055 46.1966 352.992 46.4557 352.992 46.75V50.5H352.07ZM361.591 50.5V42.5H362.513V45.4531H362.591C362.658 45.349 362.752 45.2161 362.872 45.0547C362.994 44.8906 363.169 44.7448 363.395 44.6172C363.625 44.487 363.935 44.4219 364.325 44.4219C364.83 44.4219 365.276 44.5482 365.661 44.8008C366.047 45.0534 366.347 45.4115 366.563 45.875C366.78 46.3385 366.888 46.8854 366.888 47.5156C366.888 48.151 366.78 48.7018 366.563 49.168C366.347 49.6315 366.048 49.9909 365.665 50.2461C365.282 50.4987 364.841 50.625 364.341 50.625C363.955 50.625 363.647 50.5612 363.415 50.4336C363.183 50.3034 363.005 50.1562 362.88 49.9922C362.755 49.8255 362.658 49.6875 362.591 49.5781H362.481V50.5H361.591ZM362.497 47.5C362.497 47.9531 362.563 48.3529 362.696 48.6992C362.829 49.043 363.023 49.3125 363.278 49.5078C363.533 49.7005 363.846 49.7969 364.216 49.7969C364.601 49.7969 364.923 49.6953 365.181 49.4922C365.441 49.2865 365.636 49.0104 365.767 48.6641C365.899 48.3151 365.966 47.9271 365.966 47.5C365.966 47.0781 365.901 46.6979 365.77 46.3594C365.643 46.0182 365.449 45.7487 365.188 45.5508C364.931 45.3503 364.606 45.25 364.216 45.25C363.841 45.25 363.526 45.3451 363.27 45.5352C363.015 45.7227 362.823 45.9857 362.692 46.3242C362.562 46.6602 362.497 47.0521 362.497 47.5ZM370.648 50.625C370.07 50.625 369.572 50.4974 369.152 50.2422C368.736 49.9844 368.414 49.625 368.188 49.1641C367.964 48.7005 367.852 48.1615 367.852 47.5469C367.852 46.9323 367.964 46.3906 368.188 45.9219C368.414 45.4505 368.729 45.0833 369.133 44.8203C369.539 44.5547 370.013 44.4219 370.555 44.4219C370.867 44.4219 371.176 44.474 371.48 44.5781C371.785 44.6823 372.063 44.8516 372.313 45.0859C372.563 45.3177 372.762 45.625 372.91 46.0078C373.059 46.3906 373.133 46.862 373.133 47.4219V47.8125H368.508V47.0156H372.195C372.195 46.6771 372.128 46.375 371.992 46.1094C371.859 45.8437 371.669 45.6341 371.422 45.4805C371.177 45.3268 370.888 45.25 370.555 45.25C370.188 45.25 369.87 45.3411 369.602 45.5234C369.336 45.7031 369.132 45.9375 368.988 46.2266C368.845 46.5156 368.773 46.8255 368.773 47.1562V47.6875C368.773 48.1406 368.852 48.5247 369.008 48.8398C369.167 49.1523 369.387 49.3906 369.668 49.5547C369.949 49.7161 370.276 49.7969 370.648 49.7969C370.891 49.7969 371.109 49.763 371.305 49.6953C371.503 49.625 371.673 49.5208 371.816 49.3828C371.96 49.2422 372.07 49.0677 372.148 48.8594L373.039 49.1094C372.945 49.4115 372.788 49.6771 372.566 49.9062C372.345 50.1328 372.072 50.3099 371.746 50.4375C371.421 50.5625 371.055 50.625 370.648 50.625ZM374.37 50.5V44.5H375.261V45.4062H375.323C375.433 45.1094 375.631 44.8685 375.917 44.6836C376.203 44.4987 376.526 44.4062 376.886 44.4062C376.953 44.4062 377.038 44.4076 377.14 44.4102C377.241 44.4128 377.318 44.4167 377.37 44.4219V45.3594C377.339 45.3516 377.267 45.3398 377.155 45.3242C377.046 45.306 376.93 45.2969 376.808 45.2969C376.516 45.2969 376.256 45.3581 376.026 45.4805C375.8 45.6003 375.62 45.7669 375.487 45.9805C375.357 46.1914 375.292 46.4323 375.292 46.7031V50.5H374.37ZM381.211 50.5V49.7969L383.852 46.9062C384.162 46.5677 384.417 46.2734 384.617 46.0234C384.818 45.7708 384.966 45.5339 385.063 45.3125C385.162 45.0885 385.211 44.8542 385.211 44.6094C385.211 44.3281 385.143 44.0846 385.008 43.8789C384.875 43.6732 384.693 43.5143 384.461 43.4023C384.229 43.2904 383.969 43.2344 383.68 43.2344C383.373 43.2344 383.104 43.2982 382.875 43.4258C382.649 43.5508 382.473 43.7266 382.348 43.9531C382.225 44.1797 382.164 44.4453 382.164 44.75H381.242C381.242 44.2812 381.35 43.8698 381.567 43.5156C381.783 43.1615 382.077 42.8854 382.449 42.6875C382.824 42.4896 383.245 42.3906 383.711 42.3906C384.18 42.3906 384.595 42.4896 384.957 42.6875C385.319 42.8854 385.603 43.1523 385.809 43.4883C386.014 43.8242 386.117 44.1979 386.117 44.6094C386.117 44.9036 386.064 45.1914 385.957 45.4727C385.853 45.7513 385.671 46.0625 385.41 46.4062C385.152 46.7474 384.794 47.1641 384.336 47.6562L382.539 49.5781V49.6406H386.258V50.5H381.211ZM390.316 50.6094C389.727 50.6094 389.226 50.4492 388.812 50.1289C388.398 49.806 388.081 49.3385 387.862 48.7266C387.644 48.112 387.534 47.3698 387.534 46.5C387.534 45.6354 387.644 44.8971 387.862 44.2852C388.084 43.6706 388.402 43.2018 388.816 42.8789C389.232 42.5534 389.732 42.3906 390.316 42.3906C390.899 42.3906 391.398 42.5534 391.812 42.8789C392.228 43.2018 392.546 43.6706 392.765 44.2852C392.986 44.8971 393.097 45.6354 393.097 46.5C393.097 47.3698 392.987 48.112 392.769 48.7266C392.55 49.3385 392.234 49.806 391.819 50.1289C391.405 50.4492 390.904 50.6094 390.316 50.6094ZM390.316 49.75C390.899 49.75 391.352 49.4687 391.675 48.9062C391.998 48.3437 392.159 47.5417 392.159 46.5C392.159 45.8073 392.085 45.2174 391.937 44.7305C391.791 44.2435 391.58 43.8724 391.304 43.6172C391.03 43.362 390.701 43.2344 390.316 43.2344C389.737 43.2344 389.286 43.5195 388.96 44.0898C388.635 44.6576 388.472 45.4609 388.472 46.5C388.472 47.1927 388.545 47.7812 388.691 48.2656C388.836 48.75 389.046 49.1185 389.319 49.3711C389.596 49.6237 389.928 49.75 390.316 49.75ZM394.416 50.5V49.7969L397.057 46.9062C397.367 46.5677 397.622 46.2734 397.822 46.0234C398.023 45.7708 398.171 45.5339 398.268 45.3125C398.367 45.0885 398.416 44.8542 398.416 44.6094C398.416 44.3281 398.349 44.0846 398.213 43.8789C398.08 43.6732 397.898 43.5143 397.666 43.4023C397.434 43.2904 397.174 43.2344 396.885 43.2344C396.578 43.2344 396.309 43.2982 396.08 43.4258C395.854 43.5508 395.678 43.7266 395.553 43.9531C395.431 44.1797 395.369 44.4453 395.369 44.75H394.447C394.447 44.2812 394.556 43.8698 394.772 43.5156C394.988 43.1615 395.282 42.8854 395.654 42.6875C396.029 42.4896 396.45 42.3906 396.916 42.3906C397.385 42.3906 397.8 42.4896 398.162 42.6875C398.524 42.8854 398.808 43.1523 399.014 43.4883C399.22 43.8242 399.322 44.1979 399.322 44.6094C399.322 44.9036 399.269 45.1914 399.162 45.4727C399.058 45.7513 398.876 46.0625 398.615 46.4062C398.358 46.7474 398 47.1641 397.541 47.6562L395.744 49.5781V49.6406H399.463V50.5H394.416ZM400.552 48.8594V48.0625L404.068 42.5H404.646V43.7344H404.255L401.599 47.9375V48H406.333V48.8594H400.552ZM404.318 50.5V48.6172V48.2461V42.5H405.239V50.5H404.318Z" fill="#C6C6C8"/>
<rect x="417" y="32" width="164" height="28" rx="6" fill="#3C46C9"/>
<rect x="423" y="37" width="18" height="18" rx="3.5" fill="#F1EFEF"/>
<path d="M432 52.25H431.062C428.705 52.25 427.527 52.25 426.795 51.5177C426.062 50.7855 426.062 49.607 426.063 47.2499L426.063 44.75C426.063 42.393 426.063 41.2145 426.795 40.4822C427.527 39.75 428.706 39.75 431.062 39.75H431.687C434.044 39.75 435.223 39.75 435.955 40.4822C436.687 41.2145 436.687 42.393 436.687 44.75V45.375" stroke="#3C46C9" stroke-width="1.25" stroke-linecap="round" stroke-linejoin="round"/>
<path d="M428.875 42.875H433.875M428.875 46H431.688" stroke="#3C46C9" stroke-width="1.25" stroke-linecap="round" stroke-linejoin="round"/>
<path d="M435.438 51.4829C436.542 51.4829 437.438 50.5672 437.438 49.4375C437.438 48.3078 436.542 47.3921 435.438 47.3921M435.438 51.4829C434.333 51.4829 433.438 50.5672 433.438 49.4375C433.438 48.3078 434.333 47.3921 435.438 47.3921M435.438 51.4829V52.25M435.438 47.3921V46.625M433.62 48.3218L432.938 47.9034M437.938 50.9716L437.256 50.5532M437.255 48.3218L437.937 47.9034M432.938 50.9716L433.619 50.5532" stroke="#3C46C9" stroke-width="1.25" stroke-linecap="round"/>
<path opacity="0.4" d="M436.687 44.75V47.25C436.687 47.4552 436.687 47.6516 436.687 47.8394C436.345 47.5592 435.91 47.3916 435.438 47.3916C434.333 47.3916 433.438 48.3074 433.438 49.4371C433.438 50.5667 434.333 51.4825 435.438 51.4825C435.665 51.4825 435.883 51.4439 436.086 51.3727C436.045 51.423 436.002 51.4713 435.955 51.5177C435.223 52.25 434.044 52.25 431.687 52.25H431.062C428.705 52.25 427.527 52.25 426.795 51.5177C426.062 50.7855 426.062 49.607 426.063 47.2499L426.063 44.75C426.063 42.393 426.063 41.2145 426.795 40.4822C427.527 39.75 428.706 39.75 431.062 39.75H431.687C434.044 39.75 435.223 39.75 435.955 40.4822C436.687 41.2145 436.687 42.393 436.687 44.75Z" fill="#3C46C9"/>
<path d="M447.597 51.5H445.628L449.213 41.3182H451.49L455.079 51.5H453.11L450.391 43.4062H450.311L447.597 51.5ZM447.661 47.5078H453.031V48.9893H447.661V47.5078ZM456.131 54.3636V43.8636H457.9V45.1264H458.005C458.098 44.9408 458.229 44.7436 458.398 44.5348C458.567 44.3227 458.795 44.142 459.084 43.9929C459.372 43.8404 459.74 43.7642 460.187 43.7642C460.777 43.7642 461.309 43.915 461.783 44.2166C462.261 44.5149 462.638 44.9574 462.917 45.544C463.199 46.1274 463.339 46.8433 463.339 47.6918C463.339 48.5303 463.202 49.2429 462.927 49.8295C462.652 50.4162 462.277 50.8636 461.803 51.1719C461.329 51.4801 460.792 51.6342 460.192 51.6342C459.755 51.6342 459.392 51.5613 459.104 51.4155C458.815 51.2696 458.583 51.094 458.408 50.8885C458.235 50.6797 458.101 50.4825 458.005 50.2969H457.93V54.3636H456.131ZM457.895 47.6818C457.895 48.1757 457.965 48.6082 458.104 48.9794C458.247 49.3506 458.451 49.6406 458.716 49.8494C458.984 50.0549 459.309 50.1577 459.69 50.1577C460.088 50.1577 460.421 50.0516 460.69 49.8395C460.958 49.6241 461.16 49.3307 461.296 48.9595C461.435 48.585 461.505 48.1591 461.505 47.6818C461.505 47.2079 461.437 46.7869 461.301 46.419C461.165 46.0511 460.963 45.7628 460.694 45.554C460.426 45.3452 460.091 45.2408 459.69 45.2408C459.306 45.2408 458.979 45.3419 458.711 45.544C458.442 45.7462 458.239 46.0296 458.099 46.3942C457.963 46.7588 457.895 47.188 457.895 47.6818ZM466.868 51.6541C466.384 51.6541 465.948 51.5679 465.56 51.3956C465.176 51.2199 464.871 50.9614 464.646 50.62C464.424 50.2786 464.313 49.8577 464.313 49.3572C464.313 48.9264 464.392 48.5701 464.551 48.2884C464.71 48.0066 464.927 47.7812 465.203 47.6122C465.478 47.4432 465.788 47.3156 466.132 47.2294C466.48 47.1399 466.84 47.0753 467.211 47.0355C467.659 46.9891 468.021 46.9477 468.3 46.9112C468.578 46.8714 468.78 46.8118 468.906 46.7322C469.036 46.6494 469.1 46.5218 469.1 46.3494V46.3196C469.1 45.9451 468.989 45.6551 468.767 45.4496C468.545 45.2441 468.225 45.1413 467.808 45.1413C467.367 45.1413 467.017 45.2375 466.759 45.4297C466.503 45.6219 466.331 45.849 466.242 46.1108L464.561 45.8722C464.694 45.4081 464.913 45.0204 465.217 44.7088C465.522 44.3939 465.895 44.1586 466.336 44.0028C466.777 43.8438 467.264 43.7642 467.798 43.7642C468.166 43.7642 468.532 43.8073 468.896 43.8935C469.261 43.9796 469.594 44.1222 469.896 44.321C470.197 44.5166 470.439 44.7834 470.622 45.1214C470.807 45.4595 470.9 45.8821 470.9 46.3892V51.5H469.17V50.451H469.11C469.001 50.6631 468.847 50.862 468.648 51.0476C468.452 51.2299 468.205 51.3774 467.907 51.4901C467.612 51.5994 467.266 51.6541 466.868 51.6541ZM467.335 50.3317C467.697 50.3317 468.01 50.2604 468.275 50.1179C468.54 49.9721 468.744 49.7798 468.886 49.5412C469.032 49.3026 469.105 49.0424 469.105 48.7607V47.8608C469.049 47.9072 468.953 47.9503 468.817 47.9901C468.684 48.0298 468.535 48.0646 468.369 48.0945C468.204 48.1243 468.04 48.1508 467.877 48.174C467.715 48.1972 467.574 48.2171 467.455 48.2337C467.186 48.2701 466.946 48.3298 466.734 48.4126C466.522 48.4955 466.354 48.6115 466.232 48.7607C466.109 48.9065 466.048 49.0954 466.048 49.3274C466.048 49.6589 466.169 49.9091 466.411 50.0781C466.653 50.2472 466.961 50.3317 467.335 50.3317ZM475.831 51.6491C475.068 51.6491 474.414 51.4818 473.867 51.147C473.323 50.8123 472.904 50.3499 472.609 49.7599C472.317 49.1667 472.172 48.4839 472.172 47.7116C472.172 46.9361 472.321 46.2517 472.619 45.6584C472.917 45.0618 473.338 44.5978 473.882 44.2663C474.429 43.9316 475.075 43.7642 475.821 43.7642C476.44 43.7642 476.989 43.8786 477.466 44.1072C477.947 44.3326 478.33 44.6525 478.615 45.0668C478.9 45.4777 479.062 45.9583 479.102 46.5085H477.382C477.312 46.1406 477.146 45.834 476.885 45.5888C476.626 45.3402 476.28 45.2159 475.846 45.2159C475.478 45.2159 475.154 45.3153 474.876 45.5142C474.598 45.7098 474.381 45.9915 474.225 46.3594C474.072 46.7273 473.996 47.1681 473.996 47.6818C473.996 48.2022 474.072 48.6496 474.225 49.0241C474.377 49.3954 474.591 49.6821 474.866 49.8842C475.145 50.0831 475.471 50.1825 475.846 50.1825C476.111 50.1825 476.348 50.1328 476.556 50.0334C476.769 49.9306 476.946 49.7831 477.088 49.5909C477.231 49.3987 477.329 49.165 477.382 48.8899H479.102C479.059 49.4302 478.9 49.9091 478.625 50.3267C478.35 50.741 477.975 51.0658 477.501 51.3011C477.027 51.5331 476.47 51.6491 475.831 51.6491ZM482.169 47.0256V51.5H480.37V41.3182H482.13V45.1612H482.219C482.398 44.7304 482.675 44.3906 483.049 44.142C483.427 43.8902 483.908 43.7642 484.491 43.7642C485.021 43.7642 485.484 43.8752 485.878 44.0973C486.273 44.3194 486.578 44.6442 486.793 45.0717C487.012 45.4993 487.121 46.0213 487.121 46.6378V51.5H485.321V46.9162C485.321 46.4025 485.189 46.0031 484.924 45.718C484.662 45.4297 484.294 45.2855 483.82 45.2855C483.502 45.2855 483.217 45.3551 482.965 45.4943C482.716 45.6302 482.521 45.8274 482.378 46.0859C482.239 46.3445 482.169 46.6577 482.169 47.0256ZM492.126 51.6491C491.361 51.6491 490.699 51.4901 490.143 51.1719C489.589 50.8504 489.163 50.3963 488.865 49.8097C488.567 49.2197 488.418 48.5253 488.418 47.7266C488.418 46.9411 488.567 46.2517 488.865 45.6584C489.167 45.0618 489.588 44.5978 490.128 44.2663C490.668 43.9316 491.303 43.7642 492.032 43.7642C492.503 43.7642 492.947 43.8404 493.364 43.9929C493.785 44.142 494.156 44.3741 494.478 44.6889C494.803 45.0038 495.058 45.4048 495.244 45.892C495.429 46.3759 495.522 46.9527 495.522 47.6222V48.174H489.263V46.9609H493.797C493.793 46.6162 493.719 46.3097 493.573 46.0412C493.427 45.7694 493.223 45.5556 492.962 45.3999C492.703 45.2441 492.401 45.1662 492.057 45.1662C491.689 45.1662 491.366 45.2557 491.087 45.4347C490.809 45.6103 490.592 45.8423 490.436 46.1307C490.284 46.4157 490.206 46.7289 490.202 47.0703V48.1293C490.202 48.5734 490.284 48.9545 490.446 49.2727C490.608 49.5876 490.835 49.8295 491.127 49.9986C491.419 50.1643 491.76 50.2472 492.151 50.2472C492.413 50.2472 492.65 50.2107 492.862 50.1378C493.074 50.0616 493.258 49.9505 493.414 49.8047C493.57 49.6589 493.687 49.4782 493.767 49.2628L495.447 49.4517C495.341 49.8958 495.139 50.2836 494.841 50.6151C494.546 50.9432 494.168 51.1984 493.707 51.3807C493.247 51.5597 492.72 51.6491 492.126 51.6491ZM500.077 51.5V50.1676L503.612 46.7024C503.95 46.361 504.232 46.0578 504.457 45.7926C504.683 45.5275 504.852 45.2706 504.964 45.022C505.077 44.7734 505.133 44.5083 505.133 44.2266C505.133 43.9051 505.06 43.63 504.915 43.4013C504.769 43.1693 504.568 42.9903 504.313 42.8643C504.058 42.7384 503.768 42.6754 503.443 42.6754C503.108 42.6754 502.815 42.745 502.563 42.8842C502.311 43.0201 502.116 43.214 501.976 43.4659C501.841 43.7178 501.773 44.0178 501.773 44.3658H500.018C500.018 43.7195 500.165 43.1577 500.46 42.6804C500.755 42.2031 501.161 41.8336 501.678 41.5717C502.198 41.3099 502.795 41.179 503.468 41.179C504.151 41.179 504.751 41.3066 505.268 41.5618C505.785 41.817 506.186 42.1667 506.471 42.6108C506.759 43.0549 506.903 43.562 506.903 44.1321C506.903 44.5133 506.83 44.8878 506.684 45.2557C506.539 45.6236 506.282 46.0312 505.914 46.4787C505.549 46.9261 505.037 47.468 504.378 48.1044L502.623 49.8892V49.9588H507.057V51.5H500.077ZM509.691 51.6094C509.39 51.6094 509.131 51.5033 508.916 51.2912C508.7 51.0791 508.594 50.8205 508.597 50.5156C508.594 50.2173 508.7 49.9621 508.916 49.75C509.131 49.5379 509.39 49.4318 509.691 49.4318C509.983 49.4318 510.236 49.5379 510.452 49.75C510.671 49.9621 510.782 50.2173 510.785 50.5156C510.782 50.7178 510.729 50.9018 510.626 51.0675C510.526 51.2332 510.394 51.3658 510.228 51.4652C510.066 51.5613 509.887 51.6094 509.691 51.6094ZM515.78 51.6939C514.961 51.6939 514.259 51.4867 513.672 51.0724C513.089 50.6548 512.64 50.0533 512.325 49.2678C512.013 48.4789 511.858 47.5294 511.858 46.419C511.861 45.3087 512.018 44.3641 512.33 43.5852C512.645 42.803 513.094 42.2064 513.677 41.7955C514.264 41.3845 514.965 41.179 515.78 41.179C516.595 41.179 517.296 41.3845 517.883 41.7955C518.47 42.2064 518.919 42.803 519.23 43.5852C519.545 44.3674 519.703 45.312 519.703 46.419C519.703 47.5327 519.545 48.4839 519.23 49.2727C518.919 50.0582 518.47 50.6581 517.883 51.0724C517.3 51.4867 516.599 51.6939 515.78 51.6939ZM515.78 50.1378C516.416 50.1378 516.919 49.8246 517.287 49.1982C517.658 48.5684 517.843 47.642 517.843 46.419C517.843 45.6103 517.759 44.9309 517.59 44.3807C517.421 43.8305 517.182 43.4162 516.874 43.1378C516.566 42.8561 516.201 42.7152 515.78 42.7152C515.147 42.7152 514.647 43.0301 514.279 43.6598C513.911 44.2862 513.725 45.206 513.722 46.419C513.719 47.2311 513.8 47.9138 513.965 48.4673C514.135 49.0208 514.373 49.4384 514.681 49.7202C514.99 49.9986 515.356 50.1378 515.78 50.1378ZM524.507 51.5V41.3182H526.351V49.9538H530.835V51.5H524.507ZM532.147 51.5V43.8636H533.946V51.5H532.147ZM533.052 42.7798C532.767 42.7798 532.521 42.6854 532.316 42.4964C532.11 42.3042 532.008 42.0739 532.008 41.8054C532.008 41.5336 532.11 41.3033 532.316 41.1143C532.521 40.9221 532.767 40.826 533.052 40.826C533.34 40.826 533.585 40.9221 533.787 41.1143C533.993 41.3033 534.096 41.5336 534.096 41.8054C534.096 42.0739 533.993 42.3042 533.787 42.4964C533.585 42.6854 533.34 42.7798 533.052 42.7798ZM538.918 51.6491C538.156 51.6491 537.501 51.4818 536.954 51.147C536.411 50.8123 535.991 50.3499 535.697 49.7599C535.405 49.1667 535.259 48.4839 535.259 47.7116C535.259 46.9361 535.408 46.2517 535.706 45.6584C536.005 45.0618 536.426 44.5978 536.969 44.2663C537.516 43.9316 538.162 43.7642 538.908 43.7642C539.528 43.7642 540.076 43.8786 540.554 44.1072C541.034 44.3326 541.417 44.6525 541.702 45.0668C541.987 45.4777 542.15 45.9583 542.189 46.5085H540.469C540.4 46.1406 540.234 45.834 539.972 45.5888C539.714 45.3402 539.367 45.2159 538.933 45.2159C538.565 45.2159 538.242 45.3153 537.964 45.5142C537.685 45.7098 537.468 45.9915 537.312 46.3594C537.16 46.7273 537.084 47.1681 537.084 47.6818C537.084 48.2022 537.16 48.6496 537.312 49.0241C537.465 49.3954 537.679 49.6821 537.954 49.8842C538.232 50.0831 538.558 50.1825 538.933 50.1825C539.198 50.1825 539.435 50.1328 539.644 50.0334C539.856 49.9306 540.033 49.7831 540.176 49.5909C540.318 49.3987 540.416 49.165 540.469 48.8899H542.189C542.146 49.4302 541.987 49.9091 541.712 50.3267C541.437 50.741 541.063 51.0658 540.589 51.3011C540.115 51.5331 539.558 51.6491 538.918 51.6491ZM546.838 51.6491C546.072 51.6491 545.411 51.4901 544.854 51.1719C544.301 50.8504 543.875 50.3963 543.577 49.8097C543.278 49.2197 543.129 48.5253 543.129 47.7266C543.129 46.9411 543.278 46.2517 543.577 45.6584C543.878 45.0618 544.299 44.5978 544.839 44.2663C545.38 43.9316 546.014 43.7642 546.743 43.7642C547.214 43.7642 547.658 43.8404 548.076 43.9929C548.497 44.142 548.868 44.3741 549.189 44.6889C549.514 45.0038 549.769 45.4048 549.955 45.892C550.141 46.3759 550.233 46.9527 550.233 47.6222V48.174H543.974V46.9609H548.508C548.505 46.6162 548.43 46.3097 548.285 46.0412C548.139 45.7694 547.935 45.5556 547.673 45.3999C547.415 45.2441 547.113 45.1662 546.768 45.1662C546.4 45.1662 546.077 45.2557 545.799 45.4347C545.52 45.6103 545.303 45.8423 545.148 46.1307C544.995 46.4157 544.917 46.7289 544.914 47.0703V48.1293C544.914 48.5734 544.995 48.9545 545.158 49.2727C545.32 49.5876 545.547 49.8295 545.839 49.9986C546.13 50.1643 546.472 50.2472 546.863 50.2472C547.125 50.2472 547.362 50.2107 547.574 50.1378C547.786 50.0616 547.97 49.9505 548.126 49.8047C548.281 49.6589 548.399 49.4782 548.479 49.2628L550.159 49.4517C550.053 49.8958 549.851 50.2836 549.552 50.6151C549.257 50.9432 548.88 51.1984 548.419 51.3807C547.958 51.5597 547.431 51.6491 546.838 51.6491ZM553.346 47.0256V51.5H551.546V43.8636H553.266V45.1612H553.356C553.531 44.7337 553.811 44.3939 554.196 44.142C554.584 43.8902 555.063 43.7642 555.633 43.7642C556.16 43.7642 556.619 43.8769 557.01 44.1023C557.404 44.3277 557.709 44.6541 557.925 45.0817C558.143 45.5092 558.251 46.0279 558.248 46.6378V51.5H556.448V46.9162C556.448 46.4058 556.315 46.0064 556.05 45.718C555.788 45.4297 555.426 45.2855 554.962 45.2855C554.647 45.2855 554.367 45.3551 554.121 45.4943C553.879 45.6302 553.689 45.8274 553.55 46.0859C553.414 46.3445 553.346 46.6577 553.346 47.0256ZM565.903 45.8821L564.262 46.0611C564.216 45.8954 564.135 45.7396 564.019 45.5938C563.906 45.4479 563.753 45.3303 563.561 45.2408C563.369 45.1513 563.134 45.1065 562.855 45.1065C562.481 45.1065 562.166 45.1877 561.911 45.3501C561.659 45.5125 561.534 45.723 561.538 45.9815C561.534 46.2036 561.616 46.3842 561.781 46.5234C561.95 46.6626 562.229 46.777 562.617 46.8665L563.919 47.1449C564.642 47.3007 565.179 47.5476 565.53 47.8857C565.885 48.2237 566.064 48.6662 566.067 49.2131C566.064 49.6937 565.923 50.1179 565.644 50.4858C565.369 50.8504 564.986 51.1354 564.496 51.3409C564.005 51.5464 563.442 51.6491 562.806 51.6491C561.871 51.6491 561.118 51.4536 560.548 51.0625C559.978 50.6681 559.639 50.1196 559.529 49.4169L561.284 49.2479C561.364 49.5926 561.533 49.8527 561.791 50.0284C562.05 50.2041 562.386 50.2919 562.801 50.2919C563.228 50.2919 563.571 50.2041 563.83 50.0284C564.091 49.8527 564.222 49.6357 564.222 49.3771C564.222 49.1584 564.138 48.9777 563.969 48.8352C563.803 48.6927 563.545 48.5833 563.193 48.5071L561.891 48.2337C561.158 48.0812 560.616 47.8243 560.265 47.4631C559.914 47.0985 559.74 46.6378 559.743 46.081C559.74 45.6103 559.867 45.2027 560.126 44.858C560.388 44.5099 560.751 44.2415 561.215 44.0526C561.682 43.8603 562.221 43.7642 562.83 43.7642C563.725 43.7642 564.43 43.9548 564.943 44.3359C565.46 44.7171 565.78 45.2325 565.903 45.8821ZM570.722 51.6491C569.956 51.6491 569.295 51.4901 568.738 51.1719C568.184 50.8504 567.759 50.3963 567.46 49.8097C567.162 49.2197 567.013 48.5253 567.013 47.7266C567.013 46.9411 567.162 46.2517 567.46 45.6584C567.762 45.0618 568.183 44.5978 568.723 44.2663C569.263 43.9316 569.898 43.7642 570.627 43.7642C571.098 43.7642 571.542 43.8404 571.959 43.9929C572.38 44.142 572.752 44.3741 573.073 44.6889C573.398 45.0038 573.653 45.4048 573.839 45.892C574.024 46.3759 574.117 46.9527 574.117 47.6222V48.174H567.858V46.9609H572.392C572.389 46.6162 572.314 46.3097 572.168 46.0412C572.022 45.7694 571.819 45.5556 571.557 45.3999C571.298 45.2441 570.997 45.1662 570.652 45.1662C570.284 45.1662 569.961 45.2557 569.683 45.4347C569.404 45.6103 569.187 45.8423 569.031 46.1307C568.879 46.4157 568.801 46.7289 568.798 47.0703V48.1293C568.798 48.5734 568.879 48.9545 569.041 49.2727C569.204 49.5876 569.431 49.8295 569.722 49.9986C570.014 50.1643 570.355 50.2472 570.746 50.2472C571.008 50.2472 571.245 50.2107 571.457 50.1378C571.669 50.0616 571.853 49.9505 572.009 49.8047C572.165 49.6589 572.283 49.4782 572.362 49.2628L574.043 49.4517C573.937 49.8958 573.734 50.2836 573.436 50.6151C573.141 50.9432 572.763 51.1984 572.303 51.3807C571.842 51.5597 571.315 51.6491 570.722 51.6491Z" fill="#F1EFEF"/>
</svg>
