<svg width="676" height="60" viewBox="0 0 676 60" fill="none" xmlns="http://www.w3.org/2000/svg">
<rect width="82" height="28" rx="6" fill="#936BE2"/>
<rect x="6" y="5" width="18" height="18" rx="3.5" fill="#F1EFEF"/>
<path opacity="0.4" d="M9.0625 14C9.0625 11.201 9.0625 9.80156 9.93202 8.93202C10.8016 8.0625 12.201 8.0625 15 8.0625C17.7989 8.0625 19.1984 8.0625 20.068 8.93202C20.9375 9.80156 20.9375 11.201 20.9375 14C20.9375 16.7989 20.9375 18.1984 20.068 19.068C19.1984 19.9375 17.7989 19.9375 15 19.9375C12.201 19.9375 10.8016 19.9375 9.93202 19.068C9.0625 18.1984 9.0625 16.7989 9.0625 14Z" fill="#936BE2"/>
<path d="M17.5 12.75L18.2666 13.4108C18.5889 13.6885 18.75 13.8274 18.75 14C18.75 14.1726 18.5889 14.3115 18.2666 14.5892L17.5 15.25" stroke="#936BE2" stroke-width="1.25" stroke-linecap="round" stroke-linejoin="round"/>
<path d="M12.5 12.75L11.7334 13.4108C11.4111 13.6885 11.25 13.8274 11.25 14C11.25 14.1726 11.4111 14.3115 11.7334 14.5892L12.5 15.25" stroke="#936BE2" stroke-width="1.25" stroke-linecap="round" stroke-linejoin="round"/>
<path d="M15.625 12.125L14.375 15.875" stroke="#936BE2" stroke-width="1.25" stroke-linecap="round" stroke-linejoin="round"/>
<path d="M9.0625 14C9.0625 11.201 9.0625 9.80156 9.93202 8.93202C10.8016 8.0625 12.201 8.0625 15 8.0625C17.7989 8.0625 19.1984 8.0625 20.068 8.93202C20.9375 9.80156 20.9375 11.201 20.9375 14C20.9375 16.7989 20.9375 18.1984 20.068 19.068C19.1984 19.9375 17.7989 19.9375 15 19.9375C12.201 19.9375 10.8016 19.9375 9.93202 19.068C9.0625 18.1984 9.0625 16.7989 9.0625 14Z" stroke="#936BE2" stroke-width="1.25"/>
<path d="M34.5856 12.1172C34.5392 11.683 34.3437 11.3449 33.999 11.103C33.6576 10.861 33.2135 10.7401 32.6666 10.7401C32.2821 10.7401 31.9523 10.7981 31.6772 10.9141C31.4021 11.0301 31.1917 11.1875 31.0458 11.3864C30.9 11.5852 30.8254 11.8123 30.8221 12.0675C30.8221 12.2796 30.8702 12.4635 30.9663 12.6193C31.0657 12.7751 31.2 12.9077 31.369 13.017C31.538 13.1231 31.7253 13.2126 31.9308 13.2855C32.1363 13.3584 32.3434 13.4197 32.5522 13.4695L33.5068 13.7081C33.8912 13.7976 34.2608 13.9186 34.6154 14.071C34.9734 14.2235 35.2932 14.4157 35.575 14.6477C35.86 14.8797 36.0854 15.1598 36.2511 15.4879C36.4168 15.8161 36.4997 16.2005 36.4997 16.6413C36.4997 17.2379 36.3472 17.7633 36.0423 18.2173C35.7374 18.6681 35.2965 19.0211 34.7198 19.2763C34.1465 19.5282 33.4521 19.6541 32.6367 19.6541C31.8446 19.6541 31.1569 19.5315 30.5735 19.2862C29.9935 19.041 29.5394 18.683 29.2113 18.2124C28.8865 17.7417 28.7108 17.1683 28.6843 16.4922H30.499C30.5255 16.8468 30.6349 17.1418 30.8271 17.3771C31.0193 17.6125 31.2696 17.7881 31.5778 17.9041C31.8894 18.0201 32.2374 18.0781 32.6218 18.0781C33.0229 18.0781 33.3742 18.0185 33.6758 17.8991C33.9807 17.7765 34.2194 17.6075 34.3917 17.392C34.5641 17.1733 34.6519 16.9181 34.6552 16.6264C34.6519 16.3613 34.574 16.1425 34.4215 15.9702C34.2691 15.7945 34.0553 15.6487 33.7802 15.5327C33.5084 15.4134 33.1903 15.3073 32.8257 15.2145L31.6673 14.9162C30.8287 14.7008 30.1659 14.3743 29.6786 13.9368C29.1947 13.496 28.9528 12.911 28.9528 12.1818C28.9528 11.5819 29.1152 11.0566 29.44 10.6058C29.7681 10.1551 30.2139 9.8054 30.7774 9.55682C31.3408 9.30492 31.9788 9.17898 32.6914 9.17898C33.414 9.17898 34.047 9.30492 34.5906 9.55682C35.1375 9.8054 35.5667 10.1518 35.8782 10.5959C36.1898 11.0367 36.3505 11.5438 36.3605 12.1172H34.5856ZM39.4305 19.5L37.2728 11.8636H39.1073L40.4497 17.233H40.5193L41.8914 11.8636H43.706L45.0782 17.2031H45.1528L46.4752 11.8636H48.3147L46.1521 19.5H44.2778L42.846 14.3395H42.7416L41.3097 19.5H39.4305ZM49.3613 19.5V11.8636H51.161V19.5H49.3613ZM50.2661 10.7798C49.9811 10.7798 49.7358 10.6854 49.5303 10.4964C49.3248 10.3042 49.2221 10.0739 49.2221 9.8054C49.2221 9.53362 49.3248 9.30327 49.5303 9.11435C49.7358 8.92211 49.9811 8.82599 50.2661 8.82599C50.5545 8.82599 50.7997 8.92211 51.0019 9.11435C51.2074 9.30327 51.3101 9.53362 51.3101 9.8054C51.3101 10.0739 51.2074 10.3042 51.0019 10.4964C50.7997 10.6854 50.5545 10.7798 50.2661 10.7798ZM56.6696 11.8636V13.2557H52.1554V11.8636H56.6696ZM53.2839 19.5V11.1428C53.2839 10.629 53.39 10.2015 53.6021 9.86008C53.8175 9.5187 54.1059 9.26349 54.4672 9.09446C54.8284 8.92543 55.2295 8.84091 55.6703 8.84091C55.9818 8.84091 56.2586 8.86577 56.5005 8.91548C56.7425 8.9652 56.9215 9.00994 57.0375 9.04972L56.6795 10.4418C56.6033 10.4186 56.5072 10.3954 56.3912 10.3722C56.2752 10.3456 56.1459 10.3324 56.0034 10.3324C55.6686 10.3324 55.4316 10.4136 55.2924 10.576C55.1565 10.7351 55.0886 10.9638 55.0886 11.2621V19.5H53.2839ZM61.6822 11.8636V13.2557H57.2923V11.8636H61.6822ZM58.3761 10.0341H60.1758V17.2031C60.1758 17.4451 60.2123 17.6307 60.2852 17.7599C60.3614 17.8859 60.4609 17.9721 60.5835 18.0185C60.7061 18.0649 60.842 18.0881 60.9912 18.0881C61.1039 18.0881 61.2066 18.0798 61.2994 18.0632C61.3955 18.0466 61.4684 18.0317 61.5182 18.0185L61.8214 19.4254C61.7253 19.4586 61.5878 19.495 61.4088 19.5348C61.2331 19.5746 61.0177 19.5978 60.7625 19.6044C60.3117 19.6177 59.9057 19.5497 59.5444 19.4006C59.1832 19.2481 58.8965 19.0128 58.6844 18.6946C58.4755 18.3764 58.3728 17.9787 58.3761 17.5014V10.0341ZM69.4752 9.31818H71.3197V15.9702C71.3197 16.6993 71.1474 17.3407 70.8027 17.8942C70.4613 18.4477 69.9807 18.8802 69.3609 19.1918C68.7411 19.5 68.0169 19.6541 67.1883 19.6541C66.3564 19.6541 65.6305 19.5 65.0108 19.1918C64.391 18.8802 63.9104 18.4477 63.569 17.8942C63.2276 17.3407 63.0569 16.6993 63.0569 15.9702V9.31818H64.9014V15.8161C64.9014 16.2403 64.9942 16.6181 65.1798 16.9496C65.3687 17.281 65.6339 17.5412 65.9752 17.7301C66.3166 17.9157 66.721 18.0085 67.1883 18.0085C67.6556 18.0085 68.06 17.9157 68.4014 17.7301C68.7461 17.5412 69.0112 17.281 69.1968 16.9496C69.3824 16.6181 69.4752 16.2403 69.4752 15.8161V9.31818ZM74.959 9.31818V19.5H73.1145V9.31818H74.959Z" fill="#F1EFEF"/>
<rect x="86" width="80" height="28" rx="6" fill="#3C46C9"/>
<rect x="92" y="5" width="18" height="18" rx="3.5" fill="#F1EFEF"/>
<path opacity="0.4" d="M97.2657 8.39076C96.625 9.03147 96.625 10.0627 96.625 12.1251V15.875C96.625 17.9375 96.625 18.9687 97.2657 19.6093C97.9064 20.25 98.9376 20.25 101 20.25C103.062 20.25 104.094 20.25 104.734 19.6093C105.375 18.9687 105.375 17.9375 105.375 15.875V12.1251C105.375 10.0627 105.375 9.03147 104.734 8.39076C104.326 7.98278 103.76 7.83459 102.87 7.78076L102.819 8.08382C102.699 8.80712 102.639 9.16877 102.391 9.38884C102.132 9.6184 101.765 9.62506 101 9.62506C100.235 9.62506 99.8683 9.6184 99.6095 9.38884C99.3615 9.16877 99.3012 8.80712 99.1806 8.08382L99.1301 7.78076C98.24 7.83459 97.6737 7.98278 97.2657 8.39076Z" fill="#3C46C9"/>
<path d="M96.625 12.125C96.625 10.0626 96.625 9.03141 97.2657 8.39071C97.9064 7.75 98.9376 7.75 101 7.75C103.062 7.75 104.094 7.75 104.734 8.39071C105.375 9.03141 105.375 10.0626 105.375 12.125V15.875C105.375 17.9374 105.375 18.9686 104.734 19.6093C104.094 20.25 103.062 20.25 101 20.25C98.9376 20.25 97.9064 20.25 97.2657 19.6093C96.625 18.9686 96.625 17.9374 96.625 15.875V12.125Z" stroke="#3C46C9" stroke-width="1.25" stroke-linecap="round"/>
<path d="M100.375 18.375H101.625" stroke="#3C46C9" stroke-width="1.25" stroke-linecap="round" stroke-linejoin="round"/>
<path d="M99.125 7.75L99.1806 8.08376C99.3012 8.80706 99.3615 9.16871 99.6095 9.38877C99.8683 9.61834 100.235 9.625 101 9.625C101.765 9.625 102.132 9.61834 102.391 9.38877C102.639 9.16871 102.699 8.80706 102.819 8.08376L102.875 7.75" stroke="#3C46C9" stroke-width="1.25" stroke-linejoin="round"/>
<path d="M115.343 19.5V11.8636H117.142V19.5H115.343ZM116.248 10.7798C115.963 10.7798 115.717 10.6854 115.512 10.4964C115.306 10.3042 115.204 10.0739 115.204 9.8054C115.204 9.53362 115.306 9.30327 115.512 9.11435C115.717 8.92211 115.963 8.82599 116.248 8.82599C116.536 8.82599 116.781 8.92211 116.983 9.11435C117.189 9.30327 117.292 9.53362 117.292 9.8054C117.292 10.0739 117.189 10.3042 116.983 10.4964C116.781 10.6854 116.536 10.7798 116.248 10.7798ZM127.961 14.4091C127.961 15.5062 127.755 16.4458 127.344 17.228C126.937 18.0069 126.38 18.6035 125.674 19.0178C124.971 19.4321 124.174 19.6392 123.282 19.6392C122.391 19.6392 121.592 19.4321 120.886 19.0178C120.183 18.6001 119.627 18.0019 119.216 17.223C118.808 16.4408 118.604 15.5028 118.604 14.4091C118.604 13.312 118.808 12.3741 119.216 11.5952C119.627 10.813 120.183 10.2147 120.886 9.80043C121.592 9.38613 122.391 9.17898 123.282 9.17898C124.174 9.17898 124.971 9.38613 125.674 9.80043C126.38 10.2147 126.937 10.813 127.344 11.5952C127.755 12.3741 127.961 13.312 127.961 14.4091ZM126.106 14.4091C126.106 13.6368 125.985 12.9856 125.743 12.4553C125.505 11.9216 125.173 11.5189 124.749 11.2472C124.325 10.9721 123.836 10.8345 123.282 10.8345C122.729 10.8345 122.24 10.9721 121.816 11.2472C121.392 11.5189 121.058 11.9216 120.816 12.4553C120.578 12.9856 120.459 13.6368 120.459 14.4091C120.459 15.1813 120.578 15.8343 120.816 16.3679C121.058 16.8982 121.392 17.3009 121.816 17.576C122.24 17.8478 122.729 17.9837 123.282 17.9837C123.836 17.9837 124.325 17.8478 124.749 17.576C125.173 17.3009 125.505 16.8982 125.743 16.3679C125.985 15.8343 126.106 15.1813 126.106 14.4091ZM135.028 12.1172C134.981 11.683 134.786 11.3449 134.441 11.103C134.1 10.861 133.656 10.7401 133.109 10.7401C132.724 10.7401 132.395 10.7981 132.119 10.9141C131.844 11.0301 131.634 11.1875 131.488 11.3864C131.342 11.5852 131.268 11.8123 131.264 12.0675C131.264 12.2796 131.312 12.4635 131.409 12.6193C131.508 12.7751 131.642 12.9077 131.811 13.017C131.98 13.1231 132.168 13.2126 132.373 13.2855C132.579 13.3584 132.786 13.4197 132.994 13.4695L133.949 13.7081C134.333 13.7976 134.703 13.9186 135.058 14.071C135.416 14.2235 135.735 14.4157 136.017 14.6477C136.302 14.8797 136.528 15.1598 136.693 15.4879C136.859 15.8161 136.942 16.2005 136.942 16.6413C136.942 17.2379 136.789 17.7633 136.485 18.2173C136.18 18.6681 135.739 19.0211 135.162 19.2763C134.589 19.5282 133.894 19.6541 133.079 19.6541C132.287 19.6541 131.599 19.5315 131.016 19.2862C130.436 19.041 129.982 18.683 129.654 18.2124C129.329 17.7417 129.153 17.1683 129.127 16.4922H130.941C130.968 16.8468 131.077 17.1418 131.269 17.3771C131.462 17.6125 131.712 17.7881 132.02 17.9041C132.332 18.0201 132.68 18.0781 133.064 18.0781C133.465 18.0781 133.816 18.0185 134.118 17.8991C134.423 17.7765 134.662 17.6075 134.834 17.392C135.006 17.1733 135.094 16.9181 135.097 16.6264C135.094 16.3613 135.016 16.1425 134.864 15.9702C134.711 15.7945 134.498 15.6487 134.222 15.5327C133.951 15.4134 133.632 15.3073 133.268 15.2145L132.11 14.9162C131.271 14.7008 130.608 14.3743 130.121 13.9368C129.637 13.496 129.395 12.911 129.395 12.1818C129.395 11.5819 129.557 11.0566 129.882 10.6058C130.21 10.1551 130.656 9.8054 131.22 9.55682C131.783 9.30492 132.421 9.17898 133.134 9.17898C133.856 9.17898 134.489 9.30492 135.033 9.55682C135.58 9.8054 136.009 10.1518 136.32 10.5959C136.632 11.0367 136.793 11.5438 136.803 12.1172H135.028Z" fill="#F1EFEF"/>
<path d="M144.095 10.5V18.5H143.126V11.5156H143.079L141.126 12.8125V11.8281L143.126 10.5H144.095ZM146.043 16.8594V16.0625L149.559 10.5H150.137V11.7344H149.746L147.09 15.9375V16H151.824V16.8594H146.043ZM149.809 18.5V16.6172V16.2461V10.5H150.73V18.5H149.809ZM155.482 17.0938V11.9375H156.357V17.0938H155.482ZM153.342 14.9531V14.0781H158.498V14.9531H153.342Z" fill="#C6C6C8"/>
<rect x="170" width="80" height="28" rx="6" fill="#3C46C9"/>
<rect x="176" y="5" width="18" height="18" rx="3.5" fill="#F1EFEF"/>
<path opacity="0.4" d="M186.562 7.75H183.438C181.67 7.75 180.786 7.75 180.237 8.29917C179.688 8.84835 179.688 9.73223 179.688 11.5V16.5C179.688 18.2677 179.688 19.1516 180.237 19.7008C180.786 20.25 181.67 20.25 183.438 20.25H186.562C188.33 20.25 189.214 20.25 189.763 19.7008C190.312 19.1516 190.312 18.2677 190.312 16.5V11.5C190.312 9.73223 190.312 8.84835 189.763 8.29917C189.214 7.75 188.33 7.75 186.562 7.75Z" fill="#3C46C9"/>
<path d="M186.562 7.75H183.438C181.67 7.75 180.786 7.75 180.237 8.29917C179.688 8.84835 179.688 9.73223 179.688 11.5V16.5C179.688 18.2677 179.688 19.1516 180.237 19.7008C180.786 20.25 181.67 20.25 183.438 20.25H186.562C188.33 20.25 189.214 20.25 189.763 19.7008C190.312 19.1516 190.312 18.2677 190.312 16.5V11.5C190.312 9.73223 190.312 8.84835 189.763 8.29917C189.214 7.75 188.33 7.75 186.562 7.75Z" stroke="#3C46C9" stroke-width="1.25" stroke-linecap="round"/>
<path d="M185 18.375H185.006" stroke="#3C46C9" stroke-width="1.25" stroke-linecap="round"/>
<path d="M199.343 19.5V11.8636H201.142V19.5H199.343ZM200.248 10.7798C199.963 10.7798 199.717 10.6854 199.512 10.4964C199.306 10.3042 199.204 10.0739 199.204 9.8054C199.204 9.53362 199.306 9.30327 199.512 9.11435C199.717 8.92211 199.963 8.82599 200.248 8.82599C200.536 8.82599 200.781 8.92211 200.983 9.11435C201.189 9.30327 201.292 9.53362 201.292 9.8054C201.292 10.0739 201.189 10.3042 200.983 10.4964C200.781 10.6854 200.536 10.7798 200.248 10.7798ZM211.961 14.4091C211.961 15.5062 211.755 16.4458 211.344 17.228C210.937 18.0069 210.38 18.6035 209.674 19.0178C208.971 19.4321 208.174 19.6392 207.282 19.6392C206.391 19.6392 205.592 19.4321 204.886 19.0178C204.183 18.6001 203.627 18.0019 203.216 17.223C202.808 16.4408 202.604 15.5028 202.604 14.4091C202.604 13.312 202.808 12.3741 203.216 11.5952C203.627 10.813 204.183 10.2147 204.886 9.80043C205.592 9.38613 206.391 9.17898 207.282 9.17898C208.174 9.17898 208.971 9.38613 209.674 9.80043C210.38 10.2147 210.937 10.813 211.344 11.5952C211.755 12.3741 211.961 13.312 211.961 14.4091ZM210.106 14.4091C210.106 13.6368 209.985 12.9856 209.743 12.4553C209.505 11.9216 209.173 11.5189 208.749 11.2472C208.325 10.9721 207.836 10.8345 207.282 10.8345C206.729 10.8345 206.24 10.9721 205.816 11.2472C205.392 11.5189 205.058 11.9216 204.816 12.4553C204.578 12.9856 204.459 13.6368 204.459 14.4091C204.459 15.1813 204.578 15.8343 204.816 16.3679C205.058 16.8982 205.392 17.3009 205.816 17.576C206.24 17.8478 206.729 17.9837 207.282 17.9837C207.836 17.9837 208.325 17.8478 208.749 17.576C209.173 17.3009 209.505 16.8982 209.743 16.3679C209.985 15.8343 210.106 15.1813 210.106 14.4091ZM219.028 12.1172C218.981 11.683 218.786 11.3449 218.441 11.103C218.1 10.861 217.656 10.7401 217.109 10.7401C216.724 10.7401 216.395 10.7981 216.119 10.9141C215.844 11.0301 215.634 11.1875 215.488 11.3864C215.342 11.5852 215.268 11.8123 215.264 12.0675C215.264 12.2796 215.312 12.4635 215.409 12.6193C215.508 12.7751 215.642 12.9077 215.811 13.017C215.98 13.1231 216.168 13.2126 216.373 13.2855C216.579 13.3584 216.786 13.4197 216.994 13.4695L217.949 13.7081C218.333 13.7976 218.703 13.9186 219.058 14.071C219.416 14.2235 219.735 14.4157 220.017 14.6477C220.302 14.8797 220.528 15.1598 220.693 15.4879C220.859 15.8161 220.942 16.2005 220.942 16.6413C220.942 17.2379 220.789 17.7633 220.485 18.2173C220.18 18.6681 219.739 19.0211 219.162 19.2763C218.589 19.5282 217.894 19.6541 217.079 19.6541C216.287 19.6541 215.599 19.5315 215.016 19.2862C214.436 19.041 213.982 18.683 213.654 18.2124C213.329 17.7417 213.153 17.1683 213.127 16.4922H214.941C214.968 16.8468 215.077 17.1418 215.269 17.3771C215.462 17.6125 215.712 17.7881 216.02 17.9041C216.332 18.0201 216.68 18.0781 217.064 18.0781C217.465 18.0781 217.816 18.0185 218.118 17.8991C218.423 17.7765 218.662 17.6075 218.834 17.392C219.006 17.1733 219.094 16.9181 219.097 16.6264C219.094 16.3613 219.016 16.1425 218.864 15.9702C218.711 15.7945 218.498 15.6487 218.222 15.5327C217.951 15.4134 217.632 15.3073 217.268 15.2145L216.11 14.9162C215.271 14.7008 214.608 14.3743 214.121 13.9368C213.637 13.496 213.395 12.911 213.395 12.1818C213.395 11.5819 213.557 11.0566 213.882 10.6058C214.21 10.1551 214.656 9.8054 215.22 9.55682C215.783 9.30492 216.421 9.17898 217.134 9.17898C217.856 9.17898 218.489 9.30492 219.033 9.55682C219.58 9.8054 220.009 10.1518 220.32 10.5959C220.632 11.0367 220.793 11.5438 220.803 12.1172H219.028Z" fill="#F1EFEF"/>
<path d="M228.095 10.5V18.5H227.126V11.5156H227.079L225.126 12.8125V11.8281L227.126 10.5H228.095ZM230.043 16.8594V16.0625L233.559 10.5H234.137V11.7344H233.746L231.09 15.9375V16H235.824V16.8594H230.043ZM233.809 18.5V16.6172V16.2461V10.5H234.73V18.5H233.809ZM239.482 17.0938V11.9375H240.357V17.0938H239.482ZM237.342 14.9531V14.0781H242.498V14.9531H237.342Z" fill="#C6C6C8"/>
<rect x="254" width="103" height="28" rx="6" fill="#3C46C9"/>
<rect x="260" y="5" width="18" height="18" rx="3.5" fill="#F1EFEF"/>
<path opacity="0.4" d="M270.25 7.75H267.75C265.7 7.75 264.676 7.75 263.949 8.25864C263.681 8.44681 263.447 8.68057 263.259 8.94932C262.75 9.67572 262.75 10.7005 262.75 12.75C262.75 14.7995 262.75 15.8242 263.259 16.5507C263.447 16.8194 263.681 17.0532 263.949 17.2414C264.676 17.75 265.7 17.75 267.75 17.75H270.25C272.3 17.75 273.324 17.75 274.051 17.2414C274.319 17.0532 274.553 16.8194 274.741 16.5507C275.25 15.8242 275.25 14.7995 275.25 12.75C275.25 10.7005 275.25 9.67572 274.741 8.94932C274.553 8.68057 274.319 8.44681 274.051 8.25864C273.324 7.75 272.3 7.75 270.25 7.75Z" fill="#3C46C9"/>
<path d="M270.25 7.75H267.75C265.7 7.75 264.676 7.75 263.949 8.25864C263.681 8.44681 263.447 8.68057 263.259 8.94932C262.75 9.67572 262.75 10.7005 262.75 12.75C262.75 14.7995 262.75 15.8242 263.259 16.5507C263.447 16.8194 263.681 17.0532 263.949 17.2414C264.676 17.75 265.7 17.75 267.75 17.75H270.25C272.3 17.75 273.324 17.75 274.051 17.2414C274.319 17.0532 274.553 16.8194 274.741 16.5507C275.25 15.8242 275.25 14.7995 275.25 12.75C275.25 10.7005 275.25 9.67572 274.741 8.94932C274.553 8.68057 274.319 8.44681 274.051 8.25864C273.324 7.75 272.3 7.75 270.25 7.75Z" stroke="#3C46C9" stroke-width="1.25" stroke-linecap="round"/>
<path d="M268.375 15.875H269.625" stroke="#3C46C9" stroke-width="1.25" stroke-linecap="round" stroke-linejoin="round"/>
<path d="M270.562 20.25L270.365 19.9882C269.921 19.3981 269.811 18.4965 270.092 17.75M267.438 20.25L267.635 19.9882C268.079 19.3981 268.189 18.4965 267.908 17.75" stroke="#3C46C9" stroke-width="1.25" stroke-linecap="round"/>
<path d="M265.875 20.25H272.125" stroke="#3C46C9" stroke-width="1.25" stroke-linecap="round"/>
<path d="M283.036 19.5V11.8636H284.756V13.1612H284.846C285.005 12.7237 285.268 12.3823 285.636 12.1371C286.004 11.8885 286.443 11.7642 286.954 11.7642C287.471 11.7642 287.907 11.8902 288.261 12.142C288.619 12.3906 288.871 12.7304 289.017 13.1612H289.096C289.266 12.737 289.551 12.3989 289.952 12.147C290.356 11.8918 290.835 11.7642 291.388 11.7642C292.091 11.7642 292.664 11.9863 293.109 12.4304C293.553 12.8745 293.775 13.5225 293.775 14.3743V19.5H291.97V14.6527C291.97 14.1787 291.844 13.8324 291.592 13.6136C291.34 13.3916 291.032 13.2805 290.668 13.2805C290.233 13.2805 289.894 13.4164 289.648 13.6882C289.406 13.9567 289.285 14.3063 289.285 14.7372V19.5H287.52V14.5781C287.52 14.1837 287.401 13.8688 287.163 13.6335C286.927 13.3982 286.619 13.2805 286.238 13.2805C285.979 13.2805 285.744 13.3468 285.532 13.4794C285.32 13.6087 285.151 13.7926 285.025 14.0312C284.899 14.2666 284.836 14.5417 284.836 14.8565V19.5H283.036ZM297.588 19.6541C297.104 19.6541 296.668 19.5679 296.28 19.3956C295.896 19.2199 295.591 18.9614 295.366 18.62C295.144 18.2786 295.033 17.8577 295.033 17.3572C295.033 16.9264 295.112 16.5701 295.271 16.2884C295.43 16.0066 295.647 15.7812 295.923 15.6122C296.198 15.4432 296.508 15.3156 296.852 15.2294C297.2 15.1399 297.56 15.0753 297.931 15.0355C298.379 14.9891 298.741 14.9477 299.02 14.9112C299.298 14.8714 299.5 14.8118 299.626 14.7322C299.756 14.6494 299.82 14.5218 299.82 14.3494V14.3196C299.82 13.9451 299.709 13.6551 299.487 13.4496C299.265 13.2441 298.945 13.1413 298.528 13.1413C298.087 13.1413 297.737 13.2375 297.479 13.4297C297.223 13.6219 297.051 13.849 296.962 14.1108L295.281 13.8722C295.414 13.4081 295.633 13.0204 295.937 12.7088C296.242 12.3939 296.615 12.1586 297.056 12.0028C297.497 11.8438 297.984 11.7642 298.518 11.7642C298.886 11.7642 299.252 11.8073 299.616 11.8935C299.981 11.9796 300.314 12.1222 300.616 12.321C300.917 12.5166 301.159 12.7834 301.342 13.1214C301.527 13.4595 301.62 13.8821 301.62 14.3892V19.5H299.89V18.451H299.83C299.721 18.6631 299.567 18.862 299.368 19.0476C299.172 19.2299 298.925 19.3774 298.627 19.4901C298.332 19.5994 297.986 19.6541 297.588 19.6541ZM298.055 18.3317C298.417 18.3317 298.73 18.2604 298.995 18.1179C299.26 17.9721 299.464 17.7798 299.606 17.5412C299.752 17.3026 299.825 17.0424 299.825 16.7607V15.8608C299.769 15.9072 299.673 15.9503 299.537 15.9901C299.404 16.0298 299.255 16.0646 299.089 16.0945C298.924 16.1243 298.76 16.1508 298.597 16.174C298.435 16.1972 298.294 16.2171 298.175 16.2337C297.906 16.2701 297.666 16.3298 297.454 16.4126C297.242 16.4955 297.074 16.6115 296.952 16.7607C296.829 16.9065 296.768 17.0954 296.768 17.3274C296.768 17.6589 296.889 17.9091 297.131 18.0781C297.373 18.2472 297.681 18.3317 298.055 18.3317ZM306.551 19.6491C305.788 19.6491 305.134 19.4818 304.587 19.147C304.043 18.8123 303.624 18.3499 303.329 17.7599C303.037 17.1667 302.892 16.4839 302.892 15.7116C302.892 14.9361 303.041 14.2517 303.339 13.6584C303.637 13.0618 304.058 12.5978 304.602 12.2663C305.149 11.9316 305.795 11.7642 306.541 11.7642C307.16 11.7642 307.709 11.8786 308.186 12.1072C308.667 12.3326 309.05 12.6525 309.335 13.0668C309.62 13.4777 309.782 13.9583 309.822 14.5085H308.102C308.032 14.1406 307.866 13.834 307.605 13.5888C307.346 13.3402 307 13.2159 306.566 13.2159C306.198 13.2159 305.874 13.3153 305.596 13.5142C305.318 13.7098 305.101 13.9915 304.945 14.3594C304.792 14.7273 304.716 15.1681 304.716 15.6818C304.716 16.2022 304.792 16.6496 304.945 17.0241C305.097 17.3954 305.311 17.6821 305.586 17.8842C305.865 18.0831 306.191 18.1825 306.566 18.1825C306.831 18.1825 307.068 18.1328 307.276 18.0334C307.489 17.9306 307.666 17.7831 307.808 17.5909C307.951 17.3987 308.049 17.165 308.102 16.8899H309.822C309.779 17.4302 309.62 17.9091 309.345 18.3267C309.07 18.741 308.695 19.0658 308.221 19.3011C307.747 19.5331 307.19 19.6491 306.551 19.6491ZM320.267 14.4091C320.267 15.5062 320.062 16.4458 319.651 17.228C319.243 18.0069 318.686 18.6035 317.98 19.0178C317.278 19.4321 316.481 19.6392 315.589 19.6392C314.697 19.6392 313.899 19.4321 313.193 19.0178C312.49 18.6001 311.933 18.0019 311.522 17.223C311.115 16.4408 310.911 15.5028 310.911 14.4091C310.911 13.312 311.115 12.3741 311.522 11.5952C311.933 10.813 312.49 10.2147 313.193 9.80043C313.899 9.38613 314.697 9.17898 315.589 9.17898C316.481 9.17898 317.278 9.38613 317.98 9.80043C318.686 10.2147 319.243 10.813 319.651 11.5952C320.062 12.3741 320.267 13.312 320.267 14.4091ZM318.413 14.4091C318.413 13.6368 318.292 12.9856 318.05 12.4553C317.811 11.9216 317.48 11.5189 317.056 11.2472C316.631 10.9721 316.143 10.8345 315.589 10.8345C315.036 10.8345 314.547 10.9721 314.122 11.2472C313.698 11.5189 313.365 11.9216 313.123 12.4553C312.884 12.9856 312.765 13.6368 312.765 14.4091C312.765 15.1813 312.884 15.8343 313.123 16.3679C313.365 16.8982 313.698 17.3009 314.122 17.576C314.547 17.8478 315.036 17.9837 315.589 17.9837C316.143 17.9837 316.631 17.8478 317.056 17.576C317.48 17.3009 317.811 16.8982 318.05 16.3679C318.292 15.8343 318.413 15.1813 318.413 14.4091ZM327.334 12.1172C327.288 11.683 327.092 11.3449 326.748 11.103C326.406 10.861 325.962 10.7401 325.415 10.7401C325.031 10.7401 324.701 10.7981 324.426 10.9141C324.151 11.0301 323.941 11.1875 323.795 11.3864C323.649 11.5852 323.574 11.8123 323.571 12.0675C323.571 12.2796 323.619 12.4635 323.715 12.6193C323.815 12.7751 323.949 12.9077 324.118 13.017C324.287 13.1231 324.474 13.2126 324.68 13.2855C324.885 13.3584 325.092 13.4197 325.301 13.4695L326.256 13.7081C326.64 13.7976 327.01 13.9186 327.364 14.071C327.722 14.2235 328.042 14.4157 328.324 14.6477C328.609 14.8797 328.834 15.1598 329 15.4879C329.166 15.8161 329.249 16.2005 329.249 16.6413C329.249 17.2379 329.096 17.7633 328.791 18.2173C328.486 18.6681 328.045 19.0211 327.469 19.2763C326.895 19.5282 326.201 19.6541 325.386 19.6541C324.593 19.6541 323.906 19.5315 323.322 19.2862C322.742 19.041 322.288 18.683 321.96 18.2124C321.635 17.7417 321.46 17.1683 321.433 16.4922H323.248C323.274 16.8468 323.384 17.1418 323.576 17.3771C323.768 17.6125 324.018 17.7881 324.327 17.9041C324.638 18.0201 324.986 18.0781 325.371 18.0781C325.772 18.0781 326.123 18.0185 326.425 17.8991C326.73 17.7765 326.968 17.6075 327.141 17.392C327.313 17.1733 327.401 16.9181 327.404 16.6264C327.401 16.3613 327.323 16.1425 327.17 15.9702C327.018 15.7945 326.804 15.6487 326.529 15.5327C326.257 15.4134 325.939 15.3073 325.574 15.2145L324.416 14.9162C323.578 14.7008 322.915 14.3743 322.427 13.9368C321.944 13.496 321.702 12.911 321.702 12.1818C321.702 11.5819 321.864 11.0566 322.189 10.6058C322.517 10.1551 322.963 9.8054 323.526 9.55682C324.09 9.30492 324.728 9.17898 325.44 9.17898C326.163 9.17898 326.796 9.30492 327.339 9.55682C327.886 9.8054 328.316 10.1518 328.627 10.5959C328.939 11.0367 329.099 11.5438 329.109 12.1172H327.334Z" fill="#F1EFEF"/>
<path d="M335.793 10.5V18.5H334.825V11.5156H334.778L332.825 12.8125V11.8281L334.825 10.5H335.793ZM337.929 18.5V17.7969L340.57 14.9062C340.88 14.5677 341.135 14.2734 341.335 14.0234C341.536 13.7708 341.684 13.5339 341.781 13.3125C341.88 13.0885 341.929 12.8542 341.929 12.6094C341.929 12.3281 341.861 12.0846 341.726 11.8789C341.593 11.6732 341.411 11.5143 341.179 11.4023C340.947 11.2904 340.687 11.2344 340.398 11.2344C340.091 11.2344 339.822 11.2982 339.593 11.4258C339.367 11.5508 339.191 11.7266 339.066 11.9531C338.944 12.1797 338.882 12.4453 338.882 12.75H337.96C337.96 12.2812 338.069 11.8698 338.285 11.5156C338.501 11.1615 338.795 10.8854 339.167 10.6875C339.542 10.4896 339.963 10.3906 340.429 10.3906C340.898 10.3906 341.313 10.4896 341.675 10.6875C342.037 10.8854 342.321 11.1523 342.527 11.4883C342.733 11.8242 342.835 12.1979 342.835 12.6094C342.835 12.9036 342.782 13.1914 342.675 13.4727C342.571 13.7513 342.389 14.0625 342.128 14.4062C341.871 14.7474 341.513 15.1641 341.054 15.6562L339.257 17.5781V17.6406H342.976V18.5H337.929ZM346.784 17.0938V11.9375H347.659V17.0938H346.784ZM344.643 14.9531V14.0781H349.799V14.9531H344.643Z" fill="#C6C6C8"/>
<rect x="361" width="88" height="28" rx="6" fill="#3C46C9"/>
<rect x="367" y="5" width="18" height="18" rx="3.5" fill="#F1EFEF"/>
<path opacity="0.4" d="M377.25 8.375H374.75C372.393 8.375 371.214 8.375 370.482 9.10723C369.75 9.83947 369.75 11.018 369.75 13.375C369.75 15.732 369.75 16.9106 370.482 17.6427C371.214 18.375 372.393 18.375 374.75 18.375H377.25C379.607 18.375 380.786 18.375 381.518 17.6427C382.25 16.9106 382.25 15.732 382.25 13.375C382.25 11.018 382.25 9.83947 381.518 9.10723C380.786 8.375 379.607 8.375 377.25 8.375Z" fill="#3C46C9"/>
<path d="M377.25 8.375H374.75C372.393 8.375 371.214 8.375 370.482 9.10723C369.75 9.83947 369.75 11.018 369.75 13.375C369.75 15.732 369.75 16.9106 370.482 17.6427C371.214 18.375 372.393 18.375 374.75 18.375H377.25C379.607 18.375 380.786 18.375 381.518 17.6427C382.25 16.9106 382.25 15.732 382.25 13.375C382.25 11.018 382.25 9.83947 381.518 9.10723C380.786 8.375 379.607 8.375 377.25 8.375Z" stroke="#3C46C9" stroke-width="1.25" stroke-linecap="round"/>
<path d="M379.75 18.375L380.375 19.625" stroke="#3C46C9" stroke-width="1.25" stroke-linecap="round" stroke-linejoin="round"/>
<path d="M372.25 18.375L371.625 19.625" stroke="#3C46C9" stroke-width="1.25" stroke-linecap="round" stroke-linejoin="round"/>
<path d="M393.894 11.8636V13.2557H389.504V11.8636H393.894ZM390.588 10.0341H392.387V17.2031C392.387 17.4451 392.424 17.6307 392.497 17.7599C392.573 17.8859 392.672 17.9721 392.795 18.0185C392.918 18.0649 393.054 18.0881 393.203 18.0881C393.315 18.0881 393.418 18.0798 393.511 18.0632C393.607 18.0466 393.68 18.0317 393.73 18.0185L394.033 19.4254C393.937 19.4586 393.799 19.495 393.62 19.5348C393.445 19.5746 393.229 19.5978 392.974 19.6044C392.523 19.6177 392.117 19.5497 391.756 19.4006C391.395 19.2481 391.108 19.0128 390.896 18.6946C390.687 18.3764 390.584 17.9787 390.588 17.5014V10.0341ZM402.01 11.8636L399.29 19.5H397.302L394.582 11.8636H396.501L398.256 17.5362H398.336L400.096 11.8636H402.01ZM412.223 14.4091C412.223 15.5062 412.017 16.4458 411.606 17.228C411.199 18.0069 410.642 18.6035 409.936 19.0178C409.233 19.4321 408.436 19.6392 407.545 19.6392C406.653 19.6392 405.854 19.4321 405.148 19.0178C404.446 18.6001 403.889 18.0019 403.478 17.223C403.07 16.4408 402.866 15.5028 402.866 14.4091C402.866 13.312 403.07 12.3741 403.478 11.5952C403.889 10.813 404.446 10.2147 405.148 9.80043C405.854 9.38613 406.653 9.17898 407.545 9.17898C408.436 9.17898 409.233 9.38613 409.936 9.80043C410.642 10.2147 411.199 10.813 411.606 11.5952C412.017 12.3741 412.223 13.312 412.223 14.4091ZM410.368 14.4091C410.368 13.6368 410.247 12.9856 410.006 12.4553C409.767 11.9216 409.435 11.5189 409.011 11.2472C408.587 10.9721 408.098 10.8345 407.545 10.8345C406.991 10.8345 406.502 10.9721 406.078 11.2472C405.654 11.5189 405.321 11.9216 405.079 12.4553C404.84 12.9856 404.721 13.6368 404.721 14.4091C404.721 15.1813 404.84 15.8343 405.079 16.3679C405.321 16.8982 405.654 17.3009 406.078 17.576C406.502 17.8478 406.991 17.9837 407.545 17.9837C408.098 17.9837 408.587 17.8478 409.011 17.576C409.435 17.3009 409.767 16.8982 410.006 16.3679C410.247 15.8343 410.368 15.1813 410.368 14.4091ZM419.29 12.1172C419.244 11.683 419.048 11.3449 418.703 11.103C418.362 10.861 417.918 10.7401 417.371 10.7401C416.987 10.7401 416.657 10.7981 416.382 10.9141C416.107 11.0301 415.896 11.1875 415.75 11.3864C415.604 11.5852 415.53 11.8123 415.527 12.0675C415.527 12.2796 415.575 12.4635 415.671 12.6193C415.77 12.7751 415.904 12.9077 416.073 13.017C416.242 13.1231 416.43 13.2126 416.635 13.2855C416.841 13.3584 417.048 13.4197 417.257 13.4695L418.211 13.7081C418.596 13.7976 418.965 13.9186 419.32 14.071C419.678 14.2235 419.998 14.4157 420.279 14.6477C420.564 14.8797 420.79 15.1598 420.956 15.4879C421.121 15.8161 421.204 16.2005 421.204 16.6413C421.204 17.2379 421.052 17.7633 420.747 18.2173C420.442 18.6681 420.001 19.0211 419.424 19.2763C418.851 19.5282 418.157 19.6541 417.341 19.6541C416.549 19.6541 415.861 19.5315 415.278 19.2862C414.698 19.041 414.244 18.683 413.916 18.2124C413.591 17.7417 413.415 17.1683 413.389 16.4922H415.203C415.23 16.8468 415.339 17.1418 415.532 17.3771C415.724 17.6125 415.974 17.7881 416.282 17.9041C416.594 18.0201 416.942 18.0781 417.326 18.0781C417.727 18.0781 418.079 18.0185 418.38 17.8991C418.685 17.7765 418.924 17.6075 419.096 17.392C419.268 17.1733 419.356 16.9181 419.36 16.6264C419.356 16.3613 419.278 16.1425 419.126 15.9702C418.974 15.7945 418.76 15.6487 418.485 15.5327C418.213 15.4134 417.895 15.3073 417.53 15.2145L416.372 14.9162C415.533 14.7008 414.87 14.3743 414.383 13.9368C413.899 13.496 413.657 12.911 413.657 12.1818C413.657 11.5819 413.82 11.0566 414.144 10.6058C414.473 10.1551 414.918 9.8054 415.482 9.55682C416.045 9.30492 416.683 9.17898 417.396 9.17898C418.118 9.17898 418.751 9.30492 419.295 9.55682C419.842 9.8054 420.271 10.1518 420.583 10.5959C420.894 11.0367 421.055 11.5438 421.065 12.1172H419.29Z" fill="#F1EFEF"/>
<path d="M427.777 10.5V18.5H426.809V11.5156H426.762L424.809 12.8125V11.8281L426.809 10.5H427.777ZM432.413 18.6094C431.955 18.6094 431.542 18.5182 431.175 18.3359C430.808 18.1536 430.513 17.9036 430.292 17.5859C430.071 17.2682 429.95 16.9062 429.929 16.5H430.866C430.903 16.862 431.067 17.1615 431.358 17.3984C431.653 17.6328 432.004 17.75 432.413 17.75C432.741 17.75 433.033 17.6732 433.288 17.5195C433.546 17.3659 433.748 17.1549 433.894 16.8867C434.042 16.6159 434.116 16.3099 434.116 15.9687C434.116 15.6198 434.039 15.3086 433.886 15.0352C433.735 14.7591 433.526 14.5417 433.261 14.3828C432.995 14.224 432.692 14.1432 432.351 14.1406C432.106 14.138 431.854 14.1758 431.597 14.2539C431.339 14.3294 431.127 14.4271 430.96 14.5469L430.054 14.4375L430.538 10.5H434.694V11.3594H431.351L431.069 13.7187H431.116C431.28 13.5885 431.486 13.4805 431.733 13.3945C431.981 13.3086 432.239 13.2656 432.507 13.2656C432.996 13.2656 433.433 13.3828 433.815 13.6172C434.201 13.849 434.503 14.1667 434.722 14.5703C434.943 14.974 435.054 15.4349 435.054 15.9531C435.054 16.4635 434.939 16.9193 434.71 17.3203C434.483 17.7187 434.171 18.0339 433.772 18.2656C433.374 18.4948 432.921 18.6094 432.413 18.6094ZM438.8 17.0938V11.9375H439.675V17.0938H438.8ZM436.659 14.9531V14.0781H441.815V14.9531H436.659Z" fill="#C6C6C8"/>
<rect x="453" width="111" height="28" rx="6" fill="#3C46C9"/>
<rect x="459" y="5" width="18" height="18" rx="3.5" fill="#F1EFEF"/>
<path opacity="0.4" d="M464.875 13.375C464.875 12.1965 464.875 11.6072 465.241 11.2411C465.607 10.875 466.196 10.875 467.375 10.875H468.625C469.803 10.875 470.393 10.875 470.759 11.2411C471.125 11.6072 471.125 12.1965 471.125 13.375V14.625C471.125 15.8035 471.125 16.3927 470.759 16.7589C470.393 17.125 469.803 17.125 468.625 17.125H467.375C466.196 17.125 465.607 17.125 465.241 16.7589C464.875 16.3927 464.875 15.8035 464.875 14.625V13.375Z" fill="#3C46C9"/>
<path d="M464.875 13.375C464.875 12.1965 464.875 11.6072 465.241 11.2411C465.607 10.875 466.196 10.875 467.375 10.875H468.625C469.803 10.875 470.393 10.875 470.759 11.2411C471.125 11.6072 471.125 12.1965 471.125 13.375V14.625C471.125 15.8035 471.125 16.3927 470.759 16.7589C470.393 17.125 469.803 17.125 468.625 17.125H467.375C466.196 17.125 465.607 17.125 465.241 16.7589C464.875 16.3927 464.875 15.8035 464.875 14.625V13.375Z" stroke="#3C46C9" stroke-width="1.25"/>
<path d="M465.812 10.875C465.812 10.875 466.243 10.038 466.34 9.00058C466.393 8.43828 466.419 8.15712 466.577 7.99796C466.736 7.83879 466.927 7.82009 467.309 7.78269C467.511 7.76294 467.741 7.75 468 7.75C468.259 7.75 468.489 7.76294 468.691 7.78269C469.073 7.82009 469.264 7.83879 469.423 7.99796C469.581 8.15712 469.607 8.43828 469.66 9.00058C469.757 10.038 470.188 10.875 470.188 10.875" stroke="#3C46C9" stroke-width="1.25" stroke-linecap="round" stroke-linejoin="round"/>
<path d="M470.188 17.125C470.188 17.125 469.757 17.962 469.66 18.9994C469.607 19.5617 469.581 19.8429 469.423 20.0021C469.264 20.1612 469.073 20.1799 468.691 20.2173C468.489 20.2371 468.259 20.25 468 20.25C467.741 20.25 467.511 20.2371 467.309 20.2173C466.927 20.1799 466.736 20.1612 466.577 20.0021C466.419 19.8429 466.393 19.5617 466.34 18.9994C466.243 17.962 465.812 17.125 465.812 17.125" stroke="#3C46C9" stroke-width="1.25" stroke-linecap="round" stroke-linejoin="round"/>
<path d="M483.835 19.5L481.677 11.8636H483.512L484.854 17.233H484.924L486.296 11.8636H488.11L489.483 17.2031H489.557L490.88 11.8636H492.719L490.556 19.5H488.682L487.25 14.3395H487.146L485.714 19.5H483.835ZM495.963 19.6541C495.479 19.6541 495.043 19.5679 494.656 19.3956C494.271 19.2199 493.966 18.9614 493.741 18.62C493.519 18.2786 493.408 17.8577 493.408 17.3572C493.408 16.9264 493.487 16.5701 493.646 16.2884C493.805 16.0066 494.022 15.7812 494.298 15.6122C494.573 15.4432 494.883 15.3156 495.227 15.2294C495.575 15.1399 495.935 15.0753 496.306 15.0355C496.754 14.9891 497.116 14.9477 497.395 14.9112C497.673 14.8714 497.875 14.8118 498.001 14.7322C498.131 14.6494 498.195 14.5218 498.195 14.3494V14.3196C498.195 13.9451 498.084 13.6551 497.862 13.4496C497.64 13.2441 497.32 13.1413 496.903 13.1413C496.462 13.1413 496.112 13.2375 495.854 13.4297C495.598 13.6219 495.426 13.849 495.337 14.1108L493.656 13.8722C493.789 13.4081 494.008 13.0204 494.312 12.7088C494.617 12.3939 494.99 12.1586 495.431 12.0028C495.872 11.8438 496.359 11.7642 496.893 11.7642C497.261 11.7642 497.627 11.8073 497.991 11.8935C498.356 11.9796 498.689 12.1222 498.991 12.321C499.292 12.5166 499.534 12.7834 499.717 13.1214C499.902 13.4595 499.995 13.8821 499.995 14.3892V19.5H498.265V18.451H498.205C498.096 18.6631 497.942 18.862 497.743 19.0476C497.547 19.2299 497.3 19.3774 497.002 19.4901C496.707 19.5994 496.361 19.6541 495.963 19.6541ZM496.43 18.3317C496.792 18.3317 497.105 18.2604 497.37 18.1179C497.635 17.9721 497.839 17.7798 497.982 17.5412C498.127 17.3026 498.2 17.0424 498.2 16.7607V15.8608C498.144 15.9072 498.048 15.9503 497.912 15.9901C497.779 16.0298 497.63 16.0646 497.464 16.0945C497.299 16.1243 497.135 16.1508 496.972 16.174C496.81 16.1972 496.669 16.2171 496.55 16.2337C496.281 16.2701 496.041 16.3298 495.829 16.4126C495.617 16.4955 495.449 16.6115 495.327 16.7607C495.204 16.9065 495.143 17.0954 495.143 17.3274C495.143 17.6589 495.264 17.9091 495.506 18.0781C495.748 18.2472 496.056 18.3317 496.43 18.3317ZM505.408 11.8636V13.2557H501.018V11.8636H505.408ZM502.102 10.0341H503.901V17.2031C503.901 17.4451 503.938 17.6307 504.011 17.7599C504.087 17.8859 504.187 17.9721 504.309 18.0185C504.432 18.0649 504.568 18.0881 504.717 18.0881C504.83 18.0881 504.932 18.0798 505.025 18.0632C505.121 18.0466 505.194 18.0317 505.244 18.0185L505.547 19.4254C505.451 19.4586 505.313 19.495 505.134 19.5348C504.959 19.5746 504.743 19.5978 504.488 19.6044C504.037 19.6177 503.631 19.5497 503.27 19.4006C502.909 19.2481 502.622 19.0128 502.41 18.6946C502.201 18.3764 502.098 17.9787 502.102 17.5014V10.0341ZM509.952 19.6491C509.19 19.6491 508.535 19.4818 507.988 19.147C507.445 18.8123 507.025 18.3499 506.73 17.7599C506.439 17.1667 506.293 16.4839 506.293 15.7116C506.293 14.9361 506.442 14.2517 506.74 13.6584C507.039 13.0618 507.46 12.5978 508.003 12.2663C508.55 11.9316 509.196 11.7642 509.942 11.7642C510.562 11.7642 511.11 11.8786 511.588 12.1072C512.068 12.3326 512.451 12.6525 512.736 13.0668C513.021 13.4777 513.184 13.9583 513.223 14.5085H511.503C511.434 14.1406 511.268 13.834 511.006 13.5888C510.747 13.3402 510.401 13.2159 509.967 13.2159C509.599 13.2159 509.276 13.3153 508.997 13.5142C508.719 13.7098 508.502 13.9915 508.346 14.3594C508.194 14.7273 508.117 15.1681 508.117 15.6818C508.117 16.2022 508.194 16.6496 508.346 17.0241C508.499 17.3954 508.712 17.6821 508.987 17.8842C509.266 18.0831 509.592 18.1825 509.967 18.1825C510.232 18.1825 510.469 18.1328 510.678 18.0334C510.89 17.9306 511.067 17.7831 511.21 17.5909C511.352 17.3987 511.45 17.165 511.503 16.8899H513.223C513.18 17.4302 513.021 17.9091 512.746 18.3267C512.471 18.741 512.096 19.0658 511.622 19.3011C511.148 19.5331 510.592 19.6491 509.952 19.6491ZM516.291 15.0256V19.5H514.491V9.31818H516.251V13.1612H516.341C516.519 12.7304 516.796 12.3906 517.171 12.142C517.549 11.8902 518.029 11.7642 518.613 11.7642C519.143 11.7642 519.605 11.8752 520 12.0973C520.394 12.3194 520.699 12.6442 520.914 13.0717C521.133 13.4993 521.243 14.0213 521.243 14.6378V19.5H519.443V14.9162C519.443 14.4025 519.31 14.0031 519.045 13.718C518.783 13.4297 518.415 13.2855 517.941 13.2855C517.623 13.2855 517.338 13.3551 517.086 13.4943C516.838 13.6302 516.642 13.8274 516.5 14.0859C516.36 14.3445 516.291 14.6577 516.291 15.0256ZM532.045 14.4091C532.045 15.5062 531.839 16.4458 531.428 17.228C531.02 18.0069 530.464 18.6035 529.758 19.0178C529.055 19.4321 528.258 19.6392 527.366 19.6392C526.475 19.6392 525.676 19.4321 524.97 19.0178C524.267 18.6001 523.711 18.0019 523.3 17.223C522.892 16.4408 522.688 15.5028 522.688 14.4091C522.688 13.312 522.892 12.3741 523.3 11.5952C523.711 10.813 524.267 10.2147 524.97 9.80043C525.676 9.38613 526.475 9.17898 527.366 9.17898C528.258 9.17898 529.055 9.38613 529.758 9.80043C530.464 10.2147 531.02 10.813 531.428 11.5952C531.839 12.3741 532.045 13.312 532.045 14.4091ZM530.19 14.4091C530.19 13.6368 530.069 12.9856 529.827 12.4553C529.589 11.9216 529.257 11.5189 528.833 11.2472C528.409 10.9721 527.92 10.8345 527.366 10.8345C526.813 10.8345 526.324 10.9721 525.9 11.2472C525.475 11.5189 525.142 11.9216 524.9 12.4553C524.662 12.9856 524.542 13.6368 524.542 14.4091C524.542 15.1813 524.662 15.8343 524.9 16.3679C525.142 16.8982 525.475 17.3009 525.9 17.576C526.324 17.8478 526.813 17.9837 527.366 17.9837C527.92 17.9837 528.409 17.8478 528.833 17.576C529.257 17.3009 529.589 16.8982 529.827 16.3679C530.069 15.8343 530.19 15.1813 530.19 14.4091ZM539.112 12.1172C539.065 11.683 538.87 11.3449 538.525 11.103C538.184 10.861 537.74 10.7401 537.193 10.7401C536.808 10.7401 536.478 10.7981 536.203 10.9141C535.928 11.0301 535.718 11.1875 535.572 11.3864C535.426 11.5852 535.352 11.8123 535.348 12.0675C535.348 12.2796 535.396 12.4635 535.492 12.6193C535.592 12.7751 535.726 12.9077 535.895 13.017C536.064 13.1231 536.251 13.2126 536.457 13.2855C536.662 13.3584 536.87 13.4197 537.078 13.4695L538.033 13.7081C538.417 13.7976 538.787 13.9186 539.142 14.071C539.5 14.2235 539.819 14.4157 540.101 14.6477C540.386 14.8797 540.612 15.1598 540.777 15.4879C540.943 15.8161 541.026 16.2005 541.026 16.6413C541.026 17.2379 540.873 17.7633 540.568 18.2173C540.263 18.6681 539.823 19.0211 539.246 19.2763C538.673 19.5282 537.978 19.6541 537.163 19.6541C536.371 19.6541 535.683 19.5315 535.1 19.2862C534.52 19.041 534.066 18.683 533.737 18.2124C533.413 17.7417 533.237 17.1683 533.21 16.4922H535.025C535.052 16.8468 535.161 17.1418 535.353 17.3771C535.545 17.6125 535.796 17.7881 536.104 17.9041C536.415 18.0201 536.763 18.0781 537.148 18.0781C537.549 18.0781 537.9 18.0185 538.202 17.8991C538.507 17.7765 538.746 17.6075 538.918 17.392C539.09 17.1733 539.178 16.9181 539.181 16.6264C539.178 16.3613 539.1 16.1425 538.948 15.9702C538.795 15.7945 538.581 15.6487 538.306 15.5327C538.035 15.4134 537.716 15.3073 537.352 15.2145L536.193 14.9162C535.355 14.7008 534.692 14.3743 534.205 13.9368C533.721 13.496 533.479 12.911 533.479 12.1818C533.479 11.5819 533.641 11.0566 533.966 10.6058C534.294 10.1551 534.74 9.8054 535.304 9.55682C535.867 9.30492 536.505 9.17898 537.218 9.17898C537.94 9.17898 538.573 9.30492 539.117 9.55682C539.664 9.8054 540.093 10.1518 540.404 10.5959C540.716 11.0367 540.877 11.5438 540.887 12.1172H539.112Z" fill="#F1EFEF"/>
<path d="M545.393 18.5L548.971 11.4219V11.3594H544.846V10.5H549.971V11.4062L546.409 18.5H545.393ZM553.622 17.0938V11.9375H554.497V17.0938H553.622ZM551.481 14.9531V14.0781H556.637V14.9531H551.481Z" fill="#C6C6C8"/>
<rect x="568" width="108" height="28" rx="6" fill="#3C46C9"/>
<rect x="574" y="5" width="18" height="18" rx="3.5" fill="#F1EFEF"/>
<path opacity="0.4" d="M579.562 17.4375C578 17.4375 576.75 16.5 576.75 14.3125C576.75 11.8125 578.625 10.5625 583 10.5625C587.375 10.5625 589.25 11.8125 589.25 14.3125C589.25 16.5 588 17.4375 586.438 17.4375C584.875 17.4375 583.938 15.875 583 15.875C582.062 15.875 581.125 17.4375 579.562 17.4375Z" fill="#3C46C9"/>
<path d="M579.562 17.4375C578 17.4375 576.75 16.5 576.75 14.3125C576.75 11.8125 578.625 10.5625 583 10.5625C587.375 10.5625 589.25 11.8125 589.25 14.3125C589.25 16.5 588 17.4375 586.438 17.4375C584.875 17.4375 583.938 15.875 583 15.875C582.062 15.875 581.125 17.4375 579.562 17.4375Z" stroke="#3C46C9" stroke-width="1.25" stroke-linecap="round"/>
<path d="M603.964 11.8636L601.245 19.5H599.256L596.537 11.8636H598.456L600.211 17.5362H600.29L602.05 11.8636H603.964ZM605 19.5V11.8636H606.799V19.5H605ZM605.904 10.7798C605.619 10.7798 605.374 10.6854 605.169 10.4964C604.963 10.3042 604.86 10.0739 604.86 9.8054C604.86 9.53362 604.963 9.30327 605.169 9.11435C605.374 8.92211 605.619 8.82599 605.904 8.82599C606.193 8.82599 606.438 8.92211 606.64 9.11435C606.846 9.30327 606.948 9.53362 606.948 9.8054C606.948 10.0739 606.846 10.3042 606.64 10.4964C606.438 10.6854 606.193 10.7798 605.904 10.7798ZM614.475 13.8821L612.835 14.0611C612.788 13.8954 612.707 13.7396 612.591 13.5938C612.479 13.4479 612.326 13.3303 612.134 13.2408C611.942 13.1513 611.706 13.1065 611.428 13.1065C611.053 13.1065 610.738 13.1877 610.483 13.3501C610.231 13.5125 610.107 13.723 610.11 13.9815C610.107 14.2036 610.188 14.3842 610.354 14.5234C610.523 14.6626 610.801 14.777 611.189 14.8665L612.492 15.1449C613.214 15.3007 613.751 15.5476 614.103 15.8857C614.457 16.2237 614.636 16.6662 614.639 17.2131C614.636 17.6937 614.495 18.1179 614.217 18.4858C613.942 18.8504 613.559 19.1354 613.068 19.3409C612.578 19.5464 612.014 19.6491 611.378 19.6491C610.443 19.6491 609.691 19.4536 609.121 19.0625C608.551 18.6681 608.211 18.1196 608.102 17.4169L609.857 17.2479C609.936 17.5926 610.105 17.8527 610.364 18.0284C610.622 18.2041 610.959 18.2919 611.373 18.2919C611.801 18.2919 612.144 18.2041 612.402 18.0284C612.664 17.8527 612.795 17.6357 612.795 17.3771C612.795 17.1584 612.711 16.9777 612.541 16.8352C612.376 16.6927 612.117 16.5833 611.766 16.5071L610.463 16.2337C609.731 16.0812 609.189 15.8243 608.838 15.4631C608.486 15.0985 608.312 14.6378 608.316 14.081C608.312 13.6103 608.44 13.2027 608.698 12.858C608.96 12.5099 609.323 12.2415 609.787 12.0526C610.255 11.8603 610.793 11.7642 611.403 11.7642C612.298 11.7642 613.002 11.9548 613.516 12.3359C614.033 12.7171 614.353 13.2325 614.475 13.8821ZM615.914 19.5V11.8636H617.713V19.5H615.914ZM616.818 10.7798C616.533 10.7798 616.288 10.6854 616.083 10.4964C615.877 10.3042 615.774 10.0739 615.774 9.8054C615.774 9.53362 615.877 9.30327 616.083 9.11435C616.288 8.92211 616.533 8.82599 616.818 8.82599C617.107 8.82599 617.352 8.92211 617.554 9.11435C617.76 9.30327 617.862 9.53362 617.862 9.8054C617.862 10.0739 617.76 10.3042 617.554 10.4964C617.352 10.6854 617.107 10.7798 616.818 10.7798ZM622.685 19.6491C621.939 19.6491 621.293 19.4851 620.746 19.157C620.199 18.8288 619.775 18.3698 619.473 17.7798C619.175 17.1899 619.026 16.5005 619.026 15.7116C619.026 14.9228 619.175 14.2318 619.473 13.6385C619.775 13.0452 620.199 12.5845 620.746 12.2564C621.293 11.9283 621.939 11.7642 622.685 11.7642C623.431 11.7642 624.077 11.9283 624.624 12.2564C625.171 12.5845 625.593 13.0452 625.892 13.6385C626.193 14.2318 626.344 14.9228 626.344 15.7116C626.344 16.5005 626.193 17.1899 625.892 17.7798C625.593 18.3698 625.171 18.8288 624.624 19.157C624.077 19.4851 623.431 19.6491 622.685 19.6491ZM622.695 18.2074C623.099 18.2074 623.437 18.0964 623.709 17.8743C623.981 17.6489 624.183 17.3473 624.316 16.9695C624.451 16.5916 624.519 16.1707 624.519 15.7067C624.519 15.2393 624.451 14.8168 624.316 14.4389C624.183 14.0578 623.981 13.7545 623.709 13.5291C623.437 13.3037 623.099 13.1911 622.695 13.1911C622.281 13.1911 621.936 13.3037 621.661 13.5291C621.389 13.7545 621.185 14.0578 621.049 14.4389C620.917 14.8168 620.85 15.2393 620.85 15.7067C620.85 16.1707 620.917 16.5916 621.049 16.9695C621.185 17.3473 621.389 17.6489 621.661 17.8743C621.936 18.0964 622.281 18.2074 622.695 18.2074ZM629.461 15.0256V19.5H627.661V11.8636H629.382V13.1612H629.471C629.647 12.7337 629.927 12.3939 630.311 12.142C630.699 11.8902 631.178 11.7642 631.748 11.7642C632.275 11.7642 632.734 11.8769 633.125 12.1023C633.52 12.3277 633.825 12.6541 634.04 13.0817C634.259 13.5092 634.366 14.0279 634.363 14.6378V19.5H632.563V14.9162C632.563 14.4058 632.431 14.0064 632.166 13.718C631.904 13.4297 631.541 13.2855 631.077 13.2855C630.762 13.2855 630.482 13.3551 630.237 13.4943C629.995 13.6302 629.804 13.8274 629.665 14.0859C629.529 14.3445 629.461 14.6577 629.461 15.0256ZM645.16 14.4091C645.16 15.5062 644.955 16.4458 644.544 17.228C644.136 18.0069 643.579 18.6035 642.873 19.0178C642.171 19.4321 641.374 19.6392 640.482 19.6392C639.59 19.6392 638.792 19.4321 638.086 19.0178C637.383 18.6001 636.826 18.0019 636.415 17.223C636.008 16.4408 635.804 15.5028 635.804 14.4091C635.804 13.312 636.008 12.3741 636.415 11.5952C636.826 10.813 637.383 10.2147 638.086 9.80043C638.792 9.38613 639.59 9.17898 640.482 9.17898C641.374 9.17898 642.171 9.38613 642.873 9.80043C643.579 10.2147 644.136 10.813 644.544 11.5952C644.955 12.3741 645.16 13.312 645.16 14.4091ZM643.306 14.4091C643.306 13.6368 643.185 12.9856 642.943 12.4553C642.704 11.9216 642.373 11.5189 641.949 11.2472C641.524 10.9721 641.036 10.8345 640.482 10.8345C639.929 10.8345 639.44 10.9721 639.015 11.2472C638.591 11.5189 638.258 11.9216 638.016 12.4553C637.777 12.9856 637.658 13.6368 637.658 14.4091C637.658 15.1813 637.777 15.8343 638.016 16.3679C638.258 16.8982 638.591 17.3009 639.015 17.576C639.44 17.8478 639.929 17.9837 640.482 17.9837C641.036 17.9837 641.524 17.8478 641.949 17.576C642.373 17.3009 642.704 16.8982 642.943 16.3679C643.185 15.8343 643.306 15.1813 643.306 14.4091ZM652.227 12.1172C652.181 11.683 651.985 11.3449 651.641 11.103C651.299 10.861 650.855 10.7401 650.308 10.7401C649.924 10.7401 649.594 10.7981 649.319 10.9141C649.044 11.0301 648.834 11.1875 648.688 11.3864C648.542 11.5852 648.467 11.8123 648.464 12.0675C648.464 12.2796 648.512 12.4635 648.608 12.6193C648.708 12.7751 648.842 12.9077 649.011 13.017C649.18 13.1231 649.367 13.2126 649.573 13.2855C649.778 13.3584 649.985 13.4197 650.194 13.4695L651.149 13.7081C651.533 13.7976 651.903 13.9186 652.257 14.071C652.615 14.2235 652.935 14.4157 653.217 14.6477C653.502 14.8797 653.727 15.1598 653.893 15.4879C654.059 15.8161 654.142 16.2005 654.142 16.6413C654.142 17.2379 653.989 17.7633 653.684 18.2173C653.379 18.6681 652.938 19.0211 652.362 19.2763C651.788 19.5282 651.094 19.6541 650.279 19.6541C649.486 19.6541 648.799 19.5315 648.215 19.2862C647.635 19.041 647.181 18.683 646.853 18.2124C646.528 17.7417 646.353 17.1683 646.326 16.4922H648.141C648.167 16.8468 648.277 17.1418 648.469 17.3771C648.661 17.6125 648.911 17.7881 649.22 17.9041C649.531 18.0201 649.879 18.0781 650.264 18.0781C650.665 18.0781 651.016 18.0185 651.318 17.8991C651.623 17.7765 651.861 17.6075 652.034 17.392C652.206 17.1733 652.294 16.9181 652.297 16.6264C652.294 16.3613 652.216 16.1425 652.063 15.9702C651.911 15.7945 651.697 15.6487 651.422 15.5327C651.15 15.4134 650.832 15.3073 650.468 15.2145L649.309 14.9162C648.471 14.7008 647.808 14.3743 647.32 13.9368C646.837 13.496 646.595 12.911 646.595 12.1818C646.595 11.5819 646.757 11.0566 647.082 10.6058C647.41 10.1551 647.856 9.8054 648.419 9.55682C648.983 9.30492 649.621 9.17898 650.333 9.17898C651.056 9.17898 651.689 9.30492 652.232 9.55682C652.779 9.8054 653.209 10.1518 653.52 10.5959C653.832 11.0367 653.992 11.5438 654.002 12.1172H652.227Z" fill="#F1EFEF"/>
<path d="M661.041 10.5V18.5H660.072V11.5156H660.025L658.072 12.8125V11.8281L660.072 10.5H661.041ZM665.536 17.0938V11.9375H666.411V17.0938H665.536ZM663.396 14.9531V14.0781H668.552V14.9531H663.396Z" fill="#C6C6C8"/>
<rect x="108" y="32" width="139" height="28" rx="6" fill="#006AB2"/>
<rect x="114" y="37" width="18" height="18" rx="3.5" fill="#F1EFEF"/>
<path d="M126.088 42.7165V39.7162C126.091 39.6109 126.179 39.5287 126.284 39.5303C127.307 39.5923 128.237 39.6824 129.032 39.7944L129.035 39.7951C129.109 39.8039 129.171 39.856 129.195 39.9268L129.195 39.9267L129.196 39.9299C129.198 39.9376 129.2 39.9453 129.201 39.9532L129.203 39.9597C129.206 39.9804 129.209 40.004 129.213 40.0313C129.311 40.696 129.413 41.7453 129.467 42.6972C129.467 42.6972 129.479 42.9095 129.266 42.9095H126.281C126.174 42.9095 126.088 42.8232 126.088 42.7165ZM126.088 39.7032L126.088 39.7162V39.7101L126.088 39.7032H126.088Z" fill="#006AB2"/>
<path d="M119.91 52.2805V49.0874V49.2805C119.91 49.1738 119.824 49.0874 119.717 49.0874H116.732C116.519 49.0874 116.531 49.3 116.531 49.3C116.585 50.2517 116.687 51.3012 116.785 51.966C116.789 51.9935 116.793 52.0175 116.796 52.0384L116.797 52.0442C116.798 52.0522 116.8 52.0599 116.802 52.0676L116.803 52.0708H116.803C116.827 52.1409 116.888 52.1923 116.961 52.2019C117.757 52.3145 118.69 52.4048 119.716 52.467C119.82 52.4678 119.907 52.3854 119.91 52.2805Z" fill="#006AB2"/>
<path d="M123.387 42.697C123.387 42.697 123.387 42.9098 123.599 42.9098H125.104C125.104 42.9098 125.317 42.9098 125.317 42.697V39.6941C125.317 39.6941 125.317 39.4811 125.105 39.4726C124.698 39.4557 124.052 39.4405 123.599 39.4375C123.599 39.4375 123.387 39.4362 123.387 39.6491V42.697Z" fill="#006AB2"/>
<path d="M122.998 52.3498V49.1518V49.2805C122.998 49.174 122.912 49.0874 122.805 49.0874H122.934H120.895C120.895 49.0874 120.682 49.0874 120.682 49.3003V52.3032C120.682 52.3032 120.682 52.5161 120.894 52.5248C121.42 52.5464 122.197 52.5626 122.786 52.5626C122.786 52.5626 122.998 52.5626 122.998 52.3498Z" fill="#006AB2"/>
<path d="M120.682 42.697C120.682 42.697 120.682 42.9098 120.895 42.9098H122.399C122.399 42.9098 122.612 42.9098 122.612 42.697V39.6489C122.612 39.6489 122.612 39.436 122.399 39.4375C121.947 39.4405 121.301 39.456 120.894 39.4727C120.894 39.4727 120.682 39.4814 120.682 39.6942V42.697Z" fill="#006AB2"/>
<path d="M116.694 48.3156H119.697C119.697 48.3156 119.91 48.3156 119.91 48.1027V46.5976C119.91 46.5976 119.91 46.3848 119.697 46.3848H116.649C116.649 46.3848 116.436 46.3848 116.438 46.5976C116.44 47.05 116.456 47.696 116.473 48.1027C116.473 48.1027 116.482 48.3156 116.694 48.3156Z" fill="#006AB2"/>
<path d="M116.438 45.3999C116.438 45.3999 116.436 45.6127 116.649 45.6127H119.697C119.697 45.6127 119.91 45.6127 119.91 45.3999V43.8949C119.91 43.8949 119.91 43.6821 119.697 43.6821H116.694C116.694 43.6821 116.481 43.6821 116.473 43.8947C116.456 44.3014 116.44 44.9477 116.438 45.3999Z" fill="#006AB2"/>
<path d="M119.91 42.7165V39.7162C119.907 39.6109 119.819 39.5287 119.714 39.5303C118.691 39.5923 117.761 39.6824 116.966 39.7944L116.963 39.7951C116.889 39.8039 116.827 39.856 116.803 39.9268L116.803 39.9267L116.802 39.9299C116.8 39.9376 116.798 39.9453 116.797 39.9532L116.795 39.9597C116.792 39.9804 116.789 40.004 116.785 40.0313C116.687 40.696 116.585 41.7453 116.531 42.6972C116.531 42.6972 116.519 42.9095 116.732 42.9095H119.717C119.824 42.9095 119.91 42.8232 119.91 42.7165ZM119.91 39.7032L119.91 39.7162V39.7101L119.91 39.7032H119.91Z" fill="#006AB2"/>
<path d="M126.088 48.3287C126.088 48.3287 126.088 48.5415 126.238 48.692C126.238 48.692 126.088 48.5415 129.097 51.5508C129.097 51.5508 129.247 51.7011 129.274 51.49C129.421 50.3435 129.533 48.6399 129.555 46.9837C129.555 46.9837 129.558 46.771 129.345 46.771H126.259C126.259 46.771 126.088 46.771 126.088 46.9424V48.3287Z" fill="#006AB2"/>
<path d="M129.563 45.809C129.56 45.0759 129.545 44.379 129.525 43.8947C129.525 43.8947 129.516 43.6821 129.304 43.6821H126.301C126.301 43.6821 126.088 43.6821 126.088 43.8949V45.7859C126.088 45.7859 126.088 45.9987 126.301 45.9987H129.37C129.475 45.9987 129.561 45.9141 129.563 45.809Z" fill="#006AB2"/>
<path d="M128.551 52.0968C126.478 50.0239 125.833 49.379 125.633 49.1784C125.569 49.1171 125.497 49.0835 125.435 49.0878V49.0876H123.984C123.984 49.0876 123.771 49.0876 123.771 49.3006V52.3449C123.771 52.3449 123.771 52.5577 123.984 52.555C125.641 52.5331 127.344 52.4206 128.491 52.2742C128.491 52.2742 128.702 52.2471 128.551 52.0968Z" fill="#006AB2"/>
<path d="M137.084 41.3182H139.341L142.364 48.696H142.483L145.506 41.3182H147.763V51.5H145.993V44.505H145.899L143.085 51.4702H141.762L138.948 44.4901H138.854V51.5H137.084V41.3182ZM151.68 51.6541C151.196 51.6541 150.76 51.5679 150.372 51.3956C149.988 51.2199 149.683 50.9614 149.457 50.62C149.235 50.2786 149.124 49.8577 149.124 49.3572C149.124 48.9264 149.204 48.5701 149.363 48.2884C149.522 48.0066 149.739 47.7812 150.014 47.6122C150.289 47.4432 150.599 47.3156 150.944 47.2294C151.292 47.1399 151.651 47.0753 152.023 47.0355C152.47 46.9891 152.833 46.9477 153.111 46.9112C153.39 46.8714 153.592 46.8118 153.718 46.7322C153.847 46.6494 153.912 46.5218 153.912 46.3494V46.3196C153.912 45.9451 153.801 45.6551 153.579 45.4496C153.357 45.2441 153.037 45.1413 152.619 45.1413C152.178 45.1413 151.829 45.2375 151.57 45.4297C151.315 45.6219 151.143 45.849 151.053 46.1108L149.373 45.8722C149.505 45.4081 149.724 45.0204 150.029 44.7088C150.334 44.3939 150.707 44.1586 151.148 44.0028C151.588 43.8438 152.076 43.7642 152.609 43.7642C152.977 43.7642 153.343 43.8073 153.708 43.8935C154.072 43.9796 154.406 44.1222 154.707 44.321C155.009 44.5166 155.251 44.7834 155.433 45.1214C155.619 45.4595 155.711 45.8821 155.711 46.3892V51.5H153.981V50.451H153.922C153.812 50.6631 153.658 50.862 153.459 51.0476C153.264 51.2299 153.017 51.3774 152.719 51.4901C152.424 51.5994 152.077 51.6541 151.68 51.6541ZM152.147 50.3317C152.508 50.3317 152.821 50.2604 153.086 50.1179C153.352 49.9721 153.555 49.7798 153.698 49.5412C153.844 49.3026 153.917 49.0424 153.917 48.7607V47.8608C153.86 47.9072 153.764 47.9503 153.628 47.9901C153.496 48.0298 153.347 48.0646 153.181 48.0945C153.015 48.1243 152.851 48.1508 152.689 48.174C152.526 48.1972 152.385 48.2171 152.266 48.2337C151.998 48.2701 151.757 48.3298 151.545 48.4126C151.333 48.4955 151.166 48.6115 151.043 48.7607C150.921 48.9065 150.859 49.0954 150.859 49.3274C150.859 49.6589 150.98 49.9091 151.222 50.0781C151.464 50.2472 151.772 50.3317 152.147 50.3317ZM160.145 51.6342C159.545 51.6342 159.008 51.4801 158.534 51.1719C158.06 50.8636 157.686 50.4162 157.411 49.8295C157.135 49.2429 156.998 48.5303 156.998 47.6918C156.998 46.8433 157.137 46.1274 157.416 45.544C157.697 44.9574 158.077 44.5149 158.554 44.2166C159.031 43.915 159.563 43.7642 160.15 43.7642C160.597 43.7642 160.965 43.8404 161.254 43.9929C161.542 44.142 161.771 44.3227 161.94 44.5348C162.109 44.7436 162.24 44.9408 162.332 45.1264H162.407V41.3182H164.212V51.5H162.442V50.2969H162.332C162.24 50.4825 162.105 50.6797 161.93 50.8885C161.754 51.094 161.522 51.2696 161.234 51.4155C160.945 51.5613 160.582 51.6342 160.145 51.6342ZM160.647 50.1577C161.028 50.1577 161.353 50.0549 161.621 49.8494C161.89 49.6406 162.094 49.3506 162.233 48.9794C162.372 48.6082 162.442 48.1757 162.442 47.6818C162.442 47.188 162.372 46.7588 162.233 46.3942C162.097 46.0296 161.895 45.7462 161.626 45.544C161.361 45.3419 161.035 45.2408 160.647 45.2408C160.246 45.2408 159.911 45.3452 159.643 45.554C159.374 45.7628 159.172 46.0511 159.036 46.419C158.9 46.7869 158.832 47.2079 158.832 47.6818C158.832 48.1591 158.9 48.585 159.036 48.9595C159.175 49.3307 159.379 49.6241 159.648 49.8395C159.92 50.0516 160.253 50.1577 160.647 50.1577ZM169.3 51.6491C168.535 51.6491 167.873 51.4901 167.317 51.1719C166.763 50.8504 166.337 50.3963 166.039 49.8097C165.741 49.2197 165.591 48.5253 165.591 47.7266C165.591 46.9411 165.741 46.2517 166.039 45.6584C166.34 45.0618 166.761 44.5978 167.302 44.2663C167.842 43.9316 168.477 43.7642 169.206 43.7642C169.676 43.7642 170.12 43.8404 170.538 43.9929C170.959 44.142 171.33 44.3741 171.652 44.6889C171.977 45.0038 172.232 45.4048 172.417 45.892C172.603 46.3759 172.696 46.9527 172.696 47.6222V48.174H166.437V46.9609H170.971C170.967 46.6162 170.893 46.3097 170.747 46.0412C170.601 45.7694 170.397 45.5556 170.135 45.3999C169.877 45.2441 169.575 45.1662 169.231 45.1662C168.863 45.1662 168.54 45.2557 168.261 45.4347C167.983 45.6103 167.766 45.8423 167.61 46.1307C167.457 46.4157 167.379 46.7289 167.376 47.0703V48.1293C167.376 48.5734 167.457 48.9545 167.62 49.2727C167.782 49.5876 168.009 49.8295 168.301 49.9986C168.593 50.1643 168.934 50.2472 169.325 50.2472C169.587 50.2472 169.824 50.2107 170.036 50.1378C170.248 50.0616 170.432 49.9505 170.588 49.8047C170.744 49.6589 170.861 49.4782 170.941 49.2628L172.621 49.4517C172.515 49.8958 172.313 50.2836 172.015 50.6151C171.72 50.9432 171.342 51.1984 170.881 51.3807C170.42 51.5597 169.893 51.6491 169.3 51.6491ZM177.271 51.5V43.8636H179.071V51.5H177.271ZM178.176 42.7798C177.891 42.7798 177.645 42.6854 177.44 42.4964C177.235 42.3042 177.132 42.0739 177.132 41.8054C177.132 41.5336 177.235 41.3033 177.44 41.1143C177.645 40.9221 177.891 40.826 178.176 40.826C178.464 40.826 178.709 40.9221 178.912 41.1143C179.117 41.3033 179.22 41.5336 179.22 41.8054C179.22 42.0739 179.117 42.3042 178.912 42.4964C178.709 42.6854 178.464 42.7798 178.176 42.7798ZM182.511 47.0256V51.5H180.711V43.8636H182.432V45.1612H182.521C182.697 44.7337 182.977 44.3939 183.361 44.142C183.749 43.8902 184.228 43.7642 184.798 43.7642C185.325 43.7642 185.784 43.8769 186.175 44.1023C186.57 44.3277 186.874 44.6541 187.09 45.0817C187.309 45.5092 187.416 46.0279 187.413 46.6378V51.5H185.613V46.9162C185.613 46.4058 185.481 46.0064 185.216 45.718C184.954 45.4297 184.591 45.2855 184.127 45.2855C183.812 45.2855 183.532 45.3551 183.287 45.4943C183.045 45.6302 182.854 45.8274 182.715 46.0859C182.579 46.3445 182.511 46.6577 182.511 47.0256ZM192.375 51.5V41.3182H194.219V45.9964H194.344L198.316 41.3182H200.568L196.63 45.8871L200.603 51.5H198.385L195.348 47.1349L194.219 48.4673V51.5H192.375ZM201.56 51.5V43.8636H203.305V45.1364H203.384C203.524 44.6955 203.762 44.3558 204.1 44.1172C204.442 43.8752 204.831 43.7543 205.269 43.7543C205.368 43.7543 205.479 43.7592 205.602 43.7692C205.728 43.7758 205.832 43.7874 205.915 43.804V45.4595C205.839 45.433 205.718 45.4098 205.552 45.3899C205.39 45.3667 205.232 45.3551 205.08 45.3551C204.752 45.3551 204.457 45.4264 204.195 45.5689C203.936 45.7081 203.732 45.902 203.583 46.1506C203.434 46.3991 203.36 46.6858 203.36 47.0107V51.5H201.56ZM208.961 51.6541C208.477 51.6541 208.042 51.5679 207.654 51.3956C207.269 51.2199 206.964 50.9614 206.739 50.62C206.517 50.2786 206.406 49.8577 206.406 49.3572C206.406 48.9264 206.486 48.5701 206.645 48.2884C206.804 48.0066 207.021 47.7812 207.296 47.6122C207.571 47.4432 207.881 47.3156 208.226 47.2294C208.574 47.1399 208.933 47.0753 209.304 47.0355C209.752 46.9891 210.115 46.9477 210.393 46.9112C210.672 46.8714 210.874 46.8118 211 46.7322C211.129 46.6494 211.194 46.5218 211.194 46.3494V46.3196C211.194 45.9451 211.083 45.6551 210.861 45.4496C210.638 45.2441 210.319 45.1413 209.901 45.1413C209.46 45.1413 209.111 45.2375 208.852 45.4297C208.597 45.6219 208.424 45.849 208.335 46.1108L206.655 45.8722C206.787 45.4081 207.006 45.0204 207.311 44.7088C207.616 44.3939 207.989 44.1586 208.429 44.0028C208.87 43.8438 209.357 43.7642 209.891 43.7642C210.259 43.7642 210.625 43.8073 210.99 43.8935C211.354 43.9796 211.687 44.1222 211.989 44.321C212.291 44.5166 212.533 44.7834 212.715 45.1214C212.901 45.4595 212.993 45.8821 212.993 46.3892V51.5H211.263V50.451H211.204C211.094 50.6631 210.94 50.862 210.741 51.0476C210.546 51.2299 210.299 51.3774 210 51.4901C209.705 51.5994 209.359 51.6541 208.961 51.6541ZM209.429 50.3317C209.79 50.3317 210.103 50.2604 210.368 50.1179C210.633 49.9721 210.837 49.7798 210.98 49.5412C211.126 49.3026 211.199 49.0424 211.199 48.7607V47.8608C211.142 47.9072 211.046 47.9503 210.91 47.9901C210.778 48.0298 210.629 48.0646 210.463 48.0945C210.297 48.1243 210.133 48.1508 209.971 48.174C209.808 48.1972 209.667 48.2171 209.548 48.2337C209.28 48.2701 209.039 48.3298 208.827 48.4126C208.615 48.4955 208.448 48.6115 208.325 48.7607C208.202 48.9065 208.141 49.0954 208.141 49.3274C208.141 49.6589 208.262 49.9091 208.504 50.0781C208.746 50.2472 209.054 50.3317 209.429 50.3317ZM216.234 49.1037L216.229 46.9311H216.517L219.261 43.8636H221.364L217.989 47.6222H217.616L216.234 49.1037ZM214.593 51.5V41.3182H216.393V51.5H214.593ZM219.386 51.5L216.9 48.0249L218.113 46.7571L221.538 51.5H219.386ZM225.37 51.6491C224.624 51.6491 223.978 51.4851 223.431 51.157C222.884 50.8288 222.46 50.3698 222.159 49.7798C221.86 49.1899 221.711 48.5005 221.711 47.7116C221.711 46.9228 221.86 46.2318 222.159 45.6385C222.46 45.0452 222.884 44.5845 223.431 44.2564C223.978 43.9283 224.624 43.7642 225.37 43.7642C226.116 43.7642 226.762 43.9283 227.309 44.2564C227.856 44.5845 228.279 45.0452 228.577 45.6385C228.879 46.2318 229.029 46.9228 229.029 47.7116C229.029 48.5005 228.879 49.1899 228.577 49.7798C228.279 50.3698 227.856 50.8288 227.309 51.157C226.762 51.4851 226.116 51.6491 225.37 51.6491ZM225.38 50.2074C225.785 50.2074 226.123 50.0964 226.394 49.8743C226.666 49.6489 226.868 49.3473 227.001 48.9695C227.137 48.5916 227.205 48.1707 227.205 47.7067C227.205 47.2393 227.137 46.8168 227.001 46.4389C226.868 46.0578 226.666 45.7545 226.394 45.5291C226.123 45.3037 225.785 45.1911 225.38 45.1911C224.966 45.1911 224.621 45.3037 224.346 45.5291C224.074 45.7545 223.87 46.0578 223.735 46.4389C223.602 46.8168 223.536 47.2393 223.536 47.7067C223.536 48.1707 223.602 48.5916 223.735 48.9695C223.87 49.3473 224.074 49.6489 224.346 49.8743C224.621 50.0964 224.966 50.2074 225.38 50.2074ZM224.679 42.8594L225.793 40.5874H227.553L226.026 42.8594H224.679ZM231.704 51.5L229.546 43.8636H231.381L232.723 49.233H232.793L234.165 43.8636H235.98L237.352 49.2031H237.426L238.749 43.8636H240.588L238.426 51.5H236.551L235.12 46.3395H235.015L233.583 51.5H231.704Z" fill="#F1EFEF"/>
<rect x="251" y="32" width="149" height="28" rx="6" fill="#3C46C9"/>
<rect x="257" y="37" width="18" height="18" rx="3.5" fill="#F1EFEF"/>
<path opacity="0.4" fill-rule="evenodd" clip-rule="evenodd" d="M271.889 43.5C271.937 44.2048 271.938 45.0711 271.938 46.152V46.473C271.938 49.1963 271.938 50.5579 271.155 51.404C270.372 52.25 269.113 52.25 266.594 52.25H265.406C262.887 52.25 261.628 52.25 260.845 51.404C260.062 50.5579 260.062 49.1963 260.062 46.473V46.152C260.062 45.0711 260.062 44.2048 260.111 43.5H271.889ZM266 46.3125C266.542 46.3125 267.02 46.5888 267.3 47.0082C267.466 47.2563 267.562 47.5543 267.562 47.875C267.562 48.1957 267.466 48.4938 267.3 48.7419C267.02 49.1613 266.542 49.4375 266 49.4375C265.458 49.4375 264.98 49.1613 264.7 48.7419C264.534 48.4938 264.438 48.1957 264.438 47.875C264.438 47.5543 264.534 47.2563 264.7 47.0082C264.98 46.5888 265.458 46.3125 266 46.3125Z" fill="#3C46C9"/>
<path d="M269.75 39.75V41M262.25 39.75V41" stroke="#3C46C9" stroke-width="1.25" stroke-linecap="round" stroke-linejoin="round"/>
<path d="M260.375 43.5H271.625" stroke="#3C46C9" stroke-width="1.25" stroke-linecap="round" stroke-linejoin="round"/>
<path d="M260.062 46.152C260.062 43.4287 260.062 42.0671 260.845 41.221C261.628 40.375 262.887 40.375 265.406 40.375H266.594C269.113 40.375 270.372 40.375 271.155 41.221C271.938 42.0671 271.938 43.4287 271.938 46.152V46.473C271.938 49.1963 271.938 50.5579 271.155 51.404C270.372 52.25 269.113 52.25 266.594 52.25H265.406C262.887 52.25 261.628 52.25 260.845 51.404C260.062 50.5579 260.062 49.1963 260.062 46.473V46.152Z" stroke="#3C46C9" stroke-width="1.25" stroke-linecap="round" stroke-linejoin="round"/>
<path d="M266 49.4375V50.0625M266 49.4375C265.458 49.4375 264.98 49.1613 264.7 48.7419M266 49.4375C266.542 49.4375 267.02 49.1613 267.3 48.7419M264.7 48.7419L264.125 49.125M264.7 48.7419C264.534 48.4938 264.438 48.1957 264.438 47.875C264.438 47.5543 264.534 47.2563 264.7 47.0082M267.3 48.7419L267.875 49.125M267.3 48.7419C267.466 48.4938 267.562 48.1957 267.562 47.875C267.562 47.5543 267.466 47.2563 267.3 47.0082M266 46.3125C266.542 46.3125 267.02 46.5888 267.3 47.0082M266 46.3125C265.458 46.3125 264.98 46.5888 264.7 47.0082M266 46.3125V45.6875M267.3 47.0082L267.875 46.625M264.7 47.0082L264.125 46.625" stroke="#3C46C9" stroke-width="1.25" stroke-linecap="round"/>
<path d="M283.584 51.6392C282.869 51.6392 282.232 51.5166 281.675 51.2713C281.122 51.026 280.684 50.6847 280.363 50.2472C280.041 49.8097 279.871 49.3042 279.851 48.7308H281.72C281.737 49.0059 281.828 49.2462 281.994 49.4517C282.159 49.6539 282.38 49.8113 282.655 49.924C282.93 50.0367 283.238 50.093 283.579 50.093C283.944 50.093 284.267 50.0301 284.549 49.9041C284.831 49.7749 285.051 49.5959 285.21 49.3672C285.369 49.1385 285.447 48.875 285.444 48.5767C285.447 48.2685 285.368 47.9967 285.205 47.7614C285.043 47.526 284.807 47.3421 284.499 47.2095C284.194 47.0769 283.826 47.0107 283.395 47.0107H282.496V45.5888H283.395C283.75 45.5888 284.06 45.5275 284.325 45.4048C284.594 45.2822 284.804 45.1098 284.957 44.8878C285.109 44.6624 285.184 44.4022 285.18 44.1072C285.184 43.8189 285.119 43.5687 284.986 43.3565C284.857 43.1411 284.673 42.9737 284.435 42.8544C284.199 42.7351 283.922 42.6754 283.604 42.6754C283.293 42.6754 283.004 42.7318 282.739 42.8445C282.474 42.9571 282.26 43.1179 282.098 43.3267C281.936 43.5322 281.849 43.7775 281.839 44.0625H280.065C280.078 43.4924 280.242 42.992 280.557 42.5611C280.875 42.1269 281.299 41.7888 281.829 41.5469C282.36 41.3016 282.955 41.179 283.614 41.179C284.294 41.179 284.884 41.3066 285.384 41.5618C285.888 41.8137 286.277 42.1534 286.552 42.581C286.828 43.0085 286.965 43.4808 286.965 43.9979C286.968 44.5713 286.799 45.0518 286.458 45.4396C286.12 45.8274 285.676 46.081 285.126 46.2003V46.2798C285.842 46.3793 286.39 46.6444 286.771 47.0753C287.156 47.5028 287.346 48.0348 287.343 48.6712C287.343 49.2412 287.181 49.7517 286.856 50.2024C286.534 50.6499 286.09 51.0012 285.523 51.2564C284.96 51.5116 284.314 51.6392 283.584 51.6392ZM289.667 51.6094C289.366 51.6094 289.107 51.5033 288.892 51.2912C288.676 51.0791 288.57 50.8205 288.573 50.5156C288.57 50.2173 288.676 49.9621 288.892 49.75C289.107 49.5379 289.366 49.4318 289.667 49.4318C289.959 49.4318 290.212 49.5379 290.428 49.75C290.647 49.9621 290.758 50.2173 290.761 50.5156C290.758 50.7178 290.705 50.9018 290.602 51.0675C290.502 51.2332 290.37 51.3658 290.204 51.4652C290.042 51.5613 289.863 51.6094 289.667 51.6094ZM295.273 41.3182V51.5H293.428V43.1129H293.369L290.987 44.6342V42.9439L293.518 41.3182H295.273ZM298.216 51.6094C297.914 51.6094 297.656 51.5033 297.44 51.2912C297.225 51.0791 297.119 50.8205 297.122 50.5156C297.119 50.2173 297.225 49.9621 297.44 49.75C297.656 49.5379 297.914 49.4318 298.216 49.4318C298.508 49.4318 298.761 49.5379 298.977 49.75C299.195 49.9621 299.306 50.2173 299.31 50.5156C299.306 50.7178 299.253 50.9018 299.151 51.0675C299.051 51.2332 298.919 51.3658 298.753 51.4652C298.59 51.5613 298.412 51.6094 298.216 51.6094ZM304.305 51.6939C303.486 51.6939 302.784 51.4867 302.197 51.0724C301.614 50.6548 301.165 50.0533 300.85 49.2678C300.538 48.4789 300.382 47.5294 300.382 46.419C300.386 45.3087 300.543 44.3641 300.855 43.5852C301.17 42.803 301.619 42.2064 302.202 41.7955C302.789 41.3845 303.49 41.179 304.305 41.179C305.12 41.179 305.821 41.3845 306.408 41.7955C306.995 42.2064 307.444 42.803 307.755 43.5852C308.07 44.3674 308.228 45.312 308.228 46.419C308.228 47.5327 308.07 48.4839 307.755 49.2727C307.444 50.0582 306.995 50.6581 306.408 51.0724C305.825 51.4867 305.124 51.6939 304.305 51.6939ZM304.305 50.1378C304.941 50.1378 305.443 49.8246 305.811 49.1982C306.183 48.5684 306.368 47.642 306.368 46.419C306.368 45.6103 306.284 44.9309 306.115 44.3807C305.946 43.8305 305.707 43.4162 305.399 43.1378C305.09 42.8561 304.726 42.7152 304.305 42.7152C303.672 42.7152 303.171 43.0301 302.804 43.6598C302.436 44.2862 302.25 45.206 302.247 46.419C302.243 47.2311 302.325 47.9138 302.49 48.4673C302.659 49.0208 302.898 49.4384 303.206 49.7202C303.514 49.9986 303.881 50.1378 304.305 50.1378Z" fill="#F1EFEF"/>
<path d="M318.801 42.5V50.5H317.863L313.504 44.2187H313.426V50.5H312.457V42.5H313.394L317.769 48.7969H317.847V42.5H318.801ZM322.887 50.625C322.345 50.625 321.87 50.4961 321.461 50.2383C321.054 49.9805 320.737 49.6198 320.508 49.1562C320.281 48.6927 320.168 48.151 320.168 47.5312C320.168 46.9062 320.281 46.3607 320.508 45.8945C320.737 45.4284 321.054 45.0664 321.461 44.8086C321.87 44.5508 322.345 44.4219 322.887 44.4219C323.428 44.4219 323.902 44.5508 324.308 44.8086C324.717 45.0664 325.035 45.4284 325.262 45.8945C325.491 46.3607 325.605 46.9062 325.605 47.5312C325.605 48.151 325.491 48.6927 325.262 49.1562C325.035 49.6198 324.717 49.9805 324.308 50.2383C323.902 50.4961 323.428 50.625 322.887 50.625ZM322.887 49.7969C323.298 49.7969 323.637 49.6914 323.902 49.4805C324.168 49.2695 324.364 48.9922 324.492 48.6484C324.62 48.3047 324.683 47.9323 324.683 47.5312C324.683 47.1302 324.62 46.7565 324.492 46.4102C324.364 46.0638 324.168 45.7839 323.902 45.5703C323.637 45.3568 323.298 45.25 322.887 45.25C322.475 45.25 322.137 45.3568 321.871 45.5703C321.605 45.7839 321.409 46.0638 321.281 46.4102C321.153 46.7565 321.09 47.1302 321.09 47.5312C321.09 47.9323 321.153 48.3047 321.281 48.6484C321.409 48.9922 321.605 49.2695 321.871 49.4805C322.137 49.6914 322.475 49.7969 322.887 49.7969ZM331.539 44.5L329.32 50.5H328.383L326.164 44.5H327.164L328.82 49.2812H328.883L330.539 44.5H331.539ZM334.891 50.625C334.313 50.625 333.815 50.4974 333.395 50.2422C332.979 49.9844 332.657 49.625 332.431 49.1641C332.207 48.7005 332.095 48.1615 332.095 47.5469C332.095 46.9323 332.207 46.3906 332.431 45.9219C332.657 45.4505 332.972 45.0833 333.376 44.8203C333.782 44.5547 334.256 44.4219 334.798 44.4219C335.11 44.4219 335.419 44.474 335.724 44.5781C336.028 44.6823 336.306 44.8516 336.556 45.0859C336.806 45.3177 337.005 45.625 337.153 46.0078C337.302 46.3906 337.376 46.862 337.376 47.4219V47.8125H332.751V47.0156H336.438C336.438 46.6771 336.371 46.375 336.235 46.1094C336.102 45.8437 335.912 45.6341 335.665 45.4805C335.42 45.3268 335.131 45.25 334.798 45.25C334.431 45.25 334.113 45.3411 333.845 45.5234C333.579 45.7031 333.375 45.9375 333.231 46.2266C333.088 46.5156 333.016 46.8255 333.016 47.1562V47.6875C333.016 48.1406 333.095 48.5247 333.251 48.8398C333.41 49.1523 333.63 49.3906 333.911 49.5547C334.192 49.7161 334.519 49.7969 334.891 49.7969C335.134 49.7969 335.352 49.763 335.548 49.6953C335.746 49.625 335.916 49.5208 336.059 49.3828C336.203 49.2422 336.313 49.0677 336.391 48.8594L337.282 49.1094C337.188 49.4115 337.031 49.6771 336.809 49.9062C336.588 50.1328 336.315 50.3099 335.989 50.4375C335.664 50.5625 335.298 50.625 334.891 50.625ZM338.613 50.5V44.5H339.504V45.4375H339.582C339.707 45.1172 339.909 44.8685 340.187 44.6914C340.466 44.5117 340.801 44.4219 341.191 44.4219C341.587 44.4219 341.917 44.5117 342.18 44.6914C342.445 44.8685 342.652 45.1172 342.801 45.4375H342.863C343.017 45.1276 343.247 44.8815 343.555 44.6992C343.862 44.5143 344.23 44.4219 344.66 44.4219C345.197 44.4219 345.635 44.5898 345.976 44.9258C346.318 45.2591 346.488 45.7786 346.488 46.4844V50.5H345.566V46.4844C345.566 46.0417 345.445 45.7253 345.203 45.5352C344.961 45.3451 344.676 45.25 344.348 45.25C343.926 45.25 343.599 45.3776 343.367 45.6328C343.135 45.8854 343.019 46.2057 343.019 46.5937V50.5H342.082V46.3906C342.082 46.0495 341.971 45.7747 341.75 45.5664C341.529 45.3555 341.243 45.25 340.894 45.25C340.655 45.25 340.431 45.3138 340.223 45.4414C340.017 45.569 339.85 45.7461 339.723 45.9727C339.598 46.1966 339.535 46.4557 339.535 46.75V50.5H338.613ZM348.134 50.5V42.5H349.056V45.4531H349.134C349.201 45.349 349.295 45.2161 349.415 45.0547C349.537 44.8906 349.712 44.7448 349.938 44.6172C350.168 44.487 350.478 44.4219 350.868 44.4219C351.373 44.4219 351.819 44.5482 352.204 44.8008C352.589 45.0534 352.89 45.4115 353.106 45.875C353.323 46.3385 353.431 46.8854 353.431 47.5156C353.431 48.151 353.323 48.7018 353.106 49.168C352.89 49.6315 352.591 49.9909 352.208 50.2461C351.825 50.4987 351.384 50.625 350.884 50.625C350.498 50.625 350.19 50.5612 349.958 50.4336C349.726 50.3034 349.548 50.1562 349.423 49.9922C349.298 49.8255 349.201 49.6875 349.134 49.5781H349.024V50.5H348.134ZM349.04 47.5C349.04 47.9531 349.106 48.3529 349.239 48.6992C349.372 49.043 349.566 49.3125 349.821 49.5078C350.076 49.7005 350.389 49.7969 350.759 49.7969C351.144 49.7969 351.466 49.6953 351.724 49.4922C351.984 49.2865 352.179 49.0104 352.31 48.6641C352.442 48.3151 352.509 47.9271 352.509 47.5C352.509 47.0781 352.444 46.6979 352.313 46.3594C352.186 46.0182 351.992 45.7487 351.731 45.5508C351.474 45.3503 351.149 45.25 350.759 45.25C350.384 45.25 350.069 45.3451 349.813 45.5352C349.558 45.7227 349.366 45.9857 349.235 46.3242C349.105 46.6602 349.04 47.0521 349.04 47.5ZM357.191 50.625C356.613 50.625 356.115 50.4974 355.695 50.2422C355.279 49.9844 354.957 49.625 354.73 49.1641C354.507 48.7005 354.395 48.1615 354.395 47.5469C354.395 46.9323 354.507 46.3906 354.73 45.9219C354.957 45.4505 355.272 45.0833 355.676 44.8203C356.082 44.5547 356.556 44.4219 357.098 44.4219C357.41 44.4219 357.719 44.474 358.023 44.5781C358.328 44.6823 358.605 44.8516 358.855 45.0859C359.105 45.3177 359.305 45.625 359.453 46.0078C359.602 46.3906 359.676 46.862 359.676 47.4219V47.8125H355.051V47.0156H358.738C358.738 46.6771 358.671 46.375 358.535 46.1094C358.402 45.8437 358.212 45.6341 357.965 45.4805C357.72 45.3268 357.431 45.25 357.098 45.25C356.73 45.25 356.413 45.3411 356.145 45.5234C355.879 45.7031 355.674 45.9375 355.531 46.2266C355.388 46.5156 355.316 46.8255 355.316 47.1562V47.6875C355.316 48.1406 355.395 48.5247 355.551 48.8398C355.71 49.1523 355.93 49.3906 356.211 49.5547C356.492 49.7161 356.819 49.7969 357.191 49.7969C357.434 49.7969 357.652 49.763 357.848 49.6953C358.046 49.625 358.216 49.5208 358.359 49.3828C358.503 49.2422 358.613 49.0677 358.691 48.8594L359.582 49.1094C359.488 49.4115 359.331 49.6771 359.109 49.9062C358.888 50.1328 358.615 50.3099 358.289 50.4375C357.964 50.5625 357.598 50.625 357.191 50.625ZM360.913 50.5V44.5H361.804V45.4062H361.866C361.976 45.1094 362.174 44.8685 362.46 44.6836C362.746 44.4987 363.069 44.4062 363.429 44.4062C363.496 44.4062 363.581 44.4076 363.683 44.4102C363.784 44.4128 363.861 44.4167 363.913 44.4219V45.3594C363.882 45.3516 363.81 45.3398 363.698 45.3242C363.589 45.306 363.473 45.2969 363.351 45.2969C363.059 45.2969 362.799 45.3581 362.569 45.4805C362.343 45.6003 362.163 45.7669 362.03 45.9805C361.9 46.1914 361.835 46.4323 361.835 46.7031V50.5H360.913ZM367.754 50.5V49.7969L370.395 46.9062C370.705 46.5677 370.96 46.2734 371.16 46.0234C371.361 45.7708 371.509 45.5339 371.606 45.3125C371.705 45.0885 371.754 44.8542 371.754 44.6094C371.754 44.3281 371.686 44.0846 371.551 43.8789C371.418 43.6732 371.236 43.5143 371.004 43.4023C370.772 43.2904 370.512 43.2344 370.223 43.2344C369.915 43.2344 369.647 43.2982 369.418 43.4258C369.192 43.5508 369.016 43.7266 368.891 43.9531C368.768 44.1797 368.707 44.4453 368.707 44.75H367.785C367.785 44.2812 367.893 43.8698 368.109 43.5156C368.326 43.1615 368.62 42.8854 368.992 42.6875C369.367 42.4896 369.788 42.3906 370.254 42.3906C370.723 42.3906 371.138 42.4896 371.5 42.6875C371.862 42.8854 372.146 43.1523 372.352 43.4883C372.557 43.8242 372.66 44.1979 372.66 44.6094C372.66 44.9036 372.607 45.1914 372.5 45.4727C372.396 45.7513 372.214 46.0625 371.953 46.4062C371.695 46.7474 371.337 47.1641 370.879 47.6562L369.082 49.5781V49.6406H372.801V50.5H367.754ZM376.859 50.6094C376.27 50.6094 375.769 50.4492 375.355 50.1289C374.941 49.806 374.624 49.3385 374.405 48.7266C374.187 48.112 374.077 47.3698 374.077 46.5C374.077 45.6354 374.187 44.8971 374.405 44.2852C374.627 43.6706 374.944 43.2018 375.359 42.8789C375.775 42.5534 376.275 42.3906 376.859 42.3906C377.442 42.3906 377.941 42.5534 378.355 42.8789C378.771 43.2018 379.089 43.6706 379.308 44.2852C379.529 44.8971 379.64 45.6354 379.64 46.5C379.64 47.3698 379.53 48.112 379.312 48.7266C379.093 49.3385 378.777 49.806 378.362 50.1289C377.948 50.4492 377.447 50.6094 376.859 50.6094ZM376.859 49.75C377.442 49.75 377.895 49.4687 378.218 48.9062C378.541 48.3437 378.702 47.5417 378.702 46.5C378.702 45.8073 378.628 45.2174 378.48 44.7305C378.334 44.2435 378.123 43.8724 377.847 43.6172C377.573 43.362 377.244 43.2344 376.859 43.2344C376.28 43.2344 375.829 43.5195 375.503 44.0898C375.178 44.6576 375.015 45.4609 375.015 46.5C375.015 47.1927 375.088 47.7812 375.234 48.2656C375.379 48.75 375.589 49.1185 375.862 49.3711C376.139 49.6237 376.471 49.75 376.859 49.75ZM380.959 50.5V49.7969L383.6 46.9062C383.91 46.5677 384.165 46.2734 384.365 46.0234C384.566 45.7708 384.714 45.5339 384.811 45.3125C384.91 45.0885 384.959 44.8542 384.959 44.6094C384.959 44.3281 384.891 44.0846 384.756 43.8789C384.623 43.6732 384.441 43.5143 384.209 43.4023C383.977 43.2904 383.717 43.2344 383.428 43.2344C383.121 43.2344 382.852 43.2982 382.623 43.4258C382.397 43.5508 382.221 43.7266 382.096 43.9531C381.974 44.1797 381.912 44.4453 381.912 44.75H380.99C380.99 44.2812 381.099 43.8698 381.315 43.5156C381.531 43.1615 381.825 42.8854 382.197 42.6875C382.572 42.4896 382.993 42.3906 383.459 42.3906C383.928 42.3906 384.343 42.4896 384.705 42.6875C385.067 42.8854 385.351 43.1523 385.557 43.4883C385.763 43.8242 385.865 44.1979 385.865 44.6094C385.865 44.9036 385.812 45.1914 385.705 45.4727C385.601 45.7513 385.419 46.0625 385.158 46.4062C384.901 46.7474 384.543 47.1641 384.084 47.6562L382.287 49.5781V49.6406H386.006V50.5H380.959ZM387.095 48.8594V48.0625L390.611 42.5H391.189V43.7344H390.798L388.142 47.9375V48H392.876V48.8594H387.095ZM390.861 50.5V48.6172V48.2461V42.5H391.782V50.5H390.861Z" fill="#C6C6C8"/>
<rect x="404" y="32" width="164" height="28" rx="6" fill="#3C46C9"/>
<rect x="410" y="37" width="18" height="18" rx="3.5" fill="#F1EFEF"/>
<path d="M419 52.25H418.062C415.705 52.25 414.527 52.25 413.795 51.5177C413.062 50.7855 413.062 49.607 413.063 47.2499L413.063 44.75C413.063 42.393 413.063 41.2145 413.795 40.4822C414.527 39.75 415.706 39.75 418.062 39.75H418.687C421.044 39.75 422.223 39.75 422.955 40.4822C423.687 41.2145 423.687 42.393 423.687 44.75V45.375" stroke="#3C46C9" stroke-width="1.25" stroke-linecap="round" stroke-linejoin="round"/>
<path d="M415.875 42.875H420.875M415.875 46H418.688" stroke="#3C46C9" stroke-width="1.25" stroke-linecap="round" stroke-linejoin="round"/>
<path d="M422.438 51.4829C423.542 51.4829 424.438 50.5672 424.438 49.4375C424.438 48.3078 423.542 47.3921 422.438 47.3921M422.438 51.4829C421.333 51.4829 420.438 50.5672 420.438 49.4375C420.438 48.3078 421.333 47.3921 422.438 47.3921M422.438 51.4829V52.25M422.438 47.3921V46.625M420.62 48.3218L419.938 47.9034M424.938 50.9716L424.256 50.5532M424.255 48.3218L424.937 47.9034M419.938 50.9716L420.619 50.5532" stroke="#3C46C9" stroke-width="1.25" stroke-linecap="round"/>
<path opacity="0.4" d="M423.687 44.75V47.25C423.687 47.4552 423.687 47.6516 423.687 47.8394C423.345 47.5592 422.91 47.3916 422.438 47.3916C421.333 47.3916 420.438 48.3074 420.438 49.4371C420.438 50.5667 421.333 51.4825 422.438 51.4825C422.665 51.4825 422.883 51.4439 423.086 51.3727C423.045 51.423 423.002 51.4713 422.955 51.5177C422.223 52.25 421.044 52.25 418.687 52.25H418.062C415.705 52.25 414.527 52.25 413.795 51.5177C413.062 50.7855 413.062 49.607 413.063 47.2499L413.063 44.75C413.063 42.393 413.063 41.2145 413.795 40.4822C414.527 39.75 415.706 39.75 418.062 39.75H418.687C421.044 39.75 422.223 39.75 422.955 40.4822C423.687 41.2145 423.687 42.393 423.687 44.75Z" fill="#3C46C9"/>
<path d="M434.597 51.5H432.628L436.213 41.3182H438.49L442.079 51.5H440.11L437.391 43.4062H437.311L434.597 51.5ZM434.661 47.5078H440.031V48.9893H434.661V47.5078ZM443.131 54.3636V43.8636H444.9V45.1264H445.005C445.098 44.9408 445.229 44.7436 445.398 44.5348C445.567 44.3227 445.795 44.142 446.084 43.9929C446.372 43.8404 446.74 43.7642 447.187 43.7642C447.777 43.7642 448.309 43.915 448.783 44.2166C449.261 44.5149 449.638 44.9574 449.917 45.544C450.199 46.1274 450.339 46.8433 450.339 47.6918C450.339 48.5303 450.202 49.2429 449.927 49.8295C449.652 50.4162 449.277 50.8636 448.803 51.1719C448.329 51.4801 447.792 51.6342 447.192 51.6342C446.755 51.6342 446.392 51.5613 446.104 51.4155C445.815 51.2696 445.583 51.094 445.408 50.8885C445.235 50.6797 445.101 50.4825 445.005 50.2969H444.93V54.3636H443.131ZM444.895 47.6818C444.895 48.1757 444.965 48.6082 445.104 48.9794C445.247 49.3506 445.451 49.6406 445.716 49.8494C445.984 50.0549 446.309 50.1577 446.69 50.1577C447.088 50.1577 447.421 50.0516 447.69 49.8395C447.958 49.6241 448.16 49.3307 448.296 48.9595C448.435 48.585 448.505 48.1591 448.505 47.6818C448.505 47.2079 448.437 46.7869 448.301 46.419C448.165 46.0511 447.963 45.7628 447.694 45.554C447.426 45.3452 447.091 45.2408 446.69 45.2408C446.306 45.2408 445.979 45.3419 445.711 45.544C445.442 45.7462 445.239 46.0296 445.099 46.3942C444.963 46.7588 444.895 47.188 444.895 47.6818ZM453.868 51.6541C453.384 51.6541 452.948 51.5679 452.56 51.3956C452.176 51.2199 451.871 50.9614 451.646 50.62C451.424 50.2786 451.313 49.8577 451.313 49.3572C451.313 48.9264 451.392 48.5701 451.551 48.2884C451.71 48.0066 451.927 47.7812 452.203 47.6122C452.478 47.4432 452.788 47.3156 453.132 47.2294C453.48 47.1399 453.84 47.0753 454.211 47.0355C454.659 46.9891 455.021 46.9477 455.3 46.9112C455.578 46.8714 455.78 46.8118 455.906 46.7322C456.036 46.6494 456.1 46.5218 456.1 46.3494V46.3196C456.1 45.9451 455.989 45.6551 455.767 45.4496C455.545 45.2441 455.225 45.1413 454.808 45.1413C454.367 45.1413 454.017 45.2375 453.759 45.4297C453.503 45.6219 453.331 45.849 453.242 46.1108L451.561 45.8722C451.694 45.4081 451.913 45.0204 452.217 44.7088C452.522 44.3939 452.895 44.1586 453.336 44.0028C453.777 43.8438 454.264 43.7642 454.798 43.7642C455.166 43.7642 455.532 43.8073 455.896 43.8935C456.261 43.9796 456.594 44.1222 456.896 44.321C457.197 44.5166 457.439 44.7834 457.622 45.1214C457.807 45.4595 457.9 45.8821 457.9 46.3892V51.5H456.17V50.451H456.11C456.001 50.6631 455.847 50.862 455.648 51.0476C455.452 51.2299 455.205 51.3774 454.907 51.4901C454.612 51.5994 454.266 51.6541 453.868 51.6541ZM454.335 50.3317C454.697 50.3317 455.01 50.2604 455.275 50.1179C455.54 49.9721 455.744 49.7798 455.886 49.5412C456.032 49.3026 456.105 49.0424 456.105 48.7607V47.8608C456.049 47.9072 455.953 47.9503 455.817 47.9901C455.684 48.0298 455.535 48.0646 455.369 48.0945C455.204 48.1243 455.04 48.1508 454.877 48.174C454.715 48.1972 454.574 48.2171 454.455 48.2337C454.186 48.2701 453.946 48.3298 453.734 48.4126C453.522 48.4955 453.354 48.6115 453.232 48.7607C453.109 48.9065 453.048 49.0954 453.048 49.3274C453.048 49.6589 453.169 49.9091 453.411 50.0781C453.653 50.2472 453.961 50.3317 454.335 50.3317ZM462.831 51.6491C462.068 51.6491 461.414 51.4818 460.867 51.147C460.323 50.8123 459.904 50.3499 459.609 49.7599C459.317 49.1667 459.172 48.4839 459.172 47.7116C459.172 46.9361 459.321 46.2517 459.619 45.6584C459.917 45.0618 460.338 44.5978 460.882 44.2663C461.429 43.9316 462.075 43.7642 462.821 43.7642C463.44 43.7642 463.989 43.8786 464.466 44.1072C464.947 44.3326 465.33 44.6525 465.615 45.0668C465.9 45.4777 466.062 45.9583 466.102 46.5085H464.382C464.312 46.1406 464.146 45.834 463.885 45.5888C463.626 45.3402 463.28 45.2159 462.846 45.2159C462.478 45.2159 462.154 45.3153 461.876 45.5142C461.598 45.7098 461.381 45.9915 461.225 46.3594C461.072 46.7273 460.996 47.1681 460.996 47.6818C460.996 48.2022 461.072 48.6496 461.225 49.0241C461.377 49.3954 461.591 49.6821 461.866 49.8842C462.145 50.0831 462.471 50.1825 462.846 50.1825C463.111 50.1825 463.348 50.1328 463.556 50.0334C463.769 49.9306 463.946 49.7831 464.088 49.5909C464.231 49.3987 464.329 49.165 464.382 48.8899H466.102C466.059 49.4302 465.9 49.9091 465.625 50.3267C465.35 50.741 464.975 51.0658 464.501 51.3011C464.027 51.5331 463.47 51.6491 462.831 51.6491ZM469.169 47.0256V51.5H467.37V41.3182H469.13V45.1612H469.219C469.398 44.7304 469.675 44.3906 470.049 44.142C470.427 43.8902 470.908 43.7642 471.491 43.7642C472.021 43.7642 472.484 43.8752 472.878 44.0973C473.273 44.3194 473.578 44.6442 473.793 45.0717C474.012 45.4993 474.121 46.0213 474.121 46.6378V51.5H472.321V46.9162C472.321 46.4025 472.189 46.0031 471.924 45.718C471.662 45.4297 471.294 45.2855 470.82 45.2855C470.502 45.2855 470.217 45.3551 469.965 45.4943C469.716 45.6302 469.521 45.8274 469.378 46.0859C469.239 46.3445 469.169 46.6577 469.169 47.0256ZM479.126 51.6491C478.361 51.6491 477.699 51.4901 477.143 51.1719C476.589 50.8504 476.163 50.3963 475.865 49.8097C475.567 49.2197 475.418 48.5253 475.418 47.7266C475.418 46.9411 475.567 46.2517 475.865 45.6584C476.167 45.0618 476.588 44.5978 477.128 44.2663C477.668 43.9316 478.303 43.7642 479.032 43.7642C479.503 43.7642 479.947 43.8404 480.364 43.9929C480.785 44.142 481.156 44.3741 481.478 44.6889C481.803 45.0038 482.058 45.4048 482.244 45.892C482.429 46.3759 482.522 46.9527 482.522 47.6222V48.174H476.263V46.9609H480.797C480.793 46.6162 480.719 46.3097 480.573 46.0412C480.427 45.7694 480.223 45.5556 479.962 45.3999C479.703 45.2441 479.401 45.1662 479.057 45.1662C478.689 45.1662 478.366 45.2557 478.087 45.4347C477.809 45.6103 477.592 45.8423 477.436 46.1307C477.284 46.4157 477.206 46.7289 477.202 47.0703V48.1293C477.202 48.5734 477.284 48.9545 477.446 49.2727C477.608 49.5876 477.835 49.8295 478.127 49.9986C478.419 50.1643 478.76 50.2472 479.151 50.2472C479.413 50.2472 479.65 50.2107 479.862 50.1378C480.074 50.0616 480.258 49.9505 480.414 49.8047C480.57 49.6589 480.687 49.4782 480.767 49.2628L482.447 49.4517C482.341 49.8958 482.139 50.2836 481.841 50.6151C481.546 50.9432 481.168 51.1984 480.707 51.3807C480.247 51.5597 479.72 51.6491 479.126 51.6491ZM487.077 51.5V50.1676L490.612 46.7024C490.95 46.361 491.232 46.0578 491.457 45.7926C491.683 45.5275 491.852 45.2706 491.964 45.022C492.077 44.7734 492.133 44.5083 492.133 44.2266C492.133 43.9051 492.06 43.63 491.915 43.4013C491.769 43.1693 491.568 42.9903 491.313 42.8643C491.058 42.7384 490.768 42.6754 490.443 42.6754C490.108 42.6754 489.815 42.745 489.563 42.8842C489.311 43.0201 489.116 43.214 488.976 43.4659C488.841 43.7178 488.773 44.0178 488.773 44.3658H487.018C487.018 43.7195 487.165 43.1577 487.46 42.6804C487.755 42.2031 488.161 41.8336 488.678 41.5717C489.198 41.3099 489.795 41.179 490.468 41.179C491.151 41.179 491.751 41.3066 492.268 41.5618C492.785 41.817 493.186 42.1667 493.471 42.6108C493.759 43.0549 493.903 43.562 493.903 44.1321C493.903 44.5133 493.83 44.8878 493.684 45.2557C493.539 45.6236 493.282 46.0312 492.914 46.4787C492.549 46.9261 492.037 47.468 491.378 48.1044L489.623 49.8892V49.9588H494.057V51.5H487.077ZM496.691 51.6094C496.39 51.6094 496.131 51.5033 495.916 51.2912C495.7 51.0791 495.594 50.8205 495.597 50.5156C495.594 50.2173 495.7 49.9621 495.916 49.75C496.131 49.5379 496.39 49.4318 496.691 49.4318C496.983 49.4318 497.236 49.5379 497.452 49.75C497.671 49.9621 497.782 50.2173 497.785 50.5156C497.782 50.7178 497.729 50.9018 497.626 51.0675C497.526 51.2332 497.394 51.3658 497.228 51.4652C497.066 51.5613 496.887 51.6094 496.691 51.6094ZM502.78 51.6939C501.961 51.6939 501.259 51.4867 500.672 51.0724C500.089 50.6548 499.64 50.0533 499.325 49.2678C499.013 48.4789 498.858 47.5294 498.858 46.419C498.861 45.3087 499.018 44.3641 499.33 43.5852C499.645 42.803 500.094 42.2064 500.677 41.7955C501.264 41.3845 501.965 41.179 502.78 41.179C503.595 41.179 504.296 41.3845 504.883 41.7955C505.47 42.2064 505.919 42.803 506.23 43.5852C506.545 44.3674 506.703 45.312 506.703 46.419C506.703 47.5327 506.545 48.4839 506.23 49.2727C505.919 50.0582 505.47 50.6581 504.883 51.0724C504.3 51.4867 503.599 51.6939 502.78 51.6939ZM502.78 50.1378C503.416 50.1378 503.919 49.8246 504.287 49.1982C504.658 48.5684 504.843 47.642 504.843 46.419C504.843 45.6103 504.759 44.9309 504.59 44.3807C504.421 43.8305 504.182 43.4162 503.874 43.1378C503.566 42.8561 503.201 42.7152 502.78 42.7152C502.147 42.7152 501.647 43.0301 501.279 43.6598C500.911 44.2862 500.725 45.206 500.722 46.419C500.719 47.2311 500.8 47.9138 500.965 48.4673C501.135 49.0208 501.373 49.4384 501.681 49.7202C501.99 49.9986 502.356 50.1378 502.78 50.1378ZM511.507 51.5V41.3182H513.351V49.9538H517.835V51.5H511.507ZM519.147 51.5V43.8636H520.946V51.5H519.147ZM520.052 42.7798C519.767 42.7798 519.521 42.6854 519.316 42.4964C519.11 42.3042 519.008 42.0739 519.008 41.8054C519.008 41.5336 519.11 41.3033 519.316 41.1143C519.521 40.9221 519.767 40.826 520.052 40.826C520.34 40.826 520.585 40.9221 520.787 41.1143C520.993 41.3033 521.096 41.5336 521.096 41.8054C521.096 42.0739 520.993 42.3042 520.787 42.4964C520.585 42.6854 520.34 42.7798 520.052 42.7798ZM525.918 51.6491C525.156 51.6491 524.501 51.4818 523.954 51.147C523.411 50.8123 522.991 50.3499 522.697 49.7599C522.405 49.1667 522.259 48.4839 522.259 47.7116C522.259 46.9361 522.408 46.2517 522.706 45.6584C523.005 45.0618 523.426 44.5978 523.969 44.2663C524.516 43.9316 525.162 43.7642 525.908 43.7642C526.528 43.7642 527.076 43.8786 527.554 44.1072C528.034 44.3326 528.417 44.6525 528.702 45.0668C528.987 45.4777 529.15 45.9583 529.189 46.5085H527.469C527.4 46.1406 527.234 45.834 526.972 45.5888C526.714 45.3402 526.367 45.2159 525.933 45.2159C525.565 45.2159 525.242 45.3153 524.964 45.5142C524.685 45.7098 524.468 45.9915 524.312 46.3594C524.16 46.7273 524.084 47.1681 524.084 47.6818C524.084 48.2022 524.16 48.6496 524.312 49.0241C524.465 49.3954 524.679 49.6821 524.954 49.8842C525.232 50.0831 525.558 50.1825 525.933 50.1825C526.198 50.1825 526.435 50.1328 526.644 50.0334C526.856 49.9306 527.033 49.7831 527.176 49.5909C527.318 49.3987 527.416 49.165 527.469 48.8899H529.189C529.146 49.4302 528.987 49.9091 528.712 50.3267C528.437 50.741 528.063 51.0658 527.589 51.3011C527.115 51.5331 526.558 51.6491 525.918 51.6491ZM533.838 51.6491C533.072 51.6491 532.411 51.4901 531.854 51.1719C531.301 50.8504 530.875 50.3963 530.577 49.8097C530.278 49.2197 530.129 48.5253 530.129 47.7266C530.129 46.9411 530.278 46.2517 530.577 45.6584C530.878 45.0618 531.299 44.5978 531.839 44.2663C532.38 43.9316 533.014 43.7642 533.743 43.7642C534.214 43.7642 534.658 43.8404 535.076 43.9929C535.497 44.142 535.868 44.3741 536.189 44.6889C536.514 45.0038 536.769 45.4048 536.955 45.892C537.141 46.3759 537.233 46.9527 537.233 47.6222V48.174H530.974V46.9609H535.508C535.505 46.6162 535.43 46.3097 535.285 46.0412C535.139 45.7694 534.935 45.5556 534.673 45.3999C534.415 45.2441 534.113 45.1662 533.768 45.1662C533.4 45.1662 533.077 45.2557 532.799 45.4347C532.52 45.6103 532.303 45.8423 532.148 46.1307C531.995 46.4157 531.917 46.7289 531.914 47.0703V48.1293C531.914 48.5734 531.995 48.9545 532.158 49.2727C532.32 49.5876 532.547 49.8295 532.839 49.9986C533.13 50.1643 533.472 50.2472 533.863 50.2472C534.125 50.2472 534.362 50.2107 534.574 50.1378C534.786 50.0616 534.97 49.9505 535.126 49.8047C535.281 49.6589 535.399 49.4782 535.479 49.2628L537.159 49.4517C537.053 49.8958 536.851 50.2836 536.552 50.6151C536.257 50.9432 535.88 51.1984 535.419 51.3807C534.958 51.5597 534.431 51.6491 533.838 51.6491ZM540.346 47.0256V51.5H538.546V43.8636H540.266V45.1612H540.356C540.531 44.7337 540.811 44.3939 541.196 44.142C541.584 43.8902 542.063 43.7642 542.633 43.7642C543.16 43.7642 543.619 43.8769 544.01 44.1023C544.404 44.3277 544.709 44.6541 544.925 45.0817C545.143 45.5092 545.251 46.0279 545.248 46.6378V51.5H543.448V46.9162C543.448 46.4058 543.315 46.0064 543.05 45.718C542.788 45.4297 542.426 45.2855 541.962 45.2855C541.647 45.2855 541.367 45.3551 541.121 45.4943C540.879 45.6302 540.689 45.8274 540.55 46.0859C540.414 46.3445 540.346 46.6577 540.346 47.0256ZM552.903 45.8821L551.262 46.0611C551.216 45.8954 551.135 45.7396 551.019 45.5938C550.906 45.4479 550.753 45.3303 550.561 45.2408C550.369 45.1513 550.134 45.1065 549.855 45.1065C549.481 45.1065 549.166 45.1877 548.911 45.3501C548.659 45.5125 548.534 45.723 548.538 45.9815C548.534 46.2036 548.616 46.3842 548.781 46.5234C548.95 46.6626 549.229 46.777 549.617 46.8665L550.919 47.1449C551.642 47.3007 552.179 47.5476 552.53 47.8857C552.885 48.2237 553.064 48.6662 553.067 49.2131C553.064 49.6937 552.923 50.1179 552.644 50.4858C552.369 50.8504 551.986 51.1354 551.496 51.3409C551.005 51.5464 550.442 51.6491 549.806 51.6491C548.871 51.6491 548.118 51.4536 547.548 51.0625C546.978 50.6681 546.639 50.1196 546.529 49.4169L548.284 49.2479C548.364 49.5926 548.533 49.8527 548.791 50.0284C549.05 50.2041 549.386 50.2919 549.801 50.2919C550.228 50.2919 550.571 50.2041 550.83 50.0284C551.091 49.8527 551.222 49.6357 551.222 49.3771C551.222 49.1584 551.138 48.9777 550.969 48.8352C550.803 48.6927 550.545 48.5833 550.193 48.5071L548.891 48.2337C548.158 48.0812 547.616 47.8243 547.265 47.4631C546.914 47.0985 546.74 46.6378 546.743 46.081C546.74 45.6103 546.867 45.2027 547.126 44.858C547.388 44.5099 547.751 44.2415 548.215 44.0526C548.682 43.8603 549.221 43.7642 549.83 43.7642C550.725 43.7642 551.43 43.9548 551.943 44.3359C552.46 44.7171 552.78 45.2325 552.903 45.8821ZM557.722 51.6491C556.956 51.6491 556.295 51.4901 555.738 51.1719C555.184 50.8504 554.759 50.3963 554.46 49.8097C554.162 49.2197 554.013 48.5253 554.013 47.7266C554.013 46.9411 554.162 46.2517 554.46 45.6584C554.762 45.0618 555.183 44.5978 555.723 44.2663C556.263 43.9316 556.898 43.7642 557.627 43.7642C558.098 43.7642 558.542 43.8404 558.959 43.9929C559.38 44.142 559.752 44.3741 560.073 44.6889C560.398 45.0038 560.653 45.4048 560.839 45.892C561.024 46.3759 561.117 46.9527 561.117 47.6222V48.174H554.858V46.9609H559.392C559.389 46.6162 559.314 46.3097 559.168 46.0412C559.022 45.7694 558.819 45.5556 558.557 45.3999C558.298 45.2441 557.997 45.1662 557.652 45.1662C557.284 45.1662 556.961 45.2557 556.683 45.4347C556.404 45.6103 556.187 45.8423 556.031 46.1307C555.879 46.4157 555.801 46.7289 555.798 47.0703V48.1293C555.798 48.5734 555.879 48.9545 556.041 49.2727C556.204 49.5876 556.431 49.8295 556.722 49.9986C557.014 50.1643 557.355 50.2472 557.746 50.2472C558.008 50.2472 558.245 50.2107 558.457 50.1378C558.669 50.0616 558.853 49.9505 559.009 49.8047C559.165 49.6589 559.283 49.4782 559.362 49.2628L561.043 49.4517C560.937 49.8958 560.734 50.2836 560.436 50.6151C560.141 50.9432 559.763 51.1984 559.303 51.3807C558.842 51.5597 558.315 51.6491 557.722 51.6491Z" fill="#F1EFEF"/>
</svg>
