<svg width="702" height="60" viewBox="0 0 702 60" fill="none" xmlns="http://www.w3.org/2000/svg">
<rect x="0.5" width="82" height="28" rx="6" fill="#259E51"/>
<rect x="6.5" y="5" width="18" height="18" rx="3.5" fill="#F1EFEF"/>
<path opacity="0.4" d="M9.5625 14C9.5625 11.201 9.5625 9.80156 10.432 8.93202C11.3016 8.0625 12.701 8.0625 15.5 8.0625C18.2989 8.0625 19.6984 8.0625 20.568 8.93202C21.4375 9.80156 21.4375 11.201 21.4375 14C21.4375 16.7989 21.4375 18.1984 20.568 19.068C19.6984 19.9375 18.2989 19.9375 15.5 19.9375C12.701 19.9375 11.3016 19.9375 10.432 19.068C9.5625 18.1984 9.5625 16.7989 9.5625 14Z" fill="#259E51"/>
<path d="M18 12.75L18.7666 13.4108C19.0889 13.6885 19.25 13.8274 19.25 14C19.25 14.1726 19.0889 14.3115 18.7666 14.5892L18 15.25" stroke="#259E51" stroke-width="1.25" stroke-linecap="round" stroke-linejoin="round"/>
<path d="M13 12.75L12.2334 13.4108C11.9111 13.6885 11.75 13.8274 11.75 14C11.75 14.1726 11.9111 14.3115 12.2334 14.5892L13 15.25" stroke="#259E51" stroke-width="1.25" stroke-linecap="round" stroke-linejoin="round"/>
<path d="M16.125 12.125L14.875 15.875" stroke="#259E51" stroke-width="1.25" stroke-linecap="round" stroke-linejoin="round"/>
<path d="M9.5625 14C9.5625 11.201 9.5625 9.80156 10.432 8.93202C11.3016 8.0625 12.701 8.0625 15.5 8.0625C18.2989 8.0625 19.6984 8.0625 20.568 8.93202C21.4375 9.80156 21.4375 11.201 21.4375 14C21.4375 16.7989 21.4375 18.1984 20.568 19.068C19.6984 19.9375 18.2989 19.9375 15.5 19.9375C12.701 19.9375 11.3016 19.9375 10.432 19.068C9.5625 18.1984 9.5625 16.7989 9.5625 14Z" stroke="#259E51" stroke-width="1.25"/>
<path d="M35.0856 12.1172C35.0392 11.683 34.8437 11.3449 34.499 11.103C34.1576 10.861 33.7135 10.7401 33.1666 10.7401C32.7821 10.7401 32.4523 10.7981 32.1772 10.9141C31.9021 11.0301 31.6917 11.1875 31.5458 11.3864C31.4 11.5852 31.3254 11.8123 31.3221 12.0675C31.3221 12.2796 31.3702 12.4635 31.4663 12.6193C31.5657 12.7751 31.7 12.9077 31.869 13.017C32.038 13.1231 32.2253 13.2126 32.4308 13.2855C32.6363 13.3584 32.8434 13.4197 33.0522 13.4695L34.0068 13.7081C34.3912 13.7976 34.7608 13.9186 35.1154 14.071C35.4734 14.2235 35.7932 14.4157 36.075 14.6477C36.36 14.8797 36.5854 15.1598 36.7511 15.4879C36.9168 15.8161 36.9997 16.2005 36.9997 16.6413C36.9997 17.2379 36.8472 17.7633 36.5423 18.2173C36.2374 18.6681 35.7965 19.0211 35.2198 19.2763C34.6465 19.5282 33.9521 19.6541 33.1367 19.6541C32.3446 19.6541 31.6569 19.5315 31.0735 19.2862C30.4935 19.041 30.0394 18.683 29.7113 18.2124C29.3865 17.7417 29.2108 17.1683 29.1843 16.4922H30.999C31.0255 16.8468 31.1349 17.1418 31.3271 17.3771C31.5193 17.6125 31.7696 17.7881 32.0778 17.9041C32.3894 18.0201 32.7374 18.0781 33.1218 18.0781C33.5229 18.0781 33.8742 18.0185 34.1758 17.8991C34.4807 17.7765 34.7194 17.6075 34.8917 17.392C35.0641 17.1733 35.1519 16.9181 35.1552 16.6264C35.1519 16.3613 35.074 16.1425 34.9215 15.9702C34.7691 15.7945 34.5553 15.6487 34.2802 15.5327C34.0084 15.4134 33.6903 15.3073 33.3257 15.2145L32.1673 14.9162C31.3287 14.7008 30.6659 14.3743 30.1786 13.9368C29.6947 13.496 29.4528 12.911 29.4528 12.1818C29.4528 11.5819 29.6152 11.0566 29.94 10.6058C30.2681 10.1551 30.7139 9.8054 31.2774 9.55682C31.8408 9.30492 32.4788 9.17898 33.1914 9.17898C33.914 9.17898 34.547 9.30492 35.0906 9.55682C35.6375 9.8054 36.0667 10.1518 36.3782 10.5959C36.6898 11.0367 36.8505 11.5438 36.8605 12.1172H35.0856ZM39.9305 19.5L37.7728 11.8636H39.6073L40.9497 17.233H41.0193L42.3914 11.8636H44.206L45.5782 17.2031H45.6528L46.9752 11.8636H48.8147L46.6521 19.5H44.7778L43.346 14.3395H43.2416L41.8097 19.5H39.9305ZM49.8613 19.5V11.8636H51.661V19.5H49.8613ZM50.7661 10.7798C50.4811 10.7798 50.2358 10.6854 50.0303 10.4964C49.8248 10.3042 49.7221 10.0739 49.7221 9.8054C49.7221 9.53362 49.8248 9.30327 50.0303 9.11435C50.2358 8.92211 50.4811 8.82599 50.7661 8.82599C51.0545 8.82599 51.2997 8.92211 51.5019 9.11435C51.7074 9.30327 51.8101 9.53362 51.8101 9.8054C51.8101 10.0739 51.7074 10.3042 51.5019 10.4964C51.2997 10.6854 51.0545 10.7798 50.7661 10.7798ZM57.1696 11.8636V13.2557H52.6554V11.8636H57.1696ZM53.7839 19.5V11.1428C53.7839 10.629 53.89 10.2015 54.1021 9.86008C54.3175 9.5187 54.6059 9.26349 54.9672 9.09446C55.3284 8.92543 55.7295 8.84091 56.1703 8.84091C56.4818 8.84091 56.7586 8.86577 57.0005 8.91548C57.2425 8.9652 57.4215 9.00994 57.5375 9.04972L57.1795 10.4418C57.1033 10.4186 57.0072 10.3954 56.8912 10.3722C56.7752 10.3456 56.6459 10.3324 56.5034 10.3324C56.1686 10.3324 55.9316 10.4136 55.7924 10.576C55.6565 10.7351 55.5886 10.9638 55.5886 11.2621V19.5H53.7839ZM62.1822 11.8636V13.2557H57.7923V11.8636H62.1822ZM58.8761 10.0341H60.6758V17.2031C60.6758 17.4451 60.7123 17.6307 60.7852 17.7599C60.8614 17.8859 60.9609 17.9721 61.0835 18.0185C61.2061 18.0649 61.342 18.0881 61.4912 18.0881C61.6039 18.0881 61.7066 18.0798 61.7994 18.0632C61.8955 18.0466 61.9684 18.0317 62.0182 18.0185L62.3214 19.4254C62.2253 19.4586 62.0878 19.495 61.9088 19.5348C61.7331 19.5746 61.5177 19.5978 61.2625 19.6044C60.8117 19.6177 60.4057 19.5497 60.0444 19.4006C59.6832 19.2481 59.3965 19.0128 59.1844 18.6946C58.9755 18.3764 58.8728 17.9787 58.8761 17.5014V10.0341ZM69.9752 9.31818H71.8197V15.9702C71.8197 16.6993 71.6474 17.3407 71.3027 17.8942C70.9613 18.4477 70.4807 18.8802 69.8609 19.1918C69.2411 19.5 68.5169 19.6541 67.6883 19.6541C66.8564 19.6541 66.1305 19.5 65.5108 19.1918C64.891 18.8802 64.4104 18.4477 64.069 17.8942C63.7276 17.3407 63.5569 16.6993 63.5569 15.9702V9.31818H65.4014V15.8161C65.4014 16.2403 65.4942 16.6181 65.6798 16.9496C65.8687 17.281 66.1339 17.5412 66.4752 17.7301C66.8166 17.9157 67.221 18.0085 67.6883 18.0085C68.1556 18.0085 68.56 17.9157 68.9014 17.7301C69.2461 17.5412 69.5112 17.281 69.6968 16.9496C69.8824 16.6181 69.9752 16.2403 69.9752 15.8161V9.31818ZM75.459 9.31818V19.5H73.6145V9.31818H75.459Z" fill="#F1EFEF"/>
<rect x="86.5" width="80" height="28" rx="6" fill="#3C46C9"/>
<rect x="92.5" y="5" width="18" height="18" rx="3.5" fill="#F1EFEF"/>
<path opacity="0.4" d="M97.7657 8.39076C97.125 9.03147 97.125 10.0627 97.125 12.1251V15.875C97.125 17.9375 97.125 18.9687 97.7657 19.6093C98.4064 20.25 99.4376 20.25 101.5 20.25C103.562 20.25 104.594 20.25 105.234 19.6093C105.875 18.9687 105.875 17.9375 105.875 15.875V12.1251C105.875 10.0627 105.875 9.03147 105.234 8.39076C104.826 7.98278 104.26 7.83459 103.37 7.78076L103.319 8.08382C103.199 8.80712 103.139 9.16877 102.891 9.38884C102.632 9.6184 102.265 9.62506 101.5 9.62506C100.735 9.62506 100.368 9.6184 100.109 9.38884C99.8615 9.16877 99.8012 8.80712 99.6806 8.08382L99.6301 7.78076C98.74 7.83459 98.1737 7.98278 97.7657 8.39076Z" fill="#3C46C9"/>
<path d="M97.125 12.125C97.125 10.0626 97.125 9.03141 97.7657 8.39071C98.4064 7.75 99.4376 7.75 101.5 7.75C103.562 7.75 104.594 7.75 105.234 8.39071C105.875 9.03141 105.875 10.0626 105.875 12.125V15.875C105.875 17.9374 105.875 18.9686 105.234 19.6093C104.594 20.25 103.562 20.25 101.5 20.25C99.4376 20.25 98.4064 20.25 97.7657 19.6093C97.125 18.9686 97.125 17.9374 97.125 15.875V12.125Z" stroke="#3C46C9" stroke-width="1.25" stroke-linecap="round"/>
<path d="M100.875 18.375H102.125" stroke="#3C46C9" stroke-width="1.25" stroke-linecap="round" stroke-linejoin="round"/>
<path d="M99.625 7.75L99.6806 8.08376C99.8012 8.80706 99.8615 9.16871 100.109 9.38877C100.368 9.61834 100.735 9.625 101.5 9.625C102.265 9.625 102.632 9.61834 102.891 9.38877C103.139 9.16871 103.199 8.80706 103.319 8.08376L103.375 7.75" stroke="#3C46C9" stroke-width="1.25" stroke-linejoin="round"/>
<path d="M115.843 19.5V11.8636H117.642V19.5H115.843ZM116.748 10.7798C116.463 10.7798 116.217 10.6854 116.012 10.4964C115.806 10.3042 115.704 10.0739 115.704 9.8054C115.704 9.53362 115.806 9.30327 116.012 9.11435C116.217 8.92211 116.463 8.82599 116.748 8.82599C117.036 8.82599 117.281 8.92211 117.483 9.11435C117.689 9.30327 117.792 9.53362 117.792 9.8054C117.792 10.0739 117.689 10.3042 117.483 10.4964C117.281 10.6854 117.036 10.7798 116.748 10.7798ZM128.461 14.4091C128.461 15.5062 128.255 16.4458 127.844 17.228C127.437 18.0069 126.88 18.6035 126.174 19.0178C125.471 19.4321 124.674 19.6392 123.782 19.6392C122.891 19.6392 122.092 19.4321 121.386 19.0178C120.683 18.6001 120.127 18.0019 119.716 17.223C119.308 16.4408 119.104 15.5028 119.104 14.4091C119.104 13.312 119.308 12.3741 119.716 11.5952C120.127 10.813 120.683 10.2147 121.386 9.80043C122.092 9.38613 122.891 9.17898 123.782 9.17898C124.674 9.17898 125.471 9.38613 126.174 9.80043C126.88 10.2147 127.437 10.813 127.844 11.5952C128.255 12.3741 128.461 13.312 128.461 14.4091ZM126.606 14.4091C126.606 13.6368 126.485 12.9856 126.243 12.4553C126.005 11.9216 125.673 11.5189 125.249 11.2472C124.825 10.9721 124.336 10.8345 123.782 10.8345C123.229 10.8345 122.74 10.9721 122.316 11.2472C121.892 11.5189 121.558 11.9216 121.316 12.4553C121.078 12.9856 120.959 13.6368 120.959 14.4091C120.959 15.1813 121.078 15.8343 121.316 16.3679C121.558 16.8982 121.892 17.3009 122.316 17.576C122.74 17.8478 123.229 17.9837 123.782 17.9837C124.336 17.9837 124.825 17.8478 125.249 17.576C125.673 17.3009 126.005 16.8982 126.243 16.3679C126.485 15.8343 126.606 15.1813 126.606 14.4091ZM135.528 12.1172C135.481 11.683 135.286 11.3449 134.941 11.103C134.6 10.861 134.156 10.7401 133.609 10.7401C133.224 10.7401 132.895 10.7981 132.619 10.9141C132.344 11.0301 132.134 11.1875 131.988 11.3864C131.842 11.5852 131.768 11.8123 131.764 12.0675C131.764 12.2796 131.812 12.4635 131.909 12.6193C132.008 12.7751 132.142 12.9077 132.311 13.017C132.48 13.1231 132.668 13.2126 132.873 13.2855C133.079 13.3584 133.286 13.4197 133.494 13.4695L134.449 13.7081C134.833 13.7976 135.203 13.9186 135.558 14.071C135.916 14.2235 136.235 14.4157 136.517 14.6477C136.802 14.8797 137.028 15.1598 137.193 15.4879C137.359 15.8161 137.442 16.2005 137.442 16.6413C137.442 17.2379 137.289 17.7633 136.985 18.2173C136.68 18.6681 136.239 19.0211 135.662 19.2763C135.089 19.5282 134.394 19.6541 133.579 19.6541C132.787 19.6541 132.099 19.5315 131.516 19.2862C130.936 19.041 130.482 18.683 130.154 18.2124C129.829 17.7417 129.653 17.1683 129.627 16.4922H131.441C131.468 16.8468 131.577 17.1418 131.769 17.3771C131.962 17.6125 132.212 17.7881 132.52 17.9041C132.832 18.0201 133.18 18.0781 133.564 18.0781C133.965 18.0781 134.316 18.0185 134.618 17.8991C134.923 17.7765 135.162 17.6075 135.334 17.392C135.506 17.1733 135.594 16.9181 135.597 16.6264C135.594 16.3613 135.516 16.1425 135.364 15.9702C135.211 15.7945 134.998 15.6487 134.722 15.5327C134.451 15.4134 134.132 15.3073 133.768 15.2145L132.61 14.9162C131.771 14.7008 131.108 14.3743 130.621 13.9368C130.137 13.496 129.895 12.911 129.895 12.1818C129.895 11.5819 130.057 11.0566 130.382 10.6058C130.71 10.1551 131.156 9.8054 131.72 9.55682C132.283 9.30492 132.921 9.17898 133.634 9.17898C134.356 9.17898 134.989 9.30492 135.533 9.55682C136.08 9.8054 136.509 10.1518 136.82 10.5959C137.132 11.0367 137.293 11.5438 137.303 12.1172H135.528Z" fill="#F1EFEF"/>
<path d="M144.595 10.5V18.5H143.626V11.5156H143.579L141.626 12.8125V11.8281L143.626 10.5H144.595ZM146.543 16.8594V16.0625L150.059 10.5H150.637V11.7344H150.246L147.59 15.9375V16H152.324V16.8594H146.543ZM150.309 18.5V16.6172V16.2461V10.5H151.23V18.5H150.309ZM155.982 17.0938V11.9375H156.857V17.0938H155.982ZM153.842 14.9531V14.0781H158.998V14.9531H153.842Z" fill="#C6C6C8"/>
<rect x="170.5" width="105" height="28" rx="6" fill="#3C46C9"/>
<rect x="176.5" y="5" width="18" height="18" rx="3.5" fill="#F1EFEF"/>
<path opacity="0.4" d="M187.062 7.75H183.938C182.17 7.75 181.286 7.75 180.737 8.29918C180.188 8.84835 180.188 9.73223 180.188 11.5V16.5C180.188 18.2677 180.188 19.1516 180.737 19.7008C181.286 20.25 182.17 20.25 183.938 20.25H187.062C188.83 20.25 189.714 20.25 190.263 19.7008C190.812 19.1516 190.812 18.2677 190.812 16.5V11.5C190.812 9.73223 190.812 8.84835 190.263 8.29918C189.714 7.75 188.83 7.75 187.062 7.75Z" fill="#3C46C9"/>
<path d="M187.062 7.75H183.938C182.17 7.75 181.286 7.75 180.737 8.29917C180.188 8.84835 180.188 9.73223 180.188 11.5V16.5C180.188 18.2677 180.188 19.1516 180.737 19.7008C181.286 20.25 182.17 20.25 183.938 20.25H187.062C188.83 20.25 189.714 20.25 190.263 19.7008C190.812 19.1516 190.812 18.2677 190.812 16.5V11.5C190.812 9.73223 190.812 8.84835 190.263 8.29917C189.714 7.75 188.83 7.75 187.062 7.75Z" stroke="#3C46C9" stroke-width="1.25" stroke-linecap="round"/>
<path d="M185.5 18.375H185.506" stroke="#3C46C9" stroke-width="1.25" stroke-linecap="round"/>
<path d="M199.792 19.5V11.8636H201.592V19.5H199.792ZM200.697 10.7798C200.412 10.7798 200.167 10.6854 199.962 10.4964C199.756 10.3042 199.653 10.0739 199.653 9.8054C199.653 9.53362 199.756 9.30327 199.962 9.11435C200.167 8.92211 200.412 8.82599 200.697 8.82599C200.986 8.82599 201.231 8.92211 201.433 9.11435C201.639 9.30327 201.741 9.53362 201.741 9.8054C201.741 10.0739 201.639 10.3042 201.433 10.4964C201.231 10.6854 200.986 10.7798 200.697 10.7798ZM203.312 19.5V9.31818H207.131C207.913 9.31818 208.569 9.46401 209.099 9.75568C209.633 10.0473 210.036 10.4484 210.307 10.9588C210.583 11.4659 210.72 12.0426 210.72 12.6889C210.72 13.3419 210.583 13.9219 210.307 14.429C210.032 14.9361 209.626 15.3355 209.089 15.6271C208.552 15.9155 207.891 16.0597 207.106 16.0597H204.575V14.5433H206.857C207.315 14.5433 207.689 14.4638 207.981 14.3047C208.272 14.1456 208.488 13.9268 208.627 13.6484C208.77 13.37 208.841 13.0502 208.841 12.6889C208.841 12.3277 208.77 12.0095 208.627 11.7344C208.488 11.4593 208.271 11.2455 207.976 11.093C207.684 10.9373 207.308 10.8594 206.847 10.8594H205.157V19.5H203.312ZM214.093 19.6541C213.609 19.6541 213.174 19.5679 212.786 19.3956C212.401 19.2199 212.096 18.9614 211.871 18.62C211.649 18.2786 211.538 17.8577 211.538 17.3572C211.538 16.9264 211.618 16.5701 211.777 16.2884C211.936 16.0066 212.153 15.7812 212.428 15.6122C212.703 15.4432 213.013 15.3156 213.358 15.2294C213.706 15.1399 214.065 15.0753 214.436 15.0355C214.884 14.9891 215.247 14.9477 215.525 14.9112C215.804 14.8714 216.006 14.8118 216.132 14.7322C216.261 14.6494 216.326 14.5218 216.326 14.3494V14.3196C216.326 13.9451 216.215 13.6551 215.993 13.4496C215.77 13.2441 215.451 13.1413 215.033 13.1413C214.592 13.1413 214.243 13.2375 213.984 13.4297C213.729 13.6219 213.556 13.849 213.467 14.1108L211.787 13.8722C211.919 13.4081 212.138 13.0204 212.443 12.7088C212.748 12.3939 213.121 12.1586 213.561 12.0028C214.002 11.8438 214.489 11.7642 215.023 11.7642C215.391 11.7642 215.757 11.8073 216.122 11.8935C216.486 11.9796 216.819 12.1222 217.121 12.321C217.423 12.5166 217.665 12.7834 217.847 13.1214C218.033 13.4595 218.125 13.8821 218.125 14.3892V19.5H216.395V18.451H216.336C216.226 18.6631 216.072 18.862 215.873 19.0476C215.678 19.2299 215.431 19.3774 215.132 19.4901C214.837 19.5994 214.491 19.6541 214.093 19.6541ZM214.561 18.3317C214.922 18.3317 215.235 18.2604 215.5 18.1179C215.765 17.9721 215.969 17.7798 216.112 17.5412C216.258 17.3026 216.331 17.0424 216.331 16.7607V15.8608C216.274 15.9072 216.178 15.9503 216.042 15.9901C215.91 16.0298 215.761 16.0646 215.595 16.0945C215.429 16.1243 215.265 16.1508 215.103 16.174C214.94 16.1972 214.799 16.2171 214.68 16.2337C214.412 16.2701 214.171 16.3298 213.959 16.4126C213.747 16.4955 213.58 16.6115 213.457 16.7607C213.334 16.9065 213.273 17.0954 213.273 17.3274C213.273 17.6589 213.394 17.9091 213.636 18.0781C213.878 18.2472 214.186 18.3317 214.561 18.3317ZM222.559 19.6342C221.959 19.6342 221.422 19.4801 220.948 19.1719C220.474 18.8636 220.1 18.4162 219.824 17.8295C219.549 17.2429 219.412 16.5303 219.412 15.6918C219.412 14.8433 219.551 14.1274 219.829 13.544C220.111 12.9574 220.491 12.5149 220.968 12.2166C221.445 11.915 221.977 11.7642 222.564 11.7642C223.011 11.7642 223.379 11.8404 223.667 11.9929C223.956 12.142 224.185 12.3227 224.354 12.5348C224.523 12.7436 224.653 12.9408 224.746 13.1264H224.821V9.31818H226.626V19.5H224.856V18.2969H224.746C224.653 18.4825 224.519 18.6797 224.344 18.8885C224.168 19.094 223.936 19.2696 223.648 19.4155C223.359 19.5613 222.996 19.6342 222.559 19.6342ZM223.061 18.1577C223.442 18.1577 223.767 18.0549 224.035 17.8494C224.304 17.6406 224.508 17.3506 224.647 16.9794C224.786 16.6082 224.856 16.1757 224.856 15.6818C224.856 15.188 224.786 14.7588 224.647 14.3942C224.511 14.0296 224.309 13.7462 224.04 13.544C223.775 13.3419 223.449 13.2408 223.061 13.2408C222.66 13.2408 222.325 13.3452 222.057 13.554C221.788 13.7628 221.586 14.0511 221.45 14.419C221.314 14.7869 221.246 15.2079 221.246 15.6818C221.246 16.1591 221.314 16.585 221.45 16.9595C221.589 17.3307 221.793 17.6241 222.062 17.8395C222.333 18.0516 222.667 18.1577 223.061 18.1577ZM237.511 14.4091C237.511 15.5062 237.305 16.4458 236.894 17.228C236.487 18.0069 235.93 18.6035 235.224 19.0178C234.521 19.4321 233.724 19.6392 232.833 19.6392C231.941 19.6392 231.142 19.4321 230.436 19.0178C229.734 18.6001 229.177 18.0019 228.766 17.223C228.358 16.4408 228.154 15.5028 228.154 14.4091C228.154 13.312 228.358 12.3741 228.766 11.5952C229.177 10.813 229.734 10.2147 230.436 9.80043C231.142 9.38613 231.941 9.17898 232.833 9.17898C233.724 9.17898 234.521 9.38613 235.224 9.80043C235.93 10.2147 236.487 10.813 236.894 11.5952C237.305 12.3741 237.511 13.312 237.511 14.4091ZM235.657 14.4091C235.657 13.6368 235.536 12.9856 235.294 12.4553C235.055 11.9216 234.723 11.5189 234.299 11.2472C233.875 10.9721 233.386 10.8345 232.833 10.8345C232.279 10.8345 231.79 10.9721 231.366 11.2472C230.942 11.5189 230.609 11.9216 230.367 12.4553C230.128 12.9856 230.009 13.6368 230.009 14.4091C230.009 15.1813 230.128 15.8343 230.367 16.3679C230.609 16.8982 230.942 17.3009 231.366 17.576C231.79 17.8478 232.279 17.9837 232.833 17.9837C233.386 17.9837 233.875 17.8478 234.299 17.576C234.723 17.3009 235.055 16.8982 235.294 16.3679C235.536 15.8343 235.657 15.1813 235.657 14.4091ZM244.578 12.1172C244.532 11.683 244.336 11.3449 243.991 11.103C243.65 10.861 243.206 10.7401 242.659 10.7401C242.275 10.7401 241.945 10.7981 241.67 10.9141C241.395 11.0301 241.184 11.1875 241.038 11.3864C240.892 11.5852 240.818 11.8123 240.815 12.0675C240.815 12.2796 240.863 12.4635 240.959 12.6193C241.058 12.7751 241.192 12.9077 241.361 13.017C241.53 13.1231 241.718 13.2126 241.923 13.2855C242.129 13.3584 242.336 13.4197 242.545 13.4695L243.499 13.7081C243.884 13.7976 244.253 13.9186 244.608 14.071C244.966 14.2235 245.286 14.4157 245.567 14.6477C245.852 14.8797 246.078 15.1598 246.244 15.4879C246.409 15.8161 246.492 16.2005 246.492 16.6413C246.492 17.2379 246.34 17.7633 246.035 18.2173C245.73 18.6681 245.289 19.0211 244.712 19.2763C244.139 19.5282 243.445 19.6541 242.629 19.6541C241.837 19.6541 241.149 19.5315 240.566 19.2862C239.986 19.041 239.532 18.683 239.204 18.2124C238.879 17.7417 238.703 17.1683 238.677 16.4922H240.491C240.518 16.8468 240.627 17.1418 240.82 17.3771C241.012 17.6125 241.262 17.7881 241.57 17.9041C241.882 18.0201 242.23 18.0781 242.614 18.0781C243.015 18.0781 243.367 18.0185 243.668 17.8991C243.973 17.7765 244.212 17.6075 244.384 17.392C244.557 17.1733 244.644 16.9181 244.648 16.6264C244.644 16.3613 244.566 16.1425 244.414 15.9702C244.262 15.7945 244.048 15.6487 243.773 15.5327C243.501 15.4134 243.183 15.3073 242.818 15.2145L241.66 14.9162C240.821 14.7008 240.158 14.3743 239.671 13.9368C239.187 13.496 238.945 12.911 238.945 12.1818C238.945 11.5819 239.108 11.0566 239.432 10.6058C239.761 10.1551 240.206 9.8054 240.77 9.55682C241.333 9.30492 241.971 9.17898 242.684 9.17898C243.406 9.17898 244.039 9.30492 244.583 9.55682C245.13 9.8054 245.559 10.1518 245.871 10.5959C246.182 11.0367 246.343 11.5438 246.353 12.1172H244.578Z" fill="#F1EFEF"/>
<path d="M253.595 10.5V18.5H252.626V11.5156H252.579L250.626 12.8125V11.8281L252.626 10.5H253.595ZM255.543 16.8594V16.0625L259.059 10.5H259.637V11.7344H259.246L256.59 15.9375V16H261.324V16.8594H255.543ZM259.309 18.5V16.6172V16.2461V10.5H260.23V18.5H259.309ZM264.982 17.0938V11.9375H265.857V17.0938H264.982ZM262.842 14.9531V14.0781H267.998V14.9531H262.842Z" fill="#C6C6C8"/>
<rect x="279.5" width="103" height="28" rx="6" fill="#3C46C9"/>
<rect x="285.5" y="5" width="18" height="18" rx="3.5" fill="#F1EFEF"/>
<path opacity="0.4" d="M295.75 7.75H293.25C291.2 7.75 290.176 7.75 289.449 8.25864C289.181 8.44681 288.947 8.68057 288.759 8.94932C288.25 9.67572 288.25 10.7005 288.25 12.75C288.25 14.7995 288.25 15.8242 288.759 16.5507C288.947 16.8194 289.181 17.0532 289.449 17.2414C290.176 17.75 291.2 17.75 293.25 17.75H295.75C297.8 17.75 298.824 17.75 299.551 17.2414C299.819 17.0532 300.053 16.8194 300.241 16.5507C300.75 15.8242 300.75 14.7995 300.75 12.75C300.75 10.7005 300.75 9.67572 300.241 8.94932C300.053 8.68057 299.819 8.44681 299.551 8.25864C298.824 7.75 297.8 7.75 295.75 7.75Z" fill="#3C46C9"/>
<path d="M295.75 7.75H293.25C291.2 7.75 290.176 7.75 289.449 8.25864C289.181 8.44681 288.947 8.68057 288.759 8.94932C288.25 9.67572 288.25 10.7005 288.25 12.75C288.25 14.7995 288.25 15.8242 288.759 16.5507C288.947 16.8194 289.181 17.0532 289.449 17.2414C290.176 17.75 291.2 17.75 293.25 17.75H295.75C297.8 17.75 298.824 17.75 299.551 17.2414C299.819 17.0532 300.053 16.8194 300.241 16.5507C300.75 15.8242 300.75 14.7995 300.75 12.75C300.75 10.7005 300.75 9.67572 300.241 8.94932C300.053 8.68057 299.819 8.44681 299.551 8.25864C298.824 7.75 297.8 7.75 295.75 7.75Z" stroke="#3C46C9" stroke-width="1.25" stroke-linecap="round"/>
<path d="M293.875 15.875H295.125" stroke="#3C46C9" stroke-width="1.25" stroke-linecap="round" stroke-linejoin="round"/>
<path d="M296.062 20.25L295.865 19.9882C295.421 19.3981 295.311 18.4965 295.592 17.75M292.938 20.25L293.135 19.9882C293.579 19.3981 293.689 18.4965 293.408 17.75" stroke="#3C46C9" stroke-width="1.25" stroke-linecap="round"/>
<path d="M291.375 20.25H297.625" stroke="#3C46C9" stroke-width="1.25" stroke-linecap="round"/>
<path d="M308.536 19.5V11.8636H310.256V13.1612H310.346C310.505 12.7237 310.768 12.3823 311.136 12.1371C311.504 11.8885 311.943 11.7642 312.454 11.7642C312.971 11.7642 313.407 11.8902 313.761 12.142C314.119 12.3906 314.371 12.7304 314.517 13.1612H314.596C314.766 12.737 315.051 12.3989 315.452 12.147C315.856 11.8918 316.335 11.7642 316.888 11.7642C317.591 11.7642 318.164 11.9863 318.609 12.4304C319.053 12.8745 319.275 13.5225 319.275 14.3743V19.5H317.47V14.6527C317.47 14.1787 317.344 13.8324 317.092 13.6136C316.84 13.3916 316.532 13.2805 316.168 13.2805C315.733 13.2805 315.394 13.4164 315.148 13.6882C314.906 13.9567 314.785 14.3063 314.785 14.7372V19.5H313.02V14.5781C313.02 14.1837 312.901 13.8688 312.663 13.6335C312.427 13.3982 312.119 13.2805 311.738 13.2805C311.479 13.2805 311.244 13.3468 311.032 13.4794C310.82 13.6087 310.651 13.7926 310.525 14.0312C310.399 14.2666 310.336 14.5417 310.336 14.8565V19.5H308.536ZM323.088 19.6541C322.604 19.6541 322.168 19.5679 321.78 19.3956C321.396 19.2199 321.091 18.9614 320.866 18.62C320.644 18.2786 320.533 17.8577 320.533 17.3572C320.533 16.9264 320.612 16.5701 320.771 16.2884C320.93 16.0066 321.147 15.7812 321.423 15.6122C321.698 15.4432 322.008 15.3156 322.352 15.2294C322.7 15.1399 323.06 15.0753 323.431 15.0355C323.879 14.9891 324.241 14.9477 324.52 14.9112C324.798 14.8714 325 14.8118 325.126 14.7322C325.256 14.6494 325.32 14.5218 325.32 14.3494V14.3196C325.32 13.9451 325.209 13.6551 324.987 13.4496C324.765 13.2441 324.445 13.1413 324.028 13.1413C323.587 13.1413 323.237 13.2375 322.979 13.4297C322.723 13.6219 322.551 13.849 322.462 14.1108L320.781 13.8722C320.914 13.4081 321.133 13.0204 321.437 12.7088C321.742 12.3939 322.115 12.1586 322.556 12.0028C322.997 11.8438 323.484 11.7642 324.018 11.7642C324.386 11.7642 324.752 11.8073 325.116 11.8935C325.481 11.9796 325.814 12.1222 326.116 12.321C326.417 12.5166 326.659 12.7834 326.842 13.1214C327.027 13.4595 327.12 13.8821 327.12 14.3892V19.5H325.39V18.451H325.33C325.221 18.6631 325.067 18.862 324.868 19.0476C324.672 19.2299 324.425 19.3774 324.127 19.4901C323.832 19.5994 323.486 19.6541 323.088 19.6541ZM323.555 18.3317C323.917 18.3317 324.23 18.2604 324.495 18.1179C324.76 17.9721 324.964 17.7798 325.106 17.5412C325.252 17.3026 325.325 17.0424 325.325 16.7607V15.8608C325.269 15.9072 325.173 15.9503 325.037 15.9901C324.904 16.0298 324.755 16.0646 324.589 16.0945C324.424 16.1243 324.26 16.1508 324.097 16.174C323.935 16.1972 323.794 16.2171 323.675 16.2337C323.406 16.2701 323.166 16.3298 322.954 16.4126C322.742 16.4955 322.574 16.6115 322.452 16.7607C322.329 16.9065 322.268 17.0954 322.268 17.3274C322.268 17.6589 322.389 17.9091 322.631 18.0781C322.873 18.2472 323.181 18.3317 323.555 18.3317ZM332.051 19.6491C331.288 19.6491 330.634 19.4818 330.087 19.147C329.543 18.8123 329.124 18.3499 328.829 17.7599C328.537 17.1667 328.392 16.4839 328.392 15.7116C328.392 14.9361 328.541 14.2517 328.839 13.6584C329.137 13.0618 329.558 12.5978 330.102 12.2663C330.649 11.9316 331.295 11.7642 332.041 11.7642C332.66 11.7642 333.209 11.8786 333.686 12.1072C334.167 12.3326 334.55 12.6525 334.835 13.0668C335.12 13.4777 335.282 13.9583 335.322 14.5085H333.602C333.532 14.1406 333.366 13.834 333.105 13.5888C332.846 13.3402 332.5 13.2159 332.066 13.2159C331.698 13.2159 331.374 13.3153 331.096 13.5142C330.818 13.7098 330.601 13.9915 330.445 14.3594C330.292 14.7273 330.216 15.1681 330.216 15.6818C330.216 16.2022 330.292 16.6496 330.445 17.0241C330.597 17.3954 330.811 17.6821 331.086 17.8842C331.365 18.0831 331.691 18.1825 332.066 18.1825C332.331 18.1825 332.568 18.1328 332.776 18.0334C332.989 17.9306 333.166 17.7831 333.308 17.5909C333.451 17.3987 333.549 17.165 333.602 16.8899H335.322C335.279 17.4302 335.12 17.9091 334.845 18.3267C334.57 18.741 334.195 19.0658 333.721 19.3011C333.247 19.5331 332.69 19.6491 332.051 19.6491ZM345.767 14.4091C345.767 15.5062 345.562 16.4458 345.151 17.228C344.743 18.0069 344.186 18.6035 343.48 19.0178C342.778 19.4321 341.981 19.6392 341.089 19.6392C340.197 19.6392 339.399 19.4321 338.693 19.0178C337.99 18.6001 337.433 18.0019 337.022 17.223C336.615 16.4408 336.411 15.5028 336.411 14.4091C336.411 13.312 336.615 12.3741 337.022 11.5952C337.433 10.813 337.99 10.2147 338.693 9.80043C339.399 9.38613 340.197 9.17898 341.089 9.17898C341.981 9.17898 342.778 9.38613 343.48 9.80043C344.186 10.2147 344.743 10.813 345.151 11.5952C345.562 12.3741 345.767 13.312 345.767 14.4091ZM343.913 14.4091C343.913 13.6368 343.792 12.9856 343.55 12.4553C343.311 11.9216 342.98 11.5189 342.556 11.2472C342.131 10.9721 341.643 10.8345 341.089 10.8345C340.536 10.8345 340.047 10.9721 339.622 11.2472C339.198 11.5189 338.865 11.9216 338.623 12.4553C338.384 12.9856 338.265 13.6368 338.265 14.4091C338.265 15.1813 338.384 15.8343 338.623 16.3679C338.865 16.8982 339.198 17.3009 339.622 17.576C340.047 17.8478 340.536 17.9837 341.089 17.9837C341.643 17.9837 342.131 17.8478 342.556 17.576C342.98 17.3009 343.311 16.8982 343.55 16.3679C343.792 15.8343 343.913 15.1813 343.913 14.4091ZM352.834 12.1172C352.788 11.683 352.592 11.3449 352.248 11.103C351.906 10.861 351.462 10.7401 350.915 10.7401C350.531 10.7401 350.201 10.7981 349.926 10.9141C349.651 11.0301 349.441 11.1875 349.295 11.3864C349.149 11.5852 349.074 11.8123 349.071 12.0675C349.071 12.2796 349.119 12.4635 349.215 12.6193C349.315 12.7751 349.449 12.9077 349.618 13.017C349.787 13.1231 349.974 13.2126 350.18 13.2855C350.385 13.3584 350.592 13.4197 350.801 13.4695L351.756 13.7081C352.14 13.7976 352.51 13.9186 352.864 14.071C353.222 14.2235 353.542 14.4157 353.824 14.6477C354.109 14.8797 354.334 15.1598 354.5 15.4879C354.666 15.8161 354.749 16.2005 354.749 16.6413C354.749 17.2379 354.596 17.7633 354.291 18.2173C353.986 18.6681 353.545 19.0211 352.969 19.2763C352.395 19.5282 351.701 19.6541 350.886 19.6541C350.093 19.6541 349.406 19.5315 348.822 19.2862C348.242 19.041 347.788 18.683 347.46 18.2124C347.135 17.7417 346.96 17.1683 346.933 16.4922H348.748C348.774 16.8468 348.884 17.1418 349.076 17.3771C349.268 17.6125 349.518 17.7881 349.827 17.9041C350.138 18.0201 350.486 18.0781 350.871 18.0781C351.272 18.0781 351.623 18.0185 351.925 17.8991C352.23 17.7765 352.468 17.6075 352.641 17.392C352.813 17.1733 352.901 16.9181 352.904 16.6264C352.901 16.3613 352.823 16.1425 352.67 15.9702C352.518 15.7945 352.304 15.6487 352.029 15.5327C351.757 15.4134 351.439 15.3073 351.074 15.2145L349.916 14.9162C349.078 14.7008 348.415 14.3743 347.927 13.9368C347.444 13.496 347.202 12.911 347.202 12.1818C347.202 11.5819 347.364 11.0566 347.689 10.6058C348.017 10.1551 348.463 9.8054 349.026 9.55682C349.59 9.30492 350.228 9.17898 350.94 9.17898C351.663 9.17898 352.296 9.30492 352.839 9.55682C353.386 9.8054 353.816 10.1518 354.127 10.5959C354.439 11.0367 354.599 11.5438 354.609 12.1172H352.834Z" fill="#F1EFEF"/>
<path d="M361.293 10.5V18.5H360.325V11.5156H360.278L358.325 12.8125V11.8281L360.325 10.5H361.293ZM363.429 18.5V17.7969L366.07 14.9062C366.38 14.5677 366.635 14.2734 366.835 14.0234C367.036 13.7708 367.184 13.5339 367.281 13.3125C367.38 13.0885 367.429 12.8542 367.429 12.6094C367.429 12.3281 367.361 12.0846 367.226 11.8789C367.093 11.6732 366.911 11.5143 366.679 11.4023C366.447 11.2904 366.187 11.2344 365.898 11.2344C365.591 11.2344 365.322 11.2982 365.093 11.4258C364.867 11.5508 364.691 11.7266 364.566 11.9531C364.444 12.1797 364.382 12.4453 364.382 12.75H363.46C363.46 12.2812 363.569 11.8698 363.785 11.5156C364.001 11.1615 364.295 10.8854 364.667 10.6875C365.042 10.4896 365.463 10.3906 365.929 10.3906C366.398 10.3906 366.813 10.4896 367.175 10.6875C367.537 10.8854 367.821 11.1523 368.027 11.4883C368.233 11.8242 368.335 12.1979 368.335 12.6094C368.335 12.9036 368.282 13.1914 368.175 13.4727C368.071 13.7513 367.889 14.0625 367.628 14.4062C367.371 14.7474 367.013 15.1641 366.554 15.6562L364.757 17.5781V17.6406H368.476V18.5H363.429ZM372.284 17.0938V11.9375H373.159V17.0938H372.284ZM370.143 14.9531V14.0781H375.299V14.9531H370.143Z" fill="#C6C6C8"/>
<rect x="386.5" width="88" height="28" rx="6" fill="#3C46C9"/>
<rect x="392.5" y="5" width="18" height="18" rx="3.5" fill="#F1EFEF"/>
<path opacity="0.4" d="M402.75 8.375H400.25C397.893 8.375 396.714 8.375 395.982 9.10723C395.25 9.83947 395.25 11.018 395.25 13.375C395.25 15.732 395.25 16.9106 395.982 17.6427C396.714 18.375 397.893 18.375 400.25 18.375H402.75C405.107 18.375 406.286 18.375 407.018 17.6427C407.75 16.9106 407.75 15.732 407.75 13.375C407.75 11.018 407.75 9.83947 407.018 9.10723C406.286 8.375 405.107 8.375 402.75 8.375Z" fill="#3C46C9"/>
<path d="M402.75 8.375H400.25C397.893 8.375 396.714 8.375 395.982 9.10723C395.25 9.83947 395.25 11.018 395.25 13.375C395.25 15.732 395.25 16.9106 395.982 17.6427C396.714 18.375 397.893 18.375 400.25 18.375H402.75C405.107 18.375 406.286 18.375 407.018 17.6427C407.75 16.9106 407.75 15.732 407.75 13.375C407.75 11.018 407.75 9.83947 407.018 9.10723C406.286 8.375 405.107 8.375 402.75 8.375Z" stroke="#3C46C9" stroke-width="1.25" stroke-linecap="round"/>
<path d="M405.25 18.375L405.875 19.625" stroke="#3C46C9" stroke-width="1.25" stroke-linecap="round" stroke-linejoin="round"/>
<path d="M397.75 18.375L397.125 19.625" stroke="#3C46C9" stroke-width="1.25" stroke-linecap="round" stroke-linejoin="round"/>
<path d="M419.394 11.8636V13.2557H415.004V11.8636H419.394ZM416.088 10.0341H417.887V17.2031C417.887 17.4451 417.924 17.6307 417.997 17.7599C418.073 17.8859 418.172 17.9721 418.295 18.0185C418.418 18.0649 418.554 18.0881 418.703 18.0881C418.815 18.0881 418.918 18.0798 419.011 18.0632C419.107 18.0466 419.18 18.0317 419.23 18.0185L419.533 19.4254C419.437 19.4586 419.299 19.495 419.12 19.5348C418.945 19.5746 418.729 19.5978 418.474 19.6044C418.023 19.6177 417.617 19.5497 417.256 19.4006C416.895 19.2481 416.608 19.0128 416.396 18.6946C416.187 18.3764 416.084 17.9787 416.088 17.5014V10.0341ZM427.51 11.8636L424.79 19.5H422.802L420.082 11.8636H422.001L423.756 17.5362H423.836L425.596 11.8636H427.51ZM437.723 14.4091C437.723 15.5062 437.517 16.4458 437.106 17.228C436.699 18.0069 436.142 18.6035 435.436 19.0178C434.733 19.4321 433.936 19.6392 433.045 19.6392C432.153 19.6392 431.354 19.4321 430.648 19.0178C429.946 18.6001 429.389 18.0019 428.978 17.223C428.57 16.4408 428.366 15.5028 428.366 14.4091C428.366 13.312 428.57 12.3741 428.978 11.5952C429.389 10.813 429.946 10.2147 430.648 9.80043C431.354 9.38613 432.153 9.17898 433.045 9.17898C433.936 9.17898 434.733 9.38613 435.436 9.80043C436.142 10.2147 436.699 10.813 437.106 11.5952C437.517 12.3741 437.723 13.312 437.723 14.4091ZM435.868 14.4091C435.868 13.6368 435.747 12.9856 435.506 12.4553C435.267 11.9216 434.935 11.5189 434.511 11.2472C434.087 10.9721 433.598 10.8345 433.045 10.8345C432.491 10.8345 432.002 10.9721 431.578 11.2472C431.154 11.5189 430.821 11.9216 430.579 12.4553C430.34 12.9856 430.221 13.6368 430.221 14.4091C430.221 15.1813 430.34 15.8343 430.579 16.3679C430.821 16.8982 431.154 17.3009 431.578 17.576C432.002 17.8478 432.491 17.9837 433.045 17.9837C433.598 17.9837 434.087 17.8478 434.511 17.576C434.935 17.3009 435.267 16.8982 435.506 16.3679C435.747 15.8343 435.868 15.1813 435.868 14.4091ZM444.79 12.1172C444.744 11.683 444.548 11.3449 444.203 11.103C443.862 10.861 443.418 10.7401 442.871 10.7401C442.487 10.7401 442.157 10.7981 441.882 10.9141C441.607 11.0301 441.396 11.1875 441.25 11.3864C441.104 11.5852 441.03 11.8123 441.027 12.0675C441.027 12.2796 441.075 12.4635 441.171 12.6193C441.27 12.7751 441.404 12.9077 441.573 13.017C441.742 13.1231 441.93 13.2126 442.135 13.2855C442.341 13.3584 442.548 13.4197 442.757 13.4695L443.711 13.7081C444.096 13.7976 444.465 13.9186 444.82 14.071C445.178 14.2235 445.498 14.4157 445.779 14.6477C446.064 14.8797 446.29 15.1598 446.456 15.4879C446.621 15.8161 446.704 16.2005 446.704 16.6413C446.704 17.2379 446.552 17.7633 446.247 18.2173C445.942 18.6681 445.501 19.0211 444.924 19.2763C444.351 19.5282 443.657 19.6541 442.841 19.6541C442.049 19.6541 441.361 19.5315 440.778 19.2862C440.198 19.041 439.744 18.683 439.416 18.2124C439.091 17.7417 438.915 17.1683 438.889 16.4922H440.703C440.73 16.8468 440.839 17.1418 441.032 17.3771C441.224 17.6125 441.474 17.7881 441.782 17.9041C442.094 18.0201 442.442 18.0781 442.826 18.0781C443.227 18.0781 443.579 18.0185 443.88 17.8991C444.185 17.7765 444.424 17.6075 444.596 17.392C444.768 17.1733 444.856 16.9181 444.86 16.6264C444.856 16.3613 444.778 16.1425 444.626 15.9702C444.474 15.7945 444.26 15.6487 443.985 15.5327C443.713 15.4134 443.395 15.3073 443.03 15.2145L441.872 14.9162C441.033 14.7008 440.37 14.3743 439.883 13.9368C439.399 13.496 439.157 12.911 439.157 12.1818C439.157 11.5819 439.32 11.0566 439.644 10.6058C439.973 10.1551 440.418 9.8054 440.982 9.55682C441.545 9.30492 442.183 9.17898 442.896 9.17898C443.618 9.17898 444.251 9.30492 444.795 9.55682C445.342 9.8054 445.771 10.1518 446.083 10.5959C446.394 11.0367 446.555 11.5438 446.565 12.1172H444.79Z" fill="#F1EFEF"/>
<path d="M453.277 10.5V18.5H452.309V11.5156H452.262L450.309 12.8125V11.8281L452.309 10.5H453.277ZM457.913 18.6094C457.455 18.6094 457.042 18.5182 456.675 18.3359C456.308 18.1536 456.013 17.9036 455.792 17.5859C455.571 17.2682 455.45 16.9062 455.429 16.5H456.366C456.403 16.862 456.567 17.1615 456.858 17.3984C457.153 17.6328 457.504 17.75 457.913 17.75C458.241 17.75 458.533 17.6732 458.788 17.5195C459.046 17.3659 459.248 17.1549 459.394 16.8867C459.542 16.6159 459.616 16.3099 459.616 15.9687C459.616 15.6198 459.539 15.3086 459.386 15.0352C459.235 14.7591 459.026 14.5417 458.761 14.3828C458.495 14.224 458.192 14.1432 457.851 14.1406C457.606 14.138 457.354 14.1758 457.097 14.2539C456.839 14.3294 456.627 14.4271 456.46 14.5469L455.554 14.4375L456.038 10.5H460.194V11.3594H456.851L456.569 13.7187H456.616C456.78 13.5885 456.986 13.4805 457.233 13.3945C457.481 13.3086 457.739 13.2656 458.007 13.2656C458.496 13.2656 458.933 13.3828 459.315 13.6172C459.701 13.849 460.003 14.1667 460.222 14.5703C460.443 14.974 460.554 15.4349 460.554 15.9531C460.554 16.4635 460.439 16.9193 460.21 17.3203C459.983 17.7187 459.671 18.0339 459.272 18.2656C458.874 18.4948 458.421 18.6094 457.913 18.6094ZM464.3 17.0938V11.9375H465.175V17.0938H464.3ZM462.159 14.9531V14.0781H467.315V14.9531H462.159Z" fill="#C6C6C8"/>
<rect x="478.5" width="111" height="28" rx="6" fill="#3C46C9"/>
<rect x="484.5" y="5" width="18" height="18" rx="3.5" fill="#F1EFEF"/>
<path opacity="0.4" d="M490.375 13.375C490.375 12.1965 490.375 11.6072 490.741 11.2411C491.107 10.875 491.696 10.875 492.875 10.875H494.125C495.304 10.875 495.893 10.875 496.259 11.2411C496.625 11.6072 496.625 12.1965 496.625 13.375V14.625C496.625 15.8035 496.625 16.3927 496.259 16.7589C495.893 17.125 495.304 17.125 494.125 17.125H492.875C491.696 17.125 491.107 17.125 490.741 16.7589C490.375 16.3927 490.375 15.8035 490.375 14.625V13.375Z" fill="#3C46C9"/>
<path d="M490.375 13.375C490.375 12.1965 490.375 11.6072 490.741 11.2411C491.107 10.875 491.696 10.875 492.875 10.875H494.125C495.303 10.875 495.893 10.875 496.259 11.2411C496.625 11.6072 496.625 12.1965 496.625 13.375V14.625C496.625 15.8035 496.625 16.3927 496.259 16.7589C495.893 17.125 495.303 17.125 494.125 17.125H492.875C491.696 17.125 491.107 17.125 490.741 16.7589C490.375 16.3927 490.375 15.8035 490.375 14.625V13.375Z" stroke="#3C46C9" stroke-width="1.25"/>
<path d="M491.312 10.875C491.312 10.875 491.743 10.038 491.84 9.00058C491.893 8.43828 491.919 8.15712 492.077 7.99796C492.236 7.83879 492.427 7.82009 492.809 7.78269C493.011 7.76294 493.241 7.75 493.5 7.75C493.759 7.75 493.989 7.76294 494.191 7.78269C494.573 7.82009 494.764 7.83879 494.923 7.99796C495.081 8.15712 495.107 8.43828 495.16 9.00058C495.257 10.038 495.688 10.875 495.688 10.875" stroke="#3C46C9" stroke-width="1.25" stroke-linecap="round" stroke-linejoin="round"/>
<path d="M495.688 17.125C495.688 17.125 495.257 17.962 495.16 18.9994C495.107 19.5617 495.081 19.8429 494.923 20.0021C494.764 20.1612 494.573 20.1799 494.191 20.2173C493.989 20.2371 493.759 20.25 493.5 20.25C493.241 20.25 493.011 20.2371 492.809 20.2173C492.427 20.1799 492.236 20.1612 492.077 20.0021C491.919 19.8429 491.893 19.5617 491.84 18.9994C491.743 17.962 491.312 17.125 491.312 17.125" stroke="#3C46C9" stroke-width="1.25" stroke-linecap="round" stroke-linejoin="round"/>
<path d="M509.335 19.5L507.177 11.8636H509.012L510.354 17.233H510.424L511.796 11.8636H513.61L514.983 17.2031H515.057L516.38 11.8636H518.219L516.056 19.5H514.182L512.75 14.3395H512.646L511.214 19.5H509.335ZM521.463 19.6541C520.979 19.6541 520.543 19.5679 520.156 19.3956C519.771 19.2199 519.466 18.9614 519.241 18.62C519.019 18.2786 518.908 17.8577 518.908 17.3572C518.908 16.9264 518.987 16.5701 519.146 16.2884C519.305 16.0066 519.522 15.7812 519.798 15.6122C520.073 15.4432 520.383 15.3156 520.727 15.2294C521.075 15.1399 521.435 15.0753 521.806 15.0355C522.254 14.9891 522.616 14.9477 522.895 14.9112C523.173 14.8714 523.375 14.8118 523.501 14.7322C523.631 14.6494 523.695 14.5218 523.695 14.3494V14.3196C523.695 13.9451 523.584 13.6551 523.362 13.4496C523.14 13.2441 522.82 13.1413 522.403 13.1413C521.962 13.1413 521.612 13.2375 521.354 13.4297C521.098 13.6219 520.926 13.849 520.837 14.1108L519.156 13.8722C519.289 13.4081 519.508 13.0204 519.812 12.7088C520.117 12.3939 520.49 12.1586 520.931 12.0028C521.372 11.8438 521.859 11.7642 522.393 11.7642C522.761 11.7642 523.127 11.8073 523.491 11.8935C523.856 11.9796 524.189 12.1222 524.491 12.321C524.792 12.5166 525.034 12.7834 525.217 13.1214C525.402 13.4595 525.495 13.8821 525.495 14.3892V19.5H523.765V18.451H523.705C523.596 18.6631 523.442 18.862 523.243 19.0476C523.047 19.2299 522.8 19.3774 522.502 19.4901C522.207 19.5994 521.861 19.6541 521.463 19.6541ZM521.93 18.3317C522.292 18.3317 522.605 18.2604 522.87 18.1179C523.135 17.9721 523.339 17.7798 523.482 17.5412C523.627 17.3026 523.7 17.0424 523.7 16.7607V15.8608C523.644 15.9072 523.548 15.9503 523.412 15.9901C523.279 16.0298 523.13 16.0646 522.964 16.0945C522.799 16.1243 522.635 16.1508 522.472 16.174C522.31 16.1972 522.169 16.2171 522.05 16.2337C521.781 16.2701 521.541 16.3298 521.329 16.4126C521.117 16.4955 520.949 16.6115 520.827 16.7607C520.704 16.9065 520.643 17.0954 520.643 17.3274C520.643 17.6589 520.764 17.9091 521.006 18.0781C521.248 18.2472 521.556 18.3317 521.93 18.3317ZM530.908 11.8636V13.2557H526.518V11.8636H530.908ZM527.602 10.0341H529.401V17.2031C529.401 17.4451 529.438 17.6307 529.511 17.7599C529.587 17.8859 529.687 17.9721 529.809 18.0185C529.932 18.0649 530.068 18.0881 530.217 18.0881C530.33 18.0881 530.432 18.0798 530.525 18.0632C530.621 18.0466 530.694 18.0317 530.744 18.0185L531.047 19.4254C530.951 19.4586 530.813 19.495 530.634 19.5348C530.459 19.5746 530.243 19.5978 529.988 19.6044C529.537 19.6177 529.131 19.5497 528.77 19.4006C528.409 19.2481 528.122 19.0128 527.91 18.6946C527.701 18.3764 527.598 17.9787 527.602 17.5014V10.0341ZM535.452 19.6491C534.69 19.6491 534.035 19.4818 533.488 19.147C532.945 18.8123 532.525 18.3499 532.23 17.7599C531.939 17.1667 531.793 16.4839 531.793 15.7116C531.793 14.9361 531.942 14.2517 532.24 13.6584C532.539 13.0618 532.96 12.5978 533.503 12.2663C534.05 11.9316 534.696 11.7642 535.442 11.7642C536.062 11.7642 536.61 11.8786 537.088 12.1072C537.568 12.3326 537.951 12.6525 538.236 13.0668C538.521 13.4777 538.684 13.9583 538.723 14.5085H537.003C536.934 14.1406 536.768 13.834 536.506 13.5888C536.247 13.3402 535.901 13.2159 535.467 13.2159C535.099 13.2159 534.776 13.3153 534.497 13.5142C534.219 13.7098 534.002 13.9915 533.846 14.3594C533.694 14.7273 533.617 15.1681 533.617 15.6818C533.617 16.2022 533.694 16.6496 533.846 17.0241C533.999 17.3954 534.212 17.6821 534.487 17.8842C534.766 18.0831 535.092 18.1825 535.467 18.1825C535.732 18.1825 535.969 18.1328 536.178 18.0334C536.39 17.9306 536.567 17.7831 536.71 17.5909C536.852 17.3987 536.95 17.165 537.003 16.8899H538.723C538.68 17.4302 538.521 17.9091 538.246 18.3267C537.971 18.741 537.596 19.0658 537.122 19.3011C536.648 19.5331 536.092 19.6491 535.452 19.6491ZM541.791 15.0256V19.5H539.991V9.31818H541.751V13.1612H541.841C542.019 12.7304 542.296 12.3906 542.671 12.142C543.049 11.8902 543.529 11.7642 544.113 11.7642C544.643 11.7642 545.105 11.8752 545.5 12.0973C545.894 12.3194 546.199 12.6442 546.414 13.0717C546.633 13.4993 546.743 14.0213 546.743 14.6378V19.5H544.943V14.9162C544.943 14.4025 544.81 14.0031 544.545 13.718C544.283 13.4297 543.915 13.2855 543.441 13.2855C543.123 13.2855 542.838 13.3551 542.586 13.4943C542.338 13.6302 542.142 13.8274 542 14.0859C541.86 14.3445 541.791 14.6577 541.791 15.0256ZM557.545 14.4091C557.545 15.5062 557.339 16.4458 556.928 17.228C556.52 18.0069 555.964 18.6035 555.258 19.0178C554.555 19.4321 553.758 19.6392 552.866 19.6392C551.975 19.6392 551.176 19.4321 550.47 19.0178C549.767 18.6001 549.211 18.0019 548.8 17.223C548.392 16.4408 548.188 15.5028 548.188 14.4091C548.188 13.312 548.392 12.3741 548.8 11.5952C549.211 10.813 549.767 10.2147 550.47 9.80043C551.176 9.38613 551.975 9.17898 552.866 9.17898C553.758 9.17898 554.555 9.38613 555.258 9.80043C555.964 10.2147 556.52 10.813 556.928 11.5952C557.339 12.3741 557.545 13.312 557.545 14.4091ZM555.69 14.4091C555.69 13.6368 555.569 12.9856 555.327 12.4553C555.089 11.9216 554.757 11.5189 554.333 11.2472C553.909 10.9721 553.42 10.8345 552.866 10.8345C552.313 10.8345 551.824 10.9721 551.4 11.2472C550.975 11.5189 550.642 11.9216 550.4 12.4553C550.162 12.9856 550.042 13.6368 550.042 14.4091C550.042 15.1813 550.162 15.8343 550.4 16.3679C550.642 16.8982 550.975 17.3009 551.4 17.576C551.824 17.8478 552.313 17.9837 552.866 17.9837C553.42 17.9837 553.909 17.8478 554.333 17.576C554.757 17.3009 555.089 16.8982 555.327 16.3679C555.569 15.8343 555.69 15.1813 555.69 14.4091ZM564.612 12.1172C564.565 11.683 564.37 11.3449 564.025 11.103C563.684 10.861 563.24 10.7401 562.693 10.7401C562.308 10.7401 561.978 10.7981 561.703 10.9141C561.428 11.0301 561.218 11.1875 561.072 11.3864C560.926 11.5852 560.852 11.8123 560.848 12.0675C560.848 12.2796 560.896 12.4635 560.992 12.6193C561.092 12.7751 561.226 12.9077 561.395 13.017C561.564 13.1231 561.751 13.2126 561.957 13.2855C562.162 13.3584 562.37 13.4197 562.578 13.4695L563.533 13.7081C563.917 13.7976 564.287 13.9186 564.642 14.071C565 14.2235 565.319 14.4157 565.601 14.6477C565.886 14.8797 566.112 15.1598 566.277 15.4879C566.443 15.8161 566.526 16.2005 566.526 16.6413C566.526 17.2379 566.373 17.7633 566.068 18.2173C565.763 18.6681 565.323 19.0211 564.746 19.2763C564.173 19.5282 563.478 19.6541 562.663 19.6541C561.871 19.6541 561.183 19.5315 560.6 19.2862C560.02 19.041 559.566 18.683 559.237 18.2124C558.913 17.7417 558.737 17.1683 558.71 16.4922H560.525C560.552 16.8468 560.661 17.1418 560.853 17.3771C561.045 17.6125 561.296 17.7881 561.604 17.9041C561.915 18.0201 562.263 18.0781 562.648 18.0781C563.049 18.0781 563.4 18.0185 563.702 17.8991C564.007 17.7765 564.246 17.6075 564.418 17.392C564.59 17.1733 564.678 16.9181 564.681 16.6264C564.678 16.3613 564.6 16.1425 564.448 15.9702C564.295 15.7945 564.081 15.6487 563.806 15.5327C563.535 15.4134 563.216 15.3073 562.852 15.2145L561.693 14.9162C560.855 14.7008 560.192 14.3743 559.705 13.9368C559.221 13.496 558.979 12.911 558.979 12.1818C558.979 11.5819 559.141 11.0566 559.466 10.6058C559.794 10.1551 560.24 9.8054 560.804 9.55682C561.367 9.30492 562.005 9.17898 562.718 9.17898C563.44 9.17898 564.073 9.30492 564.617 9.55682C565.164 9.8054 565.593 10.1518 565.904 10.5959C566.216 11.0367 566.377 11.5438 566.387 12.1172H564.612Z" fill="#F1EFEF"/>
<path d="M570.893 18.5L574.471 11.4219V11.3594H570.346V10.5H575.471V11.4062L571.909 18.5H570.893ZM579.122 17.0938V11.9375H579.997V17.0938H579.122ZM576.981 14.9531V14.0781H582.137V14.9531H576.981Z" fill="#C6C6C8"/>
<rect x="593.5" width="108" height="28" rx="6" fill="#3C46C9"/>
<rect x="599.5" y="5" width="18" height="18" rx="3.5" fill="#F1EFEF"/>
<path opacity="0.4" d="M605.062 17.4375C603.5 17.4375 602.25 16.5 602.25 14.3125C602.25 11.8125 604.125 10.5625 608.5 10.5625C612.875 10.5625 614.75 11.8125 614.75 14.3125C614.75 16.5 613.5 17.4375 611.938 17.4375C610.375 17.4375 609.438 15.875 608.5 15.875C607.562 15.875 606.625 17.4375 605.062 17.4375Z" fill="#3C46C9"/>
<path d="M605.062 17.4375C603.5 17.4375 602.25 16.5 602.25 14.3125C602.25 11.8125 604.125 10.5625 608.5 10.5625C612.875 10.5625 614.75 11.8125 614.75 14.3125C614.75 16.5 613.5 17.4375 611.938 17.4375C610.375 17.4375 609.438 15.875 608.5 15.875C607.562 15.875 606.625 17.4375 605.062 17.4375Z" stroke="#3C46C9" stroke-width="1.25" stroke-linecap="round"/>
<path d="M629.464 11.8636L626.745 19.5H624.756L622.037 11.8636H623.956L625.711 17.5362H625.79L627.55 11.8636H629.464ZM630.5 19.5V11.8636H632.299V19.5H630.5ZM631.404 10.7798C631.119 10.7798 630.874 10.6854 630.669 10.4964C630.463 10.3042 630.36 10.0739 630.36 9.8054C630.36 9.53362 630.463 9.30327 630.669 9.11435C630.874 8.92211 631.119 8.82599 631.404 8.82599C631.693 8.82599 631.938 8.92211 632.14 9.11435C632.346 9.30327 632.448 9.53362 632.448 9.8054C632.448 10.0739 632.346 10.3042 632.14 10.4964C631.938 10.6854 631.693 10.7798 631.404 10.7798ZM639.975 13.8821L638.335 14.0611C638.288 13.8954 638.207 13.7396 638.091 13.5938C637.979 13.4479 637.826 13.3303 637.634 13.2408C637.442 13.1513 637.206 13.1065 636.928 13.1065C636.553 13.1065 636.238 13.1877 635.983 13.3501C635.731 13.5125 635.607 13.723 635.61 13.9815C635.607 14.2036 635.688 14.3842 635.854 14.5234C636.023 14.6626 636.301 14.777 636.689 14.8665L637.992 15.1449C638.714 15.3007 639.251 15.5476 639.603 15.8857C639.957 16.2237 640.136 16.6662 640.139 17.2131C640.136 17.6937 639.995 18.1179 639.717 18.4858C639.442 18.8504 639.059 19.1354 638.568 19.3409C638.078 19.5464 637.514 19.6491 636.878 19.6491C635.943 19.6491 635.191 19.4536 634.621 19.0625C634.051 18.6681 633.711 18.1196 633.602 17.4169L635.357 17.2479C635.436 17.5926 635.605 17.8527 635.864 18.0284C636.122 18.2041 636.459 18.2919 636.873 18.2919C637.301 18.2919 637.644 18.2041 637.902 18.0284C638.164 17.8527 638.295 17.6357 638.295 17.3771C638.295 17.1584 638.211 16.9777 638.041 16.8352C637.876 16.6927 637.617 16.5833 637.266 16.5071L635.963 16.2337C635.231 16.0812 634.689 15.8243 634.338 15.4631C633.986 15.0985 633.812 14.6378 633.816 14.081C633.812 13.6103 633.94 13.2027 634.198 12.858C634.46 12.5099 634.823 12.2415 635.287 12.0526C635.755 11.8603 636.293 11.7642 636.903 11.7642C637.798 11.7642 638.502 11.9548 639.016 12.3359C639.533 12.7171 639.853 13.2325 639.975 13.8821ZM641.414 19.5V11.8636H643.213V19.5H641.414ZM642.318 10.7798C642.033 10.7798 641.788 10.6854 641.583 10.4964C641.377 10.3042 641.274 10.0739 641.274 9.8054C641.274 9.53362 641.377 9.30327 641.583 9.11435C641.788 8.92211 642.033 8.82599 642.318 8.82599C642.607 8.82599 642.852 8.92211 643.054 9.11435C643.26 9.30327 643.362 9.53362 643.362 9.8054C643.362 10.0739 643.26 10.3042 643.054 10.4964C642.852 10.6854 642.607 10.7798 642.318 10.7798ZM648.185 19.6491C647.439 19.6491 646.793 19.4851 646.246 19.157C645.699 18.8288 645.275 18.3698 644.973 17.7798C644.675 17.1899 644.526 16.5005 644.526 15.7116C644.526 14.9228 644.675 14.2318 644.973 13.6385C645.275 13.0452 645.699 12.5845 646.246 12.2564C646.793 11.9283 647.439 11.7642 648.185 11.7642C648.931 11.7642 649.577 11.9283 650.124 12.2564C650.671 12.5845 651.093 13.0452 651.392 13.6385C651.693 14.2318 651.844 14.9228 651.844 15.7116C651.844 16.5005 651.693 17.1899 651.392 17.7798C651.093 18.3698 650.671 18.8288 650.124 19.157C649.577 19.4851 648.931 19.6491 648.185 19.6491ZM648.195 18.2074C648.599 18.2074 648.937 18.0964 649.209 17.8743C649.481 17.6489 649.683 17.3473 649.816 16.9695C649.951 16.5916 650.019 16.1707 650.019 15.7067C650.019 15.2393 649.951 14.8168 649.816 14.4389C649.683 14.0578 649.481 13.7545 649.209 13.5291C648.937 13.3037 648.599 13.1911 648.195 13.1911C647.781 13.1911 647.436 13.3037 647.161 13.5291C646.889 13.7545 646.685 14.0578 646.549 14.4389C646.417 14.8168 646.35 15.2393 646.35 15.7067C646.35 16.1707 646.417 16.5916 646.549 16.9695C646.685 17.3473 646.889 17.6489 647.161 17.8743C647.436 18.0964 647.781 18.2074 648.195 18.2074ZM654.961 15.0256V19.5H653.161V11.8636H654.882V13.1612H654.971C655.147 12.7337 655.427 12.3939 655.811 12.142C656.199 11.8902 656.678 11.7642 657.248 11.7642C657.775 11.7642 658.234 11.8769 658.625 12.1023C659.02 12.3277 659.325 12.6541 659.54 13.0817C659.759 13.5092 659.866 14.0279 659.863 14.6378V19.5H658.063V14.9162C658.063 14.4058 657.931 14.0064 657.666 13.718C657.404 13.4297 657.041 13.2855 656.577 13.2855C656.262 13.2855 655.982 13.3551 655.737 13.4943C655.495 13.6302 655.304 13.8274 655.165 14.0859C655.029 14.3445 654.961 14.6577 654.961 15.0256ZM670.66 14.4091C670.66 15.5062 670.455 16.4458 670.044 17.228C669.636 18.0069 669.079 18.6035 668.373 19.0178C667.671 19.4321 666.874 19.6392 665.982 19.6392C665.09 19.6392 664.292 19.4321 663.586 19.0178C662.883 18.6001 662.326 18.0019 661.915 17.223C661.508 16.4408 661.304 15.5028 661.304 14.4091C661.304 13.312 661.508 12.3741 661.915 11.5952C662.326 10.813 662.883 10.2147 663.586 9.80043C664.292 9.38613 665.09 9.17898 665.982 9.17898C666.874 9.17898 667.671 9.38613 668.373 9.80043C669.079 10.2147 669.636 10.813 670.044 11.5952C670.455 12.3741 670.66 13.312 670.66 14.4091ZM668.806 14.4091C668.806 13.6368 668.685 12.9856 668.443 12.4553C668.204 11.9216 667.873 11.5189 667.449 11.2472C667.024 10.9721 666.536 10.8345 665.982 10.8345C665.429 10.8345 664.94 10.9721 664.515 11.2472C664.091 11.5189 663.758 11.9216 663.516 12.4553C663.277 12.9856 663.158 13.6368 663.158 14.4091C663.158 15.1813 663.277 15.8343 663.516 16.3679C663.758 16.8982 664.091 17.3009 664.515 17.576C664.94 17.8478 665.429 17.9837 665.982 17.9837C666.536 17.9837 667.024 17.8478 667.449 17.576C667.873 17.3009 668.204 16.8982 668.443 16.3679C668.685 15.8343 668.806 15.1813 668.806 14.4091ZM677.727 12.1172C677.681 11.683 677.485 11.3449 677.141 11.103C676.799 10.861 676.355 10.7401 675.808 10.7401C675.424 10.7401 675.094 10.7981 674.819 10.9141C674.544 11.0301 674.334 11.1875 674.188 11.3864C674.042 11.5852 673.967 11.8123 673.964 12.0675C673.964 12.2796 674.012 12.4635 674.108 12.6193C674.208 12.7751 674.342 12.9077 674.511 13.017C674.68 13.1231 674.867 13.2126 675.073 13.2855C675.278 13.3584 675.485 13.4197 675.694 13.4695L676.649 13.7081C677.033 13.7976 677.403 13.9186 677.757 14.071C678.115 14.2235 678.435 14.4157 678.717 14.6477C679.002 14.8797 679.227 15.1598 679.393 15.4879C679.559 15.8161 679.642 16.2005 679.642 16.6413C679.642 17.2379 679.489 17.7633 679.184 18.2173C678.879 18.6681 678.438 19.0211 677.862 19.2763C677.288 19.5282 676.594 19.6541 675.779 19.6541C674.986 19.6541 674.299 19.5315 673.715 19.2862C673.135 19.041 672.681 18.683 672.353 18.2124C672.028 17.7417 671.853 17.1683 671.826 16.4922H673.641C673.667 16.8468 673.777 17.1418 673.969 17.3771C674.161 17.6125 674.411 17.7881 674.72 17.9041C675.031 18.0201 675.379 18.0781 675.764 18.0781C676.165 18.0781 676.516 18.0185 676.818 17.8991C677.123 17.7765 677.361 17.6075 677.534 17.392C677.706 17.1733 677.794 16.9181 677.797 16.6264C677.794 16.3613 677.716 16.1425 677.563 15.9702C677.411 15.7945 677.197 15.6487 676.922 15.5327C676.65 15.4134 676.332 15.3073 675.968 15.2145L674.809 14.9162C673.971 14.7008 673.308 14.3743 672.82 13.9368C672.337 13.496 672.095 12.911 672.095 12.1818C672.095 11.5819 672.257 11.0566 672.582 10.6058C672.91 10.1551 673.356 9.8054 673.919 9.55682C674.483 9.30492 675.121 9.17898 675.833 9.17898C676.556 9.17898 677.189 9.30492 677.732 9.55682C678.279 9.8054 678.709 10.1518 679.02 10.5959C679.332 11.0367 679.492 11.5438 679.502 12.1172H677.727Z" fill="#F1EFEF"/>
<path d="M686.541 10.5V18.5H685.572V11.5156H685.525L683.572 12.8125V11.8281L685.572 10.5H686.541ZM691.036 17.0938V11.9375H691.911V17.0938H691.036ZM688.896 14.9531V14.0781H694.052V14.9531H688.896Z" fill="#C6C6C8"/>
<rect x="119" y="32" width="139" height="28" rx="6" fill="#006AB2"/>
<rect x="125" y="37" width="18" height="18" rx="3.5" fill="#F1EFEF"/>
<path d="M137.088 42.7165V39.7162C137.091 39.6109 137.179 39.5287 137.284 39.5303C138.307 39.5923 139.237 39.6824 140.032 39.7944L140.035 39.7951C140.109 39.8039 140.171 39.856 140.195 39.9268L140.195 39.9267L140.196 39.9299C140.198 39.9376 140.2 39.9453 140.201 39.9532L140.203 39.9597C140.206 39.9804 140.209 40.004 140.213 40.0313C140.311 40.696 140.413 41.7453 140.467 42.6972C140.467 42.6972 140.479 42.9095 140.266 42.9095H137.281C137.174 42.9095 137.088 42.8232 137.088 42.7165ZM137.088 39.7032L137.088 39.7162V39.7101L137.088 39.7032H137.088Z" fill="#006AB2"/>
<path d="M130.91 52.2805V49.0874V49.2805C130.91 49.1738 130.824 49.0874 130.717 49.0874H127.732C127.519 49.0874 127.531 49.3 127.531 49.3C127.585 50.2517 127.687 51.3012 127.785 51.966C127.789 51.9935 127.793 52.0175 127.796 52.0384L127.797 52.0442C127.798 52.0522 127.8 52.0599 127.802 52.0676L127.803 52.0708H127.803C127.827 52.1409 127.888 52.1923 127.961 52.2019C128.757 52.3145 129.69 52.4048 130.716 52.467C130.82 52.4678 130.907 52.3854 130.91 52.2805Z" fill="#006AB2"/>
<path d="M134.387 42.697C134.387 42.697 134.387 42.9098 134.599 42.9098H136.104C136.104 42.9098 136.317 42.9098 136.317 42.697V39.6941C136.317 39.6941 136.317 39.4811 136.105 39.4726C135.698 39.4557 135.052 39.4405 134.599 39.4375C134.599 39.4375 134.387 39.4362 134.387 39.6491V42.697Z" fill="#006AB2"/>
<path d="M133.998 52.3498V49.1518V49.2805C133.998 49.174 133.912 49.0874 133.805 49.0874H133.934H131.895C131.895 49.0874 131.682 49.0874 131.682 49.3003V52.3032C131.682 52.3032 131.682 52.5161 131.894 52.5248C132.42 52.5464 133.197 52.5626 133.786 52.5626C133.786 52.5626 133.998 52.5626 133.998 52.3498Z" fill="#006AB2"/>
<path d="M131.682 42.697C131.682 42.697 131.682 42.9098 131.895 42.9098H133.399C133.399 42.9098 133.612 42.9098 133.612 42.697V39.6489C133.612 39.6489 133.612 39.436 133.399 39.4375C132.947 39.4405 132.301 39.456 131.894 39.4727C131.894 39.4727 131.682 39.4814 131.682 39.6942V42.697Z" fill="#006AB2"/>
<path d="M127.694 48.3156H130.697C130.697 48.3156 130.91 48.3156 130.91 48.1027V46.5976C130.91 46.5976 130.91 46.3848 130.697 46.3848H127.649C127.649 46.3848 127.436 46.3848 127.438 46.5976C127.44 47.05 127.456 47.696 127.473 48.1027C127.473 48.1027 127.482 48.3156 127.694 48.3156Z" fill="#006AB2"/>
<path d="M127.438 45.3999C127.438 45.3999 127.436 45.6127 127.649 45.6127H130.697C130.697 45.6127 130.91 45.6127 130.91 45.3999V43.8949C130.91 43.8949 130.91 43.6821 130.697 43.6821H127.694C127.694 43.6821 127.481 43.6821 127.473 43.8947C127.456 44.3014 127.44 44.9477 127.438 45.3999Z" fill="#006AB2"/>
<path d="M130.91 42.7165V39.7162C130.907 39.6109 130.819 39.5287 130.714 39.5303C129.691 39.5923 128.761 39.6824 127.966 39.7944L127.963 39.7951C127.889 39.8039 127.827 39.856 127.803 39.9268L127.803 39.9267L127.802 39.9299C127.8 39.9376 127.798 39.9453 127.797 39.9532L127.795 39.9597C127.792 39.9804 127.789 40.004 127.785 40.0313C127.687 40.696 127.585 41.7453 127.531 42.6972C127.531 42.6972 127.519 42.9095 127.732 42.9095H130.717C130.824 42.9095 130.91 42.8232 130.91 42.7165ZM130.91 39.7032L130.91 39.7162V39.7101L130.91 39.7032H130.91Z" fill="#006AB2"/>
<path d="M137.088 48.3287C137.088 48.3287 137.088 48.5415 137.238 48.692C137.238 48.692 137.088 48.5415 140.097 51.5508C140.097 51.5508 140.247 51.7011 140.274 51.49C140.421 50.3435 140.533 48.6399 140.555 46.9837C140.555 46.9837 140.558 46.771 140.345 46.771H137.259C137.259 46.771 137.088 46.771 137.088 46.9424V48.3287Z" fill="#006AB2"/>
<path d="M140.563 45.809C140.56 45.0759 140.545 44.379 140.525 43.8947C140.525 43.8947 140.516 43.6821 140.304 43.6821H137.301C137.301 43.6821 137.088 43.6821 137.088 43.8949V45.7859C137.088 45.7859 137.088 45.9987 137.301 45.9987H140.37C140.475 45.9987 140.561 45.9141 140.563 45.809Z" fill="#006AB2"/>
<path d="M139.551 52.0968C137.478 50.0239 136.833 49.379 136.633 49.1784C136.569 49.1171 136.497 49.0835 136.435 49.0878V49.0876H134.984C134.984 49.0876 134.771 49.0876 134.771 49.3006V52.3449C134.771 52.3449 134.771 52.5577 134.984 52.555C136.641 52.5331 138.344 52.4206 139.491 52.2742C139.491 52.2742 139.702 52.2471 139.551 52.0968Z" fill="#006AB2"/>
<path d="M148.084 41.3182H150.341L153.364 48.696H153.483L156.506 41.3182H158.763V51.5H156.993V44.505H156.899L154.085 51.4702H152.762L149.948 44.4901H149.854V51.5H148.084V41.3182ZM162.68 51.6541C162.196 51.6541 161.76 51.5679 161.372 51.3956C160.988 51.2199 160.683 50.9614 160.457 50.62C160.235 50.2786 160.124 49.8577 160.124 49.3572C160.124 48.9264 160.204 48.5701 160.363 48.2884C160.522 48.0066 160.739 47.7812 161.014 47.6122C161.289 47.4432 161.599 47.3156 161.944 47.2294C162.292 47.1399 162.651 47.0753 163.023 47.0355C163.47 46.9891 163.833 46.9477 164.111 46.9112C164.39 46.8714 164.592 46.8118 164.718 46.7322C164.847 46.6494 164.912 46.5218 164.912 46.3494V46.3196C164.912 45.9451 164.801 45.6551 164.579 45.4496C164.357 45.2441 164.037 45.1413 163.619 45.1413C163.178 45.1413 162.829 45.2375 162.57 45.4297C162.315 45.6219 162.143 45.849 162.053 46.1108L160.373 45.8722C160.505 45.4081 160.724 45.0204 161.029 44.7088C161.334 44.3939 161.707 44.1586 162.148 44.0028C162.588 43.8438 163.076 43.7642 163.609 43.7642C163.977 43.7642 164.343 43.8073 164.708 43.8935C165.072 43.9796 165.406 44.1222 165.707 44.321C166.009 44.5166 166.251 44.7834 166.433 45.1214C166.619 45.4595 166.711 45.8821 166.711 46.3892V51.5H164.981V50.451H164.922C164.812 50.6631 164.658 50.862 164.459 51.0476C164.264 51.2299 164.017 51.3774 163.719 51.4901C163.424 51.5994 163.077 51.6541 162.68 51.6541ZM163.147 50.3317C163.508 50.3317 163.821 50.2604 164.086 50.1179C164.352 49.9721 164.555 49.7798 164.698 49.5412C164.844 49.3026 164.917 49.0424 164.917 48.7607V47.8608C164.86 47.9072 164.764 47.9503 164.628 47.9901C164.496 48.0298 164.347 48.0646 164.181 48.0945C164.015 48.1243 163.851 48.1508 163.689 48.174C163.526 48.1972 163.385 48.2171 163.266 48.2337C162.998 48.2701 162.757 48.3298 162.545 48.4126C162.333 48.4955 162.166 48.6115 162.043 48.7607C161.921 48.9065 161.859 49.0954 161.859 49.3274C161.859 49.6589 161.98 49.9091 162.222 50.0781C162.464 50.2472 162.772 50.3317 163.147 50.3317ZM171.145 51.6342C170.545 51.6342 170.008 51.4801 169.534 51.1719C169.06 50.8636 168.686 50.4162 168.411 49.8295C168.135 49.2429 167.998 48.5303 167.998 47.6918C167.998 46.8433 168.137 46.1274 168.416 45.544C168.697 44.9574 169.077 44.5149 169.554 44.2166C170.031 43.915 170.563 43.7642 171.15 43.7642C171.597 43.7642 171.965 43.8404 172.254 43.9929C172.542 44.142 172.771 44.3227 172.94 44.5348C173.109 44.7436 173.24 44.9408 173.332 45.1264H173.407V41.3182H175.212V51.5H173.442V50.2969H173.332C173.24 50.4825 173.105 50.6797 172.93 50.8885C172.754 51.094 172.522 51.2696 172.234 51.4155C171.945 51.5613 171.582 51.6342 171.145 51.6342ZM171.647 50.1577C172.028 50.1577 172.353 50.0549 172.621 49.8494C172.89 49.6406 173.094 49.3506 173.233 48.9794C173.372 48.6082 173.442 48.1757 173.442 47.6818C173.442 47.188 173.372 46.7588 173.233 46.3942C173.097 46.0296 172.895 45.7462 172.626 45.544C172.361 45.3419 172.035 45.2408 171.647 45.2408C171.246 45.2408 170.911 45.3452 170.643 45.554C170.374 45.7628 170.172 46.0511 170.036 46.419C169.9 46.7869 169.832 47.2079 169.832 47.6818C169.832 48.1591 169.9 48.585 170.036 48.9595C170.175 49.3307 170.379 49.6241 170.648 49.8395C170.92 50.0516 171.253 50.1577 171.647 50.1577ZM180.3 51.6491C179.535 51.6491 178.873 51.4901 178.317 51.1719C177.763 50.8504 177.337 50.3963 177.039 49.8097C176.741 49.2197 176.591 48.5253 176.591 47.7266C176.591 46.9411 176.741 46.2517 177.039 45.6584C177.34 45.0618 177.761 44.5978 178.302 44.2663C178.842 43.9316 179.477 43.7642 180.206 43.7642C180.676 43.7642 181.12 43.8404 181.538 43.9929C181.959 44.142 182.33 44.3741 182.652 44.6889C182.977 45.0038 183.232 45.4048 183.417 45.892C183.603 46.3759 183.696 46.9527 183.696 47.6222V48.174H177.437V46.9609H181.971C181.967 46.6162 181.893 46.3097 181.747 46.0412C181.601 45.7694 181.397 45.5556 181.135 45.3999C180.877 45.2441 180.575 45.1662 180.231 45.1662C179.863 45.1662 179.54 45.2557 179.261 45.4347C178.983 45.6103 178.766 45.8423 178.61 46.1307C178.457 46.4157 178.379 46.7289 178.376 47.0703V48.1293C178.376 48.5734 178.457 48.9545 178.62 49.2727C178.782 49.5876 179.009 49.8295 179.301 49.9986C179.593 50.1643 179.934 50.2472 180.325 50.2472C180.587 50.2472 180.824 50.2107 181.036 50.1378C181.248 50.0616 181.432 49.9505 181.588 49.8047C181.744 49.6589 181.861 49.4782 181.941 49.2628L183.621 49.4517C183.515 49.8958 183.313 50.2836 183.015 50.6151C182.72 50.9432 182.342 51.1984 181.881 51.3807C181.42 51.5597 180.893 51.6491 180.3 51.6491ZM188.271 51.5V43.8636H190.071V51.5H188.271ZM189.176 42.7798C188.891 42.7798 188.645 42.6854 188.44 42.4964C188.235 42.3042 188.132 42.0739 188.132 41.8054C188.132 41.5336 188.235 41.3033 188.44 41.1143C188.645 40.9221 188.891 40.826 189.176 40.826C189.464 40.826 189.709 40.9221 189.912 41.1143C190.117 41.3033 190.22 41.5336 190.22 41.8054C190.22 42.0739 190.117 42.3042 189.912 42.4964C189.709 42.6854 189.464 42.7798 189.176 42.7798ZM193.511 47.0256V51.5H191.711V43.8636H193.432V45.1612H193.521C193.697 44.7337 193.977 44.3939 194.361 44.142C194.749 43.8902 195.228 43.7642 195.798 43.7642C196.325 43.7642 196.784 43.8769 197.175 44.1023C197.57 44.3277 197.874 44.6541 198.09 45.0817C198.309 45.5092 198.416 46.0279 198.413 46.6378V51.5H196.613V46.9162C196.613 46.4058 196.481 46.0064 196.216 45.718C195.954 45.4297 195.591 45.2855 195.127 45.2855C194.812 45.2855 194.532 45.3551 194.287 45.4943C194.045 45.6302 193.854 45.8274 193.715 46.0859C193.579 46.3445 193.511 46.6577 193.511 47.0256ZM203.375 51.5V41.3182H205.219V45.9964H205.344L209.316 41.3182H211.568L207.63 45.8871L211.603 51.5H209.385L206.348 47.1349L205.219 48.4673V51.5H203.375ZM212.56 51.5V43.8636H214.305V45.1364H214.384C214.524 44.6955 214.762 44.3558 215.1 44.1172C215.442 43.8752 215.831 43.7543 216.269 43.7543C216.368 43.7543 216.479 43.7592 216.602 43.7692C216.728 43.7758 216.832 43.7874 216.915 43.804V45.4595C216.839 45.433 216.718 45.4098 216.552 45.3899C216.39 45.3667 216.232 45.3551 216.08 45.3551C215.752 45.3551 215.457 45.4264 215.195 45.5689C214.936 45.7081 214.732 45.902 214.583 46.1506C214.434 46.3991 214.36 46.6858 214.36 47.0107V51.5H212.56ZM219.961 51.6541C219.477 51.6541 219.042 51.5679 218.654 51.3956C218.269 51.2199 217.964 50.9614 217.739 50.62C217.517 50.2786 217.406 49.8577 217.406 49.3572C217.406 48.9264 217.486 48.5701 217.645 48.2884C217.804 48.0066 218.021 47.7812 218.296 47.6122C218.571 47.4432 218.881 47.3156 219.226 47.2294C219.574 47.1399 219.933 47.0753 220.304 47.0355C220.752 46.9891 221.115 46.9477 221.393 46.9112C221.672 46.8714 221.874 46.8118 222 46.7322C222.129 46.6494 222.194 46.5218 222.194 46.3494V46.3196C222.194 45.9451 222.083 45.6551 221.861 45.4496C221.638 45.2441 221.319 45.1413 220.901 45.1413C220.46 45.1413 220.111 45.2375 219.852 45.4297C219.597 45.6219 219.424 45.849 219.335 46.1108L217.655 45.8722C217.787 45.4081 218.006 45.0204 218.311 44.7088C218.616 44.3939 218.989 44.1586 219.429 44.0028C219.87 43.8438 220.357 43.7642 220.891 43.7642C221.259 43.7642 221.625 43.8073 221.99 43.8935C222.354 43.9796 222.687 44.1222 222.989 44.321C223.291 44.5166 223.533 44.7834 223.715 45.1214C223.901 45.4595 223.993 45.8821 223.993 46.3892V51.5H222.263V50.451H222.204C222.094 50.6631 221.94 50.862 221.741 51.0476C221.546 51.2299 221.299 51.3774 221 51.4901C220.705 51.5994 220.359 51.6541 219.961 51.6541ZM220.429 50.3317C220.79 50.3317 221.103 50.2604 221.368 50.1179C221.633 49.9721 221.837 49.7798 221.98 49.5412C222.126 49.3026 222.199 49.0424 222.199 48.7607V47.8608C222.142 47.9072 222.046 47.9503 221.91 47.9901C221.778 48.0298 221.629 48.0646 221.463 48.0945C221.297 48.1243 221.133 48.1508 220.971 48.174C220.808 48.1972 220.667 48.2171 220.548 48.2337C220.28 48.2701 220.039 48.3298 219.827 48.4126C219.615 48.4955 219.448 48.6115 219.325 48.7607C219.202 48.9065 219.141 49.0954 219.141 49.3274C219.141 49.6589 219.262 49.9091 219.504 50.0781C219.746 50.2472 220.054 50.3317 220.429 50.3317ZM227.234 49.1037L227.229 46.9311H227.517L230.261 43.8636H232.364L228.989 47.6222H228.616L227.234 49.1037ZM225.593 51.5V41.3182H227.393V51.5H225.593ZM230.386 51.5L227.9 48.0249L229.113 46.7571L232.538 51.5H230.386ZM236.37 51.6491C235.624 51.6491 234.978 51.4851 234.431 51.157C233.884 50.8288 233.46 50.3698 233.159 49.7798C232.86 49.1899 232.711 48.5005 232.711 47.7116C232.711 46.9228 232.86 46.2318 233.159 45.6385C233.46 45.0452 233.884 44.5845 234.431 44.2564C234.978 43.9283 235.624 43.7642 236.37 43.7642C237.116 43.7642 237.762 43.9283 238.309 44.2564C238.856 44.5845 239.279 45.0452 239.577 45.6385C239.879 46.2318 240.029 46.9228 240.029 47.7116C240.029 48.5005 239.879 49.1899 239.577 49.7798C239.279 50.3698 238.856 50.8288 238.309 51.157C237.762 51.4851 237.116 51.6491 236.37 51.6491ZM236.38 50.2074C236.785 50.2074 237.123 50.0964 237.394 49.8743C237.666 49.6489 237.868 49.3473 238.001 48.9695C238.137 48.5916 238.205 48.1707 238.205 47.7067C238.205 47.2393 238.137 46.8168 238.001 46.4389C237.868 46.0578 237.666 45.7545 237.394 45.5291C237.123 45.3037 236.785 45.1911 236.38 45.1911C235.966 45.1911 235.621 45.3037 235.346 45.5291C235.074 45.7545 234.87 46.0578 234.735 46.4389C234.602 46.8168 234.536 47.2393 234.536 47.7067C234.536 48.1707 234.602 48.5916 234.735 48.9695C234.87 49.3473 235.074 49.6489 235.346 49.8743C235.621 50.0964 235.966 50.2074 236.38 50.2074ZM235.679 42.8594L236.793 40.5874H238.553L237.026 42.8594H235.679ZM242.704 51.5L240.546 43.8636H242.381L243.723 49.233H243.793L245.165 43.8636H246.98L248.352 49.2031H248.426L249.749 43.8636H251.588L249.426 51.5H247.551L246.12 46.3395H246.015L244.583 51.5H242.704Z" fill="#F1EFEF"/>
<rect x="262" y="32" width="153" height="28" rx="6" fill="#3C46C9"/>
<rect x="268" y="37" width="18" height="18" rx="3.5" fill="#F1EFEF"/>
<path opacity="0.4" fill-rule="evenodd" clip-rule="evenodd" d="M282.889 43.5C282.937 44.2048 282.938 45.0711 282.938 46.152V46.473C282.938 49.1963 282.938 50.5579 282.155 51.404C281.372 52.25 280.113 52.25 277.594 52.25H276.406C273.887 52.25 272.628 52.25 271.845 51.404C271.062 50.5579 271.062 49.1963 271.062 46.473V46.152C271.062 45.0711 271.062 44.2048 271.111 43.5H282.889ZM277 46.3125C277.542 46.3125 278.02 46.5888 278.3 47.0082C278.466 47.2563 278.562 47.5543 278.562 47.875C278.562 48.1957 278.466 48.4938 278.3 48.7419C278.02 49.1613 277.542 49.4375 277 49.4375C276.458 49.4375 275.98 49.1613 275.7 48.7419C275.534 48.4938 275.438 48.1957 275.438 47.875C275.438 47.5543 275.534 47.2563 275.7 47.0082C275.98 46.5888 276.458 46.3125 277 46.3125Z" fill="#3C46C9"/>
<path d="M280.75 39.75V41M273.25 39.75V41" stroke="#3C46C9" stroke-width="1.25" stroke-linecap="round" stroke-linejoin="round"/>
<path d="M271.375 43.5H282.625" stroke="#3C46C9" stroke-width="1.25" stroke-linecap="round" stroke-linejoin="round"/>
<path d="M271.062 46.152C271.062 43.4287 271.062 42.0671 271.845 41.221C272.628 40.375 273.887 40.375 276.406 40.375H277.594C280.113 40.375 281.372 40.375 282.155 41.221C282.938 42.0671 282.938 43.4287 282.938 46.152V46.473C282.938 49.1963 282.938 50.5579 282.155 51.404C281.372 52.25 280.113 52.25 277.594 52.25H276.406C273.887 52.25 272.628 52.25 271.845 51.404C271.062 50.5579 271.062 49.1963 271.062 46.473V46.152Z" stroke="#3C46C9" stroke-width="1.25" stroke-linecap="round" stroke-linejoin="round"/>
<path d="M277 49.4375V50.0625M277 49.4375C276.458 49.4375 275.98 49.1613 275.7 48.7419M277 49.4375C277.542 49.4375 278.02 49.1613 278.3 48.7419M275.7 48.7419L275.125 49.125M275.7 48.7419C275.534 48.4938 275.438 48.1957 275.438 47.875C275.438 47.5543 275.534 47.2563 275.7 47.0082M278.3 48.7419L278.875 49.125M278.3 48.7419C278.466 48.4938 278.562 48.1957 278.562 47.875C278.562 47.5543 278.466 47.2563 278.3 47.0082M277 46.3125C277.542 46.3125 278.02 46.5888 278.3 47.0082M277 46.3125C276.458 46.3125 275.98 46.5888 275.7 47.0082M277 46.3125V45.6875M278.3 47.0082L278.875 46.625M275.7 47.0082L275.125 46.625" stroke="#3C46C9" stroke-width="1.25" stroke-linecap="round"/>
<path d="M290.819 49.6108V48.1442L295.139 41.3182H296.362V43.4062H295.616L292.708 48.0149V48.0945H298.738V49.6108H290.819ZM295.676 51.5V49.1634L295.696 48.5071V41.3182H297.436V51.5H295.676ZM300.958 51.6094C300.657 51.6094 300.398 51.5033 300.183 51.2912C299.967 51.0791 299.861 50.8205 299.864 50.5156C299.861 50.2173 299.967 49.9621 300.183 49.75C300.398 49.5379 300.657 49.4318 300.958 49.4318C301.25 49.4318 301.503 49.5379 301.719 49.75C301.938 49.9621 302.049 50.2173 302.052 50.5156C302.049 50.7178 301.996 50.9018 301.893 51.0675C301.793 51.2332 301.661 51.3658 301.495 51.4652C301.333 51.5613 301.154 51.6094 300.958 51.6094ZM307.047 51.6939C306.229 51.6939 305.526 51.4867 304.939 51.0724C304.356 50.6548 303.907 50.0533 303.592 49.2678C303.28 48.4789 303.125 47.5294 303.125 46.419C303.128 45.3087 303.285 44.3641 303.597 43.5852C303.912 42.803 304.361 42.2064 304.944 41.7955C305.531 41.3845 306.232 41.179 307.047 41.179C307.863 41.179 308.564 41.3845 309.15 41.7955C309.737 42.2064 310.186 42.803 310.498 43.5852C310.812 44.3674 310.97 45.312 310.97 46.419C310.97 47.5327 310.812 48.4839 310.498 49.2727C310.186 50.0582 309.737 50.6581 309.15 51.0724C308.567 51.4867 307.866 51.6939 307.047 51.6939ZM307.047 50.1378C307.684 50.1378 308.186 49.8246 308.554 49.1982C308.925 48.5684 309.11 47.642 309.11 46.419C309.11 45.6103 309.026 44.9309 308.857 44.3807C308.688 43.8305 308.449 43.4162 308.141 43.1378C307.833 42.8561 307.468 42.7152 307.047 42.7152C306.414 42.7152 305.914 43.0301 305.546 43.6598C305.178 44.2862 304.992 45.206 304.989 46.419C304.986 47.2311 305.067 47.9138 305.233 48.4673C305.402 49.0208 305.64 49.4384 305.949 49.7202C306.257 49.9986 306.623 50.1378 307.047 50.1378ZM313.144 51.6094C312.842 51.6094 312.584 51.5033 312.368 51.2912C312.153 51.0791 312.047 50.8205 312.05 50.5156C312.047 50.2173 312.153 49.9621 312.368 49.75C312.584 49.5379 312.842 49.4318 313.144 49.4318C313.435 49.4318 313.689 49.5379 313.904 49.75C314.123 49.9621 314.234 50.2173 314.237 50.5156C314.234 50.7178 314.181 50.9018 314.078 51.0675C313.979 51.2332 313.846 51.3658 313.681 51.4652C313.518 51.5613 313.339 51.6094 313.144 51.6094ZM319.233 51.6939C318.414 51.6939 317.711 51.4867 317.125 51.0724C316.541 50.6548 316.092 50.0533 315.777 49.2678C315.466 48.4789 315.31 47.5294 315.31 46.419C315.313 45.3087 315.471 44.3641 315.782 43.5852C316.097 42.803 316.546 42.2064 317.13 41.7955C317.716 41.3845 318.417 41.179 319.233 41.179C320.048 41.179 320.749 41.3845 321.336 41.7955C321.922 42.2064 322.371 42.803 322.683 43.5852C322.998 44.3674 323.155 45.312 323.155 46.419C323.155 47.5327 322.998 48.4839 322.683 49.2727C322.371 50.0582 321.922 50.6581 321.336 51.0724C320.752 51.4867 320.051 51.6939 319.233 51.6939ZM319.233 50.1378C319.869 50.1378 320.371 49.8246 320.739 49.1982C321.11 48.5684 321.296 47.642 321.296 46.419C321.296 45.6103 321.211 44.9309 321.042 44.3807C320.873 43.8305 320.635 43.4162 320.326 43.1378C320.018 42.8561 319.654 42.7152 319.233 42.7152C318.6 42.7152 318.099 43.0301 317.731 43.6598C317.363 44.2862 317.178 45.206 317.174 46.419C317.171 47.2311 317.252 47.9138 317.418 48.4673C317.587 49.0208 317.826 49.4384 318.134 49.7202C318.442 49.9986 318.808 50.1378 319.233 50.1378Z" fill="#F1EFEF"/>
<path d="M333.801 42.5V50.5H332.863L328.504 44.2187H328.426V50.5H327.457V42.5H328.394L332.769 48.7969H332.847V42.5H333.801ZM337.887 50.625C337.345 50.625 336.87 50.4961 336.461 50.2383C336.054 49.9805 335.737 49.6198 335.508 49.1562C335.281 48.6927 335.168 48.151 335.168 47.5312C335.168 46.9062 335.281 46.3607 335.508 45.8945C335.737 45.4284 336.054 45.0664 336.461 44.8086C336.87 44.5508 337.345 44.4219 337.887 44.4219C338.428 44.4219 338.902 44.5508 339.308 44.8086C339.717 45.0664 340.035 45.4284 340.262 45.8945C340.491 46.3607 340.605 46.9062 340.605 47.5312C340.605 48.151 340.491 48.6927 340.262 49.1562C340.035 49.6198 339.717 49.9805 339.308 50.2383C338.902 50.4961 338.428 50.625 337.887 50.625ZM337.887 49.7969C338.298 49.7969 338.637 49.6914 338.902 49.4805C339.168 49.2695 339.364 48.9922 339.492 48.6484C339.62 48.3047 339.683 47.9323 339.683 47.5312C339.683 47.1302 339.62 46.7565 339.492 46.4102C339.364 46.0638 339.168 45.7839 338.902 45.5703C338.637 45.3568 338.298 45.25 337.887 45.25C337.475 45.25 337.137 45.3568 336.871 45.5703C336.605 45.7839 336.409 46.0638 336.281 46.4102C336.153 46.7565 336.09 47.1302 336.09 47.5312C336.09 47.9323 336.153 48.3047 336.281 48.6484C336.409 48.9922 336.605 49.2695 336.871 49.4805C337.137 49.6914 337.475 49.7969 337.887 49.7969ZM346.539 44.5L344.32 50.5H343.383L341.164 44.5H342.164L343.82 49.2812H343.883L345.539 44.5H346.539ZM349.891 50.625C349.313 50.625 348.815 50.4974 348.395 50.2422C347.979 49.9844 347.657 49.625 347.431 49.1641C347.207 48.7005 347.095 48.1615 347.095 47.5469C347.095 46.9323 347.207 46.3906 347.431 45.9219C347.657 45.4505 347.972 45.0833 348.376 44.8203C348.782 44.5547 349.256 44.4219 349.798 44.4219C350.11 44.4219 350.419 44.474 350.724 44.5781C351.028 44.6823 351.306 44.8516 351.556 45.0859C351.806 45.3177 352.005 45.625 352.153 46.0078C352.302 46.3906 352.376 46.862 352.376 47.4219V47.8125H347.751V47.0156H351.438C351.438 46.6771 351.371 46.375 351.235 46.1094C351.102 45.8437 350.912 45.6341 350.665 45.4805C350.42 45.3268 350.131 45.25 349.798 45.25C349.431 45.25 349.113 45.3411 348.845 45.5234C348.579 45.7031 348.375 45.9375 348.231 46.2266C348.088 46.5156 348.016 46.8255 348.016 47.1562V47.6875C348.016 48.1406 348.095 48.5247 348.251 48.8398C348.41 49.1523 348.63 49.3906 348.911 49.5547C349.192 49.7161 349.519 49.7969 349.891 49.7969C350.134 49.7969 350.352 49.763 350.548 49.6953C350.746 49.625 350.916 49.5208 351.059 49.3828C351.203 49.2422 351.313 49.0677 351.391 48.8594L352.282 49.1094C352.188 49.4115 352.031 49.6771 351.809 49.9062C351.588 50.1328 351.315 50.3099 350.989 50.4375C350.664 50.5625 350.298 50.625 349.891 50.625ZM353.613 50.5V44.5H354.504V45.4375H354.582C354.707 45.1172 354.909 44.8685 355.187 44.6914C355.466 44.5117 355.801 44.4219 356.191 44.4219C356.587 44.4219 356.917 44.5117 357.18 44.6914C357.445 44.8685 357.652 45.1172 357.801 45.4375H357.863C358.017 45.1276 358.247 44.8815 358.555 44.6992C358.862 44.5143 359.23 44.4219 359.66 44.4219C360.197 44.4219 360.635 44.5898 360.976 44.9258C361.318 45.2591 361.488 45.7786 361.488 46.4844V50.5H360.566V46.4844C360.566 46.0417 360.445 45.7253 360.203 45.5352C359.961 45.3451 359.676 45.25 359.348 45.25C358.926 45.25 358.599 45.3776 358.367 45.6328C358.135 45.8854 358.019 46.2057 358.019 46.5937V50.5H357.082V46.3906C357.082 46.0495 356.971 45.7747 356.75 45.5664C356.529 45.3555 356.243 45.25 355.894 45.25C355.655 45.25 355.431 45.3138 355.223 45.4414C355.017 45.569 354.85 45.7461 354.723 45.9727C354.598 46.1966 354.535 46.4557 354.535 46.75V50.5H353.613ZM363.134 50.5V42.5H364.056V45.4531H364.134C364.201 45.349 364.295 45.2161 364.415 45.0547C364.537 44.8906 364.712 44.7448 364.938 44.6172C365.168 44.487 365.478 44.4219 365.868 44.4219C366.373 44.4219 366.819 44.5482 367.204 44.8008C367.589 45.0534 367.89 45.4115 368.106 45.875C368.323 46.3385 368.431 46.8854 368.431 47.5156C368.431 48.151 368.323 48.7018 368.106 49.168C367.89 49.6315 367.591 49.9909 367.208 50.2461C366.825 50.4987 366.384 50.625 365.884 50.625C365.498 50.625 365.19 50.5612 364.958 50.4336C364.726 50.3034 364.548 50.1562 364.423 49.9922C364.298 49.8255 364.201 49.6875 364.134 49.5781H364.024V50.5H363.134ZM364.04 47.5C364.04 47.9531 364.106 48.3529 364.239 48.6992C364.372 49.043 364.566 49.3125 364.821 49.5078C365.076 49.7005 365.389 49.7969 365.759 49.7969C366.144 49.7969 366.466 49.6953 366.724 49.4922C366.984 49.2865 367.179 49.0104 367.31 48.6641C367.442 48.3151 367.509 47.9271 367.509 47.5C367.509 47.0781 367.444 46.6979 367.313 46.3594C367.186 46.0182 366.992 45.7487 366.731 45.5508C366.474 45.3503 366.149 45.25 365.759 45.25C365.384 45.25 365.069 45.3451 364.813 45.5352C364.558 45.7227 364.366 45.9857 364.235 46.3242C364.105 46.6602 364.04 47.0521 364.04 47.5ZM372.191 50.625C371.613 50.625 371.115 50.4974 370.695 50.2422C370.279 49.9844 369.957 49.625 369.73 49.1641C369.507 48.7005 369.395 48.1615 369.395 47.5469C369.395 46.9323 369.507 46.3906 369.73 45.9219C369.957 45.4505 370.272 45.0833 370.676 44.8203C371.082 44.5547 371.556 44.4219 372.098 44.4219C372.41 44.4219 372.719 44.474 373.023 44.5781C373.328 44.6823 373.605 44.8516 373.855 45.0859C374.105 45.3177 374.305 45.625 374.453 46.0078C374.602 46.3906 374.676 46.862 374.676 47.4219V47.8125H370.051V47.0156H373.738C373.738 46.6771 373.671 46.375 373.535 46.1094C373.402 45.8437 373.212 45.6341 372.965 45.4805C372.72 45.3268 372.431 45.25 372.098 45.25C371.73 45.25 371.413 45.3411 371.145 45.5234C370.879 45.7031 370.674 45.9375 370.531 46.2266C370.388 46.5156 370.316 46.8255 370.316 47.1562V47.6875C370.316 48.1406 370.395 48.5247 370.551 48.8398C370.71 49.1523 370.93 49.3906 371.211 49.5547C371.492 49.7161 371.819 49.7969 372.191 49.7969C372.434 49.7969 372.652 49.763 372.848 49.6953C373.046 49.625 373.216 49.5208 373.359 49.3828C373.503 49.2422 373.613 49.0677 373.691 48.8594L374.582 49.1094C374.488 49.4115 374.331 49.6771 374.109 49.9062C373.888 50.1328 373.615 50.3099 373.289 50.4375C372.964 50.5625 372.598 50.625 372.191 50.625ZM375.913 50.5V44.5H376.804V45.4062H376.866C376.976 45.1094 377.174 44.8685 377.46 44.6836C377.746 44.4987 378.069 44.4062 378.429 44.4062C378.496 44.4062 378.581 44.4076 378.683 44.4102C378.784 44.4128 378.861 44.4167 378.913 44.4219V45.3594C378.882 45.3516 378.81 45.3398 378.698 45.3242C378.589 45.306 378.473 45.2969 378.351 45.2969C378.059 45.2969 377.799 45.3581 377.569 45.4805C377.343 45.6003 377.163 45.7669 377.03 45.9805C376.9 46.1914 376.835 46.4323 376.835 46.7031V50.5H375.913ZM382.754 50.5V49.7969L385.395 46.9062C385.705 46.5677 385.96 46.2734 386.16 46.0234C386.361 45.7708 386.509 45.5339 386.606 45.3125C386.705 45.0885 386.754 44.8542 386.754 44.6094C386.754 44.3281 386.686 44.0846 386.551 43.8789C386.418 43.6732 386.236 43.5143 386.004 43.4023C385.772 43.2904 385.512 43.2344 385.223 43.2344C384.915 43.2344 384.647 43.2982 384.418 43.4258C384.192 43.5508 384.016 43.7266 383.891 43.9531C383.768 44.1797 383.707 44.4453 383.707 44.75H382.785C382.785 44.2812 382.893 43.8698 383.109 43.5156C383.326 43.1615 383.62 42.8854 383.992 42.6875C384.367 42.4896 384.788 42.3906 385.254 42.3906C385.723 42.3906 386.138 42.4896 386.5 42.6875C386.862 42.8854 387.146 43.1523 387.352 43.4883C387.557 43.8242 387.66 44.1979 387.66 44.6094C387.66 44.9036 387.607 45.1914 387.5 45.4727C387.396 45.7513 387.214 46.0625 386.953 46.4062C386.695 46.7474 386.337 47.1641 385.879 47.6562L384.082 49.5781V49.6406H387.801V50.5H382.754ZM391.859 50.6094C391.27 50.6094 390.769 50.4492 390.355 50.1289C389.941 49.806 389.624 49.3385 389.405 48.7266C389.187 48.112 389.077 47.3698 389.077 46.5C389.077 45.6354 389.187 44.8971 389.405 44.2852C389.627 43.6706 389.944 43.2018 390.359 42.8789C390.775 42.5534 391.275 42.3906 391.859 42.3906C392.442 42.3906 392.941 42.5534 393.355 42.8789C393.771 43.2018 394.089 43.6706 394.308 44.2852C394.529 44.8971 394.64 45.6354 394.64 46.5C394.64 47.3698 394.53 48.112 394.312 48.7266C394.093 49.3385 393.777 49.806 393.362 50.1289C392.948 50.4492 392.447 50.6094 391.859 50.6094ZM391.859 49.75C392.442 49.75 392.895 49.4687 393.218 48.9062C393.541 48.3437 393.702 47.5417 393.702 46.5C393.702 45.8073 393.628 45.2174 393.48 44.7305C393.334 44.2435 393.123 43.8724 392.847 43.6172C392.573 43.362 392.244 43.2344 391.859 43.2344C391.28 43.2344 390.829 43.5195 390.503 44.0898C390.178 44.6576 390.015 45.4609 390.015 46.5C390.015 47.1927 390.088 47.7812 390.234 48.2656C390.379 48.75 390.589 49.1185 390.862 49.3711C391.139 49.6237 391.471 49.75 391.859 49.75ZM395.959 50.5V49.7969L398.6 46.9062C398.91 46.5677 399.165 46.2734 399.365 46.0234C399.566 45.7708 399.714 45.5339 399.811 45.3125C399.91 45.0885 399.959 44.8542 399.959 44.6094C399.959 44.3281 399.891 44.0846 399.756 43.8789C399.623 43.6732 399.441 43.5143 399.209 43.4023C398.977 43.2904 398.717 43.2344 398.428 43.2344C398.121 43.2344 397.852 43.2982 397.623 43.4258C397.397 43.5508 397.221 43.7266 397.096 43.9531C396.974 44.1797 396.912 44.4453 396.912 44.75H395.99C395.99 44.2812 396.099 43.8698 396.315 43.5156C396.531 43.1615 396.825 42.8854 397.197 42.6875C397.572 42.4896 397.993 42.3906 398.459 42.3906C398.928 42.3906 399.343 42.4896 399.705 42.6875C400.067 42.8854 400.351 43.1523 400.557 43.4883C400.763 43.8242 400.865 44.1979 400.865 44.6094C400.865 44.9036 400.812 45.1914 400.705 45.4727C400.601 45.7513 400.419 46.0625 400.158 46.4062C399.901 46.7474 399.543 47.1641 399.084 47.6562L397.287 49.5781V49.6406H401.006V50.5H395.959ZM402.095 48.8594V48.0625L405.611 42.5H406.189V43.7344H405.798L403.142 47.9375V48H407.876V48.8594H402.095ZM405.861 50.5V48.6172V48.2461V42.5H406.782V50.5H405.861Z" fill="#C6C6C8"/>
<rect x="419" y="32" width="164" height="28" rx="6" fill="#3C46C9"/>
<rect x="425" y="37" width="18" height="18" rx="3.5" fill="#F1EFEF"/>
<path d="M434 52.25H433.062C430.705 52.25 429.527 52.25 428.795 51.5177C428.062 50.7855 428.062 49.607 428.063 47.2499L428.063 44.75C428.063 42.393 428.063 41.2145 428.795 40.4822C429.527 39.75 430.706 39.75 433.062 39.75H433.687C436.044 39.75 437.223 39.75 437.955 40.4822C438.687 41.2145 438.687 42.393 438.687 44.75V45.375" stroke="#3C46C9" stroke-width="1.25" stroke-linecap="round" stroke-linejoin="round"/>
<path d="M430.875 42.875H435.875M430.875 46H433.688" stroke="#3C46C9" stroke-width="1.25" stroke-linecap="round" stroke-linejoin="round"/>
<path d="M437.438 51.4829C438.542 51.4829 439.438 50.5672 439.438 49.4375C439.438 48.3078 438.542 47.3921 437.438 47.3921M437.438 51.4829C436.333 51.4829 435.438 50.5672 435.438 49.4375C435.438 48.3078 436.333 47.3921 437.438 47.3921M437.438 51.4829V52.25M437.438 47.3921V46.625M435.62 48.3218L434.938 47.9034M439.938 50.9716L439.256 50.5532M439.255 48.3218L439.937 47.9034M434.938 50.9716L435.619 50.5532" stroke="#3C46C9" stroke-width="1.25" stroke-linecap="round"/>
<path opacity="0.4" d="M438.687 44.75V47.25C438.687 47.4552 438.687 47.6516 438.687 47.8394C438.345 47.5592 437.91 47.3916 437.438 47.3916C436.333 47.3916 435.438 48.3074 435.438 49.4371C435.438 50.5667 436.333 51.4825 437.438 51.4825C437.665 51.4825 437.883 51.4439 438.086 51.3727C438.045 51.423 438.002 51.4713 437.955 51.5177C437.223 52.25 436.044 52.25 433.687 52.25H433.062C430.705 52.25 429.527 52.25 428.795 51.5177C428.062 50.7855 428.062 49.607 428.063 47.2499L428.063 44.75C428.063 42.393 428.063 41.2145 428.795 40.4822C429.527 39.75 430.706 39.75 433.062 39.75H433.687C436.044 39.75 437.223 39.75 437.955 40.4822C438.687 41.2145 438.687 42.393 438.687 44.75Z" fill="#3C46C9"/>
<path d="M449.597 51.5H447.628L451.213 41.3182H453.49L457.079 51.5H455.11L452.391 43.4062H452.311L449.597 51.5ZM449.661 47.5078H455.031V48.9893H449.661V47.5078ZM458.131 54.3636V43.8636H459.9V45.1264H460.005C460.098 44.9408 460.229 44.7436 460.398 44.5348C460.567 44.3227 460.795 44.142 461.084 43.9929C461.372 43.8404 461.74 43.7642 462.187 43.7642C462.777 43.7642 463.309 43.915 463.783 44.2166C464.261 44.5149 464.638 44.9574 464.917 45.544C465.199 46.1274 465.339 46.8433 465.339 47.6918C465.339 48.5303 465.202 49.2429 464.927 49.8295C464.652 50.4162 464.277 50.8636 463.803 51.1719C463.329 51.4801 462.792 51.6342 462.192 51.6342C461.755 51.6342 461.392 51.5613 461.104 51.4155C460.815 51.2696 460.583 51.094 460.408 50.8885C460.235 50.6797 460.101 50.4825 460.005 50.2969H459.93V54.3636H458.131ZM459.895 47.6818C459.895 48.1757 459.965 48.6082 460.104 48.9794C460.247 49.3506 460.451 49.6406 460.716 49.8494C460.984 50.0549 461.309 50.1577 461.69 50.1577C462.088 50.1577 462.421 50.0516 462.69 49.8395C462.958 49.6241 463.16 49.3307 463.296 48.9595C463.435 48.585 463.505 48.1591 463.505 47.6818C463.505 47.2079 463.437 46.7869 463.301 46.419C463.165 46.0511 462.963 45.7628 462.694 45.554C462.426 45.3452 462.091 45.2408 461.69 45.2408C461.306 45.2408 460.979 45.3419 460.711 45.544C460.442 45.7462 460.239 46.0296 460.099 46.3942C459.963 46.7588 459.895 47.188 459.895 47.6818ZM468.868 51.6541C468.384 51.6541 467.948 51.5679 467.56 51.3956C467.176 51.2199 466.871 50.9614 466.646 50.62C466.424 50.2786 466.313 49.8577 466.313 49.3572C466.313 48.9264 466.392 48.5701 466.551 48.2884C466.71 48.0066 466.927 47.7812 467.203 47.6122C467.478 47.4432 467.788 47.3156 468.132 47.2294C468.48 47.1399 468.84 47.0753 469.211 47.0355C469.659 46.9891 470.021 46.9477 470.3 46.9112C470.578 46.8714 470.78 46.8118 470.906 46.7322C471.036 46.6494 471.1 46.5218 471.1 46.3494V46.3196C471.1 45.9451 470.989 45.6551 470.767 45.4496C470.545 45.2441 470.225 45.1413 469.808 45.1413C469.367 45.1413 469.017 45.2375 468.759 45.4297C468.503 45.6219 468.331 45.849 468.242 46.1108L466.561 45.8722C466.694 45.4081 466.913 45.0204 467.217 44.7088C467.522 44.3939 467.895 44.1586 468.336 44.0028C468.777 43.8438 469.264 43.7642 469.798 43.7642C470.166 43.7642 470.532 43.8073 470.896 43.8935C471.261 43.9796 471.594 44.1222 471.896 44.321C472.197 44.5166 472.439 44.7834 472.622 45.1214C472.807 45.4595 472.9 45.8821 472.9 46.3892V51.5H471.17V50.451H471.11C471.001 50.6631 470.847 50.862 470.648 51.0476C470.452 51.2299 470.205 51.3774 469.907 51.4901C469.612 51.5994 469.266 51.6541 468.868 51.6541ZM469.335 50.3317C469.697 50.3317 470.01 50.2604 470.275 50.1179C470.54 49.9721 470.744 49.7798 470.886 49.5412C471.032 49.3026 471.105 49.0424 471.105 48.7607V47.8608C471.049 47.9072 470.953 47.9503 470.817 47.9901C470.684 48.0298 470.535 48.0646 470.369 48.0945C470.204 48.1243 470.04 48.1508 469.877 48.174C469.715 48.1972 469.574 48.2171 469.455 48.2337C469.186 48.2701 468.946 48.3298 468.734 48.4126C468.522 48.4955 468.354 48.6115 468.232 48.7607C468.109 48.9065 468.048 49.0954 468.048 49.3274C468.048 49.6589 468.169 49.9091 468.411 50.0781C468.653 50.2472 468.961 50.3317 469.335 50.3317ZM477.831 51.6491C477.068 51.6491 476.414 51.4818 475.867 51.147C475.323 50.8123 474.904 50.3499 474.609 49.7599C474.317 49.1667 474.172 48.4839 474.172 47.7116C474.172 46.9361 474.321 46.2517 474.619 45.6584C474.917 45.0618 475.338 44.5978 475.882 44.2663C476.429 43.9316 477.075 43.7642 477.821 43.7642C478.44 43.7642 478.989 43.8786 479.466 44.1072C479.947 44.3326 480.33 44.6525 480.615 45.0668C480.9 45.4777 481.062 45.9583 481.102 46.5085H479.382C479.312 46.1406 479.146 45.834 478.885 45.5888C478.626 45.3402 478.28 45.2159 477.846 45.2159C477.478 45.2159 477.154 45.3153 476.876 45.5142C476.598 45.7098 476.381 45.9915 476.225 46.3594C476.072 46.7273 475.996 47.1681 475.996 47.6818C475.996 48.2022 476.072 48.6496 476.225 49.0241C476.377 49.3954 476.591 49.6821 476.866 49.8842C477.145 50.0831 477.471 50.1825 477.846 50.1825C478.111 50.1825 478.348 50.1328 478.556 50.0334C478.769 49.9306 478.946 49.7831 479.088 49.5909C479.231 49.3987 479.329 49.165 479.382 48.8899H481.102C481.059 49.4302 480.9 49.9091 480.625 50.3267C480.35 50.741 479.975 51.0658 479.501 51.3011C479.027 51.5331 478.47 51.6491 477.831 51.6491ZM484.169 47.0256V51.5H482.37V41.3182H484.13V45.1612H484.219C484.398 44.7304 484.675 44.3906 485.049 44.142C485.427 43.8902 485.908 43.7642 486.491 43.7642C487.021 43.7642 487.484 43.8752 487.878 44.0973C488.273 44.3194 488.578 44.6442 488.793 45.0717C489.012 45.4993 489.121 46.0213 489.121 46.6378V51.5H487.321V46.9162C487.321 46.4025 487.189 46.0031 486.924 45.718C486.662 45.4297 486.294 45.2855 485.82 45.2855C485.502 45.2855 485.217 45.3551 484.965 45.4943C484.716 45.6302 484.521 45.8274 484.378 46.0859C484.239 46.3445 484.169 46.6577 484.169 47.0256ZM494.126 51.6491C493.361 51.6491 492.699 51.4901 492.143 51.1719C491.589 50.8504 491.163 50.3963 490.865 49.8097C490.567 49.2197 490.418 48.5253 490.418 47.7266C490.418 46.9411 490.567 46.2517 490.865 45.6584C491.167 45.0618 491.588 44.5978 492.128 44.2663C492.668 43.9316 493.303 43.7642 494.032 43.7642C494.503 43.7642 494.947 43.8404 495.364 43.9929C495.785 44.142 496.156 44.3741 496.478 44.6889C496.803 45.0038 497.058 45.4048 497.244 45.892C497.429 46.3759 497.522 46.9527 497.522 47.6222V48.174H491.263V46.9609H495.797C495.793 46.6162 495.719 46.3097 495.573 46.0412C495.427 45.7694 495.223 45.5556 494.962 45.3999C494.703 45.2441 494.401 45.1662 494.057 45.1662C493.689 45.1662 493.366 45.2557 493.087 45.4347C492.809 45.6103 492.592 45.8423 492.436 46.1307C492.284 46.4157 492.206 46.7289 492.202 47.0703V48.1293C492.202 48.5734 492.284 48.9545 492.446 49.2727C492.608 49.5876 492.835 49.8295 493.127 49.9986C493.419 50.1643 493.76 50.2472 494.151 50.2472C494.413 50.2472 494.65 50.2107 494.862 50.1378C495.074 50.0616 495.258 49.9505 495.414 49.8047C495.57 49.6589 495.687 49.4782 495.767 49.2628L497.447 49.4517C497.341 49.8958 497.139 50.2836 496.841 50.6151C496.546 50.9432 496.168 51.1984 495.707 51.3807C495.247 51.5597 494.72 51.6491 494.126 51.6491ZM502.077 51.5V50.1676L505.612 46.7024C505.95 46.361 506.232 46.0578 506.457 45.7926C506.683 45.5275 506.852 45.2706 506.964 45.022C507.077 44.7734 507.133 44.5083 507.133 44.2266C507.133 43.9051 507.06 43.63 506.915 43.4013C506.769 43.1693 506.568 42.9903 506.313 42.8643C506.058 42.7384 505.768 42.6754 505.443 42.6754C505.108 42.6754 504.815 42.745 504.563 42.8842C504.311 43.0201 504.116 43.214 503.976 43.4659C503.841 43.7178 503.773 44.0178 503.773 44.3658H502.018C502.018 43.7195 502.165 43.1577 502.46 42.6804C502.755 42.2031 503.161 41.8336 503.678 41.5717C504.198 41.3099 504.795 41.179 505.468 41.179C506.151 41.179 506.751 41.3066 507.268 41.5618C507.785 41.817 508.186 42.1667 508.471 42.6108C508.759 43.0549 508.903 43.562 508.903 44.1321C508.903 44.5133 508.83 44.8878 508.684 45.2557C508.539 45.6236 508.282 46.0312 507.914 46.4787C507.549 46.9261 507.037 47.468 506.378 48.1044L504.623 49.8892V49.9588H509.057V51.5H502.077ZM511.691 51.6094C511.39 51.6094 511.131 51.5033 510.916 51.2912C510.7 51.0791 510.594 50.8205 510.597 50.5156C510.594 50.2173 510.7 49.9621 510.916 49.75C511.131 49.5379 511.39 49.4318 511.691 49.4318C511.983 49.4318 512.236 49.5379 512.452 49.75C512.671 49.9621 512.782 50.2173 512.785 50.5156C512.782 50.7178 512.729 50.9018 512.626 51.0675C512.526 51.2332 512.394 51.3658 512.228 51.4652C512.066 51.5613 511.887 51.6094 511.691 51.6094ZM517.78 51.6939C516.961 51.6939 516.259 51.4867 515.672 51.0724C515.089 50.6548 514.64 50.0533 514.325 49.2678C514.013 48.4789 513.858 47.5294 513.858 46.419C513.861 45.3087 514.018 44.3641 514.33 43.5852C514.645 42.803 515.094 42.2064 515.677 41.7955C516.264 41.3845 516.965 41.179 517.78 41.179C518.595 41.179 519.296 41.3845 519.883 41.7955C520.47 42.2064 520.919 42.803 521.23 43.5852C521.545 44.3674 521.703 45.312 521.703 46.419C521.703 47.5327 521.545 48.4839 521.23 49.2727C520.919 50.0582 520.47 50.6581 519.883 51.0724C519.3 51.4867 518.599 51.6939 517.78 51.6939ZM517.78 50.1378C518.416 50.1378 518.919 49.8246 519.287 49.1982C519.658 48.5684 519.843 47.642 519.843 46.419C519.843 45.6103 519.759 44.9309 519.59 44.3807C519.421 43.8305 519.182 43.4162 518.874 43.1378C518.566 42.8561 518.201 42.7152 517.78 42.7152C517.147 42.7152 516.647 43.0301 516.279 43.6598C515.911 44.2862 515.725 45.206 515.722 46.419C515.719 47.2311 515.8 47.9138 515.965 48.4673C516.135 49.0208 516.373 49.4384 516.681 49.7202C516.99 49.9986 517.356 50.1378 517.78 50.1378ZM526.507 51.5V41.3182H528.351V49.9538H532.835V51.5H526.507ZM534.147 51.5V43.8636H535.946V51.5H534.147ZM535.052 42.7798C534.767 42.7798 534.521 42.6854 534.316 42.4964C534.11 42.3042 534.008 42.0739 534.008 41.8054C534.008 41.5336 534.11 41.3033 534.316 41.1143C534.521 40.9221 534.767 40.826 535.052 40.826C535.34 40.826 535.585 40.9221 535.787 41.1143C535.993 41.3033 536.096 41.5336 536.096 41.8054C536.096 42.0739 535.993 42.3042 535.787 42.4964C535.585 42.6854 535.34 42.7798 535.052 42.7798ZM540.918 51.6491C540.156 51.6491 539.501 51.4818 538.954 51.147C538.411 50.8123 537.991 50.3499 537.697 49.7599C537.405 49.1667 537.259 48.4839 537.259 47.7116C537.259 46.9361 537.408 46.2517 537.706 45.6584C538.005 45.0618 538.426 44.5978 538.969 44.2663C539.516 43.9316 540.162 43.7642 540.908 43.7642C541.528 43.7642 542.076 43.8786 542.554 44.1072C543.034 44.3326 543.417 44.6525 543.702 45.0668C543.987 45.4777 544.15 45.9583 544.189 46.5085H542.469C542.4 46.1406 542.234 45.834 541.972 45.5888C541.714 45.3402 541.367 45.2159 540.933 45.2159C540.565 45.2159 540.242 45.3153 539.964 45.5142C539.685 45.7098 539.468 45.9915 539.312 46.3594C539.16 46.7273 539.084 47.1681 539.084 47.6818C539.084 48.2022 539.16 48.6496 539.312 49.0241C539.465 49.3954 539.679 49.6821 539.954 49.8842C540.232 50.0831 540.558 50.1825 540.933 50.1825C541.198 50.1825 541.435 50.1328 541.644 50.0334C541.856 49.9306 542.033 49.7831 542.176 49.5909C542.318 49.3987 542.416 49.165 542.469 48.8899H544.189C544.146 49.4302 543.987 49.9091 543.712 50.3267C543.437 50.741 543.063 51.0658 542.589 51.3011C542.115 51.5331 541.558 51.6491 540.918 51.6491ZM548.838 51.6491C548.072 51.6491 547.411 51.4901 546.854 51.1719C546.301 50.8504 545.875 50.3963 545.577 49.8097C545.278 49.2197 545.129 48.5253 545.129 47.7266C545.129 46.9411 545.278 46.2517 545.577 45.6584C545.878 45.0618 546.299 44.5978 546.839 44.2663C547.38 43.9316 548.014 43.7642 548.743 43.7642C549.214 43.7642 549.658 43.8404 550.076 43.9929C550.497 44.142 550.868 44.3741 551.189 44.6889C551.514 45.0038 551.769 45.4048 551.955 45.892C552.141 46.3759 552.233 46.9527 552.233 47.6222V48.174H545.974V46.9609H550.508C550.505 46.6162 550.43 46.3097 550.285 46.0412C550.139 45.7694 549.935 45.5556 549.673 45.3999C549.415 45.2441 549.113 45.1662 548.768 45.1662C548.4 45.1662 548.077 45.2557 547.799 45.4347C547.52 45.6103 547.303 45.8423 547.148 46.1307C546.995 46.4157 546.917 46.7289 546.914 47.0703V48.1293C546.914 48.5734 546.995 48.9545 547.158 49.2727C547.32 49.5876 547.547 49.8295 547.839 49.9986C548.13 50.1643 548.472 50.2472 548.863 50.2472C549.125 50.2472 549.362 50.2107 549.574 50.1378C549.786 50.0616 549.97 49.9505 550.126 49.8047C550.281 49.6589 550.399 49.4782 550.479 49.2628L552.159 49.4517C552.053 49.8958 551.851 50.2836 551.552 50.6151C551.257 50.9432 550.88 51.1984 550.419 51.3807C549.958 51.5597 549.431 51.6491 548.838 51.6491ZM555.346 47.0256V51.5H553.546V43.8636H555.266V45.1612H555.356C555.531 44.7337 555.811 44.3939 556.196 44.142C556.584 43.8902 557.063 43.7642 557.633 43.7642C558.16 43.7642 558.619 43.8769 559.01 44.1023C559.404 44.3277 559.709 44.6541 559.925 45.0817C560.143 45.5092 560.251 46.0279 560.248 46.6378V51.5H558.448V46.9162C558.448 46.4058 558.315 46.0064 558.05 45.718C557.788 45.4297 557.426 45.2855 556.962 45.2855C556.647 45.2855 556.367 45.3551 556.121 45.4943C555.879 45.6302 555.689 45.8274 555.55 46.0859C555.414 46.3445 555.346 46.6577 555.346 47.0256ZM567.903 45.8821L566.262 46.0611C566.216 45.8954 566.135 45.7396 566.019 45.5938C565.906 45.4479 565.753 45.3303 565.561 45.2408C565.369 45.1513 565.134 45.1065 564.855 45.1065C564.481 45.1065 564.166 45.1877 563.911 45.3501C563.659 45.5125 563.534 45.723 563.538 45.9815C563.534 46.2036 563.616 46.3842 563.781 46.5234C563.95 46.6626 564.229 46.777 564.617 46.8665L565.919 47.1449C566.642 47.3007 567.179 47.5476 567.53 47.8857C567.885 48.2237 568.064 48.6662 568.067 49.2131C568.064 49.6937 567.923 50.1179 567.644 50.4858C567.369 50.8504 566.986 51.1354 566.496 51.3409C566.005 51.5464 565.442 51.6491 564.806 51.6491C563.871 51.6491 563.118 51.4536 562.548 51.0625C561.978 50.6681 561.639 50.1196 561.529 49.4169L563.284 49.2479C563.364 49.5926 563.533 49.8527 563.791 50.0284C564.05 50.2041 564.386 50.2919 564.801 50.2919C565.228 50.2919 565.571 50.2041 565.83 50.0284C566.091 49.8527 566.222 49.6357 566.222 49.3771C566.222 49.1584 566.138 48.9777 565.969 48.8352C565.803 48.6927 565.545 48.5833 565.193 48.5071L563.891 48.2337C563.158 48.0812 562.616 47.8243 562.265 47.4631C561.914 47.0985 561.74 46.6378 561.743 46.081C561.74 45.6103 561.867 45.2027 562.126 44.858C562.388 44.5099 562.751 44.2415 563.215 44.0526C563.682 43.8603 564.221 43.7642 564.83 43.7642C565.725 43.7642 566.43 43.9548 566.943 44.3359C567.46 44.7171 567.78 45.2325 567.903 45.8821ZM572.722 51.6491C571.956 51.6491 571.295 51.4901 570.738 51.1719C570.184 50.8504 569.759 50.3963 569.46 49.8097C569.162 49.2197 569.013 48.5253 569.013 47.7266C569.013 46.9411 569.162 46.2517 569.46 45.6584C569.762 45.0618 570.183 44.5978 570.723 44.2663C571.263 43.9316 571.898 43.7642 572.627 43.7642C573.098 43.7642 573.542 43.8404 573.959 43.9929C574.38 44.142 574.752 44.3741 575.073 44.6889C575.398 45.0038 575.653 45.4048 575.839 45.892C576.024 46.3759 576.117 46.9527 576.117 47.6222V48.174H569.858V46.9609H574.392C574.389 46.6162 574.314 46.3097 574.168 46.0412C574.022 45.7694 573.819 45.5556 573.557 45.3999C573.298 45.2441 572.997 45.1662 572.652 45.1662C572.284 45.1662 571.961 45.2557 571.683 45.4347C571.404 45.6103 571.187 45.8423 571.031 46.1307C570.879 46.4157 570.801 46.7289 570.798 47.0703V48.1293C570.798 48.5734 570.879 48.9545 571.041 49.2727C571.204 49.5876 571.431 49.8295 571.722 49.9986C572.014 50.1643 572.355 50.2472 572.746 50.2472C573.008 50.2472 573.245 50.2107 573.457 50.1378C573.669 50.0616 573.853 49.9505 574.009 49.8047C574.165 49.6589 574.283 49.4782 574.362 49.2628L576.043 49.4517C575.937 49.8958 575.734 50.2836 575.436 50.6151C575.141 50.9432 574.763 51.1984 574.303 51.3807C573.842 51.5597 573.315 51.6491 572.722 51.6491Z" fill="#F1EFEF"/>
</svg>
