<svg width="34" height="31" viewBox="0 0 34 31" fill="none" xmlns="http://www.w3.org/2000/svg">
<g clip-path="url(#clip0_318_692)">
<path fill-rule="evenodd" clip-rule="evenodd" d="M4.66324 29.5928C3.60073 28.7086 3.06948 27.4255 3.06948 25.7434V20.6808C3.06948 19.3222 2.69563 18.2816 1.94794 17.5592C1.49539 17.1171 0.846073 16.7666 0 16.5078V14.5507C0.954292 14.1949 1.6282 13.8013 2.02172 13.37C2.72022 12.626 3.06948 11.4884 3.06948 9.95724V5.62252C3.06948 5.0726 3.1531 4.49571 3.32035 3.89187C3.61549 2.84593 4.11723 2.01565 4.82557 1.40103C5.47488 0.840321 6.23733 0.468312 7.11292 0.285003C7.64417 0.166392 8.40662 0.101695 9.40027 0.0909119H24.5997C25.5934 0.101695 26.3558 0.166392 26.8871 0.285003C27.7627 0.468312 28.5251 0.840321 29.1744 1.40103C29.8828 2.01565 30.3845 2.84593 30.6797 3.89187C30.8469 4.49571 30.9305 5.0726 30.9305 5.62252V9.95724C30.9305 11.4884 31.2798 12.626 31.9783 13.37C32.3718 13.8013 33.0457 14.1949 34 14.5507V16.5078C33.1539 16.7666 32.5046 17.1171 32.0521 17.5592C31.3044 18.2816 30.9305 19.3222 30.9305 20.6808V25.7434C30.9305 27.4255 30.3993 28.7086 29.3368 29.5928C28.2841 30.4662 27.0543 30.9245 25.6475 30.9677L24.5997 31H9.40027L8.35252 30.9677C6.94567 30.9245 5.71591 30.4662 4.66324 29.5928ZM15.9334 9.68793C15.7637 9.85767 15.7637 10.1309 15.7637 10.6773V10.8318C15.7637 11.3782 15.7637 11.6514 15.9334 11.8212C16.1031 11.9909 16.3763 11.9909 16.9227 11.9909H17.0773C17.6237 11.9909 17.8969 11.9909 18.0666 11.8212C18.2364 11.6514 18.2364 11.3782 18.2364 10.8318V10.6773C18.2364 10.1309 18.2364 9.85767 18.0666 9.68793C17.8969 9.51818 17.6237 9.51818 17.0773 9.51818H16.9227C16.3763 9.51818 16.1031 9.51818 15.9334 9.68793ZM6.18182 15.4682C6.18182 14.9218 6.18182 14.6486 6.35156 14.4788C6.52131 14.3091 6.79451 14.3091 7.34091 14.3091H7.49545C8.04185 14.3091 8.31506 14.3091 8.4848 14.4788C8.65454 14.6486 8.65454 14.9218 8.65454 15.4682V15.4682V15.6227V15.6227C8.65454 16.1691 8.65454 16.4423 8.4848 16.6121C8.31506 16.7818 8.04185 16.7818 7.49545 16.7818H7.34091C6.79451 16.7818 6.52131 16.7818 6.35156 16.6121C6.18182 16.4423 6.18182 16.1691 6.18182 15.6227V15.4682ZM6.18182 20.2591C6.18182 19.7127 6.18182 19.4395 6.35156 19.2697C6.52131 19.1 6.79451 19.1 7.34091 19.1H7.49545C8.04185 19.1 8.31506 19.1 8.4848 19.2697C8.65455 19.4395 8.65454 19.7127 8.65454 20.2591V20.4136C8.65454 20.96 8.65455 21.2332 8.4848 21.403C8.31506 21.5727 8.04185 21.5727 7.49545 21.5727H7.34091C6.79451 21.5727 6.52131 21.5727 6.35156 21.403C6.18182 21.2332 6.18182 20.96 6.18182 20.4136V20.2591ZM11.1425 14.4788C10.9727 14.6486 10.9727 14.9218 10.9727 15.4682V15.6227C10.9727 16.1691 10.9727 16.4423 11.1425 16.6121C11.3122 16.7818 11.5854 16.7818 12.1318 16.7818H12.2864C12.8328 16.7818 13.106 16.7818 13.2757 16.6121C13.4455 16.4423 13.4455 16.1691 13.4455 15.6227V15.6227V15.4682V15.4682C13.4455 14.9218 13.4455 14.6486 13.2757 14.4788C13.106 14.3091 12.8328 14.3091 12.2864 14.3091H12.1318C11.5854 14.3091 11.3122 14.3091 11.1425 14.4788ZM10.9727 20.2591C10.9727 19.7127 10.9727 19.4395 11.1425 19.2697C11.3122 19.1 11.5854 19.1 12.1318 19.1H12.2864C12.8328 19.1 13.106 19.1 13.2757 19.2697C13.4455 19.4395 13.4455 19.7127 13.4455 20.2591V20.4136C13.4455 20.96 13.4455 21.2332 13.2757 21.403C13.106 21.5727 12.8328 21.5727 12.2864 21.5727H12.1318C11.5854 21.5727 11.3122 21.5727 11.1425 21.403C10.9727 21.2332 10.9727 20.96 10.9727 20.4136V20.2591ZM15.7637 15.4682C15.7637 14.9218 15.7637 14.6486 15.9334 14.4788C16.1031 14.3091 16.3763 14.3091 16.9227 14.3091H17.0773C17.6237 14.3091 17.8969 14.3091 18.0666 14.4788C18.2364 14.6486 18.2364 14.9218 18.2364 15.4682V15.6227C18.2364 16.1691 18.2364 16.4423 18.0666 16.6121C17.8969 16.7818 17.6237 16.7818 17.0773 16.7818H16.9227C16.3763 16.7818 16.1031 16.7818 15.9334 16.6121C15.7637 16.4423 15.7637 16.1691 15.7637 15.6227V15.4682ZM15.9334 19.2697C15.7637 19.4395 15.7637 19.7127 15.7637 20.2591V20.4136C15.7637 20.96 15.7637 21.2332 15.9334 21.403C16.1031 21.5727 16.3763 21.5727 16.9227 21.5727H17.0773C17.6237 21.5727 17.8969 21.5727 18.0666 21.403C18.2364 21.2332 18.2364 20.96 18.2364 20.4136V20.2591C18.2364 19.7127 18.2364 19.4395 18.0666 19.2697C17.8969 19.1 17.6237 19.1 17.0773 19.1H16.9227C16.3763 19.1 16.1031 19.1 15.9334 19.2697ZM20.5545 10.6773C20.5545 10.1309 20.5545 9.85767 20.7243 9.68793C20.894 9.51818 21.1672 9.51818 21.7136 9.51818H21.8682C22.4146 9.51818 22.6878 9.51818 22.8575 9.68793C23.0273 9.85767 23.0273 10.1309 23.0273 10.6773V10.8318C23.0273 11.3782 23.0273 11.6514 22.8575 11.8212C22.6878 11.9909 22.4146 11.9909 21.8682 11.9909H21.7136C21.1672 11.9909 20.894 11.9909 20.7243 11.8212C20.5545 11.6514 20.5545 11.3782 20.5545 10.8318V10.6773ZM20.7243 14.4788C20.5545 14.6486 20.5545 14.9218 20.5545 15.4682V15.6227C20.5545 16.1691 20.5545 16.4423 20.7243 16.6121C20.894 16.7818 21.1672 16.7818 21.7136 16.7818H21.8682C22.4146 16.7818 22.6878 16.7818 22.8575 16.6121C23.0273 16.4423 23.0273 16.1691 23.0273 15.6227V15.4682C23.0273 14.9218 23.0273 14.6486 22.8575 14.4788C22.6878 14.3091 22.4146 14.3091 21.8682 14.3091H21.7136C21.1672 14.3091 20.894 14.3091 20.7243 14.4788ZM25.3454 10.6773C25.3454 10.1309 25.3454 9.85767 25.5152 9.68793C25.6849 9.51818 25.9581 9.51818 26.5045 9.51818H26.6591C27.2055 9.51818 27.4787 9.51818 27.6484 9.68793C27.8182 9.85767 27.8182 10.1309 27.8182 10.6773V10.8318C27.8182 11.3782 27.8182 11.6514 27.6484 11.8212C27.4787 11.9909 27.2055 11.9909 26.6591 11.9909H26.5045C25.9581 11.9909 25.6849 11.9909 25.5152 11.8212C25.3454 11.6514 25.3454 11.3782 25.3454 10.8318V10.6773ZM25.5152 14.4788C25.3454 14.6486 25.3454 14.9218 25.3454 15.4682V15.6227C25.3454 16.1691 25.3454 16.4423 25.5152 16.6121C25.6849 16.7818 25.9581 16.7818 26.5045 16.7818H26.6591C27.2055 16.7818 27.4787 16.7818 27.6484 16.6121C27.8182 16.4423 27.8182 16.1691 27.8182 15.6227V15.4682C27.8182 14.9218 27.8182 14.6486 27.6484 14.4788C27.4787 14.3091 27.2055 14.3091 26.6591 14.3091H26.5045C25.9581 14.3091 25.6849 14.3091 25.5152 14.4788Z" fill="#F0C808"/>
</g>
<defs>
<clipPath id="clip0_318_692">
<rect width="34" height="31" fill="white"/>
</clipPath>
</defs>
</svg>
