<svg width="495" height="60" viewBox="0 0 495 60" fill="none" xmlns="http://www.w3.org/2000/svg">
<rect width="69" height="28" rx="6" fill="#259E51"/>
<rect x="6" y="5" width="18" height="18" rx="3.5" fill="#F1EFEF"/>
<path opacity="0.4" d="M9.0625 14C9.0625 11.201 9.0625 9.80156 9.93202 8.93202C10.8016 8.0625 12.201 8.0625 15 8.0625C17.7989 8.0625 19.1984 8.0625 20.068 8.93202C20.9375 9.80156 20.9375 11.201 20.9375 14C20.9375 16.7989 20.9375 18.1984 20.068 19.068C19.1984 19.9375 17.7989 19.9375 15 19.9375C12.201 19.9375 10.8016 19.9375 9.93202 19.068C9.0625 18.1984 9.0625 16.7989 9.0625 14Z" fill="#259E51"/>
<path d="M17.5 12.75L18.2666 13.4108C18.5889 13.6885 18.75 13.8274 18.75 14C18.75 14.1726 18.5889 14.3115 18.2666 14.5892L17.5 15.25" stroke="#259E51" stroke-width="1.25" stroke-linecap="round" stroke-linejoin="round"/>
<path d="M12.5 12.75L11.7334 13.4108C11.4111 13.6885 11.25 13.8274 11.25 14C11.25 14.1726 11.4111 14.3115 11.7334 14.5892L12.5 15.25" stroke="#259E51" stroke-width="1.25" stroke-linecap="round" stroke-linejoin="round"/>
<path d="M15.625 12.125L14.375 15.875" stroke="#259E51" stroke-width="1.25" stroke-linecap="round" stroke-linejoin="round"/>
<path d="M9.0625 14C9.0625 11.201 9.0625 9.80156 9.93202 8.93202C10.8016 8.0625 12.201 8.0625 15 8.0625C17.7989 8.0625 19.1984 8.0625 20.068 8.93202C20.9375 9.80156 20.9375 11.201 20.9375 14C20.9375 16.7989 20.9375 18.1984 20.068 19.068C19.1984 19.9375 17.7989 19.9375 15 19.9375C12.201 19.9375 10.8016 19.9375 9.93202 19.068C9.0625 18.1984 9.0625 16.7989 9.0625 14Z" stroke="#259E51" stroke-width="1.25"/>
<path d="M34.9303 12.1172C34.8839 11.683 34.6883 11.3449 34.3437 11.103C34.0023 10.861 33.5581 10.7401 33.0113 10.7401C32.6268 10.7401 32.297 10.7981 32.0219 10.9141C31.7468 11.0301 31.5364 11.1875 31.3905 11.3864C31.2447 11.5852 31.1701 11.8123 31.1668 12.0675C31.1668 12.2796 31.2149 12.4635 31.311 12.6193C31.4104 12.7751 31.5446 12.9077 31.7137 13.017C31.8827 13.1231 32.07 13.2126 32.2755 13.2855C32.481 13.3584 32.6881 13.4197 32.8969 13.4695L33.8515 13.7081C34.2359 13.7976 34.6055 13.9186 34.9601 14.071C35.3181 14.2235 35.6379 14.4157 35.9196 14.6477C36.2047 14.8797 36.4301 15.1598 36.5958 15.4879C36.7615 15.8161 36.8444 16.2005 36.8444 16.6413C36.8444 17.2379 36.6919 17.7633 36.387 18.2173C36.0821 18.6681 35.6412 19.0211 35.0645 19.2763C34.4911 19.5282 33.7968 19.6541 32.9814 19.6541C32.1893 19.6541 31.5016 19.5315 30.9182 19.2862C30.3382 19.041 29.8841 18.683 29.556 18.2124C29.2312 17.7417 29.0555 17.1683 29.029 16.4922H30.8437C30.8702 16.8468 30.9795 17.1418 31.1718 17.3771C31.364 17.6125 31.6142 17.7881 31.9225 17.9041C32.234 18.0201 32.5821 18.0781 32.9665 18.0781C33.3676 18.0781 33.7189 18.0185 34.0205 17.8991C34.3254 17.7765 34.5641 17.6075 34.7364 17.392C34.9088 17.1733 34.9966 16.9181 34.9999 16.6264C34.9966 16.3613 34.9187 16.1425 34.7662 15.9702C34.6138 15.7945 34.4 15.6487 34.1249 15.5327C33.8531 15.4134 33.5349 15.3073 33.1704 15.2145L32.012 14.9162C31.1734 14.7008 30.5106 14.3743 30.0233 13.9368C29.5394 13.496 29.2975 12.911 29.2975 12.1818C29.2975 11.5819 29.4599 11.0566 29.7847 10.6058C30.1128 10.1551 30.5586 9.8054 31.1221 9.55682C31.6855 9.30492 32.3235 9.17898 33.0361 9.17898C33.7587 9.17898 34.3917 9.30492 34.9353 9.55682C35.4821 9.8054 35.9114 10.1518 36.2229 10.5959C36.5345 11.0367 36.6952 11.5438 36.7052 12.1172H34.9303ZM39.7752 19.5L37.6175 11.8636H39.452L40.7943 17.233H40.8639L42.2361 11.8636H44.0507L45.4229 17.2031H45.4975L46.8199 11.8636H48.6594L46.4968 19.5H44.6225L43.1906 14.3395H43.0862L41.6544 19.5H39.7752ZM49.706 19.5V11.8636H51.5057V19.5H49.706ZM50.6108 10.7798C50.3258 10.7798 50.0805 10.6854 49.875 10.4964C49.6695 10.3042 49.5668 10.0739 49.5668 9.8054C49.5668 9.53362 49.6695 9.30327 49.875 9.11435C50.0805 8.92211 50.3258 8.82599 50.6108 8.82599C50.8991 8.82599 51.1444 8.92211 51.3466 9.11435C51.5521 9.30327 51.6548 9.53362 51.6548 9.8054C51.6548 10.0739 51.5521 10.3042 51.3466 10.4964C51.1444 10.6854 50.8991 10.7798 50.6108 10.7798ZM57.0143 11.8636V13.2557H52.5001V11.8636H57.0143ZM53.6286 19.5V11.1428C53.6286 10.629 53.7347 10.2015 53.9468 9.86008C54.1622 9.5187 54.4506 9.26349 54.8118 9.09446C55.1731 8.92543 55.5742 8.84091 56.015 8.84091C56.3265 8.84091 56.6033 8.86577 56.8452 8.91548C57.0872 8.9652 57.2661 9.00994 57.3822 9.04972L57.0242 10.4418C56.948 10.4186 56.8518 10.3954 56.7358 10.3722C56.6198 10.3456 56.4906 10.3324 56.3481 10.3324C56.0133 10.3324 55.7763 10.4136 55.6371 10.576C55.5012 10.7351 55.4333 10.9638 55.4333 11.2621V19.5H53.6286ZM62.0269 11.8636V13.2557H57.637V11.8636H62.0269ZM58.7208 10.0341H60.5205V17.2031C60.5205 17.4451 60.557 17.6307 60.6299 17.7599C60.7061 17.8859 60.8056 17.9721 60.9282 18.0185C61.0508 18.0649 61.1867 18.0881 61.3359 18.0881C61.4485 18.0881 61.5513 18.0798 61.6441 18.0632C61.7402 18.0466 61.8131 18.0317 61.8628 18.0185L62.1661 19.4254C62.07 19.4586 61.9325 19.495 61.7535 19.5348C61.5778 19.5746 61.3624 19.5978 61.1072 19.6044C60.6564 19.6177 60.2504 19.5497 59.8891 19.4006C59.5279 19.2481 59.2412 19.0128 59.029 18.6946C58.8202 18.3764 58.7175 17.9787 58.7208 17.5014V10.0341Z" fill="#F1EFEF"/>
<rect x="73" width="80" height="28" rx="6" fill="#3C46C9"/>
<rect x="79" y="5" width="18" height="18" rx="3.5" fill="#F1EFEF"/>
<path opacity="0.4" d="M84.2657 8.39064C83.625 9.03135 83.625 10.0625 83.625 12.1249V15.8749C83.625 17.9373 83.625 18.9685 84.2657 19.6092C84.9064 20.2499 85.9376 20.2499 88 20.2499C90.0624 20.2499 91.0936 20.2499 91.7343 19.6092C92.375 18.9685 92.375 17.9373 92.375 15.8749V12.1249C92.375 10.0625 92.375 9.03135 91.7343 8.39064C91.3263 7.98266 90.76 7.83446 89.8699 7.78064L89.8194 8.0837C89.6988 8.807 89.6386 9.16865 89.3905 9.38871C89.1318 9.61828 88.7649 9.62494 88 9.62494C87.2351 9.62494 86.8683 9.61828 86.6095 9.38871C86.3615 9.16865 86.3012 8.807 86.1806 8.0837L86.1301 7.78064C85.24 7.83446 84.6737 7.98266 84.2657 8.39064Z" fill="#3C46C9"/>
<path d="M83.625 12.125C83.625 10.0626 83.625 9.03141 84.2657 8.39071C84.9064 7.75 85.9376 7.75 88 7.75C90.0624 7.75 91.0936 7.75 91.7343 8.39071C92.375 9.03141 92.375 10.0626 92.375 12.125V15.875C92.375 17.9374 92.375 18.9686 91.7343 19.6093C91.0936 20.25 90.0624 20.25 88 20.25C85.9376 20.25 84.9064 20.25 84.2657 19.6093C83.625 18.9686 83.625 17.9374 83.625 15.875V12.125Z" stroke="#3C46C9" stroke-width="1.25" stroke-linecap="round"/>
<path d="M87.375 18.375H88.625" stroke="#3C46C9" stroke-width="1.25" stroke-linecap="round" stroke-linejoin="round"/>
<path d="M86.125 7.75L86.1806 8.08376C86.3012 8.80706 86.3615 9.16871 86.6095 9.38877C86.8683 9.61834 87.2351 9.625 88 9.625C88.7649 9.625 89.1318 9.61834 89.3905 9.38877C89.6386 9.16871 89.6988 8.80706 89.8194 8.08376L89.875 7.75" stroke="#3C46C9" stroke-width="1.25" stroke-linejoin="round"/>
<path d="M102.343 19.5V11.8636H104.142V19.5H102.343ZM103.248 10.7798C102.963 10.7798 102.717 10.6854 102.512 10.4964C102.306 10.3042 102.204 10.0739 102.204 9.8054C102.204 9.53362 102.306 9.30327 102.512 9.11435C102.717 8.92211 102.963 8.82599 103.248 8.82599C103.536 8.82599 103.781 8.92211 103.983 9.11435C104.189 9.30327 104.292 9.53362 104.292 9.8054C104.292 10.0739 104.189 10.3042 103.983 10.4964C103.781 10.6854 103.536 10.7798 103.248 10.7798ZM114.961 14.4091C114.961 15.5062 114.755 16.4458 114.344 17.228C113.937 18.0069 113.38 18.6035 112.674 19.0178C111.971 19.4321 111.174 19.6392 110.282 19.6392C109.391 19.6392 108.592 19.4321 107.886 19.0178C107.183 18.6001 106.627 18.0019 106.216 17.223C105.808 16.4408 105.604 15.5028 105.604 14.4091C105.604 13.312 105.808 12.3741 106.216 11.5952C106.627 10.813 107.183 10.2147 107.886 9.80043C108.592 9.38613 109.391 9.17898 110.282 9.17898C111.174 9.17898 111.971 9.38613 112.674 9.80043C113.38 10.2147 113.937 10.813 114.344 11.5952C114.755 12.3741 114.961 13.312 114.961 14.4091ZM113.106 14.4091C113.106 13.6368 112.985 12.9856 112.743 12.4553C112.505 11.9216 112.173 11.5189 111.749 11.2472C111.325 10.9721 110.836 10.8345 110.282 10.8345C109.729 10.8345 109.24 10.9721 108.816 11.2472C108.392 11.5189 108.058 11.9216 107.816 12.4553C107.578 12.9856 107.459 13.6368 107.459 14.4091C107.459 15.1813 107.578 15.8343 107.816 16.3679C108.058 16.8982 108.392 17.3009 108.816 17.576C109.24 17.8478 109.729 17.9837 110.282 17.9837C110.836 17.9837 111.325 17.8478 111.749 17.576C112.173 17.3009 112.505 16.8982 112.743 16.3679C112.985 15.8343 113.106 15.1813 113.106 14.4091ZM122.028 12.1172C121.981 11.683 121.786 11.3449 121.441 11.103C121.1 10.861 120.656 10.7401 120.109 10.7401C119.724 10.7401 119.395 10.7981 119.119 10.9141C118.844 11.0301 118.634 11.1875 118.488 11.3864C118.342 11.5852 118.268 11.8123 118.264 12.0675C118.264 12.2796 118.312 12.4635 118.409 12.6193C118.508 12.7751 118.642 12.9077 118.811 13.017C118.98 13.1231 119.168 13.2126 119.373 13.2855C119.579 13.3584 119.786 13.4197 119.994 13.4695L120.949 13.7081C121.333 13.7976 121.703 13.9186 122.058 14.071C122.416 14.2235 122.735 14.4157 123.017 14.6477C123.302 14.8797 123.528 15.1598 123.693 15.4879C123.859 15.8161 123.942 16.2005 123.942 16.6413C123.942 17.2379 123.789 17.7633 123.485 18.2173C123.18 18.6681 122.739 19.0211 122.162 19.2763C121.589 19.5282 120.894 19.6541 120.079 19.6541C119.287 19.6541 118.599 19.5315 118.016 19.2862C117.436 19.041 116.982 18.683 116.654 18.2124C116.329 17.7417 116.153 17.1683 116.127 16.4922H117.941C117.968 16.8468 118.077 17.1418 118.269 17.3771C118.462 17.6125 118.712 17.7881 119.02 17.9041C119.332 18.0201 119.68 18.0781 120.064 18.0781C120.465 18.0781 120.816 18.0185 121.118 17.8991C121.423 17.7765 121.662 17.6075 121.834 17.392C122.006 17.1733 122.094 16.9181 122.097 16.6264C122.094 16.3613 122.016 16.1425 121.864 15.9702C121.711 15.7945 121.498 15.6487 121.222 15.5327C120.951 15.4134 120.632 15.3073 120.268 15.2145L119.11 14.9162C118.271 14.7008 117.608 14.3743 117.121 13.9368C116.637 13.496 116.395 12.911 116.395 12.1818C116.395 11.5819 116.557 11.0566 116.882 10.6058C117.21 10.1551 117.656 9.8054 118.22 9.55682C118.783 9.30492 119.421 9.17898 120.134 9.17898C120.856 9.17898 121.489 9.30492 122.033 9.55682C122.58 9.8054 123.009 10.1518 123.32 10.5959C123.632 11.0367 123.793 11.5438 123.803 12.1172H122.028Z" fill="#F1EFEF"/>
<path d="M131.122 10.5V18.5H130.153V11.5156H130.106L128.153 12.8125V11.8281L130.153 10.5H131.122ZM135.96 18.6094C135.445 18.6094 134.985 18.5208 134.582 18.3437C134.181 18.1667 133.861 17.9206 133.625 17.6055C133.39 17.2878 133.263 16.9193 133.242 16.5H134.226C134.247 16.7578 134.335 16.9805 134.492 17.168C134.648 17.3529 134.852 17.4961 135.105 17.5977C135.358 17.6992 135.638 17.75 135.945 17.75C136.289 17.75 136.593 17.6901 136.859 17.5703C137.125 17.4505 137.333 17.2839 137.484 17.0703C137.635 16.8568 137.71 16.6094 137.71 16.3281C137.71 16.0339 137.638 15.7747 137.492 15.5508C137.346 15.3242 137.132 15.1471 136.851 15.0195C136.57 14.8919 136.226 14.8281 135.82 14.8281H135.179V13.9687H135.82C136.138 13.9687 136.416 13.9115 136.656 13.7969C136.898 13.6823 137.087 13.5208 137.222 13.3125C137.36 13.1042 137.429 12.8594 137.429 12.5781C137.429 12.3073 137.369 12.0716 137.25 11.8711C137.13 11.6706 136.96 11.5143 136.742 11.4023C136.526 11.2904 136.27 11.2344 135.976 11.2344C135.7 11.2344 135.44 11.2852 135.195 11.3867C134.953 11.4857 134.755 11.6302 134.601 11.8203C134.447 12.0078 134.364 12.2344 134.351 12.5H133.414C133.429 12.0807 133.556 11.7135 133.792 11.3984C134.029 11.0807 134.339 10.8333 134.722 10.6562C135.108 10.4792 135.531 10.3906 135.992 10.3906C136.486 10.3906 136.911 10.4909 137.265 10.6914C137.619 10.8893 137.891 11.151 138.082 11.4766C138.272 11.8021 138.367 12.1536 138.367 12.5313C138.367 12.9818 138.248 13.3659 138.011 13.6836C137.777 14.0013 137.458 14.2214 137.054 14.3438V14.4062C137.559 14.4896 137.954 14.7044 138.238 15.0508C138.522 15.3945 138.664 15.8203 138.664 16.3281C138.664 16.763 138.545 17.1536 138.308 17.5C138.074 17.8437 137.753 18.1146 137.347 18.3125C136.941 18.5104 136.479 18.6094 135.96 18.6094ZM142.456 17.0938V11.9375H143.331V17.0938H142.456ZM140.315 14.9531V14.0781H145.471V14.9531H140.315Z" fill="#C6C6C8"/>
<rect x="157" width="105" height="28" rx="6" fill="#3C46C9"/>
<rect x="163" y="5" width="18" height="18" rx="3.5" fill="#F1EFEF"/>
<path opacity="0.4" d="M173.562 7.75H170.438C168.67 7.75 167.786 7.75 167.237 8.29918C166.688 8.84835 166.688 9.73223 166.688 11.5V16.5C166.688 18.2677 166.688 19.1516 167.237 19.7008C167.786 20.25 168.67 20.25 170.438 20.25H173.562C175.33 20.25 176.214 20.25 176.763 19.7008C177.312 19.1516 177.312 18.2677 177.312 16.5V11.5C177.312 9.73223 177.312 8.84835 176.763 8.29918C176.214 7.75 175.33 7.75 173.562 7.75Z" fill="#3C46C9"/>
<path d="M173.562 7.75H170.438C168.67 7.75 167.786 7.75 167.237 8.29917C166.688 8.84835 166.688 9.73223 166.688 11.5V16.5C166.688 18.2677 166.688 19.1516 167.237 19.7008C167.786 20.25 168.67 20.25 170.438 20.25H173.562C175.33 20.25 176.214 20.25 176.763 19.7008C177.312 19.1516 177.312 18.2677 177.312 16.5V11.5C177.312 9.73223 177.312 8.84835 176.763 8.29917C176.214 7.75 175.33 7.75 173.562 7.75Z" stroke="#3C46C9" stroke-width="1.25" stroke-linecap="round"/>
<path d="M172 18.375H172.006" stroke="#3C46C9" stroke-width="1.25" stroke-linecap="round"/>
<path d="M186.292 19.5V11.8636H188.092V19.5H186.292ZM187.197 10.7798C186.912 10.7798 186.667 10.6854 186.462 10.4964C186.256 10.3042 186.153 10.0739 186.153 9.8054C186.153 9.53362 186.256 9.30327 186.462 9.11435C186.667 8.92211 186.912 8.82599 187.197 8.82599C187.486 8.82599 187.731 8.92211 187.933 9.11435C188.139 9.30327 188.241 9.53362 188.241 9.8054C188.241 10.0739 188.139 10.3042 187.933 10.4964C187.731 10.6854 187.486 10.7798 187.197 10.7798ZM189.812 19.5V9.31818H193.631C194.413 9.31818 195.069 9.46401 195.599 9.75568C196.133 10.0473 196.536 10.4484 196.807 10.9588C197.083 11.4659 197.22 12.0426 197.22 12.6889C197.22 13.3419 197.083 13.9219 196.807 14.429C196.532 14.9361 196.126 15.3355 195.589 15.6271C195.052 15.9155 194.391 16.0597 193.606 16.0597H191.075V14.5433H193.357C193.815 14.5433 194.189 14.4638 194.481 14.3047C194.772 14.1456 194.988 13.9268 195.127 13.6484C195.27 13.37 195.341 13.0502 195.341 12.6889C195.341 12.3277 195.27 12.0095 195.127 11.7344C194.988 11.4593 194.771 11.2455 194.476 11.093C194.184 10.9373 193.808 10.8594 193.347 10.8594H191.657V19.5H189.812ZM200.593 19.6541C200.109 19.6541 199.674 19.5679 199.286 19.3956C198.901 19.2199 198.596 18.9614 198.371 18.62C198.149 18.2786 198.038 17.8577 198.038 17.3572C198.038 16.9264 198.118 16.5701 198.277 16.2884C198.436 16.0066 198.653 15.7812 198.928 15.6122C199.203 15.4432 199.513 15.3156 199.858 15.2294C200.206 15.1399 200.565 15.0753 200.936 15.0355C201.384 14.9891 201.747 14.9477 202.025 14.9112C202.304 14.8714 202.506 14.8118 202.632 14.7322C202.761 14.6494 202.826 14.5218 202.826 14.3494V14.3196C202.826 13.9451 202.715 13.6551 202.493 13.4496C202.27 13.2441 201.951 13.1413 201.533 13.1413C201.092 13.1413 200.743 13.2375 200.484 13.4297C200.229 13.6219 200.056 13.849 199.967 14.1108L198.287 13.8722C198.419 13.4081 198.638 13.0204 198.943 12.7088C199.248 12.3939 199.621 12.1586 200.061 12.0028C200.502 11.8438 200.989 11.7642 201.523 11.7642C201.891 11.7642 202.257 11.8073 202.622 11.8935C202.986 11.9796 203.319 12.1222 203.621 12.321C203.923 12.5166 204.165 12.7834 204.347 13.1214C204.533 13.4595 204.625 13.8821 204.625 14.3892V19.5H202.895V18.451H202.836C202.726 18.6631 202.572 18.862 202.373 19.0476C202.178 19.2299 201.931 19.3774 201.632 19.4901C201.337 19.5994 200.991 19.6541 200.593 19.6541ZM201.061 18.3317C201.422 18.3317 201.735 18.2604 202 18.1179C202.265 17.9721 202.469 17.7798 202.612 17.5412C202.758 17.3026 202.831 17.0424 202.831 16.7607V15.8608C202.774 15.9072 202.678 15.9503 202.542 15.9901C202.41 16.0298 202.261 16.0646 202.095 16.0945C201.929 16.1243 201.765 16.1508 201.603 16.174C201.44 16.1972 201.299 16.2171 201.18 16.2337C200.912 16.2701 200.671 16.3298 200.459 16.4126C200.247 16.4955 200.08 16.6115 199.957 16.7607C199.834 16.9065 199.773 17.0954 199.773 17.3274C199.773 17.6589 199.894 17.9091 200.136 18.0781C200.378 18.2472 200.686 18.3317 201.061 18.3317ZM209.059 19.6342C208.459 19.6342 207.922 19.4801 207.448 19.1719C206.974 18.8636 206.6 18.4162 206.324 17.8295C206.049 17.2429 205.912 16.5303 205.912 15.6918C205.912 14.8433 206.051 14.1274 206.329 13.544C206.611 12.9574 206.991 12.5149 207.468 12.2166C207.945 11.915 208.477 11.7642 209.064 11.7642C209.511 11.7642 209.879 11.8404 210.167 11.9929C210.456 12.142 210.685 12.3227 210.854 12.5348C211.023 12.7436 211.153 12.9408 211.246 13.1264H211.321V9.31818H213.126V19.5H211.356V18.2969H211.246C211.153 18.4825 211.019 18.6797 210.844 18.8885C210.668 19.094 210.436 19.2696 210.148 19.4155C209.859 19.5613 209.496 19.6342 209.059 19.6342ZM209.561 18.1577C209.942 18.1577 210.267 18.0549 210.535 17.8494C210.804 17.6406 211.008 17.3506 211.147 16.9794C211.286 16.6082 211.356 16.1757 211.356 15.6818C211.356 15.188 211.286 14.7588 211.147 14.3942C211.011 14.0296 210.809 13.7462 210.54 13.544C210.275 13.3419 209.949 13.2408 209.561 13.2408C209.16 13.2408 208.825 13.3452 208.557 13.554C208.288 13.7628 208.086 14.0511 207.95 14.419C207.814 14.7869 207.746 15.2079 207.746 15.6818C207.746 16.1591 207.814 16.585 207.95 16.9595C208.089 17.3307 208.293 17.6241 208.562 17.8395C208.833 18.0516 209.167 18.1577 209.561 18.1577ZM224.011 14.4091C224.011 15.5062 223.805 16.4458 223.394 17.228C222.987 18.0069 222.43 18.6035 221.724 19.0178C221.021 19.4321 220.224 19.6392 219.333 19.6392C218.441 19.6392 217.642 19.4321 216.936 19.0178C216.234 18.6001 215.677 18.0019 215.266 17.223C214.858 16.4408 214.654 15.5028 214.654 14.4091C214.654 13.312 214.858 12.3741 215.266 11.5952C215.677 10.813 216.234 10.2147 216.936 9.80043C217.642 9.38613 218.441 9.17898 219.333 9.17898C220.224 9.17898 221.021 9.38613 221.724 9.80043C222.43 10.2147 222.987 10.813 223.394 11.5952C223.805 12.3741 224.011 13.312 224.011 14.4091ZM222.157 14.4091C222.157 13.6368 222.036 12.9856 221.794 12.4553C221.555 11.9216 221.223 11.5189 220.799 11.2472C220.375 10.9721 219.886 10.8345 219.333 10.8345C218.779 10.8345 218.29 10.9721 217.866 11.2472C217.442 11.5189 217.109 11.9216 216.867 12.4553C216.628 12.9856 216.509 13.6368 216.509 14.4091C216.509 15.1813 216.628 15.8343 216.867 16.3679C217.109 16.8982 217.442 17.3009 217.866 17.576C218.29 17.8478 218.779 17.9837 219.333 17.9837C219.886 17.9837 220.375 17.8478 220.799 17.576C221.223 17.3009 221.555 16.8982 221.794 16.3679C222.036 15.8343 222.157 15.1813 222.157 14.4091ZM231.078 12.1172C231.032 11.683 230.836 11.3449 230.491 11.103C230.15 10.861 229.706 10.7401 229.159 10.7401C228.775 10.7401 228.445 10.7981 228.17 10.9141C227.895 11.0301 227.684 11.1875 227.538 11.3864C227.392 11.5852 227.318 11.8123 227.315 12.0675C227.315 12.2796 227.363 12.4635 227.459 12.6193C227.558 12.7751 227.692 12.9077 227.861 13.017C228.03 13.1231 228.218 13.2126 228.423 13.2855C228.629 13.3584 228.836 13.4197 229.045 13.4695L229.999 13.7081C230.384 13.7976 230.753 13.9186 231.108 14.071C231.466 14.2235 231.786 14.4157 232.067 14.6477C232.352 14.8797 232.578 15.1598 232.744 15.4879C232.909 15.8161 232.992 16.2005 232.992 16.6413C232.992 17.2379 232.84 17.7633 232.535 18.2173C232.23 18.6681 231.789 19.0211 231.212 19.2763C230.639 19.5282 229.945 19.6541 229.129 19.6541C228.337 19.6541 227.649 19.5315 227.066 19.2862C226.486 19.041 226.032 18.683 225.704 18.2124C225.379 17.7417 225.203 17.1683 225.177 16.4922H226.991C227.018 16.8468 227.127 17.1418 227.32 17.3771C227.512 17.6125 227.762 17.7881 228.07 17.9041C228.382 18.0201 228.73 18.0781 229.114 18.0781C229.515 18.0781 229.867 18.0185 230.168 17.8991C230.473 17.7765 230.712 17.6075 230.884 17.392C231.057 17.1733 231.144 16.9181 231.148 16.6264C231.144 16.3613 231.066 16.1425 230.914 15.9702C230.762 15.7945 230.548 15.6487 230.273 15.5327C230.001 15.4134 229.683 15.3073 229.318 15.2145L228.16 14.9162C227.321 14.7008 226.658 14.3743 226.171 13.9368C225.687 13.496 225.445 12.911 225.445 12.1818C225.445 11.5819 225.608 11.0566 225.932 10.6058C226.261 10.1551 226.706 9.8054 227.27 9.55682C227.833 9.30492 228.471 9.17898 229.184 9.17898C229.906 9.17898 230.539 9.30492 231.083 9.55682C231.63 9.8054 232.059 10.1518 232.371 10.5959C232.682 11.0367 232.843 11.5438 232.853 12.1172H231.078Z" fill="#F1EFEF"/>
<path d="M240.122 10.5V18.5H239.153V11.5156H239.106L237.153 12.8125V11.8281L239.153 10.5H240.122ZM244.96 18.6094C244.445 18.6094 243.985 18.5208 243.582 18.3437C243.181 18.1667 242.861 17.9206 242.625 17.6055C242.39 17.2878 242.263 16.9193 242.242 16.5H243.226C243.247 16.7578 243.335 16.9805 243.492 17.168C243.648 17.3529 243.852 17.4961 244.105 17.5977C244.358 17.6992 244.638 17.75 244.945 17.75C245.289 17.75 245.593 17.6901 245.859 17.5703C246.125 17.4505 246.333 17.2839 246.484 17.0703C246.635 16.8568 246.71 16.6094 246.71 16.3281C246.71 16.0339 246.638 15.7747 246.492 15.5508C246.346 15.3242 246.132 15.1471 245.851 15.0195C245.57 14.8919 245.226 14.8281 244.82 14.8281H244.179V13.9687H244.82C245.138 13.9687 245.416 13.9115 245.656 13.7969C245.898 13.6823 246.087 13.5208 246.222 13.3125C246.36 13.1042 246.429 12.8594 246.429 12.5781C246.429 12.3073 246.369 12.0716 246.25 11.8711C246.13 11.6706 245.96 11.5143 245.742 11.4023C245.526 11.2904 245.27 11.2344 244.976 11.2344C244.7 11.2344 244.44 11.2852 244.195 11.3867C243.953 11.4857 243.755 11.6302 243.601 11.8203C243.447 12.0078 243.364 12.2344 243.351 12.5H242.414C242.429 12.0807 242.556 11.7135 242.792 11.3984C243.029 11.0807 243.339 10.8333 243.722 10.6562C244.108 10.4792 244.531 10.3906 244.992 10.3906C245.486 10.3906 245.911 10.4909 246.265 10.6914C246.619 10.8893 246.891 11.151 247.082 11.4766C247.272 11.8021 247.367 12.1536 247.367 12.5313C247.367 12.9818 247.248 13.3659 247.011 13.6836C246.777 14.0013 246.458 14.2214 246.054 14.3438V14.4062C246.559 14.4896 246.954 14.7044 247.238 15.0508C247.522 15.3945 247.664 15.8203 247.664 16.3281C247.664 16.763 247.545 17.1536 247.308 17.5C247.074 17.8437 246.753 18.1146 246.347 18.3125C245.941 18.5104 245.479 18.6094 244.96 18.6094ZM251.456 17.0938V11.9375H252.331V17.0938H251.456ZM249.315 14.9531V14.0781H254.471V14.9531H249.315Z" fill="#C6C6C8"/>
<rect x="266" width="117" height="28" rx="6" fill="#3C46C9"/>
<rect x="272" y="5" width="18" height="18" rx="3.5" fill="#F1EFEF"/>
<path opacity="0.4" d="M282.25 7.75H279.75C277.7 7.75 276.676 7.75 275.949 8.25864C275.681 8.44681 275.447 8.68057 275.259 8.94932C274.75 9.67572 274.75 10.7005 274.75 12.75C274.75 14.7995 274.75 15.8242 275.259 16.5507C275.447 16.8194 275.681 17.0532 275.949 17.2414C276.676 17.75 277.7 17.75 279.75 17.75H282.25C284.3 17.75 285.324 17.75 286.051 17.2414C286.319 17.0532 286.553 16.8194 286.741 16.5507C287.25 15.8242 287.25 14.7995 287.25 12.75C287.25 10.7005 287.25 9.67572 286.741 8.94932C286.553 8.68057 286.319 8.44681 286.051 8.25864C285.324 7.75 284.3 7.75 282.25 7.75Z" fill="#3C46C9"/>
<path d="M282.25 7.75H279.75C277.7 7.75 276.676 7.75 275.949 8.25864C275.681 8.44681 275.447 8.68057 275.259 8.94932C274.75 9.67572 274.75 10.7005 274.75 12.75C274.75 14.7995 274.75 15.8242 275.259 16.5507C275.447 16.8194 275.681 17.0532 275.949 17.2414C276.676 17.75 277.7 17.75 279.75 17.75H282.25C284.3 17.75 285.324 17.75 286.051 17.2414C286.319 17.0532 286.553 16.8194 286.741 16.5507C287.25 15.8242 287.25 14.7995 287.25 12.75C287.25 10.7005 287.25 9.67572 286.741 8.94932C286.553 8.68057 286.319 8.44681 286.051 8.25864C285.324 7.75 284.3 7.75 282.25 7.75Z" stroke="#3C46C9" stroke-width="1.25" stroke-linecap="round"/>
<path d="M280.375 15.875H281.625" stroke="#3C46C9" stroke-width="1.25" stroke-linecap="round" stroke-linejoin="round"/>
<path d="M282.562 20.25L282.365 19.9882C281.921 19.3981 281.811 18.4965 282.092 17.75M279.438 20.25L279.635 19.9882C280.079 19.3981 280.189 18.4965 279.908 17.75" stroke="#3C46C9" stroke-width="1.25" stroke-linecap="round"/>
<path d="M277.875 20.25H284.125" stroke="#3C46C9" stroke-width="1.25" stroke-linecap="round"/>
<path d="M295.036 19.5V11.8636H296.756V13.1612H296.846C297.005 12.7237 297.268 12.3823 297.636 12.1371C298.004 11.8885 298.443 11.7642 298.954 11.7642C299.471 11.7642 299.907 11.8902 300.261 12.142C300.619 12.3906 300.871 12.7304 301.017 13.1612H301.096C301.266 12.737 301.551 12.3989 301.952 12.147C302.356 11.8918 302.835 11.7642 303.388 11.7642C304.091 11.7642 304.664 11.9863 305.109 12.4304C305.553 12.8745 305.775 13.5225 305.775 14.3743V19.5H303.97V14.6527C303.97 14.1787 303.844 13.8324 303.592 13.6136C303.34 13.3916 303.032 13.2805 302.668 13.2805C302.233 13.2805 301.894 13.4164 301.648 13.6882C301.406 13.9567 301.285 14.3063 301.285 14.7372V19.5H299.52V14.5781C299.52 14.1837 299.401 13.8688 299.163 13.6335C298.927 13.3982 298.619 13.2805 298.238 13.2805C297.979 13.2805 297.744 13.3468 297.532 13.4794C297.32 13.6087 297.151 13.7926 297.025 14.0312C296.899 14.2666 296.836 14.5417 296.836 14.8565V19.5H295.036ZM309.588 19.6541C309.104 19.6541 308.668 19.5679 308.28 19.3956C307.896 19.2199 307.591 18.9614 307.366 18.62C307.144 18.2786 307.033 17.8577 307.033 17.3572C307.033 16.9264 307.112 16.5701 307.271 16.2884C307.43 16.0066 307.647 15.7812 307.923 15.6122C308.198 15.4432 308.508 15.3156 308.852 15.2294C309.2 15.1399 309.56 15.0753 309.931 15.0355C310.379 14.9891 310.741 14.9477 311.02 14.9112C311.298 14.8714 311.5 14.8118 311.626 14.7322C311.756 14.6494 311.82 14.5218 311.82 14.3494V14.3196C311.82 13.9451 311.709 13.6551 311.487 13.4496C311.265 13.2441 310.945 13.1413 310.528 13.1413C310.087 13.1413 309.737 13.2375 309.479 13.4297C309.223 13.6219 309.051 13.849 308.962 14.1108L307.281 13.8722C307.414 13.4081 307.633 13.0204 307.937 12.7088C308.242 12.3939 308.615 12.1586 309.056 12.0028C309.497 11.8438 309.984 11.7642 310.518 11.7642C310.886 11.7642 311.252 11.8073 311.616 11.8935C311.981 11.9796 312.314 12.1222 312.616 12.321C312.917 12.5166 313.159 12.7834 313.342 13.1214C313.527 13.4595 313.62 13.8821 313.62 14.3892V19.5H311.89V18.451H311.83C311.721 18.6631 311.567 18.862 311.368 19.0476C311.172 19.2299 310.925 19.3774 310.627 19.4901C310.332 19.5994 309.986 19.6541 309.588 19.6541ZM310.055 18.3317C310.417 18.3317 310.73 18.2604 310.995 18.1179C311.26 17.9721 311.464 17.7798 311.606 17.5412C311.752 17.3026 311.825 17.0424 311.825 16.7607V15.8608C311.769 15.9072 311.673 15.9503 311.537 15.9901C311.404 16.0298 311.255 16.0646 311.089 16.0945C310.924 16.1243 310.76 16.1508 310.597 16.174C310.435 16.1972 310.294 16.2171 310.175 16.2337C309.906 16.2701 309.666 16.3298 309.454 16.4126C309.242 16.4955 309.074 16.6115 308.952 16.7607C308.829 16.9065 308.768 17.0954 308.768 17.3274C308.768 17.6589 308.889 17.9091 309.131 18.0781C309.373 18.2472 309.681 18.3317 310.055 18.3317ZM318.551 19.6491C317.788 19.6491 317.134 19.4818 316.587 19.147C316.043 18.8123 315.624 18.3499 315.329 17.7599C315.037 17.1667 314.892 16.4839 314.892 15.7116C314.892 14.9361 315.041 14.2517 315.339 13.6584C315.637 13.0618 316.058 12.5978 316.602 12.2663C317.149 11.9316 317.795 11.7642 318.541 11.7642C319.16 11.7642 319.709 11.8786 320.186 12.1072C320.667 12.3326 321.05 12.6525 321.335 13.0668C321.62 13.4777 321.782 13.9583 321.822 14.5085H320.102C320.032 14.1406 319.866 13.834 319.605 13.5888C319.346 13.3402 319 13.2159 318.566 13.2159C318.198 13.2159 317.874 13.3153 317.596 13.5142C317.318 13.7098 317.101 13.9915 316.945 14.3594C316.792 14.7273 316.716 15.1681 316.716 15.6818C316.716 16.2022 316.792 16.6496 316.945 17.0241C317.097 17.3954 317.311 17.6821 317.586 17.8842C317.865 18.0831 318.191 18.1825 318.566 18.1825C318.831 18.1825 319.068 18.1328 319.276 18.0334C319.489 17.9306 319.666 17.7831 319.808 17.5909C319.951 17.3987 320.049 17.165 320.102 16.8899H321.822C321.779 17.4302 321.62 17.9091 321.345 18.3267C321.07 18.741 320.695 19.0658 320.221 19.3011C319.747 19.5331 319.19 19.6491 318.551 19.6491ZM332.267 14.4091C332.267 15.5062 332.062 16.4458 331.651 17.228C331.243 18.0069 330.686 18.6035 329.98 19.0178C329.278 19.4321 328.481 19.6392 327.589 19.6392C326.697 19.6392 325.899 19.4321 325.193 19.0178C324.49 18.6001 323.933 18.0019 323.522 17.223C323.115 16.4408 322.911 15.5028 322.911 14.4091C322.911 13.312 323.115 12.3741 323.522 11.5952C323.933 10.813 324.49 10.2147 325.193 9.80043C325.899 9.38613 326.697 9.17898 327.589 9.17898C328.481 9.17898 329.278 9.38613 329.98 9.80043C330.686 10.2147 331.243 10.813 331.651 11.5952C332.062 12.3741 332.267 13.312 332.267 14.4091ZM330.413 14.4091C330.413 13.6368 330.292 12.9856 330.05 12.4553C329.811 11.9216 329.48 11.5189 329.056 11.2472C328.631 10.9721 328.143 10.8345 327.589 10.8345C327.036 10.8345 326.547 10.9721 326.122 11.2472C325.698 11.5189 325.365 11.9216 325.123 12.4553C324.884 12.9856 324.765 13.6368 324.765 14.4091C324.765 15.1813 324.884 15.8343 325.123 16.3679C325.365 16.8982 325.698 17.3009 326.122 17.576C326.547 17.8478 327.036 17.9837 327.589 17.9837C328.143 17.9837 328.631 17.8478 329.056 17.576C329.48 17.3009 329.811 16.8982 330.05 16.3679C330.292 15.8343 330.413 15.1813 330.413 14.4091ZM339.334 12.1172C339.288 11.683 339.092 11.3449 338.748 11.103C338.406 10.861 337.962 10.7401 337.415 10.7401C337.031 10.7401 336.701 10.7981 336.426 10.9141C336.151 11.0301 335.941 11.1875 335.795 11.3864C335.649 11.5852 335.574 11.8123 335.571 12.0675C335.571 12.2796 335.619 12.4635 335.715 12.6193C335.815 12.7751 335.949 12.9077 336.118 13.017C336.287 13.1231 336.474 13.2126 336.68 13.2855C336.885 13.3584 337.092 13.4197 337.301 13.4695L338.256 13.7081C338.64 13.7976 339.01 13.9186 339.364 14.071C339.722 14.2235 340.042 14.4157 340.324 14.6477C340.609 14.8797 340.834 15.1598 341 15.4879C341.166 15.8161 341.249 16.2005 341.249 16.6413C341.249 17.2379 341.096 17.7633 340.791 18.2173C340.486 18.6681 340.045 19.0211 339.469 19.2763C338.895 19.5282 338.201 19.6541 337.386 19.6541C336.593 19.6541 335.906 19.5315 335.322 19.2862C334.742 19.041 334.288 18.683 333.96 18.2124C333.635 17.7417 333.46 17.1683 333.433 16.4922H335.248C335.274 16.8468 335.384 17.1418 335.576 17.3771C335.768 17.6125 336.018 17.7881 336.327 17.9041C336.638 18.0201 336.986 18.0781 337.371 18.0781C337.772 18.0781 338.123 18.0185 338.425 17.8991C338.73 17.7765 338.968 17.6075 339.141 17.392C339.313 17.1733 339.401 16.9181 339.404 16.6264C339.401 16.3613 339.323 16.1425 339.17 15.9702C339.018 15.7945 338.804 15.6487 338.529 15.5327C338.257 15.4134 337.939 15.3073 337.574 15.2145L336.416 14.9162C335.578 14.7008 334.915 14.3743 334.427 13.9368C333.944 13.496 333.702 12.911 333.702 12.1818C333.702 11.5819 333.864 11.0566 334.189 10.6058C334.517 10.1551 334.963 9.8054 335.526 9.55682C336.09 9.30492 336.728 9.17898 337.44 9.17898C338.163 9.17898 338.796 9.30492 339.339 9.55682C339.886 9.8054 340.316 10.1518 340.627 10.5959C340.939 11.0367 341.099 11.5438 341.109 12.1172H339.334Z" fill="#F1EFEF"/>
<path d="M348.134 10.5V18.5H347.165V11.5156H347.118L345.165 12.8125V11.8281L347.165 10.5H348.134ZM352.879 18.6094C352.29 18.6094 351.789 18.4492 351.375 18.1289C350.961 17.806 350.644 17.3385 350.426 16.7266C350.207 16.112 350.098 15.3698 350.098 14.5C350.098 13.6354 350.207 12.8971 350.426 12.2852C350.647 11.6706 350.965 11.2018 351.379 10.8789C351.796 10.5534 352.296 10.3906 352.879 10.3906C353.462 10.3906 353.961 10.5534 354.375 10.8789C354.792 11.2018 355.109 11.6706 355.328 12.2852C355.549 12.8971 355.66 13.6354 355.66 14.5C355.66 15.3698 355.551 16.112 355.332 16.7266C355.113 17.3385 354.797 17.806 354.383 18.1289C353.969 18.4492 353.467 18.6094 352.879 18.6094ZM352.879 17.75C353.462 17.75 353.915 17.4687 354.238 16.9062C354.561 16.3437 354.723 15.5417 354.723 14.5C354.723 13.8073 354.648 13.2174 354.5 12.7305C354.354 12.2435 354.143 11.8724 353.867 11.6172C353.594 11.362 353.264 11.2344 352.879 11.2344C352.301 11.2344 351.849 11.5195 351.523 12.0898C351.198 12.6576 351.035 13.4609 351.035 14.5C351.035 15.1927 351.108 15.7812 351.254 16.2656C351.4 16.75 351.609 17.1185 351.883 17.3711C352.159 17.6237 352.491 17.75 352.879 17.75ZM357.388 18.5625C357.195 18.5625 357.03 18.4935 356.892 18.3555C356.754 18.2174 356.685 18.0521 356.685 17.8594C356.685 17.6667 356.754 17.5013 356.892 17.3633C357.03 17.2253 357.195 17.1562 357.388 17.1562C357.58 17.1562 357.746 17.2253 357.884 17.3633C358.022 17.5013 358.091 17.6667 358.091 17.8594C358.091 17.987 358.058 18.1042 357.993 18.2109C357.931 18.3177 357.846 18.4036 357.739 18.4687C357.635 18.5313 357.518 18.5625 357.388 18.5625ZM361.421 10.5V18.5H360.452V11.5156H360.405L358.452 12.8125V11.8281L360.452 10.5H361.421ZM366.057 18.6094C365.598 18.6094 365.186 18.5182 364.818 18.3359C364.451 18.1536 364.157 17.9036 363.936 17.5859C363.714 17.2682 363.593 16.9062 363.572 16.5H364.51C364.546 16.862 364.71 17.1615 365.002 17.3984C365.296 17.6328 365.648 17.75 366.057 17.75C366.385 17.75 366.676 17.6732 366.932 17.5195C367.19 17.3659 367.391 17.1549 367.537 16.8867C367.686 16.6159 367.76 16.3099 367.76 15.9687C367.76 15.6198 367.683 15.3086 367.529 15.0352C367.378 14.7591 367.17 14.5417 366.904 14.3828C366.639 14.224 366.335 14.1432 365.994 14.1406C365.749 14.138 365.498 14.1758 365.24 14.2539C364.982 14.3294 364.77 14.4271 364.604 14.5469L363.697 14.4375L364.182 10.5H368.338V11.3594H364.994L364.713 13.7187H364.76C364.924 13.5885 365.13 13.4805 365.377 13.3945C365.624 13.3086 365.882 13.2656 366.15 13.2656C366.64 13.2656 367.076 13.3828 367.459 13.6172C367.844 13.849 368.147 14.1667 368.365 14.5703C368.587 14.974 368.697 15.4349 368.697 15.9531C368.697 16.4635 368.583 16.9193 368.354 17.3203C368.127 17.7187 367.815 18.0339 367.416 18.2656C367.018 18.4948 366.565 18.6094 366.057 18.6094ZM372.443 17.0938V11.9375H373.318V17.0938H372.443ZM370.303 14.9531V14.0781H375.459V14.9531H370.303Z" fill="#C6C6C8"/>
<rect x="387" width="108" height="28" rx="6" fill="#3C46C9"/>
<rect x="393" y="5" width="18" height="18" rx="3.5" fill="#F1EFEF"/>
<path opacity="0.4" d="M398.562 17.4375C397 17.4375 395.75 16.5 395.75 14.3125C395.75 11.8125 397.625 10.5625 402 10.5625C406.375 10.5625 408.25 11.8125 408.25 14.3125C408.25 16.5 407 17.4375 405.438 17.4375C403.875 17.4375 402.938 15.875 402 15.875C401.062 15.875 400.125 17.4375 398.562 17.4375Z" fill="#3C46C9"/>
<path d="M398.562 17.4375C397 17.4375 395.75 16.5 395.75 14.3125C395.75 11.8125 397.625 10.5625 402 10.5625C406.375 10.5625 408.25 11.8125 408.25 14.3125C408.25 16.5 407 17.4375 405.438 17.4375C403.875 17.4375 402.938 15.875 402 15.875C401.062 15.875 400.125 17.4375 398.562 17.4375Z" stroke="#3C46C9" stroke-width="1.25" stroke-linecap="round"/>
<path d="M422.964 11.8636L420.245 19.5H418.256L415.537 11.8636H417.456L419.211 17.5362H419.29L421.05 11.8636H422.964ZM424 19.5V11.8636H425.799V19.5H424ZM424.904 10.7798C424.619 10.7798 424.374 10.6854 424.169 10.4964C423.963 10.3042 423.86 10.0739 423.86 9.8054C423.86 9.53362 423.963 9.30327 424.169 9.11435C424.374 8.92211 424.619 8.82599 424.904 8.82599C425.193 8.82599 425.438 8.92211 425.64 9.11435C425.846 9.30327 425.948 9.53362 425.948 9.8054C425.948 10.0739 425.846 10.3042 425.64 10.4964C425.438 10.6854 425.193 10.7798 424.904 10.7798ZM433.475 13.8821L431.835 14.0611C431.788 13.8954 431.707 13.7396 431.591 13.5938C431.479 13.4479 431.326 13.3303 431.134 13.2408C430.942 13.1513 430.706 13.1065 430.428 13.1065C430.053 13.1065 429.738 13.1877 429.483 13.3501C429.231 13.5125 429.107 13.723 429.11 13.9815C429.107 14.2036 429.188 14.3842 429.354 14.5234C429.523 14.6626 429.801 14.777 430.189 14.8665L431.492 15.1449C432.214 15.3007 432.751 15.5476 433.103 15.8857C433.457 16.2237 433.636 16.6662 433.639 17.2131C433.636 17.6937 433.495 18.1179 433.217 18.4858C432.942 18.8504 432.559 19.1354 432.068 19.3409C431.578 19.5464 431.014 19.6491 430.378 19.6491C429.443 19.6491 428.691 19.4536 428.121 19.0625C427.551 18.6681 427.211 18.1196 427.102 17.4169L428.857 17.2479C428.936 17.5926 429.105 17.8527 429.364 18.0284C429.622 18.2041 429.959 18.2919 430.373 18.2919C430.801 18.2919 431.144 18.2041 431.402 18.0284C431.664 17.8527 431.795 17.6357 431.795 17.3771C431.795 17.1584 431.711 16.9777 431.541 16.8352C431.376 16.6927 431.117 16.5833 430.766 16.5071L429.463 16.2337C428.731 16.0812 428.189 15.8243 427.838 15.4631C427.486 15.0985 427.312 14.6378 427.316 14.081C427.312 13.6103 427.44 13.2027 427.698 12.858C427.96 12.5099 428.323 12.2415 428.787 12.0526C429.255 11.8603 429.793 11.7642 430.403 11.7642C431.298 11.7642 432.002 11.9548 432.516 12.3359C433.033 12.7171 433.353 13.2325 433.475 13.8821ZM434.914 19.5V11.8636H436.713V19.5H434.914ZM435.818 10.7798C435.533 10.7798 435.288 10.6854 435.083 10.4964C434.877 10.3042 434.774 10.0739 434.774 9.8054C434.774 9.53362 434.877 9.30327 435.083 9.11435C435.288 8.92211 435.533 8.82599 435.818 8.82599C436.107 8.82599 436.352 8.92211 436.554 9.11435C436.76 9.30327 436.862 9.53362 436.862 9.8054C436.862 10.0739 436.76 10.3042 436.554 10.4964C436.352 10.6854 436.107 10.7798 435.818 10.7798ZM441.685 19.6491C440.939 19.6491 440.293 19.4851 439.746 19.157C439.199 18.8288 438.775 18.3698 438.473 17.7798C438.175 17.1899 438.026 16.5005 438.026 15.7116C438.026 14.9228 438.175 14.2318 438.473 13.6385C438.775 13.0452 439.199 12.5845 439.746 12.2564C440.293 11.9283 440.939 11.7642 441.685 11.7642C442.431 11.7642 443.077 11.9283 443.624 12.2564C444.171 12.5845 444.593 13.0452 444.892 13.6385C445.193 14.2318 445.344 14.9228 445.344 15.7116C445.344 16.5005 445.193 17.1899 444.892 17.7798C444.593 18.3698 444.171 18.8288 443.624 19.157C443.077 19.4851 442.431 19.6491 441.685 19.6491ZM441.695 18.2074C442.099 18.2074 442.437 18.0964 442.709 17.8743C442.981 17.6489 443.183 17.3473 443.316 16.9695C443.451 16.5916 443.519 16.1707 443.519 15.7067C443.519 15.2393 443.451 14.8168 443.316 14.4389C443.183 14.0578 442.981 13.7545 442.709 13.5291C442.437 13.3037 442.099 13.1911 441.695 13.1911C441.281 13.1911 440.936 13.3037 440.661 13.5291C440.389 13.7545 440.185 14.0578 440.049 14.4389C439.917 14.8168 439.85 15.2393 439.85 15.7067C439.85 16.1707 439.917 16.5916 440.049 16.9695C440.185 17.3473 440.389 17.6489 440.661 17.8743C440.936 18.0964 441.281 18.2074 441.695 18.2074ZM448.461 15.0256V19.5H446.661V11.8636H448.382V13.1612H448.471C448.647 12.7337 448.927 12.3939 449.311 12.142C449.699 11.8902 450.178 11.7642 450.748 11.7642C451.275 11.7642 451.734 11.8769 452.125 12.1023C452.52 12.3277 452.825 12.6541 453.04 13.0817C453.259 13.5092 453.366 14.0279 453.363 14.6378V19.5H451.563V14.9162C451.563 14.4058 451.431 14.0064 451.166 13.718C450.904 13.4297 450.541 13.2855 450.077 13.2855C449.762 13.2855 449.482 13.3551 449.237 13.4943C448.995 13.6302 448.804 13.8274 448.665 14.0859C448.529 14.3445 448.461 14.6577 448.461 15.0256ZM464.16 14.4091C464.16 15.5062 463.955 16.4458 463.544 17.228C463.136 18.0069 462.579 18.6035 461.873 19.0178C461.171 19.4321 460.374 19.6392 459.482 19.6392C458.59 19.6392 457.792 19.4321 457.086 19.0178C456.383 18.6001 455.826 18.0019 455.415 17.223C455.008 16.4408 454.804 15.5028 454.804 14.4091C454.804 13.312 455.008 12.3741 455.415 11.5952C455.826 10.813 456.383 10.2147 457.086 9.80043C457.792 9.38613 458.59 9.17898 459.482 9.17898C460.374 9.17898 461.171 9.38613 461.873 9.80043C462.579 10.2147 463.136 10.813 463.544 11.5952C463.955 12.3741 464.16 13.312 464.16 14.4091ZM462.306 14.4091C462.306 13.6368 462.185 12.9856 461.943 12.4553C461.704 11.9216 461.373 11.5189 460.949 11.2472C460.524 10.9721 460.036 10.8345 459.482 10.8345C458.929 10.8345 458.44 10.9721 458.015 11.2472C457.591 11.5189 457.258 11.9216 457.016 12.4553C456.777 12.9856 456.658 13.6368 456.658 14.4091C456.658 15.1813 456.777 15.8343 457.016 16.3679C457.258 16.8982 457.591 17.3009 458.015 17.576C458.44 17.8478 458.929 17.9837 459.482 17.9837C460.036 17.9837 460.524 17.8478 460.949 17.576C461.373 17.3009 461.704 16.8982 461.943 16.3679C462.185 15.8343 462.306 15.1813 462.306 14.4091ZM471.227 12.1172C471.181 11.683 470.985 11.3449 470.641 11.103C470.299 10.861 469.855 10.7401 469.308 10.7401C468.924 10.7401 468.594 10.7981 468.319 10.9141C468.044 11.0301 467.834 11.1875 467.688 11.3864C467.542 11.5852 467.467 11.8123 467.464 12.0675C467.464 12.2796 467.512 12.4635 467.608 12.6193C467.708 12.7751 467.842 12.9077 468.011 13.017C468.18 13.1231 468.367 13.2126 468.573 13.2855C468.778 13.3584 468.985 13.4197 469.194 13.4695L470.149 13.7081C470.533 13.7976 470.903 13.9186 471.257 14.071C471.615 14.2235 471.935 14.4157 472.217 14.6477C472.502 14.8797 472.727 15.1598 472.893 15.4879C473.059 15.8161 473.142 16.2005 473.142 16.6413C473.142 17.2379 472.989 17.7633 472.684 18.2173C472.379 18.6681 471.938 19.0211 471.362 19.2763C470.788 19.5282 470.094 19.6541 469.279 19.6541C468.486 19.6541 467.799 19.5315 467.215 19.2862C466.635 19.041 466.181 18.683 465.853 18.2124C465.528 17.7417 465.353 17.1683 465.326 16.4922H467.141C467.167 16.8468 467.277 17.1418 467.469 17.3771C467.661 17.6125 467.911 17.7881 468.22 17.9041C468.531 18.0201 468.879 18.0781 469.264 18.0781C469.665 18.0781 470.016 18.0185 470.318 17.8991C470.623 17.7765 470.861 17.6075 471.034 17.392C471.206 17.1733 471.294 16.9181 471.297 16.6264C471.294 16.3613 471.216 16.1425 471.063 15.9702C470.911 15.7945 470.697 15.6487 470.422 15.5327C470.15 15.4134 469.832 15.3073 469.468 15.2145L468.309 14.9162C467.471 14.7008 466.808 14.3743 466.32 13.9368C465.837 13.496 465.595 12.911 465.595 12.1818C465.595 11.5819 465.757 11.0566 466.082 10.6058C466.41 10.1551 466.856 9.8054 467.419 9.55682C467.983 9.30492 468.621 9.17898 469.333 9.17898C470.056 9.17898 470.689 9.30492 471.232 9.55682C471.779 9.8054 472.209 10.1518 472.52 10.5959C472.832 11.0367 472.992 11.5438 473.002 12.1172H471.227Z" fill="#F1EFEF"/>
<path d="M480.041 10.5V18.5H479.072V11.5156H479.025L477.072 12.8125V11.8281L479.072 10.5H480.041ZM484.536 17.0938V11.9375H485.411V17.0938H484.536ZM482.396 14.9531V14.0781H487.552V14.9531H482.396Z" fill="#C6C6C8"/>
<rect x="16" y="32" width="139" height="28" rx="6" fill="#006AB2"/>
<rect x="22" y="37" width="18" height="18" rx="3.5" fill="#F1EFEF"/>
<path d="M34.0884 42.7166V39.7163C34.092 39.611 34.1792 39.5289 34.284 39.5304C35.3077 39.5924 36.2377 39.6825 37.0327 39.7945L37.0354 39.7952C37.1098 39.804 37.1718 39.8561 37.195 39.9269L37.1954 39.9268L37.1961 39.93C37.1986 39.9377 37.2002 39.9454 37.2016 39.9533L37.2032 39.9599C37.2061 39.9805 37.2097 40.0041 37.2138 40.0314C37.3118 40.6962 37.4135 41.7454 37.4672 42.6973C37.4672 42.6973 37.4793 42.9096 37.2666 42.9096H34.2814C34.1747 42.9096 34.0884 42.8233 34.0884 42.7166ZM34.0889 39.7033L34.0884 39.7163V39.7102L34.0886 39.7033H34.0889Z" fill="#006AB2"/>
<path d="M27.9092 52.2807V49.0876V49.2808C27.9092 49.1741 27.8228 49.0876 27.7162 49.0876H24.7312C24.5184 49.0876 24.5304 49.3002 24.5304 49.3002C24.584 50.252 24.6859 51.3015 24.7839 51.9662C24.7879 51.9938 24.7916 52.0177 24.7946 52.0386L24.796 52.0445C24.7973 52.0524 24.799 52.0602 24.8015 52.0678L24.8021 52.071H24.8025C24.8256 52.1411 24.8866 52.1925 24.9603 52.2022C25.7565 52.3147 26.6888 52.4051 27.7149 52.4672C27.8194 52.468 27.906 52.3857 27.9092 52.2807Z" fill="#006AB2"/>
<path d="M31.3858 42.697C31.3858 42.697 31.3858 42.9098 31.5985 42.9098H33.1035C33.1035 42.9098 33.3164 42.9098 33.3164 42.697V39.6941C33.3164 39.6941 33.3164 39.4811 33.1037 39.4726C32.6972 39.4557 32.0507 39.4405 31.5985 39.4375C31.5985 39.4375 31.3858 39.4362 31.3858 39.6491V42.697Z" fill="#006AB2"/>
<path d="M30.9987 52.35V49.152V49.2808C30.9987 49.1742 30.9122 49.0876 30.8056 49.0876H30.9342H28.8948C28.8948 49.0876 28.6819 49.0876 28.6819 49.3006V52.3034C28.6819 52.3034 28.6819 52.5163 28.8946 52.525C29.4206 52.5466 30.1969 52.5628 30.7859 52.5628C30.7859 52.5628 30.9987 52.5628 30.9987 52.35Z" fill="#006AB2"/>
<path d="M28.6819 42.697C28.6819 42.697 28.6819 42.9098 28.8948 42.9098H30.3996C30.3996 42.9098 30.6126 42.9098 30.6126 42.697V39.6489C30.6126 39.6489 30.6126 39.436 30.3997 39.4375C29.9473 39.4405 29.3014 39.456 28.8946 39.4727C28.8946 39.4727 28.6819 39.4814 28.6819 39.6942V42.697Z" fill="#006AB2"/>
<path d="M24.6943 48.3156H27.6971C27.6971 48.3156 27.9099 48.3156 27.9099 48.1028V46.5976C27.9099 46.5976 27.9099 46.3848 27.6971 46.3848H24.649C24.649 46.3848 24.4363 46.3848 24.4375 46.5976C24.4405 47.0501 24.4561 47.696 24.4727 48.1028C24.4727 48.1028 24.4816 48.3156 24.6943 48.3156Z" fill="#006AB2"/>
<path d="M24.4375 45.3998C24.4375 45.3998 24.4362 45.6126 24.6489 45.6126H27.697C27.697 45.6126 27.9098 45.6126 27.9098 45.3998V43.8949C27.9098 43.8949 27.9098 43.6821 27.697 43.6821H24.6941C24.6941 43.6821 24.4814 43.6821 24.4726 43.8946C24.456 44.3013 24.4405 44.9476 24.4375 45.3998Z" fill="#006AB2"/>
<path d="M27.9092 42.7166V39.7163C27.9057 39.611 27.8184 39.5289 27.7135 39.5304C26.6899 39.5924 25.7599 39.6825 24.965 39.7945L24.9622 39.7952C24.8878 39.804 24.8258 39.8561 24.8025 39.9269L24.8021 39.9268L24.8015 39.93C24.799 39.9377 24.7973 39.9454 24.796 39.9533L24.7945 39.9599C24.7915 39.9805 24.7878 40.0041 24.7839 40.0314C24.6859 40.6962 24.584 41.7454 24.5304 42.6973C24.5304 42.6973 24.5184 42.9096 24.7312 42.9096H27.7162C27.8228 42.9096 27.9092 42.8233 27.9092 42.7166ZM27.9088 39.7033L27.9092 39.7163V39.7102L27.909 39.7033H27.9088Z" fill="#006AB2"/>
<path d="M34.0884 48.3289C34.0884 48.3289 34.0884 48.5417 34.2387 48.6922C34.2387 48.6922 34.0884 48.5417 37.0974 51.551C37.0974 51.551 37.248 51.7013 37.2748 51.4902C37.4213 50.3436 37.5338 48.6401 37.5556 46.9839C37.5556 46.9839 37.5583 46.7712 37.3455 46.7712H34.2598C34.2598 46.7712 34.0884 46.7712 34.0884 46.9426V48.3289Z" fill="#006AB2"/>
<path d="M37.5632 45.8089C37.5609 45.0758 37.5456 44.3789 37.5258 43.8946C37.5258 43.8946 37.5169 43.682 37.3041 43.682H34.3012C34.3012 43.682 34.0884 43.682 34.0884 43.8948V45.7858C34.0884 45.7858 34.0884 45.9986 34.3012 45.9986H37.3704C37.4759 45.9986 37.5614 45.9139 37.5632 45.8089Z" fill="#006AB2"/>
<path d="M36.5514 52.097C34.4783 50.0241 33.8335 49.3792 33.6328 49.1786C33.5692 49.1173 33.4967 49.0837 33.4346 49.088V49.0878H31.9844C31.9844 49.0878 31.7715 49.0878 31.7715 49.3008V52.3451C31.7715 52.3451 31.7715 52.5579 31.9844 52.5551C33.6407 52.5333 35.3438 52.4208 36.4907 52.2744C36.4907 52.2744 36.7018 52.2473 36.5514 52.097Z" fill="#006AB2"/>
<path d="M45.0841 41.3182H47.3412L50.3639 48.696H50.4833L53.506 41.3182H55.7631V51.5H53.9932V44.505H53.8987L51.0848 51.4702H49.7624L46.9485 44.4901H46.854V51.5H45.0841V41.3182ZM59.6795 51.6541C59.1956 51.6541 58.7598 51.5679 58.372 51.3956C57.9875 51.2199 57.6826 50.9614 57.4572 50.62C57.2351 50.2786 57.1241 49.8577 57.1241 49.3572C57.1241 48.9264 57.2037 48.5701 57.3627 48.2884C57.5218 48.0066 57.7389 47.7812 58.014 47.6122C58.2891 47.4432 58.599 47.3156 58.9437 47.2294C59.2917 47.1399 59.6513 47.0753 60.0225 47.0355C60.47 46.9891 60.8329 46.9477 61.1113 46.9112C61.3897 46.8714 61.5919 46.8118 61.7179 46.7322C61.8471 46.6494 61.9117 46.5218 61.9117 46.3494V46.3196C61.9117 45.9451 61.8007 45.6551 61.5787 45.4496C61.3566 45.2441 61.0367 45.1413 60.6191 45.1413C60.1783 45.1413 59.8287 45.2375 59.5701 45.4297C59.3149 45.6219 59.1426 45.849 59.0531 46.1108L57.3727 45.8722C57.5053 45.4081 57.724 45.0204 58.0289 44.7088C58.3339 44.3939 58.7067 44.1586 59.1475 44.0028C59.5884 43.8438 60.0756 43.7642 60.6092 43.7642C60.9771 43.7642 61.3433 43.8073 61.7079 43.8935C62.0725 43.9796 62.4056 44.1222 62.7072 44.321C63.0088 44.5166 63.2508 44.7834 63.4331 45.1214C63.6187 45.4595 63.7115 45.8821 63.7115 46.3892V51.5H61.9814V50.451H61.9217C61.8123 50.6631 61.6582 50.862 61.4593 51.0476C61.2638 51.2299 61.0169 51.3774 60.7186 51.4901C60.4236 51.5994 60.0772 51.6541 59.6795 51.6541ZM60.1468 50.3317C60.5081 50.3317 60.8213 50.2604 61.0865 50.1179C61.3516 49.9721 61.5555 49.7798 61.698 49.5412C61.8438 49.3026 61.9167 49.0424 61.9167 48.7607V47.8608C61.8604 47.9072 61.7643 47.9503 61.6284 47.9901C61.4958 48.0298 61.3466 48.0646 61.1809 48.0945C61.0152 48.1243 60.8511 48.1508 60.6887 48.174C60.5263 48.1972 60.3855 48.2171 60.2662 48.2337C59.9977 48.2701 59.7574 48.3298 59.5453 48.4126C59.3332 48.4955 59.1658 48.6115 59.0431 48.7607C58.9205 48.9065 58.8592 49.0954 58.8592 49.3274C58.8592 49.6589 58.9802 49.9091 59.2221 50.0781C59.4641 50.2472 59.7723 50.3317 60.1468 50.3317ZM68.1449 51.6342C67.545 51.6342 67.0081 51.4801 66.5341 51.1719C66.0602 50.8636 65.6857 50.4162 65.4106 49.8295C65.1355 49.2429 64.9979 48.5303 64.9979 47.6918C64.9979 46.8433 65.1371 46.1274 65.4155 45.544C65.6973 44.9574 66.0767 44.5149 66.554 44.2166C67.0313 43.915 67.5633 43.7642 68.1499 43.7642C68.5973 43.7642 68.9652 43.8404 69.2536 43.9929C69.5419 44.142 69.7706 44.3227 69.9397 44.5348C70.1087 44.7436 70.2396 44.9408 70.3324 45.1264H70.407V41.3182H72.2117V51.5H70.4418V50.2969H70.3324C70.2396 50.4825 70.1054 50.6797 69.9297 50.8885C69.7541 51.094 69.5221 51.2696 69.2337 51.4155C68.9454 51.5613 68.5824 51.6342 68.1449 51.6342ZM68.6471 50.1577C69.0282 50.1577 69.353 50.0549 69.6215 49.8494C69.89 49.6406 70.0938 49.3506 70.233 48.9794C70.3722 48.6082 70.4418 48.1757 70.4418 47.6818C70.4418 47.188 70.3722 46.7588 70.233 46.3942C70.0971 46.0296 69.8949 45.7462 69.6265 45.544C69.3613 45.3419 69.0348 45.2408 68.6471 45.2408C68.246 45.2408 67.9113 45.3452 67.6428 45.554C67.3743 45.7628 67.1722 46.0511 67.0363 46.419C66.9004 46.7869 66.8324 47.2079 66.8324 47.6818C66.8324 48.1591 66.9004 48.585 67.0363 48.9595C67.1755 49.3307 67.3793 49.6241 67.6478 49.8395C67.9196 50.0516 68.2526 50.1577 68.6471 50.1577ZM77.3002 51.6491C76.5345 51.6491 75.8733 51.4901 75.3165 51.1719C74.763 50.8504 74.3371 50.3963 74.0388 49.8097C73.7405 49.2197 73.5914 48.5253 73.5914 47.7266C73.5914 46.9411 73.7405 46.2517 74.0388 45.6584C74.3404 45.0618 74.7613 44.5978 75.3016 44.2663C75.8418 43.9316 76.4765 43.7642 77.2057 43.7642C77.6763 43.7642 78.1205 43.8404 78.5381 43.9929C78.959 44.142 79.3302 44.3741 79.6517 44.6889C79.9765 45.0038 80.2317 45.4048 80.4174 45.892C80.603 46.3759 80.6958 46.9527 80.6958 47.6222V48.174H74.4365V46.9609H78.9706C78.9673 46.6162 78.8927 46.3097 78.7469 46.0412C78.6011 45.7694 78.3972 45.5556 78.1354 45.3999C77.8769 45.2441 77.5753 45.1662 77.2306 45.1662C76.8627 45.1662 76.5395 45.2557 76.2611 45.4347C75.9827 45.6103 75.7656 45.8423 75.6098 46.1307C75.4574 46.4157 75.3795 46.7289 75.3762 47.0703V48.1293C75.3762 48.5734 75.4574 48.9545 75.6198 49.2727C75.7822 49.5876 76.0092 49.8295 76.3009 49.9986C76.5925 50.1643 76.9339 50.2472 77.325 50.2472C77.5869 50.2472 77.8238 50.2107 78.036 50.1378C78.2481 50.0616 78.432 49.9505 78.5878 49.8047C78.7436 49.6589 78.8612 49.4782 78.9408 49.2628L80.6212 49.4517C80.5151 49.8958 80.313 50.2836 80.0147 50.6151C79.7197 50.9432 79.3418 51.1984 78.8811 51.3807C78.4204 51.5597 77.8934 51.6491 77.3002 51.6491ZM85.271 51.5V43.8636H87.0707V51.5H85.271ZM86.1758 42.7798C85.8908 42.7798 85.6455 42.6854 85.44 42.4964C85.2345 42.3042 85.1318 42.0739 85.1318 41.8054C85.1318 41.5336 85.2345 41.3033 85.44 41.1143C85.6455 40.9221 85.8908 40.826 86.1758 40.826C86.4642 40.826 86.7094 40.9221 86.9116 41.1143C87.1171 41.3033 87.2198 41.5336 87.2198 41.8054C87.2198 42.0739 87.1171 42.3042 86.9116 42.4964C86.7094 42.6854 86.4642 42.7798 86.1758 42.7798ZM90.5111 47.0256V51.5H88.7114V43.8636H90.4315V45.1612H90.521C90.6967 44.7337 90.9767 44.3939 91.3612 44.142C91.749 43.8902 92.2279 43.7642 92.798 43.7642C93.325 43.7642 93.784 43.8769 94.1751 44.1023C94.5696 44.3277 94.8745 44.6541 95.0899 45.0817C95.3087 45.5092 95.4164 46.0279 95.4131 46.6378V51.5H93.6133V46.9162C93.6133 46.4058 93.4808 46.0064 93.2156 45.718C92.9538 45.4297 92.5909 45.2855 92.1268 45.2855C91.812 45.2855 91.5319 45.3551 91.2866 45.4943C91.0447 45.6302 90.8541 45.8274 90.7149 46.0859C90.579 46.3445 90.5111 46.6577 90.5111 47.0256ZM100.375 51.5V41.3182H102.219V45.9964H102.344L106.316 41.3182H108.568L104.63 45.8871L108.603 51.5H106.385L103.348 47.1349L102.219 48.4673V51.5H100.375ZM109.56 51.5V43.8636H111.305V45.1364H111.384C111.524 44.6955 111.762 44.3558 112.1 44.1172C112.442 43.8752 112.831 43.7543 113.269 43.7543C113.368 43.7543 113.479 43.7592 113.602 43.7692C113.728 43.7758 113.832 43.7874 113.915 43.804V45.4595C113.839 45.433 113.718 45.4098 113.552 45.3899C113.39 45.3667 113.232 45.3551 113.08 45.3551C112.752 45.3551 112.457 45.4264 112.195 45.5689C111.936 45.7081 111.732 45.902 111.583 46.1506C111.434 46.3991 111.36 46.6858 111.36 47.0107V51.5H109.56ZM116.961 51.6541C116.477 51.6541 116.042 51.5679 115.654 51.3956C115.269 51.2199 114.964 50.9614 114.739 50.62C114.517 50.2786 114.406 49.8577 114.406 49.3572C114.406 48.9264 114.486 48.5701 114.645 48.2884C114.804 48.0066 115.021 47.7812 115.296 47.6122C115.571 47.4432 115.881 47.3156 116.226 47.2294C116.574 47.1399 116.933 47.0753 117.304 47.0355C117.752 46.9891 118.115 46.9477 118.393 46.9112C118.672 46.8714 118.874 46.8118 119 46.7322C119.129 46.6494 119.194 46.5218 119.194 46.3494V46.3196C119.194 45.9451 119.083 45.6551 118.861 45.4496C118.638 45.2441 118.319 45.1413 117.901 45.1413C117.46 45.1413 117.111 45.2375 116.852 45.4297C116.597 45.6219 116.424 45.849 116.335 46.1108L114.655 45.8722C114.787 45.4081 115.006 45.0204 115.311 44.7088C115.616 44.3939 115.989 44.1586 116.429 44.0028C116.87 43.8438 117.357 43.7642 117.891 43.7642C118.259 43.7642 118.625 43.8073 118.99 43.8935C119.354 43.9796 119.687 44.1222 119.989 44.321C120.291 44.5166 120.533 44.7834 120.715 45.1214C120.901 45.4595 120.993 45.8821 120.993 46.3892V51.5H119.263V50.451H119.204C119.094 50.6631 118.94 50.862 118.741 51.0476C118.546 51.2299 118.299 51.3774 118 51.4901C117.705 51.5994 117.359 51.6541 116.961 51.6541ZM117.429 50.3317C117.79 50.3317 118.103 50.2604 118.368 50.1179C118.633 49.9721 118.837 49.7798 118.98 49.5412C119.126 49.3026 119.199 49.0424 119.199 48.7607V47.8608C119.142 47.9072 119.046 47.9503 118.91 47.9901C118.778 48.0298 118.629 48.0646 118.463 48.0945C118.297 48.1243 118.133 48.1508 117.971 48.174C117.808 48.1972 117.667 48.2171 117.548 48.2337C117.28 48.2701 117.039 48.3298 116.827 48.4126C116.615 48.4955 116.448 48.6115 116.325 48.7607C116.202 48.9065 116.141 49.0954 116.141 49.3274C116.141 49.6589 116.262 49.9091 116.504 50.0781C116.746 50.2472 117.054 50.3317 117.429 50.3317ZM124.234 49.1037L124.229 46.9311H124.517L127.261 43.8636H129.364L125.989 47.6222H125.616L124.234 49.1037ZM122.593 51.5V41.3182H124.393V51.5H122.593ZM127.386 51.5L124.9 48.0249L126.113 46.7571L129.538 51.5H127.386ZM133.37 51.6491C132.624 51.6491 131.978 51.4851 131.431 51.157C130.884 50.8288 130.46 50.3698 130.159 49.7798C129.86 49.1899 129.711 48.5005 129.711 47.7116C129.711 46.9228 129.86 46.2318 130.159 45.6385C130.46 45.0452 130.884 44.5845 131.431 44.2564C131.978 43.9283 132.624 43.7642 133.37 43.7642C134.116 43.7642 134.762 43.9283 135.309 44.2564C135.856 44.5845 136.279 45.0452 136.577 45.6385C136.879 46.2318 137.029 46.9228 137.029 47.7116C137.029 48.5005 136.879 49.1899 136.577 49.7798C136.279 50.3698 135.856 50.8288 135.309 51.157C134.762 51.4851 134.116 51.6491 133.37 51.6491ZM133.38 50.2074C133.785 50.2074 134.123 50.0964 134.394 49.8743C134.666 49.6489 134.868 49.3473 135.001 48.9695C135.137 48.5916 135.205 48.1707 135.205 47.7067C135.205 47.2393 135.137 46.8168 135.001 46.4389C134.868 46.0578 134.666 45.7545 134.394 45.5291C134.123 45.3037 133.785 45.1911 133.38 45.1911C132.966 45.1911 132.621 45.3037 132.346 45.5291C132.074 45.7545 131.87 46.0578 131.735 46.4389C131.602 46.8168 131.536 47.2393 131.536 47.7067C131.536 48.1707 131.602 48.5916 131.735 48.9695C131.87 49.3473 132.074 49.6489 132.346 49.8743C132.621 50.0964 132.966 50.2074 133.38 50.2074ZM132.679 42.8594L133.793 40.5874H135.553L134.026 42.8594H132.679ZM139.704 51.5L137.546 43.8636H139.381L140.723 49.233H140.793L142.165 43.8636H143.98L145.352 49.2031H145.426L146.749 43.8636H148.588L146.426 51.5H144.551L143.12 46.3395H143.015L141.583 51.5H139.704Z" fill="#F1EFEF"/>
<rect x="159" y="32" width="152" height="28" rx="6" fill="#3C46C9"/>
<rect x="165" y="37" width="18" height="18" rx="3.5" fill="#F1EFEF"/>
<path opacity="0.4" fill-rule="evenodd" clip-rule="evenodd" d="M179.889 43.5C179.938 44.2048 179.938 45.0711 179.938 46.152V46.473C179.938 49.1963 179.938 50.5579 179.155 51.404C178.372 52.25 177.113 52.25 174.594 52.25H173.406C170.887 52.25 169.628 52.25 168.845 51.404C168.062 50.5579 168.062 49.1963 168.062 46.473V46.152C168.062 45.0711 168.062 44.2048 168.111 43.5H179.889ZM174 46.3125C174.542 46.3125 175.02 46.5888 175.3 47.0082C175.466 47.2563 175.562 47.5543 175.562 47.875C175.562 48.1957 175.466 48.4938 175.3 48.7419C175.02 49.1613 174.542 49.4375 174 49.4375C173.458 49.4375 172.98 49.1613 172.7 48.7419C172.534 48.4938 172.438 48.1957 172.438 47.875C172.438 47.5543 172.534 47.2563 172.7 47.0082C172.98 46.5888 173.458 46.3125 174 46.3125Z" fill="#3C46C9"/>
<path d="M177.75 39.75V41M170.25 39.75V41" stroke="#3C46C9" stroke-width="1.25" stroke-linecap="round" stroke-linejoin="round"/>
<path d="M168.375 43.5H179.625" stroke="#3C46C9" stroke-width="1.25" stroke-linecap="round" stroke-linejoin="round"/>
<path d="M168.062 46.152C168.062 43.4287 168.062 42.0671 168.845 41.221C169.628 40.375 170.887 40.375 173.406 40.375H174.594C177.113 40.375 178.372 40.375 179.155 41.221C179.938 42.0671 179.938 43.4287 179.938 46.152V46.473C179.938 49.1963 179.938 50.5579 179.155 51.404C178.372 52.25 177.113 52.25 174.594 52.25H173.406C170.887 52.25 169.628 52.25 168.845 51.404C168.062 50.5579 168.062 49.1963 168.062 46.473V46.152Z" stroke="#3C46C9" stroke-width="1.25" stroke-linecap="round" stroke-linejoin="round"/>
<path d="M174 49.4375V50.0625M174 49.4375C173.458 49.4375 172.98 49.1613 172.7 48.7419M174 49.4375C174.542 49.4375 175.02 49.1613 175.3 48.7419M172.7 48.7419L172.125 49.125M172.7 48.7419C172.534 48.4938 172.438 48.1957 172.438 47.875C172.438 47.5543 172.534 47.2563 172.7 47.0082M175.3 48.7419L175.875 49.125M175.3 48.7419C175.466 48.4938 175.562 48.1957 175.562 47.875C175.562 47.5543 175.466 47.2563 175.3 47.0082M174 46.3125C174.542 46.3125 175.02 46.5888 175.3 47.0082M174 46.3125C173.458 46.3125 172.98 46.5888 172.7 47.0082M174 46.3125V45.6875M175.3 47.0082L175.875 46.625M172.7 47.0082L172.125 46.625" stroke="#3C46C9" stroke-width="1.25" stroke-linecap="round"/>
<path d="M188.173 51.5V50.1676L191.708 46.7024C192.046 46.361 192.328 46.0578 192.553 45.7926C192.779 45.5275 192.948 45.2706 193.061 45.022C193.173 44.7734 193.23 44.5083 193.23 44.2266C193.23 43.9051 193.157 43.63 193.011 43.4013C192.865 43.1693 192.664 42.9903 192.409 42.8643C192.154 42.7384 191.864 42.6754 191.539 42.6754C191.204 42.6754 190.911 42.745 190.659 42.8842C190.407 43.0201 190.212 43.214 190.073 43.4659C189.937 43.7178 189.869 44.0178 189.869 44.3658H188.114C188.114 43.7195 188.261 43.1577 188.556 42.6804C188.851 42.2031 189.257 41.8336 189.774 41.5717C190.295 41.3099 190.891 41.179 191.564 41.179C192.247 41.179 192.847 41.3066 193.364 41.5618C193.881 41.817 194.282 42.1667 194.567 42.6108C194.855 43.0549 194.999 43.562 194.999 44.1321C194.999 44.5133 194.927 44.8878 194.781 45.2557C194.635 45.6236 194.378 46.0312 194.01 46.4787C193.646 46.9261 193.133 47.468 192.474 48.1044L190.719 49.8892V49.9588H195.154V51.5H188.173ZM197.787 51.6094C197.486 51.6094 197.227 51.5033 197.012 51.2912C196.796 51.0791 196.69 50.8205 196.694 50.5156C196.69 50.2173 196.796 49.9621 197.012 49.75C197.227 49.5379 197.486 49.4318 197.787 49.4318C198.079 49.4318 198.333 49.5379 198.548 49.75C198.767 49.9621 198.878 50.2173 198.881 50.5156C198.878 50.7178 198.825 50.9018 198.722 51.0675C198.623 51.2332 198.49 51.3658 198.324 51.4652C198.162 51.5613 197.983 51.6094 197.787 51.6094ZM203.876 51.6939C203.058 51.6939 202.355 51.4867 201.768 51.0724C201.185 50.6548 200.736 50.0533 200.421 49.2678C200.11 48.4789 199.954 47.5294 199.954 46.419C199.957 45.3087 200.114 44.3641 200.426 43.5852C200.741 42.803 201.19 42.2064 201.773 41.7955C202.36 41.3845 203.061 41.179 203.876 41.179C204.692 41.179 205.393 41.3845 205.979 41.7955C206.566 42.2064 207.015 42.803 207.327 43.5852C207.641 44.3674 207.799 45.312 207.799 46.419C207.799 47.5327 207.641 48.4839 207.327 49.2727C207.015 50.0582 206.566 50.6581 205.979 51.0724C205.396 51.4867 204.695 51.6939 203.876 51.6939ZM203.876 50.1378C204.513 50.1378 205.015 49.8246 205.383 49.1982C205.754 48.5684 205.94 47.642 205.94 46.419C205.94 45.6103 205.855 44.9309 205.686 44.3807C205.517 43.8305 205.278 43.4162 204.97 43.1378C204.662 42.8561 204.297 42.7152 203.876 42.7152C203.243 42.7152 202.743 43.0301 202.375 43.6598C202.007 44.2862 201.821 45.206 201.818 46.419C201.815 47.2311 201.896 47.9138 202.062 48.4673C202.231 49.0208 202.469 49.4384 202.778 49.7202C203.086 49.9986 203.452 50.1378 203.876 50.1378ZM209.973 51.6094C209.671 51.6094 209.413 51.5033 209.197 51.2912C208.982 51.0791 208.876 50.8205 208.879 50.5156C208.876 50.2173 208.982 49.9621 209.197 49.75C209.413 49.5379 209.671 49.4318 209.973 49.4318C210.264 49.4318 210.518 49.5379 210.733 49.75C210.952 49.9621 211.063 50.2173 211.067 50.5156C211.063 50.7178 211.01 50.9018 210.907 51.0675C210.808 51.2332 210.675 51.3658 210.51 51.4652C210.347 51.5613 210.168 51.6094 209.973 51.6094ZM216.062 51.6939C215.243 51.6939 214.54 51.4867 213.954 51.0724C213.371 50.6548 212.921 50.0533 212.607 49.2678C212.295 48.4789 212.139 47.5294 212.139 46.419C212.143 45.3087 212.3 44.3641 212.612 43.5852C212.926 42.803 213.375 42.2064 213.959 41.7955C214.545 41.3845 215.246 41.179 216.062 41.179C216.877 41.179 217.578 41.3845 218.165 41.7955C218.751 42.2064 219.201 42.803 219.512 43.5852C219.827 44.3674 219.984 45.312 219.984 46.419C219.984 47.5327 219.827 48.4839 219.512 49.2727C219.201 50.0582 218.751 50.6581 218.165 51.0724C217.581 51.4867 216.88 51.6939 216.062 51.6939ZM216.062 50.1378C216.698 50.1378 217.2 49.8246 217.568 49.1982C217.939 48.5684 218.125 47.642 218.125 46.419C218.125 45.6103 218.04 44.9309 217.871 44.3807C217.702 43.8305 217.464 43.4162 217.156 43.1378C216.847 42.8561 216.483 42.7152 216.062 42.7152C215.429 42.7152 214.928 43.0301 214.56 43.6598C214.192 44.2862 214.007 45.206 214.004 46.419C214 47.2311 214.081 47.9138 214.247 48.4673C214.416 49.0208 214.655 49.4384 214.963 49.7202C215.271 49.9986 215.638 50.1378 216.062 50.1378Z" fill="#F1EFEF"/>
<path d="M226.469 50.5H224V42.5H226.578C227.354 42.5 228.018 42.6602 228.57 42.9805C229.122 43.2982 229.545 43.7552 229.84 44.3516C230.134 44.9453 230.281 45.6562 230.281 46.4844C230.281 47.3177 230.133 48.0352 229.836 48.6367C229.539 49.2357 229.107 49.6966 228.539 50.0195C227.971 50.3398 227.281 50.5 226.469 50.5ZM224.969 49.6406H226.406C227.067 49.6406 227.616 49.513 228.051 49.2578C228.485 49.0026 228.81 48.6393 229.023 48.168C229.237 47.6966 229.344 47.1354 229.344 46.4844C229.344 45.8385 229.238 45.2826 229.027 44.8164C228.816 44.3477 228.501 43.9883 228.082 43.7383C227.663 43.4857 227.14 43.3594 226.515 43.3594H224.969V49.6406ZM234.132 50.625C233.554 50.625 233.055 50.4974 232.636 50.2422C232.219 49.9844 231.897 49.625 231.671 49.1641C231.447 48.7005 231.335 48.1615 231.335 47.5469C231.335 46.9323 231.447 46.3906 231.671 45.9219C231.897 45.4505 232.212 45.0833 232.616 44.8203C233.022 44.5547 233.496 44.4219 234.038 44.4219C234.35 44.4219 234.659 44.474 234.964 44.5781C235.268 44.6823 235.546 44.8516 235.796 45.0859C236.046 45.3177 236.245 45.625 236.393 46.0078C236.542 46.3906 236.616 46.862 236.616 47.4219V47.8125H231.991V47.0156H235.679C235.679 46.6771 235.611 46.375 235.475 46.1094C235.343 45.8437 235.152 45.6341 234.905 45.4805C234.66 45.3268 234.371 45.25 234.038 45.25C233.671 45.25 233.353 45.3411 233.085 45.5234C232.819 45.7031 232.615 45.9375 232.471 46.2266C232.328 46.5156 232.257 46.8255 232.257 47.1562V47.6875C232.257 48.1406 232.335 48.5247 232.491 48.8398C232.65 49.1523 232.87 49.3906 233.151 49.5547C233.432 49.7161 233.759 49.7969 234.132 49.7969C234.374 49.7969 234.593 49.763 234.788 49.6953C234.986 49.625 235.156 49.5208 235.3 49.3828C235.443 49.2422 235.554 49.0677 235.632 48.8594L236.522 49.1094C236.429 49.4115 236.271 49.6771 236.05 49.9062C235.828 50.1328 235.555 50.3099 235.229 50.4375C234.904 50.5625 234.538 50.625 234.132 50.625ZM240.291 50.625C239.728 50.625 239.244 50.4922 238.838 50.2266C238.431 49.9609 238.119 49.5951 237.9 49.1289C237.681 48.6628 237.572 48.1302 237.572 47.5312C237.572 46.9219 237.684 46.3841 237.908 45.918C238.135 45.4492 238.45 45.0833 238.853 44.8203C239.26 44.5547 239.734 44.4219 240.275 44.4219C240.697 44.4219 241.077 44.5 241.416 44.6562C241.754 44.8125 242.032 45.0312 242.248 45.3125C242.464 45.5937 242.598 45.9219 242.65 46.2969H241.728C241.658 46.0234 241.502 45.7812 241.26 45.5703C241.02 45.3568 240.697 45.25 240.291 45.25C239.931 45.25 239.616 45.3437 239.346 45.5312C239.077 45.7161 238.868 45.9779 238.717 46.3164C238.568 46.6523 238.494 47.0469 238.494 47.5C238.494 47.9635 238.567 48.3672 238.713 48.7109C238.861 49.0547 239.07 49.3216 239.338 49.5117C239.609 49.7018 239.926 49.7969 240.291 49.7969C240.53 49.7969 240.748 49.7552 240.943 49.6719C241.139 49.5885 241.304 49.4688 241.439 49.3125C241.575 49.1562 241.671 48.9687 241.728 48.75H242.65C242.598 49.1042 242.469 49.4232 242.264 49.707C242.06 49.9883 241.791 50.2122 241.455 50.3789C241.122 50.543 240.734 50.625 240.291 50.625ZM246.349 50.625C245.77 50.625 245.272 50.4974 244.852 50.2422C244.436 49.9844 244.114 49.625 243.888 49.1641C243.664 48.7005 243.552 48.1615 243.552 47.5469C243.552 46.9323 243.664 46.3906 243.888 45.9219C244.114 45.4505 244.429 45.0833 244.833 44.8203C245.239 44.5547 245.713 44.4219 246.255 44.4219C246.567 44.4219 246.876 44.474 247.181 44.5781C247.485 44.6823 247.763 44.8516 248.013 45.0859C248.263 45.3177 248.462 45.625 248.61 46.0078C248.759 46.3906 248.833 46.862 248.833 47.4219V47.8125H244.208V47.0156H247.895C247.895 46.6771 247.828 46.375 247.692 46.1094C247.559 45.8437 247.369 45.6341 247.122 45.4805C246.877 45.3268 246.588 45.25 246.255 45.25C245.888 45.25 245.57 45.3411 245.302 45.5234C245.036 45.7031 244.832 45.9375 244.688 46.2266C244.545 46.5156 244.474 46.8255 244.474 47.1562V47.6875C244.474 48.1406 244.552 48.5247 244.708 48.8398C244.867 49.1523 245.087 49.3906 245.368 49.5547C245.649 49.7161 245.976 49.7969 246.349 49.7969C246.591 49.7969 246.809 49.763 247.005 49.6953C247.203 49.625 247.373 49.5208 247.516 49.3828C247.66 49.2422 247.77 49.0677 247.849 48.8594L248.739 49.1094C248.645 49.4115 248.488 49.6771 248.266 49.9062C248.045 50.1328 247.772 50.3099 247.446 50.4375C247.121 50.5625 246.755 50.625 246.349 50.625ZM250.07 50.5V44.5H250.961V45.4375H251.039C251.164 45.1172 251.366 44.8685 251.644 44.6914C251.923 44.5117 252.258 44.4219 252.648 44.4219C253.044 44.4219 253.374 44.5117 253.637 44.6914C253.902 44.8685 254.109 45.1172 254.258 45.4375H254.32C254.474 45.1276 254.704 44.8815 255.012 44.6992C255.319 44.5143 255.687 44.4219 256.117 44.4219C256.654 44.4219 257.092 44.5898 257.434 44.9258C257.775 45.2591 257.945 45.7786 257.945 46.4844V50.5H257.023V46.4844C257.023 46.0417 256.902 45.7253 256.66 45.5352C256.418 45.3451 256.133 45.25 255.805 45.25C255.383 45.25 255.056 45.3776 254.824 45.6328C254.592 45.8854 254.476 46.2057 254.476 46.5937V50.5H253.539V46.3906C253.539 46.0495 253.428 45.7747 253.207 45.5664C252.986 45.3555 252.7 45.25 252.351 45.25C252.112 45.25 251.888 45.3138 251.68 45.4414C251.474 45.569 251.307 45.7461 251.18 45.9727C251.055 46.1966 250.992 46.4557 250.992 46.75V50.5H250.07ZM259.591 50.5V42.5H260.513V45.4531H260.591C260.658 45.349 260.752 45.2161 260.872 45.0547C260.994 44.8906 261.169 44.7448 261.395 44.6172C261.625 44.487 261.935 44.4219 262.325 44.4219C262.83 44.4219 263.276 44.5482 263.661 44.8008C264.047 45.0534 264.347 45.4115 264.563 45.875C264.78 46.3385 264.888 46.8854 264.888 47.5156C264.888 48.151 264.78 48.7018 264.563 49.168C264.347 49.6315 264.048 49.9909 263.665 50.2461C263.282 50.4987 262.841 50.625 262.341 50.625C261.955 50.625 261.647 50.5612 261.415 50.4336C261.183 50.3034 261.005 50.1562 260.88 49.9922C260.755 49.8255 260.658 49.6875 260.591 49.5781H260.481V50.5H259.591ZM260.497 47.5C260.497 47.9531 260.563 48.3529 260.696 48.6992C260.829 49.043 261.023 49.3125 261.278 49.5078C261.533 49.7005 261.846 49.7969 262.216 49.7969C262.601 49.7969 262.923 49.6953 263.181 49.4922C263.441 49.2865 263.636 49.0104 263.767 48.6641C263.899 48.3151 263.966 47.9271 263.966 47.5C263.966 47.0781 263.901 46.6979 263.77 46.3594C263.643 46.0182 263.449 45.7487 263.188 45.5508C262.931 45.3503 262.606 45.25 262.216 45.25C261.841 45.25 261.526 45.3451 261.27 45.5352C261.015 45.7227 260.823 45.9857 260.692 46.3242C260.562 46.6602 260.497 47.0521 260.497 47.5ZM268.648 50.625C268.07 50.625 267.572 50.4974 267.152 50.2422C266.736 49.9844 266.414 49.625 266.188 49.1641C265.964 48.7005 265.852 48.1615 265.852 47.5469C265.852 46.9323 265.964 46.3906 266.188 45.9219C266.414 45.4505 266.729 45.0833 267.133 44.8203C267.539 44.5547 268.013 44.4219 268.555 44.4219C268.867 44.4219 269.176 44.474 269.48 44.5781C269.785 44.6823 270.063 44.8516 270.313 45.0859C270.563 45.3177 270.762 45.625 270.91 46.0078C271.059 46.3906 271.133 46.862 271.133 47.4219V47.8125H266.508V47.0156H270.195C270.195 46.6771 270.128 46.375 269.992 46.1094C269.859 45.8437 269.669 45.6341 269.422 45.4805C269.177 45.3268 268.888 45.25 268.555 45.25C268.188 45.25 267.87 45.3411 267.602 45.5234C267.336 45.7031 267.132 45.9375 266.988 46.2266C266.845 46.5156 266.773 46.8255 266.773 47.1562V47.6875C266.773 48.1406 266.852 48.5247 267.008 48.8398C267.167 49.1523 267.387 49.3906 267.668 49.5547C267.949 49.7161 268.276 49.7969 268.648 49.7969C268.891 49.7969 269.109 49.763 269.305 49.6953C269.503 49.625 269.673 49.5208 269.816 49.3828C269.96 49.2422 270.07 49.0677 270.148 48.8594L271.039 49.1094C270.945 49.4115 270.788 49.6771 270.566 49.9062C270.345 50.1328 270.072 50.3099 269.746 50.4375C269.421 50.5625 269.055 50.625 268.648 50.625ZM272.37 50.5V44.5H273.261V45.4062H273.323C273.433 45.1094 273.631 44.8685 273.917 44.6836C274.203 44.4987 274.526 44.4062 274.886 44.4062C274.953 44.4062 275.038 44.4076 275.14 44.4102C275.241 44.4128 275.318 44.4167 275.37 44.4219V45.3594C275.339 45.3516 275.267 45.3398 275.155 45.3242C275.046 45.306 274.93 45.2969 274.808 45.2969C274.516 45.2969 274.256 45.3581 274.026 45.4805C273.8 45.6003 273.62 45.7669 273.487 45.9805C273.357 46.1914 273.292 46.4323 273.292 46.7031V50.5H272.37ZM279.211 50.5V49.7969L281.852 46.9062C282.162 46.5677 282.417 46.2734 282.617 46.0234C282.818 45.7708 282.966 45.5339 283.063 45.3125C283.162 45.0885 283.211 44.8542 283.211 44.6094C283.211 44.3281 283.143 44.0846 283.008 43.8789C282.875 43.6732 282.693 43.5143 282.461 43.4023C282.229 43.2904 281.969 43.2344 281.68 43.2344C281.373 43.2344 281.104 43.2982 280.875 43.4258C280.649 43.5508 280.473 43.7266 280.348 43.9531C280.225 44.1797 280.164 44.4453 280.164 44.75H279.242C279.242 44.2812 279.35 43.8698 279.567 43.5156C279.783 43.1615 280.077 42.8854 280.449 42.6875C280.824 42.4896 281.245 42.3906 281.711 42.3906C282.18 42.3906 282.595 42.4896 282.957 42.6875C283.319 42.8854 283.603 43.1523 283.809 43.4883C284.014 43.8242 284.117 44.1979 284.117 44.6094C284.117 44.9036 284.064 45.1914 283.957 45.4727C283.853 45.7513 283.671 46.0625 283.41 46.4062C283.152 46.7474 282.794 47.1641 282.336 47.6562L280.539 49.5781V49.6406H284.258V50.5H279.211ZM288.316 50.6094C287.727 50.6094 287.226 50.4492 286.812 50.1289C286.398 49.806 286.081 49.3385 285.862 48.7266C285.644 48.112 285.534 47.3698 285.534 46.5C285.534 45.6354 285.644 44.8971 285.862 44.2852C286.084 43.6706 286.402 43.2018 286.816 42.8789C287.232 42.5534 287.732 42.3906 288.316 42.3906C288.899 42.3906 289.398 42.5534 289.812 42.8789C290.228 43.2018 290.546 43.6706 290.765 44.2852C290.986 44.8971 291.097 45.6354 291.097 46.5C291.097 47.3698 290.987 48.112 290.769 48.7266C290.55 49.3385 290.234 49.806 289.819 50.1289C289.405 50.4492 288.904 50.6094 288.316 50.6094ZM288.316 49.75C288.899 49.75 289.352 49.4687 289.675 48.9062C289.998 48.3437 290.159 47.5417 290.159 46.5C290.159 45.8073 290.085 45.2174 289.937 44.7305C289.791 44.2435 289.58 43.8724 289.304 43.6172C289.03 43.362 288.701 43.2344 288.316 43.2344C287.737 43.2344 287.286 43.5195 286.96 44.0898C286.635 44.6576 286.472 45.4609 286.472 46.5C286.472 47.1927 286.545 47.7812 286.691 48.2656C286.836 48.75 287.046 49.1185 287.319 49.3711C287.596 49.6237 287.928 49.75 288.316 49.75ZM292.416 50.5V49.7969L295.057 46.9062C295.367 46.5677 295.622 46.2734 295.822 46.0234C296.023 45.7708 296.171 45.5339 296.268 45.3125C296.367 45.0885 296.416 44.8542 296.416 44.6094C296.416 44.3281 296.349 44.0846 296.213 43.8789C296.08 43.6732 295.898 43.5143 295.666 43.4023C295.434 43.2904 295.174 43.2344 294.885 43.2344C294.578 43.2344 294.309 43.2982 294.08 43.4258C293.854 43.5508 293.678 43.7266 293.553 43.9531C293.431 44.1797 293.369 44.4453 293.369 44.75H292.447C292.447 44.2812 292.556 43.8698 292.772 43.5156C292.988 43.1615 293.282 42.8854 293.654 42.6875C294.029 42.4896 294.45 42.3906 294.916 42.3906C295.385 42.3906 295.8 42.4896 296.162 42.6875C296.524 42.8854 296.808 43.1523 297.014 43.4883C297.22 43.8242 297.322 44.1979 297.322 44.6094C297.322 44.9036 297.269 45.1914 297.162 45.4727C297.058 45.7513 296.876 46.0625 296.615 46.4062C296.358 46.7474 296 47.1641 295.541 47.6562L293.744 49.5781V49.6406H297.463V50.5H292.416ZM298.552 48.8594V48.0625L302.068 42.5H302.646V43.7344H302.255L299.599 47.9375V48H304.333V48.8594H298.552ZM302.318 50.5V48.6172V48.2461V42.5H303.239V50.5H302.318Z" fill="#C6C6C8"/>
<rect x="315" y="32" width="164" height="28" rx="6" fill="#3C46C9"/>
<rect x="321" y="37" width="18" height="18" rx="3.5" fill="#F1EFEF"/>
<path d="M330 52.25H329.062C326.705 52.25 325.527 52.25 324.795 51.5177C324.062 50.7855 324.062 49.607 324.063 47.2499L324.063 44.75C324.063 42.393 324.063 41.2145 324.795 40.4822C325.527 39.75 326.706 39.75 329.062 39.75H329.687C332.044 39.75 333.223 39.75 333.955 40.4822C334.687 41.2145 334.687 42.393 334.687 44.75V45.375" stroke="#3C46C9" stroke-width="1.25" stroke-linecap="round" stroke-linejoin="round"/>
<path d="M326.875 42.875H331.875M326.875 46H329.688" stroke="#3C46C9" stroke-width="1.25" stroke-linecap="round" stroke-linejoin="round"/>
<path d="M333.438 51.4829C334.542 51.4829 335.438 50.5672 335.438 49.4375C335.438 48.3078 334.542 47.3921 333.438 47.3921M333.438 51.4829C332.333 51.4829 331.438 50.5672 331.438 49.4375C331.438 48.3078 332.333 47.3921 333.438 47.3921M333.438 51.4829V52.25M333.438 47.3921V46.625M331.62 48.3218L330.938 47.9034M335.938 50.9716L335.256 50.5532M335.255 48.3218L335.937 47.9034M330.938 50.9716L331.619 50.5532" stroke="#3C46C9" stroke-width="1.25" stroke-linecap="round"/>
<path opacity="0.4" d="M334.687 44.75V47.25C334.687 47.4552 334.687 47.6516 334.687 47.8394C334.345 47.5592 333.91 47.3916 333.438 47.3916C332.333 47.3916 331.438 48.3074 331.438 49.4371C331.438 50.5667 332.333 51.4825 333.438 51.4825C333.665 51.4825 333.883 51.4439 334.086 51.3727C334.045 51.423 334.002 51.4713 333.955 51.5177C333.223 52.25 332.044 52.25 329.687 52.25H329.062C326.705 52.25 325.527 52.25 324.795 51.5177C324.062 50.7855 324.062 49.607 324.063 47.2499L324.063 44.75C324.063 42.393 324.063 41.2145 324.795 40.4822C325.527 39.75 326.706 39.75 329.062 39.75H329.687C332.044 39.75 333.223 39.75 333.955 40.4822C334.687 41.2145 334.687 42.393 334.687 44.75Z" fill="#3C46C9"/>
<path d="M345.597 51.5H343.628L347.213 41.3182H349.49L353.079 51.5H351.11L348.391 43.4062H348.311L345.597 51.5ZM345.661 47.5078H351.031V48.9893H345.661V47.5078ZM354.131 54.3636V43.8636H355.9V45.1264H356.005C356.098 44.9408 356.229 44.7436 356.398 44.5348C356.567 44.3227 356.795 44.142 357.084 43.9929C357.372 43.8404 357.74 43.7642 358.187 43.7642C358.777 43.7642 359.309 43.915 359.783 44.2166C360.261 44.5149 360.638 44.9574 360.917 45.544C361.199 46.1274 361.339 46.8433 361.339 47.6918C361.339 48.5303 361.202 49.2429 360.927 49.8295C360.652 50.4162 360.277 50.8636 359.803 51.1719C359.329 51.4801 358.792 51.6342 358.192 51.6342C357.755 51.6342 357.392 51.5613 357.104 51.4155C356.815 51.2696 356.583 51.094 356.408 50.8885C356.235 50.6797 356.101 50.4825 356.005 50.2969H355.93V54.3636H354.131ZM355.895 47.6818C355.895 48.1757 355.965 48.6082 356.104 48.9794C356.247 49.3506 356.451 49.6406 356.716 49.8494C356.984 50.0549 357.309 50.1577 357.69 50.1577C358.088 50.1577 358.421 50.0516 358.69 49.8395C358.958 49.6241 359.16 49.3307 359.296 48.9595C359.435 48.585 359.505 48.1591 359.505 47.6818C359.505 47.2079 359.437 46.7869 359.301 46.419C359.165 46.0511 358.963 45.7628 358.694 45.554C358.426 45.3452 358.091 45.2408 357.69 45.2408C357.306 45.2408 356.979 45.3419 356.711 45.544C356.442 45.7462 356.239 46.0296 356.099 46.3942C355.963 46.7588 355.895 47.188 355.895 47.6818ZM364.868 51.6541C364.384 51.6541 363.948 51.5679 363.56 51.3956C363.176 51.2199 362.871 50.9614 362.646 50.62C362.424 50.2786 362.313 49.8577 362.313 49.3572C362.313 48.9264 362.392 48.5701 362.551 48.2884C362.71 48.0066 362.927 47.7812 363.203 47.6122C363.478 47.4432 363.788 47.3156 364.132 47.2294C364.48 47.1399 364.84 47.0753 365.211 47.0355C365.659 46.9891 366.021 46.9477 366.3 46.9112C366.578 46.8714 366.78 46.8118 366.906 46.7322C367.036 46.6494 367.1 46.5218 367.1 46.3494V46.3196C367.1 45.9451 366.989 45.6551 366.767 45.4496C366.545 45.2441 366.225 45.1413 365.808 45.1413C365.367 45.1413 365.017 45.2375 364.759 45.4297C364.503 45.6219 364.331 45.849 364.242 46.1108L362.561 45.8722C362.694 45.4081 362.913 45.0204 363.217 44.7088C363.522 44.3939 363.895 44.1586 364.336 44.0028C364.777 43.8438 365.264 43.7642 365.798 43.7642C366.166 43.7642 366.532 43.8073 366.896 43.8935C367.261 43.9796 367.594 44.1222 367.896 44.321C368.197 44.5166 368.439 44.7834 368.622 45.1214C368.807 45.4595 368.9 45.8821 368.9 46.3892V51.5H367.17V50.451H367.11C367.001 50.6631 366.847 50.862 366.648 51.0476C366.452 51.2299 366.205 51.3774 365.907 51.4901C365.612 51.5994 365.266 51.6541 364.868 51.6541ZM365.335 50.3317C365.697 50.3317 366.01 50.2604 366.275 50.1179C366.54 49.9721 366.744 49.7798 366.886 49.5412C367.032 49.3026 367.105 49.0424 367.105 48.7607V47.8608C367.049 47.9072 366.953 47.9503 366.817 47.9901C366.684 48.0298 366.535 48.0646 366.369 48.0945C366.204 48.1243 366.04 48.1508 365.877 48.174C365.715 48.1972 365.574 48.2171 365.455 48.2337C365.186 48.2701 364.946 48.3298 364.734 48.4126C364.522 48.4955 364.354 48.6115 364.232 48.7607C364.109 48.9065 364.048 49.0954 364.048 49.3274C364.048 49.6589 364.169 49.9091 364.411 50.0781C364.653 50.2472 364.961 50.3317 365.335 50.3317ZM373.831 51.6491C373.068 51.6491 372.414 51.4818 371.867 51.147C371.323 50.8123 370.904 50.3499 370.609 49.7599C370.317 49.1667 370.172 48.4839 370.172 47.7116C370.172 46.9361 370.321 46.2517 370.619 45.6584C370.917 45.0618 371.338 44.5978 371.882 44.2663C372.429 43.9316 373.075 43.7642 373.821 43.7642C374.44 43.7642 374.989 43.8786 375.466 44.1072C375.947 44.3326 376.33 44.6525 376.615 45.0668C376.9 45.4777 377.062 45.9583 377.102 46.5085H375.382C375.312 46.1406 375.146 45.834 374.885 45.5888C374.626 45.3402 374.28 45.2159 373.846 45.2159C373.478 45.2159 373.154 45.3153 372.876 45.5142C372.598 45.7098 372.381 45.9915 372.225 46.3594C372.072 46.7273 371.996 47.1681 371.996 47.6818C371.996 48.2022 372.072 48.6496 372.225 49.0241C372.377 49.3954 372.591 49.6821 372.866 49.8842C373.145 50.0831 373.471 50.1825 373.846 50.1825C374.111 50.1825 374.348 50.1328 374.556 50.0334C374.769 49.9306 374.946 49.7831 375.088 49.5909C375.231 49.3987 375.329 49.165 375.382 48.8899H377.102C377.059 49.4302 376.9 49.9091 376.625 50.3267C376.35 50.741 375.975 51.0658 375.501 51.3011C375.027 51.5331 374.47 51.6491 373.831 51.6491ZM380.169 47.0256V51.5H378.37V41.3182H380.13V45.1612H380.219C380.398 44.7304 380.675 44.3906 381.049 44.142C381.427 43.8902 381.908 43.7642 382.491 43.7642C383.021 43.7642 383.484 43.8752 383.878 44.0973C384.273 44.3194 384.578 44.6442 384.793 45.0717C385.012 45.4993 385.121 46.0213 385.121 46.6378V51.5H383.321V46.9162C383.321 46.4025 383.189 46.0031 382.924 45.718C382.662 45.4297 382.294 45.2855 381.82 45.2855C381.502 45.2855 381.217 45.3551 380.965 45.4943C380.716 45.6302 380.521 45.8274 380.378 46.0859C380.239 46.3445 380.169 46.6577 380.169 47.0256ZM390.126 51.6491C389.361 51.6491 388.699 51.4901 388.143 51.1719C387.589 50.8504 387.163 50.3963 386.865 49.8097C386.567 49.2197 386.418 48.5253 386.418 47.7266C386.418 46.9411 386.567 46.2517 386.865 45.6584C387.167 45.0618 387.588 44.5978 388.128 44.2663C388.668 43.9316 389.303 43.7642 390.032 43.7642C390.503 43.7642 390.947 43.8404 391.364 43.9929C391.785 44.142 392.156 44.3741 392.478 44.6889C392.803 45.0038 393.058 45.4048 393.244 45.892C393.429 46.3759 393.522 46.9527 393.522 47.6222V48.174H387.263V46.9609H391.797C391.793 46.6162 391.719 46.3097 391.573 46.0412C391.427 45.7694 391.223 45.5556 390.962 45.3999C390.703 45.2441 390.401 45.1662 390.057 45.1662C389.689 45.1662 389.366 45.2557 389.087 45.4347C388.809 45.6103 388.592 45.8423 388.436 46.1307C388.284 46.4157 388.206 46.7289 388.202 47.0703V48.1293C388.202 48.5734 388.284 48.9545 388.446 49.2727C388.608 49.5876 388.835 49.8295 389.127 49.9986C389.419 50.1643 389.76 50.2472 390.151 50.2472C390.413 50.2472 390.65 50.2107 390.862 50.1378C391.074 50.0616 391.258 49.9505 391.414 49.8047C391.57 49.6589 391.687 49.4782 391.767 49.2628L393.447 49.4517C393.341 49.8958 393.139 50.2836 392.841 50.6151C392.546 50.9432 392.168 51.1984 391.707 51.3807C391.247 51.5597 390.72 51.6491 390.126 51.6491ZM398.077 51.5V50.1676L401.612 46.7024C401.95 46.361 402.232 46.0578 402.457 45.7926C402.683 45.5275 402.852 45.2706 402.964 45.022C403.077 44.7734 403.133 44.5083 403.133 44.2266C403.133 43.9051 403.06 43.63 402.915 43.4013C402.769 43.1693 402.568 42.9903 402.313 42.8643C402.058 42.7384 401.768 42.6754 401.443 42.6754C401.108 42.6754 400.815 42.745 400.563 42.8842C400.311 43.0201 400.116 43.214 399.976 43.4659C399.841 43.7178 399.773 44.0178 399.773 44.3658H398.018C398.018 43.7195 398.165 43.1577 398.46 42.6804C398.755 42.2031 399.161 41.8336 399.678 41.5717C400.198 41.3099 400.795 41.179 401.468 41.179C402.151 41.179 402.751 41.3066 403.268 41.5618C403.785 41.817 404.186 42.1667 404.471 42.6108C404.759 43.0549 404.903 43.562 404.903 44.1321C404.903 44.5133 404.83 44.8878 404.684 45.2557C404.539 45.6236 404.282 46.0312 403.914 46.4787C403.549 46.9261 403.037 47.468 402.378 48.1044L400.623 49.8892V49.9588H405.057V51.5H398.077ZM407.691 51.6094C407.39 51.6094 407.131 51.5033 406.916 51.2912C406.7 51.0791 406.594 50.8205 406.597 50.5156C406.594 50.2173 406.7 49.9621 406.916 49.75C407.131 49.5379 407.39 49.4318 407.691 49.4318C407.983 49.4318 408.236 49.5379 408.452 49.75C408.671 49.9621 408.782 50.2173 408.785 50.5156C408.782 50.7178 408.729 50.9018 408.626 51.0675C408.526 51.2332 408.394 51.3658 408.228 51.4652C408.066 51.5613 407.887 51.6094 407.691 51.6094ZM413.78 51.6939C412.961 51.6939 412.259 51.4867 411.672 51.0724C411.089 50.6548 410.64 50.0533 410.325 49.2678C410.013 48.4789 409.858 47.5294 409.858 46.419C409.861 45.3087 410.018 44.3641 410.33 43.5852C410.645 42.803 411.094 42.2064 411.677 41.7955C412.264 41.3845 412.965 41.179 413.78 41.179C414.595 41.179 415.296 41.3845 415.883 41.7955C416.47 42.2064 416.919 42.803 417.23 43.5852C417.545 44.3674 417.703 45.312 417.703 46.419C417.703 47.5327 417.545 48.4839 417.23 49.2727C416.919 50.0582 416.47 50.6581 415.883 51.0724C415.3 51.4867 414.599 51.6939 413.78 51.6939ZM413.78 50.1378C414.416 50.1378 414.919 49.8246 415.287 49.1982C415.658 48.5684 415.843 47.642 415.843 46.419C415.843 45.6103 415.759 44.9309 415.59 44.3807C415.421 43.8305 415.182 43.4162 414.874 43.1378C414.566 42.8561 414.201 42.7152 413.78 42.7152C413.147 42.7152 412.647 43.0301 412.279 43.6598C411.911 44.2862 411.725 45.206 411.722 46.419C411.719 47.2311 411.8 47.9138 411.965 48.4673C412.135 49.0208 412.373 49.4384 412.681 49.7202C412.99 49.9986 413.356 50.1378 413.78 50.1378ZM422.507 51.5V41.3182H424.351V49.9538H428.835V51.5H422.507ZM430.147 51.5V43.8636H431.946V51.5H430.147ZM431.052 42.7798C430.767 42.7798 430.521 42.6854 430.316 42.4964C430.11 42.3042 430.008 42.0739 430.008 41.8054C430.008 41.5336 430.11 41.3033 430.316 41.1143C430.521 40.9221 430.767 40.826 431.052 40.826C431.34 40.826 431.585 40.9221 431.787 41.1143C431.993 41.3033 432.096 41.5336 432.096 41.8054C432.096 42.0739 431.993 42.3042 431.787 42.4964C431.585 42.6854 431.34 42.7798 431.052 42.7798ZM436.918 51.6491C436.156 51.6491 435.501 51.4818 434.954 51.147C434.411 50.8123 433.991 50.3499 433.697 49.7599C433.405 49.1667 433.259 48.4839 433.259 47.7116C433.259 46.9361 433.408 46.2517 433.706 45.6584C434.005 45.0618 434.426 44.5978 434.969 44.2663C435.516 43.9316 436.162 43.7642 436.908 43.7642C437.528 43.7642 438.076 43.8786 438.554 44.1072C439.034 44.3326 439.417 44.6525 439.702 45.0668C439.987 45.4777 440.15 45.9583 440.189 46.5085H438.469C438.4 46.1406 438.234 45.834 437.972 45.5888C437.714 45.3402 437.367 45.2159 436.933 45.2159C436.565 45.2159 436.242 45.3153 435.964 45.5142C435.685 45.7098 435.468 45.9915 435.312 46.3594C435.16 46.7273 435.084 47.1681 435.084 47.6818C435.084 48.2022 435.16 48.6496 435.312 49.0241C435.465 49.3954 435.679 49.6821 435.954 49.8842C436.232 50.0831 436.558 50.1825 436.933 50.1825C437.198 50.1825 437.435 50.1328 437.644 50.0334C437.856 49.9306 438.033 49.7831 438.176 49.5909C438.318 49.3987 438.416 49.165 438.469 48.8899H440.189C440.146 49.4302 439.987 49.9091 439.712 50.3267C439.437 50.741 439.063 51.0658 438.589 51.3011C438.115 51.5331 437.558 51.6491 436.918 51.6491ZM444.838 51.6491C444.072 51.6491 443.411 51.4901 442.854 51.1719C442.301 50.8504 441.875 50.3963 441.577 49.8097C441.278 49.2197 441.129 48.5253 441.129 47.7266C441.129 46.9411 441.278 46.2517 441.577 45.6584C441.878 45.0618 442.299 44.5978 442.839 44.2663C443.38 43.9316 444.014 43.7642 444.743 43.7642C445.214 43.7642 445.658 43.8404 446.076 43.9929C446.497 44.142 446.868 44.3741 447.189 44.6889C447.514 45.0038 447.769 45.4048 447.955 45.892C448.141 46.3759 448.233 46.9527 448.233 47.6222V48.174H441.974V46.9609H446.508C446.505 46.6162 446.43 46.3097 446.285 46.0412C446.139 45.7694 445.935 45.5556 445.673 45.3999C445.415 45.2441 445.113 45.1662 444.768 45.1662C444.4 45.1662 444.077 45.2557 443.799 45.4347C443.52 45.6103 443.303 45.8423 443.148 46.1307C442.995 46.4157 442.917 46.7289 442.914 47.0703V48.1293C442.914 48.5734 442.995 48.9545 443.158 49.2727C443.32 49.5876 443.547 49.8295 443.839 49.9986C444.13 50.1643 444.472 50.2472 444.863 50.2472C445.125 50.2472 445.362 50.2107 445.574 50.1378C445.786 50.0616 445.97 49.9505 446.126 49.8047C446.281 49.6589 446.399 49.4782 446.479 49.2628L448.159 49.4517C448.053 49.8958 447.851 50.2836 447.552 50.6151C447.257 50.9432 446.88 51.1984 446.419 51.3807C445.958 51.5597 445.431 51.6491 444.838 51.6491ZM451.346 47.0256V51.5H449.546V43.8636H451.266V45.1612H451.356C451.531 44.7337 451.811 44.3939 452.196 44.142C452.584 43.8902 453.063 43.7642 453.633 43.7642C454.16 43.7642 454.619 43.8769 455.01 44.1023C455.404 44.3277 455.709 44.6541 455.925 45.0817C456.143 45.5092 456.251 46.0279 456.248 46.6378V51.5H454.448V46.9162C454.448 46.4058 454.315 46.0064 454.05 45.718C453.788 45.4297 453.426 45.2855 452.962 45.2855C452.647 45.2855 452.367 45.3551 452.121 45.4943C451.879 45.6302 451.689 45.8274 451.55 46.0859C451.414 46.3445 451.346 46.6577 451.346 47.0256ZM463.903 45.8821L462.262 46.0611C462.216 45.8954 462.135 45.7396 462.019 45.5938C461.906 45.4479 461.753 45.3303 461.561 45.2408C461.369 45.1513 461.134 45.1065 460.855 45.1065C460.481 45.1065 460.166 45.1877 459.911 45.3501C459.659 45.5125 459.534 45.723 459.538 45.9815C459.534 46.2036 459.616 46.3842 459.781 46.5234C459.95 46.6626 460.229 46.777 460.617 46.8665L461.919 47.1449C462.642 47.3007 463.179 47.5476 463.53 47.8857C463.885 48.2237 464.064 48.6662 464.067 49.2131C464.064 49.6937 463.923 50.1179 463.644 50.4858C463.369 50.8504 462.986 51.1354 462.496 51.3409C462.005 51.5464 461.442 51.6491 460.806 51.6491C459.871 51.6491 459.118 51.4536 458.548 51.0625C457.978 50.6681 457.639 50.1196 457.529 49.4169L459.284 49.2479C459.364 49.5926 459.533 49.8527 459.791 50.0284C460.05 50.2041 460.386 50.2919 460.801 50.2919C461.228 50.2919 461.571 50.2041 461.83 50.0284C462.091 49.8527 462.222 49.6357 462.222 49.3771C462.222 49.1584 462.138 48.9777 461.969 48.8352C461.803 48.6927 461.545 48.5833 461.193 48.5071L459.891 48.2337C459.158 48.0812 458.616 47.8243 458.265 47.4631C457.914 47.0985 457.74 46.6378 457.743 46.081C457.74 45.6103 457.867 45.2027 458.126 44.858C458.388 44.5099 458.751 44.2415 459.215 44.0526C459.682 43.8603 460.221 43.7642 460.83 43.7642C461.725 43.7642 462.43 43.9548 462.943 44.3359C463.46 44.7171 463.78 45.2325 463.903 45.8821ZM468.722 51.6491C467.956 51.6491 467.295 51.4901 466.738 51.1719C466.184 50.8504 465.759 50.3963 465.46 49.8097C465.162 49.2197 465.013 48.5253 465.013 47.7266C465.013 46.9411 465.162 46.2517 465.46 45.6584C465.762 45.0618 466.183 44.5978 466.723 44.2663C467.263 43.9316 467.898 43.7642 468.627 43.7642C469.098 43.7642 469.542 43.8404 469.959 43.9929C470.38 44.142 470.752 44.3741 471.073 44.6889C471.398 45.0038 471.653 45.4048 471.839 45.892C472.024 46.3759 472.117 46.9527 472.117 47.6222V48.174H465.858V46.9609H470.392C470.389 46.6162 470.314 46.3097 470.168 46.0412C470.022 45.7694 469.819 45.5556 469.557 45.3999C469.298 45.2441 468.997 45.1662 468.652 45.1662C468.284 45.1662 467.961 45.2557 467.683 45.4347C467.404 45.6103 467.187 45.8423 467.031 46.1307C466.879 46.4157 466.801 46.7289 466.798 47.0703V48.1293C466.798 48.5734 466.879 48.9545 467.041 49.2727C467.204 49.5876 467.431 49.8295 467.722 49.9986C468.014 50.1643 468.355 50.2472 468.746 50.2472C469.008 50.2472 469.245 50.2107 469.457 50.1378C469.669 50.0616 469.853 49.9505 470.009 49.8047C470.165 49.6589 470.283 49.4782 470.362 49.2628L472.043 49.4517C471.937 49.8958 471.734 50.2836 471.436 50.6151C471.141 50.9432 470.763 51.1984 470.303 51.3807C469.842 51.5597 469.315 51.6491 468.722 51.6491Z" fill="#F1EFEF"/>
</svg>
