<svg width="508" height="60" viewBox="0 0 508 60" fill="none" xmlns="http://www.w3.org/2000/svg">
<rect width="82" height="28" rx="6" fill="#259E51"/>
<rect x="6" y="5" width="18" height="18" rx="3.5" fill="#F1EFEF"/>
<path opacity="0.4" d="M9.0625 14C9.0625 11.201 9.0625 9.80156 9.93202 8.93202C10.8016 8.0625 12.201 8.0625 15 8.0625C17.7989 8.0625 19.1984 8.0625 20.068 8.93202C20.9375 9.80156 20.9375 11.201 20.9375 14C20.9375 16.7989 20.9375 18.1984 20.068 19.068C19.1984 19.9375 17.7989 19.9375 15 19.9375C12.201 19.9375 10.8016 19.9375 9.93202 19.068C9.0625 18.1984 9.0625 16.7989 9.0625 14Z" fill="#259E51"/>
<path d="M17.5 12.75L18.2666 13.4108C18.5889 13.6885 18.75 13.8274 18.75 14C18.75 14.1726 18.5889 14.3115 18.2666 14.5892L17.5 15.25" stroke="#259E51" stroke-width="1.25" stroke-linecap="round" stroke-linejoin="round"/>
<path d="M12.5 12.75L11.7334 13.4108C11.4111 13.6885 11.25 13.8274 11.25 14C11.25 14.1726 11.4111 14.3115 11.7334 14.5892L12.5 15.25" stroke="#259E51" stroke-width="1.25" stroke-linecap="round" stroke-linejoin="round"/>
<path d="M15.625 12.125L14.375 15.875" stroke="#259E51" stroke-width="1.25" stroke-linecap="round" stroke-linejoin="round"/>
<path d="M9.0625 14C9.0625 11.201 9.0625 9.80156 9.93202 8.93202C10.8016 8.0625 12.201 8.0625 15 8.0625C17.7989 8.0625 19.1984 8.0625 20.068 8.93202C20.9375 9.80156 20.9375 11.201 20.9375 14C20.9375 16.7989 20.9375 18.1984 20.068 19.068C19.1984 19.9375 17.7989 19.9375 15 19.9375C12.201 19.9375 10.8016 19.9375 9.93202 19.068C9.0625 18.1984 9.0625 16.7989 9.0625 14Z" stroke="#259E51" stroke-width="1.25"/>
<path d="M34.5856 12.1172C34.5392 11.683 34.3437 11.3449 33.999 11.103C33.6576 10.861 33.2135 10.7401 32.6666 10.7401C32.2821 10.7401 31.9523 10.7981 31.6772 10.9141C31.4021 11.0301 31.1917 11.1875 31.0458 11.3864C30.9 11.5852 30.8254 11.8123 30.8221 12.0675C30.8221 12.2796 30.8702 12.4635 30.9663 12.6193C31.0657 12.7751 31.2 12.9077 31.369 13.017C31.538 13.1231 31.7253 13.2126 31.9308 13.2855C32.1363 13.3584 32.3434 13.4197 32.5522 13.4695L33.5068 13.7081C33.8912 13.7976 34.2608 13.9186 34.6154 14.071C34.9734 14.2235 35.2932 14.4157 35.575 14.6477C35.86 14.8797 36.0854 15.1598 36.2511 15.4879C36.4168 15.8161 36.4997 16.2005 36.4997 16.6413C36.4997 17.2379 36.3472 17.7633 36.0423 18.2173C35.7374 18.6681 35.2965 19.0211 34.7198 19.2763C34.1465 19.5282 33.4521 19.6541 32.6367 19.6541C31.8446 19.6541 31.1569 19.5315 30.5735 19.2862C29.9935 19.041 29.5394 18.683 29.2113 18.2124C28.8865 17.7417 28.7108 17.1683 28.6843 16.4922H30.499C30.5255 16.8468 30.6349 17.1418 30.8271 17.3771C31.0193 17.6125 31.2696 17.7881 31.5778 17.9041C31.8894 18.0201 32.2374 18.0781 32.6218 18.0781C33.0229 18.0781 33.3742 18.0185 33.6758 17.8991C33.9807 17.7765 34.2194 17.6075 34.3917 17.392C34.5641 17.1733 34.6519 16.9181 34.6552 16.6264C34.6519 16.3613 34.574 16.1425 34.4215 15.9702C34.2691 15.7945 34.0553 15.6487 33.7802 15.5327C33.5084 15.4134 33.1903 15.3073 32.8257 15.2145L31.6673 14.9162C30.8287 14.7008 30.1659 14.3743 29.6786 13.9368C29.1947 13.496 28.9528 12.911 28.9528 12.1818C28.9528 11.5819 29.1152 11.0566 29.44 10.6058C29.7681 10.1551 30.2139 9.8054 30.7774 9.55682C31.3408 9.30492 31.9788 9.17898 32.6914 9.17898C33.414 9.17898 34.047 9.30492 34.5906 9.55682C35.1375 9.8054 35.5667 10.1518 35.8782 10.5959C36.1898 11.0367 36.3505 11.5438 36.3605 12.1172H34.5856ZM39.4305 19.5L37.2728 11.8636H39.1073L40.4497 17.233H40.5193L41.8914 11.8636H43.706L45.0782 17.2031H45.1528L46.4752 11.8636H48.3147L46.1521 19.5H44.2778L42.846 14.3395H42.7416L41.3097 19.5H39.4305ZM49.3613 19.5V11.8636H51.161V19.5H49.3613ZM50.2661 10.7798C49.9811 10.7798 49.7358 10.6854 49.5303 10.4964C49.3248 10.3042 49.2221 10.0739 49.2221 9.8054C49.2221 9.53362 49.3248 9.30327 49.5303 9.11435C49.7358 8.92211 49.9811 8.82599 50.2661 8.82599C50.5545 8.82599 50.7997 8.92211 51.0019 9.11435C51.2074 9.30327 51.3101 9.53362 51.3101 9.8054C51.3101 10.0739 51.2074 10.3042 51.0019 10.4964C50.7997 10.6854 50.5545 10.7798 50.2661 10.7798ZM56.6696 11.8636V13.2557H52.1554V11.8636H56.6696ZM53.2839 19.5V11.1428C53.2839 10.629 53.39 10.2015 53.6021 9.86008C53.8175 9.5187 54.1059 9.26349 54.4672 9.09446C54.8284 8.92543 55.2295 8.84091 55.6703 8.84091C55.9818 8.84091 56.2586 8.86577 56.5005 8.91548C56.7425 8.9652 56.9215 9.00994 57.0375 9.04972L56.6795 10.4418C56.6033 10.4186 56.5072 10.3954 56.3912 10.3722C56.2752 10.3456 56.1459 10.3324 56.0034 10.3324C55.6686 10.3324 55.4316 10.4136 55.2924 10.576C55.1565 10.7351 55.0886 10.9638 55.0886 11.2621V19.5H53.2839ZM61.6822 11.8636V13.2557H57.2923V11.8636H61.6822ZM58.3761 10.0341H60.1758V17.2031C60.1758 17.4451 60.2123 17.6307 60.2852 17.7599C60.3614 17.8859 60.4609 17.9721 60.5835 18.0185C60.7061 18.0649 60.842 18.0881 60.9912 18.0881C61.1039 18.0881 61.2066 18.0798 61.2994 18.0632C61.3955 18.0466 61.4684 18.0317 61.5182 18.0185L61.8214 19.4254C61.7253 19.4586 61.5878 19.495 61.4088 19.5348C61.2331 19.5746 61.0177 19.5978 60.7625 19.6044C60.3117 19.6177 59.9057 19.5497 59.5444 19.4006C59.1832 19.2481 58.8965 19.0128 58.6844 18.6946C58.4755 18.3764 58.3728 17.9787 58.3761 17.5014V10.0341ZM69.4752 9.31818H71.3197V15.9702C71.3197 16.6993 71.1474 17.3407 70.8027 17.8942C70.4613 18.4477 69.9807 18.8802 69.3609 19.1918C68.7411 19.5 68.0169 19.6541 67.1883 19.6541C66.3564 19.6541 65.6305 19.5 65.0108 19.1918C64.391 18.8802 63.9104 18.4477 63.569 17.8942C63.2276 17.3407 63.0569 16.6993 63.0569 15.9702V9.31818H64.9014V15.8161C64.9014 16.2403 64.9942 16.6181 65.1798 16.9496C65.3687 17.281 65.6339 17.5412 65.9752 17.7301C66.3166 17.9157 66.721 18.0085 67.1883 18.0085C67.6556 18.0085 68.06 17.9157 68.4014 17.7301C68.7461 17.5412 69.0112 17.281 69.1968 16.9496C69.3824 16.6181 69.4752 16.2403 69.4752 15.8161V9.31818ZM74.959 9.31818V19.5H73.1145V9.31818H74.959Z" fill="#F1EFEF"/>
<rect x="86" width="80" height="28" rx="6" fill="#3C46C9"/>
<rect x="92" y="5" width="18" height="18" rx="3.5" fill="#F1EFEF"/>
<path opacity="0.4" d="M97.2657 8.39064C96.625 9.03135 96.625 10.0625 96.625 12.1249V15.8749C96.625 17.9373 96.625 18.9685 97.2657 19.6092C97.9064 20.2499 98.9376 20.2499 101 20.2499C103.062 20.2499 104.094 20.2499 104.734 19.6092C105.375 18.9685 105.375 17.9373 105.375 15.8749V12.1249C105.375 10.0625 105.375 9.03135 104.734 8.39064C104.326 7.98266 103.76 7.83446 102.87 7.78064L102.819 8.0837C102.699 8.807 102.639 9.16865 102.391 9.38871C102.132 9.61828 101.765 9.62494 101 9.62494C100.235 9.62494 99.8683 9.61828 99.6095 9.38871C99.3615 9.16865 99.3012 8.807 99.1806 8.0837L99.1301 7.78064C98.24 7.83446 97.6737 7.98266 97.2657 8.39064Z" fill="#3C46C9"/>
<path d="M96.625 12.125C96.625 10.0626 96.625 9.03141 97.2657 8.39071C97.9064 7.75 98.9376 7.75 101 7.75C103.062 7.75 104.094 7.75 104.734 8.39071C105.375 9.03141 105.375 10.0626 105.375 12.125V15.875C105.375 17.9374 105.375 18.9686 104.734 19.6093C104.094 20.25 103.062 20.25 101 20.25C98.9376 20.25 97.9064 20.25 97.2657 19.6093C96.625 18.9686 96.625 17.9374 96.625 15.875V12.125Z" stroke="#3C46C9" stroke-width="1.25" stroke-linecap="round"/>
<path d="M100.375 18.375H101.625" stroke="#3C46C9" stroke-width="1.25" stroke-linecap="round" stroke-linejoin="round"/>
<path d="M99.125 7.75L99.1806 8.08376C99.3012 8.80706 99.3615 9.16871 99.6095 9.38877C99.8683 9.61834 100.235 9.625 101 9.625C101.765 9.625 102.132 9.61834 102.391 9.38877C102.639 9.16871 102.699 8.80706 102.819 8.08376L102.875 7.75" stroke="#3C46C9" stroke-width="1.25" stroke-linejoin="round"/>
<path d="M115.343 19.5V11.8636H117.142V19.5H115.343ZM116.248 10.7798C115.963 10.7798 115.717 10.6854 115.512 10.4964C115.306 10.3042 115.204 10.0739 115.204 9.8054C115.204 9.53362 115.306 9.30327 115.512 9.11435C115.717 8.92211 115.963 8.82599 116.248 8.82599C116.536 8.82599 116.781 8.92211 116.983 9.11435C117.189 9.30327 117.292 9.53362 117.292 9.8054C117.292 10.0739 117.189 10.3042 116.983 10.4964C116.781 10.6854 116.536 10.7798 116.248 10.7798ZM127.961 14.4091C127.961 15.5062 127.755 16.4458 127.344 17.228C126.937 18.0069 126.38 18.6035 125.674 19.0178C124.971 19.4321 124.174 19.6392 123.282 19.6392C122.391 19.6392 121.592 19.4321 120.886 19.0178C120.183 18.6001 119.627 18.0019 119.216 17.223C118.808 16.4408 118.604 15.5028 118.604 14.4091C118.604 13.312 118.808 12.3741 119.216 11.5952C119.627 10.813 120.183 10.2147 120.886 9.80043C121.592 9.38613 122.391 9.17898 123.282 9.17898C124.174 9.17898 124.971 9.38613 125.674 9.80043C126.38 10.2147 126.937 10.813 127.344 11.5952C127.755 12.3741 127.961 13.312 127.961 14.4091ZM126.106 14.4091C126.106 13.6368 125.985 12.9856 125.743 12.4553C125.505 11.9216 125.173 11.5189 124.749 11.2472C124.325 10.9721 123.836 10.8345 123.282 10.8345C122.729 10.8345 122.24 10.9721 121.816 11.2472C121.392 11.5189 121.058 11.9216 120.816 12.4553C120.578 12.9856 120.459 13.6368 120.459 14.4091C120.459 15.1813 120.578 15.8343 120.816 16.3679C121.058 16.8982 121.392 17.3009 121.816 17.576C122.24 17.8478 122.729 17.9837 123.282 17.9837C123.836 17.9837 124.325 17.8478 124.749 17.576C125.173 17.3009 125.505 16.8982 125.743 16.3679C125.985 15.8343 126.106 15.1813 126.106 14.4091ZM135.028 12.1172C134.981 11.683 134.786 11.3449 134.441 11.103C134.1 10.861 133.656 10.7401 133.109 10.7401C132.724 10.7401 132.395 10.7981 132.119 10.9141C131.844 11.0301 131.634 11.1875 131.488 11.3864C131.342 11.5852 131.268 11.8123 131.264 12.0675C131.264 12.2796 131.312 12.4635 131.409 12.6193C131.508 12.7751 131.642 12.9077 131.811 13.017C131.98 13.1231 132.168 13.2126 132.373 13.2855C132.579 13.3584 132.786 13.4197 132.994 13.4695L133.949 13.7081C134.333 13.7976 134.703 13.9186 135.058 14.071C135.416 14.2235 135.735 14.4157 136.017 14.6477C136.302 14.8797 136.528 15.1598 136.693 15.4879C136.859 15.8161 136.942 16.2005 136.942 16.6413C136.942 17.2379 136.789 17.7633 136.485 18.2173C136.18 18.6681 135.739 19.0211 135.162 19.2763C134.589 19.5282 133.894 19.6541 133.079 19.6541C132.287 19.6541 131.599 19.5315 131.016 19.2862C130.436 19.041 129.982 18.683 129.654 18.2124C129.329 17.7417 129.153 17.1683 129.127 16.4922H130.941C130.968 16.8468 131.077 17.1418 131.269 17.3771C131.462 17.6125 131.712 17.7881 132.02 17.9041C132.332 18.0201 132.68 18.0781 133.064 18.0781C133.465 18.0781 133.816 18.0185 134.118 17.8991C134.423 17.7765 134.662 17.6075 134.834 17.392C135.006 17.1733 135.094 16.9181 135.097 16.6264C135.094 16.3613 135.016 16.1425 134.864 15.9702C134.711 15.7945 134.498 15.6487 134.222 15.5327C133.951 15.4134 133.632 15.3073 133.268 15.2145L132.11 14.9162C131.271 14.7008 130.608 14.3743 130.121 13.9368C129.637 13.496 129.395 12.911 129.395 12.1818C129.395 11.5819 129.557 11.0566 129.882 10.6058C130.21 10.1551 130.656 9.8054 131.22 9.55682C131.783 9.30492 132.421 9.17898 133.134 9.17898C133.856 9.17898 134.489 9.30492 135.033 9.55682C135.58 9.8054 136.009 10.1518 136.32 10.5959C136.632 11.0367 136.793 11.5438 136.803 12.1172H135.028Z" fill="#F1EFEF"/>
<path d="M144.122 10.5V18.5H143.153V11.5156H143.106L141.153 12.8125V11.8281L143.153 10.5H144.122ZM148.96 18.6094C148.445 18.6094 147.985 18.5208 147.582 18.3437C147.181 18.1667 146.861 17.9206 146.625 17.6055C146.39 17.2878 146.263 16.9193 146.242 16.5H147.226C147.247 16.7578 147.335 16.9805 147.492 17.168C147.648 17.3529 147.852 17.4961 148.105 17.5977C148.358 17.6992 148.638 17.75 148.945 17.75C149.289 17.75 149.593 17.6901 149.859 17.5703C150.125 17.4505 150.333 17.2839 150.484 17.0703C150.635 16.8568 150.71 16.6094 150.71 16.3281C150.71 16.0339 150.638 15.7747 150.492 15.5508C150.346 15.3242 150.132 15.1471 149.851 15.0195C149.57 14.8919 149.226 14.8281 148.82 14.8281H148.179V13.9687H148.82C149.138 13.9687 149.416 13.9115 149.656 13.7969C149.898 13.6823 150.087 13.5208 150.222 13.3125C150.36 13.1042 150.429 12.8594 150.429 12.5781C150.429 12.3073 150.369 12.0716 150.25 11.8711C150.13 11.6706 149.96 11.5143 149.742 11.4023C149.526 11.2904 149.27 11.2344 148.976 11.2344C148.7 11.2344 148.44 11.2852 148.195 11.3867C147.953 11.4857 147.755 11.6302 147.601 11.8203C147.447 12.0078 147.364 12.2344 147.351 12.5H146.414C146.429 12.0807 146.556 11.7135 146.792 11.3984C147.029 11.0807 147.339 10.8333 147.722 10.6562C148.108 10.4792 148.531 10.3906 148.992 10.3906C149.486 10.3906 149.911 10.4909 150.265 10.6914C150.619 10.8893 150.891 11.151 151.082 11.4766C151.272 11.8021 151.367 12.1536 151.367 12.5313C151.367 12.9818 151.248 13.3659 151.011 13.6836C150.777 14.0013 150.458 14.2214 150.054 14.3438V14.4062C150.559 14.4896 150.954 14.7044 151.238 15.0508C151.522 15.3945 151.664 15.8203 151.664 16.3281C151.664 16.763 151.545 17.1536 151.308 17.5C151.074 17.8437 150.753 18.1146 150.347 18.3125C149.941 18.5104 149.479 18.6094 148.96 18.6094ZM155.456 17.0938V11.9375H156.331V17.0938H155.456ZM153.315 14.9531V14.0781H158.471V14.9531H153.315Z" fill="#C6C6C8"/>
<rect x="170" width="105" height="28" rx="6" fill="#3C46C9"/>
<rect x="176" y="5" width="18" height="18" rx="3.5" fill="#F1EFEF"/>
<path opacity="0.4" d="M186.562 7.75H183.438C181.67 7.75 180.786 7.75 180.237 8.29918C179.688 8.84835 179.688 9.73223 179.688 11.5V16.5C179.688 18.2677 179.688 19.1516 180.237 19.7008C180.786 20.25 181.67 20.25 183.438 20.25H186.562C188.33 20.25 189.214 20.25 189.763 19.7008C190.312 19.1516 190.312 18.2677 190.312 16.5V11.5C190.312 9.73223 190.312 8.84835 189.763 8.29918C189.214 7.75 188.33 7.75 186.562 7.75Z" fill="#3C46C9"/>
<path d="M186.562 7.75H183.438C181.67 7.75 180.786 7.75 180.237 8.29917C179.688 8.84835 179.688 9.73223 179.688 11.5V16.5C179.688 18.2677 179.688 19.1516 180.237 19.7008C180.786 20.25 181.67 20.25 183.438 20.25H186.562C188.33 20.25 189.214 20.25 189.763 19.7008C190.312 19.1516 190.312 18.2677 190.312 16.5V11.5C190.312 9.73223 190.312 8.84835 189.763 8.29917C189.214 7.75 188.33 7.75 186.562 7.75Z" stroke="#3C46C9" stroke-width="1.25" stroke-linecap="round"/>
<path d="M185 18.375H185.006" stroke="#3C46C9" stroke-width="1.25" stroke-linecap="round"/>
<path d="M199.292 19.5V11.8636H201.092V19.5H199.292ZM200.197 10.7798C199.912 10.7798 199.667 10.6854 199.462 10.4964C199.256 10.3042 199.153 10.0739 199.153 9.8054C199.153 9.53362 199.256 9.30327 199.462 9.11435C199.667 8.92211 199.912 8.82599 200.197 8.82599C200.486 8.82599 200.731 8.92211 200.933 9.11435C201.139 9.30327 201.241 9.53362 201.241 9.8054C201.241 10.0739 201.139 10.3042 200.933 10.4964C200.731 10.6854 200.486 10.7798 200.197 10.7798ZM202.812 19.5V9.31818H206.631C207.413 9.31818 208.069 9.46401 208.599 9.75568C209.133 10.0473 209.536 10.4484 209.807 10.9588C210.083 11.4659 210.22 12.0426 210.22 12.6889C210.22 13.3419 210.083 13.9219 209.807 14.429C209.532 14.9361 209.126 15.3355 208.589 15.6271C208.052 15.9155 207.391 16.0597 206.606 16.0597H204.075V14.5433H206.357C206.815 14.5433 207.189 14.4638 207.481 14.3047C207.772 14.1456 207.988 13.9268 208.127 13.6484C208.27 13.37 208.341 13.0502 208.341 12.6889C208.341 12.3277 208.27 12.0095 208.127 11.7344C207.988 11.4593 207.771 11.2455 207.476 11.093C207.184 10.9373 206.808 10.8594 206.347 10.8594H204.657V19.5H202.812ZM213.593 19.6541C213.109 19.6541 212.674 19.5679 212.286 19.3956C211.901 19.2199 211.596 18.9614 211.371 18.62C211.149 18.2786 211.038 17.8577 211.038 17.3572C211.038 16.9264 211.118 16.5701 211.277 16.2884C211.436 16.0066 211.653 15.7812 211.928 15.6122C212.203 15.4432 212.513 15.3156 212.858 15.2294C213.206 15.1399 213.565 15.0753 213.936 15.0355C214.384 14.9891 214.747 14.9477 215.025 14.9112C215.304 14.8714 215.506 14.8118 215.632 14.7322C215.761 14.6494 215.826 14.5218 215.826 14.3494V14.3196C215.826 13.9451 215.715 13.6551 215.493 13.4496C215.27 13.2441 214.951 13.1413 214.533 13.1413C214.092 13.1413 213.743 13.2375 213.484 13.4297C213.229 13.6219 213.056 13.849 212.967 14.1108L211.287 13.8722C211.419 13.4081 211.638 13.0204 211.943 12.7088C212.248 12.3939 212.621 12.1586 213.061 12.0028C213.502 11.8438 213.989 11.7642 214.523 11.7642C214.891 11.7642 215.257 11.8073 215.622 11.8935C215.986 11.9796 216.319 12.1222 216.621 12.321C216.923 12.5166 217.165 12.7834 217.347 13.1214C217.533 13.4595 217.625 13.8821 217.625 14.3892V19.5H215.895V18.451H215.836C215.726 18.6631 215.572 18.862 215.373 19.0476C215.178 19.2299 214.931 19.3774 214.632 19.4901C214.337 19.5994 213.991 19.6541 213.593 19.6541ZM214.061 18.3317C214.422 18.3317 214.735 18.2604 215 18.1179C215.265 17.9721 215.469 17.7798 215.612 17.5412C215.758 17.3026 215.831 17.0424 215.831 16.7607V15.8608C215.774 15.9072 215.678 15.9503 215.542 15.9901C215.41 16.0298 215.261 16.0646 215.095 16.0945C214.929 16.1243 214.765 16.1508 214.603 16.174C214.44 16.1972 214.299 16.2171 214.18 16.2337C213.912 16.2701 213.671 16.3298 213.459 16.4126C213.247 16.4955 213.08 16.6115 212.957 16.7607C212.834 16.9065 212.773 17.0954 212.773 17.3274C212.773 17.6589 212.894 17.9091 213.136 18.0781C213.378 18.2472 213.686 18.3317 214.061 18.3317ZM222.059 19.6342C221.459 19.6342 220.922 19.4801 220.448 19.1719C219.974 18.8636 219.6 18.4162 219.324 17.8295C219.049 17.2429 218.912 16.5303 218.912 15.6918C218.912 14.8433 219.051 14.1274 219.329 13.544C219.611 12.9574 219.991 12.5149 220.468 12.2166C220.945 11.915 221.477 11.7642 222.064 11.7642C222.511 11.7642 222.879 11.8404 223.167 11.9929C223.456 12.142 223.685 12.3227 223.854 12.5348C224.023 12.7436 224.153 12.9408 224.246 13.1264H224.321V9.31818H226.126V19.5H224.356V18.2969H224.246C224.153 18.4825 224.019 18.6797 223.844 18.8885C223.668 19.094 223.436 19.2696 223.148 19.4155C222.859 19.5613 222.496 19.6342 222.059 19.6342ZM222.561 18.1577C222.942 18.1577 223.267 18.0549 223.535 17.8494C223.804 17.6406 224.008 17.3506 224.147 16.9794C224.286 16.6082 224.356 16.1757 224.356 15.6818C224.356 15.188 224.286 14.7588 224.147 14.3942C224.011 14.0296 223.809 13.7462 223.54 13.544C223.275 13.3419 222.949 13.2408 222.561 13.2408C222.16 13.2408 221.825 13.3452 221.557 13.554C221.288 13.7628 221.086 14.0511 220.95 14.419C220.814 14.7869 220.746 15.2079 220.746 15.6818C220.746 16.1591 220.814 16.585 220.95 16.9595C221.089 17.3307 221.293 17.6241 221.562 17.8395C221.833 18.0516 222.167 18.1577 222.561 18.1577ZM237.011 14.4091C237.011 15.5062 236.805 16.4458 236.394 17.228C235.987 18.0069 235.43 18.6035 234.724 19.0178C234.021 19.4321 233.224 19.6392 232.333 19.6392C231.441 19.6392 230.642 19.4321 229.936 19.0178C229.234 18.6001 228.677 18.0019 228.266 17.223C227.858 16.4408 227.654 15.5028 227.654 14.4091C227.654 13.312 227.858 12.3741 228.266 11.5952C228.677 10.813 229.234 10.2147 229.936 9.80043C230.642 9.38613 231.441 9.17898 232.333 9.17898C233.224 9.17898 234.021 9.38613 234.724 9.80043C235.43 10.2147 235.987 10.813 236.394 11.5952C236.805 12.3741 237.011 13.312 237.011 14.4091ZM235.157 14.4091C235.157 13.6368 235.036 12.9856 234.794 12.4553C234.555 11.9216 234.223 11.5189 233.799 11.2472C233.375 10.9721 232.886 10.8345 232.333 10.8345C231.779 10.8345 231.29 10.9721 230.866 11.2472C230.442 11.5189 230.109 11.9216 229.867 12.4553C229.628 12.9856 229.509 13.6368 229.509 14.4091C229.509 15.1813 229.628 15.8343 229.867 16.3679C230.109 16.8982 230.442 17.3009 230.866 17.576C231.29 17.8478 231.779 17.9837 232.333 17.9837C232.886 17.9837 233.375 17.8478 233.799 17.576C234.223 17.3009 234.555 16.8982 234.794 16.3679C235.036 15.8343 235.157 15.1813 235.157 14.4091ZM244.078 12.1172C244.032 11.683 243.836 11.3449 243.491 11.103C243.15 10.861 242.706 10.7401 242.159 10.7401C241.775 10.7401 241.445 10.7981 241.17 10.9141C240.895 11.0301 240.684 11.1875 240.538 11.3864C240.392 11.5852 240.318 11.8123 240.315 12.0675C240.315 12.2796 240.363 12.4635 240.459 12.6193C240.558 12.7751 240.692 12.9077 240.861 13.017C241.03 13.1231 241.218 13.2126 241.423 13.2855C241.629 13.3584 241.836 13.4197 242.045 13.4695L242.999 13.7081C243.384 13.7976 243.753 13.9186 244.108 14.071C244.466 14.2235 244.786 14.4157 245.067 14.6477C245.352 14.8797 245.578 15.1598 245.744 15.4879C245.909 15.8161 245.992 16.2005 245.992 16.6413C245.992 17.2379 245.84 17.7633 245.535 18.2173C245.23 18.6681 244.789 19.0211 244.212 19.2763C243.639 19.5282 242.945 19.6541 242.129 19.6541C241.337 19.6541 240.649 19.5315 240.066 19.2862C239.486 19.041 239.032 18.683 238.704 18.2124C238.379 17.7417 238.203 17.1683 238.177 16.4922H239.991C240.018 16.8468 240.127 17.1418 240.32 17.3771C240.512 17.6125 240.762 17.7881 241.07 17.9041C241.382 18.0201 241.73 18.0781 242.114 18.0781C242.515 18.0781 242.867 18.0185 243.168 17.8991C243.473 17.7765 243.712 17.6075 243.884 17.392C244.057 17.1733 244.144 16.9181 244.148 16.6264C244.144 16.3613 244.066 16.1425 243.914 15.9702C243.762 15.7945 243.548 15.6487 243.273 15.5327C243.001 15.4134 242.683 15.3073 242.318 15.2145L241.16 14.9162C240.321 14.7008 239.658 14.3743 239.171 13.9368C238.687 13.496 238.445 12.911 238.445 12.1818C238.445 11.5819 238.608 11.0566 238.932 10.6058C239.261 10.1551 239.706 9.8054 240.27 9.55682C240.833 9.30492 241.471 9.17898 242.184 9.17898C242.906 9.17898 243.539 9.30492 244.083 9.55682C244.63 9.8054 245.059 10.1518 245.371 10.5959C245.682 11.0367 245.843 11.5438 245.853 12.1172H244.078Z" fill="#F1EFEF"/>
<path d="M253.122 10.5V18.5H252.153V11.5156H252.106L250.153 12.8125V11.8281L252.153 10.5H253.122ZM257.96 18.6094C257.445 18.6094 256.985 18.5208 256.582 18.3437C256.181 18.1667 255.861 17.9206 255.625 17.6055C255.39 17.2878 255.263 16.9193 255.242 16.5H256.226C256.247 16.7578 256.335 16.9805 256.492 17.168C256.648 17.3529 256.852 17.4961 257.105 17.5977C257.358 17.6992 257.638 17.75 257.945 17.75C258.289 17.75 258.593 17.6901 258.859 17.5703C259.125 17.4505 259.333 17.2839 259.484 17.0703C259.635 16.8568 259.71 16.6094 259.71 16.3281C259.71 16.0339 259.638 15.7747 259.492 15.5508C259.346 15.3242 259.132 15.1471 258.851 15.0195C258.57 14.8919 258.226 14.8281 257.82 14.8281H257.179V13.9687H257.82C258.138 13.9687 258.416 13.9115 258.656 13.7969C258.898 13.6823 259.087 13.5208 259.222 13.3125C259.36 13.1042 259.429 12.8594 259.429 12.5781C259.429 12.3073 259.369 12.0716 259.25 11.8711C259.13 11.6706 258.96 11.5143 258.742 11.4023C258.526 11.2904 258.27 11.2344 257.976 11.2344C257.7 11.2344 257.44 11.2852 257.195 11.3867C256.953 11.4857 256.755 11.6302 256.601 11.8203C256.447 12.0078 256.364 12.2344 256.351 12.5H255.414C255.429 12.0807 255.556 11.7135 255.792 11.3984C256.029 11.0807 256.339 10.8333 256.722 10.6562C257.108 10.4792 257.531 10.3906 257.992 10.3906C258.486 10.3906 258.911 10.4909 259.265 10.6914C259.619 10.8893 259.891 11.151 260.082 11.4766C260.272 11.8021 260.367 12.1536 260.367 12.5313C260.367 12.9818 260.248 13.3659 260.011 13.6836C259.777 14.0013 259.458 14.2214 259.054 14.3438V14.4062C259.559 14.4896 259.954 14.7044 260.238 15.0508C260.522 15.3945 260.664 15.8203 260.664 16.3281C260.664 16.763 260.545 17.1536 260.308 17.5C260.074 17.8437 259.753 18.1146 259.347 18.3125C258.941 18.5104 258.479 18.6094 257.96 18.6094ZM264.456 17.0938V11.9375H265.331V17.0938H264.456ZM262.315 14.9531V14.0781H267.471V14.9531H262.315Z" fill="#C6C6C8"/>
<rect x="279" width="117" height="28" rx="6" fill="#3C46C9"/>
<rect x="285" y="5" width="18" height="18" rx="3.5" fill="#F1EFEF"/>
<path opacity="0.4" d="M295.25 7.75H292.75C290.7 7.75 289.676 7.75 288.949 8.25864C288.681 8.44681 288.447 8.68057 288.259 8.94932C287.75 9.67572 287.75 10.7005 287.75 12.75C287.75 14.7995 287.75 15.8242 288.259 16.5507C288.447 16.8194 288.681 17.0532 288.949 17.2414C289.676 17.75 290.7 17.75 292.75 17.75H295.25C297.3 17.75 298.324 17.75 299.051 17.2414C299.319 17.0532 299.553 16.8194 299.741 16.5507C300.25 15.8242 300.25 14.7995 300.25 12.75C300.25 10.7005 300.25 9.67572 299.741 8.94932C299.553 8.68057 299.319 8.44681 299.051 8.25864C298.324 7.75 297.3 7.75 295.25 7.75Z" fill="#3C46C9"/>
<path d="M295.25 7.75H292.75C290.7 7.75 289.676 7.75 288.949 8.25864C288.681 8.44681 288.447 8.68057 288.259 8.94932C287.75 9.67572 287.75 10.7005 287.75 12.75C287.75 14.7995 287.75 15.8242 288.259 16.5507C288.447 16.8194 288.681 17.0532 288.949 17.2414C289.676 17.75 290.7 17.75 292.75 17.75H295.25C297.3 17.75 298.324 17.75 299.051 17.2414C299.319 17.0532 299.553 16.8194 299.741 16.5507C300.25 15.8242 300.25 14.7995 300.25 12.75C300.25 10.7005 300.25 9.67572 299.741 8.94932C299.553 8.68057 299.319 8.44681 299.051 8.25864C298.324 7.75 297.3 7.75 295.25 7.75Z" stroke="#3C46C9" stroke-width="1.25" stroke-linecap="round"/>
<path d="M293.375 15.875H294.625" stroke="#3C46C9" stroke-width="1.25" stroke-linecap="round" stroke-linejoin="round"/>
<path d="M295.562 20.25L295.365 19.9882C294.921 19.3981 294.811 18.4965 295.092 17.75M292.438 20.25L292.635 19.9882C293.079 19.3981 293.189 18.4965 292.908 17.75" stroke="#3C46C9" stroke-width="1.25" stroke-linecap="round"/>
<path d="M290.875 20.25H297.125" stroke="#3C46C9" stroke-width="1.25" stroke-linecap="round"/>
<path d="M308.036 19.5V11.8636H309.756V13.1612H309.846C310.005 12.7237 310.268 12.3823 310.636 12.1371C311.004 11.8885 311.443 11.7642 311.954 11.7642C312.471 11.7642 312.907 11.8902 313.261 12.142C313.619 12.3906 313.871 12.7304 314.017 13.1612H314.096C314.266 12.737 314.551 12.3989 314.952 12.147C315.356 11.8918 315.835 11.7642 316.388 11.7642C317.091 11.7642 317.664 11.9863 318.109 12.4304C318.553 12.8745 318.775 13.5225 318.775 14.3743V19.5H316.97V14.6527C316.97 14.1787 316.844 13.8324 316.592 13.6136C316.34 13.3916 316.032 13.2805 315.668 13.2805C315.233 13.2805 314.894 13.4164 314.648 13.6882C314.406 13.9567 314.285 14.3063 314.285 14.7372V19.5H312.52V14.5781C312.52 14.1837 312.401 13.8688 312.163 13.6335C311.927 13.3982 311.619 13.2805 311.238 13.2805C310.979 13.2805 310.744 13.3468 310.532 13.4794C310.32 13.6087 310.151 13.7926 310.025 14.0312C309.899 14.2666 309.836 14.5417 309.836 14.8565V19.5H308.036ZM322.588 19.6541C322.104 19.6541 321.668 19.5679 321.28 19.3956C320.896 19.2199 320.591 18.9614 320.366 18.62C320.144 18.2786 320.033 17.8577 320.033 17.3572C320.033 16.9264 320.112 16.5701 320.271 16.2884C320.43 16.0066 320.647 15.7812 320.923 15.6122C321.198 15.4432 321.508 15.3156 321.852 15.2294C322.2 15.1399 322.56 15.0753 322.931 15.0355C323.379 14.9891 323.741 14.9477 324.02 14.9112C324.298 14.8714 324.5 14.8118 324.626 14.7322C324.756 14.6494 324.82 14.5218 324.82 14.3494V14.3196C324.82 13.9451 324.709 13.6551 324.487 13.4496C324.265 13.2441 323.945 13.1413 323.528 13.1413C323.087 13.1413 322.737 13.2375 322.479 13.4297C322.223 13.6219 322.051 13.849 321.962 14.1108L320.281 13.8722C320.414 13.4081 320.633 13.0204 320.937 12.7088C321.242 12.3939 321.615 12.1586 322.056 12.0028C322.497 11.8438 322.984 11.7642 323.518 11.7642C323.886 11.7642 324.252 11.8073 324.616 11.8935C324.981 11.9796 325.314 12.1222 325.616 12.321C325.917 12.5166 326.159 12.7834 326.342 13.1214C326.527 13.4595 326.62 13.8821 326.62 14.3892V19.5H324.89V18.451H324.83C324.721 18.6631 324.567 18.862 324.368 19.0476C324.172 19.2299 323.925 19.3774 323.627 19.4901C323.332 19.5994 322.986 19.6541 322.588 19.6541ZM323.055 18.3317C323.417 18.3317 323.73 18.2604 323.995 18.1179C324.26 17.9721 324.464 17.7798 324.606 17.5412C324.752 17.3026 324.825 17.0424 324.825 16.7607V15.8608C324.769 15.9072 324.673 15.9503 324.537 15.9901C324.404 16.0298 324.255 16.0646 324.089 16.0945C323.924 16.1243 323.76 16.1508 323.597 16.174C323.435 16.1972 323.294 16.2171 323.175 16.2337C322.906 16.2701 322.666 16.3298 322.454 16.4126C322.242 16.4955 322.074 16.6115 321.952 16.7607C321.829 16.9065 321.768 17.0954 321.768 17.3274C321.768 17.6589 321.889 17.9091 322.131 18.0781C322.373 18.2472 322.681 18.3317 323.055 18.3317ZM331.551 19.6491C330.788 19.6491 330.134 19.4818 329.587 19.147C329.043 18.8123 328.624 18.3499 328.329 17.7599C328.037 17.1667 327.892 16.4839 327.892 15.7116C327.892 14.9361 328.041 14.2517 328.339 13.6584C328.637 13.0618 329.058 12.5978 329.602 12.2663C330.149 11.9316 330.795 11.7642 331.541 11.7642C332.16 11.7642 332.709 11.8786 333.186 12.1072C333.667 12.3326 334.05 12.6525 334.335 13.0668C334.62 13.4777 334.782 13.9583 334.822 14.5085H333.102C333.032 14.1406 332.866 13.834 332.605 13.5888C332.346 13.3402 332 13.2159 331.566 13.2159C331.198 13.2159 330.874 13.3153 330.596 13.5142C330.318 13.7098 330.101 13.9915 329.945 14.3594C329.792 14.7273 329.716 15.1681 329.716 15.6818C329.716 16.2022 329.792 16.6496 329.945 17.0241C330.097 17.3954 330.311 17.6821 330.586 17.8842C330.865 18.0831 331.191 18.1825 331.566 18.1825C331.831 18.1825 332.068 18.1328 332.276 18.0334C332.489 17.9306 332.666 17.7831 332.808 17.5909C332.951 17.3987 333.049 17.165 333.102 16.8899H334.822C334.779 17.4302 334.62 17.9091 334.345 18.3267C334.07 18.741 333.695 19.0658 333.221 19.3011C332.747 19.5331 332.19 19.6491 331.551 19.6491ZM345.267 14.4091C345.267 15.5062 345.062 16.4458 344.651 17.228C344.243 18.0069 343.686 18.6035 342.98 19.0178C342.278 19.4321 341.481 19.6392 340.589 19.6392C339.697 19.6392 338.899 19.4321 338.193 19.0178C337.49 18.6001 336.933 18.0019 336.522 17.223C336.115 16.4408 335.911 15.5028 335.911 14.4091C335.911 13.312 336.115 12.3741 336.522 11.5952C336.933 10.813 337.49 10.2147 338.193 9.80043C338.899 9.38613 339.697 9.17898 340.589 9.17898C341.481 9.17898 342.278 9.38613 342.98 9.80043C343.686 10.2147 344.243 10.813 344.651 11.5952C345.062 12.3741 345.267 13.312 345.267 14.4091ZM343.413 14.4091C343.413 13.6368 343.292 12.9856 343.05 12.4553C342.811 11.9216 342.48 11.5189 342.056 11.2472C341.631 10.9721 341.143 10.8345 340.589 10.8345C340.036 10.8345 339.547 10.9721 339.122 11.2472C338.698 11.5189 338.365 11.9216 338.123 12.4553C337.884 12.9856 337.765 13.6368 337.765 14.4091C337.765 15.1813 337.884 15.8343 338.123 16.3679C338.365 16.8982 338.698 17.3009 339.122 17.576C339.547 17.8478 340.036 17.9837 340.589 17.9837C341.143 17.9837 341.631 17.8478 342.056 17.576C342.48 17.3009 342.811 16.8982 343.05 16.3679C343.292 15.8343 343.413 15.1813 343.413 14.4091ZM352.334 12.1172C352.288 11.683 352.092 11.3449 351.748 11.103C351.406 10.861 350.962 10.7401 350.415 10.7401C350.031 10.7401 349.701 10.7981 349.426 10.9141C349.151 11.0301 348.941 11.1875 348.795 11.3864C348.649 11.5852 348.574 11.8123 348.571 12.0675C348.571 12.2796 348.619 12.4635 348.715 12.6193C348.815 12.7751 348.949 12.9077 349.118 13.017C349.287 13.1231 349.474 13.2126 349.68 13.2855C349.885 13.3584 350.092 13.4197 350.301 13.4695L351.256 13.7081C351.64 13.7976 352.01 13.9186 352.364 14.071C352.722 14.2235 353.042 14.4157 353.324 14.6477C353.609 14.8797 353.834 15.1598 354 15.4879C354.166 15.8161 354.249 16.2005 354.249 16.6413C354.249 17.2379 354.096 17.7633 353.791 18.2173C353.486 18.6681 353.045 19.0211 352.469 19.2763C351.895 19.5282 351.201 19.6541 350.386 19.6541C349.593 19.6541 348.906 19.5315 348.322 19.2862C347.742 19.041 347.288 18.683 346.96 18.2124C346.635 17.7417 346.46 17.1683 346.433 16.4922H348.248C348.274 16.8468 348.384 17.1418 348.576 17.3771C348.768 17.6125 349.018 17.7881 349.327 17.9041C349.638 18.0201 349.986 18.0781 350.371 18.0781C350.772 18.0781 351.123 18.0185 351.425 17.8991C351.73 17.7765 351.968 17.6075 352.141 17.392C352.313 17.1733 352.401 16.9181 352.404 16.6264C352.401 16.3613 352.323 16.1425 352.17 15.9702C352.018 15.7945 351.804 15.6487 351.529 15.5327C351.257 15.4134 350.939 15.3073 350.574 15.2145L349.416 14.9162C348.578 14.7008 347.915 14.3743 347.427 13.9368C346.944 13.496 346.702 12.911 346.702 12.1818C346.702 11.5819 346.864 11.0566 347.189 10.6058C347.517 10.1551 347.963 9.8054 348.526 9.55682C349.09 9.30492 349.728 9.17898 350.44 9.17898C351.163 9.17898 351.796 9.30492 352.339 9.55682C352.886 9.8054 353.316 10.1518 353.627 10.5959C353.939 11.0367 354.099 11.5438 354.109 12.1172H352.334Z" fill="#F1EFEF"/>
<path d="M361.134 10.5V18.5H360.165V11.5156H360.118L358.165 12.8125V11.8281L360.165 10.5H361.134ZM365.879 18.6094C365.29 18.6094 364.789 18.4492 364.375 18.1289C363.961 17.806 363.644 17.3385 363.426 16.7266C363.207 16.112 363.098 15.3698 363.098 14.5C363.098 13.6354 363.207 12.8971 363.426 12.2852C363.647 11.6706 363.965 11.2018 364.379 10.8789C364.796 10.5534 365.296 10.3906 365.879 10.3906C366.462 10.3906 366.961 10.5534 367.375 10.8789C367.792 11.2018 368.109 11.6706 368.328 12.2852C368.549 12.8971 368.66 13.6354 368.66 14.5C368.66 15.3698 368.551 16.112 368.332 16.7266C368.113 17.3385 367.797 17.806 367.383 18.1289C366.969 18.4492 366.467 18.6094 365.879 18.6094ZM365.879 17.75C366.462 17.75 366.915 17.4687 367.238 16.9062C367.561 16.3437 367.723 15.5417 367.723 14.5C367.723 13.8073 367.648 13.2174 367.5 12.7305C367.354 12.2435 367.143 11.8724 366.867 11.6172C366.594 11.362 366.264 11.2344 365.879 11.2344C365.301 11.2344 364.849 11.5195 364.523 12.0898C364.198 12.6576 364.035 13.4609 364.035 14.5C364.035 15.1927 364.108 15.7812 364.254 16.2656C364.4 16.75 364.609 17.1185 364.883 17.3711C365.159 17.6237 365.491 17.75 365.879 17.75ZM370.388 18.5625C370.195 18.5625 370.03 18.4935 369.892 18.3555C369.754 18.2174 369.685 18.0521 369.685 17.8594C369.685 17.6667 369.754 17.5013 369.892 17.3633C370.03 17.2253 370.195 17.1562 370.388 17.1562C370.58 17.1562 370.746 17.2253 370.884 17.3633C371.022 17.5013 371.091 17.6667 371.091 17.8594C371.091 17.987 371.058 18.1042 370.993 18.2109C370.931 18.3177 370.846 18.4036 370.739 18.4687C370.635 18.5313 370.518 18.5625 370.388 18.5625ZM374.421 10.5V18.5H373.452V11.5156H373.405L371.452 12.8125V11.8281L373.452 10.5H374.421ZM379.057 18.6094C378.598 18.6094 378.186 18.5182 377.818 18.3359C377.451 18.1536 377.157 17.9036 376.936 17.5859C376.714 17.2682 376.593 16.9062 376.572 16.5H377.51C377.546 16.862 377.71 17.1615 378.002 17.3984C378.296 17.6328 378.648 17.75 379.057 17.75C379.385 17.75 379.676 17.6732 379.932 17.5195C380.19 17.3659 380.391 17.1549 380.537 16.8867C380.686 16.6159 380.76 16.3099 380.76 15.9687C380.76 15.6198 380.683 15.3086 380.529 15.0352C380.378 14.7591 380.17 14.5417 379.904 14.3828C379.639 14.224 379.335 14.1432 378.994 14.1406C378.749 14.138 378.498 14.1758 378.24 14.2539C377.982 14.3294 377.77 14.4271 377.604 14.5469L376.697 14.4375L377.182 10.5H381.338V11.3594H377.994L377.713 13.7187H377.76C377.924 13.5885 378.13 13.4805 378.377 13.3945C378.624 13.3086 378.882 13.2656 379.15 13.2656C379.64 13.2656 380.076 13.3828 380.459 13.6172C380.844 13.849 381.147 14.1667 381.365 14.5703C381.587 14.974 381.697 15.4349 381.697 15.9531C381.697 16.4635 381.583 16.9193 381.354 17.3203C381.127 17.7187 380.815 18.0339 380.416 18.2656C380.018 18.4948 379.565 18.6094 379.057 18.6094ZM385.443 17.0938V11.9375H386.318V17.0938H385.443ZM383.303 14.9531V14.0781H388.459V14.9531H383.303Z" fill="#C6C6C8"/>
<rect x="400" width="108" height="28" rx="6" fill="#3C46C9"/>
<rect x="406" y="5" width="18" height="18" rx="3.5" fill="#F1EFEF"/>
<path opacity="0.4" d="M411.562 17.4375C410 17.4375 408.75 16.5 408.75 14.3125C408.75 11.8125 410.625 10.5625 415 10.5625C419.375 10.5625 421.25 11.8125 421.25 14.3125C421.25 16.5 420 17.4375 418.438 17.4375C416.875 17.4375 415.938 15.875 415 15.875C414.062 15.875 413.125 17.4375 411.562 17.4375Z" fill="#3C46C9"/>
<path d="M411.562 17.4375C410 17.4375 408.75 16.5 408.75 14.3125C408.75 11.8125 410.625 10.5625 415 10.5625C419.375 10.5625 421.25 11.8125 421.25 14.3125C421.25 16.5 420 17.4375 418.438 17.4375C416.875 17.4375 415.938 15.875 415 15.875C414.062 15.875 413.125 17.4375 411.562 17.4375Z" stroke="#3C46C9" stroke-width="1.25" stroke-linecap="round"/>
<path d="M435.964 11.8636L433.245 19.5H431.256L428.537 11.8636H430.456L432.211 17.5362H432.29L434.05 11.8636H435.964ZM437 19.5V11.8636H438.799V19.5H437ZM437.904 10.7798C437.619 10.7798 437.374 10.6854 437.169 10.4964C436.963 10.3042 436.86 10.0739 436.86 9.8054C436.86 9.53362 436.963 9.30327 437.169 9.11435C437.374 8.92211 437.619 8.82599 437.904 8.82599C438.193 8.82599 438.438 8.92211 438.64 9.11435C438.846 9.30327 438.948 9.53362 438.948 9.8054C438.948 10.0739 438.846 10.3042 438.64 10.4964C438.438 10.6854 438.193 10.7798 437.904 10.7798ZM446.475 13.8821L444.835 14.0611C444.788 13.8954 444.707 13.7396 444.591 13.5938C444.479 13.4479 444.326 13.3303 444.134 13.2408C443.942 13.1513 443.706 13.1065 443.428 13.1065C443.053 13.1065 442.738 13.1877 442.483 13.3501C442.231 13.5125 442.107 13.723 442.11 13.9815C442.107 14.2036 442.188 14.3842 442.354 14.5234C442.523 14.6626 442.801 14.777 443.189 14.8665L444.492 15.1449C445.214 15.3007 445.751 15.5476 446.103 15.8857C446.457 16.2237 446.636 16.6662 446.639 17.2131C446.636 17.6937 446.495 18.1179 446.217 18.4858C445.942 18.8504 445.559 19.1354 445.068 19.3409C444.578 19.5464 444.014 19.6491 443.378 19.6491C442.443 19.6491 441.691 19.4536 441.121 19.0625C440.551 18.6681 440.211 18.1196 440.102 17.4169L441.857 17.2479C441.936 17.5926 442.105 17.8527 442.364 18.0284C442.622 18.2041 442.959 18.2919 443.373 18.2919C443.801 18.2919 444.144 18.2041 444.402 18.0284C444.664 17.8527 444.795 17.6357 444.795 17.3771C444.795 17.1584 444.711 16.9777 444.541 16.8352C444.376 16.6927 444.117 16.5833 443.766 16.5071L442.463 16.2337C441.731 16.0812 441.189 15.8243 440.838 15.4631C440.486 15.0985 440.312 14.6378 440.316 14.081C440.312 13.6103 440.44 13.2027 440.698 12.858C440.96 12.5099 441.323 12.2415 441.787 12.0526C442.255 11.8603 442.793 11.7642 443.403 11.7642C444.298 11.7642 445.002 11.9548 445.516 12.3359C446.033 12.7171 446.353 13.2325 446.475 13.8821ZM447.914 19.5V11.8636H449.713V19.5H447.914ZM448.818 10.7798C448.533 10.7798 448.288 10.6854 448.083 10.4964C447.877 10.3042 447.774 10.0739 447.774 9.8054C447.774 9.53362 447.877 9.30327 448.083 9.11435C448.288 8.92211 448.533 8.82599 448.818 8.82599C449.107 8.82599 449.352 8.92211 449.554 9.11435C449.76 9.30327 449.862 9.53362 449.862 9.8054C449.862 10.0739 449.76 10.3042 449.554 10.4964C449.352 10.6854 449.107 10.7798 448.818 10.7798ZM454.685 19.6491C453.939 19.6491 453.293 19.4851 452.746 19.157C452.199 18.8288 451.775 18.3698 451.473 17.7798C451.175 17.1899 451.026 16.5005 451.026 15.7116C451.026 14.9228 451.175 14.2318 451.473 13.6385C451.775 13.0452 452.199 12.5845 452.746 12.2564C453.293 11.9283 453.939 11.7642 454.685 11.7642C455.431 11.7642 456.077 11.9283 456.624 12.2564C457.171 12.5845 457.593 13.0452 457.892 13.6385C458.193 14.2318 458.344 14.9228 458.344 15.7116C458.344 16.5005 458.193 17.1899 457.892 17.7798C457.593 18.3698 457.171 18.8288 456.624 19.157C456.077 19.4851 455.431 19.6491 454.685 19.6491ZM454.695 18.2074C455.099 18.2074 455.437 18.0964 455.709 17.8743C455.981 17.6489 456.183 17.3473 456.316 16.9695C456.451 16.5916 456.519 16.1707 456.519 15.7067C456.519 15.2393 456.451 14.8168 456.316 14.4389C456.183 14.0578 455.981 13.7545 455.709 13.5291C455.437 13.3037 455.099 13.1911 454.695 13.1911C454.281 13.1911 453.936 13.3037 453.661 13.5291C453.389 13.7545 453.185 14.0578 453.049 14.4389C452.917 14.8168 452.85 15.2393 452.85 15.7067C452.85 16.1707 452.917 16.5916 453.049 16.9695C453.185 17.3473 453.389 17.6489 453.661 17.8743C453.936 18.0964 454.281 18.2074 454.695 18.2074ZM461.461 15.0256V19.5H459.661V11.8636H461.382V13.1612H461.471C461.647 12.7337 461.927 12.3939 462.311 12.142C462.699 11.8902 463.178 11.7642 463.748 11.7642C464.275 11.7642 464.734 11.8769 465.125 12.1023C465.52 12.3277 465.825 12.6541 466.04 13.0817C466.259 13.5092 466.366 14.0279 466.363 14.6378V19.5H464.563V14.9162C464.563 14.4058 464.431 14.0064 464.166 13.718C463.904 13.4297 463.541 13.2855 463.077 13.2855C462.762 13.2855 462.482 13.3551 462.237 13.4943C461.995 13.6302 461.804 13.8274 461.665 14.0859C461.529 14.3445 461.461 14.6577 461.461 15.0256ZM477.16 14.4091C477.16 15.5062 476.955 16.4458 476.544 17.228C476.136 18.0069 475.579 18.6035 474.873 19.0178C474.171 19.4321 473.374 19.6392 472.482 19.6392C471.59 19.6392 470.792 19.4321 470.086 19.0178C469.383 18.6001 468.826 18.0019 468.415 17.223C468.008 16.4408 467.804 15.5028 467.804 14.4091C467.804 13.312 468.008 12.3741 468.415 11.5952C468.826 10.813 469.383 10.2147 470.086 9.80043C470.792 9.38613 471.59 9.17898 472.482 9.17898C473.374 9.17898 474.171 9.38613 474.873 9.80043C475.579 10.2147 476.136 10.813 476.544 11.5952C476.955 12.3741 477.16 13.312 477.16 14.4091ZM475.306 14.4091C475.306 13.6368 475.185 12.9856 474.943 12.4553C474.704 11.9216 474.373 11.5189 473.949 11.2472C473.524 10.9721 473.036 10.8345 472.482 10.8345C471.929 10.8345 471.44 10.9721 471.015 11.2472C470.591 11.5189 470.258 11.9216 470.016 12.4553C469.777 12.9856 469.658 13.6368 469.658 14.4091C469.658 15.1813 469.777 15.8343 470.016 16.3679C470.258 16.8982 470.591 17.3009 471.015 17.576C471.44 17.8478 471.929 17.9837 472.482 17.9837C473.036 17.9837 473.524 17.8478 473.949 17.576C474.373 17.3009 474.704 16.8982 474.943 16.3679C475.185 15.8343 475.306 15.1813 475.306 14.4091ZM484.227 12.1172C484.181 11.683 483.985 11.3449 483.641 11.103C483.299 10.861 482.855 10.7401 482.308 10.7401C481.924 10.7401 481.594 10.7981 481.319 10.9141C481.044 11.0301 480.834 11.1875 480.688 11.3864C480.542 11.5852 480.467 11.8123 480.464 12.0675C480.464 12.2796 480.512 12.4635 480.608 12.6193C480.708 12.7751 480.842 12.9077 481.011 13.017C481.18 13.1231 481.367 13.2126 481.573 13.2855C481.778 13.3584 481.985 13.4197 482.194 13.4695L483.149 13.7081C483.533 13.7976 483.903 13.9186 484.257 14.071C484.615 14.2235 484.935 14.4157 485.217 14.6477C485.502 14.8797 485.727 15.1598 485.893 15.4879C486.059 15.8161 486.142 16.2005 486.142 16.6413C486.142 17.2379 485.989 17.7633 485.684 18.2173C485.379 18.6681 484.938 19.0211 484.362 19.2763C483.788 19.5282 483.094 19.6541 482.279 19.6541C481.486 19.6541 480.799 19.5315 480.215 19.2862C479.635 19.041 479.181 18.683 478.853 18.2124C478.528 17.7417 478.353 17.1683 478.326 16.4922H480.141C480.167 16.8468 480.277 17.1418 480.469 17.3771C480.661 17.6125 480.911 17.7881 481.22 17.9041C481.531 18.0201 481.879 18.0781 482.264 18.0781C482.665 18.0781 483.016 18.0185 483.318 17.8991C483.623 17.7765 483.861 17.6075 484.034 17.392C484.206 17.1733 484.294 16.9181 484.297 16.6264C484.294 16.3613 484.216 16.1425 484.063 15.9702C483.911 15.7945 483.697 15.6487 483.422 15.5327C483.15 15.4134 482.832 15.3073 482.468 15.2145L481.309 14.9162C480.471 14.7008 479.808 14.3743 479.32 13.9368C478.837 13.496 478.595 12.911 478.595 12.1818C478.595 11.5819 478.757 11.0566 479.082 10.6058C479.41 10.1551 479.856 9.8054 480.419 9.55682C480.983 9.30492 481.621 9.17898 482.333 9.17898C483.056 9.17898 483.689 9.30492 484.232 9.55682C484.779 9.8054 485.209 10.1518 485.52 10.5959C485.832 11.0367 485.992 11.5438 486.002 12.1172H484.227Z" fill="#F1EFEF"/>
<path d="M493.041 10.5V18.5H492.072V11.5156H492.025L490.072 12.8125V11.8281L492.072 10.5H493.041ZM497.536 17.0938V11.9375H498.411V17.0938H497.536ZM495.396 14.9531V14.0781H500.552V14.9531H495.396Z" fill="#C6C6C8"/>
<rect x="22.5" y="32" width="139" height="28" rx="6" fill="#006AB2"/>
<rect x="28.5" y="37" width="18" height="18" rx="3.5" fill="#F1EFEF"/>
<path d="M40.5884 42.7166V39.7163C40.592 39.611 40.6792 39.5289 40.784 39.5304C41.8077 39.5924 42.7377 39.6825 43.5327 39.7945L43.5354 39.7952C43.6098 39.804 43.6718 39.8561 43.695 39.9269L43.6954 39.9268L43.6961 39.93C43.6986 39.9377 43.7002 39.9454 43.7016 39.9533L43.7032 39.9599C43.7061 39.9805 43.7097 40.0041 43.7138 40.0314C43.8118 40.6962 43.9135 41.7454 43.9672 42.6973C43.9672 42.6973 43.9793 42.9096 43.7666 42.9096H40.7814C40.6747 42.9096 40.5884 42.8233 40.5884 42.7166ZM40.5889 39.7033L40.5884 39.7163V39.7102L40.5886 39.7033H40.5889Z" fill="#006AB2"/>
<path d="M34.4092 52.2807V49.0876V49.2808C34.4092 49.1741 34.3228 49.0876 34.2162 49.0876H31.2312C31.0184 49.0876 31.0304 49.3002 31.0304 49.3002C31.084 50.252 31.1859 51.3015 31.2839 51.9662C31.2879 51.9938 31.2916 52.0177 31.2946 52.0386L31.296 52.0445C31.2973 52.0524 31.299 52.0602 31.3015 52.0678L31.3021 52.071H31.3025C31.3256 52.1411 31.3866 52.1925 31.4603 52.2022C32.2565 52.3147 33.1888 52.4051 34.2149 52.4672C34.3194 52.468 34.406 52.3857 34.4092 52.2807Z" fill="#006AB2"/>
<path d="M37.8858 42.697C37.8858 42.697 37.8858 42.9098 38.0985 42.9098H39.6035C39.6035 42.9098 39.8164 42.9098 39.8164 42.697V39.6941C39.8164 39.6941 39.8164 39.4811 39.6037 39.4726C39.1972 39.4557 38.5507 39.4405 38.0985 39.4375C38.0985 39.4375 37.8858 39.4362 37.8858 39.6491V42.697Z" fill="#006AB2"/>
<path d="M37.4987 52.35V49.152V49.2808C37.4987 49.1742 37.4122 49.0876 37.3056 49.0876H37.4342H35.3948C35.3948 49.0876 35.1819 49.0876 35.1819 49.3006V52.3034C35.1819 52.3034 35.1819 52.5163 35.3946 52.525C35.9206 52.5466 36.6969 52.5628 37.2859 52.5628C37.2859 52.5628 37.4987 52.5628 37.4987 52.35Z" fill="#006AB2"/>
<path d="M35.1819 42.697C35.1819 42.697 35.1819 42.9098 35.3948 42.9098H36.8996C36.8996 42.9098 37.1126 42.9098 37.1126 42.697V39.6489C37.1126 39.6489 37.1126 39.436 36.8997 39.4375C36.4473 39.4405 35.8014 39.456 35.3946 39.4727C35.3946 39.4727 35.1819 39.4814 35.1819 39.6942V42.697Z" fill="#006AB2"/>
<path d="M31.1943 48.3156H34.1971C34.1971 48.3156 34.4099 48.3156 34.4099 48.1028V46.5976C34.4099 46.5976 34.4099 46.3848 34.1971 46.3848H31.149C31.149 46.3848 30.9363 46.3848 30.9375 46.5976C30.9405 47.0501 30.9561 47.696 30.9727 48.1028C30.9727 48.1028 30.9816 48.3156 31.1943 48.3156Z" fill="#006AB2"/>
<path d="M30.9375 45.3998C30.9375 45.3998 30.9362 45.6126 31.1489 45.6126H34.197C34.197 45.6126 34.4098 45.6126 34.4098 45.3998V43.8949C34.4098 43.8949 34.4098 43.6821 34.197 43.6821H31.1941C31.1941 43.6821 30.9814 43.6821 30.9726 43.8946C30.956 44.3013 30.9405 44.9476 30.9375 45.3998Z" fill="#006AB2"/>
<path d="M34.4092 42.7166V39.7163C34.4057 39.611 34.3184 39.5289 34.2135 39.5304C33.1899 39.5924 32.2599 39.6825 31.465 39.7945L31.4622 39.7952C31.3878 39.804 31.3258 39.8561 31.3025 39.9269L31.3021 39.9268L31.3015 39.93C31.299 39.9377 31.2973 39.9454 31.296 39.9533L31.2945 39.9599C31.2915 39.9805 31.2878 40.0041 31.2839 40.0314C31.1859 40.6962 31.084 41.7454 31.0304 42.6973C31.0304 42.6973 31.0184 42.9096 31.2312 42.9096H34.2162C34.3228 42.9096 34.4092 42.8233 34.4092 42.7166ZM34.4088 39.7033L34.4092 39.7163V39.7102L34.409 39.7033H34.4088Z" fill="#006AB2"/>
<path d="M40.5884 48.3289C40.5884 48.3289 40.5884 48.5417 40.7387 48.6922C40.7387 48.6922 40.5884 48.5417 43.5974 51.551C43.5974 51.551 43.748 51.7013 43.7748 51.4902C43.9213 50.3436 44.0338 48.6401 44.0556 46.9839C44.0556 46.9839 44.0583 46.7712 43.8455 46.7712H40.7598C40.7598 46.7712 40.5884 46.7712 40.5884 46.9426V48.3289Z" fill="#006AB2"/>
<path d="M44.0632 45.8089C44.0609 45.0758 44.0456 44.3789 44.0258 43.8946C44.0258 43.8946 44.0169 43.682 43.8041 43.682H40.8012C40.8012 43.682 40.5884 43.682 40.5884 43.8948V45.7858C40.5884 45.7858 40.5884 45.9986 40.8012 45.9986H43.8704C43.9759 45.9986 44.0614 45.9139 44.0632 45.8089Z" fill="#006AB2"/>
<path d="M43.0514 52.097C40.9783 50.0241 40.3335 49.3792 40.1328 49.1786C40.0692 49.1173 39.9967 49.0837 39.9346 49.088V49.0878H38.4844C38.4844 49.0878 38.2715 49.0878 38.2715 49.3008V52.3451C38.2715 52.3451 38.2715 52.5579 38.4844 52.5551C40.1407 52.5333 41.8438 52.4208 42.9907 52.2744C42.9907 52.2744 43.2018 52.2473 43.0514 52.097Z" fill="#006AB2"/>
<path d="M51.5841 41.3182H53.8412L56.8639 48.696H56.9833L60.006 41.3182H62.2631V51.5H60.4932V44.505H60.3987L57.5848 51.4702H56.2624L53.4485 44.4901H53.354V51.5H51.5841V41.3182ZM66.1795 51.6541C65.6956 51.6541 65.2598 51.5679 64.872 51.3956C64.4875 51.2199 64.1826 50.9614 63.9572 50.62C63.7351 50.2786 63.6241 49.8577 63.6241 49.3572C63.6241 48.9264 63.7037 48.5701 63.8627 48.2884C64.0218 48.0066 64.2389 47.7812 64.514 47.6122C64.7891 47.4432 65.099 47.3156 65.4437 47.2294C65.7917 47.1399 66.1513 47.0753 66.5225 47.0355C66.97 46.9891 67.3329 46.9477 67.6113 46.9112C67.8897 46.8714 68.0919 46.8118 68.2179 46.7322C68.3471 46.6494 68.4117 46.5218 68.4117 46.3494V46.3196C68.4117 45.9451 68.3007 45.6551 68.0787 45.4496C67.8566 45.2441 67.5367 45.1413 67.1191 45.1413C66.6783 45.1413 66.3287 45.2375 66.0701 45.4297C65.8149 45.6219 65.6426 45.849 65.5531 46.1108L63.8727 45.8722C64.0053 45.4081 64.224 45.0204 64.5289 44.7088C64.8339 44.3939 65.2067 44.1586 65.6475 44.0028C66.0884 43.8438 66.5756 43.7642 67.1092 43.7642C67.4771 43.7642 67.8433 43.8073 68.2079 43.8935C68.5725 43.9796 68.9056 44.1222 69.2072 44.321C69.5088 44.5166 69.7508 44.7834 69.9331 45.1214C70.1187 45.4595 70.2115 45.8821 70.2115 46.3892V51.5H68.4814V50.451H68.4217C68.3123 50.6631 68.1582 50.862 67.9593 51.0476C67.7638 51.2299 67.5169 51.3774 67.2186 51.4901C66.9236 51.5994 66.5772 51.6541 66.1795 51.6541ZM66.6468 50.3317C67.0081 50.3317 67.3213 50.2604 67.5865 50.1179C67.8516 49.9721 68.0555 49.7798 68.198 49.5412C68.3438 49.3026 68.4167 49.0424 68.4167 48.7607V47.8608C68.3604 47.9072 68.2643 47.9503 68.1284 47.9901C67.9958 48.0298 67.8466 48.0646 67.6809 48.0945C67.5152 48.1243 67.3511 48.1508 67.1887 48.174C67.0263 48.1972 66.8855 48.2171 66.7662 48.2337C66.4977 48.2701 66.2574 48.3298 66.0453 48.4126C65.8332 48.4955 65.6658 48.6115 65.5431 48.7607C65.4205 48.9065 65.3592 49.0954 65.3592 49.3274C65.3592 49.6589 65.4802 49.9091 65.7221 50.0781C65.9641 50.2472 66.2723 50.3317 66.6468 50.3317ZM74.6449 51.6342C74.045 51.6342 73.5081 51.4801 73.0341 51.1719C72.5602 50.8636 72.1857 50.4162 71.9106 49.8295C71.6355 49.2429 71.4979 48.5303 71.4979 47.6918C71.4979 46.8433 71.6371 46.1274 71.9155 45.544C72.1973 44.9574 72.5767 44.5149 73.054 44.2166C73.5313 43.915 74.0633 43.7642 74.6499 43.7642C75.0973 43.7642 75.4652 43.8404 75.7536 43.9929C76.0419 44.142 76.2706 44.3227 76.4397 44.5348C76.6087 44.7436 76.7396 44.9408 76.8324 45.1264H76.907V41.3182H78.7117V51.5H76.9418V50.2969H76.8324C76.7396 50.4825 76.6054 50.6797 76.4297 50.8885C76.2541 51.094 76.0221 51.2696 75.7337 51.4155C75.4454 51.5613 75.0824 51.6342 74.6449 51.6342ZM75.1471 50.1577C75.5282 50.1577 75.853 50.0549 76.1215 49.8494C76.39 49.6406 76.5938 49.3506 76.733 48.9794C76.8722 48.6082 76.9418 48.1757 76.9418 47.6818C76.9418 47.188 76.8722 46.7588 76.733 46.3942C76.5971 46.0296 76.3949 45.7462 76.1265 45.544C75.8613 45.3419 75.5348 45.2408 75.1471 45.2408C74.746 45.2408 74.4113 45.3452 74.1428 45.554C73.8743 45.7628 73.6722 46.0511 73.5363 46.419C73.4004 46.7869 73.3324 47.2079 73.3324 47.6818C73.3324 48.1591 73.4004 48.585 73.5363 48.9595C73.6755 49.3307 73.8793 49.6241 74.1478 49.8395C74.4196 50.0516 74.7526 50.1577 75.1471 50.1577ZM83.8002 51.6491C83.0345 51.6491 82.3733 51.4901 81.8165 51.1719C81.263 50.8504 80.8371 50.3963 80.5388 49.8097C80.2405 49.2197 80.0914 48.5253 80.0914 47.7266C80.0914 46.9411 80.2405 46.2517 80.5388 45.6584C80.8404 45.0618 81.2613 44.5978 81.8016 44.2663C82.3418 43.9316 82.9765 43.7642 83.7057 43.7642C84.1763 43.7642 84.6205 43.8404 85.0381 43.9929C85.459 44.142 85.8302 44.3741 86.1517 44.6889C86.4765 45.0038 86.7317 45.4048 86.9174 45.892C87.103 46.3759 87.1958 46.9527 87.1958 47.6222V48.174H80.9365V46.9609H85.4706C85.4673 46.6162 85.3927 46.3097 85.2469 46.0412C85.1011 45.7694 84.8972 45.5556 84.6354 45.3999C84.3769 45.2441 84.0753 45.1662 83.7306 45.1662C83.3627 45.1662 83.0395 45.2557 82.7611 45.4347C82.4827 45.6103 82.2656 45.8423 82.1098 46.1307C81.9574 46.4157 81.8795 46.7289 81.8762 47.0703V48.1293C81.8762 48.5734 81.9574 48.9545 82.1198 49.2727C82.2822 49.5876 82.5092 49.8295 82.8009 49.9986C83.0925 50.1643 83.4339 50.2472 83.825 50.2472C84.0869 50.2472 84.3238 50.2107 84.536 50.1378C84.7481 50.0616 84.932 49.9505 85.0878 49.8047C85.2436 49.6589 85.3612 49.4782 85.4408 49.2628L87.1212 49.4517C87.0151 49.8958 86.813 50.2836 86.5147 50.6151C86.2197 50.9432 85.8418 51.1984 85.3811 51.3807C84.9204 51.5597 84.3934 51.6491 83.8002 51.6491ZM91.771 51.5V43.8636H93.5707V51.5H91.771ZM92.6758 42.7798C92.3908 42.7798 92.1455 42.6854 91.94 42.4964C91.7345 42.3042 91.6318 42.0739 91.6318 41.8054C91.6318 41.5336 91.7345 41.3033 91.94 41.1143C92.1455 40.9221 92.3908 40.826 92.6758 40.826C92.9642 40.826 93.2094 40.9221 93.4116 41.1143C93.6171 41.3033 93.7198 41.5336 93.7198 41.8054C93.7198 42.0739 93.6171 42.3042 93.4116 42.4964C93.2094 42.6854 92.9642 42.7798 92.6758 42.7798ZM97.0111 47.0256V51.5H95.2114V43.8636H96.9315V45.1612H97.021C97.1967 44.7337 97.4767 44.3939 97.8612 44.142C98.249 43.8902 98.7279 43.7642 99.298 43.7642C99.825 43.7642 100.284 43.8769 100.675 44.1023C101.07 44.3277 101.374 44.6541 101.59 45.0817C101.809 45.5092 101.916 46.0279 101.913 46.6378V51.5H100.113V46.9162C100.113 46.4058 99.9808 46.0064 99.7156 45.718C99.4538 45.4297 99.0909 45.2855 98.6268 45.2855C98.312 45.2855 98.0319 45.3551 97.7866 45.4943C97.5447 45.6302 97.3541 45.8274 97.2149 46.0859C97.079 46.3445 97.0111 46.6577 97.0111 47.0256ZM106.875 51.5V41.3182H108.719V45.9964H108.844L112.816 41.3182H115.068L111.13 45.8871L115.103 51.5H112.885L109.848 47.1349L108.719 48.4673V51.5H106.875ZM116.06 51.5V43.8636H117.805V45.1364H117.884C118.024 44.6955 118.262 44.3558 118.6 44.1172C118.942 43.8752 119.331 43.7543 119.769 43.7543C119.868 43.7543 119.979 43.7592 120.102 43.7692C120.228 43.7758 120.332 43.7874 120.415 43.804V45.4595C120.339 45.433 120.218 45.4098 120.052 45.3899C119.89 45.3667 119.732 45.3551 119.58 45.3551C119.252 45.3551 118.957 45.4264 118.695 45.5689C118.436 45.7081 118.232 45.902 118.083 46.1506C117.934 46.3991 117.86 46.6858 117.86 47.0107V51.5H116.06ZM123.461 51.6541C122.977 51.6541 122.542 51.5679 122.154 51.3956C121.769 51.2199 121.464 50.9614 121.239 50.62C121.017 50.2786 120.906 49.8577 120.906 49.3572C120.906 48.9264 120.986 48.5701 121.145 48.2884C121.304 48.0066 121.521 47.7812 121.796 47.6122C122.071 47.4432 122.381 47.3156 122.726 47.2294C123.074 47.1399 123.433 47.0753 123.804 47.0355C124.252 46.9891 124.615 46.9477 124.893 46.9112C125.172 46.8714 125.374 46.8118 125.5 46.7322C125.629 46.6494 125.694 46.5218 125.694 46.3494V46.3196C125.694 45.9451 125.583 45.6551 125.361 45.4496C125.138 45.2441 124.819 45.1413 124.401 45.1413C123.96 45.1413 123.611 45.2375 123.352 45.4297C123.097 45.6219 122.924 45.849 122.835 46.1108L121.155 45.8722C121.287 45.4081 121.506 45.0204 121.811 44.7088C122.116 44.3939 122.489 44.1586 122.929 44.0028C123.37 43.8438 123.857 43.7642 124.391 43.7642C124.759 43.7642 125.125 43.8073 125.49 43.8935C125.854 43.9796 126.187 44.1222 126.489 44.321C126.791 44.5166 127.033 44.7834 127.215 45.1214C127.401 45.4595 127.493 45.8821 127.493 46.3892V51.5H125.763V50.451H125.704C125.594 50.6631 125.44 50.862 125.241 51.0476C125.046 51.2299 124.799 51.3774 124.5 51.4901C124.205 51.5994 123.859 51.6541 123.461 51.6541ZM123.929 50.3317C124.29 50.3317 124.603 50.2604 124.868 50.1179C125.133 49.9721 125.337 49.7798 125.48 49.5412C125.626 49.3026 125.699 49.0424 125.699 48.7607V47.8608C125.642 47.9072 125.546 47.9503 125.41 47.9901C125.278 48.0298 125.129 48.0646 124.963 48.0945C124.797 48.1243 124.633 48.1508 124.471 48.174C124.308 48.1972 124.167 48.2171 124.048 48.2337C123.78 48.2701 123.539 48.3298 123.327 48.4126C123.115 48.4955 122.948 48.6115 122.825 48.7607C122.702 48.9065 122.641 49.0954 122.641 49.3274C122.641 49.6589 122.762 49.9091 123.004 50.0781C123.246 50.2472 123.554 50.3317 123.929 50.3317ZM130.734 49.1037L130.729 46.9311H131.017L133.761 43.8636H135.864L132.489 47.6222H132.116L130.734 49.1037ZM129.093 51.5V41.3182H130.893V51.5H129.093ZM133.886 51.5L131.4 48.0249L132.613 46.7571L136.038 51.5H133.886ZM139.87 51.6491C139.124 51.6491 138.478 51.4851 137.931 51.157C137.384 50.8288 136.96 50.3698 136.659 49.7798C136.36 49.1899 136.211 48.5005 136.211 47.7116C136.211 46.9228 136.36 46.2318 136.659 45.6385C136.96 45.0452 137.384 44.5845 137.931 44.2564C138.478 43.9283 139.124 43.7642 139.87 43.7642C140.616 43.7642 141.262 43.9283 141.809 44.2564C142.356 44.5845 142.779 45.0452 143.077 45.6385C143.379 46.2318 143.529 46.9228 143.529 47.7116C143.529 48.5005 143.379 49.1899 143.077 49.7798C142.779 50.3698 142.356 50.8288 141.809 51.157C141.262 51.4851 140.616 51.6491 139.87 51.6491ZM139.88 50.2074C140.285 50.2074 140.623 50.0964 140.894 49.8743C141.166 49.6489 141.368 49.3473 141.501 48.9695C141.637 48.5916 141.705 48.1707 141.705 47.7067C141.705 47.2393 141.637 46.8168 141.501 46.4389C141.368 46.0578 141.166 45.7545 140.894 45.5291C140.623 45.3037 140.285 45.1911 139.88 45.1911C139.466 45.1911 139.121 45.3037 138.846 45.5291C138.574 45.7545 138.37 46.0578 138.235 46.4389C138.102 46.8168 138.036 47.2393 138.036 47.7067C138.036 48.1707 138.102 48.5916 138.235 48.9695C138.37 49.3473 138.574 49.6489 138.846 49.8743C139.121 50.0964 139.466 50.2074 139.88 50.2074ZM139.179 42.8594L140.293 40.5874H142.053L140.526 42.8594H139.179ZM146.204 51.5L144.046 43.8636H145.881L147.223 49.233H147.293L148.665 43.8636H150.48L151.852 49.2031H151.926L153.249 43.8636H155.088L152.926 51.5H151.051L149.62 46.3395H149.515L148.083 51.5H146.204Z" fill="#F1EFEF"/>
<rect x="165.5" y="32" width="152" height="28" rx="6" fill="#3C46C9"/>
<rect x="171.5" y="37" width="18" height="18" rx="3.5" fill="#F1EFEF"/>
<path opacity="0.4" fill-rule="evenodd" clip-rule="evenodd" d="M186.389 43.5C186.438 44.2048 186.438 45.0711 186.438 46.152V46.473C186.438 49.1963 186.438 50.5579 185.655 51.404C184.872 52.25 183.613 52.25 181.094 52.25H179.906C177.387 52.25 176.128 52.25 175.345 51.404C174.562 50.5579 174.562 49.1963 174.562 46.473V46.152C174.562 45.0711 174.562 44.2048 174.611 43.5H186.389ZM180.5 46.3125C181.042 46.3125 181.52 46.5888 181.8 47.0082C181.966 47.2563 182.062 47.5543 182.062 47.875C182.062 48.1957 181.966 48.4938 181.8 48.7419C181.52 49.1613 181.042 49.4375 180.5 49.4375C179.958 49.4375 179.48 49.1613 179.2 48.7419C179.034 48.4938 178.938 48.1957 178.938 47.875C178.938 47.5543 179.034 47.2563 179.2 47.0082C179.48 46.5888 179.958 46.3125 180.5 46.3125Z" fill="#3C46C9"/>
<path d="M184.25 39.75V41M176.75 39.75V41" stroke="#3C46C9" stroke-width="1.25" stroke-linecap="round" stroke-linejoin="round"/>
<path d="M174.875 43.5H186.125" stroke="#3C46C9" stroke-width="1.25" stroke-linecap="round" stroke-linejoin="round"/>
<path d="M174.562 46.152C174.562 43.4287 174.562 42.0671 175.345 41.221C176.128 40.375 177.387 40.375 179.906 40.375H181.094C183.613 40.375 184.872 40.375 185.655 41.221C186.438 42.0671 186.438 43.4287 186.438 46.152V46.473C186.438 49.1963 186.438 50.5579 185.655 51.404C184.872 52.25 183.613 52.25 181.094 52.25H179.906C177.387 52.25 176.128 52.25 175.345 51.404C174.562 50.5579 174.562 49.1963 174.562 46.473V46.152Z" stroke="#3C46C9" stroke-width="1.25" stroke-linecap="round" stroke-linejoin="round"/>
<path d="M180.5 49.4375V50.0625M180.5 49.4375C179.958 49.4375 179.48 49.1613 179.2 48.7419M180.5 49.4375C181.042 49.4375 181.52 49.1613 181.8 48.7419M179.2 48.7419L178.625 49.125M179.2 48.7419C179.034 48.4938 178.938 48.1957 178.938 47.875C178.938 47.5543 179.034 47.2563 179.2 47.0082M181.8 48.7419L182.375 49.125M181.8 48.7419C181.966 48.4938 182.062 48.1957 182.062 47.875C182.062 47.5543 181.966 47.2563 181.8 47.0082M180.5 46.3125C181.042 46.3125 181.52 46.5888 181.8 47.0082M180.5 46.3125C179.958 46.3125 179.48 46.5888 179.2 47.0082M180.5 46.3125V45.6875M181.8 47.0082L182.375 46.625M179.2 47.0082L178.625 46.625" stroke="#3C46C9" stroke-width="1.25" stroke-linecap="round"/>
<path d="M194.673 51.5V50.1676L198.208 46.7024C198.546 46.361 198.828 46.0578 199.053 45.7926C199.279 45.5275 199.448 45.2706 199.561 45.022C199.673 44.7734 199.73 44.5083 199.73 44.2266C199.73 43.9051 199.657 43.63 199.511 43.4013C199.365 43.1693 199.164 42.9903 198.909 42.8643C198.654 42.7384 198.364 42.6754 198.039 42.6754C197.704 42.6754 197.411 42.745 197.159 42.8842C196.907 43.0201 196.712 43.214 196.573 43.4659C196.437 43.7178 196.369 44.0178 196.369 44.3658H194.614C194.614 43.7195 194.761 43.1577 195.056 42.6804C195.351 42.2031 195.757 41.8336 196.274 41.5717C196.795 41.3099 197.391 41.179 198.064 41.179C198.747 41.179 199.347 41.3066 199.864 41.5618C200.381 41.817 200.782 42.1667 201.067 42.6108C201.355 43.0549 201.499 43.562 201.499 44.1321C201.499 44.5133 201.427 44.8878 201.281 45.2557C201.135 45.6236 200.878 46.0312 200.51 46.4787C200.146 46.9261 199.633 47.468 198.974 48.1044L197.219 49.8892V49.9588H201.654V51.5H194.673ZM204.287 51.6094C203.986 51.6094 203.727 51.5033 203.512 51.2912C203.296 51.0791 203.19 50.8205 203.194 50.5156C203.19 50.2173 203.296 49.9621 203.512 49.75C203.727 49.5379 203.986 49.4318 204.287 49.4318C204.579 49.4318 204.833 49.5379 205.048 49.75C205.267 49.9621 205.378 50.2173 205.381 50.5156C205.378 50.7178 205.325 50.9018 205.222 51.0675C205.123 51.2332 204.99 51.3658 204.824 51.4652C204.662 51.5613 204.483 51.6094 204.287 51.6094ZM210.376 51.6939C209.558 51.6939 208.855 51.4867 208.268 51.0724C207.685 50.6548 207.236 50.0533 206.921 49.2678C206.61 48.4789 206.454 47.5294 206.454 46.419C206.457 45.3087 206.614 44.3641 206.926 43.5852C207.241 42.803 207.69 42.2064 208.273 41.7955C208.86 41.3845 209.561 41.179 210.376 41.179C211.192 41.179 211.893 41.3845 212.479 41.7955C213.066 42.2064 213.515 42.803 213.827 43.5852C214.141 44.3674 214.299 45.312 214.299 46.419C214.299 47.5327 214.141 48.4839 213.827 49.2727C213.515 50.0582 213.066 50.6581 212.479 51.0724C211.896 51.4867 211.195 51.6939 210.376 51.6939ZM210.376 50.1378C211.013 50.1378 211.515 49.8246 211.883 49.1982C212.254 48.5684 212.44 47.642 212.44 46.419C212.44 45.6103 212.355 44.9309 212.186 44.3807C212.017 43.8305 211.778 43.4162 211.47 43.1378C211.162 42.8561 210.797 42.7152 210.376 42.7152C209.743 42.7152 209.243 43.0301 208.875 43.6598C208.507 44.2862 208.321 45.206 208.318 46.419C208.315 47.2311 208.396 47.9138 208.562 48.4673C208.731 49.0208 208.969 49.4384 209.278 49.7202C209.586 49.9986 209.952 50.1378 210.376 50.1378ZM216.473 51.6094C216.171 51.6094 215.913 51.5033 215.697 51.2912C215.482 51.0791 215.376 50.8205 215.379 50.5156C215.376 50.2173 215.482 49.9621 215.697 49.75C215.913 49.5379 216.171 49.4318 216.473 49.4318C216.764 49.4318 217.018 49.5379 217.233 49.75C217.452 49.9621 217.563 50.2173 217.567 50.5156C217.563 50.7178 217.51 50.9018 217.407 51.0675C217.308 51.2332 217.175 51.3658 217.01 51.4652C216.847 51.5613 216.668 51.6094 216.473 51.6094ZM222.562 51.6939C221.743 51.6939 221.04 51.4867 220.454 51.0724C219.871 50.6548 219.421 50.0533 219.107 49.2678C218.795 48.4789 218.639 47.5294 218.639 46.419C218.643 45.3087 218.8 44.3641 219.112 43.5852C219.426 42.803 219.875 42.2064 220.459 41.7955C221.045 41.3845 221.746 41.179 222.562 41.179C223.377 41.179 224.078 41.3845 224.665 41.7955C225.251 42.2064 225.701 42.803 226.012 43.5852C226.327 44.3674 226.484 45.312 226.484 46.419C226.484 47.5327 226.327 48.4839 226.012 49.2727C225.701 50.0582 225.251 50.6581 224.665 51.0724C224.081 51.4867 223.38 51.6939 222.562 51.6939ZM222.562 50.1378C223.198 50.1378 223.7 49.8246 224.068 49.1982C224.439 48.5684 224.625 47.642 224.625 46.419C224.625 45.6103 224.54 44.9309 224.371 44.3807C224.202 43.8305 223.964 43.4162 223.656 43.1378C223.347 42.8561 222.983 42.7152 222.562 42.7152C221.929 42.7152 221.428 43.0301 221.06 43.6598C220.692 44.2862 220.507 45.206 220.504 46.419C220.5 47.2311 220.581 47.9138 220.747 48.4673C220.916 49.0208 221.155 49.4384 221.463 49.7202C221.771 49.9986 222.138 50.1378 222.562 50.1378Z" fill="#F1EFEF"/>
<path d="M232.969 50.5H230.5V42.5H233.078C233.854 42.5 234.518 42.6602 235.07 42.9805C235.622 43.2982 236.045 43.7552 236.34 44.3516C236.634 44.9453 236.781 45.6562 236.781 46.4844C236.781 47.3177 236.633 48.0352 236.336 48.6367C236.039 49.2357 235.607 49.6966 235.039 50.0195C234.471 50.3398 233.781 50.5 232.969 50.5ZM231.469 49.6406H232.906C233.567 49.6406 234.116 49.513 234.551 49.2578C234.985 49.0026 235.31 48.6393 235.523 48.168C235.737 47.6966 235.844 47.1354 235.844 46.4844C235.844 45.8385 235.738 45.2826 235.527 44.8164C235.316 44.3477 235.001 43.9883 234.582 43.7383C234.163 43.4857 233.64 43.3594 233.015 43.3594H231.469V49.6406ZM240.632 50.625C240.054 50.625 239.555 50.4974 239.136 50.2422C238.719 49.9844 238.397 49.625 238.171 49.1641C237.947 48.7005 237.835 48.1615 237.835 47.5469C237.835 46.9323 237.947 46.3906 238.171 45.9219C238.397 45.4505 238.712 45.0833 239.116 44.8203C239.522 44.5547 239.996 44.4219 240.538 44.4219C240.85 44.4219 241.159 44.474 241.464 44.5781C241.768 44.6823 242.046 44.8516 242.296 45.0859C242.546 45.3177 242.745 45.625 242.893 46.0078C243.042 46.3906 243.116 46.862 243.116 47.4219V47.8125H238.491V47.0156H242.179C242.179 46.6771 242.111 46.375 241.975 46.1094C241.843 45.8437 241.652 45.6341 241.405 45.4805C241.16 45.3268 240.871 45.25 240.538 45.25C240.171 45.25 239.853 45.3411 239.585 45.5234C239.319 45.7031 239.115 45.9375 238.971 46.2266C238.828 46.5156 238.757 46.8255 238.757 47.1562V47.6875C238.757 48.1406 238.835 48.5247 238.991 48.8398C239.15 49.1523 239.37 49.3906 239.651 49.5547C239.932 49.7161 240.259 49.7969 240.632 49.7969C240.874 49.7969 241.093 49.763 241.288 49.6953C241.486 49.625 241.656 49.5208 241.8 49.3828C241.943 49.2422 242.054 49.0677 242.132 48.8594L243.022 49.1094C242.929 49.4115 242.771 49.6771 242.55 49.9062C242.328 50.1328 242.055 50.3099 241.729 50.4375C241.404 50.5625 241.038 50.625 240.632 50.625ZM246.791 50.625C246.228 50.625 245.744 50.4922 245.338 50.2266C244.931 49.9609 244.619 49.5951 244.4 49.1289C244.181 48.6628 244.072 48.1302 244.072 47.5312C244.072 46.9219 244.184 46.3841 244.408 45.918C244.635 45.4492 244.95 45.0833 245.353 44.8203C245.76 44.5547 246.234 44.4219 246.775 44.4219C247.197 44.4219 247.577 44.5 247.916 44.6562C248.254 44.8125 248.532 45.0312 248.748 45.3125C248.964 45.5937 249.098 45.9219 249.15 46.2969H248.228C248.158 46.0234 248.002 45.7812 247.76 45.5703C247.52 45.3568 247.197 45.25 246.791 45.25C246.431 45.25 246.116 45.3437 245.846 45.5312C245.577 45.7161 245.368 45.9779 245.217 46.3164C245.068 46.6523 244.994 47.0469 244.994 47.5C244.994 47.9635 245.067 48.3672 245.213 48.7109C245.361 49.0547 245.57 49.3216 245.838 49.5117C246.109 49.7018 246.426 49.7969 246.791 49.7969C247.03 49.7969 247.248 49.7552 247.443 49.6719C247.639 49.5885 247.804 49.4688 247.939 49.3125C248.075 49.1562 248.171 48.9687 248.228 48.75H249.15C249.098 49.1042 248.969 49.4232 248.764 49.707C248.56 49.9883 248.291 50.2122 247.955 50.3789C247.622 50.543 247.234 50.625 246.791 50.625ZM252.849 50.625C252.27 50.625 251.772 50.4974 251.352 50.2422C250.936 49.9844 250.614 49.625 250.388 49.1641C250.164 48.7005 250.052 48.1615 250.052 47.5469C250.052 46.9323 250.164 46.3906 250.388 45.9219C250.614 45.4505 250.929 45.0833 251.333 44.8203C251.739 44.5547 252.213 44.4219 252.755 44.4219C253.067 44.4219 253.376 44.474 253.681 44.5781C253.985 44.6823 254.263 44.8516 254.513 45.0859C254.763 45.3177 254.962 45.625 255.11 46.0078C255.259 46.3906 255.333 46.862 255.333 47.4219V47.8125H250.708V47.0156H254.395C254.395 46.6771 254.328 46.375 254.192 46.1094C254.059 45.8437 253.869 45.6341 253.622 45.4805C253.377 45.3268 253.088 45.25 252.755 45.25C252.388 45.25 252.07 45.3411 251.802 45.5234C251.536 45.7031 251.332 45.9375 251.188 46.2266C251.045 46.5156 250.974 46.8255 250.974 47.1562V47.6875C250.974 48.1406 251.052 48.5247 251.208 48.8398C251.367 49.1523 251.587 49.3906 251.868 49.5547C252.149 49.7161 252.476 49.7969 252.849 49.7969C253.091 49.7969 253.309 49.763 253.505 49.6953C253.703 49.625 253.873 49.5208 254.016 49.3828C254.16 49.2422 254.27 49.0677 254.349 48.8594L255.239 49.1094C255.145 49.4115 254.988 49.6771 254.766 49.9062C254.545 50.1328 254.272 50.3099 253.946 50.4375C253.621 50.5625 253.255 50.625 252.849 50.625ZM256.57 50.5V44.5H257.461V45.4375H257.539C257.664 45.1172 257.866 44.8685 258.144 44.6914C258.423 44.5117 258.758 44.4219 259.148 44.4219C259.544 44.4219 259.874 44.5117 260.137 44.6914C260.402 44.8685 260.609 45.1172 260.758 45.4375H260.82C260.974 45.1276 261.204 44.8815 261.512 44.6992C261.819 44.5143 262.187 44.4219 262.617 44.4219C263.154 44.4219 263.592 44.5898 263.934 44.9258C264.275 45.2591 264.445 45.7786 264.445 46.4844V50.5H263.523V46.4844C263.523 46.0417 263.402 45.7253 263.16 45.5352C262.918 45.3451 262.633 45.25 262.305 45.25C261.883 45.25 261.556 45.3776 261.324 45.6328C261.092 45.8854 260.976 46.2057 260.976 46.5937V50.5H260.039V46.3906C260.039 46.0495 259.928 45.7747 259.707 45.5664C259.486 45.3555 259.2 45.25 258.851 45.25C258.612 45.25 258.388 45.3138 258.18 45.4414C257.974 45.569 257.807 45.7461 257.68 45.9727C257.555 46.1966 257.492 46.4557 257.492 46.75V50.5H256.57ZM266.091 50.5V42.5H267.013V45.4531H267.091C267.158 45.349 267.252 45.2161 267.372 45.0547C267.494 44.8906 267.669 44.7448 267.895 44.6172C268.125 44.487 268.435 44.4219 268.825 44.4219C269.33 44.4219 269.776 44.5482 270.161 44.8008C270.547 45.0534 270.847 45.4115 271.063 45.875C271.28 46.3385 271.388 46.8854 271.388 47.5156C271.388 48.151 271.28 48.7018 271.063 49.168C270.847 49.6315 270.548 49.9909 270.165 50.2461C269.782 50.4987 269.341 50.625 268.841 50.625C268.455 50.625 268.147 50.5612 267.915 50.4336C267.683 50.3034 267.505 50.1562 267.38 49.9922C267.255 49.8255 267.158 49.6875 267.091 49.5781H266.981V50.5H266.091ZM266.997 47.5C266.997 47.9531 267.063 48.3529 267.196 48.6992C267.329 49.043 267.523 49.3125 267.778 49.5078C268.033 49.7005 268.346 49.7969 268.716 49.7969C269.101 49.7969 269.423 49.6953 269.681 49.4922C269.941 49.2865 270.136 49.0104 270.267 48.6641C270.399 48.3151 270.466 47.9271 270.466 47.5C270.466 47.0781 270.401 46.6979 270.27 46.3594C270.143 46.0182 269.949 45.7487 269.688 45.5508C269.431 45.3503 269.106 45.25 268.716 45.25C268.341 45.25 268.026 45.3451 267.77 45.5352C267.515 45.7227 267.323 45.9857 267.192 46.3242C267.062 46.6602 266.997 47.0521 266.997 47.5ZM275.148 50.625C274.57 50.625 274.072 50.4974 273.652 50.2422C273.236 49.9844 272.914 49.625 272.688 49.1641C272.464 48.7005 272.352 48.1615 272.352 47.5469C272.352 46.9323 272.464 46.3906 272.688 45.9219C272.914 45.4505 273.229 45.0833 273.633 44.8203C274.039 44.5547 274.513 44.4219 275.055 44.4219C275.367 44.4219 275.676 44.474 275.98 44.5781C276.285 44.6823 276.563 44.8516 276.813 45.0859C277.063 45.3177 277.262 45.625 277.41 46.0078C277.559 46.3906 277.633 46.862 277.633 47.4219V47.8125H273.008V47.0156H276.695C276.695 46.6771 276.628 46.375 276.492 46.1094C276.359 45.8437 276.169 45.6341 275.922 45.4805C275.677 45.3268 275.388 45.25 275.055 45.25C274.688 45.25 274.37 45.3411 274.102 45.5234C273.836 45.7031 273.632 45.9375 273.488 46.2266C273.345 46.5156 273.273 46.8255 273.273 47.1562V47.6875C273.273 48.1406 273.352 48.5247 273.508 48.8398C273.667 49.1523 273.887 49.3906 274.168 49.5547C274.449 49.7161 274.776 49.7969 275.148 49.7969C275.391 49.7969 275.609 49.763 275.805 49.6953C276.003 49.625 276.173 49.5208 276.316 49.3828C276.46 49.2422 276.57 49.0677 276.648 48.8594L277.539 49.1094C277.445 49.4115 277.288 49.6771 277.066 49.9062C276.845 50.1328 276.572 50.3099 276.246 50.4375C275.921 50.5625 275.555 50.625 275.148 50.625ZM278.87 50.5V44.5H279.761V45.4062H279.823C279.933 45.1094 280.131 44.8685 280.417 44.6836C280.703 44.4987 281.026 44.4062 281.386 44.4062C281.453 44.4062 281.538 44.4076 281.64 44.4102C281.741 44.4128 281.818 44.4167 281.87 44.4219V45.3594C281.839 45.3516 281.767 45.3398 281.655 45.3242C281.546 45.306 281.43 45.2969 281.308 45.2969C281.016 45.2969 280.756 45.3581 280.526 45.4805C280.3 45.6003 280.12 45.7669 279.987 45.9805C279.857 46.1914 279.792 46.4323 279.792 46.7031V50.5H278.87ZM285.711 50.5V49.7969L288.352 46.9062C288.662 46.5677 288.917 46.2734 289.117 46.0234C289.318 45.7708 289.466 45.5339 289.563 45.3125C289.662 45.0885 289.711 44.8542 289.711 44.6094C289.711 44.3281 289.643 44.0846 289.508 43.8789C289.375 43.6732 289.193 43.5143 288.961 43.4023C288.729 43.2904 288.469 43.2344 288.18 43.2344C287.873 43.2344 287.604 43.2982 287.375 43.4258C287.149 43.5508 286.973 43.7266 286.848 43.9531C286.725 44.1797 286.664 44.4453 286.664 44.75H285.742C285.742 44.2812 285.85 43.8698 286.067 43.5156C286.283 43.1615 286.577 42.8854 286.949 42.6875C287.324 42.4896 287.745 42.3906 288.211 42.3906C288.68 42.3906 289.095 42.4896 289.457 42.6875C289.819 42.8854 290.103 43.1523 290.309 43.4883C290.514 43.8242 290.617 44.1979 290.617 44.6094C290.617 44.9036 290.564 45.1914 290.457 45.4727C290.353 45.7513 290.171 46.0625 289.91 46.4062C289.652 46.7474 289.294 47.1641 288.836 47.6562L287.039 49.5781V49.6406H290.758V50.5H285.711ZM294.816 50.6094C294.227 50.6094 293.726 50.4492 293.312 50.1289C292.898 49.806 292.581 49.3385 292.362 48.7266C292.144 48.112 292.034 47.3698 292.034 46.5C292.034 45.6354 292.144 44.8971 292.362 44.2852C292.584 43.6706 292.902 43.2018 293.316 42.8789C293.732 42.5534 294.232 42.3906 294.816 42.3906C295.399 42.3906 295.898 42.5534 296.312 42.8789C296.728 43.2018 297.046 43.6706 297.265 44.2852C297.486 44.8971 297.597 45.6354 297.597 46.5C297.597 47.3698 297.487 48.112 297.269 48.7266C297.05 49.3385 296.734 49.806 296.319 50.1289C295.905 50.4492 295.404 50.6094 294.816 50.6094ZM294.816 49.75C295.399 49.75 295.852 49.4687 296.175 48.9062C296.498 48.3437 296.659 47.5417 296.659 46.5C296.659 45.8073 296.585 45.2174 296.437 44.7305C296.291 44.2435 296.08 43.8724 295.804 43.6172C295.53 43.362 295.201 43.2344 294.816 43.2344C294.237 43.2344 293.786 43.5195 293.46 44.0898C293.135 44.6576 292.972 45.4609 292.972 46.5C292.972 47.1927 293.045 47.7812 293.191 48.2656C293.336 48.75 293.546 49.1185 293.819 49.3711C294.096 49.6237 294.428 49.75 294.816 49.75ZM298.916 50.5V49.7969L301.557 46.9062C301.867 46.5677 302.122 46.2734 302.322 46.0234C302.523 45.7708 302.671 45.5339 302.768 45.3125C302.867 45.0885 302.916 44.8542 302.916 44.6094C302.916 44.3281 302.849 44.0846 302.713 43.8789C302.58 43.6732 302.398 43.5143 302.166 43.4023C301.934 43.2904 301.674 43.2344 301.385 43.2344C301.078 43.2344 300.809 43.2982 300.58 43.4258C300.354 43.5508 300.178 43.7266 300.053 43.9531C299.931 44.1797 299.869 44.4453 299.869 44.75H298.947C298.947 44.2812 299.056 43.8698 299.272 43.5156C299.488 43.1615 299.782 42.8854 300.154 42.6875C300.529 42.4896 300.95 42.3906 301.416 42.3906C301.885 42.3906 302.3 42.4896 302.662 42.6875C303.024 42.8854 303.308 43.1523 303.514 43.4883C303.72 43.8242 303.822 44.1979 303.822 44.6094C303.822 44.9036 303.769 45.1914 303.662 45.4727C303.558 45.7513 303.376 46.0625 303.115 46.4062C302.858 46.7474 302.5 47.1641 302.041 47.6562L300.244 49.5781V49.6406H303.963V50.5H298.916ZM305.052 48.8594V48.0625L308.568 42.5H309.146V43.7344H308.755L306.099 47.9375V48H310.833V48.8594H305.052ZM308.818 50.5V48.6172V48.2461V42.5H309.739V50.5H308.818Z" fill="#C6C6C8"/>
<rect x="321.5" y="32" width="164" height="28" rx="6" fill="#3C46C9"/>
<rect x="327.5" y="37" width="18" height="18" rx="3.5" fill="#F1EFEF"/>
<path d="M336.5 52.25H335.562C333.205 52.25 332.027 52.25 331.295 51.5177C330.562 50.7855 330.562 49.607 330.563 47.2499L330.563 44.75C330.563 42.393 330.563 41.2145 331.295 40.4822C332.027 39.75 333.206 39.75 335.562 39.75H336.187C338.544 39.75 339.723 39.75 340.455 40.4822C341.187 41.2145 341.187 42.393 341.187 44.75V45.375" stroke="#3C46C9" stroke-width="1.25" stroke-linecap="round" stroke-linejoin="round"/>
<path d="M333.375 42.875H338.375M333.375 46H336.188" stroke="#3C46C9" stroke-width="1.25" stroke-linecap="round" stroke-linejoin="round"/>
<path d="M339.938 51.4829C341.042 51.4829 341.938 50.5672 341.938 49.4375C341.938 48.3078 341.042 47.3921 339.938 47.3921M339.938 51.4829C338.833 51.4829 337.938 50.5672 337.938 49.4375C337.938 48.3078 338.833 47.3921 339.938 47.3921M339.938 51.4829V52.25M339.938 47.3921V46.625M338.12 48.3218L337.438 47.9034M342.438 50.9716L341.756 50.5532M341.755 48.3218L342.437 47.9034M337.438 50.9716L338.119 50.5532" stroke="#3C46C9" stroke-width="1.25" stroke-linecap="round"/>
<path opacity="0.4" d="M341.187 44.75V47.25C341.187 47.4552 341.187 47.6516 341.187 47.8394C340.845 47.5592 340.41 47.3916 339.938 47.3916C338.833 47.3916 337.938 48.3074 337.938 49.4371C337.938 50.5667 338.833 51.4825 339.938 51.4825C340.165 51.4825 340.383 51.4439 340.586 51.3727C340.545 51.423 340.502 51.4713 340.455 51.5177C339.723 52.25 338.544 52.25 336.187 52.25H335.562C333.205 52.25 332.027 52.25 331.295 51.5177C330.562 50.7855 330.562 49.607 330.563 47.2499L330.563 44.75C330.563 42.393 330.563 41.2145 331.295 40.4822C332.027 39.75 333.206 39.75 335.562 39.75H336.187C338.544 39.75 339.723 39.75 340.455 40.4822C341.187 41.2145 341.187 42.393 341.187 44.75Z" fill="#3C46C9"/>
<path d="M352.097 51.5H350.128L353.713 41.3182H355.99L359.579 51.5H357.61L354.891 43.4062H354.811L352.097 51.5ZM352.161 47.5078H357.531V48.9893H352.161V47.5078ZM360.631 54.3636V43.8636H362.4V45.1264H362.505C362.598 44.9408 362.729 44.7436 362.898 44.5348C363.067 44.3227 363.295 44.142 363.584 43.9929C363.872 43.8404 364.24 43.7642 364.687 43.7642C365.277 43.7642 365.809 43.915 366.283 44.2166C366.761 44.5149 367.138 44.9574 367.417 45.544C367.699 46.1274 367.839 46.8433 367.839 47.6918C367.839 48.5303 367.702 49.2429 367.427 49.8295C367.152 50.4162 366.777 50.8636 366.303 51.1719C365.829 51.4801 365.292 51.6342 364.692 51.6342C364.255 51.6342 363.892 51.5613 363.604 51.4155C363.315 51.2696 363.083 51.094 362.908 50.8885C362.735 50.6797 362.601 50.4825 362.505 50.2969H362.43V54.3636H360.631ZM362.395 47.6818C362.395 48.1757 362.465 48.6082 362.604 48.9794C362.747 49.3506 362.951 49.6406 363.216 49.8494C363.484 50.0549 363.809 50.1577 364.19 50.1577C364.588 50.1577 364.921 50.0516 365.19 49.8395C365.458 49.6241 365.66 49.3307 365.796 48.9595C365.935 48.585 366.005 48.1591 366.005 47.6818C366.005 47.2079 365.937 46.7869 365.801 46.419C365.665 46.0511 365.463 45.7628 365.194 45.554C364.926 45.3452 364.591 45.2408 364.19 45.2408C363.806 45.2408 363.479 45.3419 363.211 45.544C362.942 45.7462 362.739 46.0296 362.599 46.3942C362.463 46.7588 362.395 47.188 362.395 47.6818ZM371.368 51.6541C370.884 51.6541 370.448 51.5679 370.06 51.3956C369.676 51.2199 369.371 50.9614 369.146 50.62C368.924 50.2786 368.813 49.8577 368.813 49.3572C368.813 48.9264 368.892 48.5701 369.051 48.2884C369.21 48.0066 369.427 47.7812 369.703 47.6122C369.978 47.4432 370.288 47.3156 370.632 47.2294C370.98 47.1399 371.34 47.0753 371.711 47.0355C372.159 46.9891 372.521 46.9477 372.8 46.9112C373.078 46.8714 373.28 46.8118 373.406 46.7322C373.536 46.6494 373.6 46.5218 373.6 46.3494V46.3196C373.6 45.9451 373.489 45.6551 373.267 45.4496C373.045 45.2441 372.725 45.1413 372.308 45.1413C371.867 45.1413 371.517 45.2375 371.259 45.4297C371.003 45.6219 370.831 45.849 370.742 46.1108L369.061 45.8722C369.194 45.4081 369.413 45.0204 369.717 44.7088C370.022 44.3939 370.395 44.1586 370.836 44.0028C371.277 43.8438 371.764 43.7642 372.298 43.7642C372.666 43.7642 373.032 43.8073 373.396 43.8935C373.761 43.9796 374.094 44.1222 374.396 44.321C374.697 44.5166 374.939 44.7834 375.122 45.1214C375.307 45.4595 375.4 45.8821 375.4 46.3892V51.5H373.67V50.451H373.61C373.501 50.6631 373.347 50.862 373.148 51.0476C372.952 51.2299 372.705 51.3774 372.407 51.4901C372.112 51.5994 371.766 51.6541 371.368 51.6541ZM371.835 50.3317C372.197 50.3317 372.51 50.2604 372.775 50.1179C373.04 49.9721 373.244 49.7798 373.386 49.5412C373.532 49.3026 373.605 49.0424 373.605 48.7607V47.8608C373.549 47.9072 373.453 47.9503 373.317 47.9901C373.184 48.0298 373.035 48.0646 372.869 48.0945C372.704 48.1243 372.54 48.1508 372.377 48.174C372.215 48.1972 372.074 48.2171 371.955 48.2337C371.686 48.2701 371.446 48.3298 371.234 48.4126C371.022 48.4955 370.854 48.6115 370.732 48.7607C370.609 48.9065 370.548 49.0954 370.548 49.3274C370.548 49.6589 370.669 49.9091 370.911 50.0781C371.153 50.2472 371.461 50.3317 371.835 50.3317ZM380.331 51.6491C379.568 51.6491 378.914 51.4818 378.367 51.147C377.823 50.8123 377.404 50.3499 377.109 49.7599C376.817 49.1667 376.672 48.4839 376.672 47.7116C376.672 46.9361 376.821 46.2517 377.119 45.6584C377.417 45.0618 377.838 44.5978 378.382 44.2663C378.929 43.9316 379.575 43.7642 380.321 43.7642C380.94 43.7642 381.489 43.8786 381.966 44.1072C382.447 44.3326 382.83 44.6525 383.115 45.0668C383.4 45.4777 383.562 45.9583 383.602 46.5085H381.882C381.812 46.1406 381.646 45.834 381.385 45.5888C381.126 45.3402 380.78 45.2159 380.346 45.2159C379.978 45.2159 379.654 45.3153 379.376 45.5142C379.098 45.7098 378.881 45.9915 378.725 46.3594C378.572 46.7273 378.496 47.1681 378.496 47.6818C378.496 48.2022 378.572 48.6496 378.725 49.0241C378.877 49.3954 379.091 49.6821 379.366 49.8842C379.645 50.0831 379.971 50.1825 380.346 50.1825C380.611 50.1825 380.848 50.1328 381.056 50.0334C381.269 49.9306 381.446 49.7831 381.588 49.5909C381.731 49.3987 381.829 49.165 381.882 48.8899H383.602C383.559 49.4302 383.4 49.9091 383.125 50.3267C382.85 50.741 382.475 51.0658 382.001 51.3011C381.527 51.5331 380.97 51.6491 380.331 51.6491ZM386.669 47.0256V51.5H384.87V41.3182H386.63V45.1612H386.719C386.898 44.7304 387.175 44.3906 387.549 44.142C387.927 43.8902 388.408 43.7642 388.991 43.7642C389.521 43.7642 389.984 43.8752 390.378 44.0973C390.773 44.3194 391.078 44.6442 391.293 45.0717C391.512 45.4993 391.621 46.0213 391.621 46.6378V51.5H389.821V46.9162C389.821 46.4025 389.689 46.0031 389.424 45.718C389.162 45.4297 388.794 45.2855 388.32 45.2855C388.002 45.2855 387.717 45.3551 387.465 45.4943C387.216 45.6302 387.021 45.8274 386.878 46.0859C386.739 46.3445 386.669 46.6577 386.669 47.0256ZM396.626 51.6491C395.861 51.6491 395.199 51.4901 394.643 51.1719C394.089 50.8504 393.663 50.3963 393.365 49.8097C393.067 49.2197 392.918 48.5253 392.918 47.7266C392.918 46.9411 393.067 46.2517 393.365 45.6584C393.667 45.0618 394.088 44.5978 394.628 44.2663C395.168 43.9316 395.803 43.7642 396.532 43.7642C397.003 43.7642 397.447 43.8404 397.864 43.9929C398.285 44.142 398.656 44.3741 398.978 44.6889C399.303 45.0038 399.558 45.4048 399.744 45.892C399.929 46.3759 400.022 46.9527 400.022 47.6222V48.174H393.763V46.9609H398.297C398.293 46.6162 398.219 46.3097 398.073 46.0412C397.927 45.7694 397.723 45.5556 397.462 45.3999C397.203 45.2441 396.901 45.1662 396.557 45.1662C396.189 45.1662 395.866 45.2557 395.587 45.4347C395.309 45.6103 395.092 45.8423 394.936 46.1307C394.784 46.4157 394.706 46.7289 394.702 47.0703V48.1293C394.702 48.5734 394.784 48.9545 394.946 49.2727C395.108 49.5876 395.335 49.8295 395.627 49.9986C395.919 50.1643 396.26 50.2472 396.651 50.2472C396.913 50.2472 397.15 50.2107 397.362 50.1378C397.574 50.0616 397.758 49.9505 397.914 49.8047C398.07 49.6589 398.187 49.4782 398.267 49.2628L399.947 49.4517C399.841 49.8958 399.639 50.2836 399.341 50.6151C399.046 50.9432 398.668 51.1984 398.207 51.3807C397.747 51.5597 397.22 51.6491 396.626 51.6491ZM404.577 51.5V50.1676L408.112 46.7024C408.45 46.361 408.732 46.0578 408.957 45.7926C409.183 45.5275 409.352 45.2706 409.464 45.022C409.577 44.7734 409.633 44.5083 409.633 44.2266C409.633 43.9051 409.56 43.63 409.415 43.4013C409.269 43.1693 409.068 42.9903 408.813 42.8643C408.558 42.7384 408.268 42.6754 407.943 42.6754C407.608 42.6754 407.315 42.745 407.063 42.8842C406.811 43.0201 406.616 43.214 406.476 43.4659C406.341 43.7178 406.273 44.0178 406.273 44.3658H404.518C404.518 43.7195 404.665 43.1577 404.96 42.6804C405.255 42.2031 405.661 41.8336 406.178 41.5717C406.698 41.3099 407.295 41.179 407.968 41.179C408.651 41.179 409.251 41.3066 409.768 41.5618C410.285 41.817 410.686 42.1667 410.971 42.6108C411.259 43.0549 411.403 43.562 411.403 44.1321C411.403 44.5133 411.33 44.8878 411.184 45.2557C411.039 45.6236 410.782 46.0312 410.414 46.4787C410.049 46.9261 409.537 47.468 408.878 48.1044L407.123 49.8892V49.9588H411.557V51.5H404.577ZM414.191 51.6094C413.89 51.6094 413.631 51.5033 413.416 51.2912C413.2 51.0791 413.094 50.8205 413.097 50.5156C413.094 50.2173 413.2 49.9621 413.416 49.75C413.631 49.5379 413.89 49.4318 414.191 49.4318C414.483 49.4318 414.736 49.5379 414.952 49.75C415.171 49.9621 415.282 50.2173 415.285 50.5156C415.282 50.7178 415.229 50.9018 415.126 51.0675C415.026 51.2332 414.894 51.3658 414.728 51.4652C414.566 51.5613 414.387 51.6094 414.191 51.6094ZM420.28 51.6939C419.461 51.6939 418.759 51.4867 418.172 51.0724C417.589 50.6548 417.14 50.0533 416.825 49.2678C416.513 48.4789 416.358 47.5294 416.358 46.419C416.361 45.3087 416.518 44.3641 416.83 43.5852C417.145 42.803 417.594 42.2064 418.177 41.7955C418.764 41.3845 419.465 41.179 420.28 41.179C421.095 41.179 421.796 41.3845 422.383 41.7955C422.97 42.2064 423.419 42.803 423.73 43.5852C424.045 44.3674 424.203 45.312 424.203 46.419C424.203 47.5327 424.045 48.4839 423.73 49.2727C423.419 50.0582 422.97 50.6581 422.383 51.0724C421.8 51.4867 421.099 51.6939 420.28 51.6939ZM420.28 50.1378C420.916 50.1378 421.419 49.8246 421.787 49.1982C422.158 48.5684 422.343 47.642 422.343 46.419C422.343 45.6103 422.259 44.9309 422.09 44.3807C421.921 43.8305 421.682 43.4162 421.374 43.1378C421.066 42.8561 420.701 42.7152 420.28 42.7152C419.647 42.7152 419.147 43.0301 418.779 43.6598C418.411 44.2862 418.225 45.206 418.222 46.419C418.219 47.2311 418.3 47.9138 418.465 48.4673C418.635 49.0208 418.873 49.4384 419.181 49.7202C419.49 49.9986 419.856 50.1378 420.28 50.1378ZM429.007 51.5V41.3182H430.851V49.9538H435.335V51.5H429.007ZM436.647 51.5V43.8636H438.446V51.5H436.647ZM437.552 42.7798C437.267 42.7798 437.021 42.6854 436.816 42.4964C436.61 42.3042 436.508 42.0739 436.508 41.8054C436.508 41.5336 436.61 41.3033 436.816 41.1143C437.021 40.9221 437.267 40.826 437.552 40.826C437.84 40.826 438.085 40.9221 438.287 41.1143C438.493 41.3033 438.596 41.5336 438.596 41.8054C438.596 42.0739 438.493 42.3042 438.287 42.4964C438.085 42.6854 437.84 42.7798 437.552 42.7798ZM443.418 51.6491C442.656 51.6491 442.001 51.4818 441.454 51.147C440.911 50.8123 440.491 50.3499 440.197 49.7599C439.905 49.1667 439.759 48.4839 439.759 47.7116C439.759 46.9361 439.908 46.2517 440.206 45.6584C440.505 45.0618 440.926 44.5978 441.469 44.2663C442.016 43.9316 442.662 43.7642 443.408 43.7642C444.028 43.7642 444.576 43.8786 445.054 44.1072C445.534 44.3326 445.917 44.6525 446.202 45.0668C446.487 45.4777 446.65 45.9583 446.689 46.5085H444.969C444.9 46.1406 444.734 45.834 444.472 45.5888C444.214 45.3402 443.867 45.2159 443.433 45.2159C443.065 45.2159 442.742 45.3153 442.464 45.5142C442.185 45.7098 441.968 45.9915 441.812 46.3594C441.66 46.7273 441.584 47.1681 441.584 47.6818C441.584 48.2022 441.66 48.6496 441.812 49.0241C441.965 49.3954 442.179 49.6821 442.454 49.8842C442.732 50.0831 443.058 50.1825 443.433 50.1825C443.698 50.1825 443.935 50.1328 444.144 50.0334C444.356 49.9306 444.533 49.7831 444.676 49.5909C444.818 49.3987 444.916 49.165 444.969 48.8899H446.689C446.646 49.4302 446.487 49.9091 446.212 50.3267C445.937 50.741 445.563 51.0658 445.089 51.3011C444.615 51.5331 444.058 51.6491 443.418 51.6491ZM451.338 51.6491C450.572 51.6491 449.911 51.4901 449.354 51.1719C448.801 50.8504 448.375 50.3963 448.077 49.8097C447.778 49.2197 447.629 48.5253 447.629 47.7266C447.629 46.9411 447.778 46.2517 448.077 45.6584C448.378 45.0618 448.799 44.5978 449.339 44.2663C449.88 43.9316 450.514 43.7642 451.243 43.7642C451.714 43.7642 452.158 43.8404 452.576 43.9929C452.997 44.142 453.368 44.3741 453.689 44.6889C454.014 45.0038 454.269 45.4048 454.455 45.892C454.641 46.3759 454.733 46.9527 454.733 47.6222V48.174H448.474V46.9609H453.008C453.005 46.6162 452.93 46.3097 452.785 46.0412C452.639 45.7694 452.435 45.5556 452.173 45.3999C451.915 45.2441 451.613 45.1662 451.268 45.1662C450.9 45.1662 450.577 45.2557 450.299 45.4347C450.02 45.6103 449.803 45.8423 449.648 46.1307C449.495 46.4157 449.417 46.7289 449.414 47.0703V48.1293C449.414 48.5734 449.495 48.9545 449.658 49.2727C449.82 49.5876 450.047 49.8295 450.339 49.9986C450.63 50.1643 450.972 50.2472 451.363 50.2472C451.625 50.2472 451.862 50.2107 452.074 50.1378C452.286 50.0616 452.47 49.9505 452.626 49.8047C452.781 49.6589 452.899 49.4782 452.979 49.2628L454.659 49.4517C454.553 49.8958 454.351 50.2836 454.052 50.6151C453.757 50.9432 453.38 51.1984 452.919 51.3807C452.458 51.5597 451.931 51.6491 451.338 51.6491ZM457.846 47.0256V51.5H456.046V43.8636H457.766V45.1612H457.856C458.031 44.7337 458.311 44.3939 458.696 44.142C459.084 43.8902 459.563 43.7642 460.133 43.7642C460.66 43.7642 461.119 43.8769 461.51 44.1023C461.904 44.3277 462.209 44.6541 462.425 45.0817C462.643 45.5092 462.751 46.0279 462.748 46.6378V51.5H460.948V46.9162C460.948 46.4058 460.815 46.0064 460.55 45.718C460.288 45.4297 459.926 45.2855 459.462 45.2855C459.147 45.2855 458.867 45.3551 458.621 45.4943C458.379 45.6302 458.189 45.8274 458.05 46.0859C457.914 46.3445 457.846 46.6577 457.846 47.0256ZM470.403 45.8821L468.762 46.0611C468.716 45.8954 468.635 45.7396 468.519 45.5938C468.406 45.4479 468.253 45.3303 468.061 45.2408C467.869 45.1513 467.634 45.1065 467.355 45.1065C466.981 45.1065 466.666 45.1877 466.411 45.3501C466.159 45.5125 466.034 45.723 466.038 45.9815C466.034 46.2036 466.116 46.3842 466.281 46.5234C466.45 46.6626 466.729 46.777 467.117 46.8665L468.419 47.1449C469.142 47.3007 469.679 47.5476 470.03 47.8857C470.385 48.2237 470.564 48.6662 470.567 49.2131C470.564 49.6937 470.423 50.1179 470.144 50.4858C469.869 50.8504 469.486 51.1354 468.996 51.3409C468.505 51.5464 467.942 51.6491 467.306 51.6491C466.371 51.6491 465.618 51.4536 465.048 51.0625C464.478 50.6681 464.139 50.1196 464.029 49.4169L465.784 49.2479C465.864 49.5926 466.033 49.8527 466.291 50.0284C466.55 50.2041 466.886 50.2919 467.301 50.2919C467.728 50.2919 468.071 50.2041 468.33 50.0284C468.591 49.8527 468.722 49.6357 468.722 49.3771C468.722 49.1584 468.638 48.9777 468.469 48.8352C468.303 48.6927 468.045 48.5833 467.693 48.5071L466.391 48.2337C465.658 48.0812 465.116 47.8243 464.765 47.4631C464.414 47.0985 464.24 46.6378 464.243 46.081C464.24 45.6103 464.367 45.2027 464.626 44.858C464.888 44.5099 465.251 44.2415 465.715 44.0526C466.182 43.8603 466.721 43.7642 467.33 43.7642C468.225 43.7642 468.93 43.9548 469.443 44.3359C469.96 44.7171 470.28 45.2325 470.403 45.8821ZM475.222 51.6491C474.456 51.6491 473.795 51.4901 473.238 51.1719C472.684 50.8504 472.259 50.3963 471.96 49.8097C471.662 49.2197 471.513 48.5253 471.513 47.7266C471.513 46.9411 471.662 46.2517 471.96 45.6584C472.262 45.0618 472.683 44.5978 473.223 44.2663C473.763 43.9316 474.398 43.7642 475.127 43.7642C475.598 43.7642 476.042 43.8404 476.459 43.9929C476.88 44.142 477.252 44.3741 477.573 44.6889C477.898 45.0038 478.153 45.4048 478.339 45.892C478.524 46.3759 478.617 46.9527 478.617 47.6222V48.174H472.358V46.9609H476.892C476.889 46.6162 476.814 46.3097 476.668 46.0412C476.522 45.7694 476.319 45.5556 476.057 45.3999C475.798 45.2441 475.497 45.1662 475.152 45.1662C474.784 45.1662 474.461 45.2557 474.183 45.4347C473.904 45.6103 473.687 45.8423 473.531 46.1307C473.379 46.4157 473.301 46.7289 473.298 47.0703V48.1293C473.298 48.5734 473.379 48.9545 473.541 49.2727C473.704 49.5876 473.931 49.8295 474.222 49.9986C474.514 50.1643 474.855 50.2472 475.246 50.2472C475.508 50.2472 475.745 50.2107 475.957 50.1378C476.169 50.0616 476.353 49.9505 476.509 49.8047C476.665 49.6589 476.783 49.4782 476.862 49.2628L478.543 49.4517C478.437 49.8958 478.234 50.2836 477.936 50.6151C477.641 50.9432 477.263 51.1984 476.803 51.3807C476.342 51.5597 475.815 51.6491 475.222 51.6491Z" fill="#F1EFEF"/>
</svg>
