<svg width="465" height="68" viewBox="0 0 465 68" fill="none" xmlns="http://www.w3.org/2000/svg">
<rect x="34.5" width="82" height="28" rx="6" fill="#259E51"/>
<rect x="40.5" y="5" width="18" height="18" rx="3.5" fill="#F1EFEF"/>
<path opacity="0.4" d="M43.5625 14C43.5625 11.201 43.5625 9.80156 44.432 8.93202C45.3016 8.0625 46.701 8.0625 49.5 8.0625C52.2989 8.0625 53.6984 8.0625 54.568 8.93202C55.4375 9.80156 55.4375 11.201 55.4375 14C55.4375 16.7989 55.4375 18.1984 54.568 19.068C53.6984 19.9375 52.2989 19.9375 49.5 19.9375C46.701 19.9375 45.3016 19.9375 44.432 19.068C43.5625 18.1984 43.5625 16.7989 43.5625 14Z" fill="#259E51"/>
<path d="M52 12.75L52.7666 13.4108C53.0889 13.6885 53.25 13.8274 53.25 14C53.25 14.1726 53.0889 14.3115 52.7666 14.5892L52 15.25" stroke="#259E51" stroke-width="1.25" stroke-linecap="round" stroke-linejoin="round"/>
<path d="M47 12.75L46.2334 13.4108C45.9111 13.6885 45.75 13.8274 45.75 14C45.75 14.1726 45.9111 14.3115 46.2334 14.5892L47 15.25" stroke="#259E51" stroke-width="1.25" stroke-linecap="round" stroke-linejoin="round"/>
<path d="M50.125 12.125L48.875 15.875" stroke="#259E51" stroke-width="1.25" stroke-linecap="round" stroke-linejoin="round"/>
<path d="M43.5625 14C43.5625 11.201 43.5625 9.80156 44.432 8.93202C45.3016 8.0625 46.701 8.0625 49.5 8.0625C52.2989 8.0625 53.6984 8.0625 54.568 8.93202C55.4375 9.80156 55.4375 11.201 55.4375 14C55.4375 16.7989 55.4375 18.1984 54.568 19.068C53.6984 19.9375 52.2989 19.9375 49.5 19.9375C46.701 19.9375 45.3016 19.9375 44.432 19.068C43.5625 18.1984 43.5625 16.7989 43.5625 14Z" stroke="#259E51" stroke-width="1.25"/>
<path d="M69.0856 12.1172C69.0392 11.683 68.8437 11.3449 68.499 11.103C68.1576 10.861 67.7135 10.7401 67.1666 10.7401C66.7821 10.7401 66.4523 10.7981 66.1772 10.9141C65.9021 11.0301 65.6917 11.1875 65.5458 11.3864C65.4 11.5852 65.3254 11.8123 65.3221 12.0675C65.3221 12.2796 65.3702 12.4635 65.4663 12.6193C65.5657 12.7751 65.7 12.9077 65.869 13.017C66.038 13.1231 66.2253 13.2126 66.4308 13.2855C66.6363 13.3584 66.8434 13.4197 67.0522 13.4695L68.0068 13.7081C68.3912 13.7976 68.7608 13.9186 69.1154 14.071C69.4734 14.2235 69.7932 14.4157 70.075 14.6477C70.36 14.8797 70.5854 15.1598 70.7511 15.4879C70.9168 15.8161 70.9997 16.2005 70.9997 16.6413C70.9997 17.2379 70.8472 17.7633 70.5423 18.2173C70.2374 18.6681 69.7965 19.0211 69.2198 19.2763C68.6465 19.5282 67.9521 19.6541 67.1367 19.6541C66.3446 19.6541 65.6569 19.5315 65.0735 19.2862C64.4935 19.041 64.0394 18.683 63.7113 18.2124C63.3865 17.7417 63.2108 17.1683 63.1843 16.4922H64.999C65.0255 16.8468 65.1349 17.1418 65.3271 17.3771C65.5193 17.6125 65.7696 17.7881 66.0778 17.9041C66.3894 18.0201 66.7374 18.0781 67.1218 18.0781C67.5229 18.0781 67.8742 18.0185 68.1758 17.8991C68.4807 17.7765 68.7194 17.6075 68.8917 17.392C69.0641 17.1733 69.1519 16.9181 69.1552 16.6264C69.1519 16.3613 69.074 16.1425 68.9215 15.9702C68.7691 15.7945 68.5553 15.6487 68.2802 15.5327C68.0084 15.4134 67.6903 15.3073 67.3257 15.2145L66.1673 14.9162C65.3287 14.7008 64.6659 14.3743 64.1786 13.9368C63.6947 13.496 63.4528 12.911 63.4528 12.1818C63.4528 11.5819 63.6152 11.0566 63.94 10.6058C64.2681 10.1551 64.7139 9.8054 65.2774 9.55682C65.8408 9.30492 66.4788 9.17898 67.1914 9.17898C67.914 9.17898 68.547 9.30492 69.0906 9.55682C69.6375 9.8054 70.0667 10.1518 70.3782 10.5959C70.6898 11.0367 70.8505 11.5438 70.8605 12.1172H69.0856ZM73.9305 19.5L71.7728 11.8636H73.6073L74.9497 17.233H75.0193L76.3914 11.8636H78.206L79.5782 17.2031H79.6528L80.9752 11.8636H82.8147L80.6521 19.5H78.7778L77.346 14.3395H77.2416L75.8097 19.5H73.9305ZM83.8613 19.5V11.8636H85.661V19.5H83.8613ZM84.7661 10.7798C84.4811 10.7798 84.2358 10.6854 84.0303 10.4964C83.8248 10.3042 83.7221 10.0739 83.7221 9.8054C83.7221 9.53362 83.8248 9.30327 84.0303 9.11435C84.2358 8.92211 84.4811 8.82599 84.7661 8.82599C85.0545 8.82599 85.2997 8.92211 85.5019 9.11435C85.7074 9.30327 85.8101 9.53362 85.8101 9.8054C85.8101 10.0739 85.7074 10.3042 85.5019 10.4964C85.2997 10.6854 85.0545 10.7798 84.7661 10.7798ZM91.1696 11.8636V13.2557H86.6554V11.8636H91.1696ZM87.7839 19.5V11.1428C87.7839 10.629 87.89 10.2015 88.1021 9.86008C88.3175 9.5187 88.6059 9.26349 88.9672 9.09446C89.3284 8.92543 89.7295 8.84091 90.1703 8.84091C90.4818 8.84091 90.7586 8.86577 91.0005 8.91548C91.2425 8.9652 91.4215 9.00994 91.5375 9.04972L91.1795 10.4418C91.1033 10.4186 91.0072 10.3954 90.8912 10.3722C90.7752 10.3456 90.6459 10.3324 90.5034 10.3324C90.1686 10.3324 89.9316 10.4136 89.7924 10.576C89.6565 10.7351 89.5886 10.9638 89.5886 11.2621V19.5H87.7839ZM96.1822 11.8636V13.2557H91.7923V11.8636H96.1822ZM92.8761 10.0341H94.6758V17.2031C94.6758 17.4451 94.7123 17.6307 94.7852 17.7599C94.8614 17.8859 94.9609 17.9721 95.0835 18.0185C95.2061 18.0649 95.342 18.0881 95.4912 18.0881C95.6039 18.0881 95.7066 18.0798 95.7994 18.0632C95.8955 18.0466 95.9684 18.0317 96.0182 18.0185L96.3214 19.4254C96.2253 19.4586 96.0878 19.495 95.9088 19.5348C95.7331 19.5746 95.5177 19.5978 95.2625 19.6044C94.8117 19.6177 94.4057 19.5497 94.0444 19.4006C93.6832 19.2481 93.3965 19.0128 93.1844 18.6946C92.9755 18.3764 92.8728 17.9787 92.8761 17.5014V10.0341ZM103.975 9.31818H105.82V15.9702C105.82 16.6993 105.647 17.3407 105.303 17.8942C104.961 18.4477 104.481 18.8802 103.861 19.1918C103.241 19.5 102.517 19.6541 101.688 19.6541C100.856 19.6541 100.131 19.5 99.5108 19.1918C98.891 18.8802 98.4104 18.4477 98.069 17.8942C97.7276 17.3407 97.5569 16.6993 97.5569 15.9702V9.31818H99.4014V15.8161C99.4014 16.2403 99.4942 16.6181 99.6798 16.9496C99.8687 17.281 100.134 17.5412 100.475 17.7301C100.817 17.9157 101.221 18.0085 101.688 18.0085C102.156 18.0085 102.56 17.9157 102.901 17.7301C103.246 17.5412 103.511 17.281 103.697 16.9496C103.882 16.6181 103.975 16.2403 103.975 15.8161V9.31818ZM109.459 9.31818V19.5H107.614V9.31818H109.459Z" fill="#F1EFEF"/>
<rect x="120.5" width="80" height="28" rx="6" fill="#3C46C9"/>
<rect x="126.5" y="5" width="18" height="18" rx="3.5" fill="#F1EFEF"/>
<path opacity="0.4" d="M131.766 8.39064C131.125 9.03135 131.125 10.0625 131.125 12.1249V15.8749C131.125 17.9373 131.125 18.9685 131.766 19.6092C132.406 20.2499 133.438 20.2499 135.5 20.2499C137.562 20.2499 138.594 20.2499 139.234 19.6092C139.875 18.9685 139.875 17.9373 139.875 15.8749V12.1249C139.875 10.0625 139.875 9.03135 139.234 8.39064C138.826 7.98266 138.26 7.83446 137.37 7.78064L137.319 8.0837C137.199 8.807 137.139 9.16865 136.891 9.38871C136.632 9.61828 136.265 9.62494 135.5 9.62494C134.735 9.62494 134.368 9.61828 134.109 9.38871C133.861 9.16865 133.801 8.807 133.681 8.0837L133.63 7.78064C132.74 7.83446 132.174 7.98266 131.766 8.39064Z" fill="#3C46C9"/>
<path d="M131.125 12.125C131.125 10.0626 131.125 9.03141 131.766 8.39071C132.406 7.75 133.438 7.75 135.5 7.75C137.562 7.75 138.594 7.75 139.234 8.39071C139.875 9.03141 139.875 10.0626 139.875 12.125V15.875C139.875 17.9374 139.875 18.9686 139.234 19.6093C138.594 20.25 137.562 20.25 135.5 20.25C133.438 20.25 132.406 20.25 131.766 19.6093C131.125 18.9686 131.125 17.9374 131.125 15.875V12.125Z" stroke="#3C46C9" stroke-width="1.25" stroke-linecap="round"/>
<path d="M134.875 18.375H136.125" stroke="#3C46C9" stroke-width="1.25" stroke-linecap="round" stroke-linejoin="round"/>
<path d="M133.625 7.75L133.681 8.08376C133.801 8.80706 133.861 9.16871 134.109 9.38877C134.368 9.61834 134.735 9.625 135.5 9.625C136.265 9.625 136.632 9.61834 136.891 9.38877C137.139 9.16871 137.199 8.80706 137.319 8.08376L137.375 7.75" stroke="#3C46C9" stroke-width="1.25" stroke-linejoin="round"/>
<path d="M149.843 19.5V11.8636H151.642V19.5H149.843ZM150.748 10.7798C150.463 10.7798 150.217 10.6854 150.012 10.4964C149.806 10.3042 149.704 10.0739 149.704 9.8054C149.704 9.53362 149.806 9.30327 150.012 9.11435C150.217 8.92211 150.463 8.82599 150.748 8.82599C151.036 8.82599 151.281 8.92211 151.483 9.11435C151.689 9.30327 151.792 9.53362 151.792 9.8054C151.792 10.0739 151.689 10.3042 151.483 10.4964C151.281 10.6854 151.036 10.7798 150.748 10.7798ZM162.461 14.4091C162.461 15.5062 162.255 16.4458 161.844 17.228C161.437 18.0069 160.88 18.6035 160.174 19.0178C159.471 19.4321 158.674 19.6392 157.782 19.6392C156.891 19.6392 156.092 19.4321 155.386 19.0178C154.683 18.6001 154.127 18.0019 153.716 17.223C153.308 16.4408 153.104 15.5028 153.104 14.4091C153.104 13.312 153.308 12.3741 153.716 11.5952C154.127 10.813 154.683 10.2147 155.386 9.80043C156.092 9.38613 156.891 9.17898 157.782 9.17898C158.674 9.17898 159.471 9.38613 160.174 9.80043C160.88 10.2147 161.437 10.813 161.844 11.5952C162.255 12.3741 162.461 13.312 162.461 14.4091ZM160.606 14.4091C160.606 13.6368 160.485 12.9856 160.243 12.4553C160.005 11.9216 159.673 11.5189 159.249 11.2472C158.825 10.9721 158.336 10.8345 157.782 10.8345C157.229 10.8345 156.74 10.9721 156.316 11.2472C155.892 11.5189 155.558 11.9216 155.316 12.4553C155.078 12.9856 154.959 13.6368 154.959 14.4091C154.959 15.1813 155.078 15.8343 155.316 16.3679C155.558 16.8982 155.892 17.3009 156.316 17.576C156.74 17.8478 157.229 17.9837 157.782 17.9837C158.336 17.9837 158.825 17.8478 159.249 17.576C159.673 17.3009 160.005 16.8982 160.243 16.3679C160.485 15.8343 160.606 15.1813 160.606 14.4091ZM169.528 12.1172C169.481 11.683 169.286 11.3449 168.941 11.103C168.6 10.861 168.156 10.7401 167.609 10.7401C167.224 10.7401 166.895 10.7981 166.619 10.9141C166.344 11.0301 166.134 11.1875 165.988 11.3864C165.842 11.5852 165.768 11.8123 165.764 12.0675C165.764 12.2796 165.812 12.4635 165.909 12.6193C166.008 12.7751 166.142 12.9077 166.311 13.017C166.48 13.1231 166.668 13.2126 166.873 13.2855C167.079 13.3584 167.286 13.4197 167.494 13.4695L168.449 13.7081C168.833 13.7976 169.203 13.9186 169.558 14.071C169.916 14.2235 170.235 14.4157 170.517 14.6477C170.802 14.8797 171.028 15.1598 171.193 15.4879C171.359 15.8161 171.442 16.2005 171.442 16.6413C171.442 17.2379 171.289 17.7633 170.985 18.2173C170.68 18.6681 170.239 19.0211 169.662 19.2763C169.089 19.5282 168.394 19.6541 167.579 19.6541C166.787 19.6541 166.099 19.5315 165.516 19.2862C164.936 19.041 164.482 18.683 164.154 18.2124C163.829 17.7417 163.653 17.1683 163.627 16.4922H165.441C165.468 16.8468 165.577 17.1418 165.769 17.3771C165.962 17.6125 166.212 17.7881 166.52 17.9041C166.832 18.0201 167.18 18.0781 167.564 18.0781C167.965 18.0781 168.316 18.0185 168.618 17.8991C168.923 17.7765 169.162 17.6075 169.334 17.392C169.506 17.1733 169.594 16.9181 169.597 16.6264C169.594 16.3613 169.516 16.1425 169.364 15.9702C169.211 15.7945 168.998 15.6487 168.722 15.5327C168.451 15.4134 168.132 15.3073 167.768 15.2145L166.61 14.9162C165.771 14.7008 165.108 14.3743 164.621 13.9368C164.137 13.496 163.895 12.911 163.895 12.1818C163.895 11.5819 164.057 11.0566 164.382 10.6058C164.71 10.1551 165.156 9.8054 165.72 9.55682C166.283 9.30492 166.921 9.17898 167.634 9.17898C168.356 9.17898 168.989 9.30492 169.533 9.55682C170.08 9.8054 170.509 10.1518 170.82 10.5959C171.132 11.0367 171.293 11.5438 171.303 12.1172H169.528Z" fill="#F1EFEF"/>
<path d="M178.622 10.5V18.5H177.653V11.5156H177.606L175.653 12.8125V11.8281L177.653 10.5H178.622ZM183.46 18.6094C182.945 18.6094 182.485 18.5208 182.082 18.3437C181.681 18.1667 181.361 17.9206 181.125 17.6055C180.89 17.2878 180.763 16.9193 180.742 16.5H181.726C181.747 16.7578 181.835 16.9805 181.992 17.168C182.148 17.3529 182.352 17.4961 182.605 17.5977C182.858 17.6992 183.138 17.75 183.445 17.75C183.789 17.75 184.093 17.6901 184.359 17.5703C184.625 17.4505 184.833 17.2839 184.984 17.0703C185.135 16.8568 185.21 16.6094 185.21 16.3281C185.21 16.0339 185.138 15.7747 184.992 15.5508C184.846 15.3242 184.632 15.1471 184.351 15.0195C184.07 14.8919 183.726 14.8281 183.32 14.8281H182.679V13.9687H183.32C183.638 13.9687 183.916 13.9115 184.156 13.7969C184.398 13.6823 184.587 13.5208 184.722 13.3125C184.86 13.1042 184.929 12.8594 184.929 12.5781C184.929 12.3073 184.869 12.0716 184.75 11.8711C184.63 11.6706 184.46 11.5143 184.242 11.4023C184.026 11.2904 183.77 11.2344 183.476 11.2344C183.2 11.2344 182.94 11.2852 182.695 11.3867C182.453 11.4857 182.255 11.6302 182.101 11.8203C181.947 12.0078 181.864 12.2344 181.851 12.5H180.914C180.929 12.0807 181.056 11.7135 181.292 11.3984C181.529 11.0807 181.839 10.8333 182.222 10.6562C182.608 10.4792 183.031 10.3906 183.492 10.3906C183.986 10.3906 184.411 10.4909 184.765 10.6914C185.119 10.8893 185.391 11.151 185.582 11.4766C185.772 11.8021 185.867 12.1536 185.867 12.5313C185.867 12.9818 185.748 13.3659 185.511 13.6836C185.277 14.0013 184.958 14.2214 184.554 14.3438V14.4062C185.059 14.4896 185.454 14.7044 185.738 15.0508C186.022 15.3945 186.164 15.8203 186.164 16.3281C186.164 16.763 186.045 17.1536 185.808 17.5C185.574 17.8437 185.253 18.1146 184.847 18.3125C184.441 18.5104 183.979 18.6094 183.46 18.6094ZM189.956 17.0938V11.9375H190.831V17.0938H189.956ZM187.815 14.9531V14.0781H192.971V14.9531H187.815Z" fill="#C6C6C8"/>
<rect x="204.5" width="105" height="28" rx="6" fill="#3C46C9"/>
<rect x="210.5" y="5" width="18" height="18" rx="3.5" fill="#F1EFEF"/>
<path opacity="0.4" d="M221.062 7.75H217.938C216.17 7.75 215.286 7.75 214.737 8.29917C214.188 8.84835 214.188 9.73223 214.188 11.5V16.5C214.188 18.2677 214.188 19.1516 214.737 19.7008C215.286 20.25 216.17 20.25 217.938 20.25H221.062C222.83 20.25 223.714 20.25 224.263 19.7008C224.812 19.1516 224.812 18.2677 224.812 16.5V11.5C224.812 9.73223 224.812 8.84835 224.263 8.29917C223.714 7.75 222.83 7.75 221.062 7.75Z" fill="#3C46C9"/>
<path d="M221.062 7.75H217.938C216.17 7.75 215.286 7.75 214.737 8.29917C214.188 8.84835 214.188 9.73223 214.188 11.5V16.5C214.188 18.2677 214.188 19.1516 214.737 19.7008C215.286 20.25 216.17 20.25 217.938 20.25H221.062C222.83 20.25 223.714 20.25 224.263 19.7008C224.812 19.1516 224.812 18.2677 224.812 16.5V11.5C224.812 9.73223 224.812 8.84835 224.263 8.29917C223.714 7.75 222.83 7.75 221.062 7.75Z" stroke="#3C46C9" stroke-width="1.25" stroke-linecap="round"/>
<path d="M219.5 18.375H219.506" stroke="#3C46C9" stroke-width="1.25" stroke-linecap="round"/>
<path d="M233.792 19.5V11.8636H235.592V19.5H233.792ZM234.697 10.7798C234.412 10.7798 234.167 10.6854 233.962 10.4964C233.756 10.3042 233.653 10.0739 233.653 9.8054C233.653 9.53362 233.756 9.30327 233.962 9.11435C234.167 8.92211 234.412 8.82599 234.697 8.82599C234.986 8.82599 235.231 8.92211 235.433 9.11435C235.639 9.30327 235.741 9.53362 235.741 9.8054C235.741 10.0739 235.639 10.3042 235.433 10.4964C235.231 10.6854 234.986 10.7798 234.697 10.7798ZM237.312 19.5V9.31818H241.131C241.913 9.31818 242.569 9.46401 243.099 9.75568C243.633 10.0473 244.036 10.4484 244.307 10.9588C244.583 11.4659 244.72 12.0426 244.72 12.6889C244.72 13.3419 244.583 13.9219 244.307 14.429C244.032 14.9361 243.626 15.3355 243.089 15.6271C242.552 15.9155 241.891 16.0597 241.106 16.0597H238.575V14.5433H240.857C241.315 14.5433 241.689 14.4638 241.981 14.3047C242.272 14.1456 242.488 13.9268 242.627 13.6484C242.77 13.37 242.841 13.0502 242.841 12.6889C242.841 12.3277 242.77 12.0095 242.627 11.7344C242.488 11.4593 242.271 11.2455 241.976 11.093C241.684 10.9373 241.308 10.8594 240.847 10.8594H239.157V19.5H237.312ZM248.093 19.6541C247.609 19.6541 247.174 19.5679 246.786 19.3956C246.401 19.2199 246.096 18.9614 245.871 18.62C245.649 18.2786 245.538 17.8577 245.538 17.3572C245.538 16.9264 245.618 16.5701 245.777 16.2884C245.936 16.0066 246.153 15.7812 246.428 15.6122C246.703 15.4432 247.013 15.3156 247.358 15.2294C247.706 15.1399 248.065 15.0753 248.436 15.0355C248.884 14.9891 249.247 14.9477 249.525 14.9112C249.804 14.8714 250.006 14.8118 250.132 14.7322C250.261 14.6494 250.326 14.5218 250.326 14.3494V14.3196C250.326 13.9451 250.215 13.6551 249.993 13.4496C249.77 13.2441 249.451 13.1413 249.033 13.1413C248.592 13.1413 248.243 13.2375 247.984 13.4297C247.729 13.6219 247.556 13.849 247.467 14.1108L245.787 13.8722C245.919 13.4081 246.138 13.0204 246.443 12.7088C246.748 12.3939 247.121 12.1586 247.561 12.0028C248.002 11.8438 248.489 11.7642 249.023 11.7642C249.391 11.7642 249.757 11.8073 250.122 11.8935C250.486 11.9796 250.819 12.1222 251.121 12.321C251.423 12.5166 251.665 12.7834 251.847 13.1214C252.033 13.4595 252.125 13.8821 252.125 14.3892V19.5H250.395V18.451H250.336C250.226 18.6631 250.072 18.862 249.873 19.0476C249.678 19.2299 249.431 19.3774 249.132 19.4901C248.837 19.5994 248.491 19.6541 248.093 19.6541ZM248.561 18.3317C248.922 18.3317 249.235 18.2604 249.5 18.1179C249.765 17.9721 249.969 17.7798 250.112 17.5412C250.258 17.3026 250.331 17.0424 250.331 16.7607V15.8608C250.274 15.9072 250.178 15.9503 250.042 15.9901C249.91 16.0298 249.761 16.0646 249.595 16.0945C249.429 16.1243 249.265 16.1508 249.103 16.174C248.94 16.1972 248.799 16.2171 248.68 16.2337C248.412 16.2701 248.171 16.3298 247.959 16.4126C247.747 16.4955 247.58 16.6115 247.457 16.7607C247.334 16.9065 247.273 17.0954 247.273 17.3274C247.273 17.6589 247.394 17.9091 247.636 18.0781C247.878 18.2472 248.186 18.3317 248.561 18.3317ZM256.559 19.6342C255.959 19.6342 255.422 19.4801 254.948 19.1719C254.474 18.8636 254.1 18.4162 253.824 17.8295C253.549 17.2429 253.412 16.5303 253.412 15.6918C253.412 14.8433 253.551 14.1274 253.829 13.544C254.111 12.9574 254.491 12.5149 254.968 12.2166C255.445 11.915 255.977 11.7642 256.564 11.7642C257.011 11.7642 257.379 11.8404 257.667 11.9929C257.956 12.142 258.185 12.3227 258.354 12.5348C258.523 12.7436 258.653 12.9408 258.746 13.1264H258.821V9.31818H260.626V19.5H258.856V18.2969H258.746C258.653 18.4825 258.519 18.6797 258.344 18.8885C258.168 19.094 257.936 19.2696 257.648 19.4155C257.359 19.5613 256.996 19.6342 256.559 19.6342ZM257.061 18.1577C257.442 18.1577 257.767 18.0549 258.035 17.8494C258.304 17.6406 258.508 17.3506 258.647 16.9794C258.786 16.6082 258.856 16.1757 258.856 15.6818C258.856 15.188 258.786 14.7588 258.647 14.3942C258.511 14.0296 258.309 13.7462 258.04 13.544C257.775 13.3419 257.449 13.2408 257.061 13.2408C256.66 13.2408 256.325 13.3452 256.057 13.554C255.788 13.7628 255.586 14.0511 255.45 14.419C255.314 14.7869 255.246 15.2079 255.246 15.6818C255.246 16.1591 255.314 16.585 255.45 16.9595C255.589 17.3307 255.793 17.6241 256.062 17.8395C256.333 18.0516 256.667 18.1577 257.061 18.1577ZM271.511 14.4091C271.511 15.5062 271.305 16.4458 270.894 17.228C270.487 18.0069 269.93 18.6035 269.224 19.0178C268.521 19.4321 267.724 19.6392 266.833 19.6392C265.941 19.6392 265.142 19.4321 264.436 19.0178C263.734 18.6001 263.177 18.0019 262.766 17.223C262.358 16.4408 262.154 15.5028 262.154 14.4091C262.154 13.312 262.358 12.3741 262.766 11.5952C263.177 10.813 263.734 10.2147 264.436 9.80043C265.142 9.38613 265.941 9.17898 266.833 9.17898C267.724 9.17898 268.521 9.38613 269.224 9.80043C269.93 10.2147 270.487 10.813 270.894 11.5952C271.305 12.3741 271.511 13.312 271.511 14.4091ZM269.657 14.4091C269.657 13.6368 269.536 12.9856 269.294 12.4553C269.055 11.9216 268.723 11.5189 268.299 11.2472C267.875 10.9721 267.386 10.8345 266.833 10.8345C266.279 10.8345 265.79 10.9721 265.366 11.2472C264.942 11.5189 264.609 11.9216 264.367 12.4553C264.128 12.9856 264.009 13.6368 264.009 14.4091C264.009 15.1813 264.128 15.8343 264.367 16.3679C264.609 16.8982 264.942 17.3009 265.366 17.576C265.79 17.8478 266.279 17.9837 266.833 17.9837C267.386 17.9837 267.875 17.8478 268.299 17.576C268.723 17.3009 269.055 16.8982 269.294 16.3679C269.536 15.8343 269.657 15.1813 269.657 14.4091ZM278.578 12.1172C278.532 11.683 278.336 11.3449 277.991 11.103C277.65 10.861 277.206 10.7401 276.659 10.7401C276.275 10.7401 275.945 10.7981 275.67 10.9141C275.395 11.0301 275.184 11.1875 275.038 11.3864C274.892 11.5852 274.818 11.8123 274.815 12.0675C274.815 12.2796 274.863 12.4635 274.959 12.6193C275.058 12.7751 275.192 12.9077 275.361 13.017C275.53 13.1231 275.718 13.2126 275.923 13.2855C276.129 13.3584 276.336 13.4197 276.545 13.4695L277.499 13.7081C277.884 13.7976 278.253 13.9186 278.608 14.071C278.966 14.2235 279.286 14.4157 279.567 14.6477C279.852 14.8797 280.078 15.1598 280.244 15.4879C280.409 15.8161 280.492 16.2005 280.492 16.6413C280.492 17.2379 280.34 17.7633 280.035 18.2173C279.73 18.6681 279.289 19.0211 278.712 19.2763C278.139 19.5282 277.445 19.6541 276.629 19.6541C275.837 19.6541 275.149 19.5315 274.566 19.2862C273.986 19.041 273.532 18.683 273.204 18.2124C272.879 17.7417 272.703 17.1683 272.677 16.4922H274.491C274.518 16.8468 274.627 17.1418 274.82 17.3771C275.012 17.6125 275.262 17.7881 275.57 17.9041C275.882 18.0201 276.23 18.0781 276.614 18.0781C277.015 18.0781 277.367 18.0185 277.668 17.8991C277.973 17.7765 278.212 17.6075 278.384 17.392C278.557 17.1733 278.644 16.9181 278.648 16.6264C278.644 16.3613 278.566 16.1425 278.414 15.9702C278.262 15.7945 278.048 15.6487 277.773 15.5327C277.501 15.4134 277.183 15.3073 276.818 15.2145L275.66 14.9162C274.821 14.7008 274.158 14.3743 273.671 13.9368C273.187 13.496 272.945 12.911 272.945 12.1818C272.945 11.5819 273.108 11.0566 273.432 10.6058C273.761 10.1551 274.206 9.8054 274.77 9.55682C275.333 9.30492 275.971 9.17898 276.684 9.17898C277.406 9.17898 278.039 9.30492 278.583 9.55682C279.13 9.8054 279.559 10.1518 279.871 10.5959C280.182 11.0367 280.343 11.5438 280.353 12.1172H278.578Z" fill="#F1EFEF"/>
<path d="M287.622 10.5V18.5H286.653V11.5156H286.606L284.653 12.8125V11.8281L286.653 10.5H287.622ZM292.46 18.6094C291.945 18.6094 291.485 18.5208 291.082 18.3437C290.681 18.1667 290.361 17.9206 290.125 17.6055C289.89 17.2878 289.763 16.9193 289.742 16.5H290.726C290.747 16.7578 290.835 16.9805 290.992 17.168C291.148 17.3529 291.352 17.4961 291.605 17.5977C291.858 17.6992 292.138 17.75 292.445 17.75C292.789 17.75 293.093 17.6901 293.359 17.5703C293.625 17.4505 293.833 17.2839 293.984 17.0703C294.135 16.8568 294.21 16.6094 294.21 16.3281C294.21 16.0339 294.138 15.7747 293.992 15.5508C293.846 15.3242 293.632 15.1471 293.351 15.0195C293.07 14.8919 292.726 14.8281 292.32 14.8281H291.679V13.9687H292.32C292.638 13.9687 292.916 13.9115 293.156 13.7969C293.398 13.6823 293.587 13.5208 293.722 13.3125C293.86 13.1042 293.929 12.8594 293.929 12.5781C293.929 12.3073 293.869 12.0716 293.75 11.8711C293.63 11.6706 293.46 11.5143 293.242 11.4023C293.026 11.2904 292.77 11.2344 292.476 11.2344C292.2 11.2344 291.94 11.2852 291.695 11.3867C291.453 11.4857 291.255 11.6302 291.101 11.8203C290.947 12.0078 290.864 12.2344 290.851 12.5H289.914C289.929 12.0807 290.056 11.7135 290.292 11.3984C290.529 11.0807 290.839 10.8333 291.222 10.6562C291.608 10.4792 292.031 10.3906 292.492 10.3906C292.986 10.3906 293.411 10.4909 293.765 10.6914C294.119 10.8893 294.391 11.151 294.582 11.4766C294.772 11.8021 294.867 12.1536 294.867 12.5313C294.867 12.9818 294.748 13.3659 294.511 13.6836C294.277 14.0013 293.958 14.2214 293.554 14.3438V14.4062C294.059 14.4896 294.454 14.7044 294.738 15.0508C295.022 15.3945 295.164 15.8203 295.164 16.3281C295.164 16.763 295.045 17.1536 294.808 17.5C294.574 17.8437 294.253 18.1146 293.847 18.3125C293.441 18.5104 292.979 18.6094 292.46 18.6094ZM298.956 17.0938V11.9375H299.831V17.0938H298.956ZM296.815 14.9531V14.0781H301.971V14.9531H296.815Z" fill="#C6C6C8"/>
<rect x="313.5" width="117" height="28" rx="6" fill="#3C46C9"/>
<rect x="319.5" y="5" width="18" height="18" rx="3.5" fill="#F1EFEF"/>
<path opacity="0.4" d="M329.75 7.75H327.25C325.2 7.75 324.176 7.75 323.449 8.25864C323.181 8.44681 322.947 8.68057 322.759 8.94932C322.25 9.67572 322.25 10.7005 322.25 12.75C322.25 14.7995 322.25 15.8242 322.759 16.5507C322.947 16.8194 323.181 17.0532 323.449 17.2414C324.176 17.75 325.2 17.75 327.25 17.75H329.75C331.8 17.75 332.824 17.75 333.551 17.2414C333.819 17.0532 334.053 16.8194 334.241 16.5507C334.75 15.8242 334.75 14.7995 334.75 12.75C334.75 10.7005 334.75 9.67572 334.241 8.94932C334.053 8.68057 333.819 8.44681 333.551 8.25864C332.824 7.75 331.8 7.75 329.75 7.75Z" fill="#3C46C9"/>
<path d="M329.75 7.75H327.25C325.2 7.75 324.176 7.75 323.449 8.25864C323.181 8.44681 322.947 8.68057 322.759 8.94932C322.25 9.67572 322.25 10.7005 322.25 12.75C322.25 14.7995 322.25 15.8242 322.759 16.5507C322.947 16.8194 323.181 17.0532 323.449 17.2414C324.176 17.75 325.2 17.75 327.25 17.75H329.75C331.8 17.75 332.824 17.75 333.551 17.2414C333.819 17.0532 334.053 16.8194 334.241 16.5507C334.75 15.8242 334.75 14.7995 334.75 12.75C334.75 10.7005 334.75 9.67572 334.241 8.94932C334.053 8.68057 333.819 8.44681 333.551 8.25864C332.824 7.75 331.8 7.75 329.75 7.75Z" stroke="#3C46C9" stroke-width="1.25" stroke-linecap="round"/>
<path d="M327.875 15.875H329.125" stroke="#3C46C9" stroke-width="1.25" stroke-linecap="round" stroke-linejoin="round"/>
<path d="M330.062 20.25L329.865 19.9882C329.421 19.3981 329.311 18.4965 329.592 17.75M326.938 20.25L327.135 19.9882C327.579 19.3981 327.689 18.4965 327.408 17.75" stroke="#3C46C9" stroke-width="1.25" stroke-linecap="round"/>
<path d="M325.375 20.25H331.625" stroke="#3C46C9" stroke-width="1.25" stroke-linecap="round"/>
<path d="M342.536 19.5V11.8636H344.256V13.1612H344.346C344.505 12.7237 344.768 12.3823 345.136 12.1371C345.504 11.8885 345.943 11.7642 346.454 11.7642C346.971 11.7642 347.407 11.8902 347.761 12.142C348.119 12.3906 348.371 12.7304 348.517 13.1612H348.596C348.766 12.737 349.051 12.3989 349.452 12.147C349.856 11.8918 350.335 11.7642 350.888 11.7642C351.591 11.7642 352.164 11.9863 352.609 12.4304C353.053 12.8745 353.275 13.5225 353.275 14.3743V19.5H351.47V14.6527C351.47 14.1787 351.344 13.8324 351.092 13.6136C350.84 13.3916 350.532 13.2805 350.168 13.2805C349.733 13.2805 349.394 13.4164 349.148 13.6882C348.906 13.9567 348.785 14.3063 348.785 14.7372V19.5H347.02V14.5781C347.02 14.1837 346.901 13.8688 346.663 13.6335C346.427 13.3982 346.119 13.2805 345.738 13.2805C345.479 13.2805 345.244 13.3468 345.032 13.4794C344.82 13.6087 344.651 13.7926 344.525 14.0312C344.399 14.2666 344.336 14.5417 344.336 14.8565V19.5H342.536ZM357.088 19.6541C356.604 19.6541 356.168 19.5679 355.78 19.3956C355.396 19.2199 355.091 18.9614 354.866 18.62C354.644 18.2786 354.533 17.8577 354.533 17.3572C354.533 16.9264 354.612 16.5701 354.771 16.2884C354.93 16.0066 355.147 15.7812 355.423 15.6122C355.698 15.4432 356.008 15.3156 356.352 15.2294C356.7 15.1399 357.06 15.0753 357.431 15.0355C357.879 14.9891 358.241 14.9477 358.52 14.9112C358.798 14.8714 359 14.8118 359.126 14.7322C359.256 14.6494 359.32 14.5218 359.32 14.3494V14.3196C359.32 13.9451 359.209 13.6551 358.987 13.4496C358.765 13.2441 358.445 13.1413 358.028 13.1413C357.587 13.1413 357.237 13.2375 356.979 13.4297C356.723 13.6219 356.551 13.849 356.462 14.1108L354.781 13.8722C354.914 13.4081 355.133 13.0204 355.437 12.7088C355.742 12.3939 356.115 12.1586 356.556 12.0028C356.997 11.8438 357.484 11.7642 358.018 11.7642C358.386 11.7642 358.752 11.8073 359.116 11.8935C359.481 11.9796 359.814 12.1222 360.116 12.321C360.417 12.5166 360.659 12.7834 360.842 13.1214C361.027 13.4595 361.12 13.8821 361.12 14.3892V19.5H359.39V18.451H359.33C359.221 18.6631 359.067 18.862 358.868 19.0476C358.672 19.2299 358.425 19.3774 358.127 19.4901C357.832 19.5994 357.486 19.6541 357.088 19.6541ZM357.555 18.3317C357.917 18.3317 358.23 18.2604 358.495 18.1179C358.76 17.9721 358.964 17.7798 359.106 17.5412C359.252 17.3026 359.325 17.0424 359.325 16.7607V15.8608C359.269 15.9072 359.173 15.9503 359.037 15.9901C358.904 16.0298 358.755 16.0646 358.589 16.0945C358.424 16.1243 358.26 16.1508 358.097 16.174C357.935 16.1972 357.794 16.2171 357.675 16.2337C357.406 16.2701 357.166 16.3298 356.954 16.4126C356.742 16.4955 356.574 16.6115 356.452 16.7607C356.329 16.9065 356.268 17.0954 356.268 17.3274C356.268 17.6589 356.389 17.9091 356.631 18.0781C356.873 18.2472 357.181 18.3317 357.555 18.3317ZM366.051 19.6491C365.288 19.6491 364.634 19.4818 364.087 19.147C363.543 18.8123 363.124 18.3499 362.829 17.7599C362.537 17.1667 362.392 16.4839 362.392 15.7116C362.392 14.9361 362.541 14.2517 362.839 13.6584C363.137 13.0618 363.558 12.5978 364.102 12.2663C364.649 11.9316 365.295 11.7642 366.041 11.7642C366.66 11.7642 367.209 11.8786 367.686 12.1072C368.167 12.3326 368.55 12.6525 368.835 13.0668C369.12 13.4777 369.282 13.9583 369.322 14.5085H367.602C367.532 14.1406 367.366 13.834 367.105 13.5888C366.846 13.3402 366.5 13.2159 366.066 13.2159C365.698 13.2159 365.374 13.3153 365.096 13.5142C364.818 13.7098 364.601 13.9915 364.445 14.3594C364.292 14.7273 364.216 15.1681 364.216 15.6818C364.216 16.2022 364.292 16.6496 364.445 17.0241C364.597 17.3954 364.811 17.6821 365.086 17.8842C365.365 18.0831 365.691 18.1825 366.066 18.1825C366.331 18.1825 366.568 18.1328 366.776 18.0334C366.989 17.9306 367.166 17.7831 367.308 17.5909C367.451 17.3987 367.549 17.165 367.602 16.8899H369.322C369.279 17.4302 369.12 17.9091 368.845 18.3267C368.57 18.741 368.195 19.0658 367.721 19.3011C367.247 19.5331 366.69 19.6491 366.051 19.6491ZM379.767 14.4091C379.767 15.5062 379.562 16.4458 379.151 17.228C378.743 18.0069 378.186 18.6035 377.48 19.0178C376.778 19.4321 375.981 19.6392 375.089 19.6392C374.197 19.6392 373.399 19.4321 372.693 19.0178C371.99 18.6001 371.433 18.0019 371.022 17.223C370.615 16.4408 370.411 15.5028 370.411 14.4091C370.411 13.312 370.615 12.3741 371.022 11.5952C371.433 10.813 371.99 10.2147 372.693 9.80043C373.399 9.38613 374.197 9.17898 375.089 9.17898C375.981 9.17898 376.778 9.38613 377.48 9.80043C378.186 10.2147 378.743 10.813 379.151 11.5952C379.562 12.3741 379.767 13.312 379.767 14.4091ZM377.913 14.4091C377.913 13.6368 377.792 12.9856 377.55 12.4553C377.311 11.9216 376.98 11.5189 376.556 11.2472C376.131 10.9721 375.643 10.8345 375.089 10.8345C374.536 10.8345 374.047 10.9721 373.622 11.2472C373.198 11.5189 372.865 11.9216 372.623 12.4553C372.384 12.9856 372.265 13.6368 372.265 14.4091C372.265 15.1813 372.384 15.8343 372.623 16.3679C372.865 16.8982 373.198 17.3009 373.622 17.576C374.047 17.8478 374.536 17.9837 375.089 17.9837C375.643 17.9837 376.131 17.8478 376.556 17.576C376.98 17.3009 377.311 16.8982 377.55 16.3679C377.792 15.8343 377.913 15.1813 377.913 14.4091ZM386.834 12.1172C386.788 11.683 386.592 11.3449 386.248 11.103C385.906 10.861 385.462 10.7401 384.915 10.7401C384.531 10.7401 384.201 10.7981 383.926 10.9141C383.651 11.0301 383.441 11.1875 383.295 11.3864C383.149 11.5852 383.074 11.8123 383.071 12.0675C383.071 12.2796 383.119 12.4635 383.215 12.6193C383.315 12.7751 383.449 12.9077 383.618 13.017C383.787 13.1231 383.974 13.2126 384.18 13.2855C384.385 13.3584 384.592 13.4197 384.801 13.4695L385.756 13.7081C386.14 13.7976 386.51 13.9186 386.864 14.071C387.222 14.2235 387.542 14.4157 387.824 14.6477C388.109 14.8797 388.334 15.1598 388.5 15.4879C388.666 15.8161 388.749 16.2005 388.749 16.6413C388.749 17.2379 388.596 17.7633 388.291 18.2173C387.986 18.6681 387.545 19.0211 386.969 19.2763C386.395 19.5282 385.701 19.6541 384.886 19.6541C384.093 19.6541 383.406 19.5315 382.822 19.2862C382.242 19.041 381.788 18.683 381.46 18.2124C381.135 17.7417 380.96 17.1683 380.933 16.4922H382.748C382.774 16.8468 382.884 17.1418 383.076 17.3771C383.268 17.6125 383.518 17.7881 383.827 17.9041C384.138 18.0201 384.486 18.0781 384.871 18.0781C385.272 18.0781 385.623 18.0185 385.925 17.8991C386.23 17.7765 386.468 17.6075 386.641 17.392C386.813 17.1733 386.901 16.9181 386.904 16.6264C386.901 16.3613 386.823 16.1425 386.67 15.9702C386.518 15.7945 386.304 15.6487 386.029 15.5327C385.757 15.4134 385.439 15.3073 385.074 15.2145L383.916 14.9162C383.078 14.7008 382.415 14.3743 381.927 13.9368C381.444 13.496 381.202 12.911 381.202 12.1818C381.202 11.5819 381.364 11.0566 381.689 10.6058C382.017 10.1551 382.463 9.8054 383.026 9.55682C383.59 9.30492 384.228 9.17898 384.94 9.17898C385.663 9.17898 386.296 9.30492 386.839 9.55682C387.386 9.8054 387.816 10.1518 388.127 10.5959C388.439 11.0367 388.599 11.5438 388.609 12.1172H386.834Z" fill="#F1EFEF"/>
<path d="M395.634 10.5V18.5H394.665V11.5156H394.618L392.665 12.8125V11.8281L394.665 10.5H395.634ZM400.379 18.6094C399.79 18.6094 399.289 18.4492 398.875 18.1289C398.461 17.806 398.144 17.3385 397.926 16.7266C397.707 16.112 397.598 15.3698 397.598 14.5C397.598 13.6354 397.707 12.8971 397.926 12.2852C398.147 11.6706 398.465 11.2018 398.879 10.8789C399.296 10.5534 399.796 10.3906 400.379 10.3906C400.962 10.3906 401.461 10.5534 401.875 10.8789C402.292 11.2018 402.609 11.6706 402.828 12.2852C403.049 12.8971 403.16 13.6354 403.16 14.5C403.16 15.3698 403.051 16.112 402.832 16.7266C402.613 17.3385 402.297 17.806 401.883 18.1289C401.469 18.4492 400.967 18.6094 400.379 18.6094ZM400.379 17.75C400.962 17.75 401.415 17.4687 401.738 16.9062C402.061 16.3437 402.223 15.5417 402.223 14.5C402.223 13.8073 402.148 13.2174 402 12.7305C401.854 12.2435 401.643 11.8724 401.367 11.6172C401.094 11.362 400.764 11.2344 400.379 11.2344C399.801 11.2344 399.349 11.5195 399.023 12.0898C398.698 12.6576 398.535 13.4609 398.535 14.5C398.535 15.1927 398.608 15.7812 398.754 16.2656C398.9 16.75 399.109 17.1185 399.383 17.3711C399.659 17.6237 399.991 17.75 400.379 17.75ZM404.888 18.5625C404.695 18.5625 404.53 18.4935 404.392 18.3555C404.254 18.2174 404.185 18.0521 404.185 17.8594C404.185 17.6667 404.254 17.5013 404.392 17.3633C404.53 17.2253 404.695 17.1562 404.888 17.1562C405.08 17.1562 405.246 17.2253 405.384 17.3633C405.522 17.5013 405.591 17.6667 405.591 17.8594C405.591 17.987 405.558 18.1042 405.493 18.2109C405.431 18.3177 405.346 18.4036 405.239 18.4687C405.135 18.5313 405.018 18.5625 404.888 18.5625ZM408.921 10.5V18.5H407.952V11.5156H407.905L405.952 12.8125V11.8281L407.952 10.5H408.921ZM413.557 18.6094C413.098 18.6094 412.686 18.5182 412.318 18.3359C411.951 18.1536 411.657 17.9036 411.436 17.5859C411.214 17.2682 411.093 16.9062 411.072 16.5H412.01C412.046 16.862 412.21 17.1615 412.502 17.3984C412.796 17.6328 413.148 17.75 413.557 17.75C413.885 17.75 414.176 17.6732 414.432 17.5195C414.69 17.3659 414.891 17.1549 415.037 16.8867C415.186 16.6159 415.26 16.3099 415.26 15.9687C415.26 15.6198 415.183 15.3086 415.029 15.0352C414.878 14.7591 414.67 14.5417 414.404 14.3828C414.139 14.224 413.835 14.1432 413.494 14.1406C413.249 14.138 412.998 14.1758 412.74 14.2539C412.482 14.3294 412.27 14.4271 412.104 14.5469L411.197 14.4375L411.682 10.5H415.838V11.3594H412.494L412.213 13.7187H412.26C412.424 13.5885 412.63 13.4805 412.877 13.3945C413.124 13.3086 413.382 13.2656 413.65 13.2656C414.14 13.2656 414.576 13.3828 414.959 13.6172C415.344 13.849 415.647 14.1667 415.865 14.5703C416.087 14.974 416.197 15.4349 416.197 15.9531C416.197 16.4635 416.083 16.9193 415.854 17.3203C415.627 17.7187 415.315 18.0339 414.916 18.2656C414.518 18.4948 414.065 18.6094 413.557 18.6094ZM419.943 17.0938V11.9375H420.818V17.0938H419.943ZM417.803 14.9531V14.0781H422.959V14.9531H417.803Z" fill="#C6C6C8"/>
<rect x="2" y="40" width="139" height="28" rx="6" fill="#006AB2"/>
<rect x="8" y="45" width="18" height="18" rx="3.5" fill="#F1EFEF"/>
<path d="M20.0884 50.7166V47.7163C20.092 47.611 20.1792 47.5289 20.284 47.5304C21.3077 47.5924 22.2377 47.6825 23.0327 47.7945L23.0354 47.7952C23.1098 47.804 23.1718 47.8561 23.195 47.9269L23.1954 47.9268L23.1961 47.93C23.1986 47.9377 23.2002 47.9454 23.2016 47.9533L23.2032 47.9599C23.2061 47.9805 23.2097 48.0041 23.2138 48.0314C23.3118 48.6962 23.4135 49.7454 23.4672 50.6973C23.4672 50.6973 23.4793 50.9096 23.2666 50.9096H20.2814C20.1747 50.9096 20.0884 50.8233 20.0884 50.7166ZM20.0889 47.7033L20.0884 47.7163V47.7102L20.0886 47.7033H20.0889Z" fill="#006AB2"/>
<path d="M13.9092 60.2807V57.0876V57.2808C13.9092 57.1741 13.8228 57.0876 13.7162 57.0876H10.7312C10.5184 57.0876 10.5304 57.3002 10.5304 57.3002C10.584 58.252 10.6859 59.3015 10.7839 59.9662C10.7879 59.9938 10.7916 60.0177 10.7946 60.0386L10.796 60.0445C10.7973 60.0524 10.799 60.0602 10.8015 60.0678L10.8021 60.071H10.8025C10.8256 60.1411 10.8866 60.1925 10.9603 60.2022C11.7565 60.3147 12.6888 60.4051 13.7149 60.4672C13.8194 60.468 13.906 60.3857 13.9092 60.2807Z" fill="#006AB2"/>
<path d="M17.3858 50.697C17.3858 50.697 17.3858 50.9098 17.5985 50.9098H19.1035C19.1035 50.9098 19.3164 50.9098 19.3164 50.697V47.6941C19.3164 47.6941 19.3164 47.4811 19.1037 47.4726C18.6971 47.4557 18.0507 47.4405 17.5985 47.4375C17.5985 47.4375 17.3858 47.4362 17.3858 47.6491V50.697Z" fill="#006AB2"/>
<path d="M16.9987 60.35V57.152V57.2808C16.9987 57.1742 16.9122 57.0876 16.8056 57.0876H16.9342H14.8948C14.8948 57.0876 14.6819 57.0876 14.6819 57.3006V60.3034C14.6819 60.3034 14.6819 60.5163 14.8946 60.525C15.4206 60.5466 16.1969 60.5628 16.7859 60.5628C16.7859 60.5628 16.9987 60.5628 16.9987 60.35Z" fill="#006AB2"/>
<path d="M14.6819 50.697C14.6819 50.697 14.6819 50.9098 14.8948 50.9098H16.3996C16.3996 50.9098 16.6126 50.9098 16.6126 50.697V47.6489C16.6126 47.6489 16.6126 47.436 16.3997 47.4375C15.9473 47.4405 15.3014 47.456 14.8946 47.4727C14.8946 47.4727 14.6819 47.4814 14.6819 47.6942V50.697Z" fill="#006AB2"/>
<path d="M10.6943 56.3156H13.6971C13.6971 56.3156 13.9099 56.3156 13.9099 56.1028V54.5976C13.9099 54.5976 13.9099 54.3848 13.6971 54.3848H10.649C10.649 54.3848 10.4363 54.3848 10.4375 54.5976C10.4405 55.0501 10.4561 55.696 10.4727 56.1028C10.4727 56.1028 10.4816 56.3156 10.6943 56.3156Z" fill="#006AB2"/>
<path d="M10.4375 53.3998C10.4375 53.3998 10.4362 53.6126 10.6489 53.6126H13.697C13.697 53.6126 13.9098 53.6126 13.9098 53.3998V51.8949C13.9098 51.8949 13.9098 51.6821 13.697 51.6821H10.6941C10.6941 51.6821 10.4814 51.6821 10.4726 51.8946C10.456 52.3013 10.4405 52.9476 10.4375 53.3998Z" fill="#006AB2"/>
<path d="M13.9092 50.7166V47.7163C13.9057 47.611 13.8184 47.5289 13.7135 47.5304C12.6899 47.5924 11.7599 47.6825 10.965 47.7945L10.9622 47.7952C10.8878 47.804 10.8258 47.8561 10.8025 47.9269L10.8021 47.9268L10.8015 47.93C10.799 47.9377 10.7973 47.9454 10.796 47.9533L10.7945 47.9599C10.7915 47.9805 10.7878 48.0041 10.7839 48.0314C10.6859 48.6962 10.584 49.7454 10.5304 50.6973C10.5304 50.6973 10.5184 50.9096 10.7312 50.9096H13.7162C13.8228 50.9096 13.9092 50.8233 13.9092 50.7166ZM13.9088 47.7033L13.9092 47.7163V47.7102L13.909 47.7033H13.9088Z" fill="#006AB2"/>
<path d="M20.0884 56.3289C20.0884 56.3289 20.0884 56.5417 20.2387 56.6922C20.2387 56.6922 20.0884 56.5417 23.0974 59.551C23.0974 59.551 23.248 59.7013 23.2748 59.4902C23.4213 58.3436 23.5338 56.6401 23.5556 54.9839C23.5556 54.9839 23.5583 54.7712 23.3455 54.7712H20.2598C20.2598 54.7712 20.0884 54.7712 20.0884 54.9426V56.3289Z" fill="#006AB2"/>
<path d="M23.5632 53.8089C23.5609 53.0758 23.5456 52.3789 23.5258 51.8946C23.5258 51.8946 23.5169 51.682 23.3041 51.682H20.3012C20.3012 51.682 20.0884 51.682 20.0884 51.8948V53.7858C20.0884 53.7858 20.0884 53.9986 20.3012 53.9986H23.3704C23.4759 53.9986 23.5614 53.9139 23.5632 53.8089Z" fill="#006AB2"/>
<path d="M22.5514 60.097C20.4783 58.0241 19.8335 57.3792 19.6328 57.1786C19.5692 57.1173 19.4967 57.0837 19.4346 57.088V57.0878H17.9844C17.9844 57.0878 17.7715 57.0878 17.7715 57.3008V60.3451C17.7715 60.3451 17.7715 60.5579 17.9844 60.5551C19.6407 60.5333 21.3438 60.4208 22.4907 60.2744C22.4907 60.2744 22.7018 60.2473 22.5514 60.097Z" fill="#006AB2"/>
<path d="M31.0841 49.3182H33.3412L36.3639 56.696H36.4833L39.506 49.3182H41.7631V59.5H39.9932V52.505H39.8987L37.0848 59.4702H35.7624L32.9485 52.4901H32.854V59.5H31.0841V49.3182ZM45.6795 59.6541C45.1956 59.6541 44.7598 59.5679 44.372 59.3956C43.9875 59.2199 43.6826 58.9614 43.4572 58.62C43.2351 58.2786 43.1241 57.8577 43.1241 57.3572C43.1241 56.9264 43.2037 56.5701 43.3627 56.2884C43.5218 56.0066 43.7389 55.7812 44.014 55.6122C44.2891 55.4432 44.599 55.3156 44.9437 55.2294C45.2917 55.1399 45.6513 55.0753 46.0225 55.0355C46.47 54.9891 46.8329 54.9477 47.1113 54.9112C47.3897 54.8714 47.5919 54.8118 47.7179 54.7322C47.8471 54.6494 47.9117 54.5218 47.9117 54.3494V54.3196C47.9117 53.9451 47.8007 53.6551 47.5787 53.4496C47.3566 53.2441 47.0367 53.1413 46.6191 53.1413C46.1783 53.1413 45.8287 53.2375 45.5701 53.4297C45.3149 53.6219 45.1426 53.849 45.0531 54.1108L43.3727 53.8722C43.5053 53.4081 43.724 53.0204 44.0289 52.7088C44.3339 52.3939 44.7067 52.1586 45.1475 52.0028C45.5884 51.8438 46.0756 51.7642 46.6092 51.7642C46.9771 51.7642 47.3433 51.8073 47.7079 51.8935C48.0725 51.9796 48.4056 52.1222 48.7072 52.321C49.0088 52.5166 49.2508 52.7834 49.4331 53.1214C49.6187 53.4595 49.7115 53.8821 49.7115 54.3892V59.5H47.9814V58.451H47.9217C47.8123 58.6631 47.6582 58.862 47.4593 59.0476C47.2638 59.2299 47.0169 59.3774 46.7186 59.4901C46.4236 59.5994 46.0772 59.6541 45.6795 59.6541ZM46.1468 58.3317C46.5081 58.3317 46.8213 58.2604 47.0865 58.1179C47.3516 57.9721 47.5555 57.7798 47.698 57.5412C47.8438 57.3026 47.9167 57.0424 47.9167 56.7607V55.8608C47.8604 55.9072 47.7643 55.9503 47.6284 55.9901C47.4958 56.0298 47.3466 56.0646 47.1809 56.0945C47.0152 56.1243 46.8511 56.1508 46.6887 56.174C46.5263 56.1972 46.3855 56.2171 46.2662 56.2337C45.9977 56.2701 45.7574 56.3298 45.5453 56.4126C45.3332 56.4955 45.1658 56.6115 45.0431 56.7607C44.9205 56.9065 44.8592 57.0954 44.8592 57.3274C44.8592 57.6589 44.9802 57.9091 45.2221 58.0781C45.4641 58.2472 45.7723 58.3317 46.1468 58.3317ZM54.1449 59.6342C53.545 59.6342 53.0081 59.4801 52.5341 59.1719C52.0602 58.8636 51.6857 58.4162 51.4106 57.8295C51.1355 57.2429 50.9979 56.5303 50.9979 55.6918C50.9979 54.8433 51.1371 54.1274 51.4155 53.544C51.6973 52.9574 52.0767 52.5149 52.554 52.2166C53.0313 51.915 53.5633 51.7642 54.1499 51.7642C54.5973 51.7642 54.9652 51.8404 55.2536 51.9929C55.5419 52.142 55.7706 52.3227 55.9397 52.5348C56.1087 52.7436 56.2396 52.9408 56.3324 53.1264H56.407V49.3182H58.2117V59.5H56.4418V58.2969H56.3324C56.2396 58.4825 56.1054 58.6797 55.9297 58.8885C55.7541 59.094 55.5221 59.2696 55.2337 59.4155C54.9454 59.5613 54.5824 59.6342 54.1449 59.6342ZM54.6471 58.1577C55.0282 58.1577 55.353 58.0549 55.6215 57.8494C55.89 57.6406 56.0938 57.3506 56.233 56.9794C56.3722 56.6082 56.4418 56.1757 56.4418 55.6818C56.4418 55.188 56.3722 54.7588 56.233 54.3942C56.0971 54.0296 55.8949 53.7462 55.6265 53.544C55.3613 53.3419 55.0348 53.2408 54.6471 53.2408C54.246 53.2408 53.9113 53.3452 53.6428 53.554C53.3743 53.7628 53.1722 54.0511 53.0363 54.419C52.9004 54.7869 52.8324 55.2079 52.8324 55.6818C52.8324 56.1591 52.9004 56.585 53.0363 56.9595C53.1755 57.3307 53.3793 57.6241 53.6478 57.8395C53.9196 58.0516 54.2526 58.1577 54.6471 58.1577ZM63.3002 59.6491C62.5345 59.6491 61.8733 59.4901 61.3165 59.1719C60.763 58.8504 60.3371 58.3963 60.0388 57.8097C59.7405 57.2197 59.5914 56.5253 59.5914 55.7266C59.5914 54.9411 59.7405 54.2517 60.0388 53.6584C60.3404 53.0618 60.7613 52.5978 61.3016 52.2663C61.8418 51.9316 62.4765 51.7642 63.2057 51.7642C63.6763 51.7642 64.1205 51.8404 64.5381 51.9929C64.959 52.142 65.3302 52.3741 65.6517 52.6889C65.9765 53.0038 66.2317 53.4048 66.4174 53.892C66.603 54.3759 66.6958 54.9527 66.6958 55.6222V56.174H60.4365V54.9609H64.9706C64.9673 54.6162 64.8927 54.3097 64.7469 54.0412C64.6011 53.7694 64.3972 53.5556 64.1354 53.3999C63.8769 53.2441 63.5753 53.1662 63.2306 53.1662C62.8627 53.1662 62.5395 53.2557 62.2611 53.4347C61.9827 53.6103 61.7656 53.8423 61.6098 54.1307C61.4574 54.4157 61.3795 54.7289 61.3762 55.0703V56.1293C61.3762 56.5734 61.4574 56.9545 61.6198 57.2727C61.7822 57.5876 62.0092 57.8295 62.3009 57.9986C62.5925 58.1643 62.9339 58.2472 63.325 58.2472C63.5869 58.2472 63.8238 58.2107 64.036 58.1378C64.2481 58.0616 64.432 57.9505 64.5878 57.8047C64.7436 57.6589 64.8612 57.4782 64.9408 57.2628L66.6212 57.4517C66.5151 57.8958 66.313 58.2836 66.0147 58.6151C65.7197 58.9432 65.3418 59.1984 64.8811 59.3807C64.4204 59.5597 63.8934 59.6491 63.3002 59.6491ZM71.271 59.5V51.8636H73.0707V59.5H71.271ZM72.1758 50.7798C71.8908 50.7798 71.6455 50.6854 71.44 50.4964C71.2345 50.3042 71.1318 50.0739 71.1318 49.8054C71.1318 49.5336 71.2345 49.3033 71.44 49.1143C71.6455 48.9221 71.8908 48.826 72.1758 48.826C72.4642 48.826 72.7094 48.9221 72.9116 49.1143C73.1171 49.3033 73.2198 49.5336 73.2198 49.8054C73.2198 50.0739 73.1171 50.3042 72.9116 50.4964C72.7094 50.6854 72.4642 50.7798 72.1758 50.7798ZM76.5111 55.0256V59.5H74.7114V51.8636H76.4315V53.1612H76.521C76.6967 52.7337 76.9767 52.3939 77.3612 52.142C77.749 51.8902 78.2279 51.7642 78.798 51.7642C79.325 51.7642 79.784 51.8769 80.1751 52.1023C80.5696 52.3277 80.8745 52.6541 81.0899 53.0817C81.3087 53.5092 81.4164 54.0279 81.4131 54.6378V59.5H79.6133V54.9162C79.6133 54.4058 79.4808 54.0064 79.2156 53.718C78.9538 53.4297 78.5909 53.2855 78.1268 53.2855C77.812 53.2855 77.5319 53.3551 77.2866 53.4943C77.0447 53.6302 76.8541 53.8274 76.7149 54.0859C76.579 54.3445 76.5111 54.6577 76.5111 55.0256ZM86.3748 59.5V49.3182H88.2193V53.9964H88.3436L92.3159 49.3182H94.568L90.6305 53.8871L94.6028 59.5H92.3855L89.3478 55.1349L88.2193 56.4673V59.5H86.3748ZM95.5599 59.5V51.8636H97.3049V53.1364H97.3845C97.5237 52.6955 97.7623 52.3558 98.1004 52.1172C98.4417 51.8752 98.8312 51.7543 99.2687 51.7543C99.3681 51.7543 99.4791 51.7592 99.6018 51.7692C99.7277 51.7758 99.8321 51.7874 99.915 51.804V53.4595C99.8388 53.433 99.7178 53.4098 99.5521 53.3899C99.3897 53.3667 99.2322 53.3551 99.0798 53.3551C98.7516 53.3551 98.4567 53.4264 98.1948 53.5689C97.9363 53.7081 97.7325 53.902 97.5833 54.1506C97.4342 54.3991 97.3596 54.6858 97.3596 55.0107V59.5H95.5599ZM102.961 59.6541C102.477 59.6541 102.042 59.5679 101.654 59.3956C101.269 59.2199 100.964 58.9614 100.739 58.62C100.517 58.2786 100.406 57.8577 100.406 57.3572C100.406 56.9264 100.486 56.5701 100.645 56.2884C100.804 56.0066 101.021 55.7812 101.296 55.6122C101.571 55.4432 101.881 55.3156 102.226 55.2294C102.574 55.1399 102.933 55.0753 103.304 55.0355C103.752 54.9891 104.115 54.9477 104.393 54.9112C104.672 54.8714 104.874 54.8118 105 54.7322C105.129 54.6494 105.194 54.5218 105.194 54.3494V54.3196C105.194 53.9451 105.083 53.6551 104.861 53.4496C104.638 53.2441 104.319 53.1413 103.901 53.1413C103.46 53.1413 103.111 53.2375 102.852 53.4297C102.597 53.6219 102.424 53.849 102.335 54.1108L100.655 53.8722C100.787 53.4081 101.006 53.0204 101.311 52.7088C101.616 52.3939 101.989 52.1586 102.429 52.0028C102.87 51.8438 103.357 51.7642 103.891 51.7642C104.259 51.7642 104.625 51.8073 104.99 51.8935C105.354 51.9796 105.687 52.1222 105.989 52.321C106.291 52.5166 106.533 52.7834 106.715 53.1214C106.901 53.4595 106.993 53.8821 106.993 54.3892V59.5H105.263V58.451H105.204C105.094 58.6631 104.94 58.862 104.741 59.0476C104.546 59.2299 104.299 59.3774 104 59.4901C103.705 59.5994 103.359 59.6541 102.961 59.6541ZM103.429 58.3317C103.79 58.3317 104.103 58.2604 104.368 58.1179C104.633 57.9721 104.837 57.7798 104.98 57.5412C105.126 57.3026 105.199 57.0424 105.199 56.7607V55.8608C105.142 55.9072 105.046 55.9503 104.91 55.9901C104.778 56.0298 104.629 56.0646 104.463 56.0945C104.297 56.1243 104.133 56.1508 103.971 56.174C103.808 56.1972 103.667 56.2171 103.548 56.2337C103.28 56.2701 103.039 56.3298 102.827 56.4126C102.615 56.4955 102.448 56.6115 102.325 56.7607C102.202 56.9065 102.141 57.0954 102.141 57.3274C102.141 57.6589 102.262 57.9091 102.504 58.0781C102.746 58.2472 103.054 58.3317 103.429 58.3317ZM110.234 57.1037L110.229 54.9311H110.517L113.261 51.8636H115.364L111.989 55.6222H111.616L110.234 57.1037ZM108.593 59.5V49.3182H110.393V59.5H108.593ZM113.386 59.5L110.9 56.0249L112.113 54.7571L115.538 59.5H113.386ZM119.37 59.6491C118.624 59.6491 117.978 59.4851 117.431 59.157C116.884 58.8288 116.46 58.3698 116.159 57.7798C115.86 57.1899 115.711 56.5005 115.711 55.7116C115.711 54.9228 115.86 54.2318 116.159 53.6385C116.46 53.0452 116.884 52.5845 117.431 52.2564C117.978 51.9283 118.624 51.7642 119.37 51.7642C120.116 51.7642 120.762 51.9283 121.309 52.2564C121.856 52.5845 122.279 53.0452 122.577 53.6385C122.879 54.2318 123.029 54.9228 123.029 55.7116C123.029 56.5005 122.879 57.1899 122.577 57.7798C122.279 58.3698 121.856 58.8288 121.309 59.157C120.762 59.4851 120.116 59.6491 119.37 59.6491ZM119.38 58.2074C119.785 58.2074 120.123 58.0964 120.394 57.8743C120.666 57.6489 120.868 57.3473 121.001 56.9695C121.137 56.5916 121.205 56.1707 121.205 55.7067C121.205 55.2393 121.137 54.8168 121.001 54.4389C120.868 54.0578 120.666 53.7545 120.394 53.5291C120.123 53.3037 119.785 53.1911 119.38 53.1911C118.966 53.1911 118.621 53.3037 118.346 53.5291C118.074 53.7545 117.87 54.0578 117.735 54.4389C117.602 54.8168 117.536 55.2393 117.536 55.7067C117.536 56.1707 117.602 56.5916 117.735 56.9695C117.87 57.3473 118.074 57.6489 118.346 57.8743C118.621 58.0964 118.966 58.2074 119.38 58.2074ZM118.679 50.8594L119.793 48.5874H121.553L120.026 50.8594H118.679ZM125.704 59.5L123.546 51.8636H125.381L126.723 57.233H126.793L128.165 51.8636H129.98L131.352 57.2031H131.426L132.749 51.8636H134.588L132.426 59.5H130.551L129.12 54.3395H129.015L127.583 59.5H125.704Z" fill="#F1EFEF"/>
<rect x="145" y="40" width="152" height="28" rx="6" fill="#3C46C9"/>
<rect x="151" y="45" width="18" height="18" rx="3.5" fill="#F1EFEF"/>
<path opacity="0.4" fill-rule="evenodd" clip-rule="evenodd" d="M165.889 51.5C165.937 52.2048 165.938 53.0711 165.938 54.152V54.473C165.938 57.1963 165.938 58.5579 165.155 59.404C164.372 60.25 163.113 60.25 160.594 60.25H159.406C156.887 60.25 155.628 60.25 154.845 59.404C154.062 58.5579 154.062 57.1963 154.062 54.473V54.152C154.062 53.0711 154.062 52.2048 154.111 51.5H165.889ZM160 54.3125C160.542 54.3125 161.02 54.5888 161.3 55.0082C161.466 55.2563 161.562 55.5543 161.562 55.875C161.562 56.1957 161.466 56.4938 161.3 56.7419C161.02 57.1613 160.542 57.4375 160 57.4375C159.458 57.4375 158.98 57.1613 158.7 56.7419C158.534 56.4938 158.438 56.1957 158.438 55.875C158.438 55.5543 158.534 55.2563 158.7 55.0082C158.98 54.5888 159.458 54.3125 160 54.3125Z" fill="#3C46C9"/>
<path d="M163.75 47.75V49M156.25 47.75V49" stroke="#3C46C9" stroke-width="1.25" stroke-linecap="round" stroke-linejoin="round"/>
<path d="M154.375 51.5H165.625" stroke="#3C46C9" stroke-width="1.25" stroke-linecap="round" stroke-linejoin="round"/>
<path d="M154.062 54.152C154.062 51.4287 154.062 50.0671 154.845 49.221C155.628 48.375 156.887 48.375 159.406 48.375H160.594C163.113 48.375 164.372 48.375 165.155 49.221C165.938 50.0671 165.938 51.4287 165.938 54.152V54.473C165.938 57.1963 165.938 58.5579 165.155 59.404C164.372 60.25 163.113 60.25 160.594 60.25H159.406C156.887 60.25 155.628 60.25 154.845 59.404C154.062 58.5579 154.062 57.1963 154.062 54.473V54.152Z" stroke="#3C46C9" stroke-width="1.25" stroke-linecap="round" stroke-linejoin="round"/>
<path d="M160 57.4375V58.0625M160 57.4375C159.458 57.4375 158.98 57.1613 158.7 56.7419M160 57.4375C160.542 57.4375 161.02 57.1613 161.3 56.7419M158.7 56.7419L158.125 57.125M158.7 56.7419C158.534 56.4938 158.438 56.1957 158.438 55.875C158.438 55.5543 158.534 55.2563 158.7 55.0082M161.3 56.7419L161.875 57.125M161.3 56.7419C161.466 56.4938 161.562 56.1957 161.562 55.875C161.562 55.5543 161.466 55.2563 161.3 55.0082M160 54.3125C160.542 54.3125 161.02 54.5888 161.3 55.0082M160 54.3125C159.458 54.3125 158.98 54.5888 158.7 55.0082M160 54.3125V53.6875M161.3 55.0082L161.875 54.625M158.7 55.0082L158.125 54.625" stroke="#3C46C9" stroke-width="1.25" stroke-linecap="round"/>
<path d="M174.173 59.5V58.1676L177.708 54.7024C178.046 54.361 178.328 54.0578 178.553 53.7926C178.779 53.5275 178.948 53.2706 179.061 53.022C179.173 52.7734 179.23 52.5083 179.23 52.2266C179.23 51.9051 179.157 51.63 179.011 51.4013C178.865 51.1693 178.664 50.9903 178.409 50.8643C178.154 50.7384 177.864 50.6754 177.539 50.6754C177.204 50.6754 176.911 50.745 176.659 50.8842C176.407 51.0201 176.212 51.214 176.073 51.4659C175.937 51.7178 175.869 52.0178 175.869 52.3658H174.114C174.114 51.7195 174.261 51.1577 174.556 50.6804C174.851 50.2031 175.257 49.8336 175.774 49.5717C176.295 49.3099 176.891 49.179 177.564 49.179C178.247 49.179 178.847 49.3066 179.364 49.5618C179.881 49.817 180.282 50.1667 180.567 50.6108C180.855 51.0549 180.999 51.562 180.999 52.1321C180.999 52.5133 180.927 52.8878 180.781 53.2557C180.635 53.6236 180.378 54.0312 180.01 54.4787C179.646 54.9261 179.133 55.468 178.474 56.1044L176.719 57.8892V57.9588H181.154V59.5H174.173ZM183.787 59.6094C183.486 59.6094 183.227 59.5033 183.012 59.2912C182.796 59.0791 182.69 58.8205 182.694 58.5156C182.69 58.2173 182.796 57.9621 183.012 57.75C183.227 57.5379 183.486 57.4318 183.787 57.4318C184.079 57.4318 184.333 57.5379 184.548 57.75C184.767 57.9621 184.878 58.2173 184.881 58.5156C184.878 58.7178 184.825 58.9018 184.722 59.0675C184.623 59.2332 184.49 59.3658 184.324 59.4652C184.162 59.5613 183.983 59.6094 183.787 59.6094ZM189.876 59.6939C189.058 59.6939 188.355 59.4867 187.768 59.0724C187.185 58.6548 186.736 58.0533 186.421 57.2678C186.11 56.4789 185.954 55.5294 185.954 54.419C185.957 53.3087 186.114 52.3641 186.426 51.5852C186.741 50.803 187.19 50.2064 187.773 49.7955C188.36 49.3845 189.061 49.179 189.876 49.179C190.692 49.179 191.393 49.3845 191.979 49.7955C192.566 50.2064 193.015 50.803 193.327 51.5852C193.641 52.3674 193.799 53.312 193.799 54.419C193.799 55.5327 193.641 56.4839 193.327 57.2727C193.015 58.0582 192.566 58.6581 191.979 59.0724C191.396 59.4867 190.695 59.6939 189.876 59.6939ZM189.876 58.1378C190.513 58.1378 191.015 57.8246 191.383 57.1982C191.754 56.5684 191.94 55.642 191.94 54.419C191.94 53.6103 191.855 52.9309 191.686 52.3807C191.517 51.8305 191.278 51.4162 190.97 51.1378C190.662 50.8561 190.297 50.7152 189.876 50.7152C189.243 50.7152 188.743 51.0301 188.375 51.6598C188.007 52.2862 187.821 53.206 187.818 54.419C187.815 55.2311 187.896 55.9138 188.062 56.4673C188.231 57.0208 188.469 57.4384 188.778 57.7202C189.086 57.9986 189.452 58.1378 189.876 58.1378ZM195.973 59.6094C195.671 59.6094 195.413 59.5033 195.197 59.2912C194.982 59.0791 194.876 58.8205 194.879 58.5156C194.876 58.2173 194.982 57.9621 195.197 57.75C195.413 57.5379 195.671 57.4318 195.973 57.4318C196.264 57.4318 196.518 57.5379 196.733 57.75C196.952 57.9621 197.063 58.2173 197.067 58.5156C197.063 58.7178 197.01 58.9018 196.907 59.0675C196.808 59.2332 196.675 59.3658 196.51 59.4652C196.347 59.5613 196.168 59.6094 195.973 59.6094ZM202.062 59.6939C201.243 59.6939 200.54 59.4867 199.954 59.0724C199.371 58.6548 198.921 58.0533 198.607 57.2678C198.295 56.4789 198.139 55.5294 198.139 54.419C198.143 53.3087 198.3 52.3641 198.612 51.5852C198.926 50.803 199.375 50.2064 199.959 49.7955C200.545 49.3845 201.246 49.179 202.062 49.179C202.877 49.179 203.578 49.3845 204.165 49.7955C204.751 50.2064 205.201 50.803 205.512 51.5852C205.827 52.3674 205.984 53.312 205.984 54.419C205.984 55.5327 205.827 56.4839 205.512 57.2727C205.201 58.0582 204.751 58.6581 204.165 59.0724C203.581 59.4867 202.88 59.6939 202.062 59.6939ZM202.062 58.1378C202.698 58.1378 203.2 57.8246 203.568 57.1982C203.939 56.5684 204.125 55.642 204.125 54.419C204.125 53.6103 204.04 52.9309 203.871 52.3807C203.702 51.8305 203.464 51.4162 203.156 51.1378C202.847 50.8561 202.483 50.7152 202.062 50.7152C201.429 50.7152 200.928 51.0301 200.56 51.6598C200.192 52.2862 200.007 53.206 200.004 54.419C200 55.2311 200.081 55.9138 200.247 56.4673C200.416 57.0208 200.655 57.4384 200.963 57.7202C201.271 57.9986 201.638 58.1378 202.062 58.1378Z" fill="#F1EFEF"/>
<path d="M212.469 58.5H210V50.5H212.578C213.354 50.5 214.018 50.6602 214.57 50.9805C215.122 51.2982 215.545 51.7552 215.84 52.3516C216.134 52.9453 216.281 53.6562 216.281 54.4844C216.281 55.3177 216.133 56.0352 215.836 56.6367C215.539 57.2357 215.107 57.6966 214.539 58.0195C213.971 58.3398 213.281 58.5 212.469 58.5ZM210.969 57.6406H212.406C213.067 57.6406 213.616 57.513 214.051 57.2578C214.485 57.0026 214.81 56.6393 215.023 56.168C215.237 55.6966 215.344 55.1354 215.344 54.4844C215.344 53.8385 215.238 53.2826 215.027 52.8164C214.816 52.3477 214.501 51.9883 214.082 51.7383C213.663 51.4857 213.14 51.3594 212.515 51.3594H210.969V57.6406ZM220.132 58.625C219.554 58.625 219.055 58.4974 218.636 58.2422C218.219 57.9844 217.897 57.625 217.671 57.1641C217.447 56.7005 217.335 56.1615 217.335 55.5469C217.335 54.9323 217.447 54.3906 217.671 53.9219C217.897 53.4505 218.212 53.0833 218.616 52.8203C219.022 52.5547 219.496 52.4219 220.038 52.4219C220.35 52.4219 220.659 52.474 220.964 52.5781C221.268 52.6823 221.546 52.8516 221.796 53.0859C222.046 53.3177 222.245 53.625 222.393 54.0078C222.542 54.3906 222.616 54.862 222.616 55.4219V55.8125H217.991V55.0156H221.679C221.679 54.6771 221.611 54.375 221.475 54.1094C221.343 53.8437 221.152 53.6341 220.905 53.4805C220.66 53.3268 220.371 53.25 220.038 53.25C219.671 53.25 219.353 53.3411 219.085 53.5234C218.819 53.7031 218.615 53.9375 218.471 54.2266C218.328 54.5156 218.257 54.8255 218.257 55.1562V55.6875C218.257 56.1406 218.335 56.5247 218.491 56.8398C218.65 57.1523 218.87 57.3906 219.151 57.5547C219.432 57.7161 219.759 57.7969 220.132 57.7969C220.374 57.7969 220.593 57.763 220.788 57.6953C220.986 57.625 221.156 57.5208 221.3 57.3828C221.443 57.2422 221.554 57.0677 221.632 56.8594L222.522 57.1094C222.429 57.4115 222.271 57.6771 222.05 57.9062C221.828 58.1328 221.555 58.3099 221.229 58.4375C220.904 58.5625 220.538 58.625 220.132 58.625ZM226.291 58.625C225.728 58.625 225.244 58.4922 224.838 58.2266C224.431 57.9609 224.119 57.5951 223.9 57.1289C223.681 56.6628 223.572 56.1302 223.572 55.5312C223.572 54.9219 223.684 54.3841 223.908 53.918C224.135 53.4492 224.45 53.0833 224.853 52.8203C225.26 52.5547 225.734 52.4219 226.275 52.4219C226.697 52.4219 227.077 52.5 227.416 52.6562C227.754 52.8125 228.032 53.0312 228.248 53.3125C228.464 53.5937 228.598 53.9219 228.65 54.2969H227.728C227.658 54.0234 227.502 53.7812 227.26 53.5703C227.02 53.3568 226.697 53.25 226.291 53.25C225.931 53.25 225.616 53.3437 225.346 53.5312C225.077 53.7161 224.868 53.9779 224.717 54.3164C224.568 54.6523 224.494 55.0469 224.494 55.5C224.494 55.9635 224.567 56.3672 224.713 56.7109C224.861 57.0547 225.07 57.3216 225.338 57.5117C225.609 57.7018 225.926 57.7969 226.291 57.7969C226.53 57.7969 226.748 57.7552 226.943 57.6719C227.139 57.5885 227.304 57.4688 227.439 57.3125C227.575 57.1562 227.671 56.9687 227.728 56.75H228.65C228.598 57.1042 228.469 57.4232 228.264 57.707C228.06 57.9883 227.791 58.2122 227.455 58.3789C227.122 58.543 226.734 58.625 226.291 58.625ZM232.349 58.625C231.77 58.625 231.272 58.4974 230.852 58.2422C230.436 57.9844 230.114 57.625 229.888 57.1641C229.664 56.7005 229.552 56.1615 229.552 55.5469C229.552 54.9323 229.664 54.3906 229.888 53.9219C230.114 53.4505 230.429 53.0833 230.833 52.8203C231.239 52.5547 231.713 52.4219 232.255 52.4219C232.567 52.4219 232.876 52.474 233.181 52.5781C233.485 52.6823 233.763 52.8516 234.013 53.0859C234.263 53.3177 234.462 53.625 234.61 54.0078C234.759 54.3906 234.833 54.862 234.833 55.4219V55.8125H230.208V55.0156H233.895C233.895 54.6771 233.828 54.375 233.692 54.1094C233.559 53.8437 233.369 53.6341 233.122 53.4805C232.877 53.3268 232.588 53.25 232.255 53.25C231.888 53.25 231.57 53.3411 231.302 53.5234C231.036 53.7031 230.832 53.9375 230.688 54.2266C230.545 54.5156 230.474 54.8255 230.474 55.1562V55.6875C230.474 56.1406 230.552 56.5247 230.708 56.8398C230.867 57.1523 231.087 57.3906 231.368 57.5547C231.649 57.7161 231.976 57.7969 232.349 57.7969C232.591 57.7969 232.809 57.763 233.005 57.6953C233.203 57.625 233.373 57.5208 233.516 57.3828C233.66 57.2422 233.77 57.0677 233.849 56.8594L234.739 57.1094C234.645 57.4115 234.488 57.6771 234.266 57.9062C234.045 58.1328 233.772 58.3099 233.446 58.4375C233.121 58.5625 232.755 58.625 232.349 58.625ZM236.07 58.5V52.5H236.961V53.4375H237.039C237.164 53.1172 237.366 52.8685 237.644 52.6914C237.923 52.5117 238.258 52.4219 238.648 52.4219C239.044 52.4219 239.374 52.5117 239.637 52.6914C239.902 52.8685 240.109 53.1172 240.258 53.4375H240.32C240.474 53.1276 240.704 52.8815 241.012 52.6992C241.319 52.5143 241.687 52.4219 242.117 52.4219C242.654 52.4219 243.092 52.5898 243.434 52.9258C243.775 53.2591 243.945 53.7786 243.945 54.4844V58.5H243.023V54.4844C243.023 54.0417 242.902 53.7253 242.66 53.5352C242.418 53.3451 242.133 53.25 241.805 53.25C241.383 53.25 241.056 53.3776 240.824 53.6328C240.592 53.8854 240.476 54.2057 240.476 54.5937V58.5H239.539V54.3906C239.539 54.0495 239.428 53.7747 239.207 53.5664C238.986 53.3555 238.7 53.25 238.351 53.25C238.112 53.25 237.888 53.3138 237.68 53.4414C237.474 53.569 237.307 53.7461 237.18 53.9727C237.055 54.1966 236.992 54.4557 236.992 54.75V58.5H236.07ZM245.591 58.5V50.5H246.513V53.4531H246.591C246.658 53.349 246.752 53.2161 246.872 53.0547C246.994 52.8906 247.169 52.7448 247.395 52.6172C247.625 52.487 247.935 52.4219 248.325 52.4219C248.83 52.4219 249.276 52.5482 249.661 52.8008C250.047 53.0534 250.347 53.4115 250.563 53.875C250.78 54.3385 250.888 54.8854 250.888 55.5156C250.888 56.151 250.78 56.7018 250.563 57.168C250.347 57.6315 250.048 57.9909 249.665 58.2461C249.282 58.4987 248.841 58.625 248.341 58.625C247.955 58.625 247.647 58.5612 247.415 58.4336C247.183 58.3034 247.005 58.1562 246.88 57.9922C246.755 57.8255 246.658 57.6875 246.591 57.5781H246.481V58.5H245.591ZM246.497 55.5C246.497 55.9531 246.563 56.3529 246.696 56.6992C246.829 57.043 247.023 57.3125 247.278 57.5078C247.533 57.7005 247.846 57.7969 248.216 57.7969C248.601 57.7969 248.923 57.6953 249.181 57.4922C249.441 57.2865 249.636 57.0104 249.767 56.6641C249.899 56.3151 249.966 55.9271 249.966 55.5C249.966 55.0781 249.901 54.6979 249.77 54.3594C249.643 54.0182 249.449 53.7487 249.188 53.5508C248.931 53.3503 248.606 53.25 248.216 53.25C247.841 53.25 247.526 53.3451 247.27 53.5352C247.015 53.7227 246.823 53.9857 246.692 54.3242C246.562 54.6602 246.497 55.0521 246.497 55.5ZM254.648 58.625C254.07 58.625 253.572 58.4974 253.152 58.2422C252.736 57.9844 252.414 57.625 252.188 57.1641C251.964 56.7005 251.852 56.1615 251.852 55.5469C251.852 54.9323 251.964 54.3906 252.188 53.9219C252.414 53.4505 252.729 53.0833 253.133 52.8203C253.539 52.5547 254.013 52.4219 254.555 52.4219C254.867 52.4219 255.176 52.474 255.48 52.5781C255.785 52.6823 256.063 52.8516 256.313 53.0859C256.563 53.3177 256.762 53.625 256.91 54.0078C257.059 54.3906 257.133 54.862 257.133 55.4219V55.8125H252.508V55.0156H256.195C256.195 54.6771 256.128 54.375 255.992 54.1094C255.859 53.8437 255.669 53.6341 255.422 53.4805C255.177 53.3268 254.888 53.25 254.555 53.25C254.188 53.25 253.87 53.3411 253.602 53.5234C253.336 53.7031 253.132 53.9375 252.988 54.2266C252.845 54.5156 252.773 54.8255 252.773 55.1562V55.6875C252.773 56.1406 252.852 56.5247 253.008 56.8398C253.167 57.1523 253.387 57.3906 253.668 57.5547C253.949 57.7161 254.276 57.7969 254.648 57.7969C254.891 57.7969 255.109 57.763 255.305 57.6953C255.503 57.625 255.673 57.5208 255.816 57.3828C255.96 57.2422 256.07 57.0677 256.148 56.8594L257.039 57.1094C256.945 57.4115 256.788 57.6771 256.566 57.9062C256.345 58.1328 256.072 58.3099 255.746 58.4375C255.421 58.5625 255.055 58.625 254.648 58.625ZM258.37 58.5V52.5H259.261V53.4062H259.323C259.433 53.1094 259.631 52.8685 259.917 52.6836C260.203 52.4987 260.526 52.4062 260.886 52.4062C260.953 52.4062 261.038 52.4076 261.14 52.4102C261.241 52.4128 261.318 52.4167 261.37 52.4219V53.3594C261.339 53.3516 261.267 53.3398 261.155 53.3242C261.046 53.306 260.93 53.2969 260.808 53.2969C260.516 53.2969 260.256 53.3581 260.026 53.4805C259.8 53.6003 259.62 53.7669 259.487 53.9805C259.357 54.1914 259.292 54.4323 259.292 54.7031V58.5H258.37ZM265.211 58.5V57.7969L267.852 54.9062C268.162 54.5677 268.417 54.2734 268.617 54.0234C268.818 53.7708 268.966 53.5339 269.063 53.3125C269.162 53.0885 269.211 52.8542 269.211 52.6094C269.211 52.3281 269.143 52.0846 269.008 51.8789C268.875 51.6732 268.693 51.5143 268.461 51.4023C268.229 51.2904 267.969 51.2344 267.68 51.2344C267.373 51.2344 267.104 51.2982 266.875 51.4258C266.649 51.5508 266.473 51.7266 266.348 51.9531C266.225 52.1797 266.164 52.4453 266.164 52.75H265.242C265.242 52.2812 265.35 51.8698 265.567 51.5156C265.783 51.1615 266.077 50.8854 266.449 50.6875C266.824 50.4896 267.245 50.3906 267.711 50.3906C268.18 50.3906 268.595 50.4896 268.957 50.6875C269.319 50.8854 269.603 51.1523 269.809 51.4883C270.014 51.8242 270.117 52.1979 270.117 52.6094C270.117 52.9036 270.064 53.1914 269.957 53.4727C269.853 53.7513 269.671 54.0625 269.41 54.4062C269.152 54.7474 268.794 55.1641 268.336 55.6562L266.539 57.5781V57.6406H270.258V58.5H265.211ZM274.316 58.6094C273.727 58.6094 273.226 58.4492 272.812 58.1289C272.398 57.806 272.081 57.3385 271.862 56.7266C271.644 56.112 271.534 55.3698 271.534 54.5C271.534 53.6354 271.644 52.8971 271.862 52.2852C272.084 51.6706 272.402 51.2018 272.816 50.8789C273.232 50.5534 273.732 50.3906 274.316 50.3906C274.899 50.3906 275.398 50.5534 275.812 50.8789C276.228 51.2018 276.546 51.6706 276.765 52.2852C276.986 52.8971 277.097 53.6354 277.097 54.5C277.097 55.3698 276.987 56.112 276.769 56.7266C276.55 57.3385 276.234 57.806 275.819 58.1289C275.405 58.4492 274.904 58.6094 274.316 58.6094ZM274.316 57.75C274.899 57.75 275.352 57.4687 275.675 56.9062C275.998 56.3437 276.159 55.5417 276.159 54.5C276.159 53.8073 276.085 53.2174 275.937 52.7305C275.791 52.2435 275.58 51.8724 275.304 51.6172C275.03 51.362 274.701 51.2344 274.316 51.2344C273.737 51.2344 273.286 51.5195 272.96 52.0898C272.635 52.6576 272.472 53.4609 272.472 54.5C272.472 55.1927 272.545 55.7812 272.691 56.2656C272.836 56.75 273.046 57.1185 273.319 57.3711C273.596 57.6237 273.928 57.75 274.316 57.75ZM278.416 58.5V57.7969L281.057 54.9062C281.367 54.5677 281.622 54.2734 281.822 54.0234C282.023 53.7708 282.171 53.5339 282.268 53.3125C282.367 53.0885 282.416 52.8542 282.416 52.6094C282.416 52.3281 282.349 52.0846 282.213 51.8789C282.08 51.6732 281.898 51.5143 281.666 51.4023C281.434 51.2904 281.174 51.2344 280.885 51.2344C280.578 51.2344 280.309 51.2982 280.08 51.4258C279.854 51.5508 279.678 51.7266 279.553 51.9531C279.431 52.1797 279.369 52.4453 279.369 52.75H278.447C278.447 52.2812 278.556 51.8698 278.772 51.5156C278.988 51.1615 279.282 50.8854 279.654 50.6875C280.029 50.4896 280.45 50.3906 280.916 50.3906C281.385 50.3906 281.8 50.4896 282.162 50.6875C282.524 50.8854 282.808 51.1523 283.014 51.4883C283.22 51.8242 283.322 52.1979 283.322 52.6094C283.322 52.9036 283.269 53.1914 283.162 53.4727C283.058 53.7513 282.876 54.0625 282.615 54.4062C282.358 54.7474 282 55.1641 281.541 55.6562L279.744 57.5781V57.6406H283.463V58.5H278.416ZM284.552 56.8594V56.0625L288.068 50.5H288.646V51.7344H288.255L285.599 55.9375V56H290.333V56.8594H284.552ZM288.318 58.5V56.6172V56.2461V50.5H289.239V58.5H288.318Z" fill="#C6C6C8"/>
<rect x="301" y="40" width="164" height="28" rx="6" fill="#3C46C9"/>
<rect x="307" y="45" width="18" height="18" rx="3.5" fill="#F1EFEF"/>
<path d="M316 60.25H315.062C312.705 60.25 311.527 60.25 310.795 59.5177C310.062 58.7855 310.062 57.607 310.063 55.2499L310.063 52.75C310.063 50.393 310.063 49.2145 310.795 48.4822C311.527 47.75 312.706 47.75 315.062 47.75H315.687C318.044 47.75 319.223 47.75 319.955 48.4822C320.687 49.2145 320.687 50.393 320.687 52.75V53.375" stroke="#3C46C9" stroke-width="1.25" stroke-linecap="round" stroke-linejoin="round"/>
<path d="M312.875 50.875H317.875M312.875 54H315.688" stroke="#3C46C9" stroke-width="1.25" stroke-linecap="round" stroke-linejoin="round"/>
<path d="M319.438 59.4829C320.542 59.4829 321.438 58.5672 321.438 57.4375C321.438 56.3078 320.542 55.3921 319.438 55.3921M319.438 59.4829C318.333 59.4829 317.438 58.5672 317.438 57.4375C317.438 56.3078 318.333 55.3921 319.438 55.3921M319.438 59.4829V60.25M319.438 55.3921V54.625M317.62 56.3218L316.938 55.9034M321.938 58.9716L321.256 58.5532M321.255 56.3218L321.937 55.9034M316.938 58.9716L317.619 58.5532" stroke="#3C46C9" stroke-width="1.25" stroke-linecap="round"/>
<path opacity="0.4" d="M320.687 52.75V55.25C320.687 55.4552 320.687 55.6516 320.687 55.8394C320.345 55.5592 319.91 55.3916 319.438 55.3916C318.333 55.3916 317.438 56.3074 317.438 57.4371C317.438 58.5668 318.333 59.4825 319.438 59.4825C319.665 59.4825 319.883 59.4439 320.086 59.3727C320.045 59.423 320.002 59.4713 319.955 59.5177C319.223 60.25 318.044 60.25 315.687 60.25H315.062C312.705 60.25 311.527 60.25 310.795 59.5177C310.062 58.7855 310.062 57.607 310.063 55.2499L310.063 52.75C310.063 50.393 310.063 49.2145 310.795 48.4822C311.527 47.75 312.706 47.75 315.062 47.75H315.687C318.044 47.75 319.223 47.75 319.955 48.4822C320.687 49.2145 320.687 50.393 320.687 52.75Z" fill="#3C46C9"/>
<path d="M331.597 59.5H329.628L333.213 49.3182H335.49L339.079 59.5H337.11L334.391 51.4062H334.311L331.597 59.5ZM331.661 55.5078H337.031V56.9893H331.661V55.5078ZM340.131 62.3636V51.8636H341.9V53.1264H342.005C342.098 52.9408 342.229 52.7436 342.398 52.5348C342.567 52.3227 342.795 52.142 343.084 51.9929C343.372 51.8404 343.74 51.7642 344.187 51.7642C344.777 51.7642 345.309 51.915 345.783 52.2166C346.261 52.5149 346.638 52.9574 346.917 53.544C347.199 54.1274 347.339 54.8433 347.339 55.6918C347.339 56.5303 347.202 57.2429 346.927 57.8295C346.652 58.4162 346.277 58.8636 345.803 59.1719C345.329 59.4801 344.792 59.6342 344.192 59.6342C343.755 59.6342 343.392 59.5613 343.104 59.4155C342.815 59.2696 342.583 59.094 342.408 58.8885C342.235 58.6797 342.101 58.4825 342.005 58.2969H341.93V62.3636H340.131ZM341.895 55.6818C341.895 56.1757 341.965 56.6082 342.104 56.9794C342.247 57.3506 342.451 57.6406 342.716 57.8494C342.984 58.0549 343.309 58.1577 343.69 58.1577C344.088 58.1577 344.421 58.0516 344.69 57.8395C344.958 57.6241 345.16 57.3307 345.296 56.9595C345.435 56.585 345.505 56.1591 345.505 55.6818C345.505 55.2079 345.437 54.7869 345.301 54.419C345.165 54.0511 344.963 53.7628 344.694 53.554C344.426 53.3452 344.091 53.2408 343.69 53.2408C343.306 53.2408 342.979 53.3419 342.711 53.544C342.442 53.7462 342.239 54.0296 342.099 54.3942C341.963 54.7588 341.895 55.188 341.895 55.6818ZM350.868 59.6541C350.384 59.6541 349.948 59.5679 349.56 59.3956C349.176 59.2199 348.871 58.9614 348.646 58.62C348.424 58.2786 348.313 57.8577 348.313 57.3572C348.313 56.9264 348.392 56.5701 348.551 56.2884C348.71 56.0066 348.927 55.7812 349.203 55.6122C349.478 55.4432 349.788 55.3156 350.132 55.2294C350.48 55.1399 350.84 55.0753 351.211 55.0355C351.659 54.9891 352.021 54.9477 352.3 54.9112C352.578 54.8714 352.78 54.8118 352.906 54.7322C353.036 54.6494 353.1 54.5218 353.1 54.3494V54.3196C353.1 53.9451 352.989 53.6551 352.767 53.4496C352.545 53.2441 352.225 53.1413 351.808 53.1413C351.367 53.1413 351.017 53.2375 350.759 53.4297C350.503 53.6219 350.331 53.849 350.242 54.1108L348.561 53.8722C348.694 53.4081 348.913 53.0204 349.217 52.7088C349.522 52.3939 349.895 52.1586 350.336 52.0028C350.777 51.8438 351.264 51.7642 351.798 51.7642C352.166 51.7642 352.532 51.8073 352.896 51.8935C353.261 51.9796 353.594 52.1222 353.896 52.321C354.197 52.5166 354.439 52.7834 354.622 53.1214C354.807 53.4595 354.9 53.8821 354.9 54.3892V59.5H353.17V58.451H353.11C353.001 58.6631 352.847 58.862 352.648 59.0476C352.452 59.2299 352.205 59.3774 351.907 59.4901C351.612 59.5994 351.266 59.6541 350.868 59.6541ZM351.335 58.3317C351.697 58.3317 352.01 58.2604 352.275 58.1179C352.54 57.9721 352.744 57.7798 352.886 57.5412C353.032 57.3026 353.105 57.0424 353.105 56.7607V55.8608C353.049 55.9072 352.953 55.9503 352.817 55.9901C352.684 56.0298 352.535 56.0646 352.369 56.0945C352.204 56.1243 352.04 56.1508 351.877 56.174C351.715 56.1972 351.574 56.2171 351.455 56.2337C351.186 56.2701 350.946 56.3298 350.734 56.4126C350.522 56.4955 350.354 56.6115 350.232 56.7607C350.109 56.9065 350.048 57.0954 350.048 57.3274C350.048 57.6589 350.169 57.9091 350.411 58.0781C350.653 58.2472 350.961 58.3317 351.335 58.3317ZM359.831 59.6491C359.068 59.6491 358.414 59.4818 357.867 59.147C357.323 58.8123 356.904 58.3499 356.609 57.7599C356.317 57.1667 356.172 56.4839 356.172 55.7116C356.172 54.9361 356.321 54.2517 356.619 53.6584C356.917 53.0618 357.338 52.5978 357.882 52.2663C358.429 51.9316 359.075 51.7642 359.821 51.7642C360.44 51.7642 360.989 51.8786 361.466 52.1072C361.947 52.3326 362.33 52.6525 362.615 53.0668C362.9 53.4777 363.062 53.9583 363.102 54.5085H361.382C361.312 54.1406 361.146 53.834 360.885 53.5888C360.626 53.3402 360.28 53.2159 359.846 53.2159C359.478 53.2159 359.154 53.3153 358.876 53.5142C358.598 53.7098 358.381 53.9915 358.225 54.3594C358.072 54.7273 357.996 55.1681 357.996 55.6818C357.996 56.2022 358.072 56.6496 358.225 57.0241C358.377 57.3954 358.591 57.6821 358.866 57.8842C359.145 58.0831 359.471 58.1825 359.846 58.1825C360.111 58.1825 360.348 58.1328 360.556 58.0334C360.769 57.9306 360.946 57.7831 361.088 57.5909C361.231 57.3987 361.329 57.165 361.382 56.8899H363.102C363.059 57.4302 362.9 57.9091 362.625 58.3267C362.35 58.741 361.975 59.0658 361.501 59.3011C361.027 59.5331 360.47 59.6491 359.831 59.6491ZM366.169 55.0256V59.5H364.37V49.3182H366.13V53.1612H366.219C366.398 52.7304 366.675 52.3906 367.049 52.142C367.427 51.8902 367.908 51.7642 368.491 51.7642C369.021 51.7642 369.484 51.8752 369.878 52.0973C370.273 52.3194 370.578 52.6442 370.793 53.0717C371.012 53.4993 371.121 54.0213 371.121 54.6378V59.5H369.321V54.9162C369.321 54.4025 369.189 54.0031 368.924 53.718C368.662 53.4297 368.294 53.2855 367.82 53.2855C367.502 53.2855 367.217 53.3551 366.965 53.4943C366.716 53.6302 366.521 53.8274 366.378 54.0859C366.239 54.3445 366.169 54.6577 366.169 55.0256ZM376.126 59.6491C375.361 59.6491 374.699 59.4901 374.143 59.1719C373.589 58.8504 373.163 58.3963 372.865 57.8097C372.567 57.2197 372.418 56.5253 372.418 55.7266C372.418 54.9411 372.567 54.2517 372.865 53.6584C373.167 53.0618 373.588 52.5978 374.128 52.2663C374.668 51.9316 375.303 51.7642 376.032 51.7642C376.503 51.7642 376.947 51.8404 377.364 51.9929C377.785 52.142 378.156 52.3741 378.478 52.6889C378.803 53.0038 379.058 53.4048 379.244 53.892C379.429 54.3759 379.522 54.9527 379.522 55.6222V56.174H373.263V54.9609H377.797C377.793 54.6162 377.719 54.3097 377.573 54.0412C377.427 53.7694 377.223 53.5556 376.962 53.3999C376.703 53.2441 376.401 53.1662 376.057 53.1662C375.689 53.1662 375.366 53.2557 375.087 53.4347C374.809 53.6103 374.592 53.8423 374.436 54.1307C374.284 54.4157 374.206 54.7289 374.202 55.0703V56.1293C374.202 56.5734 374.284 56.9545 374.446 57.2727C374.608 57.5876 374.835 57.8295 375.127 57.9986C375.419 58.1643 375.76 58.2472 376.151 58.2472C376.413 58.2472 376.65 58.2107 376.862 58.1378C377.074 58.0616 377.258 57.9505 377.414 57.8047C377.57 57.6589 377.687 57.4782 377.767 57.2628L379.447 57.4517C379.341 57.8958 379.139 58.2836 378.841 58.6151C378.546 58.9432 378.168 59.1984 377.707 59.3807C377.247 59.5597 376.72 59.6491 376.126 59.6491ZM384.077 59.5V58.1676L387.612 54.7024C387.95 54.361 388.232 54.0578 388.457 53.7926C388.683 53.5275 388.852 53.2706 388.964 53.022C389.077 52.7734 389.133 52.5083 389.133 52.2266C389.133 51.9051 389.06 51.63 388.915 51.4013C388.769 51.1693 388.568 50.9903 388.313 50.8643C388.058 50.7384 387.768 50.6754 387.443 50.6754C387.108 50.6754 386.815 50.745 386.563 50.8842C386.311 51.0201 386.116 51.214 385.976 51.4659C385.841 51.7178 385.773 52.0178 385.773 52.3658H384.018C384.018 51.7195 384.165 51.1577 384.46 50.6804C384.755 50.2031 385.161 49.8336 385.678 49.5717C386.198 49.3099 386.795 49.179 387.468 49.179C388.151 49.179 388.751 49.3066 389.268 49.5618C389.785 49.817 390.186 50.1667 390.471 50.6108C390.759 51.0549 390.903 51.562 390.903 52.1321C390.903 52.5133 390.83 52.8878 390.684 53.2557C390.539 53.6236 390.282 54.0312 389.914 54.4787C389.549 54.9261 389.037 55.468 388.378 56.1044L386.623 57.8892V57.9588H391.057V59.5H384.077ZM393.691 59.6094C393.39 59.6094 393.131 59.5033 392.916 59.2912C392.7 59.0791 392.594 58.8205 392.597 58.5156C392.594 58.2173 392.7 57.9621 392.916 57.75C393.131 57.5379 393.39 57.4318 393.691 57.4318C393.983 57.4318 394.236 57.5379 394.452 57.75C394.671 57.9621 394.782 58.2173 394.785 58.5156C394.782 58.7178 394.729 58.9018 394.626 59.0675C394.526 59.2332 394.394 59.3658 394.228 59.4652C394.066 59.5613 393.887 59.6094 393.691 59.6094ZM399.78 59.6939C398.961 59.6939 398.259 59.4867 397.672 59.0724C397.089 58.6548 396.64 58.0533 396.325 57.2678C396.013 56.4789 395.858 55.5294 395.858 54.419C395.861 53.3087 396.018 52.3641 396.33 51.5852C396.645 50.803 397.094 50.2064 397.677 49.7955C398.264 49.3845 398.965 49.179 399.78 49.179C400.595 49.179 401.296 49.3845 401.883 49.7955C402.47 50.2064 402.919 50.803 403.23 51.5852C403.545 52.3674 403.703 53.312 403.703 54.419C403.703 55.5327 403.545 56.4839 403.23 57.2727C402.919 58.0582 402.47 58.6581 401.883 59.0724C401.3 59.4867 400.599 59.6939 399.78 59.6939ZM399.78 58.1378C400.416 58.1378 400.919 57.8246 401.287 57.1982C401.658 56.5684 401.843 55.642 401.843 54.419C401.843 53.6103 401.759 52.9309 401.59 52.3807C401.421 51.8305 401.182 51.4162 400.874 51.1378C400.566 50.8561 400.201 50.7152 399.78 50.7152C399.147 50.7152 398.647 51.0301 398.279 51.6598C397.911 52.2862 397.725 53.206 397.722 54.419C397.719 55.2311 397.8 55.9138 397.965 56.4673C398.135 57.0208 398.373 57.4384 398.681 57.7202C398.99 57.9986 399.356 58.1378 399.78 58.1378ZM408.507 59.5V49.3182H410.351V57.9538H414.835V59.5H408.507ZM416.147 59.5V51.8636H417.946V59.5H416.147ZM417.052 50.7798C416.767 50.7798 416.521 50.6854 416.316 50.4964C416.11 50.3042 416.008 50.0739 416.008 49.8054C416.008 49.5336 416.11 49.3033 416.316 49.1143C416.521 48.9221 416.767 48.826 417.052 48.826C417.34 48.826 417.585 48.9221 417.787 49.1143C417.993 49.3033 418.096 49.5336 418.096 49.8054C418.096 50.0739 417.993 50.3042 417.787 50.4964C417.585 50.6854 417.34 50.7798 417.052 50.7798ZM422.918 59.6491C422.156 59.6491 421.501 59.4818 420.954 59.147C420.411 58.8123 419.991 58.3499 419.697 57.7599C419.405 57.1667 419.259 56.4839 419.259 55.7116C419.259 54.9361 419.408 54.2517 419.706 53.6584C420.005 53.0618 420.426 52.5978 420.969 52.2663C421.516 51.9316 422.162 51.7642 422.908 51.7642C423.528 51.7642 424.076 51.8786 424.554 52.1072C425.034 52.3326 425.417 52.6525 425.702 53.0668C425.987 53.4777 426.15 53.9583 426.189 54.5085H424.469C424.4 54.1406 424.234 53.834 423.972 53.5888C423.714 53.3402 423.367 53.2159 422.933 53.2159C422.565 53.2159 422.242 53.3153 421.964 53.5142C421.685 53.7098 421.468 53.9915 421.312 54.3594C421.16 54.7273 421.084 55.1681 421.084 55.6818C421.084 56.2022 421.16 56.6496 421.312 57.0241C421.465 57.3954 421.679 57.6821 421.954 57.8842C422.232 58.0831 422.558 58.1825 422.933 58.1825C423.198 58.1825 423.435 58.1328 423.644 58.0334C423.856 57.9306 424.033 57.7831 424.176 57.5909C424.318 57.3987 424.416 57.165 424.469 56.8899H426.189C426.146 57.4302 425.987 57.9091 425.712 58.3267C425.437 58.741 425.063 59.0658 424.589 59.3011C424.115 59.5331 423.558 59.6491 422.918 59.6491ZM430.838 59.6491C430.072 59.6491 429.411 59.4901 428.854 59.1719C428.301 58.8504 427.875 58.3963 427.577 57.8097C427.278 57.2197 427.129 56.5253 427.129 55.7266C427.129 54.9411 427.278 54.2517 427.577 53.6584C427.878 53.0618 428.299 52.5978 428.839 52.2663C429.38 51.9316 430.014 51.7642 430.743 51.7642C431.214 51.7642 431.658 51.8404 432.076 51.9929C432.497 52.142 432.868 52.3741 433.189 52.6889C433.514 53.0038 433.769 53.4048 433.955 53.892C434.141 54.3759 434.233 54.9527 434.233 55.6222V56.174H427.974V54.9609H432.508C432.505 54.6162 432.43 54.3097 432.285 54.0412C432.139 53.7694 431.935 53.5556 431.673 53.3999C431.415 53.2441 431.113 53.1662 430.768 53.1662C430.4 53.1662 430.077 53.2557 429.799 53.4347C429.52 53.6103 429.303 53.8423 429.148 54.1307C428.995 54.4157 428.917 54.7289 428.914 55.0703V56.1293C428.914 56.5734 428.995 56.9545 429.158 57.2727C429.32 57.5876 429.547 57.8295 429.839 57.9986C430.13 58.1643 430.472 58.2472 430.863 58.2472C431.125 58.2472 431.362 58.2107 431.574 58.1378C431.786 58.0616 431.97 57.9505 432.126 57.8047C432.281 57.6589 432.399 57.4782 432.479 57.2628L434.159 57.4517C434.053 57.8958 433.851 58.2836 433.552 58.6151C433.257 58.9432 432.88 59.1984 432.419 59.3807C431.958 59.5597 431.431 59.6491 430.838 59.6491ZM437.346 55.0256V59.5H435.546V51.8636H437.266V53.1612H437.356C437.531 52.7337 437.811 52.3939 438.196 52.142C438.584 51.8902 439.063 51.7642 439.633 51.7642C440.16 51.7642 440.619 51.8769 441.01 52.1023C441.404 52.3277 441.709 52.6541 441.925 53.0817C442.143 53.5092 442.251 54.0279 442.248 54.6378V59.5H440.448V54.9162C440.448 54.4058 440.315 54.0064 440.05 53.718C439.788 53.4297 439.426 53.2855 438.962 53.2855C438.647 53.2855 438.367 53.3551 438.121 53.4943C437.879 53.6302 437.689 53.8274 437.55 54.0859C437.414 54.3445 437.346 54.6577 437.346 55.0256ZM449.903 53.8821L448.262 54.0611C448.216 53.8954 448.135 53.7396 448.019 53.5938C447.906 53.4479 447.753 53.3303 447.561 53.2408C447.369 53.1513 447.134 53.1065 446.855 53.1065C446.481 53.1065 446.166 53.1877 445.911 53.3501C445.659 53.5125 445.534 53.723 445.538 53.9815C445.534 54.2036 445.616 54.3842 445.781 54.5234C445.95 54.6626 446.229 54.777 446.617 54.8665L447.919 55.1449C448.642 55.3007 449.179 55.5476 449.53 55.8857C449.885 56.2237 450.064 56.6662 450.067 57.2131C450.064 57.6937 449.923 58.1179 449.644 58.4858C449.369 58.8504 448.986 59.1354 448.496 59.3409C448.005 59.5464 447.442 59.6491 446.806 59.6491C445.871 59.6491 445.118 59.4536 444.548 59.0625C443.978 58.6681 443.639 58.1196 443.529 57.4169L445.284 57.2479C445.364 57.5926 445.533 57.8527 445.791 58.0284C446.05 58.2041 446.386 58.2919 446.801 58.2919C447.228 58.2919 447.571 58.2041 447.83 58.0284C448.091 57.8527 448.222 57.6357 448.222 57.3771C448.222 57.1584 448.138 56.9777 447.969 56.8352C447.803 56.6927 447.545 56.5833 447.193 56.5071L445.891 56.2337C445.158 56.0812 444.616 55.8243 444.265 55.4631C443.914 55.0985 443.74 54.6378 443.743 54.081C443.74 53.6103 443.867 53.2027 444.126 52.858C444.388 52.5099 444.751 52.2415 445.215 52.0526C445.682 51.8603 446.221 51.7642 446.83 51.7642C447.725 51.7642 448.43 51.9548 448.943 52.3359C449.46 52.7171 449.78 53.2325 449.903 53.8821ZM454.722 59.6491C453.956 59.6491 453.295 59.4901 452.738 59.1719C452.184 58.8504 451.759 58.3963 451.46 57.8097C451.162 57.2197 451.013 56.5253 451.013 55.7266C451.013 54.9411 451.162 54.2517 451.46 53.6584C451.762 53.0618 452.183 52.5978 452.723 52.2663C453.263 51.9316 453.898 51.7642 454.627 51.7642C455.098 51.7642 455.542 51.8404 455.959 51.9929C456.38 52.142 456.752 52.3741 457.073 52.6889C457.398 53.0038 457.653 53.4048 457.839 53.892C458.024 54.3759 458.117 54.9527 458.117 55.6222V56.174H451.858V54.9609H456.392C456.389 54.6162 456.314 54.3097 456.168 54.0412C456.022 53.7694 455.819 53.5556 455.557 53.3999C455.298 53.2441 454.997 53.1662 454.652 53.1662C454.284 53.1662 453.961 53.2557 453.683 53.4347C453.404 53.6103 453.187 53.8423 453.031 54.1307C452.879 54.4157 452.801 54.7289 452.798 55.0703V56.1293C452.798 56.5734 452.879 56.9545 453.041 57.2727C453.204 57.5876 453.431 57.8295 453.722 57.9986C454.014 58.1643 454.355 58.2472 454.746 58.2472C455.008 58.2472 455.245 58.2107 455.457 58.1378C455.669 58.0616 455.853 57.9505 456.009 57.8047C456.165 57.6589 456.283 57.4782 456.362 57.2628L458.043 57.4517C457.937 57.8958 457.734 58.2836 457.436 58.6151C457.141 58.9432 456.763 59.1984 456.303 59.3807C455.842 59.5597 455.315 59.6491 454.722 59.6491Z" fill="#F1EFEF"/>
</svg>
