<svg width="64" height="26" viewBox="0 0 64 26" fill="none" xmlns="http://www.w3.org/2000/svg">
<rect x="1" width="62" height="26" rx="6" fill="#533DA3"/>
<path d="M17.5422 17.8754C15.8945 18.7313 13.6312 18.8181 11.358 17.9431C9.58458 17.2644 8.06616 16.0953 7 14.5867C7.49737 14.9395 8.03869 15.2321 8.61211 15.4571C10.9616 16.4244 13.3163 16.3807 14.9692 15.4571C12.7874 13.8782 10.8225 12.0455 9.12076 10.0017C8.82755 9.70667 8.56518 9.38257 8.33769 9.03439C10.1247 10.462 12.0257 11.7555 14.0236 12.9035C12.5685 11.5004 11.2302 9.99153 10.0215 8.39099C12.0373 10.231 14.2532 11.8619 16.6322 13.2565L16.8866 13.3919C16.9554 13.2342 17.0149 13.0727 17.0648 12.9081C17.6142 11.1089 16.9884 9.06331 15.6155 7.37052C18.794 9.09685 20.6759 12.3422 19.8923 15.0604C19.8923 15.1326 19.8518 15.2055 19.8257 15.2781L19.8512 15.307C21.4225 17.0724 20.9905 18.939 20.7921 18.5862C19.9327 17.1114 18.3409 17.5654 17.5425 17.8748L17.5422 17.8754Z" fill="#FFFCFF"/>
<path d="M28.9506 11.2646C28.9137 10.8922 28.7552 10.6029 28.4751 10.3967C28.1951 10.1905 27.815 10.0874 27.3349 10.0874C27.0086 10.0874 26.7332 10.1335 26.5085 10.2259C26.2839 10.3151 26.1115 10.4397 25.9915 10.5998C25.8745 10.7598 25.8161 10.9414 25.8161 11.1445C25.8099 11.3138 25.8453 11.4615 25.9222 11.5877C26.0022 11.7139 26.1115 11.8232 26.25 11.9155C26.3885 12.0047 26.5485 12.0832 26.7301 12.1509C26.9117 12.2156 27.1056 12.271 27.3118 12.3171L28.1612 12.5202C28.5736 12.6126 28.9522 12.7357 29.2969 12.8896C29.6416 13.0434 29.9401 13.2327 30.1925 13.4574C30.4448 13.6821 30.6403 13.9467 30.7788 14.2514C30.9203 14.5561 30.9927 14.9054 30.9957 15.2994C30.9927 15.878 30.8449 16.3796 30.5526 16.8043C30.2633 17.226 29.8447 17.5537 29.2969 17.7876C28.7521 18.0185 28.0951 18.1339 27.3256 18.1339C26.5624 18.1339 25.8976 18.0169 25.3313 17.783C24.7681 17.5491 24.328 17.2029 24.011 16.7443C23.6971 16.2827 23.5324 15.7118 23.517 15.0316H25.4513C25.4729 15.3486 25.5637 15.6133 25.7237 15.8256C25.8868 16.0349 26.1038 16.1934 26.3746 16.3011C26.6486 16.4058 26.9579 16.4581 27.3026 16.4581C27.6411 16.4581 27.935 16.4089 28.1843 16.3104C28.4367 16.2119 28.6321 16.0749 28.7706 15.8995C28.9091 15.7241 28.9783 15.5225 28.9783 15.2947C28.9783 15.0824 28.9152 14.9039 28.7891 14.7592C28.666 14.6146 28.4844 14.4915 28.2443 14.3899C28.0073 14.2884 27.7165 14.196 27.3718 14.1129L26.3423 13.8544C25.5452 13.6605 24.9158 13.3574 24.4542 12.945C23.9925 12.5326 23.7633 11.977 23.7663 11.2784C23.7633 10.706 23.9156 10.2058 24.2234 9.77805C24.5342 9.35026 24.9605 9.01634 25.5021 8.77628C26.0438 8.53622 26.6593 8.41619 27.3487 8.41619C28.0504 8.41619 28.6629 8.53622 29.1861 8.77628C29.7124 9.01634 30.1217 9.35026 30.4141 9.77805C30.7064 10.2058 30.8572 10.7013 30.8665 11.2646H28.9506ZM33.7021 18L31.7725 10.9091H33.7622L34.8609 15.6733H34.9255L36.0704 10.9091H38.0232L39.1865 15.6456H39.2465L40.3268 10.9091H42.3119L40.3868 18H38.3048L37.086 13.5405H36.9983L35.7796 18H33.7021ZM43.361 18V10.9091H45.3276V18H43.361ZM44.3489 9.99503C44.0565 9.99503 43.8057 9.89808 43.5964 9.70419C43.3902 9.50722 43.2871 9.27178 43.2871 8.99787C43.2871 8.72704 43.3902 8.49467 43.5964 8.30078C43.8057 8.10381 44.0565 8.00533 44.3489 8.00533C44.6413 8.00533 44.8906 8.10381 45.0968 8.30078C45.306 8.49467 45.4107 8.72704 45.4107 8.99787C45.4107 9.27178 45.306 9.50722 45.0968 9.70419C44.8906 9.89808 44.6413 9.99503 44.3489 9.99503ZM50.7162 10.9091V12.3864H46.3398V10.9091H50.7162ZM47.3415 18V10.3967C47.3415 9.88269 47.4416 9.45644 47.6416 9.1179C47.8447 8.77936 48.1217 8.52545 48.4726 8.35618C48.8234 8.18691 49.222 8.10227 49.6682 8.10227C49.9698 8.10227 50.2453 8.12535 50.4946 8.17152C50.747 8.21768 50.9347 8.25923 51.0578 8.29616L50.7069 9.77344C50.63 9.74882 50.5346 9.72573 50.4207 9.70419C50.3099 9.68265 50.1961 9.67188 50.0791 9.67188C49.7898 9.67188 49.5882 9.73958 49.4743 9.875C49.3605 10.0073 49.3035 10.1935 49.3035 10.4336V18H47.3415ZM55.6893 10.9091V12.3864H51.419V10.9091H55.6893ZM52.3885 9.21023H54.3551V15.821C54.3551 16.0026 54.3828 16.1442 54.4382 16.2457C54.4936 16.3442 54.5705 16.4135 54.669 16.4535C54.7706 16.4935 54.8875 16.5135 55.0199 16.5135C55.1122 16.5135 55.2045 16.5058 55.2969 16.4904C55.3892 16.4719 55.46 16.4581 55.5092 16.4489L55.8185 17.9123C55.7201 17.9431 55.5816 17.9785 55.4031 18.0185C55.2246 18.0616 55.0076 18.0877 54.7521 18.0969C54.2782 18.1154 53.8627 18.0523 53.5057 17.9077C53.1518 17.763 52.8763 17.5384 52.6793 17.2337C52.4824 16.929 52.3854 16.5443 52.3885 16.0795V9.21023Z" fill="#FFFCFF"/>
</svg>
