<svg width="86" height="26" viewBox="0 0 86 26" fill="none" xmlns="http://www.w3.org/2000/svg">
<rect x="1" width="62" height="26" rx="6" fill="#FFCF01"/>
<g clip-path="url(#clip0_55_290)">
<path fill-rule="evenodd" clip-rule="evenodd" d="M13.9791 6C10.1199 6 7 9.20833 7 13.1775C7 16.3502 8.999 19.0359 11.7721 19.9864C12.1189 20.0579 12.2459 19.832 12.2459 19.642C12.2459 19.4756 12.2344 18.9052 12.2344 18.311C10.293 18.7388 9.88871 17.4554 9.88871 17.4554C9.57671 16.6235 9.11443 16.4097 9.11443 16.4097C8.479 15.97 9.16071 15.97 9.16071 15.97C9.86557 16.0176 10.2354 16.7068 10.2354 16.7068C10.8593 17.8 11.8646 17.4911 12.269 17.3009C12.3267 16.8375 12.5117 16.5166 12.7081 16.3384C11.1597 16.172 9.53057 15.5541 9.53057 12.7971C9.53057 12.0129 9.80771 11.3712 10.2469 10.8721C10.1776 10.6939 9.93486 9.95704 10.3163 8.97077C10.3163 8.97077 10.9056 8.7806 12.2343 9.70752C12.8032 9.55041 13.3898 9.47049 13.9791 9.46981C14.5684 9.46981 15.1691 9.55308 15.7239 9.70752C17.0527 8.7806 17.642 8.97077 17.642 8.97077C18.0234 9.95704 17.7806 10.6939 17.7113 10.8721C18.162 11.3712 18.4277 12.0129 18.4277 12.7971C18.4277 15.5541 16.7986 16.1601 15.2386 16.3384C15.4929 16.5642 15.7123 16.9919 15.7123 17.6693C15.7123 18.6318 15.7009 19.4043 15.7009 19.6418C15.7009 19.832 15.828 20.0579 16.1746 19.9866C18.9477 19.0358 20.9467 16.3502 20.9467 13.1775C20.9581 9.20833 17.8269 6 13.9791 6Z" fill="#24292F"/>
</g>
<path d="M28.9506 11.2646C28.9137 10.8922 28.7552 10.6029 28.4751 10.3967C28.1951 10.1905 27.815 10.0874 27.3349 10.0874C27.0086 10.0874 26.7332 10.1335 26.5085 10.2259C26.2839 10.3151 26.1115 10.4397 25.9915 10.5998C25.8745 10.7598 25.8161 10.9414 25.8161 11.1445C25.8099 11.3138 25.8453 11.4615 25.9222 11.5877C26.0022 11.7139 26.1115 11.8232 26.25 11.9155C26.3885 12.0047 26.5485 12.0832 26.7301 12.1509C26.9117 12.2156 27.1056 12.271 27.3118 12.3171L28.1612 12.5202C28.5736 12.6126 28.9522 12.7357 29.2969 12.8896C29.6416 13.0434 29.9401 13.2327 30.1925 13.4574C30.4448 13.6821 30.6403 13.9467 30.7788 14.2514C30.9203 14.5561 30.9927 14.9054 30.9957 15.2994C30.9927 15.878 30.8449 16.3796 30.5526 16.8043C30.2633 17.226 29.8447 17.5537 29.2969 17.7876C28.7521 18.0185 28.0951 18.1339 27.3256 18.1339C26.5624 18.1339 25.8976 18.0169 25.3313 17.783C24.7681 17.5491 24.328 17.2029 24.011 16.7443C23.6971 16.2827 23.5324 15.7118 23.517 15.0316H25.4513C25.4729 15.3486 25.5637 15.6133 25.7237 15.8256C25.8868 16.0349 26.1038 16.1934 26.3746 16.3011C26.6486 16.4058 26.9579 16.4581 27.3026 16.4581C27.6411 16.4581 27.935 16.4089 28.1843 16.3104C28.4367 16.2119 28.6321 16.0749 28.7706 15.8995C28.9091 15.7241 28.9783 15.5225 28.9783 15.2947C28.9783 15.0824 28.9152 14.9039 28.7891 14.7592C28.666 14.6146 28.4844 14.4915 28.2443 14.3899C28.0073 14.2884 27.7165 14.196 27.3718 14.1129L26.3423 13.8544C25.5452 13.6605 24.9158 13.3574 24.4542 12.945C23.9925 12.5326 23.7633 11.977 23.7663 11.2784C23.7633 10.706 23.9156 10.2058 24.2234 9.77805C24.5342 9.35026 24.9605 9.01634 25.5021 8.77628C26.0438 8.53622 26.6593 8.41619 27.3487 8.41619C28.0504 8.41619 28.6629 8.53622 29.1861 8.77628C29.7124 9.01634 30.1217 9.35026 30.4141 9.77805C30.7064 10.2058 30.8572 10.7013 30.8665 11.2646H28.9506ZM36.075 10.9091V12.3864H31.8048V10.9091H36.075ZM32.7742 9.21023H34.7409V15.821C34.7409 16.0026 34.7686 16.1442 34.824 16.2457C34.8794 16.3442 34.9563 16.4135 35.0548 16.4535C35.1563 16.4935 35.2733 16.5135 35.4056 16.5135C35.498 16.5135 35.5903 16.5058 35.6826 16.4904C35.7749 16.4719 35.8457 16.4581 35.895 16.4489L36.2043 17.9123C36.1058 17.9431 35.9673 17.9785 35.7888 18.0185C35.6103 18.0616 35.3933 18.0877 35.1379 18.0969C34.6639 18.1154 34.2484 18.0523 33.8914 17.9077C33.5375 17.763 33.262 17.5384 33.0651 17.2337C32.8681 16.929 32.7712 16.5443 32.7742 16.0795V9.21023ZM39.3781 18.1339C38.9257 18.1339 38.5225 18.0554 38.1686 17.8984C37.8147 17.7384 37.5346 17.503 37.3284 17.1921C37.1253 16.8782 37.0237 16.4873 37.0237 16.0195C37.0237 15.6256 37.096 15.2947 37.2407 15.027C37.3853 14.7592 37.5823 14.5438 37.8316 14.3807C38.0809 14.2176 38.364 14.0945 38.681 14.0114C39.0011 13.9283 39.3366 13.8698 39.6874 13.8359C40.0998 13.7929 40.4322 13.7528 40.6846 13.7159C40.9369 13.6759 41.1201 13.6174 41.2339 13.5405C41.3478 13.4635 41.4047 13.3497 41.4047 13.1989V13.1712C41.4047 12.8788 41.3124 12.6526 41.1278 12.4925C40.9462 12.3325 40.6876 12.2525 40.3522 12.2525C39.9983 12.2525 39.7166 12.331 39.5074 12.4879C39.2981 12.6418 39.1596 12.8357 39.0919 13.0696L37.273 12.9219C37.3653 12.491 37.5469 12.1186 37.8177 11.8047C38.0886 11.4877 38.4379 11.2446 38.8657 11.0753C39.2965 10.9029 39.7951 10.8168 40.3614 10.8168C40.7554 10.8168 41.1324 10.8629 41.4925 10.9553C41.8556 11.0476 42.1772 11.1907 42.4573 11.3846C42.7404 11.5785 42.9636 11.8278 43.1267 12.1325C43.2898 12.4341 43.3714 12.7957 43.3714 13.2173V18H41.5063V17.0167H41.4509C41.337 17.2383 41.1847 17.4337 40.9939 17.603C40.8031 17.7692 40.5738 17.9 40.306 17.9954C40.0383 18.0877 39.729 18.1339 39.3781 18.1339ZM39.9413 16.7766C40.2306 16.7766 40.4861 16.7197 40.7077 16.6058C40.9292 16.4889 41.1031 16.3319 41.2293 16.1349C41.3555 15.938 41.4186 15.7148 41.4186 15.4656V14.7131C41.357 14.7531 41.2724 14.79 41.1647 14.8239C41.06 14.8546 40.9416 14.8839 40.8092 14.9116C40.6769 14.9362 40.5445 14.9593 40.4122 14.9808C40.2799 14.9993 40.1598 15.0162 40.0521 15.0316C39.8213 15.0655 39.6197 15.1193 39.4474 15.1932C39.275 15.267 39.1411 15.3671 39.0457 15.4933C38.9503 15.6164 38.9026 15.7702 38.9026 15.9549C38.9026 16.2227 38.9996 16.4273 39.1934 16.5689C39.3904 16.7074 39.6397 16.7766 39.9413 16.7766ZM44.8971 18V10.9091H46.8037V12.1463H46.8776C47.0068 11.7062 47.2238 11.3738 47.5285 11.1491C47.8332 10.9214 48.184 10.8075 48.5811 10.8075C48.6795 10.8075 48.7857 10.8137 48.8996 10.826C49.0135 10.8383 49.1135 10.8552 49.1997 10.8768V12.6218C49.1073 12.5941 48.9796 12.5695 48.8165 12.5479C48.6534 12.5264 48.5041 12.5156 48.3687 12.5156C48.0794 12.5156 47.8209 12.5787 47.5931 12.7049C47.3685 12.828 47.19 13.0004 47.0576 13.2219C46.9284 13.4435 46.8637 13.699 46.8637 13.9883V18H44.8971ZM56.1163 12.9311L54.3159 13.0419C54.2851 12.888 54.2189 12.7495 54.1174 12.6264C54.0158 12.5002 53.8819 12.4002 53.7157 12.3263C53.5526 12.2494 53.3572 12.2109 53.1294 12.2109C52.8248 12.2109 52.5678 12.2756 52.3585 12.4048C52.1492 12.531 52.0446 12.7003 52.0446 12.9126C52.0446 13.0819 52.1123 13.225 52.2477 13.342C52.3831 13.4589 52.6155 13.5528 52.9448 13.6236L54.2282 13.8821C54.9176 14.0237 55.4315 14.2514 55.7701 14.5653C56.1086 14.8793 56.2779 15.2917 56.2779 15.8026C56.2779 16.2673 56.1409 16.6751 55.867 17.0259C55.5962 17.3768 55.2238 17.6507 54.7498 17.8477C54.2789 18.0415 53.7357 18.1385 53.1202 18.1385C52.1815 18.1385 51.4337 17.9431 50.8766 17.5522C50.3226 17.1583 49.9979 16.6228 49.9025 15.9457L51.8368 15.8441C51.8953 16.1303 52.0369 16.3488 52.2615 16.4996C52.4862 16.6474 52.774 16.7212 53.1248 16.7212C53.4695 16.7212 53.7465 16.6551 53.9558 16.5227C54.1681 16.3873 54.2759 16.2134 54.2789 16.0011C54.2759 15.8226 54.2005 15.6764 54.0527 15.5625C53.905 15.4455 53.6773 15.3563 53.3695 15.2947L52.1415 15.0501C51.449 14.9116 50.9335 14.6715 50.595 14.3299C50.2595 13.9883 50.0918 13.5528 50.0918 13.0234C50.0918 12.5679 50.2149 12.1755 50.4611 11.8462C50.7104 11.5169 51.0597 11.263 51.5091 11.0845C51.9615 10.906 52.4908 10.8168 53.0971 10.8168C53.9927 10.8168 54.6975 11.006 55.2115 11.3846C55.7285 11.7631 56.0301 12.2786 56.1163 12.9311Z" fill="#24292F"/>
<rect x="67.58" width="17" height="26" rx="6" fill="#FFCF01"/>
<path d="M76.0534 18.2077C75.2593 18.2047 74.5761 18.0092 74.0037 17.6214C73.4343 17.2337 72.9957 16.672 72.688 15.9364C72.3833 15.2009 72.2325 14.3161 72.2356 13.282C72.2356 12.2509 72.3879 11.3723 72.6926 10.646C73.0004 9.91963 73.4389 9.36719 74.0083 8.98864C74.5807 8.60701 75.2624 8.41619 76.0534 8.41619C76.8443 8.41619 77.5245 8.60701 78.0939 8.98864C78.6663 9.37026 79.1064 9.92424 79.4142 10.6506C79.7219 11.3738 79.8743 12.2509 79.8712 13.282C79.8712 14.3191 79.7173 15.2055 79.4096 15.9411C79.1049 16.6766 78.6678 17.2383 78.0985 17.6261C77.5291 18.0138 76.8474 18.2077 76.0534 18.2077ZM76.0534 16.5504C76.5951 16.5504 77.0275 16.2781 77.3506 15.7333C77.6738 15.1886 77.8338 14.3714 77.8307 13.282C77.8307 12.5649 77.7569 11.9678 77.6091 11.4908C77.4645 11.0137 77.2583 10.6552 76.9905 10.4151C76.7259 10.1751 76.4135 10.055 76.0534 10.055C75.5148 10.055 75.0839 10.3243 74.7608 10.8629C74.4376 11.4015 74.2745 12.2079 74.2714 13.282C74.2714 14.0083 74.3437 14.6146 74.4884 15.1009C74.6361 15.584 74.8439 15.9472 75.1116 16.1903C75.3794 16.4304 75.6933 16.5504 76.0534 16.5504Z" fill="#24292F"/>
<path d="M65.6541 14.0904C65.0276 13.4984 65.0276 12.5016 65.6541 11.9096L70.2199 7.59611C71.1764 6.69242 72.75 7.37055 72.75 8.68646L72.75 17.3135C72.75 18.6295 71.1764 19.3076 70.2199 18.4039L65.6541 14.0904Z" fill="#FFCF01"/>
<defs>
<clipPath id="clip0_55_290">
<rect width="14" height="14" fill="white" transform="translate(7 6)"/>
</clipPath>
</defs>
</svg>
