<svg width="220" height="26" viewBox="0 0 220 26" fill="none" xmlns="http://www.w3.org/2000/svg">
<path d="M1 12C1 6.34315 1 3.51472 2.75736 1.75736C4.51472 0 7.34315 0 13 0H60V26H13C7.34315 26 4.51472 26 2.75736 24.2426C1 22.4853 1 19.6569 1 14V12Z" fill="#3F3F3F"/>
<path d="M8.52983 8.54545L10.815 15.7287H10.9027L13.1925 8.54545H15.4084L12.1491 18H9.57315L6.3093 8.54545H8.52983ZM18.9411 18.1385C18.2117 18.1385 17.5839 17.9908 17.0576 17.6953C16.5344 17.3968 16.1312 16.9751 15.8481 16.4304C15.565 15.8826 15.4234 15.2347 15.4234 14.4869C15.4234 13.7575 15.565 13.1173 15.8481 12.5664C16.1312 12.0155 16.5298 11.5862 17.0438 11.2784C17.5608 10.9706 18.1671 10.8168 18.8627 10.8168C19.3305 10.8168 19.766 10.8922 20.1691 11.043C20.5754 11.1907 20.9293 11.4138 21.2309 11.7124C21.5356 12.0109 21.7726 12.3864 21.9419 12.8388C22.1111 13.2881 22.1958 13.8144 22.1958 14.4176V14.9577H16.2082V13.739H20.3445C20.3445 13.4558 20.283 13.205 20.1599 12.9865C20.0368 12.768 19.866 12.5972 19.6475 12.4741C19.432 12.3479 19.1812 12.2848 18.895 12.2848C18.5964 12.2848 18.3318 12.354 18.1009 12.4925C17.8732 12.628 17.6947 12.8111 17.5654 13.0419C17.4362 13.2696 17.37 13.5236 17.3669 13.8036V14.9624C17.3669 15.3132 17.4316 15.6164 17.5608 15.8718C17.6932 16.1272 17.8794 16.3242 18.1194 16.4627C18.3595 16.6012 18.6441 16.6705 18.9735 16.6705C19.192 16.6705 19.392 16.6397 19.5736 16.5781C19.7552 16.5166 19.9106 16.4242 20.0399 16.3011C20.1691 16.178 20.2676 16.0272 20.3353 15.8487L22.1542 15.9688C22.0619 16.4058 21.8726 16.7874 21.5864 17.1136C21.3032 17.4368 20.937 17.6892 20.4877 17.8707C20.0414 18.0492 19.5259 18.1385 18.9411 18.1385ZM23.4791 18V10.9091H25.3857V12.1463H25.4596C25.5889 11.7062 25.8058 11.3738 26.1105 11.1491C26.4152 10.9214 26.7661 10.8075 27.1631 10.8075C27.2616 10.8075 27.3677 10.8137 27.4816 10.826C27.5955 10.8383 27.6955 10.8552 27.7817 10.8768V12.6218C27.6894 12.5941 27.5616 12.5695 27.3985 12.5479C27.2354 12.5264 27.0861 12.5156 26.9507 12.5156C26.6614 12.5156 26.4029 12.5787 26.1752 12.7049C25.9505 12.828 25.772 13.0004 25.6396 13.2219C25.5104 13.4435 25.4458 13.699 25.4458 13.9883V18H23.4791ZM34.6983 12.9311L32.8979 13.0419C32.8671 12.888 32.801 12.7495 32.6994 12.6264C32.5978 12.5002 32.464 12.4002 32.2978 12.3263C32.1346 12.2494 31.9392 12.2109 31.7115 12.2109C31.4068 12.2109 31.1498 12.2756 30.9405 12.4048C30.7312 12.531 30.6266 12.7003 30.6266 12.9126C30.6266 13.0819 30.6943 13.225 30.8297 13.342C30.9651 13.4589 31.1975 13.5528 31.5268 13.6236L32.8102 13.8821C33.4996 14.0237 34.0136 14.2514 34.3521 14.5653C34.6906 14.8793 34.8599 15.2917 34.8599 15.8026C34.8599 16.2673 34.723 16.6751 34.449 17.0259C34.1782 17.3768 33.8058 17.6507 33.3319 17.8477C32.861 18.0415 32.3178 18.1385 31.7022 18.1385C30.7636 18.1385 30.0157 17.9431 29.4586 17.5522C28.9047 17.1583 28.58 16.6228 28.4846 15.9457L30.4189 15.8441C30.4773 16.1303 30.6189 16.3488 30.8436 16.4996C31.0682 16.6474 31.356 16.7212 31.7069 16.7212C32.0516 16.7212 32.3285 16.6551 32.5378 16.5227C32.7502 16.3873 32.8579 16.2134 32.861 16.0011C32.8579 15.8226 32.7825 15.6764 32.6348 15.5625C32.487 15.4455 32.2593 15.3563 31.9515 15.2947L30.7235 15.0501C30.0311 14.9116 29.5156 14.6715 29.177 14.3299C28.8416 13.9883 28.6738 13.5528 28.6738 13.0234C28.6738 12.5679 28.7969 12.1755 29.0431 11.8462C29.2924 11.5169 29.6417 11.263 30.0911 11.0845C30.5435 10.906 31.0729 10.8168 31.6792 10.8168C32.5748 10.8168 33.2795 11.006 33.7935 11.3846C34.3105 11.7631 34.6122 12.2786 34.6983 12.9311ZM36.0983 18V10.9091H38.0649V18H36.0983ZM37.0862 9.99503C36.7938 9.99503 36.543 9.89808 36.3337 9.70419C36.1275 9.50722 36.0244 9.27178 36.0244 8.99787C36.0244 8.72704 36.1275 8.49467 36.3337 8.30078C36.543 8.10381 36.7938 8.00533 37.0862 8.00533C37.3786 8.00533 37.6279 8.10381 37.8341 8.30078C38.0434 8.49467 38.148 8.72704 38.148 8.99787C38.148 9.27178 38.0434 9.50722 37.8341 9.70419C37.6279 9.89808 37.3786 9.99503 37.0862 9.99503ZM42.8441 18.1385C42.127 18.1385 41.5069 17.9862 40.9837 17.6815C40.4635 17.3737 40.0619 16.9459 39.7788 16.3981C39.4956 15.8472 39.354 15.2086 39.354 14.4822C39.354 13.7498 39.4956 13.1096 39.7788 12.5618C40.0619 12.0109 40.4635 11.5831 40.9837 11.2784C41.5069 10.9706 42.127 10.8168 42.8441 10.8168C43.5612 10.8168 44.1798 10.9706 44.6999 11.2784C45.2231 11.5831 45.6263 12.0109 45.9094 12.5618C46.1926 13.1096 46.3342 13.7498 46.3342 14.4822C46.3342 15.2086 46.1926 15.8472 45.9094 16.3981C45.6263 16.9459 45.2231 17.3737 44.6999 17.6815C44.1798 17.9862 43.5612 18.1385 42.8441 18.1385ZM42.8533 16.6151C43.1796 16.6151 43.4519 16.5227 43.6705 16.3381C43.889 16.1503 44.0536 15.8949 44.1644 15.5717C44.2783 15.2486 44.3352 14.8808 44.3352 14.4684C44.3352 14.056 44.2783 13.6882 44.1644 13.3651C44.0536 13.0419 43.889 12.7865 43.6705 12.5987C43.4519 12.411 43.1796 12.3171 42.8533 12.3171C42.524 12.3171 42.247 12.411 42.0224 12.5987C41.8008 12.7865 41.633 13.0419 41.5192 13.3651C41.4084 13.6882 41.353 14.056 41.353 14.4684C41.353 14.8808 41.4084 15.2486 41.5192 15.5717C41.633 15.8949 41.8008 16.1503 42.0224 16.3381C42.247 16.5227 42.524 16.6151 42.8533 16.6151ZM49.5795 13.9006V18H47.6129V10.9091H49.4872V12.1602H49.5703C49.7273 11.7478 49.9904 11.4215 50.3597 11.1815C50.729 10.9383 51.1768 10.8168 51.7031 10.8168C52.1955 10.8168 52.6249 10.9245 52.9911 11.1399C53.3574 11.3554 53.642 11.6631 53.8452 12.0632C54.0483 12.4602 54.1499 12.9342 54.1499 13.4851V18H52.1832V13.8359C52.1863 13.402 52.0755 13.0634 51.8509 12.8203C51.6262 12.5741 51.3169 12.451 50.9229 12.451C50.6583 12.451 50.4244 12.5079 50.2212 12.6218C50.0212 12.7357 49.8642 12.9019 49.7504 13.1204C49.6396 13.3358 49.5826 13.5959 49.5795 13.9006Z" fill="#FFFCFF"/>
<rect width="41" height="26" transform="translate(60)" fill="#533DA3"/>
<path d="M69.8796 8.54545V18H67.8807V10.4428H67.8253L65.6602 11.8001V10.0273L68.0007 8.54545H69.8796ZM72.7868 18.12C72.4822 18.12 72.2206 18.0123 72.002 17.7969C71.7866 17.5784 71.6789 17.3168 71.6789 17.0121C71.6789 16.7105 71.7866 16.4519 72.002 16.2365C72.2206 16.0211 72.4822 15.9134 72.7868 15.9134C73.0823 15.9134 73.3408 16.0211 73.5624 16.2365C73.784 16.4519 73.8948 16.7105 73.8948 17.0121C73.8948 17.2152 73.8425 17.4014 73.7378 17.5707C73.6363 17.7369 73.5024 17.8707 73.3362 17.9723C73.17 18.0708 72.9869 18.12 72.7868 18.12ZM78.8171 18.2077C78.0231 18.2047 77.3398 18.0092 76.7674 17.6214C76.198 17.2337 75.7595 16.672 75.4517 15.9364C75.147 15.2009 74.9962 14.3161 74.9993 13.282C74.9993 12.2509 75.1516 11.3723 75.4563 10.646C75.7641 9.91963 76.2027 9.36719 76.772 8.98864C77.3445 8.60701 78.0262 8.41619 78.8171 8.41619C79.6081 8.41619 80.2882 8.60701 80.8576 8.98864C81.43 9.37026 81.8701 9.92424 82.1779 10.6506C82.4857 11.3738 82.638 12.2509 82.6349 13.282C82.6349 14.3191 82.4811 15.2055 82.1733 15.9411C81.8686 16.6766 81.4316 17.2383 80.8622 17.6261C80.2929 18.0138 79.6112 18.2077 78.8171 18.2077ZM78.8171 16.5504C79.3588 16.5504 79.7912 16.2781 80.1143 15.7333C80.4375 15.1886 80.5975 14.3714 80.5945 13.282C80.5945 12.5649 80.5206 11.9678 80.3729 11.4908C80.2282 11.0137 80.022 10.6552 79.7543 10.4151C79.4896 10.1751 79.1772 10.055 78.8171 10.055C78.2785 10.055 77.8477 10.3243 77.5245 10.8629C77.2013 11.4015 77.0382 12.2079 77.0352 13.282C77.0352 14.0083 77.1075 14.6146 77.2521 15.1009C77.3999 15.584 77.6076 15.9472 77.8754 16.1903C78.1431 16.4304 78.457 16.5504 78.8171 16.5504ZM84.8474 18.12C84.5427 18.12 84.2811 18.0123 84.0626 17.7969C83.8472 17.5784 83.7394 17.3168 83.7394 17.0121C83.7394 16.7105 83.8472 16.4519 84.0626 16.2365C84.2811 16.0211 84.5427 15.9134 84.8474 15.9134C85.1428 15.9134 85.4014 16.0211 85.623 16.2365C85.8445 16.4519 85.9553 16.7105 85.9553 17.0121C85.9553 17.2152 85.903 17.4014 85.7984 17.5707C85.6968 17.7369 85.5629 17.8707 85.3968 17.9723C85.2306 18.0708 85.0474 18.12 84.8474 18.12ZM90.8777 18.2077C90.0836 18.2047 89.4004 18.0092 88.8279 17.6214C88.2586 17.2337 87.82 16.672 87.5123 15.9364C87.2076 15.2009 87.0568 14.3161 87.0598 13.282C87.0598 12.2509 87.2122 11.3723 87.5169 10.646C87.8246 9.91963 88.2632 9.36719 88.8326 8.98864C89.405 8.60701 90.0867 8.41619 90.8777 8.41619C91.6686 8.41619 92.3488 8.60701 92.9181 8.98864C93.4906 9.37026 93.9307 9.92424 94.2385 10.6506C94.5462 11.3738 94.6986 12.2509 94.6955 13.282C94.6955 14.3191 94.5416 15.2055 94.2338 15.9411C93.9292 16.6766 93.4921 17.2383 92.9228 17.6261C92.3534 18.0138 91.6717 18.2077 90.8777 18.2077ZM90.8777 16.5504C91.4193 16.5504 91.8517 16.2781 92.1749 15.7333C92.498 15.1886 92.6581 14.3714 92.655 13.282C92.655 12.5649 92.5811 11.9678 92.4334 11.4908C92.2888 11.0137 92.0826 10.6552 91.8148 10.4151C91.5501 10.1751 91.2377 10.055 90.8777 10.055C90.3391 10.055 89.9082 10.3243 89.585 10.8629C89.2619 11.4015 89.0988 12.2079 89.0957 13.282C89.0957 14.0083 89.168 14.6146 89.3127 15.1009C89.4604 15.584 89.6681 15.9472 89.9359 16.1903C90.2037 16.4304 90.5176 16.5504 90.8777 16.5504Z" fill="#FFFCFF"/>
<path d="M101 0H207C212.657 0 215.485 0 217.243 1.75736C219 3.51472 219 6.34315 219 12V14C219 19.6569 219 22.4853 217.243 24.2426C215.485 26 212.657 26 207 26H101V0Z" fill="#6C4FD4"/>
<path d="M111.951 11.2646C111.914 10.8922 111.755 10.6029 111.475 10.3967C111.195 10.1905 110.815 10.0874 110.335 10.0874C110.009 10.0874 109.733 10.1335 109.509 10.2259C109.284 10.3151 109.112 10.4397 108.991 10.5998C108.875 10.7598 108.816 10.9414 108.816 11.1445C108.81 11.3138 108.845 11.4615 108.922 11.5877C109.002 11.7139 109.112 11.8232 109.25 11.9155C109.388 12.0047 109.549 12.0832 109.73 12.1509C109.912 12.2156 110.106 12.271 110.312 12.3171L111.161 12.5202C111.574 12.6126 111.952 12.7357 112.297 12.8896C112.642 13.0434 112.94 13.2327 113.192 13.4574C113.445 13.6821 113.64 13.9467 113.779 14.2514C113.92 14.5561 113.993 14.9054 113.996 15.2994C113.993 15.878 113.845 16.3796 113.553 16.8043C113.263 17.226 112.845 17.5537 112.297 17.7876C111.752 18.0185 111.095 18.1339 110.326 18.1339C109.562 18.1339 108.898 18.0169 108.331 17.783C107.768 17.5491 107.328 17.2029 107.011 16.7443C106.697 16.2827 106.532 15.7118 106.517 15.0316H108.451C108.473 15.3486 108.564 15.6133 108.724 15.8256C108.887 16.0349 109.104 16.1934 109.375 16.3011C109.649 16.4058 109.958 16.4581 110.303 16.4581C110.641 16.4581 110.935 16.4089 111.184 16.3104C111.437 16.2119 111.632 16.0749 111.771 15.8995C111.909 15.7241 111.978 15.5225 111.978 15.2947C111.978 15.0824 111.915 14.9039 111.789 14.7592C111.666 14.6146 111.484 14.4915 111.244 14.3899C111.007 14.2884 110.717 14.196 110.372 14.1129L109.342 13.8544C108.545 13.6605 107.916 13.3574 107.454 12.945C106.993 12.5326 106.763 11.977 106.766 11.2784C106.763 10.706 106.916 10.2058 107.223 9.77805C107.534 9.35026 107.96 9.01634 108.502 8.77628C109.044 8.53622 109.659 8.41619 110.349 8.41619C111.05 8.41619 111.663 8.53622 112.186 8.77628C112.712 9.01634 113.122 9.35026 113.414 9.77805C113.706 10.2058 113.857 10.7013 113.866 11.2646H111.951ZM118.535 18.1385C117.805 18.1385 117.178 17.9908 116.651 17.6953C116.128 17.3968 115.725 16.9751 115.442 16.4304C115.159 15.8826 115.017 15.2347 115.017 14.4869C115.017 13.7575 115.159 13.1173 115.442 12.5664C115.725 12.0155 116.124 11.5862 116.638 11.2784C117.155 10.9706 117.761 10.8168 118.456 10.8168C118.924 10.8168 119.36 10.8922 119.763 11.043C120.169 11.1907 120.523 11.4138 120.825 11.7124C121.129 12.0109 121.366 12.3864 121.536 12.8388C121.705 13.2881 121.79 13.8144 121.79 14.4176V14.9577H115.802V13.739H119.938C119.938 13.4558 119.877 13.205 119.754 12.9865C119.631 12.768 119.46 12.5972 119.241 12.4741C119.026 12.3479 118.775 12.2848 118.489 12.2848C118.19 12.2848 117.926 12.354 117.695 12.4925C117.467 12.628 117.288 12.8111 117.159 13.0419C117.03 13.2696 116.964 13.5236 116.961 13.8036V14.9624C116.961 15.3132 117.025 15.6164 117.155 15.8718C117.287 16.1272 117.473 16.3242 117.713 16.4627C117.953 16.6012 118.238 16.6705 118.567 16.6705C118.786 16.6705 118.986 16.6397 119.167 16.5781C119.349 16.5166 119.504 16.4242 119.634 16.3011C119.763 16.178 119.861 16.0272 119.929 15.8487L121.748 15.9688C121.656 16.4058 121.466 16.7874 121.18 17.1136C120.897 17.4368 120.531 17.6892 120.081 17.8707C119.635 18.0492 119.12 18.1385 118.535 18.1385ZM123.073 20.6591V10.9091H125.012V12.1001H125.1C125.186 11.9093 125.31 11.7154 125.473 11.5185C125.64 11.3184 125.855 11.1522 126.12 11.0199C126.388 10.8845 126.72 10.8168 127.117 10.8168C127.634 10.8168 128.111 10.9522 128.548 11.223C128.985 11.4908 129.334 11.8955 129.596 12.4371C129.858 12.9757 129.988 13.6513 129.988 14.4638C129.988 15.2547 129.861 15.9226 129.605 16.4673C129.353 17.009 129.008 17.4199 128.571 17.6999C128.137 17.9769 127.651 18.1154 127.112 18.1154C126.731 18.1154 126.406 18.0523 126.138 17.9261C125.874 17.8 125.657 17.6415 125.487 17.4506C125.318 17.2567 125.189 17.0613 125.1 16.8643H125.04V20.6591H123.073ZM124.998 14.4545C124.998 14.8762 125.056 15.244 125.173 15.5579C125.29 15.8718 125.46 16.1165 125.681 16.2919C125.903 16.4643 126.172 16.5504 126.489 16.5504C126.809 16.5504 127.08 16.4627 127.302 16.2873C127.523 16.1088 127.691 15.8626 127.805 15.5487C127.922 15.2317 127.98 14.867 127.98 14.4545C127.98 14.0452 127.923 13.6851 127.809 13.3743C127.696 13.0634 127.528 12.8203 127.306 12.6449C127.085 12.4695 126.812 12.3817 126.489 12.3817C126.169 12.3817 125.898 12.4664 125.677 12.6357C125.458 12.8049 125.29 13.045 125.173 13.3558C125.056 13.6667 124.998 14.0329 124.998 14.4545ZM135.071 10.9091V12.3864H130.801V10.9091H135.071ZM131.77 9.21023H133.737V15.821C133.737 16.0026 133.765 16.1442 133.82 16.2457C133.875 16.3442 133.952 16.4135 134.051 16.4535C134.152 16.4935 134.269 16.5135 134.402 16.5135C134.494 16.5135 134.586 16.5058 134.679 16.4904C134.771 16.4719 134.842 16.4581 134.891 16.4489L135.2 17.9123C135.102 17.9431 134.963 17.9785 134.785 18.0185C134.606 18.0616 134.389 18.0877 134.134 18.0969C133.66 18.1154 133.245 18.0523 132.888 17.9077C132.534 17.763 132.258 17.5384 132.061 17.2337C131.864 16.929 131.767 16.5443 131.77 16.0795V9.21023ZM139.508 18.1385C138.778 18.1385 138.15 17.9908 137.624 17.6953C137.101 17.3968 136.698 16.9751 136.415 16.4304C136.131 15.8826 135.99 15.2347 135.99 14.4869C135.99 13.7575 136.131 13.1173 136.415 12.5664C136.698 12.0155 137.096 11.5862 137.61 11.2784C138.127 10.9706 138.734 10.8168 139.429 10.8168C139.897 10.8168 140.332 10.8922 140.736 11.043C141.142 11.1907 141.496 11.4138 141.797 11.7124C142.102 12.0109 142.339 12.3864 142.508 12.8388C142.678 13.2881 142.762 13.8144 142.762 14.4176V14.9577H136.775V13.739H140.911C140.911 13.4558 140.849 13.205 140.726 12.9865C140.603 12.768 140.432 12.5972 140.214 12.4741C139.998 12.3479 139.748 12.2848 139.461 12.2848C139.163 12.2848 138.898 12.354 138.667 12.4925C138.44 12.628 138.261 12.8111 138.132 13.0419C138.003 13.2696 137.936 13.5236 137.933 13.8036V14.9624C137.933 15.3132 137.998 15.6164 138.127 15.8718C138.26 16.1272 138.446 16.3242 138.686 16.4627C138.926 16.6012 139.211 16.6705 139.54 16.6705C139.758 16.6705 139.958 16.6397 140.14 16.5781C140.322 16.5166 140.477 16.4242 140.606 16.3011C140.736 16.178 140.834 16.0272 140.902 15.8487L142.721 15.9688C142.628 16.4058 142.439 16.7874 142.153 17.1136C141.87 17.4368 141.503 17.6892 141.054 17.8707C140.608 18.0492 140.092 18.1385 139.508 18.1385ZM144.046 18V10.9091H145.92V12.1602H146.003C146.151 11.7447 146.397 11.4169 146.742 11.1768C147.086 10.9368 147.499 10.8168 147.979 10.8168C148.465 10.8168 148.879 10.9383 149.221 11.1815C149.562 11.4215 149.79 11.7478 149.904 12.1602H149.978C150.122 11.7539 150.384 11.4292 150.763 11.1861C151.144 10.9399 151.595 10.8168 152.115 10.8168C152.777 10.8168 153.314 11.0276 153.726 11.4492C154.142 11.8678 154.35 12.4618 154.35 13.2312V18H152.388V13.619C152.388 13.225 152.283 12.9296 152.074 12.7326C151.864 12.5356 151.603 12.4371 151.289 12.4371C150.932 12.4371 150.653 12.551 150.453 12.7788C150.253 13.0034 150.153 13.3004 150.153 13.6697V18H148.247V13.5774C148.247 13.2296 148.147 12.9527 147.946 12.7464C147.749 12.5402 147.489 12.4371 147.166 12.4371C146.948 12.4371 146.751 12.4925 146.575 12.6033C146.403 12.7111 146.266 12.8634 146.165 13.0604C146.063 13.2543 146.012 13.482 146.012 13.7436V18H144.046ZM155.94 18V8.54545H157.907V12.1001H157.967C158.053 11.9093 158.177 11.7154 158.34 11.5185C158.507 11.3184 158.722 11.1522 158.987 11.0199C159.255 10.8845 159.587 10.8168 159.984 10.8168C160.501 10.8168 160.978 10.9522 161.415 11.223C161.852 11.4908 162.201 11.8955 162.463 12.4371C162.725 12.9757 162.855 13.6513 162.855 14.4638C162.855 15.2547 162.728 15.9226 162.472 16.4673C162.22 17.009 161.875 17.4199 161.438 17.6999C161.004 17.9769 160.518 18.1154 159.979 18.1154C159.598 18.1154 159.273 18.0523 159.005 17.9261C158.741 17.8 158.524 17.6415 158.354 17.4506C158.185 17.2567 158.056 17.0613 157.967 16.8643H157.879V18H155.94ZM157.865 14.4545C157.865 14.8762 157.923 15.244 158.04 15.5579C158.157 15.8718 158.327 16.1165 158.548 16.2919C158.77 16.4643 159.039 16.5504 159.356 16.5504C159.676 16.5504 159.947 16.4627 160.169 16.2873C160.39 16.1088 160.558 15.8626 160.672 15.5487C160.789 15.2317 160.847 14.867 160.847 14.4545C160.847 14.0452 160.79 13.6851 160.676 13.3743C160.563 13.0634 160.395 12.8203 160.173 12.6449C159.952 12.4695 159.679 12.3817 159.356 12.3817C159.036 12.3817 158.765 12.4664 158.544 12.6357C158.325 12.8049 158.157 13.045 158.04 13.3558C157.923 13.6667 157.865 14.0329 157.865 14.4545ZM167.399 18.1385C166.67 18.1385 166.042 17.9908 165.516 17.6953C164.992 17.3968 164.589 16.9751 164.306 16.4304C164.023 15.8826 163.881 15.2347 163.881 14.4869C163.881 13.7575 164.023 13.1173 164.306 12.5664C164.589 12.0155 164.988 11.5862 165.502 11.2784C166.019 10.9706 166.625 10.8168 167.321 10.8168C167.788 10.8168 168.224 10.8922 168.627 11.043C169.033 11.1907 169.387 11.4138 169.689 11.7124C169.994 12.0109 170.231 12.3864 170.4 12.8388C170.569 13.2881 170.654 13.8144 170.654 14.4176V14.9577H164.666V13.739H168.803C168.803 13.4558 168.741 13.205 168.618 12.9865C168.495 12.768 168.324 12.5972 168.105 12.4741C167.89 12.3479 167.639 12.2848 167.353 12.2848C167.054 12.2848 166.79 12.354 166.559 12.4925C166.331 12.628 166.153 12.8111 166.023 13.0419C165.894 13.2696 165.828 13.5236 165.825 13.8036V14.9624C165.825 15.3132 165.89 15.6164 166.019 15.8718C166.151 16.1272 166.337 16.3242 166.577 16.4627C166.817 16.6012 167.102 16.6705 167.431 16.6705C167.65 16.6705 167.85 16.6397 168.032 16.5781C168.213 16.5166 168.369 16.4242 168.498 16.3011C168.627 16.178 168.726 16.0272 168.793 15.8487L170.612 15.9688C170.52 16.4058 170.331 16.7874 170.044 17.1136C169.761 17.4368 169.395 17.6892 168.946 17.8707C168.499 18.0492 167.984 18.1385 167.399 18.1385ZM171.937 18V10.9091H173.844V12.1463H173.918C174.047 11.7062 174.264 11.3738 174.569 11.1491C174.873 10.9214 175.224 10.8075 175.621 10.8075C175.72 10.8075 175.826 10.8137 175.94 10.826C176.054 10.8383 176.154 10.8552 176.24 10.8768V12.6218C176.147 12.5941 176.02 12.5695 175.857 12.5479C175.693 12.5264 175.544 12.5156 175.409 12.5156C175.119 12.5156 174.861 12.5787 174.633 12.7049C174.408 12.828 174.23 13.0004 174.098 13.2219C173.968 13.4435 173.904 13.699 173.904 13.9883V18H171.937ZM180.247 18V16.5597L183.612 13.4435C183.898 13.1665 184.138 12.9173 184.332 12.6957C184.529 12.4741 184.679 12.2571 184.78 12.0447C184.882 11.8293 184.933 11.5969 184.933 11.3477C184.933 11.0707 184.869 10.8321 184.743 10.6321C184.617 10.429 184.445 10.2736 184.226 10.1658C184.008 10.055 183.76 9.99964 183.483 9.99964C183.194 9.99964 182.941 10.0581 182.726 10.1751C182.51 10.292 182.344 10.4598 182.227 10.6783C182.11 10.8968 182.052 11.1568 182.052 11.4585H180.154C180.154 10.8398 180.295 10.3028 180.575 9.8473C180.855 9.39181 181.247 9.03942 181.752 8.79013C182.257 8.54084 182.838 8.41619 183.497 8.41619C184.174 8.41619 184.763 8.53622 185.265 8.77628C185.77 9.01326 186.162 9.34257 186.442 9.7642C186.722 10.1858 186.862 10.669 186.862 11.2138C186.862 11.5708 186.791 11.9232 186.65 12.271C186.511 12.6187 186.264 13.005 185.907 13.4297C185.55 13.8513 185.046 14.3576 184.397 14.9485L183.017 16.3011V16.3658H186.987V18H180.247ZM192.142 18.2077C191.348 18.2047 190.665 18.0092 190.093 17.6214C189.523 17.2337 189.085 16.672 188.777 15.9364C188.472 15.2009 188.321 14.3161 188.324 13.282C188.324 12.2509 188.477 11.3723 188.782 10.646C189.089 9.91963 189.528 9.36719 190.097 8.98864C190.67 8.60701 191.351 8.41619 192.142 8.41619C192.933 8.41619 193.613 8.60701 194.183 8.98864C194.755 9.37026 195.195 9.92424 195.503 10.6506C195.811 11.3738 195.963 12.2509 195.96 13.282C195.96 14.3191 195.806 15.2055 195.498 15.9411C195.194 16.6766 194.757 17.2383 194.187 17.6261C193.618 18.0138 192.936 18.2077 192.142 18.2077ZM192.142 16.5504C192.684 16.5504 193.116 16.2781 193.44 15.7333C193.763 15.1886 193.923 14.3714 193.92 13.282C193.92 12.5649 193.846 11.9678 193.698 11.4908C193.553 11.0137 193.347 10.6552 193.079 10.4151C192.815 10.1751 192.502 10.055 192.142 10.055C191.604 10.055 191.173 10.3243 190.85 10.8629C190.527 11.4015 190.363 12.2079 190.36 13.282C190.36 14.0083 190.433 14.6146 190.577 15.1009C190.725 15.584 190.933 15.9472 191.201 16.1903C191.468 16.4304 191.782 16.5504 192.142 16.5504ZM197.385 18V16.5597L200.751 13.4435C201.037 13.1665 201.277 12.9173 201.471 12.6957C201.668 12.4741 201.817 12.2571 201.919 12.0447C202.02 11.8293 202.071 11.5969 202.071 11.3477C202.071 11.0707 202.008 10.8321 201.882 10.6321C201.756 10.429 201.583 10.2736 201.365 10.1658C201.146 10.055 200.899 9.99964 200.622 9.99964C200.332 9.99964 200.08 10.0581 199.865 10.1751C199.649 10.292 199.483 10.4598 199.366 10.6783C199.249 10.8968 199.191 11.1568 199.191 11.4585H197.293C197.293 10.8398 197.433 10.3028 197.713 9.8473C197.993 9.39181 198.386 9.03942 198.89 8.79013C199.395 8.54084 199.977 8.41619 200.635 8.41619C201.313 8.41619 201.902 8.53622 202.404 8.77628C202.908 9.01326 203.301 9.34257 203.581 9.7642C203.861 10.1858 204.001 10.669 204.001 11.2138C204.001 11.5708 203.93 11.9232 203.789 12.271C203.65 12.6187 203.402 13.005 203.045 13.4297C202.688 13.8513 202.185 14.3576 201.536 14.9485L200.155 16.3011V16.3658H204.126V18H197.385ZM209.069 18.1293C208.379 18.1293 207.765 18.0108 207.227 17.7738C206.691 17.5337 206.268 17.2044 205.957 16.7859C205.649 16.3642 205.491 15.878 205.482 15.3271H207.494C207.507 15.5579 207.582 15.761 207.721 15.9364C207.862 16.1088 208.05 16.2427 208.284 16.3381C208.518 16.4335 208.781 16.4812 209.073 16.4812C209.378 16.4812 209.647 16.4273 209.881 16.3196C210.115 16.2119 210.298 16.0626 210.43 15.8718C210.563 15.681 210.629 15.4609 210.629 15.2116C210.629 14.9593 210.558 14.7362 210.417 14.5423C210.278 14.3453 210.078 14.1914 209.816 14.0806C209.558 13.9698 209.25 13.9144 208.893 13.9144H208.011V12.4464H208.893C209.195 12.4464 209.461 12.3941 209.692 12.2894C209.926 12.1848 210.107 12.0401 210.237 11.8555C210.366 11.6677 210.43 11.4492 210.43 11.1999C210.43 10.9629 210.374 10.7552 210.26 10.5767C210.149 10.3951 209.992 10.2536 209.789 10.152C209.589 10.0504 209.355 9.99964 209.087 9.99964C208.816 9.99964 208.569 10.0489 208.344 10.1474C208.119 10.2428 207.939 10.3797 207.804 10.5582C207.668 10.7367 207.596 10.946 207.587 11.1861H205.671C205.68 10.6413 205.836 10.1612 206.137 9.74574C206.439 9.33026 206.845 9.00556 207.356 8.77166C207.87 8.53468 208.45 8.41619 209.096 8.41619C209.749 8.41619 210.32 8.53468 210.809 8.77166C211.298 9.00864 211.678 9.32872 211.949 9.73189C212.223 10.132 212.359 10.5813 212.356 11.0799C212.359 11.6093 212.194 12.0509 211.862 12.4048C211.532 12.7588 211.103 12.9834 210.574 13.0788V13.1527C211.269 13.242 211.799 13.4835 212.162 13.8775C212.528 14.2683 212.709 14.7577 212.706 15.3455C212.709 15.8841 212.554 16.3627 212.24 16.7812C211.929 17.1998 211.5 17.5291 210.952 17.7692C210.404 18.0092 209.776 18.1293 209.069 18.1293Z" fill="#FFFCFF"/>
</svg>
