<svg width="186" height="26" viewBox="0 0 186 26" fill="none" xmlns="http://www.w3.org/2000/svg">
<path d="M1 12C1 6.34315 1 3.51472 2.75736 1.75736C4.51472 0 7.34315 0 13 0H60V26H13C7.34315 26 4.51472 26 2.75736 24.2426C1 22.4853 1 19.6569 1 14V12Z" fill="#3F3F3F"/>
<path d="M8.52983 8.54545L10.815 15.7287H10.9027L13.1925 8.54545H15.4084L12.1491 18H9.57315L6.3093 8.54545H8.52983ZM18.9411 18.1385C18.2117 18.1385 17.5839 17.9908 17.0576 17.6953C16.5344 17.3968 16.1312 16.9751 15.8481 16.4304C15.565 15.8826 15.4234 15.2347 15.4234 14.4869C15.4234 13.7575 15.565 13.1173 15.8481 12.5664C16.1312 12.0155 16.5298 11.5862 17.0438 11.2784C17.5608 10.9706 18.1671 10.8168 18.8627 10.8168C19.3305 10.8168 19.766 10.8922 20.1691 11.043C20.5754 11.1907 20.9293 11.4138 21.2309 11.7124C21.5356 12.0109 21.7726 12.3864 21.9419 12.8388C22.1111 13.2881 22.1958 13.8144 22.1958 14.4176V14.9577H16.2082V13.739H20.3445C20.3445 13.4558 20.283 13.205 20.1599 12.9865C20.0368 12.768 19.866 12.5972 19.6475 12.4741C19.432 12.3479 19.1812 12.2848 18.895 12.2848C18.5964 12.2848 18.3318 12.354 18.1009 12.4925C17.8732 12.628 17.6947 12.8111 17.5654 13.0419C17.4362 13.2696 17.37 13.5236 17.3669 13.8036V14.9624C17.3669 15.3132 17.4316 15.6164 17.5608 15.8718C17.6932 16.1272 17.8794 16.3242 18.1194 16.4627C18.3595 16.6012 18.6441 16.6705 18.9735 16.6705C19.192 16.6705 19.392 16.6397 19.5736 16.5781C19.7552 16.5166 19.9106 16.4242 20.0399 16.3011C20.1691 16.178 20.2676 16.0272 20.3353 15.8487L22.1542 15.9688C22.0619 16.4058 21.8726 16.7874 21.5864 17.1136C21.3032 17.4368 20.937 17.6892 20.4877 17.8707C20.0414 18.0492 19.5259 18.1385 18.9411 18.1385ZM23.4791 18V10.9091H25.3857V12.1463H25.4596C25.5889 11.7062 25.8058 11.3738 26.1105 11.1491C26.4152 10.9214 26.7661 10.8075 27.1631 10.8075C27.2616 10.8075 27.3677 10.8137 27.4816 10.826C27.5955 10.8383 27.6955 10.8552 27.7817 10.8768V12.6218C27.6894 12.5941 27.5616 12.5695 27.3985 12.5479C27.2354 12.5264 27.0861 12.5156 26.9507 12.5156C26.6614 12.5156 26.4029 12.5787 26.1752 12.7049C25.9505 12.828 25.772 13.0004 25.6396 13.2219C25.5104 13.4435 25.4458 13.699 25.4458 13.9883V18H23.4791ZM34.6983 12.9311L32.8979 13.0419C32.8671 12.888 32.801 12.7495 32.6994 12.6264C32.5978 12.5002 32.464 12.4002 32.2978 12.3263C32.1346 12.2494 31.9392 12.2109 31.7115 12.2109C31.4068 12.2109 31.1498 12.2756 30.9405 12.4048C30.7312 12.531 30.6266 12.7003 30.6266 12.9126C30.6266 13.0819 30.6943 13.225 30.8297 13.342C30.9651 13.4589 31.1975 13.5528 31.5268 13.6236L32.8102 13.8821C33.4996 14.0237 34.0136 14.2514 34.3521 14.5653C34.6906 14.8793 34.8599 15.2917 34.8599 15.8026C34.8599 16.2673 34.723 16.6751 34.449 17.0259C34.1782 17.3768 33.8058 17.6507 33.3319 17.8477C32.861 18.0415 32.3178 18.1385 31.7022 18.1385C30.7636 18.1385 30.0157 17.9431 29.4586 17.5522C28.9047 17.1583 28.58 16.6228 28.4846 15.9457L30.4189 15.8441C30.4773 16.1303 30.6189 16.3488 30.8436 16.4996C31.0682 16.6474 31.356 16.7212 31.7069 16.7212C32.0516 16.7212 32.3285 16.6551 32.5378 16.5227C32.7502 16.3873 32.8579 16.2134 32.861 16.0011C32.8579 15.8226 32.7825 15.6764 32.6348 15.5625C32.487 15.4455 32.2593 15.3563 31.9515 15.2947L30.7235 15.0501C30.0311 14.9116 29.5156 14.6715 29.177 14.3299C28.8416 13.9883 28.6738 13.5528 28.6738 13.0234C28.6738 12.5679 28.7969 12.1755 29.0431 11.8462C29.2924 11.5169 29.6417 11.263 30.0911 11.0845C30.5435 10.906 31.0729 10.8168 31.6792 10.8168C32.5748 10.8168 33.2795 11.006 33.7935 11.3846C34.3105 11.7631 34.6122 12.2786 34.6983 12.9311ZM36.0983 18V10.9091H38.0649V18H36.0983ZM37.0862 9.99503C36.7938 9.99503 36.543 9.89808 36.3337 9.70419C36.1275 9.50722 36.0244 9.27178 36.0244 8.99787C36.0244 8.72704 36.1275 8.49467 36.3337 8.30078C36.543 8.10381 36.7938 8.00533 37.0862 8.00533C37.3786 8.00533 37.6279 8.10381 37.8341 8.30078C38.0434 8.49467 38.148 8.72704 38.148 8.99787C38.148 9.27178 38.0434 9.50722 37.8341 9.70419C37.6279 9.89808 37.3786 9.99503 37.0862 9.99503ZM42.8441 18.1385C42.127 18.1385 41.5069 17.9862 40.9837 17.6815C40.4635 17.3737 40.0619 16.9459 39.7788 16.3981C39.4956 15.8472 39.354 15.2086 39.354 14.4822C39.354 13.7498 39.4956 13.1096 39.7788 12.5618C40.0619 12.0109 40.4635 11.5831 40.9837 11.2784C41.5069 10.9706 42.127 10.8168 42.8441 10.8168C43.5612 10.8168 44.1798 10.9706 44.6999 11.2784C45.2231 11.5831 45.6263 12.0109 45.9094 12.5618C46.1926 13.1096 46.3342 13.7498 46.3342 14.4822C46.3342 15.2086 46.1926 15.8472 45.9094 16.3981C45.6263 16.9459 45.2231 17.3737 44.6999 17.6815C44.1798 17.9862 43.5612 18.1385 42.8441 18.1385ZM42.8533 16.6151C43.1796 16.6151 43.4519 16.5227 43.6705 16.3381C43.889 16.1503 44.0536 15.8949 44.1644 15.5717C44.2783 15.2486 44.3352 14.8808 44.3352 14.4684C44.3352 14.056 44.2783 13.6882 44.1644 13.3651C44.0536 13.0419 43.889 12.7865 43.6705 12.5987C43.4519 12.411 43.1796 12.3171 42.8533 12.3171C42.524 12.3171 42.247 12.411 42.0224 12.5987C41.8008 12.7865 41.633 13.0419 41.5192 13.3651C41.4084 13.6882 41.353 14.056 41.353 14.4684C41.353 14.8808 41.4084 15.2486 41.5192 15.5717C41.633 15.8949 41.8008 16.1503 42.0224 16.3381C42.247 16.5227 42.524 16.6151 42.8533 16.6151ZM49.5795 13.9006V18H47.6129V10.9091H49.4872V12.1602H49.5703C49.7273 11.7478 49.9904 11.4215 50.3597 11.1815C50.729 10.9383 51.1768 10.8168 51.7031 10.8168C52.1955 10.8168 52.6249 10.9245 52.9911 11.1399C53.3574 11.3554 53.642 11.6631 53.8452 12.0632C54.0483 12.4602 54.1499 12.9342 54.1499 13.4851V18H52.1832V13.8359C52.1863 13.402 52.0755 13.0634 51.8509 12.8203C51.6262 12.5741 51.3169 12.451 50.9229 12.451C50.6583 12.451 50.4244 12.5079 50.2212 12.6218C50.0212 12.7357 49.8642 12.9019 49.7504 13.1204C49.6396 13.3358 49.5826 13.5959 49.5795 13.9006Z" fill="white"/>
<rect width="37" height="26" transform="translate(60)" fill="#533DA3"/>
<path d="M69.8796 8.54545V18H67.8807V10.4428H67.8253L65.6602 11.8001V10.0273L68.0007 8.54545H69.8796ZM72.7868 18.12C72.4822 18.12 72.2206 18.0123 72.002 17.7969C71.7866 17.5784 71.6789 17.3168 71.6789 17.0121C71.6789 16.7105 71.7866 16.4519 72.002 16.2365C72.2206 16.0211 72.4822 15.9134 72.7868 15.9134C73.0823 15.9134 73.3408 16.0211 73.5624 16.2365C73.784 16.4519 73.8948 16.7105 73.8948 17.0121C73.8948 17.2152 73.8425 17.4014 73.7378 17.5707C73.6363 17.7369 73.5024 17.8707 73.3362 17.9723C73.17 18.0708 72.9869 18.12 72.7868 18.12ZM78.8171 18.2077C78.0231 18.2047 77.3398 18.0092 76.7674 17.6214C76.198 17.2337 75.7595 16.672 75.4517 15.9364C75.147 15.2009 74.9962 14.3161 74.9993 13.282C74.9993 12.2509 75.1516 11.3723 75.4563 10.646C75.7641 9.91963 76.2027 9.36719 76.772 8.98864C77.3445 8.60701 78.0262 8.41619 78.8171 8.41619C79.6081 8.41619 80.2882 8.60701 80.8576 8.98864C81.43 9.37026 81.8701 9.92424 82.1779 10.6506C82.4857 11.3738 82.638 12.2509 82.6349 13.282C82.6349 14.3191 82.4811 15.2055 82.1733 15.9411C81.8686 16.6766 81.4316 17.2383 80.8622 17.6261C80.2929 18.0138 79.6112 18.2077 78.8171 18.2077ZM78.8171 16.5504C79.3588 16.5504 79.7912 16.2781 80.1143 15.7333C80.4375 15.1886 80.5975 14.3714 80.5945 13.282C80.5945 12.5649 80.5206 11.9678 80.3729 11.4908C80.2282 11.0137 80.022 10.6552 79.7543 10.4151C79.4896 10.1751 79.1772 10.055 78.8171 10.055C78.2785 10.055 77.8477 10.3243 77.5245 10.8629C77.2013 11.4015 77.0382 12.2079 77.0352 13.282C77.0352 14.0083 77.1075 14.6146 77.2521 15.1009C77.3999 15.584 77.6076 15.9472 77.8754 16.1903C78.1431 16.4304 78.457 16.5504 78.8171 16.5504ZM84.8474 18.12C84.5427 18.12 84.2811 18.0123 84.0626 17.7969C83.8472 17.5784 83.7394 17.3168 83.7394 17.0121C83.7394 16.7105 83.8472 16.4519 84.0626 16.2365C84.2811 16.0211 84.5427 15.9134 84.8474 15.9134C85.1428 15.9134 85.4014 16.0211 85.623 16.2365C85.8445 16.4519 85.9553 16.7105 85.9553 17.0121C85.9553 17.2152 85.903 17.4014 85.7984 17.5707C85.6968 17.7369 85.5629 17.8707 85.3968 17.9723C85.2306 18.0708 85.0474 18.12 84.8474 18.12ZM90.4841 8.54545V18H88.4852V10.4428H88.4298L86.2646 11.8001V10.0273L88.6052 8.54545H90.4841Z" fill="white"/>
<path d="M97 0H173C178.657 0 181.485 0 183.243 1.75736C185 3.51472 185 6.34315 185 12V14C185 19.6569 185 22.4853 183.243 24.2426C181.485 26 178.657 26 173 26H97V0Z" fill="#6C4FD4"/>
<path d="M102.822 8.54545H105.287L107.891 14.8977H108.001L110.605 8.54545H113.07V18H111.131V11.8462H111.053L108.606 17.9538H107.286L104.839 11.8232H104.761V18H102.822V8.54545ZM116.702 18.1339C116.25 18.1339 115.847 18.0554 115.493 17.8984C115.139 17.7384 114.859 17.503 114.653 17.1921C114.449 16.8782 114.348 16.4873 114.348 16.0195C114.348 15.6256 114.42 15.2947 114.565 15.027C114.71 14.7592 114.907 14.5438 115.156 14.3807C115.405 14.2176 115.688 14.0945 116.005 14.0114C116.325 13.9283 116.661 13.8698 117.012 13.8359C117.424 13.7929 117.756 13.7528 118.009 13.7159C118.261 13.6759 118.444 13.6174 118.558 13.5405C118.672 13.4635 118.729 13.3497 118.729 13.1989V13.1712C118.729 12.8788 118.637 12.6526 118.452 12.4925C118.27 12.3325 118.012 12.2525 117.676 12.2525C117.322 12.2525 117.041 12.331 116.832 12.4879C116.622 12.6418 116.484 12.8357 116.416 13.0696L114.597 12.9219C114.69 12.491 114.871 12.1186 115.142 11.8047C115.413 11.4877 115.762 11.2446 116.19 11.0753C116.621 10.9029 117.119 10.8168 117.686 10.8168C118.08 10.8168 118.457 10.8629 118.817 10.9553C119.18 11.0476 119.501 11.1907 119.782 11.3846C120.065 11.5785 120.288 11.8278 120.451 12.1325C120.614 12.4341 120.696 12.7957 120.696 13.2173V18H118.831V17.0167H118.775C118.661 17.2383 118.509 17.4337 118.318 17.603C118.127 17.7692 117.898 17.9 117.63 17.9954C117.362 18.0877 117.053 18.1339 116.702 18.1339ZM117.266 16.7766C117.555 16.7766 117.81 16.7197 118.032 16.6058C118.253 16.4889 118.427 16.3319 118.554 16.1349C118.68 15.938 118.743 15.7148 118.743 15.4656V14.7131C118.681 14.7531 118.597 14.79 118.489 14.8239C118.384 14.8546 118.266 14.8839 118.133 14.9116C118.001 14.9362 117.869 14.9593 117.736 14.9808C117.604 14.9993 117.484 15.0162 117.376 15.0316C117.146 15.0655 116.944 15.1193 116.772 15.1932C116.599 15.267 116.465 15.3671 116.37 15.4933C116.275 15.6164 116.227 15.7702 116.227 15.9549C116.227 16.2227 116.324 16.4273 116.518 16.5689C116.715 16.7074 116.964 16.7766 117.266 16.7766ZM122.221 18V10.9091H124.128V12.1463H124.202C124.331 11.7062 124.548 11.3738 124.853 11.1491C125.157 10.9214 125.508 10.8075 125.905 10.8075C126.004 10.8075 126.11 10.8137 126.224 10.826C126.338 10.8383 126.438 10.8552 126.524 10.8768V12.6218C126.432 12.5941 126.304 12.5695 126.141 12.5479C125.978 12.5264 125.828 12.5156 125.693 12.5156C125.404 12.5156 125.145 12.5787 124.917 12.7049C124.693 12.828 124.514 13.0004 124.382 13.2219C124.253 13.4435 124.188 13.699 124.188 13.9883V18H122.221ZM130.414 18.1385C129.688 18.1385 129.063 17.9846 128.54 17.6768C128.02 17.366 127.62 16.9351 127.34 16.3842C127.063 15.8333 126.924 15.1993 126.924 14.4822C126.924 13.7559 127.064 13.1188 127.344 12.571C127.628 12.0201 128.029 11.5908 128.549 11.283C129.069 10.9722 129.688 10.8168 130.405 10.8168C131.024 10.8168 131.565 10.9291 132.03 11.1538C132.495 11.3784 132.863 11.6939 133.134 12.1001C133.404 12.5064 133.554 12.9834 133.581 13.5312H131.725C131.673 13.1773 131.535 12.8926 131.31 12.6772C131.088 12.4587 130.798 12.3494 130.438 12.3494C130.133 12.3494 129.867 12.4325 129.639 12.5987C129.414 12.7618 129.239 13.0004 129.113 13.3143C128.986 13.6282 128.923 14.0083 128.923 14.4545C128.923 14.907 128.985 15.2917 129.108 15.6087C129.234 15.9257 129.411 16.1673 129.639 16.3335C129.867 16.4996 130.133 16.5827 130.438 16.5827C130.662 16.5827 130.864 16.5366 131.042 16.4442C131.224 16.3519 131.373 16.218 131.49 16.0426C131.61 15.8641 131.689 15.6502 131.725 15.4009H133.581C133.551 15.9426 133.403 16.4196 133.138 16.832C132.877 17.2414 132.515 17.5614 132.053 17.7923C131.592 18.0231 131.045 18.1385 130.414 18.1385ZM136.807 13.9006V18H134.84V8.54545H136.752V12.1602H136.835C136.995 11.7416 137.253 11.4138 137.61 11.1768C137.967 10.9368 138.415 10.8168 138.954 10.8168C139.446 10.8168 139.876 10.9245 140.242 11.1399C140.611 11.3523 140.897 11.6585 141.1 12.0586C141.307 12.4556 141.408 12.9311 141.405 13.4851V18H139.438V13.8359C139.442 13.3989 139.331 13.0588 139.106 12.8157C138.884 12.5726 138.574 12.451 138.174 12.451C137.906 12.451 137.669 12.5079 137.463 12.6218C137.259 12.7357 137.099 12.9019 136.983 13.1204C136.869 13.3358 136.81 13.5959 136.807 13.9006ZM145.943 18V16.5597L149.309 13.4435C149.595 13.1665 149.835 12.9173 150.029 12.6957C150.226 12.4741 150.375 12.2571 150.476 12.0447C150.578 11.8293 150.629 11.5969 150.629 11.3477C150.629 11.0707 150.566 10.8321 150.44 10.6321C150.313 10.429 150.141 10.2736 149.922 10.1658C149.704 10.055 149.456 9.99964 149.179 9.99964C148.89 9.99964 148.638 10.0581 148.422 10.1751C148.207 10.292 148.041 10.4598 147.924 10.6783C147.807 10.8968 147.748 11.1568 147.748 11.4585H145.851C145.851 10.8398 145.991 10.3028 146.271 9.8473C146.551 9.39181 146.943 9.03942 147.448 8.79013C147.953 8.54084 148.534 8.41619 149.193 8.41619C149.87 8.41619 150.46 8.53622 150.961 8.77628C151.466 9.01326 151.858 9.34257 152.138 9.7642C152.418 10.1858 152.559 10.669 152.559 11.2138C152.559 11.5708 152.488 11.9232 152.346 12.271C152.208 12.6187 151.96 13.005 151.603 13.4297C151.246 13.8513 150.743 14.3576 150.093 14.9485L148.713 16.3011V16.3658H152.683V18H145.943ZM157.839 18.2077C157.045 18.2047 156.361 18.0092 155.789 17.6214C155.22 17.2337 154.781 16.672 154.473 15.9364C154.169 15.2009 154.018 14.3161 154.021 13.282C154.021 12.2509 154.173 11.3723 154.478 10.646C154.786 9.91963 155.224 9.36719 155.794 8.98864C156.366 8.60701 157.048 8.41619 157.839 8.41619C158.63 8.41619 159.31 8.60701 159.879 8.98864C160.452 9.37026 160.892 9.92424 161.199 10.6506C161.507 11.3738 161.66 12.2509 161.656 13.282C161.656 14.3191 161.503 15.2055 161.195 15.9411C160.89 16.6766 160.453 17.2383 159.884 17.6261C159.314 18.0138 158.633 18.2077 157.839 18.2077ZM157.839 16.5504C158.38 16.5504 158.813 16.2781 159.136 15.7333C159.459 15.1886 159.619 14.3714 159.616 13.282C159.616 12.5649 159.542 11.9678 159.394 11.4908C159.25 11.0137 159.044 10.6552 158.776 10.4151C158.511 10.1751 158.199 10.055 157.839 10.055C157.3 10.055 156.869 10.3243 156.546 10.8629C156.223 11.4015 156.06 12.2079 156.057 13.282C156.057 14.0083 156.129 14.6146 156.274 15.1009C156.421 15.584 156.629 15.9472 156.897 16.1903C157.165 16.4304 157.479 16.5504 157.839 16.5504ZM163.082 18V16.5597L166.447 13.4435C166.733 13.1665 166.973 12.9173 167.167 12.6957C167.364 12.4741 167.514 12.2571 167.615 12.0447C167.717 11.8293 167.767 11.5969 167.767 11.3477C167.767 11.0707 167.704 10.8321 167.578 10.6321C167.452 10.429 167.28 10.2736 167.061 10.1658C166.843 10.055 166.595 9.99964 166.318 9.99964C166.029 9.99964 165.776 10.0581 165.561 10.1751C165.345 10.292 165.179 10.4598 165.062 10.6783C164.945 10.8968 164.887 11.1568 164.887 11.4585H162.989C162.989 10.8398 163.129 10.3028 163.41 9.8473C163.69 9.39181 164.082 9.03942 164.587 8.79013C165.091 8.54084 165.673 8.41619 166.332 8.41619C167.009 8.41619 167.598 8.53622 168.1 8.77628C168.605 9.01326 168.997 9.34257 169.277 9.7642C169.557 10.1858 169.697 10.669 169.697 11.2138C169.697 11.5708 169.626 11.9232 169.485 12.271C169.346 12.6187 169.099 13.005 168.742 13.4297C168.385 13.8513 167.881 14.3576 167.232 14.9485L165.852 16.3011V16.3658H169.822V18H163.082ZM170.924 16.3381V14.7638L174.871 8.54545H176.228V10.7244H175.425L172.937 14.6623V14.7362H178.546V16.3381H170.924ZM175.462 18V15.858L175.499 15.1609V8.54545H177.373V18H175.462Z" fill="white"/>
</svg>
