<svg width="195" height="26" viewBox="0 0 195 26" fill="none" xmlns="http://www.w3.org/2000/svg">
<path d="M1 12C1 6.34315 1 3.51472 2.75736 1.75736C4.51472 0 7.34315 0 13 0H60V26H13C7.34315 26 4.51472 26 2.75736 24.2426C1 22.4853 1 19.6569 1 14V12Z" fill="#3F3F3F"/>
<path d="M8.52983 8.54545L10.815 15.7287H10.9027L13.1925 8.54545H15.4084L12.1491 18H9.57315L6.3093 8.54545H8.52983ZM18.9411 18.1385C18.2117 18.1385 17.5839 17.9908 17.0576 17.6953C16.5344 17.3968 16.1312 16.9751 15.8481 16.4304C15.565 15.8826 15.4234 15.2347 15.4234 14.4869C15.4234 13.7575 15.565 13.1173 15.8481 12.5664C16.1312 12.0155 16.5298 11.5862 17.0438 11.2784C17.5608 10.9706 18.1671 10.8168 18.8627 10.8168C19.3305 10.8168 19.766 10.8922 20.1691 11.043C20.5754 11.1907 20.9293 11.4138 21.2309 11.7124C21.5356 12.0109 21.7726 12.3864 21.9419 12.8388C22.1111 13.2881 22.1958 13.8144 22.1958 14.4176V14.9577H16.2082V13.739H20.3445C20.3445 13.4558 20.283 13.205 20.1599 12.9865C20.0368 12.768 19.866 12.5972 19.6475 12.4741C19.432 12.3479 19.1812 12.2848 18.895 12.2848C18.5964 12.2848 18.3318 12.354 18.1009 12.4925C17.8732 12.628 17.6947 12.8111 17.5654 13.0419C17.4362 13.2696 17.37 13.5236 17.3669 13.8036V14.9624C17.3669 15.3132 17.4316 15.6164 17.5608 15.8718C17.6932 16.1272 17.8794 16.3242 18.1194 16.4627C18.3595 16.6012 18.6441 16.6705 18.9735 16.6705C19.192 16.6705 19.392 16.6397 19.5736 16.5781C19.7552 16.5166 19.9106 16.4242 20.0399 16.3011C20.1691 16.178 20.2676 16.0272 20.3353 15.8487L22.1542 15.9688C22.0619 16.4058 21.8726 16.7874 21.5864 17.1136C21.3032 17.4368 20.937 17.6892 20.4877 17.8707C20.0414 18.0492 19.5259 18.1385 18.9411 18.1385ZM23.4791 18V10.9091H25.3857V12.1463H25.4596C25.5889 11.7062 25.8058 11.3738 26.1105 11.1491C26.4152 10.9214 26.7661 10.8075 27.1631 10.8075C27.2616 10.8075 27.3677 10.8137 27.4816 10.826C27.5955 10.8383 27.6955 10.8552 27.7817 10.8768V12.6218C27.6894 12.5941 27.5616 12.5695 27.3985 12.5479C27.2354 12.5264 27.0861 12.5156 26.9507 12.5156C26.6614 12.5156 26.4029 12.5787 26.1752 12.7049C25.9505 12.828 25.772 13.0004 25.6396 13.2219C25.5104 13.4435 25.4458 13.699 25.4458 13.9883V18H23.4791ZM34.6983 12.9311L32.8979 13.0419C32.8671 12.888 32.801 12.7495 32.6994 12.6264C32.5978 12.5002 32.464 12.4002 32.2978 12.3263C32.1346 12.2494 31.9392 12.2109 31.7115 12.2109C31.4068 12.2109 31.1498 12.2756 30.9405 12.4048C30.7312 12.531 30.6266 12.7003 30.6266 12.9126C30.6266 13.0819 30.6943 13.225 30.8297 13.342C30.9651 13.4589 31.1975 13.5528 31.5268 13.6236L32.8102 13.8821C33.4996 14.0237 34.0136 14.2514 34.3521 14.5653C34.6906 14.8793 34.8599 15.2917 34.8599 15.8026C34.8599 16.2673 34.723 16.6751 34.449 17.0259C34.1782 17.3768 33.8058 17.6507 33.3319 17.8477C32.861 18.0415 32.3178 18.1385 31.7022 18.1385C30.7636 18.1385 30.0157 17.9431 29.4586 17.5522C28.9047 17.1583 28.58 16.6228 28.4846 15.9457L30.4189 15.8441C30.4773 16.1303 30.6189 16.3488 30.8436 16.4996C31.0682 16.6474 31.356 16.7212 31.7069 16.7212C32.0516 16.7212 32.3285 16.6551 32.5378 16.5227C32.7502 16.3873 32.8579 16.2134 32.861 16.0011C32.8579 15.8226 32.7825 15.6764 32.6348 15.5625C32.487 15.4455 32.2593 15.3563 31.9515 15.2947L30.7235 15.0501C30.0311 14.9116 29.5156 14.6715 29.177 14.3299C28.8416 13.9883 28.6738 13.5528 28.6738 13.0234C28.6738 12.5679 28.7969 12.1755 29.0431 11.8462C29.2924 11.5169 29.6417 11.263 30.0911 11.0845C30.5435 10.906 31.0729 10.8168 31.6792 10.8168C32.5748 10.8168 33.2795 11.006 33.7935 11.3846C34.3105 11.7631 34.6122 12.2786 34.6983 12.9311ZM36.0983 18V10.9091H38.0649V18H36.0983ZM37.0862 9.99503C36.7938 9.99503 36.543 9.89808 36.3337 9.70419C36.1275 9.50722 36.0244 9.27178 36.0244 8.99787C36.0244 8.72704 36.1275 8.49467 36.3337 8.30078C36.543 8.10381 36.7938 8.00533 37.0862 8.00533C37.3786 8.00533 37.6279 8.10381 37.8341 8.30078C38.0434 8.49467 38.148 8.72704 38.148 8.99787C38.148 9.27178 38.0434 9.50722 37.8341 9.70419C37.6279 9.89808 37.3786 9.99503 37.0862 9.99503ZM42.8441 18.1385C42.127 18.1385 41.5069 17.9862 40.9837 17.6815C40.4635 17.3737 40.0619 16.9459 39.7788 16.3981C39.4956 15.8472 39.354 15.2086 39.354 14.4822C39.354 13.7498 39.4956 13.1096 39.7788 12.5618C40.0619 12.0109 40.4635 11.5831 40.9837 11.2784C41.5069 10.9706 42.127 10.8168 42.8441 10.8168C43.5612 10.8168 44.1798 10.9706 44.6999 11.2784C45.2231 11.5831 45.6263 12.0109 45.9094 12.5618C46.1926 13.1096 46.3342 13.7498 46.3342 14.4822C46.3342 15.2086 46.1926 15.8472 45.9094 16.3981C45.6263 16.9459 45.2231 17.3737 44.6999 17.6815C44.1798 17.9862 43.5612 18.1385 42.8441 18.1385ZM42.8533 16.6151C43.1796 16.6151 43.4519 16.5227 43.6705 16.3381C43.889 16.1503 44.0536 15.8949 44.1644 15.5717C44.2783 15.2486 44.3352 14.8808 44.3352 14.4684C44.3352 14.056 44.2783 13.6882 44.1644 13.3651C44.0536 13.0419 43.889 12.7865 43.6705 12.5987C43.4519 12.411 43.1796 12.3171 42.8533 12.3171C42.524 12.3171 42.247 12.411 42.0224 12.5987C41.8008 12.7865 41.633 13.0419 41.5192 13.3651C41.4084 13.6882 41.353 14.056 41.353 14.4684C41.353 14.8808 41.4084 15.2486 41.5192 15.5717C41.633 15.8949 41.8008 16.1503 42.0224 16.3381C42.247 16.5227 42.524 16.6151 42.8533 16.6151ZM49.5795 13.9006V18H47.6129V10.9091H49.4872V12.1602H49.5703C49.7273 11.7478 49.9904 11.4215 50.3597 11.1815C50.729 10.9383 51.1768 10.8168 51.7031 10.8168C52.1955 10.8168 52.6249 10.9245 52.9911 11.1399C53.3574 11.3554 53.642 11.6631 53.8452 12.0632C54.0483 12.4602 54.1499 12.9342 54.1499 13.4851V18H52.1832V13.8359C52.1863 13.402 52.0755 13.0634 51.8509 12.8203C51.6262 12.5741 51.3169 12.451 50.9229 12.451C50.6583 12.451 50.4244 12.5079 50.2212 12.6218C50.0212 12.7357 49.8642 12.9019 49.7504 13.1204C49.6396 13.3358 49.5826 13.5959 49.5795 13.9006Z" fill="white"/>
<rect width="40" height="26" transform="translate(60)" fill="#533DA3"/>
<path d="M69.8796 8.54545V18H67.8807V10.4428H67.8253L65.6602 11.8001V10.0273L68.0007 8.54545H69.8796ZM72.7868 18.12C72.4822 18.12 72.2206 18.0123 72.002 17.7969C71.7866 17.5784 71.6789 17.3168 71.6789 17.0121C71.6789 16.7105 71.7866 16.4519 72.002 16.2365C72.2206 16.0211 72.4822 15.9134 72.7868 15.9134C73.0823 15.9134 73.3408 16.0211 73.5624 16.2365C73.784 16.4519 73.8948 16.7105 73.8948 17.0121C73.8948 17.2152 73.8425 17.4014 73.7378 17.5707C73.6363 17.7369 73.5024 17.8707 73.3362 17.9723C73.17 18.0708 72.9869 18.12 72.7868 18.12ZM78.8171 18.2077C78.0231 18.2047 77.3398 18.0092 76.7674 17.6214C76.198 17.2337 75.7595 16.672 75.4517 15.9364C75.147 15.2009 74.9962 14.3161 74.9993 13.282C74.9993 12.2509 75.1516 11.3723 75.4563 10.646C75.7641 9.91963 76.2027 9.36719 76.772 8.98864C77.3445 8.60701 78.0262 8.41619 78.8171 8.41619C79.6081 8.41619 80.2882 8.60701 80.8576 8.98864C81.43 9.37026 81.8701 9.92424 82.1779 10.6506C82.4857 11.3738 82.638 12.2509 82.6349 13.282C82.6349 14.3191 82.4811 15.2055 82.1733 15.9411C81.8686 16.6766 81.4316 17.2383 80.8622 17.6261C80.2929 18.0138 79.6112 18.2077 78.8171 18.2077ZM78.8171 16.5504C79.3588 16.5504 79.7912 16.2781 80.1143 15.7333C80.4375 15.1886 80.5975 14.3714 80.5945 13.282C80.5945 12.5649 80.5206 11.9678 80.3729 11.4908C80.2282 11.0137 80.022 10.6552 79.7543 10.4151C79.4896 10.1751 79.1772 10.055 78.8171 10.055C78.2785 10.055 77.8477 10.3243 77.5245 10.8629C77.2013 11.4015 77.0382 12.2079 77.0352 13.282C77.0352 14.0083 77.1075 14.6146 77.2521 15.1009C77.3999 15.584 77.6076 15.9472 77.8754 16.1903C78.1431 16.4304 78.457 16.5504 78.8171 16.5504ZM84.8474 18.12C84.5427 18.12 84.2811 18.0123 84.0626 17.7969C83.8472 17.5784 83.7394 17.3168 83.7394 17.0121C83.7394 16.7105 83.8472 16.4519 84.0626 16.2365C84.2811 16.0211 84.5427 15.9134 84.8474 15.9134C85.1428 15.9134 85.4014 16.0211 85.623 16.2365C85.8445 16.4519 85.9553 16.7105 85.9553 17.0121C85.9553 17.2152 85.903 17.4014 85.7984 17.5707C85.6968 17.7369 85.5629 17.8707 85.3968 17.9723C85.2306 18.0708 85.0474 18.12 84.8474 18.12ZM87.5515 18V16.5597L90.9169 13.4435C91.2031 13.1665 91.4432 12.9173 91.6371 12.6957C91.834 12.4741 91.9833 12.2571 92.0849 12.0447C92.1864 11.8293 92.2372 11.5969 92.2372 11.3477C92.2372 11.0707 92.1741 10.8321 92.0479 10.6321C91.9218 10.429 91.7494 10.2736 91.5309 10.1658C91.3124 10.055 91.0646 9.99964 90.7876 9.99964C90.4983 9.99964 90.246 10.0581 90.0305 10.1751C89.8151 10.292 89.6489 10.4598 89.532 10.6783C89.415 10.8968 89.3565 11.1568 89.3565 11.4585H87.4592C87.4592 10.8398 87.5992 10.3028 87.8793 9.8473C88.1593 9.39181 88.5517 9.03942 89.0565 8.79013C89.5612 8.54084 90.1429 8.41619 90.8015 8.41619C91.4786 8.41619 92.0679 8.53622 92.5696 8.77628C93.0743 9.01326 93.4667 9.34257 93.7468 9.7642C94.0269 10.1858 94.1669 10.669 94.1669 11.2138C94.1669 11.5708 94.0961 11.9232 93.9545 12.271C93.8161 12.6187 93.5683 13.005 93.2113 13.4297C92.8543 13.8513 92.3511 14.3576 91.7017 14.9485L90.3214 16.3011V16.3658H94.2915V18H87.5515Z" fill="white"/>
<path d="M100 0H182C187.657 0 190.485 0 192.243 1.75736C194 3.51472 194 6.34315 194 12V14C194 19.6569 194 22.4853 192.243 24.2426C190.485 26 187.657 26 182 26H100V0Z" fill="#6C4FD4"/>
<path d="M107.451 18H105.309L108.573 8.54545H111.149L114.408 18H112.266L109.898 10.706H109.824L107.451 18ZM107.317 14.2837H112.377V15.8441H107.317V14.2837ZM120.057 14.9808V10.9091H122.023V18H120.135V16.712H120.061C119.901 17.1275 119.635 17.4614 119.263 17.7138C118.893 17.9661 118.442 18.0923 117.91 18.0923C117.436 18.0923 117.019 17.9846 116.659 17.7692C116.299 17.5537 116.017 17.2475 115.814 16.8505C115.614 16.4535 115.512 15.978 115.509 15.424V10.9091H117.476V15.0732C117.479 15.4917 117.591 15.8226 117.813 16.0657C118.035 16.3088 118.332 16.4304 118.704 16.4304C118.941 16.4304 119.163 16.3765 119.369 16.2688C119.575 16.158 119.741 15.9949 119.867 15.7795C119.997 15.564 120.06 15.2978 120.057 14.9808ZM126.791 20.8068C126.154 20.8068 125.608 20.7191 125.152 20.5437C124.7 20.3713 124.34 20.1359 124.072 19.8374C123.804 19.5388 123.63 19.2034 123.55 18.831L125.369 18.5863C125.424 18.7279 125.512 18.8602 125.632 18.9833C125.752 19.1064 125.911 19.2049 126.108 19.2788C126.308 19.3557 126.551 19.3942 126.837 19.3942C127.265 19.3942 127.617 19.2895 127.894 19.0803C128.174 18.8741 128.314 18.5278 128.314 18.0415V16.7443H128.231C128.145 16.9413 128.016 17.1275 127.843 17.3029C127.671 17.4783 127.45 17.6214 127.179 17.7322C126.908 17.843 126.585 17.8984 126.209 17.8984C125.677 17.8984 125.192 17.7753 124.755 17.5291C124.321 17.2798 123.975 16.8997 123.716 16.3888C123.461 15.8749 123.333 15.2255 123.333 14.4407C123.333 13.6374 123.464 12.9665 123.726 12.4279C123.987 11.8893 124.335 11.4862 124.769 11.2184C125.206 10.9506 125.685 10.8168 126.205 10.8168C126.602 10.8168 126.934 10.8845 127.202 11.0199C127.47 11.1522 127.685 11.3184 127.848 11.5185C128.014 11.7154 128.142 11.9093 128.231 12.1001H128.305V10.9091H130.258V18.0692C130.258 18.6725 130.11 19.1772 129.815 19.5835C129.519 19.9897 129.11 20.2944 128.587 20.4975C128.067 20.7037 127.468 20.8068 126.791 20.8068ZM126.832 16.4212C127.149 16.4212 127.417 16.3427 127.636 16.1857C127.857 16.0257 128.027 15.7979 128.144 15.5025C128.264 15.204 128.324 14.8469 128.324 14.4315C128.324 14.016 128.265 13.6559 128.148 13.3512C128.031 13.0434 127.862 12.8049 127.64 12.6357C127.419 12.4664 127.149 12.3817 126.832 12.3817C126.509 12.3817 126.237 12.4695 126.015 12.6449C125.794 12.8172 125.626 13.0573 125.512 13.3651C125.398 13.6728 125.341 14.0283 125.341 14.4315C125.341 14.8408 125.398 15.1947 125.512 15.4933C125.629 15.7887 125.797 16.018 126.015 16.1811C126.237 16.3411 126.509 16.4212 126.832 16.4212ZM136.37 14.9808V10.9091H138.337V18H136.449V16.712H136.375C136.215 17.1275 135.948 17.4614 135.576 17.7138C135.207 17.9661 134.756 18.0923 134.223 18.0923C133.749 18.0923 133.332 17.9846 132.972 17.7692C132.612 17.5537 132.331 17.2475 132.128 16.8505C131.928 16.4535 131.826 15.978 131.823 15.424V10.9091H133.79V15.0732C133.793 15.4917 133.905 15.8226 134.127 16.0657C134.348 16.3088 134.645 16.4304 135.017 16.4304C135.254 16.4304 135.476 16.3765 135.682 16.2688C135.888 16.158 136.055 15.9949 136.181 15.7795C136.31 15.564 136.373 15.2978 136.37 14.9808ZM145.81 12.9311L144.009 13.0419C143.978 12.888 143.912 12.7495 143.811 12.6264C143.709 12.5002 143.575 12.4002 143.409 12.3263C143.246 12.2494 143.051 12.2109 142.823 12.2109C142.518 12.2109 142.261 12.2756 142.052 12.4048C141.843 12.531 141.738 12.7003 141.738 12.9126C141.738 13.0819 141.806 13.225 141.941 13.342C142.076 13.4589 142.309 13.5528 142.638 13.6236L143.922 13.8821C144.611 14.0237 145.125 14.2514 145.463 14.5653C145.802 14.8793 145.971 15.2917 145.971 15.8026C145.971 16.2673 145.834 16.6751 145.56 17.0259C145.29 17.3768 144.917 17.6507 144.443 17.8477C143.972 18.0415 143.429 18.1385 142.814 18.1385C141.875 18.1385 141.127 17.9431 140.57 17.5522C140.016 17.1583 139.691 16.6228 139.596 15.9457L141.53 15.8441C141.589 16.1303 141.73 16.3488 141.955 16.4996C142.18 16.6474 142.467 16.7212 142.818 16.7212C143.163 16.7212 143.44 16.6551 143.649 16.5227C143.862 16.3873 143.969 16.2134 143.972 16.0011C143.969 15.8226 143.894 15.6764 143.746 15.5625C143.598 15.4455 143.371 15.3563 143.063 15.2947L141.835 15.0501C141.142 14.9116 140.627 14.6715 140.288 14.3299C139.953 13.9883 139.785 13.5528 139.785 13.0234C139.785 12.5679 139.908 12.1755 140.154 11.8462C140.404 11.5169 140.753 11.263 141.202 11.0845C141.655 10.906 142.184 10.8168 142.79 10.8168C143.686 10.8168 144.391 11.006 144.905 11.3846C145.422 11.7631 145.723 12.2786 145.81 12.9311ZM150.981 10.9091V12.3864H146.711V10.9091H150.981ZM147.68 9.21023H149.647V15.821C149.647 16.0026 149.675 16.1442 149.73 16.2457C149.786 16.3442 149.863 16.4135 149.961 16.4535C150.063 16.4935 150.18 16.5135 150.312 16.5135C150.404 16.5135 150.497 16.5058 150.589 16.4904C150.681 16.4719 150.752 16.4581 150.801 16.4489L151.111 17.9123C151.012 17.9431 150.874 17.9785 150.695 18.0185C150.517 18.0616 150.3 18.0877 150.044 18.0969C149.57 18.1154 149.155 18.0523 148.798 17.9077C148.444 17.763 148.168 17.5384 147.971 17.2337C147.774 16.929 147.677 16.5443 147.68 16.0795V9.21023ZM155.253 18V16.5597L158.618 13.4435C158.904 13.1665 159.144 12.9173 159.338 12.6957C159.535 12.4741 159.684 12.2571 159.786 12.0447C159.888 11.8293 159.938 11.5969 159.938 11.3477C159.938 11.0707 159.875 10.8321 159.749 10.6321C159.623 10.429 159.451 10.2736 159.232 10.1658C159.014 10.055 158.766 9.99964 158.489 9.99964C158.2 9.99964 157.947 10.0581 157.732 10.1751C157.516 10.292 157.35 10.4598 157.233 10.6783C157.116 10.8968 157.058 11.1568 157.058 11.4585H155.16C155.16 10.8398 155.3 10.3028 155.58 9.8473C155.86 9.39181 156.253 9.03942 156.758 8.79013C157.262 8.54084 157.844 8.41619 158.503 8.41619C159.18 8.41619 159.769 8.53622 160.271 8.77628C160.776 9.01326 161.168 9.34257 161.448 9.7642C161.728 10.1858 161.868 10.669 161.868 11.2138C161.868 11.5708 161.797 11.9232 161.656 12.271C161.517 12.6187 161.269 13.005 160.912 13.4297C160.555 13.8513 160.052 14.3576 159.403 14.9485L158.023 16.3011V16.3658H161.993V18H155.253ZM167.148 18.2077C166.354 18.2047 165.671 18.0092 165.098 17.6214C164.529 17.2337 164.091 16.672 163.783 15.9364C163.478 15.2009 163.327 14.3161 163.33 13.282C163.33 12.2509 163.483 11.3723 163.787 10.646C164.095 9.91963 164.534 9.36719 165.103 8.98864C165.676 8.60701 166.357 8.41619 167.148 8.41619C167.939 8.41619 168.619 8.60701 169.189 8.98864C169.761 9.37026 170.201 9.92424 170.509 10.6506C170.817 11.3738 170.969 12.2509 170.966 13.282C170.966 14.3191 170.812 15.2055 170.504 15.9411C170.2 16.6766 169.763 17.2383 169.193 17.6261C168.624 18.0138 167.942 18.2077 167.148 18.2077ZM167.148 16.5504C167.69 16.5504 168.122 16.2781 168.445 15.7333C168.769 15.1886 168.929 14.3714 168.926 13.282C168.926 12.5649 168.852 11.9678 168.704 11.4908C168.559 11.0137 168.353 10.6552 168.085 10.4151C167.821 10.1751 167.508 10.055 167.148 10.055C166.61 10.055 166.179 10.3243 165.856 10.8629C165.532 11.4015 165.369 12.2079 165.366 13.282C165.366 14.0083 165.439 14.6146 165.583 15.1009C165.731 15.584 165.939 15.9472 166.206 16.1903C166.474 16.4304 166.788 16.5504 167.148 16.5504ZM172.391 18V16.5597L175.757 13.4435C176.043 13.1665 176.283 12.9173 176.477 12.6957C176.674 12.4741 176.823 12.2571 176.925 12.0447C177.026 11.8293 177.077 11.5969 177.077 11.3477C177.077 11.0707 177.014 10.8321 176.888 10.6321C176.762 10.429 176.589 10.2736 176.371 10.1658C176.152 10.055 175.904 9.99964 175.627 9.99964C175.338 9.99964 175.086 10.0581 174.87 10.1751C174.655 10.292 174.489 10.4598 174.372 10.6783C174.255 10.8968 174.196 11.1568 174.196 11.4585H172.299C172.299 10.8398 172.439 10.3028 172.719 9.8473C172.999 9.39181 173.392 9.03942 173.896 8.79013C174.401 8.54084 174.983 8.41619 175.641 8.41619C176.318 8.41619 176.908 8.53622 177.409 8.77628C177.914 9.01326 178.307 9.34257 178.587 9.7642C178.867 10.1858 179.007 10.669 179.007 11.2138C179.007 11.5708 178.936 11.9232 178.794 12.271C178.656 12.6187 178.408 13.005 178.051 13.4297C177.694 13.8513 177.191 14.3576 176.542 14.9485L175.161 16.3011V16.3658H179.131V18H172.391ZM180.234 16.3381V14.7638L184.181 8.54545H185.538V10.7244H184.735L182.246 14.6623V14.7362H187.855V16.3381H180.234ZM184.772 18V15.858L184.809 15.1609V8.54545H186.683V18H184.772Z" fill="white"/>
</svg>
