<svg width="113" height="26" viewBox="0 0 113 26" fill="none" xmlns="http://www.w3.org/2000/svg">
<rect x="1" width="111" height="26" rx="6" fill="#BF59B8"/>
<g clip-path="url(#clip0_55_291)">
<path d="M14 18.6C14.21 18.6 14.4113 18.5883 14.6038 18.565C14.7963 18.5417 14.9917 18.5067 15.19 18.46L14.35 17.2H11.9V16.5C11.9 16.115 12.0371 15.7854 12.3113 15.5113C12.5854 15.2371 12.915 15.1 13.3 15.1H14.7V13H13.3C13.1017 13 12.9354 12.9329 12.8013 12.7988C12.6671 12.6646 12.6 12.4983 12.6 12.3V10.9H12.285C11.9817 10.9 11.725 10.7979 11.515 10.5938C11.305 10.3896 11.2 10.1358 11.2 9.8325C11.2 9.7275 11.2146 9.6225 11.2438 9.5175C11.2729 9.4125 11.3167 9.31333 11.375 9.22L12.46 7.6275C11.2817 7.96583 10.3104 8.625 9.54625 9.605C8.78208 10.585 8.4 11.7167 8.4 13H9.1V12.3C9.1 12.1017 9.16708 11.9354 9.30125 11.8013C9.43542 11.6671 9.60167 11.6 9.8 11.6H11.2C11.3983 11.6 11.5646 11.6671 11.6988 11.8013C11.8329 11.9354 11.9 12.1017 11.9 12.3V13C11.9 13.1983 11.8329 13.3646 11.6988 13.4988C11.5646 13.6329 11.3983 13.7 11.2 13.7V14.4C11.2 14.785 11.0629 15.1146 10.7888 15.3888C10.5146 15.6629 10.185 15.8 9.8 15.8H9.1525C9.6425 16.64 10.3133 17.3167 11.165 17.83C12.0167 18.3433 12.9617 18.6 14 18.6ZM19.32 14.715C19.4133 14.4467 19.4833 14.1696 19.53 13.8838C19.5767 13.5979 19.6 13.3033 19.6 13C19.6 11.6933 19.2033 10.5413 18.41 9.54375C17.6167 8.54625 16.6133 7.89 15.4 7.575V9.5C15.785 9.5 16.1146 9.63708 16.3888 9.91125C16.6629 10.1854 16.8 10.515 16.8 10.9V12.3C17.0217 12.3 17.22 12.3263 17.395 12.3788C17.57 12.4313 17.7392 12.5392 17.9025 12.7025L19.32 14.715ZM14 20C13.0317 20 12.1217 19.8163 11.27 19.4488C10.4183 19.0813 9.6775 18.5825 9.0475 17.9525C8.4175 17.3225 7.91875 16.5817 7.55125 15.73C7.18375 14.8783 7 13.9683 7 13C7 12.0317 7.18375 11.1217 7.55125 10.27C7.91875 9.41833 8.4175 8.6775 9.0475 8.0475C9.6775 7.4175 10.4183 6.91875 11.27 6.55125C12.1217 6.18375 13.0317 6 14 6C14.9683 6 15.8783 6.18375 16.73 6.55125C17.5817 6.91875 18.3225 7.4175 18.9525 8.0475C19.5825 8.6775 20.0813 9.41833 20.4488 10.27C20.8163 11.1217 21 12.0317 21 13C21 13.9683 20.8163 14.8783 20.4488 15.73C20.0813 16.5817 19.5825 17.3225 18.9525 17.9525C18.3225 18.5825 17.5817 19.0813 16.73 19.4488C15.8783 19.8163 14.9683 20 14 20Z" fill="#FFFCFF"/>
</g>
<path d="M25.9499 18L23.2447 8.54545H25.4283L26.9933 15.1147H27.0717L28.7983 8.54545H30.668L32.3899 15.1286H32.473L34.038 8.54545H36.2216L33.5163 18H31.5682L29.7678 11.8185H29.6939L27.8981 18H25.9499ZM39.6966 18.1385C38.9796 18.1385 38.3594 17.9862 37.8362 17.6815C37.3161 17.3737 36.9144 16.9459 36.6313 16.3981C36.3482 15.8472 36.2066 15.2086 36.2066 14.4822C36.2066 13.7498 36.3482 13.1096 36.6313 12.5618C36.9144 12.0109 37.3161 11.5831 37.8362 11.2784C38.3594 10.9706 38.9796 10.8168 39.6966 10.8168C40.4137 10.8168 41.0323 10.9706 41.5525 11.2784C42.0757 11.5831 42.4788 12.0109 42.762 12.5618C43.0451 13.1096 43.1867 13.7498 43.1867 14.4822C43.1867 15.2086 43.0451 15.8472 42.762 16.3981C42.4788 16.9459 42.0757 17.3737 41.5525 17.6815C41.0323 17.9862 40.4137 18.1385 39.6966 18.1385ZM39.7059 16.6151C40.0321 16.6151 40.3045 16.5227 40.523 16.3381C40.7415 16.1503 40.9062 15.8949 41.017 15.5717C41.1308 15.2486 41.1878 14.8808 41.1878 14.4684C41.1878 14.056 41.1308 13.6882 41.017 13.3651C40.9062 13.0419 40.7415 12.7865 40.523 12.5987C40.3045 12.411 40.0321 12.3171 39.7059 12.3171C39.3766 12.3171 39.0996 12.411 38.8749 12.5987C38.6533 12.7865 38.4856 13.0419 38.3717 13.3651C38.2609 13.6882 38.2055 14.056 38.2055 14.4684C38.2055 14.8808 38.2609 15.2486 38.3717 15.5717C38.4856 15.8949 38.6533 16.1503 38.8749 16.3381C39.0996 16.5227 39.3766 16.6151 39.7059 16.6151ZM44.4655 18V10.9091H46.3721V12.1463H46.4459C46.5752 11.7062 46.7922 11.3738 47.0969 11.1491C47.4015 10.9214 47.7524 10.8075 48.1494 10.8075C48.2479 10.8075 48.3541 10.8137 48.468 10.826C48.5818 10.8383 48.6818 10.8552 48.768 10.8768V12.6218C48.6757 12.5941 48.548 12.5695 48.3849 12.5479C48.2217 12.5264 48.0725 12.5156 47.9371 12.5156C47.6478 12.5156 47.3892 12.5787 47.1615 12.7049C46.9368 12.828 46.7583 13.0004 46.626 13.2219C46.4967 13.4435 46.4321 13.699 46.4321 13.9883V18H44.4655ZM51.5668 15.9595L51.5714 13.6005H51.8576L54.1289 10.9091H56.3864L53.3349 14.473H52.8686L51.5668 15.9595ZM49.7848 18V8.54545H51.7514V18H49.7848ZM54.2166 18L52.13 14.9116L53.4411 13.522L56.5202 18H54.2166ZM61.7588 18L59.8291 10.9091H61.8188L62.9175 15.6733H62.9822L64.127 10.9091H66.0798L67.2432 15.6456H67.3032L68.3834 10.9091H70.3685L68.4434 18H66.3614L65.1427 13.5405H65.055L63.8362 18H61.7588ZM71.4176 18V10.9091H73.3842V18H71.4176ZM72.4055 9.99503C72.1132 9.99503 71.8623 9.89808 71.6531 9.70419C71.4469 9.50722 71.3438 9.27178 71.3438 8.99787C71.3438 8.72704 71.4469 8.49467 71.6531 8.30078C71.8623 8.10381 72.1132 8.00533 72.4055 8.00533C72.6979 8.00533 72.9472 8.10381 73.1534 8.30078C73.3627 8.49467 73.4673 8.72704 73.4673 8.99787C73.4673 9.27178 73.3627 9.50722 73.1534 9.70419C72.9472 9.89808 72.6979 9.99503 72.4055 9.99503ZM78.7313 10.9091V12.3864H74.461V10.9091H78.7313ZM75.4305 9.21023H77.3971V15.821C77.3971 16.0026 77.4248 16.1442 77.4802 16.2457C77.5356 16.3442 77.6125 16.4135 77.711 16.4535C77.8126 16.4935 77.9295 16.5135 78.0619 16.5135C78.1542 16.5135 78.2465 16.5058 78.3389 16.4904C78.4312 16.4719 78.502 16.4581 78.5512 16.4489L78.8605 17.9123C78.762 17.9431 78.6236 17.9785 78.445 18.0185C78.2665 18.0616 78.0496 18.0877 77.7941 18.0969C77.3202 18.1154 76.9047 18.0523 76.5477 17.9077C76.1937 17.763 75.9183 17.5384 75.7213 17.2337C75.5244 16.929 75.4274 16.5443 75.4305 16.0795V9.21023ZM82.1313 13.9006V18H80.1647V8.54545H82.0759V12.1602H82.159C82.319 11.7416 82.5776 11.4138 82.9346 11.1768C83.2916 10.9368 83.7394 10.8168 84.278 10.8168C84.7704 10.8168 85.1997 10.9245 85.566 11.1399C85.9353 11.3523 86.2215 11.6585 86.4246 12.0586C86.6308 12.4556 86.7324 12.9311 86.7293 13.4851V18H84.7627V13.8359C84.7658 13.3989 84.655 13.0588 84.4303 12.8157C84.2087 12.5726 83.8979 12.451 83.4978 12.451C83.23 12.451 82.993 12.5079 82.7868 12.6218C82.5837 12.7357 82.4237 12.9019 82.3067 13.1204C82.1929 13.3358 82.1344 13.5959 82.1313 13.9006ZM95.833 14.9808V10.9091H97.7996V18H95.9115V16.712H95.8376C95.6776 17.1275 95.4114 17.4614 95.039 17.7138C94.6697 17.9661 94.2188 18.0923 93.6863 18.0923C93.2124 18.0923 92.7954 17.9846 92.4353 17.7692C92.0752 17.5537 91.7936 17.2475 91.5905 16.8505C91.3904 16.4535 91.2889 15.978 91.2858 15.424V10.9091H93.2524V15.0732C93.2555 15.4917 93.3678 15.8226 93.5894 16.0657C93.811 16.3088 94.108 16.4304 94.4804 16.4304C94.7174 16.4304 94.939 16.3765 95.1452 16.2688C95.3514 16.158 95.5175 15.9949 95.6437 15.7795C95.773 15.564 95.8361 15.2978 95.833 14.9808ZM105.273 12.9311L103.472 13.0419C103.441 12.888 103.375 12.7495 103.274 12.6264C103.172 12.5002 103.038 12.4002 102.872 12.3263C102.709 12.2494 102.513 12.2109 102.286 12.2109C101.981 12.2109 101.724 12.2756 101.515 12.4048C101.305 12.531 101.201 12.7003 101.201 12.9126C101.201 13.0819 101.269 13.225 101.404 13.342C101.539 13.4589 101.772 13.5528 102.101 13.6236L103.384 13.8821C104.074 14.0237 104.588 14.2514 104.926 14.5653C105.265 14.8793 105.434 15.2917 105.434 15.8026C105.434 16.2673 105.297 16.6751 105.023 17.0259C104.752 17.3768 104.38 17.6507 103.906 17.8477C103.435 18.0415 102.892 18.1385 102.276 18.1385C101.338 18.1385 100.59 17.9431 100.033 17.5522C99.4789 17.1583 99.1542 16.6228 99.0588 15.9457L100.993 15.8441C101.052 16.1303 101.193 16.3488 101.418 16.4996C101.642 16.6474 101.93 16.7212 102.281 16.7212C102.626 16.7212 102.903 16.6551 103.112 16.5227C103.324 16.3873 103.432 16.2134 103.435 16.0011C103.432 15.8226 103.357 15.6764 103.209 15.5625C103.061 15.4455 102.834 15.3563 102.526 15.2947L101.298 15.0501C100.605 14.9116 100.09 14.6715 99.7512 14.3299C99.4158 13.9883 99.248 13.5528 99.248 13.0234C99.248 12.5679 99.3712 12.1755 99.6174 11.8462C99.8667 11.5169 100.216 11.263 100.665 11.0845C101.118 10.906 101.647 10.8168 102.253 10.8168C103.149 10.8168 103.854 11.006 104.368 11.3846C104.885 11.7631 105.186 12.2786 105.273 12.9311Z" fill="#FFFCFF"/>
<defs>
<clipPath id="clip0_55_291">
<rect width="14" height="14" fill="white" transform="translate(7 6)"/>
</clipPath>
</defs>
</svg>
