<svg width="71" height="26" viewBox="0 0 71 26" fill="none" xmlns="http://www.w3.org/2000/svg">
<rect x="1" width="69" height="26" rx="6" fill="#C8C8D9"/>
<path d="M15.3319 11.928L20.5437 6H19.3087L14.7833 11.1472L11.1688 6H7L12.4657 13.7835L7 20H8.2351L13.0141 14.5643L16.8312 20H21L15.3316 11.928H15.3319ZM13.6403 13.8521L13.0865 13.077L8.68013 6.90978H10.5772L14.1331 11.887L14.6869 12.662L19.3093 19.1316H17.4122L13.6403 13.8524V13.8521Z" fill="#24292F"/>
<path d="M23.8217 18V8.54545H30.0817V10.1935H25.8207V12.4464H29.6662V14.0945H25.8207V18H23.8217ZM34.0726 18.1385C33.3555 18.1385 32.7354 17.9862 32.2122 17.6815C31.6921 17.3737 31.2904 16.9459 31.0073 16.3981C30.7241 15.8472 30.5826 15.2086 30.5826 14.4822C30.5826 13.7498 30.7241 13.1096 31.0073 12.5618C31.2904 12.0109 31.6921 11.5831 32.2122 11.2784C32.7354 10.9706 33.3555 10.8168 34.0726 10.8168C34.7897 10.8168 35.4083 10.9706 35.9284 11.2784C36.4516 11.5831 36.8548 12.0109 37.138 12.5618C37.4211 13.1096 37.5627 13.7498 37.5627 14.4822C37.5627 15.2086 37.4211 15.8472 37.138 16.3981C36.8548 16.9459 36.4516 17.3737 35.9284 17.6815C35.4083 17.9862 34.7897 18.1385 34.0726 18.1385ZM34.0819 16.6151C34.4081 16.6151 34.6805 16.5227 34.899 16.3381C35.1175 16.1503 35.2821 15.8949 35.3929 15.5717C35.5068 15.2486 35.5637 14.8808 35.5637 14.4684C35.5637 14.056 35.5068 13.6882 35.3929 13.3651C35.2821 13.0419 35.1175 12.7865 34.899 12.5987C34.6805 12.411 34.4081 12.3171 34.0819 12.3171C33.7525 12.3171 33.4756 12.411 33.2509 12.5987C33.0293 12.7865 32.8616 13.0419 32.7477 13.3651C32.6369 13.6882 32.5815 14.056 32.5815 14.4684C32.5815 14.8808 32.6369 15.2486 32.7477 15.5717C32.8616 15.8949 33.0293 16.1503 33.2509 16.3381C33.4756 16.5227 33.7525 16.6151 34.0819 16.6151ZM40.8081 8.54545V18H38.8414V8.54545H40.8081ZM44.3501 8.54545V18H42.3834V8.54545H44.3501ZM49.1293 18.1385C48.4122 18.1385 47.792 17.9862 47.2688 17.6815C46.7487 17.3737 46.3471 16.9459 46.0639 16.3981C45.7808 15.8472 45.6392 15.2086 45.6392 14.4822C45.6392 13.7498 45.7808 13.1096 46.0639 12.5618C46.3471 12.0109 46.7487 11.5831 47.2688 11.2784C47.792 10.9706 48.4122 10.8168 49.1293 10.8168C49.8464 10.8168 50.465 10.9706 50.9851 11.2784C51.5083 11.5831 51.9115 12.0109 52.1946 12.5618C52.4777 13.1096 52.6193 13.7498 52.6193 14.4822C52.6193 15.2086 52.4777 15.8472 52.1946 16.3981C51.9115 16.9459 51.5083 17.3737 50.9851 17.6815C50.465 17.9862 49.8464 18.1385 49.1293 18.1385ZM49.1385 16.6151C49.4647 16.6151 49.7371 16.5227 49.9556 16.3381C50.1741 16.1503 50.3388 15.8949 50.4496 15.5717C50.5634 15.2486 50.6204 14.8808 50.6204 14.4684C50.6204 14.056 50.5634 13.6882 50.4496 13.3651C50.3388 13.0419 50.1741 12.7865 49.9556 12.5987C49.7371 12.411 49.4647 12.3171 49.1385 12.3171C48.8092 12.3171 48.5322 12.411 48.3075 12.5987C48.0859 12.7865 47.9182 13.0419 47.8043 13.3651C47.6935 13.6882 47.6381 14.056 47.6381 14.4684C47.6381 14.8808 47.6935 15.2486 47.8043 15.5717C47.9182 15.8949 48.0859 16.1503 48.3075 16.3381C48.5322 16.5227 48.8092 16.6151 49.1385 16.6151ZM55.1191 18L53.1895 10.9091H55.1792L56.2779 15.6733H56.3425L57.4874 10.9091H59.4402L60.6035 15.6456H60.6635L61.7438 10.9091H63.7289L61.8038 18H59.7218L58.503 13.5405H58.4153L57.1966 18H55.1191Z" fill="#24292F"/>
</svg>
