<svg width="287" height="51" viewBox="0 0 287 51" fill="none" xmlns="http://www.w3.org/2000/svg">
<rect y="4.5" width="41" height="41" rx="9" fill="#FFCF01"/>
<rect x="10.8712" y="11.3333" width="19.2576" height="14.5985" rx="3" fill="#6A738B"/>
<rect x="10.25" y="12.2652" width="20.5" height="14.2879" rx="3" fill="#474D5D"/>
<rect x="9.62878" y="13.197" width="21.7424" height="14.5985" rx="3" fill="#353A45"/>
<rect x="8.69696" y="14.1288" width="23.6061" height="24.5379" rx="3" fill="#24292F"/>
<path d="M20.5 31.15C18.79 30.8779 16.4 29.7833 16.4 29.7833C16.4 29.7833 18.2875 32.5167 20.5 32.5167C22.7125 32.5167 24.6 31.15 24.6 31.15C24.6 31.15 22.0461 31.396 20.5 31.15Z" fill="#FFCF01"/>
<ellipse cx="25.4541" cy="23.8042" rx="1.5375" ry="1.5375" fill="#FFCF01"/>
<circle cx="15.5458" cy="23.8042" r="1.5375" fill="#FFCF01"/>
<path d="M50.8445 41V8.27273H63.7564C66.2386 8.27273 68.3533 8.7468 70.1005 9.69496C71.8477 10.6325 73.1793 11.9375 74.0955 13.6101C75.0224 15.272 75.4858 17.1896 75.4858 19.3629C75.4858 21.5362 75.017 23.4538 74.0795 25.1158C73.142 26.7777 71.7837 28.0721 70.0046 28.9989C68.2362 29.9258 66.0948 30.3892 63.5806 30.3892H55.3509V24.8441H62.462C63.7937 24.8441 64.891 24.6151 65.7539 24.157C66.6275 23.6882 67.2773 23.0437 67.7035 22.2234C68.1403 21.3924 68.3587 20.4389 68.3587 19.3629C68.3587 18.2763 68.1403 17.3281 67.7035 16.5185C67.2773 15.6982 66.6275 15.0643 65.7539 14.6168C64.8803 14.1587 63.7724 13.9297 62.43 13.9297H57.7638V41H50.8445ZM89.1971 41.4794C86.7148 41.4794 84.5681 40.9521 82.7571 39.8974C80.9566 38.832 79.5664 37.3512 78.5863 35.4549C77.6061 33.5479 77.1161 31.3374 77.1161 28.8232C77.1161 26.2876 77.6061 24.0717 78.5863 22.1754C79.5664 20.2685 80.9566 18.7876 82.7571 17.733C84.5681 16.6676 86.7148 16.1349 89.1971 16.1349C91.6793 16.1349 93.8206 16.6676 95.6211 17.733C97.4321 18.7876 98.8277 20.2685 99.8078 22.1754C100.788 24.0717 101.278 26.2876 101.278 28.8232C101.278 31.3374 100.788 33.5479 99.8078 35.4549C98.8277 37.3512 97.4321 38.832 95.6211 39.8974C93.8206 40.9521 91.6793 41.4794 89.1971 41.4794ZM89.229 36.206C90.3583 36.206 91.3011 35.8864 92.0575 35.2472C92.8139 34.5973 93.3838 33.7131 93.7674 32.5945C94.1615 31.4759 94.3586 30.2028 94.3586 28.7752C94.3586 27.3477 94.1615 26.0746 93.7674 24.956C93.3838 23.8374 92.8139 22.9531 92.0575 22.3033C91.3011 21.6534 90.3583 21.3285 89.229 21.3285C88.0891 21.3285 87.1303 21.6534 86.3526 22.3033C85.5855 22.9531 85.0049 23.8374 84.6108 24.956C84.2272 26.0746 84.0355 27.3477 84.0355 28.7752C84.0355 30.2028 84.2272 31.4759 84.6108 32.5945C85.0049 33.7131 85.5855 34.5973 86.3526 35.2472C87.1303 35.8864 88.0891 36.206 89.229 36.206ZM104.355 50.2045V16.4545H111.066V20.5774H111.37C111.668 19.9169 112.1 19.2457 112.664 18.5639C113.239 17.8714 113.985 17.2962 114.901 16.8381C115.828 16.3693 116.979 16.1349 118.353 16.1349C120.143 16.1349 121.794 16.6037 123.307 17.5412C124.82 18.468 126.029 19.869 126.934 21.744C127.84 23.6083 128.293 25.9467 128.293 28.7592C128.293 31.4972 127.851 33.8089 126.966 35.6946C126.093 37.5696 124.9 38.9918 123.387 39.9613C121.885 40.9201 120.201 41.3995 118.337 41.3995C117.016 41.3995 115.892 41.1811 114.965 40.7443C114.049 40.3075 113.298 39.7589 112.712 39.0984C112.126 38.4272 111.679 37.7507 111.37 37.0689H111.162V50.2045H104.355ZM111.018 28.7273C111.018 30.1868 111.221 31.4599 111.625 32.5465C112.03 33.6332 112.616 34.4801 113.383 35.0874C114.15 35.6839 115.082 35.9822 116.18 35.9822C117.288 35.9822 118.225 35.6786 118.992 35.0714C119.759 34.4535 120.34 33.6012 120.734 32.5146C121.139 31.4173 121.341 30.1548 121.341 28.7273C121.341 27.3104 121.144 26.0639 120.75 24.9879C120.356 23.9119 119.775 23.0703 119.008 22.4631C118.241 21.8558 117.298 21.5522 116.18 21.5522C115.072 21.5522 114.134 21.8452 113.367 22.4311C112.611 23.017 112.03 23.848 111.625 24.924C111.221 26 111.018 27.2678 111.018 28.7273ZM147.221 30.549V16.4545H154.029V41H147.493V36.5415H147.237C146.683 37.9798 145.762 39.1357 144.473 40.0092C143.194 40.8828 141.634 41.3196 139.791 41.3196C138.15 41.3196 136.707 40.9467 135.46 40.201C134.214 39.4553 133.239 38.3952 132.536 37.021C131.843 35.6467 131.492 34.0007 131.481 32.0831V16.4545H138.289V30.8686C138.299 32.3175 138.688 33.4627 139.455 34.3043C140.222 35.146 141.25 35.5668 142.539 35.5668C143.36 35.5668 144.127 35.3803 144.84 35.0075C145.554 34.6239 146.13 34.0593 146.566 33.3136C147.014 32.5678 147.232 31.6463 147.221 30.549ZM158.124 50.2045V16.4545H164.836V20.5774H165.14C165.438 19.9169 165.869 19.2457 166.434 18.5639C167.009 17.8714 167.755 17.2962 168.671 16.8381C169.598 16.3693 170.749 16.1349 172.123 16.1349C173.913 16.1349 175.564 16.6037 177.077 17.5412C178.589 18.468 179.799 19.869 180.704 21.744C181.61 23.6083 182.062 25.9467 182.062 28.7592C182.062 31.4972 181.62 33.8089 180.736 35.6946C179.863 37.5696 178.669 38.9918 177.157 39.9613C175.654 40.9201 173.971 41.3995 172.107 41.3995C170.786 41.3995 169.662 41.1811 168.735 40.7443C167.819 40.3075 167.068 39.7589 166.482 39.0984C165.896 38.4272 165.448 37.7507 165.14 37.0689H164.932V50.2045H158.124ZM164.788 28.7273C164.788 30.1868 164.99 31.4599 165.395 32.5465C165.8 33.6332 166.386 34.4801 167.153 35.0874C167.92 35.6839 168.852 35.9822 169.95 35.9822C171.057 35.9822 171.995 35.6786 172.762 35.0714C173.529 34.4535 174.11 33.6012 174.504 32.5146C174.909 31.4173 175.111 30.1548 175.111 28.7273C175.111 27.3104 174.914 26.0639 174.52 24.9879C174.126 23.9119 173.545 23.0703 172.778 22.4631C172.011 21.8558 171.068 21.5522 169.95 21.5522C168.842 21.5522 167.904 21.8452 167.137 22.4311C166.381 23.017 165.8 23.848 165.395 24.924C164.99 26 164.788 27.2678 164.788 28.7273ZM188.523 8.27273L196.433 33.1378H196.737L204.663 8.27273H212.333L201.051 41H192.134L180.836 8.27273H188.523ZM214.794 41V16.4545H221.602V41H214.794ZM218.214 13.2905C217.202 13.2905 216.334 12.9549 215.609 12.2837C214.896 11.6019 214.539 10.7869 214.539 9.83878C214.539 8.90128 214.896 8.09695 215.609 7.42578C216.334 6.74396 217.202 6.40305 218.214 6.40305C219.226 6.40305 220.089 6.74396 220.803 7.42578C221.527 8.09695 221.89 8.90128 221.89 9.83878C221.89 10.7869 221.527 11.6019 220.803 12.2837C220.089 12.9549 219.226 13.2905 218.214 13.2905ZM236.891 41.4794C234.366 41.4794 232.193 40.968 230.371 39.9453C228.56 38.9119 227.165 37.4524 226.185 35.5668C225.204 33.6705 224.714 31.4279 224.714 28.8391C224.714 26.3143 225.204 24.0984 226.185 22.1914C227.165 20.2844 228.544 18.7983 230.323 17.733C232.113 16.6676 234.212 16.1349 236.62 16.1349C238.239 16.1349 239.746 16.396 241.142 16.918C242.548 17.4293 243.773 18.2017 244.817 19.2351C245.872 20.2685 246.692 21.5682 247.278 23.1342C247.864 24.6896 248.157 26.5114 248.157 28.5994V30.4691H227.431V26.2504H241.749C241.749 25.2702 241.536 24.402 241.11 23.6456C240.684 22.8892 240.093 22.2979 239.336 21.8718C238.59 21.435 237.722 21.2166 236.731 21.2166C235.698 21.2166 234.782 21.4563 233.983 21.9357C233.194 22.4045 232.577 23.0384 232.129 23.8374C231.682 24.6257 231.453 25.5046 231.442 26.4741V30.4851C231.442 31.6996 231.666 32.7489 232.113 33.6332C232.571 34.5174 233.216 35.1992 234.047 35.6786C234.878 36.158 235.863 36.3977 237.003 36.3977C237.759 36.3977 238.452 36.2912 239.08 36.0781C239.709 35.8651 240.247 35.5455 240.694 35.1193C241.142 34.6932 241.483 34.1712 241.717 33.5533L248.013 33.9688C247.694 35.4815 247.039 36.8026 246.048 37.9318C245.068 39.0504 243.8 39.924 242.245 40.5526C240.7 41.1705 238.915 41.4794 236.891 41.4794ZM255.916 41L249.236 16.4545H256.124L259.927 32.946H260.151L264.114 16.4545H270.873L274.9 32.8501H275.108L278.847 16.4545H285.719L279.055 41H271.848L267.629 25.5632H267.326L263.107 41H255.916Z" fill="url(#paint0_linear_4_3083)"/>
<defs>
<linearGradient id="paint0_linear_4_3083" x1="287" y1="25" x2="48" y2="25" gradientUnits="userSpaceOnUse">
<stop stop-color="#9747FF"/>
<stop offset="0.529699" stop-color="#EC631E"/>
<stop offset="1" stop-color="#FFCF01"/>
</linearGradient>
</defs>
</svg>
