<svg width="315" height="52" viewBox="0 0 315 52" fill="none" xmlns="http://www.w3.org/2000/svg">
<rect y="4.5" width="41" height="41" rx="9" fill="#FFCF01"/>
<rect x="10.8712" y="11.3333" width="19.2576" height="14.5985" rx="3" fill="#6A738B"/>
<rect x="10.25" y="12.2652" width="20.5" height="14.2879" rx="3" fill="#474D5D"/>
<rect x="9.62878" y="13.197" width="21.7424" height="14.5985" rx="3" fill="#353A45"/>
<rect x="8.69697" y="14.1288" width="23.6061" height="24.5379" rx="3" fill="#24292F"/>
<path d="M20.5 31.15C18.79 30.8779 16.4 29.7833 16.4 29.7833C16.4 29.7833 18.2875 32.5167 20.5 32.5167C22.7125 32.5167 24.6 31.15 24.6 31.15C24.6 31.15 22.0461 31.396 20.5 31.15Z" fill="#FFCF01"/>
<ellipse cx="25.4542" cy="23.8042" rx="1.5375" ry="1.5375" fill="#FFCF01"/>
<circle cx="15.5458" cy="23.8042" r="1.5375" fill="#FFCF01"/>
<path d="M51.0341 42V7.09091H64.8068C67.4545 7.09091 69.7102 7.59659 71.5739 8.60795C73.4375 9.60795 74.858 11 75.8352 12.7841C76.8239 14.5568 77.3182 16.6023 77.3182 18.9205C77.3182 21.2386 76.8182 23.2841 75.8182 25.0568C74.8182 26.8295 73.3693 28.2102 71.4716 29.1989C69.5852 30.1875 67.3011 30.6818 64.6193 30.6818H55.8409V24.767H63.4261C64.8466 24.767 66.017 24.5227 66.9375 24.0341C67.8693 23.5341 68.5625 22.8466 69.017 21.9716C69.483 21.0852 69.7159 20.0682 69.7159 18.9205C69.7159 17.7614 69.483 16.75 69.017 15.8864C68.5625 15.0114 67.8693 14.3352 66.9375 13.858C66.0057 13.3693 64.8239 13.125 63.392 13.125H58.4148V42H51.0341ZM93.3835 42.5114C90.7358 42.5114 88.446 41.9489 86.5142 40.8239C84.5938 39.6875 83.1108 38.108 82.0653 36.0852C81.0199 34.0511 80.4972 31.6932 80.4972 29.0114C80.4972 26.3068 81.0199 23.9432 82.0653 21.9205C83.1108 19.8864 84.5938 18.3068 86.5142 17.1818C88.446 16.0455 90.7358 15.4773 93.3835 15.4773C96.0312 15.4773 98.3153 16.0455 100.236 17.1818C102.168 18.3068 103.656 19.8864 104.702 21.9205C105.747 23.9432 106.27 26.3068 106.27 29.0114C106.27 31.6932 105.747 34.0511 104.702 36.0852C103.656 38.108 102.168 39.6875 100.236 40.8239C98.3153 41.9489 96.0312 42.5114 93.3835 42.5114ZM93.4176 36.8864C94.6222 36.8864 95.6278 36.5455 96.4347 35.8636C97.2415 35.1705 97.8494 34.2273 98.2585 33.0341C98.679 31.8409 98.8892 30.483 98.8892 28.9602C98.8892 27.4375 98.679 26.0795 98.2585 24.8864C97.8494 23.6932 97.2415 22.75 96.4347 22.0568C95.6278 21.3636 94.6222 21.017 93.4176 21.017C92.2017 21.017 91.179 21.3636 90.3494 22.0568C89.5313 22.75 88.9119 23.6932 88.4915 24.8864C88.0824 26.0795 87.8778 27.4375 87.8778 28.9602C87.8778 30.483 88.0824 31.8409 88.4915 33.0341C88.9119 34.2273 89.5313 35.1705 90.3494 35.8636C91.179 36.5455 92.2017 36.8864 93.4176 36.8864ZM110.991 51.8182V15.8182H118.151V20.2159H118.474C118.793 19.5114 119.253 18.7955 119.855 18.0682C120.469 17.3295 121.264 16.7159 122.241 16.2273C123.23 15.7273 124.457 15.4773 125.923 15.4773C127.832 15.4773 129.594 15.9773 131.207 16.9773C132.821 17.9659 134.111 19.4602 135.077 21.4602C136.043 23.4489 136.526 25.9432 136.526 28.9432C136.526 31.8636 136.054 34.3295 135.111 36.3409C134.179 38.3409 132.906 39.858 131.293 40.892C129.69 41.9148 127.895 42.4261 125.906 42.4261C124.497 42.4261 123.298 42.1932 122.31 41.7273C121.332 41.2614 120.531 40.6761 119.906 39.9716C119.281 39.2557 118.804 38.5341 118.474 37.8068H118.253V51.8182H110.991ZM118.099 28.9091C118.099 30.4659 118.315 31.8239 118.747 32.983C119.179 34.142 119.804 35.0455 120.622 35.6932C121.44 36.3295 122.435 36.6477 123.605 36.6477C124.787 36.6477 125.787 36.3239 126.605 35.6761C127.423 35.017 128.043 34.108 128.463 32.9489C128.895 31.7784 129.111 30.4318 129.111 28.9091C129.111 27.3977 128.901 26.0682 128.48 24.9205C128.06 23.7727 127.44 22.875 126.622 22.2273C125.804 21.5795 124.798 21.2557 123.605 21.2557C122.423 21.2557 121.423 21.5682 120.605 22.1932C119.798 22.8182 119.179 23.7045 118.747 24.8523C118.315 26 118.099 27.3523 118.099 28.9091ZM158.156 30.8523V15.8182H165.418V42H158.446V37.2443H158.173C157.582 38.7784 156.599 40.0114 155.224 40.9432C153.861 41.875 152.196 42.3409 150.23 42.3409C148.48 42.3409 146.94 41.9432 145.611 41.1477C144.281 40.3523 143.241 39.2216 142.491 37.7557C141.753 36.2898 141.378 34.5341 141.366 32.4886V15.8182H148.628V31.1932C148.639 32.7386 149.054 33.9602 149.872 34.858C150.69 35.7557 151.787 36.2045 153.162 36.2045C154.037 36.2045 154.855 36.0057 155.616 35.608C156.378 35.1989 156.991 34.5966 157.457 33.8011C157.935 33.0057 158.168 32.0227 158.156 30.8523ZM171.226 51.8182V15.8182H178.385V20.2159H178.709C179.027 19.5114 179.487 18.7955 180.089 18.0682C180.703 17.3295 181.499 16.7159 182.476 16.2273C183.464 15.7273 184.692 15.4773 186.158 15.4773C188.067 15.4773 189.828 15.9773 191.442 16.9773C193.055 17.9659 194.345 19.4602 195.311 21.4602C196.277 23.4489 196.76 25.9432 196.76 28.9432C196.76 31.8636 196.288 34.3295 195.345 36.3409C194.413 38.3409 193.141 39.858 191.527 40.892C189.925 41.9148 188.129 42.4261 186.141 42.4261C184.732 42.4261 183.533 42.1932 182.544 41.7273C181.567 41.2614 180.766 40.6761 180.141 39.9716C179.516 39.2557 179.038 38.5341 178.709 37.8068H178.487V51.8182H171.226ZM178.334 28.9091C178.334 30.4659 178.55 31.8239 178.982 32.983C179.413 34.142 180.038 35.0455 180.857 35.6932C181.675 36.3295 182.669 36.6477 183.839 36.6477C185.021 36.6477 186.021 36.3239 186.839 35.6761C187.658 35.017 188.277 34.108 188.697 32.9489C189.129 31.7784 189.345 30.4318 189.345 28.9091C189.345 27.3977 189.135 26.0682 188.714 24.9205C188.294 23.7727 187.675 22.875 186.857 22.2273C186.038 21.5795 185.033 21.2557 183.839 21.2557C182.658 21.2557 181.658 21.5682 180.839 22.1932C180.033 22.8182 179.413 23.7045 178.982 24.8523C178.55 26 178.334 27.3523 178.334 28.9091ZM205.091 7.09091L213.528 33.6136H213.852L222.307 7.09091H230.489L218.455 42H208.943L196.892 7.09091H205.091ZM234.554 42V15.8182H241.815V42H234.554ZM238.202 12.4432C237.122 12.4432 236.196 12.0852 235.423 11.3693C234.662 10.642 234.281 9.77273 234.281 8.76136C234.281 7.76136 234.662 6.90341 235.423 6.1875C236.196 5.46023 237.122 5.09659 238.202 5.09659C239.281 5.09659 240.202 5.46023 240.963 6.1875C241.736 6.90341 242.122 7.76136 242.122 8.76136C242.122 9.77273 241.736 10.642 240.963 11.3693C240.202 12.0852 239.281 12.4432 238.202 12.4432ZM259.564 42.5114C256.871 42.5114 254.553 41.9659 252.609 40.875C250.678 39.7727 249.189 38.2159 248.143 36.2045C247.098 34.1818 246.575 31.7898 246.575 29.0284C246.575 26.3352 247.098 23.9716 248.143 21.9375C249.189 19.9034 250.661 18.3182 252.558 17.1818C254.467 16.0455 256.706 15.4773 259.274 15.4773C261.001 15.4773 262.609 15.7557 264.098 16.3125C265.598 16.858 266.905 17.6818 268.018 18.7841C269.143 19.8864 270.018 21.2727 270.643 22.9432C271.268 24.6023 271.581 26.5455 271.581 28.7727V30.767H249.473V26.267H264.746C264.746 25.2216 264.518 24.2955 264.064 23.4886C263.609 22.6818 262.979 22.0511 262.172 21.5966C261.376 21.1307 260.45 20.8977 259.393 20.8977C258.291 20.8977 257.314 21.1534 256.462 21.6648C255.621 22.1648 254.962 22.8409 254.484 23.6932C254.007 24.5341 253.763 25.4716 253.751 26.5057V30.7841C253.751 32.0795 253.99 33.1989 254.467 34.142C254.956 35.0852 255.643 35.8125 256.53 36.3239C257.416 36.8352 258.467 37.0909 259.683 37.0909C260.49 37.0909 261.229 36.9773 261.899 36.75C262.57 36.5227 263.143 36.1818 263.621 35.7273C264.098 35.2727 264.462 34.7159 264.712 34.0568L271.428 34.5C271.087 36.1136 270.388 37.5227 269.331 38.7273C268.286 39.9205 266.933 40.8523 265.274 41.5227C263.626 42.1818 261.723 42.5114 259.564 42.5114ZM281.297 42L274.172 15.8182H281.518L285.575 33.4091H285.814L290.041 15.8182H297.251L301.547 33.3068H301.768L305.757 15.8182H313.087L305.979 42H298.291L293.791 25.5341H293.467L288.967 42H281.297Z" fill="url(#paint0_linear_4_3082)"/>
<defs>
<linearGradient id="paint0_linear_4_3082" x1="181.5" y1="-4" x2="181.5" y2="54" gradientUnits="userSpaceOnUse">
<stop stop-color="#24292F"/>
<stop offset="1" stop-color="#40464D"/>
</linearGradient>
</defs>
</svg>
