<svg width="291" height="51" viewBox="0 0 291 51" fill="none" xmlns="http://www.w3.org/2000/svg">
<rect y="4.5" width="41" height="41" rx="9" fill="#FFCF01"/>
<rect x="10.8712" y="11.3333" width="19.2576" height="14.5985" rx="3" fill="#6A738B"/>
<rect x="10.25" y="12.2652" width="20.5" height="14.2879" rx="3" fill="#474D5D"/>
<rect x="9.62878" y="13.197" width="21.7424" height="14.5985" rx="3" fill="#353A45"/>
<rect x="8.69697" y="14.1288" width="23.6061" height="24.5379" rx="3" fill="#24292F"/>
<path d="M20.5 31.15C18.79 30.8779 16.4 29.7833 16.4 29.7833C16.4 29.7833 18.2875 32.5167 20.5 32.5167C22.7125 32.5167 24.6 31.15 24.6 31.15C24.6 31.15 22.0461 31.396 20.5 31.15Z" fill="#FFCF01"/>
<ellipse cx="25.4542" cy="23.8042" rx="1.5375" ry="1.5375" fill="#FFCF01"/>
<circle cx="15.5458" cy="23.8042" r="1.5375" fill="#FFCF01"/>
<path d="M50.8445 41V8.27273H63.7564C66.2386 8.27273 68.3533 8.7468 70.1005 9.69496C71.8477 10.6325 73.1793 11.9375 74.0955 13.6101C75.0224 15.272 75.4858 17.1896 75.4858 19.3629C75.4858 21.5362 75.017 23.4538 74.0795 25.1158C73.142 26.7777 71.7837 28.0721 70.0046 28.9989C68.2362 29.9258 66.0948 30.3892 63.5806 30.3892H55.3509V24.8441H62.462C63.7937 24.8441 64.891 24.6151 65.7539 24.157C66.6275 23.6882 67.2773 23.0437 67.7035 22.2234C68.1403 21.3924 68.3587 20.4389 68.3587 19.3629C68.3587 18.2763 68.1403 17.3281 67.7035 16.5185C67.2773 15.6982 66.6275 15.0643 65.7539 14.6168C64.8803 14.1587 63.7724 13.9297 62.43 13.9297H57.7638V41H50.8445ZM89.6471 41.4794C87.1648 41.4794 85.0181 40.9521 83.2071 39.8974C81.4066 38.832 80.0164 37.3512 79.0363 35.4549C78.0561 33.5479 77.5661 31.3374 77.5661 28.8232C77.5661 26.2876 78.0561 24.0717 79.0363 22.1754C80.0164 20.2685 81.4066 18.7876 83.2071 17.733C85.0181 16.6676 87.1648 16.1349 89.6471 16.1349C92.1293 16.1349 94.2706 16.6676 96.0711 17.733C97.8821 18.7876 99.2777 20.2685 100.258 22.1754C101.238 24.0717 101.728 26.2876 101.728 28.8232C101.728 31.3374 101.238 33.5479 100.258 35.4549C99.2777 37.3512 97.8821 38.832 96.0711 39.8974C94.2706 40.9521 92.1293 41.4794 89.6471 41.4794ZM89.679 36.206C90.8083 36.206 91.7511 35.8864 92.5075 35.2472C93.2639 34.5973 93.8338 33.7131 94.2174 32.5945C94.6115 31.4759 94.8086 30.2028 94.8086 28.7752C94.8086 27.3477 94.6115 26.0746 94.2174 24.956C93.8338 23.8374 93.2639 22.9531 92.5075 22.3033C91.7511 21.6534 90.8083 21.3285 89.679 21.3285C88.5391 21.3285 87.5803 21.6534 86.8026 22.3033C86.0355 22.9531 85.4549 23.8374 85.0608 24.956C84.6772 26.0746 84.4855 27.3477 84.4855 28.7752C84.4855 30.2028 84.6772 31.4759 85.0608 32.5945C85.4549 33.7131 86.0355 34.5973 86.8026 35.2472C87.5803 35.8864 88.5391 36.206 89.679 36.206ZM105.255 50.2045V16.4545H111.966V20.5774H112.27C112.568 19.9169 113 19.2457 113.564 18.5639C114.139 17.8714 114.885 17.2962 115.801 16.8381C116.728 16.3693 117.879 16.1349 119.253 16.1349C121.043 16.1349 122.694 16.6037 124.207 17.5412C125.72 18.468 126.929 19.869 127.834 21.744C128.74 23.6083 129.193 25.9467 129.193 28.7592C129.193 31.4972 128.751 33.8089 127.866 35.6946C126.993 37.5696 125.8 38.9918 124.287 39.9613C122.785 40.9201 121.101 41.3995 119.237 41.3995C117.916 41.3995 116.792 41.1811 115.865 40.7443C114.949 40.3075 114.198 39.7589 113.612 39.0984C113.026 38.4272 112.579 37.7507 112.27 37.0689H112.062V50.2045H105.255ZM111.918 28.7273C111.918 30.1868 112.121 31.4599 112.525 32.5465C112.93 33.6332 113.516 34.4801 114.283 35.0874C115.05 35.6839 115.982 35.9822 117.08 35.9822C118.188 35.9822 119.125 35.6786 119.892 35.0714C120.659 34.4535 121.24 33.6012 121.634 32.5146C122.039 31.4173 122.241 30.1548 122.241 28.7273C122.241 27.3104 122.044 26.0639 121.65 24.9879C121.256 23.9119 120.675 23.0703 119.908 22.4631C119.141 21.8558 118.198 21.5522 117.08 21.5522C115.972 21.5522 115.034 21.8452 114.267 22.4311C113.511 23.017 112.93 23.848 112.525 24.924C112.121 26 111.918 27.2678 111.918 28.7273ZM148.571 30.549V16.4545H155.379V41H148.843V36.5415H148.587C148.033 37.9798 147.112 39.1357 145.823 40.0092C144.544 40.8828 142.984 41.3196 141.141 41.3196C139.5 41.3196 138.057 40.9467 136.81 40.201C135.564 39.4553 134.589 38.3952 133.886 37.021C133.193 35.6467 132.842 34.0007 132.831 32.0831V16.4545H139.639V30.8686C139.649 32.3175 140.038 33.4627 140.805 34.3043C141.572 35.146 142.6 35.5668 143.889 35.5668C144.71 35.5668 145.477 35.3803 146.19 35.0075C146.904 34.6239 147.48 34.0593 147.916 33.3136C148.364 32.5678 148.582 31.6463 148.571 30.549ZM159.924 50.2045V16.4545H166.636V20.5774H166.94C167.238 19.9169 167.669 19.2457 168.234 18.5639C168.809 17.8714 169.555 17.2962 170.471 16.8381C171.398 16.3693 172.549 16.1349 173.923 16.1349C175.713 16.1349 177.364 16.6037 178.877 17.5412C180.389 18.468 181.599 19.869 182.504 21.744C183.41 23.6083 183.862 25.9467 183.862 28.7592C183.862 31.4972 183.42 33.8089 182.536 35.6946C181.663 37.5696 180.469 38.9918 178.957 39.9613C177.454 40.9201 175.771 41.3995 173.907 41.3995C172.586 41.3995 171.462 41.1811 170.535 40.7443C169.619 40.3075 168.868 39.7589 168.282 39.0984C167.696 38.4272 167.248 37.7507 166.94 37.0689H166.732V50.2045H159.924ZM166.588 28.7273C166.588 30.1868 166.79 31.4599 167.195 32.5465C167.6 33.6332 168.186 34.4801 168.953 35.0874C169.72 35.6839 170.652 35.9822 171.75 35.9822C172.857 35.9822 173.795 35.6786 174.562 35.0714C175.329 34.4535 175.91 33.6012 176.304 32.5146C176.709 31.4173 176.911 30.1548 176.911 28.7273C176.911 27.3104 176.714 26.0639 176.32 24.9879C175.926 23.9119 175.345 23.0703 174.578 22.4631C173.811 21.8558 172.868 21.5522 171.75 21.5522C170.642 21.5522 169.704 21.8452 168.937 22.4311C168.181 23.017 167.6 23.848 167.195 24.924C166.79 26 166.588 27.2678 166.588 28.7273ZM190.773 8.27273L198.683 33.1378H198.987L206.913 8.27273H214.583L203.301 41H194.384L183.086 8.27273H190.773ZM217.494 41V16.4545H224.302V41H217.494ZM220.914 13.2905C219.902 13.2905 219.034 12.9549 218.309 12.2837C217.596 11.6019 217.239 10.7869 217.239 9.83878C217.239 8.90128 217.596 8.09695 218.309 7.42578C219.034 6.74396 219.902 6.40305 220.914 6.40305C221.926 6.40305 222.789 6.74396 223.503 7.42578C224.227 8.09695 224.59 8.90128 224.59 9.83878C224.59 10.7869 224.227 11.6019 223.503 12.2837C222.789 12.9549 221.926 13.2905 220.914 13.2905ZM240.041 41.4794C237.516 41.4794 235.343 40.968 233.521 39.9453C231.71 38.9119 230.315 37.4524 229.334 35.5668C228.354 33.6705 227.864 31.4279 227.864 28.8391C227.864 26.3143 228.354 24.0984 229.334 22.1914C230.315 20.2844 231.694 18.7983 233.473 17.733C235.263 16.6676 237.362 16.1349 239.77 16.1349C241.389 16.1349 242.896 16.396 244.292 16.918C245.698 17.4293 246.923 18.2017 247.967 19.2351C249.022 20.2685 249.842 21.5682 250.428 23.1342C251.014 24.6896 251.307 26.5114 251.307 28.5994V30.4691H230.581V26.2504H244.899C244.899 25.2702 244.686 24.402 244.26 23.6456C243.834 22.8892 243.243 22.2979 242.486 21.8718C241.74 21.435 240.872 21.2166 239.881 21.2166C238.848 21.2166 237.932 21.4563 237.133 21.9357C236.344 22.4045 235.727 23.0384 235.279 23.8374C234.832 24.6257 234.603 25.5046 234.592 26.4741V30.4851C234.592 31.6996 234.816 32.7489 235.263 33.6332C235.721 34.5174 236.366 35.1992 237.197 35.6786C238.028 36.158 239.013 36.3977 240.153 36.3977C240.909 36.3977 241.602 36.2912 242.23 36.0781C242.859 35.8651 243.397 35.5455 243.844 35.1193C244.292 34.6932 244.633 34.1712 244.867 33.5533L251.163 33.9688C250.844 35.4815 250.189 36.8026 249.198 37.9318C248.218 39.0504 246.95 39.924 245.395 40.5526C243.85 41.1705 242.065 41.4794 240.041 41.4794ZM259.516 41L252.836 16.4545H259.724L263.527 32.946H263.751L267.714 16.4545H274.473L278.5 32.8501H278.708L282.447 16.4545H289.319L282.655 41H275.448L271.229 25.5632H270.926L266.707 41H259.516Z" fill="url(#paint0_linear_4_3082)"/>
<defs>
<linearGradient id="paint0_linear_4_3082" x1="169.5" y1="-2" x2="169.5" y2="52" gradientUnits="userSpaceOnUse">
<stop stop-color="#24292F"/>
<stop offset="1" stop-color="#37414D"/>
</linearGradient>
</defs>
</svg>
