<svg width="461" height="60" viewBox="0 0 461 60" fill="none" xmlns="http://www.w3.org/2000/svg">
<rect x="147.5" width="82" height="28" rx="6" fill="#259E51"/>
<rect x="153.5" y="5" width="18" height="18" rx="3.5" fill="#F1EFEF"/>
<path opacity="0.4" d="M156.562 14C156.562 11.201 156.562 9.80156 157.432 8.93202C158.302 8.0625 159.701 8.0625 162.5 8.0625C165.299 8.0625 166.698 8.0625 167.568 8.93202C168.438 9.80156 168.438 11.201 168.438 14C168.438 16.7989 168.438 18.1984 167.568 19.068C166.698 19.9375 165.299 19.9375 162.5 19.9375C159.701 19.9375 158.302 19.9375 157.432 19.068C156.562 18.1984 156.562 16.7989 156.562 14Z" fill="#259E51"/>
<path d="M165 12.75L165.767 13.4108C166.089 13.6885 166.25 13.8274 166.25 14C166.25 14.1726 166.089 14.3115 165.767 14.5892L165 15.25" stroke="#259E51" stroke-width="1.25" stroke-linecap="round" stroke-linejoin="round"/>
<path d="M160 12.75L159.233 13.4108C158.911 13.6885 158.75 13.8274 158.75 14C158.75 14.1726 158.911 14.3115 159.233 14.5892L160 15.25" stroke="#259E51" stroke-width="1.25" stroke-linecap="round" stroke-linejoin="round"/>
<path d="M163.125 12.125L161.875 15.875" stroke="#259E51" stroke-width="1.25" stroke-linecap="round" stroke-linejoin="round"/>
<path d="M156.562 14C156.562 11.201 156.562 9.80156 157.432 8.93202C158.302 8.0625 159.701 8.0625 162.5 8.0625C165.299 8.0625 166.698 8.0625 167.568 8.93202C168.438 9.80156 168.438 11.201 168.438 14C168.438 16.7989 168.438 18.1984 167.568 19.068C166.698 19.9375 165.299 19.9375 162.5 19.9375C159.701 19.9375 158.302 19.9375 157.432 19.068C156.562 18.1984 156.562 16.7989 156.562 14Z" stroke="#259E51" stroke-width="1.25"/>
<path d="M182.086 12.1172C182.039 11.683 181.844 11.3449 181.499 11.103C181.158 10.861 180.713 10.7401 180.167 10.7401C179.782 10.7401 179.452 10.7981 179.177 10.9141C178.902 11.0301 178.692 11.1875 178.546 11.3864C178.4 11.5852 178.325 11.8123 178.322 12.0675C178.322 12.2796 178.37 12.4635 178.466 12.6193C178.566 12.7751 178.7 12.9077 178.869 13.017C179.038 13.1231 179.225 13.2126 179.431 13.2855C179.636 13.3584 179.843 13.4197 180.052 13.4695L181.007 13.7081C181.391 13.7976 181.761 13.9186 182.115 14.071C182.473 14.2235 182.793 14.4157 183.075 14.6477C183.36 14.8797 183.585 15.1598 183.751 15.4879C183.917 15.8161 184 16.2005 184 16.6413C184 17.2379 183.847 17.7633 183.542 18.2173C183.237 18.6681 182.797 19.0211 182.22 19.2763C181.646 19.5282 180.952 19.6541 180.137 19.6541C179.345 19.6541 178.657 19.5315 178.074 19.2862C177.494 19.041 177.039 18.683 176.711 18.2124C176.387 17.7417 176.211 17.1683 176.184 16.4922H177.999C178.025 16.8468 178.135 17.1418 178.327 17.3771C178.519 17.6125 178.77 17.7881 179.078 17.9041C179.389 18.0201 179.737 18.0781 180.122 18.0781C180.523 18.0781 180.874 18.0185 181.176 17.8991C181.481 17.7765 181.719 17.6075 181.892 17.392C182.064 17.1733 182.152 16.9181 182.155 16.6264C182.152 16.3613 182.074 16.1425 181.922 15.9702C181.769 15.7945 181.555 15.6487 181.28 15.5327C181.008 15.4134 180.69 15.3073 180.326 15.2145L179.167 14.9162C178.329 14.7008 177.666 14.3743 177.179 13.9368C176.695 13.496 176.453 12.911 176.453 12.1818C176.453 11.5819 176.615 11.0566 176.94 10.6058C177.268 10.1551 177.714 9.8054 178.277 9.55682C178.841 9.30492 179.479 9.17898 180.191 9.17898C180.914 9.17898 181.547 9.30492 182.091 9.55682C182.637 9.8054 183.067 10.1518 183.378 10.5959C183.69 11.0367 183.851 11.5438 183.86 12.1172H182.086ZM186.93 19.5L184.773 11.8636H186.607L187.95 17.233H188.019L189.391 11.8636H191.206L192.578 17.2031H192.653L193.975 11.8636H195.815L193.652 19.5H191.778L190.346 14.3395H190.242L188.81 19.5H186.93ZM196.861 19.5V11.8636H198.661V19.5H196.861ZM197.766 10.7798C197.481 10.7798 197.236 10.6854 197.03 10.4964C196.825 10.3042 196.722 10.0739 196.722 9.8054C196.722 9.53362 196.825 9.30327 197.03 9.11435C197.236 8.92211 197.481 8.82599 197.766 8.82599C198.054 8.82599 198.3 8.92211 198.502 9.11435C198.707 9.30327 198.81 9.53362 198.81 9.8054C198.81 10.0739 198.707 10.3042 198.502 10.4964C198.3 10.6854 198.054 10.7798 197.766 10.7798ZM204.17 11.8636V13.2557H199.655V11.8636H204.17ZM200.784 19.5V11.1428C200.784 10.629 200.89 10.2015 201.102 9.86008C201.318 9.5187 201.606 9.26349 201.967 9.09446C202.328 8.92543 202.729 8.84091 203.17 8.84091C203.482 8.84091 203.759 8.86577 204.001 8.91548C204.242 8.9652 204.421 9.00994 204.537 9.04972L204.18 10.4418C204.103 10.4186 204.007 10.3954 203.891 10.3722C203.775 10.3456 203.646 10.3324 203.503 10.3324C203.169 10.3324 202.932 10.4136 202.792 10.576C202.657 10.7351 202.589 10.9638 202.589 11.2621V19.5H200.784ZM209.182 11.8636V13.2557H204.792V11.8636H209.182ZM205.876 10.0341H207.676V17.2031C207.676 17.4451 207.712 17.6307 207.785 17.7599C207.861 17.8859 207.961 17.9721 208.084 18.0185C208.206 18.0649 208.342 18.0881 208.491 18.0881C208.604 18.0881 208.707 18.0798 208.799 18.0632C208.896 18.0466 208.968 18.0317 209.018 18.0185L209.321 19.4254C209.225 19.4586 209.088 19.495 208.909 19.5348C208.733 19.5746 208.518 19.5978 208.262 19.6044C207.812 19.6177 207.406 19.5497 207.044 19.4006C206.683 19.2481 206.396 19.0128 206.184 18.6946C205.976 18.3764 205.873 17.9787 205.876 17.5014V10.0341ZM216.975 9.31818H218.82V15.9702C218.82 16.6993 218.647 17.3407 218.303 17.8942C217.961 18.4477 217.481 18.8802 216.861 19.1918C216.241 19.5 215.517 19.6541 214.688 19.6541C213.856 19.6541 213.131 19.5 212.511 19.1918C211.891 18.8802 211.41 18.4477 211.069 17.8942C210.728 17.3407 210.557 16.6993 210.557 15.9702V9.31818H212.401V15.8161C212.401 16.2403 212.494 16.6181 212.68 16.9496C212.869 17.281 213.134 17.5412 213.475 17.7301C213.817 17.9157 214.221 18.0085 214.688 18.0085C215.156 18.0085 215.56 17.9157 215.901 17.7301C216.246 17.5412 216.511 17.281 216.697 16.9496C216.882 16.6181 216.975 16.2403 216.975 15.8161V9.31818ZM222.459 9.31818V19.5H220.614V9.31818H222.459Z" fill="#F1EFEF"/>
<rect x="233.5" width="80" height="28" rx="6" fill="#3C46C9"/>
<rect x="239.5" y="5" width="18" height="18" rx="3.5" fill="#F1EFEF"/>
<path opacity="0.4" d="M244.766 8.39076C244.125 9.03147 244.125 10.0627 244.125 12.1251V15.875C244.125 17.9375 244.125 18.9687 244.766 19.6093C245.406 20.25 246.438 20.25 248.5 20.25C250.562 20.25 251.594 20.25 252.234 19.6093C252.875 18.9687 252.875 17.9375 252.875 15.875V12.1251C252.875 10.0627 252.875 9.03147 252.234 8.39076C251.826 7.98278 251.26 7.83459 250.37 7.78076L250.319 8.08382C250.199 8.80712 250.139 9.16877 249.891 9.38884C249.632 9.6184 249.265 9.62506 248.5 9.62506C247.735 9.62506 247.368 9.6184 247.109 9.38884C246.861 9.16877 246.801 8.80712 246.681 8.08382L246.63 7.78076C245.74 7.83459 245.174 7.98278 244.766 8.39076Z" fill="#3C46C9"/>
<path d="M244.125 12.125C244.125 10.0626 244.125 9.03141 244.766 8.39071C245.406 7.75 246.438 7.75 248.5 7.75C250.562 7.75 251.594 7.75 252.234 8.39071C252.875 9.03141 252.875 10.0626 252.875 12.125V15.875C252.875 17.9374 252.875 18.9686 252.234 19.6093C251.594 20.25 250.562 20.25 248.5 20.25C246.438 20.25 245.406 20.25 244.766 19.6093C244.125 18.9686 244.125 17.9374 244.125 15.875V12.125Z" stroke="#3C46C9" stroke-width="1.25" stroke-linecap="round"/>
<path d="M247.875 18.375H249.125" stroke="#3C46C9" stroke-width="1.25" stroke-linecap="round" stroke-linejoin="round"/>
<path d="M246.625 7.75L246.681 8.08376C246.801 8.80706 246.861 9.16871 247.109 9.38877C247.368 9.61834 247.735 9.625 248.5 9.625C249.265 9.625 249.632 9.61834 249.891 9.38877C250.139 9.16871 250.199 8.80706 250.319 8.08376L250.375 7.75" stroke="#3C46C9" stroke-width="1.25" stroke-linejoin="round"/>
<path d="M262.843 19.5V11.8636H264.642V19.5H262.843ZM263.748 10.7798C263.463 10.7798 263.217 10.6854 263.012 10.4964C262.806 10.3042 262.704 10.0739 262.704 9.8054C262.704 9.53362 262.806 9.30327 263.012 9.11435C263.217 8.92211 263.463 8.82599 263.748 8.82599C264.036 8.82599 264.281 8.92211 264.483 9.11435C264.689 9.30327 264.792 9.53362 264.792 9.8054C264.792 10.0739 264.689 10.3042 264.483 10.4964C264.281 10.6854 264.036 10.7798 263.748 10.7798ZM275.461 14.4091C275.461 15.5062 275.255 16.4458 274.844 17.228C274.437 18.0069 273.88 18.6035 273.174 19.0178C272.471 19.4321 271.674 19.6392 270.782 19.6392C269.891 19.6392 269.092 19.4321 268.386 19.0178C267.683 18.6001 267.127 18.0019 266.716 17.223C266.308 16.4408 266.104 15.5028 266.104 14.4091C266.104 13.312 266.308 12.3741 266.716 11.5952C267.127 10.813 267.683 10.2147 268.386 9.80043C269.092 9.38613 269.891 9.17898 270.782 9.17898C271.674 9.17898 272.471 9.38613 273.174 9.80043C273.88 10.2147 274.437 10.813 274.844 11.5952C275.255 12.3741 275.461 13.312 275.461 14.4091ZM273.606 14.4091C273.606 13.6368 273.485 12.9856 273.243 12.4553C273.005 11.9216 272.673 11.5189 272.249 11.2472C271.825 10.9721 271.336 10.8345 270.782 10.8345C270.229 10.8345 269.74 10.9721 269.316 11.2472C268.892 11.5189 268.558 11.9216 268.316 12.4553C268.078 12.9856 267.959 13.6368 267.959 14.4091C267.959 15.1813 268.078 15.8343 268.316 16.3679C268.558 16.8982 268.892 17.3009 269.316 17.576C269.74 17.8478 270.229 17.9837 270.782 17.9837C271.336 17.9837 271.825 17.8478 272.249 17.576C272.673 17.3009 273.005 16.8982 273.243 16.3679C273.485 15.8343 273.606 15.1813 273.606 14.4091ZM282.528 12.1172C282.481 11.683 282.286 11.3449 281.941 11.103C281.6 10.861 281.156 10.7401 280.609 10.7401C280.224 10.7401 279.895 10.7981 279.619 10.9141C279.344 11.0301 279.134 11.1875 278.988 11.3864C278.842 11.5852 278.768 11.8123 278.764 12.0675C278.764 12.2796 278.812 12.4635 278.909 12.6193C279.008 12.7751 279.142 12.9077 279.311 13.017C279.48 13.1231 279.668 13.2126 279.873 13.2855C280.079 13.3584 280.286 13.4197 280.494 13.4695L281.449 13.7081C281.833 13.7976 282.203 13.9186 282.558 14.071C282.916 14.2235 283.235 14.4157 283.517 14.6477C283.802 14.8797 284.028 15.1598 284.193 15.4879C284.359 15.8161 284.442 16.2005 284.442 16.6413C284.442 17.2379 284.289 17.7633 283.985 18.2173C283.68 18.6681 283.239 19.0211 282.662 19.2763C282.089 19.5282 281.394 19.6541 280.579 19.6541C279.787 19.6541 279.099 19.5315 278.516 19.2862C277.936 19.041 277.482 18.683 277.154 18.2124C276.829 17.7417 276.653 17.1683 276.627 16.4922H278.441C278.468 16.8468 278.577 17.1418 278.769 17.3771C278.962 17.6125 279.212 17.7881 279.52 17.9041C279.832 18.0201 280.18 18.0781 280.564 18.0781C280.965 18.0781 281.316 18.0185 281.618 17.8991C281.923 17.7765 282.162 17.6075 282.334 17.392C282.506 17.1733 282.594 16.9181 282.597 16.6264C282.594 16.3613 282.516 16.1425 282.364 15.9702C282.211 15.7945 281.998 15.6487 281.722 15.5327C281.451 15.4134 281.132 15.3073 280.768 15.2145L279.61 14.9162C278.771 14.7008 278.108 14.3743 277.621 13.9368C277.137 13.496 276.895 12.911 276.895 12.1818C276.895 11.5819 277.057 11.0566 277.382 10.6058C277.71 10.1551 278.156 9.8054 278.72 9.55682C279.283 9.30492 279.921 9.17898 280.634 9.17898C281.356 9.17898 281.989 9.30492 282.533 9.55682C283.08 9.8054 283.509 10.1518 283.82 10.5959C284.132 11.0367 284.293 11.5438 284.303 12.1172H282.528Z" fill="#F1EFEF"/>
<path d="M291.595 10.5V18.5H290.626V11.5156H290.579L288.626 12.8125V11.8281L290.626 10.5H291.595ZM293.543 16.8594V16.0625L297.059 10.5H297.637V11.7344H297.246L294.59 15.9375V16H299.324V16.8594H293.543ZM297.309 18.5V16.6172V16.2461V10.5H298.23V18.5H297.309ZM302.982 17.0938V11.9375H303.857V17.0938H302.982ZM300.842 14.9531V14.0781H305.998V14.9531H300.842Z" fill="#C6C6C8"/>
<rect x="0.5" y="32" width="139" height="28" rx="6" fill="#006AB2"/>
<rect x="6.5" y="37" width="18" height="18" rx="3.5" fill="#F1EFEF"/>
<path d="M18.5884 42.7167V39.7164C18.592 39.6111 18.6792 39.529 18.784 39.5305C19.8077 39.5925 20.7377 39.6827 21.5327 39.7946L21.5354 39.7953C21.6098 39.8042 21.6718 39.8563 21.695 39.9271L21.6954 39.927L21.6961 39.9302C21.6986 39.9378 21.7002 39.9455 21.7016 39.9534L21.7032 39.96C21.7061 39.9806 21.7097 40.0042 21.7138 40.0315C21.8118 40.6963 21.9135 41.7455 21.9672 42.6974C21.9672 42.6974 21.9793 42.9097 21.7666 42.9097H18.7814C18.6747 42.9097 18.5884 42.8234 18.5884 42.7167ZM18.5889 39.7034L18.5884 39.7164V39.7103L18.5886 39.7034H18.5889Z" fill="#006AB2"/>
<path d="M12.4092 52.2807V49.0876V49.2808C12.4092 49.1741 12.3228 49.0876 12.2162 49.0876H9.23117C9.01836 49.0876 9.0304 49.3002 9.0304 49.3002C9.08405 50.252 9.18586 51.3015 9.28386 51.9662C9.28792 51.9938 9.29161 52.0177 9.29459 52.0386L9.29602 52.0445C9.29733 52.0524 9.299 52.0602 9.30151 52.0678L9.3021 52.071H9.30246C9.32559 52.1411 9.38663 52.1925 9.46031 52.2022C10.2565 52.3147 11.1888 52.4051 12.2149 52.4672C12.3194 52.468 12.406 52.3857 12.4092 52.2807Z" fill="#006AB2"/>
<path d="M15.8857 42.697C15.8857 42.697 15.8857 42.9098 16.0984 42.9098H17.6034C17.6034 42.9098 17.8163 42.9098 17.8163 42.697V39.6941C17.8163 39.6941 17.8163 39.4811 17.6036 39.4726C17.1971 39.4557 16.5506 39.4405 16.0984 39.4375C16.0984 39.4375 15.8857 39.4362 15.8857 39.6491V42.697Z" fill="#006AB2"/>
<path d="M15.4985 52.35V49.152V49.2808C15.4985 49.1742 15.4119 49.0876 15.3053 49.0876H15.434H13.3946C13.3946 49.0876 13.1816 49.0876 13.1816 49.3006V52.3034C13.1816 52.3034 13.1816 52.5163 13.3943 52.525C13.9203 52.5466 14.6967 52.5628 15.2857 52.5628C15.2857 52.5628 15.4985 52.5628 15.4985 52.35Z" fill="#006AB2"/>
<path d="M13.1816 42.697C13.1816 42.697 13.1816 42.9098 13.3946 42.9098H14.8994C14.8994 42.9098 15.1123 42.9098 15.1123 42.697V39.6489C15.1123 39.6489 15.1123 39.436 14.8995 39.4375C14.4471 39.4405 13.8011 39.456 13.3943 39.4727C13.3943 39.4727 13.1816 39.4814 13.1816 39.6942V42.697Z" fill="#006AB2"/>
<path d="M9.19431 48.3156H12.1971C12.1971 48.3156 12.4099 48.3156 12.4099 48.1027V46.5976C12.4099 46.5976 12.4099 46.3848 12.1971 46.3848H9.149C9.149 46.3848 8.93631 46.3848 8.9375 46.5976C8.94049 47.05 8.9561 47.696 8.97268 48.1027C8.97268 48.1027 8.98162 48.3156 9.19431 48.3156Z" fill="#006AB2"/>
<path d="M8.9375 45.3999C8.9375 45.3999 8.93619 45.6127 9.14888 45.6127H12.197C12.197 45.6127 12.4098 45.6127 12.4098 45.3999V43.8949C12.4098 43.8949 12.4098 43.6821 12.197 43.6821H9.19406C9.19406 43.6821 8.98137 43.6821 8.97255 43.8947C8.95598 44.3014 8.94048 44.9477 8.9375 45.3999Z" fill="#006AB2"/>
<path d="M12.4092 42.7167V39.7164C12.4057 39.6111 12.3184 39.529 12.2135 39.5305C11.1899 39.5925 10.2599 39.6827 9.46496 39.7946L9.46222 39.7953C9.38782 39.8042 9.32583 39.8563 9.30246 39.9271L9.3021 39.927L9.30151 39.9302C9.299 39.9378 9.29733 39.9455 9.29602 39.9534L9.29447 39.96C9.29149 39.9806 9.2878 40.0042 9.28386 40.0315C9.18586 40.6963 9.08405 41.7455 9.0304 42.6974C9.0304 42.6974 9.01836 42.9097 9.23117 42.9097H12.2162C12.3228 42.9097 12.4092 42.8234 12.4092 42.7167ZM12.4088 39.7034L12.4092 39.7164V39.7103L12.409 39.7034H12.4088Z" fill="#006AB2"/>
<path d="M18.5884 48.329C18.5884 48.329 18.5884 48.5418 18.7387 48.6922C18.7387 48.6922 18.5884 48.5418 21.5974 51.5511C21.5974 51.5511 21.748 51.7014 21.7748 51.4903C21.9213 50.3437 22.0338 48.6402 22.0556 46.9839C22.0556 46.9839 22.0583 46.7712 21.8455 46.7712H18.7598C18.7598 46.7712 18.5884 46.7712 18.5884 46.9427V48.329Z" fill="#006AB2"/>
<path d="M22.0632 45.809C22.0609 45.0759 22.0456 44.379 22.0258 43.8947C22.0258 43.8947 22.0169 43.6821 21.8041 43.6821H18.8012C18.8012 43.6821 18.5884 43.6821 18.5884 43.8949V45.7859C18.5884 45.7859 18.5884 45.9987 18.8012 45.9987H21.8704C21.9759 45.9987 22.0614 45.9141 22.0632 45.809Z" fill="#006AB2"/>
<path d="M21.0513 52.097C18.9783 50.0241 18.3334 49.3793 18.1328 49.1786C18.0691 49.1173 17.9966 49.0837 17.9345 49.088V49.0879H16.4843C16.4843 49.0879 16.2715 49.0879 16.2715 49.3008V52.3451C16.2715 52.3451 16.2715 52.5579 16.4843 52.5552C18.1406 52.5334 19.8437 52.4208 20.9906 52.2744C20.9906 52.2744 21.2018 52.2474 21.0513 52.097Z" fill="#006AB2"/>
<path d="M29.5841 41.3182H31.8412L34.8639 48.696H34.9833L38.006 41.3182H40.2631V51.5H38.4932V44.505H38.3987L35.5848 51.4702H34.2624L31.4485 44.4901H31.354V51.5H29.5841V41.3182ZM44.1795 51.6541C43.6956 51.6541 43.2598 51.5679 42.872 51.3956C42.4875 51.2199 42.1826 50.9614 41.9572 50.62C41.7351 50.2786 41.6241 49.8577 41.6241 49.3572C41.6241 48.9264 41.7037 48.5701 41.8627 48.2884C42.0218 48.0066 42.2389 47.7812 42.514 47.6122C42.7891 47.4432 43.099 47.3156 43.4437 47.2294C43.7917 47.1399 44.1513 47.0753 44.5225 47.0355C44.97 46.9891 45.3329 46.9477 45.6113 46.9112C45.8897 46.8714 46.0919 46.8118 46.2179 46.7322C46.3471 46.6494 46.4117 46.5218 46.4117 46.3494V46.3196C46.4117 45.9451 46.3007 45.6551 46.0787 45.4496C45.8566 45.2441 45.5367 45.1413 45.1191 45.1413C44.6783 45.1413 44.3287 45.2375 44.0701 45.4297C43.8149 45.6219 43.6426 45.849 43.5531 46.1108L41.8727 45.8722C42.0053 45.4081 42.224 45.0204 42.5289 44.7088C42.8339 44.3939 43.2067 44.1586 43.6475 44.0028C44.0884 43.8438 44.5756 43.7642 45.1092 43.7642C45.4771 43.7642 45.8433 43.8073 46.2079 43.8935C46.5725 43.9796 46.9056 44.1222 47.2072 44.321C47.5088 44.5166 47.7508 44.7834 47.9331 45.1214C48.1187 45.4595 48.2115 45.8821 48.2115 46.3892V51.5H46.4814V50.451H46.4217C46.3123 50.6631 46.1582 50.862 45.9593 51.0476C45.7638 51.2299 45.5169 51.3774 45.2186 51.4901C44.9236 51.5994 44.5772 51.6541 44.1795 51.6541ZM44.6468 50.3317C45.0081 50.3317 45.3213 50.2604 45.5865 50.1179C45.8516 49.9721 46.0555 49.7798 46.198 49.5412C46.3438 49.3026 46.4167 49.0424 46.4167 48.7607V47.8608C46.3604 47.9072 46.2643 47.9503 46.1284 47.9901C45.9958 48.0298 45.8466 48.0646 45.6809 48.0945C45.5152 48.1243 45.3511 48.1508 45.1887 48.174C45.0263 48.1972 44.8855 48.2171 44.7662 48.2337C44.4977 48.2701 44.2574 48.3298 44.0453 48.4126C43.8332 48.4955 43.6658 48.6115 43.5431 48.7607C43.4205 48.9065 43.3592 49.0954 43.3592 49.3274C43.3592 49.6589 43.4802 49.9091 43.7221 50.0781C43.9641 50.2472 44.2723 50.3317 44.6468 50.3317ZM52.6449 51.6342C52.045 51.6342 51.5081 51.4801 51.0341 51.1719C50.5602 50.8636 50.1857 50.4162 49.9106 49.8295C49.6355 49.2429 49.4979 48.5303 49.4979 47.6918C49.4979 46.8433 49.6371 46.1274 49.9155 45.544C50.1973 44.9574 50.5767 44.5149 51.054 44.2166C51.5313 43.915 52.0633 43.7642 52.6499 43.7642C53.0973 43.7642 53.4652 43.8404 53.7536 43.9929C54.0419 44.142 54.2706 44.3227 54.4397 44.5348C54.6087 44.7436 54.7396 44.9408 54.8324 45.1264H54.907V41.3182H56.7117V51.5H54.9418V50.2969H54.8324C54.7396 50.4825 54.6054 50.6797 54.4297 50.8885C54.2541 51.094 54.0221 51.2696 53.7337 51.4155C53.4454 51.5613 53.0824 51.6342 52.6449 51.6342ZM53.1471 50.1577C53.5282 50.1577 53.853 50.0549 54.1215 49.8494C54.39 49.6406 54.5938 49.3506 54.733 48.9794C54.8722 48.6082 54.9418 48.1757 54.9418 47.6818C54.9418 47.188 54.8722 46.7588 54.733 46.3942C54.5971 46.0296 54.3949 45.7462 54.1265 45.544C53.8613 45.3419 53.5348 45.2408 53.1471 45.2408C52.746 45.2408 52.4113 45.3452 52.1428 45.554C51.8743 45.7628 51.6722 46.0511 51.5363 46.419C51.4004 46.7869 51.3324 47.2079 51.3324 47.6818C51.3324 48.1591 51.4004 48.585 51.5363 48.9595C51.6755 49.3307 51.8793 49.6241 52.1478 49.8395C52.4196 50.0516 52.7526 50.1577 53.1471 50.1577ZM61.8002 51.6491C61.0345 51.6491 60.3733 51.4901 59.8165 51.1719C59.263 50.8504 58.8371 50.3963 58.5388 49.8097C58.2405 49.2197 58.0914 48.5253 58.0914 47.7266C58.0914 46.9411 58.2405 46.2517 58.5388 45.6584C58.8404 45.0618 59.2613 44.5978 59.8016 44.2663C60.3418 43.9316 60.9765 43.7642 61.7057 43.7642C62.1763 43.7642 62.6205 43.8404 63.0381 43.9929C63.459 44.142 63.8302 44.3741 64.1517 44.6889C64.4765 45.0038 64.7317 45.4048 64.9174 45.892C65.103 46.3759 65.1958 46.9527 65.1958 47.6222V48.174H58.9365V46.9609H63.4706C63.4673 46.6162 63.3927 46.3097 63.2469 46.0412C63.1011 45.7694 62.8972 45.5556 62.6354 45.3999C62.3769 45.2441 62.0753 45.1662 61.7306 45.1662C61.3627 45.1662 61.0395 45.2557 60.7611 45.4347C60.4827 45.6103 60.2656 45.8423 60.1098 46.1307C59.9574 46.4157 59.8795 46.7289 59.8762 47.0703V48.1293C59.8762 48.5734 59.9574 48.9545 60.1198 49.2727C60.2822 49.5876 60.5092 49.8295 60.8009 49.9986C61.0925 50.1643 61.4339 50.2472 61.825 50.2472C62.0869 50.2472 62.3238 50.2107 62.536 50.1378C62.7481 50.0616 62.932 49.9505 63.0878 49.8047C63.2436 49.6589 63.3612 49.4782 63.4408 49.2628L65.1212 49.4517C65.0151 49.8958 64.813 50.2836 64.5147 50.6151C64.2197 50.9432 63.8418 51.1984 63.3811 51.3807C62.9204 51.5597 62.3934 51.6491 61.8002 51.6491ZM69.771 51.5V43.8636H71.5707V51.5H69.771ZM70.6758 42.7798C70.3908 42.7798 70.1455 42.6854 69.94 42.4964C69.7345 42.3042 69.6318 42.0739 69.6318 41.8054C69.6318 41.5336 69.7345 41.3033 69.94 41.1143C70.1455 40.9221 70.3908 40.826 70.6758 40.826C70.9642 40.826 71.2094 40.9221 71.4116 41.1143C71.6171 41.3033 71.7198 41.5336 71.7198 41.8054C71.7198 42.0739 71.6171 42.3042 71.4116 42.4964C71.2094 42.6854 70.9642 42.7798 70.6758 42.7798ZM75.0111 47.0256V51.5H73.2114V43.8636H74.9315V45.1612H75.021C75.1967 44.7337 75.4767 44.3939 75.8612 44.142C76.249 43.8902 76.7279 43.7642 77.298 43.7642C77.825 43.7642 78.284 43.8769 78.6751 44.1023C79.0696 44.3277 79.3745 44.6541 79.5899 45.0817C79.8087 45.5092 79.9164 46.0279 79.9131 46.6378V51.5H78.1133V46.9162C78.1133 46.4058 77.9808 46.0064 77.7156 45.718C77.4538 45.4297 77.0909 45.2855 76.6268 45.2855C76.312 45.2855 76.0319 45.3551 75.7866 45.4943C75.5447 45.6302 75.3541 45.8274 75.2149 46.0859C75.079 46.3445 75.0111 46.6577 75.0111 47.0256ZM84.8748 51.5V41.3182H86.7193V45.9964H86.8436L90.8159 41.3182H93.068L89.1305 45.8871L93.1028 51.5H90.8855L87.8478 47.1349L86.7193 48.4673V51.5H84.8748ZM94.0599 51.5V43.8636H95.8049V45.1364H95.8845C96.0237 44.6955 96.2623 44.3558 96.6004 44.1172C96.9417 43.8752 97.3312 43.7543 97.7687 43.7543C97.8681 43.7543 97.9791 43.7592 98.1018 43.7692C98.2277 43.7758 98.3321 43.7874 98.415 43.804V45.4595C98.3388 45.433 98.2178 45.4098 98.0521 45.3899C97.8897 45.3667 97.7322 45.3551 97.5798 45.3551C97.2516 45.3551 96.9567 45.4264 96.6948 45.5689C96.4363 45.7081 96.2325 45.902 96.0833 46.1506C95.9342 46.3991 95.8596 46.6858 95.8596 47.0107V51.5H94.0599ZM101.461 51.6541C100.977 51.6541 100.542 51.5679 100.154 51.3956C99.7694 51.2199 99.4645 50.9614 99.2391 50.62C99.017 50.2786 98.906 49.8577 98.906 49.3572C98.906 48.9264 98.9855 48.5701 99.1446 48.2884C99.3037 48.0066 99.5208 47.7812 99.7959 47.6122C100.071 47.4432 100.381 47.3156 100.726 47.2294C101.074 47.1399 101.433 47.0753 101.804 47.0355C102.252 46.9891 102.615 46.9477 102.893 46.9112C103.172 46.8714 103.374 46.8118 103.5 46.7322C103.629 46.6494 103.694 46.5218 103.694 46.3494V46.3196C103.694 45.9451 103.583 45.6551 103.361 45.4496C103.138 45.2441 102.819 45.1413 102.401 45.1413C101.96 45.1413 101.611 45.2375 101.352 45.4297C101.097 45.6219 100.924 45.849 100.835 46.1108L99.1546 45.8722C99.2871 45.4081 99.5059 45.0204 99.8108 44.7088C100.116 44.3939 100.489 44.1586 100.929 44.0028C101.37 43.8438 101.857 43.7642 102.391 43.7642C102.759 43.7642 103.125 43.8073 103.49 43.8935C103.854 43.9796 104.187 44.1222 104.489 44.321C104.791 44.5166 105.033 44.7834 105.215 45.1214C105.401 45.4595 105.493 45.8821 105.493 46.3892V51.5H103.763V50.451H103.704C103.594 50.6631 103.44 50.862 103.241 51.0476C103.046 51.2299 102.799 51.3774 102.5 51.4901C102.205 51.5994 101.859 51.6541 101.461 51.6541ZM101.929 50.3317C102.29 50.3317 102.603 50.2604 102.868 50.1179C103.133 49.9721 103.337 49.7798 103.48 49.5412C103.626 49.3026 103.699 49.0424 103.699 48.7607V47.8608C103.642 47.9072 103.546 47.9503 103.41 47.9901C103.278 48.0298 103.129 48.0646 102.963 48.0945C102.797 48.1243 102.633 48.1508 102.471 48.174C102.308 48.1972 102.167 48.2171 102.048 48.2337C101.78 48.2701 101.539 48.3298 101.327 48.4126C101.115 48.4955 100.948 48.6115 100.825 48.7607C100.702 48.9065 100.641 49.0954 100.641 49.3274C100.641 49.6589 100.762 49.9091 101.004 50.0781C101.246 50.2472 101.554 50.3317 101.929 50.3317ZM108.734 49.1037L108.729 46.9311H109.017L111.761 43.8636H113.864L110.489 47.6222H110.116L108.734 49.1037ZM107.093 51.5V41.3182H108.893V51.5H107.093ZM111.886 51.5L109.4 48.0249L110.613 46.7571L114.038 51.5H111.886ZM117.87 51.6491C117.124 51.6491 116.478 51.4851 115.931 51.157C115.384 50.8288 114.96 50.3698 114.659 49.7798C114.36 49.1899 114.211 48.5005 114.211 47.7116C114.211 46.9228 114.36 46.2318 114.659 45.6385C114.96 45.0452 115.384 44.5845 115.931 44.2564C116.478 43.9283 117.124 43.7642 117.87 43.7642C118.616 43.7642 119.262 43.9283 119.809 44.2564C120.356 44.5845 120.779 45.0452 121.077 45.6385C121.379 46.2318 121.529 46.9228 121.529 47.7116C121.529 48.5005 121.379 49.1899 121.077 49.7798C120.779 50.3698 120.356 50.8288 119.809 51.157C119.262 51.4851 118.616 51.6491 117.87 51.6491ZM117.88 50.2074C118.285 50.2074 118.623 50.0964 118.894 49.8743C119.166 49.6489 119.368 49.3473 119.501 48.9695C119.637 48.5916 119.705 48.1707 119.705 47.7067C119.705 47.2393 119.637 46.8168 119.501 46.4389C119.368 46.0578 119.166 45.7545 118.894 45.5291C118.623 45.3037 118.285 45.1911 117.88 45.1911C117.466 45.1911 117.121 45.3037 116.846 45.5291C116.574 45.7545 116.37 46.0578 116.235 46.4389C116.102 46.8168 116.036 47.2393 116.036 47.7067C116.036 48.1707 116.102 48.5916 116.235 48.9695C116.37 49.3473 116.574 49.6489 116.846 49.8743C117.121 50.0964 117.466 50.2074 117.88 50.2074ZM117.179 42.8594L118.293 40.5874H120.053L118.526 42.8594H117.179ZM124.204 51.5L122.046 43.8636H123.881L125.223 49.233H125.293L126.665 43.8636H128.48L129.852 49.2031H129.926L131.249 43.8636H133.088L130.926 51.5H129.051L127.62 46.3395H127.515L126.083 51.5H124.204Z" fill="#F1EFEF"/>
<rect x="143.5" y="32" width="149" height="28" rx="6" fill="#3C46C9"/>
<rect x="149.5" y="37" width="18" height="18" rx="3.5" fill="#F1EFEF"/>
<path opacity="0.4" fill-rule="evenodd" clip-rule="evenodd" d="M164.389 43.5C164.437 44.2048 164.438 45.0711 164.438 46.152V46.473C164.438 49.1963 164.438 50.5579 163.655 51.404C162.872 52.25 161.613 52.25 159.094 52.25H157.906C155.387 52.25 154.128 52.25 153.345 51.404C152.562 50.5579 152.562 49.1963 152.562 46.473V46.152C152.562 45.0711 152.562 44.2048 152.611 43.5H164.389ZM158.5 46.3125C159.042 46.3125 159.52 46.5888 159.8 47.0082C159.966 47.2563 160.062 47.5543 160.062 47.875C160.062 48.1957 159.966 48.4938 159.8 48.7419C159.52 49.1613 159.042 49.4375 158.5 49.4375C157.958 49.4375 157.48 49.1613 157.2 48.7419C157.034 48.4938 156.938 48.1957 156.938 47.875C156.938 47.5543 157.034 47.2563 157.2 47.0082C157.48 46.5888 157.958 46.3125 158.5 46.3125Z" fill="#3C46C9"/>
<path d="M162.25 39.75V41M154.75 39.75V41" stroke="#3C46C9" stroke-width="1.25" stroke-linecap="round" stroke-linejoin="round"/>
<path d="M152.875 43.5H164.125" stroke="#3C46C9" stroke-width="1.25" stroke-linecap="round" stroke-linejoin="round"/>
<path d="M152.562 46.152C152.562 43.4287 152.562 42.0671 153.345 41.221C154.128 40.375 155.387 40.375 157.906 40.375H159.094C161.613 40.375 162.872 40.375 163.655 41.221C164.438 42.0671 164.438 43.4287 164.438 46.152V46.473C164.438 49.1963 164.438 50.5579 163.655 51.404C162.872 52.25 161.613 52.25 159.094 52.25H157.906C155.387 52.25 154.128 52.25 153.345 51.404C152.562 50.5579 152.562 49.1963 152.562 46.473V46.152Z" stroke="#3C46C9" stroke-width="1.25" stroke-linecap="round" stroke-linejoin="round"/>
<path d="M158.5 49.4375V50.0625M158.5 49.4375C157.958 49.4375 157.48 49.1613 157.2 48.7419M158.5 49.4375C159.042 49.4375 159.52 49.1613 159.8 48.7419M157.2 48.7419L156.625 49.125M157.2 48.7419C157.034 48.4938 156.938 48.1957 156.938 47.875C156.938 47.5543 157.034 47.2563 157.2 47.0082M159.8 48.7419L160.375 49.125M159.8 48.7419C159.966 48.4938 160.062 48.1957 160.062 47.875C160.062 47.5543 159.966 47.2563 159.8 47.0082M158.5 46.3125C159.042 46.3125 159.52 46.5888 159.8 47.0082M158.5 46.3125C157.958 46.3125 157.48 46.5888 157.2 47.0082M158.5 46.3125V45.6875M159.8 47.0082L160.375 46.625M157.2 47.0082L156.625 46.625" stroke="#3C46C9" stroke-width="1.25" stroke-linecap="round"/>
<path d="M176.502 51.6392C175.786 51.6392 175.15 51.5166 174.593 51.2713C174.04 51.026 173.602 50.6847 173.281 50.2472C172.959 49.8097 172.789 49.3042 172.769 48.7308H174.638C174.655 49.0059 174.746 49.2462 174.911 49.4517C175.077 49.6539 175.298 49.8113 175.573 49.924C175.848 50.0367 176.156 50.093 176.497 50.093C176.862 50.093 177.185 50.0301 177.467 49.9041C177.749 49.7749 177.969 49.5959 178.128 49.3672C178.287 49.1385 178.365 48.875 178.362 48.5767C178.365 48.2685 178.286 47.9967 178.123 47.7614C177.961 47.526 177.725 47.3421 177.417 47.2095C177.112 47.0769 176.744 47.0107 176.313 47.0107H175.414V45.5888H176.313C176.668 45.5888 176.978 45.5275 177.243 45.4048C177.512 45.2822 177.722 45.1098 177.875 44.8878C178.027 44.6624 178.102 44.4022 178.098 44.1072C178.102 43.8189 178.037 43.5687 177.904 43.3565C177.775 43.1411 177.591 42.9737 177.353 42.8544C177.117 42.7351 176.84 42.6754 176.522 42.6754C176.211 42.6754 175.922 42.7318 175.657 42.8445C175.392 42.9571 175.178 43.1179 175.016 43.3267C174.853 43.5322 174.767 43.7775 174.757 44.0625H172.983C172.996 43.4924 173.16 42.992 173.475 42.5611C173.793 42.1269 174.217 41.7888 174.747 41.5469C175.278 41.3016 175.873 41.179 176.532 41.179C177.212 41.179 177.802 41.3066 178.302 41.5618C178.806 41.8137 179.195 42.1534 179.47 42.581C179.746 43.0085 179.883 43.4808 179.883 43.9979C179.886 44.5713 179.717 45.0518 179.376 45.4396C179.038 45.8274 178.594 46.081 178.044 46.2003V46.2798C178.759 46.3793 179.308 46.6444 179.689 47.0753C180.074 47.5028 180.264 48.0348 180.261 48.6712C180.261 49.2412 180.099 49.7517 179.774 50.2024C179.452 50.6499 179.008 51.0012 178.441 51.2564C177.878 51.5116 177.232 51.6392 176.502 51.6392ZM182.585 51.6094C182.284 51.6094 182.025 51.5033 181.81 51.2912C181.594 51.0791 181.488 50.8205 181.491 50.5156C181.488 50.2173 181.594 49.9621 181.81 49.75C182.025 49.5379 182.284 49.4318 182.585 49.4318C182.877 49.4318 183.13 49.5379 183.346 49.75C183.565 49.9621 183.676 50.2173 183.679 50.5156C183.676 50.7178 183.623 50.9018 183.52 51.0675C183.42 51.2332 183.288 51.3658 183.122 51.4652C182.96 51.5613 182.781 51.6094 182.585 51.6094ZM188.674 51.6939C187.856 51.6939 187.153 51.4867 186.566 51.0724C185.983 50.6548 185.534 50.0533 185.219 49.2678C184.907 48.4789 184.752 47.5294 184.752 46.419C184.755 45.3087 184.912 44.3641 185.224 43.5852C185.539 42.803 185.988 42.2064 186.571 41.7955C187.158 41.3845 187.859 41.179 188.674 41.179C189.49 41.179 190.191 41.3845 190.777 41.7955C191.364 42.2064 191.813 42.803 192.124 43.5852C192.439 44.3674 192.597 45.312 192.597 46.419C192.597 47.5327 192.439 48.4839 192.124 49.2727C191.813 50.0582 191.364 50.6581 190.777 51.0724C190.194 51.4867 189.493 51.6939 188.674 51.6939ZM188.674 50.1378C189.311 50.1378 189.813 49.8246 190.181 49.1982C190.552 48.5684 190.737 47.642 190.737 46.419C190.737 45.6103 190.653 44.9309 190.484 44.3807C190.315 43.8305 190.076 43.4162 189.768 43.1378C189.46 42.8561 189.095 42.7152 188.674 42.7152C188.041 42.7152 187.541 43.0301 187.173 43.6598C186.805 44.2862 186.619 45.206 186.616 46.419C186.613 47.2311 186.694 47.9138 186.86 48.4673C187.029 49.0208 187.267 49.4384 187.575 49.7202C187.884 49.9986 188.25 50.1378 188.674 50.1378ZM194.771 51.6094C194.469 51.6094 194.211 51.5033 193.995 51.2912C193.78 51.0791 193.674 50.8205 193.677 50.5156C193.674 50.2173 193.78 49.9621 193.995 49.75C194.211 49.5379 194.469 49.4318 194.771 49.4318C195.062 49.4318 195.316 49.5379 195.531 49.75C195.75 49.9621 195.861 50.2173 195.864 50.5156C195.861 50.7178 195.808 50.9018 195.705 51.0675C195.606 51.2332 195.473 51.3658 195.308 51.4652C195.145 51.5613 194.966 51.6094 194.771 51.6094ZM200.376 41.3182V51.5H198.532V43.1129H198.472L196.091 44.6342V42.9439L198.621 41.3182H200.376Z" fill="#F1EFEF"/>
<path d="M207.969 50.5H205.5V42.5H208.078C208.854 42.5 209.518 42.6602 210.07 42.9805C210.622 43.2982 211.045 43.7552 211.34 44.3516C211.634 44.9453 211.781 45.6562 211.781 46.4844C211.781 47.3177 211.633 48.0352 211.336 48.6367C211.039 49.2357 210.607 49.6966 210.039 50.0195C209.471 50.3398 208.781 50.5 207.969 50.5ZM206.469 49.6406H207.906C208.567 49.6406 209.116 49.513 209.551 49.2578C209.985 49.0026 210.31 48.6393 210.523 48.168C210.737 47.6966 210.844 47.1354 210.844 46.4844C210.844 45.8385 210.738 45.2826 210.527 44.8164C210.316 44.3477 210.001 43.9883 209.582 43.7383C209.163 43.4857 208.64 43.3594 208.015 43.3594H206.469V49.6406ZM215.632 50.625C215.054 50.625 214.555 50.4974 214.136 50.2422C213.719 49.9844 213.397 49.625 213.171 49.1641C212.947 48.7005 212.835 48.1615 212.835 47.5469C212.835 46.9323 212.947 46.3906 213.171 45.9219C213.397 45.4505 213.712 45.0833 214.116 44.8203C214.522 44.5547 214.996 44.4219 215.538 44.4219C215.85 44.4219 216.159 44.474 216.464 44.5781C216.768 44.6823 217.046 44.8516 217.296 45.0859C217.546 45.3177 217.745 45.625 217.893 46.0078C218.042 46.3906 218.116 46.862 218.116 47.4219V47.8125H213.491V47.0156H217.179C217.179 46.6771 217.111 46.375 216.975 46.1094C216.843 45.8437 216.652 45.6341 216.405 45.4805C216.16 45.3268 215.871 45.25 215.538 45.25C215.171 45.25 214.853 45.3411 214.585 45.5234C214.319 45.7031 214.115 45.9375 213.971 46.2266C213.828 46.5156 213.757 46.8255 213.757 47.1562V47.6875C213.757 48.1406 213.835 48.5247 213.991 48.8398C214.15 49.1523 214.37 49.3906 214.651 49.5547C214.932 49.7161 215.259 49.7969 215.632 49.7969C215.874 49.7969 216.093 49.763 216.288 49.6953C216.486 49.625 216.656 49.5208 216.8 49.3828C216.943 49.2422 217.054 49.0677 217.132 48.8594L218.022 49.1094C217.929 49.4115 217.771 49.6771 217.55 49.9062C217.328 50.1328 217.055 50.3099 216.729 50.4375C216.404 50.5625 216.038 50.625 215.632 50.625ZM221.791 50.625C221.228 50.625 220.744 50.4922 220.338 50.2266C219.931 49.9609 219.619 49.5951 219.4 49.1289C219.181 48.6628 219.072 48.1302 219.072 47.5312C219.072 46.9219 219.184 46.3841 219.408 45.918C219.635 45.4492 219.95 45.0833 220.353 44.8203C220.76 44.5547 221.234 44.4219 221.775 44.4219C222.197 44.4219 222.577 44.5 222.916 44.6562C223.254 44.8125 223.532 45.0312 223.748 45.3125C223.964 45.5937 224.098 45.9219 224.15 46.2969H223.228C223.158 46.0234 223.002 45.7812 222.76 45.5703C222.52 45.3568 222.197 45.25 221.791 45.25C221.431 45.25 221.116 45.3437 220.846 45.5312C220.577 45.7161 220.368 45.9779 220.217 46.3164C220.068 46.6523 219.994 47.0469 219.994 47.5C219.994 47.9635 220.067 48.3672 220.213 48.7109C220.361 49.0547 220.57 49.3216 220.838 49.5117C221.109 49.7018 221.426 49.7969 221.791 49.7969C222.03 49.7969 222.248 49.7552 222.443 49.6719C222.639 49.5885 222.804 49.4688 222.939 49.3125C223.075 49.1562 223.171 48.9687 223.228 48.75H224.15C224.098 49.1042 223.969 49.4232 223.764 49.707C223.56 49.9883 223.291 50.2122 222.955 50.3789C222.622 50.543 222.234 50.625 221.791 50.625ZM227.849 50.625C227.27 50.625 226.772 50.4974 226.352 50.2422C225.936 49.9844 225.614 49.625 225.388 49.1641C225.164 48.7005 225.052 48.1615 225.052 47.5469C225.052 46.9323 225.164 46.3906 225.388 45.9219C225.614 45.4505 225.929 45.0833 226.333 44.8203C226.739 44.5547 227.213 44.4219 227.755 44.4219C228.067 44.4219 228.376 44.474 228.681 44.5781C228.985 44.6823 229.263 44.8516 229.513 45.0859C229.763 45.3177 229.962 45.625 230.11 46.0078C230.259 46.3906 230.333 46.862 230.333 47.4219V47.8125H225.708V47.0156H229.395C229.395 46.6771 229.328 46.375 229.192 46.1094C229.059 45.8437 228.869 45.6341 228.622 45.4805C228.377 45.3268 228.088 45.25 227.755 45.25C227.388 45.25 227.07 45.3411 226.802 45.5234C226.536 45.7031 226.332 45.9375 226.188 46.2266C226.045 46.5156 225.974 46.8255 225.974 47.1562V47.6875C225.974 48.1406 226.052 48.5247 226.208 48.8398C226.367 49.1523 226.587 49.3906 226.868 49.5547C227.149 49.7161 227.476 49.7969 227.849 49.7969C228.091 49.7969 228.309 49.763 228.505 49.6953C228.703 49.625 228.873 49.5208 229.016 49.3828C229.16 49.2422 229.27 49.0677 229.349 48.8594L230.239 49.1094C230.145 49.4115 229.988 49.6771 229.766 49.9062C229.545 50.1328 229.272 50.3099 228.946 50.4375C228.621 50.5625 228.255 50.625 227.849 50.625ZM231.57 50.5V44.5H232.461V45.4375H232.539C232.664 45.1172 232.866 44.8685 233.144 44.6914C233.423 44.5117 233.758 44.4219 234.148 44.4219C234.544 44.4219 234.874 44.5117 235.137 44.6914C235.402 44.8685 235.609 45.1172 235.758 45.4375H235.82C235.974 45.1276 236.204 44.8815 236.512 44.6992C236.819 44.5143 237.187 44.4219 237.617 44.4219C238.154 44.4219 238.592 44.5898 238.934 44.9258C239.275 45.2591 239.445 45.7786 239.445 46.4844V50.5H238.523V46.4844C238.523 46.0417 238.402 45.7253 238.16 45.5352C237.918 45.3451 237.633 45.25 237.305 45.25C236.883 45.25 236.556 45.3776 236.324 45.6328C236.092 45.8854 235.976 46.2057 235.976 46.5937V50.5H235.039V46.3906C235.039 46.0495 234.928 45.7747 234.707 45.5664C234.486 45.3555 234.2 45.25 233.851 45.25C233.612 45.25 233.388 45.3138 233.18 45.4414C232.974 45.569 232.807 45.7461 232.68 45.9727C232.555 46.1966 232.492 46.4557 232.492 46.75V50.5H231.57ZM241.091 50.5V42.5H242.013V45.4531H242.091C242.158 45.349 242.252 45.2161 242.372 45.0547C242.494 44.8906 242.669 44.7448 242.895 44.6172C243.125 44.487 243.435 44.4219 243.825 44.4219C244.33 44.4219 244.776 44.5482 245.161 44.8008C245.547 45.0534 245.847 45.4115 246.063 45.875C246.28 46.3385 246.388 46.8854 246.388 47.5156C246.388 48.151 246.28 48.7018 246.063 49.168C245.847 49.6315 245.548 49.9909 245.165 50.2461C244.782 50.4987 244.341 50.625 243.841 50.625C243.455 50.625 243.147 50.5612 242.915 50.4336C242.683 50.3034 242.505 50.1562 242.38 49.9922C242.255 49.8255 242.158 49.6875 242.091 49.5781H241.981V50.5H241.091ZM241.997 47.5C241.997 47.9531 242.063 48.3529 242.196 48.6992C242.329 49.043 242.523 49.3125 242.778 49.5078C243.033 49.7005 243.346 49.7969 243.716 49.7969C244.101 49.7969 244.423 49.6953 244.681 49.4922C244.941 49.2865 245.136 49.0104 245.267 48.6641C245.399 48.3151 245.466 47.9271 245.466 47.5C245.466 47.0781 245.401 46.6979 245.27 46.3594C245.143 46.0182 244.949 45.7487 244.688 45.5508C244.431 45.3503 244.106 45.25 243.716 45.25C243.341 45.25 243.026 45.3451 242.77 45.5352C242.515 45.7227 242.323 45.9857 242.192 46.3242C242.062 46.6602 241.997 47.0521 241.997 47.5ZM250.148 50.625C249.57 50.625 249.072 50.4974 248.652 50.2422C248.236 49.9844 247.914 49.625 247.688 49.1641C247.464 48.7005 247.352 48.1615 247.352 47.5469C247.352 46.9323 247.464 46.3906 247.688 45.9219C247.914 45.4505 248.229 45.0833 248.633 44.8203C249.039 44.5547 249.513 44.4219 250.055 44.4219C250.367 44.4219 250.676 44.474 250.98 44.5781C251.285 44.6823 251.563 44.8516 251.813 45.0859C252.063 45.3177 252.262 45.625 252.41 46.0078C252.559 46.3906 252.633 46.862 252.633 47.4219V47.8125H248.008V47.0156H251.695C251.695 46.6771 251.628 46.375 251.492 46.1094C251.359 45.8437 251.169 45.6341 250.922 45.4805C250.677 45.3268 250.388 45.25 250.055 45.25C249.688 45.25 249.37 45.3411 249.102 45.5234C248.836 45.7031 248.632 45.9375 248.488 46.2266C248.345 46.5156 248.273 46.8255 248.273 47.1562V47.6875C248.273 48.1406 248.352 48.5247 248.508 48.8398C248.667 49.1523 248.887 49.3906 249.168 49.5547C249.449 49.7161 249.776 49.7969 250.148 49.7969C250.391 49.7969 250.609 49.763 250.805 49.6953C251.003 49.625 251.173 49.5208 251.316 49.3828C251.46 49.2422 251.57 49.0677 251.648 48.8594L252.539 49.1094C252.445 49.4115 252.288 49.6771 252.066 49.9062C251.845 50.1328 251.572 50.3099 251.246 50.4375C250.921 50.5625 250.555 50.625 250.148 50.625ZM253.87 50.5V44.5H254.761V45.4062H254.823C254.933 45.1094 255.131 44.8685 255.417 44.6836C255.703 44.4987 256.026 44.4062 256.386 44.4062C256.453 44.4062 256.538 44.4076 256.64 44.4102C256.741 44.4128 256.818 44.4167 256.87 44.4219V45.3594C256.839 45.3516 256.767 45.3398 256.655 45.3242C256.546 45.306 256.43 45.2969 256.308 45.2969C256.016 45.2969 255.756 45.3581 255.526 45.4805C255.3 45.6003 255.12 45.7669 254.987 45.9805C254.857 46.1914 254.792 46.4323 254.792 46.7031V50.5H253.87ZM260.711 50.5V49.7969L263.352 46.9062C263.662 46.5677 263.917 46.2734 264.117 46.0234C264.318 45.7708 264.466 45.5339 264.563 45.3125C264.662 45.0885 264.711 44.8542 264.711 44.6094C264.711 44.3281 264.643 44.0846 264.508 43.8789C264.375 43.6732 264.193 43.5143 263.961 43.4023C263.729 43.2904 263.469 43.2344 263.18 43.2344C262.873 43.2344 262.604 43.2982 262.375 43.4258C262.149 43.5508 261.973 43.7266 261.848 43.9531C261.725 44.1797 261.664 44.4453 261.664 44.75H260.742C260.742 44.2812 260.85 43.8698 261.067 43.5156C261.283 43.1615 261.577 42.8854 261.949 42.6875C262.324 42.4896 262.745 42.3906 263.211 42.3906C263.68 42.3906 264.095 42.4896 264.457 42.6875C264.819 42.8854 265.103 43.1523 265.309 43.4883C265.514 43.8242 265.617 44.1979 265.617 44.6094C265.617 44.9036 265.564 45.1914 265.457 45.4727C265.353 45.7513 265.171 46.0625 264.91 46.4062C264.652 46.7474 264.294 47.1641 263.836 47.6562L262.039 49.5781V49.6406H265.758V50.5H260.711ZM269.816 50.6094C269.227 50.6094 268.726 50.4492 268.312 50.1289C267.898 49.806 267.581 49.3385 267.362 48.7266C267.144 48.112 267.034 47.3698 267.034 46.5C267.034 45.6354 267.144 44.8971 267.362 44.2852C267.584 43.6706 267.902 43.2018 268.316 42.8789C268.732 42.5534 269.232 42.3906 269.816 42.3906C270.399 42.3906 270.898 42.5534 271.312 42.8789C271.728 43.2018 272.046 43.6706 272.265 44.2852C272.486 44.8971 272.597 45.6354 272.597 46.5C272.597 47.3698 272.487 48.112 272.269 48.7266C272.05 49.3385 271.734 49.806 271.319 50.1289C270.905 50.4492 270.404 50.6094 269.816 50.6094ZM269.816 49.75C270.399 49.75 270.852 49.4687 271.175 48.9062C271.498 48.3437 271.659 47.5417 271.659 46.5C271.659 45.8073 271.585 45.2174 271.437 44.7305C271.291 44.2435 271.08 43.8724 270.804 43.6172C270.53 43.362 270.201 43.2344 269.816 43.2344C269.237 43.2344 268.786 43.5195 268.46 44.0898C268.135 44.6576 267.972 45.4609 267.972 46.5C267.972 47.1927 268.045 47.7812 268.191 48.2656C268.336 48.75 268.546 49.1185 268.819 49.3711C269.096 49.6237 269.428 49.75 269.816 49.75ZM273.916 50.5V49.7969L276.557 46.9062C276.867 46.5677 277.122 46.2734 277.322 46.0234C277.523 45.7708 277.671 45.5339 277.768 45.3125C277.867 45.0885 277.916 44.8542 277.916 44.6094C277.916 44.3281 277.849 44.0846 277.713 43.8789C277.58 43.6732 277.398 43.5143 277.166 43.4023C276.934 43.2904 276.674 43.2344 276.385 43.2344C276.078 43.2344 275.809 43.2982 275.58 43.4258C275.354 43.5508 275.178 43.7266 275.053 43.9531C274.931 44.1797 274.869 44.4453 274.869 44.75H273.947C273.947 44.2812 274.056 43.8698 274.272 43.5156C274.488 43.1615 274.782 42.8854 275.154 42.6875C275.529 42.4896 275.95 42.3906 276.416 42.3906C276.885 42.3906 277.3 42.4896 277.662 42.6875C278.024 42.8854 278.308 43.1523 278.514 43.4883C278.72 43.8242 278.822 44.1979 278.822 44.6094C278.822 44.9036 278.769 45.1914 278.662 45.4727C278.558 45.7513 278.376 46.0625 278.115 46.4062C277.858 46.7474 277.5 47.1641 277.041 47.6562L275.244 49.5781V49.6406H278.963V50.5H273.916ZM280.052 48.8594V48.0625L283.568 42.5H284.146V43.7344H283.755L281.099 47.9375V48H285.833V48.8594H280.052ZM283.818 50.5V48.6172V48.2461V42.5H284.739V50.5H283.818Z" fill="#C6C6C8"/>
<rect x="296.5" y="32" width="164" height="28" rx="6" fill="#3C46C9"/>
<rect x="302.5" y="37" width="18" height="18" rx="3.5" fill="#F1EFEF"/>
<path d="M311.5 52.25H310.562C308.205 52.25 307.027 52.25 306.295 51.5177C305.562 50.7855 305.562 49.607 305.563 47.2499L305.563 44.75C305.563 42.393 305.563 41.2145 306.295 40.4822C307.027 39.75 308.206 39.75 310.562 39.75H311.187C313.544 39.75 314.723 39.75 315.455 40.4822C316.187 41.2145 316.187 42.393 316.187 44.75V45.375" stroke="#3C46C9" stroke-width="1.25" stroke-linecap="round" stroke-linejoin="round"/>
<path d="M308.375 42.875H313.375M308.375 46H311.188" stroke="#3C46C9" stroke-width="1.25" stroke-linecap="round" stroke-linejoin="round"/>
<path d="M314.938 51.4829C316.042 51.4829 316.938 50.5672 316.938 49.4375C316.938 48.3078 316.042 47.3921 314.938 47.3921M314.938 51.4829C313.833 51.4829 312.938 50.5672 312.938 49.4375C312.938 48.3078 313.833 47.3921 314.938 47.3921M314.938 51.4829V52.25M314.938 47.3921V46.625M313.12 48.3218L312.438 47.9034M317.438 50.9716L316.756 50.5532M316.755 48.3218L317.437 47.9034M312.438 50.9716L313.119 50.5532" stroke="#3C46C9" stroke-width="1.25" stroke-linecap="round"/>
<path opacity="0.4" d="M316.187 44.75V47.25C316.187 47.4552 316.187 47.6516 316.187 47.8394C315.845 47.5592 315.41 47.3916 314.938 47.3916C313.833 47.3916 312.938 48.3074 312.938 49.4371C312.938 50.5667 313.833 51.4825 314.938 51.4825C315.165 51.4825 315.383 51.4439 315.586 51.3727C315.545 51.423 315.502 51.4713 315.455 51.5177C314.723 52.25 313.544 52.25 311.187 52.25H310.562C308.205 52.25 307.027 52.25 306.295 51.5177C305.562 50.7855 305.562 49.607 305.563 47.2499L305.563 44.75C305.563 42.393 305.563 41.2145 306.295 40.4822C307.027 39.75 308.206 39.75 310.562 39.75H311.187C313.544 39.75 314.723 39.75 315.455 40.4822C316.187 41.2145 316.187 42.393 316.187 44.75Z" fill="#3C46C9"/>
<path d="M327.097 51.5H325.128L328.713 41.3182H330.99L334.579 51.5H332.61L329.891 43.4062H329.811L327.097 51.5ZM327.161 47.5078H332.531V48.9893H327.161V47.5078ZM335.631 54.3636V43.8636H337.4V45.1264H337.505C337.598 44.9408 337.729 44.7436 337.898 44.5348C338.067 44.3227 338.295 44.142 338.584 43.9929C338.872 43.8404 339.24 43.7642 339.687 43.7642C340.277 43.7642 340.809 43.915 341.283 44.2166C341.761 44.5149 342.138 44.9574 342.417 45.544C342.699 46.1274 342.839 46.8433 342.839 47.6918C342.839 48.5303 342.702 49.2429 342.427 49.8295C342.152 50.4162 341.777 50.8636 341.303 51.1719C340.829 51.4801 340.292 51.6342 339.692 51.6342C339.255 51.6342 338.892 51.5613 338.604 51.4155C338.315 51.2696 338.083 51.094 337.908 50.8885C337.735 50.6797 337.601 50.4825 337.505 50.2969H337.43V54.3636H335.631ZM337.395 47.6818C337.395 48.1757 337.465 48.6082 337.604 48.9794C337.747 49.3506 337.951 49.6406 338.216 49.8494C338.484 50.0549 338.809 50.1577 339.19 50.1577C339.588 50.1577 339.921 50.0516 340.19 49.8395C340.458 49.6241 340.66 49.3307 340.796 48.9595C340.935 48.585 341.005 48.1591 341.005 47.6818C341.005 47.2079 340.937 46.7869 340.801 46.419C340.665 46.0511 340.463 45.7628 340.194 45.554C339.926 45.3452 339.591 45.2408 339.19 45.2408C338.806 45.2408 338.479 45.3419 338.211 45.544C337.942 45.7462 337.739 46.0296 337.599 46.3942C337.463 46.7588 337.395 47.188 337.395 47.6818ZM346.368 51.6541C345.884 51.6541 345.448 51.5679 345.06 51.3956C344.676 51.2199 344.371 50.9614 344.146 50.62C343.924 50.2786 343.813 49.8577 343.813 49.3572C343.813 48.9264 343.892 48.5701 344.051 48.2884C344.21 48.0066 344.427 47.7812 344.703 47.6122C344.978 47.4432 345.288 47.3156 345.632 47.2294C345.98 47.1399 346.34 47.0753 346.711 47.0355C347.159 46.9891 347.521 46.9477 347.8 46.9112C348.078 46.8714 348.28 46.8118 348.406 46.7322C348.536 46.6494 348.6 46.5218 348.6 46.3494V46.3196C348.6 45.9451 348.489 45.6551 348.267 45.4496C348.045 45.2441 347.725 45.1413 347.308 45.1413C346.867 45.1413 346.517 45.2375 346.259 45.4297C346.003 45.6219 345.831 45.849 345.742 46.1108L344.061 45.8722C344.194 45.4081 344.413 45.0204 344.717 44.7088C345.022 44.3939 345.395 44.1586 345.836 44.0028C346.277 43.8438 346.764 43.7642 347.298 43.7642C347.666 43.7642 348.032 43.8073 348.396 43.8935C348.761 43.9796 349.094 44.1222 349.396 44.321C349.697 44.5166 349.939 44.7834 350.122 45.1214C350.307 45.4595 350.4 45.8821 350.4 46.3892V51.5H348.67V50.451H348.61C348.501 50.6631 348.347 50.862 348.148 51.0476C347.952 51.2299 347.705 51.3774 347.407 51.4901C347.112 51.5994 346.766 51.6541 346.368 51.6541ZM346.835 50.3317C347.197 50.3317 347.51 50.2604 347.775 50.1179C348.04 49.9721 348.244 49.7798 348.386 49.5412C348.532 49.3026 348.605 49.0424 348.605 48.7607V47.8608C348.549 47.9072 348.453 47.9503 348.317 47.9901C348.184 48.0298 348.035 48.0646 347.869 48.0945C347.704 48.1243 347.54 48.1508 347.377 48.174C347.215 48.1972 347.074 48.2171 346.955 48.2337C346.686 48.2701 346.446 48.3298 346.234 48.4126C346.022 48.4955 345.854 48.6115 345.732 48.7607C345.609 48.9065 345.548 49.0954 345.548 49.3274C345.548 49.6589 345.669 49.9091 345.911 50.0781C346.153 50.2472 346.461 50.3317 346.835 50.3317ZM355.331 51.6491C354.568 51.6491 353.914 51.4818 353.367 51.147C352.823 50.8123 352.404 50.3499 352.109 49.7599C351.817 49.1667 351.672 48.4839 351.672 47.7116C351.672 46.9361 351.821 46.2517 352.119 45.6584C352.417 45.0618 352.838 44.5978 353.382 44.2663C353.929 43.9316 354.575 43.7642 355.321 43.7642C355.94 43.7642 356.489 43.8786 356.966 44.1072C357.447 44.3326 357.83 44.6525 358.115 45.0668C358.4 45.4777 358.562 45.9583 358.602 46.5085H356.882C356.812 46.1406 356.646 45.834 356.385 45.5888C356.126 45.3402 355.78 45.2159 355.346 45.2159C354.978 45.2159 354.654 45.3153 354.376 45.5142C354.098 45.7098 353.881 45.9915 353.725 46.3594C353.572 46.7273 353.496 47.1681 353.496 47.6818C353.496 48.2022 353.572 48.6496 353.725 49.0241C353.877 49.3954 354.091 49.6821 354.366 49.8842C354.645 50.0831 354.971 50.1825 355.346 50.1825C355.611 50.1825 355.848 50.1328 356.056 50.0334C356.269 49.9306 356.446 49.7831 356.588 49.5909C356.731 49.3987 356.829 49.165 356.882 48.8899H358.602C358.559 49.4302 358.4 49.9091 358.125 50.3267C357.85 50.741 357.475 51.0658 357.001 51.3011C356.527 51.5331 355.97 51.6491 355.331 51.6491ZM361.669 47.0256V51.5H359.87V41.3182H361.63V45.1612H361.719C361.898 44.7304 362.175 44.3906 362.549 44.142C362.927 43.8902 363.408 43.7642 363.991 43.7642C364.521 43.7642 364.984 43.8752 365.378 44.0973C365.773 44.3194 366.078 44.6442 366.293 45.0717C366.512 45.4993 366.621 46.0213 366.621 46.6378V51.5H364.821V46.9162C364.821 46.4025 364.689 46.0031 364.424 45.718C364.162 45.4297 363.794 45.2855 363.32 45.2855C363.002 45.2855 362.717 45.3551 362.465 45.4943C362.216 45.6302 362.021 45.8274 361.878 46.0859C361.739 46.3445 361.669 46.6577 361.669 47.0256ZM371.626 51.6491C370.861 51.6491 370.199 51.4901 369.643 51.1719C369.089 50.8504 368.663 50.3963 368.365 49.8097C368.067 49.2197 367.918 48.5253 367.918 47.7266C367.918 46.9411 368.067 46.2517 368.365 45.6584C368.667 45.0618 369.088 44.5978 369.628 44.2663C370.168 43.9316 370.803 43.7642 371.532 43.7642C372.003 43.7642 372.447 43.8404 372.864 43.9929C373.285 44.142 373.656 44.3741 373.978 44.6889C374.303 45.0038 374.558 45.4048 374.744 45.892C374.929 46.3759 375.022 46.9527 375.022 47.6222V48.174H368.763V46.9609H373.297C373.293 46.6162 373.219 46.3097 373.073 46.0412C372.927 45.7694 372.723 45.5556 372.462 45.3999C372.203 45.2441 371.901 45.1662 371.557 45.1662C371.189 45.1662 370.866 45.2557 370.587 45.4347C370.309 45.6103 370.092 45.8423 369.936 46.1307C369.784 46.4157 369.706 46.7289 369.702 47.0703V48.1293C369.702 48.5734 369.784 48.9545 369.946 49.2727C370.108 49.5876 370.335 49.8295 370.627 49.9986C370.919 50.1643 371.26 50.2472 371.651 50.2472C371.913 50.2472 372.15 50.2107 372.362 50.1378C372.574 50.0616 372.758 49.9505 372.914 49.8047C373.07 49.6589 373.187 49.4782 373.267 49.2628L374.947 49.4517C374.841 49.8958 374.639 50.2836 374.341 50.6151C374.046 50.9432 373.668 51.1984 373.207 51.3807C372.747 51.5597 372.22 51.6491 371.626 51.6491ZM379.577 51.5V50.1676L383.112 46.7024C383.45 46.361 383.732 46.0578 383.957 45.7926C384.183 45.5275 384.352 45.2706 384.464 45.022C384.577 44.7734 384.633 44.5083 384.633 44.2266C384.633 43.9051 384.56 43.63 384.415 43.4013C384.269 43.1693 384.068 42.9903 383.813 42.8643C383.558 42.7384 383.268 42.6754 382.943 42.6754C382.608 42.6754 382.315 42.745 382.063 42.8842C381.811 43.0201 381.616 43.214 381.476 43.4659C381.341 43.7178 381.273 44.0178 381.273 44.3658H379.518C379.518 43.7195 379.665 43.1577 379.96 42.6804C380.255 42.2031 380.661 41.8336 381.178 41.5717C381.698 41.3099 382.295 41.179 382.968 41.179C383.651 41.179 384.251 41.3066 384.768 41.5618C385.285 41.817 385.686 42.1667 385.971 42.6108C386.259 43.0549 386.403 43.562 386.403 44.1321C386.403 44.5133 386.33 44.8878 386.184 45.2557C386.039 45.6236 385.782 46.0312 385.414 46.4787C385.049 46.9261 384.537 47.468 383.878 48.1044L382.123 49.8892V49.9588H386.557V51.5H379.577ZM389.191 51.6094C388.89 51.6094 388.631 51.5033 388.416 51.2912C388.2 51.0791 388.094 50.8205 388.097 50.5156C388.094 50.2173 388.2 49.9621 388.416 49.75C388.631 49.5379 388.89 49.4318 389.191 49.4318C389.483 49.4318 389.736 49.5379 389.952 49.75C390.171 49.9621 390.282 50.2173 390.285 50.5156C390.282 50.7178 390.229 50.9018 390.126 51.0675C390.026 51.2332 389.894 51.3658 389.728 51.4652C389.566 51.5613 389.387 51.6094 389.191 51.6094ZM395.28 51.6939C394.461 51.6939 393.759 51.4867 393.172 51.0724C392.589 50.6548 392.14 50.0533 391.825 49.2678C391.513 48.4789 391.358 47.5294 391.358 46.419C391.361 45.3087 391.518 44.3641 391.83 43.5852C392.145 42.803 392.594 42.2064 393.177 41.7955C393.764 41.3845 394.465 41.179 395.28 41.179C396.095 41.179 396.796 41.3845 397.383 41.7955C397.97 42.2064 398.419 42.803 398.73 43.5852C399.045 44.3674 399.203 45.312 399.203 46.419C399.203 47.5327 399.045 48.4839 398.73 49.2727C398.419 50.0582 397.97 50.6581 397.383 51.0724C396.8 51.4867 396.099 51.6939 395.28 51.6939ZM395.28 50.1378C395.916 50.1378 396.419 49.8246 396.787 49.1982C397.158 48.5684 397.343 47.642 397.343 46.419C397.343 45.6103 397.259 44.9309 397.09 44.3807C396.921 43.8305 396.682 43.4162 396.374 43.1378C396.066 42.8561 395.701 42.7152 395.28 42.7152C394.647 42.7152 394.147 43.0301 393.779 43.6598C393.411 44.2862 393.225 45.206 393.222 46.419C393.219 47.2311 393.3 47.9138 393.465 48.4673C393.635 49.0208 393.873 49.4384 394.181 49.7202C394.49 49.9986 394.856 50.1378 395.28 50.1378ZM404.007 51.5V41.3182H405.851V49.9538H410.335V51.5H404.007ZM411.647 51.5V43.8636H413.446V51.5H411.647ZM412.552 42.7798C412.267 42.7798 412.021 42.6854 411.816 42.4964C411.61 42.3042 411.508 42.0739 411.508 41.8054C411.508 41.5336 411.61 41.3033 411.816 41.1143C412.021 40.9221 412.267 40.826 412.552 40.826C412.84 40.826 413.085 40.9221 413.287 41.1143C413.493 41.3033 413.596 41.5336 413.596 41.8054C413.596 42.0739 413.493 42.3042 413.287 42.4964C413.085 42.6854 412.84 42.7798 412.552 42.7798ZM418.418 51.6491C417.656 51.6491 417.001 51.4818 416.454 51.147C415.911 50.8123 415.491 50.3499 415.197 49.7599C414.905 49.1667 414.759 48.4839 414.759 47.7116C414.759 46.9361 414.908 46.2517 415.206 45.6584C415.505 45.0618 415.926 44.5978 416.469 44.2663C417.016 43.9316 417.662 43.7642 418.408 43.7642C419.028 43.7642 419.576 43.8786 420.054 44.1072C420.534 44.3326 420.917 44.6525 421.202 45.0668C421.487 45.4777 421.65 45.9583 421.689 46.5085H419.969C419.9 46.1406 419.734 45.834 419.472 45.5888C419.214 45.3402 418.867 45.2159 418.433 45.2159C418.065 45.2159 417.742 45.3153 417.464 45.5142C417.185 45.7098 416.968 45.9915 416.812 46.3594C416.66 46.7273 416.584 47.1681 416.584 47.6818C416.584 48.2022 416.66 48.6496 416.812 49.0241C416.965 49.3954 417.179 49.6821 417.454 49.8842C417.732 50.0831 418.058 50.1825 418.433 50.1825C418.698 50.1825 418.935 50.1328 419.144 50.0334C419.356 49.9306 419.533 49.7831 419.676 49.5909C419.818 49.3987 419.916 49.165 419.969 48.8899H421.689C421.646 49.4302 421.487 49.9091 421.212 50.3267C420.937 50.741 420.563 51.0658 420.089 51.3011C419.615 51.5331 419.058 51.6491 418.418 51.6491ZM426.338 51.6491C425.572 51.6491 424.911 51.4901 424.354 51.1719C423.801 50.8504 423.375 50.3963 423.077 49.8097C422.778 49.2197 422.629 48.5253 422.629 47.7266C422.629 46.9411 422.778 46.2517 423.077 45.6584C423.378 45.0618 423.799 44.5978 424.339 44.2663C424.88 43.9316 425.514 43.7642 426.243 43.7642C426.714 43.7642 427.158 43.8404 427.576 43.9929C427.997 44.142 428.368 44.3741 428.689 44.6889C429.014 45.0038 429.269 45.4048 429.455 45.892C429.641 46.3759 429.733 46.9527 429.733 47.6222V48.174H423.474V46.9609H428.008C428.005 46.6162 427.93 46.3097 427.785 46.0412C427.639 45.7694 427.435 45.5556 427.173 45.3999C426.915 45.2441 426.613 45.1662 426.268 45.1662C425.9 45.1662 425.577 45.2557 425.299 45.4347C425.02 45.6103 424.803 45.8423 424.648 46.1307C424.495 46.4157 424.417 46.7289 424.414 47.0703V48.1293C424.414 48.5734 424.495 48.9545 424.658 49.2727C424.82 49.5876 425.047 49.8295 425.339 49.9986C425.63 50.1643 425.972 50.2472 426.363 50.2472C426.625 50.2472 426.862 50.2107 427.074 50.1378C427.286 50.0616 427.47 49.9505 427.626 49.8047C427.781 49.6589 427.899 49.4782 427.979 49.2628L429.659 49.4517C429.553 49.8958 429.351 50.2836 429.052 50.6151C428.757 50.9432 428.38 51.1984 427.919 51.3807C427.458 51.5597 426.931 51.6491 426.338 51.6491ZM432.846 47.0256V51.5H431.046V43.8636H432.766V45.1612H432.856C433.031 44.7337 433.311 44.3939 433.696 44.142C434.084 43.8902 434.563 43.7642 435.133 43.7642C435.66 43.7642 436.119 43.8769 436.51 44.1023C436.904 44.3277 437.209 44.6541 437.425 45.0817C437.643 45.5092 437.751 46.0279 437.748 46.6378V51.5H435.948V46.9162C435.948 46.4058 435.815 46.0064 435.55 45.718C435.288 45.4297 434.926 45.2855 434.462 45.2855C434.147 45.2855 433.867 45.3551 433.621 45.4943C433.379 45.6302 433.189 45.8274 433.05 46.0859C432.914 46.3445 432.846 46.6577 432.846 47.0256ZM445.403 45.8821L443.762 46.0611C443.716 45.8954 443.635 45.7396 443.519 45.5938C443.406 45.4479 443.253 45.3303 443.061 45.2408C442.869 45.1513 442.634 45.1065 442.355 45.1065C441.981 45.1065 441.666 45.1877 441.411 45.3501C441.159 45.5125 441.034 45.723 441.038 45.9815C441.034 46.2036 441.116 46.3842 441.281 46.5234C441.45 46.6626 441.729 46.777 442.117 46.8665L443.419 47.1449C444.142 47.3007 444.679 47.5476 445.03 47.8857C445.385 48.2237 445.564 48.6662 445.567 49.2131C445.564 49.6937 445.423 50.1179 445.144 50.4858C444.869 50.8504 444.486 51.1354 443.996 51.3409C443.505 51.5464 442.942 51.6491 442.306 51.6491C441.371 51.6491 440.618 51.4536 440.048 51.0625C439.478 50.6681 439.139 50.1196 439.029 49.4169L440.784 49.2479C440.864 49.5926 441.033 49.8527 441.291 50.0284C441.55 50.2041 441.886 50.2919 442.301 50.2919C442.728 50.2919 443.071 50.2041 443.33 50.0284C443.591 49.8527 443.722 49.6357 443.722 49.3771C443.722 49.1584 443.638 48.9777 443.469 48.8352C443.303 48.6927 443.045 48.5833 442.693 48.5071L441.391 48.2337C440.658 48.0812 440.116 47.8243 439.765 47.4631C439.414 47.0985 439.24 46.6378 439.243 46.081C439.24 45.6103 439.367 45.2027 439.626 44.858C439.888 44.5099 440.251 44.2415 440.715 44.0526C441.182 43.8603 441.721 43.7642 442.33 43.7642C443.225 43.7642 443.93 43.9548 444.443 44.3359C444.96 44.7171 445.28 45.2325 445.403 45.8821ZM450.222 51.6491C449.456 51.6491 448.795 51.4901 448.238 51.1719C447.684 50.8504 447.259 50.3963 446.96 49.8097C446.662 49.2197 446.513 48.5253 446.513 47.7266C446.513 46.9411 446.662 46.2517 446.96 45.6584C447.262 45.0618 447.683 44.5978 448.223 44.2663C448.763 43.9316 449.398 43.7642 450.127 43.7642C450.598 43.7642 451.042 43.8404 451.459 43.9929C451.88 44.142 452.252 44.3741 452.573 44.6889C452.898 45.0038 453.153 45.4048 453.339 45.892C453.524 46.3759 453.617 46.9527 453.617 47.6222V48.174H447.358V46.9609H451.892C451.889 46.6162 451.814 46.3097 451.668 46.0412C451.522 45.7694 451.319 45.5556 451.057 45.3999C450.798 45.2441 450.497 45.1662 450.152 45.1662C449.784 45.1662 449.461 45.2557 449.183 45.4347C448.904 45.6103 448.687 45.8423 448.531 46.1307C448.379 46.4157 448.301 46.7289 448.298 47.0703V48.1293C448.298 48.5734 448.379 48.9545 448.541 49.2727C448.704 49.5876 448.931 49.8295 449.222 49.9986C449.514 50.1643 449.855 50.2472 450.246 50.2472C450.508 50.2472 450.745 50.2107 450.957 50.1378C451.169 50.0616 451.353 49.9505 451.509 49.8047C451.665 49.6589 451.783 49.4782 451.862 49.2628L453.543 49.4517C453.437 49.8958 453.234 50.2836 452.936 50.6151C452.641 50.9432 452.263 51.1984 451.803 51.3807C451.342 51.5597 450.815 51.6491 450.222 51.6491Z" fill="#F1EFEF"/>
</svg>
