<svg width="464" height="60" viewBox="0 0 464 60" fill="none" xmlns="http://www.w3.org/2000/svg">
<rect x="149" width="82" height="28" rx="6" fill="#259E51"/>
<rect x="155" y="5" width="18" height="18" rx="3.5" fill="#F1EFEF"/>
<path opacity="0.4" d="M158.062 14C158.062 11.201 158.062 9.80156 158.932 8.93202C159.802 8.0625 161.201 8.0625 164 8.0625C166.799 8.0625 168.198 8.0625 169.068 8.93202C169.938 9.80156 169.938 11.201 169.938 14C169.938 16.7989 169.938 18.1984 169.068 19.068C168.198 19.9375 166.799 19.9375 164 19.9375C161.201 19.9375 159.802 19.9375 158.932 19.068C158.062 18.1984 158.062 16.7989 158.062 14Z" fill="#259E51"/>
<path d="M166.5 12.75L167.267 13.4108C167.589 13.6885 167.75 13.8274 167.75 14C167.75 14.1726 167.589 14.3115 167.267 14.5892L166.5 15.25" stroke="#259E51" stroke-width="1.25" stroke-linecap="round" stroke-linejoin="round"/>
<path d="M161.5 12.75L160.733 13.4108C160.411 13.6885 160.25 13.8274 160.25 14C160.25 14.1726 160.411 14.3115 160.733 14.5892L161.5 15.25" stroke="#259E51" stroke-width="1.25" stroke-linecap="round" stroke-linejoin="round"/>
<path d="M164.625 12.125L163.375 15.875" stroke="#259E51" stroke-width="1.25" stroke-linecap="round" stroke-linejoin="round"/>
<path d="M158.062 14C158.062 11.201 158.062 9.80156 158.932 8.93202C159.802 8.0625 161.201 8.0625 164 8.0625C166.799 8.0625 168.198 8.0625 169.068 8.93202C169.938 9.80156 169.938 11.201 169.938 14C169.938 16.7989 169.938 18.1984 169.068 19.068C168.198 19.9375 166.799 19.9375 164 19.9375C161.201 19.9375 159.802 19.9375 158.932 19.068C158.062 18.1984 158.062 16.7989 158.062 14Z" stroke="#259E51" stroke-width="1.25"/>
<path d="M183.586 12.1172C183.539 11.683 183.344 11.3449 182.999 11.103C182.658 10.861 182.213 10.7401 181.667 10.7401C181.282 10.7401 180.952 10.7981 180.677 10.9141C180.402 11.0301 180.192 11.1875 180.046 11.3864C179.9 11.5852 179.825 11.8123 179.822 12.0675C179.822 12.2796 179.87 12.4635 179.966 12.6193C180.066 12.7751 180.2 12.9077 180.369 13.017C180.538 13.1231 180.725 13.2126 180.931 13.2855C181.136 13.3584 181.343 13.4197 181.552 13.4695L182.507 13.7081C182.891 13.7976 183.261 13.9186 183.615 14.071C183.973 14.2235 184.293 14.4157 184.575 14.6477C184.86 14.8797 185.085 15.1598 185.251 15.4879C185.417 15.8161 185.5 16.2005 185.5 16.6413C185.5 17.2379 185.347 17.7633 185.042 18.2173C184.737 18.6681 184.297 19.0211 183.72 19.2763C183.146 19.5282 182.452 19.6541 181.637 19.6541C180.845 19.6541 180.157 19.5315 179.574 19.2862C178.994 19.041 178.539 18.683 178.211 18.2124C177.887 17.7417 177.711 17.1683 177.684 16.4922H179.499C179.525 16.8468 179.635 17.1418 179.827 17.3771C180.019 17.6125 180.27 17.7881 180.578 17.9041C180.889 18.0201 181.237 18.0781 181.622 18.0781C182.023 18.0781 182.374 18.0185 182.676 17.8991C182.981 17.7765 183.219 17.6075 183.392 17.392C183.564 17.1733 183.652 16.9181 183.655 16.6264C183.652 16.3613 183.574 16.1425 183.422 15.9702C183.269 15.7945 183.055 15.6487 182.78 15.5327C182.508 15.4134 182.19 15.3073 181.826 15.2145L180.667 14.9162C179.829 14.7008 179.166 14.3743 178.679 13.9368C178.195 13.496 177.953 12.911 177.953 12.1818C177.953 11.5819 178.115 11.0566 178.44 10.6058C178.768 10.1551 179.214 9.8054 179.777 9.55682C180.341 9.30492 180.979 9.17898 181.691 9.17898C182.414 9.17898 183.047 9.30492 183.591 9.55682C184.137 9.8054 184.567 10.1518 184.878 10.5959C185.19 11.0367 185.351 11.5438 185.36 12.1172H183.586ZM188.43 19.5L186.273 11.8636H188.107L189.45 17.233H189.519L190.891 11.8636H192.706L194.078 17.2031H194.153L195.475 11.8636H197.315L195.152 19.5H193.278L191.846 14.3395H191.742L190.31 19.5H188.43ZM198.361 19.5V11.8636H200.161V19.5H198.361ZM199.266 10.7798C198.981 10.7798 198.736 10.6854 198.53 10.4964C198.325 10.3042 198.222 10.0739 198.222 9.8054C198.222 9.53362 198.325 9.30327 198.53 9.11435C198.736 8.92211 198.981 8.82599 199.266 8.82599C199.554 8.82599 199.8 8.92211 200.002 9.11435C200.207 9.30327 200.31 9.53362 200.31 9.8054C200.31 10.0739 200.207 10.3042 200.002 10.4964C199.8 10.6854 199.554 10.7798 199.266 10.7798ZM205.67 11.8636V13.2557H201.155V11.8636H205.67ZM202.284 19.5V11.1428C202.284 10.629 202.39 10.2015 202.602 9.86008C202.818 9.5187 203.106 9.26349 203.467 9.09446C203.828 8.92543 204.229 8.84091 204.67 8.84091C204.982 8.84091 205.259 8.86577 205.501 8.91548C205.742 8.9652 205.921 9.00994 206.037 9.04972L205.68 10.4418C205.603 10.4186 205.507 10.3954 205.391 10.3722C205.275 10.3456 205.146 10.3324 205.003 10.3324C204.669 10.3324 204.432 10.4136 204.292 10.576C204.157 10.7351 204.089 10.9638 204.089 11.2621V19.5H202.284ZM210.682 11.8636V13.2557H206.292V11.8636H210.682ZM207.376 10.0341H209.176V17.2031C209.176 17.4451 209.212 17.6307 209.285 17.7599C209.361 17.8859 209.461 17.9721 209.584 18.0185C209.706 18.0649 209.842 18.0881 209.991 18.0881C210.104 18.0881 210.207 18.0798 210.299 18.0632C210.396 18.0466 210.468 18.0317 210.518 18.0185L210.821 19.4254C210.725 19.4586 210.588 19.495 210.409 19.5348C210.233 19.5746 210.018 19.5978 209.762 19.6044C209.312 19.6177 208.906 19.5497 208.544 19.4006C208.183 19.2481 207.896 19.0128 207.684 18.6946C207.476 18.3764 207.373 17.9787 207.376 17.5014V10.0341ZM218.475 9.31818H220.32V15.9702C220.32 16.6993 220.147 17.3407 219.803 17.8942C219.461 18.4477 218.981 18.8802 218.361 19.1918C217.741 19.5 217.017 19.6541 216.188 19.6541C215.356 19.6541 214.631 19.5 214.011 19.1918C213.391 18.8802 212.91 18.4477 212.569 17.8942C212.228 17.3407 212.057 16.6993 212.057 15.9702V9.31818H213.901V15.8161C213.901 16.2403 213.994 16.6181 214.18 16.9496C214.369 17.281 214.634 17.5412 214.975 17.7301C215.317 17.9157 215.721 18.0085 216.188 18.0085C216.656 18.0085 217.06 17.9157 217.401 17.7301C217.746 17.5412 218.011 17.281 218.197 16.9496C218.382 16.6181 218.475 16.2403 218.475 15.8161V9.31818ZM223.959 9.31818V19.5H222.114V9.31818H223.959Z" fill="#F1EFEF"/>
<rect x="235" width="80" height="28" rx="6" fill="#3C46C9"/>
<rect x="241" y="5" width="18" height="18" rx="3.5" fill="#F1EFEF"/>
<path opacity="0.4" d="M246.266 8.39076C245.625 9.03147 245.625 10.0627 245.625 12.1251V15.875C245.625 17.9375 245.625 18.9687 246.266 19.6093C246.906 20.25 247.938 20.25 250 20.25C252.062 20.25 253.094 20.25 253.734 19.6093C254.375 18.9687 254.375 17.9375 254.375 15.875V12.1251C254.375 10.0627 254.375 9.03147 253.734 8.39076C253.326 7.98278 252.76 7.83459 251.87 7.78076L251.819 8.08382C251.699 8.80712 251.639 9.16877 251.391 9.38884C251.132 9.6184 250.765 9.62506 250 9.62506C249.235 9.62506 248.868 9.6184 248.609 9.38884C248.361 9.16877 248.301 8.80712 248.181 8.08382L248.13 7.78076C247.24 7.83459 246.674 7.98278 246.266 8.39076Z" fill="#3C46C9"/>
<path d="M245.625 12.125C245.625 10.0626 245.625 9.03141 246.266 8.39071C246.906 7.75 247.938 7.75 250 7.75C252.062 7.75 253.094 7.75 253.734 8.39071C254.375 9.03141 254.375 10.0626 254.375 12.125V15.875C254.375 17.9374 254.375 18.9686 253.734 19.6093C253.094 20.25 252.062 20.25 250 20.25C247.938 20.25 246.906 20.25 246.266 19.6093C245.625 18.9686 245.625 17.9374 245.625 15.875V12.125Z" stroke="#3C46C9" stroke-width="1.25" stroke-linecap="round"/>
<path d="M249.375 18.375H250.625" stroke="#3C46C9" stroke-width="1.25" stroke-linecap="round" stroke-linejoin="round"/>
<path d="M248.125 7.75L248.181 8.08376C248.301 8.80706 248.361 9.16871 248.609 9.38877C248.868 9.61834 249.235 9.625 250 9.625C250.765 9.625 251.132 9.61834 251.391 9.38877C251.639 9.16871 251.699 8.80706 251.819 8.08376L251.875 7.75" stroke="#3C46C9" stroke-width="1.25" stroke-linejoin="round"/>
<path d="M264.343 19.5V11.8636H266.142V19.5H264.343ZM265.248 10.7798C264.963 10.7798 264.717 10.6854 264.512 10.4964C264.306 10.3042 264.204 10.0739 264.204 9.8054C264.204 9.53362 264.306 9.30327 264.512 9.11435C264.717 8.92211 264.963 8.82599 265.248 8.82599C265.536 8.82599 265.781 8.92211 265.983 9.11435C266.189 9.30327 266.292 9.53362 266.292 9.8054C266.292 10.0739 266.189 10.3042 265.983 10.4964C265.781 10.6854 265.536 10.7798 265.248 10.7798ZM276.961 14.4091C276.961 15.5062 276.755 16.4458 276.344 17.228C275.937 18.0069 275.38 18.6035 274.674 19.0178C273.971 19.4321 273.174 19.6392 272.282 19.6392C271.391 19.6392 270.592 19.4321 269.886 19.0178C269.183 18.6001 268.627 18.0019 268.216 17.223C267.808 16.4408 267.604 15.5028 267.604 14.4091C267.604 13.312 267.808 12.3741 268.216 11.5952C268.627 10.813 269.183 10.2147 269.886 9.80043C270.592 9.38613 271.391 9.17898 272.282 9.17898C273.174 9.17898 273.971 9.38613 274.674 9.80043C275.38 10.2147 275.937 10.813 276.344 11.5952C276.755 12.3741 276.961 13.312 276.961 14.4091ZM275.106 14.4091C275.106 13.6368 274.985 12.9856 274.743 12.4553C274.505 11.9216 274.173 11.5189 273.749 11.2472C273.325 10.9721 272.836 10.8345 272.282 10.8345C271.729 10.8345 271.24 10.9721 270.816 11.2472C270.392 11.5189 270.058 11.9216 269.816 12.4553C269.578 12.9856 269.459 13.6368 269.459 14.4091C269.459 15.1813 269.578 15.8343 269.816 16.3679C270.058 16.8982 270.392 17.3009 270.816 17.576C271.24 17.8478 271.729 17.9837 272.282 17.9837C272.836 17.9837 273.325 17.8478 273.749 17.576C274.173 17.3009 274.505 16.8982 274.743 16.3679C274.985 15.8343 275.106 15.1813 275.106 14.4091ZM284.028 12.1172C283.981 11.683 283.786 11.3449 283.441 11.103C283.1 10.861 282.656 10.7401 282.109 10.7401C281.724 10.7401 281.395 10.7981 281.119 10.9141C280.844 11.0301 280.634 11.1875 280.488 11.3864C280.342 11.5852 280.268 11.8123 280.264 12.0675C280.264 12.2796 280.312 12.4635 280.409 12.6193C280.508 12.7751 280.642 12.9077 280.811 13.017C280.98 13.1231 281.168 13.2126 281.373 13.2855C281.579 13.3584 281.786 13.4197 281.994 13.4695L282.949 13.7081C283.333 13.7976 283.703 13.9186 284.058 14.071C284.416 14.2235 284.735 14.4157 285.017 14.6477C285.302 14.8797 285.528 15.1598 285.693 15.4879C285.859 15.8161 285.942 16.2005 285.942 16.6413C285.942 17.2379 285.789 17.7633 285.485 18.2173C285.18 18.6681 284.739 19.0211 284.162 19.2763C283.589 19.5282 282.894 19.6541 282.079 19.6541C281.287 19.6541 280.599 19.5315 280.016 19.2862C279.436 19.041 278.982 18.683 278.654 18.2124C278.329 17.7417 278.153 17.1683 278.127 16.4922H279.941C279.968 16.8468 280.077 17.1418 280.269 17.3771C280.462 17.6125 280.712 17.7881 281.02 17.9041C281.332 18.0201 281.68 18.0781 282.064 18.0781C282.465 18.0781 282.816 18.0185 283.118 17.8991C283.423 17.7765 283.662 17.6075 283.834 17.392C284.006 17.1733 284.094 16.9181 284.097 16.6264C284.094 16.3613 284.016 16.1425 283.864 15.9702C283.711 15.7945 283.498 15.6487 283.222 15.5327C282.951 15.4134 282.632 15.3073 282.268 15.2145L281.11 14.9162C280.271 14.7008 279.608 14.3743 279.121 13.9368C278.637 13.496 278.395 12.911 278.395 12.1818C278.395 11.5819 278.557 11.0566 278.882 10.6058C279.21 10.1551 279.656 9.8054 280.22 9.55682C280.783 9.30492 281.421 9.17898 282.134 9.17898C282.856 9.17898 283.489 9.30492 284.033 9.55682C284.58 9.8054 285.009 10.1518 285.32 10.5959C285.632 11.0367 285.793 11.5438 285.803 12.1172H284.028Z" fill="#F1EFEF"/>
<path d="M293.095 10.5V18.5H292.126V11.5156H292.079L290.126 12.8125V11.8281L292.126 10.5H293.095ZM295.043 16.8594V16.0625L298.559 10.5H299.137V11.7344H298.746L296.09 15.9375V16H300.824V16.8594H295.043ZM298.809 18.5V16.6172V16.2461V10.5H299.73V18.5H298.809ZM304.482 17.0938V11.9375H305.357V17.0938H304.482ZM302.342 14.9531V14.0781H307.498V14.9531H302.342Z" fill="#C6C6C8"/>
<rect x="0.5" y="32" width="139" height="28" rx="6" fill="#006AB2"/>
<rect x="6.5" y="37" width="18" height="18" rx="3.5" fill="#F1EFEF"/>
<path d="M18.5884 42.7167V39.7164C18.592 39.6111 18.6792 39.529 18.784 39.5305C19.8077 39.5925 20.7377 39.6827 21.5327 39.7946L21.5354 39.7953C21.6098 39.8042 21.6718 39.8563 21.695 39.9271L21.6954 39.927L21.6961 39.9302C21.6986 39.9378 21.7002 39.9455 21.7016 39.9534L21.7032 39.96C21.7061 39.9806 21.7097 40.0042 21.7138 40.0315C21.8118 40.6963 21.9135 41.7455 21.9672 42.6974C21.9672 42.6974 21.9793 42.9097 21.7666 42.9097H18.7814C18.6747 42.9097 18.5884 42.8234 18.5884 42.7167ZM18.5889 39.7034L18.5884 39.7164V39.7103L18.5886 39.7034H18.5889Z" fill="#006AB2"/>
<path d="M12.4092 52.2807V49.0876V49.2808C12.4092 49.1741 12.3228 49.0876 12.2162 49.0876H9.23117C9.01836 49.0876 9.0304 49.3002 9.0304 49.3002C9.08405 50.252 9.18586 51.3015 9.28386 51.9662C9.28792 51.9938 9.29161 52.0177 9.29459 52.0386L9.29602 52.0445C9.29733 52.0524 9.299 52.0602 9.30151 52.0678L9.3021 52.071H9.30246C9.32559 52.1411 9.38663 52.1925 9.46031 52.2022C10.2565 52.3147 11.1888 52.4051 12.2149 52.4672C12.3194 52.468 12.406 52.3857 12.4092 52.2807Z" fill="#006AB2"/>
<path d="M15.8857 42.697C15.8857 42.697 15.8857 42.9098 16.0984 42.9098H17.6034C17.6034 42.9098 17.8163 42.9098 17.8163 42.697V39.6941C17.8163 39.6941 17.8163 39.4811 17.6036 39.4726C17.1971 39.4557 16.5506 39.4405 16.0984 39.4375C16.0984 39.4375 15.8857 39.4362 15.8857 39.6491V42.697Z" fill="#006AB2"/>
<path d="M15.4985 52.35V49.152V49.2808C15.4985 49.1742 15.4119 49.0876 15.3053 49.0876H15.434H13.3946C13.3946 49.0876 13.1816 49.0876 13.1816 49.3006V52.3034C13.1816 52.3034 13.1816 52.5163 13.3943 52.525C13.9203 52.5466 14.6967 52.5628 15.2857 52.5628C15.2857 52.5628 15.4985 52.5628 15.4985 52.35Z" fill="#006AB2"/>
<path d="M13.1816 42.697C13.1816 42.697 13.1816 42.9098 13.3946 42.9098H14.8994C14.8994 42.9098 15.1123 42.9098 15.1123 42.697V39.6489C15.1123 39.6489 15.1123 39.436 14.8995 39.4375C14.4471 39.4405 13.8011 39.456 13.3943 39.4727C13.3943 39.4727 13.1816 39.4814 13.1816 39.6942V42.697Z" fill="#006AB2"/>
<path d="M9.19431 48.3156H12.1971C12.1971 48.3156 12.4099 48.3156 12.4099 48.1027V46.5976C12.4099 46.5976 12.4099 46.3848 12.1971 46.3848H9.149C9.149 46.3848 8.93631 46.3848 8.9375 46.5976C8.94049 47.05 8.9561 47.696 8.97268 48.1027C8.97268 48.1027 8.98162 48.3156 9.19431 48.3156Z" fill="#006AB2"/>
<path d="M8.9375 45.3999C8.9375 45.3999 8.93619 45.6127 9.14888 45.6127H12.197C12.197 45.6127 12.4098 45.6127 12.4098 45.3999V43.8949C12.4098 43.8949 12.4098 43.6821 12.197 43.6821H9.19406C9.19406 43.6821 8.98137 43.6821 8.97255 43.8947C8.95598 44.3014 8.94048 44.9477 8.9375 45.3999Z" fill="#006AB2"/>
<path d="M12.4092 42.7167V39.7164C12.4057 39.6111 12.3184 39.529 12.2135 39.5305C11.1899 39.5925 10.2599 39.6827 9.46496 39.7946L9.46222 39.7953C9.38782 39.8042 9.32583 39.8563 9.30246 39.9271L9.3021 39.927L9.30151 39.9302C9.299 39.9378 9.29733 39.9455 9.29602 39.9534L9.29447 39.96C9.29149 39.9806 9.2878 40.0042 9.28386 40.0315C9.18586 40.6963 9.08405 41.7455 9.0304 42.6974C9.0304 42.6974 9.01836 42.9097 9.23117 42.9097H12.2162C12.3228 42.9097 12.4092 42.8234 12.4092 42.7167ZM12.4088 39.7034L12.4092 39.7164V39.7103L12.409 39.7034H12.4088Z" fill="#006AB2"/>
<path d="M18.5884 48.329C18.5884 48.329 18.5884 48.5418 18.7387 48.6922C18.7387 48.6922 18.5884 48.5418 21.5974 51.5511C21.5974 51.5511 21.748 51.7014 21.7748 51.4903C21.9213 50.3437 22.0338 48.6402 22.0556 46.9839C22.0556 46.9839 22.0583 46.7712 21.8455 46.7712H18.7598C18.7598 46.7712 18.5884 46.7712 18.5884 46.9427V48.329Z" fill="#006AB2"/>
<path d="M22.0632 45.809C22.0609 45.0759 22.0456 44.379 22.0258 43.8947C22.0258 43.8947 22.0169 43.6821 21.8041 43.6821H18.8012C18.8012 43.6821 18.5884 43.6821 18.5884 43.8949V45.7859C18.5884 45.7859 18.5884 45.9987 18.8012 45.9987H21.8704C21.9759 45.9987 22.0614 45.9141 22.0632 45.809Z" fill="#006AB2"/>
<path d="M21.0513 52.097C18.9783 50.0241 18.3334 49.3793 18.1328 49.1786C18.0691 49.1173 17.9966 49.0837 17.9345 49.088V49.0879H16.4843C16.4843 49.0879 16.2715 49.0879 16.2715 49.3008V52.3451C16.2715 52.3451 16.2715 52.5579 16.4843 52.5552C18.1406 52.5334 19.8437 52.4208 20.9906 52.2744C20.9906 52.2744 21.2018 52.2474 21.0513 52.097Z" fill="#006AB2"/>
<path d="M29.5841 41.3182H31.8412L34.8639 48.696H34.9833L38.006 41.3182H40.2631V51.5H38.4932V44.505H38.3987L35.5848 51.4702H34.2624L31.4485 44.4901H31.354V51.5H29.5841V41.3182ZM44.1795 51.6541C43.6956 51.6541 43.2598 51.5679 42.872 51.3956C42.4875 51.2199 42.1826 50.9614 41.9572 50.62C41.7351 50.2786 41.6241 49.8577 41.6241 49.3572C41.6241 48.9264 41.7037 48.5701 41.8627 48.2884C42.0218 48.0066 42.2389 47.7812 42.514 47.6122C42.7891 47.4432 43.099 47.3156 43.4437 47.2294C43.7917 47.1399 44.1513 47.0753 44.5225 47.0355C44.97 46.9891 45.3329 46.9477 45.6113 46.9112C45.8897 46.8714 46.0919 46.8118 46.2179 46.7322C46.3471 46.6494 46.4117 46.5218 46.4117 46.3494V46.3196C46.4117 45.9451 46.3007 45.6551 46.0787 45.4496C45.8566 45.2441 45.5367 45.1413 45.1191 45.1413C44.6783 45.1413 44.3287 45.2375 44.0701 45.4297C43.8149 45.6219 43.6426 45.849 43.5531 46.1108L41.8727 45.8722C42.0053 45.4081 42.224 45.0204 42.5289 44.7088C42.8339 44.3939 43.2067 44.1586 43.6475 44.0028C44.0884 43.8438 44.5756 43.7642 45.1092 43.7642C45.4771 43.7642 45.8433 43.8073 46.2079 43.8935C46.5725 43.9796 46.9056 44.1222 47.2072 44.321C47.5088 44.5166 47.7508 44.7834 47.9331 45.1214C48.1187 45.4595 48.2115 45.8821 48.2115 46.3892V51.5H46.4814V50.451H46.4217C46.3123 50.6631 46.1582 50.862 45.9593 51.0476C45.7638 51.2299 45.5169 51.3774 45.2186 51.4901C44.9236 51.5994 44.5772 51.6541 44.1795 51.6541ZM44.6468 50.3317C45.0081 50.3317 45.3213 50.2604 45.5865 50.1179C45.8516 49.9721 46.0555 49.7798 46.198 49.5412C46.3438 49.3026 46.4167 49.0424 46.4167 48.7607V47.8608C46.3604 47.9072 46.2643 47.9503 46.1284 47.9901C45.9958 48.0298 45.8466 48.0646 45.6809 48.0945C45.5152 48.1243 45.3511 48.1508 45.1887 48.174C45.0263 48.1972 44.8855 48.2171 44.7662 48.2337C44.4977 48.2701 44.2574 48.3298 44.0453 48.4126C43.8332 48.4955 43.6658 48.6115 43.5431 48.7607C43.4205 48.9065 43.3592 49.0954 43.3592 49.3274C43.3592 49.6589 43.4802 49.9091 43.7221 50.0781C43.9641 50.2472 44.2723 50.3317 44.6468 50.3317ZM52.6449 51.6342C52.045 51.6342 51.5081 51.4801 51.0341 51.1719C50.5602 50.8636 50.1857 50.4162 49.9106 49.8295C49.6355 49.2429 49.4979 48.5303 49.4979 47.6918C49.4979 46.8433 49.6371 46.1274 49.9155 45.544C50.1973 44.9574 50.5767 44.5149 51.054 44.2166C51.5313 43.915 52.0633 43.7642 52.6499 43.7642C53.0973 43.7642 53.4652 43.8404 53.7536 43.9929C54.0419 44.142 54.2706 44.3227 54.4397 44.5348C54.6087 44.7436 54.7396 44.9408 54.8324 45.1264H54.907V41.3182H56.7117V51.5H54.9418V50.2969H54.8324C54.7396 50.4825 54.6054 50.6797 54.4297 50.8885C54.2541 51.094 54.0221 51.2696 53.7337 51.4155C53.4454 51.5613 53.0824 51.6342 52.6449 51.6342ZM53.1471 50.1577C53.5282 50.1577 53.853 50.0549 54.1215 49.8494C54.39 49.6406 54.5938 49.3506 54.733 48.9794C54.8722 48.6082 54.9418 48.1757 54.9418 47.6818C54.9418 47.188 54.8722 46.7588 54.733 46.3942C54.5971 46.0296 54.3949 45.7462 54.1265 45.544C53.8613 45.3419 53.5348 45.2408 53.1471 45.2408C52.746 45.2408 52.4113 45.3452 52.1428 45.554C51.8743 45.7628 51.6722 46.0511 51.5363 46.419C51.4004 46.7869 51.3324 47.2079 51.3324 47.6818C51.3324 48.1591 51.4004 48.585 51.5363 48.9595C51.6755 49.3307 51.8793 49.6241 52.1478 49.8395C52.4196 50.0516 52.7526 50.1577 53.1471 50.1577ZM61.8002 51.6491C61.0345 51.6491 60.3733 51.4901 59.8165 51.1719C59.263 50.8504 58.8371 50.3963 58.5388 49.8097C58.2405 49.2197 58.0914 48.5253 58.0914 47.7266C58.0914 46.9411 58.2405 46.2517 58.5388 45.6584C58.8404 45.0618 59.2613 44.5978 59.8016 44.2663C60.3418 43.9316 60.9765 43.7642 61.7057 43.7642C62.1763 43.7642 62.6205 43.8404 63.0381 43.9929C63.459 44.142 63.8302 44.3741 64.1517 44.6889C64.4765 45.0038 64.7317 45.4048 64.9174 45.892C65.103 46.3759 65.1958 46.9527 65.1958 47.6222V48.174H58.9365V46.9609H63.4706C63.4673 46.6162 63.3927 46.3097 63.2469 46.0412C63.1011 45.7694 62.8972 45.5556 62.6354 45.3999C62.3769 45.2441 62.0753 45.1662 61.7306 45.1662C61.3627 45.1662 61.0395 45.2557 60.7611 45.4347C60.4827 45.6103 60.2656 45.8423 60.1098 46.1307C59.9574 46.4157 59.8795 46.7289 59.8762 47.0703V48.1293C59.8762 48.5734 59.9574 48.9545 60.1198 49.2727C60.2822 49.5876 60.5092 49.8295 60.8009 49.9986C61.0925 50.1643 61.4339 50.2472 61.825 50.2472C62.0869 50.2472 62.3238 50.2107 62.536 50.1378C62.7481 50.0616 62.932 49.9505 63.0878 49.8047C63.2436 49.6589 63.3612 49.4782 63.4408 49.2628L65.1212 49.4517C65.0151 49.8958 64.813 50.2836 64.5147 50.6151C64.2197 50.9432 63.8418 51.1984 63.3811 51.3807C62.9204 51.5597 62.3934 51.6491 61.8002 51.6491ZM69.771 51.5V43.8636H71.5707V51.5H69.771ZM70.6758 42.7798C70.3908 42.7798 70.1455 42.6854 69.94 42.4964C69.7345 42.3042 69.6318 42.0739 69.6318 41.8054C69.6318 41.5336 69.7345 41.3033 69.94 41.1143C70.1455 40.9221 70.3908 40.826 70.6758 40.826C70.9642 40.826 71.2094 40.9221 71.4116 41.1143C71.6171 41.3033 71.7198 41.5336 71.7198 41.8054C71.7198 42.0739 71.6171 42.3042 71.4116 42.4964C71.2094 42.6854 70.9642 42.7798 70.6758 42.7798ZM75.0111 47.0256V51.5H73.2114V43.8636H74.9315V45.1612H75.021C75.1967 44.7337 75.4767 44.3939 75.8612 44.142C76.249 43.8902 76.7279 43.7642 77.298 43.7642C77.825 43.7642 78.284 43.8769 78.6751 44.1023C79.0696 44.3277 79.3745 44.6541 79.5899 45.0817C79.8087 45.5092 79.9164 46.0279 79.9131 46.6378V51.5H78.1133V46.9162C78.1133 46.4058 77.9808 46.0064 77.7156 45.718C77.4538 45.4297 77.0909 45.2855 76.6268 45.2855C76.312 45.2855 76.0319 45.3551 75.7866 45.4943C75.5447 45.6302 75.3541 45.8274 75.2149 46.0859C75.079 46.3445 75.0111 46.6577 75.0111 47.0256ZM84.8748 51.5V41.3182H86.7193V45.9964H86.8436L90.8159 41.3182H93.068L89.1305 45.8871L93.1028 51.5H90.8855L87.8478 47.1349L86.7193 48.4673V51.5H84.8748ZM94.0599 51.5V43.8636H95.8049V45.1364H95.8845C96.0237 44.6955 96.2623 44.3558 96.6004 44.1172C96.9417 43.8752 97.3312 43.7543 97.7687 43.7543C97.8681 43.7543 97.9791 43.7592 98.1018 43.7692C98.2277 43.7758 98.3321 43.7874 98.415 43.804V45.4595C98.3388 45.433 98.2178 45.4098 98.0521 45.3899C97.8897 45.3667 97.7322 45.3551 97.5798 45.3551C97.2516 45.3551 96.9567 45.4264 96.6948 45.5689C96.4363 45.7081 96.2325 45.902 96.0833 46.1506C95.9342 46.3991 95.8596 46.6858 95.8596 47.0107V51.5H94.0599ZM101.461 51.6541C100.977 51.6541 100.542 51.5679 100.154 51.3956C99.7694 51.2199 99.4645 50.9614 99.2391 50.62C99.017 50.2786 98.906 49.8577 98.906 49.3572C98.906 48.9264 98.9855 48.5701 99.1446 48.2884C99.3037 48.0066 99.5208 47.7812 99.7959 47.6122C100.071 47.4432 100.381 47.3156 100.726 47.2294C101.074 47.1399 101.433 47.0753 101.804 47.0355C102.252 46.9891 102.615 46.9477 102.893 46.9112C103.172 46.8714 103.374 46.8118 103.5 46.7322C103.629 46.6494 103.694 46.5218 103.694 46.3494V46.3196C103.694 45.9451 103.583 45.6551 103.361 45.4496C103.138 45.2441 102.819 45.1413 102.401 45.1413C101.96 45.1413 101.611 45.2375 101.352 45.4297C101.097 45.6219 100.924 45.849 100.835 46.1108L99.1546 45.8722C99.2871 45.4081 99.5059 45.0204 99.8108 44.7088C100.116 44.3939 100.489 44.1586 100.929 44.0028C101.37 43.8438 101.857 43.7642 102.391 43.7642C102.759 43.7642 103.125 43.8073 103.49 43.8935C103.854 43.9796 104.187 44.1222 104.489 44.321C104.791 44.5166 105.033 44.7834 105.215 45.1214C105.401 45.4595 105.493 45.8821 105.493 46.3892V51.5H103.763V50.451H103.704C103.594 50.6631 103.44 50.862 103.241 51.0476C103.046 51.2299 102.799 51.3774 102.5 51.4901C102.205 51.5994 101.859 51.6541 101.461 51.6541ZM101.929 50.3317C102.29 50.3317 102.603 50.2604 102.868 50.1179C103.133 49.9721 103.337 49.7798 103.48 49.5412C103.626 49.3026 103.699 49.0424 103.699 48.7607V47.8608C103.642 47.9072 103.546 47.9503 103.41 47.9901C103.278 48.0298 103.129 48.0646 102.963 48.0945C102.797 48.1243 102.633 48.1508 102.471 48.174C102.308 48.1972 102.167 48.2171 102.048 48.2337C101.78 48.2701 101.539 48.3298 101.327 48.4126C101.115 48.4955 100.948 48.6115 100.825 48.7607C100.702 48.9065 100.641 49.0954 100.641 49.3274C100.641 49.6589 100.762 49.9091 101.004 50.0781C101.246 50.2472 101.554 50.3317 101.929 50.3317ZM108.734 49.1037L108.729 46.9311H109.017L111.761 43.8636H113.864L110.489 47.6222H110.116L108.734 49.1037ZM107.093 51.5V41.3182H108.893V51.5H107.093ZM111.886 51.5L109.4 48.0249L110.613 46.7571L114.038 51.5H111.886ZM117.87 51.6491C117.124 51.6491 116.478 51.4851 115.931 51.157C115.384 50.8288 114.96 50.3698 114.659 49.7798C114.36 49.1899 114.211 48.5005 114.211 47.7116C114.211 46.9228 114.36 46.2318 114.659 45.6385C114.96 45.0452 115.384 44.5845 115.931 44.2564C116.478 43.9283 117.124 43.7642 117.87 43.7642C118.616 43.7642 119.262 43.9283 119.809 44.2564C120.356 44.5845 120.779 45.0452 121.077 45.6385C121.379 46.2318 121.529 46.9228 121.529 47.7116C121.529 48.5005 121.379 49.1899 121.077 49.7798C120.779 50.3698 120.356 50.8288 119.809 51.157C119.262 51.4851 118.616 51.6491 117.87 51.6491ZM117.88 50.2074C118.285 50.2074 118.623 50.0964 118.894 49.8743C119.166 49.6489 119.368 49.3473 119.501 48.9695C119.637 48.5916 119.705 48.1707 119.705 47.7067C119.705 47.2393 119.637 46.8168 119.501 46.4389C119.368 46.0578 119.166 45.7545 118.894 45.5291C118.623 45.3037 118.285 45.1911 117.88 45.1911C117.466 45.1911 117.121 45.3037 116.846 45.5291C116.574 45.7545 116.37 46.0578 116.235 46.4389C116.102 46.8168 116.036 47.2393 116.036 47.7067C116.036 48.1707 116.102 48.5916 116.235 48.9695C116.37 49.3473 116.574 49.6489 116.846 49.8743C117.121 50.0964 117.466 50.2074 117.88 50.2074ZM117.179 42.8594L118.293 40.5874H120.053L118.526 42.8594H117.179ZM124.204 51.5L122.046 43.8636H123.881L125.223 49.233H125.293L126.665 43.8636H128.48L129.852 49.2031H129.926L131.249 43.8636H133.088L130.926 51.5H129.051L127.62 46.3395H127.515L126.083 51.5H124.204Z" fill="#F1EFEF"/>
<rect x="143.5" y="32" width="152" height="28" rx="6" fill="#3C46C9"/>
<rect x="149.5" y="37" width="18" height="18" rx="3.5" fill="#F1EFEF"/>
<path opacity="0.4" fill-rule="evenodd" clip-rule="evenodd" d="M164.389 43.5C164.437 44.2048 164.438 45.0711 164.438 46.152V46.473C164.438 49.1963 164.438 50.5579 163.655 51.404C162.872 52.25 161.613 52.25 159.094 52.25H157.906C155.387 52.25 154.128 52.25 153.345 51.404C152.562 50.5579 152.562 49.1963 152.562 46.473V46.152C152.562 45.0711 152.562 44.2048 152.611 43.5H164.389ZM158.5 46.3125C159.042 46.3125 159.52 46.5888 159.8 47.0082C159.966 47.2563 160.062 47.5543 160.062 47.875C160.062 48.1957 159.966 48.4938 159.8 48.7419C159.52 49.1613 159.042 49.4375 158.5 49.4375C157.958 49.4375 157.48 49.1613 157.2 48.7419C157.034 48.4938 156.938 48.1957 156.938 47.875C156.938 47.5543 157.034 47.2563 157.2 47.0082C157.48 46.5888 157.958 46.3125 158.5 46.3125Z" fill="#3C46C9"/>
<path d="M162.25 39.75V41M154.75 39.75V41" stroke="#3C46C9" stroke-width="1.25" stroke-linecap="round" stroke-linejoin="round"/>
<path d="M152.875 43.5H164.125" stroke="#3C46C9" stroke-width="1.25" stroke-linecap="round" stroke-linejoin="round"/>
<path d="M152.562 46.152C152.562 43.4287 152.562 42.0671 153.345 41.221C154.128 40.375 155.387 40.375 157.906 40.375H159.094C161.613 40.375 162.872 40.375 163.655 41.221C164.438 42.0671 164.438 43.4287 164.438 46.152V46.473C164.438 49.1963 164.438 50.5579 163.655 51.404C162.872 52.25 161.613 52.25 159.094 52.25H157.906C155.387 52.25 154.128 52.25 153.345 51.404C152.562 50.5579 152.562 49.1963 152.562 46.473V46.152Z" stroke="#3C46C9" stroke-width="1.25" stroke-linecap="round" stroke-linejoin="round"/>
<path d="M158.5 49.4375V50.0625M158.5 49.4375C157.958 49.4375 157.48 49.1613 157.2 48.7419M158.5 49.4375C159.042 49.4375 159.52 49.1613 159.8 48.7419M157.2 48.7419L156.625 49.125M157.2 48.7419C157.034 48.4938 156.938 48.1957 156.938 47.875C156.938 47.5543 157.034 47.2563 157.2 47.0082M159.8 48.7419L160.375 49.125M159.8 48.7419C159.966 48.4938 160.062 48.1957 160.062 47.875C160.062 47.5543 159.966 47.2563 159.8 47.0082M158.5 46.3125C159.042 46.3125 159.52 46.5888 159.8 47.0082M158.5 46.3125C157.958 46.3125 157.48 46.5888 157.2 47.0082M158.5 46.3125V45.6875M159.8 47.0082L160.375 46.625M157.2 47.0082L156.625 46.625" stroke="#3C46C9" stroke-width="1.25" stroke-linecap="round"/>
<path d="M176.266 51.6392C175.55 51.6392 174.914 51.5166 174.357 51.2713C173.803 51.026 173.366 50.6847 173.044 50.2472C172.723 49.8097 172.552 49.3042 172.532 48.7308H174.402C174.418 49.0059 174.509 49.2462 174.675 49.4517C174.841 49.6539 175.061 49.8113 175.336 49.924C175.611 50.0367 175.92 50.093 176.261 50.093C176.626 50.093 176.949 50.0301 177.231 49.9041C177.512 49.7749 177.733 49.5959 177.892 49.3672C178.051 49.1385 178.129 48.875 178.125 48.5767C178.129 48.2685 178.049 47.9967 177.887 47.7614C177.724 47.526 177.489 47.3421 177.181 47.2095C176.876 47.0769 176.508 47.0107 176.077 47.0107H175.177V45.5888H176.077C176.432 45.5888 176.742 45.5275 177.007 45.4048C177.275 45.2822 177.486 45.1098 177.638 44.8878C177.791 44.6624 177.865 44.4022 177.862 44.1072C177.865 43.8189 177.801 43.5687 177.668 43.3565C177.539 43.1411 177.355 42.9737 177.116 42.8544C176.881 42.7351 176.604 42.6754 176.286 42.6754C175.974 42.6754 175.686 42.7318 175.421 42.8445C175.156 42.9571 174.942 43.1179 174.78 43.3267C174.617 43.5322 174.531 43.7775 174.521 44.0625H172.746C172.759 43.4924 172.923 42.992 173.238 42.5611C173.557 42.1269 173.981 41.7888 174.511 41.5469C175.041 41.3016 175.636 41.179 176.296 41.179C176.975 41.179 177.565 41.3066 178.066 41.5618C178.57 41.8137 178.959 42.1534 179.234 42.581C179.509 43.0085 179.647 43.4808 179.647 43.9979C179.65 44.5713 179.481 45.0518 179.14 45.4396C178.802 45.8274 178.357 46.081 177.807 46.2003V46.2798C178.523 46.3793 179.072 46.6444 179.453 47.0753C179.837 47.5028 180.028 48.0348 180.025 48.6712C180.025 49.2412 179.862 49.7517 179.537 50.2024C179.216 50.6499 178.772 51.0012 178.205 51.2564C177.642 51.5116 176.995 51.6392 176.266 51.6392ZM182.349 51.6094C182.047 51.6094 181.789 51.5033 181.573 51.2912C181.358 51.0791 181.252 50.8205 181.255 50.5156C181.252 50.2173 181.358 49.9621 181.573 49.75C181.789 49.5379 182.047 49.4318 182.349 49.4318C182.641 49.4318 182.894 49.5379 183.11 49.75C183.328 49.9621 183.439 50.2173 183.443 50.5156C183.439 50.7178 183.386 50.9018 183.284 51.0675C183.184 51.2332 183.052 51.3658 182.886 51.4652C182.723 51.5613 182.544 51.6094 182.349 51.6094ZM188.438 51.6939C187.619 51.6939 186.917 51.4867 186.33 51.0724C185.747 50.6548 185.297 50.0533 184.983 49.2678C184.671 48.4789 184.515 47.5294 184.515 46.419C184.519 45.3087 184.676 44.3641 184.988 43.5852C185.302 42.803 185.752 42.2064 186.335 41.7955C186.922 41.3845 187.623 41.179 188.438 41.179C189.253 41.179 189.954 41.3845 190.541 41.7955C191.127 42.2064 191.577 42.803 191.888 43.5852C192.203 44.3674 192.36 45.312 192.36 46.419C192.36 47.5327 192.203 48.4839 191.888 49.2727C191.577 50.0582 191.127 50.6581 190.541 51.0724C189.958 51.4867 189.257 51.6939 188.438 51.6939ZM188.438 50.1378C189.074 50.1378 189.576 49.8246 189.944 49.1982C190.315 48.5684 190.501 47.642 190.501 46.419C190.501 45.6103 190.417 44.9309 190.248 44.3807C190.078 43.8305 189.84 43.4162 189.532 43.1378C189.223 42.8561 188.859 42.7152 188.438 42.7152C187.805 42.7152 187.304 43.0301 186.936 43.6598C186.569 44.2862 186.383 45.206 186.38 46.419C186.376 47.2311 186.458 47.9138 186.623 48.4673C186.792 49.0208 187.031 49.4384 187.339 49.7202C187.647 49.9986 188.014 50.1378 188.438 50.1378ZM194.534 51.6094C194.233 51.6094 193.974 51.5033 193.759 51.2912C193.543 51.0791 193.437 50.8205 193.441 50.5156C193.437 50.2173 193.543 49.9621 193.759 49.75C193.974 49.5379 194.233 49.4318 194.534 49.4318C194.826 49.4318 195.08 49.5379 195.295 49.75C195.514 49.9621 195.625 50.2173 195.628 50.5156C195.625 50.7178 195.572 50.9018 195.469 51.0675C195.37 51.2332 195.237 51.3658 195.071 51.4652C194.909 51.5613 194.73 51.6094 194.534 51.6094ZM200.623 51.6939C199.805 51.6939 199.102 51.4867 198.515 51.0724C197.932 50.6548 197.483 50.0533 197.168 49.2678C196.857 48.4789 196.701 47.5294 196.701 46.419C196.704 45.3087 196.861 44.3641 197.173 43.5852C197.488 42.803 197.937 42.2064 198.52 41.7955C199.107 41.3845 199.808 41.179 200.623 41.179C201.439 41.179 202.14 41.3845 202.726 41.7955C203.313 42.2064 203.762 42.803 204.074 43.5852C204.388 44.3674 204.546 45.312 204.546 46.419C204.546 47.5327 204.388 48.4839 204.074 49.2727C203.762 50.0582 203.313 50.6581 202.726 51.0724C202.143 51.4867 201.442 51.6939 200.623 51.6939ZM200.623 50.1378C201.26 50.1378 201.762 49.8246 202.13 49.1982C202.501 48.5684 202.687 47.642 202.687 46.419C202.687 45.6103 202.602 44.9309 202.433 44.3807C202.264 43.8305 202.025 43.4162 201.717 43.1378C201.409 42.8561 201.044 42.7152 200.623 42.7152C199.99 42.7152 199.49 43.0301 199.122 43.6598C198.754 44.2862 198.568 45.206 198.565 46.419C198.562 47.2311 198.643 47.9138 198.809 48.4673C198.978 49.0208 199.216 49.4384 199.525 49.7202C199.833 49.9986 200.199 50.1378 200.623 50.1378Z" fill="#F1EFEF"/>
<path d="M210.969 50.5H208.5V42.5H211.078C211.854 42.5 212.518 42.6602 213.07 42.9805C213.622 43.2982 214.045 43.7552 214.34 44.3516C214.634 44.9453 214.781 45.6562 214.781 46.4844C214.781 47.3177 214.633 48.0352 214.336 48.6367C214.039 49.2357 213.607 49.6966 213.039 50.0195C212.471 50.3398 211.781 50.5 210.969 50.5ZM209.469 49.6406H210.906C211.567 49.6406 212.116 49.513 212.551 49.2578C212.985 49.0026 213.31 48.6393 213.523 48.168C213.737 47.6966 213.844 47.1354 213.844 46.4844C213.844 45.8385 213.738 45.2826 213.527 44.8164C213.316 44.3477 213.001 43.9883 212.582 43.7383C212.163 43.4857 211.64 43.3594 211.015 43.3594H209.469V49.6406ZM218.632 50.625C218.054 50.625 217.555 50.4974 217.136 50.2422C216.719 49.9844 216.397 49.625 216.171 49.1641C215.947 48.7005 215.835 48.1615 215.835 47.5469C215.835 46.9323 215.947 46.3906 216.171 45.9219C216.397 45.4505 216.712 45.0833 217.116 44.8203C217.522 44.5547 217.996 44.4219 218.538 44.4219C218.85 44.4219 219.159 44.474 219.464 44.5781C219.768 44.6823 220.046 44.8516 220.296 45.0859C220.546 45.3177 220.745 45.625 220.893 46.0078C221.042 46.3906 221.116 46.862 221.116 47.4219V47.8125H216.491V47.0156H220.179C220.179 46.6771 220.111 46.375 219.975 46.1094C219.843 45.8437 219.652 45.6341 219.405 45.4805C219.16 45.3268 218.871 45.25 218.538 45.25C218.171 45.25 217.853 45.3411 217.585 45.5234C217.319 45.7031 217.115 45.9375 216.971 46.2266C216.828 46.5156 216.757 46.8255 216.757 47.1562V47.6875C216.757 48.1406 216.835 48.5247 216.991 48.8398C217.15 49.1523 217.37 49.3906 217.651 49.5547C217.932 49.7161 218.259 49.7969 218.632 49.7969C218.874 49.7969 219.093 49.763 219.288 49.6953C219.486 49.625 219.656 49.5208 219.8 49.3828C219.943 49.2422 220.054 49.0677 220.132 48.8594L221.022 49.1094C220.929 49.4115 220.771 49.6771 220.55 49.9062C220.328 50.1328 220.055 50.3099 219.729 50.4375C219.404 50.5625 219.038 50.625 218.632 50.625ZM224.791 50.625C224.228 50.625 223.744 50.4922 223.338 50.2266C222.931 49.9609 222.619 49.5951 222.4 49.1289C222.181 48.6628 222.072 48.1302 222.072 47.5312C222.072 46.9219 222.184 46.3841 222.408 45.918C222.635 45.4492 222.95 45.0833 223.353 44.8203C223.76 44.5547 224.234 44.4219 224.775 44.4219C225.197 44.4219 225.577 44.5 225.916 44.6562C226.254 44.8125 226.532 45.0312 226.748 45.3125C226.964 45.5937 227.098 45.9219 227.15 46.2969H226.228C226.158 46.0234 226.002 45.7812 225.76 45.5703C225.52 45.3568 225.197 45.25 224.791 45.25C224.431 45.25 224.116 45.3437 223.846 45.5312C223.577 45.7161 223.368 45.9779 223.217 46.3164C223.068 46.6523 222.994 47.0469 222.994 47.5C222.994 47.9635 223.067 48.3672 223.213 48.7109C223.361 49.0547 223.57 49.3216 223.838 49.5117C224.109 49.7018 224.426 49.7969 224.791 49.7969C225.03 49.7969 225.248 49.7552 225.443 49.6719C225.639 49.5885 225.804 49.4688 225.939 49.3125C226.075 49.1562 226.171 48.9687 226.228 48.75H227.15C227.098 49.1042 226.969 49.4232 226.764 49.707C226.56 49.9883 226.291 50.2122 225.955 50.3789C225.622 50.543 225.234 50.625 224.791 50.625ZM230.849 50.625C230.27 50.625 229.772 50.4974 229.352 50.2422C228.936 49.9844 228.614 49.625 228.388 49.1641C228.164 48.7005 228.052 48.1615 228.052 47.5469C228.052 46.9323 228.164 46.3906 228.388 45.9219C228.614 45.4505 228.929 45.0833 229.333 44.8203C229.739 44.5547 230.213 44.4219 230.755 44.4219C231.067 44.4219 231.376 44.474 231.681 44.5781C231.985 44.6823 232.263 44.8516 232.513 45.0859C232.763 45.3177 232.962 45.625 233.11 46.0078C233.259 46.3906 233.333 46.862 233.333 47.4219V47.8125H228.708V47.0156H232.395C232.395 46.6771 232.328 46.375 232.192 46.1094C232.059 45.8437 231.869 45.6341 231.622 45.4805C231.377 45.3268 231.088 45.25 230.755 45.25C230.388 45.25 230.07 45.3411 229.802 45.5234C229.536 45.7031 229.332 45.9375 229.188 46.2266C229.045 46.5156 228.974 46.8255 228.974 47.1562V47.6875C228.974 48.1406 229.052 48.5247 229.208 48.8398C229.367 49.1523 229.587 49.3906 229.868 49.5547C230.149 49.7161 230.476 49.7969 230.849 49.7969C231.091 49.7969 231.309 49.763 231.505 49.6953C231.703 49.625 231.873 49.5208 232.016 49.3828C232.16 49.2422 232.27 49.0677 232.349 48.8594L233.239 49.1094C233.145 49.4115 232.988 49.6771 232.766 49.9062C232.545 50.1328 232.272 50.3099 231.946 50.4375C231.621 50.5625 231.255 50.625 230.849 50.625ZM234.57 50.5V44.5H235.461V45.4375H235.539C235.664 45.1172 235.866 44.8685 236.144 44.6914C236.423 44.5117 236.758 44.4219 237.148 44.4219C237.544 44.4219 237.874 44.5117 238.137 44.6914C238.402 44.8685 238.609 45.1172 238.758 45.4375H238.82C238.974 45.1276 239.204 44.8815 239.512 44.6992C239.819 44.5143 240.187 44.4219 240.617 44.4219C241.154 44.4219 241.592 44.5898 241.934 44.9258C242.275 45.2591 242.445 45.7786 242.445 46.4844V50.5H241.523V46.4844C241.523 46.0417 241.402 45.7253 241.16 45.5352C240.918 45.3451 240.633 45.25 240.305 45.25C239.883 45.25 239.556 45.3776 239.324 45.6328C239.092 45.8854 238.976 46.2057 238.976 46.5937V50.5H238.039V46.3906C238.039 46.0495 237.928 45.7747 237.707 45.5664C237.486 45.3555 237.2 45.25 236.851 45.25C236.612 45.25 236.388 45.3138 236.18 45.4414C235.974 45.569 235.807 45.7461 235.68 45.9727C235.555 46.1966 235.492 46.4557 235.492 46.75V50.5H234.57ZM244.091 50.5V42.5H245.013V45.4531H245.091C245.158 45.349 245.252 45.2161 245.372 45.0547C245.494 44.8906 245.669 44.7448 245.895 44.6172C246.125 44.487 246.435 44.4219 246.825 44.4219C247.33 44.4219 247.776 44.5482 248.161 44.8008C248.547 45.0534 248.847 45.4115 249.063 45.875C249.28 46.3385 249.388 46.8854 249.388 47.5156C249.388 48.151 249.28 48.7018 249.063 49.168C248.847 49.6315 248.548 49.9909 248.165 50.2461C247.782 50.4987 247.341 50.625 246.841 50.625C246.455 50.625 246.147 50.5612 245.915 50.4336C245.683 50.3034 245.505 50.1562 245.38 49.9922C245.255 49.8255 245.158 49.6875 245.091 49.5781H244.981V50.5H244.091ZM244.997 47.5C244.997 47.9531 245.063 48.3529 245.196 48.6992C245.329 49.043 245.523 49.3125 245.778 49.5078C246.033 49.7005 246.346 49.7969 246.716 49.7969C247.101 49.7969 247.423 49.6953 247.681 49.4922C247.941 49.2865 248.136 49.0104 248.267 48.6641C248.399 48.3151 248.466 47.9271 248.466 47.5C248.466 47.0781 248.401 46.6979 248.27 46.3594C248.143 46.0182 247.949 45.7487 247.688 45.5508C247.431 45.3503 247.106 45.25 246.716 45.25C246.341 45.25 246.026 45.3451 245.77 45.5352C245.515 45.7227 245.323 45.9857 245.192 46.3242C245.062 46.6602 244.997 47.0521 244.997 47.5ZM253.148 50.625C252.57 50.625 252.072 50.4974 251.652 50.2422C251.236 49.9844 250.914 49.625 250.688 49.1641C250.464 48.7005 250.352 48.1615 250.352 47.5469C250.352 46.9323 250.464 46.3906 250.688 45.9219C250.914 45.4505 251.229 45.0833 251.633 44.8203C252.039 44.5547 252.513 44.4219 253.055 44.4219C253.367 44.4219 253.676 44.474 253.98 44.5781C254.285 44.6823 254.563 44.8516 254.813 45.0859C255.063 45.3177 255.262 45.625 255.41 46.0078C255.559 46.3906 255.633 46.862 255.633 47.4219V47.8125H251.008V47.0156H254.695C254.695 46.6771 254.628 46.375 254.492 46.1094C254.359 45.8437 254.169 45.6341 253.922 45.4805C253.677 45.3268 253.388 45.25 253.055 45.25C252.688 45.25 252.37 45.3411 252.102 45.5234C251.836 45.7031 251.632 45.9375 251.488 46.2266C251.345 46.5156 251.273 46.8255 251.273 47.1562V47.6875C251.273 48.1406 251.352 48.5247 251.508 48.8398C251.667 49.1523 251.887 49.3906 252.168 49.5547C252.449 49.7161 252.776 49.7969 253.148 49.7969C253.391 49.7969 253.609 49.763 253.805 49.6953C254.003 49.625 254.173 49.5208 254.316 49.3828C254.46 49.2422 254.57 49.0677 254.648 48.8594L255.539 49.1094C255.445 49.4115 255.288 49.6771 255.066 49.9062C254.845 50.1328 254.572 50.3099 254.246 50.4375C253.921 50.5625 253.555 50.625 253.148 50.625ZM256.87 50.5V44.5H257.761V45.4062H257.823C257.933 45.1094 258.131 44.8685 258.417 44.6836C258.703 44.4987 259.026 44.4062 259.386 44.4062C259.453 44.4062 259.538 44.4076 259.64 44.4102C259.741 44.4128 259.818 44.4167 259.87 44.4219V45.3594C259.839 45.3516 259.767 45.3398 259.655 45.3242C259.546 45.306 259.43 45.2969 259.308 45.2969C259.016 45.2969 258.756 45.3581 258.526 45.4805C258.3 45.6003 258.12 45.7669 257.987 45.9805C257.857 46.1914 257.792 46.4323 257.792 46.7031V50.5H256.87ZM263.711 50.5V49.7969L266.352 46.9062C266.662 46.5677 266.917 46.2734 267.117 46.0234C267.318 45.7708 267.466 45.5339 267.563 45.3125C267.662 45.0885 267.711 44.8542 267.711 44.6094C267.711 44.3281 267.643 44.0846 267.508 43.8789C267.375 43.6732 267.193 43.5143 266.961 43.4023C266.729 43.2904 266.469 43.2344 266.18 43.2344C265.873 43.2344 265.604 43.2982 265.375 43.4258C265.149 43.5508 264.973 43.7266 264.848 43.9531C264.725 44.1797 264.664 44.4453 264.664 44.75H263.742C263.742 44.2812 263.85 43.8698 264.067 43.5156C264.283 43.1615 264.577 42.8854 264.949 42.6875C265.324 42.4896 265.745 42.3906 266.211 42.3906C266.68 42.3906 267.095 42.4896 267.457 42.6875C267.819 42.8854 268.103 43.1523 268.309 43.4883C268.514 43.8242 268.617 44.1979 268.617 44.6094C268.617 44.9036 268.564 45.1914 268.457 45.4727C268.353 45.7513 268.171 46.0625 267.91 46.4062C267.652 46.7474 267.294 47.1641 266.836 47.6562L265.039 49.5781V49.6406H268.758V50.5H263.711ZM272.816 50.6094C272.227 50.6094 271.726 50.4492 271.312 50.1289C270.898 49.806 270.581 49.3385 270.362 48.7266C270.144 48.112 270.034 47.3698 270.034 46.5C270.034 45.6354 270.144 44.8971 270.362 44.2852C270.584 43.6706 270.902 43.2018 271.316 42.8789C271.732 42.5534 272.232 42.3906 272.816 42.3906C273.399 42.3906 273.898 42.5534 274.312 42.8789C274.728 43.2018 275.046 43.6706 275.265 44.2852C275.486 44.8971 275.597 45.6354 275.597 46.5C275.597 47.3698 275.487 48.112 275.269 48.7266C275.05 49.3385 274.734 49.806 274.319 50.1289C273.905 50.4492 273.404 50.6094 272.816 50.6094ZM272.816 49.75C273.399 49.75 273.852 49.4687 274.175 48.9062C274.498 48.3437 274.659 47.5417 274.659 46.5C274.659 45.8073 274.585 45.2174 274.437 44.7305C274.291 44.2435 274.08 43.8724 273.804 43.6172C273.53 43.362 273.201 43.2344 272.816 43.2344C272.237 43.2344 271.786 43.5195 271.46 44.0898C271.135 44.6576 270.972 45.4609 270.972 46.5C270.972 47.1927 271.045 47.7812 271.191 48.2656C271.336 48.75 271.546 49.1185 271.819 49.3711C272.096 49.6237 272.428 49.75 272.816 49.75ZM276.916 50.5V49.7969L279.557 46.9062C279.867 46.5677 280.122 46.2734 280.322 46.0234C280.523 45.7708 280.671 45.5339 280.768 45.3125C280.867 45.0885 280.916 44.8542 280.916 44.6094C280.916 44.3281 280.849 44.0846 280.713 43.8789C280.58 43.6732 280.398 43.5143 280.166 43.4023C279.934 43.2904 279.674 43.2344 279.385 43.2344C279.078 43.2344 278.809 43.2982 278.58 43.4258C278.354 43.5508 278.178 43.7266 278.053 43.9531C277.931 44.1797 277.869 44.4453 277.869 44.75H276.947C276.947 44.2812 277.056 43.8698 277.272 43.5156C277.488 43.1615 277.782 42.8854 278.154 42.6875C278.529 42.4896 278.95 42.3906 279.416 42.3906C279.885 42.3906 280.3 42.4896 280.662 42.6875C281.024 42.8854 281.308 43.1523 281.514 43.4883C281.72 43.8242 281.822 44.1979 281.822 44.6094C281.822 44.9036 281.769 45.1914 281.662 45.4727C281.558 45.7513 281.376 46.0625 281.115 46.4062C280.858 46.7474 280.5 47.1641 280.041 47.6562L278.244 49.5781V49.6406H281.963V50.5H276.916ZM283.052 48.8594V48.0625L286.568 42.5H287.146V43.7344H286.755L284.099 47.9375V48H288.833V48.8594H283.052ZM286.818 50.5V48.6172V48.2461V42.5H287.739V50.5H286.818Z" fill="#C6C6C8"/>
<rect x="299.5" y="32" width="164" height="28" rx="6" fill="#3C46C9"/>
<rect x="305.5" y="37" width="18" height="18" rx="3.5" fill="#F1EFEF"/>
<path d="M314.5 52.25H313.562C311.205 52.25 310.027 52.25 309.295 51.5177C308.562 50.7855 308.562 49.607 308.563 47.2499L308.563 44.75C308.563 42.393 308.563 41.2145 309.295 40.4822C310.027 39.75 311.206 39.75 313.562 39.75H314.187C316.544 39.75 317.723 39.75 318.455 40.4822C319.187 41.2145 319.187 42.393 319.187 44.75V45.375" stroke="#3C46C9" stroke-width="1.25" stroke-linecap="round" stroke-linejoin="round"/>
<path d="M311.375 42.875H316.375M311.375 46H314.188" stroke="#3C46C9" stroke-width="1.25" stroke-linecap="round" stroke-linejoin="round"/>
<path d="M317.938 51.4829C319.042 51.4829 319.938 50.5672 319.938 49.4375C319.938 48.3078 319.042 47.3921 317.938 47.3921M317.938 51.4829C316.833 51.4829 315.938 50.5672 315.938 49.4375C315.938 48.3078 316.833 47.3921 317.938 47.3921M317.938 51.4829V52.25M317.938 47.3921V46.625M316.12 48.3218L315.438 47.9034M320.438 50.9716L319.756 50.5532M319.755 48.3218L320.437 47.9034M315.438 50.9716L316.119 50.5532" stroke="#3C46C9" stroke-width="1.25" stroke-linecap="round"/>
<path opacity="0.4" d="M319.187 44.75V47.25C319.187 47.4552 319.187 47.6516 319.187 47.8394C318.845 47.5592 318.41 47.3916 317.938 47.3916C316.833 47.3916 315.938 48.3074 315.938 49.4371C315.938 50.5668 316.833 51.4825 317.938 51.4825C318.165 51.4825 318.383 51.4439 318.586 51.3727C318.545 51.423 318.502 51.4713 318.455 51.5177C317.723 52.25 316.544 52.25 314.187 52.25H313.562C311.205 52.25 310.027 52.25 309.295 51.5177C308.562 50.7855 308.562 49.607 308.563 47.2499L308.563 44.75C308.563 42.393 308.563 41.2145 309.295 40.4822C310.027 39.75 311.206 39.75 313.562 39.75H314.187C316.544 39.75 317.723 39.75 318.455 40.4822C319.187 41.2145 319.187 42.393 319.187 44.75Z" fill="#3C46C9"/>
<path d="M330.097 51.5H328.128L331.713 41.3182H333.99L337.579 51.5H335.61L332.891 43.4062H332.811L330.097 51.5ZM330.161 47.5078H335.531V48.9893H330.161V47.5078ZM338.631 54.3636V43.8636H340.4V45.1264H340.505C340.598 44.9408 340.729 44.7436 340.898 44.5348C341.067 44.3227 341.295 44.142 341.584 43.9929C341.872 43.8404 342.24 43.7642 342.687 43.7642C343.277 43.7642 343.809 43.915 344.283 44.2166C344.761 44.5149 345.138 44.9574 345.417 45.544C345.699 46.1274 345.839 46.8433 345.839 47.6918C345.839 48.5303 345.702 49.2429 345.427 49.8295C345.152 50.4162 344.777 50.8636 344.303 51.1719C343.829 51.4801 343.292 51.6342 342.692 51.6342C342.255 51.6342 341.892 51.5613 341.604 51.4155C341.315 51.2696 341.083 51.094 340.908 50.8885C340.735 50.6797 340.601 50.4825 340.505 50.2969H340.43V54.3636H338.631ZM340.395 47.6818C340.395 48.1757 340.465 48.6082 340.604 48.9794C340.747 49.3506 340.951 49.6406 341.216 49.8494C341.484 50.0549 341.809 50.1577 342.19 50.1577C342.588 50.1577 342.921 50.0516 343.19 49.8395C343.458 49.6241 343.66 49.3307 343.796 48.9595C343.935 48.585 344.005 48.1591 344.005 47.6818C344.005 47.2079 343.937 46.7869 343.801 46.419C343.665 46.0511 343.463 45.7628 343.194 45.554C342.926 45.3452 342.591 45.2408 342.19 45.2408C341.806 45.2408 341.479 45.3419 341.211 45.544C340.942 45.7462 340.739 46.0296 340.599 46.3942C340.463 46.7588 340.395 47.188 340.395 47.6818ZM349.368 51.6541C348.884 51.6541 348.448 51.5679 348.06 51.3956C347.676 51.2199 347.371 50.9614 347.146 50.62C346.924 50.2786 346.813 49.8577 346.813 49.3572C346.813 48.9264 346.892 48.5701 347.051 48.2884C347.21 48.0066 347.427 47.7812 347.703 47.6122C347.978 47.4432 348.288 47.3156 348.632 47.2294C348.98 47.1399 349.34 47.0753 349.711 47.0355C350.159 46.9891 350.521 46.9477 350.8 46.9112C351.078 46.8714 351.28 46.8118 351.406 46.7322C351.536 46.6494 351.6 46.5218 351.6 46.3494V46.3196C351.6 45.9451 351.489 45.6551 351.267 45.4496C351.045 45.2441 350.725 45.1413 350.308 45.1413C349.867 45.1413 349.517 45.2375 349.259 45.4297C349.003 45.6219 348.831 45.849 348.742 46.1108L347.061 45.8722C347.194 45.4081 347.413 45.0204 347.717 44.7088C348.022 44.3939 348.395 44.1586 348.836 44.0028C349.277 43.8438 349.764 43.7642 350.298 43.7642C350.666 43.7642 351.032 43.8073 351.396 43.8935C351.761 43.9796 352.094 44.1222 352.396 44.321C352.697 44.5166 352.939 44.7834 353.122 45.1214C353.307 45.4595 353.4 45.8821 353.4 46.3892V51.5H351.67V50.451H351.61C351.501 50.6631 351.347 50.862 351.148 51.0476C350.952 51.2299 350.705 51.3774 350.407 51.4901C350.112 51.5994 349.766 51.6541 349.368 51.6541ZM349.835 50.3317C350.197 50.3317 350.51 50.2604 350.775 50.1179C351.04 49.9721 351.244 49.7798 351.386 49.5412C351.532 49.3026 351.605 49.0424 351.605 48.7607V47.8608C351.549 47.9072 351.453 47.9503 351.317 47.9901C351.184 48.0298 351.035 48.0646 350.869 48.0945C350.704 48.1243 350.54 48.1508 350.377 48.174C350.215 48.1972 350.074 48.2171 349.955 48.2337C349.686 48.2701 349.446 48.3298 349.234 48.4126C349.022 48.4955 348.854 48.6115 348.732 48.7607C348.609 48.9065 348.548 49.0954 348.548 49.3274C348.548 49.6589 348.669 49.9091 348.911 50.0781C349.153 50.2472 349.461 50.3317 349.835 50.3317ZM358.331 51.6491C357.568 51.6491 356.914 51.4818 356.367 51.147C355.823 50.8123 355.404 50.3499 355.109 49.7599C354.817 49.1667 354.672 48.4839 354.672 47.7116C354.672 46.9361 354.821 46.2517 355.119 45.6584C355.417 45.0618 355.838 44.5978 356.382 44.2663C356.929 43.9316 357.575 43.7642 358.321 43.7642C358.94 43.7642 359.489 43.8786 359.966 44.1072C360.447 44.3326 360.83 44.6525 361.115 45.0668C361.4 45.4777 361.562 45.9583 361.602 46.5085H359.882C359.812 46.1406 359.646 45.834 359.385 45.5888C359.126 45.3402 358.78 45.2159 358.346 45.2159C357.978 45.2159 357.654 45.3153 357.376 45.5142C357.098 45.7098 356.881 45.9915 356.725 46.3594C356.572 46.7273 356.496 47.1681 356.496 47.6818C356.496 48.2022 356.572 48.6496 356.725 49.0241C356.877 49.3954 357.091 49.6821 357.366 49.8842C357.645 50.0831 357.971 50.1825 358.346 50.1825C358.611 50.1825 358.848 50.1328 359.056 50.0334C359.269 49.9306 359.446 49.7831 359.588 49.5909C359.731 49.3987 359.829 49.165 359.882 48.8899H361.602C361.559 49.4302 361.4 49.9091 361.125 50.3267C360.85 50.741 360.475 51.0658 360.001 51.3011C359.527 51.5331 358.97 51.6491 358.331 51.6491ZM364.669 47.0256V51.5H362.87V41.3182H364.63V45.1612H364.719C364.898 44.7304 365.175 44.3906 365.549 44.142C365.927 43.8902 366.408 43.7642 366.991 43.7642C367.521 43.7642 367.984 43.8752 368.378 44.0973C368.773 44.3194 369.078 44.6442 369.293 45.0717C369.512 45.4993 369.621 46.0213 369.621 46.6378V51.5H367.821V46.9162C367.821 46.4025 367.689 46.0031 367.424 45.718C367.162 45.4297 366.794 45.2855 366.32 45.2855C366.002 45.2855 365.717 45.3551 365.465 45.4943C365.216 45.6302 365.021 45.8274 364.878 46.0859C364.739 46.3445 364.669 46.6577 364.669 47.0256ZM374.626 51.6491C373.861 51.6491 373.199 51.4901 372.643 51.1719C372.089 50.8504 371.663 50.3963 371.365 49.8097C371.067 49.2197 370.918 48.5253 370.918 47.7266C370.918 46.9411 371.067 46.2517 371.365 45.6584C371.667 45.0618 372.088 44.5978 372.628 44.2663C373.168 43.9316 373.803 43.7642 374.532 43.7642C375.003 43.7642 375.447 43.8404 375.864 43.9929C376.285 44.142 376.656 44.3741 376.978 44.6889C377.303 45.0038 377.558 45.4048 377.744 45.892C377.929 46.3759 378.022 46.9527 378.022 47.6222V48.174H371.763V46.9609H376.297C376.293 46.6162 376.219 46.3097 376.073 46.0412C375.927 45.7694 375.723 45.5556 375.462 45.3999C375.203 45.2441 374.901 45.1662 374.557 45.1662C374.189 45.1662 373.866 45.2557 373.587 45.4347C373.309 45.6103 373.092 45.8423 372.936 46.1307C372.784 46.4157 372.706 46.7289 372.702 47.0703V48.1293C372.702 48.5734 372.784 48.9545 372.946 49.2727C373.108 49.5876 373.335 49.8295 373.627 49.9986C373.919 50.1643 374.26 50.2472 374.651 50.2472C374.913 50.2472 375.15 50.2107 375.362 50.1378C375.574 50.0616 375.758 49.9505 375.914 49.8047C376.07 49.6589 376.187 49.4782 376.267 49.2628L377.947 49.4517C377.841 49.8958 377.639 50.2836 377.341 50.6151C377.046 50.9432 376.668 51.1984 376.207 51.3807C375.747 51.5597 375.22 51.6491 374.626 51.6491ZM382.577 51.5V50.1676L386.112 46.7024C386.45 46.361 386.732 46.0578 386.957 45.7926C387.183 45.5275 387.352 45.2706 387.464 45.022C387.577 44.7734 387.633 44.5083 387.633 44.2266C387.633 43.9051 387.56 43.63 387.415 43.4013C387.269 43.1693 387.068 42.9903 386.813 42.8643C386.558 42.7384 386.268 42.6754 385.943 42.6754C385.608 42.6754 385.315 42.745 385.063 42.8842C384.811 43.0201 384.616 43.214 384.476 43.4659C384.341 43.7178 384.273 44.0178 384.273 44.3658H382.518C382.518 43.7195 382.665 43.1577 382.96 42.6804C383.255 42.2031 383.661 41.8336 384.178 41.5717C384.698 41.3099 385.295 41.179 385.968 41.179C386.651 41.179 387.251 41.3066 387.768 41.5618C388.285 41.817 388.686 42.1667 388.971 42.6108C389.259 43.0549 389.403 43.562 389.403 44.1321C389.403 44.5133 389.33 44.8878 389.184 45.2557C389.039 45.6236 388.782 46.0312 388.414 46.4787C388.049 46.9261 387.537 47.468 386.878 48.1044L385.123 49.8892V49.9588H389.557V51.5H382.577ZM392.191 51.6094C391.89 51.6094 391.631 51.5033 391.416 51.2912C391.2 51.0791 391.094 50.8205 391.097 50.5156C391.094 50.2173 391.2 49.9621 391.416 49.75C391.631 49.5379 391.89 49.4318 392.191 49.4318C392.483 49.4318 392.736 49.5379 392.952 49.75C393.171 49.9621 393.282 50.2173 393.285 50.5156C393.282 50.7178 393.229 50.9018 393.126 51.0675C393.026 51.2332 392.894 51.3658 392.728 51.4652C392.566 51.5613 392.387 51.6094 392.191 51.6094ZM398.28 51.6939C397.461 51.6939 396.759 51.4867 396.172 51.0724C395.589 50.6548 395.14 50.0533 394.825 49.2678C394.513 48.4789 394.358 47.5294 394.358 46.419C394.361 45.3087 394.518 44.3641 394.83 43.5852C395.145 42.803 395.594 42.2064 396.177 41.7955C396.764 41.3845 397.465 41.179 398.28 41.179C399.095 41.179 399.796 41.3845 400.383 41.7955C400.97 42.2064 401.419 42.803 401.73 43.5852C402.045 44.3674 402.203 45.312 402.203 46.419C402.203 47.5327 402.045 48.4839 401.73 49.2727C401.419 50.0582 400.97 50.6581 400.383 51.0724C399.8 51.4867 399.099 51.6939 398.28 51.6939ZM398.28 50.1378C398.916 50.1378 399.419 49.8246 399.787 49.1982C400.158 48.5684 400.343 47.642 400.343 46.419C400.343 45.6103 400.259 44.9309 400.09 44.3807C399.921 43.8305 399.682 43.4162 399.374 43.1378C399.066 42.8561 398.701 42.7152 398.28 42.7152C397.647 42.7152 397.147 43.0301 396.779 43.6598C396.411 44.2862 396.225 45.206 396.222 46.419C396.219 47.2311 396.3 47.9138 396.465 48.4673C396.635 49.0208 396.873 49.4384 397.181 49.7202C397.49 49.9986 397.856 50.1378 398.28 50.1378ZM407.007 51.5V41.3182H408.851V49.9538H413.335V51.5H407.007ZM414.647 51.5V43.8636H416.446V51.5H414.647ZM415.552 42.7798C415.267 42.7798 415.021 42.6854 414.816 42.4964C414.61 42.3042 414.508 42.0739 414.508 41.8054C414.508 41.5336 414.61 41.3033 414.816 41.1143C415.021 40.9221 415.267 40.826 415.552 40.826C415.84 40.826 416.085 40.9221 416.287 41.1143C416.493 41.3033 416.596 41.5336 416.596 41.8054C416.596 42.0739 416.493 42.3042 416.287 42.4964C416.085 42.6854 415.84 42.7798 415.552 42.7798ZM421.418 51.6491C420.656 51.6491 420.001 51.4818 419.454 51.147C418.911 50.8123 418.491 50.3499 418.197 49.7599C417.905 49.1667 417.759 48.4839 417.759 47.7116C417.759 46.9361 417.908 46.2517 418.206 45.6584C418.505 45.0618 418.926 44.5978 419.469 44.2663C420.016 43.9316 420.662 43.7642 421.408 43.7642C422.028 43.7642 422.576 43.8786 423.054 44.1072C423.534 44.3326 423.917 44.6525 424.202 45.0668C424.487 45.4777 424.65 45.9583 424.689 46.5085H422.969C422.9 46.1406 422.734 45.834 422.472 45.5888C422.214 45.3402 421.867 45.2159 421.433 45.2159C421.065 45.2159 420.742 45.3153 420.464 45.5142C420.185 45.7098 419.968 45.9915 419.812 46.3594C419.66 46.7273 419.584 47.1681 419.584 47.6818C419.584 48.2022 419.66 48.6496 419.812 49.0241C419.965 49.3954 420.179 49.6821 420.454 49.8842C420.732 50.0831 421.058 50.1825 421.433 50.1825C421.698 50.1825 421.935 50.1328 422.144 50.0334C422.356 49.9306 422.533 49.7831 422.676 49.5909C422.818 49.3987 422.916 49.165 422.969 48.8899H424.689C424.646 49.4302 424.487 49.9091 424.212 50.3267C423.937 50.741 423.563 51.0658 423.089 51.3011C422.615 51.5331 422.058 51.6491 421.418 51.6491ZM429.338 51.6491C428.572 51.6491 427.911 51.4901 427.354 51.1719C426.801 50.8504 426.375 50.3963 426.077 49.8097C425.778 49.2197 425.629 48.5253 425.629 47.7266C425.629 46.9411 425.778 46.2517 426.077 45.6584C426.378 45.0618 426.799 44.5978 427.339 44.2663C427.88 43.9316 428.514 43.7642 429.243 43.7642C429.714 43.7642 430.158 43.8404 430.576 43.9929C430.997 44.142 431.368 44.3741 431.689 44.6889C432.014 45.0038 432.269 45.4048 432.455 45.892C432.641 46.3759 432.733 46.9527 432.733 47.6222V48.174H426.474V46.9609H431.008C431.005 46.6162 430.93 46.3097 430.785 46.0412C430.639 45.7694 430.435 45.5556 430.173 45.3999C429.915 45.2441 429.613 45.1662 429.268 45.1662C428.9 45.1662 428.577 45.2557 428.299 45.4347C428.02 45.6103 427.803 45.8423 427.648 46.1307C427.495 46.4157 427.417 46.7289 427.414 47.0703V48.1293C427.414 48.5734 427.495 48.9545 427.658 49.2727C427.82 49.5876 428.047 49.8295 428.339 49.9986C428.63 50.1643 428.972 50.2472 429.363 50.2472C429.625 50.2472 429.862 50.2107 430.074 50.1378C430.286 50.0616 430.47 49.9505 430.626 49.8047C430.781 49.6589 430.899 49.4782 430.979 49.2628L432.659 49.4517C432.553 49.8958 432.351 50.2836 432.052 50.6151C431.757 50.9432 431.38 51.1984 430.919 51.3807C430.458 51.5597 429.931 51.6491 429.338 51.6491ZM435.846 47.0256V51.5H434.046V43.8636H435.766V45.1612H435.856C436.031 44.7337 436.311 44.3939 436.696 44.142C437.084 43.8902 437.563 43.7642 438.133 43.7642C438.66 43.7642 439.119 43.8769 439.51 44.1023C439.904 44.3277 440.209 44.6541 440.425 45.0817C440.643 45.5092 440.751 46.0279 440.748 46.6378V51.5H438.948V46.9162C438.948 46.4058 438.815 46.0064 438.55 45.718C438.288 45.4297 437.926 45.2855 437.462 45.2855C437.147 45.2855 436.867 45.3551 436.621 45.4943C436.379 45.6302 436.189 45.8274 436.05 46.0859C435.914 46.3445 435.846 46.6577 435.846 47.0256ZM448.403 45.8821L446.762 46.0611C446.716 45.8954 446.635 45.7396 446.519 45.5938C446.406 45.4479 446.253 45.3303 446.061 45.2408C445.869 45.1513 445.634 45.1065 445.355 45.1065C444.981 45.1065 444.666 45.1877 444.411 45.3501C444.159 45.5125 444.034 45.723 444.038 45.9815C444.034 46.2036 444.116 46.3842 444.281 46.5234C444.45 46.6626 444.729 46.777 445.117 46.8665L446.419 47.1449C447.142 47.3007 447.679 47.5476 448.03 47.8857C448.385 48.2237 448.564 48.6662 448.567 49.2131C448.564 49.6937 448.423 50.1179 448.144 50.4858C447.869 50.8504 447.486 51.1354 446.996 51.3409C446.505 51.5464 445.942 51.6491 445.306 51.6491C444.371 51.6491 443.618 51.4536 443.048 51.0625C442.478 50.6681 442.139 50.1196 442.029 49.4169L443.784 49.2479C443.864 49.5926 444.033 49.8527 444.291 50.0284C444.55 50.2041 444.886 50.2919 445.301 50.2919C445.728 50.2919 446.071 50.2041 446.33 50.0284C446.591 49.8527 446.722 49.6357 446.722 49.3771C446.722 49.1584 446.638 48.9777 446.469 48.8352C446.303 48.6927 446.045 48.5833 445.693 48.5071L444.391 48.2337C443.658 48.0812 443.116 47.8243 442.765 47.4631C442.414 47.0985 442.24 46.6378 442.243 46.081C442.24 45.6103 442.367 45.2027 442.626 44.858C442.888 44.5099 443.251 44.2415 443.715 44.0526C444.182 43.8603 444.721 43.7642 445.33 43.7642C446.225 43.7642 446.93 43.9548 447.443 44.3359C447.96 44.7171 448.28 45.2325 448.403 45.8821ZM453.222 51.6491C452.456 51.6491 451.795 51.4901 451.238 51.1719C450.684 50.8504 450.259 50.3963 449.96 49.8097C449.662 49.2197 449.513 48.5253 449.513 47.7266C449.513 46.9411 449.662 46.2517 449.96 45.6584C450.262 45.0618 450.683 44.5978 451.223 44.2663C451.763 43.9316 452.398 43.7642 453.127 43.7642C453.598 43.7642 454.042 43.8404 454.459 43.9929C454.88 44.142 455.252 44.3741 455.573 44.6889C455.898 45.0038 456.153 45.4048 456.339 45.892C456.524 46.3759 456.617 46.9527 456.617 47.6222V48.174H450.358V46.9609H454.892C454.889 46.6162 454.814 46.3097 454.668 46.0412C454.522 45.7694 454.319 45.5556 454.057 45.3999C453.798 45.2441 453.497 45.1662 453.152 45.1662C452.784 45.1662 452.461 45.2557 452.183 45.4347C451.904 45.6103 451.687 45.8423 451.531 46.1307C451.379 46.4157 451.301 46.7289 451.298 47.0703V48.1293C451.298 48.5734 451.379 48.9545 451.541 49.2727C451.704 49.5876 451.931 49.8295 452.222 49.9986C452.514 50.1643 452.855 50.2472 453.246 50.2472C453.508 50.2472 453.745 50.2107 453.957 50.1378C454.169 50.0616 454.353 49.9505 454.509 49.8047C454.665 49.6589 454.783 49.4782 454.862 49.2628L456.543 49.4517C456.437 49.8958 456.234 50.2836 455.936 50.6151C455.641 50.9432 455.263 51.1984 454.803 51.3807C454.342 51.5597 453.815 51.6491 453.222 51.6491Z" fill="#F1EFEF"/>
</svg>
