<svg width="172" height="50" viewBox="0 0 172 50" fill="none" xmlns="http://www.w3.org/2000/svg">
<rect y="4.5" width="41" height="41" rx="9" fill="#FFCF01"/>
<path d="M20.5 9.96667C23.4733 9.96667 26.3799 10.8484 28.8521 12.5002C31.3243 14.1521 33.2512 16.5 34.389 19.247C35.5268 21.994 35.8245 25.0167 35.2445 27.9329C34.6644 30.849 33.2326 33.5277 31.1302 35.6302C29.0277 37.7326 26.349 39.1644 23.4329 39.7445C20.5167 40.3245 17.494 40.0268 14.747 38.889C12 37.7512 9.65213 35.8243 8.00025 33.3521C6.34836 30.8799 5.46667 27.9733 5.46667 25L20.5 25L20.5 9.96667Z" fill="#24292F"/>
<path d="M20.6708 30.0111C18.4315 29.6483 15.3018 28.1889 15.3018 28.1889C15.3018 28.1889 17.7735 31.8333 20.6708 31.8333C23.5682 31.8333 26.0399 30.0111 26.0399 30.0111C26.0399 30.0111 22.6955 30.3391 20.6708 30.0111Z" fill="#FFCF01"/>
<ellipse cx="27.1585" cy="20.2167" rx="2.01339" ry="2.05" fill="#FFCF01"/>
<ellipse cx="14.1833" cy="20.2167" rx="2.01339" ry="2.05" fill="#474D5D"/>
<path d="M49.598 13.9776V8.27273H76.4766V13.9776H66.457V41H59.6175V13.9776H49.598ZM79.4252 41V16.4545H86.2327V41H79.4252ZM82.845 13.2905C81.8329 13.2905 80.9646 12.9549 80.2402 12.2837C79.5264 11.6019 79.1695 10.7869 79.1695 9.83878C79.1695 8.90128 79.5264 8.09695 80.2402 7.42578C80.9646 6.74396 81.8329 6.40305 82.845 6.40305C83.857 6.40305 84.72 6.74396 85.4337 7.42578C86.1582 8.09695 86.5204 8.90128 86.5204 9.83878C86.5204 10.7869 86.1582 11.6019 85.4337 12.2837C84.72 12.9549 83.857 13.2905 82.845 13.2905ZM90.336 41V16.4545H96.8239V20.7852H97.1115C97.6229 19.3469 98.4752 18.2124 99.6683 17.3814C100.862 16.5504 102.289 16.1349 103.951 16.1349C105.634 16.1349 107.067 16.5558 108.25 17.3974C109.432 18.2283 110.221 19.3576 110.615 20.7852H110.87C111.371 19.3789 112.277 18.255 113.587 17.4134C114.908 16.5611 116.469 16.1349 118.269 16.1349C120.56 16.1349 122.419 16.8647 123.846 18.3242C125.284 19.7731 126.004 21.8292 126.004 24.4925V41H119.212V25.8349C119.212 24.4712 118.85 23.4485 118.125 22.7667C117.401 22.0849 116.495 21.744 115.409 21.744C114.173 21.744 113.209 22.1381 112.516 22.9265C111.824 23.7042 111.478 24.7322 111.478 26.0107V41H104.878V25.6911C104.878 24.4872 104.532 23.5284 103.839 22.8146C103.157 22.1009 102.257 21.744 101.139 21.744C100.382 21.744 99.7003 21.9357 99.0931 22.3192C98.4965 22.6921 98.0224 23.2195 97.6708 23.9013C97.3193 24.5724 97.1435 25.3608 97.1435 26.2663V41H90.336ZM141.217 41.4794C138.692 41.4794 136.519 40.968 134.697 39.9453C132.886 38.9119 131.49 37.4524 130.51 35.5668C129.53 33.6705 129.04 31.4279 129.04 28.8391C129.04 26.3143 129.53 24.0984 130.51 22.1914C131.49 20.2844 132.87 18.7983 134.649 17.733C136.439 16.6676 138.538 16.1349 140.945 16.1349C142.565 16.1349 144.072 16.396 145.468 16.918C146.874 17.4293 148.099 18.2017 149.143 19.2351C150.198 20.2685 151.018 21.5682 151.604 23.1342C152.19 24.6896 152.483 26.5114 152.483 28.5994V30.4691H131.757V26.2504H146.075C146.075 25.2702 145.862 24.402 145.436 23.6456C145.01 22.8892 144.418 22.2979 143.662 21.8718C142.916 21.435 142.048 21.2166 141.057 21.2166C140.024 21.2166 139.108 21.4563 138.309 21.9357C137.52 22.4045 136.902 23.0384 136.455 23.8374C136.007 24.6257 135.778 25.5046 135.768 26.4741V30.4851C135.768 31.6996 135.991 32.7489 136.439 33.6332C136.897 34.5174 137.542 35.1992 138.372 35.6786C139.203 36.158 140.189 36.3977 141.329 36.3977C142.085 36.3977 142.778 36.2912 143.406 36.0781C144.035 35.8651 144.573 35.5455 145.02 35.1193C145.468 34.6932 145.809 34.1712 146.043 33.5533L152.339 33.9688C152.02 35.4815 151.364 36.8026 150.374 37.9318C149.393 39.0504 148.126 39.924 146.57 40.5526C145.026 41.1705 143.241 41.4794 141.217 41.4794ZM155.575 41V16.4545H162.175V20.7372H162.431C162.878 19.2138 163.629 18.0632 164.684 17.2855C165.739 16.4972 166.953 16.103 168.328 16.103C168.668 16.103 169.036 16.1243 169.43 16.1669C169.824 16.2095 170.171 16.2681 170.469 16.3427V22.3832C170.149 22.2873 169.707 22.2021 169.143 22.1275C168.578 22.0529 168.061 22.0156 167.592 22.0156C166.591 22.0156 165.696 22.234 164.908 22.6708C164.13 23.0969 163.512 23.6935 163.054 24.4606C162.607 25.2276 162.383 26.1119 162.383 27.1133V41H155.575Z" fill="url(#paint0_linear_55_300)"/>
<defs>
<linearGradient id="paint0_linear_55_300" x1="172" y1="25" x2="48" y2="25" gradientUnits="userSpaceOnUse">
<stop stop-color="#9747FF"/>
<stop offset="0.529699" stop-color="#EC631E"/>
<stop offset="1" stop-color="#FFCF01"/>
</linearGradient>
</defs>
</svg>
