<svg width="289" height="53" viewBox="0 0 289 53" fill="none" xmlns="http://www.w3.org/2000/svg">
<rect y="4.5" width="41" height="41" rx="9" fill="#FFCF01"/>
<path d="M23.8313 20.5583C23.8313 18.5705 23.8313 17.5766 24.2836 16.8491C24.5266 16.4584 24.8563 16.1287 25.247 15.8857C25.9746 15.4333 26.9685 15.4333 28.9563 15.4333V15.4333C30.9441 15.4333 31.938 15.4333 32.6655 15.8857C33.0562 16.1287 33.3859 16.4584 33.6289 16.8491C34.0813 17.5766 34.0813 18.5705 34.0813 20.5583V31.3C34.0813 34.1284 34.0813 35.5426 33.2026 36.4213C32.3239 37.3 30.9097 37.3 28.0813 37.3H23.8313V20.5583Z" fill="#353A45"/>
<rect x="6.91875" y="19.5333" width="8.2" height="17.7667" rx="3" fill="#474D5D"/>
<path d="M9.99375 20.5583C9.99375 18.5705 9.99375 17.5766 10.4461 16.8491C10.6891 16.4584 11.0188 16.1287 11.4095 15.8857C12.1371 15.4333 13.131 15.4333 15.1187 15.4333V15.4333C17.1065 15.4333 18.1004 15.4333 18.828 15.8857C19.2187 16.1287 19.5484 16.4584 19.7914 16.8491C20.2437 17.5766 20.2437 18.5705 20.2437 20.5583V37.3H9.99375V20.5583Z" fill="#353A45"/>
<path d="M16.3146 18.7C16.3146 15.8716 16.3146 14.4574 17.1933 13.5787C18.0719 12.7 19.4862 12.7 22.3146 12.7H23.9812C26.8097 12.7 28.2239 12.7 29.1026 13.5787C29.9812 14.4574 29.9812 15.8716 29.9812 18.7V37.3H16.3146V18.7Z" fill="#24292F"/>
<path d="M23.2333 28.8267C22.0933 28.6362 20.5 27.87 20.5 27.87C20.5 27.87 21.7583 29.7833 23.2333 29.7833C24.7083 29.7833 25.9667 28.8267 25.9667 28.8267C25.9667 28.8267 24.2641 28.9989 23.2333 28.8267Z" fill="#FFCF01"/>
<ellipse cx="26.5361" cy="23.6846" rx="1.025" ry="1.07625" fill="#FFCF01"/>
<ellipse cx="19.9306" cy="23.6846" rx="1.025" ry="1.07625" fill="#FFCF01"/>
<path d="M80.233 7.09091V42H73.858L58.6705 20.0284H58.4148V42H51.0341V7.09091H57.5114L72.5795 29.0455H72.8864V7.09091H80.233ZM93.6605 42.4943C91.9901 42.4943 90.5014 42.2045 89.1946 41.625C87.8878 41.0341 86.8537 40.1648 86.0923 39.017C85.3423 37.858 84.9673 36.4148 84.9673 34.6875C84.9673 33.233 85.2344 32.0114 85.7685 31.0227C86.3026 30.0341 87.0298 29.2386 87.9503 28.6364C88.8707 28.0341 89.9162 27.5795 91.0866 27.2727C92.2685 26.9659 93.5071 26.75 94.8026 26.625C96.3253 26.4659 97.5526 26.3182 98.4844 26.1818C99.4162 26.0341 100.092 25.8182 100.513 25.5341C100.933 25.25 101.143 24.8295 101.143 24.2727V24.1705C101.143 23.0909 100.803 22.2557 100.121 21.6648C99.4503 21.0739 98.4957 20.7784 97.2571 20.7784C95.9503 20.7784 94.9105 21.0682 94.1378 21.6477C93.3651 22.2159 92.8537 22.9318 92.6037 23.7955L85.8878 23.25C86.2287 21.6591 86.8991 20.2841 87.8991 19.125C88.8991 17.9545 90.1889 17.0568 91.7685 16.4318C93.3594 15.7955 95.2003 15.4773 97.2912 15.4773C98.7457 15.4773 100.138 15.6477 101.467 15.9886C102.808 16.3295 103.996 16.858 105.03 17.5739C106.075 18.2898 106.899 19.2102 107.501 20.3352C108.104 21.4489 108.405 22.7841 108.405 24.3409V42H101.518V38.3693H101.314C100.893 39.1875 100.331 39.9091 99.6264 40.5341C98.9219 41.1477 98.0753 41.6307 97.0866 41.983C96.098 42.3239 94.956 42.4943 93.6605 42.4943ZM95.7401 37.483C96.8082 37.483 97.7514 37.2727 98.5696 36.8523C99.3878 36.4205 100.03 35.8409 100.496 35.1136C100.962 34.3864 101.195 33.5625 101.195 32.642V29.8636C100.967 30.0114 100.655 30.1477 100.257 30.2727C99.8707 30.3864 99.4332 30.4943 98.9446 30.5966C98.456 30.6875 97.9673 30.7727 97.4787 30.8523C96.9901 30.9205 96.5469 30.983 96.1491 31.0398C95.2969 31.1648 94.5526 31.3636 93.9162 31.6364C93.2798 31.9091 92.7855 32.2784 92.4332 32.7443C92.081 33.1989 91.9048 33.767 91.9048 34.4489C91.9048 35.4375 92.2628 36.1932 92.9787 36.7159C93.706 37.2273 94.6264 37.483 95.7401 37.483ZM137.51 15.8182L128.357 42H120.175L111.021 15.8182H118.692L124.129 34.5511H124.402L129.822 15.8182H137.51ZM141.226 42V15.8182H148.487V42H141.226ZM144.874 12.4432C143.794 12.4432 142.868 12.0852 142.095 11.3693C141.334 10.642 140.953 9.77273 140.953 8.76136C140.953 7.76136 141.334 6.90341 142.095 6.1875C142.868 5.46023 143.794 5.09659 144.874 5.09659C145.953 5.09659 146.874 5.46023 147.635 6.1875C148.408 6.90341 148.794 7.76136 148.794 8.76136C148.794 9.77273 148.408 10.642 147.635 11.3693C146.874 12.0852 145.953 12.4432 144.874 12.4432ZM166.099 52.3636C163.747 52.3636 161.73 52.0398 160.048 51.392C158.378 50.7557 157.048 49.8864 156.06 48.7841C155.071 47.6818 154.429 46.4432 154.134 45.0682L160.849 44.1648C161.054 44.6875 161.378 45.1761 161.821 45.6307C162.264 46.0852 162.849 46.4489 163.577 46.7216C164.315 47.0057 165.213 47.1477 166.27 47.1477C167.849 47.1477 169.151 46.7614 170.173 45.9886C171.207 45.2273 171.724 43.9489 171.724 42.1534V37.3636H171.418C171.099 38.0909 170.622 38.7784 169.986 39.4261C169.349 40.0739 168.531 40.6023 167.531 41.0114C166.531 41.4205 165.338 41.625 163.952 41.625C161.986 41.625 160.196 41.1705 158.582 40.2614C156.98 39.3409 155.702 37.9375 154.747 36.0511C153.804 34.1534 153.332 31.7557 153.332 28.858C153.332 25.892 153.815 23.4148 154.781 21.4261C155.747 19.4375 157.031 17.9489 158.634 16.9602C160.247 15.9716 162.014 15.4773 163.935 15.4773C165.401 15.4773 166.628 15.7273 167.616 16.2273C168.605 16.7159 169.401 17.3295 170.003 18.0682C170.616 18.7955 171.088 19.5114 171.418 20.2159H171.69V15.8182H178.901V42.2557C178.901 44.483 178.355 46.3466 177.264 47.8466C176.173 49.3466 174.662 50.4716 172.73 51.2216C170.81 51.983 168.599 52.3636 166.099 52.3636ZM166.253 36.1705C167.423 36.1705 168.412 35.8807 169.219 35.3011C170.037 34.7102 170.662 33.8693 171.094 32.7784C171.537 31.6761 171.759 30.358 171.759 28.8239C171.759 27.2898 171.543 25.9602 171.111 24.8352C170.679 23.6989 170.054 22.8182 169.236 22.1932C168.418 21.5682 167.423 21.2557 166.253 21.2557C165.06 21.2557 164.054 21.5795 163.236 22.2273C162.418 22.8636 161.798 23.75 161.378 24.8864C160.957 26.0227 160.747 27.3352 160.747 28.8239C160.747 30.3352 160.957 31.642 161.378 32.7443C161.81 33.8352 162.429 34.6818 163.236 35.2841C164.054 35.875 165.06 36.1705 166.253 36.1705ZM192.145 42.4943C190.474 42.4943 188.986 42.2045 187.679 41.625C186.372 41.0341 185.338 40.1648 184.577 39.017C183.827 37.858 183.452 36.4148 183.452 34.6875C183.452 33.233 183.719 32.0114 184.253 31.0227C184.787 30.0341 185.514 29.2386 186.435 28.6364C187.355 28.0341 188.401 27.5795 189.571 27.2727C190.753 26.9659 191.991 26.75 193.287 26.625C194.81 26.4659 196.037 26.3182 196.969 26.1818C197.901 26.0341 198.577 25.8182 198.997 25.5341C199.418 25.25 199.628 24.8295 199.628 24.2727V24.1705C199.628 23.0909 199.287 22.2557 198.605 21.6648C197.935 21.0739 196.98 20.7784 195.741 20.7784C194.435 20.7784 193.395 21.0682 192.622 21.6477C191.849 22.2159 191.338 22.9318 191.088 23.7955L184.372 23.25C184.713 21.6591 185.384 20.2841 186.384 19.125C187.384 17.9545 188.673 17.0568 190.253 16.4318C191.844 15.7955 193.685 15.4773 195.776 15.4773C197.23 15.4773 198.622 15.6477 199.952 15.9886C201.293 16.3295 202.48 16.858 203.514 17.5739C204.56 18.2898 205.384 19.2102 205.986 20.3352C206.588 21.4489 206.889 22.7841 206.889 24.3409V42H200.003V38.3693H199.798C199.378 39.1875 198.815 39.9091 198.111 40.5341C197.406 41.1477 196.56 41.6307 195.571 41.983C194.582 42.3239 193.44 42.4943 192.145 42.4943ZM194.224 37.483C195.293 37.483 196.236 37.2727 197.054 36.8523C197.872 36.4205 198.514 35.8409 198.98 35.1136C199.446 34.3864 199.679 33.5625 199.679 32.642V29.8636C199.452 30.0114 199.139 30.1477 198.741 30.2727C198.355 30.3864 197.918 30.4943 197.429 30.5966C196.94 30.6875 196.452 30.7727 195.963 30.8523C195.474 30.9205 195.031 30.983 194.634 31.0398C193.781 31.1648 193.037 31.3636 192.401 31.6364C191.764 31.9091 191.27 32.2784 190.918 32.7443C190.565 33.1989 190.389 33.767 190.389 34.4489C190.389 35.4375 190.747 36.1932 191.463 36.7159C192.19 37.2273 193.111 37.483 194.224 37.483ZM226.449 15.8182V21.2727H210.682V15.8182H226.449ZM214.261 9.54545H221.523V33.9545C221.523 34.625 221.625 35.1477 221.83 35.5227C222.034 35.8864 222.318 36.142 222.682 36.2898C223.057 36.4375 223.489 36.5114 223.977 36.5114C224.318 36.5114 224.659 36.483 225 36.4261C225.341 36.358 225.602 36.3068 225.784 36.2727L226.926 41.6761C226.563 41.7898 226.051 41.9205 225.392 42.0682C224.733 42.2273 223.932 42.3239 222.989 42.358C221.239 42.4261 219.705 42.1932 218.386 41.6591C217.08 41.125 216.063 40.2955 215.335 39.1705C214.608 38.0455 214.25 36.625 214.261 34.9091V9.54545ZM245.105 15.8182V21.2727H229.338V15.8182H245.105ZM232.918 9.54545H240.179V33.9545C240.179 34.625 240.281 35.1477 240.486 35.5227C240.69 35.8864 240.974 36.142 241.338 36.2898C241.713 36.4375 242.145 36.5114 242.634 36.5114C242.974 36.5114 243.315 36.483 243.656 36.4261C243.997 36.358 244.259 36.3068 244.44 36.2727L245.582 41.6761C245.219 41.7898 244.707 41.9205 244.048 42.0682C243.389 42.2273 242.588 42.3239 241.645 42.358C239.895 42.4261 238.361 42.1932 237.043 41.6591C235.736 41.125 234.719 40.2955 233.991 39.1705C233.264 38.0455 232.906 36.625 232.918 34.9091V9.54545ZM249.835 42V15.8182H257.097V42H249.835ZM253.483 12.4432C252.403 12.4432 251.477 12.0852 250.705 11.3693C249.943 10.642 249.562 9.77273 249.562 8.76136C249.562 7.76136 249.943 6.90341 250.705 6.1875C251.477 5.46023 252.403 5.09659 253.483 5.09659C254.563 5.09659 255.483 5.46023 256.244 6.1875C257.017 6.90341 257.403 7.76136 257.403 8.76136C257.403 9.77273 257.017 10.642 256.244 11.3693C255.483 12.0852 254.563 12.4432 253.483 12.4432ZM274.845 42.5114C272.152 42.5114 269.834 41.9659 267.891 40.875C265.959 39.7727 264.47 38.2159 263.425 36.2045C262.379 34.1818 261.857 31.7898 261.857 29.0284C261.857 26.3352 262.379 23.9716 263.425 21.9375C264.47 19.9034 265.942 18.3182 267.839 17.1818C269.749 16.0455 271.987 15.4773 274.555 15.4773C276.283 15.4773 277.891 15.7557 279.379 16.3125C280.879 16.858 282.186 17.6818 283.3 18.7841C284.425 19.8864 285.3 21.2727 285.925 22.9432C286.55 24.6023 286.862 26.5455 286.862 28.7727V30.767H264.754V26.267H280.027C280.027 25.2216 279.8 24.2955 279.345 23.4886C278.891 22.6818 278.26 22.0511 277.453 21.5966C276.658 21.1307 275.732 20.8977 274.675 20.8977C273.572 20.8977 272.595 21.1534 271.743 21.6648C270.902 22.1648 270.243 22.8409 269.766 23.6932C269.288 24.5341 269.044 25.4716 269.033 26.5057V30.7841C269.033 32.0795 269.271 33.1989 269.749 34.142C270.237 35.0852 270.925 35.8125 271.811 36.3239C272.697 36.8352 273.749 37.0909 274.964 37.0909C275.771 37.0909 276.51 36.9773 277.18 36.75C277.851 36.5227 278.425 36.1818 278.902 35.7273C279.379 35.2727 279.743 34.7159 279.993 34.0568L286.709 34.5C286.368 36.1136 285.669 37.5227 284.612 38.7273C283.567 39.9205 282.214 40.8523 280.555 41.5227C278.908 42.1818 277.004 42.5114 274.845 42.5114Z" fill="url(#paint0_linear_4_2860)"/>
<defs>
<linearGradient id="paint0_linear_4_2860" x1="168.5" y1="-4" x2="168.5" y2="54" gradientUnits="userSpaceOnUse">
<stop stop-color="#24292F"/>
<stop offset="1" stop-color="#40464D"/>
</linearGradient>
</defs>
</svg>
