<svg width="1280" height="387" viewBox="0 0 1280 387" fill="none" xmlns="http://www.w3.org/2000/svg">
<rect x="1" y="1" width="1278" height="385" rx="25" fill="#0D0D0E"/>
<rect x="1" y="1" width="1278" height="385" rx="25" stroke="#262629" stroke-width="2"/>
<path d="M42.968 66C42.128 66 41.82 65.72 41.82 64.852V47.268C41.82 46.4 42.128 46.12 42.968 46.12H50.472C54.644 46.12 57.332 48.64 57.332 52.84C57.332 57.04 54.7 59.532 50.472 59.532H46.384V64.852C46.384 65.72 46.076 66 45.236 66H42.968ZM46.384 55.36H49.996C51.648 55.36 52.6 54.436 52.6 52.84C52.6 51.244 51.648 50.264 49.996 50.264H46.384V55.36ZM60.4848 66C59.7288 66 59.4488 65.748 59.4488 64.964V53.932C59.4488 53.008 59.6728 52.644 60.5688 52.308C61.6328 51.888 63.3688 51.44 65.9728 51.44H66.8688C67.6528 51.44 67.9048 51.692 67.9048 52.476V54.212C67.9048 54.968 67.6528 55.22 66.8688 55.22H65.8328C65.0488 55.22 64.4608 55.276 63.8448 55.416C63.7048 55.444 63.6768 55.528 63.6768 55.612V64.964C63.6768 65.748 63.4248 66 62.6688 66H60.4848ZM75.8107 66.42C70.9947 66.42 69.1187 63.732 69.1187 60.204V57.236C69.1187 53.204 71.4987 51.02 75.8387 51.02C80.4867 51.02 82.5867 53.708 82.5867 56.928V58.636C82.5867 59.476 82.2227 60.036 81.1307 60.036H73.3467V60.736C73.3467 62.248 74.2987 62.948 75.8667 62.948C77.1827 62.948 78.0227 62.5 78.5267 61.828C79.0027 61.184 79.3387 61.072 80.1507 61.492L81.5227 62.164C82.3067 62.556 82.4467 63.06 81.9707 63.816C80.9627 65.468 79.0027 66.42 75.8107 66.42ZM73.3467 56.984H78.3587V56.536C78.3587 55.136 77.4907 54.38 75.8387 54.38C74.2147 54.38 73.3467 55.136 73.3467 56.536V56.984ZM90.8686 66.42C87.4526 66.42 85.2966 65.188 84.4846 63.088C84.1766 62.36 84.4006 61.94 85.1286 61.688L86.8366 61.128C87.5646 60.876 87.8726 60.988 88.2086 61.716C88.5726 62.444 89.3006 62.808 90.7566 62.808C92.3806 62.808 93.1646 62.416 93.1646 61.632C93.1646 60.68 92.3806 60.484 90.1966 60.288C87.2566 60.008 84.4846 59.252 84.4846 55.696C84.4846 52.952 86.4726 51.02 90.4766 51.02C93.8366 51.02 95.7126 52.168 96.6926 54.016C97.0846 54.772 96.8886 55.164 96.1326 55.5L94.4806 56.2C93.6966 56.536 93.5006 56.396 93.0526 55.752C92.6606 55.136 92.0446 54.66 90.6166 54.66C89.1046 54.66 88.5446 55.024 88.5446 55.696C88.5446 56.564 89.3006 56.788 91.2606 56.956C95.0126 57.32 97.1966 58.216 97.1966 61.548C97.1966 64.432 94.9566 66.42 90.8686 66.42ZM105.752 66.42C100.936 66.42 99.0601 63.732 99.0601 60.204V57.236C99.0601 53.204 101.44 51.02 105.78 51.02C110.428 51.02 112.528 53.708 112.528 56.928V58.636C112.528 59.476 112.164 60.036 111.072 60.036H103.288V60.736C103.288 62.248 104.24 62.948 105.808 62.948C107.124 62.948 107.964 62.5 108.468 61.828C108.944 61.184 109.28 61.072 110.092 61.492L111.464 62.164C112.248 62.556 112.388 63.06 111.912 63.816C110.904 65.468 108.944 66.42 105.752 66.42ZM103.288 56.984H108.3V56.536C108.3 55.136 107.432 54.38 105.78 54.38C104.156 54.38 103.288 55.136 103.288 56.536V56.984ZM115.938 66C115.154 66 114.902 65.748 114.902 64.964V53.652C114.902 52.728 115.098 52.392 116.022 52.028C117.198 51.552 118.962 51.02 121.734 51.02C125.878 51.02 127.782 53.148 127.782 56.816V64.964C127.782 65.748 127.53 66 126.774 66H124.59C123.834 66 123.554 65.748 123.554 64.964V56.956C123.554 55.5 122.77 54.856 121.174 54.856C120.418 54.856 119.802 54.94 119.214 55.08C119.186 55.108 119.13 55.136 119.13 55.192V64.964C119.13 65.748 118.878 66 118.094 66H115.938ZM138.801 66C133.901 66 131.997 64.572 131.997 59.644V55.192H130.513C129.729 55.192 129.477 54.912 129.477 54.156V52.476C129.477 51.692 129.729 51.44 130.513 51.44H131.997V49.116C131.997 48.332 132.277 48.08 133.033 48.08H135.217C135.973 48.08 136.225 48.332 136.225 49.116V51.44H138.829C139.585 51.44 139.837 51.692 139.837 52.476V54.156C139.837 54.912 139.585 55.192 138.829 55.192H136.225V59.476C136.225 61.688 136.925 62.08 138.801 62.08C139.585 62.08 139.837 62.332 139.837 63.144V64.908C139.837 65.72 139.585 66 138.801 66ZM147.85 66.42C142.782 66.42 141.438 64.796 141.438 61.8C141.438 58.3 143.37 57.236 147.962 57.236C148.718 57.236 149.53 57.292 149.95 57.32V56.648C149.95 55.276 149.362 54.548 147.794 54.548C146.674 54.548 145.974 54.912 145.47 55.584C145.022 56.228 144.798 56.368 144.042 56.032L142.502 55.416C141.774 55.108 141.55 54.716 141.942 53.932C142.922 52.084 144.91 51.02 147.934 51.02C152.666 51.02 154.178 53.484 154.178 56.928V64.04C154.178 65.048 153.954 65.328 153.142 65.664C152.078 66.14 150.258 66.42 147.85 66.42ZM147.542 63.172C148.718 63.172 149.418 63.088 149.754 63.032C149.866 63.004 149.95 62.976 149.95 62.836V60.456C149.418 60.428 148.354 60.372 147.598 60.372C146.002 60.372 145.666 60.988 145.666 61.772C145.666 62.556 145.974 63.172 147.542 63.172ZM165.051 66C160.151 66 158.247 64.572 158.247 59.644V55.192H156.763C155.979 55.192 155.727 54.912 155.727 54.156V52.476C155.727 51.692 155.979 51.44 156.763 51.44H158.247V49.116C158.247 48.332 158.527 48.08 159.283 48.08H161.467C162.223 48.08 162.475 48.332 162.475 49.116V51.44H165.079C165.835 51.44 166.087 51.692 166.087 52.476V54.156C166.087 54.912 165.835 55.192 165.079 55.192H162.475V59.476C162.475 61.688 163.175 62.08 165.051 62.08C165.835 62.08 166.087 62.332 166.087 63.144V64.908C166.087 65.72 165.835 66 165.051 66ZM170.18 49.396C168.668 49.396 168.22 49.004 168.22 47.492V47.212C168.22 45.7 168.668 45.308 170.18 45.308H170.74C172.252 45.308 172.7 45.7 172.7 47.212V47.492C172.7 49.004 172.252 49.396 170.74 49.396H170.18ZM169.368 66C168.612 66 168.332 65.748 168.332 64.964V52.476C168.332 51.692 168.612 51.44 169.368 51.44H171.552C172.308 51.44 172.56 51.692 172.56 52.476V64.964C172.56 65.748 172.308 66 171.552 66H169.368ZM181.85 66.42C177.482 66.42 175.186 64.208 175.186 60.54V56.928C175.186 53.26 177.482 51.02 181.85 51.02C186.274 51.02 188.542 53.26 188.542 56.928V60.54C188.542 64.208 186.274 66.42 181.85 66.42ZM181.85 62.668C183.502 62.668 184.314 61.912 184.314 60.568V56.872C184.314 55.5 183.502 54.772 181.85 54.772C180.226 54.772 179.414 55.5 179.414 56.872V60.568C179.414 61.912 180.226 62.668 181.85 62.668ZM192.145 66C191.361 66 191.109 65.748 191.109 64.964V53.652C191.109 52.728 191.305 52.392 192.229 52.028C193.405 51.552 195.169 51.02 197.941 51.02C202.085 51.02 203.989 53.148 203.989 56.816V64.964C203.989 65.748 203.737 66 202.981 66H200.797C200.041 66 199.761 65.748 199.761 64.964V56.956C199.761 55.5 198.977 54.856 197.381 54.856C196.625 54.856 196.009 54.94 195.421 55.08C195.393 55.108 195.337 55.136 195.337 55.192V64.964C195.337 65.748 195.085 66 194.301 66H192.145ZM218.426 66.42C214.674 66.42 212.042 63.956 212.042 60.26C212.042 57.684 213.554 55.948 215.514 54.856C214.534 53.708 214.03 52.448 214.03 51.02C214.03 48.248 215.934 45.7 219.686 45.7C222.71 45.7 225.09 47.856 225.09 50.74C225.09 53.036 224.026 54.576 221.814 55.752L221.562 55.892L224.026 58.58L225.594 57.04C226.042 56.564 226.518 56.564 226.966 57.04L228.478 58.552C228.842 58.944 228.898 59.28 228.394 59.756L226.714 61.436L230.046 64.992C230.606 65.608 230.494 66 229.57 66H226.854C226.098 66 225.79 65.888 225.342 65.412L224.026 64.04C221.982 65.916 220.442 66.42 218.426 66.42ZM218.958 53.12L219.938 52.616C220.862 52.112 221.254 51.58 221.254 50.74C221.254 49.872 220.582 49.2 219.686 49.2C218.51 49.2 217.922 50.04 217.922 50.964C217.922 51.692 218.09 52.168 218.958 53.12ZM218.65 62.584C219.91 62.584 220.666 61.856 221.394 61.156L218.118 57.656C216.634 58.412 216.214 59.448 216.214 60.344C216.214 61.688 217.25 62.584 218.65 62.584ZM239.241 66C238.401 66 238.093 65.72 238.093 64.852V47.268C238.093 46.4 238.401 46.12 239.241 46.12H245.793C251.113 46.12 254.053 49.004 254.053 53.652V58.468C254.053 63.116 251.113 66 245.793 66H239.241ZM242.657 61.856H245.765C248.229 61.856 249.517 60.708 249.517 58.468V53.652C249.517 51.412 248.229 50.264 245.765 50.264H242.657V61.856ZM258.719 49.396C257.207 49.396 256.759 49.004 256.759 47.492V47.212C256.759 45.7 257.207 45.308 258.719 45.308H259.279C260.791 45.308 261.239 45.7 261.239 47.212V47.492C261.239 49.004 260.791 49.396 259.279 49.396H258.719ZM257.907 66C257.151 66 256.871 65.748 256.871 64.964V52.476C256.871 51.692 257.151 51.44 257.907 51.44H260.091C260.847 51.44 261.099 51.692 261.099 52.476V64.964C261.099 65.748 260.847 66 260.091 66H257.907ZM270.025 66.42C266.609 66.42 264.453 65.188 263.641 63.088C263.333 62.36 263.557 61.94 264.285 61.688L265.993 61.128C266.721 60.876 267.029 60.988 267.365 61.716C267.729 62.444 268.457 62.808 269.913 62.808C271.537 62.808 272.321 62.416 272.321 61.632C272.321 60.68 271.537 60.484 269.353 60.288C266.413 60.008 263.641 59.252 263.641 55.696C263.641 52.952 265.629 51.02 269.633 51.02C272.993 51.02 274.869 52.168 275.849 54.016C276.241 54.772 276.045 55.164 275.289 55.5L273.637 56.2C272.853 56.536 272.657 56.396 272.209 55.752C271.817 55.136 271.201 54.66 269.773 54.66C268.261 54.66 267.701 55.024 267.701 55.696C267.701 56.564 268.457 56.788 270.417 56.956C274.169 57.32 276.353 58.216 276.353 61.548C276.353 64.432 274.113 66.42 270.025 66.42ZM279.672 66C278.888 66 278.636 65.748 278.636 64.964V53.652C278.636 52.728 278.832 52.392 279.756 52.028C280.932 51.552 282.556 51.02 285.216 51.02C286.616 51.02 287.764 51.3 288.632 51.804C289.724 51.384 291.18 51.02 293.336 51.02C297.34 51.02 299.104 53.148 299.104 56.816V64.964C299.104 65.748 298.852 66 298.068 66H295.912C295.128 66 294.876 65.748 294.876 64.964V56.928C294.876 55.556 294.148 54.856 292.748 54.856C292.076 54.856 291.404 54.968 290.816 55.136C290.928 55.64 290.984 56.228 290.984 56.844V64.964C290.984 65.748 290.732 66 289.948 66H287.792C287.008 66 286.756 65.748 286.756 64.964V56.928C286.756 55.556 286.028 54.856 284.628 54.856C284.04 54.856 283.536 54.912 282.976 55.052C282.892 55.08 282.864 55.136 282.864 55.22V64.964C282.864 65.748 282.612 66 281.828 66H279.672ZM303.864 49.396C302.352 49.396 301.904 49.004 301.904 47.492V47.212C301.904 45.7 302.352 45.308 303.864 45.308H304.424C305.936 45.308 306.384 45.7 306.384 47.212V47.492C306.384 49.004 305.936 49.396 304.424 49.396H303.864ZM303.052 66C302.296 66 302.016 65.748 302.016 64.964V52.476C302.016 51.692 302.296 51.44 303.052 51.44H305.236C305.992 51.44 306.244 51.692 306.244 52.476V64.964C306.244 65.748 305.992 66 305.236 66H303.052ZM315.169 66.42C311.753 66.42 309.597 65.188 308.785 63.088C308.477 62.36 308.701 61.94 309.429 61.688L311.137 61.128C311.865 60.876 312.173 60.988 312.509 61.716C312.873 62.444 313.601 62.808 315.057 62.808C316.681 62.808 317.465 62.416 317.465 61.632C317.465 60.68 316.681 60.484 314.497 60.288C311.557 60.008 308.785 59.252 308.785 55.696C308.785 52.952 310.773 51.02 314.777 51.02C318.137 51.02 320.013 52.168 320.993 54.016C321.385 54.772 321.189 55.164 320.433 55.5L318.781 56.2C317.997 56.536 317.801 56.396 317.353 55.752C316.961 55.136 316.345 54.66 314.917 54.66C313.405 54.66 312.845 55.024 312.845 55.696C312.845 56.564 313.601 56.788 315.561 56.956C319.313 57.32 321.497 58.216 321.497 61.548C321.497 64.432 319.257 66.42 315.169 66.42ZM329.689 66.42C326.273 66.42 324.117 65.188 323.305 63.088C322.997 62.36 323.221 61.94 323.949 61.688L325.657 61.128C326.385 60.876 326.693 60.988 327.029 61.716C327.393 62.444 328.121 62.808 329.577 62.808C331.201 62.808 331.985 62.416 331.985 61.632C331.985 60.68 331.201 60.484 329.017 60.288C326.077 60.008 323.305 59.252 323.305 55.696C323.305 52.952 325.293 51.02 329.297 51.02C332.657 51.02 334.533 52.168 335.513 54.016C335.905 54.772 335.709 55.164 334.953 55.5L333.301 56.2C332.517 56.536 332.321 56.396 331.873 55.752C331.481 55.136 330.865 54.66 329.437 54.66C327.925 54.66 327.365 55.024 327.365 55.696C327.365 56.564 328.121 56.788 330.081 56.956C333.833 57.32 336.017 58.216 336.017 61.548C336.017 64.432 333.777 66.42 329.689 66.42ZM340.176 49.396C338.664 49.396 338.216 49.004 338.216 47.492V47.212C338.216 45.7 338.664 45.308 340.176 45.308H340.736C342.248 45.308 342.696 45.7 342.696 47.212V47.492C342.696 49.004 342.248 49.396 340.736 49.396H340.176ZM339.364 66C338.608 66 338.328 65.748 338.328 64.964V52.476C338.328 51.692 338.608 51.44 339.364 51.44H341.548C342.304 51.44 342.556 51.692 342.556 52.476V64.964C342.556 65.748 342.304 66 341.548 66H339.364ZM346.61 66C345.826 66 345.574 65.748 345.574 64.964V53.652C345.574 52.728 345.77 52.392 346.694 52.028C347.87 51.552 349.634 51.02 352.406 51.02C356.55 51.02 358.454 53.148 358.454 56.816V64.964C358.454 65.748 358.202 66 357.446 66H355.262C354.506 66 354.226 65.748 354.226 64.964V56.956C354.226 55.5 353.442 54.856 351.846 54.856C351.09 54.856 350.474 54.94 349.886 55.08C349.858 55.108 349.802 55.136 349.802 55.192V64.964C349.802 65.748 349.55 66 348.766 66H346.61ZM367.483 72.44C364.403 72.44 362.527 71.488 361.463 69.836C360.987 69.08 361.155 68.576 361.911 68.184L363.479 67.372C364.263 66.952 364.627 67.092 365.103 67.736C365.607 68.408 366.251 68.8 367.399 68.8C368.855 68.8 369.639 68.044 369.639 66.532V65.328C368.855 65.496 367.987 65.608 367.035 65.608C362.891 65.608 360.987 63.48 360.987 59.812V57.096C360.987 53.148 363.115 51.02 367.539 51.02C369.919 51.02 371.851 51.468 372.831 51.944C373.755 52.364 373.867 52.588 373.867 53.512V66.224C373.867 69.892 372.047 72.44 367.483 72.44ZM367.567 61.828C368.351 61.828 369.079 61.744 369.639 61.632V55.164C369.639 55.08 369.611 55.024 369.527 54.996C369.023 54.884 368.435 54.8 367.763 54.8C366.027 54.8 365.215 55.528 365.215 57.096V59.784C365.215 61.1 366.083 61.828 367.567 61.828Z" fill="#F1EFEF"/>
<path d="M46.08 144.2C45.2 144.2 44.4267 144.033 43.76 143.7C43.1067 143.367 42.6 142.887 42.24 142.26C41.88 141.62 41.7 140.867 41.7 140V137C41.7 136.12 41.88 135.367 42.24 134.74C42.6 134.113 43.1067 133.633 43.76 133.3C44.4267 132.967 45.2 132.8 46.08 132.8C47.3467 132.8 48.3667 133.14 49.14 133.82C49.9133 134.5 50.32 135.427 50.36 136.6H48.56C48.52 135.893 48.28 135.353 47.84 134.98C47.4133 134.593 46.8267 134.4 46.08 134.4C45.2933 134.4 44.6667 134.627 44.2 135.08C43.7333 135.52 43.5 136.153 43.5 136.98V140C43.5 140.827 43.7333 141.467 44.2 141.92C44.6667 142.373 45.2933 142.6 46.08 142.6C46.8267 142.6 47.4133 142.407 47.84 142.02C48.28 141.633 48.52 141.093 48.56 140.4H50.36C50.32 141.573 49.9133 142.5 49.14 143.18C48.3667 143.86 47.3467 144.2 46.08 144.2ZM59.4922 144C58.8522 144 58.2922 143.873 57.8122 143.62C57.3322 143.367 56.9589 143.007 56.6922 142.54C56.4255 142.073 56.2922 141.527 56.2922 140.9V131.04H52.5922V129.4H58.0922V140.9C58.0922 141.353 58.2189 141.713 58.4722 141.98C58.7255 142.233 59.0655 142.36 59.4922 142.36H62.9922V144H59.4922ZM69.0244 144.2C67.8644 144.2 66.951 143.907 66.2844 143.32C65.6177 142.72 65.2844 141.913 65.2844 140.9C65.2844 139.873 65.6177 139.067 66.2844 138.48C66.951 137.893 67.851 137.6 68.9844 137.6H72.3844V136.5C72.3844 135.82 72.1777 135.3 71.7644 134.94C71.3644 134.567 70.791 134.38 70.0444 134.38C69.391 134.38 68.8444 134.52 68.4044 134.8C67.9644 135.067 67.711 135.433 67.6444 135.9H65.8444C65.9644 134.953 66.411 134.2 67.1844 133.64C67.9577 133.08 68.9244 132.8 70.0844 132.8C71.351 132.8 72.351 133.127 73.0844 133.78C73.8177 134.433 74.1844 135.32 74.1844 136.44V144H72.4244V141.9H72.1244L72.4244 141.6C72.4244 142.4 72.111 143.033 71.4844 143.5C70.871 143.967 70.051 144.2 69.0244 144.2ZM69.4644 142.78C70.3177 142.78 71.0177 142.567 71.5644 142.14C72.111 141.713 72.3844 141.167 72.3844 140.5V138.94H69.0244C68.4244 138.94 67.951 139.107 67.6044 139.44C67.2577 139.773 67.0844 140.227 67.0844 140.8C67.0844 141.413 67.291 141.9 67.7044 142.26C68.131 142.607 68.7177 142.78 69.4644 142.78ZM81.6366 144.16C80.8899 144.16 80.2366 144.047 79.6766 143.82C79.1299 143.58 78.6899 143.247 78.3566 142.82C78.0366 142.393 77.8432 141.887 77.7766 141.3H79.5766C79.6566 141.687 79.8699 141.993 80.2166 142.22C80.5766 142.447 81.0499 142.56 81.6366 142.56H82.4766C83.1832 142.56 83.7099 142.42 84.0566 142.14C84.4032 141.847 84.5766 141.46 84.5766 140.98C84.5766 140.513 84.4166 140.147 84.0966 139.88C83.7899 139.6 83.3299 139.413 82.7166 139.32L81.2366 139.08C80.1566 138.893 79.3499 138.56 78.8166 138.08C78.2966 137.587 78.0366 136.873 78.0366 135.94C78.0366 134.953 78.3499 134.193 78.9766 133.66C79.6032 133.113 80.5432 132.84 81.7966 132.84H82.5566C83.6099 132.84 84.4566 133.087 85.0966 133.58C85.7366 134.073 86.1232 134.74 86.2566 135.58H84.4566C84.3766 135.233 84.1766 134.96 83.8566 134.76C83.5366 134.547 83.1032 134.44 82.5566 134.44H81.7966C81.1166 134.44 80.6166 134.567 80.2966 134.82C79.9899 135.073 79.8366 135.453 79.8366 135.96C79.8366 136.413 79.9699 136.747 80.2366 136.96C80.5032 137.173 80.9232 137.327 81.4966 137.42L82.9766 137.66C84.1632 137.847 85.0232 138.193 85.5566 138.7C86.1032 139.207 86.3766 139.94 86.3766 140.9C86.3766 141.913 86.0499 142.713 85.3966 143.3C84.7566 143.873 83.7832 144.16 82.4766 144.16H81.6366ZM93.6288 144.16C92.8821 144.16 92.2288 144.047 91.6688 143.82C91.1221 143.58 90.6821 143.247 90.3488 142.82C90.0288 142.393 89.8354 141.887 89.7688 141.3H91.5688C91.6488 141.687 91.8621 141.993 92.2088 142.22C92.5688 142.447 93.0421 142.56 93.6288 142.56H94.4688C95.1754 142.56 95.7021 142.42 96.0488 142.14C96.3954 141.847 96.5688 141.46 96.5688 140.98C96.5688 140.513 96.4088 140.147 96.0888 139.88C95.7821 139.6 95.3221 139.413 94.7088 139.32L93.2288 139.08C92.1488 138.893 91.3421 138.56 90.8088 138.08C90.2888 137.587 90.0288 136.873 90.0288 135.94C90.0288 134.953 90.3421 134.193 90.9688 133.66C91.5954 133.113 92.5354 132.84 93.7888 132.84H94.5488C95.6021 132.84 96.4488 133.087 97.0888 133.58C97.7288 134.073 98.1154 134.74 98.2487 135.58H96.4488C96.3688 135.233 96.1688 134.96 95.8488 134.76C95.5288 134.547 95.0954 134.44 94.5488 134.44H93.7888C93.1088 134.44 92.6088 134.567 92.2888 134.82C91.9821 135.073 91.8288 135.453 91.8288 135.96C91.8288 136.413 91.9621 136.747 92.2288 136.96C92.4954 137.173 92.9154 137.327 93.4888 137.42L94.9688 137.66C96.1554 137.847 97.0154 138.193 97.5488 138.7C98.0954 139.207 98.3688 139.94 98.3688 140.9C98.3688 141.913 98.0421 142.713 97.3888 143.3C96.7488 143.873 95.7754 144.16 94.4688 144.16H93.6288ZM92.3688 172V163.74H89.1688V162.1H92.3688V160.2C92.3688 159.333 92.6421 158.653 93.1888 158.16C93.7354 157.653 94.4888 157.4 95.4488 157.4H98.6688V159.04H95.4488C95.0354 159.04 94.7154 159.14 94.4888 159.34C94.2754 159.527 94.1688 159.813 94.1688 160.2V162.1H98.6688V163.74H94.1688V172H92.3688ZM105.941 172.2C104.674 172.2 103.661 171.827 102.901 171.08C102.141 170.32 101.761 169.293 101.761 168V161H103.561V168C103.561 168.827 103.774 169.473 104.201 169.94C104.628 170.393 105.208 170.62 105.941 170.62C106.688 170.62 107.274 170.393 107.701 169.94C108.141 169.473 108.361 168.827 108.361 168V161H110.161V168C110.161 169.293 109.774 170.32 109.001 171.08C108.228 171.827 107.208 172.2 105.941 172.2ZM113.793 172V161H115.593V163.1H115.973L115.593 163.52C115.593 162.653 115.853 161.987 116.373 161.52C116.893 161.04 117.613 160.8 118.533 160.8C119.64 160.8 120.52 161.14 121.173 161.82C121.826 162.5 122.153 163.427 122.153 164.6V172H120.353V164.8C120.353 164.013 120.14 163.413 119.713 163C119.3 162.573 118.733 162.36 118.013 162.36C117.266 162.36 116.673 162.587 116.233 163.04C115.806 163.493 115.593 164.147 115.593 165V172H113.793ZM130.025 172.2C129.145 172.2 128.372 172.033 127.705 171.7C127.052 171.367 126.545 170.887 126.185 170.26C125.825 169.62 125.645 168.867 125.645 168V165C125.645 164.12 125.825 163.367 126.185 162.74C126.545 162.113 127.052 161.633 127.705 161.3C128.372 160.967 129.145 160.8 130.025 160.8C131.292 160.8 132.312 161.14 133.085 161.82C133.859 162.5 134.265 163.427 134.305 164.6H132.505C132.465 163.893 132.225 163.353 131.785 162.98C131.359 162.593 130.772 162.4 130.025 162.4C129.239 162.4 128.612 162.627 128.145 163.08C127.679 163.52 127.445 164.153 127.445 164.98V168C127.445 168.827 127.679 169.467 128.145 169.92C128.612 170.373 129.239 170.6 130.025 170.6C130.772 170.6 131.359 170.407 131.785 170.02C132.225 169.633 132.465 169.093 132.505 168.4H134.305C134.265 169.573 133.859 170.5 133.085 171.18C132.312 171.86 131.292 172.2 130.025 172.2ZM92.3688 256V247.74H89.1688V246.1H92.3688V244.2C92.3688 243.333 92.6421 242.653 93.1888 242.16C93.7354 241.653 94.4888 241.4 95.4488 241.4H98.6688V243.04H95.4488C95.0354 243.04 94.7154 243.14 94.4888 243.34C94.2754 243.527 94.1688 243.813 94.1688 244.2V246.1H98.6688V247.74H94.1688V256H92.3688ZM105.941 256.2C104.674 256.2 103.661 255.827 102.901 255.08C102.141 254.32 101.761 253.293 101.761 252V245H103.561V252C103.561 252.827 103.774 253.473 104.201 253.94C104.628 254.393 105.208 254.62 105.941 254.62C106.688 254.62 107.274 254.393 107.701 253.94C108.141 253.473 108.361 252.827 108.361 252V245H110.161V252C110.161 253.293 109.774 254.32 109.001 255.08C108.228 255.827 107.208 256.2 105.941 256.2ZM113.793 256V245H115.593V247.1H115.973L115.593 247.52C115.593 246.653 115.853 245.987 116.373 245.52C116.893 245.04 117.613 244.8 118.533 244.8C119.64 244.8 120.52 245.14 121.173 245.82C121.826 246.5 122.153 247.427 122.153 248.6V256H120.353V248.8C120.353 248.013 120.14 247.413 119.713 247C119.3 246.573 118.733 246.36 118.013 246.36C117.266 246.36 116.673 246.587 116.233 247.04C115.806 247.493 115.593 248.147 115.593 249V256H113.793ZM130.025 256.2C129.145 256.2 128.372 256.033 127.705 255.7C127.052 255.367 126.545 254.887 126.185 254.26C125.825 253.62 125.645 252.867 125.645 252V249C125.645 248.12 125.825 247.367 126.185 246.74C126.545 246.113 127.052 245.633 127.705 245.3C128.372 244.967 129.145 244.8 130.025 244.8C131.292 244.8 132.312 245.14 133.085 245.82C133.859 246.5 134.265 247.427 134.305 248.6H132.505C132.465 247.893 132.225 247.353 131.785 246.98C131.359 246.593 130.772 246.4 130.025 246.4C129.239 246.4 128.612 246.627 128.145 247.08C127.679 247.52 127.445 248.153 127.445 248.98V252C127.445 252.827 127.679 253.467 128.145 253.92C128.612 254.373 129.239 254.6 130.025 254.6C130.772 254.6 131.359 254.407 131.785 254.02C132.225 253.633 132.465 253.093 132.505 252.4H134.305C134.265 253.573 133.859 254.5 133.085 255.18C132.312 255.86 131.292 256.2 130.025 256.2Z" fill="#FF7AB2"/>
<path d="M225.883 135.8C225.389 135.8 224.989 135.667 224.683 135.4C224.376 135.12 224.223 134.753 224.223 134.3C224.223 133.847 224.376 133.487 224.683 133.22C224.989 132.94 225.389 132.8 225.883 132.8C226.389 132.8 226.789 132.94 227.083 133.22C227.389 133.487 227.543 133.847 227.543 134.3C227.543 134.753 227.389 135.12 227.083 135.4C226.789 135.667 226.389 135.8 225.883 135.8ZM225.883 144.2C225.389 144.2 224.989 144.067 224.683 143.8C224.376 143.52 224.223 143.153 224.223 142.7C224.223 142.247 224.376 141.887 224.683 141.62C224.989 141.34 225.389 141.2 225.883 141.2C226.389 141.2 226.789 141.34 227.083 141.62C227.389 141.887 227.543 142.247 227.543 142.7C227.543 143.153 227.389 143.52 227.083 143.8C226.789 144.067 226.389 144.2 225.883 144.2ZM457.134 146.2C456.348 146.2 455.668 146.067 455.094 145.8C454.534 145.547 454.108 145.167 453.814 144.66C453.521 144.167 453.394 143.573 453.434 142.88L453.634 139.6C453.674 138.893 453.568 138.387 453.314 138.08C453.061 137.76 452.501 137.6 451.634 137.6H449.434V136H451.634C452.501 136 453.061 135.847 453.314 135.54C453.568 135.22 453.674 134.707 453.634 134L453.434 130.72C453.394 130.013 453.521 129.413 453.814 128.92C454.108 128.427 454.534 128.053 455.094 127.8C455.668 127.533 456.348 127.4 457.134 127.4H458.034V129H457.134C456.508 129 456.028 129.147 455.694 129.44C455.361 129.72 455.208 130.147 455.234 130.72L455.434 134C455.488 134.867 455.281 135.56 454.814 136.08C454.348 136.587 453.688 136.84 452.834 136.84V136.74C453.674 136.74 454.328 137 454.794 137.52C455.274 138.04 455.488 138.733 455.434 139.6L455.234 142.88C455.208 143.453 455.361 143.88 455.694 144.16C456.028 144.453 456.508 144.6 457.134 144.6H458.034V146.2H457.134ZM265.559 174.4C263.666 173.933 262.193 173.013 261.139 171.64C260.086 170.267 259.559 168.587 259.559 166.6V163C259.559 161.693 259.799 160.513 260.279 159.46C260.773 158.393 261.466 157.493 262.359 156.76C263.266 156.027 264.333 155.507 265.559 155.2V156.9C264.706 157.1 263.966 157.487 263.339 158.06C262.713 158.62 262.226 159.32 261.879 160.16C261.533 161 261.359 161.947 261.359 163V166.6C261.359 167.627 261.526 168.56 261.859 169.4C262.206 170.24 262.693 170.94 263.319 171.5C263.959 172.047 264.706 172.42 265.559 172.62V174.4ZM270.152 174.4V172.62C271.018 172.42 271.765 172.047 272.392 171.5C273.018 170.94 273.498 170.24 273.832 169.4C274.178 168.56 274.352 167.627 274.352 166.6V163C274.352 161.947 274.178 161 273.832 160.16C273.485 159.32 272.998 158.62 272.372 158.06C271.745 157.487 271.005 157.1 270.152 156.9V155.2C271.392 155.507 272.458 156.027 273.352 156.76C274.245 157.493 274.932 158.393 275.412 159.46C275.905 160.513 276.152 161.693 276.152 163V166.6C276.152 168.587 275.625 170.267 274.572 171.64C273.518 173.013 272.045 173.933 270.152 174.4ZM301.236 174.2C300.449 174.2 299.769 174.067 299.196 173.8C298.636 173.547 298.209 173.167 297.916 172.66C297.623 172.167 297.496 171.573 297.536 170.88L297.736 167.6C297.776 166.893 297.669 166.387 297.416 166.08C297.163 165.76 296.603 165.6 295.736 165.6H293.536V164H295.736C296.603 164 297.163 163.847 297.416 163.54C297.669 163.22 297.776 162.707 297.736 162L297.536 158.72C297.496 158.013 297.623 157.413 297.916 156.92C298.209 156.427 298.636 156.053 299.196 155.8C299.769 155.533 300.449 155.4 301.236 155.4H302.136V157H301.236C300.609 157 300.129 157.147 299.796 157.44C299.463 157.72 299.309 158.147 299.336 158.72L299.536 162C299.589 162.867 299.383 163.56 298.916 164.08C298.449 164.587 297.789 164.84 296.936 164.84V164.74C297.776 164.74 298.429 165 298.896 165.52C299.376 166.04 299.589 166.733 299.536 167.6L299.336 170.88C299.309 171.453 299.463 171.88 299.796 172.16C300.129 172.453 300.609 172.6 301.236 172.6H302.136V174.2H301.236ZM205.598 202.4C203.705 201.933 202.232 201.013 201.178 199.64C200.125 198.267 199.598 196.587 199.598 194.6V191C199.598 189.693 199.838 188.513 200.318 187.46C200.812 186.393 201.505 185.493 202.398 184.76C203.305 184.027 204.372 183.507 205.598 183.2V184.9C204.745 185.1 204.005 185.487 203.378 186.06C202.752 186.62 202.265 187.32 201.918 188.16C201.572 189 201.398 189.947 201.398 191V194.6C201.398 195.627 201.565 196.56 201.898 197.4C202.245 198.24 202.732 198.94 203.358 199.5C203.998 200.047 204.745 200.42 205.598 200.62V202.4ZM210.191 202.4V200.62C211.057 200.42 211.804 200.047 212.431 199.5C213.057 198.94 213.537 198.24 213.871 197.4C214.217 196.56 214.391 195.627 214.391 194.6V191C214.391 189.947 214.217 189 213.871 188.16C213.524 187.32 213.037 186.62 212.411 186.06C211.784 185.487 211.044 185.1 210.191 184.9V183.2C211.431 183.507 212.497 184.027 213.391 184.76C214.284 185.493 214.971 186.393 215.451 187.46C215.944 188.513 216.191 189.693 216.191 191V194.6C216.191 196.587 215.664 198.267 214.611 199.64C213.557 201.013 212.084 201.933 210.191 202.4ZM225.883 200.2C225.376 200.2 224.969 200.053 224.663 199.76C224.369 199.467 224.223 199.073 224.223 198.58C224.223 198.06 224.369 197.647 224.663 197.34C224.969 197.033 225.376 196.88 225.883 196.88C226.389 196.88 226.789 197.033 227.083 197.34C227.389 197.647 227.543 198.06 227.543 198.58C227.543 199.073 227.389 199.467 227.083 199.76C226.789 200.053 226.389 200.2 225.883 200.2ZM325.52 202.4C323.627 201.933 322.154 201.013 321.1 199.64C320.047 198.267 319.52 196.587 319.52 194.6V191C319.52 189.693 319.76 188.513 320.24 187.46C320.734 186.393 321.427 185.493 322.32 184.76C323.227 184.027 324.294 183.507 325.52 183.2V184.9C324.667 185.1 323.927 185.487 323.3 186.06C322.674 186.62 322.187 187.32 321.84 188.16C321.494 189 321.32 189.947 321.32 191V194.6C321.32 195.627 321.487 196.56 321.82 197.4C322.167 198.24 322.654 198.94 323.28 199.5C323.92 200.047 324.667 200.42 325.52 200.62V202.4ZM330.113 202.4V200.62C330.979 200.42 331.726 200.047 332.353 199.5C332.979 198.94 333.459 198.24 333.793 197.4C334.139 196.56 334.313 195.627 334.313 194.6V191C334.313 189.947 334.139 189 333.793 188.16C333.446 187.32 332.959 186.62 332.333 186.06C331.706 185.487 330.966 185.1 330.113 184.9V183.2C331.353 183.507 332.419 184.027 333.313 184.76C334.206 185.493 334.893 186.393 335.373 187.46C335.866 188.513 336.113 189.693 336.113 191V194.6C336.113 196.587 335.586 198.267 334.533 199.64C333.479 201.013 332.006 201.933 330.113 202.4ZM89.6688 230.2V228.6H90.5688C91.1954 228.6 91.6754 228.453 92.0088 228.16C92.3421 227.88 92.4954 227.453 92.4688 226.88L92.2688 223.6C92.2154 222.733 92.4221 222.04 92.8888 221.52C93.3688 221 94.0288 220.74 94.8688 220.74V220.84C94.0154 220.84 93.3554 220.587 92.8888 220.08C92.4221 219.56 92.2154 218.867 92.2688 218L92.4688 214.72C92.4954 214.147 92.3421 213.72 92.0088 213.44C91.6754 213.147 91.1954 213 90.5688 213H89.6688V211.4H90.5688C91.3554 211.4 92.0288 211.533 92.5888 211.8C93.1621 212.053 93.5954 212.427 93.8888 212.92C94.1821 213.413 94.3088 214.013 94.2688 214.72L94.0688 218C94.0288 218.707 94.1354 219.22 94.3888 219.54C94.6421 219.847 95.2021 220 96.0688 220H98.2688V221.6H96.0688C95.2154 221.6 94.6554 221.76 94.3888 222.08C94.1354 222.387 94.0288 222.893 94.0688 223.6L94.2688 226.88C94.3088 227.573 94.1821 228.167 93.8888 228.66C93.5954 229.167 93.1621 229.547 92.5888 229.8C92.0288 230.067 91.3554 230.2 90.5688 230.2H89.6688ZM277.552 258.4C275.658 257.933 274.185 257.013 273.132 255.64C272.078 254.267 271.552 252.587 271.552 250.6V247C271.552 245.693 271.792 244.513 272.272 243.46C272.765 242.393 273.458 241.493 274.352 240.76C275.258 240.027 276.325 239.507 277.552 239.2V240.9C276.698 241.1 275.958 241.487 275.332 242.06C274.705 242.62 274.218 243.32 273.872 244.16C273.525 245 273.352 245.947 273.352 247V250.6C273.352 251.627 273.518 252.56 273.852 253.4C274.198 254.24 274.685 254.94 275.312 255.5C275.952 256.047 276.698 256.42 277.552 256.62V258.4ZM282.144 258.4V256.62C283.01 256.42 283.757 256.047 284.384 255.5C285.01 254.94 285.49 254.24 285.824 253.4C286.17 252.56 286.344 251.627 286.344 250.6V247C286.344 245.947 286.17 245 285.824 244.16C285.477 243.32 284.99 242.62 284.364 242.06C283.737 241.487 282.997 241.1 282.144 240.9V239.2C283.384 239.507 284.45 240.027 285.344 240.76C286.237 241.493 286.924 242.393 287.404 243.46C287.897 244.513 288.144 245.693 288.144 247V250.6C288.144 252.587 287.617 254.267 286.564 255.64C285.51 257.013 284.037 257.933 282.144 258.4ZM313.228 258.2C312.441 258.2 311.761 258.067 311.188 257.8C310.628 257.547 310.201 257.167 309.908 256.66C309.615 256.167 309.488 255.573 309.528 254.88L309.728 251.6C309.768 250.893 309.661 250.387 309.408 250.08C309.155 249.76 308.595 249.6 307.728 249.6H305.528V248H307.728C308.595 248 309.155 247.847 309.408 247.54C309.661 247.22 309.768 246.707 309.728 246L309.528 242.72C309.488 242.013 309.615 241.413 309.908 240.92C310.201 240.427 310.628 240.053 311.188 239.8C311.761 239.533 312.441 239.4 313.228 239.4H314.128V241H313.228C312.601 241 312.121 241.147 311.788 241.44C311.455 241.72 311.301 242.147 311.328 242.72L311.528 246C311.581 246.867 311.375 247.56 310.908 248.08C310.441 248.587 309.781 248.84 308.928 248.84V248.74C309.768 248.74 310.421 249 310.888 249.52C311.368 250.04 311.581 250.733 311.528 251.6L311.328 254.88C311.301 255.453 311.455 255.88 311.788 256.16C312.121 256.453 312.601 256.6 313.228 256.6H314.128V258.2H313.228ZM285.844 284.2C285.337 284.2 284.93 284.053 284.624 283.76C284.33 283.467 284.184 283.073 284.184 282.58C284.184 282.06 284.33 281.647 284.624 281.34C284.93 281.033 285.337 280.88 285.844 280.88C286.35 280.88 286.75 281.033 287.044 281.34C287.35 281.647 287.504 282.06 287.504 282.58C287.504 283.073 287.35 283.467 287.044 283.76C286.75 284.053 286.35 284.2 285.844 284.2ZM493.411 286.4C491.518 285.933 490.044 285.013 488.991 283.64C487.938 282.267 487.411 280.587 487.411 278.6V275C487.411 273.693 487.651 272.513 488.131 271.46C488.624 270.393 489.318 269.493 490.211 268.76C491.118 268.027 492.184 267.507 493.411 267.2V268.9C492.558 269.1 491.818 269.487 491.191 270.06C490.564 270.62 490.078 271.32 489.731 272.16C489.384 273 489.211 273.947 489.211 275V278.6C489.211 279.627 489.378 280.56 489.711 281.4C490.058 282.24 490.544 282.94 491.171 283.5C491.811 284.047 492.558 284.42 493.411 284.62V286.4ZM498.003 286.4V284.62C498.87 284.42 499.616 284.047 500.243 283.5C500.87 282.94 501.35 282.24 501.683 281.4C502.03 280.56 502.203 279.627 502.203 278.6V275C502.203 273.947 502.03 273 501.683 272.16C501.336 271.32 500.85 270.62 500.223 270.06C499.596 269.487 498.856 269.1 498.003 268.9V267.2C499.243 267.507 500.31 268.027 501.203 268.76C502.096 269.493 502.783 270.393 503.263 271.46C503.756 272.513 504.003 273.693 504.003 275V278.6C504.003 280.587 503.476 282.267 502.423 283.64C501.37 285.013 499.896 285.933 498.003 286.4ZM89.6688 314.2V312.6H90.5688C91.1954 312.6 91.6754 312.453 92.0088 312.16C92.3421 311.88 92.4954 311.453 92.4688 310.88L92.2688 307.6C92.2154 306.733 92.4221 306.04 92.8888 305.52C93.3688 305 94.0288 304.74 94.8688 304.74V304.84C94.0154 304.84 93.3554 304.587 92.8888 304.08C92.4221 303.56 92.2154 302.867 92.2688 302L92.4688 298.72C92.4954 298.147 92.3421 297.72 92.0088 297.44C91.6754 297.147 91.1954 297 90.5688 297H89.6688V295.4H90.5688C91.3554 295.4 92.0288 295.533 92.5888 295.8C93.1621 296.053 93.5954 296.427 93.8888 296.92C94.1821 297.413 94.3088 298.013 94.2688 298.72L94.0688 302C94.0288 302.707 94.1354 303.22 94.3888 303.54C94.6421 303.847 95.2021 304 96.0688 304H98.2688V305.6H96.0688C95.2154 305.6 94.6554 305.76 94.3888 306.08C94.1354 306.387 94.0288 306.893 94.0688 307.6L94.2688 310.88C94.3088 311.573 94.1821 312.167 93.8888 312.66C93.5954 313.167 93.1621 313.547 92.5888 313.8C92.0288 314.067 91.3554 314.2 90.5688 314.2H89.6688ZM41.7 342.2V340.6H42.6C43.2267 340.6 43.7067 340.453 44.04 340.16C44.3733 339.88 44.5267 339.453 44.5 338.88L44.3 335.6C44.2467 334.733 44.4533 334.04 44.92 333.52C45.4 333 46.06 332.74 46.9 332.74V332.84C46.0467 332.84 45.3867 332.587 44.92 332.08C44.4533 331.56 44.2467 330.867 44.3 330L44.5 326.72C44.5267 326.147 44.3733 325.72 44.04 325.44C43.7067 325.147 43.2267 325 42.6 325H41.7V323.4H42.6C43.3867 323.4 44.06 323.533 44.62 323.8C45.1933 324.053 45.6267 324.427 45.92 324.92C46.2133 325.413 46.34 326.013 46.3 326.72L46.1 330C46.06 330.707 46.1667 331.22 46.42 331.54C46.6733 331.847 47.2333 332 48.1 332H50.3V333.6H48.1C47.2467 333.6 46.6867 333.76 46.42 334.08C46.1667 334.387 46.06 334.893 46.1 335.6L46.3 338.88C46.34 339.573 46.2133 340.167 45.92 340.66C45.6267 341.167 45.1933 341.547 44.62 341.8C44.06 342.067 43.3867 342.2 42.6 342.2H41.7Z" fill="#F1EFEF"/>
<path d="M116.713 144L112.953 129.4H114.813L117.293 139.32C117.466 140.013 117.613 140.66 117.733 141.26C117.853 141.847 117.94 142.293 117.993 142.6C118.046 142.293 118.126 141.847 118.233 141.26C118.353 140.66 118.5 140.013 118.673 139.32L121.133 129.4H122.953L119.173 144H116.713ZM125.645 144V142.36H129.545V134.64H126.145V133H131.345V142.36H135.045V144H125.645ZM130.245 131.02C129.805 131.02 129.459 130.907 129.205 130.68C128.952 130.453 128.825 130.147 128.825 129.76C128.825 129.36 128.952 129.047 129.205 128.82C129.459 128.58 129.805 128.46 130.245 128.46C130.685 128.46 131.032 128.58 131.285 128.82C131.539 129.047 131.665 129.36 131.665 129.76C131.665 130.147 131.539 130.453 131.285 130.68C131.032 130.907 130.685 131.02 130.245 131.02ZM141.938 144.2C141.071 144.2 140.311 144.027 139.658 143.68C139.018 143.333 138.518 142.847 138.158 142.22C137.811 141.58 137.638 140.84 137.638 140V137C137.638 136.147 137.811 135.407 138.158 134.78C138.518 134.153 139.018 133.667 139.658 133.32C140.311 132.973 141.071 132.8 141.938 132.8C142.804 132.8 143.558 132.973 144.198 133.32C144.851 133.667 145.351 134.153 145.698 134.78C146.058 135.407 146.238 136.147 146.238 137V138.94H139.398V140C139.398 140.867 139.618 141.533 140.058 142C140.498 142.453 141.124 142.68 141.938 142.68C142.631 142.68 143.191 142.56 143.618 142.32C144.044 142.067 144.304 141.693 144.398 141.2H146.198C146.078 142.12 145.624 142.853 144.838 143.4C144.064 143.933 143.098 144.2 141.938 144.2ZM144.478 137.74V137C144.478 136.133 144.258 135.467 143.818 135C143.391 134.533 142.764 134.3 141.938 134.3C141.124 134.3 140.498 134.533 140.058 135C139.618 135.467 139.398 136.133 139.398 137V137.58H144.618L144.478 137.74ZM150.39 144L148.63 133H150.23L151.33 140.8C151.37 141.093 151.41 141.413 151.45 141.76C151.503 142.093 151.543 142.373 151.57 142.6C151.596 142.373 151.636 142.093 151.69 141.76C151.756 141.413 151.81 141.093 151.85 140.8L153.07 133H154.79L156.01 140.8C156.05 141.093 156.096 141.413 156.15 141.76C156.216 142.093 156.263 142.373 156.29 142.6C156.316 142.373 156.356 142.093 156.41 141.76C156.476 141.413 156.53 141.093 156.57 140.8L157.71 133H159.23L157.39 144H155.41L154.23 136.4C154.176 136.027 154.116 135.653 154.05 135.28C153.983 134.907 153.936 134.613 153.91 134.4C153.883 134.613 153.843 134.907 153.79 135.28C153.736 135.653 153.676 136.027 153.61 136.4L152.37 144H150.39ZM161.442 144V129.4H163.802L165.322 134.12C165.469 134.547 165.602 134.973 165.722 135.4C165.842 135.813 165.929 136.133 165.982 136.36C166.049 136.133 166.135 135.813 166.242 135.4C166.349 134.973 166.469 134.54 166.602 134.1L168.042 129.4H170.402V144H168.642V138.7C168.642 138.113 168.662 137.447 168.702 136.7C168.742 135.953 168.795 135.193 168.862 134.42C168.929 133.633 168.995 132.887 169.062 132.18C169.142 131.46 169.209 130.833 169.262 130.3L166.902 137.6H165.002L162.622 130.3C162.689 130.82 162.755 131.427 162.822 132.12C162.889 132.8 162.949 133.527 163.002 134.3C163.055 135.06 163.102 135.82 163.142 136.58C163.182 137.34 163.202 138.047 163.202 138.7V144H161.442ZM177.914 144.16C177.034 144.16 176.274 143.993 175.634 143.66C174.994 143.327 174.494 142.847 174.134 142.22C173.787 141.58 173.614 140.827 173.614 139.96V137.04C173.614 136.16 173.787 135.407 174.134 134.78C174.494 134.153 174.994 133.673 175.634 133.34C176.274 133.007 177.034 132.84 177.914 132.84C178.794 132.84 179.554 133.007 180.194 133.34C180.834 133.673 181.327 134.153 181.674 134.78C182.034 135.407 182.214 136.153 182.214 137.02V139.96C182.214 140.827 182.034 141.58 181.674 142.22C181.327 142.847 180.834 143.327 180.194 143.66C179.554 143.993 178.794 144.16 177.914 144.16ZM177.914 142.56C178.701 142.56 179.314 142.34 179.754 141.9C180.194 141.46 180.414 140.813 180.414 139.96V137.04C180.414 136.187 180.194 135.54 179.754 135.1C179.314 134.66 178.701 134.44 177.914 134.44C177.141 134.44 176.527 134.66 176.074 135.1C175.634 135.54 175.414 136.187 175.414 137.04V139.96C175.414 140.813 175.634 141.46 176.074 141.9C176.527 142.34 177.141 142.56 177.914 142.56ZM189.266 144.2C188.173 144.2 187.286 143.833 186.606 143.1C185.94 142.367 185.606 141.373 185.606 140.12V136.9C185.606 135.633 185.94 134.633 186.606 133.9C187.273 133.167 188.16 132.8 189.266 132.8C190.173 132.8 190.9 133.047 191.446 133.54C191.993 134.033 192.266 134.693 192.266 135.52L191.906 135.1H192.306L192.266 132.6V129.4H194.066V144H192.266V141.9H191.906L192.266 141.48C192.266 142.32 191.993 142.987 191.446 143.48C190.9 143.96 190.173 144.2 189.266 144.2ZM189.866 142.64C190.613 142.64 191.2 142.407 191.626 141.94C192.053 141.473 192.266 140.827 192.266 140V137C192.266 136.173 192.053 135.527 191.626 135.06C191.2 134.593 190.613 134.36 189.866 134.36C189.106 134.36 188.506 134.587 188.066 135.04C187.626 135.493 187.406 136.147 187.406 137V140C187.406 140.853 187.626 141.507 188.066 141.96C188.506 142.413 189.106 142.64 189.866 142.64ZM201.898 144.2C201.032 144.2 200.272 144.027 199.618 143.68C198.978 143.333 198.478 142.847 198.118 142.22C197.772 141.58 197.598 140.84 197.598 140V137C197.598 136.147 197.772 135.407 198.118 134.78C198.478 134.153 198.978 133.667 199.618 133.32C200.272 132.973 201.032 132.8 201.898 132.8C202.765 132.8 203.518 132.973 204.158 133.32C204.812 133.667 205.312 134.153 205.658 134.78C206.018 135.407 206.198 136.147 206.198 137V138.94H199.358V140C199.358 140.867 199.578 141.533 200.018 142C200.458 142.453 201.085 142.68 201.898 142.68C202.592 142.68 203.152 142.56 203.578 142.32C204.005 142.067 204.265 141.693 204.358 141.2H206.158C206.038 142.12 205.585 142.853 204.798 143.4C204.025 143.933 203.058 144.2 201.898 144.2ZM204.438 137.74V137C204.438 136.133 204.218 135.467 203.778 135C203.352 134.533 202.725 134.3 201.898 134.3C201.085 134.3 200.458 134.533 200.018 135C199.578 135.467 199.358 136.133 199.358 137V137.58H204.578L204.438 137.74ZM215.391 144C214.751 144 214.191 143.873 213.711 143.62C213.231 143.367 212.857 143.007 212.591 142.54C212.324 142.073 212.191 141.527 212.191 140.9V131.04H208.491V129.4H213.991V140.9C213.991 141.353 214.117 141.713 214.371 141.98C214.624 142.233 214.964 142.36 215.391 142.36H218.891V144H215.391ZM153.93 172.16C153.05 172.16 152.29 171.993 151.65 171.66C151.01 171.327 150.51 170.847 150.15 170.22C149.803 169.58 149.63 168.827 149.63 167.96V165.04C149.63 164.16 149.803 163.407 150.15 162.78C150.51 162.153 151.01 161.673 151.65 161.34C152.29 161.007 153.05 160.84 153.93 160.84C154.81 160.84 155.57 161.007 156.21 161.34C156.85 161.673 157.343 162.153 157.69 162.78C158.05 163.407 158.23 164.153 158.23 165.02V167.96C158.23 168.827 158.05 169.58 157.69 170.22C157.343 170.847 156.85 171.327 156.21 171.66C155.57 171.993 154.81 172.16 153.93 172.16ZM153.93 170.56C154.716 170.56 155.33 170.34 155.77 169.9C156.21 169.46 156.43 168.813 156.43 167.96V165.04C156.43 164.187 156.21 163.54 155.77 163.1C155.33 162.66 154.716 162.44 153.93 162.44C153.156 162.44 152.543 162.66 152.09 163.1C151.65 163.54 151.43 164.187 151.43 165.04V167.96C151.43 168.813 151.65 169.46 152.09 169.9C152.543 170.34 153.156 170.56 153.93 170.56ZM161.762 175.6V161H163.562V163.1H163.922L163.562 163.52C163.562 162.68 163.835 162.02 164.382 161.54C164.942 161.047 165.675 160.8 166.582 160.8C167.689 160.8 168.569 161.167 169.222 161.9C169.889 162.62 170.222 163.613 170.222 164.88V168.1C170.222 168.94 170.069 169.667 169.762 170.28C169.469 170.893 169.049 171.367 168.502 171.7C167.969 172.033 167.329 172.2 166.582 172.2C165.689 172.2 164.962 171.953 164.402 171.46C163.842 170.967 163.562 170.307 163.562 169.48L163.922 169.9H163.522L163.562 172.4V175.6H161.762ZM165.982 170.64C166.742 170.64 167.335 170.413 167.762 169.96C168.202 169.507 168.422 168.853 168.422 168V165C168.422 164.147 168.202 163.493 167.762 163.04C167.335 162.587 166.742 162.36 165.982 162.36C165.249 162.36 164.662 162.593 164.222 163.06C163.782 163.527 163.562 164.173 163.562 165V168C163.562 168.827 163.782 169.473 164.222 169.94C164.662 170.407 165.249 170.64 165.982 170.64ZM177.914 172.2C177.047 172.2 176.287 172.027 175.634 171.68C174.994 171.333 174.494 170.847 174.134 170.22C173.787 169.58 173.614 168.84 173.614 168V165C173.614 164.147 173.787 163.407 174.134 162.78C174.494 162.153 174.994 161.667 175.634 161.32C176.287 160.973 177.047 160.8 177.914 160.8C178.781 160.8 179.534 160.973 180.174 161.32C180.827 161.667 181.327 162.153 181.674 162.78C182.034 163.407 182.214 164.147 182.214 165V166.94H175.374V168C175.374 168.867 175.594 169.533 176.034 170C176.474 170.453 177.101 170.68 177.914 170.68C178.607 170.68 179.167 170.56 179.594 170.32C180.021 170.067 180.281 169.693 180.374 169.2H182.174C182.054 170.12 181.601 170.853 180.814 171.4C180.041 171.933 179.074 172.2 177.914 172.2ZM180.454 165.74V165C180.454 164.133 180.234 163.467 179.794 163C179.367 162.533 178.741 162.3 177.914 162.3C177.101 162.3 176.474 162.533 176.034 163C175.594 163.467 175.374 164.133 175.374 165V165.58H180.594L180.454 165.74ZM185.746 172V161H187.546V163.1H187.926L187.546 163.52C187.546 162.653 187.806 161.987 188.326 161.52C188.846 161.04 189.566 160.8 190.486 160.8C191.593 160.8 192.473 161.14 193.126 161.82C193.78 162.5 194.106 163.427 194.106 164.6V172H192.306V164.8C192.306 164.013 192.093 163.413 191.666 163C191.253 162.573 190.686 162.36 189.966 162.36C189.22 162.36 188.626 162.587 188.186 163.04C187.76 163.493 187.546 164.147 187.546 165V172H185.746ZM197.738 172V157.4H202.438C203.345 157.4 204.132 157.58 204.798 157.94C205.465 158.287 205.978 158.78 206.338 159.42C206.712 160.06 206.898 160.82 206.898 161.7C206.898 162.567 206.712 163.327 206.338 163.98C205.978 164.62 205.465 165.12 204.798 165.48C204.132 165.827 203.345 166 202.438 166H199.538V172H197.738ZM199.538 164.38H202.438C203.225 164.38 203.852 164.14 204.318 163.66C204.798 163.167 205.038 162.513 205.038 161.7C205.038 160.873 204.798 160.22 204.318 159.74C203.852 159.26 203.225 159.02 202.438 159.02H199.538V164.38ZM213.891 172.16C213.011 172.16 212.251 171.993 211.611 171.66C210.971 171.327 210.471 170.847 210.111 170.22C209.764 169.58 209.591 168.827 209.591 167.96V165.04C209.591 164.16 209.764 163.407 210.111 162.78C210.471 162.153 210.971 161.673 211.611 161.34C212.251 161.007 213.011 160.84 213.891 160.84C214.771 160.84 215.531 161.007 216.171 161.34C216.811 161.673 217.304 162.153 217.651 162.78C218.011 163.407 218.191 164.153 218.191 165.02V167.96C218.191 168.827 218.011 169.58 217.651 170.22C217.304 170.847 216.811 171.327 216.171 171.66C215.531 171.993 214.771 172.16 213.891 172.16ZM213.891 170.56C214.677 170.56 215.291 170.34 215.731 169.9C216.171 169.46 216.391 168.813 216.391 167.96V165.04C216.391 164.187 216.171 163.54 215.731 163.1C215.291 162.66 214.677 162.44 213.891 162.44C213.117 162.44 212.504 162.66 212.051 163.1C211.611 163.54 211.391 164.187 211.391 165.04V167.96C211.391 168.813 211.611 169.46 212.051 169.9C212.504 170.34 213.117 170.56 213.891 170.56ZM221.723 175.6V161H223.523V163.1H223.883L223.523 163.52C223.523 162.68 223.796 162.02 224.343 161.54C224.903 161.047 225.636 160.8 226.543 160.8C227.649 160.8 228.529 161.167 229.183 161.9C229.849 162.62 230.183 163.613 230.183 164.88V168.1C230.183 168.94 230.029 169.667 229.723 170.28C229.429 170.893 229.009 171.367 228.463 171.7C227.929 172.033 227.289 172.2 226.543 172.2C225.649 172.2 224.923 171.953 224.363 171.46C223.803 170.967 223.523 170.307 223.523 169.48L223.883 169.9H223.483L223.523 172.4V175.6H221.723ZM225.943 170.64C226.703 170.64 227.296 170.413 227.723 169.96C228.163 169.507 228.383 168.853 228.383 168V165C228.383 164.147 228.163 163.493 227.723 163.04C227.296 162.587 226.703 162.36 225.943 162.36C225.209 162.36 224.623 162.593 224.183 163.06C223.743 163.527 223.523 164.173 223.523 165V168C223.523 168.827 223.743 169.473 224.183 169.94C224.623 170.407 225.209 170.64 225.943 170.64ZM237.855 172.2C236.588 172.2 235.575 171.827 234.815 171.08C234.055 170.32 233.675 169.293 233.675 168V161H235.475V168C235.475 168.827 235.688 169.473 236.115 169.94C236.542 170.393 237.122 170.62 237.855 170.62C238.602 170.62 239.188 170.393 239.615 169.94C240.055 169.473 240.275 168.827 240.275 168V161H242.075V168C242.075 169.293 241.688 170.32 240.915 171.08C240.142 171.827 239.122 172.2 237.855 172.2ZM245.707 175.6V161H247.507V163.1H247.867L247.507 163.52C247.507 162.68 247.781 162.02 248.327 161.54C248.887 161.047 249.621 160.8 250.527 160.8C251.634 160.8 252.514 161.167 253.167 161.9C253.834 162.62 254.167 163.613 254.167 164.88V168.1C254.167 168.94 254.014 169.667 253.707 170.28C253.414 170.893 252.994 171.367 252.447 171.7C251.914 172.033 251.274 172.2 250.527 172.2C249.634 172.2 248.907 171.953 248.347 171.46C247.787 170.967 247.507 170.307 247.507 169.48L247.867 169.9H247.467L247.507 172.4V175.6H245.707ZM249.927 170.64C250.687 170.64 251.281 170.413 251.707 169.96C252.147 169.507 252.367 168.853 252.367 168V165C252.367 164.147 252.147 163.493 251.707 163.04C251.281 162.587 250.687 162.36 249.927 162.36C249.194 162.36 248.607 162.593 248.167 163.06C247.727 163.527 247.507 164.173 247.507 165V168C247.507 168.827 247.727 169.473 248.167 169.94C248.607 170.407 249.194 170.64 249.927 170.64ZM154.01 256.2C153.13 256.2 152.356 256.033 151.69 255.7C151.036 255.367 150.53 254.887 150.17 254.26C149.81 253.62 149.63 252.867 149.63 252V249C149.63 248.12 149.81 247.367 150.17 246.74C150.53 246.113 151.036 245.633 151.69 245.3C152.356 244.967 153.13 244.8 154.01 244.8C155.276 244.8 156.296 245.14 157.07 245.82C157.843 246.5 158.25 247.427 158.29 248.6H156.49C156.45 247.893 156.21 247.353 155.77 246.98C155.343 246.593 154.756 246.4 154.01 246.4C153.223 246.4 152.596 246.627 152.13 247.08C151.663 247.52 151.43 248.153 151.43 248.98V252C151.43 252.827 151.663 253.467 152.13 253.92C152.596 254.373 153.223 254.6 154.01 254.6C154.756 254.6 155.343 254.407 155.77 254.02C156.21 253.633 156.45 253.093 156.49 252.4H158.29C158.25 253.573 157.843 254.5 157.07 255.18C156.296 255.86 155.276 256.2 154.01 256.2ZM167.422 256C166.782 256 166.222 255.873 165.742 255.62C165.262 255.367 164.889 255.007 164.622 254.54C164.355 254.073 164.222 253.527 164.222 252.9V243.04H160.522V241.4H166.022V252.9C166.022 253.353 166.149 253.713 166.402 253.98C166.655 254.233 166.995 254.36 167.422 254.36H170.922V256H167.422ZM177.914 256.16C177.034 256.16 176.274 255.993 175.634 255.66C174.994 255.327 174.494 254.847 174.134 254.22C173.787 253.58 173.614 252.827 173.614 251.96V249.04C173.614 248.16 173.787 247.407 174.134 246.78C174.494 246.153 174.994 245.673 175.634 245.34C176.274 245.007 177.034 244.84 177.914 244.84C178.794 244.84 179.554 245.007 180.194 245.34C180.834 245.673 181.327 246.153 181.674 246.78C182.034 247.407 182.214 248.153 182.214 249.02V251.96C182.214 252.827 182.034 253.58 181.674 254.22C181.327 254.847 180.834 255.327 180.194 255.66C179.554 255.993 178.794 256.16 177.914 256.16ZM177.914 254.56C178.701 254.56 179.314 254.34 179.754 253.9C180.194 253.46 180.414 252.813 180.414 251.96V249.04C180.414 248.187 180.194 247.54 179.754 247.1C179.314 246.66 178.701 246.44 177.914 246.44C177.141 246.44 176.527 246.66 176.074 247.1C175.634 247.54 175.414 248.187 175.414 249.04V251.96C175.414 252.813 175.634 253.46 176.074 253.9C176.527 254.34 177.141 254.56 177.914 254.56ZM189.566 256.16C188.82 256.16 188.166 256.047 187.606 255.82C187.06 255.58 186.62 255.247 186.286 254.82C185.966 254.393 185.773 253.887 185.706 253.3H187.506C187.586 253.687 187.8 253.993 188.146 254.22C188.506 254.447 188.98 254.56 189.566 254.56H190.406C191.113 254.56 191.64 254.42 191.986 254.14C192.333 253.847 192.506 253.46 192.506 252.98C192.506 252.513 192.346 252.147 192.026 251.88C191.72 251.6 191.26 251.413 190.646 251.32L189.166 251.08C188.086 250.893 187.28 250.56 186.746 250.08C186.226 249.587 185.966 248.873 185.966 247.94C185.966 246.953 186.28 246.193 186.906 245.66C187.533 245.113 188.473 244.84 189.726 244.84H190.486C191.54 244.84 192.386 245.087 193.026 245.58C193.666 246.073 194.053 246.74 194.186 247.58H192.386C192.306 247.233 192.106 246.96 191.786 246.76C191.466 246.547 191.033 246.44 190.486 246.44H189.726C189.046 246.44 188.546 246.567 188.226 246.82C187.92 247.073 187.766 247.453 187.766 247.96C187.766 248.413 187.9 248.747 188.166 248.96C188.433 249.173 188.853 249.327 189.426 249.42L190.906 249.66C192.093 249.847 192.953 250.193 193.486 250.7C194.033 251.207 194.306 251.94 194.306 252.9C194.306 253.913 193.98 254.713 193.326 255.3C192.686 255.873 191.713 256.16 190.406 256.16H189.566ZM201.898 256.2C201.032 256.2 200.272 256.027 199.618 255.68C198.978 255.333 198.478 254.847 198.118 254.22C197.772 253.58 197.598 252.84 197.598 252V249C197.598 248.147 197.772 247.407 198.118 246.78C198.478 246.153 198.978 245.667 199.618 245.32C200.272 244.973 201.032 244.8 201.898 244.8C202.765 244.8 203.518 244.973 204.158 245.32C204.812 245.667 205.312 246.153 205.658 246.78C206.018 247.407 206.198 248.147 206.198 249V250.94H199.358V252C199.358 252.867 199.578 253.533 200.018 254C200.458 254.453 201.085 254.68 201.898 254.68C202.592 254.68 203.152 254.56 203.578 254.32C204.005 254.067 204.265 253.693 204.358 253.2H206.158C206.038 254.12 205.585 254.853 204.798 255.4C204.025 255.933 203.058 256.2 201.898 256.2ZM204.438 249.74V249C204.438 248.133 204.218 247.467 203.778 247C203.352 246.533 202.725 246.3 201.898 246.3C201.085 246.3 200.458 246.533 200.018 247C199.578 247.467 199.358 248.133 199.358 249V249.58H204.578L204.438 249.74ZM209.731 256V241.4H214.431C215.337 241.4 216.124 241.58 216.791 241.94C217.457 242.287 217.971 242.78 218.331 243.42C218.704 244.06 218.891 244.82 218.891 245.7C218.891 246.567 218.704 247.327 218.331 247.98C217.971 248.62 217.457 249.12 216.791 249.48C216.124 249.827 215.337 250 214.431 250H211.531V256H209.731ZM211.531 248.38H214.431C215.217 248.38 215.844 248.14 216.311 247.66C216.791 247.167 217.031 246.513 217.031 245.7C217.031 244.873 216.791 244.22 216.311 243.74C215.844 243.26 215.217 243.02 214.431 243.02H211.531V248.38ZM225.883 256.16C225.003 256.16 224.243 255.993 223.603 255.66C222.963 255.327 222.463 254.847 222.103 254.22C221.756 253.58 221.583 252.827 221.583 251.96V249.04C221.583 248.16 221.756 247.407 222.103 246.78C222.463 246.153 222.963 245.673 223.603 245.34C224.243 245.007 225.003 244.84 225.883 244.84C226.763 244.84 227.523 245.007 228.163 245.34C228.803 245.673 229.296 246.153 229.643 246.78C230.003 247.407 230.183 248.153 230.183 249.02V251.96C230.183 252.827 230.003 253.58 229.643 254.22C229.296 254.847 228.803 255.327 228.163 255.66C227.523 255.993 226.763 256.16 225.883 256.16ZM225.883 254.56C226.669 254.56 227.283 254.34 227.723 253.9C228.163 253.46 228.383 252.813 228.383 251.96V249.04C228.383 248.187 228.163 247.54 227.723 247.1C227.283 246.66 226.669 246.44 225.883 246.44C225.109 246.44 224.496 246.66 224.043 247.1C223.603 247.54 223.383 248.187 223.383 249.04V251.96C223.383 252.813 223.603 253.46 224.043 253.9C224.496 254.34 225.109 254.56 225.883 254.56ZM233.715 259.6V245H235.515V247.1H235.875L235.515 247.52C235.515 246.68 235.788 246.02 236.335 245.54C236.895 245.047 237.628 244.8 238.535 244.8C239.642 244.8 240.522 245.167 241.175 245.9C241.842 246.62 242.175 247.613 242.175 248.88V252.1C242.175 252.94 242.022 253.667 241.715 254.28C241.422 254.893 241.002 255.367 240.455 255.7C239.922 256.033 239.282 256.2 238.535 256.2C237.642 256.2 236.915 255.953 236.355 255.46C235.795 254.967 235.515 254.307 235.515 253.48L235.875 253.9H235.475L235.515 256.4V259.6H233.715ZM237.935 254.64C238.695 254.64 239.288 254.413 239.715 253.96C240.155 253.507 240.375 252.853 240.375 252V249C240.375 248.147 240.155 247.493 239.715 247.04C239.288 246.587 238.695 246.36 237.935 246.36C237.202 246.36 236.615 246.593 236.175 247.06C235.735 247.527 235.515 248.173 235.515 249V252C235.515 252.827 235.735 253.473 236.175 253.94C236.615 254.407 237.202 254.64 237.935 254.64ZM249.847 256.2C248.581 256.2 247.567 255.827 246.807 255.08C246.047 254.32 245.667 253.293 245.667 252V245H247.467V252C247.467 252.827 247.681 253.473 248.107 253.94C248.534 254.393 249.114 254.62 249.847 254.62C250.594 254.62 251.181 254.393 251.607 253.94C252.047 253.473 252.267 252.827 252.267 252V245H254.067V252C254.067 253.293 253.681 254.32 252.907 255.08C252.134 255.827 251.114 256.2 249.847 256.2ZM257.699 259.6V245H259.499V247.1H259.859L259.499 247.52C259.499 246.68 259.773 246.02 260.319 245.54C260.879 245.047 261.613 244.8 262.519 244.8C263.626 244.8 264.506 245.167 265.159 245.9C265.826 246.62 266.159 247.613 266.159 248.88V252.1C266.159 252.94 266.006 253.667 265.699 254.28C265.406 254.893 264.986 255.367 264.439 255.7C263.906 256.033 263.266 256.2 262.519 256.2C261.626 256.2 260.899 255.953 260.339 255.46C259.779 254.967 259.499 254.307 259.499 253.48L259.859 253.9H259.459L259.499 256.4V259.6H257.699ZM261.919 254.64C262.679 254.64 263.273 254.413 263.699 253.96C264.139 253.507 264.359 252.853 264.359 252V249C264.359 248.147 264.139 247.493 263.699 247.04C263.273 246.587 262.679 246.36 261.919 246.36C261.186 246.36 260.599 246.593 260.159 247.06C259.719 247.527 259.499 248.173 259.499 249V252C259.499 252.827 259.719 253.473 260.159 253.94C260.599 254.407 261.186 254.64 261.919 254.64Z" fill="#4EB0CC"/>
<path d="M249.867 144.2C248.987 144.2 248.227 144.033 247.587 143.7C246.961 143.367 246.474 142.887 246.127 142.26C245.794 141.62 245.627 140.867 245.627 140V133.4C245.627 132.52 245.794 131.767 246.127 131.14C246.474 130.513 246.961 130.033 247.587 129.7C248.227 129.367 248.987 129.2 249.867 129.2C250.747 129.2 251.501 129.367 252.127 129.7C252.767 130.033 253.254 130.513 253.587 131.14C253.934 131.767 254.107 132.513 254.107 133.38V140C254.107 140.867 253.934 141.62 253.587 142.26C253.254 142.887 252.767 143.367 252.127 143.7C251.501 144.033 250.747 144.2 249.867 144.2ZM249.867 142.58C250.654 142.58 251.254 142.36 251.667 141.92C252.094 141.467 252.307 140.827 252.307 140V133.4C252.307 132.573 252.094 131.94 251.667 131.5C251.254 131.047 250.654 130.82 249.867 130.82C249.094 130.82 248.494 131.047 248.067 131.5C247.641 131.94 247.427 132.573 247.427 133.4V140C247.427 140.827 247.641 141.467 248.067 141.92C248.494 142.36 249.094 142.58 249.867 142.58ZM262.499 144.2C261.593 144.2 260.866 143.96 260.319 143.48C259.773 142.987 259.499 142.32 259.499 141.48L259.859 141.9H259.499V144H257.699V129.4H259.499V132.6L259.459 135.1H259.859L259.499 135.52C259.499 134.693 259.773 134.033 260.319 133.54C260.879 133.047 261.606 132.8 262.499 132.8C263.606 132.8 264.493 133.167 265.159 133.9C265.826 134.633 266.159 135.633 266.159 136.9V140.12C266.159 141.373 265.826 142.367 265.159 143.1C264.493 143.833 263.606 144.2 262.499 144.2ZM261.899 142.64C262.659 142.64 263.259 142.413 263.699 141.96C264.139 141.507 264.359 140.853 264.359 140V137C264.359 136.147 264.139 135.493 263.699 135.04C263.259 134.587 262.659 134.36 261.899 134.36C261.166 134.36 260.579 134.593 260.139 135.06C259.713 135.527 259.499 136.173 259.499 137V140C259.499 140.827 259.713 141.473 260.139 141.94C260.579 142.407 261.166 142.64 261.899 142.64ZM273.512 144.16C272.765 144.16 272.112 144.047 271.552 143.82C271.005 143.58 270.565 143.247 270.232 142.82C269.912 142.393 269.718 141.887 269.652 141.3H271.452C271.532 141.687 271.745 141.993 272.092 142.22C272.452 142.447 272.925 142.56 273.512 142.56H274.352C275.058 142.56 275.585 142.42 275.932 142.14C276.278 141.847 276.452 141.46 276.452 140.98C276.452 140.513 276.292 140.147 275.972 139.88C275.665 139.6 275.205 139.413 274.592 139.32L273.112 139.08C272.032 138.893 271.225 138.56 270.692 138.08C270.172 137.587 269.912 136.873 269.912 135.94C269.912 134.953 270.225 134.193 270.852 133.66C271.478 133.113 272.418 132.84 273.672 132.84H274.432C275.485 132.84 276.332 133.087 276.972 133.58C277.612 134.073 277.998 134.74 278.132 135.58H276.332C276.252 135.233 276.052 134.96 275.732 134.76C275.412 134.547 274.978 134.44 274.432 134.44H273.672C272.992 134.44 272.492 134.567 272.172 134.82C271.865 135.073 271.712 135.453 271.712 135.96C271.712 136.413 271.845 136.747 272.112 136.96C272.378 137.173 272.798 137.327 273.372 137.42L274.852 137.66C276.038 137.847 276.898 138.193 277.432 138.7C277.978 139.207 278.252 139.94 278.252 140.9C278.252 141.913 277.925 142.713 277.272 143.3C276.632 143.873 275.658 144.16 274.352 144.16H273.512ZM285.844 144.2C284.977 144.2 284.217 144.027 283.564 143.68C282.924 143.333 282.424 142.847 282.064 142.22C281.717 141.58 281.544 140.84 281.544 140V137C281.544 136.147 281.717 135.407 282.064 134.78C282.424 134.153 282.924 133.667 283.564 133.32C284.217 132.973 284.977 132.8 285.844 132.8C286.71 132.8 287.464 132.973 288.104 133.32C288.757 133.667 289.257 134.153 289.604 134.78C289.964 135.407 290.144 136.147 290.144 137V138.94H283.304V140C283.304 140.867 283.524 141.533 283.964 142C284.404 142.453 285.03 142.68 285.844 142.68C286.537 142.68 287.097 142.56 287.524 142.32C287.95 142.067 288.21 141.693 288.304 141.2H290.104C289.984 142.12 289.53 142.853 288.744 143.4C287.97 143.933 287.004 144.2 285.844 144.2ZM288.384 137.74V137C288.384 136.133 288.164 135.467 287.724 135C287.297 134.533 286.67 134.3 285.844 134.3C285.03 134.3 284.404 134.533 283.964 135C283.524 135.467 283.304 136.133 283.304 137V137.58H288.524L288.384 137.74ZM294.056 144V133H295.816V135.1H296.236L295.656 136.4C295.656 135.213 295.909 134.32 296.416 133.72C296.936 133.107 297.703 132.8 298.716 132.8C299.876 132.8 300.796 133.167 301.476 133.9C302.169 134.62 302.516 135.6 302.516 136.84V137.5H300.716V137C300.716 136.133 300.503 135.473 300.076 135.02C299.663 134.553 299.069 134.32 298.296 134.32C297.536 134.32 296.936 134.553 296.496 135.02C296.069 135.487 295.856 136.147 295.856 137V144H294.056ZM308.608 144L304.928 133H306.768L309.208 140.4C309.355 140.84 309.488 141.267 309.608 141.68C309.728 142.08 309.815 142.393 309.868 142.62C309.935 142.393 310.028 142.08 310.148 141.68C310.268 141.267 310.395 140.84 310.528 140.4L312.908 133H314.728L311.048 144H308.608ZM320.86 144.2C319.7 144.2 318.787 143.907 318.12 143.32C317.454 142.72 317.12 141.913 317.12 140.9C317.12 139.873 317.454 139.067 318.12 138.48C318.787 137.893 319.687 137.6 320.82 137.6H324.22V136.5C324.22 135.82 324.014 135.3 323.6 134.94C323.2 134.567 322.627 134.38 321.88 134.38C321.227 134.38 320.68 134.52 320.24 134.8C319.8 135.067 319.547 135.433 319.48 135.9H317.68C317.8 134.953 318.247 134.2 319.02 133.64C319.794 133.08 320.76 132.8 321.92 132.8C323.187 132.8 324.187 133.127 324.92 133.78C325.654 134.433 326.02 135.32 326.02 136.44V144H324.26V141.9H323.96L324.26 141.6C324.26 142.4 323.947 143.033 323.32 143.5C322.707 143.967 321.887 144.2 320.86 144.2ZM321.3 142.78C322.154 142.78 322.854 142.567 323.4 142.14C323.947 141.713 324.22 141.167 324.22 140.5V138.94H320.86C320.26 138.94 319.787 139.107 319.44 139.44C319.094 139.773 318.92 140.227 318.92 140.8C318.92 141.413 319.127 141.9 319.54 142.26C319.967 142.607 320.554 142.78 321.3 142.78ZM334.453 144.2C333.546 144.2 332.819 143.96 332.273 143.48C331.726 142.987 331.453 142.32 331.453 141.48L331.813 141.9H331.453V144H329.653V129.4H331.453V132.6L331.413 135.1H331.813L331.453 135.52C331.453 134.693 331.726 134.033 332.273 133.54C332.833 133.047 333.559 132.8 334.453 132.8C335.559 132.8 336.446 133.167 337.113 133.9C337.779 134.633 338.113 135.633 338.113 136.9V140.12C338.113 141.373 337.779 142.367 337.113 143.1C336.446 143.833 335.559 144.2 334.453 144.2ZM333.853 142.64C334.613 142.64 335.213 142.413 335.653 141.96C336.093 141.507 336.313 140.853 336.313 140V137C336.313 136.147 336.093 135.493 335.653 135.04C335.213 134.587 334.613 134.36 333.853 134.36C333.119 134.36 332.533 134.593 332.093 135.06C331.666 135.527 331.453 136.173 331.453 137V140C331.453 140.827 331.666 141.473 332.093 141.94C332.533 142.407 333.119 142.64 333.853 142.64ZM347.305 144C346.665 144 346.105 143.873 345.625 143.62C345.145 143.367 344.771 143.007 344.505 142.54C344.238 142.073 344.105 141.527 344.105 140.9V131.04H340.405V129.4H345.905V140.9C345.905 141.353 346.031 141.713 346.285 141.98C346.538 142.233 346.878 142.36 347.305 142.36H350.805V144H347.305ZM357.797 144.2C356.93 144.2 356.17 144.027 355.517 143.68C354.877 143.333 354.377 142.847 354.017 142.22C353.67 141.58 353.497 140.84 353.497 140V137C353.497 136.147 353.67 135.407 354.017 134.78C354.377 134.153 354.877 133.667 355.517 133.32C356.17 132.973 356.93 132.8 357.797 132.8C358.664 132.8 359.417 132.973 360.057 133.32C360.71 133.667 361.21 134.153 361.557 134.78C361.917 135.407 362.097 136.147 362.097 137V138.94H355.257V140C355.257 140.867 355.477 141.533 355.917 142C356.357 142.453 356.984 142.68 357.797 142.68C358.49 142.68 359.05 142.56 359.477 142.32C359.904 142.067 360.164 141.693 360.257 141.2H362.057C361.937 142.12 361.484 142.853 360.697 143.4C359.924 143.933 358.957 144.2 357.797 144.2ZM360.337 137.74V137C360.337 136.133 360.117 135.467 359.677 135C359.25 134.533 358.624 134.3 357.797 134.3C356.984 134.3 356.357 134.533 355.917 135C355.477 135.467 355.257 136.133 355.257 137V137.58H360.477L360.337 137.74ZM369.789 144.2C368.909 144.2 368.149 144.033 367.509 143.7C366.882 143.367 366.396 142.887 366.049 142.26C365.716 141.62 365.549 140.867 365.549 140V133.4C365.549 132.52 365.716 131.767 366.049 131.14C366.396 130.513 366.882 130.033 367.509 129.7C368.149 129.367 368.909 129.2 369.789 129.2C370.669 129.2 371.422 129.367 372.049 129.7C372.689 130.033 373.176 130.513 373.509 131.14C373.856 131.767 374.029 132.513 374.029 133.38V140C374.029 140.867 373.856 141.62 373.509 142.26C373.176 142.887 372.689 143.367 372.049 143.7C371.422 144.033 370.669 144.2 369.789 144.2ZM369.789 142.58C370.576 142.58 371.176 142.36 371.589 141.92C372.016 141.467 372.229 140.827 372.229 140V133.4C372.229 132.573 372.016 131.94 371.589 131.5C371.176 131.047 370.576 130.82 369.789 130.82C369.016 130.82 368.416 131.047 367.989 131.5C367.562 131.94 367.349 132.573 367.349 133.4V140C367.349 140.827 367.562 141.467 367.989 141.92C368.416 142.36 369.016 142.58 369.789 142.58ZM382.421 144.2C381.515 144.2 380.788 143.96 380.241 143.48C379.695 142.987 379.421 142.32 379.421 141.48L379.781 141.9H379.421V144H377.621V129.4H379.421V132.6L379.381 135.1H379.781L379.421 135.52C379.421 134.693 379.695 134.033 380.241 133.54C380.801 133.047 381.528 132.8 382.421 132.8C383.528 132.8 384.415 133.167 385.081 133.9C385.748 134.633 386.081 135.633 386.081 136.9V140.12C386.081 141.373 385.748 142.367 385.081 143.1C384.415 143.833 383.528 144.2 382.421 144.2ZM381.821 142.64C382.581 142.64 383.181 142.413 383.621 141.96C384.061 141.507 384.281 140.853 384.281 140V137C384.281 136.147 384.061 135.493 383.621 135.04C383.181 134.587 382.581 134.36 381.821 134.36C381.088 134.36 380.501 134.593 380.061 135.06C379.635 135.527 379.421 136.173 379.421 137V140C379.421 140.827 379.635 141.473 380.061 141.94C380.501 142.407 381.088 142.64 381.821 142.64ZM389.473 147.6V145.94H392.053C392.88 145.94 393.52 145.713 393.973 145.26C394.44 144.82 394.673 144.193 394.673 143.38V134.64H390.073V133H396.473V143.38C396.473 144.673 396.073 145.7 395.273 146.46C394.473 147.22 393.4 147.6 392.053 147.6H389.473ZM395.473 131.02C395.033 131.02 394.687 130.907 394.433 130.68C394.18 130.453 394.053 130.147 394.053 129.76C394.053 129.36 394.18 129.047 394.433 128.82C394.687 128.58 395.033 128.46 395.473 128.46C395.913 128.46 396.26 128.58 396.513 128.82C396.767 129.047 396.893 129.36 396.893 129.76C396.893 130.147 396.767 130.453 396.513 130.68C396.26 130.907 395.913 131.02 395.473 131.02ZM405.766 144.2C404.899 144.2 404.139 144.027 403.486 143.68C402.846 143.333 402.346 142.847 401.986 142.22C401.639 141.58 401.466 140.84 401.466 140V137C401.466 136.147 401.639 135.407 401.986 134.78C402.346 134.153 402.846 133.667 403.486 133.32C404.139 132.973 404.899 132.8 405.766 132.8C406.632 132.8 407.386 132.973 408.026 133.32C408.679 133.667 409.179 134.153 409.526 134.78C409.886 135.407 410.066 136.147 410.066 137V138.94H403.226V140C403.226 140.867 403.446 141.533 403.886 142C404.326 142.453 404.952 142.68 405.766 142.68C406.459 142.68 407.019 142.56 407.446 142.32C407.872 142.067 408.132 141.693 408.226 141.2H410.026C409.906 142.12 409.452 142.853 408.666 143.4C407.892 143.933 406.926 144.2 405.766 144.2ZM408.306 137.74V137C408.306 136.133 408.086 135.467 407.646 135C407.219 134.533 406.592 134.3 405.766 134.3C404.952 134.3 404.326 134.533 403.886 135C403.446 135.467 403.226 136.133 403.226 137V137.58H408.446L408.306 137.74ZM417.838 144.2C416.958 144.2 416.184 144.033 415.518 143.7C414.864 143.367 414.358 142.887 413.998 142.26C413.638 141.62 413.458 140.867 413.458 140V137C413.458 136.12 413.638 135.367 413.998 134.74C414.358 134.113 414.864 133.633 415.518 133.3C416.184 132.967 416.958 132.8 417.838 132.8C419.104 132.8 420.124 133.14 420.898 133.82C421.671 134.5 422.078 135.427 422.118 136.6H420.318C420.278 135.893 420.038 135.353 419.598 134.98C419.171 134.593 418.584 134.4 417.838 134.4C417.051 134.4 416.424 134.627 415.958 135.08C415.491 135.52 415.258 136.153 415.258 136.98V140C415.258 140.827 415.491 141.467 415.958 141.92C416.424 142.373 417.051 142.6 417.838 142.6C418.584 142.6 419.171 142.407 419.598 142.02C420.038 141.633 420.278 141.093 420.318 140.4H422.118C422.078 141.573 421.671 142.5 420.898 143.18C420.124 143.86 419.104 144.2 417.838 144.2ZM430.95 144C430.003 144 429.263 143.747 428.73 143.24C428.21 142.733 427.95 142.02 427.95 141.1V134.64H424.85V133H427.95V129.9H429.75V133H434.15V134.64H429.75V141.1C429.75 141.94 430.15 142.36 430.95 142.36H433.95V144H430.95Z" fill="#DABAFF"/>
<path d="M137.778 200V185.4H142.478C143.384 185.4 144.171 185.58 144.838 185.94C145.504 186.287 146.018 186.78 146.378 187.42C146.751 188.06 146.938 188.82 146.938 189.7C146.938 190.567 146.751 191.327 146.378 191.98C146.018 192.62 145.504 193.12 144.838 193.48C144.171 193.827 143.384 194 142.478 194H139.578V200H137.778ZM139.578 192.38H142.478C143.264 192.38 143.891 192.14 144.358 191.66C144.838 191.167 145.078 190.513 145.078 189.7C145.078 188.873 144.838 188.22 144.358 187.74C143.891 187.26 143.264 187.02 142.478 187.02H139.578V192.38ZM153.93 200.16C153.05 200.16 152.29 199.993 151.65 199.66C151.01 199.327 150.51 198.847 150.15 198.22C149.803 197.58 149.63 196.827 149.63 195.96V193.04C149.63 192.16 149.803 191.407 150.15 190.78C150.51 190.153 151.01 189.673 151.65 189.34C152.29 189.007 153.05 188.84 153.93 188.84C154.81 188.84 155.57 189.007 156.21 189.34C156.85 189.673 157.343 190.153 157.69 190.78C158.05 191.407 158.23 192.153 158.23 193.02V195.96C158.23 196.827 158.05 197.58 157.69 198.22C157.343 198.847 156.85 199.327 156.21 199.66C155.57 199.993 154.81 200.16 153.93 200.16ZM153.93 198.56C154.716 198.56 155.33 198.34 155.77 197.9C156.21 197.46 156.43 196.813 156.43 195.96V193.04C156.43 192.187 156.21 191.54 155.77 191.1C155.33 190.66 154.716 190.44 153.93 190.44C153.156 190.44 152.543 190.66 152.09 191.1C151.65 191.54 151.43 192.187 151.43 193.04V195.96C151.43 196.813 151.65 197.46 152.09 197.9C152.543 198.34 153.156 198.56 153.93 198.56ZM161.762 203.6V189H163.562V191.1H163.922L163.562 191.52C163.562 190.68 163.835 190.02 164.382 189.54C164.942 189.047 165.675 188.8 166.582 188.8C167.689 188.8 168.569 189.167 169.222 189.9C169.889 190.62 170.222 191.613 170.222 192.88V196.1C170.222 196.94 170.069 197.667 169.762 198.28C169.469 198.893 169.049 199.367 168.502 199.7C167.969 200.033 167.329 200.2 166.582 200.2C165.689 200.2 164.962 199.953 164.402 199.46C163.842 198.967 163.562 198.307 163.562 197.48L163.922 197.9H163.522L163.562 200.4V203.6H161.762ZM165.982 198.64C166.742 198.64 167.335 198.413 167.762 197.96C168.202 197.507 168.422 196.853 168.422 196V193C168.422 192.147 168.202 191.493 167.762 191.04C167.335 190.587 166.742 190.36 165.982 190.36C165.249 190.36 164.662 190.593 164.222 191.06C163.782 191.527 163.562 192.173 163.562 193V196C163.562 196.827 163.782 197.473 164.222 197.94C164.662 198.407 165.249 198.64 165.982 198.64ZM177.894 200.2C176.627 200.2 175.614 199.827 174.854 199.08C174.094 198.32 173.714 197.293 173.714 196V189H175.514V196C175.514 196.827 175.727 197.473 176.154 197.94C176.581 198.393 177.161 198.62 177.894 198.62C178.641 198.62 179.227 198.393 179.654 197.94C180.094 197.473 180.314 196.827 180.314 196V189H182.114V196C182.114 197.293 181.727 198.32 180.954 199.08C180.181 199.827 179.161 200.2 177.894 200.2ZM185.746 203.6V189H187.546V191.1H187.906L187.546 191.52C187.546 190.68 187.82 190.02 188.366 189.54C188.926 189.047 189.66 188.8 190.566 188.8C191.673 188.8 192.553 189.167 193.206 189.9C193.873 190.62 194.206 191.613 194.206 192.88V196.1C194.206 196.94 194.053 197.667 193.746 198.28C193.453 198.893 193.033 199.367 192.486 199.7C191.953 200.033 191.313 200.2 190.566 200.2C189.673 200.2 188.946 199.953 188.386 199.46C187.826 198.967 187.546 198.307 187.546 197.48L187.906 197.9H187.506L187.546 200.4V203.6H185.746ZM189.966 198.64C190.726 198.64 191.32 198.413 191.746 197.96C192.186 197.507 192.406 196.853 192.406 196V193C192.406 192.147 192.186 191.493 191.746 191.04C191.32 190.587 190.726 190.36 189.966 190.36C189.233 190.36 188.646 190.593 188.206 191.06C187.766 191.527 187.546 192.173 187.546 193V196C187.546 196.827 187.766 197.473 188.206 197.94C188.646 198.407 189.233 198.64 189.966 198.64ZM233.715 203.6V189H235.515V191.1H235.875L235.515 191.52C235.515 190.68 235.788 190.02 236.335 189.54C236.895 189.047 237.628 188.8 238.535 188.8C239.642 188.8 240.522 189.167 241.175 189.9C241.842 190.62 242.175 191.613 242.175 192.88V196.1C242.175 196.94 242.022 197.667 241.715 198.28C241.422 198.893 241.002 199.367 240.455 199.7C239.922 200.033 239.282 200.2 238.535 200.2C237.642 200.2 236.915 199.953 236.355 199.46C235.795 198.967 235.515 198.307 235.515 197.48L235.875 197.9H235.475L235.515 200.4V203.6H233.715ZM237.935 198.64C238.695 198.64 239.288 198.413 239.715 197.96C240.155 197.507 240.375 196.853 240.375 196V193C240.375 192.147 240.155 191.493 239.715 191.04C239.288 190.587 238.695 190.36 237.935 190.36C237.202 190.36 236.615 190.593 236.175 191.06C235.735 191.527 235.515 192.173 235.515 193V196C235.515 196.827 235.735 197.473 236.175 197.94C236.615 198.407 237.202 198.64 237.935 198.64ZM246.087 200V189H247.847V191.1H248.267L247.687 192.4C247.687 191.213 247.941 190.32 248.447 189.72C248.967 189.107 249.734 188.8 250.747 188.8C251.907 188.8 252.827 189.167 253.507 189.9C254.201 190.62 254.547 191.6 254.547 192.84V193.5H252.747V193C252.747 192.133 252.534 191.473 252.107 191.02C251.694 190.553 251.101 190.32 250.327 190.32C249.567 190.32 248.967 190.553 248.527 191.02C248.101 191.487 247.887 192.147 247.887 193V200H246.087ZM261.859 200.2C260.993 200.2 260.233 200.027 259.579 199.68C258.939 199.333 258.439 198.847 258.079 198.22C257.733 197.58 257.559 196.84 257.559 196V193C257.559 192.147 257.733 191.407 258.079 190.78C258.439 190.153 258.939 189.667 259.579 189.32C260.233 188.973 260.993 188.8 261.859 188.8C262.726 188.8 263.479 188.973 264.119 189.32C264.773 189.667 265.273 190.153 265.619 190.78C265.979 191.407 266.159 192.147 266.159 193V194.94H259.319V196C259.319 196.867 259.539 197.533 259.979 198C260.419 198.453 261.046 198.68 261.859 198.68C262.553 198.68 263.113 198.56 263.539 198.32C263.966 198.067 264.226 197.693 264.319 197.2H266.119C265.999 198.12 265.546 198.853 264.759 199.4C263.986 199.933 263.019 200.2 261.859 200.2ZM264.399 193.74V193C264.399 192.133 264.179 191.467 263.739 191C263.313 190.533 262.686 190.3 261.859 190.3C261.046 190.3 260.419 190.533 259.979 191C259.539 191.467 259.319 192.133 259.319 193V193.58H264.539L264.399 193.74ZM273.512 200.16C272.765 200.16 272.112 200.047 271.552 199.82C271.005 199.58 270.565 199.247 270.232 198.82C269.912 198.393 269.718 197.887 269.652 197.3H271.452C271.532 197.687 271.745 197.993 272.092 198.22C272.452 198.447 272.925 198.56 273.512 198.56H274.352C275.058 198.56 275.585 198.42 275.932 198.14C276.278 197.847 276.452 197.46 276.452 196.98C276.452 196.513 276.292 196.147 275.972 195.88C275.665 195.6 275.205 195.413 274.592 195.32L273.112 195.08C272.032 194.893 271.225 194.56 270.692 194.08C270.172 193.587 269.912 192.873 269.912 191.94C269.912 190.953 270.225 190.193 270.852 189.66C271.478 189.113 272.418 188.84 273.672 188.84H274.432C275.485 188.84 276.332 189.087 276.972 189.58C277.612 190.073 277.998 190.74 278.132 191.58H276.332C276.252 191.233 276.052 190.96 275.732 190.76C275.412 190.547 274.978 190.44 274.432 190.44H273.672C272.992 190.44 272.492 190.567 272.172 190.82C271.865 191.073 271.712 191.453 271.712 191.96C271.712 192.413 271.845 192.747 272.112 192.96C272.378 193.173 272.798 193.327 273.372 193.42L274.852 193.66C276.038 193.847 276.898 194.193 277.432 194.7C277.978 195.207 278.252 195.94 278.252 196.9C278.252 197.913 277.925 198.713 277.272 199.3C276.632 199.873 275.658 200.16 274.352 200.16H273.512ZM285.844 200.2C284.977 200.2 284.217 200.027 283.564 199.68C282.924 199.333 282.424 198.847 282.064 198.22C281.717 197.58 281.544 196.84 281.544 196V193C281.544 192.147 281.717 191.407 282.064 190.78C282.424 190.153 282.924 189.667 283.564 189.32C284.217 188.973 284.977 188.8 285.844 188.8C286.71 188.8 287.464 188.973 288.104 189.32C288.757 189.667 289.257 190.153 289.604 190.78C289.964 191.407 290.144 192.147 290.144 193V194.94H283.304V196C283.304 196.867 283.524 197.533 283.964 198C284.404 198.453 285.03 198.68 285.844 198.68C286.537 198.68 287.097 198.56 287.524 198.32C287.95 198.067 288.21 197.693 288.304 197.2H290.104C289.984 198.12 289.53 198.853 288.744 199.4C287.97 199.933 287.004 200.2 285.844 200.2ZM288.384 193.74V193C288.384 192.133 288.164 191.467 287.724 191C287.297 190.533 286.67 190.3 285.844 190.3C285.03 190.3 284.404 190.533 283.964 191C283.524 191.467 283.304 192.133 283.304 193V193.58H288.524L288.384 193.74ZM293.676 200V189H295.476V191.1H295.856L295.476 191.52C295.476 190.653 295.736 189.987 296.256 189.52C296.776 189.04 297.496 188.8 298.416 188.8C299.523 188.8 300.403 189.14 301.056 189.82C301.709 190.5 302.036 191.427 302.036 192.6V200H300.236V192.8C300.236 192.013 300.023 191.413 299.596 191C299.183 190.573 298.616 190.36 297.896 190.36C297.149 190.36 296.556 190.587 296.116 191.04C295.689 191.493 295.476 192.147 295.476 193V200H293.676ZM311.028 200C310.081 200 309.341 199.747 308.808 199.24C308.288 198.733 308.028 198.02 308.028 197.1V190.64H304.928V189H308.028V185.9H309.828V189H314.228V190.64H309.828V197.1C309.828 197.94 310.228 198.36 311.028 198.36H314.028V200H311.028ZM137.778 284V269.4H142.478C143.384 269.4 144.171 269.58 144.838 269.94C145.504 270.287 146.018 270.78 146.378 271.42C146.751 272.06 146.938 272.82 146.938 273.7C146.938 274.567 146.751 275.327 146.378 275.98C146.018 276.62 145.504 277.12 144.838 277.48C144.171 277.827 143.384 278 142.478 278H139.578V284H137.778ZM139.578 276.38H142.478C143.264 276.38 143.891 276.14 144.358 275.66C144.838 275.167 145.078 274.513 145.078 273.7C145.078 272.873 144.838 272.22 144.358 271.74C143.891 271.26 143.264 271.02 142.478 271.02H139.578V276.38ZM153.93 284.16C153.05 284.16 152.29 283.993 151.65 283.66C151.01 283.327 150.51 282.847 150.15 282.22C149.803 281.58 149.63 280.827 149.63 279.96V277.04C149.63 276.16 149.803 275.407 150.15 274.78C150.51 274.153 151.01 273.673 151.65 273.34C152.29 273.007 153.05 272.84 153.93 272.84C154.81 272.84 155.57 273.007 156.21 273.34C156.85 273.673 157.343 274.153 157.69 274.78C158.05 275.407 158.23 276.153 158.23 277.02V279.96C158.23 280.827 158.05 281.58 157.69 282.22C157.343 282.847 156.85 283.327 156.21 283.66C155.57 283.993 154.81 284.16 153.93 284.16ZM153.93 282.56C154.716 282.56 155.33 282.34 155.77 281.9C156.21 281.46 156.43 280.813 156.43 279.96V277.04C156.43 276.187 156.21 275.54 155.77 275.1C155.33 274.66 154.716 274.44 153.93 274.44C153.156 274.44 152.543 274.66 152.09 275.1C151.65 275.54 151.43 276.187 151.43 277.04V279.96C151.43 280.813 151.65 281.46 152.09 281.9C152.543 282.34 153.156 282.56 153.93 282.56ZM161.762 287.6V273H163.562V275.1H163.922L163.562 275.52C163.562 274.68 163.835 274.02 164.382 273.54C164.942 273.047 165.675 272.8 166.582 272.8C167.689 272.8 168.569 273.167 169.222 273.9C169.889 274.62 170.222 275.613 170.222 276.88V280.1C170.222 280.94 170.069 281.667 169.762 282.28C169.469 282.893 169.049 283.367 168.502 283.7C167.969 284.033 167.329 284.2 166.582 284.2C165.689 284.2 164.962 283.953 164.402 283.46C163.842 282.967 163.562 282.307 163.562 281.48L163.922 281.9H163.522L163.562 284.4V287.6H161.762ZM165.982 282.64C166.742 282.64 167.335 282.413 167.762 281.96C168.202 281.507 168.422 280.853 168.422 280V277C168.422 276.147 168.202 275.493 167.762 275.04C167.335 274.587 166.742 274.36 165.982 274.36C165.249 274.36 164.662 274.593 164.222 275.06C163.782 275.527 163.562 276.173 163.562 277V280C163.562 280.827 163.782 281.473 164.222 281.94C164.662 282.407 165.249 282.64 165.982 282.64ZM177.894 284.2C176.627 284.2 175.614 283.827 174.854 283.08C174.094 282.32 173.714 281.293 173.714 280V273H175.514V280C175.514 280.827 175.727 281.473 176.154 281.94C176.581 282.393 177.161 282.62 177.894 282.62C178.641 282.62 179.227 282.393 179.654 281.94C180.094 281.473 180.314 280.827 180.314 280V273H182.114V280C182.114 281.293 181.727 282.32 180.954 283.08C180.181 283.827 179.161 284.2 177.894 284.2ZM185.746 287.6V273H187.546V275.1H187.906L187.546 275.52C187.546 274.68 187.82 274.02 188.366 273.54C188.926 273.047 189.66 272.8 190.566 272.8C191.673 272.8 192.553 273.167 193.206 273.9C193.873 274.62 194.206 275.613 194.206 276.88V280.1C194.206 280.94 194.053 281.667 193.746 282.28C193.453 282.893 193.033 283.367 192.486 283.7C191.953 284.033 191.313 284.2 190.566 284.2C189.673 284.2 188.946 283.953 188.386 283.46C187.826 282.967 187.546 282.307 187.546 281.48L187.906 281.9H187.506L187.546 284.4V287.6H185.746ZM189.966 282.64C190.726 282.64 191.32 282.413 191.746 281.96C192.186 281.507 192.406 280.853 192.406 280V277C192.406 276.147 192.186 275.493 191.746 275.04C191.32 274.587 190.726 274.36 189.966 274.36C189.233 274.36 188.646 274.593 188.206 275.06C187.766 275.527 187.546 276.173 187.546 277V280C187.546 280.827 187.766 281.473 188.206 281.94C188.646 282.407 189.233 282.64 189.966 282.64ZM197.418 284V269.4H199.778L201.298 274.12C201.445 274.547 201.578 274.973 201.698 275.4C201.818 275.813 201.905 276.133 201.958 276.36C202.025 276.133 202.112 275.813 202.218 275.4C202.325 274.973 202.445 274.54 202.578 274.1L204.018 269.4H206.378V284H204.618V278.7C204.618 278.113 204.638 277.447 204.678 276.7C204.718 275.953 204.772 275.193 204.838 274.42C204.905 273.633 204.972 272.887 205.038 272.18C205.118 271.46 205.185 270.833 205.238 270.3L202.878 277.6H200.978L198.598 270.3C198.665 270.82 198.732 271.427 198.798 272.12C198.865 272.8 198.925 273.527 198.978 274.3C199.032 275.06 199.078 275.82 199.118 276.58C199.158 277.34 199.178 278.047 199.178 278.7V284H197.418ZM212.931 284.2C211.771 284.2 210.857 283.907 210.191 283.32C209.524 282.72 209.191 281.913 209.191 280.9C209.191 279.873 209.524 279.067 210.191 278.48C210.857 277.893 211.757 277.6 212.891 277.6H216.291V276.5C216.291 275.82 216.084 275.3 215.671 274.94C215.271 274.567 214.697 274.38 213.951 274.38C213.297 274.38 212.751 274.52 212.311 274.8C211.871 275.067 211.617 275.433 211.551 275.9H209.751C209.871 274.953 210.317 274.2 211.091 273.64C211.864 273.08 212.831 272.8 213.991 272.8C215.257 272.8 216.257 273.127 216.991 273.78C217.724 274.433 218.091 275.32 218.091 276.44V284H216.331V281.9H216.031L216.331 281.6C216.331 282.4 216.017 283.033 215.391 283.5C214.777 283.967 213.957 284.2 212.931 284.2ZM213.371 282.78C214.224 282.78 214.924 282.567 215.471 282.14C216.017 281.713 216.291 281.167 216.291 280.5V278.94H212.931C212.331 278.94 211.857 279.107 211.511 279.44C211.164 279.773 210.991 280.227 210.991 280.8C210.991 281.413 211.197 281.9 211.611 282.26C212.037 282.607 212.624 282.78 213.371 282.78ZM221.723 284V273H223.523V275.1H223.903L223.523 275.52C223.523 274.653 223.783 273.987 224.303 273.52C224.823 273.04 225.543 272.8 226.463 272.8C227.569 272.8 228.449 273.14 229.103 273.82C229.756 274.5 230.083 275.427 230.083 276.6V284H228.283V276.8C228.283 276.013 228.069 275.413 227.643 275C227.229 274.573 226.663 274.36 225.943 274.36C225.196 274.36 224.603 274.587 224.163 275.04C223.736 275.493 223.523 276.147 223.523 277V284H221.723ZM236.915 284.2C235.755 284.2 234.842 283.907 234.175 283.32C233.508 282.72 233.175 281.913 233.175 280.9C233.175 279.873 233.508 279.067 234.175 278.48C234.842 277.893 235.742 277.6 236.875 277.6H240.275V276.5C240.275 275.82 240.068 275.3 239.655 274.94C239.255 274.567 238.682 274.38 237.935 274.38C237.282 274.38 236.735 274.52 236.295 274.8C235.855 275.067 235.602 275.433 235.535 275.9H233.735C233.855 274.953 234.302 274.2 235.075 273.64C235.848 273.08 236.815 272.8 237.975 272.8C239.242 272.8 240.242 273.127 240.975 273.78C241.708 274.433 242.075 275.32 242.075 276.44V284H240.315V281.9H240.015L240.315 281.6C240.315 282.4 240.002 283.033 239.375 283.5C238.762 283.967 237.942 284.2 236.915 284.2ZM237.355 282.78C238.208 282.78 238.908 282.567 239.455 282.14C240.002 281.713 240.275 281.167 240.275 280.5V278.94H236.915C236.315 278.94 235.842 279.107 235.495 279.44C235.148 279.773 234.975 280.227 234.975 280.8C234.975 281.413 235.182 281.9 235.595 282.26C236.022 282.607 236.608 282.78 237.355 282.78ZM247.087 287.6V285.96H250.587C251.147 285.96 251.554 285.833 251.807 285.58C252.074 285.327 252.207 284.933 252.207 284.4V283L252.247 281H251.887L252.227 280.7C252.227 281.5 251.961 282.133 251.427 282.6C250.894 283.067 250.181 283.3 249.287 283.3C248.154 283.3 247.261 282.933 246.607 282.2C245.954 281.453 245.627 280.453 245.627 279.2V276.88C245.627 275.627 245.954 274.633 246.607 273.9C247.261 273.167 248.154 272.8 249.287 272.8C250.181 272.8 250.894 273.033 251.427 273.5C251.961 273.967 252.227 274.6 252.227 275.4L251.887 275.1H252.227V273H254.007V284.4C254.007 285.387 253.701 286.167 253.087 286.74C252.487 287.313 251.647 287.6 250.567 287.6H247.087ZM249.827 281.74C250.574 281.74 251.161 281.507 251.587 281.04C252.014 280.573 252.227 279.927 252.227 279.1V277C252.227 276.173 252.014 275.527 251.587 275.06C251.161 274.593 250.574 274.36 249.827 274.36C249.067 274.36 248.474 274.587 248.047 275.04C247.634 275.493 247.427 276.147 247.427 277V279.1C247.427 279.953 247.634 280.607 248.047 281.06C248.474 281.513 249.067 281.74 249.827 281.74ZM261.859 284.2C260.993 284.2 260.233 284.027 259.579 283.68C258.939 283.333 258.439 282.847 258.079 282.22C257.733 281.58 257.559 280.84 257.559 280V277C257.559 276.147 257.733 275.407 258.079 274.78C258.439 274.153 258.939 273.667 259.579 273.32C260.233 272.973 260.993 272.8 261.859 272.8C262.726 272.8 263.479 272.973 264.119 273.32C264.773 273.667 265.273 274.153 265.619 274.78C265.979 275.407 266.159 276.147 266.159 277V278.94H259.319V280C259.319 280.867 259.539 281.533 259.979 282C260.419 282.453 261.046 282.68 261.859 282.68C262.553 282.68 263.113 282.56 263.539 282.32C263.966 282.067 264.226 281.693 264.319 281.2H266.119C265.999 282.12 265.546 282.853 264.759 283.4C263.986 283.933 263.019 284.2 261.859 284.2ZM264.399 277.74V277C264.399 276.133 264.179 275.467 263.739 275C263.313 274.533 262.686 274.3 261.859 274.3C261.046 274.3 260.419 274.533 259.979 275C259.539 275.467 259.319 276.133 259.319 277V277.58H264.539L264.399 277.74ZM270.072 284V273H271.832V275.1H272.252L271.672 276.4C271.672 275.213 271.925 274.32 272.432 273.72C272.952 273.107 273.718 272.8 274.732 272.8C275.892 272.8 276.812 273.167 277.492 273.9C278.185 274.62 278.532 275.6 278.532 276.84V277.5H276.732V277C276.732 276.133 276.518 275.473 276.092 275.02C275.678 274.553 275.085 274.32 274.312 274.32C273.552 274.32 272.952 274.553 272.512 275.02C272.085 275.487 271.872 276.147 271.872 277V284H270.072ZM297.196 284.2C296.103 284.2 295.216 283.833 294.536 283.1C293.869 282.367 293.536 281.373 293.536 280.12V276.9C293.536 275.633 293.869 274.633 294.536 273.9C295.203 273.167 296.089 272.8 297.196 272.8C298.103 272.8 298.829 273.047 299.376 273.54C299.923 274.033 300.196 274.693 300.196 275.52L299.836 275.1H300.236L300.196 272.6V269.4H301.996V284H300.196V281.9H299.836L300.196 281.48C300.196 282.32 299.923 282.987 299.376 283.48C298.829 283.96 298.103 284.2 297.196 284.2ZM297.796 282.64C298.543 282.64 299.129 282.407 299.556 281.94C299.983 281.473 300.196 280.827 300.196 280V277C300.196 276.173 299.983 275.527 299.556 275.06C299.129 274.593 298.543 274.36 297.796 274.36C297.036 274.36 296.436 274.587 295.996 275.04C295.556 275.493 295.336 276.147 295.336 277V280C295.336 280.853 295.556 281.507 295.996 281.96C296.436 282.413 297.036 282.64 297.796 282.64ZM305.528 284V282.36H309.428V274.64H306.028V273H311.228V282.36H314.928V284H305.528ZM310.128 271.02C309.688 271.02 309.341 270.907 309.088 270.68C308.835 270.453 308.708 270.147 308.708 269.76C308.708 269.36 308.835 269.047 309.088 268.82C309.341 268.58 309.688 268.46 310.128 268.46C310.568 268.46 310.915 268.58 311.168 268.82C311.421 269.047 311.548 269.36 311.548 269.76C311.548 270.147 311.421 270.453 311.168 270.68C310.915 270.907 310.568 271.02 310.128 271.02ZM321.48 284.16C320.734 284.16 320.08 284.047 319.52 283.82C318.974 283.58 318.534 283.247 318.2 282.82C317.88 282.393 317.687 281.887 317.62 281.3H319.42C319.5 281.687 319.714 281.993 320.06 282.22C320.42 282.447 320.894 282.56 321.48 282.56H322.32C323.027 282.56 323.554 282.42 323.9 282.14C324.247 281.847 324.42 281.46 324.42 280.98C324.42 280.513 324.26 280.147 323.94 279.88C323.634 279.6 323.174 279.413 322.56 279.32L321.08 279.08C320 278.893 319.194 278.56 318.66 278.08C318.14 277.587 317.88 276.873 317.88 275.94C317.88 274.953 318.194 274.193 318.82 273.66C319.447 273.113 320.387 272.84 321.64 272.84H322.4C323.454 272.84 324.3 273.087 324.94 273.58C325.58 274.073 325.967 274.74 326.1 275.58H324.3C324.22 275.233 324.02 274.96 323.7 274.76C323.38 274.547 322.947 274.44 322.4 274.44H321.64C320.96 274.44 320.46 274.567 320.14 274.82C319.834 275.073 319.68 275.453 319.68 275.96C319.68 276.413 319.814 276.747 320.08 276.96C320.347 277.173 320.767 277.327 321.34 277.42L322.82 277.66C324.007 277.847 324.867 278.193 325.4 278.7C325.947 279.207 326.22 279.94 326.22 280.9C326.22 281.913 325.894 282.713 325.24 283.3C324.6 283.873 323.627 284.16 322.32 284.16H321.48ZM329.132 284V273H330.713V274.32H331.073L330.793 274.8C330.793 274.187 330.953 273.7 331.273 273.34C331.606 272.98 332.053 272.8 332.613 272.8C333.226 272.8 333.699 273.027 334.033 273.48C334.366 273.933 334.533 274.573 334.533 275.4L333.993 274.32H334.833L334.453 274.8C334.453 274.187 334.619 273.7 334.953 273.34C335.299 272.98 335.753 272.8 336.313 272.8C337.006 272.8 337.539 273.06 337.912 273.58C338.299 274.1 338.493 274.787 338.493 275.64V284H336.833V275.62C336.833 275.167 336.733 274.813 336.533 274.56C336.346 274.307 336.066 274.18 335.693 274.18C335.333 274.18 335.046 274.307 334.833 274.56C334.633 274.8 334.533 275.147 334.533 275.6V284H333.092V275.62C333.092 275.153 332.986 274.8 332.773 274.56C332.573 274.307 332.286 274.18 331.913 274.18C331.539 274.18 331.259 274.307 331.073 274.56C330.886 274.8 330.793 275.147 330.793 275.6V284H329.132ZM341.505 284V282.36H345.405V274.64H342.005V273H347.205V282.36H350.905V284H341.505ZM346.105 271.02C345.665 271.02 345.318 270.907 345.065 270.68C344.811 270.453 344.685 270.147 344.685 269.76C344.685 269.36 344.811 269.047 345.065 268.82C345.318 268.58 345.665 268.46 346.105 268.46C346.545 268.46 346.891 268.58 347.145 268.82C347.398 269.047 347.525 269.36 347.525 269.76C347.525 270.147 347.398 270.453 347.145 270.68C346.891 270.907 346.545 271.02 346.105 271.02ZM357.457 284.16C356.71 284.16 356.057 284.047 355.497 283.82C354.95 283.58 354.51 283.247 354.177 282.82C353.857 282.393 353.664 281.887 353.597 281.3H355.397C355.477 281.687 355.69 281.993 356.037 282.22C356.397 282.447 356.87 282.56 357.457 282.56H358.297C359.004 282.56 359.53 282.42 359.877 282.14C360.224 281.847 360.397 281.46 360.397 280.98C360.397 280.513 360.237 280.147 359.917 279.88C359.61 279.6 359.15 279.413 358.537 279.32L357.057 279.08C355.977 278.893 355.17 278.56 354.637 278.08C354.117 277.587 353.857 276.873 353.857 275.94C353.857 274.953 354.17 274.193 354.797 273.66C355.424 273.113 356.364 272.84 357.617 272.84H358.377C359.43 272.84 360.277 273.087 360.917 273.58C361.557 274.073 361.944 274.74 362.077 275.58H360.277C360.197 275.233 359.997 274.96 359.677 274.76C359.357 274.547 358.924 274.44 358.377 274.44H357.617C356.937 274.44 356.437 274.567 356.117 274.82C355.81 275.073 355.657 275.453 355.657 275.96C355.657 276.413 355.79 276.747 356.057 276.96C356.324 277.173 356.744 277.327 357.317 277.42L358.797 277.66C359.984 277.847 360.844 278.193 361.377 278.7C361.924 279.207 362.197 279.94 362.197 280.9C362.197 281.913 361.87 282.713 361.217 283.3C360.577 283.873 359.604 284.16 358.297 284.16H357.457ZM369.449 284.16C368.702 284.16 368.049 284.047 367.489 283.82C366.942 283.58 366.502 283.247 366.169 282.82C365.849 282.393 365.656 281.887 365.589 281.3H367.389C367.469 281.687 367.682 281.993 368.029 282.22C368.389 282.447 368.862 282.56 369.449 282.56H370.289C370.996 282.56 371.522 282.42 371.869 282.14C372.216 281.847 372.389 281.46 372.389 280.98C372.389 280.513 372.229 280.147 371.909 279.88C371.602 279.6 371.142 279.413 370.529 279.32L369.049 279.08C367.969 278.893 367.162 278.56 366.629 278.08C366.109 277.587 365.849 276.873 365.849 275.94C365.849 274.953 366.162 274.193 366.789 273.66C367.416 273.113 368.356 272.84 369.609 272.84H370.369C371.422 272.84 372.269 273.087 372.909 273.58C373.549 274.073 373.936 274.74 374.069 275.58H372.269C372.189 275.233 371.989 274.96 371.669 274.76C371.349 274.547 370.916 274.44 370.369 274.44H369.609C368.929 274.44 368.429 274.567 368.109 274.82C367.802 275.073 367.649 275.453 367.649 275.96C367.649 276.413 367.782 276.747 368.049 276.96C368.316 277.173 368.736 277.327 369.309 277.42L370.789 277.66C371.976 277.847 372.836 278.193 373.369 278.7C373.916 279.207 374.189 279.94 374.189 280.9C374.189 281.913 373.862 282.713 373.209 283.3C372.569 283.873 371.596 284.16 370.289 284.16H369.449ZM378.081 284V269.4H379.881V282.36H386.481V284H378.081ZM392.813 284.2C391.653 284.2 390.74 283.907 390.073 283.32C389.407 282.72 389.073 281.913 389.073 280.9C389.073 279.873 389.407 279.067 390.073 278.48C390.74 277.893 391.64 277.6 392.773 277.6H396.173V276.5C396.173 275.82 395.967 275.3 395.553 274.94C395.153 274.567 394.58 274.38 393.833 274.38C393.18 274.38 392.633 274.52 392.193 274.8C391.753 275.067 391.5 275.433 391.433 275.9H389.633C389.753 274.953 390.2 274.2 390.973 273.64C391.747 273.08 392.713 272.8 393.873 272.8C395.14 272.8 396.14 273.127 396.873 273.78C397.607 274.433 397.973 275.32 397.973 276.44V284H396.213V281.9H395.913L396.213 281.6C396.213 282.4 395.9 283.033 395.273 283.5C394.66 283.967 393.84 284.2 392.813 284.2ZM393.253 282.78C394.107 282.78 394.807 282.567 395.353 282.14C395.9 281.713 396.173 281.167 396.173 280.5V278.94H392.813C392.213 278.94 391.74 279.107 391.393 279.44C391.047 279.773 390.873 280.227 390.873 280.8C390.873 281.413 391.08 281.9 391.493 282.26C391.92 282.607 392.507 282.78 393.253 282.78ZM405.426 284.16C404.679 284.16 404.026 284.047 403.466 283.82C402.919 283.58 402.479 283.247 402.146 282.82C401.826 282.393 401.632 281.887 401.566 281.3H403.366C403.446 281.687 403.659 281.993 404.006 282.22C404.366 282.447 404.839 282.56 405.426 282.56H406.266C406.972 282.56 407.499 282.42 407.846 282.14C408.192 281.847 408.366 281.46 408.366 280.98C408.366 280.513 408.206 280.147 407.886 279.88C407.579 279.6 407.119 279.413 406.506 279.32L405.026 279.08C403.946 278.893 403.139 278.56 402.606 278.08C402.086 277.587 401.826 276.873 401.826 275.94C401.826 274.953 402.139 274.193 402.766 273.66C403.392 273.113 404.332 272.84 405.586 272.84H406.346C407.399 272.84 408.246 273.087 408.886 273.58C409.526 274.073 409.912 274.74 410.046 275.58H408.246C408.166 275.233 407.966 274.96 407.646 274.76C407.326 274.547 406.892 274.44 406.346 274.44H405.586C404.906 274.44 404.406 274.567 404.086 274.82C403.779 275.073 403.626 275.453 403.626 275.96C403.626 276.413 403.759 276.747 404.026 276.96C404.292 277.173 404.712 277.327 405.286 277.42L406.766 277.66C407.952 277.847 408.812 278.193 409.346 278.7C409.892 279.207 410.166 279.94 410.166 280.9C410.166 281.913 409.839 282.713 409.186 283.3C408.546 283.873 407.572 284.16 406.266 284.16H405.426ZM418.958 284C418.011 284 417.271 283.747 416.738 283.24C416.218 282.733 415.958 282.02 415.958 281.1V274.64H412.858V273H415.958V269.9H417.758V273H422.158V274.64H417.758V281.1C417.758 281.94 418.158 282.36 418.958 282.36H421.958V284H418.958ZM425.59 284V269.4H430.29C431.197 269.4 431.983 269.58 432.65 269.94C433.317 270.287 433.83 270.78 434.19 271.42C434.563 272.06 434.75 272.82 434.75 273.7C434.75 274.567 434.563 275.327 434.19 275.98C433.83 276.62 433.317 277.12 432.65 277.48C431.983 277.827 431.197 278 430.29 278H427.39V284H425.59ZM427.39 276.38H430.29C431.077 276.38 431.703 276.14 432.17 275.66C432.65 275.167 432.89 274.513 432.89 273.7C432.89 272.873 432.65 272.22 432.17 271.74C431.703 271.26 431.077 271.02 430.29 271.02H427.39V276.38ZM441.742 284.16C440.862 284.16 440.102 283.993 439.462 283.66C438.822 283.327 438.322 282.847 437.962 282.22C437.616 281.58 437.442 280.827 437.442 279.96V277.04C437.442 276.16 437.616 275.407 437.962 274.78C438.322 274.153 438.822 273.673 439.462 273.34C440.102 273.007 440.862 272.84 441.742 272.84C442.622 272.84 443.382 273.007 444.022 273.34C444.662 273.673 445.156 274.153 445.502 274.78C445.862 275.407 446.042 276.153 446.042 277.02V279.96C446.042 280.827 445.862 281.58 445.502 282.22C445.156 282.847 444.662 283.327 444.022 283.66C443.382 283.993 442.622 284.16 441.742 284.16ZM441.742 282.56C442.529 282.56 443.142 282.34 443.582 281.9C444.022 281.46 444.242 280.813 444.242 279.96V277.04C444.242 276.187 444.022 275.54 443.582 275.1C443.142 274.66 442.529 274.44 441.742 274.44C440.969 274.44 440.356 274.66 439.902 275.1C439.462 275.54 439.242 276.187 439.242 277.04V279.96C439.242 280.813 439.462 281.46 439.902 281.9C440.356 282.34 440.969 282.56 441.742 282.56ZM449.574 287.6V273H451.374V275.1H451.734L451.374 275.52C451.374 274.68 451.648 274.02 452.194 273.54C452.754 273.047 453.488 272.8 454.394 272.8C455.501 272.8 456.381 273.167 457.034 273.9C457.701 274.62 458.034 275.613 458.034 276.88V280.1C458.034 280.94 457.881 281.667 457.574 282.28C457.281 282.893 456.861 283.367 456.314 283.7C455.781 284.033 455.141 284.2 454.394 284.2C453.501 284.2 452.774 283.953 452.214 283.46C451.654 282.967 451.374 282.307 451.374 281.48L451.734 281.9H451.334L451.374 284.4V287.6H449.574ZM453.794 282.64C454.554 282.64 455.148 282.413 455.574 281.96C456.014 281.507 456.234 280.853 456.234 280V277C456.234 276.147 456.014 275.493 455.574 275.04C455.148 274.587 454.554 274.36 453.794 274.36C453.061 274.36 452.474 274.593 452.034 275.06C451.594 275.527 451.374 276.173 451.374 277V280C451.374 280.827 451.594 281.473 452.034 281.94C452.474 282.407 453.061 282.64 453.794 282.64ZM465.707 284.2C464.44 284.2 463.427 283.827 462.667 283.08C461.907 282.32 461.527 281.293 461.527 280V273H463.327V280C463.327 280.827 463.54 281.473 463.967 281.94C464.393 282.393 464.973 282.62 465.707 282.62C466.453 282.62 467.04 282.393 467.467 281.94C467.907 281.473 468.127 280.827 468.127 280V273H469.927V280C469.927 281.293 469.54 282.32 468.767 283.08C467.993 283.827 466.973 284.2 465.707 284.2ZM473.559 287.6V273H475.359V275.1H475.719L475.359 275.52C475.359 274.68 475.632 274.02 476.179 273.54C476.739 273.047 477.472 272.8 478.379 272.8C479.485 272.8 480.365 273.167 481.019 273.9C481.685 274.62 482.019 275.613 482.019 276.88V280.1C482.019 280.94 481.865 281.667 481.559 282.28C481.265 282.893 480.845 283.367 480.299 283.7C479.765 284.033 479.125 284.2 478.379 284.2C477.485 284.2 476.759 283.953 476.199 283.46C475.639 282.967 475.359 282.307 475.359 281.48L475.719 281.9H475.319L475.359 284.4V287.6H473.559ZM477.779 282.64C478.539 282.64 479.132 282.413 479.559 281.96C479.999 281.507 480.219 280.853 480.219 280V277C480.219 276.147 479.999 275.493 479.559 275.04C479.132 274.587 478.539 274.36 477.779 274.36C477.045 274.36 476.459 274.593 476.019 275.06C475.579 275.527 475.359 276.173 475.359 277V280C475.359 280.827 475.579 281.473 476.019 281.94C476.459 282.407 477.045 282.64 477.779 282.64Z" fill="#78C2B3"/>
</svg>
