<svg width="1280" height="387" viewBox="0 0 1280 387" fill="none" xmlns="http://www.w3.org/2000/svg">
<rect x="1" y="1" width="1278" height="385" rx="25" fill="#0D0D0E"/>
<rect x="1" y="1" width="1278" height="385" rx="25" stroke="#262629" stroke-width="2"/>
<path d="M48.932 66.42C44.564 66.42 42.156 64.824 41.092 61.884C40.784 61.072 41.008 60.708 41.792 60.428L43.836 59.7C44.648 59.392 44.956 59.532 45.348 60.372C45.88 61.576 47.14 62.304 48.96 62.304C51.312 62.304 52.656 61.688 52.656 60.092C52.656 58.692 50.948 58.3 48.876 58.076C45.516 57.684 41.148 57.124 41.148 51.972C41.148 48.36 43.864 45.7 49.128 45.7C53.188 45.7 55.316 47.072 56.604 49.816C56.996 50.6 56.772 50.992 55.988 51.328L53.86 52.252C53.132 52.588 52.824 52.448 52.432 51.692C51.816 50.516 50.864 49.844 49.128 49.844C46.804 49.844 45.796 50.432 45.796 51.776C45.796 53.288 47.728 53.596 50.024 53.848C53.272 54.24 57.248 55.08 57.248 60.008C57.248 63.844 54.084 66.42 48.932 66.42ZM67.5435 66C62.6435 66 60.7395 64.572 60.7395 59.644V55.192H59.2555C58.4715 55.192 58.2195 54.912 58.2195 54.156V52.476C58.2195 51.692 58.4715 51.44 59.2555 51.44H60.7395V49.116C60.7395 48.332 61.0195 48.08 61.7755 48.08H63.9595C64.7155 48.08 64.9675 48.332 64.9675 49.116V51.44H67.5715C68.3275 51.44 68.5795 51.692 68.5795 52.476V54.156C68.5795 54.912 68.3275 55.192 67.5715 55.192H64.9675V59.476C64.9675 61.688 65.6675 62.08 67.5435 62.08C68.3275 62.08 68.5795 62.332 68.5795 63.144V64.908C68.5795 65.72 68.3275 66 67.5435 66ZM76.5925 66.42C71.5245 66.42 70.1805 64.796 70.1805 61.8C70.1805 58.3 72.1125 57.236 76.7045 57.236C77.4605 57.236 78.2725 57.292 78.6925 57.32V56.648C78.6925 55.276 78.1045 54.548 76.5365 54.548C75.4165 54.548 74.7165 54.912 74.2125 55.584C73.7645 56.228 73.5405 56.368 72.7845 56.032L71.2445 55.416C70.5165 55.108 70.2925 54.716 70.6845 53.932C71.6645 52.084 73.6525 51.02 76.6765 51.02C81.4085 51.02 82.9205 53.484 82.9205 56.928V64.04C82.9205 65.048 82.6965 65.328 81.8845 65.664C80.8205 66.14 79.0005 66.42 76.5925 66.42ZM76.2845 63.172C77.4605 63.172 78.1605 63.088 78.4965 63.032C78.6085 63.004 78.6925 62.976 78.6925 62.836V60.456C78.1605 60.428 77.0965 60.372 76.3405 60.372C74.7445 60.372 74.4085 60.988 74.4085 61.772C74.4085 62.556 74.7165 63.172 76.2845 63.172ZM91.6908 66.42C87.2388 66.42 85.3068 64.18 85.3068 60.484V56.956C85.3068 53.288 87.3788 51.02 91.9708 51.02C95.3308 51.02 97.3748 52.644 98.0748 54.744C98.3548 55.556 98.1308 55.948 97.3748 56.2L95.5828 56.788C94.7708 57.068 94.4068 56.872 94.0988 56.088C93.7348 55.192 93.0068 54.66 91.8028 54.66C90.2908 54.66 89.5348 55.388 89.5348 56.732V60.68C89.5348 62.052 90.2908 62.78 91.8028 62.78C93.0068 62.78 93.7348 62.248 94.0988 61.352C94.4068 60.568 94.7708 60.428 95.5828 60.68L97.4028 61.24C98.1868 61.492 98.4668 61.884 98.1308 62.724C97.1508 65.048 95.1348 66.42 91.6908 66.42ZM101.584 66C100.772 66 100.52 65.748 100.52 64.936V46.344C100.52 45.532 100.772 45.28 101.584 45.28H103.684C104.496 45.28 104.748 45.532 104.748 46.344V56.732H105.336H105.532L108.668 52.28C109.172 51.496 109.508 51.44 110.656 51.44H112.532C113.568 51.44 113.792 51.888 113.26 52.672L109.48 57.796C110.096 58.216 110.572 58.86 111.048 59.812L113.484 64.74C113.96 65.636 113.82 66 112.784 66H110.852C109.648 66 109.368 65.86 109.004 65.048L107.52 61.604C107.184 60.82 106.68 60.484 105.728 60.484H104.748V64.936C104.748 65.748 104.496 66 103.684 66H101.584ZM117.571 49.396C116.059 49.396 115.611 49.004 115.611 47.492V47.212C115.611 45.7 116.059 45.308 117.571 45.308H118.131C119.643 45.308 120.091 45.7 120.091 47.212V47.492C120.091 49.004 119.643 49.396 118.131 49.396H117.571ZM116.759 66C116.003 66 115.723 65.748 115.723 64.964V52.476C115.723 51.692 116.003 51.44 116.759 51.44H118.943C119.699 51.44 119.951 51.692 119.951 52.476V64.964C119.951 65.748 119.699 66 118.943 66H116.759ZM124.004 66C123.22 66 122.968 65.748 122.968 64.964V53.652C122.968 52.728 123.164 52.392 124.088 52.028C125.264 51.552 127.028 51.02 129.8 51.02C133.944 51.02 135.848 53.148 135.848 56.816V64.964C135.848 65.748 135.596 66 134.84 66H132.656C131.9 66 131.62 65.748 131.62 64.964V56.956C131.62 55.5 130.836 54.856 129.24 54.856C128.484 54.856 127.868 54.94 127.28 55.08C127.252 55.108 127.196 55.136 127.196 55.192V64.964C127.196 65.748 126.944 66 126.16 66H124.004ZM144.877 72.44C141.797 72.44 139.921 71.488 138.857 69.836C138.381 69.08 138.549 68.576 139.305 68.184L140.873 67.372C141.657 66.952 142.021 67.092 142.497 67.736C143.001 68.408 143.645 68.8 144.793 68.8C146.249 68.8 147.033 68.044 147.033 66.532V65.328C146.249 65.496 145.381 65.608 144.429 65.608C140.285 65.608 138.381 63.48 138.381 59.812V57.096C138.381 53.148 140.509 51.02 144.933 51.02C147.313 51.02 149.245 51.468 150.225 51.944C151.149 52.364 151.261 52.588 151.261 53.512V66.224C151.261 69.892 149.441 72.44 144.877 72.44ZM144.961 61.828C145.745 61.828 146.473 61.744 147.033 61.632V55.164C147.033 55.08 147.005 55.024 146.921 54.996C146.417 54.884 145.829 54.8 145.157 54.8C143.421 54.8 142.609 55.528 142.609 57.096V59.784C142.609 61.1 143.477 61.828 144.961 61.828Z" fill="#F1EFEF"/>
<path d="M46.08 144.2C45.2 144.2 44.4267 144.033 43.76 143.7C43.1067 143.367 42.6 142.887 42.24 142.26C41.88 141.62 41.7 140.867 41.7 140V137C41.7 136.12 41.88 135.367 42.24 134.74C42.6 134.113 43.1067 133.633 43.76 133.3C44.4267 132.967 45.2 132.8 46.08 132.8C47.3467 132.8 48.3667 133.14 49.14 133.82C49.9133 134.5 50.32 135.427 50.36 136.6H48.56C48.52 135.893 48.28 135.353 47.84 134.98C47.4133 134.593 46.8267 134.4 46.08 134.4C45.2933 134.4 44.6667 134.627 44.2 135.08C43.7333 135.52 43.5 136.153 43.5 136.98V140C43.5 140.827 43.7333 141.467 44.2 141.92C44.6667 142.373 45.2933 142.6 46.08 142.6C46.8267 142.6 47.4133 142.407 47.84 142.02C48.28 141.633 48.52 141.093 48.56 140.4H50.36C50.32 141.573 49.9133 142.5 49.14 143.18C48.3667 143.86 47.3467 144.2 46.08 144.2ZM59.4922 144C58.8522 144 58.2922 143.873 57.8122 143.62C57.3322 143.367 56.9589 143.007 56.6922 142.54C56.4255 142.073 56.2922 141.527 56.2922 140.9V131.04H52.5922V129.4H58.0922V140.9C58.0922 141.353 58.2189 141.713 58.4722 141.98C58.7255 142.233 59.0655 142.36 59.4922 142.36H62.9922V144H59.4922ZM69.0244 144.2C67.8644 144.2 66.951 143.907 66.2844 143.32C65.6177 142.72 65.2844 141.913 65.2844 140.9C65.2844 139.873 65.6177 139.067 66.2844 138.48C66.951 137.893 67.851 137.6 68.9844 137.6H72.3844V136.5C72.3844 135.82 72.1777 135.3 71.7644 134.94C71.3644 134.567 70.791 134.38 70.0444 134.38C69.391 134.38 68.8444 134.52 68.4044 134.8C67.9644 135.067 67.711 135.433 67.6444 135.9H65.8444C65.9644 134.953 66.411 134.2 67.1844 133.64C67.9577 133.08 68.9244 132.8 70.0844 132.8C71.351 132.8 72.351 133.127 73.0844 133.78C73.8177 134.433 74.1844 135.32 74.1844 136.44V144H72.4244V141.9H72.1244L72.4244 141.6C72.4244 142.4 72.111 143.033 71.4844 143.5C70.871 143.967 70.051 144.2 69.0244 144.2ZM69.4644 142.78C70.3177 142.78 71.0177 142.567 71.5644 142.14C72.111 141.713 72.3844 141.167 72.3844 140.5V138.94H69.0244C68.4244 138.94 67.951 139.107 67.6044 139.44C67.2577 139.773 67.0844 140.227 67.0844 140.8C67.0844 141.413 67.291 141.9 67.7044 142.26C68.131 142.607 68.7177 142.78 69.4644 142.78ZM81.6366 144.16C80.8899 144.16 80.2366 144.047 79.6766 143.82C79.1299 143.58 78.6899 143.247 78.3566 142.82C78.0366 142.393 77.8432 141.887 77.7766 141.3H79.5766C79.6566 141.687 79.8699 141.993 80.2166 142.22C80.5766 142.447 81.0499 142.56 81.6366 142.56H82.4766C83.1832 142.56 83.7099 142.42 84.0566 142.14C84.4032 141.847 84.5766 141.46 84.5766 140.98C84.5766 140.513 84.4166 140.147 84.0966 139.88C83.7899 139.6 83.3299 139.413 82.7166 139.32L81.2366 139.08C80.1566 138.893 79.3499 138.56 78.8166 138.08C78.2966 137.587 78.0366 136.873 78.0366 135.94C78.0366 134.953 78.3499 134.193 78.9766 133.66C79.6032 133.113 80.5432 132.84 81.7966 132.84H82.5566C83.6099 132.84 84.4566 133.087 85.0966 133.58C85.7366 134.073 86.1232 134.74 86.2566 135.58H84.4566C84.3766 135.233 84.1766 134.96 83.8566 134.76C83.5366 134.547 83.1032 134.44 82.5566 134.44H81.7966C81.1166 134.44 80.6166 134.567 80.2966 134.82C79.9899 135.073 79.8366 135.453 79.8366 135.96C79.8366 136.413 79.9699 136.747 80.2366 136.96C80.5032 137.173 80.9232 137.327 81.4966 137.42L82.9766 137.66C84.1632 137.847 85.0232 138.193 85.5566 138.7C86.1032 139.207 86.3766 139.94 86.3766 140.9C86.3766 141.913 86.0499 142.713 85.3966 143.3C84.7566 143.873 83.7832 144.16 82.4766 144.16H81.6366ZM93.6288 144.16C92.8821 144.16 92.2288 144.047 91.6688 143.82C91.1221 143.58 90.6821 143.247 90.3488 142.82C90.0288 142.393 89.8354 141.887 89.7688 141.3H91.5688C91.6488 141.687 91.8621 141.993 92.2088 142.22C92.5688 142.447 93.0421 142.56 93.6288 142.56H94.4688C95.1754 142.56 95.7021 142.42 96.0488 142.14C96.3954 141.847 96.5688 141.46 96.5688 140.98C96.5688 140.513 96.4088 140.147 96.0888 139.88C95.7821 139.6 95.3221 139.413 94.7088 139.32L93.2288 139.08C92.1488 138.893 91.3421 138.56 90.8088 138.08C90.2888 137.587 90.0288 136.873 90.0288 135.94C90.0288 134.953 90.3421 134.193 90.9688 133.66C91.5954 133.113 92.5354 132.84 93.7888 132.84H94.5488C95.6021 132.84 96.4488 133.087 97.0888 133.58C97.7288 134.073 98.1154 134.74 98.2487 135.58H96.4488C96.3688 135.233 96.1688 134.96 95.8488 134.76C95.5288 134.547 95.0954 134.44 94.5488 134.44H93.7888C93.1088 134.44 92.6088 134.567 92.2888 134.82C91.9821 135.073 91.8288 135.453 91.8288 135.96C91.8288 136.413 91.9621 136.747 92.2288 136.96C92.4954 137.173 92.9154 137.327 93.4888 137.42L94.9688 137.66C96.1554 137.847 97.0154 138.193 97.5488 138.7C98.0954 139.207 98.3688 139.94 98.3688 140.9C98.3688 141.913 98.0421 142.713 97.3888 143.3C96.7488 143.873 95.7754 144.16 94.4688 144.16H93.6288ZM92.3688 172V163.74H89.1688V162.1H92.3688V160.2C92.3688 159.333 92.6421 158.653 93.1888 158.16C93.7354 157.653 94.4888 157.4 95.4488 157.4H98.6688V159.04H95.4488C95.0354 159.04 94.7154 159.14 94.4888 159.34C94.2754 159.527 94.1688 159.813 94.1688 160.2V162.1H98.6688V163.74H94.1688V172H92.3688ZM105.941 172.2C104.674 172.2 103.661 171.827 102.901 171.08C102.141 170.32 101.761 169.293 101.761 168V161H103.561V168C103.561 168.827 103.774 169.473 104.201 169.94C104.628 170.393 105.208 170.62 105.941 170.62C106.688 170.62 107.274 170.393 107.701 169.94C108.141 169.473 108.361 168.827 108.361 168V161H110.161V168C110.161 169.293 109.774 170.32 109.001 171.08C108.228 171.827 107.208 172.2 105.941 172.2ZM113.793 172V161H115.593V163.1H115.973L115.593 163.52C115.593 162.653 115.853 161.987 116.373 161.52C116.893 161.04 117.613 160.8 118.533 160.8C119.64 160.8 120.52 161.14 121.173 161.82C121.826 162.5 122.153 163.427 122.153 164.6V172H120.353V164.8C120.353 164.013 120.14 163.413 119.713 163C119.3 162.573 118.733 162.36 118.013 162.36C117.266 162.36 116.673 162.587 116.233 163.04C115.806 163.493 115.593 164.147 115.593 165V172H113.793ZM130.025 172.2C129.145 172.2 128.372 172.033 127.705 171.7C127.052 171.367 126.545 170.887 126.185 170.26C125.825 169.62 125.645 168.867 125.645 168V165C125.645 164.12 125.825 163.367 126.185 162.74C126.545 162.113 127.052 161.633 127.705 161.3C128.372 160.967 129.145 160.8 130.025 160.8C131.292 160.8 132.312 161.14 133.085 161.82C133.859 162.5 134.265 163.427 134.305 164.6H132.505C132.465 163.893 132.225 163.353 131.785 162.98C131.359 162.593 130.772 162.4 130.025 162.4C129.239 162.4 128.612 162.627 128.145 163.08C127.679 163.52 127.445 164.153 127.445 164.98V168C127.445 168.827 127.679 169.467 128.145 169.92C128.612 170.373 129.239 170.6 130.025 170.6C130.772 170.6 131.359 170.407 131.785 170.02C132.225 169.633 132.465 169.093 132.505 168.4H134.305C134.265 169.573 133.859 170.5 133.085 171.18C132.312 171.86 131.292 172.2 130.025 172.2Z" fill="#FF7AB2"/>
<path d="M225.883 135.8C225.389 135.8 224.989 135.667 224.683 135.4C224.376 135.12 224.223 134.753 224.223 134.3C224.223 133.847 224.376 133.487 224.683 133.22C224.989 132.94 225.389 132.8 225.883 132.8C226.389 132.8 226.789 132.94 227.083 133.22C227.389 133.487 227.543 133.847 227.543 134.3C227.543 134.753 227.389 135.12 227.083 135.4C226.789 135.667 226.389 135.8 225.883 135.8ZM225.883 144.2C225.389 144.2 224.989 144.067 224.683 143.8C224.376 143.52 224.223 143.153 224.223 142.7C224.223 142.247 224.376 141.887 224.683 141.62C224.989 141.34 225.389 141.2 225.883 141.2C226.389 141.2 226.789 141.34 227.083 141.62C227.389 141.887 227.543 142.247 227.543 142.7C227.543 143.153 227.389 143.52 227.083 143.8C226.789 144.067 226.389 144.2 225.883 144.2ZM457.134 146.2C456.348 146.2 455.668 146.067 455.094 145.8C454.534 145.547 454.108 145.167 453.814 144.66C453.521 144.167 453.394 143.573 453.434 142.88L453.634 139.6C453.674 138.893 453.568 138.387 453.314 138.08C453.061 137.76 452.501 137.6 451.634 137.6H449.434V136H451.634C452.501 136 453.061 135.847 453.314 135.54C453.568 135.22 453.674 134.707 453.634 134L453.434 130.72C453.394 130.013 453.521 129.413 453.814 128.92C454.108 128.427 454.534 128.053 455.094 127.8C455.668 127.533 456.348 127.4 457.134 127.4H458.034V129H457.134C456.508 129 456.028 129.147 455.694 129.44C455.361 129.72 455.208 130.147 455.234 130.72L455.434 134C455.488 134.867 455.281 135.56 454.814 136.08C454.348 136.587 453.688 136.84 452.834 136.84V136.74C453.674 136.74 454.328 137 454.794 137.52C455.274 138.04 455.488 138.733 455.434 139.6L455.234 142.88C455.208 143.453 455.361 143.88 455.694 144.16C456.028 144.453 456.508 144.6 457.134 144.6H458.034V146.2H457.134ZM361.497 174.4C359.604 173.933 358.13 173.013 357.077 171.64C356.024 170.267 355.497 168.587 355.497 166.6V163C355.497 161.693 355.737 160.513 356.217 159.46C356.71 158.393 357.404 157.493 358.297 156.76C359.204 156.027 360.27 155.507 361.497 155.2V156.9C360.644 157.1 359.904 157.487 359.277 158.06C358.65 158.62 358.164 159.32 357.817 160.16C357.47 161 357.297 161.947 357.297 163V166.6C357.297 167.627 357.464 168.56 357.797 169.4C358.144 170.24 358.63 170.94 359.257 171.5C359.897 172.047 360.644 172.42 361.497 172.62V174.4ZM366.089 174.4V172.62C366.956 172.42 367.702 172.047 368.329 171.5C368.956 170.94 369.436 170.24 369.769 169.4C370.116 168.56 370.289 167.627 370.289 166.6V163C370.289 161.947 370.116 161 369.769 160.16C369.422 159.32 368.936 158.62 368.309 158.06C367.682 157.487 366.942 157.1 366.089 156.9V155.2C367.329 155.507 368.396 156.027 369.289 156.76C370.182 157.493 370.869 158.393 371.349 159.46C371.842 160.513 372.089 161.693 372.089 163V166.6C372.089 168.587 371.562 170.267 370.509 171.64C369.456 173.013 367.982 173.933 366.089 174.4ZM397.173 174.2C396.387 174.2 395.707 174.067 395.133 173.8C394.573 173.547 394.147 173.167 393.853 172.66C393.56 172.167 393.433 171.573 393.473 170.88L393.673 167.6C393.713 166.893 393.607 166.387 393.353 166.08C393.1 165.76 392.54 165.6 391.673 165.6H389.473V164H391.673C392.54 164 393.1 163.847 393.353 163.54C393.607 163.22 393.713 162.707 393.673 162L393.473 158.72C393.433 158.013 393.56 157.413 393.853 156.92C394.147 156.427 394.573 156.053 395.133 155.8C395.707 155.533 396.387 155.4 397.173 155.4H398.073V157H397.173C396.547 157 396.067 157.147 395.733 157.44C395.4 157.72 395.247 158.147 395.273 158.72L395.473 162C395.527 162.867 395.32 163.56 394.853 164.08C394.387 164.587 393.727 164.84 392.873 164.84V164.74C393.713 164.74 394.367 165 394.833 165.52C395.313 166.04 395.527 166.733 395.473 167.6L395.273 170.88C395.247 171.453 395.4 171.88 395.733 172.16C396.067 172.453 396.547 172.6 397.173 172.6H398.073V174.2H397.173ZM217.591 202.4C215.697 201.933 214.224 201.013 213.171 199.64C212.117 198.267 211.591 196.587 211.591 194.6V191C211.591 189.693 211.831 188.513 212.311 187.46C212.804 186.393 213.497 185.493 214.391 184.76C215.297 184.027 216.364 183.507 217.591 183.2V184.9C216.737 185.1 215.997 185.487 215.371 186.06C214.744 186.62 214.257 187.32 213.911 188.16C213.564 189 213.391 189.947 213.391 191V194.6C213.391 195.627 213.557 196.56 213.891 197.4C214.237 198.24 214.724 198.94 215.351 199.5C215.991 200.047 216.737 200.42 217.591 200.62V202.4ZM222.183 202.4V200.62C223.049 200.42 223.796 200.047 224.423 199.5C225.049 198.94 225.529 198.24 225.863 197.4C226.209 196.56 226.383 195.627 226.383 194.6V191C226.383 189.947 226.209 189 225.863 188.16C225.516 187.32 225.029 186.62 224.403 186.06C223.776 185.487 223.036 185.1 222.183 184.9V183.2C223.423 183.507 224.489 184.027 225.383 184.76C226.276 185.493 226.963 186.393 227.443 187.46C227.936 188.513 228.183 189.693 228.183 191V194.6C228.183 196.587 227.656 198.267 226.603 199.64C225.549 201.013 224.076 201.933 222.183 202.4ZM237.875 200.2C237.368 200.2 236.962 200.053 236.655 199.76C236.362 199.467 236.215 199.073 236.215 198.58C236.215 198.06 236.362 197.647 236.655 197.34C236.962 197.033 237.368 196.88 237.875 196.88C238.382 196.88 238.782 197.033 239.075 197.34C239.382 197.647 239.535 198.06 239.535 198.58C239.535 199.073 239.382 199.467 239.075 199.76C238.782 200.053 238.382 200.2 237.875 200.2ZM337.513 202.4C335.619 201.933 334.146 201.013 333.092 199.64C332.039 198.267 331.513 196.587 331.513 194.6V191C331.513 189.693 331.753 188.513 332.233 187.46C332.726 186.393 333.419 185.493 334.313 184.76C335.219 184.027 336.286 183.507 337.513 183.2V184.9C336.659 185.1 335.919 185.487 335.293 186.06C334.666 186.62 334.179 187.32 333.833 188.16C333.486 189 333.313 189.947 333.313 191V194.6C333.313 195.627 333.479 196.56 333.813 197.4C334.159 198.24 334.646 198.94 335.273 199.5C335.913 200.047 336.659 200.42 337.513 200.62V202.4ZM342.105 202.4V200.62C342.971 200.42 343.718 200.047 344.345 199.5C344.971 198.94 345.451 198.24 345.785 197.4C346.131 196.56 346.305 195.627 346.305 194.6V191C346.305 189.947 346.131 189 345.785 188.16C345.438 187.32 344.951 186.62 344.325 186.06C343.698 185.487 342.958 185.1 342.105 184.9V183.2C343.345 183.507 344.411 184.027 345.305 184.76C346.198 185.493 346.885 186.393 347.365 187.46C347.858 188.513 348.105 189.693 348.105 191V194.6C348.105 196.587 347.578 198.267 346.525 199.64C345.471 201.013 343.998 201.933 342.105 202.4ZM217.591 230.4C215.697 229.933 214.224 229.013 213.171 227.64C212.117 226.267 211.591 224.587 211.591 222.6V219C211.591 217.693 211.831 216.513 212.311 215.46C212.804 214.393 213.497 213.493 214.391 212.76C215.297 212.027 216.364 211.507 217.591 211.2V212.9C216.737 213.1 215.997 213.487 215.371 214.06C214.744 214.62 214.257 215.32 213.911 216.16C213.564 217 213.391 217.947 213.391 219V222.6C213.391 223.627 213.557 224.56 213.891 225.4C214.237 226.24 214.724 226.94 215.351 227.5C215.991 228.047 216.737 228.42 217.591 228.62V230.4ZM222.183 230.4V228.62C223.049 228.42 223.796 228.047 224.423 227.5C225.049 226.94 225.529 226.24 225.863 225.4C226.209 224.56 226.383 223.627 226.383 222.6V219C226.383 217.947 226.209 217 225.863 216.16C225.516 215.32 225.029 214.62 224.403 214.06C223.776 213.487 223.036 213.1 222.183 212.9V211.2C223.423 211.507 224.489 212.027 225.383 212.76C226.276 213.493 226.963 214.393 227.443 215.46C227.936 216.513 228.183 217.693 228.183 219V222.6C228.183 224.587 227.656 226.267 226.603 227.64C225.549 229.013 224.076 229.933 222.183 230.4ZM237.875 228.2C237.368 228.2 236.962 228.053 236.655 227.76C236.362 227.467 236.215 227.073 236.215 226.58C236.215 226.06 236.362 225.647 236.655 225.34C236.962 225.033 237.368 224.88 237.875 224.88C238.382 224.88 238.782 225.033 239.075 225.34C239.382 225.647 239.535 226.06 239.535 226.58C239.535 227.073 239.382 227.467 239.075 227.76C238.782 228.053 238.382 228.2 237.875 228.2ZM337.513 230.4C335.619 229.933 334.146 229.013 333.092 227.64C332.039 226.267 331.513 224.587 331.513 222.6V219C331.513 217.693 331.753 216.513 332.233 215.46C332.726 214.393 333.419 213.493 334.313 212.76C335.219 212.027 336.286 211.507 337.513 211.2V212.9C336.659 213.1 335.919 213.487 335.293 214.06C334.666 214.62 334.179 215.32 333.833 216.16C333.486 217 333.313 217.947 333.313 219V222.6C333.313 223.627 333.479 224.56 333.813 225.4C334.159 226.24 334.646 226.94 335.273 227.5C335.913 228.047 336.659 228.42 337.513 228.62V230.4ZM342.105 230.4V228.62C342.971 228.42 343.718 228.047 344.345 227.5C344.971 226.94 345.451 226.24 345.785 225.4C346.131 224.56 346.305 223.627 346.305 222.6V219C346.305 217.947 346.131 217 345.785 216.16C345.438 215.32 344.951 214.62 344.325 214.06C343.698 213.487 342.958 213.1 342.105 212.9V211.2C343.345 211.507 344.411 212.027 345.305 212.76C346.198 213.493 346.885 214.393 347.365 215.46C347.858 216.513 348.105 217.693 348.105 219V222.6C348.105 224.587 347.578 226.267 346.525 227.64C345.471 229.013 343.998 229.933 342.105 230.4ZM217.591 258.4C215.697 257.933 214.224 257.013 213.171 255.64C212.117 254.267 211.591 252.587 211.591 250.6V247C211.591 245.693 211.831 244.513 212.311 243.46C212.804 242.393 213.497 241.493 214.391 240.76C215.297 240.027 216.364 239.507 217.591 239.2V240.9C216.737 241.1 215.997 241.487 215.371 242.06C214.744 242.62 214.257 243.32 213.911 244.16C213.564 245 213.391 245.947 213.391 247V250.6C213.391 251.627 213.557 252.56 213.891 253.4C214.237 254.24 214.724 254.94 215.351 255.5C215.991 256.047 216.737 256.42 217.591 256.62V258.4ZM222.183 258.4V256.62C223.049 256.42 223.796 256.047 224.423 255.5C225.049 254.94 225.529 254.24 225.863 253.4C226.209 252.56 226.383 251.627 226.383 250.6V247C226.383 245.947 226.209 245 225.863 244.16C225.516 243.32 225.029 242.62 224.403 242.06C223.776 241.487 223.036 241.1 222.183 240.9V239.2C223.423 239.507 224.489 240.027 225.383 240.76C226.276 241.493 226.963 242.393 227.443 243.46C227.936 244.513 228.183 245.693 228.183 247V250.6C228.183 252.587 227.656 254.267 226.603 255.64C225.549 257.013 224.076 257.933 222.183 258.4ZM237.875 256.2C237.368 256.2 236.962 256.053 236.655 255.76C236.362 255.467 236.215 255.073 236.215 254.58C236.215 254.06 236.362 253.647 236.655 253.34C236.962 253.033 237.368 252.88 237.875 252.88C238.382 252.88 238.782 253.033 239.075 253.34C239.382 253.647 239.535 254.06 239.535 254.58C239.535 255.073 239.382 255.467 239.075 255.76C238.782 256.053 238.382 256.2 237.875 256.2ZM337.513 258.4C335.619 257.933 334.146 257.013 333.092 255.64C332.039 254.267 331.513 252.587 331.513 250.6V247C331.513 245.693 331.753 244.513 332.233 243.46C332.726 242.393 333.419 241.493 334.313 240.76C335.219 240.027 336.286 239.507 337.513 239.2V240.9C336.659 241.1 335.919 241.487 335.293 242.06C334.666 242.62 334.179 243.32 333.833 244.16C333.486 245 333.313 245.947 333.313 247V250.6C333.313 251.627 333.479 252.56 333.813 253.4C334.159 254.24 334.646 254.94 335.273 255.5C335.913 256.047 336.659 256.42 337.513 256.62V258.4ZM342.105 258.4V256.62C342.971 256.42 343.718 256.047 344.345 255.5C344.971 254.94 345.451 254.24 345.785 253.4C346.131 252.56 346.305 251.627 346.305 250.6V247C346.305 245.947 346.131 245 345.785 244.16C345.438 243.32 344.951 242.62 344.325 242.06C343.698 241.487 342.958 241.1 342.105 240.9V239.2C343.345 239.507 344.411 240.027 345.305 240.76C346.198 241.493 346.885 242.393 347.365 243.46C347.858 244.513 348.105 245.693 348.105 247V250.6C348.105 252.587 347.578 254.267 346.525 255.64C345.471 257.013 343.998 257.933 342.105 258.4ZM217.591 286.4C215.697 285.933 214.224 285.013 213.171 283.64C212.117 282.267 211.591 280.587 211.591 278.6V275C211.591 273.693 211.831 272.513 212.311 271.46C212.804 270.393 213.497 269.493 214.391 268.76C215.297 268.027 216.364 267.507 217.591 267.2V268.9C216.737 269.1 215.997 269.487 215.371 270.06C214.744 270.62 214.257 271.32 213.911 272.16C213.564 273 213.391 273.947 213.391 275V278.6C213.391 279.627 213.557 280.56 213.891 281.4C214.237 282.24 214.724 282.94 215.351 283.5C215.991 284.047 216.737 284.42 217.591 284.62V286.4ZM222.183 286.4V284.62C223.049 284.42 223.796 284.047 224.423 283.5C225.049 282.94 225.529 282.24 225.863 281.4C226.209 280.56 226.383 279.627 226.383 278.6V275C226.383 273.947 226.209 273 225.863 272.16C225.516 271.32 225.029 270.62 224.403 270.06C223.776 269.487 223.036 269.1 222.183 268.9V267.2C223.423 267.507 224.489 268.027 225.383 268.76C226.276 269.493 226.963 270.393 227.443 271.46C227.936 272.513 228.183 273.693 228.183 275V278.6C228.183 280.587 227.656 282.267 226.603 283.64C225.549 285.013 224.076 285.933 222.183 286.4ZM237.875 284.2C237.368 284.2 236.962 284.053 236.655 283.76C236.362 283.467 236.215 283.073 236.215 282.58C236.215 282.06 236.362 281.647 236.655 281.34C236.962 281.033 237.368 280.88 237.875 280.88C238.382 280.88 238.782 281.033 239.075 281.34C239.382 281.647 239.535 282.06 239.535 282.58C239.535 283.073 239.382 283.467 239.075 283.76C238.782 284.053 238.382 284.2 237.875 284.2ZM337.513 286.4C335.619 285.933 334.146 285.013 333.092 283.64C332.039 282.267 331.513 280.587 331.513 278.6V275C331.513 273.693 331.753 272.513 332.233 271.46C332.726 270.393 333.419 269.493 334.313 268.76C335.219 268.027 336.286 267.507 337.513 267.2V268.9C336.659 269.1 335.919 269.487 335.293 270.06C334.666 270.62 334.179 271.32 333.833 272.16C333.486 273 333.313 273.947 333.313 275V278.6C333.313 279.627 333.479 280.56 333.813 281.4C334.159 282.24 334.646 282.94 335.273 283.5C335.913 284.047 336.659 284.42 337.513 284.62V286.4ZM342.105 286.4V284.62C342.971 284.42 343.718 284.047 344.345 283.5C344.971 282.94 345.451 282.24 345.785 281.4C346.131 280.56 346.305 279.627 346.305 278.6V275C346.305 273.947 346.131 273 345.785 272.16C345.438 271.32 344.951 270.62 344.325 270.06C343.698 269.487 342.958 269.1 342.105 268.9V267.2C343.345 267.507 344.411 268.027 345.305 268.76C346.198 269.493 346.885 270.393 347.365 271.46C347.858 272.513 348.105 273.693 348.105 275V278.6C348.105 280.587 347.578 282.267 346.525 283.64C345.471 285.013 343.998 285.933 342.105 286.4ZM89.6688 314.2V312.6H90.5688C91.1954 312.6 91.6754 312.453 92.0088 312.16C92.3421 311.88 92.4954 311.453 92.4688 310.88L92.2688 307.6C92.2154 306.733 92.4221 306.04 92.8888 305.52C93.3688 305 94.0288 304.74 94.8688 304.74V304.84C94.0154 304.84 93.3554 304.587 92.8888 304.08C92.4221 303.56 92.2154 302.867 92.2688 302L92.4688 298.72C92.4954 298.147 92.3421 297.72 92.0088 297.44C91.6754 297.147 91.1954 297 90.5688 297H89.6688V295.4H90.5688C91.3554 295.4 92.0288 295.533 92.5888 295.8C93.1621 296.053 93.5954 296.427 93.8888 296.92C94.1821 297.413 94.3088 298.013 94.2688 298.72L94.0688 302C94.0288 302.707 94.1354 303.22 94.3888 303.54C94.6421 303.847 95.2021 304 96.0688 304H98.2688V305.6H96.0688C95.2154 305.6 94.6554 305.76 94.3888 306.08C94.1354 306.387 94.0288 306.893 94.0688 307.6L94.2688 310.88C94.3088 311.573 94.1821 312.167 93.8888 312.66C93.5954 313.167 93.1621 313.547 92.5888 313.8C92.0288 314.067 91.3554 314.2 90.5688 314.2H89.6688ZM41.7 342.2V340.6H42.6C43.2267 340.6 43.7067 340.453 44.04 340.16C44.3733 339.88 44.5267 339.453 44.5 338.88L44.3 335.6C44.2467 334.733 44.4533 334.04 44.92 333.52C45.4 333 46.06 332.74 46.9 332.74V332.84C46.0467 332.84 45.3867 332.587 44.92 332.08C44.4533 331.56 44.2467 330.867 44.3 330L44.5 326.72C44.5267 326.147 44.3733 325.72 44.04 325.44C43.7067 325.147 43.2267 325 42.6 325H41.7V323.4H42.6C43.3867 323.4 44.06 323.533 44.62 323.8C45.1933 324.053 45.6267 324.427 45.92 324.92C46.2133 325.413 46.34 326.013 46.3 326.72L46.1 330C46.06 330.707 46.1667 331.22 46.42 331.54C46.6733 331.847 47.2333 332 48.1 332H50.3V333.6H48.1C47.2467 333.6 46.6867 333.76 46.42 334.08C46.1667 334.387 46.06 334.893 46.1 335.6L46.3 338.88C46.34 339.573 46.2133 340.167 45.92 340.66C45.6267 341.167 45.1933 341.547 44.62 341.8C44.06 342.067 43.3867 342.2 42.6 342.2H41.7Z" fill="#F1EFEF"/>
<path d="M116.713 144L112.953 129.4H114.813L117.293 139.32C117.466 140.013 117.613 140.66 117.733 141.26C117.853 141.847 117.94 142.293 117.993 142.6C118.046 142.293 118.126 141.847 118.233 141.26C118.353 140.66 118.5 140.013 118.673 139.32L121.133 129.4H122.953L119.173 144H116.713ZM125.645 144V142.36H129.545V134.64H126.145V133H131.345V142.36H135.045V144H125.645ZM130.245 131.02C129.805 131.02 129.459 130.907 129.205 130.68C128.952 130.453 128.825 130.147 128.825 129.76C128.825 129.36 128.952 129.047 129.205 128.82C129.459 128.58 129.805 128.46 130.245 128.46C130.685 128.46 131.032 128.58 131.285 128.82C131.539 129.047 131.665 129.36 131.665 129.76C131.665 130.147 131.539 130.453 131.285 130.68C131.032 130.907 130.685 131.02 130.245 131.02ZM141.938 144.2C141.071 144.2 140.311 144.027 139.658 143.68C139.018 143.333 138.518 142.847 138.158 142.22C137.811 141.58 137.638 140.84 137.638 140V137C137.638 136.147 137.811 135.407 138.158 134.78C138.518 134.153 139.018 133.667 139.658 133.32C140.311 132.973 141.071 132.8 141.938 132.8C142.804 132.8 143.558 132.973 144.198 133.32C144.851 133.667 145.351 134.153 145.698 134.78C146.058 135.407 146.238 136.147 146.238 137V138.94H139.398V140C139.398 140.867 139.618 141.533 140.058 142C140.498 142.453 141.124 142.68 141.938 142.68C142.631 142.68 143.191 142.56 143.618 142.32C144.044 142.067 144.304 141.693 144.398 141.2H146.198C146.078 142.12 145.624 142.853 144.838 143.4C144.064 143.933 143.098 144.2 141.938 144.2ZM144.478 137.74V137C144.478 136.133 144.258 135.467 143.818 135C143.391 134.533 142.764 134.3 141.938 134.3C141.124 134.3 140.498 134.533 140.058 135C139.618 135.467 139.398 136.133 139.398 137V137.58H144.618L144.478 137.74ZM150.39 144L148.63 133H150.23L151.33 140.8C151.37 141.093 151.41 141.413 151.45 141.76C151.503 142.093 151.543 142.373 151.57 142.6C151.596 142.373 151.636 142.093 151.69 141.76C151.756 141.413 151.81 141.093 151.85 140.8L153.07 133H154.79L156.01 140.8C156.05 141.093 156.096 141.413 156.15 141.76C156.216 142.093 156.263 142.373 156.29 142.6C156.316 142.373 156.356 142.093 156.41 141.76C156.476 141.413 156.53 141.093 156.57 140.8L157.71 133H159.23L157.39 144H155.41L154.23 136.4C154.176 136.027 154.116 135.653 154.05 135.28C153.983 134.907 153.936 134.613 153.91 134.4C153.883 134.613 153.843 134.907 153.79 135.28C153.736 135.653 153.676 136.027 153.61 136.4L152.37 144H150.39ZM161.442 144V129.4H163.802L165.322 134.12C165.469 134.547 165.602 134.973 165.722 135.4C165.842 135.813 165.929 136.133 165.982 136.36C166.049 136.133 166.135 135.813 166.242 135.4C166.349 134.973 166.469 134.54 166.602 134.1L168.042 129.4H170.402V144H168.642V138.7C168.642 138.113 168.662 137.447 168.702 136.7C168.742 135.953 168.795 135.193 168.862 134.42C168.929 133.633 168.995 132.887 169.062 132.18C169.142 131.46 169.209 130.833 169.262 130.3L166.902 137.6H165.002L162.622 130.3C162.689 130.82 162.755 131.427 162.822 132.12C162.889 132.8 162.949 133.527 163.002 134.3C163.055 135.06 163.102 135.82 163.142 136.58C163.182 137.34 163.202 138.047 163.202 138.7V144H161.442ZM177.914 144.16C177.034 144.16 176.274 143.993 175.634 143.66C174.994 143.327 174.494 142.847 174.134 142.22C173.787 141.58 173.614 140.827 173.614 139.96V137.04C173.614 136.16 173.787 135.407 174.134 134.78C174.494 134.153 174.994 133.673 175.634 133.34C176.274 133.007 177.034 132.84 177.914 132.84C178.794 132.84 179.554 133.007 180.194 133.34C180.834 133.673 181.327 134.153 181.674 134.78C182.034 135.407 182.214 136.153 182.214 137.02V139.96C182.214 140.827 182.034 141.58 181.674 142.22C181.327 142.847 180.834 143.327 180.194 143.66C179.554 143.993 178.794 144.16 177.914 144.16ZM177.914 142.56C178.701 142.56 179.314 142.34 179.754 141.9C180.194 141.46 180.414 140.813 180.414 139.96V137.04C180.414 136.187 180.194 135.54 179.754 135.1C179.314 134.66 178.701 134.44 177.914 134.44C177.141 134.44 176.527 134.66 176.074 135.1C175.634 135.54 175.414 136.187 175.414 137.04V139.96C175.414 140.813 175.634 141.46 176.074 141.9C176.527 142.34 177.141 142.56 177.914 142.56ZM189.266 144.2C188.173 144.2 187.286 143.833 186.606 143.1C185.94 142.367 185.606 141.373 185.606 140.12V136.9C185.606 135.633 185.94 134.633 186.606 133.9C187.273 133.167 188.16 132.8 189.266 132.8C190.173 132.8 190.9 133.047 191.446 133.54C191.993 134.033 192.266 134.693 192.266 135.52L191.906 135.1H192.306L192.266 132.6V129.4H194.066V144H192.266V141.9H191.906L192.266 141.48C192.266 142.32 191.993 142.987 191.446 143.48C190.9 143.96 190.173 144.2 189.266 144.2ZM189.866 142.64C190.613 142.64 191.2 142.407 191.626 141.94C192.053 141.473 192.266 140.827 192.266 140V137C192.266 136.173 192.053 135.527 191.626 135.06C191.2 134.593 190.613 134.36 189.866 134.36C189.106 134.36 188.506 134.587 188.066 135.04C187.626 135.493 187.406 136.147 187.406 137V140C187.406 140.853 187.626 141.507 188.066 141.96C188.506 142.413 189.106 142.64 189.866 142.64ZM201.898 144.2C201.032 144.2 200.272 144.027 199.618 143.68C198.978 143.333 198.478 142.847 198.118 142.22C197.772 141.58 197.598 140.84 197.598 140V137C197.598 136.147 197.772 135.407 198.118 134.78C198.478 134.153 198.978 133.667 199.618 133.32C200.272 132.973 201.032 132.8 201.898 132.8C202.765 132.8 203.518 132.973 204.158 133.32C204.812 133.667 205.312 134.153 205.658 134.78C206.018 135.407 206.198 136.147 206.198 137V138.94H199.358V140C199.358 140.867 199.578 141.533 200.018 142C200.458 142.453 201.085 142.68 201.898 142.68C202.592 142.68 203.152 142.56 203.578 142.32C204.005 142.067 204.265 141.693 204.358 141.2H206.158C206.038 142.12 205.585 142.853 204.798 143.4C204.025 143.933 203.058 144.2 201.898 144.2ZM204.438 137.74V137C204.438 136.133 204.218 135.467 203.778 135C203.352 134.533 202.725 134.3 201.898 134.3C201.085 134.3 200.458 134.533 200.018 135C199.578 135.467 199.358 136.133 199.358 137V137.58H204.578L204.438 137.74ZM215.391 144C214.751 144 214.191 143.873 213.711 143.62C213.231 143.367 212.857 143.007 212.591 142.54C212.324 142.073 212.191 141.527 212.191 140.9V131.04H208.491V129.4H213.991V140.9C213.991 141.353 214.117 141.713 214.371 141.98C214.624 142.233 214.964 142.36 215.391 142.36H218.891V144H215.391ZM149.77 175.6V161H151.57V163.1H151.93L151.57 163.52C151.57 162.68 151.843 162.02 152.39 161.54C152.95 161.047 153.683 160.8 154.59 160.8C155.696 160.8 156.576 161.167 157.23 161.9C157.896 162.62 158.23 163.613 158.23 164.88V168.1C158.23 168.94 158.076 169.667 157.77 170.28C157.476 170.893 157.056 171.367 156.51 171.7C155.976 172.033 155.336 172.2 154.59 172.2C153.696 172.2 152.97 171.953 152.41 171.46C151.85 170.967 151.57 170.307 151.57 169.48L151.93 169.9H151.53L151.57 172.4V175.6H149.77ZM153.99 170.64C154.75 170.64 155.343 170.413 155.77 169.96C156.21 169.507 156.43 168.853 156.43 168V165C156.43 164.147 156.21 163.493 155.77 163.04C155.343 162.587 154.75 162.36 153.99 162.36C153.256 162.36 152.67 162.593 152.23 163.06C151.79 163.527 151.57 164.173 151.57 165V168C151.57 168.827 151.79 169.473 152.23 169.94C152.67 170.407 153.256 170.64 153.99 170.64ZM162.142 172V161H163.902V163.1H164.322L163.742 164.4C163.742 163.213 163.995 162.32 164.502 161.72C165.022 161.107 165.789 160.8 166.802 160.8C167.962 160.8 168.882 161.167 169.562 161.9C170.255 162.62 170.602 163.6 170.602 164.84V165.5H168.802V165C168.802 164.133 168.589 163.473 168.162 163.02C167.749 162.553 167.155 162.32 166.382 162.32C165.622 162.32 165.022 162.553 164.582 163.02C164.155 163.487 163.942 164.147 163.942 165V172H162.142ZM177.914 172.2C177.047 172.2 176.287 172.027 175.634 171.68C174.994 171.333 174.494 170.847 174.134 170.22C173.787 169.58 173.614 168.84 173.614 168V165C173.614 164.147 173.787 163.407 174.134 162.78C174.494 162.153 174.994 161.667 175.634 161.32C176.287 160.973 177.047 160.8 177.914 160.8C178.781 160.8 179.534 160.973 180.174 161.32C180.827 161.667 181.327 162.153 181.674 162.78C182.034 163.407 182.214 164.147 182.214 165V166.94H175.374V168C175.374 168.867 175.594 169.533 176.034 170C176.474 170.453 177.101 170.68 177.914 170.68C178.607 170.68 179.167 170.56 179.594 170.32C180.021 170.067 180.281 169.693 180.374 169.2H182.174C182.054 170.12 181.601 170.853 180.814 171.4C180.041 171.933 179.074 172.2 177.914 172.2ZM180.454 165.74V165C180.454 164.133 180.234 163.467 179.794 163C179.367 162.533 178.741 162.3 177.914 162.3C177.101 162.3 176.474 162.533 176.034 163C175.594 163.467 175.374 164.133 175.374 165V165.58H180.594L180.454 165.74ZM189.566 172.16C188.82 172.16 188.166 172.047 187.606 171.82C187.06 171.58 186.62 171.247 186.286 170.82C185.966 170.393 185.773 169.887 185.706 169.3H187.506C187.586 169.687 187.8 169.993 188.146 170.22C188.506 170.447 188.98 170.56 189.566 170.56H190.406C191.113 170.56 191.64 170.42 191.986 170.14C192.333 169.847 192.506 169.46 192.506 168.98C192.506 168.513 192.346 168.147 192.026 167.88C191.72 167.6 191.26 167.413 190.646 167.32L189.166 167.08C188.086 166.893 187.28 166.56 186.746 166.08C186.226 165.587 185.966 164.873 185.966 163.94C185.966 162.953 186.28 162.193 186.906 161.66C187.533 161.113 188.473 160.84 189.726 160.84H190.486C191.54 160.84 192.386 161.087 193.026 161.58C193.666 162.073 194.053 162.74 194.186 163.58H192.386C192.306 163.233 192.106 162.96 191.786 162.76C191.466 162.547 191.033 162.44 190.486 162.44H189.726C189.046 162.44 188.546 162.567 188.226 162.82C187.92 163.073 187.766 163.453 187.766 163.96C187.766 164.413 187.9 164.747 188.166 164.96C188.433 165.173 188.853 165.327 189.426 165.42L190.906 165.66C192.093 165.847 192.953 166.193 193.486 166.7C194.033 167.207 194.306 167.94 194.306 168.9C194.306 169.913 193.98 170.713 193.326 171.3C192.686 171.873 191.713 172.16 190.406 172.16H189.566ZM201.898 172.2C201.032 172.2 200.272 172.027 199.618 171.68C198.978 171.333 198.478 170.847 198.118 170.22C197.772 169.58 197.598 168.84 197.598 168V165C197.598 164.147 197.772 163.407 198.118 162.78C198.478 162.153 198.978 161.667 199.618 161.32C200.272 160.973 201.032 160.8 201.898 160.8C202.765 160.8 203.518 160.973 204.158 161.32C204.812 161.667 205.312 162.153 205.658 162.78C206.018 163.407 206.198 164.147 206.198 165V166.94H199.358V168C199.358 168.867 199.578 169.533 200.018 170C200.458 170.453 201.085 170.68 201.898 170.68C202.592 170.68 203.152 170.56 203.578 170.32C204.005 170.067 204.265 169.693 204.358 169.2H206.158C206.038 170.12 205.585 170.853 204.798 171.4C204.025 171.933 203.058 172.2 201.898 172.2ZM204.438 165.74V165C204.438 164.133 204.218 163.467 203.778 163C203.352 162.533 202.725 162.3 201.898 162.3C201.085 162.3 200.458 162.533 200.018 163C199.578 163.467 199.358 164.133 199.358 165V165.58H204.578L204.438 165.74ZM209.731 172V161H211.531V163.1H211.911L211.531 163.52C211.531 162.653 211.791 161.987 212.311 161.52C212.831 161.04 213.551 160.8 214.471 160.8C215.577 160.8 216.457 161.14 217.111 161.82C217.764 162.5 218.091 163.427 218.091 164.6V172H216.291V164.8C216.291 164.013 216.077 163.413 215.651 163C215.237 162.573 214.671 162.36 213.951 162.36C213.204 162.36 212.611 162.587 212.171 163.04C211.744 163.493 211.531 164.147 211.531 165V172H209.731ZM227.083 172C226.136 172 225.396 171.747 224.863 171.24C224.343 170.733 224.083 170.02 224.083 169.1V162.64H220.983V161H224.083V157.9H225.883V161H230.283V162.64H225.883V169.1C225.883 169.94 226.283 170.36 227.083 170.36H230.083V172H227.083ZM233.395 172V157.4H235.755L237.275 162.12C237.422 162.547 237.555 162.973 237.675 163.4C237.795 163.813 237.882 164.133 237.935 164.36C238.002 164.133 238.088 163.813 238.195 163.4C238.302 162.973 238.422 162.54 238.555 162.1L239.995 157.4H242.355V172H240.595V166.7C240.595 166.113 240.615 165.447 240.655 164.7C240.695 163.953 240.748 163.193 240.815 162.42C240.882 161.633 240.948 160.887 241.015 160.18C241.095 159.46 241.162 158.833 241.215 158.3L238.855 165.6H236.955L234.575 158.3C234.642 158.82 234.708 159.427 234.775 160.12C234.842 160.8 234.902 161.527 234.955 162.3C235.008 163.06 235.055 163.82 235.095 164.58C235.135 165.34 235.155 166.047 235.155 166.7V172H233.395ZM248.907 172.2C247.747 172.2 246.834 171.907 246.167 171.32C245.501 170.72 245.167 169.913 245.167 168.9C245.167 167.873 245.501 167.067 246.167 166.48C246.834 165.893 247.734 165.6 248.867 165.6H252.267V164.5C252.267 163.82 252.061 163.3 251.647 162.94C251.247 162.567 250.674 162.38 249.927 162.38C249.274 162.38 248.727 162.52 248.287 162.8C247.847 163.067 247.594 163.433 247.527 163.9H245.727C245.847 162.953 246.294 162.2 247.067 161.64C247.841 161.08 248.807 160.8 249.967 160.8C251.234 160.8 252.234 161.127 252.967 161.78C253.701 162.433 254.067 163.32 254.067 164.44V172H252.307V169.9H252.007L252.307 169.6C252.307 170.4 251.994 171.033 251.367 171.5C250.754 171.967 249.934 172.2 248.907 172.2ZM249.347 170.78C250.201 170.78 250.901 170.567 251.447 170.14C251.994 169.713 252.267 169.167 252.267 168.5V166.94H248.907C248.307 166.94 247.834 167.107 247.487 167.44C247.141 167.773 246.967 168.227 246.967 168.8C246.967 169.413 247.174 169.9 247.587 170.26C248.014 170.607 248.601 170.78 249.347 170.78ZM257.699 172V161H259.499V163.1H259.879L259.499 163.52C259.499 162.653 259.759 161.987 260.279 161.52C260.799 161.04 261.519 160.8 262.439 160.8C263.546 160.8 264.426 161.14 265.079 161.82C265.733 162.5 266.059 163.427 266.059 164.6V172H264.259V164.8C264.259 164.013 264.046 163.413 263.619 163C263.206 162.573 262.639 162.36 261.919 162.36C261.173 162.36 260.579 162.587 260.139 163.04C259.713 163.493 259.499 164.147 259.499 165V172H257.699ZM271.412 175.6L273.032 171.32L268.952 161H270.952L273.512 167.8C273.605 168.027 273.692 168.3 273.772 168.62C273.852 168.927 273.918 169.187 273.972 169.4C274.025 169.187 274.092 168.927 274.172 168.62C274.252 168.3 274.332 168.027 274.412 167.8L276.812 161H278.752L273.332 175.6H271.412ZM281.684 172V157.4H286.384C287.29 157.4 288.077 157.58 288.744 157.94C289.41 158.287 289.924 158.78 290.284 159.42C290.657 160.06 290.844 160.82 290.844 161.7C290.844 162.567 290.657 163.327 290.284 163.98C289.924 164.62 289.41 165.12 288.744 165.48C288.077 165.827 287.29 166 286.384 166H283.484V172H281.684ZM283.484 164.38H286.384C287.17 164.38 287.797 164.14 288.264 163.66C288.744 163.167 288.984 162.513 288.984 161.7C288.984 160.873 288.744 160.22 288.264 159.74C287.797 159.26 287.17 159.02 286.384 159.02H283.484V164.38ZM297.836 172.16C296.956 172.16 296.196 171.993 295.556 171.66C294.916 171.327 294.416 170.847 294.056 170.22C293.709 169.58 293.536 168.827 293.536 167.96V165.04C293.536 164.16 293.709 163.407 294.056 162.78C294.416 162.153 294.916 161.673 295.556 161.34C296.196 161.007 296.956 160.84 297.836 160.84C298.716 160.84 299.476 161.007 300.116 161.34C300.756 161.673 301.249 162.153 301.596 162.78C301.956 163.407 302.136 164.153 302.136 165.02V167.96C302.136 168.827 301.956 169.58 301.596 170.22C301.249 170.847 300.756 171.327 300.116 171.66C299.476 171.993 298.716 172.16 297.836 172.16ZM297.836 170.56C298.623 170.56 299.236 170.34 299.676 169.9C300.116 169.46 300.336 168.813 300.336 167.96V165.04C300.336 164.187 300.116 163.54 299.676 163.1C299.236 162.66 298.623 162.44 297.836 162.44C297.063 162.44 296.449 162.66 295.996 163.1C295.556 163.54 295.336 164.187 295.336 165.04V167.96C295.336 168.813 295.556 169.46 295.996 169.9C296.449 170.34 297.063 170.56 297.836 170.56ZM305.668 175.6V161H307.468V163.1H307.828L307.468 163.52C307.468 162.68 307.741 162.02 308.288 161.54C308.848 161.047 309.581 160.8 310.488 160.8C311.595 160.8 312.475 161.167 313.128 161.9C313.795 162.62 314.128 163.613 314.128 164.88V168.1C314.128 168.94 313.975 169.667 313.668 170.28C313.375 170.893 312.955 171.367 312.408 171.7C311.875 172.033 311.235 172.2 310.488 172.2C309.595 172.2 308.868 171.953 308.308 171.46C307.748 170.967 307.468 170.307 307.468 169.48L307.828 169.9H307.428L307.468 172.4V175.6H305.668ZM309.888 170.64C310.648 170.64 311.241 170.413 311.668 169.96C312.108 169.507 312.328 168.853 312.328 168V165C312.328 164.147 312.108 163.493 311.668 163.04C311.241 162.587 310.648 162.36 309.888 162.36C309.155 162.36 308.568 162.593 308.128 163.06C307.688 163.527 307.468 164.173 307.468 165V168C307.468 168.827 307.688 169.473 308.128 169.94C308.568 170.407 309.155 170.64 309.888 170.64ZM321.8 172.2C320.534 172.2 319.52 171.827 318.76 171.08C318 170.32 317.62 169.293 317.62 168V161H319.42V168C319.42 168.827 319.634 169.473 320.06 169.94C320.487 170.393 321.067 170.62 321.8 170.62C322.547 170.62 323.134 170.393 323.56 169.94C324 169.473 324.22 168.827 324.22 168V161H326.02V168C326.02 169.293 325.634 170.32 324.86 171.08C324.087 171.827 323.067 172.2 321.8 172.2ZM329.653 175.6V161H331.453V163.1H331.813L331.453 163.52C331.453 162.68 331.726 162.02 332.273 161.54C332.833 161.047 333.566 160.8 334.473 160.8C335.579 160.8 336.459 161.167 337.113 161.9C337.779 162.62 338.113 163.613 338.113 164.88V168.1C338.113 168.94 337.959 169.667 337.653 170.28C337.359 170.893 336.939 171.367 336.393 171.7C335.859 172.033 335.219 172.2 334.473 172.2C333.579 172.2 332.853 171.953 332.293 171.46C331.733 170.967 331.453 170.307 331.453 169.48L331.813 169.9H331.413L331.453 172.4V175.6H329.653ZM333.873 170.64C334.633 170.64 335.226 170.413 335.653 169.96C336.093 169.507 336.313 168.853 336.313 168V165C336.313 164.147 336.093 163.493 335.653 163.04C335.226 162.587 334.633 162.36 333.873 162.36C333.139 162.36 332.553 162.593 332.113 163.06C331.673 163.527 331.453 164.173 331.453 165V168C331.453 168.827 331.673 169.473 332.113 169.94C332.553 170.407 333.139 170.64 333.873 170.64ZM345.465 172.16C344.718 172.16 344.065 172.047 343.505 171.82C342.958 171.58 342.518 171.247 342.185 170.82C341.865 170.393 341.671 169.887 341.605 169.3H343.405C343.485 169.687 343.698 169.993 344.045 170.22C344.405 170.447 344.878 170.56 345.465 170.56H346.305C347.011 170.56 347.538 170.42 347.885 170.14C348.231 169.847 348.405 169.46 348.405 168.98C348.405 168.513 348.245 168.147 347.925 167.88C347.618 167.6 347.158 167.413 346.545 167.32L345.065 167.08C343.985 166.893 343.178 166.56 342.645 166.08C342.125 165.587 341.865 164.873 341.865 163.94C341.865 162.953 342.178 162.193 342.805 161.66C343.431 161.113 344.371 160.84 345.625 160.84H346.385C347.438 160.84 348.285 161.087 348.925 161.58C349.565 162.073 349.951 162.74 350.085 163.58H348.285C348.205 163.233 348.005 162.96 347.685 162.76C347.365 162.547 346.931 162.44 346.385 162.44H345.625C344.945 162.44 344.445 162.567 344.125 162.82C343.818 163.073 343.665 163.453 343.665 163.96C343.665 164.413 343.798 164.747 344.065 164.96C344.331 165.173 344.751 165.327 345.325 165.42L346.805 165.66C347.991 165.847 348.851 166.193 349.385 166.7C349.931 167.207 350.205 167.94 350.205 168.9C350.205 169.913 349.878 170.713 349.225 171.3C348.585 171.873 347.611 172.16 346.305 172.16H345.465Z" fill="#4EB0CC"/>
<path d="M249.867 144.2C248.987 144.2 248.227 144.033 247.587 143.7C246.961 143.367 246.474 142.887 246.127 142.26C245.794 141.62 245.627 140.867 245.627 140V133.4C245.627 132.52 245.794 131.767 246.127 131.14C246.474 130.513 246.961 130.033 247.587 129.7C248.227 129.367 248.987 129.2 249.867 129.2C250.747 129.2 251.501 129.367 252.127 129.7C252.767 130.033 253.254 130.513 253.587 131.14C253.934 131.767 254.107 132.513 254.107 133.38V140C254.107 140.867 253.934 141.62 253.587 142.26C253.254 142.887 252.767 143.367 252.127 143.7C251.501 144.033 250.747 144.2 249.867 144.2ZM249.867 142.58C250.654 142.58 251.254 142.36 251.667 141.92C252.094 141.467 252.307 140.827 252.307 140V133.4C252.307 132.573 252.094 131.94 251.667 131.5C251.254 131.047 250.654 130.82 249.867 130.82C249.094 130.82 248.494 131.047 248.067 131.5C247.641 131.94 247.427 132.573 247.427 133.4V140C247.427 140.827 247.641 141.467 248.067 141.92C248.494 142.36 249.094 142.58 249.867 142.58ZM262.499 144.2C261.593 144.2 260.866 143.96 260.319 143.48C259.773 142.987 259.499 142.32 259.499 141.48L259.859 141.9H259.499V144H257.699V129.4H259.499V132.6L259.459 135.1H259.859L259.499 135.52C259.499 134.693 259.773 134.033 260.319 133.54C260.879 133.047 261.606 132.8 262.499 132.8C263.606 132.8 264.493 133.167 265.159 133.9C265.826 134.633 266.159 135.633 266.159 136.9V140.12C266.159 141.373 265.826 142.367 265.159 143.1C264.493 143.833 263.606 144.2 262.499 144.2ZM261.899 142.64C262.659 142.64 263.259 142.413 263.699 141.96C264.139 141.507 264.359 140.853 264.359 140V137C264.359 136.147 264.139 135.493 263.699 135.04C263.259 134.587 262.659 134.36 261.899 134.36C261.166 134.36 260.579 134.593 260.139 135.06C259.713 135.527 259.499 136.173 259.499 137V140C259.499 140.827 259.713 141.473 260.139 141.94C260.579 142.407 261.166 142.64 261.899 142.64ZM273.512 144.16C272.765 144.16 272.112 144.047 271.552 143.82C271.005 143.58 270.565 143.247 270.232 142.82C269.912 142.393 269.718 141.887 269.652 141.3H271.452C271.532 141.687 271.745 141.993 272.092 142.22C272.452 142.447 272.925 142.56 273.512 142.56H274.352C275.058 142.56 275.585 142.42 275.932 142.14C276.278 141.847 276.452 141.46 276.452 140.98C276.452 140.513 276.292 140.147 275.972 139.88C275.665 139.6 275.205 139.413 274.592 139.32L273.112 139.08C272.032 138.893 271.225 138.56 270.692 138.08C270.172 137.587 269.912 136.873 269.912 135.94C269.912 134.953 270.225 134.193 270.852 133.66C271.478 133.113 272.418 132.84 273.672 132.84H274.432C275.485 132.84 276.332 133.087 276.972 133.58C277.612 134.073 277.998 134.74 278.132 135.58H276.332C276.252 135.233 276.052 134.96 275.732 134.76C275.412 134.547 274.978 134.44 274.432 134.44H273.672C272.992 134.44 272.492 134.567 272.172 134.82C271.865 135.073 271.712 135.453 271.712 135.96C271.712 136.413 271.845 136.747 272.112 136.96C272.378 137.173 272.798 137.327 273.372 137.42L274.852 137.66C276.038 137.847 276.898 138.193 277.432 138.7C277.978 139.207 278.252 139.94 278.252 140.9C278.252 141.913 277.925 142.713 277.272 143.3C276.632 143.873 275.658 144.16 274.352 144.16H273.512ZM285.844 144.2C284.977 144.2 284.217 144.027 283.564 143.68C282.924 143.333 282.424 142.847 282.064 142.22C281.717 141.58 281.544 140.84 281.544 140V137C281.544 136.147 281.717 135.407 282.064 134.78C282.424 134.153 282.924 133.667 283.564 133.32C284.217 132.973 284.977 132.8 285.844 132.8C286.71 132.8 287.464 132.973 288.104 133.32C288.757 133.667 289.257 134.153 289.604 134.78C289.964 135.407 290.144 136.147 290.144 137V138.94H283.304V140C283.304 140.867 283.524 141.533 283.964 142C284.404 142.453 285.03 142.68 285.844 142.68C286.537 142.68 287.097 142.56 287.524 142.32C287.95 142.067 288.21 141.693 288.304 141.2H290.104C289.984 142.12 289.53 142.853 288.744 143.4C287.97 143.933 287.004 144.2 285.844 144.2ZM288.384 137.74V137C288.384 136.133 288.164 135.467 287.724 135C287.297 134.533 286.67 134.3 285.844 134.3C285.03 134.3 284.404 134.533 283.964 135C283.524 135.467 283.304 136.133 283.304 137V137.58H288.524L288.384 137.74ZM294.056 144V133H295.816V135.1H296.236L295.656 136.4C295.656 135.213 295.909 134.32 296.416 133.72C296.936 133.107 297.703 132.8 298.716 132.8C299.876 132.8 300.796 133.167 301.476 133.9C302.169 134.62 302.516 135.6 302.516 136.84V137.5H300.716V137C300.716 136.133 300.503 135.473 300.076 135.02C299.663 134.553 299.069 134.32 298.296 134.32C297.536 134.32 296.936 134.553 296.496 135.02C296.069 135.487 295.856 136.147 295.856 137V144H294.056ZM308.608 144L304.928 133H306.768L309.208 140.4C309.355 140.84 309.488 141.267 309.608 141.68C309.728 142.08 309.815 142.393 309.868 142.62C309.935 142.393 310.028 142.08 310.148 141.68C310.268 141.267 310.395 140.84 310.528 140.4L312.908 133H314.728L311.048 144H308.608ZM320.86 144.2C319.7 144.2 318.787 143.907 318.12 143.32C317.454 142.72 317.12 141.913 317.12 140.9C317.12 139.873 317.454 139.067 318.12 138.48C318.787 137.893 319.687 137.6 320.82 137.6H324.22V136.5C324.22 135.82 324.014 135.3 323.6 134.94C323.2 134.567 322.627 134.38 321.88 134.38C321.227 134.38 320.68 134.52 320.24 134.8C319.8 135.067 319.547 135.433 319.48 135.9H317.68C317.8 134.953 318.247 134.2 319.02 133.64C319.794 133.08 320.76 132.8 321.92 132.8C323.187 132.8 324.187 133.127 324.92 133.78C325.654 134.433 326.02 135.32 326.02 136.44V144H324.26V141.9H323.96L324.26 141.6C324.26 142.4 323.947 143.033 323.32 143.5C322.707 143.967 321.887 144.2 320.86 144.2ZM321.3 142.78C322.154 142.78 322.854 142.567 323.4 142.14C323.947 141.713 324.22 141.167 324.22 140.5V138.94H320.86C320.26 138.94 319.787 139.107 319.44 139.44C319.094 139.773 318.92 140.227 318.92 140.8C318.92 141.413 319.127 141.9 319.54 142.26C319.967 142.607 320.554 142.78 321.3 142.78ZM334.453 144.2C333.546 144.2 332.819 143.96 332.273 143.48C331.726 142.987 331.453 142.32 331.453 141.48L331.813 141.9H331.453V144H329.653V129.4H331.453V132.6L331.413 135.1H331.813L331.453 135.52C331.453 134.693 331.726 134.033 332.273 133.54C332.833 133.047 333.559 132.8 334.453 132.8C335.559 132.8 336.446 133.167 337.113 133.9C337.779 134.633 338.113 135.633 338.113 136.9V140.12C338.113 141.373 337.779 142.367 337.113 143.1C336.446 143.833 335.559 144.2 334.453 144.2ZM333.853 142.64C334.613 142.64 335.213 142.413 335.653 141.96C336.093 141.507 336.313 140.853 336.313 140V137C336.313 136.147 336.093 135.493 335.653 135.04C335.213 134.587 334.613 134.36 333.853 134.36C333.119 134.36 332.533 134.593 332.093 135.06C331.666 135.527 331.453 136.173 331.453 137V140C331.453 140.827 331.666 141.473 332.093 141.94C332.533 142.407 333.119 142.64 333.853 142.64ZM347.305 144C346.665 144 346.105 143.873 345.625 143.62C345.145 143.367 344.771 143.007 344.505 142.54C344.238 142.073 344.105 141.527 344.105 140.9V131.04H340.405V129.4H345.905V140.9C345.905 141.353 346.031 141.713 346.285 141.98C346.538 142.233 346.878 142.36 347.305 142.36H350.805V144H347.305ZM357.797 144.2C356.93 144.2 356.17 144.027 355.517 143.68C354.877 143.333 354.377 142.847 354.017 142.22C353.67 141.58 353.497 140.84 353.497 140V137C353.497 136.147 353.67 135.407 354.017 134.78C354.377 134.153 354.877 133.667 355.517 133.32C356.17 132.973 356.93 132.8 357.797 132.8C358.664 132.8 359.417 132.973 360.057 133.32C360.71 133.667 361.21 134.153 361.557 134.78C361.917 135.407 362.097 136.147 362.097 137V138.94H355.257V140C355.257 140.867 355.477 141.533 355.917 142C356.357 142.453 356.984 142.68 357.797 142.68C358.49 142.68 359.05 142.56 359.477 142.32C359.904 142.067 360.164 141.693 360.257 141.2H362.057C361.937 142.12 361.484 142.853 360.697 143.4C359.924 143.933 358.957 144.2 357.797 144.2ZM360.337 137.74V137C360.337 136.133 360.117 135.467 359.677 135C359.25 134.533 358.624 134.3 357.797 134.3C356.984 134.3 356.357 134.533 355.917 135C355.477 135.467 355.257 136.133 355.257 137V137.58H360.477L360.337 137.74ZM369.789 144.2C368.909 144.2 368.149 144.033 367.509 143.7C366.882 143.367 366.396 142.887 366.049 142.26C365.716 141.62 365.549 140.867 365.549 140V133.4C365.549 132.52 365.716 131.767 366.049 131.14C366.396 130.513 366.882 130.033 367.509 129.7C368.149 129.367 368.909 129.2 369.789 129.2C370.669 129.2 371.422 129.367 372.049 129.7C372.689 130.033 373.176 130.513 373.509 131.14C373.856 131.767 374.029 132.513 374.029 133.38V140C374.029 140.867 373.856 141.62 373.509 142.26C373.176 142.887 372.689 143.367 372.049 143.7C371.422 144.033 370.669 144.2 369.789 144.2ZM369.789 142.58C370.576 142.58 371.176 142.36 371.589 141.92C372.016 141.467 372.229 140.827 372.229 140V133.4C372.229 132.573 372.016 131.94 371.589 131.5C371.176 131.047 370.576 130.82 369.789 130.82C369.016 130.82 368.416 131.047 367.989 131.5C367.562 131.94 367.349 132.573 367.349 133.4V140C367.349 140.827 367.562 141.467 367.989 141.92C368.416 142.36 369.016 142.58 369.789 142.58ZM382.421 144.2C381.515 144.2 380.788 143.96 380.241 143.48C379.695 142.987 379.421 142.32 379.421 141.48L379.781 141.9H379.421V144H377.621V129.4H379.421V132.6L379.381 135.1H379.781L379.421 135.52C379.421 134.693 379.695 134.033 380.241 133.54C380.801 133.047 381.528 132.8 382.421 132.8C383.528 132.8 384.415 133.167 385.081 133.9C385.748 134.633 386.081 135.633 386.081 136.9V140.12C386.081 141.373 385.748 142.367 385.081 143.1C384.415 143.833 383.528 144.2 382.421 144.2ZM381.821 142.64C382.581 142.64 383.181 142.413 383.621 141.96C384.061 141.507 384.281 140.853 384.281 140V137C384.281 136.147 384.061 135.493 383.621 135.04C383.181 134.587 382.581 134.36 381.821 134.36C381.088 134.36 380.501 134.593 380.061 135.06C379.635 135.527 379.421 136.173 379.421 137V140C379.421 140.827 379.635 141.473 380.061 141.94C380.501 142.407 381.088 142.64 381.821 142.64ZM389.473 147.6V145.94H392.053C392.88 145.94 393.52 145.713 393.973 145.26C394.44 144.82 394.673 144.193 394.673 143.38V134.64H390.073V133H396.473V143.38C396.473 144.673 396.073 145.7 395.273 146.46C394.473 147.22 393.4 147.6 392.053 147.6H389.473ZM395.473 131.02C395.033 131.02 394.687 130.907 394.433 130.68C394.18 130.453 394.053 130.147 394.053 129.76C394.053 129.36 394.18 129.047 394.433 128.82C394.687 128.58 395.033 128.46 395.473 128.46C395.913 128.46 396.26 128.58 396.513 128.82C396.767 129.047 396.893 129.36 396.893 129.76C396.893 130.147 396.767 130.453 396.513 130.68C396.26 130.907 395.913 131.02 395.473 131.02ZM405.766 144.2C404.899 144.2 404.139 144.027 403.486 143.68C402.846 143.333 402.346 142.847 401.986 142.22C401.639 141.58 401.466 140.84 401.466 140V137C401.466 136.147 401.639 135.407 401.986 134.78C402.346 134.153 402.846 133.667 403.486 133.32C404.139 132.973 404.899 132.8 405.766 132.8C406.632 132.8 407.386 132.973 408.026 133.32C408.679 133.667 409.179 134.153 409.526 134.78C409.886 135.407 410.066 136.147 410.066 137V138.94H403.226V140C403.226 140.867 403.446 141.533 403.886 142C404.326 142.453 404.952 142.68 405.766 142.68C406.459 142.68 407.019 142.56 407.446 142.32C407.872 142.067 408.132 141.693 408.226 141.2H410.026C409.906 142.12 409.452 142.853 408.666 143.4C407.892 143.933 406.926 144.2 405.766 144.2ZM408.306 137.74V137C408.306 136.133 408.086 135.467 407.646 135C407.219 134.533 406.592 134.3 405.766 134.3C404.952 134.3 404.326 134.533 403.886 135C403.446 135.467 403.226 136.133 403.226 137V137.58H408.446L408.306 137.74ZM417.838 144.2C416.958 144.2 416.184 144.033 415.518 143.7C414.864 143.367 414.358 142.887 413.998 142.26C413.638 141.62 413.458 140.867 413.458 140V137C413.458 136.12 413.638 135.367 413.998 134.74C414.358 134.113 414.864 133.633 415.518 133.3C416.184 132.967 416.958 132.8 417.838 132.8C419.104 132.8 420.124 133.14 420.898 133.82C421.671 134.5 422.078 135.427 422.118 136.6H420.318C420.278 135.893 420.038 135.353 419.598 134.98C419.171 134.593 418.584 134.4 417.838 134.4C417.051 134.4 416.424 134.627 415.958 135.08C415.491 135.52 415.258 136.153 415.258 136.98V140C415.258 140.827 415.491 141.467 415.958 141.92C416.424 142.373 417.051 142.6 417.838 142.6C418.584 142.6 419.171 142.407 419.598 142.02C420.038 141.633 420.278 141.093 420.318 140.4H422.118C422.078 141.573 421.671 142.5 420.898 143.18C420.124 143.86 419.104 144.2 417.838 144.2ZM430.95 144C430.003 144 429.263 143.747 428.73 143.24C428.21 142.733 427.95 142.02 427.95 141.1V134.64H424.85V133H427.95V129.9H429.75V133H434.15V134.64H429.75V141.1C429.75 141.94 430.15 142.36 430.95 142.36H433.95V144H430.95Z" fill="#DABAFF"/>
<path d="M137.778 200V185.4H142.478C143.384 185.4 144.171 185.58 144.838 185.94C145.504 186.287 146.018 186.78 146.378 187.42C146.751 188.06 146.938 188.82 146.938 189.7C146.938 190.567 146.751 191.327 146.378 191.98C146.018 192.62 145.504 193.12 144.838 193.48C144.171 193.827 143.384 194 142.478 194H139.578V200H137.778ZM139.578 192.38H142.478C143.264 192.38 143.891 192.14 144.358 191.66C144.838 191.167 145.078 190.513 145.078 189.7C145.078 188.873 144.838 188.22 144.358 187.74C143.891 187.26 143.264 187.02 142.478 187.02H139.578V192.38ZM153.93 200.16C153.05 200.16 152.29 199.993 151.65 199.66C151.01 199.327 150.51 198.847 150.15 198.22C149.803 197.58 149.63 196.827 149.63 195.96V193.04C149.63 192.16 149.803 191.407 150.15 190.78C150.51 190.153 151.01 189.673 151.65 189.34C152.29 189.007 153.05 188.84 153.93 188.84C154.81 188.84 155.57 189.007 156.21 189.34C156.85 189.673 157.343 190.153 157.69 190.78C158.05 191.407 158.23 192.153 158.23 193.02V195.96C158.23 196.827 158.05 197.58 157.69 198.22C157.343 198.847 156.85 199.327 156.21 199.66C155.57 199.993 154.81 200.16 153.93 200.16ZM153.93 198.56C154.716 198.56 155.33 198.34 155.77 197.9C156.21 197.46 156.43 196.813 156.43 195.96V193.04C156.43 192.187 156.21 191.54 155.77 191.1C155.33 190.66 154.716 190.44 153.93 190.44C153.156 190.44 152.543 190.66 152.09 191.1C151.65 191.54 151.43 192.187 151.43 193.04V195.96C151.43 196.813 151.65 197.46 152.09 197.9C152.543 198.34 153.156 198.56 153.93 198.56ZM161.762 203.6V189H163.562V191.1H163.922L163.562 191.52C163.562 190.68 163.835 190.02 164.382 189.54C164.942 189.047 165.675 188.8 166.582 188.8C167.689 188.8 168.569 189.167 169.222 189.9C169.889 190.62 170.222 191.613 170.222 192.88V196.1C170.222 196.94 170.069 197.667 169.762 198.28C169.469 198.893 169.049 199.367 168.502 199.7C167.969 200.033 167.329 200.2 166.582 200.2C165.689 200.2 164.962 199.953 164.402 199.46C163.842 198.967 163.562 198.307 163.562 197.48L163.922 197.9H163.522L163.562 200.4V203.6H161.762ZM165.982 198.64C166.742 198.64 167.335 198.413 167.762 197.96C168.202 197.507 168.422 196.853 168.422 196V193C168.422 192.147 168.202 191.493 167.762 191.04C167.335 190.587 166.742 190.36 165.982 190.36C165.249 190.36 164.662 190.593 164.222 191.06C163.782 191.527 163.562 192.173 163.562 193V196C163.562 196.827 163.782 197.473 164.222 197.94C164.662 198.407 165.249 198.64 165.982 198.64ZM177.894 200.2C176.627 200.2 175.614 199.827 174.854 199.08C174.094 198.32 173.714 197.293 173.714 196V189H175.514V196C175.514 196.827 175.727 197.473 176.154 197.94C176.581 198.393 177.161 198.62 177.894 198.62C178.641 198.62 179.227 198.393 179.654 197.94C180.094 197.473 180.314 196.827 180.314 196V189H182.114V196C182.114 197.293 181.727 198.32 180.954 199.08C180.181 199.827 179.161 200.2 177.894 200.2ZM185.746 203.6V189H187.546V191.1H187.906L187.546 191.52C187.546 190.68 187.82 190.02 188.366 189.54C188.926 189.047 189.66 188.8 190.566 188.8C191.673 188.8 192.553 189.167 193.206 189.9C193.873 190.62 194.206 191.613 194.206 192.88V196.1C194.206 196.94 194.053 197.667 193.746 198.28C193.453 198.893 193.033 199.367 192.486 199.7C191.953 200.033 191.313 200.2 190.566 200.2C189.673 200.2 188.946 199.953 188.386 199.46C187.826 198.967 187.546 198.307 187.546 197.48L187.906 197.9H187.506L187.546 200.4V203.6H185.746ZM189.966 198.64C190.726 198.64 191.32 198.413 191.746 197.96C192.186 197.507 192.406 196.853 192.406 196V193C192.406 192.147 192.186 191.493 191.746 191.04C191.32 190.587 190.726 190.36 189.966 190.36C189.233 190.36 188.646 190.593 188.206 191.06C187.766 191.527 187.546 192.173 187.546 193V196C187.546 196.827 187.766 197.473 188.206 197.94C188.646 198.407 189.233 198.64 189.966 198.64ZM197.698 200V198.36H201.658V186.9L197.698 189.86V187.86L200.998 185.4H203.458V198.36H206.698V200H197.698ZM245.707 203.6V189H247.507V191.1H247.867L247.507 191.52C247.507 190.68 247.781 190.02 248.327 189.54C248.887 189.047 249.621 188.8 250.527 188.8C251.634 188.8 252.514 189.167 253.167 189.9C253.834 190.62 254.167 191.613 254.167 192.88V196.1C254.167 196.94 254.014 197.667 253.707 198.28C253.414 198.893 252.994 199.367 252.447 199.7C251.914 200.033 251.274 200.2 250.527 200.2C249.634 200.2 248.907 199.953 248.347 199.46C247.787 198.967 247.507 198.307 247.507 197.48L247.867 197.9H247.467L247.507 200.4V203.6H245.707ZM249.927 198.64C250.687 198.64 251.281 198.413 251.707 197.96C252.147 197.507 252.367 196.853 252.367 196V193C252.367 192.147 252.147 191.493 251.707 191.04C251.281 190.587 250.687 190.36 249.927 190.36C249.194 190.36 248.607 190.593 248.167 191.06C247.727 191.527 247.507 192.173 247.507 193V196C247.507 196.827 247.727 197.473 248.167 197.94C248.607 198.407 249.194 198.64 249.927 198.64ZM258.079 200V189H259.839V191.1H260.259L259.679 192.4C259.679 191.213 259.933 190.32 260.439 189.72C260.959 189.107 261.726 188.8 262.739 188.8C263.899 188.8 264.819 189.167 265.499 189.9C266.193 190.62 266.539 191.6 266.539 192.84V193.5H264.739V193C264.739 192.133 264.526 191.473 264.099 191.02C263.686 190.553 263.093 190.32 262.319 190.32C261.559 190.32 260.959 190.553 260.519 191.02C260.093 191.487 259.879 192.147 259.879 193V200H258.079ZM273.852 200.2C272.985 200.2 272.225 200.027 271.572 199.68C270.932 199.333 270.432 198.847 270.072 198.22C269.725 197.58 269.552 196.84 269.552 196V193C269.552 192.147 269.725 191.407 270.072 190.78C270.432 190.153 270.932 189.667 271.572 189.32C272.225 188.973 272.985 188.8 273.852 188.8C274.718 188.8 275.472 188.973 276.112 189.32C276.765 189.667 277.265 190.153 277.612 190.78C277.972 191.407 278.152 192.147 278.152 193V194.94H271.312V196C271.312 196.867 271.532 197.533 271.972 198C272.412 198.453 273.038 198.68 273.852 198.68C274.545 198.68 275.105 198.56 275.532 198.32C275.958 198.067 276.218 197.693 276.312 197.2H278.112C277.992 198.12 277.538 198.853 276.752 199.4C275.978 199.933 275.012 200.2 273.852 200.2ZM276.392 193.74V193C276.392 192.133 276.172 191.467 275.732 191C275.305 190.533 274.678 190.3 273.852 190.3C273.038 190.3 272.412 190.533 271.972 191C271.532 191.467 271.312 192.133 271.312 193V193.58H276.532L276.392 193.74ZM285.504 200.16C284.757 200.16 284.104 200.047 283.544 199.82C282.997 199.58 282.557 199.247 282.224 198.82C281.904 198.393 281.71 197.887 281.644 197.3H283.444C283.524 197.687 283.737 197.993 284.084 198.22C284.444 198.447 284.917 198.56 285.504 198.56H286.344C287.05 198.56 287.577 198.42 287.924 198.14C288.27 197.847 288.444 197.46 288.444 196.98C288.444 196.513 288.284 196.147 287.964 195.88C287.657 195.6 287.197 195.413 286.584 195.32L285.104 195.08C284.024 194.893 283.217 194.56 282.684 194.08C282.164 193.587 281.904 192.873 281.904 191.94C281.904 190.953 282.217 190.193 282.844 189.66C283.47 189.113 284.41 188.84 285.664 188.84H286.424C287.477 188.84 288.324 189.087 288.964 189.58C289.604 190.073 289.99 190.74 290.124 191.58H288.324C288.244 191.233 288.044 190.96 287.724 190.76C287.404 190.547 286.97 190.44 286.424 190.44H285.664C284.984 190.44 284.484 190.567 284.164 190.82C283.857 191.073 283.704 191.453 283.704 191.96C283.704 192.413 283.837 192.747 284.104 192.96C284.37 193.173 284.79 193.327 285.364 193.42L286.844 193.66C288.03 193.847 288.89 194.193 289.424 194.7C289.97 195.207 290.244 195.94 290.244 196.9C290.244 197.913 289.917 198.713 289.264 199.3C288.624 199.873 287.65 200.16 286.344 200.16H285.504ZM297.836 200.2C296.969 200.2 296.209 200.027 295.556 199.68C294.916 199.333 294.416 198.847 294.056 198.22C293.709 197.58 293.536 196.84 293.536 196V193C293.536 192.147 293.709 191.407 294.056 190.78C294.416 190.153 294.916 189.667 295.556 189.32C296.209 188.973 296.969 188.8 297.836 188.8C298.703 188.8 299.456 188.973 300.096 189.32C300.749 189.667 301.249 190.153 301.596 190.78C301.956 191.407 302.136 192.147 302.136 193V194.94H295.296V196C295.296 196.867 295.516 197.533 295.956 198C296.396 198.453 297.023 198.68 297.836 198.68C298.529 198.68 299.089 198.56 299.516 198.32C299.943 198.067 300.203 197.693 300.296 197.2H302.096C301.976 198.12 301.523 198.853 300.736 199.4C299.963 199.933 298.996 200.2 297.836 200.2ZM300.376 193.74V193C300.376 192.133 300.156 191.467 299.716 191C299.289 190.533 298.663 190.3 297.836 190.3C297.023 190.3 296.396 190.533 295.956 191C295.516 191.467 295.296 192.133 295.296 193V193.58H300.516L300.376 193.74ZM305.668 200V189H307.468V191.1H307.848L307.468 191.52C307.468 190.653 307.728 189.987 308.248 189.52C308.768 189.04 309.488 188.8 310.408 188.8C311.515 188.8 312.395 189.14 313.048 189.82C313.701 190.5 314.028 191.427 314.028 192.6V200H312.228V192.8C312.228 192.013 312.015 191.413 311.588 191C311.175 190.573 310.608 190.36 309.888 190.36C309.141 190.36 308.548 190.587 308.108 191.04C307.681 191.493 307.468 192.147 307.468 193V200H305.668ZM323.02 200C322.074 200 321.334 199.747 320.8 199.24C320.28 198.733 320.02 198.02 320.02 197.1V190.64H316.92V189H320.02V185.9H321.82V189H326.22V190.64H321.82V197.1C321.82 197.94 322.22 198.36 323.02 198.36H326.02V200H323.02ZM137.778 228V213.4H142.478C143.384 213.4 144.171 213.58 144.838 213.94C145.504 214.287 146.018 214.78 146.378 215.42C146.751 216.06 146.938 216.82 146.938 217.7C146.938 218.567 146.751 219.327 146.378 219.98C146.018 220.62 145.504 221.12 144.838 221.48C144.171 221.827 143.384 222 142.478 222H139.578V228H137.778ZM139.578 220.38H142.478C143.264 220.38 143.891 220.14 144.358 219.66C144.838 219.167 145.078 218.513 145.078 217.7C145.078 216.873 144.838 216.22 144.358 215.74C143.891 215.26 143.264 215.02 142.478 215.02H139.578V220.38ZM153.93 228.16C153.05 228.16 152.29 227.993 151.65 227.66C151.01 227.327 150.51 226.847 150.15 226.22C149.803 225.58 149.63 224.827 149.63 223.96V221.04C149.63 220.16 149.803 219.407 150.15 218.78C150.51 218.153 151.01 217.673 151.65 217.34C152.29 217.007 153.05 216.84 153.93 216.84C154.81 216.84 155.57 217.007 156.21 217.34C156.85 217.673 157.343 218.153 157.69 218.78C158.05 219.407 158.23 220.153 158.23 221.02V223.96C158.23 224.827 158.05 225.58 157.69 226.22C157.343 226.847 156.85 227.327 156.21 227.66C155.57 227.993 154.81 228.16 153.93 228.16ZM153.93 226.56C154.716 226.56 155.33 226.34 155.77 225.9C156.21 225.46 156.43 224.813 156.43 223.96V221.04C156.43 220.187 156.21 219.54 155.77 219.1C155.33 218.66 154.716 218.44 153.93 218.44C153.156 218.44 152.543 218.66 152.09 219.1C151.65 219.54 151.43 220.187 151.43 221.04V223.96C151.43 224.813 151.65 225.46 152.09 225.9C152.543 226.34 153.156 226.56 153.93 226.56ZM161.762 231.6V217H163.562V219.1H163.922L163.562 219.52C163.562 218.68 163.835 218.02 164.382 217.54C164.942 217.047 165.675 216.8 166.582 216.8C167.689 216.8 168.569 217.167 169.222 217.9C169.889 218.62 170.222 219.613 170.222 220.88V224.1C170.222 224.94 170.069 225.667 169.762 226.28C169.469 226.893 169.049 227.367 168.502 227.7C167.969 228.033 167.329 228.2 166.582 228.2C165.689 228.2 164.962 227.953 164.402 227.46C163.842 226.967 163.562 226.307 163.562 225.48L163.922 225.9H163.522L163.562 228.4V231.6H161.762ZM165.982 226.64C166.742 226.64 167.335 226.413 167.762 225.96C168.202 225.507 168.422 224.853 168.422 224V221C168.422 220.147 168.202 219.493 167.762 219.04C167.335 218.587 166.742 218.36 165.982 218.36C165.249 218.36 164.662 218.593 164.222 219.06C163.782 219.527 163.562 220.173 163.562 221V224C163.562 224.827 163.782 225.473 164.222 225.94C164.662 226.407 165.249 226.64 165.982 226.64ZM177.894 228.2C176.627 228.2 175.614 227.827 174.854 227.08C174.094 226.32 173.714 225.293 173.714 224V217H175.514V224C175.514 224.827 175.727 225.473 176.154 225.94C176.581 226.393 177.161 226.62 177.894 226.62C178.641 226.62 179.227 226.393 179.654 225.94C180.094 225.473 180.314 224.827 180.314 224V217H182.114V224C182.114 225.293 181.727 226.32 180.954 227.08C180.181 227.827 179.161 228.2 177.894 228.2ZM185.746 231.6V217H187.546V219.1H187.906L187.546 219.52C187.546 218.68 187.82 218.02 188.366 217.54C188.926 217.047 189.66 216.8 190.566 216.8C191.673 216.8 192.553 217.167 193.206 217.9C193.873 218.62 194.206 219.613 194.206 220.88V224.1C194.206 224.94 194.053 225.667 193.746 226.28C193.453 226.893 193.033 227.367 192.486 227.7C191.953 228.033 191.313 228.2 190.566 228.2C189.673 228.2 188.946 227.953 188.386 227.46C187.826 226.967 187.546 226.307 187.546 225.48L187.906 225.9H187.506L187.546 228.4V231.6H185.746ZM189.966 226.64C190.726 226.64 191.32 226.413 191.746 225.96C192.186 225.507 192.406 224.853 192.406 224V221C192.406 220.147 192.186 219.493 191.746 219.04C191.32 218.587 190.726 218.36 189.966 218.36C189.233 218.36 188.646 218.593 188.206 219.06C187.766 219.527 187.546 220.173 187.546 221V224C187.546 224.827 187.766 225.473 188.206 225.94C188.646 226.407 189.233 226.64 189.966 226.64ZM197.738 228V226.16L202.198 221.42C202.958 220.607 203.512 219.887 203.858 219.26C204.205 218.62 204.378 218.007 204.378 217.42C204.378 216.607 204.152 215.967 203.698 215.5C203.258 215.033 202.652 214.8 201.878 214.8C201.025 214.8 200.352 215.04 199.858 215.52C199.378 216 199.138 216.66 199.138 217.5H197.338C197.365 216.62 197.565 215.86 197.938 215.22C198.325 214.567 198.852 214.067 199.518 213.72C200.198 213.373 200.985 213.2 201.878 213.2C202.758 213.2 203.518 213.373 204.158 213.72C204.812 214.053 205.312 214.533 205.658 215.16C206.005 215.787 206.178 216.533 206.178 217.4C206.178 218.227 205.958 219.047 205.518 219.86C205.078 220.673 204.358 221.6 203.358 222.64L199.758 226.36H206.418V228H197.738ZM245.707 231.6V217H247.507V219.1H247.867L247.507 219.52C247.507 218.68 247.781 218.02 248.327 217.54C248.887 217.047 249.621 216.8 250.527 216.8C251.634 216.8 252.514 217.167 253.167 217.9C253.834 218.62 254.167 219.613 254.167 220.88V224.1C254.167 224.94 254.014 225.667 253.707 226.28C253.414 226.893 252.994 227.367 252.447 227.7C251.914 228.033 251.274 228.2 250.527 228.2C249.634 228.2 248.907 227.953 248.347 227.46C247.787 226.967 247.507 226.307 247.507 225.48L247.867 225.9H247.467L247.507 228.4V231.6H245.707ZM249.927 226.64C250.687 226.64 251.281 226.413 251.707 225.96C252.147 225.507 252.367 224.853 252.367 224V221C252.367 220.147 252.147 219.493 251.707 219.04C251.281 218.587 250.687 218.36 249.927 218.36C249.194 218.36 248.607 218.593 248.167 219.06C247.727 219.527 247.507 220.173 247.507 221V224C247.507 224.827 247.727 225.473 248.167 225.94C248.607 226.407 249.194 226.64 249.927 226.64ZM258.079 228V217H259.839V219.1H260.259L259.679 220.4C259.679 219.213 259.933 218.32 260.439 217.72C260.959 217.107 261.726 216.8 262.739 216.8C263.899 216.8 264.819 217.167 265.499 217.9C266.193 218.62 266.539 219.6 266.539 220.84V221.5H264.739V221C264.739 220.133 264.526 219.473 264.099 219.02C263.686 218.553 263.093 218.32 262.319 218.32C261.559 218.32 260.959 218.553 260.519 219.02C260.093 219.487 259.879 220.147 259.879 221V228H258.079ZM273.852 228.2C272.985 228.2 272.225 228.027 271.572 227.68C270.932 227.333 270.432 226.847 270.072 226.22C269.725 225.58 269.552 224.84 269.552 224V221C269.552 220.147 269.725 219.407 270.072 218.78C270.432 218.153 270.932 217.667 271.572 217.32C272.225 216.973 272.985 216.8 273.852 216.8C274.718 216.8 275.472 216.973 276.112 217.32C276.765 217.667 277.265 218.153 277.612 218.78C277.972 219.407 278.152 220.147 278.152 221V222.94H271.312V224C271.312 224.867 271.532 225.533 271.972 226C272.412 226.453 273.038 226.68 273.852 226.68C274.545 226.68 275.105 226.56 275.532 226.32C275.958 226.067 276.218 225.693 276.312 225.2H278.112C277.992 226.12 277.538 226.853 276.752 227.4C275.978 227.933 275.012 228.2 273.852 228.2ZM276.392 221.74V221C276.392 220.133 276.172 219.467 275.732 219C275.305 218.533 274.678 218.3 273.852 218.3C273.038 218.3 272.412 218.533 271.972 219C271.532 219.467 271.312 220.133 271.312 221V221.58H276.532L276.392 221.74ZM285.504 228.16C284.757 228.16 284.104 228.047 283.544 227.82C282.997 227.58 282.557 227.247 282.224 226.82C281.904 226.393 281.71 225.887 281.644 225.3H283.444C283.524 225.687 283.737 225.993 284.084 226.22C284.444 226.447 284.917 226.56 285.504 226.56H286.344C287.05 226.56 287.577 226.42 287.924 226.14C288.27 225.847 288.444 225.46 288.444 224.98C288.444 224.513 288.284 224.147 287.964 223.88C287.657 223.6 287.197 223.413 286.584 223.32L285.104 223.08C284.024 222.893 283.217 222.56 282.684 222.08C282.164 221.587 281.904 220.873 281.904 219.94C281.904 218.953 282.217 218.193 282.844 217.66C283.47 217.113 284.41 216.84 285.664 216.84H286.424C287.477 216.84 288.324 217.087 288.964 217.58C289.604 218.073 289.99 218.74 290.124 219.58H288.324C288.244 219.233 288.044 218.96 287.724 218.76C287.404 218.547 286.97 218.44 286.424 218.44H285.664C284.984 218.44 284.484 218.567 284.164 218.82C283.857 219.073 283.704 219.453 283.704 219.96C283.704 220.413 283.837 220.747 284.104 220.96C284.37 221.173 284.79 221.327 285.364 221.42L286.844 221.66C288.03 221.847 288.89 222.193 289.424 222.7C289.97 223.207 290.244 223.94 290.244 224.9C290.244 225.913 289.917 226.713 289.264 227.3C288.624 227.873 287.65 228.16 286.344 228.16H285.504ZM297.836 228.2C296.969 228.2 296.209 228.027 295.556 227.68C294.916 227.333 294.416 226.847 294.056 226.22C293.709 225.58 293.536 224.84 293.536 224V221C293.536 220.147 293.709 219.407 294.056 218.78C294.416 218.153 294.916 217.667 295.556 217.32C296.209 216.973 296.969 216.8 297.836 216.8C298.703 216.8 299.456 216.973 300.096 217.32C300.749 217.667 301.249 218.153 301.596 218.78C301.956 219.407 302.136 220.147 302.136 221V222.94H295.296V224C295.296 224.867 295.516 225.533 295.956 226C296.396 226.453 297.023 226.68 297.836 226.68C298.529 226.68 299.089 226.56 299.516 226.32C299.943 226.067 300.203 225.693 300.296 225.2H302.096C301.976 226.12 301.523 226.853 300.736 227.4C299.963 227.933 298.996 228.2 297.836 228.2ZM300.376 221.74V221C300.376 220.133 300.156 219.467 299.716 219C299.289 218.533 298.663 218.3 297.836 218.3C297.023 218.3 296.396 218.533 295.956 219C295.516 219.467 295.296 220.133 295.296 221V221.58H300.516L300.376 221.74ZM305.668 228V217H307.468V219.1H307.848L307.468 219.52C307.468 218.653 307.728 217.987 308.248 217.52C308.768 217.04 309.488 216.8 310.408 216.8C311.515 216.8 312.395 217.14 313.048 217.82C313.701 218.5 314.028 219.427 314.028 220.6V228H312.228V220.8C312.228 220.013 312.015 219.413 311.588 219C311.175 218.573 310.608 218.36 309.888 218.36C309.141 218.36 308.548 218.587 308.108 219.04C307.681 219.493 307.468 220.147 307.468 221V228H305.668ZM323.02 228C322.074 228 321.334 227.747 320.8 227.24C320.28 226.733 320.02 226.02 320.02 225.1V218.64H316.92V217H320.02V213.9H321.82V217H326.22V218.64H321.82V225.1C321.82 225.94 322.22 226.36 323.02 226.36H326.02V228H323.02ZM137.778 256V241.4H142.478C143.384 241.4 144.171 241.58 144.838 241.94C145.504 242.287 146.018 242.78 146.378 243.42C146.751 244.06 146.938 244.82 146.938 245.7C146.938 246.567 146.751 247.327 146.378 247.98C146.018 248.62 145.504 249.12 144.838 249.48C144.171 249.827 143.384 250 142.478 250H139.578V256H137.778ZM139.578 248.38H142.478C143.264 248.38 143.891 248.14 144.358 247.66C144.838 247.167 145.078 246.513 145.078 245.7C145.078 244.873 144.838 244.22 144.358 243.74C143.891 243.26 143.264 243.02 142.478 243.02H139.578V248.38ZM153.93 256.16C153.05 256.16 152.29 255.993 151.65 255.66C151.01 255.327 150.51 254.847 150.15 254.22C149.803 253.58 149.63 252.827 149.63 251.96V249.04C149.63 248.16 149.803 247.407 150.15 246.78C150.51 246.153 151.01 245.673 151.65 245.34C152.29 245.007 153.05 244.84 153.93 244.84C154.81 244.84 155.57 245.007 156.21 245.34C156.85 245.673 157.343 246.153 157.69 246.78C158.05 247.407 158.23 248.153 158.23 249.02V251.96C158.23 252.827 158.05 253.58 157.69 254.22C157.343 254.847 156.85 255.327 156.21 255.66C155.57 255.993 154.81 256.16 153.93 256.16ZM153.93 254.56C154.716 254.56 155.33 254.34 155.77 253.9C156.21 253.46 156.43 252.813 156.43 251.96V249.04C156.43 248.187 156.21 247.54 155.77 247.1C155.33 246.66 154.716 246.44 153.93 246.44C153.156 246.44 152.543 246.66 152.09 247.1C151.65 247.54 151.43 248.187 151.43 249.04V251.96C151.43 252.813 151.65 253.46 152.09 253.9C152.543 254.34 153.156 254.56 153.93 254.56ZM161.762 259.6V245H163.562V247.1H163.922L163.562 247.52C163.562 246.68 163.835 246.02 164.382 245.54C164.942 245.047 165.675 244.8 166.582 244.8C167.689 244.8 168.569 245.167 169.222 245.9C169.889 246.62 170.222 247.613 170.222 248.88V252.1C170.222 252.94 170.069 253.667 169.762 254.28C169.469 254.893 169.049 255.367 168.502 255.7C167.969 256.033 167.329 256.2 166.582 256.2C165.689 256.2 164.962 255.953 164.402 255.46C163.842 254.967 163.562 254.307 163.562 253.48L163.922 253.9H163.522L163.562 256.4V259.6H161.762ZM165.982 254.64C166.742 254.64 167.335 254.413 167.762 253.96C168.202 253.507 168.422 252.853 168.422 252V249C168.422 248.147 168.202 247.493 167.762 247.04C167.335 246.587 166.742 246.36 165.982 246.36C165.249 246.36 164.662 246.593 164.222 247.06C163.782 247.527 163.562 248.173 163.562 249V252C163.562 252.827 163.782 253.473 164.222 253.94C164.662 254.407 165.249 254.64 165.982 254.64ZM177.894 256.2C176.627 256.2 175.614 255.827 174.854 255.08C174.094 254.32 173.714 253.293 173.714 252V245H175.514V252C175.514 252.827 175.727 253.473 176.154 253.94C176.581 254.393 177.161 254.62 177.894 254.62C178.641 254.62 179.227 254.393 179.654 253.94C180.094 253.473 180.314 252.827 180.314 252V245H182.114V252C182.114 253.293 181.727 254.32 180.954 255.08C180.181 255.827 179.161 256.2 177.894 256.2ZM185.746 259.6V245H187.546V247.1H187.906L187.546 247.52C187.546 246.68 187.82 246.02 188.366 245.54C188.926 245.047 189.66 244.8 190.566 244.8C191.673 244.8 192.553 245.167 193.206 245.9C193.873 246.62 194.206 247.613 194.206 248.88V252.1C194.206 252.94 194.053 253.667 193.746 254.28C193.453 254.893 193.033 255.367 192.486 255.7C191.953 256.033 191.313 256.2 190.566 256.2C189.673 256.2 188.946 255.953 188.386 255.46C187.826 254.967 187.546 254.307 187.546 253.48L187.906 253.9H187.506L187.546 256.4V259.6H185.746ZM189.966 254.64C190.726 254.64 191.32 254.413 191.746 253.96C192.186 253.507 192.406 252.853 192.406 252V249C192.406 248.147 192.186 247.493 191.746 247.04C191.32 246.587 190.726 246.36 189.966 246.36C189.233 246.36 188.646 246.593 188.206 247.06C187.766 247.527 187.546 248.173 187.546 249V252C187.546 252.827 187.766 253.473 188.206 253.94C188.646 254.407 189.233 254.64 189.966 254.64ZM201.678 256.2C200.798 256.2 200.025 256.027 199.358 255.68C198.705 255.32 198.198 254.827 197.838 254.2C197.478 253.573 197.298 252.84 197.298 252H199.098C199.098 252.813 199.325 253.453 199.778 253.92C200.245 254.373 200.885 254.6 201.698 254.6C202.525 254.6 203.165 254.36 203.618 253.88C204.072 253.4 204.298 252.773 204.298 252V250.96C204.298 250.133 204.072 249.493 203.618 249.04C203.165 248.587 202.525 248.36 201.698 248.36H200.198V246.56L203.818 243.04H197.898V241.4H205.638V243.2L201.738 246.98V246.76C203.072 246.76 204.132 247.14 204.918 247.9C205.705 248.66 206.098 249.68 206.098 250.96V252C206.098 252.84 205.912 253.573 205.538 254.2C205.178 254.827 204.665 255.32 203.998 255.68C203.332 256.027 202.558 256.2 201.678 256.2ZM245.707 259.6V245H247.507V247.1H247.867L247.507 247.52C247.507 246.68 247.781 246.02 248.327 245.54C248.887 245.047 249.621 244.8 250.527 244.8C251.634 244.8 252.514 245.167 253.167 245.9C253.834 246.62 254.167 247.613 254.167 248.88V252.1C254.167 252.94 254.014 253.667 253.707 254.28C253.414 254.893 252.994 255.367 252.447 255.7C251.914 256.033 251.274 256.2 250.527 256.2C249.634 256.2 248.907 255.953 248.347 255.46C247.787 254.967 247.507 254.307 247.507 253.48L247.867 253.9H247.467L247.507 256.4V259.6H245.707ZM249.927 254.64C250.687 254.64 251.281 254.413 251.707 253.96C252.147 253.507 252.367 252.853 252.367 252V249C252.367 248.147 252.147 247.493 251.707 247.04C251.281 246.587 250.687 246.36 249.927 246.36C249.194 246.36 248.607 246.593 248.167 247.06C247.727 247.527 247.507 248.173 247.507 249V252C247.507 252.827 247.727 253.473 248.167 253.94C248.607 254.407 249.194 254.64 249.927 254.64ZM258.079 256V245H259.839V247.1H260.259L259.679 248.4C259.679 247.213 259.933 246.32 260.439 245.72C260.959 245.107 261.726 244.8 262.739 244.8C263.899 244.8 264.819 245.167 265.499 245.9C266.193 246.62 266.539 247.6 266.539 248.84V249.5H264.739V249C264.739 248.133 264.526 247.473 264.099 247.02C263.686 246.553 263.093 246.32 262.319 246.32C261.559 246.32 260.959 246.553 260.519 247.02C260.093 247.487 259.879 248.147 259.879 249V256H258.079ZM273.852 256.2C272.985 256.2 272.225 256.027 271.572 255.68C270.932 255.333 270.432 254.847 270.072 254.22C269.725 253.58 269.552 252.84 269.552 252V249C269.552 248.147 269.725 247.407 270.072 246.78C270.432 246.153 270.932 245.667 271.572 245.32C272.225 244.973 272.985 244.8 273.852 244.8C274.718 244.8 275.472 244.973 276.112 245.32C276.765 245.667 277.265 246.153 277.612 246.78C277.972 247.407 278.152 248.147 278.152 249V250.94H271.312V252C271.312 252.867 271.532 253.533 271.972 254C272.412 254.453 273.038 254.68 273.852 254.68C274.545 254.68 275.105 254.56 275.532 254.32C275.958 254.067 276.218 253.693 276.312 253.2H278.112C277.992 254.12 277.538 254.853 276.752 255.4C275.978 255.933 275.012 256.2 273.852 256.2ZM276.392 249.74V249C276.392 248.133 276.172 247.467 275.732 247C275.305 246.533 274.678 246.3 273.852 246.3C273.038 246.3 272.412 246.533 271.972 247C271.532 247.467 271.312 248.133 271.312 249V249.58H276.532L276.392 249.74ZM285.504 256.16C284.757 256.16 284.104 256.047 283.544 255.82C282.997 255.58 282.557 255.247 282.224 254.82C281.904 254.393 281.71 253.887 281.644 253.3H283.444C283.524 253.687 283.737 253.993 284.084 254.22C284.444 254.447 284.917 254.56 285.504 254.56H286.344C287.05 254.56 287.577 254.42 287.924 254.14C288.27 253.847 288.444 253.46 288.444 252.98C288.444 252.513 288.284 252.147 287.964 251.88C287.657 251.6 287.197 251.413 286.584 251.32L285.104 251.08C284.024 250.893 283.217 250.56 282.684 250.08C282.164 249.587 281.904 248.873 281.904 247.94C281.904 246.953 282.217 246.193 282.844 245.66C283.47 245.113 284.41 244.84 285.664 244.84H286.424C287.477 244.84 288.324 245.087 288.964 245.58C289.604 246.073 289.99 246.74 290.124 247.58H288.324C288.244 247.233 288.044 246.96 287.724 246.76C287.404 246.547 286.97 246.44 286.424 246.44H285.664C284.984 246.44 284.484 246.567 284.164 246.82C283.857 247.073 283.704 247.453 283.704 247.96C283.704 248.413 283.837 248.747 284.104 248.96C284.37 249.173 284.79 249.327 285.364 249.42L286.844 249.66C288.03 249.847 288.89 250.193 289.424 250.7C289.97 251.207 290.244 251.94 290.244 252.9C290.244 253.913 289.917 254.713 289.264 255.3C288.624 255.873 287.65 256.16 286.344 256.16H285.504ZM297.836 256.2C296.969 256.2 296.209 256.027 295.556 255.68C294.916 255.333 294.416 254.847 294.056 254.22C293.709 253.58 293.536 252.84 293.536 252V249C293.536 248.147 293.709 247.407 294.056 246.78C294.416 246.153 294.916 245.667 295.556 245.32C296.209 244.973 296.969 244.8 297.836 244.8C298.703 244.8 299.456 244.973 300.096 245.32C300.749 245.667 301.249 246.153 301.596 246.78C301.956 247.407 302.136 248.147 302.136 249V250.94H295.296V252C295.296 252.867 295.516 253.533 295.956 254C296.396 254.453 297.023 254.68 297.836 254.68C298.529 254.68 299.089 254.56 299.516 254.32C299.943 254.067 300.203 253.693 300.296 253.2H302.096C301.976 254.12 301.523 254.853 300.736 255.4C299.963 255.933 298.996 256.2 297.836 256.2ZM300.376 249.74V249C300.376 248.133 300.156 247.467 299.716 247C299.289 246.533 298.663 246.3 297.836 246.3C297.023 246.3 296.396 246.533 295.956 247C295.516 247.467 295.296 248.133 295.296 249V249.58H300.516L300.376 249.74ZM305.668 256V245H307.468V247.1H307.848L307.468 247.52C307.468 246.653 307.728 245.987 308.248 245.52C308.768 245.04 309.488 244.8 310.408 244.8C311.515 244.8 312.395 245.14 313.048 245.82C313.701 246.5 314.028 247.427 314.028 248.6V256H312.228V248.8C312.228 248.013 312.015 247.413 311.588 247C311.175 246.573 310.608 246.36 309.888 246.36C309.141 246.36 308.548 246.587 308.108 247.04C307.681 247.493 307.468 248.147 307.468 249V256H305.668ZM323.02 256C322.074 256 321.334 255.747 320.8 255.24C320.28 254.733 320.02 254.02 320.02 253.1V246.64H316.92V245H320.02V241.9H321.82V245H326.22V246.64H321.82V253.1C321.82 253.94 322.22 254.36 323.02 254.36H326.02V256H323.02ZM137.778 284V269.4H142.478C143.384 269.4 144.171 269.58 144.838 269.94C145.504 270.287 146.018 270.78 146.378 271.42C146.751 272.06 146.938 272.82 146.938 273.7C146.938 274.567 146.751 275.327 146.378 275.98C146.018 276.62 145.504 277.12 144.838 277.48C144.171 277.827 143.384 278 142.478 278H139.578V284H137.778ZM139.578 276.38H142.478C143.264 276.38 143.891 276.14 144.358 275.66C144.838 275.167 145.078 274.513 145.078 273.7C145.078 272.873 144.838 272.22 144.358 271.74C143.891 271.26 143.264 271.02 142.478 271.02H139.578V276.38ZM153.93 284.16C153.05 284.16 152.29 283.993 151.65 283.66C151.01 283.327 150.51 282.847 150.15 282.22C149.803 281.58 149.63 280.827 149.63 279.96V277.04C149.63 276.16 149.803 275.407 150.15 274.78C150.51 274.153 151.01 273.673 151.65 273.34C152.29 273.007 153.05 272.84 153.93 272.84C154.81 272.84 155.57 273.007 156.21 273.34C156.85 273.673 157.343 274.153 157.69 274.78C158.05 275.407 158.23 276.153 158.23 277.02V279.96C158.23 280.827 158.05 281.58 157.69 282.22C157.343 282.847 156.85 283.327 156.21 283.66C155.57 283.993 154.81 284.16 153.93 284.16ZM153.93 282.56C154.716 282.56 155.33 282.34 155.77 281.9C156.21 281.46 156.43 280.813 156.43 279.96V277.04C156.43 276.187 156.21 275.54 155.77 275.1C155.33 274.66 154.716 274.44 153.93 274.44C153.156 274.44 152.543 274.66 152.09 275.1C151.65 275.54 151.43 276.187 151.43 277.04V279.96C151.43 280.813 151.65 281.46 152.09 281.9C152.543 282.34 153.156 282.56 153.93 282.56ZM161.762 287.6V273H163.562V275.1H163.922L163.562 275.52C163.562 274.68 163.835 274.02 164.382 273.54C164.942 273.047 165.675 272.8 166.582 272.8C167.689 272.8 168.569 273.167 169.222 273.9C169.889 274.62 170.222 275.613 170.222 276.88V280.1C170.222 280.94 170.069 281.667 169.762 282.28C169.469 282.893 169.049 283.367 168.502 283.7C167.969 284.033 167.329 284.2 166.582 284.2C165.689 284.2 164.962 283.953 164.402 283.46C163.842 282.967 163.562 282.307 163.562 281.48L163.922 281.9H163.522L163.562 284.4V287.6H161.762ZM165.982 282.64C166.742 282.64 167.335 282.413 167.762 281.96C168.202 281.507 168.422 280.853 168.422 280V277C168.422 276.147 168.202 275.493 167.762 275.04C167.335 274.587 166.742 274.36 165.982 274.36C165.249 274.36 164.662 274.593 164.222 275.06C163.782 275.527 163.562 276.173 163.562 277V280C163.562 280.827 163.782 281.473 164.222 281.94C164.662 282.407 165.249 282.64 165.982 282.64ZM177.894 284.2C176.627 284.2 175.614 283.827 174.854 283.08C174.094 282.32 173.714 281.293 173.714 280V273H175.514V280C175.514 280.827 175.727 281.473 176.154 281.94C176.581 282.393 177.161 282.62 177.894 282.62C178.641 282.62 179.227 282.393 179.654 281.94C180.094 281.473 180.314 280.827 180.314 280V273H182.114V280C182.114 281.293 181.727 282.32 180.954 283.08C180.181 283.827 179.161 284.2 177.894 284.2ZM185.746 287.6V273H187.546V275.1H187.906L187.546 275.52C187.546 274.68 187.82 274.02 188.366 273.54C188.926 273.047 189.66 272.8 190.566 272.8C191.673 272.8 192.553 273.167 193.206 273.9C193.873 274.62 194.206 275.613 194.206 276.88V280.1C194.206 280.94 194.053 281.667 193.746 282.28C193.453 282.893 193.033 283.367 192.486 283.7C191.953 284.033 191.313 284.2 190.566 284.2C189.673 284.2 188.946 283.953 188.386 283.46C187.826 282.967 187.546 282.307 187.546 281.48L187.906 281.9H187.506L187.546 284.4V287.6H185.746ZM189.966 282.64C190.726 282.64 191.32 282.413 191.746 281.96C192.186 281.507 192.406 280.853 192.406 280V277C192.406 276.147 192.186 275.493 191.746 275.04C191.32 274.587 190.726 274.36 189.966 274.36C189.233 274.36 188.646 274.593 188.206 275.06C187.766 275.527 187.546 276.173 187.546 277V280C187.546 280.827 187.766 281.473 188.206 281.94C188.646 282.407 189.233 282.64 189.966 282.64ZM204.098 284V280.8H197.498V277.98L203.278 269.4H205.238L199.298 278.36V279.16H204.098V275.6H205.898V284H204.098ZM245.707 287.6V273H247.507V275.1H247.867L247.507 275.52C247.507 274.68 247.781 274.02 248.327 273.54C248.887 273.047 249.621 272.8 250.527 272.8C251.634 272.8 252.514 273.167 253.167 273.9C253.834 274.62 254.167 275.613 254.167 276.88V280.1C254.167 280.94 254.014 281.667 253.707 282.28C253.414 282.893 252.994 283.367 252.447 283.7C251.914 284.033 251.274 284.2 250.527 284.2C249.634 284.2 248.907 283.953 248.347 283.46C247.787 282.967 247.507 282.307 247.507 281.48L247.867 281.9H247.467L247.507 284.4V287.6H245.707ZM249.927 282.64C250.687 282.64 251.281 282.413 251.707 281.96C252.147 281.507 252.367 280.853 252.367 280V277C252.367 276.147 252.147 275.493 251.707 275.04C251.281 274.587 250.687 274.36 249.927 274.36C249.194 274.36 248.607 274.593 248.167 275.06C247.727 275.527 247.507 276.173 247.507 277V280C247.507 280.827 247.727 281.473 248.167 281.94C248.607 282.407 249.194 282.64 249.927 282.64ZM258.079 284V273H259.839V275.1H260.259L259.679 276.4C259.679 275.213 259.933 274.32 260.439 273.72C260.959 273.107 261.726 272.8 262.739 272.8C263.899 272.8 264.819 273.167 265.499 273.9C266.193 274.62 266.539 275.6 266.539 276.84V277.5H264.739V277C264.739 276.133 264.526 275.473 264.099 275.02C263.686 274.553 263.093 274.32 262.319 274.32C261.559 274.32 260.959 274.553 260.519 275.02C260.093 275.487 259.879 276.147 259.879 277V284H258.079ZM273.852 284.2C272.985 284.2 272.225 284.027 271.572 283.68C270.932 283.333 270.432 282.847 270.072 282.22C269.725 281.58 269.552 280.84 269.552 280V277C269.552 276.147 269.725 275.407 270.072 274.78C270.432 274.153 270.932 273.667 271.572 273.32C272.225 272.973 272.985 272.8 273.852 272.8C274.718 272.8 275.472 272.973 276.112 273.32C276.765 273.667 277.265 274.153 277.612 274.78C277.972 275.407 278.152 276.147 278.152 277V278.94H271.312V280C271.312 280.867 271.532 281.533 271.972 282C272.412 282.453 273.038 282.68 273.852 282.68C274.545 282.68 275.105 282.56 275.532 282.32C275.958 282.067 276.218 281.693 276.312 281.2H278.112C277.992 282.12 277.538 282.853 276.752 283.4C275.978 283.933 275.012 284.2 273.852 284.2ZM276.392 277.74V277C276.392 276.133 276.172 275.467 275.732 275C275.305 274.533 274.678 274.3 273.852 274.3C273.038 274.3 272.412 274.533 271.972 275C271.532 275.467 271.312 276.133 271.312 277V277.58H276.532L276.392 277.74ZM285.504 284.16C284.757 284.16 284.104 284.047 283.544 283.82C282.997 283.58 282.557 283.247 282.224 282.82C281.904 282.393 281.71 281.887 281.644 281.3H283.444C283.524 281.687 283.737 281.993 284.084 282.22C284.444 282.447 284.917 282.56 285.504 282.56H286.344C287.05 282.56 287.577 282.42 287.924 282.14C288.27 281.847 288.444 281.46 288.444 280.98C288.444 280.513 288.284 280.147 287.964 279.88C287.657 279.6 287.197 279.413 286.584 279.32L285.104 279.08C284.024 278.893 283.217 278.56 282.684 278.08C282.164 277.587 281.904 276.873 281.904 275.94C281.904 274.953 282.217 274.193 282.844 273.66C283.47 273.113 284.41 272.84 285.664 272.84H286.424C287.477 272.84 288.324 273.087 288.964 273.58C289.604 274.073 289.99 274.74 290.124 275.58H288.324C288.244 275.233 288.044 274.96 287.724 274.76C287.404 274.547 286.97 274.44 286.424 274.44H285.664C284.984 274.44 284.484 274.567 284.164 274.82C283.857 275.073 283.704 275.453 283.704 275.96C283.704 276.413 283.837 276.747 284.104 276.96C284.37 277.173 284.79 277.327 285.364 277.42L286.844 277.66C288.03 277.847 288.89 278.193 289.424 278.7C289.97 279.207 290.244 279.94 290.244 280.9C290.244 281.913 289.917 282.713 289.264 283.3C288.624 283.873 287.65 284.16 286.344 284.16H285.504ZM297.836 284.2C296.969 284.2 296.209 284.027 295.556 283.68C294.916 283.333 294.416 282.847 294.056 282.22C293.709 281.58 293.536 280.84 293.536 280V277C293.536 276.147 293.709 275.407 294.056 274.78C294.416 274.153 294.916 273.667 295.556 273.32C296.209 272.973 296.969 272.8 297.836 272.8C298.703 272.8 299.456 272.973 300.096 273.32C300.749 273.667 301.249 274.153 301.596 274.78C301.956 275.407 302.136 276.147 302.136 277V278.94H295.296V280C295.296 280.867 295.516 281.533 295.956 282C296.396 282.453 297.023 282.68 297.836 282.68C298.529 282.68 299.089 282.56 299.516 282.32C299.943 282.067 300.203 281.693 300.296 281.2H302.096C301.976 282.12 301.523 282.853 300.736 283.4C299.963 283.933 298.996 284.2 297.836 284.2ZM300.376 277.74V277C300.376 276.133 300.156 275.467 299.716 275C299.289 274.533 298.663 274.3 297.836 274.3C297.023 274.3 296.396 274.533 295.956 275C295.516 275.467 295.296 276.133 295.296 277V277.58H300.516L300.376 277.74ZM305.668 284V273H307.468V275.1H307.848L307.468 275.52C307.468 274.653 307.728 273.987 308.248 273.52C308.768 273.04 309.488 272.8 310.408 272.8C311.515 272.8 312.395 273.14 313.048 273.82C313.701 274.5 314.028 275.427 314.028 276.6V284H312.228V276.8C312.228 276.013 312.015 275.413 311.588 275C311.175 274.573 310.608 274.36 309.888 274.36C309.141 274.36 308.548 274.587 308.108 275.04C307.681 275.493 307.468 276.147 307.468 277V284H305.668ZM323.02 284C322.074 284 321.334 283.747 320.8 283.24C320.28 282.733 320.02 282.02 320.02 281.1V274.64H316.92V273H320.02V269.9H321.82V273H326.22V274.64H321.82V281.1C321.82 281.94 322.22 282.36 323.02 282.36H326.02V284H323.02Z" fill="#78C2B3"/>
</svg>
