<svg width="1280" height="355" viewBox="0 0 1280 355" fill="none" xmlns="http://www.w3.org/2000/svg">
<rect x="1" y="1" width="1278" height="353" rx="25" fill="#0D0D0E"/>
<rect x="1" y="1" width="1278" height="353" rx="25" stroke="#262629" stroke-width="2"/>
<path d="M48.932 66.42C44.564 66.42 42.156 64.824 41.092 61.884C40.784 61.072 41.008 60.708 41.792 60.428L43.836 59.7C44.648 59.392 44.956 59.532 45.348 60.372C45.88 61.576 47.14 62.304 48.96 62.304C51.312 62.304 52.656 61.688 52.656 60.092C52.656 58.692 50.948 58.3 48.876 58.076C45.516 57.684 41.148 57.124 41.148 51.972C41.148 48.36 43.864 45.7 49.128 45.7C53.188 45.7 55.316 47.072 56.604 49.816C56.996 50.6 56.772 50.992 55.988 51.328L53.86 52.252C53.132 52.588 52.824 52.448 52.432 51.692C51.816 50.516 50.864 49.844 49.128 49.844C46.804 49.844 45.796 50.432 45.796 51.776C45.796 53.288 47.728 53.596 50.024 53.848C53.272 54.24 57.248 55.08 57.248 60.008C57.248 63.844 54.084 66.42 48.932 66.42ZM67.5435 66C62.6435 66 60.7395 64.572 60.7395 59.644V55.192H59.2555C58.4715 55.192 58.2195 54.912 58.2195 54.156V52.476C58.2195 51.692 58.4715 51.44 59.2555 51.44H60.7395V49.116C60.7395 48.332 61.0195 48.08 61.7755 48.08H63.9595C64.7155 48.08 64.9675 48.332 64.9675 49.116V51.44H67.5715C68.3275 51.44 68.5795 51.692 68.5795 52.476V54.156C68.5795 54.912 68.3275 55.192 67.5715 55.192H64.9675V59.476C64.9675 61.688 65.6675 62.08 67.5435 62.08C68.3275 62.08 68.5795 62.332 68.5795 63.144V64.908C68.5795 65.72 68.3275 66 67.5435 66ZM76.5925 66.42C71.5245 66.42 70.1805 64.796 70.1805 61.8C70.1805 58.3 72.1125 57.236 76.7045 57.236C77.4605 57.236 78.2725 57.292 78.6925 57.32V56.648C78.6925 55.276 78.1045 54.548 76.5365 54.548C75.4165 54.548 74.7165 54.912 74.2125 55.584C73.7645 56.228 73.5405 56.368 72.7845 56.032L71.2445 55.416C70.5165 55.108 70.2925 54.716 70.6845 53.932C71.6645 52.084 73.6525 51.02 76.6765 51.02C81.4085 51.02 82.9205 53.484 82.9205 56.928V64.04C82.9205 65.048 82.6965 65.328 81.8845 65.664C80.8205 66.14 79.0005 66.42 76.5925 66.42ZM76.2845 63.172C77.4605 63.172 78.1605 63.088 78.4965 63.032C78.6085 63.004 78.6925 62.976 78.6925 62.836V60.456C78.1605 60.428 77.0965 60.372 76.3405 60.372C74.7445 60.372 74.4085 60.988 74.4085 61.772C74.4085 62.556 74.7165 63.172 76.2845 63.172ZM91.6908 66.42C87.2388 66.42 85.3068 64.18 85.3068 60.484V56.956C85.3068 53.288 87.3788 51.02 91.9708 51.02C95.3308 51.02 97.3748 52.644 98.0748 54.744C98.3548 55.556 98.1308 55.948 97.3748 56.2L95.5828 56.788C94.7708 57.068 94.4068 56.872 94.0988 56.088C93.7348 55.192 93.0068 54.66 91.8028 54.66C90.2908 54.66 89.5348 55.388 89.5348 56.732V60.68C89.5348 62.052 90.2908 62.78 91.8028 62.78C93.0068 62.78 93.7348 62.248 94.0988 61.352C94.4068 60.568 94.7708 60.428 95.5828 60.68L97.4028 61.24C98.1868 61.492 98.4668 61.884 98.1308 62.724C97.1508 65.048 95.1348 66.42 91.6908 66.42ZM101.584 66C100.772 66 100.52 65.748 100.52 64.936V46.344C100.52 45.532 100.772 45.28 101.584 45.28H103.684C104.496 45.28 104.748 45.532 104.748 46.344V56.732H105.336H105.532L108.668 52.28C109.172 51.496 109.508 51.44 110.656 51.44H112.532C113.568 51.44 113.792 51.888 113.26 52.672L109.48 57.796C110.096 58.216 110.572 58.86 111.048 59.812L113.484 64.74C113.96 65.636 113.82 66 112.784 66H110.852C109.648 66 109.368 65.86 109.004 65.048L107.52 61.604C107.184 60.82 106.68 60.484 105.728 60.484H104.748V64.936C104.748 65.748 104.496 66 103.684 66H101.584ZM117.571 49.396C116.059 49.396 115.611 49.004 115.611 47.492V47.212C115.611 45.7 116.059 45.308 117.571 45.308H118.131C119.643 45.308 120.091 45.7 120.091 47.212V47.492C120.091 49.004 119.643 49.396 118.131 49.396H117.571ZM116.759 66C116.003 66 115.723 65.748 115.723 64.964V52.476C115.723 51.692 116.003 51.44 116.759 51.44H118.943C119.699 51.44 119.951 51.692 119.951 52.476V64.964C119.951 65.748 119.699 66 118.943 66H116.759ZM124.004 66C123.22 66 122.968 65.748 122.968 64.964V53.652C122.968 52.728 123.164 52.392 124.088 52.028C125.264 51.552 127.028 51.02 129.8 51.02C133.944 51.02 135.848 53.148 135.848 56.816V64.964C135.848 65.748 135.596 66 134.84 66H132.656C131.9 66 131.62 65.748 131.62 64.964V56.956C131.62 55.5 130.836 54.856 129.24 54.856C128.484 54.856 127.868 54.94 127.28 55.08C127.252 55.108 127.196 55.136 127.196 55.192V64.964C127.196 65.748 126.944 66 126.16 66H124.004ZM144.877 72.44C141.797 72.44 139.921 71.488 138.857 69.836C138.381 69.08 138.549 68.576 139.305 68.184L140.873 67.372C141.657 66.952 142.021 67.092 142.497 67.736C143.001 68.408 143.645 68.8 144.793 68.8C146.249 68.8 147.033 68.044 147.033 66.532V65.328C146.249 65.496 145.381 65.608 144.429 65.608C140.285 65.608 138.381 63.48 138.381 59.812V57.096C138.381 53.148 140.509 51.02 144.933 51.02C147.313 51.02 149.245 51.468 150.225 51.944C151.149 52.364 151.261 52.588 151.261 53.512V66.224C151.261 69.892 149.441 72.44 144.877 72.44ZM144.961 61.828C145.745 61.828 146.473 61.744 147.033 61.632V55.164C147.033 55.08 147.005 55.024 146.921 54.996C146.417 54.884 145.829 54.8 145.157 54.8C143.421 54.8 142.609 55.528 142.609 57.096V59.784C142.609 61.1 143.477 61.828 144.961 61.828Z" fill="#F1EFEF"/>
<path d="M44.864 141.16C44.16 141.16 43.5413 141.027 43.008 140.76C42.4853 140.493 42.08 140.109 41.792 139.608C41.504 139.096 41.36 138.493 41.36 137.8V135.4C41.36 134.696 41.504 134.093 41.792 133.592C42.08 133.091 42.4853 132.707 43.008 132.44C43.5413 132.173 44.16 132.04 44.864 132.04C45.8773 132.04 46.6933 132.312 47.312 132.856C47.9307 133.4 48.256 134.141 48.288 135.08H46.848C46.816 134.515 46.624 134.083 46.272 133.784C45.9307 133.475 45.4613 133.32 44.864 133.32C44.2347 133.32 43.7333 133.501 43.36 133.864C42.9867 134.216 42.8 134.723 42.8 135.384V137.8C42.8 138.461 42.9867 138.973 43.36 139.336C43.7333 139.699 44.2347 139.88 44.864 139.88C45.4613 139.88 45.9307 139.725 46.272 139.416C46.624 139.107 46.816 138.675 46.848 138.12H48.288C48.256 139.059 47.9307 139.8 47.312 140.344C46.6933 140.888 45.8773 141.16 44.864 141.16ZM55.5938 141C55.0818 141 54.6338 140.899 54.2498 140.696C53.8658 140.493 53.5671 140.205 53.3538 139.832C53.1404 139.459 53.0338 139.021 53.0338 138.52V130.632H50.0738V129.32H54.4738V138.52C54.4738 138.883 54.5751 139.171 54.7778 139.384C54.9804 139.587 55.2524 139.688 55.5938 139.688H58.3938V141H55.5938ZM63.2195 141.16C62.2915 141.16 61.5608 140.925 61.0275 140.456C60.4942 139.976 60.2275 139.331 60.2275 138.52C60.2275 137.699 60.4942 137.053 61.0275 136.584C61.5608 136.115 62.2808 135.88 63.1875 135.88H65.9075V135C65.9075 134.456 65.7422 134.04 65.4115 133.752C65.0915 133.453 64.6328 133.304 64.0355 133.304C63.5128 133.304 63.0755 133.416 62.7235 133.64C62.3715 133.853 62.1688 134.147 62.1155 134.52H60.6755C60.7715 133.763 61.1288 133.16 61.7475 132.712C62.3662 132.264 63.1395 132.04 64.0675 132.04C65.0808 132.04 65.8808 132.301 66.4675 132.824C67.0542 133.347 67.3475 134.056 67.3475 134.952V141H65.9395V139.32H65.6995L65.9395 139.08C65.9395 139.72 65.6888 140.227 65.1875 140.6C64.6968 140.973 64.0408 141.16 63.2195 141.16ZM63.5715 140.024C64.2542 140.024 64.8142 139.853 65.2515 139.512C65.6888 139.171 65.9075 138.733 65.9075 138.2V136.952H63.2195C62.7395 136.952 62.3608 137.085 62.0835 137.352C61.8062 137.619 61.6675 137.981 61.6675 138.44C61.6675 138.931 61.8328 139.32 62.1635 139.608C62.5048 139.885 62.9742 140.024 63.5715 140.024ZM73.3093 141.128C72.7119 141.128 72.1893 141.037 71.7413 140.856C71.3039 140.664 70.9519 140.397 70.6853 140.056C70.4293 139.715 70.2746 139.309 70.2213 138.84H71.6613C71.7253 139.149 71.8959 139.395 72.1733 139.576C72.4613 139.757 72.8399 139.848 73.3093 139.848H73.9813C74.5466 139.848 74.9679 139.736 75.2453 139.512C75.5226 139.277 75.6613 138.968 75.6613 138.584C75.6613 138.211 75.5333 137.917 75.2773 137.704C75.0319 137.48 74.6639 137.331 74.1733 137.256L72.9893 137.064C72.1253 136.915 71.4799 136.648 71.0533 136.264C70.6373 135.869 70.4293 135.299 70.4293 134.552C70.4293 133.763 70.6799 133.155 71.1813 132.728C71.6826 132.291 72.4346 132.072 73.4373 132.072H74.0453C74.8879 132.072 75.5653 132.269 76.0773 132.664C76.5893 133.059 76.8986 133.592 77.0052 134.264H75.5653C75.5013 133.987 75.3413 133.768 75.0853 133.608C74.8293 133.437 74.4826 133.352 74.0453 133.352H73.4373C72.8933 133.352 72.4933 133.453 72.2373 133.656C71.9919 133.859 71.8693 134.163 71.8693 134.568C71.8693 134.931 71.9759 135.197 72.1893 135.368C72.4026 135.539 72.7386 135.661 73.1973 135.736L74.3813 135.928C75.3306 136.077 76.0186 136.355 76.4453 136.76C76.8826 137.165 77.1013 137.752 77.1013 138.52C77.1013 139.331 76.8399 139.971 76.3173 140.44C75.8053 140.899 75.0266 141.128 73.9813 141.128H73.3093ZM82.903 141.128C82.3057 141.128 81.783 141.037 81.335 140.856C80.8977 140.664 80.5457 140.397 80.279 140.056C80.023 139.715 79.8683 139.309 79.815 138.84H81.255C81.319 139.149 81.4897 139.395 81.767 139.576C82.055 139.757 82.4337 139.848 82.903 139.848H83.575C84.1403 139.848 84.5617 139.736 84.839 139.512C85.1163 139.277 85.255 138.968 85.255 138.584C85.255 138.211 85.127 137.917 84.871 137.704C84.6257 137.48 84.2577 137.331 83.767 137.256L82.583 137.064C81.719 136.915 81.0737 136.648 80.647 136.264C80.231 135.869 80.023 135.299 80.023 134.552C80.023 133.763 80.2737 133.155 80.775 132.728C81.2763 132.291 82.0283 132.072 83.031 132.072H83.639C84.4817 132.072 85.159 132.269 85.671 132.664C86.183 133.059 86.4923 133.592 86.599 134.264H85.159C85.095 133.987 84.935 133.768 84.679 133.608C84.423 133.437 84.0763 133.352 83.639 133.352H83.031C82.487 133.352 82.087 133.453 81.831 133.656C81.5857 133.859 81.463 134.163 81.463 134.568C81.463 134.931 81.5697 135.197 81.783 135.368C81.9963 135.539 82.3323 135.661 82.791 135.736L83.975 135.928C84.9243 136.077 85.6123 136.355 86.039 136.76C86.4763 137.165 86.695 137.752 86.695 138.52C86.695 139.331 86.4337 139.971 85.911 140.44C85.399 140.899 84.6203 141.128 83.575 141.128H82.903ZM81.895 165V158.392H79.335V157.08H81.895V155.56C81.895 154.867 82.1137 154.323 82.551 153.928C82.9883 153.523 83.591 153.32 84.359 153.32H86.935V154.632H84.359C84.0283 154.632 83.7723 154.712 83.591 154.872C83.4203 155.021 83.335 155.251 83.335 155.56V157.08H86.935V158.392H83.335V165H81.895ZM92.7528 165.16C91.7394 165.16 90.9288 164.861 90.3207 164.264C89.7128 163.656 89.4088 162.835 89.4088 161.8V156.2H90.8488V161.8C90.8488 162.461 91.0194 162.979 91.3608 163.352C91.7021 163.715 92.1661 163.896 92.7528 163.896C93.3501 163.896 93.8194 163.715 94.1608 163.352C94.5128 162.979 94.6888 162.461 94.6888 161.8V156.2H96.1288V161.8C96.1288 162.835 95.8194 163.656 95.2008 164.264C94.5821 164.861 93.7661 165.16 92.7528 165.16ZM99.0345 165V156.2H100.475V157.88H100.779L100.475 158.216C100.475 157.523 100.683 156.989 101.099 156.616C101.515 156.232 102.091 156.04 102.827 156.04C103.712 156.04 104.416 156.312 104.939 156.856C105.461 157.4 105.723 158.141 105.723 159.08V165H104.283V159.24C104.283 158.611 104.112 158.131 103.771 157.8C103.44 157.459 102.987 157.288 102.411 157.288C101.813 157.288 101.339 157.469 100.987 157.832C100.645 158.195 100.475 158.717 100.475 159.4V165H99.0345ZM112.02 165.16C111.316 165.16 110.698 165.027 110.164 164.76C109.642 164.493 109.236 164.109 108.948 163.608C108.66 163.096 108.516 162.493 108.516 161.8V159.4C108.516 158.696 108.66 158.093 108.948 157.592C109.236 157.091 109.642 156.707 110.164 156.44C110.698 156.173 111.316 156.04 112.02 156.04C113.034 156.04 113.85 156.312 114.468 156.856C115.087 157.4 115.412 158.141 115.444 159.08H114.004C113.972 158.515 113.78 158.083 113.428 157.784C113.087 157.475 112.618 157.32 112.02 157.32C111.391 157.32 110.89 157.501 110.516 157.864C110.143 158.216 109.956 158.723 109.956 159.384V161.8C109.956 162.461 110.143 162.973 110.516 163.336C110.89 163.699 111.391 163.88 112.02 163.88C112.618 163.88 113.087 163.725 113.428 163.416C113.78 163.107 113.972 162.675 114.004 162.12H115.444C115.412 163.059 115.087 163.8 114.468 164.344C113.85 164.888 113.034 165.16 112.02 165.16Z" fill="#FF7AB2"/>
<path d="M188.706 134.44C188.312 134.44 187.992 134.333 187.746 134.12C187.501 133.896 187.378 133.603 187.378 133.24C187.378 132.877 187.501 132.589 187.746 132.376C187.992 132.152 188.312 132.04 188.706 132.04C189.112 132.04 189.432 132.152 189.666 132.376C189.912 132.589 190.034 132.877 190.034 133.24C190.034 133.603 189.912 133.896 189.666 134.12C189.432 134.333 189.112 134.44 188.706 134.44ZM188.706 141.16C188.312 141.16 187.992 141.053 187.746 140.84C187.501 140.616 187.378 140.323 187.378 139.96C187.378 139.597 187.501 139.309 187.746 139.096C187.992 138.872 188.312 138.76 188.706 138.76C189.112 138.76 189.432 138.872 189.666 139.096C189.912 139.309 190.034 139.597 190.034 139.96C190.034 140.323 189.912 140.616 189.666 140.84C189.432 141.053 189.112 141.16 188.706 141.16ZM373.708 142.76C373.078 142.76 372.534 142.653 372.076 142.44C371.628 142.237 371.286 141.933 371.052 141.528C370.817 141.133 370.716 140.659 370.748 140.104L370.908 137.48C370.94 136.915 370.854 136.509 370.652 136.264C370.449 136.008 370.001 135.88 369.308 135.88H367.548V134.6H369.308C370.001 134.6 370.449 134.477 370.652 134.232C370.854 133.976 370.94 133.565 370.908 133L370.748 130.376C370.716 129.811 370.817 129.331 371.052 128.936C371.286 128.541 371.628 128.243 372.076 128.04C372.534 127.827 373.078 127.72 373.708 127.72H374.428V129H373.708C373.206 129 372.822 129.117 372.556 129.352C372.289 129.576 372.166 129.917 372.188 130.376L372.348 133C372.39 133.693 372.225 134.248 371.852 134.664C371.478 135.069 370.95 135.272 370.268 135.272V135.192C370.94 135.192 371.462 135.4 371.836 135.816C372.22 136.232 372.39 136.787 372.348 137.48L372.188 140.104C372.166 140.563 372.289 140.904 372.556 141.128C372.822 141.363 373.206 141.48 373.708 141.48H374.428V142.76H373.708ZM297.198 166.92C295.683 166.547 294.504 165.811 293.661 164.712C292.819 163.613 292.398 162.269 292.398 160.68V157.8C292.398 156.755 292.59 155.811 292.974 154.968C293.368 154.115 293.923 153.395 294.638 152.808C295.363 152.221 296.216 151.805 297.198 151.56V152.92C296.515 153.08 295.923 153.389 295.422 153.848C294.92 154.296 294.531 154.856 294.254 155.528C293.976 156.2 293.838 156.957 293.838 157.8V160.68C293.838 161.501 293.971 162.248 294.238 162.92C294.515 163.592 294.904 164.152 295.406 164.6C295.918 165.037 296.515 165.336 297.198 165.496V166.92ZM300.871 166.92V165.496C301.565 165.336 302.162 165.037 302.663 164.6C303.165 164.152 303.549 163.592 303.815 162.92C304.093 162.248 304.231 161.501 304.231 160.68V157.8C304.231 156.957 304.093 156.2 303.815 155.528C303.538 154.856 303.149 154.296 302.647 153.848C302.146 153.389 301.554 153.08 300.871 152.92V151.56C301.863 151.805 302.717 152.221 303.431 152.808C304.146 153.395 304.695 154.115 305.079 154.968C305.474 155.811 305.671 156.755 305.671 157.8V160.68C305.671 162.269 305.25 163.613 304.407 164.712C303.565 165.811 302.386 166.547 300.871 166.92ZM325.739 166.76C325.109 166.76 324.565 166.653 324.107 166.44C323.659 166.237 323.317 165.933 323.083 165.528C322.848 165.133 322.747 164.659 322.779 164.104L322.939 161.48C322.971 160.915 322.885 160.509 322.683 160.264C322.48 160.008 322.032 159.88 321.339 159.88H319.579V158.6H321.339C322.032 158.6 322.48 158.477 322.683 158.232C322.885 157.976 322.971 157.565 322.939 157L322.779 154.376C322.747 153.811 322.848 153.331 323.083 152.936C323.317 152.541 323.659 152.243 324.107 152.04C324.565 151.827 325.109 151.72 325.739 151.72H326.459V153H325.739C325.237 153 324.853 153.117 324.587 153.352C324.32 153.576 324.197 153.917 324.219 154.376L324.379 157C324.421 157.693 324.256 158.248 323.883 158.664C323.509 159.069 322.981 159.272 322.299 159.272V159.192C322.971 159.192 323.493 159.4 323.867 159.816C324.251 160.232 324.421 160.787 324.379 161.48L324.219 164.104C324.197 164.563 324.32 164.904 324.587 165.128C324.853 165.363 325.237 165.48 325.739 165.48H326.459V166.76H325.739ZM182.073 190.92C180.558 190.547 179.379 189.811 178.536 188.712C177.694 187.613 177.273 186.269 177.273 184.68V181.8C177.273 180.755 177.465 179.811 177.849 178.968C178.243 178.115 178.798 177.395 179.513 176.808C180.238 176.221 181.091 175.805 182.073 175.56V176.92C181.39 177.08 180.798 177.389 180.297 177.848C179.795 178.296 179.406 178.856 179.129 179.528C178.851 180.2 178.713 180.957 178.713 181.8V184.68C178.713 185.501 178.846 186.248 179.113 186.92C179.39 187.592 179.779 188.152 180.281 188.6C180.793 189.037 181.39 189.336 182.073 189.496V190.92ZM185.746 190.92V189.496C186.44 189.336 187.037 189.037 187.538 188.6C188.04 188.152 188.424 187.592 188.69 186.92C188.968 186.248 189.106 185.501 189.106 184.68V181.8C189.106 180.957 188.968 180.2 188.69 179.528C188.413 178.856 188.024 178.296 187.522 177.848C187.021 177.389 186.429 177.08 185.746 176.92V175.56C186.738 175.805 187.592 176.221 188.306 176.808C189.021 177.395 189.57 178.115 189.954 178.968C190.349 179.811 190.546 180.755 190.546 181.8V184.68C190.546 186.269 190.125 187.613 189.282 188.712C188.44 189.811 187.261 190.547 185.746 190.92ZM198.3 189.16C197.895 189.16 197.569 189.043 197.324 188.808C197.089 188.573 196.972 188.259 196.972 187.864C196.972 187.448 197.089 187.117 197.324 186.872C197.569 186.627 197.895 186.504 198.3 186.504C198.705 186.504 199.025 186.627 199.26 186.872C199.505 187.117 199.628 187.448 199.628 187.864C199.628 188.259 199.505 188.573 199.26 188.808C199.025 189.043 198.705 189.16 198.3 189.16ZM278.01 190.92C276.495 190.547 275.317 189.811 274.474 188.712C273.631 187.613 273.21 186.269 273.21 184.68V181.8C273.21 180.755 273.402 179.811 273.786 178.968C274.181 178.115 274.735 177.395 275.45 176.808C276.175 176.221 277.029 175.805 278.01 175.56V176.92C277.327 177.08 276.735 177.389 276.234 177.848C275.733 178.296 275.343 178.856 275.066 179.528C274.789 180.2 274.65 180.957 274.65 181.8V184.68C274.65 185.501 274.783 186.248 275.05 186.92C275.327 187.592 275.717 188.152 276.218 188.6C276.73 189.037 277.327 189.336 278.01 189.496V190.92ZM281.684 190.92V189.496C282.377 189.336 282.974 189.037 283.476 188.6C283.977 188.152 284.361 187.592 284.628 186.92C284.905 186.248 285.044 185.501 285.044 184.68V181.8C285.044 180.957 284.905 180.2 284.628 179.528C284.35 178.856 283.961 178.296 283.46 177.848C282.958 177.389 282.366 177.08 281.684 176.92V175.56C282.676 175.805 283.529 176.221 284.244 176.808C284.958 177.395 285.508 178.115 285.892 178.968C286.286 179.811 286.484 180.755 286.484 181.8V184.68C286.484 186.269 286.062 187.613 285.22 188.712C284.377 189.811 283.198 190.547 281.684 190.92ZM182.073 214.92C180.558 214.547 179.379 213.811 178.536 212.712C177.694 211.613 177.273 210.269 177.273 208.68V205.8C177.273 204.755 177.465 203.811 177.849 202.968C178.243 202.115 178.798 201.395 179.513 200.808C180.238 200.221 181.091 199.805 182.073 199.56V200.92C181.39 201.08 180.798 201.389 180.297 201.848C179.795 202.296 179.406 202.856 179.129 203.528C178.851 204.2 178.713 204.957 178.713 205.8V208.68C178.713 209.501 178.846 210.248 179.113 210.92C179.39 211.592 179.779 212.152 180.281 212.6C180.793 213.037 181.39 213.336 182.073 213.496V214.92ZM185.746 214.92V213.496C186.44 213.336 187.037 213.037 187.538 212.6C188.04 212.152 188.424 211.592 188.69 210.92C188.968 210.248 189.106 209.501 189.106 208.68V205.8C189.106 204.957 188.968 204.2 188.69 203.528C188.413 202.856 188.024 202.296 187.522 201.848C187.021 201.389 186.429 201.08 185.746 200.92V199.56C186.738 199.805 187.592 200.221 188.306 200.808C189.021 201.395 189.57 202.115 189.954 202.968C190.349 203.811 190.546 204.755 190.546 205.8V208.68C190.546 210.269 190.125 211.613 189.282 212.712C188.44 213.811 187.261 214.547 185.746 214.92ZM198.3 213.16C197.895 213.16 197.569 213.043 197.324 212.808C197.089 212.573 196.972 212.259 196.972 211.864C196.972 211.448 197.089 211.117 197.324 210.872C197.569 210.627 197.895 210.504 198.3 210.504C198.705 210.504 199.025 210.627 199.26 210.872C199.505 211.117 199.628 211.448 199.628 211.864C199.628 212.259 199.505 212.573 199.26 212.808C199.025 213.043 198.705 213.16 198.3 213.16ZM278.01 214.92C276.495 214.547 275.317 213.811 274.474 212.712C273.631 211.613 273.21 210.269 273.21 208.68V205.8C273.21 204.755 273.402 203.811 273.786 202.968C274.181 202.115 274.735 201.395 275.45 200.808C276.175 200.221 277.029 199.805 278.01 199.56V200.92C277.327 201.08 276.735 201.389 276.234 201.848C275.733 202.296 275.343 202.856 275.066 203.528C274.789 204.2 274.65 204.957 274.65 205.8V208.68C274.65 209.501 274.783 210.248 275.05 210.92C275.327 211.592 275.717 212.152 276.218 212.6C276.73 213.037 277.327 213.336 278.01 213.496V214.92ZM281.684 214.92V213.496C282.377 213.336 282.974 213.037 283.476 212.6C283.977 212.152 284.361 211.592 284.628 210.92C284.905 210.248 285.044 209.501 285.044 208.68V205.8C285.044 204.957 284.905 204.2 284.628 203.528C284.35 202.856 283.961 202.296 283.46 201.848C282.958 201.389 282.366 201.08 281.684 200.92V199.56C282.676 199.805 283.529 200.221 284.244 200.808C284.958 201.395 285.508 202.115 285.892 202.968C286.286 203.811 286.484 204.755 286.484 205.8V208.68C286.484 210.269 286.062 211.613 285.22 212.712C284.377 213.811 283.198 214.547 281.684 214.92ZM182.073 238.92C180.558 238.547 179.379 237.811 178.536 236.712C177.694 235.613 177.273 234.269 177.273 232.68V229.8C177.273 228.755 177.465 227.811 177.849 226.968C178.243 226.115 178.798 225.395 179.513 224.808C180.238 224.221 181.091 223.805 182.073 223.56V224.92C181.39 225.08 180.798 225.389 180.297 225.848C179.795 226.296 179.406 226.856 179.129 227.528C178.851 228.2 178.713 228.957 178.713 229.8V232.68C178.713 233.501 178.846 234.248 179.113 234.92C179.39 235.592 179.779 236.152 180.281 236.6C180.793 237.037 181.39 237.336 182.073 237.496V238.92ZM185.746 238.92V237.496C186.44 237.336 187.037 237.037 187.538 236.6C188.04 236.152 188.424 235.592 188.69 234.92C188.968 234.248 189.106 233.501 189.106 232.68V229.8C189.106 228.957 188.968 228.2 188.69 227.528C188.413 226.856 188.024 226.296 187.522 225.848C187.021 225.389 186.429 225.08 185.746 224.92V223.56C186.738 223.805 187.592 224.221 188.306 224.808C189.021 225.395 189.57 226.115 189.954 226.968C190.349 227.811 190.546 228.755 190.546 229.8V232.68C190.546 234.269 190.125 235.613 189.282 236.712C188.44 237.811 187.261 238.547 185.746 238.92ZM198.3 237.16C197.895 237.16 197.569 237.043 197.324 236.808C197.089 236.573 196.972 236.259 196.972 235.864C196.972 235.448 197.089 235.117 197.324 234.872C197.569 234.627 197.895 234.504 198.3 234.504C198.705 234.504 199.025 234.627 199.26 234.872C199.505 235.117 199.628 235.448 199.628 235.864C199.628 236.259 199.505 236.573 199.26 236.808C199.025 237.043 198.705 237.16 198.3 237.16ZM278.01 238.92C276.495 238.547 275.317 237.811 274.474 236.712C273.631 235.613 273.21 234.269 273.21 232.68V229.8C273.21 228.755 273.402 227.811 273.786 226.968C274.181 226.115 274.735 225.395 275.45 224.808C276.175 224.221 277.029 223.805 278.01 223.56V224.92C277.327 225.08 276.735 225.389 276.234 225.848C275.733 226.296 275.343 226.856 275.066 227.528C274.789 228.2 274.65 228.957 274.65 229.8V232.68C274.65 233.501 274.783 234.248 275.05 234.92C275.327 235.592 275.717 236.152 276.218 236.6C276.73 237.037 277.327 237.336 278.01 237.496V238.92ZM281.684 238.92V237.496C282.377 237.336 282.974 237.037 283.476 236.6C283.977 236.152 284.361 235.592 284.628 234.92C284.905 234.248 285.044 233.501 285.044 232.68V229.8C285.044 228.957 284.905 228.2 284.628 227.528C284.35 226.856 283.961 226.296 283.46 225.848C282.958 225.389 282.366 225.08 281.684 224.92V223.56C282.676 223.805 283.529 224.221 284.244 224.808C284.958 225.395 285.508 226.115 285.892 226.968C286.286 227.811 286.484 228.755 286.484 229.8V232.68C286.484 234.269 286.062 235.613 285.22 236.712C284.377 237.811 283.198 238.547 281.684 238.92ZM182.073 262.92C180.558 262.547 179.379 261.811 178.536 260.712C177.694 259.613 177.273 258.269 177.273 256.68V253.8C177.273 252.755 177.465 251.811 177.849 250.968C178.243 250.115 178.798 249.395 179.513 248.808C180.238 248.221 181.091 247.805 182.073 247.56V248.92C181.39 249.08 180.798 249.389 180.297 249.848C179.795 250.296 179.406 250.856 179.129 251.528C178.851 252.2 178.713 252.957 178.713 253.8V256.68C178.713 257.501 178.846 258.248 179.113 258.92C179.39 259.592 179.779 260.152 180.281 260.6C180.793 261.037 181.39 261.336 182.073 261.496V262.92ZM185.746 262.92V261.496C186.44 261.336 187.037 261.037 187.538 260.6C188.04 260.152 188.424 259.592 188.69 258.92C188.968 258.248 189.106 257.501 189.106 256.68V253.8C189.106 252.957 188.968 252.2 188.69 251.528C188.413 250.856 188.024 250.296 187.522 249.848C187.021 249.389 186.429 249.08 185.746 248.92V247.56C186.738 247.805 187.592 248.221 188.306 248.808C189.021 249.395 189.57 250.115 189.954 250.968C190.349 251.811 190.546 252.755 190.546 253.8V256.68C190.546 258.269 190.125 259.613 189.282 260.712C188.44 261.811 187.261 262.547 185.746 262.92ZM198.3 261.16C197.895 261.16 197.569 261.043 197.324 260.808C197.089 260.573 196.972 260.259 196.972 259.864C196.972 259.448 197.089 259.117 197.324 258.872C197.569 258.627 197.895 258.504 198.3 258.504C198.705 258.504 199.025 258.627 199.26 258.872C199.505 259.117 199.628 259.448 199.628 259.864C199.628 260.259 199.505 260.573 199.26 260.808C199.025 261.043 198.705 261.16 198.3 261.16ZM278.01 262.92C276.495 262.547 275.317 261.811 274.474 260.712C273.631 259.613 273.21 258.269 273.21 256.68V253.8C273.21 252.755 273.402 251.811 273.786 250.968C274.181 250.115 274.735 249.395 275.45 248.808C276.175 248.221 277.029 247.805 278.01 247.56V248.92C277.327 249.08 276.735 249.389 276.234 249.848C275.733 250.296 275.343 250.856 275.066 251.528C274.789 252.2 274.65 252.957 274.65 253.8V256.68C274.65 257.501 274.783 258.248 275.05 258.92C275.327 259.592 275.717 260.152 276.218 260.6C276.73 261.037 277.327 261.336 278.01 261.496V262.92ZM281.684 262.92V261.496C282.377 261.336 282.974 261.037 283.476 260.6C283.977 260.152 284.361 259.592 284.628 258.92C284.905 258.248 285.044 257.501 285.044 256.68V253.8C285.044 252.957 284.905 252.2 284.628 251.528C284.35 250.856 283.961 250.296 283.46 249.848C282.958 249.389 282.366 249.08 281.684 248.92V247.56C282.676 247.805 283.529 248.221 284.244 248.808C284.958 249.395 285.508 250.115 285.892 250.968C286.286 251.811 286.484 252.755 286.484 253.8V256.68C286.484 258.269 286.062 259.613 285.22 260.712C284.377 261.811 283.198 262.547 281.684 262.92ZM79.735 286.76V285.48H80.455C80.9563 285.48 81.3403 285.363 81.607 285.128C81.8737 284.904 81.9963 284.563 81.975 284.104L81.815 281.48C81.7723 280.787 81.9377 280.232 82.311 279.816C82.695 279.4 83.223 279.192 83.895 279.192V279.272C83.2123 279.272 82.6843 279.069 82.311 278.664C81.9377 278.248 81.7723 277.693 81.815 277L81.975 274.376C81.9963 273.917 81.8737 273.576 81.607 273.352C81.3403 273.117 80.9563 273 80.455 273H79.735V271.72H80.455C81.0843 271.72 81.623 271.827 82.071 272.04C82.5297 272.243 82.8763 272.541 83.111 272.936C83.3457 273.331 83.447 273.811 83.415 274.376L83.255 277C83.223 277.565 83.3083 277.976 83.511 278.232C83.7137 278.477 84.1617 278.6 84.855 278.6H86.615V279.88H84.855C84.1723 279.88 83.7243 280.008 83.511 280.264C83.3083 280.509 83.223 280.915 83.255 281.48L83.415 284.104C83.447 284.659 83.3457 285.133 83.111 285.528C82.8763 285.933 82.5297 286.237 82.071 286.44C81.623 286.653 81.0843 286.76 80.455 286.76H79.735ZM41.36 310.76V309.48H42.08C42.5813 309.48 42.9653 309.363 43.232 309.128C43.4987 308.904 43.6213 308.563 43.6 308.104L43.44 305.48C43.3973 304.787 43.5627 304.232 43.936 303.816C44.32 303.4 44.848 303.192 45.52 303.192V303.272C44.8373 303.272 44.3093 303.069 43.936 302.664C43.5627 302.248 43.3973 301.693 43.44 301L43.6 298.376C43.6213 297.917 43.4987 297.576 43.232 297.352C42.9653 297.117 42.5813 297 42.08 297H41.36V295.72H42.08C42.7093 295.72 43.248 295.827 43.696 296.04C44.1547 296.243 44.5013 296.541 44.736 296.936C44.9707 297.331 45.072 297.811 45.04 298.376L44.88 301C44.848 301.565 44.9333 301.976 45.136 302.232C45.3387 302.477 45.7867 302.6 46.48 302.6H48.24V303.88H46.48C45.7973 303.88 45.3493 304.008 45.136 304.264C44.9333 304.509 44.848 304.915 44.88 305.48L45.04 308.104C45.072 308.659 44.9707 309.133 44.736 309.528C44.5013 309.933 44.1547 310.237 43.696 310.44C43.248 310.653 42.7093 310.76 42.08 310.76H41.36Z" fill="#F1EFEF"/>
<path d="M101.371 141L98.3625 129.32H99.8505L101.835 137.256C101.973 137.811 102.091 138.328 102.187 138.808C102.283 139.277 102.352 139.635 102.395 139.88C102.437 139.635 102.501 139.277 102.587 138.808C102.683 138.328 102.8 137.811 102.939 137.256L104.907 129.32H106.363L103.339 141H101.371ZM108.516 141V139.688H111.636V133.512H108.916V132.2H113.076V139.688H116.036V141H108.516ZM112.196 130.616C111.844 130.616 111.567 130.525 111.364 130.344C111.162 130.163 111.06 129.917 111.06 129.608C111.06 129.288 111.162 129.037 111.364 128.856C111.567 128.664 111.844 128.568 112.196 128.568C112.548 128.568 112.826 128.664 113.028 128.856C113.231 129.037 113.332 129.288 113.332 129.608C113.332 129.917 113.231 130.163 113.028 130.344C112.826 130.525 112.548 130.616 112.196 130.616ZM121.55 141.16C120.857 141.16 120.249 141.021 119.726 140.744C119.214 140.467 118.814 140.077 118.526 139.576C118.249 139.064 118.11 138.472 118.11 137.8V135.4C118.11 134.717 118.249 134.125 118.526 133.624C118.814 133.123 119.214 132.733 119.726 132.456C120.249 132.179 120.857 132.04 121.55 132.04C122.243 132.04 122.846 132.179 123.358 132.456C123.881 132.733 124.281 133.123 124.558 133.624C124.846 134.125 124.99 134.717 124.99 135.4V136.952H119.518V137.8C119.518 138.493 119.694 139.027 120.046 139.4C120.398 139.763 120.899 139.944 121.55 139.944C122.105 139.944 122.553 139.848 122.894 139.656C123.235 139.453 123.443 139.155 123.518 138.76H124.958C124.862 139.496 124.499 140.083 123.87 140.52C123.251 140.947 122.478 141.16 121.55 141.16ZM123.582 135.992V135.4C123.582 134.707 123.406 134.173 123.054 133.8C122.713 133.427 122.211 133.24 121.55 133.24C120.899 133.24 120.398 133.427 120.046 133.8C119.694 134.173 119.518 134.707 119.518 135.4V135.864H123.694L123.582 135.992ZM128.312 141L126.904 132.2H128.184L129.064 138.44C129.096 138.675 129.128 138.931 129.16 139.208C129.202 139.475 129.234 139.699 129.256 139.88C129.277 139.699 129.309 139.475 129.352 139.208C129.405 138.931 129.448 138.675 129.48 138.44L130.456 132.2H131.832L132.808 138.44C132.84 138.675 132.877 138.931 132.92 139.208C132.973 139.475 133.01 139.699 133.032 139.88C133.053 139.699 133.085 139.475 133.128 139.208C133.181 138.931 133.224 138.675 133.256 138.44L134.168 132.2H135.384L133.912 141H132.328L131.384 134.92C131.341 134.621 131.293 134.323 131.24 134.024C131.186 133.725 131.149 133.491 131.128 133.32C131.106 133.491 131.074 133.725 131.032 134.024C130.989 134.323 130.941 134.621 130.888 134.92L129.896 141H128.312ZM137.154 141V129.32H139.042L140.258 133.096C140.375 133.437 140.482 133.779 140.578 134.12C140.674 134.451 140.743 134.707 140.786 134.888C140.839 134.707 140.908 134.451 140.994 134.12C141.079 133.779 141.175 133.432 141.282 133.08L142.434 129.32H144.322V141H142.914V136.76C142.914 136.291 142.93 135.757 142.962 135.16C142.994 134.563 143.036 133.955 143.09 133.336C143.143 132.707 143.196 132.109 143.25 131.544C143.314 130.968 143.367 130.467 143.41 130.04L141.522 135.88H140.002L138.098 130.04C138.151 130.456 138.204 130.941 138.258 131.496C138.311 132.04 138.359 132.621 138.402 133.24C138.444 133.848 138.482 134.456 138.514 135.064C138.546 135.672 138.562 136.237 138.562 136.76V141H137.154ZM150.331 141.128C149.627 141.128 149.019 140.995 148.507 140.728C147.995 140.461 147.595 140.077 147.307 139.576C147.03 139.064 146.891 138.461 146.891 137.768V135.432C146.891 134.728 147.03 134.125 147.307 133.624C147.595 133.123 147.995 132.739 148.507 132.472C149.019 132.205 149.627 132.072 150.331 132.072C151.035 132.072 151.643 132.205 152.155 132.472C152.667 132.739 153.062 133.123 153.339 133.624C153.627 134.125 153.771 134.723 153.771 135.416V137.768C153.771 138.461 153.627 139.064 153.339 139.576C153.062 140.077 152.667 140.461 152.155 140.728C151.643 140.995 151.035 141.128 150.331 141.128ZM150.331 139.848C150.961 139.848 151.451 139.672 151.803 139.32C152.155 138.968 152.331 138.451 152.331 137.768V135.432C152.331 134.749 152.155 134.232 151.803 133.88C151.451 133.528 150.961 133.352 150.331 133.352C149.713 133.352 149.222 133.528 148.859 133.88C148.507 134.232 148.331 134.749 148.331 135.432V137.768C148.331 138.451 148.507 138.968 148.859 139.32C149.222 139.672 149.713 139.848 150.331 139.848ZM159.413 141.16C158.538 141.16 157.829 140.867 157.285 140.28C156.752 139.693 156.485 138.899 156.485 137.896V135.32C156.485 134.307 156.752 133.507 157.285 132.92C157.818 132.333 158.528 132.04 159.413 132.04C160.138 132.04 160.72 132.237 161.157 132.632C161.594 133.027 161.813 133.555 161.813 134.216L161.525 133.88H161.845L161.813 131.88V129.32H163.253V141H161.813V139.32H161.525L161.813 138.984C161.813 139.656 161.594 140.189 161.157 140.584C160.72 140.968 160.138 141.16 159.413 141.16ZM159.893 139.912C160.49 139.912 160.96 139.725 161.301 139.352C161.642 138.979 161.813 138.461 161.813 137.8V135.4C161.813 134.739 161.642 134.221 161.301 133.848C160.96 133.475 160.49 133.288 159.893 133.288C159.285 133.288 158.805 133.469 158.453 133.832C158.101 134.195 157.925 134.717 157.925 135.4V137.8C157.925 138.483 158.101 139.005 158.453 139.368C158.805 139.731 159.285 139.912 159.893 139.912ZM169.519 141.16C168.825 141.16 168.217 141.021 167.695 140.744C167.183 140.467 166.783 140.077 166.495 139.576C166.217 139.064 166.079 138.472 166.079 137.8V135.4C166.079 134.717 166.217 134.125 166.495 133.624C166.783 133.123 167.183 132.733 167.695 132.456C168.217 132.179 168.825 132.04 169.519 132.04C170.212 132.04 170.815 132.179 171.327 132.456C171.849 132.733 172.249 133.123 172.527 133.624C172.815 134.125 172.959 134.717 172.959 135.4V136.952H167.487V137.8C167.487 138.493 167.663 139.027 168.015 139.4C168.367 139.763 168.868 139.944 169.519 139.944C170.073 139.944 170.521 139.848 170.863 139.656C171.204 139.453 171.412 139.155 171.487 138.76H172.927C172.831 139.496 172.468 140.083 171.839 140.52C171.22 140.947 170.447 141.16 169.519 141.16ZM171.551 135.992V135.4C171.551 134.707 171.375 134.173 171.023 133.8C170.681 133.427 170.18 133.24 169.519 133.24C168.868 133.24 168.367 133.427 168.015 133.8C167.663 134.173 167.487 134.707 167.487 135.4V135.864H171.663L171.551 135.992ZM180.313 141C179.801 141 179.353 140.899 178.969 140.696C178.585 140.493 178.286 140.205 178.073 139.832C177.859 139.459 177.753 139.021 177.753 138.52V130.632H174.793V129.32H179.193V138.52C179.193 138.883 179.294 139.171 179.497 139.384C179.699 139.587 179.971 139.688 180.313 139.688H183.113V141H180.313ZM127.816 167.88V156.2H129.256V157.88H129.544L129.256 158.216C129.256 157.544 129.474 157.016 129.912 156.632C130.36 156.237 130.946 156.04 131.672 156.04C132.557 156.04 133.261 156.333 133.784 156.92C134.317 157.496 134.584 158.291 134.584 159.304V161.88C134.584 162.552 134.461 163.133 134.216 163.624C133.981 164.115 133.645 164.493 133.208 164.76C132.781 165.027 132.269 165.16 131.672 165.16C130.957 165.16 130.376 164.963 129.928 164.568C129.48 164.173 129.256 163.645 129.256 162.984L129.544 163.32H129.224L129.256 165.32V167.88H127.816ZM131.192 163.912C131.8 163.912 132.274 163.731 132.616 163.368C132.968 163.005 133.144 162.483 133.144 161.8V159.4C133.144 158.717 132.968 158.195 132.616 157.832C132.274 157.469 131.8 157.288 131.192 157.288C130.605 157.288 130.136 157.475 129.784 157.848C129.432 158.221 129.256 158.739 129.256 159.4V161.8C129.256 162.461 129.432 162.979 129.784 163.352C130.136 163.725 130.605 163.912 131.192 163.912ZM137.714 165V156.2H139.122V157.88H139.458L138.994 158.92C138.994 157.971 139.196 157.256 139.602 156.776C140.018 156.285 140.631 156.04 141.442 156.04C142.37 156.04 143.106 156.333 143.65 156.92C144.204 157.496 144.482 158.28 144.482 159.272V159.8H143.042V159.4C143.042 158.707 142.871 158.179 142.53 157.816C142.199 157.443 141.724 157.256 141.106 157.256C140.498 157.256 140.018 157.443 139.666 157.816C139.324 158.189 139.154 158.717 139.154 159.4V165H137.714ZM150.331 165.16C149.638 165.16 149.03 165.021 148.507 164.744C147.995 164.467 147.595 164.077 147.307 163.576C147.03 163.064 146.891 162.472 146.891 161.8V159.4C146.891 158.717 147.03 158.125 147.307 157.624C147.595 157.123 147.995 156.733 148.507 156.456C149.03 156.179 149.638 156.04 150.331 156.04C151.025 156.04 151.627 156.179 152.139 156.456C152.662 156.733 153.062 157.123 153.339 157.624C153.627 158.125 153.771 158.717 153.771 159.4V160.952H148.299V161.8C148.299 162.493 148.475 163.027 148.827 163.4C149.179 163.763 149.681 163.944 150.331 163.944C150.886 163.944 151.334 163.848 151.675 163.656C152.017 163.453 152.225 163.155 152.299 162.76H153.739C153.643 163.496 153.281 164.083 152.651 164.52C152.033 164.947 151.259 165.16 150.331 165.16ZM152.363 159.992V159.4C152.363 158.707 152.187 158.173 151.835 157.8C151.494 157.427 150.993 157.24 150.331 157.24C149.681 157.24 149.179 157.427 148.827 157.8C148.475 158.173 148.299 158.707 148.299 159.4V159.864H152.475L152.363 159.992ZM159.653 165.128C159.056 165.128 158.533 165.037 158.085 164.856C157.648 164.664 157.296 164.397 157.029 164.056C156.773 163.715 156.618 163.309 156.565 162.84H158.005C158.069 163.149 158.24 163.395 158.517 163.576C158.805 163.757 159.184 163.848 159.653 163.848H160.325C160.89 163.848 161.312 163.736 161.589 163.512C161.866 163.277 162.005 162.968 162.005 162.584C162.005 162.211 161.877 161.917 161.621 161.704C161.376 161.48 161.008 161.331 160.517 161.256L159.333 161.064C158.469 160.915 157.824 160.648 157.397 160.264C156.981 159.869 156.773 159.299 156.773 158.552C156.773 157.763 157.024 157.155 157.525 156.728C158.026 156.291 158.778 156.072 159.781 156.072H160.389C161.232 156.072 161.909 156.269 162.421 156.664C162.933 157.059 163.242 157.592 163.349 158.264H161.909C161.845 157.987 161.685 157.768 161.429 157.608C161.173 157.437 160.826 157.352 160.389 157.352H159.781C159.237 157.352 158.837 157.453 158.581 157.656C158.336 157.859 158.213 158.163 158.213 158.568C158.213 158.931 158.32 159.197 158.533 159.368C158.746 159.539 159.082 159.661 159.541 159.736L160.725 159.928C161.674 160.077 162.362 160.355 162.789 160.76C163.226 161.165 163.445 161.752 163.445 162.52C163.445 163.331 163.184 163.971 162.661 164.44C162.149 164.899 161.37 165.128 160.325 165.128H159.653ZM169.519 165.16C168.825 165.16 168.217 165.021 167.695 164.744C167.183 164.467 166.783 164.077 166.495 163.576C166.217 163.064 166.079 162.472 166.079 161.8V159.4C166.079 158.717 166.217 158.125 166.495 157.624C166.783 157.123 167.183 156.733 167.695 156.456C168.217 156.179 168.825 156.04 169.519 156.04C170.212 156.04 170.815 156.179 171.327 156.456C171.849 156.733 172.249 157.123 172.527 157.624C172.815 158.125 172.959 158.717 172.959 159.4V160.952H167.487V161.8C167.487 162.493 167.663 163.027 168.015 163.4C168.367 163.763 168.868 163.944 169.519 163.944C170.073 163.944 170.521 163.848 170.863 163.656C171.204 163.453 171.412 163.155 171.487 162.76H172.927C172.831 163.496 172.468 164.083 171.839 164.52C171.22 164.947 170.447 165.16 169.519 165.16ZM171.551 159.992V159.4C171.551 158.707 171.375 158.173 171.023 157.8C170.681 157.427 170.18 157.24 169.519 157.24C168.868 157.24 168.367 157.427 168.015 157.8C167.663 158.173 167.487 158.707 167.487 159.4V159.864H171.663L171.551 159.992ZM175.785 165V156.2H177.225V157.88H177.529L177.225 158.216C177.225 157.523 177.433 156.989 177.849 156.616C178.265 156.232 178.841 156.04 179.577 156.04C180.462 156.04 181.166 156.312 181.689 156.856C182.211 157.4 182.473 158.141 182.473 159.08V165H181.033V159.24C181.033 158.611 180.862 158.131 180.521 157.8C180.19 157.459 179.737 157.288 179.161 157.288C178.563 157.288 178.089 157.469 177.737 157.832C177.395 158.195 177.225 158.717 177.225 159.4V165H175.785ZM189.666 165C188.909 165 188.317 164.797 187.89 164.392C187.474 163.987 187.266 163.416 187.266 162.68V157.512H184.786V156.2H187.266V153.72H188.706V156.2H192.226V157.512H188.706V162.68C188.706 163.352 189.026 163.688 189.666 163.688H192.066V165H189.666ZM194.716 165V153.32H196.604L197.82 157.096C197.937 157.437 198.044 157.779 198.14 158.12C198.236 158.451 198.305 158.707 198.348 158.888C198.401 158.707 198.471 158.451 198.556 158.12C198.641 157.779 198.737 157.432 198.844 157.08L199.996 153.32H201.884V165H200.476V160.76C200.476 160.291 200.492 159.757 200.524 159.16C200.556 158.563 200.599 157.955 200.652 157.336C200.705 156.707 200.759 156.109 200.812 155.544C200.876 154.968 200.929 154.467 200.972 154.04L199.084 159.88H197.564L195.66 154.04C195.713 154.456 195.767 154.941 195.82 155.496C195.873 156.04 195.921 156.621 195.964 157.24C196.007 157.848 196.044 158.456 196.076 159.064C196.108 159.672 196.124 160.237 196.124 160.76V165H194.716ZM207.126 165.16C206.198 165.16 205.467 164.925 204.934 164.456C204.4 163.976 204.134 163.331 204.134 162.52C204.134 161.699 204.4 161.053 204.934 160.584C205.467 160.115 206.187 159.88 207.094 159.88H209.814V159C209.814 158.456 209.648 158.04 209.318 157.752C208.998 157.453 208.539 157.304 207.942 157.304C207.419 157.304 206.982 157.416 206.63 157.64C206.278 157.853 206.075 158.147 206.022 158.52H204.582C204.678 157.763 205.035 157.16 205.654 156.712C206.272 156.264 207.046 156.04 207.974 156.04C208.987 156.04 209.787 156.301 210.374 156.824C210.96 157.347 211.254 158.056 211.254 158.952V165H209.846V163.32H209.606L209.846 163.08C209.846 163.72 209.595 164.227 209.094 164.6C208.603 164.973 207.947 165.16 207.126 165.16ZM207.478 164.024C208.16 164.024 208.72 163.853 209.158 163.512C209.595 163.171 209.814 162.733 209.814 162.2V160.952H207.126C206.646 160.952 206.267 161.085 205.99 161.352C205.712 161.619 205.574 161.981 205.574 162.44C205.574 162.931 205.739 163.32 206.07 163.608C206.411 163.885 206.88 164.024 207.478 164.024ZM214.16 165V156.2H215.6V157.88H215.904L215.6 158.216C215.6 157.523 215.808 156.989 216.224 156.616C216.64 156.232 217.216 156.04 217.952 156.04C218.837 156.04 219.541 156.312 220.064 156.856C220.586 157.4 220.848 158.141 220.848 159.08V165H219.408V159.24C219.408 158.611 219.237 158.131 218.896 157.8C218.565 157.459 218.112 157.288 217.536 157.288C216.938 157.288 216.464 157.469 216.112 157.832C215.77 158.195 215.6 158.717 215.6 159.4V165H214.16ZM225.129 167.88L226.425 164.456L223.161 156.2H224.761L226.809 161.64C226.884 161.821 226.953 162.04 227.017 162.296C227.081 162.541 227.135 162.749 227.177 162.92C227.22 162.749 227.273 162.541 227.337 162.296C227.401 162.04 227.465 161.821 227.529 161.64L229.449 156.2H231.001L226.665 167.88H225.129ZM233.347 165V153.32H237.107C237.832 153.32 238.462 153.464 238.995 153.752C239.528 154.029 239.939 154.424 240.227 154.936C240.526 155.448 240.675 156.056 240.675 156.76C240.675 157.453 240.526 158.061 240.227 158.584C239.939 159.096 239.528 159.496 238.995 159.784C238.462 160.061 237.832 160.2 237.107 160.2H234.787V165H233.347ZM234.787 158.904H237.107C237.736 158.904 238.238 158.712 238.611 158.328C238.995 157.933 239.187 157.411 239.187 156.76C239.187 156.099 238.995 155.576 238.611 155.192C238.238 154.808 237.736 154.616 237.107 154.616H234.787V158.904ZM246.269 165.128C245.565 165.128 244.957 164.995 244.445 164.728C243.933 164.461 243.533 164.077 243.245 163.576C242.967 163.064 242.829 162.461 242.829 161.768V159.432C242.829 158.728 242.967 158.125 243.245 157.624C243.533 157.123 243.933 156.739 244.445 156.472C244.957 156.205 245.565 156.072 246.269 156.072C246.973 156.072 247.581 156.205 248.093 156.472C248.605 156.739 248.999 157.123 249.277 157.624C249.565 158.125 249.709 158.723 249.709 159.416V161.768C249.709 162.461 249.565 163.064 249.277 163.576C248.999 164.077 248.605 164.461 248.093 164.728C247.581 164.995 246.973 165.128 246.269 165.128ZM246.269 163.848C246.898 163.848 247.389 163.672 247.741 163.32C248.093 162.968 248.269 162.451 248.269 161.768V159.432C248.269 158.749 248.093 158.232 247.741 157.88C247.389 157.528 246.898 157.352 246.269 157.352C245.65 157.352 245.159 157.528 244.797 157.88C244.445 158.232 244.269 158.749 244.269 159.432V161.768C244.269 162.451 244.445 162.968 244.797 163.32C245.159 163.672 245.65 163.848 246.269 163.848ZM252.535 167.88V156.2H253.975V157.88H254.263L253.975 158.216C253.975 157.544 254.193 157.016 254.631 156.632C255.079 156.237 255.665 156.04 256.391 156.04C257.276 156.04 257.98 156.333 258.503 156.92C259.036 157.496 259.303 158.291 259.303 159.304V161.88C259.303 162.552 259.18 163.133 258.935 163.624C258.7 164.115 258.364 164.493 257.927 164.76C257.5 165.027 256.988 165.16 256.391 165.16C255.676 165.16 255.095 164.963 254.647 164.568C254.199 164.173 253.975 163.645 253.975 162.984L254.263 163.32H253.943L253.975 165.32V167.88H252.535ZM255.911 163.912C256.519 163.912 256.993 163.731 257.335 163.368C257.687 163.005 257.863 162.483 257.863 161.8V159.4C257.863 158.717 257.687 158.195 257.335 157.832C256.993 157.469 256.519 157.288 255.911 157.288C255.324 157.288 254.855 157.475 254.503 157.848C254.151 158.221 253.975 158.739 253.975 159.4V161.8C253.975 162.461 254.151 162.979 254.503 163.352C254.855 163.725 255.324 163.912 255.911 163.912ZM265.44 165.16C264.427 165.16 263.616 164.861 263.008 164.264C262.4 163.656 262.096 162.835 262.096 161.8V156.2H263.536V161.8C263.536 162.461 263.707 162.979 264.048 163.352C264.39 163.715 264.854 163.896 265.44 163.896C266.038 163.896 266.507 163.715 266.848 163.352C267.2 162.979 267.376 162.461 267.376 161.8V156.2H268.816V161.8C268.816 162.835 268.507 163.656 267.888 164.264C267.27 164.861 266.454 165.16 265.44 165.16ZM271.722 167.88V156.2H273.162V157.88H273.45L273.162 158.216C273.162 157.544 273.381 157.016 273.818 156.632C274.266 156.237 274.853 156.04 275.578 156.04C276.463 156.04 277.167 156.333 277.69 156.92C278.223 157.496 278.49 158.291 278.49 159.304V161.88C278.49 162.552 278.367 163.133 278.122 163.624C277.887 164.115 277.551 164.493 277.114 164.76C276.687 165.027 276.175 165.16 275.578 165.16C274.863 165.16 274.282 164.963 273.834 164.568C273.386 164.173 273.162 163.645 273.162 162.984L273.45 163.32H273.13L273.162 165.32V167.88H271.722ZM275.098 163.912C275.706 163.912 276.181 163.731 276.522 163.368C276.874 163.005 277.05 162.483 277.05 161.8V159.4C277.05 158.717 276.874 158.195 276.522 157.832C276.181 157.469 275.706 157.288 275.098 157.288C274.511 157.288 274.042 157.475 273.69 157.848C273.338 158.221 273.162 158.739 273.162 159.4V161.8C273.162 162.461 273.338 162.979 273.69 163.352C274.042 163.725 274.511 163.912 275.098 163.912ZM284.372 165.128C283.774 165.128 283.252 165.037 282.804 164.856C282.366 164.664 282.014 164.397 281.748 164.056C281.492 163.715 281.337 163.309 281.284 162.84H282.724C282.788 163.149 282.958 163.395 283.236 163.576C283.524 163.757 283.902 163.848 284.372 163.848H285.044C285.609 163.848 286.03 163.736 286.308 163.512C286.585 163.277 286.724 162.968 286.724 162.584C286.724 162.211 286.596 161.917 286.34 161.704C286.094 161.48 285.726 161.331 285.236 161.256L284.052 161.064C283.188 160.915 282.542 160.648 282.116 160.264C281.7 159.869 281.492 159.299 281.492 158.552C281.492 157.763 281.742 157.155 282.244 156.728C282.745 156.291 283.497 156.072 284.5 156.072H285.108C285.95 156.072 286.628 156.269 287.14 156.664C287.652 157.059 287.961 157.592 288.068 158.264H286.628C286.564 157.987 286.404 157.768 286.148 157.608C285.892 157.437 285.545 157.352 285.108 157.352H284.5C283.956 157.352 283.556 157.453 283.3 157.656C283.054 157.859 282.932 158.163 282.932 158.568C282.932 158.931 283.038 159.197 283.252 159.368C283.465 159.539 283.801 159.661 284.26 159.736L285.444 159.928C286.393 160.077 287.081 160.355 287.508 160.76C287.945 161.165 288.164 161.752 288.164 162.52C288.164 163.331 287.902 163.971 287.38 164.44C286.868 164.899 286.089 165.128 285.044 165.128H284.372Z" fill="#4EB0CC"/>
<path d="M207.894 141.16C207.19 141.16 206.582 141.027 206.07 140.76C205.568 140.493 205.179 140.109 204.902 139.608C204.635 139.096 204.502 138.493 204.502 137.8V132.52C204.502 131.816 204.635 131.213 204.902 130.712C205.179 130.211 205.568 129.827 206.07 129.56C206.582 129.293 207.19 129.16 207.894 129.16C208.598 129.16 209.2 129.293 209.702 129.56C210.214 129.827 210.603 130.211 210.87 130.712C211.147 131.213 211.286 131.811 211.286 132.504V137.8C211.286 138.493 211.147 139.096 210.87 139.608C210.603 140.109 210.214 140.493 209.702 140.76C209.2 141.027 208.598 141.16 207.894 141.16ZM207.894 139.864C208.523 139.864 209.003 139.688 209.334 139.336C209.675 138.973 209.846 138.461 209.846 137.8V132.52C209.846 131.859 209.675 131.352 209.334 131C209.003 130.637 208.523 130.456 207.894 130.456C207.275 130.456 206.795 130.637 206.454 131C206.112 131.352 205.942 131.859 205.942 132.52V137.8C205.942 138.461 206.112 138.973 206.454 139.336C206.795 139.688 207.275 139.864 207.894 139.864ZM218 141.16C217.274 141.16 216.693 140.968 216.256 140.584C215.818 140.189 215.6 139.656 215.6 138.984L215.888 139.32H215.6V141H214.16V129.32H215.6V131.88L215.568 133.88H215.888L215.6 134.216C215.6 133.555 215.818 133.027 216.256 132.632C216.704 132.237 217.285 132.04 218 132.04C218.885 132.04 219.594 132.333 220.128 132.92C220.661 133.507 220.928 134.307 220.928 135.32V137.896C220.928 138.899 220.661 139.693 220.128 140.28C219.594 140.867 218.885 141.16 218 141.16ZM217.52 139.912C218.128 139.912 218.608 139.731 218.96 139.368C219.312 139.005 219.488 138.483 219.488 137.8V135.4C219.488 134.717 219.312 134.195 218.96 133.832C218.608 133.469 218.128 133.288 217.52 133.288C216.933 133.288 216.464 133.475 216.112 133.848C215.77 134.221 215.6 134.739 215.6 135.4V137.8C215.6 138.461 215.77 138.979 216.112 139.352C216.464 139.725 216.933 139.912 217.52 139.912ZM226.809 141.128C226.212 141.128 225.689 141.037 225.241 140.856C224.804 140.664 224.452 140.397 224.185 140.056C223.929 139.715 223.775 139.309 223.721 138.84H225.161C225.225 139.149 225.396 139.395 225.673 139.576C225.961 139.757 226.34 139.848 226.809 139.848H227.481C228.047 139.848 228.468 139.736 228.745 139.512C229.023 139.277 229.161 138.968 229.161 138.584C229.161 138.211 229.033 137.917 228.777 137.704C228.532 137.48 228.164 137.331 227.673 137.256L226.489 137.064C225.625 136.915 224.98 136.648 224.553 136.264C224.137 135.869 223.929 135.299 223.929 134.552C223.929 133.763 224.18 133.155 224.681 132.728C225.183 132.291 225.935 132.072 226.937 132.072H227.545C228.388 132.072 229.065 132.269 229.577 132.664C230.089 133.059 230.399 133.592 230.505 134.264H229.065C229.001 133.987 228.841 133.768 228.585 133.608C228.329 133.437 227.983 133.352 227.545 133.352H226.937C226.393 133.352 225.993 133.453 225.737 133.656C225.492 133.859 225.369 134.163 225.369 134.568C225.369 134.931 225.476 135.197 225.689 135.368C225.903 135.539 226.239 135.661 226.697 135.736L227.881 135.928C228.831 136.077 229.519 136.355 229.945 136.76C230.383 137.165 230.601 137.752 230.601 138.52C230.601 139.331 230.34 139.971 229.817 140.44C229.305 140.899 228.527 141.128 227.481 141.128H226.809ZM236.675 141.16C235.982 141.16 235.374 141.021 234.851 140.744C234.339 140.467 233.939 140.077 233.651 139.576C233.374 139.064 233.235 138.472 233.235 137.8V135.4C233.235 134.717 233.374 134.125 233.651 133.624C233.939 133.123 234.339 132.733 234.851 132.456C235.374 132.179 235.982 132.04 236.675 132.04C237.368 132.04 237.971 132.179 238.483 132.456C239.006 132.733 239.406 133.123 239.683 133.624C239.971 134.125 240.115 134.717 240.115 135.4V136.952H234.643V137.8C234.643 138.493 234.819 139.027 235.171 139.4C235.523 139.763 236.024 139.944 236.675 139.944C237.23 139.944 237.678 139.848 238.019 139.656C238.36 139.453 238.568 139.155 238.643 138.76H240.083C239.987 139.496 239.624 140.083 238.995 140.52C238.376 140.947 237.603 141.16 236.675 141.16ZM238.707 135.992V135.4C238.707 134.707 238.531 134.173 238.179 133.8C237.838 133.427 237.336 133.24 236.675 133.24C236.024 133.24 235.523 133.427 235.171 133.8C234.819 134.173 234.643 134.707 234.643 135.4V135.864H238.819L238.707 135.992ZM243.245 141V132.2H244.653V133.88H244.989L244.525 134.92C244.525 133.971 244.727 133.256 245.133 132.776C245.549 132.285 246.162 132.04 246.973 132.04C247.901 132.04 248.637 132.333 249.181 132.92C249.735 133.496 250.013 134.28 250.013 135.272V135.8H248.573V135.4C248.573 134.707 248.402 134.179 248.061 133.816C247.73 133.443 247.255 133.256 246.637 133.256C246.029 133.256 245.549 133.443 245.197 133.816C244.855 134.189 244.685 134.717 244.685 135.4V141H243.245ZM254.887 141L251.943 132.2H253.414L255.367 138.12C255.484 138.472 255.591 138.813 255.687 139.144C255.783 139.464 255.852 139.715 255.895 139.896C255.948 139.715 256.023 139.464 256.119 139.144C256.215 138.813 256.316 138.472 256.423 138.12L258.327 132.2H259.783L256.839 141H254.887ZM264.688 141.16C263.76 141.16 263.03 140.925 262.496 140.456C261.963 139.976 261.696 139.331 261.696 138.52C261.696 137.699 261.963 137.053 262.496 136.584C263.03 136.115 263.75 135.88 264.656 135.88H267.376V135C267.376 134.456 267.211 134.04 266.88 133.752C266.56 133.453 266.102 133.304 265.504 133.304C264.982 133.304 264.544 133.416 264.192 133.64C263.84 133.853 263.638 134.147 263.584 134.52H262.144C262.24 133.763 262.598 133.16 263.216 132.712C263.835 132.264 264.608 132.04 265.536 132.04C266.55 132.04 267.35 132.301 267.936 132.824C268.523 133.347 268.816 134.056 268.816 134.952V141H267.408V139.32H267.168L267.408 139.08C267.408 139.72 267.158 140.227 266.656 140.6C266.166 140.973 265.51 141.16 264.688 141.16ZM265.04 140.024C265.723 140.024 266.283 139.853 266.72 139.512C267.158 139.171 267.376 138.733 267.376 138.2V136.952H264.688C264.208 136.952 263.83 137.085 263.552 137.352C263.275 137.619 263.136 137.981 263.136 138.44C263.136 138.931 263.302 139.32 263.632 139.608C263.974 139.885 264.443 140.024 265.04 140.024ZM275.562 141.16C274.837 141.16 274.255 140.968 273.818 140.584C273.381 140.189 273.162 139.656 273.162 138.984L273.45 139.32H273.162V141H271.722V129.32H273.162V131.88L273.13 133.88H273.45L273.162 134.216C273.162 133.555 273.381 133.027 273.818 132.632C274.266 132.237 274.847 132.04 275.562 132.04C276.447 132.04 277.157 132.333 277.69 132.92C278.223 133.507 278.49 134.307 278.49 135.32V137.896C278.49 138.899 278.223 139.693 277.69 140.28C277.157 140.867 276.447 141.16 275.562 141.16ZM275.082 139.912C275.69 139.912 276.17 139.731 276.522 139.368C276.874 139.005 277.05 138.483 277.05 137.8V135.4C277.05 134.717 276.874 134.195 276.522 133.832C276.17 133.469 275.69 133.288 275.082 133.288C274.495 133.288 274.026 133.475 273.674 133.848C273.333 134.221 273.162 134.739 273.162 135.4V137.8C273.162 138.461 273.333 138.979 273.674 139.352C274.026 139.725 274.495 139.912 275.082 139.912ZM285.844 141C285.332 141 284.884 140.899 284.5 140.696C284.116 140.493 283.817 140.205 283.604 139.832C283.39 139.459 283.284 139.021 283.284 138.52V130.632H280.324V129.32H284.724V138.52C284.724 138.883 284.825 139.171 285.028 139.384C285.23 139.587 285.502 139.688 285.844 139.688H288.644V141H285.844ZM294.238 141.16C293.544 141.16 292.936 141.021 292.414 140.744C291.902 140.467 291.502 140.077 291.214 139.576C290.936 139.064 290.798 138.472 290.798 137.8V135.4C290.798 134.717 290.936 134.125 291.214 133.624C291.502 133.123 291.902 132.733 292.414 132.456C292.936 132.179 293.544 132.04 294.238 132.04C294.931 132.04 295.534 132.179 296.046 132.456C296.568 132.733 296.968 133.123 297.246 133.624C297.534 134.125 297.678 134.717 297.678 135.4V136.952H292.206V137.8C292.206 138.493 292.382 139.027 292.734 139.4C293.086 139.763 293.587 139.944 294.238 139.944C294.792 139.944 295.24 139.848 295.582 139.656C295.923 139.453 296.131 139.155 296.206 138.76H297.646C297.55 139.496 297.187 140.083 296.558 140.52C295.939 140.947 295.166 141.16 294.238 141.16ZM296.27 135.992V135.4C296.27 134.707 296.094 134.173 295.742 133.8C295.4 133.427 294.899 133.24 294.238 133.24C293.587 133.24 293.086 133.427 292.734 133.8C292.382 134.173 292.206 134.707 292.206 135.4V135.864H296.382L296.27 135.992ZM303.831 141.16C303.127 141.16 302.519 141.027 302.007 140.76C301.506 140.493 301.117 140.109 300.839 139.608C300.573 139.096 300.439 138.493 300.439 137.8V132.52C300.439 131.816 300.573 131.213 300.839 130.712C301.117 130.211 301.506 129.827 302.007 129.56C302.519 129.293 303.127 129.16 303.831 129.16C304.535 129.16 305.138 129.293 305.639 129.56C306.151 129.827 306.541 130.211 306.807 130.712C307.085 131.213 307.223 131.811 307.223 132.504V137.8C307.223 138.493 307.085 139.096 306.807 139.608C306.541 140.109 306.151 140.493 305.639 140.76C305.138 141.027 304.535 141.16 303.831 141.16ZM303.831 139.864C304.461 139.864 304.941 139.688 305.271 139.336C305.613 138.973 305.783 138.461 305.783 137.8V132.52C305.783 131.859 305.613 131.352 305.271 131C304.941 130.637 304.461 130.456 303.831 130.456C303.213 130.456 302.733 130.637 302.391 131C302.05 131.352 301.879 131.859 301.879 132.52V137.8C301.879 138.461 302.05 138.973 302.391 139.336C302.733 139.688 303.213 139.864 303.831 139.864ZM313.937 141.16C313.212 141.16 312.63 140.968 312.193 140.584C311.756 140.189 311.537 139.656 311.537 138.984L311.825 139.32H311.537V141H310.097V129.32H311.537V131.88L311.505 133.88H311.825L311.537 134.216C311.537 133.555 311.756 133.027 312.193 132.632C312.641 132.237 313.222 132.04 313.937 132.04C314.822 132.04 315.532 132.333 316.065 132.92C316.598 133.507 316.865 134.307 316.865 135.32V137.896C316.865 138.899 316.598 139.693 316.065 140.28C315.532 140.867 314.822 141.16 313.937 141.16ZM313.457 139.912C314.065 139.912 314.545 139.731 314.897 139.368C315.249 139.005 315.425 138.483 315.425 137.8V135.4C315.425 134.717 315.249 134.195 314.897 133.832C314.545 133.469 314.065 133.288 313.457 133.288C312.87 133.288 312.401 133.475 312.049 133.848C311.708 134.221 311.537 134.739 311.537 135.4V137.8C311.537 138.461 311.708 138.979 312.049 139.352C312.401 139.725 312.87 139.912 313.457 139.912ZM319.579 143.88V142.552H321.643C322.304 142.552 322.816 142.371 323.179 142.008C323.552 141.656 323.739 141.155 323.739 140.504V133.512H320.059V132.2H325.179V140.504C325.179 141.539 324.859 142.36 324.219 142.968C323.579 143.576 322.72 143.88 321.643 143.88H319.579ZM324.379 130.616C324.027 130.616 323.749 130.525 323.547 130.344C323.344 130.163 323.243 129.917 323.243 129.608C323.243 129.288 323.344 129.037 323.547 128.856C323.749 128.664 324.027 128.568 324.379 128.568C324.731 128.568 325.008 128.664 325.211 128.856C325.413 129.037 325.515 129.288 325.515 129.608C325.515 129.917 325.413 130.163 325.211 130.344C325.008 130.525 324.731 130.616 324.379 130.616ZM332.613 141.16C331.919 141.16 331.311 141.021 330.789 140.744C330.277 140.467 329.877 140.077 329.589 139.576C329.311 139.064 329.173 138.472 329.173 137.8V135.4C329.173 134.717 329.311 134.125 329.589 133.624C329.877 133.123 330.277 132.733 330.789 132.456C331.311 132.179 331.919 132.04 332.613 132.04C333.306 132.04 333.909 132.179 334.421 132.456C334.943 132.733 335.343 133.123 335.621 133.624C335.909 134.125 336.053 134.717 336.053 135.4V136.952H330.581V137.8C330.581 138.493 330.757 139.027 331.109 139.4C331.461 139.763 331.962 139.944 332.613 139.944C333.167 139.944 333.615 139.848 333.957 139.656C334.298 139.453 334.506 139.155 334.581 138.76H336.021C335.925 139.496 335.562 140.083 334.933 140.52C334.314 140.947 333.541 141.16 332.613 141.16ZM334.645 135.992V135.4C334.645 134.707 334.469 134.173 334.117 133.8C333.775 133.427 333.274 133.24 332.613 133.24C331.962 133.24 331.461 133.427 331.109 133.8C330.757 134.173 330.581 134.707 330.581 135.4V135.864H334.757L334.645 135.992ZM342.27 141.16C341.566 141.16 340.948 141.027 340.414 140.76C339.892 140.493 339.486 140.109 339.198 139.608C338.91 139.096 338.766 138.493 338.766 137.8V135.4C338.766 134.696 338.91 134.093 339.198 133.592C339.486 133.091 339.892 132.707 340.414 132.44C340.948 132.173 341.566 132.04 342.27 132.04C343.284 132.04 344.1 132.312 344.718 132.856C345.337 133.4 345.662 134.141 345.694 135.08H344.254C344.222 134.515 344.03 134.083 343.678 133.784C343.337 133.475 342.868 133.32 342.27 133.32C341.641 133.32 341.14 133.501 340.766 133.864C340.393 134.216 340.206 134.723 340.206 135.384V137.8C340.206 138.461 340.393 138.973 340.766 139.336C341.14 139.699 341.641 139.88 342.27 139.88C342.868 139.88 343.337 139.725 343.678 139.416C344.03 139.107 344.222 138.675 344.254 138.12H345.694C345.662 139.059 345.337 139.8 344.718 140.344C344.1 140.888 343.284 141.16 342.27 141.16ZM352.76 141C352.003 141 351.411 140.797 350.984 140.392C350.568 139.987 350.36 139.416 350.36 138.68V133.512H347.88V132.2H350.36V129.72H351.8V132.2H355.32V133.512H351.8V138.68C351.8 139.352 352.12 139.688 352.76 139.688H355.16V141H352.76Z" fill="#DABAFF"/>
<path d="M118.222 189V177.32H121.982C122.707 177.32 123.337 177.464 123.87 177.752C124.403 178.029 124.814 178.424 125.102 178.936C125.401 179.448 125.55 180.056 125.55 180.76C125.55 181.453 125.401 182.061 125.102 182.584C124.814 183.096 124.403 183.496 123.87 183.784C123.337 184.061 122.707 184.2 121.982 184.2H119.662V189H118.222ZM119.662 182.904H121.982C122.611 182.904 123.113 182.712 123.486 182.328C123.87 181.933 124.062 181.411 124.062 180.76C124.062 180.099 123.87 179.576 123.486 179.192C123.113 178.808 122.611 178.616 121.982 178.616H119.662V182.904ZM131.144 189.128C130.44 189.128 129.832 188.995 129.32 188.728C128.808 188.461 128.408 188.077 128.12 187.576C127.842 187.064 127.704 186.461 127.704 185.768V183.432C127.704 182.728 127.842 182.125 128.12 181.624C128.408 181.123 128.808 180.739 129.32 180.472C129.832 180.205 130.44 180.072 131.144 180.072C131.848 180.072 132.456 180.205 132.968 180.472C133.48 180.739 133.874 181.123 134.152 181.624C134.44 182.125 134.584 182.723 134.584 183.416V185.768C134.584 186.461 134.44 187.064 134.152 187.576C133.874 188.077 133.48 188.461 132.968 188.728C132.456 188.995 131.848 189.128 131.144 189.128ZM131.144 187.848C131.773 187.848 132.264 187.672 132.616 187.32C132.968 186.968 133.144 186.451 133.144 185.768V183.432C133.144 182.749 132.968 182.232 132.616 181.88C132.264 181.528 131.773 181.352 131.144 181.352C130.525 181.352 130.034 181.528 129.672 181.88C129.32 182.232 129.144 182.749 129.144 183.432V185.768C129.144 186.451 129.32 186.968 129.672 187.32C130.034 187.672 130.525 187.848 131.144 187.848ZM137.41 191.88V180.2H138.85V181.88H139.138L138.85 182.216C138.85 181.544 139.068 181.016 139.506 180.632C139.954 180.237 140.54 180.04 141.266 180.04C142.151 180.04 142.855 180.333 143.378 180.92C143.911 181.496 144.178 182.291 144.178 183.304V185.88C144.178 186.552 144.055 187.133 143.81 187.624C143.575 188.115 143.239 188.493 142.802 188.76C142.375 189.027 141.863 189.16 141.266 189.16C140.551 189.16 139.97 188.963 139.522 188.568C139.074 188.173 138.85 187.645 138.85 186.984L139.138 187.32H138.818L138.85 189.32V191.88H137.41ZM140.786 187.912C141.394 187.912 141.868 187.731 142.21 187.368C142.562 187.005 142.738 186.483 142.738 185.8V183.4C142.738 182.717 142.562 182.195 142.21 181.832C141.868 181.469 141.394 181.288 140.786 181.288C140.199 181.288 139.73 181.475 139.378 181.848C139.026 182.221 138.85 182.739 138.85 183.4V185.8C138.85 186.461 139.026 186.979 139.378 187.352C139.73 187.725 140.199 187.912 140.786 187.912ZM150.315 189.16C149.302 189.16 148.491 188.861 147.883 188.264C147.275 187.656 146.971 186.835 146.971 185.8V180.2H148.411V185.8C148.411 186.461 148.582 186.979 148.923 187.352C149.265 187.715 149.729 187.896 150.315 187.896C150.913 187.896 151.382 187.715 151.723 187.352C152.075 186.979 152.251 186.461 152.251 185.8V180.2H153.691V185.8C153.691 186.835 153.382 187.656 152.763 188.264C152.145 188.861 151.329 189.16 150.315 189.16ZM156.597 191.88V180.2H158.037V181.88H158.325L158.037 182.216C158.037 181.544 158.256 181.016 158.693 180.632C159.141 180.237 159.728 180.04 160.453 180.04C161.338 180.04 162.042 180.333 162.565 180.92C163.098 181.496 163.365 182.291 163.365 183.304V185.88C163.365 186.552 163.242 187.133 162.997 187.624C162.762 188.115 162.426 188.493 161.989 188.76C161.562 189.027 161.05 189.16 160.453 189.16C159.738 189.16 159.157 188.963 158.709 188.568C158.261 188.173 158.037 187.645 158.037 186.984L158.325 187.32H158.005L158.037 189.32V191.88H156.597ZM159.973 187.912C160.581 187.912 161.056 187.731 161.397 187.368C161.749 187.005 161.925 186.483 161.925 185.8V183.4C161.925 182.717 161.749 182.195 161.397 181.832C161.056 181.469 160.581 181.288 159.973 181.288C159.386 181.288 158.917 181.475 158.565 181.848C158.213 182.221 158.037 182.739 158.037 183.4V185.8C158.037 186.461 158.213 186.979 158.565 187.352C158.917 187.725 159.386 187.912 159.973 187.912ZM166.159 189V187.688H169.327V178.52L166.159 180.888V179.288L168.799 177.32H170.767V187.688H173.359V189H166.159ZM204.566 191.88V180.2H206.006V181.88H206.294L206.006 182.216C206.006 181.544 206.224 181.016 206.662 180.632C207.11 180.237 207.696 180.04 208.422 180.04C209.307 180.04 210.011 180.333 210.534 180.92C211.067 181.496 211.334 182.291 211.334 183.304V185.88C211.334 186.552 211.211 187.133 210.966 187.624C210.731 188.115 210.395 188.493 209.958 188.76C209.531 189.027 209.019 189.16 208.422 189.16C207.707 189.16 207.126 188.963 206.678 188.568C206.23 188.173 206.006 187.645 206.006 186.984L206.294 187.32H205.974L206.006 189.32V191.88H204.566ZM207.942 187.912C208.55 187.912 209.024 187.731 209.366 187.368C209.718 187.005 209.894 186.483 209.894 185.8V183.4C209.894 182.717 209.718 182.195 209.366 181.832C209.024 181.469 208.55 181.288 207.942 181.288C207.355 181.288 206.886 181.475 206.534 181.848C206.182 182.221 206.006 182.739 206.006 183.4V185.8C206.006 186.461 206.182 186.979 206.534 187.352C206.886 187.725 207.355 187.912 207.942 187.912ZM214.464 189V180.2H215.872V181.88H216.208L215.744 182.92C215.744 181.971 215.946 181.256 216.352 180.776C216.768 180.285 217.381 180.04 218.192 180.04C219.12 180.04 219.856 180.333 220.4 180.92C220.954 181.496 221.232 182.28 221.232 183.272V183.8H219.792V183.4C219.792 182.707 219.621 182.179 219.28 181.816C218.949 181.443 218.474 181.256 217.856 181.256C217.248 181.256 216.768 181.443 216.416 181.816C216.074 182.189 215.904 182.717 215.904 183.4V189H214.464ZM227.081 189.16C226.388 189.16 225.78 189.021 225.257 188.744C224.745 188.467 224.345 188.077 224.057 187.576C223.78 187.064 223.641 186.472 223.641 185.8V183.4C223.641 182.717 223.78 182.125 224.057 181.624C224.345 181.123 224.745 180.733 225.257 180.456C225.78 180.179 226.388 180.04 227.081 180.04C227.775 180.04 228.377 180.179 228.889 180.456C229.412 180.733 229.812 181.123 230.089 181.624C230.377 182.125 230.521 182.717 230.521 183.4V184.952H225.049V185.8C225.049 186.493 225.225 187.027 225.577 187.4C225.929 187.763 226.431 187.944 227.081 187.944C227.636 187.944 228.084 187.848 228.425 187.656C228.767 187.453 228.975 187.155 229.049 186.76H230.489C230.393 187.496 230.031 188.083 229.401 188.52C228.783 188.947 228.009 189.16 227.081 189.16ZM229.113 183.992V183.4C229.113 182.707 228.937 182.173 228.585 181.8C228.244 181.427 227.743 181.24 227.081 181.24C226.431 181.24 225.929 181.427 225.577 181.8C225.225 182.173 225.049 182.707 225.049 183.4V183.864H229.225L229.113 183.992ZM236.403 189.128C235.806 189.128 235.283 189.037 234.835 188.856C234.398 188.664 234.046 188.397 233.779 188.056C233.523 187.715 233.368 187.309 233.315 186.84H234.755C234.819 187.149 234.99 187.395 235.267 187.576C235.555 187.757 235.934 187.848 236.403 187.848H237.075C237.64 187.848 238.062 187.736 238.339 187.512C238.616 187.277 238.755 186.968 238.755 186.584C238.755 186.211 238.627 185.917 238.371 185.704C238.126 185.48 237.758 185.331 237.267 185.256L236.083 185.064C235.219 184.915 234.574 184.648 234.147 184.264C233.731 183.869 233.523 183.299 233.523 182.552C233.523 181.763 233.774 181.155 234.275 180.728C234.776 180.291 235.528 180.072 236.531 180.072H237.139C237.982 180.072 238.659 180.269 239.171 180.664C239.683 181.059 239.992 181.592 240.099 182.264H238.659C238.595 181.987 238.435 181.768 238.179 181.608C237.923 181.437 237.576 181.352 237.139 181.352H236.531C235.987 181.352 235.587 181.453 235.331 181.656C235.086 181.859 234.963 182.163 234.963 182.568C234.963 182.931 235.07 183.197 235.283 183.368C235.496 183.539 235.832 183.661 236.291 183.736L237.475 183.928C238.424 184.077 239.112 184.355 239.539 184.76C239.976 185.165 240.195 185.752 240.195 186.52C240.195 187.331 239.934 187.971 239.411 188.44C238.899 188.899 238.12 189.128 237.075 189.128H236.403ZM246.269 189.16C245.575 189.16 244.967 189.021 244.445 188.744C243.933 188.467 243.533 188.077 243.245 187.576C242.967 187.064 242.829 186.472 242.829 185.8V183.4C242.829 182.717 242.967 182.125 243.245 181.624C243.533 181.123 243.933 180.733 244.445 180.456C244.967 180.179 245.575 180.04 246.269 180.04C246.962 180.04 247.565 180.179 248.077 180.456C248.599 180.733 248.999 181.123 249.277 181.624C249.565 182.125 249.709 182.717 249.709 183.4V184.952H244.237V185.8C244.237 186.493 244.413 187.027 244.765 187.4C245.117 187.763 245.618 187.944 246.269 187.944C246.823 187.944 247.271 187.848 247.613 187.656C247.954 187.453 248.162 187.155 248.237 186.76H249.677C249.581 187.496 249.218 188.083 248.589 188.52C247.97 188.947 247.197 189.16 246.269 189.16ZM248.301 183.992V183.4C248.301 182.707 248.125 182.173 247.773 181.8C247.431 181.427 246.93 181.24 246.269 181.24C245.618 181.24 245.117 181.427 244.765 181.8C244.413 182.173 244.237 182.707 244.237 183.4V183.864H248.413L248.301 183.992ZM252.535 189V180.2H253.975V181.88H254.279L253.975 182.216C253.975 181.523 254.183 180.989 254.599 180.616C255.015 180.232 255.591 180.04 256.327 180.04C257.212 180.04 257.916 180.312 258.439 180.856C258.961 181.4 259.223 182.141 259.223 183.08V189H257.783V183.24C257.783 182.611 257.612 182.131 257.271 181.8C256.94 181.459 256.487 181.288 255.911 181.288C255.313 181.288 254.839 181.469 254.487 181.832C254.145 182.195 253.975 182.717 253.975 183.4V189H252.535ZM266.416 189C265.659 189 265.067 188.797 264.64 188.392C264.224 187.987 264.016 187.416 264.016 186.68V181.512H261.536V180.2H264.016V177.72H265.456V180.2H268.976V181.512H265.456V186.68C265.456 187.352 265.776 187.688 266.416 187.688H268.816V189H266.416ZM118.222 213V201.32H121.982C122.707 201.32 123.337 201.464 123.87 201.752C124.403 202.029 124.814 202.424 125.102 202.936C125.401 203.448 125.55 204.056 125.55 204.76C125.55 205.453 125.401 206.061 125.102 206.584C124.814 207.096 124.403 207.496 123.87 207.784C123.337 208.061 122.707 208.2 121.982 208.2H119.662V213H118.222ZM119.662 206.904H121.982C122.611 206.904 123.113 206.712 123.486 206.328C123.87 205.933 124.062 205.411 124.062 204.76C124.062 204.099 123.87 203.576 123.486 203.192C123.113 202.808 122.611 202.616 121.982 202.616H119.662V206.904ZM131.144 213.128C130.44 213.128 129.832 212.995 129.32 212.728C128.808 212.461 128.408 212.077 128.12 211.576C127.842 211.064 127.704 210.461 127.704 209.768V207.432C127.704 206.728 127.842 206.125 128.12 205.624C128.408 205.123 128.808 204.739 129.32 204.472C129.832 204.205 130.44 204.072 131.144 204.072C131.848 204.072 132.456 204.205 132.968 204.472C133.48 204.739 133.874 205.123 134.152 205.624C134.44 206.125 134.584 206.723 134.584 207.416V209.768C134.584 210.461 134.44 211.064 134.152 211.576C133.874 212.077 133.48 212.461 132.968 212.728C132.456 212.995 131.848 213.128 131.144 213.128ZM131.144 211.848C131.773 211.848 132.264 211.672 132.616 211.32C132.968 210.968 133.144 210.451 133.144 209.768V207.432C133.144 206.749 132.968 206.232 132.616 205.88C132.264 205.528 131.773 205.352 131.144 205.352C130.525 205.352 130.034 205.528 129.672 205.88C129.32 206.232 129.144 206.749 129.144 207.432V209.768C129.144 210.451 129.32 210.968 129.672 211.32C130.034 211.672 130.525 211.848 131.144 211.848ZM137.41 215.88V204.2H138.85V205.88H139.138L138.85 206.216C138.85 205.544 139.068 205.016 139.506 204.632C139.954 204.237 140.54 204.04 141.266 204.04C142.151 204.04 142.855 204.333 143.378 204.92C143.911 205.496 144.178 206.291 144.178 207.304V209.88C144.178 210.552 144.055 211.133 143.81 211.624C143.575 212.115 143.239 212.493 142.802 212.76C142.375 213.027 141.863 213.16 141.266 213.16C140.551 213.16 139.97 212.963 139.522 212.568C139.074 212.173 138.85 211.645 138.85 210.984L139.138 211.32H138.818L138.85 213.32V215.88H137.41ZM140.786 211.912C141.394 211.912 141.868 211.731 142.21 211.368C142.562 211.005 142.738 210.483 142.738 209.8V207.4C142.738 206.717 142.562 206.195 142.21 205.832C141.868 205.469 141.394 205.288 140.786 205.288C140.199 205.288 139.73 205.475 139.378 205.848C139.026 206.221 138.85 206.739 138.85 207.4V209.8C138.85 210.461 139.026 210.979 139.378 211.352C139.73 211.725 140.199 211.912 140.786 211.912ZM150.315 213.16C149.302 213.16 148.491 212.861 147.883 212.264C147.275 211.656 146.971 210.835 146.971 209.8V204.2H148.411V209.8C148.411 210.461 148.582 210.979 148.923 211.352C149.265 211.715 149.729 211.896 150.315 211.896C150.913 211.896 151.382 211.715 151.723 211.352C152.075 210.979 152.251 210.461 152.251 209.8V204.2H153.691V209.8C153.691 210.835 153.382 211.656 152.763 212.264C152.145 212.861 151.329 213.16 150.315 213.16ZM156.597 215.88V204.2H158.037V205.88H158.325L158.037 206.216C158.037 205.544 158.256 205.016 158.693 204.632C159.141 204.237 159.728 204.04 160.453 204.04C161.338 204.04 162.042 204.333 162.565 204.92C163.098 205.496 163.365 206.291 163.365 207.304V209.88C163.365 210.552 163.242 211.133 162.997 211.624C162.762 212.115 162.426 212.493 161.989 212.76C161.562 213.027 161.05 213.16 160.453 213.16C159.738 213.16 159.157 212.963 158.709 212.568C158.261 212.173 158.037 211.645 158.037 210.984L158.325 211.32H158.005L158.037 213.32V215.88H156.597ZM159.973 211.912C160.581 211.912 161.056 211.731 161.397 211.368C161.749 211.005 161.925 210.483 161.925 209.8V207.4C161.925 206.717 161.749 206.195 161.397 205.832C161.056 205.469 160.581 205.288 159.973 205.288C159.386 205.288 158.917 205.475 158.565 205.848C158.213 206.221 158.037 206.739 158.037 207.4V209.8C158.037 210.461 158.213 210.979 158.565 211.352C158.917 211.725 159.386 211.912 159.973 211.912ZM166.191 213V211.528L169.759 207.736C170.367 207.085 170.809 206.509 171.087 206.008C171.364 205.496 171.503 205.005 171.503 204.536C171.503 203.885 171.321 203.373 170.959 203C170.607 202.627 170.121 202.44 169.503 202.44C168.82 202.44 168.281 202.632 167.887 203.016C167.503 203.4 167.311 203.928 167.311 204.6H165.871C165.892 203.896 166.052 203.288 166.351 202.776C166.66 202.253 167.081 201.853 167.615 201.576C168.159 201.299 168.788 201.16 169.503 201.16C170.207 201.16 170.815 201.299 171.327 201.576C171.849 201.843 172.249 202.227 172.527 202.728C172.804 203.229 172.943 203.827 172.943 204.52C172.943 205.181 172.767 205.837 172.415 206.488C172.063 207.139 171.487 207.88 170.687 208.712L167.807 211.688H173.135V213H166.191ZM204.566 215.88V204.2H206.006V205.88H206.294L206.006 206.216C206.006 205.544 206.224 205.016 206.662 204.632C207.11 204.237 207.696 204.04 208.422 204.04C209.307 204.04 210.011 204.333 210.534 204.92C211.067 205.496 211.334 206.291 211.334 207.304V209.88C211.334 210.552 211.211 211.133 210.966 211.624C210.731 212.115 210.395 212.493 209.958 212.76C209.531 213.027 209.019 213.16 208.422 213.16C207.707 213.16 207.126 212.963 206.678 212.568C206.23 212.173 206.006 211.645 206.006 210.984L206.294 211.32H205.974L206.006 213.32V215.88H204.566ZM207.942 211.912C208.55 211.912 209.024 211.731 209.366 211.368C209.718 211.005 209.894 210.483 209.894 209.8V207.4C209.894 206.717 209.718 206.195 209.366 205.832C209.024 205.469 208.55 205.288 207.942 205.288C207.355 205.288 206.886 205.475 206.534 205.848C206.182 206.221 206.006 206.739 206.006 207.4V209.8C206.006 210.461 206.182 210.979 206.534 211.352C206.886 211.725 207.355 211.912 207.942 211.912ZM214.464 213V204.2H215.872V205.88H216.208L215.744 206.92C215.744 205.971 215.946 205.256 216.352 204.776C216.768 204.285 217.381 204.04 218.192 204.04C219.12 204.04 219.856 204.333 220.4 204.92C220.954 205.496 221.232 206.28 221.232 207.272V207.8H219.792V207.4C219.792 206.707 219.621 206.179 219.28 205.816C218.949 205.443 218.474 205.256 217.856 205.256C217.248 205.256 216.768 205.443 216.416 205.816C216.074 206.189 215.904 206.717 215.904 207.4V213H214.464ZM227.081 213.16C226.388 213.16 225.78 213.021 225.257 212.744C224.745 212.467 224.345 212.077 224.057 211.576C223.78 211.064 223.641 210.472 223.641 209.8V207.4C223.641 206.717 223.78 206.125 224.057 205.624C224.345 205.123 224.745 204.733 225.257 204.456C225.78 204.179 226.388 204.04 227.081 204.04C227.775 204.04 228.377 204.179 228.889 204.456C229.412 204.733 229.812 205.123 230.089 205.624C230.377 206.125 230.521 206.717 230.521 207.4V208.952H225.049V209.8C225.049 210.493 225.225 211.027 225.577 211.4C225.929 211.763 226.431 211.944 227.081 211.944C227.636 211.944 228.084 211.848 228.425 211.656C228.767 211.453 228.975 211.155 229.049 210.76H230.489C230.393 211.496 230.031 212.083 229.401 212.52C228.783 212.947 228.009 213.16 227.081 213.16ZM229.113 207.992V207.4C229.113 206.707 228.937 206.173 228.585 205.8C228.244 205.427 227.743 205.24 227.081 205.24C226.431 205.24 225.929 205.427 225.577 205.8C225.225 206.173 225.049 206.707 225.049 207.4V207.864H229.225L229.113 207.992ZM236.403 213.128C235.806 213.128 235.283 213.037 234.835 212.856C234.398 212.664 234.046 212.397 233.779 212.056C233.523 211.715 233.368 211.309 233.315 210.84H234.755C234.819 211.149 234.99 211.395 235.267 211.576C235.555 211.757 235.934 211.848 236.403 211.848H237.075C237.64 211.848 238.062 211.736 238.339 211.512C238.616 211.277 238.755 210.968 238.755 210.584C238.755 210.211 238.627 209.917 238.371 209.704C238.126 209.48 237.758 209.331 237.267 209.256L236.083 209.064C235.219 208.915 234.574 208.648 234.147 208.264C233.731 207.869 233.523 207.299 233.523 206.552C233.523 205.763 233.774 205.155 234.275 204.728C234.776 204.291 235.528 204.072 236.531 204.072H237.139C237.982 204.072 238.659 204.269 239.171 204.664C239.683 205.059 239.992 205.592 240.099 206.264H238.659C238.595 205.987 238.435 205.768 238.179 205.608C237.923 205.437 237.576 205.352 237.139 205.352H236.531C235.987 205.352 235.587 205.453 235.331 205.656C235.086 205.859 234.963 206.163 234.963 206.568C234.963 206.931 235.07 207.197 235.283 207.368C235.496 207.539 235.832 207.661 236.291 207.736L237.475 207.928C238.424 208.077 239.112 208.355 239.539 208.76C239.976 209.165 240.195 209.752 240.195 210.52C240.195 211.331 239.934 211.971 239.411 212.44C238.899 212.899 238.12 213.128 237.075 213.128H236.403ZM246.269 213.16C245.575 213.16 244.967 213.021 244.445 212.744C243.933 212.467 243.533 212.077 243.245 211.576C242.967 211.064 242.829 210.472 242.829 209.8V207.4C242.829 206.717 242.967 206.125 243.245 205.624C243.533 205.123 243.933 204.733 244.445 204.456C244.967 204.179 245.575 204.04 246.269 204.04C246.962 204.04 247.565 204.179 248.077 204.456C248.599 204.733 248.999 205.123 249.277 205.624C249.565 206.125 249.709 206.717 249.709 207.4V208.952H244.237V209.8C244.237 210.493 244.413 211.027 244.765 211.4C245.117 211.763 245.618 211.944 246.269 211.944C246.823 211.944 247.271 211.848 247.613 211.656C247.954 211.453 248.162 211.155 248.237 210.76H249.677C249.581 211.496 249.218 212.083 248.589 212.52C247.97 212.947 247.197 213.16 246.269 213.16ZM248.301 207.992V207.4C248.301 206.707 248.125 206.173 247.773 205.8C247.431 205.427 246.93 205.24 246.269 205.24C245.618 205.24 245.117 205.427 244.765 205.8C244.413 206.173 244.237 206.707 244.237 207.4V207.864H248.413L248.301 207.992ZM252.535 213V204.2H253.975V205.88H254.279L253.975 206.216C253.975 205.523 254.183 204.989 254.599 204.616C255.015 204.232 255.591 204.04 256.327 204.04C257.212 204.04 257.916 204.312 258.439 204.856C258.961 205.4 259.223 206.141 259.223 207.08V213H257.783V207.24C257.783 206.611 257.612 206.131 257.271 205.8C256.94 205.459 256.487 205.288 255.911 205.288C255.313 205.288 254.839 205.469 254.487 205.832C254.145 206.195 253.975 206.717 253.975 207.4V213H252.535ZM266.416 213C265.659 213 265.067 212.797 264.64 212.392C264.224 211.987 264.016 211.416 264.016 210.68V205.512H261.536V204.2H264.016V201.72H265.456V204.2H268.976V205.512H265.456V210.68C265.456 211.352 265.776 211.688 266.416 211.688H268.816V213H266.416ZM118.222 237V225.32H121.982C122.707 225.32 123.337 225.464 123.87 225.752C124.403 226.029 124.814 226.424 125.102 226.936C125.401 227.448 125.55 228.056 125.55 228.76C125.55 229.453 125.401 230.061 125.102 230.584C124.814 231.096 124.403 231.496 123.87 231.784C123.337 232.061 122.707 232.2 121.982 232.2H119.662V237H118.222ZM119.662 230.904H121.982C122.611 230.904 123.113 230.712 123.486 230.328C123.87 229.933 124.062 229.411 124.062 228.76C124.062 228.099 123.87 227.576 123.486 227.192C123.113 226.808 122.611 226.616 121.982 226.616H119.662V230.904ZM131.144 237.128C130.44 237.128 129.832 236.995 129.32 236.728C128.808 236.461 128.408 236.077 128.12 235.576C127.842 235.064 127.704 234.461 127.704 233.768V231.432C127.704 230.728 127.842 230.125 128.12 229.624C128.408 229.123 128.808 228.739 129.32 228.472C129.832 228.205 130.44 228.072 131.144 228.072C131.848 228.072 132.456 228.205 132.968 228.472C133.48 228.739 133.874 229.123 134.152 229.624C134.44 230.125 134.584 230.723 134.584 231.416V233.768C134.584 234.461 134.44 235.064 134.152 235.576C133.874 236.077 133.48 236.461 132.968 236.728C132.456 236.995 131.848 237.128 131.144 237.128ZM131.144 235.848C131.773 235.848 132.264 235.672 132.616 235.32C132.968 234.968 133.144 234.451 133.144 233.768V231.432C133.144 230.749 132.968 230.232 132.616 229.88C132.264 229.528 131.773 229.352 131.144 229.352C130.525 229.352 130.034 229.528 129.672 229.88C129.32 230.232 129.144 230.749 129.144 231.432V233.768C129.144 234.451 129.32 234.968 129.672 235.32C130.034 235.672 130.525 235.848 131.144 235.848ZM137.41 239.88V228.2H138.85V229.88H139.138L138.85 230.216C138.85 229.544 139.068 229.016 139.506 228.632C139.954 228.237 140.54 228.04 141.266 228.04C142.151 228.04 142.855 228.333 143.378 228.92C143.911 229.496 144.178 230.291 144.178 231.304V233.88C144.178 234.552 144.055 235.133 143.81 235.624C143.575 236.115 143.239 236.493 142.802 236.76C142.375 237.027 141.863 237.16 141.266 237.16C140.551 237.16 139.97 236.963 139.522 236.568C139.074 236.173 138.85 235.645 138.85 234.984L139.138 235.32H138.818L138.85 237.32V239.88H137.41ZM140.786 235.912C141.394 235.912 141.868 235.731 142.21 235.368C142.562 235.005 142.738 234.483 142.738 233.8V231.4C142.738 230.717 142.562 230.195 142.21 229.832C141.868 229.469 141.394 229.288 140.786 229.288C140.199 229.288 139.73 229.475 139.378 229.848C139.026 230.221 138.85 230.739 138.85 231.4V233.8C138.85 234.461 139.026 234.979 139.378 235.352C139.73 235.725 140.199 235.912 140.786 235.912ZM150.315 237.16C149.302 237.16 148.491 236.861 147.883 236.264C147.275 235.656 146.971 234.835 146.971 233.8V228.2H148.411V233.8C148.411 234.461 148.582 234.979 148.923 235.352C149.265 235.715 149.729 235.896 150.315 235.896C150.913 235.896 151.382 235.715 151.723 235.352C152.075 234.979 152.251 234.461 152.251 233.8V228.2H153.691V233.8C153.691 234.835 153.382 235.656 152.763 236.264C152.145 236.861 151.329 237.16 150.315 237.16ZM156.597 239.88V228.2H158.037V229.88H158.325L158.037 230.216C158.037 229.544 158.256 229.016 158.693 228.632C159.141 228.237 159.728 228.04 160.453 228.04C161.338 228.04 162.042 228.333 162.565 228.92C163.098 229.496 163.365 230.291 163.365 231.304V233.88C163.365 234.552 163.242 235.133 162.997 235.624C162.762 236.115 162.426 236.493 161.989 236.76C161.562 237.027 161.05 237.16 160.453 237.16C159.738 237.16 159.157 236.963 158.709 236.568C158.261 236.173 158.037 235.645 158.037 234.984L158.325 235.32H158.005L158.037 237.32V239.88H156.597ZM159.973 235.912C160.581 235.912 161.056 235.731 161.397 235.368C161.749 235.005 161.925 234.483 161.925 233.8V231.4C161.925 230.717 161.749 230.195 161.397 229.832C161.056 229.469 160.581 229.288 159.973 229.288C159.386 229.288 158.917 229.475 158.565 229.848C158.213 230.221 158.037 230.739 158.037 231.4V233.8C158.037 234.461 158.213 234.979 158.565 235.352C158.917 235.725 159.386 235.912 159.973 235.912ZM169.343 237.16C168.639 237.16 168.02 237.021 167.487 236.744C166.964 236.456 166.559 236.061 166.271 235.56C165.983 235.059 165.839 234.472 165.839 233.8H167.279C167.279 234.451 167.46 234.963 167.823 235.336C168.196 235.699 168.708 235.88 169.359 235.88C170.02 235.88 170.532 235.688 170.895 235.304C171.257 234.92 171.439 234.419 171.439 233.8V232.968C171.439 232.307 171.257 231.795 170.895 231.432C170.532 231.069 170.02 230.888 169.359 230.888H168.159V229.448L171.055 226.632H166.319V225.32H172.511V226.76L169.391 229.784V229.608C170.457 229.608 171.305 229.912 171.935 230.52C172.564 231.128 172.879 231.944 172.879 232.968V233.8C172.879 234.472 172.729 235.059 172.431 235.56C172.143 236.061 171.732 236.456 171.199 236.744C170.665 237.021 170.047 237.16 169.343 237.16ZM204.566 239.88V228.2H206.006V229.88H206.294L206.006 230.216C206.006 229.544 206.224 229.016 206.662 228.632C207.11 228.237 207.696 228.04 208.422 228.04C209.307 228.04 210.011 228.333 210.534 228.92C211.067 229.496 211.334 230.291 211.334 231.304V233.88C211.334 234.552 211.211 235.133 210.966 235.624C210.731 236.115 210.395 236.493 209.958 236.76C209.531 237.027 209.019 237.16 208.422 237.16C207.707 237.16 207.126 236.963 206.678 236.568C206.23 236.173 206.006 235.645 206.006 234.984L206.294 235.32H205.974L206.006 237.32V239.88H204.566ZM207.942 235.912C208.55 235.912 209.024 235.731 209.366 235.368C209.718 235.005 209.894 234.483 209.894 233.8V231.4C209.894 230.717 209.718 230.195 209.366 229.832C209.024 229.469 208.55 229.288 207.942 229.288C207.355 229.288 206.886 229.475 206.534 229.848C206.182 230.221 206.006 230.739 206.006 231.4V233.8C206.006 234.461 206.182 234.979 206.534 235.352C206.886 235.725 207.355 235.912 207.942 235.912ZM214.464 237V228.2H215.872V229.88H216.208L215.744 230.92C215.744 229.971 215.946 229.256 216.352 228.776C216.768 228.285 217.381 228.04 218.192 228.04C219.12 228.04 219.856 228.333 220.4 228.92C220.954 229.496 221.232 230.28 221.232 231.272V231.8H219.792V231.4C219.792 230.707 219.621 230.179 219.28 229.816C218.949 229.443 218.474 229.256 217.856 229.256C217.248 229.256 216.768 229.443 216.416 229.816C216.074 230.189 215.904 230.717 215.904 231.4V237H214.464ZM227.081 237.16C226.388 237.16 225.78 237.021 225.257 236.744C224.745 236.467 224.345 236.077 224.057 235.576C223.78 235.064 223.641 234.472 223.641 233.8V231.4C223.641 230.717 223.78 230.125 224.057 229.624C224.345 229.123 224.745 228.733 225.257 228.456C225.78 228.179 226.388 228.04 227.081 228.04C227.775 228.04 228.377 228.179 228.889 228.456C229.412 228.733 229.812 229.123 230.089 229.624C230.377 230.125 230.521 230.717 230.521 231.4V232.952H225.049V233.8C225.049 234.493 225.225 235.027 225.577 235.4C225.929 235.763 226.431 235.944 227.081 235.944C227.636 235.944 228.084 235.848 228.425 235.656C228.767 235.453 228.975 235.155 229.049 234.76H230.489C230.393 235.496 230.031 236.083 229.401 236.52C228.783 236.947 228.009 237.16 227.081 237.16ZM229.113 231.992V231.4C229.113 230.707 228.937 230.173 228.585 229.8C228.244 229.427 227.743 229.24 227.081 229.24C226.431 229.24 225.929 229.427 225.577 229.8C225.225 230.173 225.049 230.707 225.049 231.4V231.864H229.225L229.113 231.992ZM236.403 237.128C235.806 237.128 235.283 237.037 234.835 236.856C234.398 236.664 234.046 236.397 233.779 236.056C233.523 235.715 233.368 235.309 233.315 234.84H234.755C234.819 235.149 234.99 235.395 235.267 235.576C235.555 235.757 235.934 235.848 236.403 235.848H237.075C237.64 235.848 238.062 235.736 238.339 235.512C238.616 235.277 238.755 234.968 238.755 234.584C238.755 234.211 238.627 233.917 238.371 233.704C238.126 233.48 237.758 233.331 237.267 233.256L236.083 233.064C235.219 232.915 234.574 232.648 234.147 232.264C233.731 231.869 233.523 231.299 233.523 230.552C233.523 229.763 233.774 229.155 234.275 228.728C234.776 228.291 235.528 228.072 236.531 228.072H237.139C237.982 228.072 238.659 228.269 239.171 228.664C239.683 229.059 239.992 229.592 240.099 230.264H238.659C238.595 229.987 238.435 229.768 238.179 229.608C237.923 229.437 237.576 229.352 237.139 229.352H236.531C235.987 229.352 235.587 229.453 235.331 229.656C235.086 229.859 234.963 230.163 234.963 230.568C234.963 230.931 235.07 231.197 235.283 231.368C235.496 231.539 235.832 231.661 236.291 231.736L237.475 231.928C238.424 232.077 239.112 232.355 239.539 232.76C239.976 233.165 240.195 233.752 240.195 234.52C240.195 235.331 239.934 235.971 239.411 236.44C238.899 236.899 238.12 237.128 237.075 237.128H236.403ZM246.269 237.16C245.575 237.16 244.967 237.021 244.445 236.744C243.933 236.467 243.533 236.077 243.245 235.576C242.967 235.064 242.829 234.472 242.829 233.8V231.4C242.829 230.717 242.967 230.125 243.245 229.624C243.533 229.123 243.933 228.733 244.445 228.456C244.967 228.179 245.575 228.04 246.269 228.04C246.962 228.04 247.565 228.179 248.077 228.456C248.599 228.733 248.999 229.123 249.277 229.624C249.565 230.125 249.709 230.717 249.709 231.4V232.952H244.237V233.8C244.237 234.493 244.413 235.027 244.765 235.4C245.117 235.763 245.618 235.944 246.269 235.944C246.823 235.944 247.271 235.848 247.613 235.656C247.954 235.453 248.162 235.155 248.237 234.76H249.677C249.581 235.496 249.218 236.083 248.589 236.52C247.97 236.947 247.197 237.16 246.269 237.16ZM248.301 231.992V231.4C248.301 230.707 248.125 230.173 247.773 229.8C247.431 229.427 246.93 229.24 246.269 229.24C245.618 229.24 245.117 229.427 244.765 229.8C244.413 230.173 244.237 230.707 244.237 231.4V231.864H248.413L248.301 231.992ZM252.535 237V228.2H253.975V229.88H254.279L253.975 230.216C253.975 229.523 254.183 228.989 254.599 228.616C255.015 228.232 255.591 228.04 256.327 228.04C257.212 228.04 257.916 228.312 258.439 228.856C258.961 229.4 259.223 230.141 259.223 231.08V237H257.783V231.24C257.783 230.611 257.612 230.131 257.271 229.8C256.94 229.459 256.487 229.288 255.911 229.288C255.313 229.288 254.839 229.469 254.487 229.832C254.145 230.195 253.975 230.717 253.975 231.4V237H252.535ZM266.416 237C265.659 237 265.067 236.797 264.64 236.392C264.224 235.987 264.016 235.416 264.016 234.68V229.512H261.536V228.2H264.016V225.72H265.456V228.2H268.976V229.512H265.456V234.68C265.456 235.352 265.776 235.688 266.416 235.688H268.816V237H266.416ZM118.222 261V249.32H121.982C122.707 249.32 123.337 249.464 123.87 249.752C124.403 250.029 124.814 250.424 125.102 250.936C125.401 251.448 125.55 252.056 125.55 252.76C125.55 253.453 125.401 254.061 125.102 254.584C124.814 255.096 124.403 255.496 123.87 255.784C123.337 256.061 122.707 256.2 121.982 256.2H119.662V261H118.222ZM119.662 254.904H121.982C122.611 254.904 123.113 254.712 123.486 254.328C123.87 253.933 124.062 253.411 124.062 252.76C124.062 252.099 123.87 251.576 123.486 251.192C123.113 250.808 122.611 250.616 121.982 250.616H119.662V254.904ZM131.144 261.128C130.44 261.128 129.832 260.995 129.32 260.728C128.808 260.461 128.408 260.077 128.12 259.576C127.842 259.064 127.704 258.461 127.704 257.768V255.432C127.704 254.728 127.842 254.125 128.12 253.624C128.408 253.123 128.808 252.739 129.32 252.472C129.832 252.205 130.44 252.072 131.144 252.072C131.848 252.072 132.456 252.205 132.968 252.472C133.48 252.739 133.874 253.123 134.152 253.624C134.44 254.125 134.584 254.723 134.584 255.416V257.768C134.584 258.461 134.44 259.064 134.152 259.576C133.874 260.077 133.48 260.461 132.968 260.728C132.456 260.995 131.848 261.128 131.144 261.128ZM131.144 259.848C131.773 259.848 132.264 259.672 132.616 259.32C132.968 258.968 133.144 258.451 133.144 257.768V255.432C133.144 254.749 132.968 254.232 132.616 253.88C132.264 253.528 131.773 253.352 131.144 253.352C130.525 253.352 130.034 253.528 129.672 253.88C129.32 254.232 129.144 254.749 129.144 255.432V257.768C129.144 258.451 129.32 258.968 129.672 259.32C130.034 259.672 130.525 259.848 131.144 259.848ZM137.41 263.88V252.2H138.85V253.88H139.138L138.85 254.216C138.85 253.544 139.068 253.016 139.506 252.632C139.954 252.237 140.54 252.04 141.266 252.04C142.151 252.04 142.855 252.333 143.378 252.92C143.911 253.496 144.178 254.291 144.178 255.304V257.88C144.178 258.552 144.055 259.133 143.81 259.624C143.575 260.115 143.239 260.493 142.802 260.76C142.375 261.027 141.863 261.16 141.266 261.16C140.551 261.16 139.97 260.963 139.522 260.568C139.074 260.173 138.85 259.645 138.85 258.984L139.138 259.32H138.818L138.85 261.32V263.88H137.41ZM140.786 259.912C141.394 259.912 141.868 259.731 142.21 259.368C142.562 259.005 142.738 258.483 142.738 257.8V255.4C142.738 254.717 142.562 254.195 142.21 253.832C141.868 253.469 141.394 253.288 140.786 253.288C140.199 253.288 139.73 253.475 139.378 253.848C139.026 254.221 138.85 254.739 138.85 255.4V257.8C138.85 258.461 139.026 258.979 139.378 259.352C139.73 259.725 140.199 259.912 140.786 259.912ZM150.315 261.16C149.302 261.16 148.491 260.861 147.883 260.264C147.275 259.656 146.971 258.835 146.971 257.8V252.2H148.411V257.8C148.411 258.461 148.582 258.979 148.923 259.352C149.265 259.715 149.729 259.896 150.315 259.896C150.913 259.896 151.382 259.715 151.723 259.352C152.075 258.979 152.251 258.461 152.251 257.8V252.2H153.691V257.8C153.691 258.835 153.382 259.656 152.763 260.264C152.145 260.861 151.329 261.16 150.315 261.16ZM156.597 263.88V252.2H158.037V253.88H158.325L158.037 254.216C158.037 253.544 158.256 253.016 158.693 252.632C159.141 252.237 159.728 252.04 160.453 252.04C161.338 252.04 162.042 252.333 162.565 252.92C163.098 253.496 163.365 254.291 163.365 255.304V257.88C163.365 258.552 163.242 259.133 162.997 259.624C162.762 260.115 162.426 260.493 161.989 260.76C161.562 261.027 161.05 261.16 160.453 261.16C159.738 261.16 159.157 260.963 158.709 260.568C158.261 260.173 158.037 259.645 158.037 258.984L158.325 259.32H158.005L158.037 261.32V263.88H156.597ZM159.973 259.912C160.581 259.912 161.056 259.731 161.397 259.368C161.749 259.005 161.925 258.483 161.925 257.8V255.4C161.925 254.717 161.749 254.195 161.397 253.832C161.056 253.469 160.581 253.288 159.973 253.288C159.386 253.288 158.917 253.475 158.565 253.848C158.213 254.221 158.037 254.739 158.037 255.4V257.8C158.037 258.461 158.213 258.979 158.565 259.352C158.917 259.725 159.386 259.912 159.973 259.912ZM171.279 261V258.44H165.999V256.184L170.623 249.32H172.191L167.439 256.488V257.128H171.279V254.28H172.719V261H171.279ZM204.566 263.88V252.2H206.006V253.88H206.294L206.006 254.216C206.006 253.544 206.224 253.016 206.662 252.632C207.11 252.237 207.696 252.04 208.422 252.04C209.307 252.04 210.011 252.333 210.534 252.92C211.067 253.496 211.334 254.291 211.334 255.304V257.88C211.334 258.552 211.211 259.133 210.966 259.624C210.731 260.115 210.395 260.493 209.958 260.76C209.531 261.027 209.019 261.16 208.422 261.16C207.707 261.16 207.126 260.963 206.678 260.568C206.23 260.173 206.006 259.645 206.006 258.984L206.294 259.32H205.974L206.006 261.32V263.88H204.566ZM207.942 259.912C208.55 259.912 209.024 259.731 209.366 259.368C209.718 259.005 209.894 258.483 209.894 257.8V255.4C209.894 254.717 209.718 254.195 209.366 253.832C209.024 253.469 208.55 253.288 207.942 253.288C207.355 253.288 206.886 253.475 206.534 253.848C206.182 254.221 206.006 254.739 206.006 255.4V257.8C206.006 258.461 206.182 258.979 206.534 259.352C206.886 259.725 207.355 259.912 207.942 259.912ZM214.464 261V252.2H215.872V253.88H216.208L215.744 254.92C215.744 253.971 215.946 253.256 216.352 252.776C216.768 252.285 217.381 252.04 218.192 252.04C219.12 252.04 219.856 252.333 220.4 252.92C220.954 253.496 221.232 254.28 221.232 255.272V255.8H219.792V255.4C219.792 254.707 219.621 254.179 219.28 253.816C218.949 253.443 218.474 253.256 217.856 253.256C217.248 253.256 216.768 253.443 216.416 253.816C216.074 254.189 215.904 254.717 215.904 255.4V261H214.464ZM227.081 261.16C226.388 261.16 225.78 261.021 225.257 260.744C224.745 260.467 224.345 260.077 224.057 259.576C223.78 259.064 223.641 258.472 223.641 257.8V255.4C223.641 254.717 223.78 254.125 224.057 253.624C224.345 253.123 224.745 252.733 225.257 252.456C225.78 252.179 226.388 252.04 227.081 252.04C227.775 252.04 228.377 252.179 228.889 252.456C229.412 252.733 229.812 253.123 230.089 253.624C230.377 254.125 230.521 254.717 230.521 255.4V256.952H225.049V257.8C225.049 258.493 225.225 259.027 225.577 259.4C225.929 259.763 226.431 259.944 227.081 259.944C227.636 259.944 228.084 259.848 228.425 259.656C228.767 259.453 228.975 259.155 229.049 258.76H230.489C230.393 259.496 230.031 260.083 229.401 260.52C228.783 260.947 228.009 261.16 227.081 261.16ZM229.113 255.992V255.4C229.113 254.707 228.937 254.173 228.585 253.8C228.244 253.427 227.743 253.24 227.081 253.24C226.431 253.24 225.929 253.427 225.577 253.8C225.225 254.173 225.049 254.707 225.049 255.4V255.864H229.225L229.113 255.992ZM236.403 261.128C235.806 261.128 235.283 261.037 234.835 260.856C234.398 260.664 234.046 260.397 233.779 260.056C233.523 259.715 233.368 259.309 233.315 258.84H234.755C234.819 259.149 234.99 259.395 235.267 259.576C235.555 259.757 235.934 259.848 236.403 259.848H237.075C237.64 259.848 238.062 259.736 238.339 259.512C238.616 259.277 238.755 258.968 238.755 258.584C238.755 258.211 238.627 257.917 238.371 257.704C238.126 257.48 237.758 257.331 237.267 257.256L236.083 257.064C235.219 256.915 234.574 256.648 234.147 256.264C233.731 255.869 233.523 255.299 233.523 254.552C233.523 253.763 233.774 253.155 234.275 252.728C234.776 252.291 235.528 252.072 236.531 252.072H237.139C237.982 252.072 238.659 252.269 239.171 252.664C239.683 253.059 239.992 253.592 240.099 254.264H238.659C238.595 253.987 238.435 253.768 238.179 253.608C237.923 253.437 237.576 253.352 237.139 253.352H236.531C235.987 253.352 235.587 253.453 235.331 253.656C235.086 253.859 234.963 254.163 234.963 254.568C234.963 254.931 235.07 255.197 235.283 255.368C235.496 255.539 235.832 255.661 236.291 255.736L237.475 255.928C238.424 256.077 239.112 256.355 239.539 256.76C239.976 257.165 240.195 257.752 240.195 258.52C240.195 259.331 239.934 259.971 239.411 260.44C238.899 260.899 238.12 261.128 237.075 261.128H236.403ZM246.269 261.16C245.575 261.16 244.967 261.021 244.445 260.744C243.933 260.467 243.533 260.077 243.245 259.576C242.967 259.064 242.829 258.472 242.829 257.8V255.4C242.829 254.717 242.967 254.125 243.245 253.624C243.533 253.123 243.933 252.733 244.445 252.456C244.967 252.179 245.575 252.04 246.269 252.04C246.962 252.04 247.565 252.179 248.077 252.456C248.599 252.733 248.999 253.123 249.277 253.624C249.565 254.125 249.709 254.717 249.709 255.4V256.952H244.237V257.8C244.237 258.493 244.413 259.027 244.765 259.4C245.117 259.763 245.618 259.944 246.269 259.944C246.823 259.944 247.271 259.848 247.613 259.656C247.954 259.453 248.162 259.155 248.237 258.76H249.677C249.581 259.496 249.218 260.083 248.589 260.52C247.97 260.947 247.197 261.16 246.269 261.16ZM248.301 255.992V255.4C248.301 254.707 248.125 254.173 247.773 253.8C247.431 253.427 246.93 253.24 246.269 253.24C245.618 253.24 245.117 253.427 244.765 253.8C244.413 254.173 244.237 254.707 244.237 255.4V255.864H248.413L248.301 255.992ZM252.535 261V252.2H253.975V253.88H254.279L253.975 254.216C253.975 253.523 254.183 252.989 254.599 252.616C255.015 252.232 255.591 252.04 256.327 252.04C257.212 252.04 257.916 252.312 258.439 252.856C258.961 253.4 259.223 254.141 259.223 255.08V261H257.783V255.24C257.783 254.611 257.612 254.131 257.271 253.8C256.94 253.459 256.487 253.288 255.911 253.288C255.313 253.288 254.839 253.469 254.487 253.832C254.145 254.195 253.975 254.717 253.975 255.4V261H252.535ZM266.416 261C265.659 261 265.067 260.797 264.64 260.392C264.224 259.987 264.016 259.416 264.016 258.68V253.512H261.536V252.2H264.016V249.72H265.456V252.2H268.976V253.512H265.456V258.68C265.456 259.352 265.776 259.688 266.416 259.688H268.816V261H266.416Z" fill="#78C2B3"/>
</svg>
