<svg width="67" height="26" viewBox="0 0 67 26" fill="none" xmlns="http://www.w3.org/2000/svg">
<rect x="1" width="65" height="26" rx="6" fill="#F71735"/>
<path d="M13.0475 18.25C12.4175 17.5822 11.9187 16.7968 11.5512 15.894C11.1838 14.9912 11 14.0265 11 13C11 11.9735 11.1838 11.0088 11.5512 10.106C11.9187 9.20318 12.4175 8.41784 13.0475 7.75L13.8 8.5477C13.2517 9.12898 12.8229 9.79682 12.5137 10.5512C12.2046 11.3057 12.05 12.1219 12.05 13C12.05 13.8781 12.2046 14.6943 12.5137 15.4488C12.8229 16.2032 13.2517 16.871 13.8 17.4523L13.0475 18.25ZM14.535 16.6731C14.0917 16.2032 13.7417 15.6528 13.485 15.0221C13.2283 14.3913 13.1 13.7173 13.1 13C13.1 12.2827 13.2283 11.6087 13.485 10.9779C13.7417 10.3472 14.0917 9.79682 14.535 9.32686L15.27 10.106C14.92 10.477 14.6458 10.9099 14.4475 11.4046C14.2492 11.8993 14.15 12.4311 14.15 13C14.15 13.5689 14.2492 14.1007 14.4475 14.5954C14.6458 15.0901 14.92 15.523 15.27 15.894L14.535 16.6731ZM17.3 16.3392C17.3 16.0548 17.2096 15.7734 17.0287 15.4951C16.8479 15.2169 16.6467 14.9262 16.425 14.6232C16.2033 14.3202 16.0021 14.0049 15.8212 13.6771C15.6404 13.3494 15.55 13 15.55 12.629C15.55 11.9117 15.7892 11.2995 16.2675 10.7924C16.7458 10.2853 17.3233 10.0318 18 10.0318C18.6767 10.0318 19.2542 10.2853 19.7325 10.7924C20.2108 11.2995 20.45 11.9117 20.45 12.629C20.45 13 20.3596 13.3494 20.1788 13.6771C19.9979 14.0049 19.7967 14.3202 19.575 14.6232C19.3533 14.9262 19.1521 15.2169 18.9713 15.4951C18.7904 15.7734 18.7 16.0548 18.7 16.3392H17.3ZM17.3 18.1943V17.0813H18.7V18.1943H17.3ZM21.465 16.6731L20.73 15.894C21.08 15.523 21.3542 15.0901 21.5525 14.5954C21.7508 14.1007 21.85 13.5689 21.85 13C21.85 12.4311 21.7508 11.8993 21.5525 11.4046C21.3542 10.9099 21.08 10.477 20.73 10.106L21.465 9.32686C21.9083 9.79682 22.2583 10.3472 22.515 10.9779C22.7717 11.6087 22.9 12.2827 22.9 13C22.9 13.7173 22.7717 14.3913 22.515 15.0221C22.2583 15.6528 21.9083 16.2032 21.465 16.6731ZM22.9525 18.25L22.2 17.4523C22.7483 16.871 23.1771 16.2032 23.4862 15.4488C23.7954 14.6943 23.95 13.8781 23.95 13C23.95 12.1219 23.7954 11.3057 23.4862 10.5512C23.1771 9.79682 22.7483 9.12898 22.2 8.5477L22.9525 7.75C23.5825 8.41784 24.0813 9.20318 24.4488 10.106C24.8162 11.0088 25 11.9735 25 13C25 14.0265 24.8162 14.9912 24.4488 15.894C24.0813 16.7968 23.5825 17.5822 22.9525 18.25Z" fill="#FFFCFF"/>
<path d="M27.8217 18V8.54545H31.6072C32.3028 8.54545 32.8829 8.64856 33.3477 8.85476C33.8124 9.06096 34.1617 9.34718 34.3956 9.71342C34.6295 10.0766 34.7464 10.4951 34.7464 10.9691C34.7464 11.3384 34.6726 11.6631 34.5249 11.9432C34.3771 12.2202 34.174 12.4479 33.9155 12.6264C33.66 12.8018 33.3677 12.9265 33.0384 13.0004V13.0927C33.3984 13.1081 33.7354 13.2096 34.0494 13.3974C34.3664 13.5851 34.6233 13.8482 34.8203 14.1868C35.0173 14.5223 35.1158 14.9223 35.1158 15.3871C35.1158 15.8887 34.9911 16.3365 34.7418 16.7305C34.4956 17.1213 34.1309 17.4306 33.6477 17.6584C33.1645 17.8861 32.569 18 31.8612 18H27.8217ZM29.8207 16.3658H31.4503C32.0073 16.3658 32.4136 16.2596 32.669 16.0472C32.9245 15.8318 33.0522 15.5456 33.0522 15.1886C33.0522 14.927 32.9891 14.6961 32.8629 14.4961C32.7367 14.296 32.5567 14.1391 32.3228 14.0252C32.092 13.9113 31.8165 13.8544 31.4964 13.8544H29.8207V16.3658ZM29.8207 12.5018H31.3026C31.5765 12.5018 31.8196 12.4541 32.032 12.3587C32.2474 12.2602 32.4167 12.1217 32.5398 11.9432C32.666 11.7647 32.729 11.5508 32.729 11.3015C32.729 10.9599 32.6075 10.6844 32.3643 10.4751C32.1243 10.2659 31.7827 10.1612 31.3395 10.1612H29.8207V12.5018ZM39.6111 18.1385C38.8817 18.1385 38.2538 17.9908 37.7275 17.6953C37.2043 17.3968 36.8012 16.9751 36.518 16.4304C36.2349 15.8826 36.0933 15.2347 36.0933 14.4869C36.0933 13.7575 36.2349 13.1173 36.518 12.5664C36.8012 12.0155 37.1997 11.5862 37.7137 11.2784C38.2307 10.9706 38.837 10.8168 39.5326 10.8168C40.0004 10.8168 40.4359 10.8922 40.839 11.043C41.2453 11.1907 41.5992 11.4138 41.9008 11.7124C42.2055 12.0109 42.4425 12.3864 42.6118 12.8388C42.781 13.2881 42.8657 13.8144 42.8657 14.4176V14.9577H36.8781V13.739H41.0145C41.0145 13.4558 40.9529 13.205 40.8298 12.9865C40.7067 12.768 40.5359 12.5972 40.3174 12.4741C40.1019 12.3479 39.8511 12.2848 39.5649 12.2848C39.2664 12.2848 39.0017 12.354 38.7709 12.4925C38.5431 12.628 38.3646 12.8111 38.2354 13.0419C38.1061 13.2696 38.0399 13.5236 38.0368 13.8036V14.9624C38.0368 15.3132 38.1015 15.6164 38.2307 15.8718C38.3631 16.1272 38.5493 16.3242 38.7893 16.4627C39.0294 16.6012 39.3141 16.6705 39.6434 16.6705C39.8619 16.6705 40.0619 16.6397 40.2435 16.5781C40.4251 16.5166 40.5805 16.4242 40.7098 16.3011C40.839 16.178 40.9375 16.0272 41.0052 15.8487L42.8241 15.9688C42.7318 16.4058 42.5425 16.7874 42.2563 17.1136C41.9732 17.4368 41.6069 17.6892 41.1576 17.8707C40.7113 18.0492 40.1958 18.1385 39.6111 18.1385ZM47.9207 10.9091V12.3864H43.6505V10.9091H47.9207ZM44.6199 9.21023H46.5866V15.821C46.5866 16.0026 46.6143 16.1442 46.6697 16.2457C46.7251 16.3442 46.802 16.4135 46.9005 16.4535C47.002 16.4935 47.119 16.5135 47.2513 16.5135C47.3437 16.5135 47.436 16.5058 47.5283 16.4904C47.6206 16.4719 47.6914 16.4581 47.7407 16.4489L48.05 17.9123C47.9515 17.9431 47.813 17.9785 47.6345 18.0185C47.456 18.0616 47.239 18.0877 46.9836 18.0969C46.5096 18.1154 46.0941 18.0523 45.7371 17.9077C45.3832 17.763 45.1077 17.5384 44.9108 17.2337C44.7138 16.929 44.6169 16.5443 44.6199 16.0795V9.21023ZM51.2238 18.1339C50.7714 18.1339 50.3682 18.0554 50.0143 17.8984C49.6604 17.7384 49.3803 17.503 49.1741 17.1921C48.971 16.8782 48.8694 16.4873 48.8694 16.0195C48.8694 15.6256 48.9417 15.2947 49.0864 15.027C49.231 14.7592 49.428 14.5438 49.6773 14.3807C49.9266 14.2176 50.2097 14.0945 50.5267 14.0114C50.8468 13.9283 51.1823 13.8698 51.5331 13.8359C51.9455 13.7929 52.2779 13.7528 52.5303 13.7159C52.7826 13.6759 52.9658 13.6174 53.0796 13.5405C53.1935 13.4635 53.2504 13.3497 53.2504 13.1989V13.1712C53.2504 12.8788 53.1581 12.6526 52.9735 12.4925C52.7919 12.3325 52.5334 12.2525 52.1979 12.2525C51.844 12.2525 51.5624 12.331 51.3531 12.4879C51.1438 12.6418 51.0053 12.8357 50.9376 13.0696L49.1187 12.9219C49.211 12.491 49.3926 12.1186 49.6634 11.8047C49.9343 11.4877 50.2836 11.2446 50.7114 11.0753C51.1423 10.9029 51.6408 10.8168 52.2071 10.8168C52.6011 10.8168 52.9781 10.8629 53.3382 10.9553C53.7013 11.0476 54.0229 11.1907 54.303 11.3846C54.5861 11.5785 54.8093 11.8278 54.9724 12.1325C55.1355 12.4341 55.2171 12.7957 55.2171 13.2173V18H53.352V17.0167H53.2966C53.1827 17.2383 53.0304 17.4337 52.8396 17.603C52.6488 17.7692 52.4195 17.9 52.1517 17.9954C51.884 18.0877 51.5747 18.1339 51.2238 18.1339ZM51.787 16.7766C52.0763 16.7766 52.3318 16.7197 52.5534 16.6058C52.7749 16.4889 52.9488 16.3319 53.075 16.1349C53.2012 15.938 53.2643 15.7148 53.2643 15.4656V14.7131C53.2027 14.7531 53.1181 14.79 53.0104 14.8239C52.9057 14.8546 52.7873 14.8839 52.6549 14.9116C52.5226 14.9362 52.3902 14.9593 52.2579 14.9808C52.1256 14.9993 52.0055 15.0162 51.8978 15.0316C51.667 15.0655 51.4654 15.1193 51.2931 15.1932C51.1207 15.267 50.9868 15.3671 50.8914 15.4933C50.796 15.6164 50.7483 15.7702 50.7483 15.9549C50.7483 16.2227 50.8453 16.4273 51.0392 16.5689C51.2361 16.7074 51.4854 16.7766 51.787 16.7766Z" fill="#FFFCFF"/>
</svg>
