<svg width="99" height="26" viewBox="0 0 99 26" fill="none" xmlns="http://www.w3.org/2000/svg">
<path d="M2 12C2 6.34315 2 3.51472 3.75736 1.75736C5.51472 0 8.34315 0 14 0H62V26H14C8.34315 26 5.51472 26 3.75736 24.2426C2 22.4853 2 19.6569 2 14V12Z" fill="#3F3F3F"/>
<path d="M7.82173 18V8.54545H9.82067V16.3519H13.8739V18H7.82173ZM15.1608 18V10.9091H17.1274V18H15.1608ZM16.1487 9.99503C15.8563 9.99503 15.6055 9.89808 15.3962 9.70419C15.19 9.50722 15.0869 9.27178 15.0869 8.99787C15.0869 8.72704 15.19 8.49467 15.3962 8.30078C15.6055 8.10381 15.8563 8.00533 16.1487 8.00533C16.4411 8.00533 16.6904 8.10381 16.8966 8.30078C17.1059 8.49467 17.2105 8.72704 17.2105 8.99787C17.2105 9.27178 17.1059 9.50722 16.8966 9.70419C16.6904 9.89808 16.4411 9.99503 16.1487 9.99503ZM21.9066 18.1385C21.1803 18.1385 20.5555 17.9846 20.0323 17.6768C19.5122 17.366 19.1121 16.9351 18.832 16.3842C18.555 15.8333 18.4165 15.1993 18.4165 14.4822C18.4165 13.7559 18.5566 13.1188 18.8366 12.571C19.1198 12.0201 19.5214 11.5908 20.0415 11.283C20.5617 10.9722 21.1803 10.8168 21.8974 10.8168C22.516 10.8168 23.0576 10.9291 23.5224 11.1538C23.9871 11.3784 24.3549 11.6939 24.6257 12.1001C24.8965 12.5064 25.0458 12.9834 25.0735 13.5312H23.2177C23.1654 13.1773 23.0269 12.8926 22.8022 12.6772C22.5806 12.4587 22.2898 12.3494 21.9297 12.3494C21.625 12.3494 21.3588 12.4325 21.131 12.5987C20.9064 12.7618 20.7309 13.0004 20.6048 13.3143C20.4786 13.6282 20.4155 14.0083 20.4155 14.4545C20.4155 14.907 20.477 15.2917 20.6001 15.6087C20.7263 15.9257 20.9033 16.1673 21.131 16.3335C21.3588 16.4996 21.625 16.5827 21.9297 16.5827C22.1544 16.5827 22.3559 16.5366 22.5344 16.4442C22.716 16.3519 22.8653 16.218 22.9822 16.0426C23.1023 15.8641 23.1808 15.6502 23.2177 15.4009H25.0735C25.0427 15.9426 24.895 16.4196 24.6303 16.832C24.3687 17.2414 24.0071 17.5614 23.5455 17.7923C23.0838 18.0231 22.5375 18.1385 21.9066 18.1385ZM29.5642 18.1385C28.8348 18.1385 28.2069 17.9908 27.6807 17.6953C27.1575 17.3968 26.7543 16.9751 26.4711 16.4304C26.188 15.8826 26.0464 15.2347 26.0464 14.4869C26.0464 13.7575 26.188 13.1173 26.4711 12.5664C26.7543 12.0155 27.1528 11.5862 27.6668 11.2784C28.1839 10.9706 28.7902 10.8168 29.4857 10.8168C29.9535 10.8168 30.389 10.8922 30.7922 11.043C31.1984 11.1907 31.5523 11.4138 31.854 11.7124C32.1586 12.0109 32.3956 12.3864 32.5649 12.8388C32.7342 13.2881 32.8188 13.8144 32.8188 14.4176V14.9577H26.8312V13.739H30.9676C30.9676 13.4558 30.906 13.205 30.7829 12.9865C30.6598 12.768 30.489 12.5972 30.2705 12.4741C30.0551 12.3479 29.8042 12.2848 29.518 12.2848C29.2195 12.2848 28.9548 12.354 28.724 12.4925C28.4962 12.628 28.3177 12.8111 28.1885 13.0419C28.0592 13.2696 27.993 13.5236 27.99 13.8036V14.9624C27.99 15.3132 28.0546 15.6164 28.1839 15.8718C28.3162 16.1272 28.5024 16.3242 28.7425 16.4627C28.9825 16.6012 29.2672 16.6705 29.5965 16.6705C29.815 16.6705 30.0151 16.6397 30.1966 16.5781C30.3782 16.5166 30.5336 16.4242 30.6629 16.3011C30.7922 16.178 30.8907 16.0272 30.9584 15.8487L32.7773 15.9688C32.6849 16.4058 32.4957 16.7874 32.2094 17.1136C31.9263 17.4368 31.56 17.6892 31.1107 17.8707C30.6644 18.0492 30.1489 18.1385 29.5642 18.1385ZM36.0688 13.9006V18H34.1022V10.9091H35.9765V12.1602H36.0596C36.2165 11.7478 36.4797 11.4215 36.849 11.1815C37.2183 10.9383 37.6661 10.8168 38.1924 10.8168C38.6848 10.8168 39.1141 10.9245 39.4804 11.1399C39.8466 11.3554 40.1313 11.6631 40.3344 12.0632C40.5376 12.4602 40.6391 12.9342 40.6391 13.4851V18H38.6725V13.8359C38.6756 13.402 38.5648 13.0634 38.3401 12.8203C38.1154 12.5741 37.8061 12.451 37.4122 12.451C37.1475 12.451 36.9136 12.5079 36.7105 12.6218C36.5104 12.7357 36.3535 12.9019 36.2396 13.1204C36.1288 13.3358 36.0719 13.5959 36.0688 13.9006ZM48.089 12.9311L46.2885 13.0419C46.2578 12.888 46.1916 12.7495 46.09 12.6264C45.9885 12.5002 45.8546 12.4002 45.6884 12.3263C45.5253 12.2494 45.3298 12.2109 45.1021 12.2109C44.7974 12.2109 44.5404 12.2756 44.3311 12.4048C44.1219 12.531 44.0172 12.7003 44.0172 12.9126C44.0172 13.0819 44.0849 13.225 44.2203 13.342C44.3558 13.4589 44.5881 13.5528 44.9174 13.6236L46.2008 13.8821C46.8902 14.0237 47.4042 14.2514 47.7427 14.5653C48.0813 14.8793 48.2505 15.2917 48.2505 15.8026C48.2505 16.2673 48.1136 16.6751 47.8397 17.0259C47.5688 17.3768 47.1964 17.6507 46.7225 17.8477C46.2516 18.0415 45.7084 18.1385 45.0929 18.1385C44.1542 18.1385 43.4063 17.9431 42.8493 17.5522C42.2953 17.1583 41.9706 16.6228 41.8752 15.9457L43.8095 15.8441C43.868 16.1303 44.0095 16.3488 44.2342 16.4996C44.4589 16.6474 44.7466 16.7212 45.0975 16.7212C45.4422 16.7212 45.7192 16.6551 45.9284 16.5227C46.1408 16.3873 46.2485 16.2134 46.2516 16.0011C46.2485 15.8226 46.1731 15.6764 46.0254 15.5625C45.8777 15.4455 45.6499 15.3563 45.3422 15.2947L44.1142 15.0501C43.4217 14.9116 42.9062 14.6715 42.5676 14.3299C42.2322 13.9883 42.0645 13.5528 42.0645 13.0234C42.0645 12.5679 42.1876 12.1755 42.4338 11.8462C42.6831 11.5169 43.0324 11.263 43.4817 11.0845C43.9341 10.906 44.4635 10.8168 45.0698 10.8168C45.9654 10.8168 46.6702 11.006 47.1841 11.3846C47.7012 11.7631 48.0028 12.2786 48.089 12.9311ZM52.7204 18.1385C51.991 18.1385 51.3632 17.9908 50.8369 17.6953C50.3137 17.3968 49.9105 16.9751 49.6274 16.4304C49.3443 15.8826 49.2027 15.2347 49.2027 14.4869C49.2027 13.7575 49.3443 13.1173 49.6274 12.5664C49.9105 12.0155 50.3091 11.5862 50.8231 11.2784C51.3401 10.9706 51.9464 10.8168 52.642 10.8168C53.1098 10.8168 53.5452 10.8922 53.9484 11.043C54.3547 11.1907 54.7086 11.4138 55.0102 11.7124C55.3149 12.0109 55.5519 12.3864 55.7211 12.8388C55.8904 13.2881 55.9751 13.8144 55.9751 14.4176V14.9577H49.9875V13.739H54.1238C54.1238 13.4558 54.0623 13.205 53.9392 12.9865C53.8161 12.768 53.6453 12.5972 53.4268 12.4741C53.2113 12.3479 52.9605 12.2848 52.6743 12.2848C52.3757 12.2848 52.1111 12.354 51.8802 12.4925C51.6525 12.628 51.474 12.8111 51.3447 13.0419C51.2155 13.2696 51.1493 13.5236 51.1462 13.8036V14.9624C51.1462 15.3132 51.2108 15.6164 51.3401 15.8718C51.4724 16.1272 51.6586 16.3242 51.8987 16.4627C52.1388 16.6012 52.4234 16.6705 52.7528 16.6705C52.9713 16.6705 53.1713 16.6397 53.3529 16.5781C53.5345 16.5166 53.6899 16.4242 53.8192 16.3011C53.9484 16.178 54.0469 16.0272 54.1146 15.8487L55.9335 15.9688C55.8412 16.4058 55.6519 16.7874 55.3657 17.1136C55.0825 17.4368 54.7163 17.6892 54.267 17.8707C53.8207 18.0492 53.3052 18.1385 52.7204 18.1385Z" fill="#FFFCFF"/>
<path d="M62 0H85C90.6569 0 93.4853 0 95.2426 1.75736C97 3.51472 97 6.34315 97 12V14C97 19.6569 97 22.4853 95.2426 24.2426C93.4853 26 90.6569 26 85 26H62V0Z" fill="#533DA3"/>
<path d="M67.8217 8.54545H70.2869L72.8906 14.8977H73.0014L75.6051 8.54545H78.0703V18H76.1314V11.8462H76.0529L73.6062 17.9538H72.2859L69.8391 11.8232H69.7607V18H67.8217V8.54545ZM81.7162 8.54545V18H79.7172V8.54545H81.7162ZM83.0007 10.1935V8.54545H90.7656V10.1935H87.8711V18H85.8952V10.1935H83.0007Z" fill="#FFFCFF"/>
</svg>
