<svg width="107" height="26" viewBox="0 0 107 26" fill="none" xmlns="http://www.w3.org/2000/svg">
<path d="M1 12C1 6.34315 1 3.51472 2.75736 1.75736C4.51472 0 7.34315 0 13 0H73V26H13C7.34315 26 4.51472 26 2.75736 24.2426C1 22.4853 1 19.6569 1 14V12Z" fill="#3F3F3F"/>
<path d="M6.82173 18V8.54545H10.5518C11.2689 8.54545 11.8799 8.68241 12.3846 8.95632C12.8893 9.22715 13.274 9.60417 13.5387 10.0874C13.8065 10.5675 13.9403 11.1214 13.9403 11.7493C13.9403 12.3771 13.8049 12.9311 13.5341 13.4112C13.2633 13.8913 12.8709 14.2653 12.3569 14.533C11.846 14.8008 11.2274 14.9347 10.5011 14.9347H8.12358V13.3327H10.1779C10.5626 13.3327 10.8796 13.2666 11.1289 13.1342C11.3813 12.9988 11.569 12.8126 11.6921 12.5756C11.8183 12.3356 11.8814 12.0601 11.8814 11.7493C11.8814 11.4354 11.8183 11.1615 11.6921 10.9276C11.569 10.6906 11.3813 10.5075 11.1289 10.3782C10.8765 10.2459 10.5565 10.1797 10.1687 10.1797H8.82067V18H6.82173ZM17.1684 8.54545V18H15.2018V8.54545H17.1684ZM20.7658 18.1339C20.3134 18.1339 19.9102 18.0554 19.5563 17.8984C19.2024 17.7384 18.9223 17.503 18.7161 17.1921C18.513 16.8782 18.4114 16.4873 18.4114 16.0195C18.4114 15.6256 18.4837 15.2947 18.6284 15.027C18.773 14.7592 18.97 14.5438 19.2193 14.3807C19.4686 14.2176 19.7517 14.0945 20.0687 14.0114C20.3888 13.9283 20.7243 13.8698 21.0751 13.8359C21.4875 13.7929 21.8199 13.7528 22.0723 13.7159C22.3246 13.6759 22.5078 13.6174 22.6216 13.5405C22.7355 13.4635 22.7924 13.3497 22.7924 13.1989V13.1712C22.7924 12.8788 22.7001 12.6526 22.5154 12.4925C22.3339 12.3325 22.0753 12.2525 21.7399 12.2525C21.3859 12.2525 21.1043 12.331 20.8951 12.4879C20.6858 12.6418 20.5473 12.8357 20.4796 13.0696L18.6607 12.9219C18.753 12.491 18.9346 12.1186 19.2054 11.8047C19.4763 11.4877 19.8256 11.2446 20.2534 11.0753C20.6842 10.9029 21.1828 10.8168 21.7491 10.8168C22.1431 10.8168 22.5201 10.8629 22.8801 10.9553C23.2433 11.0476 23.5649 11.1907 23.845 11.3846C24.1281 11.5785 24.3513 11.8278 24.5144 12.1325C24.6775 12.4341 24.7591 12.7957 24.7591 13.2173V18H22.894V17.0167H22.8386C22.7247 17.2383 22.5724 17.4337 22.3816 17.603C22.1908 17.7692 21.9615 17.9 21.6937 17.9954C21.426 18.0877 21.1167 18.1339 20.7658 18.1339ZM21.329 16.7766C21.6183 16.7766 21.8738 16.7197 22.0953 16.6058C22.3169 16.4889 22.4908 16.3319 22.617 16.1349C22.7432 15.938 22.8063 15.7148 22.8063 15.4656V14.7131C22.7447 14.7531 22.6601 14.79 22.5524 14.8239C22.4477 14.8546 22.3292 14.8839 22.1969 14.9116C22.0646 14.9362 21.9322 14.9593 21.7999 14.9808C21.6676 14.9993 21.5475 15.0162 21.4398 15.0316C21.209 15.0655 21.0074 15.1193 20.835 15.1932C20.6627 15.267 20.5288 15.3671 20.4334 15.4933C20.338 15.6164 20.2903 15.7702 20.2903 15.9549C20.2903 16.2227 20.3873 16.4273 20.5811 16.5689C20.7781 16.7074 21.0274 16.7766 21.329 16.7766ZM30.0565 10.9091V12.3864H25.7862V10.9091H30.0565ZM26.7557 9.21023H28.7223V15.821C28.7223 16.0026 28.75 16.1442 28.8054 16.2457C28.8608 16.3442 28.9377 16.4135 29.0362 16.4535C29.1378 16.4935 29.2547 16.5135 29.3871 16.5135C29.4794 16.5135 29.5717 16.5058 29.6641 16.4904C29.7564 16.4719 29.8272 16.4581 29.8764 16.4489L30.1857 17.9123C30.0872 17.9431 29.9487 17.9785 29.7702 18.0185C29.5917 18.0616 29.3748 18.0877 29.1193 18.0969C28.6454 18.1154 28.2299 18.0523 27.8729 17.9077C27.5189 17.763 27.2435 17.5384 27.0465 17.2337C26.8496 16.929 26.7526 16.5443 26.7557 16.0795V9.21023ZM35.1507 10.9091V12.3864H30.7743V10.9091H35.1507ZM31.7761 18V10.3967C31.7761 9.88269 31.8761 9.45644 32.0762 9.1179C32.2793 8.77936 32.5563 8.52545 32.9071 8.35618C33.258 8.18691 33.6565 8.10227 34.1028 8.10227C34.4044 8.10227 34.6799 8.12535 34.9292 8.17152C35.1815 8.21768 35.3693 8.25923 35.4924 8.29616L35.1415 9.77344C35.0646 9.74882 34.9692 9.72573 34.8553 9.70419C34.7445 9.68265 34.6306 9.67188 34.5137 9.67188C34.2244 9.67188 34.0228 9.73958 33.9089 9.875C33.795 10.0073 33.7381 10.1935 33.7381 10.4336V18H31.7761ZM39.3021 18.1385C38.585 18.1385 37.9649 17.9862 37.4417 17.6815C36.9215 17.3737 36.5199 16.9459 36.2368 16.3981C35.9536 15.8472 35.8121 15.2086 35.8121 14.4822C35.8121 13.7498 35.9536 13.1096 36.2368 12.5618C36.5199 12.0109 36.9215 11.5831 37.4417 11.2784C37.9649 10.9706 38.585 10.8168 39.3021 10.8168C40.0192 10.8168 40.6378 10.9706 41.1579 11.2784C41.6811 11.5831 42.0843 12.0109 42.3675 12.5618C42.6506 13.1096 42.7922 13.7498 42.7922 14.4822C42.7922 15.2086 42.6506 15.8472 42.3675 16.3981C42.0843 16.9459 41.6811 17.3737 41.1579 17.6815C40.6378 17.9862 40.0192 18.1385 39.3021 18.1385ZM39.3113 16.6151C39.6376 16.6151 39.9099 16.5227 40.1285 16.3381C40.347 16.1503 40.5116 15.8949 40.6224 15.5717C40.7363 15.2486 40.7932 14.8808 40.7932 14.4684C40.7932 14.056 40.7363 13.6882 40.6224 13.3651C40.5116 13.0419 40.347 12.7865 40.1285 12.5987C39.9099 12.411 39.6376 12.3171 39.3113 12.3171C38.982 12.3171 38.705 12.411 38.4804 12.5987C38.2588 12.7865 38.0911 13.0419 37.9772 13.3651C37.8664 13.6882 37.811 14.056 37.811 14.4684C37.811 14.8808 37.8664 15.2486 37.9772 15.5717C38.0911 15.8949 38.2588 16.1503 38.4804 16.3381C38.705 16.5227 38.982 16.6151 39.3113 16.6151ZM44.0709 18V10.9091H45.9775V12.1463H46.0514C46.1807 11.7062 46.3976 11.3738 46.7023 11.1491C47.007 10.9214 47.3579 10.8075 47.7549 10.8075C47.8534 10.8075 47.9595 10.8137 48.0734 10.826C48.1873 10.8383 48.2873 10.8552 48.3735 10.8768V12.6218C48.2812 12.5941 48.1534 12.5695 47.9903 12.5479C47.8272 12.5264 47.6779 12.5156 47.5425 12.5156C47.2532 12.5156 46.9947 12.5787 46.767 12.7049C46.5423 12.828 46.3638 13.0004 46.2314 13.2219C46.1022 13.4435 46.0376 13.699 46.0376 13.9883V18H44.0709ZM49.3903 18V10.9091H51.2646V12.1602H51.3477C51.4954 11.7447 51.7416 11.4169 52.0863 11.1768C52.431 10.9368 52.8434 10.8168 53.3235 10.8168C53.8098 10.8168 54.2237 10.9383 54.5653 11.1815C54.907 11.4215 55.1347 11.7478 55.2486 12.1602H55.3224C55.4671 11.7539 55.7287 11.4292 56.1072 11.1861C56.4889 10.9399 56.9397 10.8168 57.4599 10.8168C58.1216 10.8168 58.6586 11.0276 59.071 11.4492C59.4865 11.8678 59.6942 12.4618 59.6942 13.2312V18H57.7322V13.619C57.7322 13.225 57.6276 12.9296 57.4183 12.7326C57.209 12.5356 56.9474 12.4371 56.6335 12.4371C56.2765 12.4371 55.998 12.551 55.7979 12.7788C55.5979 13.0034 55.4979 13.3004 55.4979 13.6697V18H53.5913V13.5774C53.5913 13.2296 53.4912 12.9527 53.2912 12.7464C53.0942 12.5402 52.8342 12.4371 52.511 12.4371C52.2925 12.4371 52.0955 12.4925 51.9201 12.6033C51.7478 12.7111 51.6108 12.8634 51.5092 13.0604C51.4077 13.2543 51.3569 13.482 51.3569 13.7436V18H49.3903ZM67.1475 12.9311L65.3471 13.0419C65.3163 12.888 65.2502 12.7495 65.1486 12.6264C65.0471 12.5002 64.9132 12.4002 64.747 12.3263C64.5839 12.2494 64.3884 12.2109 64.1607 12.2109C63.856 12.2109 63.599 12.2756 63.3897 12.4048C63.1805 12.531 63.0758 12.7003 63.0758 12.9126C63.0758 13.0819 63.1435 13.225 63.2789 13.342C63.4144 13.4589 63.6467 13.5528 63.976 13.6236L65.2594 13.8821C65.9488 14.0237 66.4628 14.2514 66.8013 14.5653C67.1399 14.8793 67.3091 15.2917 67.3091 15.8026C67.3091 16.2673 67.1722 16.6751 66.8983 17.0259C66.6274 17.3768 66.255 17.6507 65.7811 17.8477C65.3102 18.0415 64.767 18.1385 64.1515 18.1385C63.2128 18.1385 62.4649 17.9431 61.9078 17.5522C61.3539 17.1583 61.0292 16.6228 60.9338 15.9457L62.8681 15.8441C62.9266 16.1303 63.0681 16.3488 63.2928 16.4996C63.5175 16.6474 63.8052 16.7212 64.1561 16.7212C64.5008 16.7212 64.7778 16.6551 64.987 16.5227C65.1994 16.3873 65.3071 16.2134 65.3102 16.0011C65.3071 15.8226 65.2317 15.6764 65.084 15.5625C64.9363 15.4455 64.7085 15.3563 64.4007 15.2947L63.1728 15.0501C62.4803 14.9116 61.9648 14.6715 61.6262 14.3299C61.2908 13.9883 61.123 13.5528 61.123 13.0234C61.123 12.5679 61.2462 12.1755 61.4924 11.8462C61.7417 11.5169 62.091 11.263 62.5403 11.0845C62.9927 10.906 63.5221 10.8168 64.1284 10.8168C65.024 10.8168 65.7288 11.006 66.2427 11.3846C66.7598 11.7631 67.0614 12.2786 67.1475 12.9311Z" fill="#FFFCFF"/>
<path d="M73 0H94C99.6569 0 102.485 0 104.243 1.75736C106 3.51472 106 6.34315 106 12V14C106 19.6569 106 22.4853 104.243 24.2426C102.485 26 99.6569 26 94 26H73V0Z" fill="#533DA3"/>
<path d="M78.7848 18V10.9091H80.7514V18H78.7848ZM79.7727 9.99503C79.4804 9.99503 79.2295 9.89808 79.0202 9.70419C78.814 9.50722 78.7109 9.27178 78.7109 8.99787C78.7109 8.72704 78.814 8.49467 79.0202 8.30078C79.2295 8.10381 79.4804 8.00533 79.7727 8.00533C80.0651 8.00533 80.3144 8.10381 80.5206 8.30078C80.7299 8.49467 80.8345 8.72704 80.8345 8.99787C80.8345 9.27178 80.7299 9.50722 80.5206 9.70419C80.3144 9.89808 80.0651 9.99503 79.7727 9.99503ZM91.0519 13.2727C91.0519 14.3037 90.8565 15.1809 90.4656 15.9041C90.0779 16.6274 89.5485 17.1798 88.8776 17.5614C88.2097 17.94 87.4588 18.1293 86.6247 18.1293C85.7845 18.1293 85.0305 17.9384 84.3627 17.5568C83.6948 17.1752 83.167 16.6228 82.7792 15.8995C82.3914 15.1763 82.1975 14.3007 82.1975 13.2727C82.1975 12.2417 82.3914 11.3646 82.7792 10.6413C83.167 9.91809 83.6948 9.36719 84.3627 8.98864C85.0305 8.60701 85.7845 8.41619 86.6247 8.41619C87.4588 8.41619 88.2097 8.60701 88.8776 8.98864C89.5485 9.36719 90.0779 9.91809 90.4656 10.6413C90.8565 11.3646 91.0519 12.2417 91.0519 13.2727ZM89.0253 13.2727C89.0253 12.6049 88.9253 12.0417 88.7252 11.5831C88.5283 11.1245 88.2497 10.7768 87.8896 10.5398C87.5296 10.3028 87.1079 10.1843 86.6247 10.1843C86.1415 10.1843 85.7199 10.3028 85.3598 10.5398C84.9997 10.7768 84.7197 11.1245 84.5196 11.5831C84.3227 12.0417 84.2242 12.6049 84.2242 13.2727C84.2242 13.9406 84.3227 14.5038 84.5196 14.9624C84.7197 15.4209 84.9997 15.7687 85.3598 16.0057C85.7199 16.2427 86.1415 16.3612 86.6247 16.3612C87.1079 16.3612 87.5296 16.2427 87.8896 16.0057C88.2497 15.7687 88.5283 15.4209 88.7252 14.9624C88.9253 14.5038 89.0253 13.9406 89.0253 13.2727ZM97.6616 11.2646C97.6246 10.8922 97.4661 10.6029 97.1861 10.3967C96.906 10.1905 96.5259 10.0874 96.0458 10.0874C95.7196 10.0874 95.4441 10.1335 95.2195 10.2259C94.9948 10.3151 94.8224 10.4397 94.7024 10.5998C94.5855 10.7598 94.527 10.9414 94.527 11.1445C94.5208 11.3138 94.5562 11.4615 94.6332 11.5877C94.7132 11.7139 94.8224 11.8232 94.9609 11.9155C95.0994 12.0047 95.2595 12.0832 95.4411 12.1509C95.6226 12.2156 95.8165 12.271 96.0227 12.3171L96.8722 12.5202C97.2846 12.6126 97.6631 12.7357 98.0078 12.8896C98.3525 13.0434 98.651 13.2327 98.9034 13.4574C99.1558 13.6821 99.3512 13.9467 99.4897 14.2514C99.6313 14.5561 99.7036 14.9054 99.7067 15.2994C99.7036 15.878 99.5559 16.3796 99.2635 16.8043C98.9742 17.226 98.5556 17.5537 98.0078 17.7876C97.4631 18.0185 96.806 18.1339 96.0366 18.1339C95.2733 18.1339 94.6085 18.0169 94.0423 17.783C93.479 17.5491 93.0389 17.2029 92.7219 16.7443C92.408 16.2827 92.2434 15.7118 92.228 15.0316H94.1623C94.1838 15.3486 94.2746 15.6133 94.4347 15.8256C94.5978 16.0349 94.8147 16.1934 95.0856 16.3011C95.3595 16.4058 95.6688 16.4581 96.0135 16.4581C96.352 16.4581 96.646 16.4089 96.8952 16.3104C97.1476 16.2119 97.343 16.0749 97.4815 15.8995C97.62 15.7241 97.6893 15.5225 97.6893 15.2947C97.6893 15.0824 97.6262 14.9039 97.5 14.7592C97.3769 14.6146 97.1953 14.4915 96.9553 14.3899C96.7183 14.2884 96.4274 14.196 96.0827 14.1129L95.0533 13.8544C94.2562 13.6605 93.6268 13.3574 93.1651 12.945C92.7035 12.5326 92.4742 11.977 92.4773 11.2784C92.4742 10.706 92.6265 10.2058 92.9343 9.77805C93.2451 9.35026 93.6714 9.01634 94.2131 8.77628C94.7547 8.53622 95.3703 8.41619 96.0597 8.41619C96.7614 8.41619 97.3738 8.53622 97.897 8.77628C98.4233 9.01634 98.8326 9.35026 99.125 9.77805C99.4174 10.2058 99.5682 10.7013 99.5774 11.2646H97.6616Z" fill="#FFFCFF"/>
</svg>
