<svg width="114" height="26" viewBox="0 0 114 26" fill="none" xmlns="http://www.w3.org/2000/svg">
<rect x="1" width="64" height="26" rx="6" fill="#F0C808"/>
<g clip-path="url(#clip0_1_619)">
<path fill-rule="evenodd" clip-rule="evenodd" d="M13.9791 6C10.1199 6 7 9.20833 7 13.1775C7 16.3502 8.999 19.0359 11.7721 19.9864C12.1189 20.0579 12.2459 19.832 12.2459 19.642C12.2459 19.4756 12.2344 18.9052 12.2344 18.311C10.293 18.7388 9.88871 17.4554 9.88871 17.4554C9.57671 16.6235 9.11443 16.4097 9.11443 16.4097C8.479 15.97 9.16071 15.97 9.16071 15.97C9.86557 16.0176 10.2354 16.7068 10.2354 16.7068C10.8593 17.8 11.8646 17.4911 12.269 17.3009C12.3267 16.8375 12.5117 16.5166 12.7081 16.3384C11.1597 16.172 9.53057 15.5541 9.53057 12.7971C9.53057 12.0129 9.80771 11.3712 10.2469 10.8721C10.1776 10.6939 9.93486 9.95704 10.3163 8.97077C10.3163 8.97077 10.9056 8.7806 12.2343 9.70752C12.8032 9.55041 13.3898 9.47049 13.9791 9.46981C14.5684 9.46981 15.1691 9.55308 15.7239 9.70752C17.0527 8.7806 17.642 8.97077 17.642 8.97077C18.0234 9.95704 17.7806 10.6939 17.7113 10.8721C18.162 11.3712 18.4277 12.0129 18.4277 12.7971C18.4277 15.5541 16.7986 16.1601 15.2386 16.3384C15.4929 16.5642 15.7123 16.9919 15.7123 17.6693C15.7123 18.6318 15.7009 19.4043 15.7009 19.6418C15.7009 19.832 15.828 20.0579 16.1746 19.9866C18.9477 19.0358 20.9467 16.3502 20.9467 13.1775C20.9581 9.20833 17.8269 6 13.9791 6Z" fill="#0D1117"/>
</g>
<path d="M30.9506 11.2646C30.9137 10.8922 30.7552 10.6029 30.4751 10.3967C30.1951 10.1905 29.815 10.0874 29.3349 10.0874C29.0086 10.0874 28.7332 10.1335 28.5085 10.2259C28.2839 10.3151 28.1115 10.4397 27.9915 10.5998C27.8745 10.7598 27.8161 10.9414 27.8161 11.1445C27.8099 11.3138 27.8453 11.4615 27.9222 11.5877C28.0022 11.7139 28.1115 11.8232 28.25 11.9155C28.3885 12.0047 28.5485 12.0832 28.7301 12.1509C28.9117 12.2156 29.1056 12.271 29.3118 12.3171L30.1612 12.5202C30.5736 12.6126 30.9522 12.7357 31.2969 12.8896C31.6416 13.0434 31.9401 13.2327 32.1925 13.4574C32.4448 13.6821 32.6403 13.9467 32.7788 14.2514C32.9203 14.5561 32.9927 14.9054 32.9957 15.2994C32.9927 15.878 32.8449 16.3796 32.5526 16.8043C32.2633 17.226 31.8447 17.5537 31.2969 17.7876C30.7521 18.0185 30.0951 18.1339 29.3256 18.1339C28.5624 18.1339 27.8976 18.0169 27.3313 17.783C26.7681 17.5491 26.328 17.2029 26.011 16.7443C25.6971 16.2827 25.5324 15.7118 25.517 15.0316H27.4513C27.4729 15.3486 27.5637 15.6133 27.7237 15.8256C27.8868 16.0349 28.1038 16.1934 28.3746 16.3011C28.6486 16.4058 28.9579 16.4581 29.3026 16.4581C29.6411 16.4581 29.935 16.4089 30.1843 16.3104C30.4367 16.2119 30.6321 16.0749 30.7706 15.8995C30.9091 15.7241 30.9783 15.5225 30.9783 15.2947C30.9783 15.0824 30.9152 14.9039 30.7891 14.7592C30.666 14.6146 30.4844 14.4915 30.2443 14.3899C30.0073 14.2884 29.7165 14.196 29.3718 14.1129L28.3423 13.8544C27.5452 13.6605 26.9158 13.3574 26.4542 12.945C25.9925 12.5326 25.7633 11.977 25.7663 11.2784C25.7633 10.706 25.9156 10.2058 26.2234 9.77805C26.5342 9.35026 26.9605 9.01634 27.5021 8.77628C28.0438 8.53622 28.6593 8.41619 29.3487 8.41619C30.0504 8.41619 30.6629 8.53622 31.1861 8.77628C31.7124 9.01634 32.1217 9.35026 32.4141 9.77805C32.7064 10.2058 32.8572 10.7013 32.8665 11.2646H30.9506ZM38.075 10.9091V12.3864H33.8048V10.9091H38.075ZM34.7742 9.21023H36.7409V15.821C36.7409 16.0026 36.7686 16.1442 36.824 16.2457C36.8794 16.3442 36.9563 16.4135 37.0548 16.4535C37.1563 16.4935 37.2733 16.5135 37.4056 16.5135C37.498 16.5135 37.5903 16.5058 37.6826 16.4904C37.7749 16.4719 37.8457 16.4581 37.895 16.4489L38.2043 17.9123C38.1058 17.9431 37.9673 17.9785 37.7888 18.0185C37.6103 18.0616 37.3933 18.0877 37.1379 18.0969C36.6639 18.1154 36.2484 18.0523 35.8914 17.9077C35.5375 17.763 35.262 17.5384 35.0651 17.2337C34.8681 16.929 34.7712 16.5443 34.7742 16.0795V9.21023ZM41.3781 18.1339C40.9257 18.1339 40.5225 18.0554 40.1686 17.8984C39.8147 17.7384 39.5346 17.503 39.3284 17.1921C39.1253 16.8782 39.0237 16.4873 39.0237 16.0195C39.0237 15.6256 39.096 15.2947 39.2407 15.027C39.3853 14.7592 39.5823 14.5438 39.8316 14.3807C40.0809 14.2176 40.364 14.0945 40.681 14.0114C41.0011 13.9283 41.3366 13.8698 41.6874 13.8359C42.0998 13.7929 42.4322 13.7528 42.6846 13.7159C42.9369 13.6759 43.1201 13.6174 43.2339 13.5405C43.3478 13.4635 43.4047 13.3497 43.4047 13.1989V13.1712C43.4047 12.8788 43.3124 12.6526 43.1278 12.4925C42.9462 12.3325 42.6876 12.2525 42.3522 12.2525C41.9983 12.2525 41.7166 12.331 41.5074 12.4879C41.2981 12.6418 41.1596 12.8357 41.0919 13.0696L39.273 12.9219C39.3653 12.491 39.5469 12.1186 39.8177 11.8047C40.0886 11.4877 40.4379 11.2446 40.8657 11.0753C41.2965 10.9029 41.7951 10.8168 42.3614 10.8168C42.7554 10.8168 43.1324 10.8629 43.4925 10.9553C43.8556 11.0476 44.1772 11.1907 44.4573 11.3846C44.7404 11.5785 44.9636 11.8278 45.1267 12.1325C45.2898 12.4341 45.3714 12.7957 45.3714 13.2173V18H43.5063V17.0167H43.4509C43.337 17.2383 43.1847 17.4337 42.9939 17.603C42.8031 17.7692 42.5738 17.9 42.306 17.9954C42.0383 18.0877 41.729 18.1339 41.3781 18.1339ZM41.9413 16.7766C42.2306 16.7766 42.4861 16.7197 42.7077 16.6058C42.9292 16.4889 43.1031 16.3319 43.2293 16.1349C43.3555 15.938 43.4186 15.7148 43.4186 15.4656V14.7131C43.357 14.7531 43.2724 14.79 43.1647 14.8239C43.06 14.8546 42.9416 14.8839 42.8092 14.9116C42.6769 14.9362 42.5445 14.9593 42.4122 14.9808C42.2799 14.9993 42.1598 15.0162 42.0521 15.0316C41.8213 15.0655 41.6197 15.1193 41.4474 15.1932C41.275 15.267 41.1411 15.3671 41.0457 15.4933C40.9503 15.6164 40.9026 15.7702 40.9026 15.9549C40.9026 16.2227 40.9996 16.4273 41.1934 16.5689C41.3904 16.7074 41.6397 16.7766 41.9413 16.7766ZM46.8971 18V10.9091H48.8037V12.1463H48.8776C49.0068 11.7062 49.2238 11.3738 49.5285 11.1491C49.8332 10.9214 50.184 10.8075 50.5811 10.8075C50.6795 10.8075 50.7857 10.8137 50.8996 10.826C51.0135 10.8383 51.1135 10.8552 51.1997 10.8768V12.6218C51.1073 12.5941 50.9796 12.5695 50.8165 12.5479C50.6534 12.5264 50.5041 12.5156 50.3687 12.5156C50.0794 12.5156 49.8209 12.5787 49.5931 12.7049C49.3685 12.828 49.19 13.0004 49.0576 13.2219C48.9284 13.4435 48.8637 13.699 48.8637 13.9883V18H46.8971ZM58.1163 12.9311L56.3159 13.0419C56.2851 12.888 56.2189 12.7495 56.1174 12.6264C56.0158 12.5002 55.8819 12.4002 55.7157 12.3263C55.5526 12.2494 55.3572 12.2109 55.1294 12.2109C54.8248 12.2109 54.5678 12.2756 54.3585 12.4048C54.1492 12.531 54.0446 12.7003 54.0446 12.9126C54.0446 13.0819 54.1123 13.225 54.2477 13.342C54.3831 13.4589 54.6155 13.5528 54.9448 13.6236L56.2282 13.8821C56.9176 14.0237 57.4315 14.2514 57.7701 14.5653C58.1086 14.8793 58.2779 15.2917 58.2779 15.8026C58.2779 16.2673 58.1409 16.6751 57.867 17.0259C57.5962 17.3768 57.2238 17.6507 56.7498 17.8477C56.2789 18.0415 55.7357 18.1385 55.1202 18.1385C54.1815 18.1385 53.4337 17.9431 52.8766 17.5522C52.3226 17.1583 51.9979 16.6228 51.9025 15.9457L53.8368 15.8441C53.8953 16.1303 54.0369 16.3488 54.2615 16.4996C54.4862 16.6474 54.774 16.7212 55.1248 16.7212C55.4695 16.7212 55.7465 16.6551 55.9558 16.5227C56.1681 16.3873 56.2759 16.2134 56.2789 16.0011C56.2759 15.8226 56.2005 15.6764 56.0527 15.5625C55.905 15.4455 55.6773 15.3563 55.3695 15.2947L54.1415 15.0501C53.449 14.9116 52.9335 14.6715 52.595 14.3299C52.2595 13.9883 52.0918 13.5528 52.0918 13.0234C52.0918 12.5679 52.2149 12.1755 52.4611 11.8462C52.7104 11.5169 53.0597 11.263 53.5091 11.0845C53.9615 10.906 54.4908 10.8168 55.0971 10.8168C55.9927 10.8168 56.6975 11.006 57.2115 11.3846C57.7285 11.7631 58.0301 12.2786 58.1163 12.9311Z" fill="#0D1117"/>
<rect x="69.58" width="43" height="26" rx="6" fill="#F0C808"/>
<path d="M79.4596 8.54545V18H77.4607V10.4428H77.4053L75.2402 11.8001V10.0273L77.5807 8.54545H79.4596ZM81.5636 16.3381V14.7638L85.5107 8.54545H86.8679V10.7244H86.0646L83.5764 14.6623V14.7362H89.1854V16.3381H81.5636ZM86.1016 18V15.858L86.1385 15.1609V8.54545H88.0128V18H86.1016ZM94.2243 18.2077C93.4302 18.2047 92.747 18.0092 92.1746 17.6214C91.6052 17.2337 91.1666 16.672 90.8589 15.9364C90.5542 15.2009 90.4034 14.3161 90.4064 13.282C90.4064 12.2509 90.5588 11.3723 90.8635 10.646C91.1712 9.91963 91.6098 9.36719 92.1792 8.98864C92.7516 8.60701 93.4333 8.41619 94.2243 8.41619C95.0152 8.41619 95.6954 8.60701 96.2648 8.98864C96.8372 9.37026 97.2773 9.92424 97.5851 10.6506C97.8928 11.3738 98.0452 12.2509 98.0421 13.282C98.0421 14.3191 97.8882 15.2055 97.5804 15.9411C97.2758 16.6766 96.8387 17.2383 96.2694 17.6261C95.7 18.0138 95.0183 18.2077 94.2243 18.2077ZM94.2243 16.5504C94.7659 16.5504 95.1983 16.2781 95.5215 15.7333C95.8447 15.1886 96.0047 14.3714 96.0016 13.282C96.0016 12.5649 95.9277 11.9678 95.78 11.4908C95.6354 11.0137 95.4292 10.6552 95.1614 10.4151C94.8967 10.1751 94.5844 10.055 94.2243 10.055C93.6857 10.055 93.2548 10.3243 92.9317 10.8629C92.6085 11.4015 92.4454 12.2079 92.4423 13.282C92.4423 14.0083 92.5146 14.6146 92.6593 15.1009C92.807 15.584 93.0147 15.9472 93.2825 16.1903C93.5503 16.4304 93.8642 16.5504 94.2243 16.5504Z" fill="#0D1117"/>
<path d="M102.421 16.729V10.8846H103.21V16.729H102.421ZM99.8911 14.1992V13.4144H105.74V14.1992H99.8911Z" fill="#0D1117"/>
<path d="M67.6541 14.0904C67.0276 13.4984 67.0276 12.5016 67.6541 11.9096L72.2199 7.59611C73.1764 6.69242 74.75 7.37055 74.75 8.68646L74.75 17.3135C74.75 18.6295 73.1764 19.3076 72.2199 18.4039L67.6541 14.0904Z" fill="#F0C808"/>
<defs>
<clipPath id="clip0_1_619">
<rect width="14" height="14" fill="white" transform="translate(7 6)"/>
</clipPath>
</defs>
</svg>
