<svg width="176" height="26" viewBox="0 0 176 26" fill="none" xmlns="http://www.w3.org/2000/svg">
<path d="M1 12C1 6.34315 1 3.51472 2.75736 1.75736C4.51472 0 7.34315 0 13 0H60V26H13C7.34315 26 4.51472 26 2.75736 24.2426C1 22.4853 1 19.6569 1 14V12Z" fill="#3F3F3F"/>
<path d="M8.52983 8.54545L10.815 15.7287H10.9027L13.1925 8.54545H15.4084L12.1491 18H9.57315L6.3093 8.54545H8.52983ZM18.9411 18.1385C18.2117 18.1385 17.5839 17.9908 17.0576 17.6953C16.5344 17.3968 16.1312 16.9751 15.8481 16.4304C15.565 15.8826 15.4234 15.2347 15.4234 14.4869C15.4234 13.7575 15.565 13.1173 15.8481 12.5664C16.1312 12.0155 16.5298 11.5862 17.0438 11.2784C17.5608 10.9706 18.1671 10.8168 18.8627 10.8168C19.3305 10.8168 19.766 10.8922 20.1691 11.043C20.5754 11.1907 20.9293 11.4138 21.2309 11.7124C21.5356 12.0109 21.7726 12.3864 21.9419 12.8388C22.1111 13.2881 22.1958 13.8144 22.1958 14.4176V14.9577H16.2082V13.739H20.3445C20.3445 13.4558 20.283 13.205 20.1599 12.9865C20.0368 12.768 19.866 12.5972 19.6475 12.4741C19.432 12.3479 19.1812 12.2848 18.895 12.2848C18.5964 12.2848 18.3318 12.354 18.1009 12.4925C17.8732 12.628 17.6947 12.8111 17.5654 13.0419C17.4362 13.2696 17.37 13.5236 17.3669 13.8036V14.9624C17.3669 15.3132 17.4316 15.6164 17.5608 15.8718C17.6932 16.1272 17.8794 16.3242 18.1194 16.4627C18.3595 16.6012 18.6441 16.6705 18.9735 16.6705C19.192 16.6705 19.392 16.6397 19.5736 16.5781C19.7552 16.5166 19.9106 16.4242 20.0399 16.3011C20.1691 16.178 20.2676 16.0272 20.3353 15.8487L22.1542 15.9688C22.0619 16.4058 21.8726 16.7874 21.5864 17.1136C21.3032 17.4368 20.937 17.6892 20.4877 17.8707C20.0414 18.0492 19.5259 18.1385 18.9411 18.1385ZM23.4791 18V10.9091H25.3857V12.1463H25.4596C25.5889 11.7062 25.8058 11.3738 26.1105 11.1491C26.4152 10.9214 26.7661 10.8075 27.1631 10.8075C27.2616 10.8075 27.3677 10.8137 27.4816 10.826C27.5955 10.8383 27.6955 10.8552 27.7817 10.8768V12.6218C27.6894 12.5941 27.5616 12.5695 27.3985 12.5479C27.2354 12.5264 27.0861 12.5156 26.9507 12.5156C26.6614 12.5156 26.4029 12.5787 26.1752 12.7049C25.9505 12.828 25.772 13.0004 25.6396 13.2219C25.5104 13.4435 25.4458 13.699 25.4458 13.9883V18H23.4791ZM34.6983 12.9311L32.8979 13.0419C32.8671 12.888 32.801 12.7495 32.6994 12.6264C32.5978 12.5002 32.464 12.4002 32.2978 12.3263C32.1346 12.2494 31.9392 12.2109 31.7115 12.2109C31.4068 12.2109 31.1498 12.2756 30.9405 12.4048C30.7312 12.531 30.6266 12.7003 30.6266 12.9126C30.6266 13.0819 30.6943 13.225 30.8297 13.342C30.9651 13.4589 31.1975 13.5528 31.5268 13.6236L32.8102 13.8821C33.4996 14.0237 34.0136 14.2514 34.3521 14.5653C34.6906 14.8793 34.8599 15.2917 34.8599 15.8026C34.8599 16.2673 34.723 16.6751 34.449 17.0259C34.1782 17.3768 33.8058 17.6507 33.3319 17.8477C32.861 18.0415 32.3178 18.1385 31.7022 18.1385C30.7636 18.1385 30.0157 17.9431 29.4586 17.5522C28.9047 17.1583 28.58 16.6228 28.4846 15.9457L30.4189 15.8441C30.4773 16.1303 30.6189 16.3488 30.8436 16.4996C31.0682 16.6474 31.356 16.7212 31.7069 16.7212C32.0516 16.7212 32.3285 16.6551 32.5378 16.5227C32.7502 16.3873 32.8579 16.2134 32.861 16.0011C32.8579 15.8226 32.7825 15.6764 32.6348 15.5625C32.487 15.4455 32.2593 15.3563 31.9515 15.2947L30.7235 15.0501C30.0311 14.9116 29.5156 14.6715 29.177 14.3299C28.8416 13.9883 28.6738 13.5528 28.6738 13.0234C28.6738 12.5679 28.7969 12.1755 29.0431 11.8462C29.2924 11.5169 29.6417 11.263 30.0911 11.0845C30.5435 10.906 31.0729 10.8168 31.6792 10.8168C32.5748 10.8168 33.2795 11.006 33.7935 11.3846C34.3105 11.7631 34.6122 12.2786 34.6983 12.9311ZM36.0983 18V10.9091H38.0649V18H36.0983ZM37.0862 9.99503C36.7938 9.99503 36.543 9.89808 36.3337 9.70419C36.1275 9.50722 36.0244 9.27178 36.0244 8.99787C36.0244 8.72704 36.1275 8.49467 36.3337 8.30078C36.543 8.10381 36.7938 8.00533 37.0862 8.00533C37.3786 8.00533 37.6279 8.10381 37.8341 8.30078C38.0434 8.49467 38.148 8.72704 38.148 8.99787C38.148 9.27178 38.0434 9.50722 37.8341 9.70419C37.6279 9.89808 37.3786 9.99503 37.0862 9.99503ZM42.8441 18.1385C42.127 18.1385 41.5069 17.9862 40.9837 17.6815C40.4635 17.3737 40.0619 16.9459 39.7788 16.3981C39.4956 15.8472 39.354 15.2086 39.354 14.4822C39.354 13.7498 39.4956 13.1096 39.7788 12.5618C40.0619 12.0109 40.4635 11.5831 40.9837 11.2784C41.5069 10.9706 42.127 10.8168 42.8441 10.8168C43.5612 10.8168 44.1798 10.9706 44.6999 11.2784C45.2231 11.5831 45.6263 12.0109 45.9094 12.5618C46.1926 13.1096 46.3342 13.7498 46.3342 14.4822C46.3342 15.2086 46.1926 15.8472 45.9094 16.3981C45.6263 16.9459 45.2231 17.3737 44.6999 17.6815C44.1798 17.9862 43.5612 18.1385 42.8441 18.1385ZM42.8533 16.6151C43.1796 16.6151 43.4519 16.5227 43.6705 16.3381C43.889 16.1503 44.0536 15.8949 44.1644 15.5717C44.2783 15.2486 44.3352 14.8808 44.3352 14.4684C44.3352 14.056 44.2783 13.6882 44.1644 13.3651C44.0536 13.0419 43.889 12.7865 43.6705 12.5987C43.4519 12.411 43.1796 12.3171 42.8533 12.3171C42.524 12.3171 42.247 12.411 42.0224 12.5987C41.8008 12.7865 41.633 13.0419 41.5192 13.3651C41.4084 13.6882 41.353 14.056 41.353 14.4684C41.353 14.8808 41.4084 15.2486 41.5192 15.5717C41.633 15.8949 41.8008 16.1503 42.0224 16.3381C42.247 16.5227 42.524 16.6151 42.8533 16.6151ZM49.5795 13.9006V18H47.6129V10.9091H49.4872V12.1602H49.5703C49.7273 11.7478 49.9904 11.4215 50.3597 11.1815C50.729 10.9383 51.1768 10.8168 51.7031 10.8168C52.1955 10.8168 52.6249 10.9245 52.9911 11.1399C53.3574 11.3554 53.642 11.6631 53.8452 12.0632C54.0483 12.4602 54.1499 12.9342 54.1499 13.4851V18H52.1832V13.8359C52.1863 13.402 52.0755 13.0634 51.8509 12.8203C51.6262 12.5741 51.3169 12.451 50.9229 12.451C50.6583 12.451 50.4244 12.5079 50.2212 12.6218C50.0212 12.7357 49.8642 12.9019 49.7504 13.1204C49.6396 13.3358 49.5826 13.5959 49.5795 13.9006Z" fill="white"/>
<rect width="41" height="26" transform="translate(60)" fill="#533DA3"/>
<path d="M69.4734 18.2077C68.6793 18.2047 67.9961 18.0092 67.4237 17.6214C66.8543 17.2337 66.4157 16.672 66.108 15.9364C65.8033 15.2009 65.6525 14.3161 65.6555 13.282C65.6555 12.2509 65.8079 11.3723 66.1126 10.646C66.4203 9.91963 66.8589 9.36719 67.4283 8.98864C68.0007 8.60701 68.6824 8.41619 69.4734 8.41619C70.2643 8.41619 70.9445 8.60701 71.5138 8.98864C72.0863 9.37026 72.5264 9.92424 72.8342 10.6506C73.1419 11.3738 73.2943 12.2509 73.2912 13.282C73.2912 14.3191 73.1373 15.2055 72.8295 15.9411C72.5249 16.6766 72.0878 17.2383 71.5185 17.6261C70.9491 18.0138 70.2674 18.2077 69.4734 18.2077ZM69.4734 16.5504C70.015 16.5504 70.4474 16.2781 70.7706 15.7333C71.0938 15.1886 71.2538 14.3714 71.2507 13.282C71.2507 12.5649 71.1768 11.9678 71.0291 11.4908C70.8845 11.0137 70.6783 10.6552 70.4105 10.4151C70.1458 10.1751 69.8335 10.055 69.4734 10.055C68.9348 10.055 68.5039 10.3243 68.1808 10.8629C67.8576 11.4015 67.6945 12.2079 67.6914 13.282C67.6914 14.0083 67.7637 14.6146 67.9084 15.1009C68.0561 15.584 68.2638 15.9472 68.5316 16.1903C68.7994 16.4304 69.1133 16.5504 69.4734 16.5504ZM75.5036 18.12C75.199 18.12 74.9374 18.0123 74.7188 17.7969C74.5034 17.5784 74.3957 17.3168 74.3957 17.0121C74.3957 16.7105 74.5034 16.4519 74.7188 16.2365C74.9374 16.0211 75.199 15.9134 75.5036 15.9134C75.7991 15.9134 76.0576 16.0211 76.2792 16.2365C76.5008 16.4519 76.6116 16.7105 76.6116 17.0121C76.6116 17.2152 76.5593 17.4014 76.4546 17.5707C76.3531 17.7369 76.2192 17.8707 76.053 17.9723C75.8868 18.0708 75.7037 18.12 75.5036 18.12ZM78.0646 16.3381V14.7638L82.0117 8.54545H83.369V10.7244H82.5657L80.0774 14.6623V14.7362H85.6864V16.3381H78.0646ZM82.6026 18V15.858L82.6396 15.1609V8.54545H84.5138V18H82.6026ZM88.0085 18.12C87.7038 18.12 87.4422 18.0123 87.2237 17.7969C87.0083 17.5784 86.9006 17.3168 86.9006 17.0121C86.9006 16.7105 87.0083 16.4519 87.2237 16.2365C87.4422 16.0211 87.7038 15.9134 88.0085 15.9134C88.304 15.9134 88.5625 16.0211 88.7841 16.2365C89.0057 16.4519 89.1165 16.7105 89.1165 17.0121C89.1165 17.2152 89.0642 17.4014 88.9595 17.5707C88.858 17.7369 88.7241 17.8707 88.5579 17.9723C88.3917 18.0708 88.2086 18.12 88.0085 18.12ZM93.6452 8.54545V18H91.6463V10.4428H91.5909L89.4258 11.8001V10.0273L91.7663 8.54545H93.6452Z" fill="white"/>
<path d="M101 0H163C168.657 0 171.485 0 173.243 1.75736C175 3.51472 175 6.34315 175 12V14C175 19.6569 175 22.4853 173.243 24.2426C171.485 26 168.657 26 163 26H101V0Z" fill="#6C4FD4"/>
<path d="M106.822 8.54545H109.287L111.891 14.8977H112.001L114.605 8.54545H117.07V18H115.131V11.8462H115.053L112.606 17.9538H111.286L108.839 11.8232H108.761V18H106.822V8.54545ZM120.702 18.1339C120.25 18.1339 119.847 18.0554 119.493 17.8984C119.139 17.7384 118.859 17.503 118.653 17.1921C118.449 16.8782 118.348 16.4873 118.348 16.0195C118.348 15.6256 118.42 15.2947 118.565 15.027C118.71 14.7592 118.907 14.5438 119.156 14.3807C119.405 14.2176 119.688 14.0945 120.005 14.0114C120.325 13.9283 120.661 13.8698 121.012 13.8359C121.424 13.7929 121.756 13.7528 122.009 13.7159C122.261 13.6759 122.444 13.6174 122.558 13.5405C122.672 13.4635 122.729 13.3497 122.729 13.1989V13.1712C122.729 12.8788 122.637 12.6526 122.452 12.4925C122.27 12.3325 122.012 12.2525 121.676 12.2525C121.322 12.2525 121.041 12.331 120.832 12.4879C120.622 12.6418 120.484 12.8357 120.416 13.0696L118.597 12.9219C118.69 12.491 118.871 12.1186 119.142 11.8047C119.413 11.4877 119.762 11.2446 120.19 11.0753C120.621 10.9029 121.119 10.8168 121.686 10.8168C122.08 10.8168 122.457 10.8629 122.817 10.9553C123.18 11.0476 123.501 11.1907 123.782 11.3846C124.065 11.5785 124.288 11.8278 124.451 12.1325C124.614 12.4341 124.696 12.7957 124.696 13.2173V18H122.831V17.0167H122.775C122.661 17.2383 122.509 17.4337 122.318 17.603C122.127 17.7692 121.898 17.9 121.63 17.9954C121.362 18.0877 121.053 18.1339 120.702 18.1339ZM121.266 16.7766C121.555 16.7766 121.81 16.7197 122.032 16.6058C122.253 16.4889 122.427 16.3319 122.554 16.1349C122.68 15.938 122.743 15.7148 122.743 15.4656V14.7131C122.681 14.7531 122.597 14.79 122.489 14.8239C122.384 14.8546 122.266 14.8839 122.133 14.9116C122.001 14.9362 121.869 14.9593 121.736 14.9808C121.604 14.9993 121.484 15.0162 121.376 15.0316C121.146 15.0655 120.944 15.1193 120.772 15.1932C120.599 15.267 120.465 15.3671 120.37 15.4933C120.275 15.6164 120.227 15.7702 120.227 15.9549C120.227 16.2227 120.324 16.4273 120.518 16.5689C120.715 16.7074 120.964 16.7766 121.266 16.7766ZM127.182 20.6591C126.932 20.6591 126.698 20.6391 126.48 20.5991C126.264 20.5621 126.086 20.5144 125.944 20.456L126.388 18.9879C126.618 19.0587 126.826 19.0972 127.011 19.1033C127.198 19.1095 127.36 19.0664 127.495 18.9741C127.634 18.8817 127.746 18.7248 127.832 18.5032L127.948 18.2031L125.404 10.9091H127.472L128.94 16.1165H129.014L130.496 10.9091H132.578L129.822 18.7663C129.69 19.148 129.51 19.4804 129.282 19.7635C129.057 20.0497 128.773 20.2698 128.428 20.4237C128.083 20.5806 127.668 20.6591 127.182 20.6591ZM136.575 18V16.5597L139.94 13.4435C140.227 13.1665 140.467 12.9173 140.661 12.6957C140.857 12.4741 141.007 12.2571 141.108 12.0447C141.21 11.8293 141.261 11.5969 141.261 11.3477C141.261 11.0707 141.198 10.8321 141.071 10.6321C140.945 10.429 140.773 10.2736 140.554 10.1658C140.336 10.055 140.088 9.99964 139.811 9.99964C139.522 9.99964 139.269 10.0581 139.054 10.1751C138.839 10.292 138.672 10.4598 138.555 10.6783C138.438 10.8968 138.38 11.1568 138.38 11.4585H136.483C136.483 10.8398 136.623 10.3028 136.903 9.8473C137.183 9.39181 137.575 9.03942 138.08 8.79013C138.585 8.54084 139.166 8.41619 139.825 8.41619C140.502 8.41619 141.091 8.53622 141.593 8.77628C142.098 9.01326 142.49 9.34257 142.77 9.7642C143.05 10.1858 143.19 10.669 143.19 11.2138C143.19 11.5708 143.12 11.9232 142.978 12.271C142.839 12.6187 142.592 13.005 142.235 13.4297C141.878 13.8513 141.375 14.3576 140.725 14.9485L139.345 16.3011V16.3658H143.315V18H136.575ZM148.47 18.2077C147.676 18.2047 146.993 18.0092 146.421 17.6214C145.851 17.2337 145.413 16.672 145.105 15.9364C144.8 15.2009 144.65 14.3161 144.653 13.282C144.653 12.2509 144.805 11.3723 145.11 10.646C145.417 9.91963 145.856 9.36719 146.425 8.98864C146.998 8.60701 147.679 8.41619 148.47 8.41619C149.261 8.41619 149.942 8.60701 150.511 8.98864C151.083 9.37026 151.523 9.92424 151.831 10.6506C152.139 11.3738 152.291 12.2509 152.288 13.282C152.288 14.3191 152.134 15.2055 151.827 15.9411C151.522 16.6766 151.085 17.2383 150.516 17.6261C149.946 18.0138 149.264 18.2077 148.47 18.2077ZM148.47 16.5504C149.012 16.5504 149.445 16.2781 149.768 15.7333C150.091 15.1886 150.251 14.3714 150.248 13.282C150.248 12.5649 150.174 11.9678 150.026 11.4908C149.882 11.0137 149.675 10.6552 149.408 10.4151C149.143 10.1751 148.831 10.055 148.47 10.055C147.932 10.055 147.501 10.3243 147.178 10.8629C146.855 11.4015 146.692 12.2079 146.688 13.282C146.688 14.0083 146.761 14.6146 146.905 15.1009C147.053 15.584 147.261 15.9472 147.529 16.1903C147.796 16.4304 148.11 16.5504 148.47 16.5504ZM153.714 18V16.5597L157.079 13.4435C157.365 13.1665 157.605 12.9173 157.799 12.6957C157.996 12.4741 158.145 12.2571 158.247 12.0447C158.349 11.8293 158.399 11.5969 158.399 11.3477C158.399 11.0707 158.336 10.8321 158.21 10.6321C158.084 10.429 157.912 10.2736 157.693 10.1658C157.474 10.055 157.227 9.99964 156.95 9.99964C156.66 9.99964 156.408 10.0581 156.193 10.1751C155.977 10.292 155.811 10.4598 155.694 10.6783C155.577 10.8968 155.519 11.1568 155.519 11.4585H153.621C153.621 10.8398 153.761 10.3028 154.041 9.8473C154.321 9.39181 154.714 9.03942 155.219 8.79013C155.723 8.54084 156.305 8.41619 156.964 8.41619C157.641 8.41619 158.23 8.53622 158.732 8.77628C159.236 9.01326 159.629 9.34257 159.909 9.7642C160.189 10.1858 160.329 10.669 160.329 11.2138C160.329 11.5708 160.258 11.9232 160.117 12.271C159.978 12.6187 159.73 13.005 159.373 13.4297C159.016 13.8513 158.513 14.3576 157.864 14.9485L156.483 16.3011V16.3658H160.454V18H153.714ZM161.556 16.3381V14.7638L165.503 8.54545H166.86V10.7244H166.057L163.569 14.6623V14.7362H169.178V16.3381H161.556ZM166.094 18V15.858L166.131 15.1609V8.54545H168.005V18H166.094Z" fill="white"/>
</svg>
