<svg width="185" height="26" viewBox="0 0 185 26" fill="none" xmlns="http://www.w3.org/2000/svg">
<path d="M2 12C2 6.34315 2 3.51472 3.75736 1.75736C5.51472 0 8.34315 0 14 0H61V26H14C8.34315 26 5.51472 26 3.75736 24.2426C2 22.4853 2 19.6569 2 14V12Z" fill="#3F3F3F"/>
<path d="M9.52983 8.54545L11.815 15.7287H11.9027L14.1925 8.54545H16.4084L13.1491 18H10.5732L7.3093 8.54545H9.52983ZM19.9411 18.1385C19.2117 18.1385 18.5839 17.9908 18.0576 17.6953C17.5344 17.3968 17.1312 16.9751 16.8481 16.4304C16.565 15.8826 16.4234 15.2347 16.4234 14.4869C16.4234 13.7575 16.565 13.1173 16.8481 12.5664C17.1312 12.0155 17.5298 11.5862 18.0438 11.2784C18.5608 10.9706 19.1671 10.8168 19.8627 10.8168C20.3305 10.8168 20.766 10.8922 21.1691 11.043C21.5754 11.1907 21.9293 11.4138 22.2309 11.7124C22.5356 12.0109 22.7726 12.3864 22.9419 12.8388C23.1111 13.2881 23.1958 13.8144 23.1958 14.4176V14.9577H17.2082V13.739H21.3445C21.3445 13.4558 21.283 13.205 21.1599 12.9865C21.0368 12.768 20.866 12.5972 20.6475 12.4741C20.432 12.3479 20.1812 12.2848 19.895 12.2848C19.5964 12.2848 19.3318 12.354 19.1009 12.4925C18.8732 12.628 18.6947 12.8111 18.5654 13.0419C18.4362 13.2696 18.37 13.5236 18.3669 13.8036V14.9624C18.3669 15.3132 18.4316 15.6164 18.5608 15.8718C18.6932 16.1272 18.8794 16.3242 19.1194 16.4627C19.3595 16.6012 19.6441 16.6705 19.9735 16.6705C20.192 16.6705 20.392 16.6397 20.5736 16.5781C20.7552 16.5166 20.9106 16.4242 21.0399 16.3011C21.1691 16.178 21.2676 16.0272 21.3353 15.8487L23.1542 15.9688C23.0619 16.4058 22.8726 16.7874 22.5864 17.1136C22.3032 17.4368 21.937 17.6892 21.4877 17.8707C21.0414 18.0492 20.5259 18.1385 19.9411 18.1385ZM24.4791 18V10.9091H26.3857V12.1463H26.4596C26.5889 11.7062 26.8058 11.3738 27.1105 11.1491C27.4152 10.9214 27.7661 10.8075 28.1631 10.8075C28.2616 10.8075 28.3677 10.8137 28.4816 10.826C28.5955 10.8383 28.6955 10.8552 28.7817 10.8768V12.6218C28.6894 12.5941 28.5616 12.5695 28.3985 12.5479C28.2354 12.5264 28.0861 12.5156 27.9507 12.5156C27.6614 12.5156 27.4029 12.5787 27.1752 12.7049C26.9505 12.828 26.772 13.0004 26.6396 13.2219C26.5104 13.4435 26.4458 13.699 26.4458 13.9883V18H24.4791ZM35.6983 12.9311L33.8979 13.0419C33.8671 12.888 33.801 12.7495 33.6994 12.6264C33.5978 12.5002 33.464 12.4002 33.2978 12.3263C33.1346 12.2494 32.9392 12.2109 32.7115 12.2109C32.4068 12.2109 32.1498 12.2756 31.9405 12.4048C31.7312 12.531 31.6266 12.7003 31.6266 12.9126C31.6266 13.0819 31.6943 13.225 31.8297 13.342C31.9651 13.4589 32.1975 13.5528 32.5268 13.6236L33.8102 13.8821C34.4996 14.0237 35.0136 14.2514 35.3521 14.5653C35.6906 14.8793 35.8599 15.2917 35.8599 15.8026C35.8599 16.2673 35.723 16.6751 35.449 17.0259C35.1782 17.3768 34.8058 17.6507 34.3319 17.8477C33.861 18.0415 33.3178 18.1385 32.7022 18.1385C31.7636 18.1385 31.0157 17.9431 30.4586 17.5522C29.9047 17.1583 29.58 16.6228 29.4846 15.9457L31.4189 15.8441C31.4773 16.1303 31.6189 16.3488 31.8436 16.4996C32.0682 16.6474 32.356 16.7212 32.7069 16.7212C33.0516 16.7212 33.3285 16.6551 33.5378 16.5227C33.7502 16.3873 33.8579 16.2134 33.861 16.0011C33.8579 15.8226 33.7825 15.6764 33.6348 15.5625C33.487 15.4455 33.2593 15.3563 32.9515 15.2947L31.7235 15.0501C31.0311 14.9116 30.5156 14.6715 30.177 14.3299C29.8416 13.9883 29.6738 13.5528 29.6738 13.0234C29.6738 12.5679 29.7969 12.1755 30.0431 11.8462C30.2924 11.5169 30.6417 11.263 31.0911 11.0845C31.5435 10.906 32.0729 10.8168 32.6792 10.8168C33.5748 10.8168 34.2795 11.006 34.7935 11.3846C35.3105 11.7631 35.6122 12.2786 35.6983 12.9311ZM37.0983 18V10.9091H39.0649V18H37.0983ZM38.0862 9.99503C37.7938 9.99503 37.543 9.89808 37.3337 9.70419C37.1275 9.50722 37.0244 9.27178 37.0244 8.99787C37.0244 8.72704 37.1275 8.49467 37.3337 8.30078C37.543 8.10381 37.7938 8.00533 38.0862 8.00533C38.3786 8.00533 38.6279 8.10381 38.8341 8.30078C39.0434 8.49467 39.148 8.72704 39.148 8.99787C39.148 9.27178 39.0434 9.50722 38.8341 9.70419C38.6279 9.89808 38.3786 9.99503 38.0862 9.99503ZM43.8441 18.1385C43.127 18.1385 42.5069 17.9862 41.9837 17.6815C41.4635 17.3737 41.0619 16.9459 40.7788 16.3981C40.4956 15.8472 40.354 15.2086 40.354 14.4822C40.354 13.7498 40.4956 13.1096 40.7788 12.5618C41.0619 12.0109 41.4635 11.5831 41.9837 11.2784C42.5069 10.9706 43.127 10.8168 43.8441 10.8168C44.5612 10.8168 45.1798 10.9706 45.6999 11.2784C46.2231 11.5831 46.6263 12.0109 46.9094 12.5618C47.1926 13.1096 47.3342 13.7498 47.3342 14.4822C47.3342 15.2086 47.1926 15.8472 46.9094 16.3981C46.6263 16.9459 46.2231 17.3737 45.6999 17.6815C45.1798 17.9862 44.5612 18.1385 43.8441 18.1385ZM43.8533 16.6151C44.1796 16.6151 44.4519 16.5227 44.6705 16.3381C44.889 16.1503 45.0536 15.8949 45.1644 15.5717C45.2783 15.2486 45.3352 14.8808 45.3352 14.4684C45.3352 14.056 45.2783 13.6882 45.1644 13.3651C45.0536 13.0419 44.889 12.7865 44.6705 12.5987C44.4519 12.411 44.1796 12.3171 43.8533 12.3171C43.524 12.3171 43.247 12.411 43.0224 12.5987C42.8008 12.7865 42.633 13.0419 42.5192 13.3651C42.4084 13.6882 42.353 14.056 42.353 14.4684C42.353 14.8808 42.4084 15.2486 42.5192 15.5717C42.633 15.8949 42.8008 16.1503 43.0224 16.3381C43.247 16.5227 43.524 16.6151 43.8533 16.6151ZM50.5795 13.9006V18H48.6129V10.9091H50.4872V12.1602H50.5703C50.7273 11.7478 50.9904 11.4215 51.3597 11.1815C51.729 10.9383 52.1768 10.8168 52.7031 10.8168C53.1955 10.8168 53.6249 10.9245 53.9911 11.1399C54.3574 11.3554 54.642 11.6631 54.8452 12.0632C55.0483 12.4602 55.1499 12.9342 55.1499 13.4851V18H53.1832V13.8359C53.1863 13.402 53.0755 13.0634 52.8509 12.8203C52.6262 12.5741 52.3169 12.451 51.9229 12.451C51.6583 12.451 51.4244 12.5079 51.2212 12.6218C51.0212 12.7357 50.8642 12.9019 50.7504 13.1204C50.6396 13.3358 50.5826 13.5959 50.5795 13.9006Z" fill="#FFFCFF"/>
<rect width="43" height="26" transform="translate(61)" fill="#533DA3"/>
<path d="M70.4734 18.2077C69.6793 18.2047 68.9961 18.0092 68.4237 17.6214C67.8543 17.2337 67.4157 16.672 67.108 15.9364C66.8033 15.2009 66.6525 14.3161 66.6555 13.282C66.6555 12.2509 66.8079 11.3723 67.1126 10.646C67.4203 9.91963 67.8589 9.36719 68.4283 8.98864C69.0007 8.60701 69.6824 8.41619 70.4734 8.41619C71.2643 8.41619 71.9445 8.60701 72.5138 8.98864C73.0863 9.37026 73.5264 9.92424 73.8342 10.6506C74.1419 11.3738 74.2943 12.2509 74.2912 13.282C74.2912 14.3191 74.1373 15.2055 73.8295 15.9411C73.5249 16.6766 73.0878 17.2383 72.5185 17.6261C71.9491 18.0138 71.2674 18.2077 70.4734 18.2077ZM70.4734 16.5504C71.015 16.5504 71.4474 16.2781 71.7706 15.7333C72.0938 15.1886 72.2538 14.3714 72.2507 13.282C72.2507 12.5649 72.1768 11.9678 72.0291 11.4908C71.8845 11.0137 71.6783 10.6552 71.4105 10.4151C71.1458 10.1751 70.8335 10.055 70.4734 10.055C69.9348 10.055 69.5039 10.3243 69.1808 10.8629C68.8576 11.4015 68.6945 12.2079 68.6914 13.282C68.6914 14.0083 68.7637 14.6146 68.9084 15.1009C69.0561 15.584 69.2638 15.9472 69.5316 16.1903C69.7994 16.4304 70.1133 16.5504 70.4734 16.5504ZM76.5036 18.12C76.199 18.12 75.9374 18.0123 75.7188 17.7969C75.5034 17.5784 75.3957 17.3168 75.3957 17.0121C75.3957 16.7105 75.5034 16.4519 75.7188 16.2365C75.9374 16.0211 76.199 15.9134 76.5036 15.9134C76.7991 15.9134 77.0576 16.0211 77.2792 16.2365C77.5008 16.4519 77.6116 16.7105 77.6116 17.0121C77.6116 17.2152 77.5593 17.4014 77.4546 17.5707C77.3531 17.7369 77.2192 17.8707 77.053 17.9723C76.8868 18.0708 76.7037 18.12 76.5036 18.12ZM82.3977 18.1293C81.7083 18.1293 81.0943 18.0108 80.5558 17.7738C80.0202 17.5337 79.5971 17.2044 79.2862 16.7859C78.9785 16.3642 78.82 15.878 78.8107 15.3271H80.8235C80.8358 15.5579 80.9112 15.761 81.0497 15.9364C81.1913 16.1088 81.379 16.2427 81.6129 16.3381C81.8468 16.4335 82.11 16.4812 82.4023 16.4812C82.707 16.4812 82.9763 16.4273 83.2102 16.3196C83.4441 16.2119 83.6272 16.0626 83.7596 15.8718C83.8919 15.681 83.9581 15.4609 83.9581 15.2116C83.9581 14.9593 83.8873 14.7362 83.7457 14.5423C83.6072 14.3453 83.4072 14.1914 83.1456 14.0806C82.8871 13.9698 82.5793 13.9144 82.2223 13.9144H81.3406V12.4464H82.2223C82.5239 12.4464 82.7901 12.3941 83.021 12.2894C83.2549 12.1848 83.4364 12.0401 83.5657 11.8555C83.695 11.6677 83.7596 11.4492 83.7596 11.1999C83.7596 10.9629 83.7027 10.7552 83.5888 10.5767C83.478 10.3951 83.321 10.2536 83.1179 10.152C82.9179 10.0504 82.6839 9.99964 82.4162 9.99964C82.1454 9.99964 81.8976 10.0489 81.6729 10.1474C81.4483 10.2428 81.2682 10.3797 81.1328 10.5582C80.9974 10.7367 80.9251 10.946 80.9158 11.1861H79C79.0092 10.6413 79.1647 10.1612 79.4663 9.74574C79.7679 9.33026 80.1741 9.00556 80.685 8.77166C81.199 8.53468 81.7791 8.41619 82.4254 8.41619C83.0779 8.41619 83.6488 8.53468 84.1381 8.77166C84.6275 9.00864 85.0076 9.32872 85.2784 9.73189C85.5523 10.132 85.6877 10.5813 85.6847 11.0799C85.6877 11.6093 85.5231 12.0509 85.1907 12.4048C84.8614 12.7588 84.4321 12.9834 83.9027 13.0788V13.1527C84.5982 13.242 85.1276 13.4835 85.4908 13.8775C85.857 14.2683 86.0386 14.7577 86.0355 15.3455C86.0386 15.8841 85.8832 16.3627 85.5692 16.7812C85.2584 17.1998 84.8291 17.5291 84.2812 17.7692C83.7334 18.0092 83.1056 18.1293 82.3977 18.1293ZM88.3738 18.12C88.0691 18.12 87.8075 18.0123 87.589 17.7969C87.3735 17.5784 87.2658 17.3168 87.2658 17.0121C87.2658 16.7105 87.3735 16.4519 87.589 16.2365C87.8075 16.0211 88.0691 15.9134 88.3738 15.9134C88.6692 15.9134 88.9277 16.0211 89.1493 16.2365C89.3709 16.4519 89.4817 16.7105 89.4817 17.0121C89.4817 17.2152 89.4294 17.4014 89.3248 17.5707C89.2232 17.7369 89.0893 17.8707 88.9231 17.9723C88.7569 18.0708 88.5738 18.12 88.3738 18.12ZM91.0779 18V16.5597L94.4433 13.4435C94.7295 13.1665 94.9695 12.9173 95.1634 12.6957C95.3604 12.4741 95.5097 12.2571 95.6112 12.0447C95.7128 11.8293 95.7636 11.5969 95.7636 11.3477C95.7636 11.0707 95.7005 10.8321 95.5743 10.6321C95.4481 10.429 95.2758 10.2736 95.0573 10.1658C94.8387 10.055 94.591 9.99964 94.314 9.99964C94.0247 9.99964 93.7723 10.0581 93.5569 10.1751C93.3415 10.292 93.1753 10.4598 93.0583 10.6783C92.9414 10.8968 92.8829 11.1568 92.8829 11.4585H90.9855C90.9855 10.8398 91.1256 10.3028 91.4056 9.8473C91.6857 9.39181 92.0781 9.03942 92.5828 8.79013C93.0876 8.54084 93.6692 8.41619 94.3279 8.41619C95.0049 8.41619 95.5943 8.53622 96.096 8.77628C96.6007 9.01326 96.9931 9.34257 97.2732 9.7642C97.5532 10.1858 97.6933 10.669 97.6933 11.2138C97.6933 11.5708 97.6225 11.9232 97.4809 12.271C97.3424 12.6187 97.0947 13.005 96.7377 13.4297C96.3807 13.8513 95.8775 14.3576 95.2281 14.9485L93.8477 16.3011V16.3658H97.8179V18H91.0779Z" fill="#FFFCFF"/>
<path d="M104 0H171C176.657 0 179.485 0 181.243 1.75736C183 3.51472 183 6.34315 183 12V14C183 19.6569 183 22.4853 181.243 24.2426C179.485 26 176.657 26 171 26H104V0Z" fill="#6C4FD4"/>
<path d="M113.607 8.54545H115.583V15.1378C115.583 15.7472 115.446 16.2765 115.172 16.7259C114.901 17.1752 114.524 17.5214 114.041 17.7646C113.558 18.0077 112.996 18.1293 112.356 18.1293C111.787 18.1293 111.27 18.0292 110.805 17.8292C110.343 17.6261 109.977 17.3183 109.706 16.9059C109.435 16.4904 109.302 15.9687 109.305 15.3409H111.294C111.301 15.5902 111.351 15.8041 111.447 15.9826C111.545 16.158 111.679 16.2934 111.848 16.3888C112.021 16.4812 112.224 16.5273 112.458 16.5273C112.704 16.5273 112.912 16.475 113.081 16.3704C113.253 16.2627 113.384 16.1057 113.473 15.8995C113.563 15.6933 113.607 15.4394 113.607 15.1378V8.54545ZM121.746 14.9808V10.9091H123.713V18H121.825V16.712H121.751C121.591 17.1275 121.324 17.4614 120.952 17.7138C120.583 17.9661 120.132 18.0923 119.599 18.0923C119.125 18.0923 118.708 17.9846 118.348 17.7692C117.988 17.5537 117.707 17.2475 117.504 16.8505C117.304 16.4535 117.202 15.978 117.199 15.424V10.9091H119.165V15.0732C119.169 15.4917 119.281 15.8226 119.502 16.0657C119.724 16.3088 120.021 16.4304 120.393 16.4304C120.63 16.4304 120.852 16.3765 121.058 16.2688C121.264 16.158 121.431 15.9949 121.557 15.7795C121.686 15.564 121.749 15.2978 121.746 14.9808ZM127.252 13.9006V18H125.286V10.9091H127.16V12.1602H127.243C127.4 11.7478 127.663 11.4215 128.033 11.1815C128.402 10.9383 128.85 10.8168 129.376 10.8168C129.868 10.8168 130.298 10.9245 130.664 11.1399C131.03 11.3554 131.315 11.6631 131.518 12.0632C131.721 12.4602 131.823 12.9342 131.823 13.4851V18H129.856V13.8359C129.859 13.402 129.748 13.0634 129.524 12.8203C129.299 12.5741 128.99 12.451 128.596 12.451C128.331 12.451 128.097 12.5079 127.894 12.6218C127.694 12.7357 127.537 12.9019 127.423 13.1204C127.312 13.3358 127.255 13.5959 127.252 13.9006ZM136.604 18.1385C135.875 18.1385 135.247 17.9908 134.721 17.6953C134.198 17.3968 133.794 16.9751 133.511 16.4304C133.228 15.8826 133.086 15.2347 133.086 14.4869C133.086 13.7575 133.228 13.1173 133.511 12.5664C133.794 12.0155 134.193 11.5862 134.707 11.2784C135.224 10.9706 135.83 10.8168 136.526 10.8168C136.994 10.8168 137.429 10.8922 137.832 11.043C138.238 11.1907 138.592 11.4138 138.894 11.7124C139.199 12.0109 139.436 12.3864 139.605 12.8388C139.774 13.2881 139.859 13.8144 139.859 14.4176V14.9577H133.871V13.739H138.008C138.008 13.4558 137.946 13.205 137.823 12.9865C137.7 12.768 137.529 12.5972 137.311 12.4741C137.095 12.3479 136.844 12.2848 136.558 12.2848C136.26 12.2848 135.995 12.354 135.764 12.4925C135.536 12.628 135.358 12.8111 135.229 13.0419C135.099 13.2696 135.033 13.5236 135.03 13.8036V14.9624C135.03 15.3132 135.095 15.6164 135.224 15.8718C135.356 16.1272 135.542 16.3242 135.782 16.4627C136.023 16.6012 136.307 16.6705 136.637 16.6705C136.855 16.6705 137.055 16.6397 137.237 16.5781C137.418 16.5166 137.574 16.4242 137.703 16.3011C137.832 16.178 137.931 16.0272 137.998 15.8487L139.817 15.9688C139.725 16.4058 139.536 16.7874 139.249 17.1136C138.966 17.4368 138.6 17.6892 138.151 17.8707C137.704 18.0492 137.189 18.1385 136.604 18.1385ZM144.133 18V16.5597L147.498 13.4435C147.784 13.1665 148.024 12.9173 148.218 12.6957C148.415 12.4741 148.564 12.2571 148.666 12.0447C148.767 11.8293 148.818 11.5969 148.818 11.3477C148.818 11.0707 148.755 10.8321 148.629 10.6321C148.503 10.429 148.33 10.2736 148.112 10.1658C147.893 10.055 147.646 9.99964 147.369 9.99964C147.079 9.99964 146.827 10.0581 146.612 10.1751C146.396 10.292 146.23 10.4598 146.113 10.6783C145.996 10.8968 145.938 11.1568 145.938 11.4585H144.04C144.04 10.8398 144.18 10.3028 144.46 9.8473C144.74 9.39181 145.133 9.03942 145.638 8.79013C146.142 8.54084 146.724 8.41619 147.383 8.41619C148.06 8.41619 148.649 8.53622 149.151 8.77628C149.655 9.01326 150.048 9.34257 150.328 9.7642C150.608 10.1858 150.748 10.669 150.748 11.2138C150.748 11.5708 150.677 11.9232 150.536 12.271C150.397 12.6187 150.149 13.005 149.792 13.4297C149.435 13.8513 148.932 14.3576 148.283 14.9485L146.902 16.3011V16.3658H150.873V18H144.133ZM156.028 18.2077C155.234 18.2047 154.551 18.0092 153.978 17.6214C153.409 17.2337 152.97 16.672 152.663 15.9364C152.358 15.2009 152.207 14.3161 152.21 13.282C152.21 12.2509 152.363 11.3723 152.667 10.646C152.975 9.91963 153.414 9.36719 153.983 8.98864C154.555 8.60701 155.237 8.41619 156.028 8.41619C156.819 8.41619 157.499 8.60701 158.069 8.98864C158.641 9.37026 159.081 9.92424 159.389 10.6506C159.697 11.3738 159.849 12.2509 159.846 13.282C159.846 14.3191 159.692 15.2055 159.384 15.9411C159.08 16.6766 158.643 17.2383 158.073 17.6261C157.504 18.0138 156.822 18.2077 156.028 18.2077ZM156.028 16.5504C156.57 16.5504 157.002 16.2781 157.325 15.7333C157.648 15.1886 157.808 14.3714 157.805 13.282C157.805 12.5649 157.732 11.9678 157.584 11.4908C157.439 11.0137 157.233 10.6552 156.965 10.4151C156.701 10.1751 156.388 10.055 156.028 10.055C155.489 10.055 155.059 10.3243 154.735 10.8629C154.412 11.4015 154.249 12.2079 154.246 13.282C154.246 14.0083 154.318 14.6146 154.463 15.1009C154.611 15.584 154.819 15.9472 155.086 16.1903C155.354 16.4304 155.668 16.5504 156.028 16.5504ZM161.271 18V16.5597L164.637 13.4435C164.923 13.1665 165.163 12.9173 165.357 12.6957C165.554 12.4741 165.703 12.2571 165.805 12.0447C165.906 11.8293 165.957 11.5969 165.957 11.3477C165.957 11.0707 165.894 10.8321 165.768 10.6321C165.641 10.429 165.469 10.2736 165.251 10.1658C165.032 10.055 164.784 9.99964 164.507 9.99964C164.218 9.99964 163.966 10.0581 163.75 10.1751C163.535 10.292 163.369 10.4598 163.252 10.6783C163.135 10.8968 163.076 11.1568 163.076 11.4585H161.179C161.179 10.8398 161.319 10.3028 161.599 9.8473C161.879 9.39181 162.271 9.03942 162.776 8.79013C163.281 8.54084 163.863 8.41619 164.521 8.41619C165.198 8.41619 165.788 8.53622 166.289 8.77628C166.794 9.01326 167.186 9.34257 167.467 9.7642C167.747 10.1858 167.887 10.669 167.887 11.2138C167.887 11.5708 167.816 11.9232 167.674 12.271C167.536 12.6187 167.288 13.005 166.931 13.4297C166.574 13.8513 166.071 14.3576 165.421 14.9485L164.041 16.3011V16.3658H168.011V18H161.271ZM172.954 18.1293C172.265 18.1293 171.651 18.0108 171.112 17.7738C170.577 17.5337 170.154 17.2044 169.843 16.7859C169.535 16.3642 169.377 15.878 169.367 15.3271H171.38C171.392 15.5579 171.468 15.761 171.606 15.9364C171.748 16.1088 171.936 16.2427 172.17 16.3381C172.403 16.4335 172.667 16.4812 172.959 16.4812C173.264 16.4812 173.533 16.4273 173.767 16.3196C174.001 16.2119 174.184 16.0626 174.316 15.8718C174.449 15.681 174.515 15.4609 174.515 15.2116C174.515 14.9593 174.444 14.7362 174.302 14.5423C174.164 14.3453 173.964 14.1914 173.702 14.0806C173.444 13.9698 173.136 13.9144 172.779 13.9144H171.897V12.4464H172.779C173.081 12.4464 173.347 12.3941 173.578 12.2894C173.811 12.1848 173.993 12.0401 174.122 11.8555C174.252 11.6677 174.316 11.4492 174.316 11.1999C174.316 10.9629 174.259 10.7552 174.145 10.5767C174.035 10.3951 173.878 10.2536 173.675 10.152C173.474 10.0504 173.241 9.99964 172.973 9.99964C172.702 9.99964 172.454 10.0489 172.23 10.1474C172.005 10.2428 171.825 10.3797 171.689 10.5582C171.554 10.7367 171.482 10.946 171.472 11.1861H169.557C169.566 10.6413 169.721 10.1612 170.023 9.74574C170.325 9.33026 170.731 9.00556 171.242 8.77166C171.756 8.53468 172.336 8.41619 172.982 8.41619C173.635 8.41619 174.205 8.53468 174.695 8.77166C175.184 9.00864 175.564 9.32872 175.835 9.73189C176.109 10.132 176.244 10.5813 176.241 11.0799C176.244 11.6093 176.08 12.0509 175.747 12.4048C175.418 12.7588 174.989 12.9834 174.459 13.0788V13.1527C175.155 13.242 175.684 13.4835 176.047 13.8775C176.414 14.2683 176.595 14.7577 176.592 15.3455C176.595 15.8841 176.44 16.3627 176.126 16.7812C175.815 17.1998 175.386 17.5291 174.838 17.7692C174.29 18.0092 173.662 18.1293 172.954 18.1293Z" fill="#FFFCFF"/>
</svg>
