<svg width="223" height="26" viewBox="0 0 223 26" fill="none" xmlns="http://www.w3.org/2000/svg">
<path d="M1 12C1 6.34315 1 3.51472 2.75736 1.75736C4.51472 0 7.34315 0 13 0H60V26H13C7.34315 26 4.51472 26 2.75736 24.2426C1 22.4853 1 19.6569 1 14V12Z" fill="#3F3F3F"/>
<path d="M8.52983 8.54545L10.815 15.7287H10.9027L13.1925 8.54545H15.4084L12.1491 18H9.57315L6.3093 8.54545H8.52983ZM18.9411 18.1385C18.2117 18.1385 17.5839 17.9908 17.0576 17.6953C16.5344 17.3968 16.1312 16.9751 15.8481 16.4304C15.565 15.8826 15.4234 15.2347 15.4234 14.4869C15.4234 13.7575 15.565 13.1173 15.8481 12.5664C16.1312 12.0155 16.5298 11.5862 17.0438 11.2784C17.5608 10.9706 18.1671 10.8168 18.8627 10.8168C19.3305 10.8168 19.766 10.8922 20.1691 11.043C20.5754 11.1907 20.9293 11.4138 21.2309 11.7124C21.5356 12.0109 21.7726 12.3864 21.9419 12.8388C22.1111 13.2881 22.1958 13.8144 22.1958 14.4176V14.9577H16.2082V13.739H20.3445C20.3445 13.4558 20.283 13.205 20.1599 12.9865C20.0368 12.768 19.866 12.5972 19.6475 12.4741C19.432 12.3479 19.1812 12.2848 18.895 12.2848C18.5964 12.2848 18.3318 12.354 18.1009 12.4925C17.8732 12.628 17.6947 12.8111 17.5654 13.0419C17.4362 13.2696 17.37 13.5236 17.3669 13.8036V14.9624C17.3669 15.3132 17.4316 15.6164 17.5608 15.8718C17.6932 16.1272 17.8794 16.3242 18.1194 16.4627C18.3595 16.6012 18.6441 16.6705 18.9735 16.6705C19.192 16.6705 19.392 16.6397 19.5736 16.5781C19.7552 16.5166 19.9106 16.4242 20.0399 16.3011C20.1691 16.178 20.2676 16.0272 20.3353 15.8487L22.1542 15.9688C22.0619 16.4058 21.8726 16.7874 21.5864 17.1136C21.3032 17.4368 20.937 17.6892 20.4877 17.8707C20.0414 18.0492 19.5259 18.1385 18.9411 18.1385ZM23.4791 18V10.9091H25.3857V12.1463H25.4596C25.5889 11.7062 25.8058 11.3738 26.1105 11.1491C26.4152 10.9214 26.7661 10.8075 27.1631 10.8075C27.2616 10.8075 27.3677 10.8137 27.4816 10.826C27.5955 10.8383 27.6955 10.8552 27.7817 10.8768V12.6218C27.6894 12.5941 27.5616 12.5695 27.3985 12.5479C27.2354 12.5264 27.0861 12.5156 26.9507 12.5156C26.6614 12.5156 26.4029 12.5787 26.1752 12.7049C25.9505 12.828 25.772 13.0004 25.6396 13.2219C25.5104 13.4435 25.4458 13.699 25.4458 13.9883V18H23.4791ZM34.6983 12.9311L32.8979 13.0419C32.8671 12.888 32.801 12.7495 32.6994 12.6264C32.5978 12.5002 32.464 12.4002 32.2978 12.3263C32.1346 12.2494 31.9392 12.2109 31.7115 12.2109C31.4068 12.2109 31.1498 12.2756 30.9405 12.4048C30.7312 12.531 30.6266 12.7003 30.6266 12.9126C30.6266 13.0819 30.6943 13.225 30.8297 13.342C30.9651 13.4589 31.1975 13.5528 31.5268 13.6236L32.8102 13.8821C33.4996 14.0237 34.0136 14.2514 34.3521 14.5653C34.6906 14.8793 34.8599 15.2917 34.8599 15.8026C34.8599 16.2673 34.723 16.6751 34.449 17.0259C34.1782 17.3768 33.8058 17.6507 33.3319 17.8477C32.861 18.0415 32.3178 18.1385 31.7022 18.1385C30.7636 18.1385 30.0157 17.9431 29.4586 17.5522C28.9047 17.1583 28.58 16.6228 28.4846 15.9457L30.4189 15.8441C30.4773 16.1303 30.6189 16.3488 30.8436 16.4996C31.0682 16.6474 31.356 16.7212 31.7069 16.7212C32.0516 16.7212 32.3285 16.6551 32.5378 16.5227C32.7502 16.3873 32.8579 16.2134 32.861 16.0011C32.8579 15.8226 32.7825 15.6764 32.6348 15.5625C32.487 15.4455 32.2593 15.3563 31.9515 15.2947L30.7235 15.0501C30.0311 14.9116 29.5156 14.6715 29.177 14.3299C28.8416 13.9883 28.6738 13.5528 28.6738 13.0234C28.6738 12.5679 28.7969 12.1755 29.0431 11.8462C29.2924 11.5169 29.6417 11.263 30.0911 11.0845C30.5435 10.906 31.0729 10.8168 31.6792 10.8168C32.5748 10.8168 33.2795 11.006 33.7935 11.3846C34.3105 11.7631 34.6122 12.2786 34.6983 12.9311ZM36.0983 18V10.9091H38.0649V18H36.0983ZM37.0862 9.99503C36.7938 9.99503 36.543 9.89808 36.3337 9.70419C36.1275 9.50722 36.0244 9.27178 36.0244 8.99787C36.0244 8.72704 36.1275 8.49467 36.3337 8.30078C36.543 8.10381 36.7938 8.00533 37.0862 8.00533C37.3786 8.00533 37.6279 8.10381 37.8341 8.30078C38.0434 8.49467 38.148 8.72704 38.148 8.99787C38.148 9.27178 38.0434 9.50722 37.8341 9.70419C37.6279 9.89808 37.3786 9.99503 37.0862 9.99503ZM42.8441 18.1385C42.127 18.1385 41.5069 17.9862 40.9837 17.6815C40.4635 17.3737 40.0619 16.9459 39.7788 16.3981C39.4956 15.8472 39.354 15.2086 39.354 14.4822C39.354 13.7498 39.4956 13.1096 39.7788 12.5618C40.0619 12.0109 40.4635 11.5831 40.9837 11.2784C41.5069 10.9706 42.127 10.8168 42.8441 10.8168C43.5612 10.8168 44.1798 10.9706 44.6999 11.2784C45.2231 11.5831 45.6263 12.0109 45.9094 12.5618C46.1926 13.1096 46.3342 13.7498 46.3342 14.4822C46.3342 15.2086 46.1926 15.8472 45.9094 16.3981C45.6263 16.9459 45.2231 17.3737 44.6999 17.6815C44.1798 17.9862 43.5612 18.1385 42.8441 18.1385ZM42.8533 16.6151C43.1796 16.6151 43.4519 16.5227 43.6705 16.3381C43.889 16.1503 44.0536 15.8949 44.1644 15.5717C44.2783 15.2486 44.3352 14.8808 44.3352 14.4684C44.3352 14.056 44.2783 13.6882 44.1644 13.3651C44.0536 13.0419 43.889 12.7865 43.6705 12.5987C43.4519 12.411 43.1796 12.3171 42.8533 12.3171C42.524 12.3171 42.247 12.411 42.0224 12.5987C41.8008 12.7865 41.633 13.0419 41.5192 13.3651C41.4084 13.6882 41.353 14.056 41.353 14.4684C41.353 14.8808 41.4084 15.2486 41.5192 15.5717C41.633 15.8949 41.8008 16.1503 42.0224 16.3381C42.247 16.5227 42.524 16.6151 42.8533 16.6151ZM49.5795 13.9006V18H47.6129V10.9091H49.4872V12.1602H49.5703C49.7273 11.7478 49.9904 11.4215 50.3597 11.1815C50.729 10.9383 51.1768 10.8168 51.7031 10.8168C52.1955 10.8168 52.6249 10.9245 52.9911 11.1399C53.3574 11.3554 53.642 11.6631 53.8452 12.0632C54.0483 12.4602 54.1499 12.9342 54.1499 13.4851V18H52.1832V13.8359C52.1863 13.402 52.0755 13.0634 51.8509 12.8203C51.6262 12.5741 51.3169 12.451 50.9229 12.451C50.6583 12.451 50.4244 12.5079 50.2212 12.6218C50.0212 12.7357 49.8642 12.9019 49.7504 13.1204C49.6396 13.3358 49.5826 13.5959 49.5795 13.9006Z" fill="#FFFCFF"/>
<rect width="44" height="26" transform="translate(60)" fill="#533DA3"/>
<path d="M69.4734 18.2077C68.6793 18.2047 67.9961 18.0092 67.4237 17.6214C66.8543 17.2337 66.4157 16.672 66.108 15.9364C65.8033 15.2009 65.6525 14.3161 65.6555 13.282C65.6555 12.2509 65.8079 11.3723 66.1126 10.646C66.4203 9.91963 66.8589 9.36719 67.4283 8.98864C68.0007 8.60701 68.6824 8.41619 69.4734 8.41619C70.2643 8.41619 70.9445 8.60701 71.5138 8.98864C72.0863 9.37026 72.5264 9.92424 72.8342 10.6506C73.1419 11.3738 73.2943 12.2509 73.2912 13.282C73.2912 14.3191 73.1373 15.2055 72.8295 15.9411C72.5249 16.6766 72.0878 17.2383 71.5185 17.6261C70.9491 18.0138 70.2674 18.2077 69.4734 18.2077ZM69.4734 16.5504C70.015 16.5504 70.4474 16.2781 70.7706 15.7333C71.0938 15.1886 71.2538 14.3714 71.2507 13.282C71.2507 12.5649 71.1768 11.9678 71.0291 11.4908C70.8845 11.0137 70.6783 10.6552 70.4105 10.4151C70.1458 10.1751 69.8335 10.055 69.4734 10.055C68.9348 10.055 68.5039 10.3243 68.1808 10.8629C67.8576 11.4015 67.6945 12.2079 67.6914 13.282C67.6914 14.0083 67.7637 14.6146 67.9084 15.1009C68.0561 15.584 68.2638 15.9472 68.5316 16.1903C68.7994 16.4304 69.1133 16.5504 69.4734 16.5504ZM75.5036 18.12C75.199 18.12 74.9374 18.0123 74.7188 17.7969C74.5034 17.5784 74.3957 17.3168 74.3957 17.0121C74.3957 16.7105 74.5034 16.4519 74.7188 16.2365C74.9374 16.0211 75.199 15.9134 75.5036 15.9134C75.7991 15.9134 76.0576 16.0211 76.2792 16.2365C76.5008 16.4519 76.6116 16.7105 76.6116 17.0121C76.6116 17.2152 76.5593 17.4014 76.4546 17.5707C76.3531 17.7369 76.2192 17.8707 76.053 17.9723C75.8868 18.0708 75.7037 18.12 75.5036 18.12ZM78.0646 16.3381V14.7638L82.0117 8.54545H83.369V10.7244H82.5657L80.0774 14.6623V14.7362H85.6864V16.3381H78.0646ZM82.6026 18V15.858L82.6396 15.1609V8.54545H84.5138V18H82.6026ZM88.0085 18.12C87.7038 18.12 87.4422 18.0123 87.2237 17.7969C87.0083 17.5784 86.9006 17.3168 86.9006 17.0121C86.9006 16.7105 87.0083 16.4519 87.2237 16.2365C87.4422 16.0211 87.7038 15.9134 88.0085 15.9134C88.304 15.9134 88.5625 16.0211 88.7841 16.2365C89.0057 16.4519 89.1165 16.7105 89.1165 17.0121C89.1165 17.2152 89.0642 17.4014 88.9595 17.5707C88.858 17.7369 88.7241 17.8707 88.5579 17.9723C88.3917 18.0708 88.2086 18.12 88.0085 18.12ZM94.0388 18.2077C93.2448 18.2047 92.5615 18.0092 91.9891 17.6214C91.4197 17.2337 90.9811 16.672 90.6734 15.9364C90.3687 15.2009 90.2179 14.3161 90.221 13.282C90.221 12.2509 90.3733 11.3723 90.678 10.646C90.9858 9.91963 91.4243 9.36719 91.9937 8.98864C92.5661 8.60701 93.2478 8.41619 94.0388 8.41619C94.8298 8.41619 95.5099 8.60701 96.0793 8.98864C96.6517 9.37026 97.0918 9.92424 97.3996 10.6506C97.7074 11.3738 97.8597 12.2509 97.8566 13.282C97.8566 14.3191 97.7027 15.2055 97.395 15.9411C97.0903 16.6766 96.6533 17.2383 96.0839 17.6261C95.5145 18.0138 94.8328 18.2077 94.0388 18.2077ZM94.0388 16.5504C94.5805 16.5504 95.0129 16.2781 95.336 15.7333C95.6592 15.1886 95.8192 14.3714 95.8161 13.282C95.8161 12.5649 95.7423 11.9678 95.5945 11.4908C95.4499 11.0137 95.2437 10.6552 94.9759 10.4151C94.7113 10.1751 94.3989 10.055 94.0388 10.055C93.5002 10.055 93.0693 10.3243 92.7462 10.8629C92.423 11.4015 92.2599 12.2079 92.2568 13.282C92.2568 14.0083 92.3292 14.6146 92.4738 15.1009C92.6215 15.584 92.8293 15.9472 93.097 16.1903C93.3648 16.4304 93.6787 16.5504 94.0388 16.5504Z" fill="#FFFCFF"/>
<path d="M104 0H210C215.657 0 218.485 0 220.243 1.75736C222 3.51472 222 6.34315 222 12V14C222 19.6569 222 22.4853 220.243 24.2426C218.485 26 215.657 26 210 26H104V0Z" fill="#6C4FD4"/>
<path d="M114.951 11.2646C114.914 10.8922 114.755 10.6029 114.475 10.3967C114.195 10.1905 113.815 10.0874 113.335 10.0874C113.009 10.0874 112.733 10.1335 112.509 10.2259C112.284 10.3151 112.112 10.4397 111.991 10.5998C111.875 10.7598 111.816 10.9414 111.816 11.1445C111.81 11.3138 111.845 11.4615 111.922 11.5877C112.002 11.7139 112.112 11.8232 112.25 11.9155C112.388 12.0047 112.549 12.0832 112.73 12.1509C112.912 12.2156 113.106 12.271 113.312 12.3171L114.161 12.5202C114.574 12.6126 114.952 12.7357 115.297 12.8896C115.642 13.0434 115.94 13.2327 116.192 13.4574C116.445 13.6821 116.64 13.9467 116.779 14.2514C116.92 14.5561 116.993 14.9054 116.996 15.2994C116.993 15.878 116.845 16.3796 116.553 16.8043C116.263 17.226 115.845 17.5537 115.297 17.7876C114.752 18.0185 114.095 18.1339 113.326 18.1339C112.562 18.1339 111.898 18.0169 111.331 17.783C110.768 17.5491 110.328 17.2029 110.011 16.7443C109.697 16.2827 109.532 15.7118 109.517 15.0316H111.451C111.473 15.3486 111.564 15.6133 111.724 15.8256C111.887 16.0349 112.104 16.1934 112.375 16.3011C112.649 16.4058 112.958 16.4581 113.303 16.4581C113.641 16.4581 113.935 16.4089 114.184 16.3104C114.437 16.2119 114.632 16.0749 114.771 15.8995C114.909 15.7241 114.978 15.5225 114.978 15.2947C114.978 15.0824 114.915 14.9039 114.789 14.7592C114.666 14.6146 114.484 14.4915 114.244 14.3899C114.007 14.2884 113.717 14.196 113.372 14.1129L112.342 13.8544C111.545 13.6605 110.916 13.3574 110.454 12.945C109.993 12.5326 109.763 11.977 109.766 11.2784C109.763 10.706 109.916 10.2058 110.223 9.77805C110.534 9.35026 110.96 9.01634 111.502 8.77628C112.044 8.53622 112.659 8.41619 113.349 8.41619C114.05 8.41619 114.663 8.53622 115.186 8.77628C115.712 9.01634 116.122 9.35026 116.414 9.77805C116.706 10.2058 116.857 10.7013 116.866 11.2646H114.951ZM121.535 18.1385C120.805 18.1385 120.178 17.9908 119.651 17.6953C119.128 17.3968 118.725 16.9751 118.442 16.4304C118.159 15.8826 118.017 15.2347 118.017 14.4869C118.017 13.7575 118.159 13.1173 118.442 12.5664C118.725 12.0155 119.124 11.5862 119.638 11.2784C120.155 10.9706 120.761 10.8168 121.456 10.8168C121.924 10.8168 122.36 10.8922 122.763 11.043C123.169 11.1907 123.523 11.4138 123.825 11.7124C124.129 12.0109 124.366 12.3864 124.536 12.8388C124.705 13.2881 124.79 13.8144 124.79 14.4176V14.9577H118.802V13.739H122.938C122.938 13.4558 122.877 13.205 122.754 12.9865C122.631 12.768 122.46 12.5972 122.241 12.4741C122.026 12.3479 121.775 12.2848 121.489 12.2848C121.19 12.2848 120.926 12.354 120.695 12.4925C120.467 12.628 120.288 12.8111 120.159 13.0419C120.03 13.2696 119.964 13.5236 119.961 13.8036V14.9624C119.961 15.3132 120.025 15.6164 120.155 15.8718C120.287 16.1272 120.473 16.3242 120.713 16.4627C120.953 16.6012 121.238 16.6705 121.567 16.6705C121.786 16.6705 121.986 16.6397 122.167 16.5781C122.349 16.5166 122.504 16.4242 122.634 16.3011C122.763 16.178 122.861 16.0272 122.929 15.8487L124.748 15.9688C124.656 16.4058 124.466 16.7874 124.18 17.1136C123.897 17.4368 123.531 17.6892 123.081 17.8707C122.635 18.0492 122.12 18.1385 121.535 18.1385ZM126.073 20.6591V10.9091H128.012V12.1001H128.1C128.186 11.9093 128.31 11.7154 128.473 11.5185C128.64 11.3184 128.855 11.1522 129.12 11.0199C129.388 10.8845 129.72 10.8168 130.117 10.8168C130.634 10.8168 131.111 10.9522 131.548 11.223C131.985 11.4908 132.334 11.8955 132.596 12.4371C132.858 12.9757 132.988 13.6513 132.988 14.4638C132.988 15.2547 132.861 15.9226 132.605 16.4673C132.353 17.009 132.008 17.4199 131.571 17.6999C131.137 17.9769 130.651 18.1154 130.112 18.1154C129.731 18.1154 129.406 18.0523 129.138 17.9261C128.874 17.8 128.657 17.6415 128.487 17.4506C128.318 17.2567 128.189 17.0613 128.1 16.8643H128.04V20.6591H126.073ZM127.998 14.4545C127.998 14.8762 128.056 15.244 128.173 15.5579C128.29 15.8718 128.46 16.1165 128.681 16.2919C128.903 16.4643 129.172 16.5504 129.489 16.5504C129.809 16.5504 130.08 16.4627 130.302 16.2873C130.523 16.1088 130.691 15.8626 130.805 15.5487C130.922 15.2317 130.98 14.867 130.98 14.4545C130.98 14.0452 130.923 13.6851 130.809 13.3743C130.696 13.0634 130.528 12.8203 130.306 12.6449C130.085 12.4695 129.812 12.3817 129.489 12.3817C129.169 12.3817 128.898 12.4664 128.677 12.6357C128.458 12.8049 128.29 13.045 128.173 13.3558C128.056 13.6667 127.998 14.0329 127.998 14.4545ZM138.071 10.9091V12.3864H133.801V10.9091H138.071ZM134.77 9.21023H136.737V15.821C136.737 16.0026 136.765 16.1442 136.82 16.2457C136.875 16.3442 136.952 16.4135 137.051 16.4535C137.152 16.4935 137.269 16.5135 137.402 16.5135C137.494 16.5135 137.586 16.5058 137.679 16.4904C137.771 16.4719 137.842 16.4581 137.891 16.4489L138.2 17.9123C138.102 17.9431 137.963 17.9785 137.785 18.0185C137.606 18.0616 137.389 18.0877 137.134 18.0969C136.66 18.1154 136.245 18.0523 135.888 17.9077C135.534 17.763 135.258 17.5384 135.061 17.2337C134.864 16.929 134.767 16.5443 134.77 16.0795V9.21023ZM142.508 18.1385C141.778 18.1385 141.15 17.9908 140.624 17.6953C140.101 17.3968 139.698 16.9751 139.415 16.4304C139.131 15.8826 138.99 15.2347 138.99 14.4869C138.99 13.7575 139.131 13.1173 139.415 12.5664C139.698 12.0155 140.096 11.5862 140.61 11.2784C141.127 10.9706 141.734 10.8168 142.429 10.8168C142.897 10.8168 143.332 10.8922 143.736 11.043C144.142 11.1907 144.496 11.4138 144.797 11.7124C145.102 12.0109 145.339 12.3864 145.508 12.8388C145.678 13.2881 145.762 13.8144 145.762 14.4176V14.9577H139.775V13.739H143.911C143.911 13.4558 143.849 13.205 143.726 12.9865C143.603 12.768 143.432 12.5972 143.214 12.4741C142.998 12.3479 142.748 12.2848 142.461 12.2848C142.163 12.2848 141.898 12.354 141.667 12.4925C141.44 12.628 141.261 12.8111 141.132 13.0419C141.003 13.2696 140.936 13.5236 140.933 13.8036V14.9624C140.933 15.3132 140.998 15.6164 141.127 15.8718C141.26 16.1272 141.446 16.3242 141.686 16.4627C141.926 16.6012 142.211 16.6705 142.54 16.6705C142.758 16.6705 142.958 16.6397 143.14 16.5781C143.322 16.5166 143.477 16.4242 143.606 16.3011C143.736 16.178 143.834 16.0272 143.902 15.8487L145.721 15.9688C145.628 16.4058 145.439 16.7874 145.153 17.1136C144.87 17.4368 144.503 17.6892 144.054 17.8707C143.608 18.0492 143.092 18.1385 142.508 18.1385ZM147.046 18V10.9091H148.92V12.1602H149.003C149.151 11.7447 149.397 11.4169 149.742 11.1768C150.086 10.9368 150.499 10.8168 150.979 10.8168C151.465 10.8168 151.879 10.9383 152.221 11.1815C152.562 11.4215 152.79 11.7478 152.904 12.1602H152.978C153.122 11.7539 153.384 11.4292 153.763 11.1861C154.144 10.9399 154.595 10.8168 155.115 10.8168C155.777 10.8168 156.314 11.0276 156.726 11.4492C157.142 11.8678 157.35 12.4618 157.35 13.2312V18H155.388V13.619C155.388 13.225 155.283 12.9296 155.074 12.7326C154.864 12.5356 154.603 12.4371 154.289 12.4371C153.932 12.4371 153.653 12.551 153.453 12.7788C153.253 13.0034 153.153 13.3004 153.153 13.6697V18H151.247V13.5774C151.247 13.2296 151.147 12.9527 150.946 12.7464C150.749 12.5402 150.489 12.4371 150.166 12.4371C149.948 12.4371 149.751 12.4925 149.575 12.6033C149.403 12.7111 149.266 12.8634 149.165 13.0604C149.063 13.2543 149.012 13.482 149.012 13.7436V18H147.046ZM158.94 18V8.54545H160.907V12.1001H160.967C161.053 11.9093 161.177 11.7154 161.34 11.5185C161.507 11.3184 161.722 11.1522 161.987 11.0199C162.255 10.8845 162.587 10.8168 162.984 10.8168C163.501 10.8168 163.978 10.9522 164.415 11.223C164.852 11.4908 165.201 11.8955 165.463 12.4371C165.725 12.9757 165.855 13.6513 165.855 14.4638C165.855 15.2547 165.728 15.9226 165.472 16.4673C165.22 17.009 164.875 17.4199 164.438 17.6999C164.004 17.9769 163.518 18.1154 162.979 18.1154C162.598 18.1154 162.273 18.0523 162.005 17.9261C161.741 17.8 161.524 17.6415 161.354 17.4506C161.185 17.2567 161.056 17.0613 160.967 16.8643H160.879V18H158.94ZM160.865 14.4545C160.865 14.8762 160.923 15.244 161.04 15.5579C161.157 15.8718 161.327 16.1165 161.548 16.2919C161.77 16.4643 162.039 16.5504 162.356 16.5504C162.676 16.5504 162.947 16.4627 163.169 16.2873C163.39 16.1088 163.558 15.8626 163.672 15.5487C163.789 15.2317 163.847 14.867 163.847 14.4545C163.847 14.0452 163.79 13.6851 163.676 13.3743C163.563 13.0634 163.395 12.8203 163.173 12.6449C162.952 12.4695 162.679 12.3817 162.356 12.3817C162.036 12.3817 161.765 12.4664 161.544 12.6357C161.325 12.8049 161.157 13.045 161.04 13.3558C160.923 13.6667 160.865 14.0329 160.865 14.4545ZM170.399 18.1385C169.67 18.1385 169.042 17.9908 168.516 17.6953C167.992 17.3968 167.589 16.9751 167.306 16.4304C167.023 15.8826 166.881 15.2347 166.881 14.4869C166.881 13.7575 167.023 13.1173 167.306 12.5664C167.589 12.0155 167.988 11.5862 168.502 11.2784C169.019 10.9706 169.625 10.8168 170.321 10.8168C170.788 10.8168 171.224 10.8922 171.627 11.043C172.033 11.1907 172.387 11.4138 172.689 11.7124C172.994 12.0109 173.231 12.3864 173.4 12.8388C173.569 13.2881 173.654 13.8144 173.654 14.4176V14.9577H167.666V13.739H171.803C171.803 13.4558 171.741 13.205 171.618 12.9865C171.495 12.768 171.324 12.5972 171.105 12.4741C170.89 12.3479 170.639 12.2848 170.353 12.2848C170.054 12.2848 169.79 12.354 169.559 12.4925C169.331 12.628 169.153 12.8111 169.023 13.0419C168.894 13.2696 168.828 13.5236 168.825 13.8036V14.9624C168.825 15.3132 168.89 15.6164 169.019 15.8718C169.151 16.1272 169.337 16.3242 169.577 16.4627C169.817 16.6012 170.102 16.6705 170.431 16.6705C170.65 16.6705 170.85 16.6397 171.032 16.5781C171.213 16.5166 171.369 16.4242 171.498 16.3011C171.627 16.178 171.726 16.0272 171.793 15.8487L173.612 15.9688C173.52 16.4058 173.331 16.7874 173.044 17.1136C172.761 17.4368 172.395 17.6892 171.946 17.8707C171.499 18.0492 170.984 18.1385 170.399 18.1385ZM174.937 18V10.9091H176.844V12.1463H176.918C177.047 11.7062 177.264 11.3738 177.569 11.1491C177.873 10.9214 178.224 10.8075 178.621 10.8075C178.72 10.8075 178.826 10.8137 178.94 10.826C179.054 10.8383 179.154 10.8552 179.24 10.8768V12.6218C179.147 12.5941 179.02 12.5695 178.857 12.5479C178.693 12.5264 178.544 12.5156 178.409 12.5156C178.119 12.5156 177.861 12.5787 177.633 12.7049C177.408 12.828 177.23 13.0004 177.098 13.2219C176.968 13.4435 176.904 13.699 176.904 13.9883V18H174.937ZM183.247 18V16.5597L186.612 13.4435C186.898 13.1665 187.138 12.9173 187.332 12.6957C187.529 12.4741 187.679 12.2571 187.78 12.0447C187.882 11.8293 187.933 11.5969 187.933 11.3477C187.933 11.0707 187.869 10.8321 187.743 10.6321C187.617 10.429 187.445 10.2736 187.226 10.1658C187.008 10.055 186.76 9.99964 186.483 9.99964C186.194 9.99964 185.941 10.0581 185.726 10.1751C185.51 10.292 185.344 10.4598 185.227 10.6783C185.11 10.8968 185.052 11.1568 185.052 11.4585H183.154C183.154 10.8398 183.295 10.3028 183.575 9.8473C183.855 9.39181 184.247 9.03942 184.752 8.79013C185.257 8.54084 185.838 8.41619 186.497 8.41619C187.174 8.41619 187.763 8.53622 188.265 8.77628C188.77 9.01326 189.162 9.34257 189.442 9.7642C189.722 10.1858 189.862 10.669 189.862 11.2138C189.862 11.5708 189.791 11.9232 189.65 12.271C189.511 12.6187 189.264 13.005 188.907 13.4297C188.55 13.8513 188.046 14.3576 187.397 14.9485L186.017 16.3011V16.3658H189.987V18H183.247ZM195.142 18.2077C194.348 18.2047 193.665 18.0092 193.093 17.6214C192.523 17.2337 192.085 16.672 191.777 15.9364C191.472 15.2009 191.321 14.3161 191.324 13.282C191.324 12.2509 191.477 11.3723 191.782 10.646C192.089 9.91963 192.528 9.36719 193.097 8.98864C193.67 8.60701 194.351 8.41619 195.142 8.41619C195.933 8.41619 196.613 8.60701 197.183 8.98864C197.755 9.37026 198.195 9.92424 198.503 10.6506C198.811 11.3738 198.963 12.2509 198.96 13.282C198.96 14.3191 198.806 15.2055 198.498 15.9411C198.194 16.6766 197.757 17.2383 197.187 17.6261C196.618 18.0138 195.936 18.2077 195.142 18.2077ZM195.142 16.5504C195.684 16.5504 196.116 16.2781 196.44 15.7333C196.763 15.1886 196.923 14.3714 196.92 13.282C196.92 12.5649 196.846 11.9678 196.698 11.4908C196.553 11.0137 196.347 10.6552 196.079 10.4151C195.815 10.1751 195.502 10.055 195.142 10.055C194.604 10.055 194.173 10.3243 193.85 10.8629C193.527 11.4015 193.363 12.2079 193.36 13.282C193.36 14.0083 193.433 14.6146 193.577 15.1009C193.725 15.584 193.933 15.9472 194.201 16.1903C194.468 16.4304 194.782 16.5504 195.142 16.5504ZM200.385 18V16.5597L203.751 13.4435C204.037 13.1665 204.277 12.9173 204.471 12.6957C204.668 12.4741 204.817 12.2571 204.919 12.0447C205.02 11.8293 205.071 11.5969 205.071 11.3477C205.071 11.0707 205.008 10.8321 204.882 10.6321C204.756 10.429 204.583 10.2736 204.365 10.1658C204.146 10.055 203.899 9.99964 203.622 9.99964C203.332 9.99964 203.08 10.0581 202.865 10.1751C202.649 10.292 202.483 10.4598 202.366 10.6783C202.249 10.8968 202.191 11.1568 202.191 11.4585H200.293C200.293 10.8398 200.433 10.3028 200.713 9.8473C200.993 9.39181 201.386 9.03942 201.89 8.79013C202.395 8.54084 202.977 8.41619 203.635 8.41619C204.313 8.41619 204.902 8.53622 205.404 8.77628C205.908 9.01326 206.301 9.34257 206.581 9.7642C206.861 10.1858 207.001 10.669 207.001 11.2138C207.001 11.5708 206.93 11.9232 206.789 12.271C206.65 12.6187 206.402 13.005 206.045 13.4297C205.688 13.8513 205.185 14.3576 204.536 14.9485L203.155 16.3011V16.3658H207.126V18H200.385ZM212.069 18.1293C211.379 18.1293 210.765 18.0108 210.227 17.7738C209.691 17.5337 209.268 17.2044 208.957 16.7859C208.649 16.3642 208.491 15.878 208.482 15.3271H210.494C210.507 15.5579 210.582 15.761 210.721 15.9364C210.862 16.1088 211.05 16.2427 211.284 16.3381C211.518 16.4335 211.781 16.4812 212.073 16.4812C212.378 16.4812 212.647 16.4273 212.881 16.3196C213.115 16.2119 213.298 16.0626 213.43 15.8718C213.563 15.681 213.629 15.4609 213.629 15.2116C213.629 14.9593 213.558 14.7362 213.417 14.5423C213.278 14.3453 213.078 14.1914 212.816 14.0806C212.558 13.9698 212.25 13.9144 211.893 13.9144H211.011V12.4464H211.893C212.195 12.4464 212.461 12.3941 212.692 12.2894C212.926 12.1848 213.107 12.0401 213.237 11.8555C213.366 11.6677 213.43 11.4492 213.43 11.1999C213.43 10.9629 213.374 10.7552 213.26 10.5767C213.149 10.3951 212.992 10.2536 212.789 10.152C212.589 10.0504 212.355 9.99964 212.087 9.99964C211.816 9.99964 211.569 10.0489 211.344 10.1474C211.119 10.2428 210.939 10.3797 210.804 10.5582C210.668 10.7367 210.596 10.946 210.587 11.1861H208.671C208.68 10.6413 208.836 10.1612 209.137 9.74574C209.439 9.33026 209.845 9.00556 210.356 8.77166C210.87 8.53468 211.45 8.41619 212.096 8.41619C212.749 8.41619 213.32 8.53468 213.809 8.77166C214.298 9.00864 214.678 9.32872 214.949 9.73189C215.223 10.132 215.359 10.5813 215.356 11.0799C215.359 11.6093 215.194 12.0509 214.862 12.4048C214.532 12.7588 214.103 12.9834 213.574 13.0788V13.1527C214.269 13.242 214.799 13.4835 215.162 13.8775C215.528 14.2683 215.709 14.7577 215.706 15.3455C215.709 15.8841 215.554 16.3627 215.24 16.7812C214.929 17.1998 214.5 17.5291 213.952 17.7692C213.404 18.0092 212.776 18.1293 212.069 18.1293Z" fill="#FFFCFF"/>
</svg>
